<?xml version="1.0" encoding="UTF-8" standalone="no"?>
<!DOCTYPE svg PUBLIC "-//W3C//DTD SVG 1.1//EN"
 "http://www.w3.org/Graphics/SVG/1.1/DTD/svg11.dtd">
<!-- Generated by graphviz version 2.38.0 (20140413.2041)
 -->
<!-- Title: mom_sum_output::write_energy Pages: 1 -->
<svg width="951pt" height="569pt"
 viewBox="0.00 0.00 951.00 568.50" xmlns="http://www.w3.org/2000/svg" xmlns:xlink="http://www.w3.org/1999/xlink">
<g id="graph0" class="graph" transform="scale(1 1) rotate(0) translate(4 564.5)">
<title>mom_sum_output::write_energy</title>
<polygon fill="white" stroke="none" points="-4,4 -4,-564.5 947,-564.5 947,4 -4,4"/>
<!-- Node50 -->
<g id="node1" class="node"><title>Node50</title>
<polygon fill="#bfbfbf" stroke="black" points="0,-99 0,-129 103,-129 103,-99 0,-99"/>
<text text-anchor="start" x="8" y="-117" font-family="Helvetica,sans-Serif" font-size="10.00">mom_sum_output::write</text>
<text text-anchor="middle" x="51.5" y="-106" font-family="Helvetica,sans-Serif" font-size="10.00">_energy</text>
</g>
<!-- Node51 -->
<g id="node2" class="node"><title>Node51</title>
<g id="a_node2"><a xlink:href="../../d1/d99/namespacemom__tracer__flow__control.html#afd8526344e928c8c9505c921bf37447f" target="_top" xlink:title="mom_tracer_flow_control\l::call_tracer_stocks">
<polygon fill="white" stroke="black" points="139,-344 139,-374 246,-374 246,-344 139,-344"/>
<text text-anchor="start" x="147" y="-362" font-family="Helvetica,sans-Serif" font-size="10.00">mom_tracer_flow_control</text>
<text text-anchor="middle" x="192.5" y="-351" font-family="Helvetica,sans-Serif" font-size="10.00">::call_tracer_stocks</text>
</a>
</g>
</g>
<!-- Node50&#45;&gt;Node51 -->
<g id="edge1" class="edge"><title>Node50&#45;&gt;Node51</title>
<path fill="none" stroke="midnightblue" d="M61.1951,-129.326C84.702,-170.759 149.648,-285.232 177.984,-335.177"/>
<polygon fill="midnightblue" stroke="midnightblue" points="175.007,-337.022 182.986,-343.993 181.095,-333.568 175.007,-337.022"/>
</g>
<!-- Node52 -->
<g id="node3" class="node"><title>Node52</title>
<g id="a_node3"><a xlink:href="../../d0/de6/namespacemom__error__handler.html#a460cfb79a06c29fc249952c2a3710d67" target="_top" xlink:title="mom_error_handler::\lmom_error">
<polygon fill="white" stroke="black" points="721,-175 721,-205 814,-205 814,-175 721,-175"/>
<text text-anchor="start" x="729" y="-193" font-family="Helvetica,sans-Serif" font-size="10.00">mom_error_handler::</text>
<text text-anchor="middle" x="767.5" y="-182" font-family="Helvetica,sans-Serif" font-size="10.00">mom_error</text>
</a>
</g>
</g>
<!-- Node50&#45;&gt;Node52 -->
<g id="edge22" class="edge"><title>Node50&#45;&gt;Node52</title>
<path fill="none" stroke="midnightblue" d="M103.041,-114C160.103,-114 255.72,-114 338,-114 338,-114 338,-114 486.5,-114 575.125,-114 601.835,-102.372 685,-133 706.327,-140.854 727.268,-155.7 742.582,-168.272"/>
<polygon fill="midnightblue" stroke="midnightblue" points="740.586,-171.168 750.478,-174.964 745.112,-165.828 740.586,-171.168"/>
</g>
<!-- Node53 -->
<g id="node4" class="node"><title>Node53</title>
<g id="a_node4"><a xlink:href="../../d0/de6/namespacemom__error__handler.html#ad5f00a53059c72fe2332d1436c80ca71" target="_top" xlink:title="mom_error_handler::\lis_root_pe">
<polygon fill="white" stroke="black" points="850,-80 850,-110 943,-110 943,-80 850,-80"/>
<text text-anchor="start" x="858" y="-98" font-family="Helvetica,sans-Serif" font-size="10.00">mom_error_handler::</text>
<text text-anchor="middle" x="896.5" y="-87" font-family="Helvetica,sans-Serif" font-size="10.00">is_root_pe</text>
</a>
</g>
</g>
<!-- Node50&#45;&gt;Node53 -->
<g id="edge21" class="edge"><title>Node50&#45;&gt;Node53</title>
<path fill="none" stroke="midnightblue" d="M71.7649,-98.8225C88.6636,-86.1342 114.324,-68.3408 139,-57 222.595,-18.5801 245.999,-0 338,-0 338,-0 338,-0 631,-0 718.78,-0 813.811,-46.9171 862.551,-74.8089"/>
<polygon fill="midnightblue" stroke="midnightblue" points="860.98,-77.9439 871.383,-79.947 864.5,-71.8932 860.98,-77.9439"/>
</g>
<!-- Node63 -->
<g id="node14" class="node"><title>Node63</title>
<g id="a_node14"><a xlink:href="../../d7/d0a/namespacemom__coms.html#a4aaf51b372bcaf7b46939145577eff92" target="_top" xlink:title="mom_coms::efp_to_real">
<polygon fill="white" stroke="black" points="141,-66.5 141,-85.5 244,-85.5 244,-66.5 141,-66.5"/>
<text text-anchor="middle" x="192.5" y="-73.5" font-family="Helvetica,sans-Serif" font-size="10.00">mom_coms::efp_to_real</text>
</a>
</g>
</g>
<!-- Node50&#45;&gt;Node63 -->
<g id="edge18" class="edge"><title>Node50&#45;&gt;Node63</title>
<path fill="none" stroke="midnightblue" d="M103.075,-100.174C117.317,-96.2802 132.706,-92.0731 146.592,-88.277"/>
<polygon fill="midnightblue" stroke="midnightblue" points="147.676,-91.6091 156.399,-85.5959 145.83,-84.8569 147.676,-91.6091"/>
</g>
<!-- Node66 -->
<g id="node17" class="node"><title>Node66</title>
<g id="a_node17"><a xlink:href="../../d7/d0a/namespacemom__coms.html#ac8f1b5be23b128cd8bb956ebda917edb" target="_top" xlink:title="mom_coms::real_to_efp">
<polygon fill="white" stroke="black" points="434,-142.5 434,-161.5 537,-161.5 537,-142.5 434,-142.5"/>
<text text-anchor="middle" x="485.5" y="-149.5" font-family="Helvetica,sans-Serif" font-size="10.00">mom_coms::real_to_efp</text>
</a>
</g>
</g>
<!-- Node50&#45;&gt;Node66 -->
<g id="edge23" class="edge"><title>Node50&#45;&gt;Node66</title>
<path fill="none" stroke="midnightblue" d="M103.163,-122.992C114.901,-124.855 127.363,-126.657 139,-128 238.283,-139.459 354.293,-146.155 423.454,-149.443"/>
<polygon fill="midnightblue" stroke="midnightblue" points="423.574,-152.952 433.726,-149.922 423.9,-145.96 423.574,-152.952"/>
</g>
<!-- Node51&#45;&gt;Node52 -->
<g id="edge2" class="edge"><title>Node51&#45;&gt;Node52</title>
<path fill="none" stroke="midnightblue" d="M206.858,-343.902C222.892,-326.844 251.464,-299.68 282,-286 292.336,-281.369 674.096,-227.064 685,-224 698.643,-220.166 713.06,-214.668 725.913,-209.207"/>
<polygon fill="midnightblue" stroke="midnightblue" points="727.633,-212.275 735.398,-205.067 724.833,-205.86 727.633,-212.275"/>
</g>
<!-- Node54 -->
<g id="node5" class="node"><title>Node54</title>
<g id="a_node5"><a xlink:href="../../d1/d99/namespacemom__tracer__flow__control.html#ad43ea30fa52fcb930db39037f5d7e6b9" target="_top" xlink:title="mom_tracer_flow_control\l::store_stocks">
<polygon fill="white" stroke="black" points="432,-207 432,-237 539,-237 539,-207 432,-207"/>
<text text-anchor="start" x="440" y="-225" font-family="Helvetica,sans-Serif" font-size="10.00">mom_tracer_flow_control</text>
<text text-anchor="middle" x="485.5" y="-214" font-family="Helvetica,sans-Serif" font-size="10.00">::store_stocks</text>
</a>
</g>
</g>
<!-- Node51&#45;&gt;Node54 -->
<g id="edge4" class="edge"><title>Node51&#45;&gt;Node54</title>
<path fill="none" stroke="midnightblue" d="M201.182,-343.929C214.234,-320.029 243.152,-273.904 282,-252 324.471,-228.053 379.576,-221.157 421.578,-219.913"/>
<polygon fill="midnightblue" stroke="midnightblue" points="421.756,-223.411 431.685,-219.715 421.618,-216.412 421.756,-223.411"/>
</g>
<!-- Node55 -->
<g id="node6" class="node"><title>Node55</title>
<g id="a_node6"><a xlink:href="../../d6/dcd/namespaceideal__age__example.html#a2300d82e30802a3127f4a63277d37776" target="_top" xlink:title="ideal_age_example::\lideal_age_stock">
<polygon fill="white" stroke="black" points="294,-442 294,-472 384,-472 384,-442 294,-442"/>
<text text-anchor="start" x="302" y="-460" font-family="Helvetica,sans-Serif" font-size="10.00">ideal_age_example::</text>
<text text-anchor="middle" x="339" y="-449" font-family="Helvetica,sans-Serif" font-size="10.00">ideal_age_stock</text>
</a>
</g>
</g>
<!-- Node51&#45;&gt;Node55 -->
<g id="edge6" class="edge"><title>Node51&#45;&gt;Node55</title>
<path fill="none" stroke="midnightblue" d="M208.729,-374.143C225.561,-390.278 254.009,-415.814 282,-433 284.451,-434.505 287.012,-435.96 289.634,-437.361"/>
<polygon fill="midnightblue" stroke="midnightblue" points="288.194,-440.554 298.703,-441.898 291.326,-434.294 288.194,-440.554"/>
</g>
<!-- Node58 -->
<g id="node9" class="node"><title>Node58</title>
<g id="a_node9"><a xlink:href="../../de/def/namespaceregional__dyes.html#a0641ff9c663bcfacdd597a79f63d15e0" target="_top" xlink:title="regional_dyes::dye\l_stock">
<polygon fill="white" stroke="black" points="297.5,-530 297.5,-560 380.5,-560 380.5,-530 297.5,-530"/>
<text text-anchor="start" x="305.5" y="-548" font-family="Helvetica,sans-Serif" font-size="10.00">regional_dyes::dye</text>
<text text-anchor="middle" x="339" y="-537" font-family="Helvetica,sans-Serif" font-size="10.00">_stock</text>
</a>
</g>
</g>
<!-- Node51&#45;&gt;Node58 -->
<g id="edge10" class="edge"><title>Node51&#45;&gt;Node58</title>
<path fill="none" stroke="midnightblue" d="M198.226,-374.409C208.562,-405.778 236.004,-477.66 282,-520 284.13,-521.96 286.439,-523.786 288.865,-525.484"/>
<polygon fill="midnightblue" stroke="midnightblue" points="287.122,-528.522 297.475,-530.774 290.786,-522.557 287.122,-528.522"/>
</g>
<!-- Node59 -->
<g id="node10" class="node"><title>Node59</title>
<g id="a_node10"><a xlink:href="../../de/d98/namespaceoil__tracer.html#ac8964b16549dba8fc850e4af15af8029" target="_top" xlink:title="oil_tracer::oil_stock">
<polygon fill="white" stroke="black" points="297,-491.5 297,-510.5 381,-510.5 381,-491.5 297,-491.5"/>
<text text-anchor="middle" x="339" y="-498.5" font-family="Helvetica,sans-Serif" font-size="10.00">oil_tracer::oil_stock</text>
</a>
</g>
</g>
<!-- Node51&#45;&gt;Node59 -->
<g id="edge11" class="edge"><title>Node51&#45;&gt;Node59</title>
<path fill="none" stroke="midnightblue" d="M200.501,-374.198C213.151,-400.036 242.245,-452.579 282,-482 284.518,-483.864 287.232,-485.553 290.059,-487.083"/>
<polygon fill="midnightblue" stroke="midnightblue" points="288.83,-490.373 299.37,-491.446 291.8,-484.034 288.83,-490.373"/>
</g>
<!-- Node60 -->
<g id="node11" class="node"><title>Node60</title>
<g id="a_node11"><a xlink:href="../../d6/dd2/namespacemom__ocmip2__cfc.html#ac3c9967ff09b37934eb5ef51535e7ee3" target="_top" xlink:title="mom_ocmip2_cfc::ocmip2\l_cfc_stock">
<polygon fill="white" stroke="black" points="284.5,-393 284.5,-423 393.5,-423 393.5,-393 284.5,-393"/>
<text text-anchor="start" x="292.5" y="-411" font-family="Helvetica,sans-Serif" font-size="10.00">mom_ocmip2_cfc::ocmip2</text>
<text text-anchor="middle" x="339" y="-400" font-family="Helvetica,sans-Serif" font-size="10.00">_cfc_stock</text>
</a>
</g>
</g>
<!-- Node51&#45;&gt;Node60 -->
<g id="edge12" class="edge"><title>Node51&#45;&gt;Node60</title>
<path fill="none" stroke="midnightblue" d="M238.034,-374.101C252.455,-378.992 268.613,-384.471 283.663,-389.574"/>
<polygon fill="midnightblue" stroke="midnightblue" points="282.77,-392.967 293.364,-392.864 285.018,-386.338 282.77,-392.967"/>
</g>
<!-- Node61 -->
<g id="node12" class="node"><title>Node61</title>
<g id="a_node12"><a xlink:href="../../d8/dc2/namespaceadvection__test__tracer.html#a1e3884b030df6c5107380b4ddd2fbce2" target="_top" xlink:title="advection_test_tracer\l::advection_test_stock">
<polygon fill="white" stroke="black" points="291.5,-344 291.5,-374 386.5,-374 386.5,-344 291.5,-344"/>
<text text-anchor="start" x="299.5" y="-362" font-family="Helvetica,sans-Serif" font-size="10.00">advection_test_tracer</text>
<text text-anchor="middle" x="339" y="-351" font-family="Helvetica,sans-Serif" font-size="10.00">::advection_test_stock</text>
</a>
</g>
</g>
<!-- Node51&#45;&gt;Node61 -->
<g id="edge14" class="edge"><title>Node51&#45;&gt;Node61</title>
<path fill="none" stroke="midnightblue" d="M246.077,-359C257.561,-359 269.762,-359 281.396,-359"/>
<polygon fill="midnightblue" stroke="midnightblue" points="281.44,-362.5 291.44,-359 281.44,-355.5 281.44,-362.5"/>
</g>
<!-- Node62 -->
<g id="node13" class="node"><title>Node62</title>
<g id="a_node13"><a xlink:href="../../df/d4e/namespacepseudo__salt__tracer.html#a282f3c84b7e7ccdaa6d9344342705a6e" target="_top" xlink:title="pseudo_salt_tracer\l::pseudo_salt_stock">
<polygon fill="white" stroke="black" points="296,-295 296,-325 382,-325 382,-295 296,-295"/>
<text text-anchor="start" x="304" y="-313" font-family="Helvetica,sans-Serif" font-size="10.00">pseudo_salt_tracer</text>
<text text-anchor="middle" x="339" y="-302" font-family="Helvetica,sans-Serif" font-size="10.00">::pseudo_salt_stock</text>
</a>
</g>
</g>
<!-- Node51&#45;&gt;Node62 -->
<g id="edge16" class="edge"><title>Node51&#45;&gt;Node62</title>
<path fill="none" stroke="midnightblue" d="M238.034,-343.899C253.279,-338.729 270.465,-332.901 286.232,-327.555"/>
<polygon fill="midnightblue" stroke="midnightblue" points="287.49,-330.824 295.836,-324.298 285.242,-324.195 287.49,-330.824"/>
</g>
<!-- Node52&#45;&gt;Node53 -->
<g id="edge3" class="edge"><title>Node52&#45;&gt;Node53</title>
<path fill="none" stroke="midnightblue" d="M788.624,-174.947C809.678,-159.197 842.921,-134.331 866.741,-116.513"/>
<polygon fill="midnightblue" stroke="midnightblue" points="869.139,-119.09 875.05,-110.297 864.946,-113.484 869.139,-119.09"/>
</g>
<!-- Node54&#45;&gt;Node52 -->
<g id="edge5" class="edge"><title>Node54&#45;&gt;Node52</title>
<path fill="none" stroke="midnightblue" d="M539.286,-218.364C579.356,-215.325 635.765,-210.451 685,-204 693.39,-202.901 702.236,-201.566 710.884,-200.162"/>
<polygon fill="midnightblue" stroke="midnightblue" points="711.618,-203.588 720.906,-198.491 710.467,-196.683 711.618,-203.588"/>
</g>
<!-- Node56 -->
<g id="node7" class="node"><title>Node56</title>
<g id="a_node7"><a xlink:href="../../d5/d89/namespacemom__io.html#a23e82d1d89d9bb1c9bdf802ce80d4508" target="_top" xlink:title="This routine queries vardesc. ">
<polygon fill="white" stroke="black" points="434.5,-349.5 434.5,-368.5 536.5,-368.5 536.5,-349.5 434.5,-349.5"/>
<text text-anchor="middle" x="485.5" y="-356.5" font-family="Helvetica,sans-Serif" font-size="10.00">mom_io::query_vardesc</text>
</a>
</g>
</g>
<!-- Node55&#45;&gt;Node56 -->
<g id="edge7" class="edge"><title>Node55&#45;&gt;Node56</title>
<path fill="none" stroke="midnightblue" d="M379.297,-441.898C385.038,-439.197 390.772,-436.21 396,-433 422.988,-416.429 450.401,-392.097 467.418,-375.913"/>
<polygon fill="midnightblue" stroke="midnightblue" points="470.13,-378.158 474.889,-368.692 465.266,-373.125 470.13,-378.158"/>
</g>
<!-- Node57 -->
<g id="node8" class="node"><title>Node57</title>
<g id="a_node8"><a xlink:href="../../d5/d89/namespacemom__io.html#ac4bc408e8b38dbd669842753f26ebf88" target="_top" xlink:title="Copies a string. ">
<polygon fill="white" stroke="black" points="575,-321.5 575,-340.5 685,-340.5 685,-321.5 575,-321.5"/>
<text text-anchor="middle" x="630" y="-328.5" font-family="Helvetica,sans-Serif" font-size="10.00">mom_io::safe_string_copy</text>
</a>
</g>
</g>
<!-- Node56&#45;&gt;Node57 -->
<g id="edge8" class="edge"><title>Node56&#45;&gt;Node57</title>
<path fill="none" stroke="midnightblue" d="M535.142,-349.442C546.491,-347.212 558.695,-344.814 570.425,-342.51"/>
<polygon fill="midnightblue" stroke="midnightblue" points="571.44,-345.877 580.577,-340.515 570.09,-339.008 571.44,-345.877"/>
</g>
<!-- Node57&#45;&gt;Node52 -->
<g id="edge9" class="edge"><title>Node57&#45;&gt;Node52</title>
<path fill="none" stroke="midnightblue" d="M641.583,-321.458C652.642,-311.384 670.384,-294.926 685,-280 706.712,-257.828 730.404,-231.394 746.619,-212.932"/>
<polygon fill="midnightblue" stroke="midnightblue" points="749.346,-215.131 753.295,-205.299 744.077,-210.522 749.346,-215.131"/>
</g>
<!-- Node60&#45;&gt;Node56 -->
<g id="edge13" class="edge"><title>Node60&#45;&gt;Node56</title>
<path fill="none" stroke="midnightblue" d="M384.534,-392.899C404.447,-386.146 427.672,-378.27 446.721,-371.811"/>
<polygon fill="midnightblue" stroke="midnightblue" points="447.916,-375.101 456.262,-368.575 445.668,-368.472 447.916,-375.101"/>
</g>
<!-- Node61&#45;&gt;Node56 -->
<g id="edge15" class="edge"><title>Node61&#45;&gt;Node56</title>
<path fill="none" stroke="midnightblue" d="M386.516,-359C398.44,-359 411.441,-359 423.959,-359"/>
<polygon fill="midnightblue" stroke="midnightblue" points="424.327,-362.5 434.327,-359 424.327,-355.5 424.327,-362.5"/>
</g>
<!-- Node62&#45;&gt;Node56 -->
<g id="edge17" class="edge"><title>Node62&#45;&gt;Node56</title>
<path fill="none" stroke="midnightblue" d="M382.184,-324.305C402.565,-331.216 426.831,-339.445 446.616,-346.153"/>
<polygon fill="midnightblue" stroke="midnightblue" points="445.625,-349.513 456.219,-349.41 447.873,-342.884 445.625,-349.513"/>
</g>
<!-- Node64 -->
<g id="node15" class="node"><title>Node64</title>
<g id="a_node15"><a xlink:href="../../d7/d0a/namespacemom__coms.html#a24ac5b7cc37b1498f23b61eea03fb8c3" target="_top" xlink:title="mom_coms::ints_to_real">
<polygon fill="white" stroke="black" points="287,-28.5 287,-47.5 391,-47.5 391,-28.5 287,-28.5"/>
<text text-anchor="middle" x="339" y="-35.5" font-family="Helvetica,sans-Serif" font-size="10.00">mom_coms::ints_to_real</text>
</a>
</g>
</g>
<!-- Node63&#45;&gt;Node64 -->
<g id="edge19" class="edge"><title>Node63&#45;&gt;Node64</title>
<path fill="none" stroke="midnightblue" d="M229.963,-66.411C248.774,-61.4642 271.915,-55.3789 291.947,-50.1108"/>
<polygon fill="midnightblue" stroke="midnightblue" points="293.018,-53.4483 301.799,-47.5201 291.237,-46.6785 293.018,-53.4483"/>
</g>
<!-- Node65 -->
<g id="node16" class="node"><title>Node65</title>
<g id="a_node16"><a xlink:href="../../d7/d0a/namespacemom__coms.html#ab8feff19e782af36bb7ccccd5ba9eddc" target="_top" xlink:title="mom_coms::regularize_ints">
<polygon fill="white" stroke="black" points="282,-66.5 282,-85.5 396,-85.5 396,-66.5 282,-66.5"/>
<text text-anchor="middle" x="339" y="-73.5" font-family="Helvetica,sans-Serif" font-size="10.00">mom_coms::regularize_ints</text>
</a>
</g>
</g>
<!-- Node63&#45;&gt;Node65 -->
<g id="edge20" class="edge"><title>Node63&#45;&gt;Node65</title>
<path fill="none" stroke="midnightblue" d="M244.039,-76C253.004,-76 262.461,-76 271.783,-76"/>
<polygon fill="midnightblue" stroke="midnightblue" points="271.816,-79.5001 281.816,-76 271.816,-72.5001 271.816,-79.5001"/>
</g>
<!-- Node66&#45;&gt;Node52 -->
<g id="edge24" class="edge"><title>Node66&#45;&gt;Node52</title>
<path fill="none" stroke="midnightblue" d="M526.413,-161.567C541.559,-164.934 559.008,-168.498 575,-171 620.257,-178.08 671.968,-183.027 710.238,-186.094"/>
<polygon fill="midnightblue" stroke="midnightblue" points="710.416,-189.618 720.659,-186.909 710.962,-182.64 710.416,-189.618"/>
</g>
<!-- Node67 -->
<g id="node18" class="node"><title>Node67</title>
<g id="a_node18"><a xlink:href="../../d7/d0a/namespacemom__coms.html#a0cc261620495abf3313937726883b95e" target="_top" xlink:title="mom_coms::real_to_ints">
<polygon fill="white" stroke="black" points="578,-142.5 578,-161.5 682,-161.5 682,-142.5 578,-142.5"/>
<text text-anchor="middle" x="630" y="-149.5" font-family="Helvetica,sans-Serif" font-size="10.00">mom_coms::real_to_ints</text>
</a>
</g>
</g>
<!-- Node66&#45;&gt;Node67 -->
<g id="edge25" class="edge"><title>Node66&#45;&gt;Node67</title>
<path fill="none" stroke="midnightblue" d="M537.141,-152C546.981,-152 557.394,-152 567.538,-152"/>
<polygon fill="midnightblue" stroke="midnightblue" points="567.561,-155.5 577.561,-152 567.56,-148.5 567.561,-155.5"/>
</g>
<!-- Node67&#45;&gt;Node52 -->
<g id="edge26" class="edge"><title>Node67&#45;&gt;Node52</title>
<path fill="none" stroke="midnightblue" d="M665.192,-161.589C679.02,-165.467 695.342,-170.044 710.799,-174.379"/>
<polygon fill="midnightblue" stroke="midnightblue" points="710.223,-177.853 720.797,-177.183 712.114,-171.113 710.223,-177.853"/>
</g>
</g>
</svg>
