<?xml version="1.0" encoding="UTF-8" standalone="no"?>
<!DOCTYPE svg PUBLIC "-//W3C//DTD SVG 1.1//EN"
 "http://www.w3.org/Graphics/SVG/1.1/DTD/svg11.dtd">
<!-- Generated by graphviz version 2.38.0 (20140413.2041)
 -->
<!-- Title: mom_grid::mom_grid_init Pages: 1 -->
<svg width="395pt" height="91pt"
 viewBox="0.00 0.00 395.00 91.00" xmlns="http://www.w3.org/2000/svg" xmlns:xlink="http://www.w3.org/1999/xlink">
<g id="graph0" class="graph" transform="scale(1 1) rotate(0) translate(4 87)">
<title>mom_grid::mom_grid_init</title>
<polygon fill="white" stroke="none" points="-4,4 -4,-87 391,-87 391,4 -4,4"/>
<!-- Node25 -->
<g id="node1" class="node"><title>Node25</title>
<polygon fill="#bfbfbf" stroke="black" points="0,-22.5 0,-41.5 126,-41.5 126,-22.5 0,-22.5"/>
<text text-anchor="middle" x="63" y="-29.5" font-family="Helvetica,sans-Serif" font-size="10.00">mom_grid::mom_grid_init</text>
</g>
<!-- Node26 -->
<g id="node2" class="node"><title>Node26</title>
<g id="a_node2"><a xlink:href="../../df/da2/namespacemom__ice__shelf.html#ae315e8464ef8a20062e3bccb61886755" target="_top" xlink:title="mom_ice_shelf::initialize\l_ice_shelf">
<polygon fill="white" stroke="black" points="162,-39 162,-69 286,-69 286,-39 162,-39"/>
<text text-anchor="start" x="170" y="-57" font-family="Helvetica,sans-Serif" font-size="10.00">mom_ice_shelf::initialize</text>
<text text-anchor="middle" x="224" y="-46" font-family="Helvetica,sans-Serif" font-size="10.00">_ice_shelf</text>
</a>
</g>
</g>
<!-- Node25&#45;&gt;Node26 -->
<g id="edge1" class="edge"><title>Node25&#45;&gt;Node26</title>
<path fill="none" stroke="midnightblue" d="M136.32,-42.0065C144.847,-43.1864 153.485,-44.3816 161.837,-45.5372"/>
<polygon fill="midnightblue" stroke="midnightblue" points="136.77,-38.5355 126.385,-40.6318 135.811,-45.4695 136.77,-38.5355"/>
</g>
<!-- Node29 -->
<g id="node5" class="node"><title>Node29</title>
<g id="a_node5"><a xlink:href="../../d6/d48/MOM__sum__driver_8F90.html#a08fffeb2d8e8acbf9ed4609be6d258c6" target="_top" xlink:title="mom_main">
<polygon fill="white" stroke="black" points="191.5,-0.5 191.5,-19.5 256.5,-19.5 256.5,-0.5 191.5,-0.5"/>
<text text-anchor="middle" x="224" y="-7.5" font-family="Helvetica,sans-Serif" font-size="10.00">mom_main</text>
</a>
</g>
</g>
<!-- Node25&#45;&gt;Node29 -->
<g id="edge4" class="edge"><title>Node25&#45;&gt;Node29</title>
<path fill="none" stroke="midnightblue" d="M136.403,-21.982C155.705,-19.3113 175.57,-16.5627 191.397,-14.3728"/>
<polygon fill="midnightblue" stroke="midnightblue" points="135.811,-18.5305 126.385,-23.3682 136.77,-25.4645 135.811,-18.5305"/>
</g>
<!-- Node27 -->
<g id="node3" class="node"><title>Node27</title>
<g id="a_node3"><a xlink:href="../../d5/d6d/ice__shelf__driver_8F90.html#aec5bef92f0dad343f545cd8d62e378d8" target="_top" xlink:title="shelf_main">
<polygon fill="white" stroke="black" points="322.5,-63.5 322.5,-82.5 386.5,-82.5 386.5,-63.5 322.5,-63.5"/>
<text text-anchor="middle" x="354.5" y="-70.5" font-family="Helvetica,sans-Serif" font-size="10.00">shelf_main</text>
</a>
</g>
</g>
<!-- Node26&#45;&gt;Node27 -->
<g id="edge2" class="edge"><title>Node26&#45;&gt;Node27</title>
<path fill="none" stroke="midnightblue" d="M296.229,-64.5319C305.399,-65.8878 314.377,-67.2153 322.404,-68.4021"/>
<polygon fill="midnightblue" stroke="midnightblue" points="296.644,-61.0553 286.239,-63.0548 295.62,-67.98 296.644,-61.0553"/>
</g>
<!-- Node28 -->
<g id="node4" class="node"><title>Node28</title>
<g id="a_node4"><a xlink:href="../../de/dbc/MOM__driver_8F90.html#a08fffeb2d8e8acbf9ed4609be6d258c6" target="_top" xlink:title="mom_main">
<polygon fill="white" stroke="black" points="322,-25.5 322,-44.5 387,-44.5 387,-25.5 322,-25.5"/>
<text text-anchor="middle" x="354.5" y="-32.5" font-family="Helvetica,sans-Serif" font-size="10.00">mom_main</text>
</a>
</g>
</g>
<!-- Node26&#45;&gt;Node28 -->
<g id="edge3" class="edge"><title>Node26&#45;&gt;Node28</title>
<path fill="none" stroke="midnightblue" d="M296.31,-43.456C305.195,-42.1424 313.897,-40.8558 321.726,-39.6982"/>
<polygon fill="midnightblue" stroke="midnightblue" points="295.62,-40.02 286.239,-44.9452 296.644,-46.9447 295.62,-40.02"/>
</g>
</g>
</svg>
