<?xml version="1.0" encoding="UTF-8" standalone="no"?>
<!DOCTYPE svg PUBLIC "-//W3C//DTD SVG 1.1//EN"
 "http://www.w3.org/Graphics/SVG/1.1/DTD/svg11.dtd">
<!-- Generated by graphviz version 2.38.0 (20140413.2041)
 -->
<!-- Title: mom_grid::allocate_metrics Pages: 1 -->
<svg width="530pt" height="91pt"
 viewBox="0.00 0.00 530.00 91.00" xmlns="http://www.w3.org/2000/svg" xmlns:xlink="http://www.w3.org/1999/xlink">
<g id="graph0" class="graph" transform="scale(1 1) rotate(0) translate(4 87)">
<title>mom_grid::allocate_metrics</title>
<polygon fill="white" stroke="none" points="-4,4 -4,-87 526,-87 526,4 -4,4"/>
<!-- Node8 -->
<g id="node1" class="node"><title>Node8</title>
<polygon fill="#bfbfbf" stroke="black" points="0,-36 0,-66 99,-66 99,-36 0,-36"/>
<text text-anchor="start" x="8" y="-54" font-family="Helvetica,sans-Serif" font-size="10.00">mom_grid::allocate</text>
<text text-anchor="middle" x="49.5" y="-43" font-family="Helvetica,sans-Serif" font-size="10.00">_metrics</text>
</g>
<!-- Node9 -->
<g id="node2" class="node"><title>Node9</title>
<g id="a_node2"><a xlink:href="../../dc/d7f/namespacemom__grid.html#a06d585b4319f18d7d7fac2afceb08205" target="_top" xlink:title="MOM_grid_init initializes the ocean grid array sizes and grid memory. ">
<polygon fill="white" stroke="black" points="135,-41.5 135,-60.5 261,-60.5 261,-41.5 135,-41.5"/>
<text text-anchor="middle" x="198" y="-48.5" font-family="Helvetica,sans-Serif" font-size="10.00">mom_grid::mom_grid_init</text>
</a>
</g>
</g>
<!-- Node8&#45;&gt;Node9 -->
<g id="edge1" class="edge"><title>Node8&#45;&gt;Node9</title>
<path fill="none" stroke="midnightblue" d="M109.364,-51C117.762,-51 126.422,-51 134.879,-51"/>
<polygon fill="midnightblue" stroke="midnightblue" points="109.282,-47.5001 99.2824,-51 109.282,-54.5001 109.282,-47.5001"/>
</g>
<!-- Node10 -->
<g id="node3" class="node"><title>Node10</title>
<g id="a_node3"><a xlink:href="../../d6/d48/MOM__sum__driver_8F90.html#a08fffeb2d8e8acbf9ed4609be6d258c6" target="_top" xlink:title="mom_main">
<polygon fill="white" stroke="black" points="326.5,-63.5 326.5,-82.5 391.5,-82.5 391.5,-63.5 326.5,-63.5"/>
<text text-anchor="middle" x="359" y="-70.5" font-family="Helvetica,sans-Serif" font-size="10.00">mom_main</text>
</a>
</g>
</g>
<!-- Node9&#45;&gt;Node10 -->
<g id="edge2" class="edge"><title>Node9&#45;&gt;Node10</title>
<path fill="none" stroke="midnightblue" d="M271.403,-61.018C290.705,-63.6887 310.57,-66.4373 326.397,-68.6272"/>
<polygon fill="midnightblue" stroke="midnightblue" points="271.77,-57.5355 261.385,-59.6318 270.811,-64.4695 271.77,-57.5355"/>
</g>
<!-- Node11 -->
<g id="node4" class="node"><title>Node11</title>
<g id="a_node4"><a xlink:href="../../df/da2/namespacemom__ice__shelf.html#ae315e8464ef8a20062e3bccb61886755" target="_top" xlink:title="mom_ice_shelf::initialize\l_ice_shelf">
<polygon fill="white" stroke="black" points="297,-14 297,-44 421,-44 421,-14 297,-14"/>
<text text-anchor="start" x="305" y="-32" font-family="Helvetica,sans-Serif" font-size="10.00">mom_ice_shelf::initialize</text>
<text text-anchor="middle" x="359" y="-21" font-family="Helvetica,sans-Serif" font-size="10.00">_ice_shelf</text>
</a>
</g>
</g>
<!-- Node9&#45;&gt;Node11 -->
<g id="edge3" class="edge"><title>Node9&#45;&gt;Node11</title>
<path fill="none" stroke="midnightblue" d="M271.32,-40.9935C279.847,-39.8136 288.485,-38.6184 296.837,-37.4628"/>
<polygon fill="midnightblue" stroke="midnightblue" points="270.811,-37.5305 261.385,-42.3682 271.77,-44.4645 270.811,-37.5305"/>
</g>
<!-- Node12 -->
<g id="node5" class="node"><title>Node12</title>
<g id="a_node5"><a xlink:href="../../d5/d6d/ice__shelf__driver_8F90.html#aec5bef92f0dad343f545cd8d62e378d8" target="_top" xlink:title="shelf_main">
<polygon fill="white" stroke="black" points="457.5,-38.5 457.5,-57.5 521.5,-57.5 521.5,-38.5 457.5,-38.5"/>
<text text-anchor="middle" x="489.5" y="-45.5" font-family="Helvetica,sans-Serif" font-size="10.00">shelf_main</text>
</a>
</g>
</g>
<!-- Node11&#45;&gt;Node12 -->
<g id="edge4" class="edge"><title>Node11&#45;&gt;Node12</title>
<path fill="none" stroke="midnightblue" d="M431.229,-39.5319C440.399,-40.8878 449.377,-42.2153 457.404,-43.4021"/>
<polygon fill="midnightblue" stroke="midnightblue" points="431.644,-36.0553 421.239,-38.0548 430.62,-42.98 431.644,-36.0553"/>
</g>
<!-- Node13 -->
<g id="node6" class="node"><title>Node13</title>
<g id="a_node6"><a xlink:href="../../de/dbc/MOM__driver_8F90.html#a08fffeb2d8e8acbf9ed4609be6d258c6" target="_top" xlink:title="mom_main">
<polygon fill="white" stroke="black" points="457,-0.5 457,-19.5 522,-19.5 522,-0.5 457,-0.5"/>
<text text-anchor="middle" x="489.5" y="-7.5" font-family="Helvetica,sans-Serif" font-size="10.00">mom_main</text>
</a>
</g>
</g>
<!-- Node11&#45;&gt;Node13 -->
<g id="edge5" class="edge"><title>Node11&#45;&gt;Node13</title>
<path fill="none" stroke="midnightblue" d="M431.31,-18.456C440.195,-17.1424 448.897,-15.8558 456.726,-14.6982"/>
<polygon fill="midnightblue" stroke="midnightblue" points="430.62,-15.02 421.239,-19.9452 431.644,-21.9447 430.62,-15.02"/>
</g>
</g>
</svg>
