<?xml version="1.0" encoding="UTF-8" standalone="no"?>
<!DOCTYPE svg PUBLIC "-//W3C//DTD SVG 1.1//EN"
 "http://www.w3.org/Graphics/SVG/1.1/DTD/svg11.dtd">
<!-- Generated by graphviz version 2.38.0 (20140413.2041)
 -->
<!-- Title: mom_diffconvection::diffconvection_init Pages: 1 -->
<!--zoomable 1010 -->
<svg id="main" version="1.1" xmlns="http://www.w3.org/2000/svg" xmlns:xlink="http://www.w3.org/1999/xlink" xml:space="preserve" onload="init(evt)">
<style type="text/css"><![CDATA[
.edge:hover path { stroke: red; }
.edge:hover polygon { stroke: red; fill: red; }
]]></style>
<script type="text/javascript"><![CDATA[
var edges = document.getElementsByTagName('g');
if (edges && edges.length) {
  for (var i=0;i<edges.length;i++) {
    if (edges[i].id.substr(0,4)=='edge') {
      edges[i].setAttribute('class','edge');
    }
  }
}
]]></script>
        <defs>
                <circle id="rim" cx="0" cy="0" r="7"/>
                <circle id="rim2" cx="0" cy="0" r="3.5"/>
                <g id="zoomPlus">
                        <use xlink:href="#rim" fill="#404040">
                                <set attributeName="fill" to="#808080" begin="zoomplus.mouseover" end="zoomplus.mouseout"/>
                        </use>
                        <path d="M-4,0h8M0,-4v8" fill="none" stroke="white" stroke-width="1.5" pointer-events="none"/>
                </g>
                <g id="zoomMin">
                        <use xlink:href="#rim" fill="#404040">
                                <set attributeName="fill" to="#808080" begin="zoomminus.mouseover" end="zoomminus.mouseout"/>
                        </use>
                        <path d="M-4,0h8" fill="none" stroke="white" stroke-width="1.5" pointer-events="none"/>
                </g>
                <g id="dirArrow">
                        <path fill="none" stroke="white" stroke-width="1.5" d="M0,-3.0v7 M-2.5,-0.5L0,-3.0L2.5,-0.5"/>
                </g>
               <g id="resetDef">
                       <use xlink:href="#rim2" fill="#404040">
                               <set attributeName="fill" to="#808080" begin="reset.mouseover" end="reset.mouseout"/>
                       </use>
               </g>
        </defs>

<script type="text/javascript">
var viewWidth = 1074;
var viewHeight = 1010;
var sectionId = 'dynsection-2';
</script>
<script xlink:href="../../svgpan.js"/>
<svg id="graph" class="graph">
<g id="viewport">
<title>mom_diffconvection::diffconvection_init</title>
<polygon fill="white" stroke="none" points="-4,4 -4,-1005.5 1070,-1005.5 1070,4 -4,4"/>
<!-- Node6 -->
<g id="node1" class="node"><title>Node6</title>
<polygon fill="#bfbfbf" stroke="black" points="0,-688.5 0,-718.5 87,-718.5 87,-688.5 0,-688.5"/>
<text text-anchor="start" x="8" y="-706.5" font-family="Helvetica,sans-Serif" font-size="10.00">mom_diffconvection</text>
<text text-anchor="middle" x="43.5" y="-695.5" font-family="Helvetica,sans-Serif" font-size="10.00">::diffconvection_init</text>
</g>
<!-- Node7 -->
<g id="node2" class="node"><title>Node7</title>
<g id="a_node2"><a xlink:href="../../d9/def/namespacemom__file__parser.html#a0d01b9a66f5ac12b657c00f1295351bb" target="_top" xlink:title="mom_file_parser::closeparameterblock">
<polygon fill="white" stroke="black" points="123,-925 123,-944 278,-944 278,-925 123,-925"/>
<text text-anchor="middle" x="200.5" y="-932" font-family="Helvetica,sans-Serif" font-size="10.00">mom_file_parser::closeparameterblock</text>
</a>
</g>
</g>
<!-- Node6&#45;&gt;Node7 -->
<g id="edge1" class="edge"><title>Node6&#45;&gt;Node7</title>
<path fill="none" stroke="midnightblue" d="M54.67,-718.657C82.0847,-759.513 157.449,-871.83 187.194,-916.16"/>
<polygon fill="midnightblue" stroke="midnightblue" points="184.337,-918.183 192.815,-924.537 190.149,-914.283 184.337,-918.183"/>
</g>
<!-- Node12 -->
<g id="node7" class="node"><title>Node12</title>
<g id="a_node7"><a xlink:href="../../d0/de6/namespacemom__error__handler.html#a460cfb79a06c29fc249952c2a3710d67" target="_top" xlink:title="mom_error_handler::\lmom_error">
<polygon fill="white" stroke="black" points="826.5,-660.5 826.5,-690.5 919.5,-690.5 919.5,-660.5 826.5,-660.5"/>
<text text-anchor="start" x="834.5" y="-678.5" font-family="Helvetica,sans-Serif" font-size="10.00">mom_error_handler::</text>
<text text-anchor="middle" x="873" y="-667.5" font-family="Helvetica,sans-Serif" font-size="10.00">mom_error</text>
</a>
</g>
</g>
<!-- Node6&#45;&gt;Node12 -->
<g id="edge13" class="edge"><title>Node6&#45;&gt;Node12</title>
<path fill="none" stroke="midnightblue" d="M87.1747,-697.63C150.664,-689.42 273.812,-675.5 379,-675.5 379,-675.5 379,-675.5 562,-675.5 650.779,-675.5 753.859,-675.5 815.949,-675.5"/>
<polygon fill="midnightblue" stroke="midnightblue" points="816.303,-679 826.303,-675.5 816.303,-672 816.303,-679"/>
</g>
<!-- Node15 -->
<g id="node10" class="node"><title>Node15</title>
<g id="a_node10"><a xlink:href="../../d9/def/namespacemom__file__parser.html#a363628fcd8540de780ebeacf24012229" target="_top" xlink:title="mom_file_parser::openparameterblock">
<polygon fill="white" stroke="black" points="123,-723 123,-742 278,-742 278,-723 123,-723"/>
<text text-anchor="middle" x="200.5" y="-730" font-family="Helvetica,sans-Serif" font-size="10.00">mom_file_parser::openparameterblock</text>
</a>
</g>
</g>
<!-- Node6&#45;&gt;Node15 -->
<g id="edge14" class="edge"><title>Node6&#45;&gt;Node15</title>
<path fill="none" stroke="midnightblue" d="M87.2647,-711.501C103.145,-714.472 121.478,-717.902 138.664,-721.118"/>
<polygon fill="midnightblue" stroke="midnightblue" points="138.15,-724.582 148.623,-722.981 139.437,-717.702 138.15,-724.582"/>
</g>
<!-- Node18 -->
<g id="node13" class="node"><title>Node18</title>
<g id="a_node13"><a xlink:href="../../d9/d06/namespacemom__diag__mediator.html#aab2007573b14ed73053282770d1b19a4" target="_top" xlink:title="mom_diag_mediator::\lregister_diag_field">
<polygon fill="white" stroke="black" points="332.5,-343.5 332.5,-373.5 427.5,-373.5 427.5,-343.5 332.5,-343.5"/>
<text text-anchor="start" x="340.5" y="-361.5" font-family="Helvetica,sans-Serif" font-size="10.00">mom_diag_mediator::</text>
<text text-anchor="middle" x="380" y="-350.5" font-family="Helvetica,sans-Serif" font-size="10.00">register_diag_field</text>
</a>
</g>
</g>
<!-- Node6&#45;&gt;Node18 -->
<g id="edge21" class="edge"><title>Node6&#45;&gt;Node18</title>
<path fill="none" stroke="midnightblue" d="M59.3047,-688.231C112.521,-633.344 294.284,-445.875 357.288,-380.893"/>
<polygon fill="midnightblue" stroke="midnightblue" points="359.918,-383.209 364.366,-373.593 354.892,-378.336 359.918,-383.209"/>
</g>
<!-- Node8 -->
<g id="node3" class="node"><title>Node8</title>
<g id="a_node3"><a xlink:href="../../d0/de6/namespacemom__error__handler.html#ad5f00a53059c72fe2332d1436c80ca71" target="_top" xlink:title="mom_error_handler::\lis_root_pe">
<polygon fill="white" stroke="black" points="973,-824.5 973,-854.5 1066,-854.5 1066,-824.5 973,-824.5"/>
<text text-anchor="start" x="981" y="-842.5" font-family="Helvetica,sans-Serif" font-size="10.00">mom_error_handler::</text>
<text text-anchor="middle" x="1019.5" y="-831.5" font-family="Helvetica,sans-Serif" font-size="10.00">is_root_pe</text>
</a>
</g>
</g>
<!-- Node7&#45;&gt;Node8 -->
<g id="edge2" class="edge"><title>Node7&#45;&gt;Node8</title>
<path fill="none" stroke="midnightblue" d="M278.015,-940.906C350.556,-946.422 462.614,-953.5 560,-953.5 560,-953.5 560,-953.5 725.5,-953.5 827.195,-953.5 936.06,-893.117 987.793,-860.243"/>
<polygon fill="midnightblue" stroke="midnightblue" points="989.975,-863.001 996.48,-854.638 986.179,-857.119 989.975,-863.001"/>
</g>
<!-- Node9 -->
<g id="node4" class="node"><title>Node9</title>
<g id="a_node4"><a xlink:href="../../d5/d38/namespacemom__document.html#a058916aee316efa7a6484b3bb1d3f3df" target="_top" xlink:title="mom_document::doc_closeblock">
<polygon fill="white" stroke="black" points="314,-887 314,-906 446,-906 446,-887 314,-887"/>
<text text-anchor="middle" x="380" y="-894" font-family="Helvetica,sans-Serif" font-size="10.00">mom_document::doc_closeblock</text>
</a>
</g>
</g>
<!-- Node7&#45;&gt;Node9 -->
<g id="edge3" class="edge"><title>Node7&#45;&gt;Node9</title>
<path fill="none" stroke="midnightblue" d="M246.291,-924.911C270.03,-919.829 299.384,-913.545 324.444,-908.18"/>
<polygon fill="midnightblue" stroke="midnightblue" points="325.486,-911.536 334.531,-906.02 324.02,-904.691 325.486,-911.536"/>
</g>
<!-- Node14 -->
<g id="node9" class="node"><title>Node14</title>
<g id="a_node9"><a xlink:href="../../d9/def/namespacemom__file__parser.html#a73b11b969d303b1fc0ba5235c812fd05" target="_top" xlink:title="mom_file_parser::popblocklevel">
<polygon fill="white" stroke="black" points="809,-982 809,-1001 937,-1001 937,-982 809,-982"/>
<text text-anchor="middle" x="873" y="-989" font-family="Helvetica,sans-Serif" font-size="10.00">mom_file_parser::popblocklevel</text>
</a>
</g>
</g>
<!-- Node7&#45;&gt;Node14 -->
<g id="edge11" class="edge"><title>Node7&#45;&gt;Node14</title>
<path fill="none" stroke="midnightblue" d="M227.449,-944.066C249.986,-951.899 283.678,-962.477 314,-967.5 485.906,-995.976 691.425,-996.3 798.66,-993.963"/>
<polygon fill="midnightblue" stroke="midnightblue" points="798.81,-997.461 808.726,-993.73 798.647,-990.463 798.81,-997.461"/>
</g>
<!-- Node9&#45;&gt;Node8 -->
<g id="edge4" class="edge"><title>Node9&#45;&gt;Node8</title>
<path fill="none" stroke="midnightblue" d="M446.029,-899.184C498.47,-900.703 574.086,-901.435 640,-896.5 755.505,-887.852 889.188,-864.556 962.749,-850.568"/>
<polygon fill="midnightblue" stroke="midnightblue" points="963.559,-853.977 972.722,-848.658 962.242,-847.102 963.559,-853.977"/>
</g>
<!-- Node10 -->
<g id="node5" class="node"><title>Node10</title>
<g id="a_node5"><a xlink:href="../../d5/d38/namespacemom__document.html#aab976b6c6c9c01833438d217fca228a4" target="_top" xlink:title="mom_document::open\l_doc_file">
<polygon fill="white" stroke="black" points="512.5,-780.5 512.5,-810.5 609.5,-810.5 609.5,-780.5 512.5,-780.5"/>
<text text-anchor="start" x="520.5" y="-798.5" font-family="Helvetica,sans-Serif" font-size="10.00">mom_document::open</text>
<text text-anchor="middle" x="561" y="-787.5" font-family="Helvetica,sans-Serif" font-size="10.00">_doc_file</text>
</a>
</g>
</g>
<!-- Node9&#45;&gt;Node10 -->
<g id="edge5" class="edge"><title>Node9&#45;&gt;Node10</title>
<path fill="none" stroke="midnightblue" d="M397.84,-886.998C426.684,-870.723 486.135,-837.178 524.481,-815.541"/>
<polygon fill="midnightblue" stroke="midnightblue" points="526.281,-818.545 533.27,-810.582 522.841,-812.448 526.281,-818.545"/>
</g>
<!-- Node13 -->
<g id="node8" class="node"><title>Node13</title>
<g id="a_node8"><a xlink:href="../../d5/d38/namespacemom__document.html#a22d84550b1affd1037328c5117496a65" target="_top" xlink:title="mom_document::writemessageanddesc">
<polygon fill="white" stroke="black" points="482,-868 482,-887 640,-887 640,-868 482,-868"/>
<text text-anchor="middle" x="561" y="-875" font-family="Helvetica,sans-Serif" font-size="10.00">mom_document::writemessageanddesc</text>
</a>
</g>
</g>
<!-- Node9&#45;&gt;Node13 -->
<g id="edge10" class="edge"><title>Node9&#45;&gt;Node13</title>
<path fill="none" stroke="midnightblue" d="M446.129,-889.587C454.464,-888.702 463.103,-887.785 471.728,-886.87"/>
<polygon fill="midnightblue" stroke="midnightblue" points="472.251,-890.334 481.826,-885.798 471.512,-883.373 472.251,-890.334"/>
</g>
<!-- Node11 -->
<g id="node6" class="node"><title>Node11</title>
<g id="a_node6"><a xlink:href="../../d5/d38/namespacemom__document.html#a5f2661445a72a7d0f774677e91366db5" target="_top" xlink:title="mom_document::find\l_unused_unit_number">
<polygon fill="white" stroke="black" points="676,-780.5 676,-810.5 773,-810.5 773,-780.5 676,-780.5"/>
<text text-anchor="start" x="684" y="-798.5" font-family="Helvetica,sans-Serif" font-size="10.00">mom_document::find</text>
<text text-anchor="middle" x="724.5" y="-787.5" font-family="Helvetica,sans-Serif" font-size="10.00">_unused_unit_number</text>
</a>
</g>
</g>
<!-- Node10&#45;&gt;Node11 -->
<g id="edge6" class="edge"><title>Node10&#45;&gt;Node11</title>
<path fill="none" stroke="midnightblue" d="M609.582,-795.5C627.246,-795.5 647.472,-795.5 665.933,-795.5"/>
<polygon fill="midnightblue" stroke="midnightblue" points="665.979,-799 675.979,-795.5 665.979,-792 665.979,-799"/>
</g>
<!-- Node10&#45;&gt;Node12 -->
<g id="edge9" class="edge"><title>Node10&#45;&gt;Node12</title>
<path fill="none" stroke="midnightblue" d="M600.948,-780.423C657.443,-758.554 762.067,-718.055 823.494,-694.277"/>
<polygon fill="midnightblue" stroke="midnightblue" points="824.905,-697.483 832.968,-690.609 822.378,-690.955 824.905,-697.483"/>
</g>
<!-- Node11&#45;&gt;Node12 -->
<g id="edge7" class="edge"><title>Node11&#45;&gt;Node12</title>
<path fill="none" stroke="midnightblue" d="M744.054,-780.302C769.813,-759.203 816.535,-720.932 845.828,-696.938"/>
<polygon fill="midnightblue" stroke="midnightblue" points="848.078,-699.619 853.596,-690.575 843.642,-694.204 848.078,-699.619"/>
</g>
<!-- Node12&#45;&gt;Node8 -->
<g id="edge8" class="edge"><title>Node12&#45;&gt;Node8</title>
<path fill="none" stroke="midnightblue" d="M890.322,-690.537C903.363,-702.791 921.893,-720.747 937,-737.5 960.347,-763.392 985.06,-794.991 1001.07,-816.093"/>
<polygon fill="midnightblue" stroke="midnightblue" points="998.348,-818.298 1007.16,-824.175 1003.94,-814.084 998.348,-818.298"/>
</g>
<!-- Node14&#45;&gt;Node8 -->
<g id="edge12" class="edge"><title>Node14&#45;&gt;Node8</title>
<path fill="none" stroke="midnightblue" d="M910.782,-981.969C919.977,-978.431 929.379,-973.712 937,-967.5 971.523,-939.359 995.993,-892.561 1008.63,-864.022"/>
<polygon fill="midnightblue" stroke="midnightblue" points="1011.88,-865.319 1012.61,-854.749 1005.45,-862.562 1011.88,-865.319"/>
</g>
<!-- Node15&#45;&gt;Node8 -->
<g id="edge20" class="edge"><title>Node15&#45;&gt;Node8</title>
<path fill="none" stroke="midnightblue" d="M278.015,-738.906C350.556,-744.422 462.614,-751.5 560,-751.5 560,-751.5 560,-751.5 725.5,-751.5 820.142,-751.5 924.99,-794.136 979.981,-820.054"/>
<polygon fill="midnightblue" stroke="midnightblue" points="978.481,-823.216 989.013,-824.372 981.501,-816.901 978.481,-823.216"/>
</g>
<!-- Node16 -->
<g id="node11" class="node"><title>Node16</title>
<g id="a_node11"><a xlink:href="../../d9/def/namespacemom__file__parser.html#a58777b0faf747d59a793b4e238919dc6" target="_top" xlink:title="mom_file_parser::pushblocklevel">
<polygon fill="white" stroke="black" points="314,-704 314,-723 446,-723 446,-704 314,-704"/>
<text text-anchor="middle" x="380" y="-711" font-family="Helvetica,sans-Serif" font-size="10.00">mom_file_parser::pushblocklevel</text>
</a>
</g>
</g>
<!-- Node15&#45;&gt;Node16 -->
<g id="edge15" class="edge"><title>Node15&#45;&gt;Node16</title>
<path fill="none" stroke="midnightblue" d="M278.064,-724.304C286.536,-723.398 295.158,-722.475 303.615,-721.569"/>
<polygon fill="midnightblue" stroke="midnightblue" points="304.257,-725.021 313.827,-720.476 303.512,-718.061 304.257,-725.021"/>
</g>
<!-- Node17 -->
<g id="node12" class="node"><title>Node17</title>
<g id="a_node12"><a xlink:href="../../d5/d38/namespacemom__document.html#ada55c6a65638e04d2b550f419aafa929" target="_top" xlink:title="mom_document::doc_openblock">
<polygon fill="white" stroke="black" points="314,-808 314,-827 446,-827 446,-808 314,-808"/>
<text text-anchor="middle" x="380" y="-815" font-family="Helvetica,sans-Serif" font-size="10.00">mom_document::doc_openblock</text>
</a>
</g>
</g>
<!-- Node15&#45;&gt;Node17 -->
<g id="edge16" class="edge"><title>Node15&#45;&gt;Node17</title>
<path fill="none" stroke="midnightblue" d="M221.516,-742.085C252.893,-757.111 313.804,-786.279 349.987,-803.607"/>
<polygon fill="midnightblue" stroke="midnightblue" points="348.526,-806.787 359.057,-807.95 351.549,-800.474 348.526,-806.787"/>
</g>
<!-- Node17&#45;&gt;Node8 -->
<g id="edge17" class="edge"><title>Node17&#45;&gt;Node8</title>
<path fill="none" stroke="midnightblue" d="M446.228,-819.751C571.755,-824.083 844.901,-833.509 962.646,-837.572"/>
<polygon fill="midnightblue" stroke="midnightblue" points="962.759,-841.078 972.874,-837.925 963.001,-834.083 962.759,-841.078"/>
</g>
<!-- Node17&#45;&gt;Node10 -->
<g id="edge18" class="edge"><title>Node17&#45;&gt;Node10</title>
<path fill="none" stroke="midnightblue" d="M446.129,-809.495C464.515,-807.236 484.386,-804.793 502.302,-802.591"/>
<polygon fill="midnightblue" stroke="midnightblue" points="502.817,-806.055 512.315,-801.361 501.963,-799.107 502.817,-806.055"/>
</g>
<!-- Node17&#45;&gt;Node13 -->
<g id="edge19" class="edge"><title>Node17&#45;&gt;Node13</title>
<path fill="none" stroke="midnightblue" d="M407.05,-827.14C427.382,-834.578 456.382,-844.998 482,-853.5 493.544,-857.331 506.118,-861.292 517.732,-864.865"/>
<polygon fill="midnightblue" stroke="midnightblue" points="517.056,-868.318 527.642,-867.891 519.1,-861.623 517.056,-868.318"/>
</g>
<!-- Node18&#45;&gt;Node8 -->
<g id="edge32" class="edge"><title>Node18&#45;&gt;Node8</title>
<path fill="none" stroke="midnightblue" d="M380.956,-343.496C381.728,-295.018 391.502,-142.061 482,-78.5 534.918,-41.3325 720.723,-40.435 773,-78.5 899.783,-170.817 994.009,-692.985 1014.39,-814.315"/>
<polygon fill="midnightblue" stroke="midnightblue" points="1010.98,-815.191 1016.08,-824.481 1017.89,-814.042 1010.98,-815.191"/>
</g>
<!-- Node18&#45;&gt;Node12 -->
<g id="edge37" class="edge"><title>Node18&#45;&gt;Node12</title>
<path fill="none" stroke="midnightblue" d="M383.775,-373.531C391.623,-411.446 417.722,-511.307 482,-558.5 587.66,-636.077 651.568,-557.14 773,-606.5 800.895,-617.839 828.674,-638.196 847.674,-653.87"/>
<polygon fill="midnightblue" stroke="midnightblue" points="845.604,-656.703 855.504,-660.477 850.118,-651.353 845.604,-656.703"/>
</g>
<!-- Node19 -->
<g id="node14" class="node"><title>Node19</title>
<g id="a_node14"><a xlink:href="../../d9/d06/namespacemom__diag__mediator.html#a1b0bed2113a0c268eafd1bafbb48bd4f" target="_top" xlink:title="mom_diag_mediator::\lalloc_diag_with_id">
<polygon fill="white" stroke="black" points="513.5,-0.5 513.5,-30.5 608.5,-30.5 608.5,-0.5 513.5,-0.5"/>
<text text-anchor="start" x="521.5" y="-18.5" font-family="Helvetica,sans-Serif" font-size="10.00">mom_diag_mediator::</text>
<text text-anchor="middle" x="561" y="-7.5" font-family="Helvetica,sans-Serif" font-size="10.00">alloc_diag_with_id</text>
</a>
</g>
</g>
<!-- Node18&#45;&gt;Node19 -->
<g id="edge22" class="edge"><title>Node18&#45;&gt;Node19</title>
<path fill="none" stroke="midnightblue" d="M381.481,-343.156C383.862,-293.342 398.007,-134.248 482,-45.5 488.159,-38.9922 495.886,-33.8784 504.066,-29.8647"/>
<polygon fill="midnightblue" stroke="midnightblue" points="505.663,-32.9866 513.434,-25.7849 502.868,-26.5688 505.663,-32.9866"/>
</g>
<!-- Node20 -->
<g id="node15" class="node"><title>Node20</title>
<g id="a_node15"><a xlink:href="../../d9/d06/namespacemom__diag__mediator.html#a6e11afe7a97bf8e3333d33b0aebd6f6e" target="_top" xlink:title="mom_diag_mediator::\lassert">
<polygon fill="white" stroke="black" points="677,-528.5 677,-558.5 772,-558.5 772,-528.5 677,-528.5"/>
<text text-anchor="start" x="685" y="-546.5" font-family="Helvetica,sans-Serif" font-size="10.00">mom_diag_mediator::</text>
<text text-anchor="middle" x="724.5" y="-535.5" font-family="Helvetica,sans-Serif" font-size="10.00">assert</text>
</a>
</g>
</g>
<!-- Node18&#45;&gt;Node20 -->
<g id="edge23" class="edge"><title>Node18&#45;&gt;Node20</title>
<path fill="none" stroke="midnightblue" d="M384.719,-373.532C394.17,-408.157 422.683,-493.329 482,-529.5 537.634,-563.426 614.541,-561.371 666.499,-554.487"/>
<polygon fill="midnightblue" stroke="midnightblue" points="667.138,-557.932 676.545,-553.055 666.151,-551.002 667.138,-557.932"/>
</g>
<!-- Node21 -->
<g id="node16" class="node"><title>Node21</title>
<g id="a_node16"><a xlink:href="../../d9/d06/namespacemom__diag__mediator.html#a93abbf0b9659019bed9a2129ab292752" target="_top" xlink:title="Attaches &quot;cell_methods&quot; attribute to a variable based on defaults for axes_grp or optional arguments...">
<polygon fill="white" stroke="black" points="677,-616.5 677,-646.5 772,-646.5 772,-616.5 677,-616.5"/>
<text text-anchor="start" x="685" y="-634.5" font-family="Helvetica,sans-Serif" font-size="10.00">mom_diag_mediator::</text>
<text text-anchor="middle" x="724.5" y="-623.5" font-family="Helvetica,sans-Serif" font-size="10.00">attach_cell_methods</text>
</a>
</g>
</g>
<!-- Node18&#45;&gt;Node21 -->
<g id="edge25" class="edge"><title>Node18&#45;&gt;Node21</title>
<path fill="none" stroke="midnightblue" d="M382.214,-373.592C386.593,-417.11 405.636,-543.419 482,-601.5 534.649,-641.543 613.226,-643.829 666.327,-639.562"/>
<polygon fill="midnightblue" stroke="midnightblue" points="666.949,-643.02 676.592,-638.631 666.316,-636.049 666.949,-643.02"/>
</g>
<!-- Node22 -->
<g id="node17" class="node"><title>Node22</title>
<g id="a_node17"><a xlink:href="../../d9/d06/namespacemom__diag__mediator.html#a3f7442639213320f7429e2288a79fda2" target="_top" xlink:title="Returns a new diagnostic id, it may be necessary to expand the diagnostics array. ...">
<polygon fill="white" stroke="black" points="513.5,-235.5 513.5,-265.5 608.5,-265.5 608.5,-235.5 513.5,-235.5"/>
<text text-anchor="start" x="521.5" y="-253.5" font-family="Helvetica,sans-Serif" font-size="10.00">mom_diag_mediator::</text>
<text text-anchor="middle" x="561" y="-242.5" font-family="Helvetica,sans-Serif" font-size="10.00">get_new_diag_id</text>
</a>
</g>
</g>
<!-- Node18&#45;&gt;Node22 -->
<g id="edge27" class="edge"><title>Node18&#45;&gt;Node22</title>
<path fill="none" stroke="midnightblue" d="M395.344,-343.335C413.768,-324.673 447.502,-293.173 482,-274.5 488.834,-270.801 496.319,-267.586 503.863,-264.816"/>
<polygon fill="midnightblue" stroke="midnightblue" points="505.083,-268.098 513.407,-261.544 502.812,-261.477 505.083,-268.098"/>
</g>
<!-- Node24 -->
<g id="node19" class="node"><title>Node24</title>
<g id="a_node19"><a xlink:href="../../d9/d06/namespacemom__diag__mediator.html#a4b739f107cebe1ece8d29056c1144bff" target="_top" xlink:title="mom_diag_mediator::\lis_b_axes">
<polygon fill="white" stroke="black" points="513.5,-490.5 513.5,-520.5 608.5,-520.5 608.5,-490.5 513.5,-490.5"/>
<text text-anchor="start" x="521.5" y="-508.5" font-family="Helvetica,sans-Serif" font-size="10.00">mom_diag_mediator::</text>
<text text-anchor="middle" x="561" y="-497.5" font-family="Helvetica,sans-Serif" font-size="10.00">is_b_axes</text>
</a>
</g>
</g>
<!-- Node18&#45;&gt;Node24 -->
<g id="edge30" class="edge"><title>Node18&#45;&gt;Node24</title>
<path fill="none" stroke="midnightblue" d="M389.529,-373.62C404.783,-399.318 439.182,-451.536 482,-480.5 488.699,-485.031 496.271,-488.783 503.999,-491.878"/>
<polygon fill="midnightblue" stroke="midnightblue" points="502.858,-495.188 513.452,-495.336 505.263,-488.614 502.858,-495.188"/>
</g>
<!-- Node25 -->
<g id="node20" class="node"><title>Node25</title>
<g id="a_node20"><a xlink:href="../../d9/d06/namespacemom__diag__mediator.html#a84370fa96e03622edbfd5e343bcd9718" target="_top" xlink:title="mom_diag_mediator::\lis_layer_axes">
<polygon fill="white" stroke="black" points="513.5,-441.5 513.5,-471.5 608.5,-471.5 608.5,-441.5 513.5,-441.5"/>
<text text-anchor="start" x="521.5" y="-459.5" font-family="Helvetica,sans-Serif" font-size="10.00">mom_diag_mediator::</text>
<text text-anchor="middle" x="561" y="-448.5" font-family="Helvetica,sans-Serif" font-size="10.00">is_layer_axes</text>
</a>
</g>
</g>
<!-- Node18&#45;&gt;Node25 -->
<g id="edge31" class="edge"><title>Node18&#45;&gt;Node25</title>
<path fill="none" stroke="midnightblue" d="M398.136,-373.51C417.392,-389.726 450.14,-415.396 482,-431.5 488.871,-434.973 496.325,-438.095 503.807,-440.86"/>
<polygon fill="midnightblue" stroke="midnightblue" points="502.663,-444.168 513.258,-444.169 504.977,-437.561 502.663,-444.168"/>
</g>
<!-- Node26 -->
<g id="node21" class="node"><title>Node26</title>
<g id="a_node21"><a xlink:href="../../d9/d06/namespacemom__diag__mediator.html#a27fa63c9ff62b660bf457adbb8645bdf" target="_top" xlink:title="mom_diag_mediator::\lis_u_axes">
<polygon fill="white" stroke="black" points="513.5,-392.5 513.5,-422.5 608.5,-422.5 608.5,-392.5 513.5,-392.5"/>
<text text-anchor="start" x="521.5" y="-410.5" font-family="Helvetica,sans-Serif" font-size="10.00">mom_diag_mediator::</text>
<text text-anchor="middle" x="561" y="-399.5" font-family="Helvetica,sans-Serif" font-size="10.00">is_u_axes</text>
</a>
</g>
</g>
<!-- Node18&#45;&gt;Node26 -->
<g id="edge33" class="edge"><title>Node18&#45;&gt;Node26</title>
<path fill="none" stroke="midnightblue" d="M427.563,-371.246C450.779,-377.602 479.047,-385.34 503.495,-392.032"/>
<polygon fill="midnightblue" stroke="midnightblue" points="502.79,-395.468 513.36,-394.733 504.639,-388.716 502.79,-395.468"/>
</g>
<!-- Node27 -->
<g id="node22" class="node"><title>Node27</title>
<g id="a_node22"><a xlink:href="../../d9/d06/namespacemom__diag__mediator.html#a9a30d653d812713d6fcff94f6f1fc3e6" target="_top" xlink:title="mom_diag_mediator::\lis_v_axes">
<polygon fill="white" stroke="black" points="513.5,-343.5 513.5,-373.5 608.5,-373.5 608.5,-343.5 513.5,-343.5"/>
<text text-anchor="start" x="521.5" y="-361.5" font-family="Helvetica,sans-Serif" font-size="10.00">mom_diag_mediator::</text>
<text text-anchor="middle" x="561" y="-350.5" font-family="Helvetica,sans-Serif" font-size="10.00">is_v_axes</text>
</a>
</g>
</g>
<!-- Node18&#45;&gt;Node27 -->
<g id="edge34" class="edge"><title>Node18&#45;&gt;Node27</title>
<path fill="none" stroke="midnightblue" d="M427.563,-358.5C450.676,-358.5 478.796,-358.5 503.169,-358.5"/>
<polygon fill="midnightblue" stroke="midnightblue" points="503.36,-362 513.36,-358.5 503.36,-355 503.36,-362"/>
</g>
<!-- Node28 -->
<g id="node23" class="node"><title>Node28</title>
<g id="a_node23"><a xlink:href="../../d9/d06/namespacemom__diag__mediator.html#a65fe8d329cf5dbfd08c98874a7a64407" target="_top" xlink:title="Log a diagnostic to the available diagnostics file. ">
<polygon fill="white" stroke="black" points="513.5,-88.5 513.5,-118.5 608.5,-118.5 608.5,-88.5 513.5,-88.5"/>
<text text-anchor="start" x="521.5" y="-106.5" font-family="Helvetica,sans-Serif" font-size="10.00">mom_diag_mediator::</text>
<text text-anchor="middle" x="561" y="-95.5" font-family="Helvetica,sans-Serif" font-size="10.00">log_available_diag</text>
</a>
</g>
</g>
<!-- Node18&#45;&gt;Node28 -->
<g id="edge35" class="edge"><title>Node18&#45;&gt;Node28</title>
<path fill="none" stroke="midnightblue" d="M383.205,-343.279C389.967,-302.176 414.234,-187.969 482,-127.5 488.307,-121.873 495.909,-117.565 503.862,-114.267"/>
<polygon fill="midnightblue" stroke="midnightblue" points="505.096,-117.542 513.302,-110.841 502.708,-110.962 505.096,-117.542"/>
</g>
<!-- Node30 -->
<g id="node25" class="node"><title>Node30</title>
<g id="a_node25"><a xlink:href="../../d9/d06/namespacemom__diag__mediator.html#aca4a32fea8dade9f51e076a56b9bad2b" target="_top" xlink:title="Returns ID from register_diag_field_fms (the diag_manager routine) after expanding axes (axes&#45;group) ...">
<polygon fill="white" stroke="black" points="513.5,-284 513.5,-325 608.5,-325 608.5,-284 513.5,-284"/>
<text text-anchor="start" x="521.5" y="-313" font-family="Helvetica,sans-Serif" font-size="10.00">mom_diag_mediator::</text>
<text text-anchor="start" x="521.5" y="-302" font-family="Helvetica,sans-Serif" font-size="10.00">register_diag_field</text>
<text text-anchor="middle" x="561" y="-291" font-family="Helvetica,sans-Serif" font-size="10.00">_expand_axes</text>
</a>
</g>
</g>
<!-- Node18&#45;&gt;Node30 -->
<g id="edge38" class="edge"><title>Node18&#45;&gt;Node30</title>
<path fill="none" stroke="midnightblue" d="M427.563,-344.453C450.779,-337.449 479.047,-328.922 503.495,-321.546"/>
<polygon fill="midnightblue" stroke="midnightblue" points="504.797,-324.809 513.36,-318.57 502.775,-318.108 504.797,-324.809"/>
</g>
<!-- Node31 -->
<g id="node26" class="node"><title>Node31</title>
<g id="a_node26"><a xlink:href="../../d9/d06/namespacemom__diag__mediator.html#a085f313357879a914af6450f2ab8ec79" target="_top" xlink:title="mom_diag_mediator::\lset_diag_mask">
<polygon fill="white" stroke="black" points="513.5,-186.5 513.5,-216.5 608.5,-216.5 608.5,-186.5 513.5,-186.5"/>
<text text-anchor="start" x="521.5" y="-204.5" font-family="Helvetica,sans-Serif" font-size="10.00">mom_diag_mediator::</text>
<text text-anchor="middle" x="561" y="-193.5" font-family="Helvetica,sans-Serif" font-size="10.00">set_diag_mask</text>
</a>
</g>
</g>
<!-- Node18&#45;&gt;Node31 -->
<g id="edge39" class="edge"><title>Node18&#45;&gt;Node31</title>
<path fill="none" stroke="midnightblue" d="M388.448,-343.266C402.726,-315.643 436.607,-257.22 482,-225.5 488.605,-220.884 496.126,-217.135 503.828,-214.095"/>
<polygon fill="midnightblue" stroke="midnightblue" points="505.023,-217.385 513.265,-210.728 502.67,-210.792 505.023,-217.385"/>
</g>
<!-- Node32 -->
<g id="node27" class="node"><title>Node32</title>
<g id="a_node27"><a xlink:href="../../d9/d06/namespacemom__diag__mediator.html#a5d1e1aa53cdd6bb335a6f841eded4f46" target="_top" xlink:title="mom_diag_mediator::\lset_diag_remap_axes">
<polygon fill="white" stroke="black" points="513.5,-137.5 513.5,-167.5 608.5,-167.5 608.5,-137.5 513.5,-137.5"/>
<text text-anchor="start" x="521.5" y="-155.5" font-family="Helvetica,sans-Serif" font-size="10.00">mom_diag_mediator::</text>
<text text-anchor="middle" x="561" y="-144.5" font-family="Helvetica,sans-Serif" font-size="10.00">set_diag_remap_axes</text>
</a>
</g>
</g>
<!-- Node18&#45;&gt;Node32 -->
<g id="edge40" class="edge"><title>Node18&#45;&gt;Node32</title>
<path fill="none" stroke="midnightblue" d="M385.17,-343.242C395.495,-308.355 425.582,-222.247 482,-176.5 488.416,-171.298 495.954,-167.22 503.771,-164.025"/>
<polygon fill="midnightblue" stroke="midnightblue" points="505.174,-167.24 513.388,-160.549 502.794,-160.657 505.174,-167.24"/>
</g>
<!-- Node20&#45;&gt;Node12 -->
<g id="edge24" class="edge"><title>Node20&#45;&gt;Node12</title>
<path fill="none" stroke="midnightblue" d="M751.904,-558.625C758.99,-563.094 766.487,-568.214 773,-573.5 803.072,-597.909 833.482,-630.727 852.512,-652.469"/>
<polygon fill="midnightblue" stroke="midnightblue" points="850.032,-654.951 859.224,-660.219 855.323,-650.368 850.032,-654.951"/>
</g>
<!-- Node21&#45;&gt;Node12 -->
<g id="edge26" class="edge"><title>Node21&#45;&gt;Node12</title>
<path fill="none" stroke="midnightblue" d="M772.256,-645.543C786.34,-649.773 801.934,-654.456 816.526,-658.839"/>
<polygon fill="midnightblue" stroke="midnightblue" points="815.854,-662.291 826.438,-661.816 817.867,-655.587 815.854,-662.291"/>
</g>
<!-- Node22&#45;&gt;Node20 -->
<g id="edge28" class="edge"><title>Node22&#45;&gt;Node20</title>
<path fill="none" stroke="midnightblue" d="M608.5,-256.935C620.01,-260.492 631.474,-265.995 640,-274.5 708.197,-342.529 720.882,-465.14 723.106,-518.053"/>
<polygon fill="midnightblue" stroke="midnightblue" points="719.614,-518.361 723.438,-528.241 726.611,-518.132 719.614,-518.361"/>
</g>
<!-- Node23 -->
<g id="node18" class="node"><title>Node23</title>
<g id="a_node18"><a xlink:href="../../d9/d06/namespacemom__diag__mediator.html#a883862f004e30bbc5211f38635511ba0" target="_top" xlink:title="Initializes a diag_type (used after allocating new memory) ">
<polygon fill="white" stroke="black" points="677,-235.5 677,-265.5 772,-265.5 772,-235.5 677,-235.5"/>
<text text-anchor="start" x="685" y="-253.5" font-family="Helvetica,sans-Serif" font-size="10.00">mom_diag_mediator::</text>
<text text-anchor="middle" x="724.5" y="-242.5" font-family="Helvetica,sans-Serif" font-size="10.00">initialize_diag_type</text>
</a>
</g>
</g>
<!-- Node22&#45;&gt;Node23 -->
<g id="edge29" class="edge"><title>Node22&#45;&gt;Node23</title>
<path fill="none" stroke="midnightblue" d="M608.712,-250.5C626.875,-250.5 647.849,-250.5 666.86,-250.5"/>
<polygon fill="midnightblue" stroke="midnightblue" points="666.893,-254 676.892,-250.5 666.892,-247 666.893,-254"/>
</g>
<!-- Node29 -->
<g id="node24" class="node"><title>Node29</title>
<g id="a_node24"><a xlink:href="../../d9/d06/namespacemom__diag__mediator.html#ae002ca447acba252bf7bdc042e75a01e" target="_top" xlink:title="mom_diag_mediator::\ldescribe_option">
<polygon fill="white" stroke="black" points="677,-88.5 677,-118.5 772,-118.5 772,-88.5 677,-88.5"/>
<text text-anchor="start" x="685" y="-106.5" font-family="Helvetica,sans-Serif" font-size="10.00">mom_diag_mediator::</text>
<text text-anchor="middle" x="724.5" y="-95.5" font-family="Helvetica,sans-Serif" font-size="10.00">describe_option</text>
</a>
</g>
</g>
<!-- Node28&#45;&gt;Node29 -->
<g id="edge36" class="edge"><title>Node28&#45;&gt;Node29</title>
<path fill="none" stroke="midnightblue" d="M608.712,-103.5C626.875,-103.5 647.849,-103.5 666.86,-103.5"/>
<polygon fill="midnightblue" stroke="midnightblue" points="666.893,-107 676.892,-103.5 666.892,-100 666.893,-107"/>
</g>
</g>
</svg>
        <g id="navigator" transform="translate(0 0)" fill="#404254">
                <rect fill="#f2f5e9" fill-opacity="0.5" stroke="#606060" stroke-width=".5" x="0" y="0" width="60" height="60"/>
                <use id="zoomplus" xlink:href="#zoomPlus" x="17" y="9" onmousedown="handleZoom(evt,'in')"/>
                <use id="zoomminus" xlink:href="#zoomMin" x="42" y="9" onmousedown="handleZoom(evt,'out')"/>
                <use id="reset" xlink:href="#resetDef" x="30" y="36" onmousedown="handleReset()"/>
                <g id="arrowUp" xlink:href="#dirArrow" transform="translate(30 24)" onmousedown="handlePan(0,-1)">
                  <use xlink:href="#rim" fill="#404040">
                        <set attributeName="fill" to="#808080" begin="arrowUp.mouseover" end="arrowUp.mouseout"/>
                  </use>
                  <path fill="none" stroke="white" stroke-width="1.5" d="M0,-3.0v7 M-2.5,-0.5L0,-3.0L2.5,-0.5"/>
                </g>
                <g id="arrowRight" xlink:href="#dirArrow" transform="rotate(90) translate(36 -43)" onmousedown="handlePan(1,0)">
                  <use xlink:href="#rim" fill="#404040">
                        <set attributeName="fill" to="#808080" begin="arrowRight.mouseover" end="arrowRight.mouseout"/>
                  </use>
                  <path fill="none" stroke="white" stroke-width="1.5" d="M0,-3.0v7 M-2.5,-0.5L0,-3.0L2.5,-0.5"/>
                </g>
                <g id="arrowDown" xlink:href="#dirArrow" transform="rotate(180) translate(-30 -48)" onmousedown="handlePan(0,1)">
                  <use xlink:href="#rim" fill="#404040">
                        <set attributeName="fill" to="#808080" begin="arrowDown.mouseover" end="arrowDown.mouseout"/>
                  </use>
                  <path fill="none" stroke="white" stroke-width="1.5" d="M0,-3.0v7 M-2.5,-0.5L0,-3.0L2.5,-0.5"/>
                </g>
                <g id="arrowLeft" xlink:href="#dirArrow" transform="rotate(270) translate(-36 17)" onmousedown="handlePan(-1,0)">
                  <use xlink:href="#rim" fill="#404040">
                        <set attributeName="fill" to="#808080" begin="arrowLeft.mouseover" end="arrowLeft.mouseout"/>
                  </use>
                  <path fill="none" stroke="white" stroke-width="1.5" d="M0,-3.0v7 M-2.5,-0.5L0,-3.0L2.5,-0.5"/>
                </g>
        </g>
        <svg viewBox="0 0 15 15" width="100%" height="30px" preserveAspectRatio="xMaxYMin meet">
         <g id="arrow_out" transform="scale(0.3 0.3)">
          <a xlink:href="namespacemom__diffconvection_ac36d9d7fd69e4422e7de01242094ff34_cgraph_org.svg" target="_base">
           <rect id="button" ry="5" rx="5" y="6" x="6" height="38" width="38"
                fill="#f2f5e9" fill-opacity="0.5" stroke="#606060" stroke-width="1.0"/>
           <path id="arrow"
             d="M 11.500037,31.436501 C 11.940474,20.09759 22.043105,11.32322 32.158766,21.979434 L 37.068811,17.246167 C 37.068811,17.246167 37.088388,32 37.088388,32 L 22.160133,31.978069 C 22.160133,31.978069 26.997745,27.140456 26.997745,27.140456 C 18.528582,18.264221 13.291696,25.230495 11.500037,31.436501 z"
             style="fill:#404040;"/>
          </a>
         </g>
        </svg>
</svg>
