<?xml version="1.0" encoding="UTF-8" standalone="no"?>
<!DOCTYPE svg PUBLIC "-//W3C//DTD SVG 1.1//EN"
 "http://www.w3.org/Graphics/SVG/1.1/DTD/svg11.dtd">
<!-- Generated by graphviz version 2.38.0 (20140413.2041)
 -->
<!-- Title: mom_kpp::kpp_init Pages: 1 -->
<svg width="1230pt" height="960pt"
 viewBox="0.00 0.00 1230.00 960.13" xmlns="http://www.w3.org/2000/svg" xmlns:xlink="http://www.w3.org/1999/xlink">
<g id="graph0" class="graph" transform="scale(1 1) rotate(0) translate(4 956.132)">
<title>mom_kpp::kpp_init</title>
<polygon fill="white" stroke="none" points="-4,4 -4,-956.132 1226,-956.132 1226,4 -4,4"/>
<!-- Node4 -->
<g id="node1" class="node"><title>Node4</title>
<polygon fill="#bfbfbf" stroke="black" points="0,-690 0,-709 99,-709 99,-690 0,-690"/>
<text text-anchor="middle" x="49.5" y="-697" font-family="Helvetica,sans-Serif" font-size="10.00">mom_kpp::kpp_init</text>
</g>
<!-- Node5 -->
<g id="node2" class="node"><title>Node5</title>
<g id="a_node2"><a xlink:href="../../d9/def/namespacemom__file__parser.html#a0d01b9a66f5ac12b657c00f1295351bb" target="_top" xlink:title="mom_file_parser::closeparameterblock">
<polygon fill="white" stroke="black" points="135,-858 135,-877 320,-877 320,-858 135,-858"/>
<text text-anchor="middle" x="227.5" y="-865" font-family="Helvetica,sans-Serif" font-size="10.00">mom_file_parser::closeparameterblock</text>
</a>
</g>
</g>
<!-- Node4&#45;&gt;Node5 -->
<g id="edge1" class="edge"><title>Node4&#45;&gt;Node5</title>
<path fill="none" stroke="midnightblue" d="M60.4668,-709.014C89.1314,-736.375 172.073,-815.547 208.726,-850.534"/>
<polygon fill="midnightblue" stroke="midnightblue" points="206.554,-853.299 216.204,-857.672 211.387,-848.236 206.554,-853.299"/>
</g>
<!-- Node10 -->
<g id="node7" class="node"><title>Node10</title>
<g id="a_node7"><a xlink:href="../../d0/de6/namespacemom__error__handler.html#a460cfb79a06c29fc249952c2a3710d67" target="_top" xlink:title="mom_error_handler::\lmom_error">
<polygon fill="white" stroke="black" points="950,-650.5 950,-680.5 1056,-680.5 1056,-650.5 950,-650.5"/>
<text text-anchor="start" x="958" y="-668.5" font-family="Helvetica,sans-Serif" font-size="10.00">mom_error_handler::</text>
<text text-anchor="middle" x="1003" y="-657.5" font-family="Helvetica,sans-Serif" font-size="10.00">mom_error</text>
</a>
</g>
</g>
<!-- Node4&#45;&gt;Node10 -->
<g id="edge13" class="edge"><title>Node4&#45;&gt;Node10</title>
<path fill="none" stroke="midnightblue" d="M99.2381,-692.414C172.112,-682.449 313.872,-665.5 435,-665.5 435,-665.5 435,-665.5 648,-665.5 750.218,-665.5 869.038,-665.5 939.742,-665.5"/>
<polygon fill="midnightblue" stroke="midnightblue" points="939.817,-669 949.817,-665.5 939.817,-662 939.817,-669"/>
</g>
<!-- Node13 -->
<g id="node10" class="node"><title>Node13</title>
<g id="a_node10"><a xlink:href="../../d9/def/namespacemom__file__parser.html#a363628fcd8540de780ebeacf24012229" target="_top" xlink:title="mom_file_parser::openparameterblock">
<polygon fill="white" stroke="black" points="136.5,-725 136.5,-744 318.5,-744 318.5,-725 136.5,-725"/>
<text text-anchor="middle" x="227.5" y="-732" font-family="Helvetica,sans-Serif" font-size="10.00">mom_file_parser::openparameterblock</text>
</a>
</g>
</g>
<!-- Node4&#45;&gt;Node13 -->
<g id="edge14" class="edge"><title>Node4&#45;&gt;Node13</title>
<path fill="none" stroke="midnightblue" d="M98.5928,-709.064C120.225,-713.366 145.94,-718.48 168.619,-722.99"/>
<polygon fill="midnightblue" stroke="midnightblue" points="167.975,-726.43 178.465,-724.948 169.34,-719.564 167.975,-726.43"/>
</g>
<!-- Node16 -->
<g id="node13" class="node"><title>Node16</title>
<g id="a_node13"><a xlink:href="../../d9/d06/namespacemom__diag__mediator.html#aab2007573b14ed73053282770d1b19a4" target="_top" xlink:title="mom_diag_mediator::\lregister_diag_field">
<polygon fill="white" stroke="black" points="381,-312.5 381,-342.5 491,-342.5 491,-312.5 381,-312.5"/>
<text text-anchor="start" x="389" y="-330.5" font-family="Helvetica,sans-Serif" font-size="10.00">mom_diag_mediator::</text>
<text text-anchor="middle" x="436" y="-319.5" font-family="Helvetica,sans-Serif" font-size="10.00">register_diag_field</text>
</a>
</g>
</g>
<!-- Node4&#45;&gt;Node16 -->
<g id="edge21" class="edge"><title>Node4&#45;&gt;Node16</title>
<path fill="none" stroke="midnightblue" d="M60.3909,-689.931C110.633,-641.322 338.061,-421.288 411.825,-349.922"/>
<polygon fill="midnightblue" stroke="midnightblue" points="414.507,-352.197 419.26,-342.728 409.64,-347.166 414.507,-352.197"/>
</g>
<!-- Node6 -->
<g id="node3" class="node"><title>Node6</title>
<g id="a_node3"><a xlink:href="../../d5/d38/namespacemom__document.html#a058916aee316efa7a6484b3bb1d3f3df" target="_top" xlink:title="mom_document::doc_closeblock">
<polygon fill="white" stroke="black" points="356,-801 356,-820 516,-820 516,-801 356,-801"/>
<text text-anchor="middle" x="436" y="-808" font-family="Helvetica,sans-Serif" font-size="10.00">mom_document::doc_closeblock</text>
</a>
</g>
</g>
<!-- Node5&#45;&gt;Node6 -->
<g id="edge2" class="edge"><title>Node5&#45;&gt;Node6</title>
<path fill="none" stroke="midnightblue" d="M263.063,-857.959C298.055,-848.301 352.31,-833.325 390.497,-822.784"/>
<polygon fill="midnightblue" stroke="midnightblue" points="391.616,-826.106 400.324,-820.072 389.753,-819.359 391.616,-826.106"/>
</g>
<!-- Node7 -->
<g id="node4" class="node"><title>Node7</title>
<g id="a_node4"><a xlink:href="../../d0/de6/namespacemom__error__handler.html#ad5f00a53059c72fe2332d1436c80ca71" target="_top" xlink:title="mom_error_handler::\lis_root_pe">
<polygon fill="white" stroke="black" points="1116,-814.5 1116,-844.5 1222,-844.5 1222,-814.5 1116,-814.5"/>
<text text-anchor="start" x="1124" y="-832.5" font-family="Helvetica,sans-Serif" font-size="10.00">mom_error_handler::</text>
<text text-anchor="middle" x="1169" y="-821.5" font-family="Helvetica,sans-Serif" font-size="10.00">is_root_pe</text>
</a>
</g>
</g>
<!-- Node5&#45;&gt;Node7 -->
<g id="edge10" class="edge"><title>Node5&#45;&gt;Node7</title>
<path fill="none" stroke="midnightblue" d="M259.313,-877.048C328.003,-897.461 499.205,-943.5 646,-943.5 646,-943.5 646,-943.5 835,-943.5 944.216,-943.5 981.681,-972.056 1080,-924.5 1112.34,-908.858 1138.59,-875.731 1153.76,-853.041"/>
<polygon fill="midnightblue" stroke="midnightblue" points="1156.71,-854.92 1159.2,-844.622 1150.83,-851.12 1156.71,-854.92"/>
</g>
<!-- Node12 -->
<g id="node9" class="node"><title>Node12</title>
<g id="a_node9"><a xlink:href="../../d9/def/namespacemom__file__parser.html#a73b11b969d303b1fc0ba5235c812fd05" target="_top" xlink:title="mom_file_parser::popblocklevel">
<polygon fill="white" stroke="black" points="926,-896 926,-915 1080,-915 1080,-896 926,-896"/>
<text text-anchor="middle" x="1003" y="-903" font-family="Helvetica,sans-Serif" font-size="10.00">mom_file_parser::popblocklevel</text>
</a>
</g>
</g>
<!-- Node5&#45;&gt;Node12 -->
<g id="edge11" class="edge"><title>Node5&#45;&gt;Node12</title>
<path fill="none" stroke="midnightblue" d="M306.974,-877.018C323.166,-878.728 340.121,-880.335 356,-881.5 556.046,-896.18 791.635,-902.06 915.635,-904.272"/>
<polygon fill="midnightblue" stroke="midnightblue" points="915.765,-907.775 925.825,-904.451 915.887,-900.776 915.765,-907.775"/>
</g>
<!-- Node6&#45;&gt;Node7 -->
<g id="edge3" class="edge"><title>Node6&#45;&gt;Node7</title>
<path fill="none" stroke="midnightblue" d="M516.273,-812.56C662.737,-816.367 972.882,-824.429 1105.61,-827.878"/>
<polygon fill="midnightblue" stroke="midnightblue" points="1105.91,-831.387 1115.99,-828.148 1106.09,-824.39 1105.91,-831.387"/>
</g>
<!-- Node8 -->
<g id="node5" class="node"><title>Node8</title>
<g id="a_node5"><a xlink:href="../../d5/d38/namespacemom__document.html#aab976b6c6c9c01833438d217fca228a4" target="_top" xlink:title="mom_document::open\l_doc_file">
<polygon fill="white" stroke="black" points="590.5,-694.5 590.5,-724.5 703.5,-724.5 703.5,-694.5 590.5,-694.5"/>
<text text-anchor="start" x="598.5" y="-712.5" font-family="Helvetica,sans-Serif" font-size="10.00">mom_document::open</text>
<text text-anchor="middle" x="647" y="-701.5" font-family="Helvetica,sans-Serif" font-size="10.00">_doc_file</text>
</a>
</g>
</g>
<!-- Node6&#45;&gt;Node8 -->
<g id="edge4" class="edge"><title>Node6&#45;&gt;Node8</title>
<path fill="none" stroke="midnightblue" d="M456.812,-800.99C472.795,-793.313 495.853,-782.227 516,-772.5 546.173,-757.932 580.257,-741.412 605.953,-728.945"/>
<polygon fill="midnightblue" stroke="midnightblue" points="607.549,-732.061 615.018,-724.546 604.493,-725.763 607.549,-732.061"/>
</g>
<!-- Node11 -->
<g id="node8" class="node"><title>Node11</title>
<g id="a_node8"><a xlink:href="../../d5/d38/namespacemom__document.html#a22d84550b1affd1037328c5117496a65" target="_top" xlink:title="mom_document::writemessageanddesc">
<polygon fill="white" stroke="black" points="552,-782 552,-801 742,-801 742,-782 552,-782"/>
<text text-anchor="middle" x="647" y="-789" font-family="Helvetica,sans-Serif" font-size="10.00">mom_document::writemessageanddesc</text>
</a>
</g>
</g>
<!-- Node6&#45;&gt;Node11 -->
<g id="edge9" class="edge"><title>Node6&#45;&gt;Node11</title>
<path fill="none" stroke="midnightblue" d="M516.014,-803.317C524.405,-802.554 533.031,-801.77 541.654,-800.986"/>
<polygon fill="midnightblue" stroke="midnightblue" points="542.121,-804.458 551.763,-800.067 541.487,-797.487 542.121,-804.458"/>
</g>
<!-- Node9 -->
<g id="node6" class="node"><title>Node9</title>
<g id="a_node6"><a xlink:href="../../d5/d38/namespacemom__document.html#a5f2661445a72a7d0f774677e91366db5" target="_top" xlink:title="mom_document::find\l_unused_unit_number">
<polygon fill="white" stroke="black" points="778,-732.5 778,-762.5 890,-762.5 890,-732.5 778,-732.5"/>
<text text-anchor="start" x="786" y="-750.5" font-family="Helvetica,sans-Serif" font-size="10.00">mom_document::find</text>
<text text-anchor="middle" x="834" y="-739.5" font-family="Helvetica,sans-Serif" font-size="10.00">_unused_unit_number</text>
</a>
</g>
</g>
<!-- Node8&#45;&gt;Node9 -->
<g id="edge5" class="edge"><title>Node8&#45;&gt;Node9</title>
<path fill="none" stroke="midnightblue" d="M703.506,-720.901C723.812,-725.072 746.965,-729.828 768.024,-734.154"/>
<polygon fill="midnightblue" stroke="midnightblue" points="767.352,-737.589 777.852,-736.172 768.761,-730.732 767.352,-737.589"/>
</g>
<!-- Node8&#45;&gt;Node10 -->
<g id="edge8" class="edge"><title>Node8&#45;&gt;Node10</title>
<path fill="none" stroke="midnightblue" d="M703.751,-702.605C752.802,-696.535 826.143,-687.449 890,-679.5 906.184,-677.485 923.683,-675.301 939.93,-673.27"/>
<polygon fill="midnightblue" stroke="midnightblue" points="940.374,-676.742 949.863,-672.028 939.506,-669.796 940.374,-676.742"/>
</g>
<!-- Node9&#45;&gt;Node10 -->
<g id="edge6" class="edge"><title>Node9&#45;&gt;Node10</title>
<path fill="none" stroke="midnightblue" d="M865.63,-732.46C892.735,-719.151 932.466,-699.643 962.058,-685.112"/>
<polygon fill="midnightblue" stroke="midnightblue" points="963.848,-688.133 971.281,-680.583 960.763,-681.849 963.848,-688.133"/>
</g>
<!-- Node10&#45;&gt;Node7 -->
<g id="edge7" class="edge"><title>Node10&#45;&gt;Node7</title>
<path fill="none" stroke="midnightblue" d="M1019.13,-680.635C1048.18,-709.681 1111.86,-773.36 1145.75,-807.251"/>
<polygon fill="midnightblue" stroke="midnightblue" points="1143.36,-809.806 1152.9,-814.402 1148.31,-804.856 1143.36,-809.806"/>
</g>
<!-- Node12&#45;&gt;Node7 -->
<g id="edge12" class="edge"><title>Node12&#45;&gt;Node7</title>
<path fill="none" stroke="midnightblue" d="M1040.19,-895.908C1053,-892.035 1067.36,-887.139 1080,-881.5 1099.69,-872.712 1120.51,-860.553 1136.96,-850.202"/>
<polygon fill="midnightblue" stroke="midnightblue" points="1139.07,-853.006 1145.61,-844.67 1135.3,-847.109 1139.07,-853.006"/>
</g>
<!-- Node13&#45;&gt;Node7 -->
<g id="edge19" class="edge"><title>Node13&#45;&gt;Node7</title>
<path fill="none" stroke="midnightblue" d="M237.665,-744.055C257.269,-763.822 305.607,-809.061 356,-829.5 476.459,-878.358 516.009,-867.5 646,-867.5 646,-867.5 646,-867.5 835,-867.5 929.919,-867.5 1039.08,-852.071 1105.8,-840.875"/>
<polygon fill="midnightblue" stroke="midnightblue" points="1106.45,-844.314 1115.73,-839.187 1105.28,-837.413 1106.45,-844.314"/>
</g>
<!-- Node14 -->
<g id="node11" class="node"><title>Node14</title>
<g id="a_node11"><a xlink:href="../../d5/d38/namespacemom__document.html#ada55c6a65638e04d2b550f419aafa929" target="_top" xlink:title="mom_document::doc_openblock">
<polygon fill="white" stroke="black" points="357,-744 357,-763 515,-763 515,-744 357,-744"/>
<text text-anchor="middle" x="436" y="-751" font-family="Helvetica,sans-Serif" font-size="10.00">mom_document::doc_openblock</text>
</a>
</g>
</g>
<!-- Node13&#45;&gt;Node14 -->
<g id="edge15" class="edge"><title>Node13&#45;&gt;Node14</title>
<path fill="none" stroke="midnightblue" d="M318.774,-742.806C328.098,-743.664 337.567,-744.535 346.868,-745.391"/>
<polygon fill="midnightblue" stroke="midnightblue" points="346.601,-748.881 356.88,-746.312 347.243,-741.911 346.601,-748.881"/>
</g>
<!-- Node15 -->
<g id="node12" class="node"><title>Node15</title>
<g id="a_node12"><a xlink:href="../../d9/def/namespacemom__file__parser.html#a58777b0faf747d59a793b4e238919dc6" target="_top" xlink:title="mom_file_parser::pushblocklevel">
<polygon fill="white" stroke="black" points="356.5,-706 356.5,-725 515.5,-725 515.5,-706 356.5,-706"/>
<text text-anchor="middle" x="436" y="-713" font-family="Helvetica,sans-Serif" font-size="10.00">mom_file_parser::pushblocklevel</text>
</a>
</g>
</g>
<!-- Node13&#45;&gt;Node15 -->
<g id="edge20" class="edge"><title>Node13&#45;&gt;Node15</title>
<path fill="none" stroke="midnightblue" d="M318.774,-726.194C327.841,-725.36 337.045,-724.513 346.099,-723.68"/>
<polygon fill="midnightblue" stroke="midnightblue" points="346.604,-727.148 356.241,-722.747 345.963,-720.178 346.604,-727.148"/>
</g>
<!-- Node14&#45;&gt;Node7 -->
<g id="edge16" class="edge"><title>Node14&#45;&gt;Node7</title>
<path fill="none" stroke="midnightblue" d="M515.162,-756.843C576.85,-759.85 665.042,-764.964 742,-772.5 871.746,-785.205 1022.81,-807.117 1105.67,-819.752"/>
<polygon fill="midnightblue" stroke="midnightblue" points="1105.26,-823.23 1115.67,-821.283 1106.32,-816.31 1105.26,-823.23"/>
</g>
<!-- Node14&#45;&gt;Node8 -->
<g id="edge17" class="edge"><title>Node14&#45;&gt;Node8</title>
<path fill="none" stroke="midnightblue" d="M482.35,-743.953C510.949,-737.932 548.362,-730.055 580.196,-723.353"/>
<polygon fill="midnightblue" stroke="midnightblue" points="581.253,-726.708 590.318,-721.223 579.811,-719.858 581.253,-726.708"/>
</g>
<!-- Node14&#45;&gt;Node11 -->
<g id="edge18" class="edge"><title>Node14&#45;&gt;Node11</title>
<path fill="none" stroke="midnightblue" d="M489.47,-763.04C518.041,-768.235 553.58,-774.696 583.569,-780.149"/>
<polygon fill="midnightblue" stroke="midnightblue" points="583.044,-783.611 593.509,-781.956 584.296,-776.724 583.044,-783.611"/>
</g>
<!-- Node16&#45;&gt;Node7 -->
<g id="edge32" class="edge"><title>Node16&#45;&gt;Node7</title>
<path fill="none" stroke="midnightblue" d="M440.274,-312.32C449.637,-273.144 480.581,-168.818 552,-127.5 625.094,-85.2133 665.842,-91.0203 742,-127.5 1028.52,-264.741 1139.02,-694.995 1162.83,-804.134"/>
<polygon fill="midnightblue" stroke="midnightblue" points="1159.47,-805.167 1164.98,-814.217 1166.32,-803.707 1159.47,-805.167"/>
</g>
<!-- Node16&#45;&gt;Node10 -->
<g id="edge37" class="edge"><title>Node16&#45;&gt;Node10</title>
<path fill="none" stroke="midnightblue" d="M438.072,-342.5C442.361,-390.318 462.693,-540.019 552,-608.5 552.957,-609.234 816.204,-642.253 939.569,-657.693"/>
<polygon fill="midnightblue" stroke="midnightblue" points="939.275,-661.183 949.632,-658.952 940.144,-654.238 939.275,-661.183"/>
</g>
<!-- Node17 -->
<g id="node14" class="node"><title>Node17</title>
<g id="a_node14"><a xlink:href="../../d9/d06/namespacemom__diag__mediator.html#a1b0bed2113a0c268eafd1bafbb48bd4f" target="_top" xlink:title="mom_diag_mediator::\lalloc_diag_with_id">
<polygon fill="white" stroke="black" points="592,-0.5 592,-30.5 702,-30.5 702,-0.5 592,-0.5"/>
<text text-anchor="start" x="600" y="-18.5" font-family="Helvetica,sans-Serif" font-size="10.00">mom_diag_mediator::</text>
<text text-anchor="middle" x="647" y="-7.5" font-family="Helvetica,sans-Serif" font-size="10.00">alloc_diag_with_id</text>
</a>
</g>
</g>
<!-- Node16&#45;&gt;Node17 -->
<g id="edge22" class="edge"><title>Node16&#45;&gt;Node17</title>
<path fill="none" stroke="midnightblue" d="M438.349,-312.257C443.437,-264.29 465.818,-115.153 552,-39.5 560.517,-32.0232 571.051,-26.8188 581.954,-23.2087"/>
<polygon fill="midnightblue" stroke="midnightblue" points="582.95,-26.5642 591.588,-20.4296 581.01,-19.8384 582.95,-26.5642"/>
</g>
<!-- Node18 -->
<g id="node15" class="node"><title>Node18</title>
<g id="a_node15"><a xlink:href="../../d9/d06/namespacemom__diag__mediator.html#a6e11afe7a97bf8e3333d33b0aebd6f6e" target="_top" xlink:title="mom_diag_mediator::\lassert">
<polygon fill="white" stroke="black" points="779,-484.5 779,-514.5 889,-514.5 889,-484.5 779,-484.5"/>
<text text-anchor="start" x="787" y="-502.5" font-family="Helvetica,sans-Serif" font-size="10.00">mom_diag_mediator::</text>
<text text-anchor="middle" x="834" y="-491.5" font-family="Helvetica,sans-Serif" font-size="10.00">assert</text>
</a>
</g>
</g>
<!-- Node16&#45;&gt;Node18 -->
<g id="edge23" class="edge"><title>Node16&#45;&gt;Node18</title>
<path fill="none" stroke="midnightblue" d="M470.881,-312.334C530.812,-288.015 657.185,-248.252 742,-302.5 757.662,-312.518 803.278,-424.22 823.34,-474.834"/>
<polygon fill="midnightblue" stroke="midnightblue" points="820.178,-476.355 827.105,-484.371 826.689,-473.785 820.178,-476.355"/>
</g>
<!-- Node19 -->
<g id="node16" class="node"><title>Node19</title>
<g id="a_node16"><a xlink:href="../../d9/d06/namespacemom__diag__mediator.html#a93abbf0b9659019bed9a2129ab292752" target="_top" xlink:title="Attaches &quot;cell_methods&quot; attribute to a variable based on defaults for axes_grp or optional arguments...">
<polygon fill="white" stroke="black" points="779,-321.5 779,-351.5 889,-351.5 889,-321.5 779,-321.5"/>
<text text-anchor="start" x="787" y="-339.5" font-family="Helvetica,sans-Serif" font-size="10.00">mom_diag_mediator::</text>
<text text-anchor="middle" x="834" y="-328.5" font-family="Helvetica,sans-Serif" font-size="10.00">attach_cell_methods</text>
</a>
</g>
</g>
<!-- Node16&#45;&gt;Node19 -->
<g id="edge25" class="edge"><title>Node16&#45;&gt;Node19</title>
<path fill="none" stroke="midnightblue" d="M459.122,-312.373C481.426,-298.11 517.412,-277.729 552,-269.5 634.152,-249.956 661.772,-243.151 742,-269.5 768.832,-278.312 794.262,-298.399 811.382,-314.295"/>
<polygon fill="midnightblue" stroke="midnightblue" points="808.997,-316.857 818.639,-321.248 813.84,-311.802 808.997,-316.857"/>
</g>
<!-- Node20 -->
<g id="node17" class="node"><title>Node20</title>
<g id="a_node17"><a xlink:href="../../d9/d06/namespacemom__diag__mediator.html#a3f7442639213320f7429e2288a79fda2" target="_top" xlink:title="Returns a new diagnostic id, it may be necessary to expand the diagnostics array. ...">
<polygon fill="white" stroke="black" points="592,-508.5 592,-538.5 702,-538.5 702,-508.5 592,-508.5"/>
<text text-anchor="start" x="600" y="-526.5" font-family="Helvetica,sans-Serif" font-size="10.00">mom_diag_mediator::</text>
<text text-anchor="middle" x="647" y="-515.5" font-family="Helvetica,sans-Serif" font-size="10.00">get_new_diag_id</text>
</a>
</g>
</g>
<!-- Node16&#45;&gt;Node20 -->
<g id="edge27" class="edge"><title>Node16&#45;&gt;Node20</title>
<path fill="none" stroke="midnightblue" d="M442.737,-342.505C456.32,-375.958 493.737,-456.963 552,-498.5 560.948,-504.879 571.422,-509.631 582.067,-513.17"/>
<polygon fill="midnightblue" stroke="midnightblue" points="581.268,-516.585 591.852,-516.091 583.271,-509.877 581.268,-516.585"/>
</g>
<!-- Node22 -->
<g id="node19" class="node"><title>Node22</title>
<g id="a_node19"><a xlink:href="../../d9/d06/namespacemom__diag__mediator.html#a4b739f107cebe1ece8d29056c1144bff" target="_top" xlink:title="mom_diag_mediator::\lis_b_axes">
<polygon fill="white" stroke="black" points="592,-459.5 592,-489.5 702,-489.5 702,-459.5 592,-459.5"/>
<text text-anchor="start" x="600" y="-477.5" font-family="Helvetica,sans-Serif" font-size="10.00">mom_diag_mediator::</text>
<text text-anchor="middle" x="647" y="-466.5" font-family="Helvetica,sans-Serif" font-size="10.00">is_b_axes</text>
</a>
</g>
</g>
<!-- Node16&#45;&gt;Node22 -->
<g id="edge30" class="edge"><title>Node16&#45;&gt;Node22</title>
<path fill="none" stroke="midnightblue" d="M447.081,-342.821C465.007,-368.822 504.993,-421.486 552,-449.5 561.218,-454.994 571.652,-459.3 582.13,-462.671"/>
<polygon fill="midnightblue" stroke="midnightblue" points="581.149,-466.031 591.731,-465.51 583.135,-459.318 581.149,-466.031"/>
</g>
<!-- Node23 -->
<g id="node20" class="node"><title>Node23</title>
<g id="a_node20"><a xlink:href="../../d9/d06/namespacemom__diag__mediator.html#a84370fa96e03622edbfd5e343bcd9718" target="_top" xlink:title="mom_diag_mediator::\lis_layer_axes">
<polygon fill="white" stroke="black" points="592,-410.5 592,-440.5 702,-440.5 702,-410.5 592,-410.5"/>
<text text-anchor="start" x="600" y="-428.5" font-family="Helvetica,sans-Serif" font-size="10.00">mom_diag_mediator::</text>
<text text-anchor="middle" x="647" y="-417.5" font-family="Helvetica,sans-Serif" font-size="10.00">is_layer_axes</text>
</a>
</g>
</g>
<!-- Node16&#45;&gt;Node23 -->
<g id="edge31" class="edge"><title>Node16&#45;&gt;Node23</title>
<path fill="none" stroke="midnightblue" d="M456.714,-342.681C478.816,-359.046 516.258,-384.847 552,-400.5 561.495,-404.658 571.841,-408.26 582.084,-411.332"/>
<polygon fill="midnightblue" stroke="midnightblue" points="581.265,-414.738 591.842,-414.117 583.186,-408.007 581.265,-414.738"/>
</g>
<!-- Node24 -->
<g id="node21" class="node"><title>Node24</title>
<g id="a_node21"><a xlink:href="../../d9/d06/namespacemom__diag__mediator.html#a27fa63c9ff62b660bf457adbb8645bdf" target="_top" xlink:title="mom_diag_mediator::\lis_u_axes">
<polygon fill="white" stroke="black" points="592,-361.5 592,-391.5 702,-391.5 702,-361.5 592,-361.5"/>
<text text-anchor="start" x="600" y="-379.5" font-family="Helvetica,sans-Serif" font-size="10.00">mom_diag_mediator::</text>
<text text-anchor="middle" x="647" y="-368.5" font-family="Helvetica,sans-Serif" font-size="10.00">is_u_axes</text>
</a>
</g>
</g>
<!-- Node16&#45;&gt;Node24 -->
<g id="edge33" class="edge"><title>Node16&#45;&gt;Node24</title>
<path fill="none" stroke="midnightblue" d="M491.094,-340.182C518.792,-346.676 552.701,-354.626 581.725,-361.431"/>
<polygon fill="midnightblue" stroke="midnightblue" points="581.235,-364.911 591.769,-363.786 582.832,-358.095 581.235,-364.911"/>
</g>
<!-- Node25 -->
<g id="node22" class="node"><title>Node25</title>
<g id="a_node22"><a xlink:href="../../d9/d06/namespacemom__diag__mediator.html#a9a30d653d812713d6fcff94f6f1fc3e6" target="_top" xlink:title="mom_diag_mediator::\lis_v_axes">
<polygon fill="white" stroke="black" points="592,-312.5 592,-342.5 702,-342.5 702,-312.5 592,-312.5"/>
<text text-anchor="start" x="600" y="-330.5" font-family="Helvetica,sans-Serif" font-size="10.00">mom_diag_mediator::</text>
<text text-anchor="middle" x="647" y="-319.5" font-family="Helvetica,sans-Serif" font-size="10.00">is_v_axes</text>
</a>
</g>
</g>
<!-- Node16&#45;&gt;Node25 -->
<g id="edge34" class="edge"><title>Node16&#45;&gt;Node25</title>
<path fill="none" stroke="midnightblue" d="M491.094,-327.5C518.792,-327.5 552.701,-327.5 581.725,-327.5"/>
<polygon fill="midnightblue" stroke="midnightblue" points="581.769,-331 591.769,-327.5 581.769,-324 581.769,-331"/>
</g>
<!-- Node26 -->
<g id="node23" class="node"><title>Node26</title>
<g id="a_node23"><a xlink:href="../../d9/d06/namespacemom__diag__mediator.html#a65fe8d329cf5dbfd08c98874a7a64407" target="_top" xlink:title="Log a diagnostic to the available diagnostics file. ">
<polygon fill="white" stroke="black" points="592,-49.5 592,-79.5 702,-79.5 702,-49.5 592,-49.5"/>
<text text-anchor="start" x="600" y="-67.5" font-family="Helvetica,sans-Serif" font-size="10.00">mom_diag_mediator::</text>
<text text-anchor="middle" x="647" y="-56.5" font-family="Helvetica,sans-Serif" font-size="10.00">log_available_diag</text>
</a>
</g>
</g>
<!-- Node16&#45;&gt;Node26 -->
<g id="edge35" class="edge"><title>Node16&#45;&gt;Node26</title>
<path fill="none" stroke="midnightblue" d="M440.112,-312.453C449.413,-271.268 480.882,-155.705 552,-94.5 560.737,-86.981 571.375,-81.342 582.312,-77.1142"/>
<polygon fill="midnightblue" stroke="midnightblue" points="583.669,-80.3477 591.959,-73.7503 581.364,-73.7379 583.669,-80.3477"/>
</g>
<!-- Node28 -->
<g id="node25" class="node"><title>Node28</title>
<g id="a_node25"><a xlink:href="../../d9/d06/namespacemom__diag__mediator.html#aca4a32fea8dade9f51e076a56b9bad2b" target="_top" xlink:title="Returns ID from register_diag_field_fms (the diag_manager routine) after expanding axes (axes&#45;group) ...">
<polygon fill="white" stroke="black" points="592,-558 592,-599 702,-599 702,-558 592,-558"/>
<text text-anchor="start" x="600" y="-587" font-family="Helvetica,sans-Serif" font-size="10.00">mom_diag_mediator::</text>
<text text-anchor="start" x="600" y="-576" font-family="Helvetica,sans-Serif" font-size="10.00">register_diag_field</text>
<text text-anchor="middle" x="647" y="-565" font-family="Helvetica,sans-Serif" font-size="10.00">_expand_axes</text>
</a>
</g>
</g>
<!-- Node16&#45;&gt;Node28 -->
<g id="edge38" class="edge"><title>Node16&#45;&gt;Node28</title>
<path fill="none" stroke="midnightblue" d="M440.626,-342.535C450.935,-382.08 484.152,-489.905 552,-547.5 560.714,-554.897 571.245,-560.543 582.062,-564.848"/>
<polygon fill="midnightblue" stroke="midnightblue" points="581.008,-568.189 591.602,-568.297 583.388,-561.606 581.008,-568.189"/>
</g>
<!-- Node29 -->
<g id="node26" class="node"><title>Node29</title>
<g id="a_node26"><a xlink:href="../../d9/d06/namespacemom__diag__mediator.html#a085f313357879a914af6450f2ab8ec79" target="_top" xlink:title="mom_diag_mediator::\lset_diag_mask">
<polygon fill="white" stroke="black" points="592,-186.5 592,-216.5 702,-216.5 702,-186.5 592,-186.5"/>
<text text-anchor="start" x="600" y="-204.5" font-family="Helvetica,sans-Serif" font-size="10.00">mom_diag_mediator::</text>
<text text-anchor="middle" x="647" y="-193.5" font-family="Helvetica,sans-Serif" font-size="10.00">set_diag_mask</text>
</a>
</g>
</g>
<!-- Node16&#45;&gt;Node29 -->
<g id="edge39" class="edge"><title>Node16&#45;&gt;Node29</title>
<path fill="none" stroke="midnightblue" d="M451.222,-312.401C471.676,-291.493 511.424,-253.786 552,-231.5 561.426,-226.323 571.883,-221.88 582.297,-218.124"/>
<polygon fill="midnightblue" stroke="midnightblue" points="583.49,-221.415 591.818,-214.866 581.224,-214.792 583.49,-221.415"/>
</g>
<!-- Node30 -->
<g id="node27" class="node"><title>Node30</title>
<g id="a_node27"><a xlink:href="../../d9/d06/namespacemom__diag__mediator.html#a5d1e1aa53cdd6bb335a6f841eded4f46" target="_top" xlink:title="mom_diag_mediator::\lset_diag_remap_axes">
<polygon fill="white" stroke="black" points="591,-137.5 591,-167.5 703,-167.5 703,-137.5 591,-137.5"/>
<text text-anchor="start" x="599" y="-155.5" font-family="Helvetica,sans-Serif" font-size="10.00">mom_diag_mediator::</text>
<text text-anchor="middle" x="647" y="-144.5" font-family="Helvetica,sans-Serif" font-size="10.00">set_diag_remap_axes</text>
</a>
</g>
</g>
<!-- Node16&#45;&gt;Node30 -->
<g id="edge40" class="edge"><title>Node16&#45;&gt;Node30</title>
<path fill="none" stroke="midnightblue" d="M444.116,-312.381C459.348,-281.73 498.152,-212.162 552,-176.5 560.726,-170.721 570.755,-166.333 580.939,-163.002"/>
<polygon fill="midnightblue" stroke="midnightblue" points="582.111,-166.306 590.714,-160.121 580.132,-159.591 582.111,-166.306"/>
</g>
<!-- Node18&#45;&gt;Node10 -->
<g id="edge24" class="edge"><title>Node18&#45;&gt;Node10</title>
<path fill="none" stroke="midnightblue" d="M875.943,-514.627C880.895,-517.235 885.711,-520.19 890,-523.5 933.253,-556.876 969.45,-610.482 988.201,-641.399"/>
<polygon fill="midnightblue" stroke="midnightblue" points="985.327,-643.414 993.449,-650.218 991.343,-639.834 985.327,-643.414"/>
</g>
<!-- Node19&#45;&gt;Node10 -->
<g id="edge26" class="edge"><title>Node19&#45;&gt;Node10</title>
<path fill="none" stroke="midnightblue" d="M842.831,-351.927C869.574,-404.612 957.42,-577.675 989.84,-641.543"/>
<polygon fill="midnightblue" stroke="midnightblue" points="986.731,-643.152 994.378,-650.485 992.973,-639.984 986.731,-643.152"/>
</g>
<!-- Node20&#45;&gt;Node18 -->
<g id="edge28" class="edge"><title>Node20&#45;&gt;Node18</title>
<path fill="none" stroke="midnightblue" d="M702.007,-516.494C722.907,-513.782 746.998,-510.657 768.775,-507.832"/>
<polygon fill="midnightblue" stroke="midnightblue" points="769.459,-511.273 778.926,-506.515 768.559,-504.331 769.459,-511.273"/>
</g>
<!-- Node21 -->
<g id="node18" class="node"><title>Node21</title>
<g id="a_node18"><a xlink:href="../../d9/d06/namespacemom__diag__mediator.html#a883862f004e30bbc5211f38635511ba0" target="_top" xlink:title="Initializes a diag_type (used after allocating new memory) ">
<polygon fill="white" stroke="black" points="779,-533.5 779,-563.5 889,-563.5 889,-533.5 779,-533.5"/>
<text text-anchor="start" x="787" y="-551.5" font-family="Helvetica,sans-Serif" font-size="10.00">mom_diag_mediator::</text>
<text text-anchor="middle" x="834" y="-540.5" font-family="Helvetica,sans-Serif" font-size="10.00">initialize_diag_type</text>
</a>
</g>
</g>
<!-- Node20&#45;&gt;Node21 -->
<g id="edge29" class="edge"><title>Node20&#45;&gt;Node21</title>
<path fill="none" stroke="midnightblue" d="M702.007,-530.798C722.907,-533.623 746.998,-536.878 768.775,-539.821"/>
<polygon fill="midnightblue" stroke="midnightblue" points="768.547,-543.322 778.926,-541.193 769.485,-536.385 768.547,-543.322"/>
</g>
<!-- Node27 -->
<g id="node24" class="node"><title>Node27</title>
<g id="a_node24"><a xlink:href="../../d9/d06/namespacemom__diag__mediator.html#ae002ca447acba252bf7bdc042e75a01e" target="_top" xlink:title="mom_diag_mediator::\ldescribe_option">
<polygon fill="white" stroke="black" points="779,-49.5 779,-79.5 889,-79.5 889,-49.5 779,-49.5"/>
<text text-anchor="start" x="787" y="-67.5" font-family="Helvetica,sans-Serif" font-size="10.00">mom_diag_mediator::</text>
<text text-anchor="middle" x="834" y="-56.5" font-family="Helvetica,sans-Serif" font-size="10.00">describe_option</text>
</a>
</g>
</g>
<!-- Node26&#45;&gt;Node27 -->
<g id="edge36" class="edge"><title>Node26&#45;&gt;Node27</title>
<path fill="none" stroke="midnightblue" d="M702.007,-64.5C722.907,-64.5 746.998,-64.5 768.775,-64.5"/>
<polygon fill="midnightblue" stroke="midnightblue" points="768.926,-68.0001 778.926,-64.5 768.926,-61.0001 768.926,-68.0001"/>
</g>
</g>
</svg>
