<?xml version="1.0" encoding="UTF-8" standalone="no"?>
<!DOCTYPE svg PUBLIC "-//W3C//DTD SVG 1.1//EN"
 "http://www.w3.org/Graphics/SVG/1.1/DTD/svg11.dtd">
<!-- Generated by graphviz version 2.38.0 (20140413.2041)
 -->
<!-- Title: mom_dynamics_unsplit_rk2::mom_dyn_unsplit_rk2_cs Pages: 1 -->
<svg width="359pt" height="780pt"
 viewBox="0.00 0.00 359.00 780.42" xmlns="http://www.w3.org/2000/svg" xmlns:xlink="http://www.w3.org/1999/xlink">
<g id="graph0" class="graph" transform="scale(1 1) rotate(0) translate(4 776.421)">
<title>mom_dynamics_unsplit_rk2::mom_dyn_unsplit_rk2_cs</title>
<polygon fill="white" stroke="none" points="-4,4 -4,-776.421 355,-776.421 355,4 -4,4"/>
<!-- Node1 -->
<g id="node1" class="node"><title>Node1</title>
<polygon fill="#bfbfbf" stroke="black" points="232,-423.921 232,-464.921 351,-464.921 351,-423.921 232,-423.921"/>
<text text-anchor="start" x="240" y="-452.921" font-family="Helvetica,sans-Serif" font-size="10.00">mom_dynamics_unsplit</text>
<text text-anchor="start" x="240" y="-441.921" font-family="Helvetica,sans-Serif" font-size="10.00">_rk2::mom_dyn_unsplit</text>
<text text-anchor="middle" x="291.5" y="-430.921" font-family="Helvetica,sans-Serif" font-size="10.00">_rk2_cs</text>
</g>
<!-- Node2 -->
<g id="node2" class="node"><title>Node2</title>
<polygon fill="white" stroke="#bfbfbf" points="0,-745.921 0,-764.921 105,-764.921 105,-745.921 0,-745.921"/>
<text text-anchor="middle" x="52.5" y="-752.921" font-family="Helvetica,sans-Serif" font-size="10.00">type(ale_cs), pointer</text>
</g>
<!-- Node2&#45;&gt;Node1 -->
<g id="edge1" class="edge"><title>Node2&#45;&gt;Node1</title>
<path fill="none" stroke="#9a32cd" stroke-dasharray="5,2" d="M115.119,-762.325C148.178,-762.591 187.461,-756.892 214,-733.421 254.92,-697.232 280.269,-525.158 287.987,-465.134"/>
<polygon fill="#9a32cd" stroke="#9a32cd" points="115.168,-758.825 105.08,-762.064 114.986,-765.823 115.168,-758.825"/>
<text text-anchor="middle" x="168.5" y="-764.421" font-family="Helvetica,sans-Serif" font-size="10.00"> ale_csp</text>
</g>
<!-- Node3 -->
<g id="node3" class="node"><title>Node3</title>
<polygon fill="white" stroke="#bfbfbf" points="30.5,-702.921 30.5,-721.921 74.5,-721.921 74.5,-702.921 30.5,-702.921"/>
<text text-anchor="middle" x="52.5" y="-709.921" font-family="Helvetica,sans-Serif" font-size="10.00">logical</text>
</g>
<!-- Node3&#45;&gt;Node1 -->
<g id="edge2" class="edge"><title>Node3&#45;&gt;Node1</title>
<path fill="none" stroke="#9a32cd" stroke-dasharray="5,2" d="M84.775,-711.384C125.889,-709.39 195.116,-703.658 214,-687.421 281.409,-629.462 290.125,-512.714 290.758,-465.225"/>
<polygon fill="#9a32cd" stroke="#9a32cd" points="84.5663,-707.889 74.7291,-711.824 84.8728,-714.883 84.5663,-707.889"/>
<text text-anchor="middle" x="168.5" y="-722.421" font-family="Helvetica,sans-Serif" font-size="10.00"> debug</text>
<text text-anchor="middle" x="168.5" y="-711.421" font-family="Helvetica,sans-Serif" font-size="10.00">module_is_initialized</text>
</g>
<!-- Node4 -->
<g id="node4" class="node"><title>Node4</title>
<polygon fill="white" stroke="#bfbfbf" points="8.5,-664.921 8.5,-683.921 96.5,-683.921 96.5,-664.921 8.5,-664.921"/>
<text text-anchor="middle" x="52.5" y="-671.921" font-family="Helvetica,sans-Serif" font-size="10.00">ocean_obc_type</text>
</g>
<!-- Node4&#45;&gt;Node1 -->
<g id="edge3" class="edge"><title>Node4&#45;&gt;Node1</title>
<path fill="none" stroke="#9a32cd" stroke-dasharray="5,2" d="M106.825,-675.141C141.068,-672.878 184.494,-664.568 214,-639.421 267.694,-593.658 283.941,-505.27 288.66,-465.141"/>
<polygon fill="#9a32cd" stroke="#9a32cd" points="106.329,-671.661 96.5182,-675.661 106.682,-678.652 106.329,-671.661"/>
<text text-anchor="middle" x="168.5" y="-675.421" font-family="Helvetica,sans-Serif" font-size="10.00"> obc</text>
</g>
<!-- Node5 -->
<g id="node5" class="node"><title>Node5</title>
<polygon fill="white" stroke="#bfbfbf" points="4,-615.421 4,-645.421 101,-645.421 101,-615.421 4,-615.421"/>
<text text-anchor="start" x="12" y="-633.421" font-family="Helvetica,sans-Serif" font-size="10.00">type(set_visc_cs),</text>
<text text-anchor="middle" x="52.5" y="-622.421" font-family="Helvetica,sans-Serif" font-size="10.00"> pointer</text>
</g>
<!-- Node5&#45;&gt;Node1 -->
<g id="edge4" class="edge"><title>Node5&#45;&gt;Node1</title>
<path fill="none" stroke="#9a32cd" stroke-dasharray="5,2" d="M111.177,-626.265C144.232,-621.31 184.815,-610.574 214,-587.421 254.255,-555.485 275.993,-496.408 285.158,-465.118"/>
<polygon fill="#9a32cd" stroke="#9a32cd" points="110.619,-622.809 101.181,-627.625 111.562,-629.745 110.619,-622.809"/>
<text text-anchor="middle" x="168.5" y="-627.421" font-family="Helvetica,sans-Serif" font-size="10.00"> set_visc_csp</text>
</g>
<!-- Node6 -->
<g id="node6" class="node"><title>Node6</title>
<polygon fill="white" stroke="#bfbfbf" points="5,-566.421 5,-596.421 100,-596.421 100,-566.421 5,-566.421"/>
<text text-anchor="start" x="13" y="-584.421" font-family="Helvetica,sans-Serif" font-size="10.00">type(vertvisc_cs),</text>
<text text-anchor="middle" x="52.5" y="-573.421" font-family="Helvetica,sans-Serif" font-size="10.00"> pointer</text>
</g>
<!-- Node6&#45;&gt;Node1 -->
<g id="edge5" class="edge"><title>Node6&#45;&gt;Node1</title>
<path fill="none" stroke="#9a32cd" stroke-dasharray="5,2" d="M110.436,-575.461C142.841,-569.974 183.017,-559.473 214,-539.421 243.155,-520.552 266.351,-486.871 279.257,-465.099"/>
<polygon fill="#9a32cd" stroke="#9a32cd" points="109.543,-572.059 100.209,-577.073 110.632,-578.973 109.543,-572.059"/>
<text text-anchor="middle" x="168.5" y="-575.421" font-family="Helvetica,sans-Serif" font-size="10.00"> vertvisc_csp</text>
</g>
<!-- Node7 -->
<g id="node7" class="node"><title>Node7</title>
<polygon fill="white" stroke="#bfbfbf" points="12.5,-527.921 12.5,-546.921 92.5,-546.921 92.5,-527.921 12.5,-527.921"/>
<text text-anchor="middle" x="52.5" y="-534.921" font-family="Helvetica,sans-Serif" font-size="10.00">cont_diag_ptrs</text>
</g>
<!-- Node7&#45;&gt;Node1 -->
<g id="edge6" class="edge"><title>Node7&#45;&gt;Node1</title>
<path fill="none" stroke="#9a32cd" stroke-dasharray="5,2" d="M102.768,-528.457C135.249,-521.533 178.235,-510.407 214,-494.421 231.527,-486.587 249.576,-474.988 263.738,-464.934"/>
<polygon fill="#9a32cd" stroke="#9a32cd" points="101.697,-525.104 92.6136,-530.558 103.115,-531.959 101.697,-525.104"/>
<text text-anchor="middle" x="168.5" y="-527.421" font-family="Helvetica,sans-Serif" font-size="10.00"> cdp</text>
</g>
<!-- Node8 -->
<g id="node8" class="node"><title>Node8</title>
<polygon fill="white" stroke="#bfbfbf" points="4,-478.421 4,-508.421 101,-508.421 101,-478.421 4,-478.421"/>
<text text-anchor="start" x="12" y="-496.421" font-family="Helvetica,sans-Serif" font-size="10.00">type(hor_visc_cs),</text>
<text text-anchor="middle" x="52.5" y="-485.421" font-family="Helvetica,sans-Serif" font-size="10.00"> pointer</text>
</g>
<!-- Node8&#45;&gt;Node1 -->
<g id="edge7" class="edge"><title>Node8&#45;&gt;Node1</title>
<path fill="none" stroke="#9a32cd" stroke-dasharray="5,2" d="M111.216,-481.488C147.876,-473.909 195.179,-464.128 231.991,-456.518"/>
<polygon fill="#9a32cd" stroke="#9a32cd" points="110.26,-478.112 101.175,-483.564 111.677,-484.967 110.26,-478.112"/>
<text text-anchor="middle" x="168.5" y="-482.421" font-family="Helvetica,sans-Serif" font-size="10.00"> hor_visc_csp</text>
</g>
<!-- Node9 -->
<g id="node9" class="node"><title>Node9</title>
<polygon fill="white" stroke="#bfbfbf" points="3,-429.421 3,-459.421 102,-459.421 102,-429.421 3,-429.421"/>
<text text-anchor="start" x="11" y="-447.421" font-family="Helvetica,sans-Serif" font-size="10.00">type(continuity_cs)</text>
<text text-anchor="middle" x="52.5" y="-436.421" font-family="Helvetica,sans-Serif" font-size="10.00">, pointer</text>
</g>
<!-- Node9&#45;&gt;Node1 -->
<g id="edge8" class="edge"><title>Node9&#45;&gt;Node1</title>
<path fill="none" stroke="#9a32cd" stroke-dasharray="5,2" d="M112.047,-444.421C148.583,-444.421 195.443,-444.421 231.975,-444.421"/>
<polygon fill="#9a32cd" stroke="#9a32cd" points="112.032,-440.921 102.032,-444.421 112.032,-447.921 112.032,-440.921"/>
<text text-anchor="middle" x="168.5" y="-447.421" font-family="Helvetica,sans-Serif" font-size="10.00"> continuity_csp</text>
</g>
<!-- Node10 -->
<g id="node10" class="node"><title>Node10</title>
<polygon fill="white" stroke="#bfbfbf" points="0.5,-380.421 0.5,-410.421 104.5,-410.421 104.5,-380.421 0.5,-380.421"/>
<text text-anchor="start" x="8.5" y="-398.421" font-family="Helvetica,sans-Serif" font-size="10.00">type(coriolisadv_cs)</text>
<text text-anchor="middle" x="52.5" y="-387.421" font-family="Helvetica,sans-Serif" font-size="10.00">, pointer</text>
</g>
<!-- Node10&#45;&gt;Node1 -->
<g id="edge9" class="edge"><title>Node10&#45;&gt;Node1</title>
<path fill="none" stroke="#9a32cd" stroke-dasharray="5,2" d="M114.563,-408.046C150.706,-415.518 196.253,-424.935 231.948,-432.315"/>
<polygon fill="#9a32cd" stroke="#9a32cd" points="115.135,-404.59 104.634,-405.993 113.718,-411.445 115.135,-404.59"/>
<text text-anchor="middle" x="168.5" y="-432.421" font-family="Helvetica,sans-Serif" font-size="10.00"> coriolisadv_csp</text>
</g>
<!-- Node11 -->
<g id="node11" class="node"><title>Node11</title>
<polygon fill="white" stroke="#bfbfbf" points="26,-341.921 26,-360.921 79,-360.921 79,-341.921 26,-341.921"/>
<text text-anchor="middle" x="52.5" y="-348.921" font-family="Helvetica,sans-Serif" font-size="10.00">diag_ctrl</text>
</g>
<!-- Node11&#45;&gt;Node1 -->
<g id="edge10" class="edge"><title>Node11&#45;&gt;Node1</title>
<path fill="none" stroke="#9a32cd" stroke-dasharray="5,2" d="M89.2083,-357.975C122.452,-364.822 172.911,-377.139 214,-395.421 231.148,-403.05 248.884,-414.175 262.956,-423.896"/>
<polygon fill="#9a32cd" stroke="#9a32cd" points="89.5457,-354.474 79.0534,-355.944 88.1725,-361.338 89.5457,-354.474"/>
<text text-anchor="middle" x="168.5" y="-398.421" font-family="Helvetica,sans-Serif" font-size="10.00"> diag</text>
</g>
<!-- Node12 -->
<g id="node12" class="node"><title>Node12</title>
<polygon fill="white" stroke="#bfbfbf" points="7,-292.421 7,-322.421 98,-322.421 98,-292.421 7,-292.421"/>
<text text-anchor="start" x="15" y="-310.421" font-family="Helvetica,sans-Serif" font-size="10.00">type(tidal_forcing</text>
<text text-anchor="middle" x="52.5" y="-299.421" font-family="Helvetica,sans-Serif" font-size="10.00">_cs), pointer</text>
</g>
<!-- Node12&#45;&gt;Node1 -->
<g id="edge11" class="edge"><title>Node12&#45;&gt;Node1</title>
<path fill="none" stroke="#9a32cd" stroke-dasharray="5,2" d="M107.906,-313.87C140.698,-319.729 182.139,-330.773 214,-351.421 242.598,-369.953 265.792,-402.589 278.87,-423.855"/>
<polygon fill="#9a32cd" stroke="#9a32cd" points="108.469,-310.416 98.0276,-312.213 107.311,-317.319 108.469,-310.416"/>
<text text-anchor="middle" x="168.5" y="-354.421" font-family="Helvetica,sans-Serif" font-size="10.00"> tides_csp</text>
</g>
<!-- Node13 -->
<g id="node13" class="node"><title>Node13</title>
<polygon fill="white" stroke="#bfbfbf" points="3.5,-243.421 3.5,-273.421 101.5,-273.421 101.5,-243.421 3.5,-243.421"/>
<text text-anchor="start" x="11.5" y="-261.421" font-family="Helvetica,sans-Serif" font-size="10.00">type(pressureforce</text>
<text text-anchor="middle" x="52.5" y="-250.421" font-family="Helvetica,sans-Serif" font-size="10.00">_cs), pointer</text>
</g>
<!-- Node13&#45;&gt;Node1 -->
<g id="edge12" class="edge"><title>Node13&#45;&gt;Node1</title>
<path fill="none" stroke="#9a32cd" stroke-dasharray="5,2" d="M111.989,-269.818C151.045,-278.352 198.064,-290.703 214,-303.421 253.618,-335.036 275.57,-392.964 284.95,-423.812"/>
<polygon fill="#9a32cd" stroke="#9a32cd" points="112.248,-266.294 101.737,-267.623 110.783,-273.139 112.248,-266.294"/>
<text text-anchor="middle" x="168.5" y="-306.421" font-family="Helvetica,sans-Serif" font-size="10.00"> pressureforce_csp</text>
</g>
<!-- Node14 -->
<g id="node14" class="node"><title>Node14</title>
<polygon fill="white" stroke="#bfbfbf" points="29.5,-189.921 29.5,-208.921 75.5,-208.921 75.5,-189.921 29.5,-189.921"/>
<text text-anchor="middle" x="52.5" y="-196.921" font-family="Helvetica,sans-Serif" font-size="10.00">integer</text>
</g>
<!-- Node14&#45;&gt;Node1 -->
<g id="edge13" class="edge"><title>Node14&#45;&gt;Node1</title>
<path fill="none" stroke="#9a32cd" stroke-dasharray="5,2" d="M85.2797,-190.268C120.43,-182.21 176.98,-175.617 214,-203.421 284.903,-256.672 291.543,-375.938 291.189,-423.883"/>
<polygon fill="#9a32cd" stroke="#9a32cd" points="84.4093,-186.878 75.5352,-192.666 86.0819,-193.675 84.4093,-186.878"/>
<text text-anchor="middle" x="168.5" y="-261.421" font-family="Helvetica,sans-Serif" font-size="10.00"> id_vh</text>
<text text-anchor="middle" x="168.5" y="-250.421" font-family="Helvetica,sans-Serif" font-size="10.00">id_cau</text>
<text text-anchor="middle" x="168.5" y="-239.421" font-family="Helvetica,sans-Serif" font-size="10.00">id_uh</text>
<text text-anchor="middle" x="168.5" y="-228.421" font-family="Helvetica,sans-Serif" font-size="10.00">id_cav</text>
<text text-anchor="middle" x="168.5" y="-217.421" font-family="Helvetica,sans-Serif" font-size="10.00">id_pfu</text>
<text text-anchor="middle" x="168.5" y="-206.421" font-family="Helvetica,sans-Serif" font-size="10.00">id_pfv</text>
</g>
<!-- Node15 -->
<g id="node15" class="node"><title>Node15</title>
<polygon fill="white" stroke="#bfbfbf" points="36.5,-45.9208 36.5,-64.9208 68.5,-64.9208 68.5,-45.9208 36.5,-45.9208"/>
<text text-anchor="middle" x="52.5" y="-52.9208" font-family="Helvetica,sans-Serif" font-size="10.00">real</text>
</g>
<!-- Node15&#45;&gt;Node1 -->
<g id="edge14" class="edge"><title>Node15&#45;&gt;Node1</title>
<path fill="none" stroke="#9a32cd" stroke-dasharray="5,2" d="M78.7455,-47.1577C113.488,-37.5212 176.04,-26.6469 214,-58.4208 270.906,-106.053 286.321,-350.829 289.684,-423.84"/>
<polygon fill="#9a32cd" stroke="#9a32cd" points="77.5139,-43.8719 68.9141,-50.0601 79.4959,-50.5855 77.5139,-43.8719"/>
<text text-anchor="middle" x="168.5" y="-171.421" font-family="Helvetica,sans-Serif" font-size="10.00"> cau</text>
<text text-anchor="middle" x="168.5" y="-160.421" font-family="Helvetica,sans-Serif" font-size="10.00">cav</text>
<text text-anchor="middle" x="168.5" y="-149.421" font-family="Helvetica,sans-Serif" font-size="10.00">begw</text>
<text text-anchor="middle" x="168.5" y="-138.421" font-family="Helvetica,sans-Serif" font-size="10.00">be</text>
<text text-anchor="middle" x="168.5" y="-127.421" font-family="Helvetica,sans-Serif" font-size="10.00">pfu</text>
<text text-anchor="middle" x="168.5" y="-116.421" font-family="Helvetica,sans-Serif" font-size="10.00">pfv</text>
<text text-anchor="middle" x="168.5" y="-105.421" font-family="Helvetica,sans-Serif" font-size="10.00">diffu</text>
<text text-anchor="middle" x="168.5" y="-94.4208" font-family="Helvetica,sans-Serif" font-size="10.00">diffv</text>
<text text-anchor="middle" x="168.5" y="-83.4208" font-family="Helvetica,sans-Serif" font-size="10.00">taux_bot</text>
<text text-anchor="middle" x="168.5" y="-72.4208" font-family="Helvetica,sans-Serif" font-size="10.00">tauy_bot</text>
<text text-anchor="middle" x="168.5" y="-61.4208" font-family="Helvetica,sans-Serif" font-size="10.00">...</text>
</g>
<!-- Node16 -->
<g id="node16" class="node"><title>Node16</title>
<polygon fill="white" stroke="#bfbfbf" points="10,-7.92078 10,-26.9208 95,-26.9208 95,-7.92078 10,-7.92078"/>
<text text-anchor="middle" x="52.5" y="-14.9208" font-family="Helvetica,sans-Serif" font-size="10.00">accel_diag_ptrs</text>
</g>
<!-- Node16&#45;&gt;Node1 -->
<g id="edge15" class="edge"><title>Node16&#45;&gt;Node1</title>
<path fill="none" stroke="#9a32cd" stroke-dasharray="5,2" d="M95.233,-5.59493C131.036,1.79761 181.805,5.32446 214,-22.4208 275.761,-75.6463 287.838,-346.637 290.038,-423.859"/>
<polygon fill="#9a32cd" stroke="#9a32cd" points="94.0899,-2.26439 85.1,-7.87078 95.6239,-9.09425 94.0899,-2.26439"/>
<text text-anchor="middle" x="168.5" y="-25.4208" font-family="Helvetica,sans-Serif" font-size="10.00"> adp</text>
</g>
</g>
</svg>
