<?xml version="1.0" encoding="UTF-8" standalone="no"?>
<!DOCTYPE svg PUBLIC "-//W3C//DTD SVG 1.1//EN"
 "http://www.w3.org/Graphics/SVG/1.1/DTD/svg11.dtd">
<!-- Generated by graphviz version 2.38.0 (20140413.2041)
 -->
<!-- Title: mom_tracer_flow_control::call_tracer_column_fns Pages: 1 -->
<svg width="512pt" height="101pt"
 viewBox="0.00 0.00 512.00 101.03" xmlns="http://www.w3.org/2000/svg" xmlns:xlink="http://www.w3.org/1999/xlink">
<g id="graph0" class="graph" transform="scale(1 1) rotate(0) translate(4 97.0261)">
<title>mom_tracer_flow_control::call_tracer_column_fns</title>
<polygon fill="white" stroke="none" points="-4,4 -4,-97.0261 508,-97.0261 508,4 -4,4"/>
<!-- Node3 -->
<g id="node1" class="node"><title>Node3</title>
<polygon fill="#bfbfbf" stroke="black" points="0,-13.5261 0,-43.5261 126,-43.5261 126,-13.5261 0,-13.5261"/>
<text text-anchor="start" x="8" y="-31.5261" font-family="Helvetica,sans-Serif" font-size="10.00">mom_tracer_flow_control</text>
<text text-anchor="middle" x="63" y="-20.5261" font-family="Helvetica,sans-Serif" font-size="10.00">::call_tracer_column_fns</text>
</g>
<!-- Node4 -->
<g id="node2" class="node"><title>Node4</title>
<g id="a_node2"><a xlink:href="../../d8/df3/namespacemom__diabatic__driver.html#a1524abcabaf6ccb0be7da294b0968984" target="_top" xlink:title="Routine called for adiabatic physics. ">
<polygon fill="white" stroke="black" points="162,-62.5261 162,-92.5261 269,-92.5261 269,-62.5261 162,-62.5261"/>
<text text-anchor="start" x="170" y="-80.5261" font-family="Helvetica,sans-Serif" font-size="10.00">mom_diabatic_driver</text>
<text text-anchor="middle" x="215.5" y="-69.5261" font-family="Helvetica,sans-Serif" font-size="10.00">::adiabatic</text>
</a>
</g>
</g>
<!-- Node3&#45;&gt;Node4 -->
<g id="edge1" class="edge"><title>Node3&#45;&gt;Node4</title>
<path fill="none" stroke="midnightblue" d="M120.081,-46.7851C135.955,-51.9533 153.048,-57.5185 168.27,-62.4745"/>
<polygon fill="midnightblue" stroke="midnightblue" points="120.975,-43.3954 110.383,-43.6275 118.808,-50.0515 120.975,-43.3954"/>
</g>
<!-- Node7 -->
<g id="node5" class="node"><title>Node7</title>
<g id="a_node5"><a xlink:href="../../d8/df3/namespacemom__diabatic__driver.html#a61e57d3902367aa46aa3c2d949ee900f" target="_top" xlink:title="This subroutine imposes the diapycnal mass fluxes and the accompanying diapycnal advection of momentu...">
<polygon fill="white" stroke="black" points="162,-13.5261 162,-43.5261 269,-43.5261 269,-13.5261 162,-13.5261"/>
<text text-anchor="start" x="170" y="-31.5261" font-family="Helvetica,sans-Serif" font-size="10.00">mom_diabatic_driver</text>
<text text-anchor="middle" x="215.5" y="-20.5261" font-family="Helvetica,sans-Serif" font-size="10.00">::diabatic</text>
</a>
</g>
</g>
<!-- Node3&#45;&gt;Node7 -->
<g id="edge4" class="edge"><title>Node3&#45;&gt;Node7</title>
<path fill="none" stroke="midnightblue" d="M136.137,-28.5261C144.745,-28.5261 153.408,-28.5261 161.674,-28.5261"/>
<polygon fill="midnightblue" stroke="midnightblue" points="136.083,-25.0262 126.083,-28.5261 136.083,-32.0262 136.083,-25.0262"/>
</g>
<!-- Node8 -->
<g id="node6" class="node"><title>Node8</title>
<g id="a_node6"><a xlink:href="../../da/d01/namespacemom.html#ada859fe9e7e841ea281dae323cc4f6ac" target="_top" xlink:title="step_tracers is the main driver for running tracers offline in MOM6. This has been primarily develope...">
<polygon fill="white" stroke="black" points="305,-2.02605 305,-21.0261 403,-21.0261 403,-2.02605 305,-2.02605"/>
<text text-anchor="middle" x="354" y="-9.02605" font-family="Helvetica,sans-Serif" font-size="10.00">mom::step_tracers</text>
</a>
</g>
</g>
<!-- Node3&#45;&gt;Node8 -->
<g id="edge5" class="edge"><title>Node3&#45;&gt;Node8</title>
<path fill="none" stroke="midnightblue" d="M122.942,-10.9612C135.707,-7.87014 149.215,-5.13106 162,-3.52605 209.185,2.39761 221.498,-1.26916 269,-3.52605 280.56,-4.07528 292.985,-5.04738 304.639,-6.12904"/>
<polygon fill="midnightblue" stroke="midnightblue" points="121.729,-7.65765 112.891,-13.5008 123.444,-14.4444 121.729,-7.65765"/>
</g>
<!-- Node5 -->
<g id="node3" class="node"><title>Node5</title>
<g id="a_node3"><a xlink:href="../../da/d01/namespacemom.html#a4c8332b095c6d295084089aa6b3b678a" target="_top" xlink:title="This subroutine orchestrates the time stepping of MOM. The adiabatic dynamics are stepped by calls to...">
<polygon fill="white" stroke="black" points="309,-54.0261 309,-73.0261 399,-73.0261 399,-54.0261 309,-54.0261"/>
<text text-anchor="middle" x="354" y="-61.0261" font-family="Helvetica,sans-Serif" font-size="10.00">mom::step_mom</text>
</a>
</g>
</g>
<!-- Node4&#45;&gt;Node5 -->
<g id="edge2" class="edge"><title>Node4&#45;&gt;Node5</title>
<path fill="none" stroke="midnightblue" d="M279.495,-71.0651C289.387,-70.0505 299.427,-69.0207 308.778,-68.0616"/>
<polygon fill="midnightblue" stroke="midnightblue" points="278.865,-67.6112 269.274,-72.1133 279.579,-74.5746 278.865,-67.6112"/>
</g>
<!-- Node6 -->
<g id="node4" class="node"><title>Node6</title>
<g id="a_node4"><a xlink:href="../../de/dbc/MOM__driver_8F90.html#a08fffeb2d8e8acbf9ed4609be6d258c6" target="_top" xlink:title="mom_main">
<polygon fill="white" stroke="black" points="439,-28.0261 439,-47.0261 504,-47.0261 504,-28.0261 439,-28.0261"/>
<text text-anchor="middle" x="471.5" y="-35.0261" font-family="Helvetica,sans-Serif" font-size="10.00">mom_main</text>
</a>
</g>
</g>
<!-- Node5&#45;&gt;Node6 -->
<g id="edge3" class="edge"><title>Node5&#45;&gt;Node6</title>
<path fill="none" stroke="midnightblue" d="M407.11,-51.7957C417.863,-49.3752 428.879,-46.8954 438.648,-44.6963"/>
<polygon fill="midnightblue" stroke="midnightblue" points="406.339,-48.3815 397.352,-53.9922 407.877,-55.2106 406.339,-48.3815"/>
</g>
<!-- Node8&#45;&gt;Node6 -->
<g id="edge6" class="edge"><title>Node8&#45;&gt;Node6</title>
<path fill="none" stroke="midnightblue" d="M407.11,-23.2564C417.863,-25.6769 428.879,-28.1567 438.648,-30.3558"/>
<polygon fill="midnightblue" stroke="midnightblue" points="407.877,-19.8415 397.352,-21.0599 406.339,-26.6706 407.877,-19.8415"/>
</g>
</g>
</svg>
