<?xml version="1.0" encoding="UTF-8" standalone="no"?>
<!DOCTYPE svg PUBLIC "-//W3C//DTD SVG 1.1//EN"
 "http://www.w3.org/Graphics/SVG/1.1/DTD/svg11.dtd">
<!-- Generated by graphviz version 2.38.0 (20140413.2041)
 -->
<!-- Title: mom_tracer_flow_control::call_tracer_stocks Pages: 1 -->
<!--zoomable 321 -->
<svg id="main" version="1.1" xmlns="http://www.w3.org/2000/svg" xmlns:xlink="http://www.w3.org/1999/xlink" xml:space="preserve" onload="init(evt)">
<style type="text/css"><![CDATA[
.edge:hover path { stroke: red; }
.edge:hover polygon { stroke: red; fill: red; }
]]></style>
<script type="text/javascript"><![CDATA[
var edges = document.getElementsByTagName('g');
if (edges && edges.length) {
  for (var i=0;i<edges.length;i++) {
    if (edges[i].id.substr(0,4)=='edge') {
      edges[i].setAttribute('class','edge');
    }
  }
}
]]></script>
        <defs>
                <circle id="rim" cx="0" cy="0" r="7"/>
                <circle id="rim2" cx="0" cy="0" r="3.5"/>
                <g id="zoomPlus">
                        <use xlink:href="#rim" fill="#404040">
                                <set attributeName="fill" to="#808080" begin="zoomplus.mouseover" end="zoomplus.mouseout"/>
                        </use>
                        <path d="M-4,0h8M0,-4v8" fill="none" stroke="white" stroke-width="1.5" pointer-events="none"/>
                </g>
                <g id="zoomMin">
                        <use xlink:href="#rim" fill="#404040">
                                <set attributeName="fill" to="#808080" begin="zoomminus.mouseover" end="zoomminus.mouseout"/>
                        </use>
                        <path d="M-4,0h8" fill="none" stroke="white" stroke-width="1.5" pointer-events="none"/>
                </g>
                <g id="dirArrow">
                        <path fill="none" stroke="white" stroke-width="1.5" d="M0,-3.0v7 M-2.5,-0.5L0,-3.0L2.5,-0.5"/>
                </g>
               <g id="resetDef">
                       <use xlink:href="#rim2" fill="#404040">
                               <set attributeName="fill" to="#808080" begin="reset.mouseover" end="reset.mouseout"/>
                       </use>
               </g>
        </defs>

<script type="text/javascript">
var viewWidth = 807;
var viewHeight = 321;
var sectionId = 'dynsection-4';
</script>
<script xlink:href="../../svgpan.js"/>
<svg id="graph" class="graph">
<g id="viewport">
<title>mom_tracer_flow_control::call_tracer_stocks</title>
<polygon fill="white" stroke="none" points="-4,4 -4,-316.656 803,-316.656 803,4 -4,4"/>
<!-- Node17 -->
<g id="node1" class="node"><title>Node17</title>
<polygon fill="#bfbfbf" stroke="black" points="0,-136.358 0,-166.358 107,-166.358 107,-136.358 0,-136.358"/>
<text text-anchor="start" x="8" y="-154.358" font-family="Helvetica,sans-Serif" font-size="10.00">mom_tracer_flow_control</text>
<text text-anchor="middle" x="53.5" y="-143.358" font-family="Helvetica,sans-Serif" font-size="10.00">::call_tracer_stocks</text>
</g>
<!-- Node18 -->
<g id="node2" class="node"><title>Node18</title>
<g id="a_node2"><a xlink:href="../../d8/dc2/namespaceadvection__test__tracer.html#a1e3884b030df6c5107380b4ddd2fbce2" target="_top" xlink:title="advection_test_tracer\l::advection_test_stock">
<polygon fill="white" stroke="black" points="150,-259.358 150,-289.358 245,-289.358 245,-259.358 150,-259.358"/>
<text text-anchor="start" x="158" y="-277.358" font-family="Helvetica,sans-Serif" font-size="10.00">advection_test_tracer</text>
<text text-anchor="middle" x="197.5" y="-266.358" font-family="Helvetica,sans-Serif" font-size="10.00">::advection_test_stock</text>
</a>
</g>
</g>
<!-- Node17&#45;&gt;Node18 -->
<g id="edge1" class="edge"><title>Node17&#45;&gt;Node18</title>
<path fill="none" stroke="midnightblue" d="M64.9166,-166.582C80.0304,-187.732 109.879,-226.131 143,-250.358 144.836,-251.701 146.759,-252.992 148.74,-254.23"/>
<polygon fill="midnightblue" stroke="midnightblue" points="147.28,-257.426 157.705,-259.318 150.735,-251.338 147.28,-257.426"/>
</g>
<!-- Node21 -->
<g id="node5" class="node"><title>Node21</title>
<g id="a_node5"><a xlink:href="../../d0/de6/namespacemom__error__handler.html#a460cfb79a06c29fc249952c2a3710d67" target="_top" xlink:title="mom_error_handler::\lmom_error">
<polygon fill="white" stroke="black" points="577,-137.358 577,-167.358 670,-167.358 670,-137.358 577,-137.358"/>
<text text-anchor="start" x="585" y="-155.358" font-family="Helvetica,sans-Serif" font-size="10.00">mom_error_handler::</text>
<text text-anchor="middle" x="623.5" y="-144.358" font-family="Helvetica,sans-Serif" font-size="10.00">mom_error</text>
</a>
</g>
</g>
<!-- Node17&#45;&gt;Node21 -->
<g id="edge9" class="edge"><title>Node17&#45;&gt;Node21</title>
<path fill="none" stroke="midnightblue" d="M58.2609,-166.681C66.9459,-198.304 91.6994,-270.261 143,-299.358 185.139,-323.258 204.417,-308.452 252,-299.358 380.597,-274.779 521.478,-206.24 586.249,-172.143"/>
<polygon fill="midnightblue" stroke="midnightblue" points="588.049,-175.15 595.242,-167.371 584.768,-168.966 588.049,-175.15"/>
</g>
<!-- Node23 -->
<g id="node7" class="node"><title>Node23</title>
<g id="a_node7"><a xlink:href="../../de/def/namespaceregional__dyes.html#a0641ff9c663bcfacdd597a79f63d15e0" target="_top" xlink:title="regional_dyes::dye\l_stock">
<polygon fill="white" stroke="black" points="156,-210.358 156,-240.358 239,-240.358 239,-210.358 156,-210.358"/>
<text text-anchor="start" x="164" y="-228.358" font-family="Helvetica,sans-Serif" font-size="10.00">regional_dyes::dye</text>
<text text-anchor="middle" x="197.5" y="-217.358" font-family="Helvetica,sans-Serif" font-size="10.00">_stock</text>
</a>
</g>
</g>
<!-- Node17&#45;&gt;Node23 -->
<g id="edge6" class="edge"><title>Node17&#45;&gt;Node23</title>
<path fill="none" stroke="midnightblue" d="M79.7215,-166.432C97.2462,-176.701 121.265,-190.372 143,-201.358 146.092,-202.92 149.307,-204.492 152.558,-206.042"/>
<polygon fill="midnightblue" stroke="midnightblue" points="151.202,-209.271 161.744,-210.329 154.162,-202.928 151.202,-209.271"/>
</g>
<!-- Node24 -->
<g id="node8" class="node"><title>Node24</title>
<g id="a_node8"><a xlink:href="../../d6/dcd/namespaceideal__age__example.html#a2300d82e30802a3127f4a63277d37776" target="_top" xlink:title="ideal_age_example::\lideal_age_stock">
<polygon fill="white" stroke="black" points="152.5,-161.358 152.5,-191.358 242.5,-191.358 242.5,-161.358 152.5,-161.358"/>
<text text-anchor="start" x="160.5" y="-179.358" font-family="Helvetica,sans-Serif" font-size="10.00">ideal_age_example::</text>
<text text-anchor="middle" x="197.5" y="-168.358" font-family="Helvetica,sans-Serif" font-size="10.00">ideal_age_stock</text>
</a>
</g>
</g>
<!-- Node17&#45;&gt;Node24 -->
<g id="edge7" class="edge"><title>Node17&#45;&gt;Node24</title>
<path fill="none" stroke="midnightblue" d="M107.376,-160.667C118.841,-162.685 130.983,-164.823 142.491,-166.849"/>
<polygon fill="midnightblue" stroke="midnightblue" points="141.954,-170.308 152.409,-168.595 143.168,-163.414 141.954,-170.308"/>
</g>
<!-- Node25 -->
<g id="node9" class="node"><title>Node25</title>
<g id="a_node9"><a xlink:href="../../d6/dd2/namespacemom__ocmip2__cfc.html#ac3c9967ff09b37934eb5ef51535e7ee3" target="_top" xlink:title="mom_ocmip2_cfc::ocmip2\l_cfc_stock">
<polygon fill="white" stroke="black" points="143,-112.358 143,-142.358 252,-142.358 252,-112.358 143,-112.358"/>
<text text-anchor="start" x="151" y="-130.358" font-family="Helvetica,sans-Serif" font-size="10.00">mom_ocmip2_cfc::ocmip2</text>
<text text-anchor="middle" x="197.5" y="-119.358" font-family="Helvetica,sans-Serif" font-size="10.00">_cfc_stock</text>
</a>
</g>
</g>
<!-- Node17&#45;&gt;Node25 -->
<g id="edge10" class="edge"><title>Node17&#45;&gt;Node25</title>
<path fill="none" stroke="midnightblue" d="M107.376,-142.421C115.65,-141.022 124.277,-139.564 132.763,-138.13"/>
<polygon fill="midnightblue" stroke="midnightblue" points="133.356,-141.58 142.632,-136.462 132.189,-134.678 133.356,-141.58"/>
</g>
<!-- Node26 -->
<g id="node10" class="node"><title>Node26</title>
<g id="a_node10"><a xlink:href="../../de/d98/namespaceoil__tracer.html#ac8964b16549dba8fc850e4af15af8029" target="_top" xlink:title="oil_tracer::oil_stock">
<polygon fill="white" stroke="black" points="155.5,-73.8577 155.5,-92.8577 239.5,-92.8577 239.5,-73.8577 155.5,-73.8577"/>
<text text-anchor="middle" x="197.5" y="-80.8577" font-family="Helvetica,sans-Serif" font-size="10.00">oil_tracer::oil_stock</text>
</a>
</g>
</g>
<!-- Node17&#45;&gt;Node26 -->
<g id="edge12" class="edge"><title>Node17&#45;&gt;Node26</title>
<path fill="none" stroke="midnightblue" d="M79.9639,-136.318C97.394,-126.332 121.207,-113.283 143,-103.358 148.133,-101.02 153.625,-98.7342 159.065,-96.5921"/>
<polygon fill="midnightblue" stroke="midnightblue" points="160.614,-99.7472 168.709,-92.9119 158.118,-93.2072 160.614,-99.7472"/>
</g>
<!-- Node27 -->
<g id="node11" class="node"><title>Node27</title>
<g id="a_node11"><a xlink:href="../../df/d4e/namespacepseudo__salt__tracer.html#a282f3c84b7e7ccdaa6d9344342705a6e" target="_top" xlink:title="pseudo_salt_tracer\l::pseudo_salt_stock">
<polygon fill="white" stroke="black" points="154.5,-24.3577 154.5,-54.3577 240.5,-54.3577 240.5,-24.3577 154.5,-24.3577"/>
<text text-anchor="start" x="162.5" y="-42.3577" font-family="Helvetica,sans-Serif" font-size="10.00">pseudo_salt_tracer</text>
<text text-anchor="middle" x="197.5" y="-31.3577" font-family="Helvetica,sans-Serif" font-size="10.00">::pseudo_salt_stock</text>
</a>
</g>
</g>
<!-- Node17&#45;&gt;Node27 -->
<g id="edge13" class="edge"><title>Node17&#45;&gt;Node27</title>
<path fill="none" stroke="midnightblue" d="M67.0008,-136.231C83.0745,-117.503 112.562,-85.4957 143,-64.3577 145.529,-62.6015 148.201,-60.9133 150.947,-59.3013"/>
<polygon fill="midnightblue" stroke="midnightblue" points="152.787,-62.2845 159.889,-54.4223 149.434,-56.1397 152.787,-62.2845"/>
</g>
<!-- Node28 -->
<g id="node12" class="node"><title>Node28</title>
<g id="a_node12"><a xlink:href="../../d1/d99/namespacemom__tracer__flow__control.html#ad43ea30fa52fcb930db39037f5d7e6b9" target="_top" xlink:title="mom_tracer_flow_control\l::store_stocks">
<polygon fill="white" stroke="black" points="288,-25.3577 288,-55.3577 395,-55.3577 395,-25.3577 288,-25.3577"/>
<text text-anchor="start" x="296" y="-43.3577" font-family="Helvetica,sans-Serif" font-size="10.00">mom_tracer_flow_control</text>
<text text-anchor="middle" x="341.5" y="-32.3577" font-family="Helvetica,sans-Serif" font-size="10.00">::store_stocks</text>
</a>
</g>
</g>
<!-- Node17&#45;&gt;Node28 -->
<g id="edge15" class="edge"><title>Node17&#45;&gt;Node28</title>
<path fill="none" stroke="midnightblue" d="M58.9199,-136.227C68.5411,-106.431 94.5072,-40.7628 143,-14.3577 192.171,12.4168 258.134,-5.06967 299.987,-21.5447"/>
<polygon fill="midnightblue" stroke="midnightblue" points="298.728,-24.8113 309.309,-25.3549 301.377,-18.3316 298.728,-24.8113"/>
</g>
<!-- Node19 -->
<g id="node3" class="node"><title>Node19</title>
<g id="a_node3"><a xlink:href="../../d5/d89/namespacemom__io.html#a23e82d1d89d9bb1c9bdf802ce80d4508" target="_top" xlink:title="This routine queries vardesc. ">
<polygon fill="white" stroke="black" points="290.5,-142.858 290.5,-161.858 392.5,-161.858 392.5,-142.858 290.5,-142.858"/>
<text text-anchor="middle" x="341.5" y="-149.858" font-family="Helvetica,sans-Serif" font-size="10.00">mom_io::query_vardesc</text>
</a>
</g>
</g>
<!-- Node18&#45;&gt;Node19 -->
<g id="edge2" class="edge"><title>Node18&#45;&gt;Node19</title>
<path fill="none" stroke="midnightblue" d="M237.28,-259.297C242.421,-256.638 247.473,-253.652 252,-250.358 283.63,-227.345 312.411,-191.474 328.09,-170.108"/>
<polygon fill="midnightblue" stroke="midnightblue" points="330.982,-172.081 333.977,-161.919 325.298,-167.995 330.982,-172.081"/>
</g>
<!-- Node20 -->
<g id="node4" class="node"><title>Node20</title>
<g id="a_node4"><a xlink:href="../../d5/d89/namespacemom__io.html#ac4bc408e8b38dbd669842753f26ebf88" target="_top" xlink:title="Copies a string. ">
<polygon fill="white" stroke="black" points="431,-142.858 431,-161.858 541,-161.858 541,-142.858 431,-142.858"/>
<text text-anchor="middle" x="486" y="-149.858" font-family="Helvetica,sans-Serif" font-size="10.00">mom_io::safe_string_copy</text>
</a>
</g>
</g>
<!-- Node19&#45;&gt;Node20 -->
<g id="edge3" class="edge"><title>Node19&#45;&gt;Node20</title>
<path fill="none" stroke="midnightblue" d="M392.74,-152.358C401.802,-152.358 411.363,-152.358 420.759,-152.358"/>
<polygon fill="midnightblue" stroke="midnightblue" points="420.859,-155.858 430.859,-152.358 420.859,-148.858 420.859,-155.858"/>
</g>
<!-- Node20&#45;&gt;Node21 -->
<g id="edge4" class="edge"><title>Node20&#45;&gt;Node21</title>
<path fill="none" stroke="midnightblue" d="M541.332,-152.358C549.707,-152.358 558.367,-152.358 566.772,-152.358"/>
<polygon fill="midnightblue" stroke="midnightblue" points="566.862,-155.858 576.862,-152.358 566.862,-148.858 566.862,-155.858"/>
</g>
<!-- Node22 -->
<g id="node6" class="node"><title>Node22</title>
<g id="a_node6"><a xlink:href="../../d0/de6/namespacemom__error__handler.html#ad5f00a53059c72fe2332d1436c80ca71" target="_top" xlink:title="mom_error_handler::\lis_root_pe">
<polygon fill="white" stroke="black" points="706,-137.358 706,-167.358 799,-167.358 799,-137.358 706,-137.358"/>
<text text-anchor="start" x="714" y="-155.358" font-family="Helvetica,sans-Serif" font-size="10.00">mom_error_handler::</text>
<text text-anchor="middle" x="752.5" y="-144.358" font-family="Helvetica,sans-Serif" font-size="10.00">is_root_pe</text>
</a>
</g>
</g>
<!-- Node21&#45;&gt;Node22 -->
<g id="edge5" class="edge"><title>Node21&#45;&gt;Node22</title>
<path fill="none" stroke="midnightblue" d="M670.35,-152.358C678.533,-152.358 687.141,-152.358 695.568,-152.358"/>
<polygon fill="midnightblue" stroke="midnightblue" points="695.717,-155.858 705.717,-152.358 695.717,-148.858 695.717,-155.858"/>
</g>
<!-- Node24&#45;&gt;Node19 -->
<g id="edge8" class="edge"><title>Node24&#45;&gt;Node19</title>
<path fill="none" stroke="midnightblue" d="M242.651,-168.895C254.6,-166.876 267.739,-164.655 280.403,-162.515"/>
<polygon fill="midnightblue" stroke="midnightblue" points="281.15,-165.938 290.427,-160.821 279.983,-159.036 281.15,-165.938"/>
</g>
<!-- Node25&#45;&gt;Node19 -->
<g id="edge11" class="edge"><title>Node25&#45;&gt;Node19</title>
<path fill="none" stroke="midnightblue" d="M252.184,-136.809C261.412,-138.434 271.056,-140.132 280.439,-141.784"/>
<polygon fill="midnightblue" stroke="midnightblue" points="280.031,-145.265 290.486,-143.552 281.244,-138.371 280.031,-145.265"/>
</g>
<!-- Node27&#45;&gt;Node19 -->
<g id="edge14" class="edge"><title>Node27&#45;&gt;Node19</title>
<path fill="none" stroke="midnightblue" d="M235.129,-54.3967C240.965,-57.3735 246.789,-60.7171 252,-64.3577 281.419,-84.9127 309.817,-115.707 326.2,-134.887"/>
<polygon fill="midnightblue" stroke="midnightblue" points="323.733,-137.392 332.842,-142.803 329.096,-132.893 323.733,-137.392"/>
</g>
<!-- Node28&#45;&gt;Node21 -->
<g id="edge16" class="edge"><title>Node28&#45;&gt;Node21</title>
<path fill="none" stroke="midnightblue" d="M380.262,-55.4625C430.816,-75.684 520.477,-111.548 575.391,-133.514"/>
<polygon fill="midnightblue" stroke="midnightblue" points="574.305,-136.849 584.89,-137.314 576.905,-130.35 574.305,-136.849"/>
</g>
</g>
</svg>
        <g id="navigator" transform="translate(0 0)" fill="#404254">
                <rect fill="#f2f5e9" fill-opacity="0.5" stroke="#606060" stroke-width=".5" x="0" y="0" width="60" height="60"/>
                <use id="zoomplus" xlink:href="#zoomPlus" x="17" y="9" onmousedown="handleZoom(evt,'in')"/>
                <use id="zoomminus" xlink:href="#zoomMin" x="42" y="9" onmousedown="handleZoom(evt,'out')"/>
                <use id="reset" xlink:href="#resetDef" x="30" y="36" onmousedown="handleReset()"/>
                <g id="arrowUp" xlink:href="#dirArrow" transform="translate(30 24)" onmousedown="handlePan(0,-1)">
                  <use xlink:href="#rim" fill="#404040">
                        <set attributeName="fill" to="#808080" begin="arrowUp.mouseover" end="arrowUp.mouseout"/>
                  </use>
                  <path fill="none" stroke="white" stroke-width="1.5" d="M0,-3.0v7 M-2.5,-0.5L0,-3.0L2.5,-0.5"/>
                </g>
                <g id="arrowRight" xlink:href="#dirArrow" transform="rotate(90) translate(36 -43)" onmousedown="handlePan(1,0)">
                  <use xlink:href="#rim" fill="#404040">
                        <set attributeName="fill" to="#808080" begin="arrowRight.mouseover" end="arrowRight.mouseout"/>
                  </use>
                  <path fill="none" stroke="white" stroke-width="1.5" d="M0,-3.0v7 M-2.5,-0.5L0,-3.0L2.5,-0.5"/>
                </g>
                <g id="arrowDown" xlink:href="#dirArrow" transform="rotate(180) translate(-30 -48)" onmousedown="handlePan(0,1)">
                  <use xlink:href="#rim" fill="#404040">
                        <set attributeName="fill" to="#808080" begin="arrowDown.mouseover" end="arrowDown.mouseout"/>
                  </use>
                  <path fill="none" stroke="white" stroke-width="1.5" d="M0,-3.0v7 M-2.5,-0.5L0,-3.0L2.5,-0.5"/>
                </g>
                <g id="arrowLeft" xlink:href="#dirArrow" transform="rotate(270) translate(-36 17)" onmousedown="handlePan(-1,0)">
                  <use xlink:href="#rim" fill="#404040">
                        <set attributeName="fill" to="#808080" begin="arrowLeft.mouseover" end="arrowLeft.mouseout"/>
                  </use>
                  <path fill="none" stroke="white" stroke-width="1.5" d="M0,-3.0v7 M-2.5,-0.5L0,-3.0L2.5,-0.5"/>
                </g>
        </g>
        <svg viewBox="0 0 15 15" width="100%" height="30px" preserveAspectRatio="xMaxYMin meet">
         <g id="arrow_out" transform="scale(0.3 0.3)">
          <a xlink:href="namespacemom__tracer__flow__control_afd8526344e928c8c9505c921bf37447f_cgraph_org.svg" target="_base">
           <rect id="button" ry="5" rx="5" y="6" x="6" height="38" width="38"
                fill="#f2f5e9" fill-opacity="0.5" stroke="#606060" stroke-width="1.0"/>
           <path id="arrow"
             d="M 11.500037,31.436501 C 11.940474,20.09759 22.043105,11.32322 32.158766,21.979434 L 37.068811,17.246167 C 37.068811,17.246167 37.088388,32 37.088388,32 L 22.160133,31.978069 C 22.160133,31.978069 26.997745,27.140456 26.997745,27.140456 C 18.528582,18.264221 13.291696,25.230495 11.500037,31.436501 z"
             style="fill:#404040;"/>
          </a>
         </g>
        </svg>
</svg>
