<?xml version="1.0" encoding="UTF-8" standalone="no"?>
<!DOCTYPE svg PUBLIC "-//W3C//DTD SVG 1.1//EN"
 "http://www.w3.org/Graphics/SVG/1.1/DTD/svg11.dtd">
<!-- Generated by graphviz version 2.38.0 (20140413.2041)
 -->
<!-- Title: ideal_age_example::ideal_age_tracer_column_physics Pages: 1 -->
<svg width="283pt" height="88pt"
 viewBox="0.00 0.00 283.00 88.00" xmlns="http://www.w3.org/2000/svg" xmlns:xlink="http://www.w3.org/1999/xlink">
<g id="graph0" class="graph" transform="scale(1 1) rotate(0) translate(4 84)">
<title>ideal_age_example::ideal_age_tracer_column_physics</title>
<polygon fill="white" stroke="none" points="-4,4 -4,-84 279,-84 279,4 -4,4"/>
<!-- Node12 -->
<g id="node1" class="node"><title>Node12</title>
<polygon fill="#bfbfbf" stroke="black" points="0,-19 0,-60 107,-60 107,-19 0,-19"/>
<text text-anchor="start" x="8" y="-48" font-family="Helvetica,sans-Serif" font-size="10.00">ideal_age_example::</text>
<text text-anchor="start" x="8" y="-37" font-family="Helvetica,sans-Serif" font-size="10.00">ideal_age_tracer_column</text>
<text text-anchor="middle" x="53.5" y="-26" font-family="Helvetica,sans-Serif" font-size="10.00">_physics</text>
</g>
<!-- Node13 -->
<g id="node2" class="node"><title>Node13</title>
<g id="a_node2"><a xlink:href="../../df/dc8/namespacemom__tracer__diabatic.html#a1fd213439071bcb31be7de49e7a72039" target="_top" xlink:title="mom_tracer_diabatic\l::applytracerboundaryfluxesinout">
<polygon fill="white" stroke="black" points="143,-49.5 143,-79.5 275,-79.5 275,-49.5 143,-49.5"/>
<text text-anchor="start" x="151" y="-67.5" font-family="Helvetica,sans-Serif" font-size="10.00">mom_tracer_diabatic</text>
<text text-anchor="middle" x="209" y="-56.5" font-family="Helvetica,sans-Serif" font-size="10.00">::applytracerboundaryfluxesinout</text>
</a>
</g>
</g>
<!-- Node12&#45;&gt;Node13 -->
<g id="edge1" class="edge"><title>Node12&#45;&gt;Node13</title>
<path fill="none" stroke="midnightblue" d="M107.326,-48.1036C115.554,-49.4436 124.189,-50.85 132.799,-52.2522"/>
<polygon fill="midnightblue" stroke="midnightblue" points="132.435,-55.739 142.867,-53.8921 133.56,-48.83 132.435,-55.739"/>
</g>
<!-- Node14 -->
<g id="node3" class="node"><title>Node14</title>
<g id="a_node3"><a xlink:href="../../df/dc8/namespacemom__tracer__diabatic.html#ac5d57973547cc4ed3a89808d3910943e" target="_top" xlink:title="This subroutine solves a tridiagonal equation for the final tracer concentrations after the dual&#45;entr...">
<polygon fill="white" stroke="black" points="163,-0.5 163,-30.5 255,-30.5 255,-0.5 163,-0.5"/>
<text text-anchor="start" x="171" y="-18.5" font-family="Helvetica,sans-Serif" font-size="10.00">mom_tracer_diabatic</text>
<text text-anchor="middle" x="209" y="-7.5" font-family="Helvetica,sans-Serif" font-size="10.00">::tracer_vertdiff</text>
</a>
</g>
</g>
<!-- Node12&#45;&gt;Node14 -->
<g id="edge2" class="edge"><title>Node12&#45;&gt;Node14</title>
<path fill="none" stroke="midnightblue" d="M107.326,-31.2406C121.982,-28.949 137.932,-26.4553 152.724,-24.1426"/>
<polygon fill="midnightblue" stroke="midnightblue" points="153.41,-27.5779 162.749,-22.575 152.329,-20.6619 153.41,-27.5779"/>
</g>
</g>
</svg>
