<?xml version="1.0" encoding="UTF-8" standalone="no"?>
<!DOCTYPE svg PUBLIC "-//W3C//DTD SVG 1.1//EN"
 "http://www.w3.org/Graphics/SVG/1.1/DTD/svg11.dtd">
<!-- Generated by graphviz version 2.38.0 (20140413.2041)
 -->
<!-- Title: mom_spatial_means::global_area_mean Pages: 1 -->
<svg width="396pt" height="127pt"
 viewBox="0.00 0.00 396.00 126.50" xmlns="http://www.w3.org/2000/svg" xmlns:xlink="http://www.w3.org/1999/xlink">
<g id="graph0" class="graph" transform="scale(1 1) rotate(0) translate(4 122.5)">
<title>mom_spatial_means::global_area_mean</title>
<polygon fill="white" stroke="none" points="-4,4 -4,-122.5 392,-122.5 392,4 -4,4"/>
<!-- Node8 -->
<g id="node1" class="node"><title>Node8</title>
<polygon fill="#bfbfbf" stroke="black" points="0,-39 0,-69 113,-69 113,-39 0,-39"/>
<text text-anchor="start" x="8" y="-57" font-family="Helvetica,sans-Serif" font-size="10.00">mom_spatial_means::</text>
<text text-anchor="middle" x="56.5" y="-46" font-family="Helvetica,sans-Serif" font-size="10.00">global_area_mean</text>
</g>
<!-- Node9 -->
<g id="node2" class="node"><title>Node9</title>
<g id="a_node2"><a xlink:href="../../d9/d8b/namespacemom__diagnostics.html#abb6644248c28ab2e952361bfec436063" target="_top" xlink:title="mom_diagnostics::calculate\l_diagnostic_fields">
<polygon fill="white" stroke="black" points="149,-88 149,-118 287,-118 287,-88 149,-88"/>
<text text-anchor="start" x="157" y="-106" font-family="Helvetica,sans-Serif" font-size="10.00">mom_diagnostics::calculate</text>
<text text-anchor="middle" x="218" y="-95" font-family="Helvetica,sans-Serif" font-size="10.00">_diagnostic_fields</text>
</a>
</g>
</g>
<!-- Node8&#45;&gt;Node9 -->
<g id="edge1" class="edge"><title>Node8&#45;&gt;Node9</title>
<path fill="none" stroke="midnightblue" d="M116.459,-72.1129C133.416,-77.3222 151.721,-82.9457 168.006,-87.9484"/>
<polygon fill="midnightblue" stroke="midnightblue" points="117.244,-68.6925 106.657,-69.1014 115.188,-75.3838 117.244,-68.6925"/>
</g>
<!-- Node10 -->
<g id="node3" class="node"><title>Node10</title>
<g id="a_node3"><a xlink:href="../../dd/dc3/namespacemom__forcing__type.html#aa685fdcd5863af264335aa60b5b4c210" target="_top" xlink:title="Offer buoyancy forcing fields for diagnostics for those fields registered as part of register_forcing...">
<polygon fill="white" stroke="black" points="152,-39 152,-69 284,-69 284,-39 152,-39"/>
<text text-anchor="start" x="160" y="-57" font-family="Helvetica,sans-Serif" font-size="10.00">mom_forcing_type::forcing</text>
<text text-anchor="middle" x="218" y="-46" font-family="Helvetica,sans-Serif" font-size="10.00">_diagnostics</text>
</a>
</g>
</g>
<!-- Node8&#45;&gt;Node10 -->
<g id="edge2" class="edge"><title>Node8&#45;&gt;Node10</title>
<path fill="none" stroke="midnightblue" d="M123.393,-54C132.828,-54 142.53,-54 151.949,-54"/>
<polygon fill="midnightblue" stroke="midnightblue" points="123.285,-50.5001 113.285,-54 123.285,-57.5001 123.285,-50.5001"/>
</g>
<!-- Node12 -->
<g id="node5" class="node"><title>Node12</title>
<g id="a_node5"><a xlink:href="../../da/d01/namespacemom.html#a4c8332b095c6d295084089aa6b3b678a" target="_top" xlink:title="This subroutine orchestrates the time stepping of MOM. The adiabatic dynamics are stepped by calls to...">
<polygon fill="white" stroke="black" points="173,-0.5 173,-19.5 263,-19.5 263,-0.5 173,-0.5"/>
<text text-anchor="middle" x="218" y="-7.5" font-family="Helvetica,sans-Serif" font-size="10.00">mom::step_mom</text>
</a>
</g>
</g>
<!-- Node8&#45;&gt;Node12 -->
<g id="edge4" class="edge"><title>Node8&#45;&gt;Node12</title>
<path fill="none" stroke="midnightblue" d="M121.651,-36.3031C142.362,-30.5899 164.533,-24.4738 182.279,-19.5783"/>
<polygon fill="midnightblue" stroke="midnightblue" points="120.654,-32.9474 111.945,-38.9808 122.515,-39.6954 120.654,-32.9474"/>
</g>
<!-- Node11 -->
<g id="node4" class="node"><title>Node11</title>
<g id="a_node4"><a xlink:href="../../de/dbc/MOM__driver_8F90.html#a08fffeb2d8e8acbf9ed4609be6d258c6" target="_top" xlink:title="mom_main">
<polygon fill="white" stroke="black" points="323,-22.5 323,-41.5 388,-41.5 388,-22.5 323,-22.5"/>
<text text-anchor="middle" x="355.5" y="-29.5" font-family="Helvetica,sans-Serif" font-size="10.00">mom_main</text>
</a>
</g>
</g>
<!-- Node10&#45;&gt;Node11 -->
<g id="edge3" class="edge"><title>Node10&#45;&gt;Node11</title>
<path fill="none" stroke="midnightblue" d="M294.409,-41.7565C304.407,-40.1332 314.18,-38.5465 322.841,-37.1402"/>
<polygon fill="midnightblue" stroke="midnightblue" points="293.678,-38.3292 284.369,-43.3866 294.8,-45.2387 293.678,-38.3292"/>
</g>
<!-- Node12&#45;&gt;Node11 -->
<g id="edge5" class="edge"><title>Node12&#45;&gt;Node11</title>
<path fill="none" stroke="midnightblue" d="M273.618,-18.8678C290.373,-21.5883 308.243,-24.4896 322.913,-26.8715"/>
<polygon fill="midnightblue" stroke="midnightblue" points="273.799,-15.3516 263.368,-17.2036 272.678,-22.2611 273.799,-15.3516"/>
</g>
</g>
</svg>
