<?xml version="1.0" encoding="UTF-8" standalone="no"?>
<!DOCTYPE svg PUBLIC "-//W3C//DTD SVG 1.1//EN"
 "http://www.w3.org/Graphics/SVG/1.1/DTD/svg11.dtd">
<!-- Generated by graphviz version 2.38.0 (20140413.2041)
 -->
<!-- Title: shelf_triangular_festuff::ice_shelf_cs Pages: 1 -->
<svg width="336pt" height="688pt"
 viewBox="0.00 0.00 336.00 688.20" xmlns="http://www.w3.org/2000/svg" xmlns:xlink="http://www.w3.org/1999/xlink">
<g id="graph0" class="graph" transform="scale(1 1) rotate(0) translate(4 684.197)">
<title>shelf_triangular_festuff::ice_shelf_cs</title>
<polygon fill="white" stroke="none" points="-4,4 -4,-684.197 332,-684.197 332,4 -4,4"/>
<!-- Node1 -->
<g id="node1" class="node"><title>Node1</title>
<polygon fill="#bfbfbf" stroke="black" points="230,-410.197 230,-440.197 328,-440.197 328,-410.197 230,-410.197"/>
<text text-anchor="start" x="238" y="-428.197" font-family="Helvetica,sans-Serif" font-size="10.00">shelf_triangular_festuff</text>
<text text-anchor="middle" x="279" y="-417.197" font-family="Helvetica,sans-Serif" font-size="10.00">::ice_shelf_cs</text>
</g>
<!-- Node2 -->
<g id="node2" class="node"><title>Node2</title>
<polygon fill="white" stroke="#bfbfbf" points="30.5,-601.697 30.5,-620.697 68.5,-620.697 68.5,-601.697 30.5,-601.697"/>
<text text-anchor="middle" x="49.5" y="-608.697" font-family="Helvetica,sans-Serif" font-size="10.00">logical</text>
</g>
<!-- Node2&#45;&gt;Node1 -->
<g id="edge1" class="edge"><title>Node2&#45;&gt;Node1</title>
<path fill="none" stroke="#9a32cd" stroke-dasharray="5,2" d="M78.768,-614.421C113.832,-616.832 173.659,-615.547 212,-585.197 258.649,-548.27 272.619,-472.751 276.555,-440.428"/>
<polygon fill="#9a32cd" stroke="#9a32cd" points="78.9891,-610.927 68.7322,-613.581 78.4058,-617.903 78.9891,-610.927"/>
<text text-anchor="middle" x="164.5" y="-672.197" font-family="Helvetica,sans-Serif" font-size="10.00"> override_shelf_movement</text>
<text text-anchor="middle" x="164.5" y="-661.197" font-family="Helvetica,sans-Serif" font-size="10.00">shelf_mass_is_dynamic</text>
<text text-anchor="middle" x="164.5" y="-650.197" font-family="Helvetica,sans-Serif" font-size="10.00">threeeq</text>
<text text-anchor="middle" x="164.5" y="-639.197" font-family="Helvetica,sans-Serif" font-size="10.00">write_output_to_file</text>
<text text-anchor="middle" x="164.5" y="-628.197" font-family="Helvetica,sans-Serif" font-size="10.00">isthermo</text>
<text text-anchor="middle" x="164.5" y="-617.197" font-family="Helvetica,sans-Serif" font-size="10.00">isshelf</text>
</g>
<!-- Node3 -->
<g id="node3" class="node"><title>Node3</title>
<polygon fill="white" stroke="#bfbfbf" points="24,-563.697 24,-582.697 75,-582.697 75,-563.697 24,-563.697"/>
<text text-anchor="middle" x="49.5" y="-570.697" font-family="Helvetica,sans-Serif" font-size="10.00">time_type</text>
</g>
<!-- Node3&#45;&gt;Node1 -->
<g id="edge2" class="edge"><title>Node3&#45;&gt;Node1</title>
<path fill="none" stroke="#9a32cd" stroke-dasharray="5,2" d="M85.3626,-573.519C120.473,-572.164 174.65,-565.303 212,-538.197 246.2,-513.376 265.544,-464.971 273.566,-440.355"/>
<polygon fill="#9a32cd" stroke="#9a32cd" points="85.0259,-570.026 75.1181,-573.779 85.2038,-577.024 85.0259,-570.026"/>
<text text-anchor="middle" x="164.5" y="-573.197" font-family="Helvetica,sans-Serif" font-size="10.00"> time</text>
</g>
<!-- Node4 -->
<g id="node4" class="node"><title>Node4</title>
<polygon fill="white" stroke="#bfbfbf" points="0,-525.697 0,-544.697 99,-544.697 99,-525.697 0,-525.697"/>
<text text-anchor="middle" x="49.5" y="-532.697" font-family="Helvetica,sans-Serif" font-size="10.00">type(eos_type), pointer</text>
</g>
<!-- Node4&#45;&gt;Node1 -->
<g id="edge3" class="edge"><title>Node4&#45;&gt;Node1</title>
<path fill="none" stroke="#9a32cd" stroke-dasharray="5,2" d="M109.372,-526.221C141.286,-519.576 180.519,-508.421 212,-490.197 234.269,-477.305 254.483,-455.138 266.512,-440.325"/>
<polygon fill="#9a32cd" stroke="#9a32cd" points="108.414,-522.843 99.287,-528.223 109.777,-529.709 108.414,-522.843"/>
<text text-anchor="middle" x="164.5" y="-526.197" font-family="Helvetica,sans-Serif" font-size="10.00"> eqn_of_state</text>
</g>
<!-- Node5 -->
<g id="node5" class="node"><title>Node5</title>
<polygon fill="white" stroke="#bfbfbf" points="2,-476.197 2,-506.197 97,-506.197 97,-476.197 2,-476.197"/>
<text text-anchor="start" x="10" y="-494.197" font-family="Helvetica,sans-Serif" font-size="10.00">type(mom_restart_cs)</text>
<text text-anchor="middle" x="49.5" y="-483.197" font-family="Helvetica,sans-Serif" font-size="10.00">, pointer</text>
</g>
<!-- Node5&#45;&gt;Node1 -->
<g id="edge4" class="edge"><title>Node5&#45;&gt;Node1</title>
<path fill="none" stroke="#9a32cd" stroke-dasharray="5,2" d="M107.087,-479.116C138.309,-471.968 177.611,-462.176 212,-451.197 221.972,-448.013 232.598,-444.077 242.345,-440.24"/>
<polygon fill="#9a32cd" stroke="#9a32cd" points="106.231,-475.721 97.25,-481.342 107.776,-482.549 106.231,-475.721"/>
<text text-anchor="middle" x="164.5" y="-478.197" font-family="Helvetica,sans-Serif" font-size="10.00"> restart_csp</text>
</g>
<!-- Node6 -->
<g id="node6" class="node"><title>Node6</title>
<polygon fill="white" stroke="#bfbfbf" points="6.5,-427.197 6.5,-457.197 92.5,-457.197 92.5,-427.197 6.5,-427.197"/>
<text text-anchor="start" x="14.5" y="-445.197" font-family="Helvetica,sans-Serif" font-size="10.00">type(user_ice_shelf</text>
<text text-anchor="middle" x="49.5" y="-434.197" font-family="Helvetica,sans-Serif" font-size="10.00">_cs), pointer</text>
</g>
<!-- Node6&#45;&gt;Node1 -->
<g id="edge5" class="edge"><title>Node6&#45;&gt;Node1</title>
<path fill="none" stroke="#9a32cd" stroke-dasharray="5,2" d="M103.154,-438.262C141.319,-435.41 192.531,-431.584 229.66,-428.809"/>
<polygon fill="#9a32cd" stroke="#9a32cd" points="102.469,-434.804 92.7578,-439.039 102.991,-441.784 102.469,-434.804"/>
<text text-anchor="middle" x="164.5" y="-439.197" font-family="Helvetica,sans-Serif" font-size="10.00"> user_cs</text>
</g>
<!-- Node7 -->
<g id="node7" class="node"><title>Node7</title>
<polygon fill="white" stroke="#bfbfbf" points="26,-388.697 26,-407.697 73,-407.697 73,-388.697 26,-388.697"/>
<text text-anchor="middle" x="49.5" y="-395.697" font-family="Helvetica,sans-Serif" font-size="10.00">diag_ctrl</text>
</g>
<!-- Node7&#45;&gt;Node1 -->
<g id="edge6" class="edge"><title>Node7&#45;&gt;Node1</title>
<path fill="none" stroke="#9a32cd" stroke-dasharray="5,2" d="M83.3237,-401.211C115.991,-404.314 167.531,-409.491 212,-415.197 217.747,-415.934 223.767,-416.765 229.734,-417.625"/>
<polygon fill="#9a32cd" stroke="#9a32cd" points="83.2902,-397.692 73.0063,-400.24 82.6345,-404.661 83.2902,-397.692"/>
<text text-anchor="middle" x="164.5" y="-418.197" font-family="Helvetica,sans-Serif" font-size="10.00"> diag</text>
</g>
<!-- Node8 -->
<g id="node8" class="node"><title>Node8</title>
<polygon fill="white" stroke="#bfbfbf" points="7,-350.697 7,-369.697 92,-369.697 92,-350.697 7,-350.697"/>
<text text-anchor="middle" x="49.5" y="-357.697" font-family="Helvetica,sans-Serif" font-size="10.00">character(len=128)</text>
</g>
<!-- Node8&#45;&gt;Node1 -->
<g id="edge7" class="edge"><title>Node8&#45;&gt;Node1</title>
<path fill="none" stroke="#9a32cd" stroke-dasharray="5,2" d="M102.36,-365.21C134.58,-369.368 176.48,-376.692 212,-389.197 226.897,-394.441 242.456,-402.771 254.724,-410.097"/>
<polygon fill="#9a32cd" stroke="#9a32cd" points="102.612,-361.715 92.2595,-363.969 101.758,-368.662 102.612,-361.715"/>
<text text-anchor="middle" x="164.5" y="-392.197" font-family="Helvetica,sans-Serif" font-size="10.00"> restart_output_dir</text>
</g>
<!-- Node9 -->
<g id="node9" class="node"><title>Node9</title>
<polygon fill="white" stroke="#bfbfbf" points="29,-220.697 29,-239.697 70,-239.697 70,-220.697 29,-220.697"/>
<text text-anchor="middle" x="49.5" y="-227.697" font-family="Helvetica,sans-Serif" font-size="10.00">integer</text>
</g>
<!-- Node9&#45;&gt;Node1 -->
<g id="edge8" class="edge"><title>Node9&#45;&gt;Node1</title>
<path fill="none" stroke="#9a32cd" stroke-dasharray="5,2" d="M80.3902,-223.739C115.603,-217.956 174.098,-214.287 212,-243.197 266.116,-284.474 275.915,-374.328 277.648,-410.081"/>
<polygon fill="#9a32cd" stroke="#9a32cd" points="79.4771,-220.348 70.2579,-225.568 80.7207,-227.236 79.4771,-220.348"/>
<text text-anchor="middle" x="164.5" y="-356.197" font-family="Helvetica,sans-Serif" font-size="10.00"> id_bathym</text>
<text text-anchor="middle" x="164.5" y="-345.197" font-family="Helvetica,sans-Serif" font-size="10.00">id_exch_vel_s</text>
<text text-anchor="middle" x="164.5" y="-334.197" font-family="Helvetica,sans-Serif" font-size="10.00">id_melt</text>
<text text-anchor="middle" x="164.5" y="-323.197" font-family="Helvetica,sans-Serif" font-size="10.00">id_exch_vel_t</text>
<text text-anchor="middle" x="164.5" y="-312.197" font-family="Helvetica,sans-Serif" font-size="10.00">cg_max_iterations</text>
<text text-anchor="middle" x="164.5" y="-301.197" font-family="Helvetica,sans-Serif" font-size="10.00">id_tfl_shelf</text>
<text text-anchor="middle" x="164.5" y="-290.197" font-family="Helvetica,sans-Serif" font-size="10.00">id_col_thick</text>
<text text-anchor="middle" x="164.5" y="-279.197" font-family="Helvetica,sans-Serif" font-size="10.00">id_h_shelf</text>
<text text-anchor="middle" x="164.5" y="-268.197" font-family="Helvetica,sans-Serif" font-size="10.00">id_u_shelf</text>
<text text-anchor="middle" x="164.5" y="-257.197" font-family="Helvetica,sans-Serif" font-size="10.00">id_surf_elev</text>
<text text-anchor="middle" x="164.5" y="-246.197" font-family="Helvetica,sans-Serif" font-size="10.00">...</text>
</g>
<!-- Node10 -->
<g id="node10" class="node"><title>Node10</title>
<polygon fill="white" stroke="#bfbfbf" points="34.5,-43.6969 34.5,-62.6969 64.5,-62.6969 64.5,-43.6969 34.5,-43.6969"/>
<text text-anchor="middle" x="49.5" y="-50.6969" font-family="Helvetica,sans-Serif" font-size="10.00">real</text>
</g>
<!-- Node10&#45;&gt;Node1 -->
<g id="edge9" class="edge"><title>Node10&#45;&gt;Node1</title>
<path fill="none" stroke="#9a32cd" stroke-dasharray="5,2" d="M74.5316,-46.3078C109.413,-37.9183 174.036,-28.6776 212,-62.1969 265.298,-109.256 275.79,-347.678 277.637,-410.179"/>
<polygon fill="#9a32cd" stroke="#9a32cd" points="73.5337,-42.9505 64.7238,-48.8358 75.2809,-49.729 73.5337,-42.9505"/>
<text text-anchor="middle" x="164.5" y="-208.197" font-family="Helvetica,sans-Serif" font-size="10.00"> input_thickness</text>
<text text-anchor="middle" x="164.5" y="-197.197" font-family="Helvetica,sans-Serif" font-size="10.00">gamma_t</text>
<text text-anchor="start" x="126.5" y="-186.197" font-family="Helvetica,sans-Serif" font-size="10.00">taub_beta_eff_upper</text>
<text text-anchor="middle" x="164.5" y="-175.197" font-family="Helvetica,sans-Serif" font-size="10.00">_tri</text>
<text text-anchor="middle" x="164.5" y="-164.197" font-family="Helvetica,sans-Serif" font-size="10.00">v_face_mask</text>
<text text-anchor="middle" x="164.5" y="-153.197" font-family="Helvetica,sans-Serif" font-size="10.00">h_shelf</text>
<text text-anchor="middle" x="164.5" y="-142.197" font-family="Helvetica,sans-Serif" font-size="10.00">salt_flux</text>
<text text-anchor="start" x="126.5" y="-131.197" font-family="Helvetica,sans-Serif" font-size="10.00">ice_visc_lower</text>
<text text-anchor="middle" x="164.5" y="-120.197" font-family="Helvetica,sans-Serif" font-size="10.00">_tri</text>
<text text-anchor="middle" x="164.5" y="-109.197" font-family="Helvetica,sans-Serif" font-size="10.00">a_glen_isothermal</text>
<text text-anchor="middle" x="164.5" y="-98.1969" font-family="Helvetica,sans-Serif" font-size="10.00">temp_ice</text>
<text text-anchor="start" x="126.5" y="-87.1969" font-family="Helvetica,sans-Serif" font-size="10.00">thresh_float_col</text>
<text text-anchor="middle" x="164.5" y="-76.1969" font-family="Helvetica,sans-Serif" font-size="10.00">_depth</text>
<text text-anchor="middle" x="164.5" y="-65.1969" font-family="Helvetica,sans-Serif" font-size="10.00">...</text>
</g>
<!-- Node11 -->
<g id="node11" class="node"><title>Node11</title>
<polygon fill="white" stroke="#bfbfbf" points="11.5,-5.69686 11.5,-24.6969 87.5,-24.6969 87.5,-5.69686 11.5,-5.69686"/>
<text text-anchor="middle" x="49.5" y="-12.6969" font-family="Helvetica,sans-Serif" font-size="10.00">ocean_grid_type</text>
</g>
<!-- Node11&#45;&gt;Node1 -->
<g id="edge10" class="edge"><title>Node11&#45;&gt;Node1</title>
<path fill="none" stroke="#9a32cd" stroke-dasharray="5,2" d="M96.3718,-3.75677C132.298,2.2495 181.192,3.46647 212,-24.1969 270.665,-76.8742 277.201,-343.219 277.915,-409.996"/>
<polygon fill="#9a32cd" stroke="#9a32cd" points="95.3366,-0.38893 86.1416,-5.65228 96.6119,-7.27178 95.3366,-0.38893"/>
<text text-anchor="middle" x="164.5" y="-27.1969" font-family="Helvetica,sans-Serif" font-size="10.00"> grid</text>
</g>
</g>
</svg>
