<?xml version="1.0" encoding="UTF-8" standalone="no"?>
<!DOCTYPE svg PUBLIC "-//W3C//DTD SVG 1.1//EN"
 "http://www.w3.org/Graphics/SVG/1.1/DTD/svg11.dtd">
<!-- Generated by graphviz version 2.38.0 (20140413.2041)
 -->
<!-- Title: mom_coord_initialization::mom_initialize_coord Pages: 1 -->
<!--zoomable 645 -->
<svg id="main" version="1.1" xmlns="http://www.w3.org/2000/svg" xmlns:xlink="http://www.w3.org/1999/xlink" xml:space="preserve" onload="init(evt)">
<style type="text/css"><![CDATA[
.edge:hover path { stroke: red; }
.edge:hover polygon { stroke: red; fill: red; }
]]></style>
<script type="text/javascript"><![CDATA[
var edges = document.getElementsByTagName('g');
if (edges && edges.length) {
  for (var i=0;i<edges.length;i++) {
    if (edges[i].id.substr(0,4)=='edge') {
      edges[i].setAttribute('class','edge');
    }
  }
}
]]></script>
        <defs>
                <circle id="rim" cx="0" cy="0" r="7"/>
                <circle id="rim2" cx="0" cy="0" r="3.5"/>
                <g id="zoomPlus">
                        <use xlink:href="#rim" fill="#404040">
                                <set attributeName="fill" to="#808080" begin="zoomplus.mouseover" end="zoomplus.mouseout"/>
                        </use>
                        <path d="M-4,0h8M0,-4v8" fill="none" stroke="white" stroke-width="1.5" pointer-events="none"/>
                </g>
                <g id="zoomMin">
                        <use xlink:href="#rim" fill="#404040">
                                <set attributeName="fill" to="#808080" begin="zoomminus.mouseover" end="zoomminus.mouseout"/>
                        </use>
                        <path d="M-4,0h8" fill="none" stroke="white" stroke-width="1.5" pointer-events="none"/>
                </g>
                <g id="dirArrow">
                        <path fill="none" stroke="white" stroke-width="1.5" d="M0,-3.0v7 M-2.5,-0.5L0,-3.0L2.5,-0.5"/>
                </g>
               <g id="resetDef">
                       <use xlink:href="#rim2" fill="#404040">
                               <set attributeName="fill" to="#808080" begin="reset.mouseover" end="reset.mouseout"/>
                       </use>
               </g>
        </defs>

<script type="text/javascript">
var viewWidth = 969;
var viewHeight = 645;
var sectionId = 'dynsection-0';
</script>
<script xlink:href="../../svgpan.js"/>
<svg id="graph" class="graph">
<g id="viewport">
<title>mom_coord_initialization::mom_initialize_coord</title>
<polygon fill="white" stroke="none" points="-4,4 -4,-640.5 965,-640.5 965,4 -4,4"/>
<!-- Node0 -->
<g id="node1" class="node"><title>Node0</title>
<polygon fill="#bfbfbf" stroke="black" points="0,-298 0,-328 104,-328 104,-298 0,-298"/>
<text text-anchor="start" x="8" y="-316" font-family="Helvetica,sans-Serif" font-size="10.00">mom_coord_initialization</text>
<text text-anchor="middle" x="52" y="-305" font-family="Helvetica,sans-Serif" font-size="10.00">::mom_initialize_coord</text>
</g>
<!-- Node1 -->
<g id="node2" class="node"><title>Node1</title>
<g id="a_node2"><a xlink:href="../../d8/d30/namespacebfb__initialization.html#a681cb69f1a6fe142e5baa6aee5f57060" target="_top" xlink:title="bfb_initialization\l::bfb_set_coord">
<polygon fill="white" stroke="black" points="177.5,-606 177.5,-636 249.5,-636 249.5,-606 177.5,-606"/>
<text text-anchor="start" x="185.5" y="-624" font-family="Helvetica,sans-Serif" font-size="10.00">bfb_initialization</text>
<text text-anchor="middle" x="213.5" y="-613" font-family="Helvetica,sans-Serif" font-size="10.00">::bfb_set_coord</text>
</a>
</g>
</g>
<!-- Node0&#45;&gt;Node1 -->
<g id="edge1" class="edge"><title>Node0&#45;&gt;Node1</title>
<path fill="none" stroke="midnightblue" d="M53.4285,-328.126C55.5196,-373.81 67.809,-512.077 140,-591 147.532,-599.234 157.667,-605.27 167.969,-609.672"/>
<polygon fill="midnightblue" stroke="midnightblue" points="166.816,-612.978 177.407,-613.272 169.31,-606.438 166.816,-612.978"/>
</g>
<!-- Node3 -->
<g id="node4" class="node"><title>Node3</title>
<g id="a_node4"><a xlink:href="../../d9/def/namespacemom__file__parser.html#a17c0ef1bb1912f02faa0aaa1e0f64210" target="_top" xlink:title="mom_file_parser::log\l_version">
<polygon fill="white" stroke="black" points="458.5,-562 458.5,-592 550.5,-592 550.5,-562 458.5,-562"/>
<text text-anchor="start" x="466.5" y="-580" font-family="Helvetica,sans-Serif" font-size="10.00">mom_file_parser::log</text>
<text text-anchor="middle" x="504.5" y="-569" font-family="Helvetica,sans-Serif" font-size="10.00">_version</text>
</a>
</g>
</g>
<!-- Node0&#45;&gt;Node3 -->
<g id="edge9" class="edge"><title>Node0&#45;&gt;Node3</title>
<path fill="none" stroke="midnightblue" d="M53.4208,-328.233C55.5055,-370.942 67.8098,-492.281 140,-547 187.085,-582.69 358.678,-582.289 448.238,-579.449"/>
<polygon fill="midnightblue" stroke="midnightblue" points="448.602,-582.939 458.478,-579.102 448.365,-575.943 448.602,-582.939"/>
</g>
<!-- Node5 -->
<g id="node6" class="node"><title>Node5</title>
<g id="a_node6"><a xlink:href="../../d0/de6/namespacemom__error__handler.html#a9cda07a87815f0e5594066162b4345c3" target="_top" xlink:title="Writes a message about entering a subroutine if call tree reporting is active. ">
<polygon fill="white" stroke="black" points="323,-347 323,-377 416,-377 416,-347 323,-347"/>
<text text-anchor="start" x="331" y="-365" font-family="Helvetica,sans-Serif" font-size="10.00">mom_error_handler::</text>
<text text-anchor="middle" x="369.5" y="-354" font-family="Helvetica,sans-Serif" font-size="10.00">calltree_enter</text>
</a>
</g>
</g>
<!-- Node0&#45;&gt;Node5 -->
<g id="edge5" class="edge"><title>Node0&#45;&gt;Node5</title>
<path fill="none" stroke="midnightblue" d="M54.0066,-328.157C57.5546,-367.827 73.1888,-474.691 140,-519 194.448,-555.109 231.165,-552.925 287,-519 334.537,-490.117 355.604,-423.515 363.862,-387.025"/>
<polygon fill="midnightblue" stroke="midnightblue" points="367.302,-387.672 365.946,-377.164 360.454,-386.225 367.302,-387.672"/>
</g>
<!-- Node6 -->
<g id="node7" class="node"><title>Node6</title>
<g id="a_node7"><a xlink:href="../../d0/de6/namespacemom__error__handler.html#a88ea67781e2ed9b73ab7eac8ea5e8578" target="_top" xlink:title="Writes a message about leaving a subroutine if call tree reporting is active. ">
<polygon fill="white" stroke="black" points="323,-298 323,-328 416,-328 416,-298 323,-298"/>
<text text-anchor="start" x="331" y="-316" font-family="Helvetica,sans-Serif" font-size="10.00">mom_error_handler::</text>
<text text-anchor="middle" x="369.5" y="-305" font-family="Helvetica,sans-Serif" font-size="10.00">calltree_leave</text>
</a>
</g>
</g>
<!-- Node0&#45;&gt;Node6 -->
<g id="edge7" class="edge"><title>Node0&#45;&gt;Node6</title>
<path fill="none" stroke="midnightblue" d="M56.6461,-297.786C65.0873,-266.388 89.2487,-194.937 140,-166 196.756,-133.639 230.705,-132.843 287,-166 331.889,-192.439 353.806,-253.495 362.959,-288.026"/>
<polygon fill="midnightblue" stroke="midnightblue" points="359.587,-288.967 365.401,-297.824 366.379,-287.274 359.587,-288.967"/>
</g>
<!-- Node7 -->
<g id="node8" class="node"><title>Node7</title>
<g id="a_node8"><a xlink:href="../../de/d88/namespacemom__coord__initialization.html#a8db4253bf3b8ce75334db0c010ba570a" target="_top" xlink:title="mom_coord_initialization\l::set_coord_from_file">
<polygon fill="white" stroke="black" points="161.5,-176 161.5,-206 265.5,-206 265.5,-176 161.5,-176"/>
<text text-anchor="start" x="169.5" y="-194" font-family="Helvetica,sans-Serif" font-size="10.00">mom_coord_initialization</text>
<text text-anchor="middle" x="213.5" y="-183" font-family="Helvetica,sans-Serif" font-size="10.00">::set_coord_from_file</text>
</a>
</g>
</g>
<!-- Node0&#45;&gt;Node7 -->
<g id="edge10" class="edge"><title>Node0&#45;&gt;Node7</title>
<path fill="none" stroke="midnightblue" d="M62.6459,-297.813C77.0033,-276.384 105.986,-237.394 140,-215 143.777,-212.513 147.835,-210.263 152.032,-208.23"/>
<polygon fill="midnightblue" stroke="midnightblue" points="153.637,-211.348 161.385,-204.121 150.822,-204.939 153.637,-211.348"/>
</g>
<!-- Node8 -->
<g id="node9" class="node"><title>Node8</title>
<g id="a_node9"><a xlink:href="../../de/d88/namespacemom__coord__initialization.html#a0ea7e12068fd0a186d1129dde25112c5" target="_top" xlink:title="mom_coord_initialization\l::set_coord_from_gprime">
<polygon fill="white" stroke="black" points="160,-480 160,-510 267,-510 267,-480 160,-480"/>
<text text-anchor="start" x="168" y="-498" font-family="Helvetica,sans-Serif" font-size="10.00">mom_coord_initialization</text>
<text text-anchor="middle" x="213.5" y="-487" font-family="Helvetica,sans-Serif" font-size="10.00">::set_coord_from_gprime</text>
</a>
</g>
</g>
<!-- Node0&#45;&gt;Node8 -->
<g id="edge13" class="edge"><title>Node0&#45;&gt;Node8</title>
<path fill="none" stroke="midnightblue" d="M57.1743,-328.024C66.6152,-359.258 92.5635,-431.563 140,-471 143.269,-473.718 146.856,-476.131 150.631,-478.274"/>
<polygon fill="midnightblue" stroke="midnightblue" points="149.205,-481.474 159.717,-482.798 152.325,-475.207 149.205,-481.474"/>
</g>
<!-- Node9 -->
<g id="node10" class="node"><title>Node9</title>
<g id="a_node10"><a xlink:href="../../de/d88/namespacemom__coord__initialization.html#ac7fbb06dced36178003cea6f30bb8251" target="_top" xlink:title="mom_coord_initialization\l::set_coord_from_layer\l_density">
<polygon fill="white" stroke="black" points="161.5,-420.5 161.5,-461.5 265.5,-461.5 265.5,-420.5 161.5,-420.5"/>
<text text-anchor="start" x="169.5" y="-449.5" font-family="Helvetica,sans-Serif" font-size="10.00">mom_coord_initialization</text>
<text text-anchor="start" x="169.5" y="-438.5" font-family="Helvetica,sans-Serif" font-size="10.00">::set_coord_from_layer</text>
<text text-anchor="middle" x="213.5" y="-427.5" font-family="Helvetica,sans-Serif" font-size="10.00">_density</text>
</a>
</g>
</g>
<!-- Node0&#45;&gt;Node9 -->
<g id="edge16" class="edge"><title>Node0&#45;&gt;Node9</title>
<path fill="none" stroke="midnightblue" d="M63.1194,-328.209C77.8338,-349.311 107.007,-387.517 140,-411 143.888,-413.767 148.069,-416.339 152.391,-418.716"/>
<polygon fill="midnightblue" stroke="midnightblue" points="150.913,-421.891 161.41,-423.325 154.098,-415.658 150.913,-421.891"/>
</g>
<!-- Node10 -->
<g id="node11" class="node"><title>Node10</title>
<g id="a_node11"><a xlink:href="../../de/d88/namespacemom__coord__initialization.html#a47eea61df5d0ea7f91d52dd17e6532e0" target="_top" xlink:title="mom_coord_initialization\l::set_coord_from_ts_profile">
<polygon fill="white" stroke="black" points="156.5,-372 156.5,-402 270.5,-402 270.5,-372 156.5,-372"/>
<text text-anchor="start" x="164.5" y="-390" font-family="Helvetica,sans-Serif" font-size="10.00">mom_coord_initialization</text>
<text text-anchor="middle" x="213.5" y="-379" font-family="Helvetica,sans-Serif" font-size="10.00">::set_coord_from_ts_profile</text>
</a>
</g>
</g>
<!-- Node0&#45;&gt;Node10 -->
<g id="edge19" class="edge"><title>Node0&#45;&gt;Node10</title>
<path fill="none" stroke="midnightblue" d="M77.1349,-328.158C94.2628,-338.523 118.023,-352.12 140,-362 144.933,-364.218 150.127,-366.361 155.373,-368.398"/>
<polygon fill="midnightblue" stroke="midnightblue" points="154.237,-371.71 164.83,-371.943 156.694,-365.156 154.237,-371.71"/>
</g>
<!-- Node11 -->
<g id="node12" class="node"><title>Node11</title>
<g id="a_node12"><a xlink:href="../../de/d88/namespacemom__coord__initialization.html#aa10f125cb362adb012f56feb46d9e0a9" target="_top" xlink:title="mom_coord_initialization\l::set_coord_from_ts_range">
<polygon fill="white" stroke="black" points="157,-323 157,-353 270,-353 270,-323 157,-323"/>
<text text-anchor="start" x="165" y="-341" font-family="Helvetica,sans-Serif" font-size="10.00">mom_coord_initialization</text>
<text text-anchor="middle" x="213.5" y="-330" font-family="Helvetica,sans-Serif" font-size="10.00">::set_coord_from_ts_range</text>
</a>
</g>
</g>
<!-- Node0&#45;&gt;Node11 -->
<g id="edge22" class="edge"><title>Node0&#45;&gt;Node11</title>
<path fill="none" stroke="midnightblue" d="M104.345,-321.048C117.829,-323.161 132.559,-325.47 146.686,-327.684"/>
<polygon fill="midnightblue" stroke="midnightblue" points="146.419,-331.185 156.841,-329.276 147.503,-324.27 146.419,-331.185"/>
</g>
<!-- Node12 -->
<g id="node13" class="node"><title>Node12</title>
<g id="a_node13"><a xlink:href="../../de/d88/namespacemom__coord__initialization.html#a2497b25bed6dd92fadd4193b7532ef64" target="_top" xlink:title="mom_coord_initialization\l::set_coord_from_ts_ref">
<polygon fill="white" stroke="black" points="161.5,-274 161.5,-304 265.5,-304 265.5,-274 161.5,-274"/>
<text text-anchor="start" x="169.5" y="-292" font-family="Helvetica,sans-Serif" font-size="10.00">mom_coord_initialization</text>
<text text-anchor="middle" x="213.5" y="-281" font-family="Helvetica,sans-Serif" font-size="10.00">::set_coord_from_ts_ref</text>
</a>
</g>
</g>
<!-- Node0&#45;&gt;Node12 -->
<g id="edge25" class="edge"><title>Node0&#45;&gt;Node12</title>
<path fill="none" stroke="midnightblue" d="M104.345,-305.274C119.286,-303.026 135.757,-300.548 151.243,-298.217"/>
<polygon fill="midnightblue" stroke="midnightblue" points="151.884,-301.66 161.251,-296.711 150.842,-294.738 151.884,-301.66"/>
</g>
<!-- Node13 -->
<g id="node14" class="node"><title>Node13</title>
<g id="a_node14"><a xlink:href="../../de/d88/namespacemom__coord__initialization.html#a79fb324b0147fafc4e21093a1ceeb016" target="_top" xlink:title="mom_coord_initialization\l::set_coord_linear">
<polygon fill="white" stroke="black" points="161.5,-225 161.5,-255 265.5,-255 265.5,-225 161.5,-225"/>
<text text-anchor="start" x="169.5" y="-243" font-family="Helvetica,sans-Serif" font-size="10.00">mom_coord_initialization</text>
<text text-anchor="middle" x="213.5" y="-232" font-family="Helvetica,sans-Serif" font-size="10.00">::set_coord_linear</text>
</a>
</g>
</g>
<!-- Node0&#45;&gt;Node13 -->
<g id="edge28" class="edge"><title>Node0&#45;&gt;Node13</title>
<path fill="none" stroke="midnightblue" d="M76.7286,-297.98C93.8654,-287.549 117.804,-273.814 140,-264 144.32,-262.09 148.842,-260.247 153.425,-258.489"/>
<polygon fill="midnightblue" stroke="midnightblue" points="154.703,-261.748 162.875,-255.006 152.282,-255.18 154.703,-261.748"/>
</g>
<!-- Node14 -->
<g id="node15" class="node"><title>Node14</title>
<g id="a_node15"><a xlink:href="../../d6/dad/namespacemom__verticalgrid.html#aca0b871025638d55736e051a43906719" target="_top" xlink:title="This sets the coordinate data for the &quot;layer mode&quot; of the isopycnal model. ">
<polygon fill="white" stroke="black" points="140,-0.5 140,-19.5 287,-19.5 287,-0.5 140,-0.5"/>
<text text-anchor="middle" x="213.5" y="-7.5" font-family="Helvetica,sans-Serif" font-size="10.00">mom_verticalgrid::setverticalgridaxes</text>
</a>
</g>
</g>
<!-- Node0&#45;&gt;Node14 -->
<g id="edge31" class="edge"><title>Node0&#45;&gt;Node14</title>
<path fill="none" stroke="midnightblue" d="M52.8345,-297.759C53.188,-250.472 60.9447,-104.882 140,-29 141.64,-27.426 143.393,-25.9783 145.238,-24.6471"/>
<polygon fill="midnightblue" stroke="midnightblue" points="147.034,-27.6511 153.832,-19.5253 143.45,-21.6379 147.034,-27.6511"/>
</g>
<!-- Node15 -->
<g id="node16" class="node"><title>Node15</title>
<g id="a_node16"><a xlink:href="../../d9/dfa/namespaceuser__initialization.html#a541d25539cbb198ae0ed7c1356f267cf" target="_top" xlink:title="Set vertical coordinates. ">
<polygon fill="white" stroke="black" points="175,-39 175,-69 252,-69 252,-39 175,-39"/>
<text text-anchor="start" x="183" y="-57" font-family="Helvetica,sans-Serif" font-size="10.00">user_initialization</text>
<text text-anchor="middle" x="213.5" y="-46" font-family="Helvetica,sans-Serif" font-size="10.00">::user_set_coord</text>
</a>
</g>
</g>
<!-- Node0&#45;&gt;Node15 -->
<g id="edge32" class="edge"><title>Node0&#45;&gt;Node15</title>
<path fill="none" stroke="midnightblue" d="M54.1636,-297.943C58.1568,-256.709 74.9077,-140.86 140,-78 147.008,-71.2326 155.965,-66.3729 165.176,-62.8832"/>
<polygon fill="midnightblue" stroke="midnightblue" points="166.389,-66.1687 174.795,-59.72 164.202,-59.5191 166.389,-66.1687"/>
</g>
<!-- Node18 -->
<g id="node19" class="node"><title>Node18</title>
<g id="a_node19"><a xlink:href="../../de/d88/namespacemom__coord__initialization.html#a45fb62504679264febbaa0617332ecc1" target="_top" xlink:title="mom_coord_initialization\l::write_vertgrid_file">
<polygon fill="white" stroke="black" points="161.5,-88 161.5,-118 265.5,-118 265.5,-88 161.5,-88"/>
<text text-anchor="start" x="169.5" y="-106" font-family="Helvetica,sans-Serif" font-size="10.00">mom_coord_initialization</text>
<text text-anchor="middle" x="213.5" y="-95" font-family="Helvetica,sans-Serif" font-size="10.00">::write_vertgrid_file</text>
</a>
</g>
</g>
<!-- Node0&#45;&gt;Node18 -->
<g id="edge36" class="edge"><title>Node0&#45;&gt;Node18</title>
<path fill="none" stroke="midnightblue" d="M56.4205,-297.768C64.812,-263.708 89.5145,-180.645 140,-133 144.025,-129.202 148.598,-125.854 153.444,-122.908"/>
<polygon fill="midnightblue" stroke="midnightblue" points="155.293,-125.887 162.402,-118.031 151.946,-119.739 155.293,-125.887"/>
</g>
<!-- Node2 -->
<g id="node3" class="node"><title>Node2</title>
<g id="a_node3"><a xlink:href="../../d8/d30/namespacebfb__initialization.html#acf4641a95e7aa3b9953db2b04a627c97" target="_top" xlink:title="Write output about the parameter values being used. ">
<polygon fill="white" stroke="black" points="333.5,-606 333.5,-636 405.5,-636 405.5,-606 333.5,-606"/>
<text text-anchor="start" x="341.5" y="-624" font-family="Helvetica,sans-Serif" font-size="10.00">bfb_initialization</text>
<text text-anchor="middle" x="369.5" y="-613" font-family="Helvetica,sans-Serif" font-size="10.00">::write_bfb_log</text>
</a>
</g>
</g>
<!-- Node1&#45;&gt;Node2 -->
<g id="edge2" class="edge"><title>Node1&#45;&gt;Node2</title>
<path fill="none" stroke="midnightblue" d="M249.831,-621C271.645,-621 299.843,-621 323.279,-621"/>
<polygon fill="midnightblue" stroke="midnightblue" points="323.334,-624.5 333.334,-621 323.334,-617.5 323.334,-624.5"/>
</g>
<!-- Node2&#45;&gt;Node3 -->
<g id="edge3" class="edge"><title>Node2&#45;&gt;Node3</title>
<path fill="none" stroke="midnightblue" d="M405.792,-609.324C418.923,-604.98 434.153,-599.942 448.625,-595.154"/>
<polygon fill="midnightblue" stroke="midnightblue" points="450.094,-598.355 458.488,-591.891 447.895,-591.709 450.094,-598.355"/>
</g>
<!-- Node4 -->
<g id="node5" class="node"><title>Node4</title>
<g id="a_node5"><a xlink:href="../../d0/de6/namespacemom__error__handler.html#ad5f00a53059c72fe2332d1436c80ca71" target="_top" xlink:title="mom_error_handler::\lis_root_pe">
<polygon fill="white" stroke="black" points="868,-321 868,-351 961,-351 961,-321 868,-321"/>
<text text-anchor="start" x="876" y="-339" font-family="Helvetica,sans-Serif" font-size="10.00">mom_error_handler::</text>
<text text-anchor="middle" x="914.5" y="-328" font-family="Helvetica,sans-Serif" font-size="10.00">is_root_pe</text>
</a>
</g>
</g>
<!-- Node3&#45;&gt;Node4 -->
<g id="edge4" class="edge"><title>Node3&#45;&gt;Node4</title>
<path fill="none" stroke="midnightblue" d="M531.022,-561.924C601.574,-520.25 799.299,-403.457 879.279,-356.214"/>
<polygon fill="midnightblue" stroke="midnightblue" points="881.157,-359.169 887.987,-351.07 877.597,-353.142 881.157,-359.169"/>
</g>
<!-- Node5&#45;&gt;Node4 -->
<g id="edge6" class="edge"><title>Node5&#45;&gt;Node4</title>
<path fill="none" stroke="midnightblue" d="M416.06,-360.797C498.908,-358.46 679.746,-352.668 832,-343 840.353,-342.47 849.18,-341.812 857.819,-341.115"/>
<polygon fill="midnightblue" stroke="midnightblue" points="858.16,-344.599 867.836,-340.283 857.58,-337.623 858.16,-344.599"/>
</g>
<!-- Node6&#45;&gt;Node4 -->
<g id="edge8" class="edge"><title>Node6&#45;&gt;Node4</title>
<path fill="none" stroke="midnightblue" d="M416.328,-314.941C515.653,-319.148 750.463,-329.094 857.987,-333.649"/>
<polygon fill="midnightblue" stroke="midnightblue" points="857.847,-337.146 867.986,-334.072 858.143,-330.152 857.847,-337.146"/>
</g>
<!-- Node7&#45;&gt;Node5 -->
<g id="edge11" class="edge"><title>Node7&#45;&gt;Node5</title>
<path fill="none" stroke="midnightblue" d="M265.714,-200.96C273.617,-204.354 281.099,-208.902 287,-215 326.316,-255.624 287.555,-292.958 323,-337 323.954,-338.185 324.979,-339.322 326.063,-340.413"/>
<polygon fill="midnightblue" stroke="midnightblue" points="323.994,-343.244 333.919,-346.95 328.471,-337.863 323.994,-343.244"/>
</g>
<!-- Node7&#45;&gt;Node6 -->
<g id="edge12" class="edge"><title>Node7&#45;&gt;Node6</title>
<path fill="none" stroke="midnightblue" d="M265.74,-203.935C273.202,-206.943 280.537,-210.594 287,-215 315.765,-234.61 339.955,-267.129 354.33,-289.285"/>
<polygon fill="midnightblue" stroke="midnightblue" points="351.401,-291.203 359.698,-297.791 357.321,-287.467 351.401,-291.203"/>
</g>
<!-- Node8&#45;&gt;Node5 -->
<g id="edge14" class="edge"><title>Node8&#45;&gt;Node5</title>
<path fill="none" stroke="midnightblue" d="M267.079,-481.889C274.117,-478.929 280.975,-475.34 287,-471 317.974,-448.689 342.312,-411.128 356.054,-386.45"/>
<polygon fill="midnightblue" stroke="midnightblue" points="359.286,-387.832 360.957,-377.37 353.126,-384.506 359.286,-387.832"/>
</g>
<!-- Node8&#45;&gt;Node6 -->
<g id="edge15" class="edge"><title>Node8&#45;&gt;Node6</title>
<path fill="none" stroke="midnightblue" d="M267.314,-484.508C274.654,-481.175 281.538,-476.784 287,-471 329.34,-426.165 284.515,-385.185 323,-337 323.585,-336.267 324.199,-335.554 324.838,-334.861"/>
<polygon fill="midnightblue" stroke="midnightblue" points="327.281,-337.373 332.497,-328.151 322.669,-332.108 327.281,-337.373"/>
</g>
<!-- Node9&#45;&gt;Node5 -->
<g id="edge17" class="edge"><title>Node9&#45;&gt;Node5</title>
<path fill="none" stroke="midnightblue" d="M265.637,-420.965C272.887,-417.8 280.188,-414.433 287,-411 303.849,-402.509 321.896,-391.834 336.714,-382.617"/>
<polygon fill="midnightblue" stroke="midnightblue" points="338.884,-385.387 345.484,-377.099 335.156,-379.462 338.884,-385.387"/>
</g>
<!-- Node9&#45;&gt;Node6 -->
<g id="edge18" class="edge"><title>Node9&#45;&gt;Node6</title>
<path fill="none" stroke="midnightblue" d="M265.708,-425.4C273.427,-421.533 280.85,-416.789 287,-411 313.632,-385.931 297.563,-363.28 323,-337 323.908,-336.061 324.862,-335.152 325.851,-334.271"/>
<polygon fill="midnightblue" stroke="midnightblue" points="328.169,-336.906 334.022,-328.075 323.939,-331.328 328.169,-336.906"/>
</g>
<!-- Node10&#45;&gt;Node5 -->
<g id="edge20" class="edge"><title>Node10&#45;&gt;Node5</title>
<path fill="none" stroke="midnightblue" d="M270.533,-377.904C284.24,-375.679 298.905,-373.298 312.605,-371.074"/>
<polygon fill="midnightblue" stroke="midnightblue" points="313.552,-374.466 322.861,-369.409 312.43,-367.557 313.552,-374.466"/>
</g>
<!-- Node10&#45;&gt;Node6 -->
<g id="edge21" class="edge"><title>Node10&#45;&gt;Node6</title>
<path fill="none" stroke="midnightblue" d="M264.005,-371.978C271.85,-369.018 279.757,-365.675 287,-362 304.372,-353.186 306.354,-347.118 323,-337 325.137,-335.701 327.351,-334.399 329.599,-333.111"/>
<polygon fill="midnightblue" stroke="midnightblue" points="331.315,-336.161 338.351,-328.24 327.911,-330.044 331.315,-336.161"/>
</g>
<!-- Node11&#45;&gt;Node5 -->
<g id="edge23" class="edge"><title>Node11&#45;&gt;Node5</title>
<path fill="none" stroke="midnightblue" d="M270.098,-346.665C283.963,-348.825 298.835,-351.143 312.709,-353.305"/>
<polygon fill="midnightblue" stroke="midnightblue" points="312.188,-356.766 322.608,-354.848 313.266,-349.85 312.188,-356.766"/>
</g>
<!-- Node11&#45;&gt;Node6 -->
<g id="edge24" class="edge"><title>Node11&#45;&gt;Node6</title>
<path fill="none" stroke="midnightblue" d="M270.098,-328.974C283.963,-326.724 298.835,-324.309 312.709,-322.057"/>
<polygon fill="midnightblue" stroke="midnightblue" points="313.298,-325.507 322.608,-320.45 312.176,-318.598 313.298,-325.507"/>
</g>
<!-- Node12&#45;&gt;Node5 -->
<g id="edge26" class="edge"><title>Node12&#45;&gt;Node5</title>
<path fill="none" stroke="midnightblue" d="M265.505,-303.954C272.846,-306.659 280.208,-309.687 287,-313 304.283,-321.431 306.558,-327.028 323,-337 325.613,-338.585 328.332,-340.188 331.083,-341.778"/>
<polygon fill="midnightblue" stroke="midnightblue" points="329.463,-344.883 339.889,-346.767 332.913,-338.792 329.463,-344.883"/>
</g>
<!-- Node12&#45;&gt;Node6 -->
<g id="edge27" class="edge"><title>Node12&#45;&gt;Node6</title>
<path fill="none" stroke="midnightblue" d="M265.78,-296.992C280.924,-299.352 297.569,-301.946 312.968,-304.346"/>
<polygon fill="midnightblue" stroke="midnightblue" points="312.46,-307.809 322.879,-305.89 313.538,-300.892 312.46,-307.809"/>
</g>
<!-- Node13&#45;&gt;Node5 -->
<g id="edge29" class="edge"><title>Node13&#45;&gt;Node5</title>
<path fill="none" stroke="midnightblue" d="M265.619,-251.161C273.349,-254.413 280.799,-258.603 287,-264 314.288,-287.749 297.993,-310.86 323,-337 324.199,-338.254 325.476,-339.46 326.811,-340.62"/>
<polygon fill="midnightblue" stroke="midnightblue" points="324.869,-343.539 334.968,-346.744 329.072,-337.941 324.869,-343.539"/>
</g>
<!-- Node13&#45;&gt;Node6 -->
<g id="edge30" class="edge"><title>Node13&#45;&gt;Node6</title>
<path fill="none" stroke="midnightblue" d="M264.981,-255.103C272.469,-257.804 280.012,-260.791 287,-264 304.394,-271.988 322.749,-282.791 337.627,-292.22"/>
<polygon fill="midnightblue" stroke="midnightblue" points="336.1,-295.4 346.402,-297.877 339.893,-289.517 336.1,-295.4"/>
</g>
<!-- Node16 -->
<g id="node17" class="node"><title>Node16</title>
<g id="a_node17"><a xlink:href="../../d0/de6/namespacemom__error__handler.html#a460cfb79a06c29fc249952c2a3710d67" target="_top" xlink:title="mom_error_handler::\lmom_error">
<polygon fill="white" stroke="black" points="739,-124 739,-154 832,-154 832,-124 739,-124"/>
<text text-anchor="start" x="747" y="-142" font-family="Helvetica,sans-Serif" font-size="10.00">mom_error_handler::</text>
<text text-anchor="middle" x="785.5" y="-131" font-family="Helvetica,sans-Serif" font-size="10.00">mom_error</text>
</a>
</g>
</g>
<!-- Node15&#45;&gt;Node16 -->
<g id="edge33" class="edge"><title>Node15&#45;&gt;Node16</title>
<path fill="none" stroke="midnightblue" d="M252.076,-57.8482C334.243,-66.5317 535.92,-89.3088 703,-120 711.422,-121.547 720.286,-123.389 728.942,-125.308"/>
<polygon fill="midnightblue" stroke="midnightblue" points="728.442,-128.783 738.968,-127.582 729.991,-121.957 728.442,-128.783"/>
</g>
<!-- Node17 -->
<g id="node18" class="node"><title>Node17</title>
<g id="a_node18"><a xlink:href="../../d9/dfa/namespaceuser__initialization.html#aebfc0db710e83bae83f08e1a774256dd" target="_top" xlink:title="Write output about the parameter values being used. ">
<polygon fill="white" stroke="black" points="331,-23 331,-53 408,-53 408,-23 331,-23"/>
<text text-anchor="start" x="339" y="-41" font-family="Helvetica,sans-Serif" font-size="10.00">user_initialization</text>
<text text-anchor="middle" x="369.5" y="-30" font-family="Helvetica,sans-Serif" font-size="10.00">::write_user_log</text>
</a>
</g>
</g>
<!-- Node15&#45;&gt;Node17 -->
<g id="edge35" class="edge"><title>Node15&#45;&gt;Node17</title>
<path fill="none" stroke="midnightblue" d="M252.173,-50.086C272.851,-47.9375 298.702,-45.2517 320.78,-42.9579"/>
<polygon fill="midnightblue" stroke="midnightblue" points="321.365,-46.4161 330.95,-41.9013 320.642,-39.4536 321.365,-46.4161"/>
</g>
<!-- Node16&#45;&gt;Node4 -->
<g id="edge34" class="edge"><title>Node16&#45;&gt;Node4</title>
<path fill="none" stroke="midnightblue" d="M796.255,-154.131C818.232,-188.223 871.761,-271.255 898.203,-312.271"/>
<polygon fill="midnightblue" stroke="midnightblue" points="895.352,-314.309 903.712,-320.817 901.235,-310.516 895.352,-314.309"/>
</g>
<!-- Node19 -->
<g id="node20" class="node"><title>Node19</title>
<g id="a_node20"><a xlink:href="../../d5/d89/namespacemom__io.html#a39c3ccc06bb1a6e446af2ee9010eba16" target="_top" xlink:title="Returns a vardesc type whose elements have been filled with the provided fields. The argument name is...">
<polygon fill="white" stroke="black" points="328.5,-110.5 328.5,-129.5 410.5,-129.5 410.5,-110.5 328.5,-110.5"/>
<text text-anchor="middle" x="369.5" y="-117.5" font-family="Helvetica,sans-Serif" font-size="10.00">mom_io::var_desc</text>
</a>
</g>
</g>
<!-- Node18&#45;&gt;Node19 -->
<g id="edge37" class="edge"><title>Node18&#45;&gt;Node19</title>
<path fill="none" stroke="midnightblue" d="M265.78,-108.661C282.59,-110.516 301.248,-112.576 318.001,-114.425"/>
<polygon fill="midnightblue" stroke="midnightblue" points="317.828,-117.927 328.151,-115.546 318.596,-110.97 317.828,-117.927"/>
</g>
<!-- Node20 -->
<g id="node21" class="node"><title>Node20</title>
<g id="a_node21"><a xlink:href="../../d5/d89/namespacemom__io.html#ac4bc408e8b38dbd669842753f26ebf88" target="_top" xlink:title="Copies a string. ">
<polygon fill="white" stroke="black" points="593,-129.5 593,-148.5 703,-148.5 703,-129.5 593,-129.5"/>
<text text-anchor="middle" x="648" y="-136.5" font-family="Helvetica,sans-Serif" font-size="10.00">mom_io::safe_string_copy</text>
</a>
</g>
</g>
<!-- Node19&#45;&gt;Node20 -->
<g id="edge38" class="edge"><title>Node19&#45;&gt;Node20</title>
<path fill="none" stroke="midnightblue" d="M410.705,-122.763C455.873,-125.867 529.808,-130.947 582.953,-134.599"/>
<polygon fill="midnightblue" stroke="midnightblue" points="582.739,-138.092 592.956,-135.286 583.219,-131.109 582.739,-138.092"/>
</g>
<!-- Node21 -->
<g id="node22" class="node"><title>Node21</title>
<g id="a_node22"><a xlink:href="../../d5/d89/namespacemom__io.html#af96b29cb8410d557e8e452b81586223b" target="_top" xlink:title="This routine modifies the named elements of a vardesc type. All arguments are optional, except the vardesc type to be modified. ">
<polygon fill="white" stroke="black" points="452,-148.5 452,-167.5 557,-167.5 557,-148.5 452,-148.5"/>
<text text-anchor="middle" x="504.5" y="-155.5" font-family="Helvetica,sans-Serif" font-size="10.00">mom_io::modify_vardesc</text>
</a>
</g>
</g>
<!-- Node19&#45;&gt;Node21 -->
<g id="edge40" class="edge"><title>Node19&#45;&gt;Node21</title>
<path fill="none" stroke="midnightblue" d="M404.062,-129.589C421.073,-134.449 441.932,-140.409 460.145,-145.613"/>
<polygon fill="midnightblue" stroke="midnightblue" points="459.372,-149.032 469.949,-148.414 461.296,-142.301 459.372,-149.032"/>
</g>
<!-- Node20&#45;&gt;Node16 -->
<g id="edge39" class="edge"><title>Node20&#45;&gt;Node16</title>
<path fill="none" stroke="midnightblue" d="M703.332,-139C711.707,-139 720.367,-139 728.772,-139"/>
<polygon fill="midnightblue" stroke="midnightblue" points="728.862,-142.5 738.862,-139 728.862,-135.5 728.862,-142.5"/>
</g>
<!-- Node21&#45;&gt;Node20 -->
<g id="edge41" class="edge"><title>Node21&#45;&gt;Node20</title>
<path fill="none" stroke="midnightblue" d="M557.386,-151.033C565.663,-149.922 574.311,-148.76 582.832,-147.616"/>
<polygon fill="midnightblue" stroke="midnightblue" points="583.299,-151.085 592.744,-146.285 582.368,-144.147 583.299,-151.085"/>
</g>
</g>
</svg>
        <g id="navigator" transform="translate(0 0)" fill="#404254">
                <rect fill="#f2f5e9" fill-opacity="0.5" stroke="#606060" stroke-width=".5" x="0" y="0" width="60" height="60"/>
                <use id="zoomplus" xlink:href="#zoomPlus" x="17" y="9" onmousedown="handleZoom(evt,'in')"/>
                <use id="zoomminus" xlink:href="#zoomMin" x="42" y="9" onmousedown="handleZoom(evt,'out')"/>
                <use id="reset" xlink:href="#resetDef" x="30" y="36" onmousedown="handleReset()"/>
                <g id="arrowUp" xlink:href="#dirArrow" transform="translate(30 24)" onmousedown="handlePan(0,-1)">
                  <use xlink:href="#rim" fill="#404040">
                        <set attributeName="fill" to="#808080" begin="arrowUp.mouseover" end="arrowUp.mouseout"/>
                  </use>
                  <path fill="none" stroke="white" stroke-width="1.5" d="M0,-3.0v7 M-2.5,-0.5L0,-3.0L2.5,-0.5"/>
                </g>
                <g id="arrowRight" xlink:href="#dirArrow" transform="rotate(90) translate(36 -43)" onmousedown="handlePan(1,0)">
                  <use xlink:href="#rim" fill="#404040">
                        <set attributeName="fill" to="#808080" begin="arrowRight.mouseover" end="arrowRight.mouseout"/>
                  </use>
                  <path fill="none" stroke="white" stroke-width="1.5" d="M0,-3.0v7 M-2.5,-0.5L0,-3.0L2.5,-0.5"/>
                </g>
                <g id="arrowDown" xlink:href="#dirArrow" transform="rotate(180) translate(-30 -48)" onmousedown="handlePan(0,1)">
                  <use xlink:href="#rim" fill="#404040">
                        <set attributeName="fill" to="#808080" begin="arrowDown.mouseover" end="arrowDown.mouseout"/>
                  </use>
                  <path fill="none" stroke="white" stroke-width="1.5" d="M0,-3.0v7 M-2.5,-0.5L0,-3.0L2.5,-0.5"/>
                </g>
                <g id="arrowLeft" xlink:href="#dirArrow" transform="rotate(270) translate(-36 17)" onmousedown="handlePan(-1,0)">
                  <use xlink:href="#rim" fill="#404040">
                        <set attributeName="fill" to="#808080" begin="arrowLeft.mouseover" end="arrowLeft.mouseout"/>
                  </use>
                  <path fill="none" stroke="white" stroke-width="1.5" d="M0,-3.0v7 M-2.5,-0.5L0,-3.0L2.5,-0.5"/>
                </g>
        </g>
        <svg viewBox="0 0 15 15" width="100%" height="30px" preserveAspectRatio="xMaxYMin meet">
         <g id="arrow_out" transform="scale(0.3 0.3)">
          <a xlink:href="namespacemom__coord__initialization_a6e2f4c11bc99476ea9c64a9aceac3b81_cgraph_org.svg" target="_base">
           <rect id="button" ry="5" rx="5" y="6" x="6" height="38" width="38"
                fill="#f2f5e9" fill-opacity="0.5" stroke="#606060" stroke-width="1.0"/>
           <path id="arrow"
             d="M 11.500037,31.436501 C 11.940474,20.09759 22.043105,11.32322 32.158766,21.979434 L 37.068811,17.246167 C 37.068811,17.246167 37.088388,32 37.088388,32 L 22.160133,31.978069 C 22.160133,31.978069 26.997745,27.140456 26.997745,27.140456 C 18.528582,18.264221 13.291696,25.230495 11.500037,31.436501 z"
             style="fill:#404040;"/>
          </a>
         </g>
        </svg>
</svg>
