<?xml version="1.0" encoding="UTF-8" standalone="no"?>
<!DOCTYPE svg PUBLIC "-//W3C//DTD SVG 1.1//EN"
 "http://www.w3.org/Graphics/SVG/1.1/DTD/svg11.dtd">
<!-- Generated by graphviz version 2.38.0 (20140413.2041)
 -->
<!-- Title: mom_dynamics_split_rk2::step_mom_dyn_split_rk2 Pages: 1 -->
<svg width="724pt" height="958pt"
 viewBox="0.00 0.00 724.00 957.72" xmlns="http://www.w3.org/2000/svg" xmlns:xlink="http://www.w3.org/1999/xlink">
<g id="graph0" class="graph" transform="scale(1 1) rotate(0) translate(4 953.717)">
<title>mom_dynamics_split_rk2::step_mom_dyn_split_rk2</title>
<polygon fill="white" stroke="none" points="-4,4 -4,-953.717 720,-953.717 720,4 -4,4"/>
<!-- Node6 -->
<g id="node1" class="node"><title>Node6</title>
<polygon fill="#bfbfbf" stroke="black" points="0,-338.5 0,-368.5 125,-368.5 125,-338.5 0,-338.5"/>
<text text-anchor="start" x="8" y="-356.5" font-family="Helvetica,sans-Serif" font-size="10.00">mom_dynamics_split</text>
<text text-anchor="middle" x="62.5" y="-345.5" font-family="Helvetica,sans-Serif" font-size="10.00">_rk2::step_mom_dyn_split_rk2</text>
</g>
<!-- Node7 -->
<g id="node2" class="node"><title>Node7</title>
<g id="a_node2"><a xlink:href="../../d0/de6/namespacemom__error__handler.html#a9cda07a87815f0e5594066162b4345c3" target="_top" xlink:title="Writes a message about entering a subroutine if call tree reporting is active. ">
<polygon fill="white" stroke="black" points="482,-771.5 482,-801.5 575,-801.5 575,-771.5 482,-771.5"/>
<text text-anchor="start" x="490" y="-789.5" font-family="Helvetica,sans-Serif" font-size="10.00">mom_error_handler::</text>
<text text-anchor="middle" x="528.5" y="-778.5" font-family="Helvetica,sans-Serif" font-size="10.00">calltree_enter</text>
</a>
</g>
</g>
<!-- Node6&#45;&gt;Node7 -->
<g id="edge1" class="edge"><title>Node6&#45;&gt;Node7</title>
<path fill="none" stroke="midnightblue" d="M64.1272,-368.732C67.6585,-446.879 87.6042,-802.054 161,-877.5 246.298,-965.181 324.728,-967.485 434,-912.5 475.974,-891.379 503.835,-841.512 517.544,-811.229"/>
<polygon fill="midnightblue" stroke="midnightblue" points="520.875,-812.346 521.651,-801.78 514.455,-809.556 520.875,-812.346"/>
</g>
<!-- Node9 -->
<g id="node4" class="node"><title>Node9</title>
<g id="a_node4"><a xlink:href="../../d0/de6/namespacemom__error__handler.html#a88ea67781e2ed9b73ab7eac8ea5e8578" target="_top" xlink:title="Writes a message about leaving a subroutine if call tree reporting is active. ">
<polygon fill="white" stroke="black" points="482,-376.5 482,-406.5 575,-406.5 575,-376.5 482,-376.5"/>
<text text-anchor="start" x="490" y="-394.5" font-family="Helvetica,sans-Serif" font-size="10.00">mom_error_handler::</text>
<text text-anchor="middle" x="528.5" y="-383.5" font-family="Helvetica,sans-Serif" font-size="10.00">calltree_leave</text>
</a>
</g>
</g>
<!-- Node6&#45;&gt;Node9 -->
<g id="edge3" class="edge"><title>Node6&#45;&gt;Node9</title>
<path fill="none" stroke="midnightblue" d="M125.11,-360.064C137.013,-361.263 149.39,-362.461 161,-363.5 270.954,-373.337 399.663,-382.665 471.571,-387.68"/>
<polygon fill="midnightblue" stroke="midnightblue" points="471.54,-391.187 481.759,-388.388 472.026,-384.203 471.54,-391.187"/>
</g>
<!-- Node10 -->
<g id="node5" class="node"><title>Node10</title>
<g id="a_node5"><a xlink:href="../../d0/de6/namespacemom__error__handler.html#a34a02e601a60f03cb97a72fe25a32853" target="_top" xlink:title="Writes a message about reaching a milestone if call tree reporting is active. ">
<polygon fill="white" stroke="black" points="482,-327.5 482,-357.5 575,-357.5 575,-327.5 482,-327.5"/>
<text text-anchor="start" x="490" y="-345.5" font-family="Helvetica,sans-Serif" font-size="10.00">mom_error_handler::</text>
<text text-anchor="middle" x="528.5" y="-334.5" font-family="Helvetica,sans-Serif" font-size="10.00">calltree_waypoint</text>
</a>
</g>
</g>
<!-- Node6&#45;&gt;Node10 -->
<g id="edge5" class="edge"><title>Node6&#45;&gt;Node10</title>
<path fill="none" stroke="midnightblue" d="M125.116,-352.039C215.844,-349.888 384.053,-345.901 471.472,-343.828"/>
<polygon fill="midnightblue" stroke="midnightblue" points="471.808,-347.321 481.722,-343.585 471.642,-340.323 471.808,-347.321"/>
</g>
<!-- Node11 -->
<g id="node6" class="node"><title>Node11</title>
<g id="a_node6"><a xlink:href="../../d1/d95/namespacemom__domains.html#ad6fe013fb609fbb74bfeb66852d26796" target="_top" xlink:title="mom_domains::complete\l_group_pass">
<polygon fill="white" stroke="black" points="171.5,-294.5 171.5,-324.5 277.5,-324.5 277.5,-294.5 171.5,-294.5"/>
<text text-anchor="start" x="179.5" y="-312.5" font-family="Helvetica,sans-Serif" font-size="10.00">mom_domains::complete</text>
<text text-anchor="middle" x="224.5" y="-301.5" font-family="Helvetica,sans-Serif" font-size="10.00">_group_pass</text>
</a>
</g>
</g>
<!-- Node6&#45;&gt;Node11 -->
<g id="edge7" class="edge"><title>Node6&#45;&gt;Node11</title>
<path fill="none" stroke="midnightblue" d="M118.115,-338.481C132.091,-334.638 147.219,-330.477 161.535,-326.54"/>
<polygon fill="midnightblue" stroke="midnightblue" points="162.578,-329.884 171.292,-323.857 160.722,-323.134 162.578,-329.884"/>
</g>
<!-- Node12 -->
<g id="node7" class="node"><title>Node12</title>
<g id="a_node7"><a xlink:href="../../dd/da4/namespacemom__continuity.html#a483dba08c6a9574d7fe814cadccd870e" target="_top" xlink:title="Time steps the layer thicknesses, using a monotonically limited, directionally split PPM scheme...">
<polygon fill="white" stroke="black" points="324,-884 324,-903 434,-903 434,-884 324,-884"/>
<text text-anchor="middle" x="379" y="-891" font-family="Helvetica,sans-Serif" font-size="10.00">mom_continuity::continuity</text>
</a>
</g>
</g>
<!-- Node6&#45;&gt;Node12 -->
<g id="edge8" class="edge"><title>Node6&#45;&gt;Node12</title>
<path fill="none" stroke="midnightblue" d="M64.4694,-368.948C69.4609,-443.594 94.646,-766.204 161,-836.5 199.94,-877.754 264.807,-890.517 313.498,-893.854"/>
<polygon fill="midnightblue" stroke="midnightblue" points="313.444,-897.357 323.627,-894.43 313.842,-890.368 313.444,-897.357"/>
</g>
<!-- Node14 -->
<g id="node9" class="node"><title>Node14</title>
<g id="a_node9"><a xlink:href="../../d8/dd2/namespacemom__coriolisadv.html#a48e46860dad5118d78c8cd7de964e71f" target="_top" xlink:title="Calculates the Coriolis and momentum advection contributions to the acceleration. ...">
<polygon fill="white" stroke="black" points="167.5,-808 167.5,-827 281.5,-827 281.5,-808 167.5,-808"/>
<text text-anchor="middle" x="224.5" y="-815" font-family="Helvetica,sans-Serif" font-size="10.00">mom_coriolisadv::coradcalc</text>
</a>
</g>
</g>
<!-- Node6&#45;&gt;Node14 -->
<g id="edge11" class="edge"><title>Node6&#45;&gt;Node14</title>
<path fill="none" stroke="midnightblue" d="M66.7695,-368.798C77.3937,-417.426 113.047,-572.429 161,-694.5 176.096,-732.93 199.199,-775.374 212.682,-799.002"/>
<polygon fill="midnightblue" stroke="midnightblue" points="209.792,-800.996 217.82,-807.91 215.856,-797.499 209.792,-800.996"/>
</g>
<!-- Node16 -->
<g id="node11" class="node"><title>Node16</title>
<g id="a_node11"><a xlink:href="../../d5/dd7/namespacemom__checksum__packages.html#aa747a7aaa0315492d180b4514f5c70e0" target="_top" xlink:title="mom_checksum_packages\l::mom_accel_chksum">
<polygon fill="white" stroke="black" points="168,-245.5 168,-275.5 281,-275.5 281,-245.5 168,-245.5"/>
<text text-anchor="start" x="176" y="-263.5" font-family="Helvetica,sans-Serif" font-size="10.00">mom_checksum_packages</text>
<text text-anchor="middle" x="224.5" y="-252.5" font-family="Helvetica,sans-Serif" font-size="10.00">::mom_accel_chksum</text>
</a>
</g>
</g>
<!-- Node6&#45;&gt;Node16 -->
<g id="edge14" class="edge"><title>Node6&#45;&gt;Node16</title>
<path fill="none" stroke="midnightblue" d="M82.4481,-338.321C101.504,-323.538 132.122,-301.08 161,-285.5 164.703,-283.502 168.6,-281.572 172.564,-279.73"/>
<polygon fill="midnightblue" stroke="midnightblue" points="174.151,-282.855 181.874,-275.601 171.313,-276.456 174.151,-282.855"/>
</g>
<!-- Node17 -->
<g id="node12" class="node"><title>Node17</title>
<g id="a_node12"><a xlink:href="../../d6/d5c/namespacemom__pressureforce.html#a9f010455182eeaa61c9f01caff250bf8" target="_top" xlink:title="mom_pressureforce::\lpressureforce">
<polygon fill="white" stroke="black" points="178,-196.5 178,-226.5 271,-226.5 271,-196.5 178,-196.5"/>
<text text-anchor="start" x="186" y="-214.5" font-family="Helvetica,sans-Serif" font-size="10.00">mom_pressureforce::</text>
<text text-anchor="middle" x="224.5" y="-203.5" font-family="Helvetica,sans-Serif" font-size="10.00">pressureforce</text>
</a>
</g>
</g>
<!-- Node6&#45;&gt;Node17 -->
<g id="edge15" class="edge"><title>Node6&#45;&gt;Node17</title>
<path fill="none" stroke="midnightblue" d="M72.7068,-338.128C88.1308,-313.549 121.425,-265.251 161,-236.5 163.519,-234.67 166.19,-232.95 168.955,-231.338"/>
<polygon fill="midnightblue" stroke="midnightblue" points="170.822,-234.31 178.032,-226.547 167.555,-228.119 170.822,-234.31"/>
</g>
<!-- Node18 -->
<g id="node13" class="node"><title>Node18</title>
<g id="a_node13"><a xlink:href="../../de/ddd/namespacemom__open__boundary.html#a9f7df34215db2d41027191be30ba90d1" target="_top" xlink:title="Apply radiation conditions to 3D u,v (,h) at open boundaries. ">
<polygon fill="white" stroke="black" points="166.5,-147.5 166.5,-177.5 282.5,-177.5 282.5,-147.5 166.5,-147.5"/>
<text text-anchor="start" x="174.5" y="-165.5" font-family="Helvetica,sans-Serif" font-size="10.00">mom_open_boundary::</text>
<text text-anchor="middle" x="224.5" y="-154.5" font-family="Helvetica,sans-Serif" font-size="10.00">radiation_open_bdry_conds</text>
</a>
</g>
</g>
<!-- Node6&#45;&gt;Node18 -->
<g id="edge16" class="edge"><title>Node6&#45;&gt;Node18</title>
<path fill="none" stroke="midnightblue" d="M68.5189,-338.442C79.9366,-306.351 110.819,-230.643 161,-187.5 162.939,-185.833 165.002,-184.269 167.155,-182.802"/>
<polygon fill="midnightblue" stroke="midnightblue" points="169.045,-185.75 175.828,-177.612 165.45,-179.743 169.045,-185.75"/>
</g>
<!-- Node19 -->
<g id="node14" class="node"><title>Node19</title>
<g id="a_node14"><a xlink:href="../../d5/d7c/namespacemom__barotropic.html#a5bbc20372a46408b8e61cbc1fd49e8e0" target="_top" xlink:title="mom_barotropic::set_dtbt">
<polygon fill="white" stroke="black" points="170.5,-666 170.5,-685 278.5,-685 278.5,-666 170.5,-666"/>
<text text-anchor="middle" x="224.5" y="-673" font-family="Helvetica,sans-Serif" font-size="10.00">mom_barotropic::set_dtbt</text>
</a>
</g>
</g>
<!-- Node6&#45;&gt;Node19 -->
<g id="edge17" class="edge"><title>Node6&#45;&gt;Node19</title>
<path fill="none" stroke="midnightblue" d="M71.0025,-368.599C97.2882,-421.499 185.189,-598.4 214.155,-656.692"/>
<polygon fill="midnightblue" stroke="midnightblue" points="211.124,-658.459 218.708,-665.857 217.393,-655.344 211.124,-658.459"/>
</g>
<!-- Node23 -->
<g id="node18" class="node"><title>Node23</title>
<g id="a_node18"><a xlink:href="../../d6/d5d/namespacemom__set__visc.html#a9e73d0338646bb91d14b78e86f6e3886" target="_top" xlink:title="mom_set_visc::set_viscous_bbl">
<polygon fill="white" stroke="black" points="161,-470 161,-489 288,-489 288,-470 161,-470"/>
<text text-anchor="middle" x="224.5" y="-477" font-family="Helvetica,sans-Serif" font-size="10.00">mom_set_visc::set_viscous_bbl</text>
</a>
</g>
</g>
<!-- Node6&#45;&gt;Node23 -->
<g id="edge22" class="edge"><title>Node6&#45;&gt;Node23</title>
<path fill="none" stroke="midnightblue" d="M82.7997,-368.699C113.341,-392.75 172.514,-439.349 203.492,-463.744"/>
<polygon fill="midnightblue" stroke="midnightblue" points="201.412,-466.561 211.434,-469.998 205.743,-461.061 201.412,-466.561"/>
</g>
<!-- Node30 -->
<g id="node25" class="node"><title>Node30</title>
<g id="a_node25"><a xlink:href="../../d6/d5d/namespacemom__set__visc.html#afa97c345f1c4caaaf53b039d0b3fc9d8" target="_top" xlink:title="mom_set_visc::set_viscous_ml">
<polygon fill="white" stroke="black" points="162,-508 162,-527 287,-527 287,-508 162,-508"/>
<text text-anchor="middle" x="224.5" y="-515" font-family="Helvetica,sans-Serif" font-size="10.00">mom_set_visc::set_viscous_ml</text>
</a>
</g>
</g>
<!-- Node6&#45;&gt;Node30 -->
<g id="edge31" class="edge"><title>Node6&#45;&gt;Node30</title>
<path fill="none" stroke="midnightblue" d="M69.5616,-368.736C82.0919,-398.275 113.69,-463.498 161,-498.5 163.517,-500.362 166.218,-502.044 169.035,-503.562"/>
<polygon fill="midnightblue" stroke="midnightblue" points="167.792,-506.844 178.336,-507.876 170.737,-500.494 167.792,-506.844"/>
</g>
<!-- Node31 -->
<g id="node26" class="node"><title>Node31</title>
<g id="a_node26"><a xlink:href="../../d1/d95/namespacemom__domains.html#aee5ecb920463220ac2622e011151f8cd" target="_top" xlink:title="mom_domains::start\l_group_pass">
<polygon fill="white" stroke="black" points="180,-98.5 180,-128.5 269,-128.5 269,-98.5 180,-98.5"/>
<text text-anchor="start" x="188" y="-116.5" font-family="Helvetica,sans-Serif" font-size="10.00">mom_domains::start</text>
<text text-anchor="middle" x="224.5" y="-105.5" font-family="Helvetica,sans-Serif" font-size="10.00">_group_pass</text>
</a>
</g>
</g>
<!-- Node6&#45;&gt;Node31 -->
<g id="edge36" class="edge"><title>Node6&#45;&gt;Node31</title>
<path fill="none" stroke="midnightblue" d="M66.2773,-338.495C74.1506,-300.001 100.112,-196.693 161,-138.5 164.041,-135.593 167.463,-133.009 171.099,-130.716"/>
<polygon fill="midnightblue" stroke="midnightblue" points="172.819,-133.764 179.89,-125.873 169.442,-127.632 172.819,-133.764"/>
</g>
<!-- Node32 -->
<g id="node27" class="node"><title>Node32</title>
<g id="a_node27"><a xlink:href="../../da/d9f/namespacemom__boundary__update.html#a6090ba327f68ee8e217f2773cdd2e8f7" target="_top" xlink:title="Calls appropriate routine to update the open boundary conditions. ">
<polygon fill="white" stroke="black" points="173.5,-49.5 173.5,-79.5 275.5,-79.5 275.5,-49.5 173.5,-49.5"/>
<text text-anchor="start" x="181.5" y="-67.5" font-family="Helvetica,sans-Serif" font-size="10.00">mom_boundary_update</text>
<text text-anchor="middle" x="224.5" y="-56.5" font-family="Helvetica,sans-Serif" font-size="10.00">::update_obc_data</text>
</a>
</g>
</g>
<!-- Node6&#45;&gt;Node32 -->
<g id="edge37" class="edge"><title>Node6&#45;&gt;Node32</title>
<path fill="none" stroke="midnightblue" d="M64.8458,-338.429C69.5745,-294.19 89.2534,-163.19 161,-89.5 162.406,-88.0556 163.907,-86.6923 165.483,-85.4059"/>
<polygon fill="midnightblue" stroke="midnightblue" points="167.66,-88.1557 173.899,-79.5929 163.682,-82.3959 167.66,-88.1557"/>
</g>
<!-- Node34 -->
<g id="node29" class="node"><title>Node34</title>
<g id="a_node29"><a xlink:href="../../d9/dcb/namespacemom__vert__friction.html#a62e586a80ed4bdd3fd27ab62ca4c054f" target="_top" xlink:title="Update the CFL truncation value as a function of time. If called with the optional argument activate=...">
<polygon fill="white" stroke="black" points="173,-0.5 173,-30.5 276,-30.5 276,-0.5 173,-0.5"/>
<text text-anchor="start" x="181" y="-18.5" font-family="Helvetica,sans-Serif" font-size="10.00">mom_vert_friction::</text>
<text text-anchor="middle" x="224.5" y="-7.5" font-family="Helvetica,sans-Serif" font-size="10.00">updatecfltruncationvalue</text>
</a>
</g>
</g>
<!-- Node6&#45;&gt;Node34 -->
<g id="edge39" class="edge"><title>Node6&#45;&gt;Node34</title>
<path fill="none" stroke="midnightblue" d="M63.7577,-338.466C65.4141,-288.922 77.3064,-128.869 161,-39.5 162.068,-38.36 163.195,-37.2735 164.374,-36.2381"/>
<polygon fill="midnightblue" stroke="midnightblue" points="166.761,-38.83 172.793,-30.1197 162.646,-33.1674 166.761,-38.83"/>
</g>
<!-- Node8 -->
<g id="node3" class="node"><title>Node8</title>
<g id="a_node3"><a xlink:href="../../d0/de6/namespacemom__error__handler.html#ad5f00a53059c72fe2332d1436c80ca71" target="_top" xlink:title="mom_error_handler::\lis_root_pe">
<polygon fill="white" stroke="black" points="623,-477.5 623,-507.5 716,-507.5 716,-477.5 623,-477.5"/>
<text text-anchor="start" x="631" y="-495.5" font-family="Helvetica,sans-Serif" font-size="10.00">mom_error_handler::</text>
<text text-anchor="middle" x="669.5" y="-484.5" font-family="Helvetica,sans-Serif" font-size="10.00">is_root_pe</text>
</a>
</g>
</g>
<!-- Node7&#45;&gt;Node8 -->
<g id="edge2" class="edge"><title>Node7&#45;&gt;Node8</title>
<path fill="none" stroke="midnightblue" d="M536.778,-771.107C559.484,-723.081 629.161,-575.706 656.916,-517.002"/>
<polygon fill="midnightblue" stroke="midnightblue" points="660.184,-518.277 661.295,-507.74 653.856,-515.285 660.184,-518.277"/>
</g>
<!-- Node9&#45;&gt;Node8 -->
<g id="edge4" class="edge"><title>Node9&#45;&gt;Node8</title>
<path fill="none" stroke="midnightblue" d="M569.096,-406.581C575.276,-409.534 581.447,-412.859 587,-416.5 610.081,-431.632 632.746,-453.5 648.292,-469.897"/>
<polygon fill="midnightblue" stroke="midnightblue" points="645.948,-472.516 655.322,-477.454 651.073,-467.748 645.948,-472.516"/>
</g>
<!-- Node10&#45;&gt;Node8 -->
<g id="edge6" class="edge"><title>Node10&#45;&gt;Node8</title>
<path fill="none" stroke="midnightblue" d="M572.018,-357.546C577.356,-360.4 582.51,-363.706 587,-367.5 620.133,-395.497 644.789,-440.344 657.883,-468.023"/>
<polygon fill="midnightblue" stroke="midnightblue" points="654.826,-469.752 662.178,-477.38 661.188,-466.832 654.826,-469.752"/>
</g>
<!-- Node13 -->
<g id="node8" class="node"><title>Node13</title>
<g id="a_node8"><a xlink:href="../../d0/de6/namespacemom__error__handler.html#a460cfb79a06c29fc249952c2a3710d67" target="_top" xlink:title="mom_error_handler::\lmom_error">
<polygon fill="white" stroke="black" points="482,-578.5 482,-608.5 575,-608.5 575,-578.5 482,-578.5"/>
<text text-anchor="start" x="490" y="-596.5" font-family="Helvetica,sans-Serif" font-size="10.00">mom_error_handler::</text>
<text text-anchor="middle" x="528.5" y="-585.5" font-family="Helvetica,sans-Serif" font-size="10.00">mom_error</text>
</a>
</g>
</g>
<!-- Node12&#45;&gt;Node13 -->
<g id="edge9" class="edge"><title>Node12&#45;&gt;Node13</title>
<path fill="none" stroke="midnightblue" d="M420.544,-883.999C425.522,-881.529 430.188,-878.418 434,-874.5 470.463,-837.027 453.579,-812.14 470,-762.5 486.951,-711.258 507.449,-651.523 518.824,-618.565"/>
<polygon fill="midnightblue" stroke="midnightblue" points="522.223,-619.445 522.18,-608.85 515.607,-617.159 522.223,-619.445"/>
</g>
<!-- Node13&#45;&gt;Node8 -->
<g id="edge10" class="edge"><title>Node13&#45;&gt;Node8</title>
<path fill="none" stroke="midnightblue" d="M561.61,-578.446C570.099,-574.014 579.094,-568.894 587,-563.5 608.252,-548.999 630.116,-529.666 645.842,-514.836"/>
<polygon fill="midnightblue" stroke="midnightblue" points="648.662,-516.982 653.47,-507.541 643.824,-511.923 648.662,-516.982"/>
</g>
<!-- Node14&#45;&gt;Node13 -->
<g id="edge13" class="edge"><title>Node14&#45;&gt;Node13</title>
<path fill="none" stroke="midnightblue" d="M281.629,-826.781C326.865,-831.118 389.972,-829.725 434,-798.5 494.723,-755.435 516.835,-663.109 524.185,-618.561"/>
<polygon fill="midnightblue" stroke="midnightblue" points="527.661,-618.986 525.715,-608.571 520.741,-617.926 527.661,-618.986"/>
</g>
<!-- Node15 -->
<g id="node10" class="node"><title>Node15</title>
<g id="a_node10"><a xlink:href="../../d8/dd2/namespacemom__coriolisadv.html#a9f9fa1eb1086659158a0dd85bfdea182" target="_top" xlink:title="Calculates the acceleration due to the gradient of kinetic energy. ">
<polygon fill="white" stroke="black" points="326.5,-846 326.5,-865 431.5,-865 431.5,-846 326.5,-846"/>
<text text-anchor="middle" x="379" y="-853" font-family="Helvetica,sans-Serif" font-size="10.00">mom_coriolisadv::gradke</text>
</a>
</g>
</g>
<!-- Node14&#45;&gt;Node15 -->
<g id="edge12" class="edge"><title>Node14&#45;&gt;Node15</title>
<path fill="none" stroke="midnightblue" d="M263.982,-827.089C284.016,-832.081 308.702,-838.232 329.976,-843.533"/>
<polygon fill="midnightblue" stroke="midnightblue" points="329.245,-846.958 339.795,-845.98 330.938,-840.166 329.245,-846.958"/>
</g>
<!-- Node19&#45;&gt;Node13 -->
<g id="edge20" class="edge"><title>Node19&#45;&gt;Node13</title>
<path fill="none" stroke="midnightblue" d="M260.734,-665.933C312.689,-651.826 410.339,-625.312 471.985,-608.574"/>
<polygon fill="midnightblue" stroke="midnightblue" points="473.198,-611.871 481.932,-605.873 471.364,-605.116 473.198,-611.871"/>
</g>
<!-- Node20 -->
<g id="node15" class="node"><title>Node20</title>
<g id="a_node15"><a xlink:href="../../d5/d7c/namespacemom__barotropic.html#a69af48d24759b679d0431f09dc9da503" target="_top" xlink:title="mom_barotropic::bt\l_cont_to_face_areas">
<polygon fill="white" stroke="black" points="333,-758.5 333,-788.5 425,-788.5 425,-758.5 333,-758.5"/>
<text text-anchor="start" x="341" y="-776.5" font-family="Helvetica,sans-Serif" font-size="10.00">mom_barotropic::bt</text>
<text text-anchor="middle" x="379" y="-765.5" font-family="Helvetica,sans-Serif" font-size="10.00">_cont_to_face_areas</text>
</a>
</g>
</g>
<!-- Node19&#45;&gt;Node20 -->
<g id="edge18" class="edge"><title>Node19&#45;&gt;Node20</title>
<path fill="none" stroke="midnightblue" d="M236.44,-685.036C254.029,-700.056 290.069,-729.561 324,-749.5 326.613,-751.036 329.343,-752.537 332.127,-753.99"/>
<polygon fill="midnightblue" stroke="midnightblue" points="330.615,-757.147 341.129,-758.457 333.727,-750.877 330.615,-757.147"/>
</g>
<!-- Node21 -->
<g id="node16" class="node"><title>Node21</title>
<g id="a_node16"><a xlink:href="../../d5/d7c/namespacemom__barotropic.html#a75ff2563aedd553f2799c1cfc320129e" target="_top" xlink:title="mom_barotropic::find\l_face_areas">
<polygon fill="white" stroke="black" points="333,-709.5 333,-739.5 425,-739.5 425,-709.5 333,-709.5"/>
<text text-anchor="start" x="341" y="-727.5" font-family="Helvetica,sans-Serif" font-size="10.00">mom_barotropic::find</text>
<text text-anchor="middle" x="379" y="-716.5" font-family="Helvetica,sans-Serif" font-size="10.00">_face_areas</text>
</a>
</g>
</g>
<!-- Node19&#45;&gt;Node21 -->
<g id="edge19" class="edge"><title>Node19&#45;&gt;Node21</title>
<path fill="none" stroke="midnightblue" d="M255.266,-685.064C274.606,-691.278 300.399,-699.566 323.347,-706.939"/>
<polygon fill="midnightblue" stroke="midnightblue" points="322.389,-710.308 332.981,-710.035 324.531,-703.643 322.389,-710.308"/>
</g>
<!-- Node22 -->
<g id="node17" class="node"><title>Node22</title>
<g id="a_node17"><a xlink:href="../../d5/daa/namespacemom__tidal__forcing.html#a0a1564c68489a35802c626a07f4629d7" target="_top" xlink:title="mom_tidal_forcing::\ltidal_forcing_sensitivity">
<polygon fill="white" stroke="black" points="330.5,-660.5 330.5,-690.5 427.5,-690.5 427.5,-660.5 330.5,-660.5"/>
<text text-anchor="start" x="338.5" y="-678.5" font-family="Helvetica,sans-Serif" font-size="10.00">mom_tidal_forcing::</text>
<text text-anchor="middle" x="379" y="-667.5" font-family="Helvetica,sans-Serif" font-size="10.00">tidal_forcing_sensitivity</text>
</a>
</g>
</g>
<!-- Node19&#45;&gt;Node22 -->
<g id="edge21" class="edge"><title>Node19&#45;&gt;Node22</title>
<path fill="none" stroke="midnightblue" d="M278.837,-675.5C292.184,-675.5 306.563,-675.5 320.119,-675.5"/>
<polygon fill="midnightblue" stroke="midnightblue" points="320.294,-679 330.294,-675.5 320.294,-672 320.294,-679"/>
</g>
<!-- Node23&#45;&gt;Node13 -->
<g id="edge23" class="edge"><title>Node23&#45;&gt;Node13</title>
<path fill="none" stroke="midnightblue" d="M288.406,-470.576C332.6,-467.603 391.225,-470.601 434,-498.5 461.66,-516.541 446.36,-540.441 470,-563.5 473.635,-567.045 477.773,-570.272 482.125,-573.183"/>
<polygon fill="midnightblue" stroke="midnightblue" points="480.319,-576.181 490.68,-578.393 483.959,-570.203 480.319,-576.181"/>
</g>
<!-- Node24 -->
<g id="node19" class="node"><title>Node24</title>
<g id="a_node19"><a xlink:href="../../d6/d5d/namespacemom__set__visc.html#a992756b5043feccdafd9580774373375" target="_top" xlink:title="mom_set_visc::set_v_at_u">
<polygon fill="white" stroke="black" points="324,-546 324,-565 434,-565 434,-546 324,-546"/>
<text text-anchor="middle" x="379" y="-553" font-family="Helvetica,sans-Serif" font-size="10.00">mom_set_visc::set_v_at_u</text>
</a>
</g>
</g>
<!-- Node23&#45;&gt;Node24 -->
<g id="edge24" class="edge"><title>Node23&#45;&gt;Node24</title>
<path fill="none" stroke="midnightblue" d="M267.817,-489.09C274.834,-491.587 281.827,-494.683 288,-498.5 307.788,-510.735 304.481,-523.841 324,-536.5 327.101,-538.511 330.44,-540.339 333.883,-541.994"/>
<polygon fill="midnightblue" stroke="midnightblue" points="332.579,-545.243 343.148,-545.98 335.345,-538.813 332.579,-545.243"/>
</g>
<!-- Node25 -->
<g id="node20" class="node"><title>Node25</title>
<g id="a_node20"><a xlink:href="../../d6/d5d/namespacemom__set__visc.html#a08eb74fc6d027dd5ac6701f90e009370" target="_top" xlink:title="mom_set_visc::set_u_at_v">
<polygon fill="white" stroke="black" points="324,-508 324,-527 434,-527 434,-508 324,-508"/>
<text text-anchor="middle" x="379" y="-515" font-family="Helvetica,sans-Serif" font-size="10.00">mom_set_visc::set_u_at_v</text>
</a>
</g>
</g>
<!-- Node23&#45;&gt;Node25 -->
<g id="edge25" class="edge"><title>Node23&#45;&gt;Node25</title>
<path fill="none" stroke="midnightblue" d="M263.982,-489.089C284.016,-494.081 308.702,-500.232 329.976,-505.533"/>
<polygon fill="midnightblue" stroke="midnightblue" points="329.245,-508.958 339.795,-507.98 330.938,-502.166 329.245,-508.958"/>
</g>
<!-- Node26 -->
<g id="node21" class="node"><title>Node26</title>
<g id="a_node21"><a xlink:href="../../d1/d01/namespacemom__eos.html#a204529f8434a0322314e6ce2a9762436" target="_top" xlink:title="Calls the appropriate subroutine to calculate density derivatives for 1&#45;D array inputs. ">
<polygon fill="white" stroke="black" points="335.5,-420.5 335.5,-450.5 422.5,-450.5 422.5,-420.5 335.5,-420.5"/>
<text text-anchor="start" x="343.5" y="-438.5" font-family="Helvetica,sans-Serif" font-size="10.00">mom_eos::calculate</text>
<text text-anchor="middle" x="379" y="-427.5" font-family="Helvetica,sans-Serif" font-size="10.00">_density_derivs</text>
</a>
</g>
</g>
<!-- Node23&#45;&gt;Node26 -->
<g id="edge26" class="edge"><title>Node23&#45;&gt;Node26</title>
<path fill="none" stroke="midnightblue" d="M258.59,-469.953C278.201,-464.294 303.492,-456.997 325.746,-450.576"/>
<polygon fill="midnightblue" stroke="midnightblue" points="326.76,-453.927 335.398,-447.792 324.82,-447.201 326.76,-453.927"/>
</g>
<!-- Node26&#45;&gt;Node13 -->
<g id="edge27" class="edge"><title>Node26&#45;&gt;Node13</title>
<path fill="none" stroke="midnightblue" d="M415.807,-450.624C422.511,-454.694 428.979,-459.633 434,-465.5 464.171,-500.753 439.37,-528.645 470,-563.5 473.008,-566.923 476.502,-570.013 480.253,-572.791"/>
<polygon fill="midnightblue" stroke="midnightblue" points="478.503,-575.828 488.786,-578.379 482.338,-569.972 478.503,-575.828"/>
</g>
<!-- Node27 -->
<g id="node22" class="node"><title>Node27</title>
<g id="a_node22"><a xlink:href="../../d5/de6/namespacemom__eos__linear.html#a73d8a625582247379092adf1aeeb55e0" target="_top" xlink:title="mom_eos_linear::calculate\l_density_derivs_linear">
<polygon fill="white" stroke="black" points="473,-523.5 473,-553.5 584,-553.5 584,-523.5 473,-523.5"/>
<text text-anchor="start" x="481" y="-541.5" font-family="Helvetica,sans-Serif" font-size="10.00">mom_eos_linear::calculate</text>
<text text-anchor="middle" x="528.5" y="-530.5" font-family="Helvetica,sans-Serif" font-size="10.00">_density_derivs_linear</text>
</a>
</g>
</g>
<!-- Node26&#45;&gt;Node27 -->
<g id="edge28" class="edge"><title>Node26&#45;&gt;Node27</title>
<path fill="none" stroke="midnightblue" d="M412.346,-450.501C419.874,-454.773 427.562,-459.829 434,-465.5 454.278,-483.362 448.756,-497.798 470,-514.5 471.594,-515.754 473.264,-516.952 474.989,-518.097"/>
<polygon fill="midnightblue" stroke="midnightblue" points="473.588,-521.334 483.983,-523.383 477.135,-515.299 473.588,-521.334"/>
</g>
<!-- Node28 -->
<g id="node23" class="node"><title>Node28</title>
<g id="a_node23"><a xlink:href="../../dd/d6b/namespacemom__eos__unesco.html#af8666837abadea54c016bf59838f96cc" target="_top" xlink:title="mom_eos_unesco::calculate\l_density_derivs_unesco">
<polygon fill="white" stroke="black" points="470,-474.5 470,-504.5 587,-504.5 587,-474.5 470,-474.5"/>
<text text-anchor="start" x="478" y="-492.5" font-family="Helvetica,sans-Serif" font-size="10.00">mom_eos_unesco::calculate</text>
<text text-anchor="middle" x="528.5" y="-481.5" font-family="Helvetica,sans-Serif" font-size="10.00">_density_derivs_unesco</text>
</a>
</g>
</g>
<!-- Node26&#45;&gt;Node28 -->
<g id="edge29" class="edge"><title>Node26&#45;&gt;Node28</title>
<path fill="none" stroke="midnightblue" d="M421.087,-450.542C438.356,-456.864 458.62,-464.283 476.804,-470.94"/>
<polygon fill="midnightblue" stroke="midnightblue" points="475.784,-474.294 486.378,-474.445 478.191,-467.72 475.784,-474.294"/>
</g>
<!-- Node29 -->
<g id="node24" class="node"><title>Node29</title>
<g id="a_node24"><a xlink:href="../../de/d76/namespacemom__eos__wright.html#ad7748e85ddacb33ad90ec3a9017e6e72" target="_top" xlink:title="mom_eos_wright::calculate\l_density_derivs_wright">
<polygon fill="white" stroke="black" points="472,-425.5 472,-455.5 585,-455.5 585,-425.5 472,-425.5"/>
<text text-anchor="start" x="480" y="-443.5" font-family="Helvetica,sans-Serif" font-size="10.00">mom_eos_wright::calculate</text>
<text text-anchor="middle" x="528.5" y="-432.5" font-family="Helvetica,sans-Serif" font-size="10.00">_density_derivs_wright</text>
</a>
</g>
</g>
<!-- Node26&#45;&gt;Node29 -->
<g id="edge30" class="edge"><title>Node26&#45;&gt;Node29</title>
<path fill="none" stroke="midnightblue" d="M422.663,-436.946C434.867,-437.36 448.461,-437.821 461.709,-438.27"/>
<polygon fill="midnightblue" stroke="midnightblue" points="461.63,-441.769 471.743,-438.61 461.867,-434.773 461.63,-441.769"/>
</g>
<!-- Node30&#45;&gt;Node13 -->
<g id="edge32" class="edge"><title>Node30&#45;&gt;Node13</title>
<path fill="none" stroke="midnightblue" d="M238.029,-527.173C255.962,-540.429 290.496,-563.81 324,-574.5 372.304,-589.912 430.085,-594.038 471.714,-594.676"/>
<polygon fill="midnightblue" stroke="midnightblue" points="471.903,-598.178 481.934,-594.768 471.966,-591.178 471.903,-598.178"/>
</g>
<!-- Node30&#45;&gt;Node24 -->
<g id="edge34" class="edge"><title>Node30&#45;&gt;Node24</title>
<path fill="none" stroke="midnightblue" d="M263.982,-527.089C284.016,-532.081 308.702,-538.232 329.976,-543.533"/>
<polygon fill="midnightblue" stroke="midnightblue" points="329.245,-546.958 339.795,-545.98 330.938,-540.166 329.245,-546.958"/>
</g>
<!-- Node30&#45;&gt;Node25 -->
<g id="edge35" class="edge"><title>Node30&#45;&gt;Node25</title>
<path fill="none" stroke="midnightblue" d="M287.088,-517.5C295.763,-517.5 304.7,-517.5 313.429,-517.5"/>
<polygon fill="midnightblue" stroke="midnightblue" points="313.551,-521 323.551,-517.5 313.551,-514 313.551,-521"/>
</g>
<!-- Node30&#45;&gt;Node26 -->
<g id="edge33" class="edge"><title>Node30&#45;&gt;Node26</title>
<path fill="none" stroke="midnightblue" d="M263.91,-507.913C272.048,-505.309 280.454,-502.172 288,-498.5 311.139,-487.239 334.887,-470.349 352.174,-456.89"/>
<polygon fill="midnightblue" stroke="midnightblue" points="354.449,-459.554 360.111,-450.599 350.1,-454.068 354.449,-459.554"/>
</g>
<!-- Node33 -->
<g id="node28" class="node"><title>Node33</title>
<g id="a_node28"><a xlink:href="../../df/d67/namespacetidal__bay__initialization.html#a6626f241b69cf1d39b0cdf9a30f03032" target="_top" xlink:title="This subroutine sets the properties of flow at open boundary conditions. ">
<polygon fill="white" stroke="black" points="326.5,-49.5 326.5,-79.5 431.5,-79.5 431.5,-49.5 326.5,-49.5"/>
<text text-anchor="start" x="334.5" y="-67.5" font-family="Helvetica,sans-Serif" font-size="10.00">tidal_bay_initialization</text>
<text text-anchor="middle" x="379" y="-56.5" font-family="Helvetica,sans-Serif" font-size="10.00">::tidal_bay_set_obc_data</text>
</a>
</g>
</g>
<!-- Node32&#45;&gt;Node33 -->
<g id="edge38" class="edge"><title>Node32&#45;&gt;Node33</title>
<path fill="none" stroke="midnightblue" d="M275.857,-64.5C288.785,-64.5 302.84,-64.5 316.271,-64.5"/>
<polygon fill="midnightblue" stroke="midnightblue" points="316.391,-68.0001 326.391,-64.5 316.391,-61.0001 316.391,-68.0001"/>
</g>
</g>
</svg>
