<?xml version="1.0" encoding="UTF-8" standalone="no"?>
<!DOCTYPE svg PUBLIC "-//W3C//DTD SVG 1.1//EN"
 "http://www.w3.org/Graphics/SVG/1.1/DTD/svg11.dtd">
<!-- Generated by graphviz version 2.38.0 (20140413.2041)
 -->
<!-- Title: mom_dynamics_split_rk2::initialize_dyn_split_rk2 Pages: 1 -->
<svg width="952pt" height="1291pt"
 viewBox="0.00 0.00 952.00 1290.86" xmlns="http://www.w3.org/2000/svg" xmlns:xlink="http://www.w3.org/1999/xlink">
<g id="graph0" class="graph" transform="scale(1 1) rotate(0) translate(4 1286.86)">
<title>mom_dynamics_split_rk2::initialize_dyn_split_rk2</title>
<polygon fill="white" stroke="none" points="-4,4 -4,-1286.86 948,-1286.86 948,4 -4,4"/>
<!-- Node2 -->
<g id="node1" class="node"><title>Node2</title>
<polygon fill="#bfbfbf" stroke="black" points="0,-304 0,-345 90,-345 90,-304 0,-304"/>
<text text-anchor="start" x="8" y="-333" font-family="Helvetica,sans-Serif" font-size="10.00">mom_dynamics_split</text>
<text text-anchor="start" x="8" y="-322" font-family="Helvetica,sans-Serif" font-size="10.00">_rk2::initialize_dyn</text>
<text text-anchor="middle" x="45" y="-311" font-family="Helvetica,sans-Serif" font-size="10.00">_split_rk2</text>
</g>
<!-- Node3 -->
<g id="node2" class="node"><title>Node3</title>
<g id="a_node2"><a xlink:href="../../dd/da4/namespacemom__continuity.html#a483dba08c6a9574d7fe814cadccd870e" target="_top" xlink:title="mom_continuity::continuity">
<polygon fill="white" stroke="black" points="293,-137 293,-156 403,-156 403,-137 293,-137"/>
<text text-anchor="middle" x="348" y="-144" font-family="Helvetica,sans-Serif" font-size="10.00">mom_continuity::continuity</text>
</a>
</g>
</g>
<!-- Node2&#45;&gt;Node3 -->
<g id="edge1" class="edge"><title>Node2&#45;&gt;Node3</title>
<path fill="none" stroke="midnightblue" d="M75.9957,-303.887C121.688,-272.932 211.981,-213.493 293,-170.5 299.729,-166.929 307.097,-163.411 314.168,-160.215"/>
<polygon fill="midnightblue" stroke="midnightblue" points="315.8,-163.32 323.537,-156.082 312.975,-156.916 315.8,-163.32"/>
</g>
<!-- Node6 -->
<g id="node5" class="node"><title>Node6</title>
<g id="a_node5"><a xlink:href="../../dd/da4/namespacemom__continuity.html#aa08c4a80c95080ec4649e366f5bd3ae8" target="_top" xlink:title="mom_continuity::continuity_init">
<polygon fill="white" stroke="black" points="129.5,-441 129.5,-460 253.5,-460 253.5,-441 129.5,-441"/>
<text text-anchor="middle" x="191.5" y="-448" font-family="Helvetica,sans-Serif" font-size="10.00">mom_continuity::continuity_init</text>
</a>
</g>
</g>
<!-- Node2&#45;&gt;Node6 -->
<g id="edge4" class="edge"><title>Node2&#45;&gt;Node6</title>
<path fill="none" stroke="midnightblue" d="M64.0351,-345.17C79.6096,-362.466 103.148,-387.322 126,-406.5 138.533,-417.018 153.586,-427.399 165.997,-435.434"/>
<polygon fill="midnightblue" stroke="midnightblue" points="164.177,-438.425 174.493,-440.839 167.935,-432.518 164.177,-438.425"/>
</g>
<!-- Node10 -->
<g id="node9" class="node"><title>Node10</title>
<g id="a_node9"><a xlink:href="../../d8/dd2/namespacemom__coriolisadv.html#ad3ce07f23ce7b484a5a9e0c0abe8b1cd" target="_top" xlink:title="mom_coriolisadv::coriolisadv_init">
<polygon fill="white" stroke="black" points="126,-507 126,-526 257,-526 257,-507 126,-507"/>
<text text-anchor="middle" x="191.5" y="-514" font-family="Helvetica,sans-Serif" font-size="10.00">mom_coriolisadv::coriolisadv_init</text>
</a>
</g>
</g>
<!-- Node2&#45;&gt;Node10 -->
<g id="edge11" class="edge"><title>Node2&#45;&gt;Node10</title>
<path fill="none" stroke="midnightblue" d="M54.0185,-345.236C66.27,-375.077 91.869,-430.79 126,-469.5 136.987,-481.961 151.831,-493.059 164.508,-501.338"/>
<polygon fill="midnightblue" stroke="midnightblue" points="162.942,-504.487 173.271,-506.847 166.668,-498.561 162.942,-504.487"/>
</g>
<!-- Node26 -->
<g id="node25" class="node"><title>Node26</title>
<g id="a_node25"><a xlink:href="../../d6/dad/namespacemom__verticalgrid.html#af027c312e660a932b3f430f4c7a9675d" target="_top" xlink:title="Returns the model&#39;s thickness flux units, usually m^3/s or kg/s. ">
<polygon fill="white" stroke="black" points="145,-49.5 145,-79.5 238,-79.5 238,-49.5 145,-49.5"/>
<text text-anchor="start" x="153" y="-67.5" font-family="Helvetica,sans-Serif" font-size="10.00">mom_verticalgrid::get</text>
<text text-anchor="middle" x="191.5" y="-56.5" font-family="Helvetica,sans-Serif" font-size="10.00">_flux_units</text>
</a>
</g>
</g>
<!-- Node2&#45;&gt;Node26 -->
<g id="edge36" class="edge"><title>Node2&#45;&gt;Node26</title>
<path fill="none" stroke="midnightblue" d="M47.8136,-303.993C52.7053,-260.223 69.8605,-156.593 126,-94.5 129.246,-90.9101 133.009,-87.7163 137.056,-84.8814"/>
<polygon fill="midnightblue" stroke="midnightblue" points="139.014,-87.786 145.684,-79.5547 135.337,-81.8295 139.014,-87.786"/>
</g>
<!-- Node27 -->
<g id="node26" class="node"><title>Node27</title>
<g id="a_node26"><a xlink:href="../../df/d8e/namespacemom__hor__visc.html#a15121289da182e9ecb4561f10de335a5" target="_top" xlink:title="mom_hor_visc::hor_visc_init">
<polygon fill="white" stroke="black" points="439,-99 439,-118 555,-118 555,-99 439,-99"/>
<text text-anchor="middle" x="497" y="-106" font-family="Helvetica,sans-Serif" font-size="10.00">mom_hor_visc::hor_visc_init</text>
</a>
</g>
</g>
<!-- Node2&#45;&gt;Node27 -->
<g id="edge37" class="edge"><title>Node2&#45;&gt;Node27</title>
<path fill="none" stroke="midnightblue" d="M53.2629,-303.87C64.5103,-274.734 88.8016,-221.62 126,-190.5 212.142,-118.435 347.913,-106.017 428.829,-105.742"/>
<polygon fill="midnightblue" stroke="midnightblue" points="428.892,-109.242 438.902,-105.77 428.912,-102.242 428.892,-109.242"/>
</g>
<!-- Node28 -->
<g id="node27" class="node"><title>Node28</title>
<g id="a_node27"><a xlink:href="../../df/d8e/namespacemom__hor__visc.html#a9f553282bddb798335a3c7aa8f49bd76" target="_top" xlink:title="mom_hor_visc::horizontal\l_viscosity">
<polygon fill="white" stroke="black" points="138,-888.5 138,-918.5 245,-918.5 245,-888.5 138,-888.5"/>
<text text-anchor="start" x="146" y="-906.5" font-family="Helvetica,sans-Serif" font-size="10.00">mom_hor_visc::horizontal</text>
<text text-anchor="middle" x="191.5" y="-895.5" font-family="Helvetica,sans-Serif" font-size="10.00">_viscosity</text>
</a>
</g>
</g>
<!-- Node2&#45;&gt;Node28 -->
<g id="edge40" class="edge"><title>Node2&#45;&gt;Node28</title>
<path fill="none" stroke="midnightblue" d="M51.1428,-345.107C73.2644,-433.746 160.285,-782.432 184.321,-878.74"/>
<polygon fill="midnightblue" stroke="midnightblue" points="180.934,-879.626 186.752,-888.48 187.726,-877.931 180.934,-879.626"/>
</g>
<!-- Node29 -->
<g id="node28" class="node"><title>Node29</title>
<g id="a_node28"><a xlink:href="../../d6/d5c/namespacemom__pressureforce.html#ab0d856d60f21ad22c3c99f65af8daa92" target="_top" xlink:title="mom_pressureforce::\lpressureforce_init">
<polygon fill="white" stroke="black" points="301.5,-309.5 301.5,-339.5 394.5,-339.5 394.5,-309.5 301.5,-309.5"/>
<text text-anchor="start" x="309.5" y="-327.5" font-family="Helvetica,sans-Serif" font-size="10.00">mom_pressureforce::</text>
<text text-anchor="middle" x="348" y="-316.5" font-family="Helvetica,sans-Serif" font-size="10.00">pressureforce_init</text>
</a>
</g>
</g>
<!-- Node2&#45;&gt;Node29 -->
<g id="edge42" class="edge"><title>Node2&#45;&gt;Node29</title>
<path fill="none" stroke="midnightblue" d="M90.0903,-324.5C143.389,-324.5 233.143,-324.5 291.21,-324.5"/>
<polygon fill="midnightblue" stroke="midnightblue" points="291.311,-328 301.311,-324.5 291.311,-321 291.311,-328"/>
</g>
<!-- Node32 -->
<g id="node31" class="node"><title>Node32</title>
<g id="a_node31"><a xlink:href="../../d5/daa/namespacemom__tidal__forcing.html#aee336a2affeebc78b75845bc6f78a320" target="_top" xlink:title="mom_tidal_forcing::\ltidal_forcing_init">
<polygon fill="white" stroke="black" points="454,-426.5 454,-456.5 540,-456.5 540,-426.5 454,-426.5"/>
<text text-anchor="start" x="462" y="-444.5" font-family="Helvetica,sans-Serif" font-size="10.00">mom_tidal_forcing::</text>
<text text-anchor="middle" x="497" y="-433.5" font-family="Helvetica,sans-Serif" font-size="10.00">tidal_forcing_init</text>
</a>
</g>
</g>
<!-- Node2&#45;&gt;Node32 -->
<g id="edge51" class="edge"><title>Node2&#45;&gt;Node32</title>
<path fill="none" stroke="midnightblue" d="M90.3793,-336.039C174.074,-357.799 354.815,-404.792 444.028,-427.987"/>
<polygon fill="midnightblue" stroke="midnightblue" points="443.365,-431.431 453.924,-430.56 445.127,-424.656 443.365,-431.431"/>
</g>
<!-- Node34 -->
<g id="node33" class="node"><title>Node34</title>
<g id="a_node33"><a xlink:href="../../d9/dcb/namespacemom__vert__friction.html#a62e586a80ed4bdd3fd27ab62ca4c054f" target="_top" xlink:title="Update the CFL truncation value as a function of time. If called with the optional argument activate=...">
<polygon fill="white" stroke="black" points="140,-0.5 140,-30.5 243,-30.5 243,-0.5 140,-0.5"/>
<text text-anchor="start" x="148" y="-18.5" font-family="Helvetica,sans-Serif" font-size="10.00">mom_vert_friction::</text>
<text text-anchor="middle" x="191.5" y="-7.5" font-family="Helvetica,sans-Serif" font-size="10.00">updatecfltruncationvalue</text>
</a>
</g>
</g>
<!-- Node2&#45;&gt;Node34 -->
<g id="edge56" class="edge"><title>Node2&#45;&gt;Node34</title>
<path fill="none" stroke="midnightblue" d="M45.7678,-303.926C46.3096,-252.474 54.8163,-116.817 126,-39.5 127.611,-37.7502 129.361,-36.1275 131.22,-34.6226"/>
<polygon fill="midnightblue" stroke="midnightblue" points="133.613,-37.2317 139.963,-28.7506 129.71,-31.4207 133.613,-37.2317"/>
</g>
<!-- Node4 -->
<g id="node3" class="node"><title>Node4</title>
<g id="a_node3"><a xlink:href="../../d0/de6/namespacemom__error__handler.html#a460cfb79a06c29fc249952c2a3710d67" target="_top" xlink:title="mom_error_handler::\lmom_error">
<polygon fill="white" stroke="black" points="722,-463.5 722,-493.5 815,-493.5 815,-463.5 722,-463.5"/>
<text text-anchor="start" x="730" y="-481.5" font-family="Helvetica,sans-Serif" font-size="10.00">mom_error_handler::</text>
<text text-anchor="middle" x="768.5" y="-470.5" font-family="Helvetica,sans-Serif" font-size="10.00">mom_error</text>
</a>
</g>
</g>
<!-- Node3&#45;&gt;Node4 -->
<g id="edge2" class="edge"><title>Node3&#45;&gt;Node4</title>
<path fill="none" stroke="midnightblue" d="M403.298,-142.901C478.55,-141.151 613.453,-150.299 686,-229.5 745.697,-294.673 761.725,-404.358 765.983,-453.441"/>
<polygon fill="midnightblue" stroke="midnightblue" points="762.499,-453.792 766.761,-463.492 769.478,-453.251 762.499,-453.792"/>
</g>
<!-- Node5 -->
<g id="node4" class="node"><title>Node5</title>
<g id="a_node4"><a xlink:href="../../d0/de6/namespacemom__error__handler.html#ad5f00a53059c72fe2332d1436c80ca71" target="_top" xlink:title="mom_error_handler::\lis_root_pe">
<polygon fill="white" stroke="black" points="851,-830.5 851,-860.5 944,-860.5 944,-830.5 851,-830.5"/>
<text text-anchor="start" x="859" y="-848.5" font-family="Helvetica,sans-Serif" font-size="10.00">mom_error_handler::</text>
<text text-anchor="middle" x="897.5" y="-837.5" font-family="Helvetica,sans-Serif" font-size="10.00">is_root_pe</text>
</a>
</g>
</g>
<!-- Node4&#45;&gt;Node5 -->
<g id="edge3" class="edge"><title>Node4&#45;&gt;Node5</title>
<path fill="none" stroke="midnightblue" d="M774.795,-493.802C794.442,-550.578 863.289,-749.527 887.774,-820.285"/>
<polygon fill="midnightblue" stroke="midnightblue" points="884.604,-821.827 891.182,-830.132 891.219,-819.538 884.604,-821.827"/>
</g>
<!-- Node6&#45;&gt;Node4 -->
<g id="edge7" class="edge"><title>Node6&#45;&gt;Node4</title>
<path fill="none" stroke="midnightblue" d="M253.52,-456.526C331.642,-463.911 471.231,-475.998 591,-480.5 633.192,-482.086 643.781,-481.018 686,-480.5 694.341,-480.398 703.161,-480.236 711.798,-480.049"/>
<polygon fill="midnightblue" stroke="midnightblue" points="711.896,-483.548 721.813,-479.819 711.735,-476.55 711.896,-483.548"/>
</g>
<!-- Node7 -->
<g id="node6" class="node"><title>Node7</title>
<g id="a_node6"><a xlink:href="../../d9/def/namespacemom__file__parser.html#a17c0ef1bb1912f02faa0aaa1e0f64210" target="_top" xlink:title="mom_file_parser::log\l_version">
<polygon fill="white" stroke="black" points="592.5,-239.5 592.5,-269.5 684.5,-269.5 684.5,-239.5 592.5,-239.5"/>
<text text-anchor="start" x="600.5" y="-257.5" font-family="Helvetica,sans-Serif" font-size="10.00">mom_file_parser::log</text>
<text text-anchor="middle" x="638.5" y="-246.5" font-family="Helvetica,sans-Serif" font-size="10.00">_version</text>
</a>
</g>
</g>
<!-- Node6&#45;&gt;Node7 -->
<g id="edge5" class="edge"><title>Node6&#45;&gt;Node7</title>
<path fill="none" stroke="midnightblue" d="M194.976,-440.877C205.863,-399.391 250.811,-236.662 293,-208.5 389.85,-143.851 442.301,-179.204 555,-208.5 574.238,-213.501 593.753,-224.079 608.971,-233.831"/>
<polygon fill="midnightblue" stroke="midnightblue" points="607.133,-236.812 617.399,-239.429 611.006,-230.981 607.133,-236.812"/>
</g>
<!-- Node8 -->
<g id="node7" class="node"><title>Node8</title>
<g id="a_node7"><a xlink:href="../../d0/de6/namespacemom__error__handler.html#a1c462df7b61f1296407b4af51dfeceab" target="_top" xlink:title="mom_error_handler::\lmom_mesg">
<polygon fill="white" stroke="black" points="301.5,-853.5 301.5,-883.5 394.5,-883.5 394.5,-853.5 301.5,-853.5"/>
<text text-anchor="start" x="309.5" y="-871.5" font-family="Helvetica,sans-Serif" font-size="10.00">mom_error_handler::</text>
<text text-anchor="middle" x="348" y="-860.5" font-family="Helvetica,sans-Serif" font-size="10.00">mom_mesg</text>
</a>
</g>
</g>
<!-- Node6&#45;&gt;Node8 -->
<g id="edge8" class="edge"><title>Node6&#45;&gt;Node8</title>
<path fill="none" stroke="midnightblue" d="M213.642,-460.015C228.414,-467.852 247.186,-480.448 257,-497.5 334.341,-631.883 201.907,-719.031 293,-844.5 293.463,-845.138 293.948,-845.76 294.451,-846.365"/>
<polygon fill="midnightblue" stroke="midnightblue" points="292.241,-849.09 301.941,-853.352 297.016,-843.971 292.241,-849.09"/>
</g>
<!-- Node9 -->
<g id="node8" class="node"><title>Node9</title>
<g id="a_node8"><a xlink:href="../../df/d46/namespacemom__string__functions.html#aca148baf726de2f028b7e7baad3c85d4" target="_top" xlink:title="mom_string_functions\l::uppercase">
<polygon fill="white" stroke="black" points="300.5,-479.5 300.5,-509.5 395.5,-509.5 395.5,-479.5 300.5,-479.5"/>
<text text-anchor="start" x="308.5" y="-497.5" font-family="Helvetica,sans-Serif" font-size="10.00">mom_string_functions</text>
<text text-anchor="middle" x="348" y="-486.5" font-family="Helvetica,sans-Serif" font-size="10.00">::uppercase</text>
</a>
</g>
</g>
<!-- Node6&#45;&gt;Node9 -->
<g id="edge10" class="edge"><title>Node6&#45;&gt;Node9</title>
<path fill="none" stroke="midnightblue" d="M226.024,-460.047C244.88,-465.417 268.918,-472.263 290.591,-478.435"/>
<polygon fill="midnightblue" stroke="midnightblue" points="289.779,-481.843 300.355,-481.216 291.696,-475.111 289.779,-481.843"/>
</g>
<!-- Node7&#45;&gt;Node5 -->
<g id="edge6" class="edge"><title>Node7&#45;&gt;Node5</title>
<path fill="none" stroke="midnightblue" d="M658.188,-269.509C694.738,-299.979 775.547,-373.059 815,-453.5 877.789,-581.521 892.282,-756.071 895.563,-820.383"/>
<polygon fill="midnightblue" stroke="midnightblue" points="892.068,-820.58 896.026,-830.408 899.06,-820.257 892.068,-820.58"/>
</g>
<!-- Node8&#45;&gt;Node5 -->
<g id="edge9" class="edge"><title>Node8&#45;&gt;Node5</title>
<path fill="none" stroke="midnightblue" d="M350.657,-883.798C357.545,-944.206 386.049,-1164.83 439,-1205.5 571.536,-1307.29 684.439,-1309.81 815,-1205.5 867.859,-1163.27 888.967,-945.774 894.74,-870.878"/>
<polygon fill="midnightblue" stroke="midnightblue" points="898.259,-870.746 895.51,-860.514 891.278,-870.227 898.259,-870.746"/>
</g>
<!-- Node10&#45;&gt;Node4 -->
<g id="edge13" class="edge"><title>Node10&#45;&gt;Node4</title>
<path fill="none" stroke="midnightblue" d="M257.102,-517.975C269.038,-518.194 281.395,-518.385 293,-518.5 467.957,-520.241 512.83,-520.498 686,-495.5 694.431,-494.283 703.3,-492.725 711.958,-491.048"/>
<polygon fill="midnightblue" stroke="midnightblue" points="712.87,-494.435 721.987,-489.038 711.494,-487.572 712.87,-494.435"/>
</g>
<!-- Node10&#45;&gt;Node7 -->
<g id="edge12" class="edge"><title>Node10&#45;&gt;Node7</title>
<path fill="none" stroke="midnightblue" d="M212.505,-506.998C227.099,-499.023 246.151,-486.245 257,-469.5 298.993,-404.683 240.731,-356.356 293,-299.5 365.959,-220.138 504.958,-229.655 582.225,-242.632"/>
<polygon fill="midnightblue" stroke="midnightblue" points="581.793,-246.11 592.248,-244.393 583.004,-239.215 581.793,-246.11"/>
</g>
<!-- Node10&#45;&gt;Node8 -->
<g id="edge14" class="edge"><title>Node10&#45;&gt;Node8</title>
<path fill="none" stroke="midnightblue" d="M192.68,-526.199C193.987,-569.196 204.735,-744.862 293,-844.5 293.748,-845.345 294.532,-846.161 295.347,-846.95"/>
<polygon fill="midnightblue" stroke="midnightblue" points="293.386,-849.862 303.396,-853.335 297.736,-844.378 293.386,-849.862"/>
</g>
<!-- Node10&#45;&gt;Node9 -->
<g id="edge35" class="edge"><title>Node10&#45;&gt;Node9</title>
<path fill="none" stroke="midnightblue" d="M257.127,-507.297C268.155,-505.727 279.537,-504.106 290.339,-502.568"/>
<polygon fill="midnightblue" stroke="midnightblue" points="291.081,-505.998 300.488,-501.123 290.094,-499.068 291.081,-505.998"/>
</g>
<!-- Node11 -->
<g id="node10" class="node"><title>Node11</title>
<g id="a_node10"><a xlink:href="../../d9/d06/namespacemom__diag__mediator.html#aab2007573b14ed73053282770d1b19a4" target="_top" xlink:title="mom_diag_mediator::\lregister_diag_field">
<polygon fill="white" stroke="black" points="300.5,-804.5 300.5,-834.5 395.5,-834.5 395.5,-804.5 300.5,-804.5"/>
<text text-anchor="start" x="308.5" y="-822.5" font-family="Helvetica,sans-Serif" font-size="10.00">mom_diag_mediator::</text>
<text text-anchor="middle" x="348" y="-811.5" font-family="Helvetica,sans-Serif" font-size="10.00">register_diag_field</text>
</a>
</g>
</g>
<!-- Node10&#45;&gt;Node11 -->
<g id="edge15" class="edge"><title>Node10&#45;&gt;Node11</title>
<path fill="none" stroke="midnightblue" d="M197.466,-526.238C218.743,-567.968 302.589,-732.403 334.542,-795.067"/>
<polygon fill="midnightblue" stroke="midnightblue" points="331.546,-796.897 339.207,-804.216 337.782,-793.717 331.546,-796.897"/>
</g>
<!-- Node11&#45;&gt;Node4 -->
<g id="edge31" class="edge"><title>Node11&#45;&gt;Node4</title>
<path fill="none" stroke="midnightblue" d="M352.178,-804.441C360.182,-770.513 384.545,-687.986 439,-648.5 529.149,-583.133 593.232,-668.093 686,-606.5 723.498,-581.603 747.246,-532.924 758.895,-503.297"/>
<polygon fill="midnightblue" stroke="midnightblue" points="762.266,-504.274 762.513,-493.682 755.715,-501.809 762.266,-504.274"/>
</g>
<!-- Node11&#45;&gt;Node5 -->
<g id="edge26" class="edge"><title>Node11&#45;&gt;Node5</title>
<path fill="none" stroke="midnightblue" d="M392.796,-834.579C396.706,-837.362 400.226,-840.641 403,-844.5 445.8,-904.039 384.395,-1123.56 439,-1172.5 479.875,-1209.13 637.815,-1198.79 686,-1172.5 808.114,-1105.88 870.015,-934.691 889.528,-870.398"/>
<polygon fill="midnightblue" stroke="midnightblue" points="892.919,-871.273 892.396,-860.691 886.206,-869.29 892.919,-871.273"/>
</g>
<!-- Node12 -->
<g id="node11" class="node"><title>Node12</title>
<g id="a_node11"><a xlink:href="../../d9/d06/namespacemom__diag__mediator.html#a1b0bed2113a0c268eafd1bafbb48bd4f" target="_top" xlink:title="mom_diag_mediator::\lalloc_diag_with_id">
<polygon fill="white" stroke="black" points="449.5,-926.5 449.5,-956.5 544.5,-956.5 544.5,-926.5 449.5,-926.5"/>
<text text-anchor="start" x="457.5" y="-944.5" font-family="Helvetica,sans-Serif" font-size="10.00">mom_diag_mediator::</text>
<text text-anchor="middle" x="497" y="-933.5" font-family="Helvetica,sans-Serif" font-size="10.00">alloc_diag_with_id</text>
</a>
</g>
</g>
<!-- Node11&#45;&gt;Node12 -->
<g id="edge16" class="edge"><title>Node11&#45;&gt;Node12</title>
<path fill="none" stroke="midnightblue" d="M389.622,-834.516C394.47,-837.364 399.081,-840.676 403,-844.5 428.892,-869.764 412.669,-892.694 439,-917.5 440.123,-918.558 441.3,-919.574 442.521,-920.547"/>
<polygon fill="midnightblue" stroke="midnightblue" points="440.878,-923.662 451.117,-926.383 444.81,-917.87 440.878,-923.662"/>
</g>
<!-- Node13 -->
<g id="node12" class="node"><title>Node13</title>
<g id="a_node12"><a xlink:href="../../d9/d06/namespacemom__diag__mediator.html#a6e11afe7a97bf8e3333d33b0aebd6f6e" target="_top" xlink:title="mom_diag_mediator::\lassert">
<polygon fill="white" stroke="black" points="591,-655.5 591,-685.5 686,-685.5 686,-655.5 591,-655.5"/>
<text text-anchor="start" x="599" y="-673.5" font-family="Helvetica,sans-Serif" font-size="10.00">mom_diag_mediator::</text>
<text text-anchor="middle" x="638.5" y="-662.5" font-family="Helvetica,sans-Serif" font-size="10.00">assert</text>
</a>
</g>
</g>
<!-- Node11&#45;&gt;Node13 -->
<g id="edge17" class="edge"><title>Node11&#45;&gt;Node13</title>
<path fill="none" stroke="midnightblue" d="M352.966,-804.308C362.066,-772.951 387.718,-701.574 439,-672.5 481.93,-648.161 538.94,-650.425 580.846,-657.145"/>
<polygon fill="midnightblue" stroke="midnightblue" points="580.437,-660.626 590.887,-658.886 581.632,-653.729 580.437,-660.626"/>
</g>
<!-- Node14 -->
<g id="node13" class="node"><title>Node14</title>
<g id="a_node13"><a xlink:href="../../d9/d06/namespacemom__diag__mediator.html#a93abbf0b9659019bed9a2129ab292752" target="_top" xlink:title="Attaches &quot;cell_methods&quot; attribute to a variable based on defaults for axes_grp or optional arguments...">
<polygon fill="white" stroke="black" points="591,-567.5 591,-597.5 686,-597.5 686,-567.5 591,-567.5"/>
<text text-anchor="start" x="599" y="-585.5" font-family="Helvetica,sans-Serif" font-size="10.00">mom_diag_mediator::</text>
<text text-anchor="middle" x="638.5" y="-574.5" font-family="Helvetica,sans-Serif" font-size="10.00">attach_cell_methods</text>
</a>
</g>
</g>
<!-- Node11&#45;&gt;Node14 -->
<g id="edge19" class="edge"><title>Node11&#45;&gt;Node14</title>
<path fill="none" stroke="midnightblue" d="M350.076,-804.35C353.865,-763.568 370.364,-651.14 439,-600.5 479.343,-570.735 537.602,-568.896 580.575,-572.907"/>
<polygon fill="midnightblue" stroke="midnightblue" points="580.285,-576.395 590.599,-573.973 581.025,-569.435 580.285,-576.395"/>
</g>
<!-- Node15 -->
<g id="node14" class="node"><title>Node15</title>
<g id="a_node14"><a xlink:href="../../d9/d06/namespacemom__diag__mediator.html#a3f7442639213320f7429e2288a79fda2" target="_top" xlink:title="Returns a new diagnostic id, it may be necessary to expand the diagnostics array. ...">
<polygon fill="white" stroke="black" points="449.5,-681.5 449.5,-711.5 544.5,-711.5 544.5,-681.5 449.5,-681.5"/>
<text text-anchor="start" x="457.5" y="-699.5" font-family="Helvetica,sans-Serif" font-size="10.00">mom_diag_mediator::</text>
<text text-anchor="middle" x="497" y="-688.5" font-family="Helvetica,sans-Serif" font-size="10.00">get_new_diag_id</text>
</a>
</g>
</g>
<!-- Node11&#45;&gt;Node15 -->
<g id="edge21" class="edge"><title>Node11&#45;&gt;Node15</title>
<path fill="none" stroke="midnightblue" d="M359.658,-804.41C375.105,-783.45 405.55,-745.412 439,-721.5 441.512,-719.704 444.174,-717.998 446.92,-716.383"/>
<polygon fill="midnightblue" stroke="midnightblue" points="448.76,-719.368 455.901,-711.542 445.438,-713.206 448.76,-719.368"/>
</g>
<!-- Node17 -->
<g id="node16" class="node"><title>Node17</title>
<g id="a_node16"><a xlink:href="../../d9/d06/namespacemom__diag__mediator.html#a4b739f107cebe1ece8d29056c1144bff" target="_top" xlink:title="mom_diag_mediator::\lis_b_axes">
<polygon fill="white" stroke="black" points="449.5,-877.5 449.5,-907.5 544.5,-907.5 544.5,-877.5 449.5,-877.5"/>
<text text-anchor="start" x="457.5" y="-895.5" font-family="Helvetica,sans-Serif" font-size="10.00">mom_diag_mediator::</text>
<text text-anchor="middle" x="497" y="-884.5" font-family="Helvetica,sans-Serif" font-size="10.00">is_b_axes</text>
</a>
</g>
</g>
<!-- Node11&#45;&gt;Node17 -->
<g id="edge24" class="edge"><title>Node11&#45;&gt;Node17</title>
<path fill="none" stroke="midnightblue" d="M383.679,-834.589C390.189,-837.692 396.872,-841.066 403,-844.5 419.775,-853.901 422.063,-859.395 439,-868.5 442.023,-870.125 445.181,-871.719 448.391,-873.264"/>
<polygon fill="midnightblue" stroke="midnightblue" points="446.966,-876.461 457.512,-877.472 449.899,-870.104 446.966,-876.461"/>
</g>
<!-- Node18 -->
<g id="node17" class="node"><title>Node18</title>
<g id="a_node17"><a xlink:href="../../d9/d06/namespacemom__diag__mediator.html#a84370fa96e03622edbfd5e343bcd9718" target="_top" xlink:title="mom_diag_mediator::\lis_layer_axes">
<polygon fill="white" stroke="black" points="449.5,-828.5 449.5,-858.5 544.5,-858.5 544.5,-828.5 449.5,-828.5"/>
<text text-anchor="start" x="457.5" y="-846.5" font-family="Helvetica,sans-Serif" font-size="10.00">mom_diag_mediator::</text>
<text text-anchor="middle" x="497" y="-835.5" font-family="Helvetica,sans-Serif" font-size="10.00">is_layer_axes</text>
</a>
</g>
</g>
<!-- Node11&#45;&gt;Node18 -->
<g id="edge25" class="edge"><title>Node11&#45;&gt;Node18</title>
<path fill="none" stroke="midnightblue" d="M395.512,-827.094C409.454,-829.37 424.9,-831.892 439.416,-834.262"/>
<polygon fill="midnightblue" stroke="midnightblue" points="438.853,-837.716 449.286,-835.873 439.981,-830.808 438.853,-837.716"/>
</g>
<!-- Node19 -->
<g id="node18" class="node"><title>Node19</title>
<g id="a_node18"><a xlink:href="../../d9/d06/namespacemom__diag__mediator.html#a27fa63c9ff62b660bf457adbb8645bdf" target="_top" xlink:title="mom_diag_mediator::\lis_u_axes">
<polygon fill="white" stroke="black" points="449.5,-779.5 449.5,-809.5 544.5,-809.5 544.5,-779.5 449.5,-779.5"/>
<text text-anchor="start" x="457.5" y="-797.5" font-family="Helvetica,sans-Serif" font-size="10.00">mom_diag_mediator::</text>
<text text-anchor="middle" x="497" y="-786.5" font-family="Helvetica,sans-Serif" font-size="10.00">is_u_axes</text>
</a>
</g>
</g>
<!-- Node11&#45;&gt;Node19 -->
<g id="edge27" class="edge"><title>Node11&#45;&gt;Node19</title>
<path fill="none" stroke="midnightblue" d="M395.512,-811.59C409.454,-809.219 424.9,-806.592 439.416,-804.123"/>
<polygon fill="midnightblue" stroke="midnightblue" points="440.015,-807.572 449.286,-802.445 438.841,-800.671 440.015,-807.572"/>
</g>
<!-- Node20 -->
<g id="node19" class="node"><title>Node20</title>
<g id="a_node19"><a xlink:href="../../d9/d06/namespacemom__diag__mediator.html#a9a30d653d812713d6fcff94f6f1fc3e6" target="_top" xlink:title="mom_diag_mediator::\lis_v_axes">
<polygon fill="white" stroke="black" points="449.5,-730.5 449.5,-760.5 544.5,-760.5 544.5,-730.5 449.5,-730.5"/>
<text text-anchor="start" x="457.5" y="-748.5" font-family="Helvetica,sans-Serif" font-size="10.00">mom_diag_mediator::</text>
<text text-anchor="middle" x="497" y="-737.5" font-family="Helvetica,sans-Serif" font-size="10.00">is_v_axes</text>
</a>
</g>
</g>
<!-- Node11&#45;&gt;Node20 -->
<g id="edge28" class="edge"><title>Node11&#45;&gt;Node20</title>
<path fill="none" stroke="midnightblue" d="M375.467,-804.316C393.234,-794.317 417.276,-781.154 439,-770.5 442.982,-768.547 447.153,-766.578 451.349,-764.647"/>
<polygon fill="midnightblue" stroke="midnightblue" points="452.842,-767.813 460.513,-760.505 449.959,-761.435 452.842,-767.813"/>
</g>
<!-- Node21 -->
<g id="node20" class="node"><title>Node21</title>
<g id="a_node20"><a xlink:href="../../d9/d06/namespacemom__diag__mediator.html#a65fe8d329cf5dbfd08c98874a7a64407" target="_top" xlink:title="Log a diagnostic to the available diagnostics file. ">
<polygon fill="white" stroke="black" points="449.5,-1132.5 449.5,-1162.5 544.5,-1162.5 544.5,-1132.5 449.5,-1132.5"/>
<text text-anchor="start" x="457.5" y="-1150.5" font-family="Helvetica,sans-Serif" font-size="10.00">mom_diag_mediator::</text>
<text text-anchor="middle" x="497" y="-1139.5" font-family="Helvetica,sans-Serif" font-size="10.00">log_available_diag</text>
</a>
</g>
</g>
<!-- Node11&#45;&gt;Node21 -->
<g id="edge29" class="edge"><title>Node11&#45;&gt;Node21</title>
<path fill="none" stroke="midnightblue" d="M392.723,-834.632C396.646,-837.406 400.19,-840.668 403,-844.5 476.939,-945.322 363.305,-1023.99 439,-1123.5 439.804,-1124.56 440.664,-1125.57 441.572,-1126.54"/>
<polygon fill="midnightblue" stroke="midnightblue" points="439.461,-1129.33 449.357,-1133.12 443.981,-1123.99 439.461,-1129.33"/>
</g>
<!-- Node23 -->
<g id="node22" class="node"><title>Node23</title>
<g id="a_node22"><a xlink:href="../../d9/d06/namespacemom__diag__mediator.html#aca4a32fea8dade9f51e076a56b9bad2b" target="_top" xlink:title="Returns ID from register_diag_field_fms (the diag_manager routine) after expanding axes (axes&#45;group) ...">
<polygon fill="white" stroke="black" points="449.5,-1073 449.5,-1114 544.5,-1114 544.5,-1073 449.5,-1073"/>
<text text-anchor="start" x="457.5" y="-1102" font-family="Helvetica,sans-Serif" font-size="10.00">mom_diag_mediator::</text>
<text text-anchor="start" x="457.5" y="-1091" font-family="Helvetica,sans-Serif" font-size="10.00">register_diag_field</text>
<text text-anchor="middle" x="497" y="-1080" font-family="Helvetica,sans-Serif" font-size="10.00">_expand_axes</text>
</a>
</g>
</g>
<!-- Node11&#45;&gt;Node23 -->
<g id="edge32" class="edge"><title>Node11&#45;&gt;Node23</title>
<path fill="none" stroke="midnightblue" d="M392.334,-834.551C396.384,-837.344 400.063,-840.634 403,-844.5 462.938,-923.392 380.534,-984.511 439,-1064.5 439.901,-1065.73 440.869,-1066.92 441.896,-1068.05"/>
<polygon fill="midnightblue" stroke="midnightblue" points="439.653,-1070.74 449.404,-1074.89 444.366,-1065.57 439.653,-1070.74"/>
</g>
<!-- Node24 -->
<g id="node23" class="node"><title>Node24</title>
<g id="a_node23"><a xlink:href="../../d9/d06/namespacemom__diag__mediator.html#a085f313357879a914af6450f2ab8ec79" target="_top" xlink:title="mom_diag_mediator::\lset_diag_mask">
<polygon fill="white" stroke="black" points="449.5,-1024.5 449.5,-1054.5 544.5,-1054.5 544.5,-1024.5 449.5,-1024.5"/>
<text text-anchor="start" x="457.5" y="-1042.5" font-family="Helvetica,sans-Serif" font-size="10.00">mom_diag_mediator::</text>
<text text-anchor="middle" x="497" y="-1031.5" font-family="Helvetica,sans-Serif" font-size="10.00">set_diag_mask</text>
</a>
</g>
</g>
<!-- Node11&#45;&gt;Node24 -->
<g id="edge33" class="edge"><title>Node11&#45;&gt;Node24</title>
<path fill="none" stroke="midnightblue" d="M391.9,-834.509C396.083,-837.317 399.911,-840.62 403,-844.5 451.373,-905.262 389.57,-955.595 439,-1015.5 439.826,-1016.5 440.702,-1017.46 441.62,-1018.38"/>
<polygon fill="midnightblue" stroke="midnightblue" points="439.42,-1021.11 449.387,-1024.7 443.837,-1015.67 439.42,-1021.11"/>
</g>
<!-- Node25 -->
<g id="node24" class="node"><title>Node25</title>
<g id="a_node24"><a xlink:href="../../d9/d06/namespacemom__diag__mediator.html#a5d1e1aa53cdd6bb335a6f841eded4f46" target="_top" xlink:title="mom_diag_mediator::\lset_diag_remap_axes">
<polygon fill="white" stroke="black" points="449.5,-975.5 449.5,-1005.5 544.5,-1005.5 544.5,-975.5 449.5,-975.5"/>
<text text-anchor="start" x="457.5" y="-993.5" font-family="Helvetica,sans-Serif" font-size="10.00">mom_diag_mediator::</text>
<text text-anchor="middle" x="497" y="-982.5" font-family="Helvetica,sans-Serif" font-size="10.00">set_diag_remap_axes</text>
</a>
</g>
</g>
<!-- Node11&#45;&gt;Node25 -->
<g id="edge34" class="edge"><title>Node11&#45;&gt;Node25</title>
<path fill="none" stroke="midnightblue" d="M391.334,-834.586C395.673,-837.387 399.692,-840.668 403,-844.5 439.939,-887.296 401.316,-924.358 439,-966.5 439.866,-967.468 440.777,-968.398 441.727,-969.292"/>
<polygon fill="midnightblue" stroke="midnightblue" points="439.628,-972.093 449.676,-975.452 443.915,-966.56 439.628,-972.093"/>
</g>
<!-- Node13&#45;&gt;Node4 -->
<g id="edge18" class="edge"><title>Node13&#45;&gt;Node4</title>
<path fill="none" stroke="midnightblue" d="M668.416,-655.243C674.719,-651.037 680.992,-646.074 686,-640.5 723.185,-599.114 747.868,-537.669 759.591,-503.58"/>
<polygon fill="midnightblue" stroke="midnightblue" points="762.965,-504.526 762.812,-493.932 756.325,-502.309 762.965,-504.526"/>
</g>
<!-- Node14&#45;&gt;Node4 -->
<g id="edge20" class="edge"><title>Node14&#45;&gt;Node4</title>
<path fill="none" stroke="midnightblue" d="M664.632,-567.352C671.706,-562.805 679.296,-557.651 686,-552.5 706.969,-536.39 729.078,-516.079 744.97,-500.812"/>
<polygon fill="midnightblue" stroke="midnightblue" points="747.497,-503.238 752.24,-493.764 742.624,-498.212 747.497,-503.238"/>
</g>
<!-- Node15&#45;&gt;Node13 -->
<g id="edge22" class="edge"><title>Node15&#45;&gt;Node13</title>
<path fill="none" stroke="midnightblue" d="M544.84,-687.77C556.341,-685.626 568.778,-683.308 580.693,-681.088"/>
<polygon fill="midnightblue" stroke="midnightblue" points="581.357,-684.524 590.547,-679.251 580.075,-677.643 581.357,-684.524"/>
</g>
<!-- Node16 -->
<g id="node15" class="node"><title>Node16</title>
<g id="a_node15"><a xlink:href="../../d9/d06/namespacemom__diag__mediator.html#a883862f004e30bbc5211f38635511ba0" target="_top" xlink:title="Initializes a diag_type (used after allocating new memory) ">
<polygon fill="white" stroke="black" points="591,-704.5 591,-734.5 686,-734.5 686,-704.5 591,-704.5"/>
<text text-anchor="start" x="599" y="-722.5" font-family="Helvetica,sans-Serif" font-size="10.00">mom_diag_mediator::</text>
<text text-anchor="middle" x="638.5" y="-711.5" font-family="Helvetica,sans-Serif" font-size="10.00">initialize_diag_type</text>
</a>
</g>
</g>
<!-- Node15&#45;&gt;Node16 -->
<g id="edge23" class="edge"><title>Node15&#45;&gt;Node16</title>
<path fill="none" stroke="midnightblue" d="M544.84,-704.223C556.226,-706.1 568.53,-708.129 580.335,-710.075"/>
<polygon fill="midnightblue" stroke="midnightblue" points="580.11,-713.585 590.547,-711.759 581.249,-706.678 580.11,-713.585"/>
</g>
<!-- Node22 -->
<g id="node21" class="node"><title>Node22</title>
<g id="a_node21"><a xlink:href="../../d9/d06/namespacemom__diag__mediator.html#ae002ca447acba252bf7bdc042e75a01e" target="_top" xlink:title="mom_diag_mediator::\ldescribe_option">
<polygon fill="white" stroke="black" points="591,-1132.5 591,-1162.5 686,-1162.5 686,-1132.5 591,-1132.5"/>
<text text-anchor="start" x="599" y="-1150.5" font-family="Helvetica,sans-Serif" font-size="10.00">mom_diag_mediator::</text>
<text text-anchor="middle" x="638.5" y="-1139.5" font-family="Helvetica,sans-Serif" font-size="10.00">describe_option</text>
</a>
</g>
</g>
<!-- Node21&#45;&gt;Node22 -->
<g id="edge30" class="edge"><title>Node21&#45;&gt;Node22</title>
<path fill="none" stroke="midnightblue" d="M544.84,-1147.5C556.226,-1147.5 568.53,-1147.5 580.335,-1147.5"/>
<polygon fill="midnightblue" stroke="midnightblue" points="580.547,-1151 590.547,-1147.5 580.547,-1144 580.547,-1151"/>
</g>
<!-- Node27&#45;&gt;Node4 -->
<g id="edge38" class="edge"><title>Node27&#45;&gt;Node4</title>
<path fill="none" stroke="midnightblue" d="M555.117,-99.9935C596.475,-97.2112 651.039,-101.01 686,-132.5 734.195,-175.911 758.193,-381.321 765.236,-453.416"/>
<polygon fill="midnightblue" stroke="midnightblue" points="761.757,-453.802 766.188,-463.425 768.725,-453.139 761.757,-453.802"/>
</g>
<!-- Node27&#45;&gt;Node7 -->
<g id="edge39" class="edge"><title>Node27&#45;&gt;Node7</title>
<path fill="none" stroke="midnightblue" d="M507.153,-118.079C529.038,-140.985 584.877,-199.425 615.899,-231.892"/>
<polygon fill="midnightblue" stroke="midnightblue" points="613.412,-234.356 622.851,-239.169 618.473,-229.52 613.412,-234.356"/>
</g>
<!-- Node28&#45;&gt;Node4 -->
<g id="edge41" class="edge"><title>Node28&#45;&gt;Node4</title>
<path fill="none" stroke="midnightblue" d="M200.391,-918.777C226.451,-967.318 315.214,-1118.03 439,-1172.5 539.481,-1216.71 603.973,-1245.46 686,-1172.5 737.093,-1127.06 761.405,-623.358 766.479,-503.831"/>
<polygon fill="midnightblue" stroke="midnightblue" points="769.978,-503.923 766.898,-493.786 762.984,-503.631 769.978,-503.923"/>
</g>
<!-- Node29&#45;&gt;Node4 -->
<g id="edge43" class="edge"><title>Node29&#45;&gt;Node4</title>
<path fill="none" stroke="midnightblue" d="M369.735,-339.651C387.313,-351.753 413.641,-368.178 439,-377.5 543.586,-415.948 583.17,-377.577 686,-420.5 706.959,-429.249 727.774,-444.196 743.122,-456.725"/>
<polygon fill="midnightblue" stroke="midnightblue" points="741.143,-459.633 751.052,-463.382 745.643,-454.272 741.143,-459.633"/>
</g>
<!-- Node29&#45;&gt;Node7 -->
<g id="edge44" class="edge"><title>Node29&#45;&gt;Node7</title>
<path fill="none" stroke="midnightblue" d="M373.652,-309.309C391.226,-299.208 415.763,-286.547 439,-279.5 486.089,-265.219 541.85,-259.088 582.264,-256.46"/>
<polygon fill="midnightblue" stroke="midnightblue" points="582.68,-259.941 592.453,-255.85 582.262,-252.954 582.68,-259.941"/>
</g>
<!-- Node30 -->
<g id="node29" class="node"><title>Node30</title>
<g id="a_node29"><a xlink:href="../../d3/d77/namespacemom__pressureforce__afv.html#a443f95a60b35b33a872264f6bacf4554" target="_top" xlink:title="mom_pressureforce_afv\l::pressureforce_afv_init">
<polygon fill="white" stroke="black" points="445,-338.5 445,-368.5 549,-368.5 549,-338.5 445,-338.5"/>
<text text-anchor="start" x="453" y="-356.5" font-family="Helvetica,sans-Serif" font-size="10.00">mom_pressureforce_afv</text>
<text text-anchor="middle" x="497" y="-345.5" font-family="Helvetica,sans-Serif" font-size="10.00">::pressureforce_afv_init</text>
</a>
</g>
</g>
<!-- Node29&#45;&gt;Node30 -->
<g id="edge45" class="edge"><title>Node29&#45;&gt;Node30</title>
<path fill="none" stroke="midnightblue" d="M394.706,-333.517C407.4,-336.021 421.39,-338.781 434.816,-341.43"/>
<polygon fill="midnightblue" stroke="midnightblue" points="434.454,-344.926 444.943,-343.427 435.809,-338.058 434.454,-344.926"/>
</g>
<!-- Node31 -->
<g id="node30" class="node"><title>Node31</title>
<g id="a_node30"><a xlink:href="../../d9/dc4/namespacemom__pressureforce__mont.html#a560267f015d03452d92aca82f6a46b14" target="_top" xlink:title="mom_pressureforce_mont\l::pressureforce_mont_init">
<polygon fill="white" stroke="black" points="441.5,-289.5 441.5,-319.5 552.5,-319.5 552.5,-289.5 441.5,-289.5"/>
<text text-anchor="start" x="449.5" y="-307.5" font-family="Helvetica,sans-Serif" font-size="10.00">mom_pressureforce_mont</text>
<text text-anchor="middle" x="497" y="-296.5" font-family="Helvetica,sans-Serif" font-size="10.00">::pressureforce_mont_init</text>
</a>
</g>
</g>
<!-- Node29&#45;&gt;Node31 -->
<g id="edge48" class="edge"><title>Node29&#45;&gt;Node31</title>
<path fill="none" stroke="midnightblue" d="M394.706,-318.282C406.229,-316.714 418.821,-315.001 431.089,-313.331"/>
<polygon fill="midnightblue" stroke="midnightblue" points="431.85,-316.76 441.287,-311.944 430.907,-309.824 431.85,-316.76"/>
</g>
<!-- Node30&#45;&gt;Node4 -->
<g id="edge46" class="edge"><title>Node30&#45;&gt;Node4</title>
<path fill="none" stroke="midnightblue" d="M549.146,-343.562C588.924,-338.512 644.193,-337.564 686,-360.5 722.743,-380.658 746.403,-425.324 758.299,-453.553"/>
<polygon fill="midnightblue" stroke="midnightblue" points="755.174,-455.162 762.152,-463.134 761.668,-452.55 755.174,-455.162"/>
</g>
<!-- Node30&#45;&gt;Node7 -->
<g id="edge47" class="edge"><title>Node30&#45;&gt;Node7</title>
<path fill="none" stroke="midnightblue" d="M536.886,-338.439C543.12,-335.465 549.368,-332.128 555,-328.5 577.797,-313.816 600.498,-292.871 616.299,-277.01"/>
<polygon fill="midnightblue" stroke="midnightblue" points="618.978,-279.277 623.472,-269.682 613.976,-274.38 618.978,-279.277"/>
</g>
<!-- Node31&#45;&gt;Node4 -->
<g id="edge49" class="edge"><title>Node31&#45;&gt;Node4</title>
<path fill="none" stroke="midnightblue" d="M552.853,-302.24C593.055,-303.23 647.165,-310.344 686,-337.5 726.562,-365.864 749.76,-421.367 760.374,-453.631"/>
<polygon fill="midnightblue" stroke="midnightblue" points="757.051,-454.732 763.384,-463.226 763.73,-452.637 757.051,-454.732"/>
</g>
<!-- Node31&#45;&gt;Node7 -->
<g id="edge50" class="edge"><title>Node31&#45;&gt;Node7</title>
<path fill="none" stroke="midnightblue" d="M539.855,-289.498C554.206,-284.354 570.445,-278.534 585.501,-273.138"/>
<polygon fill="midnightblue" stroke="midnightblue" points="586.96,-276.333 595.193,-269.664 584.598,-269.743 586.96,-276.333"/>
</g>
<!-- Node32&#45;&gt;Node4 -->
<g id="edge52" class="edge"><title>Node32&#45;&gt;Node4</title>
<path fill="none" stroke="midnightblue" d="M540.221,-431.872C578.843,-424.788 637.219,-418.442 686,-431.5 705.257,-436.655 724.676,-447.577 739.726,-457.596"/>
<polygon fill="midnightblue" stroke="midnightblue" points="737.83,-460.54 748.048,-463.34 741.807,-454.779 737.83,-460.54"/>
</g>
<!-- Node32&#45;&gt;Node7 -->
<g id="edge53" class="edge"><title>Node32&#45;&gt;Node7</title>
<path fill="none" stroke="midnightblue" d="M512.433,-426.489C524.34,-413.83 541.421,-395.025 555,-377.5 580.668,-344.373 607.093,-303.571 622.906,-278.294"/>
<polygon fill="midnightblue" stroke="midnightblue" points="625.925,-280.068 628.231,-269.727 619.98,-276.373 625.925,-280.068"/>
</g>
<!-- Node33 -->
<g id="node32" class="node"><title>Node33</title>
<g id="a_node32"><a xlink:href="../../d5/daa/namespacemom__tidal__forcing.html#aba9bdb9c6510bac9f65e674bd5583f39" target="_top" xlink:title="mom_tidal_forcing::\lfind_in_files">
<polygon fill="white" stroke="black" points="595.5,-441.5 595.5,-471.5 681.5,-471.5 681.5,-441.5 595.5,-441.5"/>
<text text-anchor="start" x="603.5" y="-459.5" font-family="Helvetica,sans-Serif" font-size="10.00">mom_tidal_forcing::</text>
<text text-anchor="middle" x="638.5" y="-448.5" font-family="Helvetica,sans-Serif" font-size="10.00">find_in_files</text>
</a>
</g>
</g>
<!-- Node32&#45;&gt;Node33 -->
<g id="edge54" class="edge"><title>Node32&#45;&gt;Node33</title>
<path fill="none" stroke="midnightblue" d="M540.233,-446.041C554.437,-447.569 570.454,-449.291 585.33,-450.89"/>
<polygon fill="midnightblue" stroke="midnightblue" points="585.093,-454.385 595.41,-451.974 585.842,-447.425 585.093,-454.385"/>
</g>
<!-- Node33&#45;&gt;Node4 -->
<g id="edge55" class="edge"><title>Node33&#45;&gt;Node4</title>
<path fill="none" stroke="midnightblue" d="M681.767,-463.765C691.379,-465.417 701.733,-467.196 711.808,-468.928"/>
<polygon fill="midnightblue" stroke="midnightblue" points="711.304,-472.393 721.752,-470.637 712.49,-465.494 711.304,-472.393"/>
</g>
</g>
</svg>
