<?xml version="1.0" encoding="UTF-8" standalone="no"?>
<!DOCTYPE svg PUBLIC "-//W3C//DTD SVG 1.1//EN"
 "http://www.w3.org/Graphics/SVG/1.1/DTD/svg11.dtd">
<!-- Generated by graphviz version 2.38.0 (20140413.2041)
 -->
<!-- Title: mom_tracer_flow_control::tracer_flow_control_cs Pages: 1 -->
<svg width="357pt" height="613pt"
 viewBox="0.00 0.00 357.00 612.50" xmlns="http://www.w3.org/2000/svg" xmlns:xlink="http://www.w3.org/1999/xlink">
<g id="graph0" class="graph" transform="scale(1 1) rotate(0) translate(4 608.5)">
<title>mom_tracer_flow_control::tracer_flow_control_cs</title>
<polygon fill="white" stroke="none" points="-4,4 -4,-608.5 353,-608.5 353,4 -4,4"/>
<!-- Node1 -->
<g id="node1" class="node"><title>Node1</title>
<polygon fill="#bfbfbf" stroke="black" points="242,-220.5 242,-250.5 349,-250.5 349,-220.5 242,-220.5"/>
<text text-anchor="start" x="250" y="-238.5" font-family="Helvetica,sans-Serif" font-size="10.00">mom_tracer_flow_control</text>
<text text-anchor="middle" x="295.5" y="-227.5" font-family="Helvetica,sans-Serif" font-size="10.00">::tracer_flow_control_cs</text>
</g>
<!-- Node2 -->
<g id="node2" class="node"><title>Node2</title>
<polygon fill="white" stroke="#bfbfbf" points="7.5,-570.5 7.5,-600.5 102.5,-600.5 102.5,-570.5 7.5,-570.5"/>
<text text-anchor="start" x="15.5" y="-588.5" font-family="Helvetica,sans-Serif" font-size="10.00">type(ideal_age_tracer</text>
<text text-anchor="middle" x="55" y="-577.5" font-family="Helvetica,sans-Serif" font-size="10.00">_cs), pointer</text>
</g>
<!-- Node2&#45;&gt;Node1 -->
<g id="edge1" class="edge"><title>Node2&#45;&gt;Node1</title>
<path fill="none" stroke="#9a32cd" stroke-dasharray="5,2" d="M113.054,-593.416C149.266,-595.101 194.667,-590.535 224,-563.5 271.112,-520.079 289.316,-309.052 293.505,-250.559"/>
<polygon fill="#9a32cd" stroke="#9a32cd" points="112.825,-589.895 102.623,-592.75 112.379,-596.88 112.825,-589.895"/>
<text text-anchor="middle" x="176" y="-596.5" font-family="Helvetica,sans-Serif" font-size="10.00"> ideal_age_tracer_csp</text>
</g>
<!-- Node3 -->
<g id="node3" class="node"><title>Node3</title>
<polygon fill="white" stroke="#bfbfbf" points="36,-393 36,-412 74,-412 74,-393 36,-393"/>
<text text-anchor="middle" x="55" y="-400" font-family="Helvetica,sans-Serif" font-size="10.00">logical</text>
</g>
<!-- Node3&#45;&gt;Node1 -->
<g id="edge2" class="edge"><title>Node3&#45;&gt;Node1</title>
<path fill="none" stroke="#9a32cd" stroke-dasharray="5,2" d="M84.4235,-402.062C120.384,-400.13 182.608,-392.04 224,-360.5 261.455,-331.96 282.032,-277.429 290.237,-250.84"/>
<polygon fill="#9a32cd" stroke="#9a32cd" points="84.0066,-398.576 74.1585,-402.483 84.2935,-405.57 84.0066,-398.576"/>
<text text-anchor="middle" x="176" y="-554.5" font-family="Helvetica,sans-Serif" font-size="10.00"> use_ocmip2_cfc</text>
<text text-anchor="middle" x="176" y="-543.5" font-family="Helvetica,sans-Serif" font-size="10.00">use_oil</text>
<text text-anchor="middle" x="176" y="-532.5" font-family="Helvetica,sans-Serif" font-size="10.00">use_regional_dyes</text>
<text text-anchor="start" x="141.5" y="-521.5" font-family="Helvetica,sans-Serif" font-size="10.00">use_user_tracer</text>
<text text-anchor="middle" x="176" y="-510.5" font-family="Helvetica,sans-Serif" font-size="10.00">_example</text>
<text text-anchor="start" x="141.5" y="-499.5" font-family="Helvetica,sans-Serif" font-size="10.00">use_pseudo_salt</text>
<text text-anchor="middle" x="176" y="-488.5" font-family="Helvetica,sans-Serif" font-size="10.00">_tracer</text>
<text text-anchor="middle" x="176" y="-477.5" font-family="Helvetica,sans-Serif" font-size="10.00">use_isomip_tracer</text>
<text text-anchor="start" x="141.5" y="-466.5" font-family="Helvetica,sans-Serif" font-size="10.00">use_advection_test</text>
<text text-anchor="middle" x="176" y="-455.5" font-family="Helvetica,sans-Serif" font-size="10.00">_tracer</text>
<text text-anchor="start" x="141.5" y="-444.5" font-family="Helvetica,sans-Serif" font-size="10.00">use_mom_generic</text>
<text text-anchor="middle" x="176" y="-433.5" font-family="Helvetica,sans-Serif" font-size="10.00">_tracer</text>
<text text-anchor="middle" x="176" y="-422.5" font-family="Helvetica,sans-Serif" font-size="10.00">use_dome_tracer</text>
<text text-anchor="middle" x="176" y="-411.5" font-family="Helvetica,sans-Serif" font-size="10.00">use_ideal_age</text>
<text text-anchor="middle" x="176" y="-400.5" font-family="Helvetica,sans-Serif" font-size="10.00">...</text>
</g>
<!-- Node4 -->
<g id="node4" class="node"><title>Node4</title>
<polygon fill="white" stroke="#bfbfbf" points="13.5,-343.5 13.5,-373.5 96.5,-373.5 96.5,-343.5 13.5,-343.5"/>
<text text-anchor="start" x="21.5" y="-361.5" font-family="Helvetica,sans-Serif" font-size="10.00">type(isomip_tracer</text>
<text text-anchor="middle" x="55" y="-350.5" font-family="Helvetica,sans-Serif" font-size="10.00">_cs), pointer</text>
</g>
<!-- Node4&#45;&gt;Node1 -->
<g id="edge3" class="edge"><title>Node4&#45;&gt;Node1</title>
<path fill="none" stroke="#9a32cd" stroke-dasharray="5,2" d="M106.744,-350.878C141.63,-343.978 187.977,-331.423 224,-309.5 249.314,-294.095 271.602,-267.298 284.04,-250.527"/>
<polygon fill="#9a32cd" stroke="#9a32cd" points="105.947,-347.467 96.769,-352.76 107.245,-354.345 105.947,-347.467"/>
<text text-anchor="middle" x="176" y="-348.5" font-family="Helvetica,sans-Serif" font-size="10.00"> isomip_tracer_csp</text>
</g>
<!-- Node5 -->
<g id="node5" class="node"><title>Node5</title>
<polygon fill="white" stroke="#bfbfbf" points="13.5,-294.5 13.5,-324.5 96.5,-324.5 96.5,-294.5 13.5,-294.5"/>
<text text-anchor="start" x="21.5" y="-312.5" font-family="Helvetica,sans-Serif" font-size="10.00">type(oil_tracer_cs)</text>
<text text-anchor="middle" x="55" y="-301.5" font-family="Helvetica,sans-Serif" font-size="10.00">, pointer</text>
</g>
<!-- Node5&#45;&gt;Node1 -->
<g id="edge4" class="edge"><title>Node5&#45;&gt;Node1</title>
<path fill="none" stroke="#9a32cd" stroke-dasharray="5,2" d="M106.733,-299.331C140.433,-291.965 185.41,-280.957 224,-267.5 237.58,-262.764 252.124,-256.397 264.454,-250.589"/>
<polygon fill="#9a32cd" stroke="#9a32cd" points="105.696,-295.974 96.6554,-301.498 107.168,-302.817 105.696,-295.974"/>
<text text-anchor="middle" x="176" y="-297.5" font-family="Helvetica,sans-Serif" font-size="10.00"> oil_tracer_csp</text>
</g>
<!-- Node6 -->
<g id="node6" class="node"><title>Node6</title>
<polygon fill="white" stroke="#bfbfbf" points="0,-245.5 0,-275.5 110,-275.5 110,-245.5 0,-245.5"/>
<text text-anchor="start" x="8" y="-263.5" font-family="Helvetica,sans-Serif" font-size="10.00">type(user_tracer_example</text>
<text text-anchor="middle" x="55" y="-252.5" font-family="Helvetica,sans-Serif" font-size="10.00">_cs), pointer</text>
</g>
<!-- Node6&#45;&gt;Node1 -->
<g id="edge5" class="edge"><title>Node6&#45;&gt;Node1</title>
<path fill="none" stroke="#9a32cd" stroke-dasharray="5,2" d="M120.088,-253.782C158.19,-249.788 205.93,-244.784 241.826,-241.021"/>
<polygon fill="#9a32cd" stroke="#9a32cd" points="119.7,-250.304 110.119,-254.827 120.43,-257.265 119.7,-250.304"/>
<text text-anchor="middle" x="176" y="-255.5" font-family="Helvetica,sans-Serif" font-size="10.00"> user_tracer_example_csp</text>
</g>
<!-- Node7 -->
<g id="node7" class="node"><title>Node7</title>
<polygon fill="white" stroke="#bfbfbf" points="10.5,-196.5 10.5,-226.5 99.5,-226.5 99.5,-196.5 10.5,-196.5"/>
<text text-anchor="start" x="18.5" y="-214.5" font-family="Helvetica,sans-Serif" font-size="10.00">type(ocmip2_cfc_cs)</text>
<text text-anchor="middle" x="55" y="-203.5" font-family="Helvetica,sans-Serif" font-size="10.00">, pointer</text>
</g>
<!-- Node7&#45;&gt;Node1 -->
<g id="edge6" class="edge"><title>Node7&#45;&gt;Node1</title>
<path fill="none" stroke="#9a32cd" stroke-dasharray="5,2" d="M109.864,-216.381C142.834,-219.43 185.873,-223.521 224,-227.5 229.758,-228.101 235.778,-228.751 241.77,-229.411"/>
<polygon fill="#9a32cd" stroke="#9a32cd" points="109.812,-212.861 99.5325,-215.429 109.169,-219.832 109.812,-212.861"/>
<text text-anchor="middle" x="176" y="-230.5" font-family="Helvetica,sans-Serif" font-size="10.00"> ocmip2_cfc_csp</text>
</g>
<!-- Node8 -->
<g id="node8" class="node"><title>Node8</title>
<polygon fill="white" stroke="#bfbfbf" points="3.5,-147.5 3.5,-177.5 106.5,-177.5 106.5,-147.5 3.5,-147.5"/>
<text text-anchor="start" x="11.5" y="-165.5" font-family="Helvetica,sans-Serif" font-size="10.00">type(pseudo_salt_tracer</text>
<text text-anchor="middle" x="55" y="-154.5" font-family="Helvetica,sans-Serif" font-size="10.00">_cs), pointer</text>
</g>
<!-- Node8&#45;&gt;Node1 -->
<g id="edge7" class="edge"><title>Node8&#45;&gt;Node1</title>
<path fill="none" stroke="#9a32cd" stroke-dasharray="5,2" d="M116.879,-174.482C149.135,-181.548 189.177,-191.466 224,-203.5 237.593,-208.198 252.14,-214.559 264.468,-220.372"/>
<polygon fill="#9a32cd" stroke="#9a32cd" points="117.209,-170.973 106.697,-172.29 115.736,-177.816 117.209,-170.973"/>
<text text-anchor="middle" x="176" y="-206.5" font-family="Helvetica,sans-Serif" font-size="10.00"> pseudo_salt_tracer_csp</text>
</g>
<!-- Node9 -->
<g id="node9" class="node"><title>Node9</title>
<polygon fill="white" stroke="#bfbfbf" points="12,-98.5 12,-128.5 98,-128.5 98,-98.5 12,-98.5"/>
<text text-anchor="start" x="20" y="-116.5" font-family="Helvetica,sans-Serif" font-size="10.00">type(advection_test</text>
<text text-anchor="middle" x="55" y="-105.5" font-family="Helvetica,sans-Serif" font-size="10.00">_tracer_cs), pointer</text>
</g>
<!-- Node9&#45;&gt;Node1 -->
<g id="edge8" class="edge"><title>Node9&#45;&gt;Node1</title>
<path fill="none" stroke="#9a32cd" stroke-dasharray="5,2" d="M108.075,-121.475C142.776,-128.466 188.376,-140.985 224,-162.5 249.036,-177.62 271.247,-203.826 283.769,-220.383"/>
<polygon fill="#9a32cd" stroke="#9a32cd" points="108.619,-118.015 98.1374,-119.563 107.296,-124.889 108.619,-118.015"/>
<text text-anchor="middle" x="176" y="-165.5" font-family="Helvetica,sans-Serif" font-size="10.00"> advection_test_tracer_csp</text>
</g>
<!-- Node10 -->
<g id="node10" class="node"><title>Node10</title>
<polygon fill="white" stroke="#bfbfbf" points="11,-49.5 11,-79.5 99,-79.5 99,-49.5 11,-49.5"/>
<text text-anchor="start" x="19" y="-67.5" font-family="Helvetica,sans-Serif" font-size="10.00">type(dye_tracer_cs)</text>
<text text-anchor="middle" x="55" y="-56.5" font-family="Helvetica,sans-Serif" font-size="10.00">, pointer</text>
</g>
<!-- Node10&#45;&gt;Node1 -->
<g id="edge9" class="edge"><title>Node10&#45;&gt;Node1</title>
<path fill="none" stroke="#9a32cd" stroke-dasharray="5,2" d="M109.255,-69.2568C144.872,-74.7792 191.068,-86.7128 224,-112.5 260.432,-141.028 281.376,-193.99 289.931,-220.114"/>
<polygon fill="#9a32cd" stroke="#9a32cd" points="109.433,-65.7469 99.0398,-67.8017 108.446,-72.677 109.433,-65.7469"/>
<text text-anchor="middle" x="176" y="-115.5" font-family="Helvetica,sans-Serif" font-size="10.00"> dye_tracer_csp</text>
</g>
<!-- Node11 -->
<g id="node11" class="node"><title>Node11</title>
<polygon fill="white" stroke="#bfbfbf" points="7.5,-0.5 7.5,-30.5 102.5,-30.5 102.5,-0.5 7.5,-0.5"/>
<text text-anchor="start" x="15.5" y="-18.5" font-family="Helvetica,sans-Serif" font-size="10.00">type(dome_tracer_cs)</text>
<text text-anchor="middle" x="55" y="-7.5" font-family="Helvetica,sans-Serif" font-size="10.00">, pointer</text>
</g>
<!-- Node11&#45;&gt;Node1 -->
<g id="edge10" class="edge"><title>Node11&#45;&gt;Node1</title>
<path fill="none" stroke="#9a32cd" stroke-dasharray="5,2" d="M112.894,-17.2784C148.623,-21.2201 193.542,-31.7233 224,-58.5 273.808,-102.288 288.842,-186.059 293.019,-220.324"/>
<polygon fill="#9a32cd" stroke="#9a32cd" points="112.893,-13.7624 102.605,-16.2936 112.226,-20.7306 112.893,-13.7624"/>
<text text-anchor="middle" x="176" y="-61.5" font-family="Helvetica,sans-Serif" font-size="10.00"> dome_tracer_csp</text>
</g>
</g>
</svg>
