<?xml version="1.0" encoding="UTF-8" standalone="no"?>
<!DOCTYPE svg PUBLIC "-//W3C//DTD SVG 1.1//EN"
 "http://www.w3.org/Graphics/SVG/1.1/DTD/svg11.dtd">
<!-- Generated by graphviz version 2.38.0 (20140413.2041)
 -->
<!-- Title: mom_offline_transport::offline_transport_cs Pages: 1 -->
<svg width="501pt" height="216pt"
 viewBox="0.00 0.00 501.00 216.00" xmlns="http://www.w3.org/2000/svg" xmlns:xlink="http://www.w3.org/1999/xlink">
<g id="graph0" class="graph" transform="scale(1 1) rotate(0) translate(4 212)">
<title>mom_offline_transport::offline_transport_cs</title>
<polygon fill="white" stroke="none" points="-4,4 -4,-212 497,-212 497,4 -4,4"/>
<!-- Node1 -->
<g id="node1" class="node"><title>Node1</title>
<polygon fill="#bfbfbf" stroke="black" points="156.5,-0.5 156.5,-30.5 269.5,-30.5 269.5,-0.5 156.5,-0.5"/>
<text text-anchor="start" x="164.5" y="-18.5" font-family="Helvetica,sans-Serif" font-size="10.00">mom_offline_transport</text>
<text text-anchor="middle" x="213" y="-7.5" font-family="Helvetica,sans-Serif" font-size="10.00">::offline_transport_cs</text>
</g>
<!-- Node2 -->
<g id="node2" class="node"><title>Node2</title>
<polygon fill="white" stroke="#bfbfbf" points="0,-188.5 0,-207.5 44,-207.5 44,-188.5 0,-188.5"/>
<text text-anchor="middle" x="22" y="-195.5" font-family="Helvetica,sans-Serif" font-size="10.00">logical</text>
</g>
<!-- Node2&#45;&gt;Node1 -->
<g id="edge1" class="edge"><title>Node2&#45;&gt;Node1</title>
<path fill="none" stroke="#9a32cd" stroke-dasharray="5,2" d="M17.552,-178.296C11.356,-147.136 4.26624,-84.5199 37,-49 52.898,-31.7489 111.274,-23.5414 156.487,-19.7109"/>
<polygon fill="#9a32cd" stroke="#9a32cd" points="14.1707,-179.219 19.7188,-188.245 21.0104,-177.729 14.1707,-179.219"/>
<text text-anchor="middle" x="75" y="-107" font-family="Helvetica,sans-Serif" font-size="10.00"> fields_are_offset</text>
</g>
<!-- Node3 -->
<g id="node3" class="node"><title>Node3</title>
<polygon fill="white" stroke="#bfbfbf" points="67,-188.5 67,-207.5 165,-207.5 165,-188.5 67,-188.5"/>
<text text-anchor="middle" x="116" y="-195.5" font-family="Helvetica,sans-Serif" font-size="10.00">character(len=200)</text>
</g>
<!-- Node3&#45;&gt;Node1 -->
<g id="edge2" class="edge"><title>Node3&#45;&gt;Node1</title>
<path fill="none" stroke="#9a32cd" stroke-dasharray="5,2" d="M117.108,-178.373C119.767,-148.26 128.759,-88.2982 159,-49 164.739,-41.5424 172.716,-35.4276 180.78,-30.5951"/>
<polygon fill="#9a32cd" stroke="#9a32cd" points="113.617,-178.116 116.367,-188.347 120.598,-178.634 113.617,-178.116"/>
<text text-anchor="middle" x="180.5" y="-118" font-family="Helvetica,sans-Serif" font-size="10.00"> snap_file</text>
<text text-anchor="middle" x="180.5" y="-107" font-family="Helvetica,sans-Serif" font-size="10.00">offlinedir</text>
<text text-anchor="middle" x="180.5" y="-96" font-family="Helvetica,sans-Serif" font-size="10.00">sum_file</text>
</g>
<!-- Node4 -->
<g id="node4" class="node"><title>Node4</title>
<polygon fill="white" stroke="#bfbfbf" points="183,-188.5 183,-207.5 275,-207.5 275,-188.5 183,-188.5"/>
<text text-anchor="middle" x="229" y="-195.5" font-family="Helvetica,sans-Serif" font-size="10.00">character(len=20)</text>
</g>
<!-- Node4&#45;&gt;Node1 -->
<g id="edge3" class="edge"><title>Node4&#45;&gt;Node1</title>
<path fill="none" stroke="#9a32cd" stroke-dasharray="5,2" d="M217.668,-179.524C216.16,-176.457 214.844,-173.216 214,-170 200.936,-120.252 207.002,-58.2694 210.778,-30.7749"/>
<polygon fill="#9a32cd" stroke="#9a32cd" points="214.794,-181.548 222.808,-188.479 220.865,-178.064 214.794,-181.548"/>
<text text-anchor="middle" x="258.5" y="-107" font-family="Helvetica,sans-Serif" font-size="10.00"> redistribute_method</text>
</g>
<!-- Node5 -->
<g id="node5" class="node"><title>Node5</title>
<polygon fill="white" stroke="#bfbfbf" points="309,-188.5 309,-207.5 341,-207.5 341,-188.5 309,-188.5"/>
<text text-anchor="middle" x="325" y="-195.5" font-family="Helvetica,sans-Serif" font-size="10.00">real</text>
</g>
<!-- Node5&#45;&gt;Node1 -->
<g id="edge4" class="edge"><title>Node5&#45;&gt;Node1</title>
<path fill="none" stroke="#9a32cd" stroke-dasharray="5,2" d="M324.546,-178.137C323.326,-142.793 318.891,-68.4148 303,-49 294.477,-38.5871 282.337,-31.5099 269.723,-26.7"/>
<polygon fill="#9a32cd" stroke="#9a32cd" points="321.058,-178.597 324.849,-188.49 328.055,-178.392 321.058,-178.597"/>
<text text-anchor="middle" x="361.5" y="-129" font-family="Helvetica,sans-Serif" font-size="10.00"> dt_offline</text>
<text text-anchor="middle" x="361.5" y="-118" font-family="Helvetica,sans-Serif" font-size="10.00">evap_cfl_limit</text>
<text text-anchor="start" x="324" y="-107" font-family="Helvetica,sans-Serif" font-size="10.00">minimum_forcing</text>
<text text-anchor="middle" x="361.5" y="-96" font-family="Helvetica,sans-Serif" font-size="10.00">_depth</text>
<text text-anchor="middle" x="361.5" y="-85" font-family="Helvetica,sans-Serif" font-size="10.00">max_off_cfl</text>
</g>
<!-- Node6 -->
<g id="node6" class="node"><title>Node6</title>
<polygon fill="white" stroke="#bfbfbf" points="400,-188.5 400,-207.5 446,-207.5 446,-188.5 400,-188.5"/>
<text text-anchor="middle" x="423" y="-195.5" font-family="Helvetica,sans-Serif" font-size="10.00">integer</text>
</g>
<!-- Node6&#45;&gt;Node1 -->
<g id="edge5" class="edge"><title>Node6&#45;&gt;Node1</title>
<path fill="none" stroke="#9a32cd" stroke-dasharray="5,2" d="M426.462,-178.13C431.034,-146.725 434.947,-83.7577 401,-49 383.122,-30.6945 318.348,-22.6468 269.794,-19.1429"/>
<polygon fill="#9a32cd" stroke="#9a32cd" points="422.981,-177.727 424.816,-188.162 429.889,-178.86 422.981,-177.727"/>
<text text-anchor="middle" x="461" y="-162" font-family="Helvetica,sans-Serif" font-size="10.00"> id_h_redist</text>
<text text-anchor="middle" x="461" y="-151" font-family="Helvetica,sans-Serif" font-size="10.00">id_ebr</text>
<text text-anchor="middle" x="461" y="-140" font-family="Helvetica,sans-Serif" font-size="10.00">id_eta_diff</text>
<text text-anchor="middle" x="461" y="-129" font-family="Helvetica,sans-Serif" font-size="10.00">id_ear</text>
<text text-anchor="middle" x="461" y="-118" font-family="Helvetica,sans-Serif" font-size="10.00">ridx_sum</text>
<text text-anchor="middle" x="461" y="-107" font-family="Helvetica,sans-Serif" font-size="10.00">numtime</text>
<text text-anchor="middle" x="461" y="-96" font-family="Helvetica,sans-Serif" font-size="10.00">start_index</text>
<text text-anchor="middle" x="461" y="-85" font-family="Helvetica,sans-Serif" font-size="10.00">id_vhr_redist</text>
<text text-anchor="middle" x="461" y="-74" font-family="Helvetica,sans-Serif" font-size="10.00">id_uhtr_preadv</text>
<text text-anchor="middle" x="461" y="-63" font-family="Helvetica,sans-Serif" font-size="10.00">id_hr</text>
<text text-anchor="middle" x="461" y="-52" font-family="Helvetica,sans-Serif" font-size="10.00">...</text>
</g>
</g>
</svg>
