<?xml version="1.0" encoding="UTF-8" standalone="no"?>
<!DOCTYPE svg PUBLIC "-//W3C//DTD SVG 1.1//EN"
 "http://www.w3.org/Graphics/SVG/1.1/DTD/svg11.dtd">
<!-- Generated by graphviz version 2.38.0 (20140413.2041)
 -->
<!-- Title: regrid_edge_values::edge_values_implicit_h4 Pages: 1 -->
<!--zoomable 230 -->
<svg id="main" version="1.1" xmlns="http://www.w3.org/2000/svg" xmlns:xlink="http://www.w3.org/1999/xlink" xml:space="preserve" onload="init(evt)">
<style type="text/css"><![CDATA[
.edge:hover path { stroke: red; }
.edge:hover polygon { stroke: red; fill: red; }
]]></style>
<script type="text/javascript"><![CDATA[
var edges = document.getElementsByTagName('g');
if (edges && edges.length) {
  for (var i=0;i<edges.length;i++) {
    if (edges[i].id.substr(0,4)=='edge') {
      edges[i].setAttribute('class','edge');
    }
  }
}
]]></script>
        <defs>
                <circle id="rim" cx="0" cy="0" r="7"/>
                <circle id="rim2" cx="0" cy="0" r="3.5"/>
                <g id="zoomPlus">
                        <use xlink:href="#rim" fill="#404040">
                                <set attributeName="fill" to="#808080" begin="zoomplus.mouseover" end="zoomplus.mouseout"/>
                        </use>
                        <path d="M-4,0h8M0,-4v8" fill="none" stroke="white" stroke-width="1.5" pointer-events="none"/>
                </g>
                <g id="zoomMin">
                        <use xlink:href="#rim" fill="#404040">
                                <set attributeName="fill" to="#808080" begin="zoomminus.mouseover" end="zoomminus.mouseout"/>
                        </use>
                        <path d="M-4,0h8" fill="none" stroke="white" stroke-width="1.5" pointer-events="none"/>
                </g>
                <g id="dirArrow">
                        <path fill="none" stroke="white" stroke-width="1.5" d="M0,-3.0v7 M-2.5,-0.5L0,-3.0L2.5,-0.5"/>
                </g>
               <g id="resetDef">
                       <use xlink:href="#rim2" fill="#404040">
                               <set attributeName="fill" to="#808080" begin="reset.mouseover" end="reset.mouseout"/>
                       </use>
               </g>
        </defs>

<script type="text/javascript">
var viewWidth = 1094;
var viewHeight = 230;
var sectionId = 'dynsection-5';
</script>
<script xlink:href="../../svgpan.js"/>
<svg id="graph" class="graph">
<g id="viewport">
<title>regrid_edge_values::edge_values_implicit_h4</title>
<polygon fill="white" stroke="none" points="-4,4 -4,-226 1090,-226 1090,4 -4,4"/>
<!-- Node66 -->
<g id="node1" class="node"><title>Node66</title>
<polygon fill="#bfbfbf" stroke="black" points="0,-27.5 0,-57.5 107,-57.5 107,-27.5 0,-27.5"/>
<text text-anchor="start" x="8" y="-45.5" font-family="Helvetica,sans-Serif" font-size="10.00">regrid_edge_values</text>
<text text-anchor="middle" x="53.5" y="-34.5" font-family="Helvetica,sans-Serif" font-size="10.00">::edge_values_implicit_h4</text>
</g>
<!-- Node67 -->
<g id="node2" class="node"><title>Node67</title>
<g id="a_node2"><a xlink:href="../../d6/d75/namespacemom__remapping.html#a07d7276310f329f56560a1290bcb8b0a" target="_top" xlink:title="Creates polynomial reconstructions of u0 on the source grid h0. ">
<polygon fill="white" stroke="black" points="164,-49.5 164,-79.5 262,-79.5 262,-49.5 164,-49.5"/>
<text text-anchor="start" x="172" y="-67.5" font-family="Helvetica,sans-Serif" font-size="10.00">mom_remapping::build</text>
<text text-anchor="middle" x="213" y="-56.5" font-family="Helvetica,sans-Serif" font-size="10.00">_reconstructions_1d</text>
</a>
</g>
</g>
<!-- Node66&#45;&gt;Node67 -->
<g id="edge1" class="edge"><title>Node66&#45;&gt;Node67</title>
<path fill="none" stroke="midnightblue" d="M117.386,-51.2841C132.834,-53.4418 149.131,-55.7183 163.765,-57.7624"/>
<polygon fill="midnightblue" stroke="midnightblue" points="117.771,-47.804 107.383,-49.8869 116.803,-54.7367 117.771,-47.804"/>
</g>
<!-- Node82 -->
<g id="node17" class="node"><title>Node82</title>
<g id="a_node17"><a xlink:href="../../d7/d73/namespacemom__ale.html#aea1b73dedf1ae5f3db9fa0a6aa6ebaa0" target="_top" xlink:title="Use ppm reconstruction for pressure gradient (determine edge values) By using a PPM (limited piecewis...">
<polygon fill="white" stroke="black" points="143,-11 143,-30 283,-30 283,-11 143,-11"/>
<text text-anchor="middle" x="213" y="-18" font-family="Helvetica,sans-Serif" font-size="10.00">mom_ale::pressure_gradient_ppm</text>
</a>
</g>
</g>
<!-- Node66&#45;&gt;Node82 -->
<g id="edge17" class="edge"><title>Node66&#45;&gt;Node82</title>
<path fill="none" stroke="midnightblue" d="M117.438,-33.7087C126.131,-32.4945 135.091,-31.2428 143.873,-30.0162"/>
<polygon fill="midnightblue" stroke="midnightblue" points="116.803,-30.2633 107.383,-35.1131 117.771,-37.196 116.803,-30.2633"/>
</g>
<!-- Node68 -->
<g id="node3" class="node"><title>Node68</title>
<g id="a_node3"><a xlink:href="../../d6/d75/namespacemom__remapping.html#a6d1533ffa647f3305aba055e2685b095" target="_top" xlink:title="Remaps column of values u0 on grid h0 to grid h1 assuming the top edge is aligned. ">
<polygon fill="white" stroke="black" points="319,-85.5 319,-115.5 439,-115.5 439,-85.5 319,-85.5"/>
<text text-anchor="start" x="327" y="-103.5" font-family="Helvetica,sans-Serif" font-size="10.00">mom_remapping::remapping</text>
<text text-anchor="middle" x="379" y="-92.5" font-family="Helvetica,sans-Serif" font-size="10.00">_core_h</text>
</a>
</g>
</g>
<!-- Node67&#45;&gt;Node68 -->
<g id="edge2" class="edge"><title>Node67&#45;&gt;Node68</title>
<path fill="none" stroke="midnightblue" d="M272.116,-77.2572C287.327,-80.5961 303.739,-84.1987 318.995,-87.5477"/>
<polygon fill="midnightblue" stroke="midnightblue" points="272.836,-73.832 262.318,-75.1065 271.335,-80.6692 272.836,-73.832"/>
</g>
<!-- Node79 -->
<g id="node14" class="node"><title>Node79</title>
<g id="a_node14"><a xlink:href="../../d6/d75/namespacemom__remapping.html#a8b967872b8db2ac7d538991f7f255e56" target="_top" xlink:title="Remaps column of values u0 on grid h0 to implied grid h1 where the interfaces of h1 differ from those...">
<polygon fill="white" stroke="black" points="319,-12.5 319,-42.5 439,-42.5 439,-12.5 319,-12.5"/>
<text text-anchor="start" x="327" y="-30.5" font-family="Helvetica,sans-Serif" font-size="10.00">mom_remapping::remapping</text>
<text text-anchor="middle" x="379" y="-19.5" font-family="Helvetica,sans-Serif" font-size="10.00">_core_w</text>
</a>
</g>
</g>
<!-- Node67&#45;&gt;Node79 -->
<g id="edge13" class="edge"><title>Node67&#45;&gt;Node79</title>
<path fill="none" stroke="midnightblue" d="M272.116,-51.3884C287.327,-47.9568 303.739,-44.2541 318.995,-40.8121"/>
<polygon fill="midnightblue" stroke="midnightblue" points="271.303,-47.9839 262.318,-53.5989 272.844,-54.8122 271.303,-47.9839"/>
</g>
<!-- Node69 -->
<g id="node4" class="node"><title>Node69</title>
<g id="a_node4"><a xlink:href="../../de/dd7/namespacemom__ale__sponge.html#a8f6e6db99f860b048a58e97e58c101a6" target="_top" xlink:title="This subroutine applies damping to the layers thicknesses, temp, salt and a variety of tracers for ev...">
<polygon fill="white" stroke="black" points="483,-169.5 483,-199.5 587,-199.5 587,-169.5 483,-169.5"/>
<text text-anchor="start" x="491" y="-187.5" font-family="Helvetica,sans-Serif" font-size="10.00">mom_ale_sponge::apply</text>
<text text-anchor="middle" x="535" y="-176.5" font-family="Helvetica,sans-Serif" font-size="10.00">_ale_sponge</text>
</a>
</g>
</g>
<!-- Node68&#45;&gt;Node69 -->
<g id="edge3" class="edge"><title>Node68&#45;&gt;Node69</title>
<path fill="none" stroke="midnightblue" d="M416.481,-120.399C444.059,-135.441 481.334,-155.773 506.447,-169.471"/>
<polygon fill="midnightblue" stroke="midnightblue" points="417.987,-117.233 407.532,-115.518 414.635,-123.379 417.987,-117.233"/>
</g>
<!-- Node71 -->
<g id="node6" class="node"><title>Node71</title>
<g id="a_node6"><a xlink:href="../../d6/d62/namespacemom__state__initialization.html#a71ee3c056ca59c1c3529a4ec22e09fe3" target="_top" xlink:title="Adjust the layer thicknesses by cutting away the top at the depth where the hydrostatic pressure matc...">
<polygon fill="white" stroke="black" points="484.5,-98.5 484.5,-128.5 585.5,-128.5 585.5,-98.5 484.5,-98.5"/>
<text text-anchor="start" x="492.5" y="-116.5" font-family="Helvetica,sans-Serif" font-size="10.00">mom_state_initialization</text>
<text text-anchor="middle" x="535" y="-105.5" font-family="Helvetica,sans-Serif" font-size="10.00">::cut_off_column_top</text>
</a>
</g>
</g>
<!-- Node68&#45;&gt;Node71 -->
<g id="edge5" class="edge"><title>Node68&#45;&gt;Node71</title>
<path fill="none" stroke="midnightblue" d="M449.365,-106.355C461.149,-107.35 473.173,-108.365 484.32,-109.306"/>
<polygon fill="midnightblue" stroke="midnightblue" points="449.359,-102.843 439.1,-105.489 448.77,-109.818 449.359,-102.843"/>
</g>
<!-- Node77 -->
<g id="node12" class="node"><title>Node77</title>
<g id="a_node12"><a xlink:href="../../d9/d06/namespacemom__diag__mediator.html#ab5e628e0b8acd96234fab33d0fae2161" target="_top" xlink:title="Remap diagnostic field to z&#45;star vertical grid. ">
<polygon fill="white" stroke="black" points="487.5,-49.5 487.5,-79.5 582.5,-79.5 582.5,-49.5 487.5,-49.5"/>
<text text-anchor="start" x="495.5" y="-67.5" font-family="Helvetica,sans-Serif" font-size="10.00">mom_diag_mediator::</text>
<text text-anchor="middle" x="535" y="-56.5" font-family="Helvetica,sans-Serif" font-size="10.00">remap_diag_to_z</text>
</a>
</g>
</g>
<!-- Node68&#45;&gt;Node77 -->
<g id="edge11" class="edge"><title>Node68&#45;&gt;Node77</title>
<path fill="none" stroke="midnightblue" d="M448.927,-84.3872C461.888,-81.3572 475.159,-78.2551 487.246,-75.4295"/>
<polygon fill="midnightblue" stroke="midnightblue" points="448.041,-80.9999 439.1,-86.6844 449.634,-87.8162 448.041,-80.9999"/>
</g>
<!-- Node70 -->
<g id="node5" class="node"><title>Node70</title>
<g id="a_node5"><a xlink:href="../../d8/df3/namespacemom__diabatic__driver.html#a61e57d3902367aa46aa3c2d949ee900f" target="_top" xlink:title="This subroutine imposes the diapycnal mass fluxes and the accompanying diapycnal advection of momentu...">
<polygon fill="white" stroke="black" points="636,-191.5 636,-221.5 727,-221.5 727,-191.5 636,-191.5"/>
<text text-anchor="start" x="644" y="-209.5" font-family="Helvetica,sans-Serif" font-size="10.00">mom_diabatic_driver</text>
<text text-anchor="middle" x="681.5" y="-198.5" font-family="Helvetica,sans-Serif" font-size="10.00">::diabatic</text>
</a>
</g>
</g>
<!-- Node69&#45;&gt;Node70 -->
<g id="edge4" class="edge"><title>Node69&#45;&gt;Node70</title>
<path fill="none" stroke="midnightblue" d="M597.473,-193.859C610.254,-195.805 623.496,-197.821 635.55,-199.656"/>
<polygon fill="midnightblue" stroke="midnightblue" points="597.765,-190.363 587.352,-192.318 596.711,-197.284 597.765,-190.363"/>
</g>
<!-- Node72 -->
<g id="node7" class="node"><title>Node72</title>
<g id="a_node7"><a xlink:href="../../d6/d62/namespacemom__state__initialization.html#a5c77bf2b0ea9d28e28b661a2a42d3f88" target="_top" xlink:title="Run simple unit tests. ">
<polygon fill="white" stroke="black" points="631,-142.5 631,-172.5 732,-172.5 732,-142.5 631,-142.5"/>
<text text-anchor="start" x="639" y="-160.5" font-family="Helvetica,sans-Serif" font-size="10.00">mom_state_initialization</text>
<text text-anchor="middle" x="681.5" y="-149.5" font-family="Helvetica,sans-Serif" font-size="10.00">::mom_state_init_tests</text>
</a>
</g>
</g>
<!-- Node71&#45;&gt;Node72 -->
<g id="edge6" class="edge"><title>Node71&#45;&gt;Node72</title>
<path fill="none" stroke="midnightblue" d="M595.156,-131.513C607.032,-135.129 619.396,-138.894 630.907,-142.399"/>
<polygon fill="midnightblue" stroke="midnightblue" points="595.91,-128.084 585.325,-128.519 593.871,-134.78 595.91,-128.084"/>
</g>
<!-- Node73 -->
<g id="node8" class="node"><title>Node73</title>
<g id="a_node8"><a xlink:href="../../d6/d62/namespacemom__state__initialization.html#acc1029776c1bdda2862ed0f95c8dc640" target="_top" xlink:title="Adjust the layer thicknesses by cutting away the top of each model column at the depth where the hydr...">
<polygon fill="white" stroke="black" points="631,-93.5 631,-123.5 732,-123.5 732,-93.5 631,-93.5"/>
<text text-anchor="start" x="639" y="-111.5" font-family="Helvetica,sans-Serif" font-size="10.00">mom_state_initialization</text>
<text text-anchor="middle" x="681.5" y="-100.5" font-family="Helvetica,sans-Serif" font-size="10.00">::trim_for_ice</text>
</a>
</g>
</g>
<!-- Node71&#45;&gt;Node73 -->
<g id="edge7" class="edge"><title>Node71&#45;&gt;Node73</title>
<path fill="none" stroke="midnightblue" d="M595.782,-111.431C607.388,-111.03 619.436,-110.613 630.68,-110.224"/>
<polygon fill="midnightblue" stroke="midnightblue" points="595.602,-107.935 585.729,-111.779 595.844,-114.931 595.602,-107.935"/>
</g>
<!-- Node74 -->
<g id="node9" class="node"><title>Node74</title>
<g id="a_node9"><a xlink:href="../../d6/d62/namespacemom__state__initialization.html#af4e854627c6572332ba3fd895f169321" target="_top" xlink:title="mom_state_initialization\l::mom_initialize_state">
<polygon fill="white" stroke="black" points="768,-80.5 768,-110.5 869,-110.5 869,-80.5 768,-80.5"/>
<text text-anchor="start" x="776" y="-98.5" font-family="Helvetica,sans-Serif" font-size="10.00">mom_state_initialization</text>
<text text-anchor="middle" x="818.5" y="-87.5" font-family="Helvetica,sans-Serif" font-size="10.00">::mom_initialize_state</text>
</a>
</g>
</g>
<!-- Node73&#45;&gt;Node74 -->
<g id="edge8" class="edge"><title>Node73&#45;&gt;Node74</title>
<path fill="none" stroke="midnightblue" d="M742.207,-102.75C750.67,-101.935 759.299,-101.105 767.552,-100.31"/>
<polygon fill="midnightblue" stroke="midnightblue" points="741.621,-99.2906 732.002,-103.733 742.292,-106.258 741.621,-99.2906"/>
</g>
<!-- Node75 -->
<g id="node10" class="node"><title>Node75</title>
<g id="a_node10"><a xlink:href="../../da/d01/namespacemom.html#afebdc0103ad9cbe0ed4a54e522dc4104" target="_top" xlink:title="This subroutine initializes MOM. ">
<polygon fill="white" stroke="black" points="905,-58 905,-77 994,-77 994,-58 905,-58"/>
<text text-anchor="middle" x="949.5" y="-65" font-family="Helvetica,sans-Serif" font-size="10.00">mom::initialize_mom</text>
</a>
</g>
</g>
<!-- Node74&#45;&gt;Node75 -->
<g id="edge9" class="edge"><title>Node74&#45;&gt;Node75</title>
<path fill="none" stroke="midnightblue" d="M878.805,-82.6275C887.564,-80.7264 896.451,-78.7974 904.815,-76.982"/>
<polygon fill="midnightblue" stroke="midnightblue" points="878.036,-79.213 869.006,-84.7545 879.521,-86.0537 878.036,-79.213"/>
</g>
<!-- Node76 -->
<g id="node11" class="node"><title>Node76</title>
<g id="a_node11"><a xlink:href="../../de/dbc/MOM__driver_8F90.html#a08fffeb2d8e8acbf9ed4609be6d258c6" target="_top" xlink:title="mom_main">
<polygon fill="white" stroke="black" points="1030,-58 1030,-77 1086,-77 1086,-58 1030,-58"/>
<text text-anchor="middle" x="1058" y="-65" font-family="Helvetica,sans-Serif" font-size="10.00">mom_main</text>
</a>
</g>
</g>
<!-- Node75&#45;&gt;Node76 -->
<g id="edge10" class="edge"><title>Node75&#45;&gt;Node76</title>
<path fill="none" stroke="midnightblue" d="M1004.41,-67.5C1013.21,-67.5 1021.98,-67.5 1029.77,-67.5"/>
<polygon fill="midnightblue" stroke="midnightblue" points="1004.12,-64.0001 994.125,-67.5 1004.12,-71.0001 1004.12,-64.0001"/>
</g>
<!-- Node78 -->
<g id="node13" class="node"><title>Node78</title>
<g id="a_node13"><a xlink:href="../../d9/d06/namespacemom__diag__mediator.html#adb1030a0216c52dd0d25bd67a5b31868" target="_top" xlink:title="mom_diag_mediator::\lpost_data_3d">
<polygon fill="white" stroke="black" points="634,-44.5 634,-74.5 729,-74.5 729,-44.5 634,-44.5"/>
<text text-anchor="start" x="642" y="-62.5" font-family="Helvetica,sans-Serif" font-size="10.00">mom_diag_mediator::</text>
<text text-anchor="middle" x="681.5" y="-51.5" font-family="Helvetica,sans-Serif" font-size="10.00">post_data_3d</text>
</a>
</g>
</g>
<!-- Node77&#45;&gt;Node78 -->
<g id="edge12" class="edge"><title>Node77&#45;&gt;Node78</title>
<path fill="none" stroke="midnightblue" d="M592.687,-62.5385C606.227,-62.07 620.532,-61.575 633.576,-61.1237"/>
<polygon fill="midnightblue" stroke="midnightblue" points="592.389,-59.0466 582.516,-62.8904 592.631,-66.0424 592.389,-59.0466"/>
</g>
<!-- Node80 -->
<g id="node15" class="node"><title>Node80</title>
<g id="a_node15"><a xlink:href="../../d6/d75/namespacemom__remapping.html#a8a79c37c89f8b800f79198aceca5f090" target="_top" xlink:title="Runs unit tests on remapping functions. Should only be called from a single/root thread Returns True ...">
<polygon fill="white" stroke="black" points="475,-0.5 475,-30.5 595,-30.5 595,-0.5 475,-0.5"/>
<text text-anchor="start" x="483" y="-18.5" font-family="Helvetica,sans-Serif" font-size="10.00">mom_remapping::remapping</text>
<text text-anchor="middle" x="535" y="-7.5" font-family="Helvetica,sans-Serif" font-size="10.00">_unit_tests</text>
</a>
</g>
</g>
<!-- Node79&#45;&gt;Node80 -->
<g id="edge14" class="edge"><title>Node79&#45;&gt;Node80</title>
<path fill="none" stroke="midnightblue" d="M449.089,-22.1164C457.672,-21.4476 466.388,-20.7685 474.804,-20.1127"/>
<polygon fill="midnightblue" stroke="midnightblue" points="448.798,-18.6284 439.1,-22.8948 449.342,-25.6073 448.798,-18.6284"/>
</g>
<!-- Node81 -->
<g id="node16" class="node"><title>Node81</title>
<g id="a_node16"><a xlink:href="../../da/d01/namespacemom.html#ae77cfd2e790f1266b31d93c58659d46c" target="_top" xlink:title="Calls unit tests for other modules. These are NOT normally invoked and so we provide the module use s...">
<polygon fill="white" stroke="black" points="782,-30 782,-49 855,-49 855,-30 782,-30"/>
<text text-anchor="middle" x="818.5" y="-37" font-family="Helvetica,sans-Serif" font-size="10.00">mom::unit_tests</text>
</a>
</g>
</g>
<!-- Node80&#45;&gt;Node81 -->
<g id="edge15" class="edge"><title>Node80&#45;&gt;Node81</title>
<path fill="none" stroke="midnightblue" d="M605.194,-21.3993C661.07,-26.1632 737.444,-32.6746 781.721,-36.4495"/>
<polygon fill="midnightblue" stroke="midnightblue" points="605.273,-17.8934 595.012,-20.5312 604.678,-24.8681 605.273,-17.8934"/>
</g>
<!-- Node81&#45;&gt;Node75 -->
<g id="edge16" class="edge"><title>Node81&#45;&gt;Node75</title>
<path fill="none" stroke="midnightblue" d="M865.137,-49.4057C878.012,-52.2004 891.987,-55.2337 904.749,-58.0037"/>
<polygon fill="midnightblue" stroke="midnightblue" points="865.606,-45.9261 855.091,-47.2252 864.121,-52.7668 865.606,-45.9261"/>
</g>
</g>
</svg>
        <g id="navigator" transform="translate(0 0)" fill="#404254">
                <rect fill="#f2f5e9" fill-opacity="0.5" stroke="#606060" stroke-width=".5" x="0" y="0" width="60" height="60"/>
                <use id="zoomplus" xlink:href="#zoomPlus" x="17" y="9" onmousedown="handleZoom(evt,'in')"/>
                <use id="zoomminus" xlink:href="#zoomMin" x="42" y="9" onmousedown="handleZoom(evt,'out')"/>
                <use id="reset" xlink:href="#resetDef" x="30" y="36" onmousedown="handleReset()"/>
                <g id="arrowUp" xlink:href="#dirArrow" transform="translate(30 24)" onmousedown="handlePan(0,-1)">
                  <use xlink:href="#rim" fill="#404040">
                        <set attributeName="fill" to="#808080" begin="arrowUp.mouseover" end="arrowUp.mouseout"/>
                  </use>
                  <path fill="none" stroke="white" stroke-width="1.5" d="M0,-3.0v7 M-2.5,-0.5L0,-3.0L2.5,-0.5"/>
                </g>
                <g id="arrowRight" xlink:href="#dirArrow" transform="rotate(90) translate(36 -43)" onmousedown="handlePan(1,0)">
                  <use xlink:href="#rim" fill="#404040">
                        <set attributeName="fill" to="#808080" begin="arrowRight.mouseover" end="arrowRight.mouseout"/>
                  </use>
                  <path fill="none" stroke="white" stroke-width="1.5" d="M0,-3.0v7 M-2.5,-0.5L0,-3.0L2.5,-0.5"/>
                </g>
                <g id="arrowDown" xlink:href="#dirArrow" transform="rotate(180) translate(-30 -48)" onmousedown="handlePan(0,1)">
                  <use xlink:href="#rim" fill="#404040">
                        <set attributeName="fill" to="#808080" begin="arrowDown.mouseover" end="arrowDown.mouseout"/>
                  </use>
                  <path fill="none" stroke="white" stroke-width="1.5" d="M0,-3.0v7 M-2.5,-0.5L0,-3.0L2.5,-0.5"/>
                </g>
                <g id="arrowLeft" xlink:href="#dirArrow" transform="rotate(270) translate(-36 17)" onmousedown="handlePan(-1,0)">
                  <use xlink:href="#rim" fill="#404040">
                        <set attributeName="fill" to="#808080" begin="arrowLeft.mouseover" end="arrowLeft.mouseout"/>
                  </use>
                  <path fill="none" stroke="white" stroke-width="1.5" d="M0,-3.0v7 M-2.5,-0.5L0,-3.0L2.5,-0.5"/>
                </g>
        </g>
        <svg viewBox="0 0 15 15" width="100%" height="30px" preserveAspectRatio="xMaxYMin meet">
         <g id="arrow_out" transform="scale(0.3 0.3)">
          <a xlink:href="namespaceregrid__edge__values_a2c2460b31b6de501eed3cb7db07a4be5_icgraph_org.svg" target="_base">
           <rect id="button" ry="5" rx="5" y="6" x="6" height="38" width="38"
                fill="#f2f5e9" fill-opacity="0.5" stroke="#606060" stroke-width="1.0"/>
           <path id="arrow"
             d="M 11.500037,31.436501 C 11.940474,20.09759 22.043105,11.32322 32.158766,21.979434 L 37.068811,17.246167 C 37.068811,17.246167 37.088388,32 37.088388,32 L 22.160133,31.978069 C 22.160133,31.978069 26.997745,27.140456 26.997745,27.140456 C 18.528582,18.264221 13.291696,25.230495 11.500037,31.436501 z"
             style="fill:#404040;"/>
          </a>
         </g>
        </svg>
</svg>
