<?xml version="1.0" encoding="UTF-8" standalone="no"?>
<!DOCTYPE svg PUBLIC "-//W3C//DTD SVG 1.1//EN"
 "http://www.w3.org/Graphics/SVG/1.1/DTD/svg11.dtd">
<!-- Generated by graphviz version 2.38.0 (20140413.2041)
 -->
<!-- Title: regrid_edge_values::check_discontinuous_edge_values Pages: 1 -->
<svg width="1331pt" height="263pt"
 viewBox="0.00 0.00 1331.00 262.50" xmlns="http://www.w3.org/2000/svg" xmlns:xlink="http://www.w3.org/1999/xlink">
<g id="graph0" class="graph" transform="scale(1 1) rotate(0) translate(4 258.5)">
<title>regrid_edge_values::check_discontinuous_edge_values</title>
<polygon fill="white" stroke="none" points="-4,4 -4,-258.5 1327,-258.5 1327,4 -4,4"/>
<!-- Node31 -->
<g id="node1" class="node"><title>Node31</title>
<polygon fill="#bfbfbf" stroke="black" points="0,-50.5 0,-91.5 94,-91.5 94,-50.5 0,-50.5"/>
<text text-anchor="start" x="8" y="-79.5" font-family="Helvetica,sans-Serif" font-size="10.00">regrid_edge_values</text>
<text text-anchor="start" x="8" y="-68.5" font-family="Helvetica,sans-Serif" font-size="10.00">::check_discontinuous</text>
<text text-anchor="middle" x="47" y="-57.5" font-family="Helvetica,sans-Serif" font-size="10.00">_edge_values</text>
</g>
<!-- Node32 -->
<g id="node2" class="node"><title>Node32</title>
<g id="a_node2"><a xlink:href="../../d1/de6/namespaceppm__functions.html#a89920c90b84f0b241c5a6d65fe2870b9" target="_top" xlink:title="Adjusts edge values using the standard PPM limiter (Colella &amp; Woodward, JCP 1984) after first checkin...">
<polygon fill="white" stroke="black" points="130,-32 130,-62 219,-62 219,-32 130,-32"/>
<text text-anchor="start" x="138" y="-50" font-family="Helvetica,sans-Serif" font-size="10.00">ppm_functions::ppm</text>
<text text-anchor="middle" x="174.5" y="-39" font-family="Helvetica,sans-Serif" font-size="10.00">_limiter_standard</text>
</a>
</g>
</g>
<!-- Node31&#45;&gt;Node32 -->
<g id="edge1" class="edge"><title>Node31&#45;&gt;Node32</title>
<path fill="none" stroke="midnightblue" d="M104.095,-60.2726C112.781,-58.6117 121.638,-56.9179 129.991,-55.3204"/>
<polygon fill="midnightblue" stroke="midnightblue" points="103.184,-56.8835 94.0189,-62.1996 104.498,-63.7589 103.184,-56.8835"/>
</g>
<!-- Node50 -->
<g id="node20" class="node"><title>Node50</title>
<g id="a_node20"><a xlink:href="../../dc/d94/namespacepqm__functions.html#a0ce0d64922453de1312adec7b8746544" target="_top" xlink:title="pqm_functions::pqm\l_limiter">
<polygon fill="white" stroke="black" points="130,-81 130,-111 219,-111 219,-81 130,-81"/>
<text text-anchor="start" x="138" y="-99" font-family="Helvetica,sans-Serif" font-size="10.00">pqm_functions::pqm</text>
<text text-anchor="middle" x="174.5" y="-88" font-family="Helvetica,sans-Serif" font-size="10.00">_limiter</text>
</a>
</g>
</g>
<!-- Node31&#45;&gt;Node50 -->
<g id="edge21" class="edge"><title>Node31&#45;&gt;Node50</title>
<path fill="none" stroke="midnightblue" d="M104.095,-82.1743C112.781,-83.9045 121.638,-85.6689 129.991,-87.3329"/>
<polygon fill="midnightblue" stroke="midnightblue" points="104.51,-78.6883 94.0189,-80.1671 103.142,-85.5534 104.51,-78.6883"/>
</g>
<!-- Node33 -->
<g id="node3" class="node"><title>Node33</title>
<g id="a_node3"><a xlink:href="../../d1/de6/namespaceppm__functions.html#a97e2144c7499aacd90858788f1312432" target="_top" xlink:title="Builds quadratic polynomials coefficients from cell mean and edge values. ">
<polygon fill="white" stroke="black" points="255,-32 255,-62 344,-62 344,-32 255,-32"/>
<text text-anchor="start" x="263" y="-50" font-family="Helvetica,sans-Serif" font-size="10.00">ppm_functions::ppm</text>
<text text-anchor="middle" x="299.5" y="-39" font-family="Helvetica,sans-Serif" font-size="10.00">_reconstruction</text>
</a>
</g>
</g>
<!-- Node32&#45;&gt;Node33 -->
<g id="edge2" class="edge"><title>Node32&#45;&gt;Node33</title>
<path fill="none" stroke="midnightblue" d="M229.458,-47C237.975,-47 246.687,-47 254.929,-47"/>
<polygon fill="midnightblue" stroke="midnightblue" points="229.212,-43.5001 219.212,-47 229.211,-50.5001 229.212,-43.5001"/>
</g>
<!-- Node34 -->
<g id="node4" class="node"><title>Node34</title>
<g id="a_node4"><a xlink:href="../../d6/d75/namespacemom__remapping.html#a07d7276310f329f56560a1290bcb8b0a" target="_top" xlink:title="Creates polynomial reconstructions of u0 on the source grid h0. ">
<polygon fill="white" stroke="black" points="401,-79 401,-109 499,-109 499,-79 401,-79"/>
<text text-anchor="start" x="409" y="-97" font-family="Helvetica,sans-Serif" font-size="10.00">mom_remapping::build</text>
<text text-anchor="middle" x="450" y="-86" font-family="Helvetica,sans-Serif" font-size="10.00">_reconstructions_1d</text>
</a>
</g>
</g>
<!-- Node33&#45;&gt;Node34 -->
<g id="edge3" class="edge"><title>Node33&#45;&gt;Node34</title>
<path fill="none" stroke="midnightblue" d="M354.185,-63.9911C369.63,-68.8796 386.365,-74.176 401.414,-78.939"/>
<polygon fill="midnightblue" stroke="midnightblue" points="354.842,-60.528 344.252,-60.8473 352.729,-67.2017 354.842,-60.528"/>
</g>
<!-- Node47 -->
<g id="node17" class="node"><title>Node47</title>
<g id="a_node17"><a xlink:href="../../d6/d75/namespacemom__remapping.html#a8a79c37c89f8b800f79198aceca5f090" target="_top" xlink:title="Runs unit tests on remapping functions. Should only be called from a single/root thread Returns True ...">
<polygon fill="white" stroke="black" points="712,-33 712,-63 832,-63 832,-33 712,-33"/>
<text text-anchor="start" x="720" y="-51" font-family="Helvetica,sans-Serif" font-size="10.00">mom_remapping::remapping</text>
<text text-anchor="middle" x="772" y="-40" font-family="Helvetica,sans-Serif" font-size="10.00">_unit_tests</text>
</a>
</g>
</g>
<!-- Node33&#45;&gt;Node47 -->
<g id="edge20" class="edge"><title>Node33&#45;&gt;Node47</title>
<path fill="none" stroke="midnightblue" d="M354.47,-47.1147C443.3,-47.3035 619.63,-47.6783 711.779,-47.8741"/>
<polygon fill="midnightblue" stroke="midnightblue" points="354.348,-43.6145 344.341,-47.0932 354.333,-50.6145 354.348,-43.6145"/>
</g>
<!-- Node49 -->
<g id="node19" class="node"><title>Node49</title>
<g id="a_node19"><a xlink:href="../../d7/d73/namespacemom__ale.html#aea1b73dedf1ae5f3db9fa0a6aa6ebaa0" target="_top" xlink:title="Use ppm reconstruction for pressure gradient (determine edge values) By using a PPM (limited piecewis...">
<polygon fill="white" stroke="black" points="380,-0.5 380,-19.5 520,-19.5 520,-0.5 380,-0.5"/>
<text text-anchor="middle" x="450" y="-7.5" font-family="Helvetica,sans-Serif" font-size="10.00">mom_ale::pressure_gradient_ppm</text>
</a>
</g>
</g>
<!-- Node33&#45;&gt;Node49 -->
<g id="edge19" class="edge"><title>Node33&#45;&gt;Node49</title>
<path fill="none" stroke="midnightblue" d="M354.115,-33.6413C372.807,-28.9841 393.394,-23.8547 410.601,-19.5675"/>
<polygon fill="midnightblue" stroke="midnightblue" points="353.109,-30.285 344.252,-36.0989 354.801,-37.0773 353.109,-30.285"/>
</g>
<!-- Node35 -->
<g id="node5" class="node"><title>Node35</title>
<g id="a_node5"><a xlink:href="../../d6/d75/namespacemom__remapping.html#a6d1533ffa647f3305aba055e2685b095" target="_top" xlink:title="Remaps column of values u0 on grid h0 to grid h1 assuming the top edge is aligned. ">
<polygon fill="white" stroke="black" points="556,-129 556,-159 676,-159 676,-129 556,-129"/>
<text text-anchor="start" x="564" y="-147" font-family="Helvetica,sans-Serif" font-size="10.00">mom_remapping::remapping</text>
<text text-anchor="middle" x="616" y="-136" font-family="Helvetica,sans-Serif" font-size="10.00">_core_h</text>
</a>
</g>
</g>
<!-- Node34&#45;&gt;Node35 -->
<g id="edge4" class="edge"><title>Node34&#45;&gt;Node35</title>
<path fill="none" stroke="midnightblue" d="M509.083,-111.708C527.557,-117.341 547.806,-123.514 565.607,-128.941"/>
<polygon fill="midnightblue" stroke="midnightblue" points="509.904,-108.3 499.318,-108.731 507.863,-114.995 509.904,-108.3"/>
</g>
<!-- Node46 -->
<g id="node16" class="node"><title>Node46</title>
<g id="a_node16"><a xlink:href="../../d6/d75/namespacemom__remapping.html#a8b967872b8db2ac7d538991f7f255e56" target="_top" xlink:title="Remaps column of values u0 on grid h0 to implied grid h1 where the interfaces of h1 differ from those...">
<polygon fill="white" stroke="black" points="556,-78 556,-108 676,-108 676,-78 556,-78"/>
<text text-anchor="start" x="564" y="-96" font-family="Helvetica,sans-Serif" font-size="10.00">mom_remapping::remapping</text>
<text text-anchor="middle" x="616" y="-85" font-family="Helvetica,sans-Serif" font-size="10.00">_core_w</text>
</a>
</g>
</g>
<!-- Node34&#45;&gt;Node46 -->
<g id="edge15" class="edge"><title>Node34&#45;&gt;Node46</title>
<path fill="none" stroke="midnightblue" d="M509.551,-93.643C524.639,-93.551 540.884,-93.4519 555.995,-93.3598"/>
<polygon fill="midnightblue" stroke="midnightblue" points="509.297,-90.1444 499.318,-93.7054 509.34,-97.1442 509.297,-90.1444"/>
</g>
<!-- Node36 -->
<g id="node6" class="node"><title>Node36</title>
<g id="a_node6"><a xlink:href="../../de/dd7/namespacemom__ale__sponge.html#a8f6e6db99f860b048a58e97e58c101a6" target="_top" xlink:title="This subroutine applies damping to the layers thicknesses, temp, salt and a variety of tracers for ev...">
<polygon fill="white" stroke="black" points="720,-202 720,-232 824,-232 824,-202 720,-202"/>
<text text-anchor="start" x="728" y="-220" font-family="Helvetica,sans-Serif" font-size="10.00">mom_ale_sponge::apply</text>
<text text-anchor="middle" x="772" y="-209" font-family="Helvetica,sans-Serif" font-size="10.00">_ale_sponge</text>
</a>
</g>
</g>
<!-- Node35&#45;&gt;Node36 -->
<g id="edge5" class="edge"><title>Node35&#45;&gt;Node36</title>
<path fill="none" stroke="midnightblue" d="M657.945,-163.409C683.384,-175.468 715.603,-190.74 739.132,-201.894"/>
<polygon fill="midnightblue" stroke="midnightblue" points="659.444,-160.246 648.909,-159.126 656.446,-166.572 659.444,-160.246"/>
</g>
<!-- Node38 -->
<g id="node8" class="node"><title>Node38</title>
<g id="a_node8"><a xlink:href="../../d6/d62/namespacemom__state__initialization.html#a71ee3c056ca59c1c3529a4ec22e09fe3" target="_top" xlink:title="Adjust the layer thicknesses by cutting away the top at the depth where the hydrostatic pressure matc...">
<polygon fill="white" stroke="black" points="721.5,-131 721.5,-161 822.5,-161 822.5,-131 721.5,-131"/>
<text text-anchor="start" x="729.5" y="-149" font-family="Helvetica,sans-Serif" font-size="10.00">mom_state_initialization</text>
<text text-anchor="middle" x="772" y="-138" font-family="Helvetica,sans-Serif" font-size="10.00">::cut_off_column_top</text>
</a>
</g>
</g>
<!-- Node35&#45;&gt;Node38 -->
<g id="edge7" class="edge"><title>Node35&#45;&gt;Node38</title>
<path fill="none" stroke="midnightblue" d="M686.365,-144.901C698.149,-145.054 710.173,-145.21 721.32,-145.355"/>
<polygon fill="midnightblue" stroke="midnightblue" points="686.145,-141.398 676.1,-144.768 686.054,-148.397 686.145,-141.398"/>
</g>
<!-- Node44 -->
<g id="node14" class="node"><title>Node44</title>
<g id="a_node14"><a xlink:href="../../d9/d06/namespacemom__diag__mediator.html#ab5e628e0b8acd96234fab33d0fae2161" target="_top" xlink:title="Remap diagnostic field to z&#45;star vertical grid. ">
<polygon fill="white" stroke="black" points="724.5,-82 724.5,-112 819.5,-112 819.5,-82 724.5,-82"/>
<text text-anchor="start" x="732.5" y="-100" font-family="Helvetica,sans-Serif" font-size="10.00">mom_diag_mediator::</text>
<text text-anchor="middle" x="772" y="-89" font-family="Helvetica,sans-Serif" font-size="10.00">remap_diag_to_z</text>
</a>
</g>
</g>
<!-- Node35&#45;&gt;Node44 -->
<g id="edge13" class="edge"><title>Node35&#45;&gt;Node44</title>
<path fill="none" stroke="midnightblue" d="M675.969,-126.003C692.012,-121.107 709.161,-115.873 724.413,-111.218"/>
<polygon fill="midnightblue" stroke="midnightblue" points="674.693,-122.733 666.15,-129 676.736,-129.428 674.693,-122.733"/>
</g>
<!-- Node37 -->
<g id="node7" class="node"><title>Node37</title>
<g id="a_node7"><a xlink:href="../../d8/df3/namespacemom__diabatic__driver.html#a61e57d3902367aa46aa3c2d949ee900f" target="_top" xlink:title="This subroutine imposes the diapycnal mass fluxes and the accompanying diapycnal advection of momentu...">
<polygon fill="white" stroke="black" points="873,-224 873,-254 964,-254 964,-224 873,-224"/>
<text text-anchor="start" x="881" y="-242" font-family="Helvetica,sans-Serif" font-size="10.00">mom_diabatic_driver</text>
<text text-anchor="middle" x="918.5" y="-231" font-family="Helvetica,sans-Serif" font-size="10.00">::diabatic</text>
</a>
</g>
</g>
<!-- Node36&#45;&gt;Node37 -->
<g id="edge6" class="edge"><title>Node36&#45;&gt;Node37</title>
<path fill="none" stroke="midnightblue" d="M834.473,-226.359C847.254,-228.305 860.496,-230.321 872.55,-232.156"/>
<polygon fill="midnightblue" stroke="midnightblue" points="834.765,-222.863 824.352,-224.818 833.711,-229.784 834.765,-222.863"/>
</g>
<!-- Node39 -->
<g id="node9" class="node"><title>Node39</title>
<g id="a_node9"><a xlink:href="../../d6/d62/namespacemom__state__initialization.html#a5c77bf2b0ea9d28e28b661a2a42d3f88" target="_top" xlink:title="Run simple unit tests. ">
<polygon fill="white" stroke="black" points="868,-175 868,-205 969,-205 969,-175 868,-175"/>
<text text-anchor="start" x="876" y="-193" font-family="Helvetica,sans-Serif" font-size="10.00">mom_state_initialization</text>
<text text-anchor="middle" x="918.5" y="-182" font-family="Helvetica,sans-Serif" font-size="10.00">::mom_state_init_tests</text>
</a>
</g>
</g>
<!-- Node38&#45;&gt;Node39 -->
<g id="edge8" class="edge"><title>Node38&#45;&gt;Node39</title>
<path fill="none" stroke="midnightblue" d="M832.156,-164.013C844.032,-167.629 856.396,-171.394 867.907,-174.899"/>
<polygon fill="midnightblue" stroke="midnightblue" points="832.91,-160.584 822.325,-161.019 830.871,-167.28 832.91,-160.584"/>
</g>
<!-- Node40 -->
<g id="node10" class="node"><title>Node40</title>
<g id="a_node10"><a xlink:href="../../d6/d62/namespacemom__state__initialization.html#acc1029776c1bdda2862ed0f95c8dc640" target="_top" xlink:title="Adjust the layer thicknesses by cutting away the top of each model column at the depth where the hydr...">
<polygon fill="white" stroke="black" points="868,-126 868,-156 969,-156 969,-126 868,-126"/>
<text text-anchor="start" x="876" y="-144" font-family="Helvetica,sans-Serif" font-size="10.00">mom_state_initialization</text>
<text text-anchor="middle" x="918.5" y="-133" font-family="Helvetica,sans-Serif" font-size="10.00">::trim_for_ice</text>
</a>
</g>
</g>
<!-- Node38&#45;&gt;Node40 -->
<g id="edge9" class="edge"><title>Node38&#45;&gt;Node40</title>
<path fill="none" stroke="midnightblue" d="M832.782,-143.931C844.388,-143.53 856.436,-143.113 867.68,-142.724"/>
<polygon fill="midnightblue" stroke="midnightblue" points="832.602,-140.435 822.729,-144.279 832.844,-147.431 832.602,-140.435"/>
</g>
<!-- Node41 -->
<g id="node11" class="node"><title>Node41</title>
<g id="a_node11"><a xlink:href="../../d6/d62/namespacemom__state__initialization.html#af4e854627c6572332ba3fd895f169321" target="_top" xlink:title="mom_state_initialization\l::mom_initialize_state">
<polygon fill="white" stroke="black" points="1005,-113 1005,-143 1106,-143 1106,-113 1005,-113"/>
<text text-anchor="start" x="1013" y="-131" font-family="Helvetica,sans-Serif" font-size="10.00">mom_state_initialization</text>
<text text-anchor="middle" x="1055.5" y="-120" font-family="Helvetica,sans-Serif" font-size="10.00">::mom_initialize_state</text>
</a>
</g>
</g>
<!-- Node40&#45;&gt;Node41 -->
<g id="edge10" class="edge"><title>Node40&#45;&gt;Node41</title>
<path fill="none" stroke="midnightblue" d="M979.207,-135.25C987.67,-134.435 996.299,-133.605 1004.55,-132.81"/>
<polygon fill="midnightblue" stroke="midnightblue" points="978.621,-131.791 969.002,-136.233 979.292,-138.758 978.621,-131.791"/>
</g>
<!-- Node42 -->
<g id="node12" class="node"><title>Node42</title>
<g id="a_node12"><a xlink:href="../../da/d01/namespacemom.html#afebdc0103ad9cbe0ed4a54e522dc4104" target="_top" xlink:title="This subroutine initializes MOM. ">
<polygon fill="white" stroke="black" points="1142,-90.5 1142,-109.5 1231,-109.5 1231,-90.5 1142,-90.5"/>
<text text-anchor="middle" x="1186.5" y="-97.5" font-family="Helvetica,sans-Serif" font-size="10.00">mom::initialize_mom</text>
</a>
</g>
</g>
<!-- Node41&#45;&gt;Node42 -->
<g id="edge11" class="edge"><title>Node41&#45;&gt;Node42</title>
<path fill="none" stroke="midnightblue" d="M1115.81,-115.128C1124.56,-113.226 1133.45,-111.297 1141.82,-109.482"/>
<polygon fill="midnightblue" stroke="midnightblue" points="1115.04,-111.713 1106.01,-117.255 1116.52,-118.554 1115.04,-111.713"/>
</g>
<!-- Node43 -->
<g id="node13" class="node"><title>Node43</title>
<g id="a_node13"><a xlink:href="../../de/dbc/MOM__driver_8F90.html#a08fffeb2d8e8acbf9ed4609be6d258c6" target="_top" xlink:title="mom_main">
<polygon fill="white" stroke="black" points="1267,-90.5 1267,-109.5 1323,-109.5 1323,-90.5 1267,-90.5"/>
<text text-anchor="middle" x="1295" y="-97.5" font-family="Helvetica,sans-Serif" font-size="10.00">mom_main</text>
</a>
</g>
</g>
<!-- Node42&#45;&gt;Node43 -->
<g id="edge12" class="edge"><title>Node42&#45;&gt;Node43</title>
<path fill="none" stroke="midnightblue" d="M1241.41,-100C1250.21,-100 1258.98,-100 1266.77,-100"/>
<polygon fill="midnightblue" stroke="midnightblue" points="1241.12,-96.5001 1231.12,-100 1241.12,-103.5 1241.12,-96.5001"/>
</g>
<!-- Node45 -->
<g id="node15" class="node"><title>Node45</title>
<g id="a_node15"><a xlink:href="../../d9/d06/namespacemom__diag__mediator.html#adb1030a0216c52dd0d25bd67a5b31868" target="_top" xlink:title="mom_diag_mediator::\lpost_data_3d">
<polygon fill="white" stroke="black" points="871,-77 871,-107 966,-107 966,-77 871,-77"/>
<text text-anchor="start" x="879" y="-95" font-family="Helvetica,sans-Serif" font-size="10.00">mom_diag_mediator::</text>
<text text-anchor="middle" x="918.5" y="-84" font-family="Helvetica,sans-Serif" font-size="10.00">post_data_3d</text>
</a>
</g>
</g>
<!-- Node44&#45;&gt;Node45 -->
<g id="edge14" class="edge"><title>Node44&#45;&gt;Node45</title>
<path fill="none" stroke="midnightblue" d="M829.687,-95.0385C843.227,-94.57 857.532,-94.075 870.576,-93.6237"/>
<polygon fill="midnightblue" stroke="midnightblue" points="829.389,-91.5466 819.516,-95.3904 829.631,-98.5424 829.389,-91.5466"/>
</g>
<!-- Node46&#45;&gt;Node47 -->
<g id="edge16" class="edge"><title>Node46&#45;&gt;Node47</title>
<path fill="none" stroke="midnightblue" d="M678.453,-75.0431C692.033,-71.0747 706.287,-66.9096 719.428,-63.0697"/>
<polygon fill="midnightblue" stroke="midnightblue" points="677.325,-71.7261 668.708,-77.8905 679.288,-78.4451 677.325,-71.7261"/>
</g>
<!-- Node48 -->
<g id="node18" class="node"><title>Node48</title>
<g id="a_node18"><a xlink:href="../../da/d01/namespacemom.html#ae77cfd2e790f1266b31d93c58659d46c" target="_top" xlink:title="Calls unit tests for other modules. These are NOT normally invoked and so we provide the module use s...">
<polygon fill="white" stroke="black" points="1019,-62.5 1019,-81.5 1092,-81.5 1092,-62.5 1019,-62.5"/>
<text text-anchor="middle" x="1055.5" y="-69.5" font-family="Helvetica,sans-Serif" font-size="10.00">mom::unit_tests</text>
</a>
</g>
</g>
<!-- Node47&#45;&gt;Node48 -->
<g id="edge17" class="edge"><title>Node47&#45;&gt;Node48</title>
<path fill="none" stroke="midnightblue" d="M842.194,-53.8993C898.07,-58.6632 974.444,-65.1746 1018.72,-68.9495"/>
<polygon fill="midnightblue" stroke="midnightblue" points="842.273,-50.3934 832.012,-53.0312 841.678,-57.3681 842.273,-50.3934"/>
</g>
<!-- Node48&#45;&gt;Node42 -->
<g id="edge18" class="edge"><title>Node48&#45;&gt;Node42</title>
<path fill="none" stroke="midnightblue" d="M1102.14,-81.9057C1115.01,-84.7004 1128.99,-87.7337 1141.75,-90.5037"/>
<polygon fill="midnightblue" stroke="midnightblue" points="1102.61,-78.4261 1092.09,-79.7252 1101.12,-85.2668 1102.61,-78.4261"/>
</g>
<!-- Node51 -->
<g id="node21" class="node"><title>Node51</title>
<g id="a_node21"><a xlink:href="../../dc/d94/namespacepqm__functions.html#ada7e1a8d9d70b5b78b5e2dfddb5ffa43" target="_top" xlink:title="pqm_functions::pqm\l_reconstruction">
<polygon fill="white" stroke="black" points="255,-81 255,-111 344,-111 344,-81 255,-81"/>
<text text-anchor="start" x="263" y="-99" font-family="Helvetica,sans-Serif" font-size="10.00">pqm_functions::pqm</text>
<text text-anchor="middle" x="299.5" y="-88" font-family="Helvetica,sans-Serif" font-size="10.00">_reconstruction</text>
</a>
</g>
</g>
<!-- Node50&#45;&gt;Node51 -->
<g id="edge22" class="edge"><title>Node50&#45;&gt;Node51</title>
<path fill="none" stroke="midnightblue" d="M229.458,-96C237.975,-96 246.687,-96 254.929,-96"/>
<polygon fill="midnightblue" stroke="midnightblue" points="229.212,-92.5001 219.212,-96 229.211,-99.5001 229.212,-92.5001"/>
</g>
<!-- Node51&#45;&gt;Node34 -->
<g id="edge23" class="edge"><title>Node51&#45;&gt;Node34</title>
<path fill="none" stroke="midnightblue" d="M354.525,-95.2724C369.696,-95.0681 386.087,-94.8473 400.889,-94.648"/>
<polygon fill="midnightblue" stroke="midnightblue" points="354.204,-91.7763 344.252,-95.4108 354.298,-98.7757 354.204,-91.7763"/>
</g>
</g>
</svg>
