<?xml version="1.0" encoding="UTF-8" standalone="no"?>
<!DOCTYPE svg PUBLIC "-//W3C//DTD SVG 1.1//EN"
 "http://www.w3.org/Graphics/SVG/1.1/DTD/svg11.dtd">
<!-- Generated by graphviz version 2.38.0 (20140413.2041)
 -->
<!-- Title: ideal_age_example::ideal_age_tracer_cs Pages: 1 -->
<!--zoomable 566 -->
<svg id="main" version="1.1" xmlns="http://www.w3.org/2000/svg" xmlns:xlink="http://www.w3.org/1999/xlink" xml:space="preserve" onload="init(evt)">
<style type="text/css"><![CDATA[
.edge:hover path { stroke: red; }
.edge:hover polygon { stroke: red; fill: red; }
]]></style>
<script type="text/javascript"><![CDATA[
var edges = document.getElementsByTagName('g');
if (edges && edges.length) {
  for (var i=0;i<edges.length;i++) {
    if (edges[i].id.substr(0,4)=='edge') {
      edges[i].setAttribute('class','edge');
    }
  }
}
]]></script>
        <defs>
                <circle id="rim" cx="0" cy="0" r="7"/>
                <circle id="rim2" cx="0" cy="0" r="3.5"/>
                <g id="zoomPlus">
                        <use xlink:href="#rim" fill="#404040">
                                <set attributeName="fill" to="#808080" begin="zoomplus.mouseover" end="zoomplus.mouseout"/>
                        </use>
                        <path d="M-4,0h8M0,-4v8" fill="none" stroke="white" stroke-width="1.5" pointer-events="none"/>
                </g>
                <g id="zoomMin">
                        <use xlink:href="#rim" fill="#404040">
                                <set attributeName="fill" to="#808080" begin="zoomminus.mouseover" end="zoomminus.mouseout"/>
                        </use>
                        <path d="M-4,0h8" fill="none" stroke="white" stroke-width="1.5" pointer-events="none"/>
                </g>
                <g id="dirArrow">
                        <path fill="none" stroke="white" stroke-width="1.5" d="M0,-3.0v7 M-2.5,-0.5L0,-3.0L2.5,-0.5"/>
                </g>
               <g id="resetDef">
                       <use xlink:href="#rim2" fill="#404040">
                               <set attributeName="fill" to="#808080" begin="reset.mouseover" end="reset.mouseout"/>
                       </use>
               </g>
        </defs>

<script type="text/javascript">
var viewWidth = 378;
var viewHeight = 566;
var sectionId = 'dynsection-0';
</script>
<script xlink:href="../../svgpan.js"/>
<svg id="graph" class="graph">
<g id="viewport">
<title>ideal_age_example::ideal_age_tracer_cs</title>
<polygon fill="white" stroke="none" points="-4,4 -4,-562 374,-562 374,4 -4,4"/>
<!-- Node1 -->
<g id="node1" class="node"><title>Node1</title>
<polygon fill="#bfbfbf" stroke="black" points="280,-242 280,-272 370,-272 370,-242 280,-242"/>
<text text-anchor="start" x="288" y="-260" font-family="Helvetica,sans-Serif" font-size="10.00">ideal_age_example::</text>
<text text-anchor="middle" x="325" y="-249" font-family="Helvetica,sans-Serif" font-size="10.00">ideal_age_tracer_cs</text>
</g>
<!-- Node2 -->
<g id="node2" class="node"><title>Node2</title>
<polygon fill="white" stroke="#bfbfbf" points="106,-511.5 106,-530.5 144,-530.5 144,-511.5 106,-511.5"/>
<text text-anchor="middle" x="125" y="-518.5" font-family="Helvetica,sans-Serif" font-size="10.00">logical</text>
</g>
<!-- Node2&#45;&gt;Node1 -->
<g id="edge1" class="edge"><title>Node2&#45;&gt;Node1</title>
<path fill="none" stroke="#9a32cd" stroke-dasharray="5,2" d="M154.563,-515.967C185.524,-509.01 234.22,-493.437 262,-461 310.999,-403.786 321.275,-308.626 323.429,-272.001"/>
<polygon fill="#9a32cd" stroke="#9a32cd" points="153.49,-512.616 144.414,-518.082 154.918,-519.468 153.49,-512.616"/>
<text text-anchor="middle" x="228.5" y="-550" font-family="Helvetica,sans-Serif" font-size="10.00"> tracer_ages</text>
<text text-anchor="middle" x="228.5" y="-539" font-family="Helvetica,sans-Serif" font-size="10.00">z_ic_file</text>
<text text-anchor="middle" x="228.5" y="-528" font-family="Helvetica,sans-Serif" font-size="10.00">coupled_tracers</text>
<text text-anchor="middle" x="228.5" y="-517" font-family="Helvetica,sans-Serif" font-size="10.00">tracers_may_reinit</text>
<text text-anchor="middle" x="228.5" y="-506" font-family="Helvetica,sans-Serif" font-size="10.00">mask_tracers</text>
</g>
<!-- Node3 -->
<g id="node3" class="node"><title>Node3</title>
<polygon fill="white" stroke="#bfbfbf" points="99.5,-473.5 99.5,-492.5 150.5,-492.5 150.5,-473.5 99.5,-473.5"/>
<text text-anchor="middle" x="125" y="-480.5" font-family="Helvetica,sans-Serif" font-size="10.00">time_type</text>
</g>
<!-- Node3&#45;&gt;Node1 -->
<g id="edge2" class="edge"><title>Node3&#45;&gt;Node1</title>
<path fill="none" stroke="#9a32cd" stroke-dasharray="5,2" d="M159.464,-469.038C165.48,-466.033 171.561,-462.651 177,-459 219.572,-430.424 231.134,-421.942 262,-381 288.805,-345.445 309.247,-296.521 318.524,-272.119"/>
<polygon fill="#9a32cd" stroke="#9a32cd" points="157.711,-465.995 150.166,-473.433 160.702,-472.324 157.711,-465.995"/>
<text text-anchor="middle" x="228.5" y="-449" font-family="Helvetica,sans-Serif" font-size="10.00"> time</text>
</g>
<!-- Node4 -->
<g id="node4" class="node"><title>Node4</title>
<g id="a_node4"><a xlink:href="../../d7/d80/structideal__age__example_1_1p3d.html" target="_top" xlink:title="ideal_age_example::p3d">
<polygon fill="white" stroke="black" points="73,-311.5 73,-330.5 177,-330.5 177,-311.5 73,-311.5"/>
<text text-anchor="middle" x="125" y="-318.5" font-family="Helvetica,sans-Serif" font-size="10.00">ideal_age_example::p3d</text>
</a>
</g>
</g>
<!-- Node4&#45;&gt;Node1 -->
<g id="edge3" class="edge"><title>Node4&#45;&gt;Node1</title>
<path fill="none" stroke="#9a32cd" stroke-dasharray="5,2" d="M181.666,-309.143C206.566,-303.211 236.085,-295.304 262,-286 272.96,-282.065 284.615,-276.893 294.826,-272.007"/>
<polygon fill="#9a32cd" stroke="#9a32cd" points="180.601,-305.797 171.659,-311.48 182.193,-312.614 180.601,-305.797"/>
<text text-anchor="middle" x="228.5" y="-342" font-family="Helvetica,sans-Serif" font-size="10.00"> tr_adx</text>
<text text-anchor="middle" x="228.5" y="-331" font-family="Helvetica,sans-Serif" font-size="10.00">tr_dfx</text>
<text text-anchor="middle" x="228.5" y="-320" font-family="Helvetica,sans-Serif" font-size="10.00">tr_ady</text>
<text text-anchor="middle" x="228.5" y="-309" font-family="Helvetica,sans-Serif" font-size="10.00">tr_dfy</text>
</g>
<!-- Node5 -->
<g id="node5" class="node"><title>Node5</title>
<polygon fill="white" stroke="#bfbfbf" points="0,-339.5 0,-358.5 30,-358.5 30,-339.5 0,-339.5"/>
<text text-anchor="middle" x="15" y="-346.5" font-family="Helvetica,sans-Serif" font-size="10.00">real</text>
</g>
<!-- Node5&#45;&gt;Node1 -->
<g id="edge10" class="edge"><title>Node5&#45;&gt;Node1</title>
<path fill="none" stroke="#9a32cd" stroke-dasharray="5,2" d="M39.8976,-356.681C86.0841,-370.032 189.439,-392.516 262,-353 293.712,-335.73 311.67,-294.494 319.403,-272.098"/>
<polygon fill="#9a32cd" stroke="#9a32cd" points="40.771,-353.289 30.1867,-353.761 38.7553,-359.993 40.771,-353.289"/>
<text text-anchor="middle" x="125" y="-456" font-family="Helvetica,sans-Serif" font-size="10.00"> tr_aux</text>
<text text-anchor="middle" x="125" y="-445" font-family="Helvetica,sans-Serif" font-size="10.00">land_val</text>
<text text-anchor="middle" x="125" y="-434" font-family="Helvetica,sans-Serif" font-size="10.00">tracer_start_year</text>
<text text-anchor="middle" x="125" y="-423" font-family="Helvetica,sans-Serif" font-size="10.00">ic_val</text>
<text text-anchor="middle" x="125" y="-412" font-family="Helvetica,sans-Serif" font-size="10.00">young_val</text>
<text text-anchor="middle" x="125" y="-401" font-family="Helvetica,sans-Serif" font-size="10.00">tr</text>
<text text-anchor="start" x="94" y="-390" font-family="Helvetica,sans-Serif" font-size="10.00">sfc_growth</text>
<text text-anchor="middle" x="125" y="-379" font-family="Helvetica,sans-Serif" font-size="10.00">_rate</text>
</g>
<!-- Node5&#45;&gt;Node4 -->
<g id="edge4" class="edge"><title>Node5&#45;&gt;Node4</title>
<path fill="none" stroke="#9a32cd" stroke-dasharray="5,2" d="M39.8589,-342.814C53.7199,-339.221 71.4789,-334.617 87.1063,-330.565"/>
<polygon fill="#9a32cd" stroke="#9a32cd" points="38.9207,-339.442 30.1191,-345.339 40.6775,-346.218 38.9207,-339.442"/>
<text text-anchor="middle" x="51.5" y="-343" font-family="Helvetica,sans-Serif" font-size="10.00"> p</text>
</g>
<!-- Node6 -->
<g id="node6" class="node"><title>Node6</title>
<polygon fill="white" stroke="#bfbfbf" points="81,-270.5 81,-289.5 169,-289.5 169,-270.5 81,-270.5"/>
<text text-anchor="middle" x="125" y="-277.5" font-family="Helvetica,sans-Serif" font-size="10.00">tracer_registry_type</text>
</g>
<!-- Node6&#45;&gt;Node1 -->
<g id="edge5" class="edge"><title>Node6&#45;&gt;Node1</title>
<path fill="none" stroke="#9a32cd" stroke-dasharray="5,2" d="M179.788,-273.752C211.215,-270.101 250.383,-265.551 279.965,-262.115"/>
<polygon fill="#9a32cd" stroke="#9a32cd" points="178.981,-270.322 169.452,-274.953 179.789,-277.275 178.981,-270.322"/>
<text text-anchor="middle" x="228.5" y="-275" font-family="Helvetica,sans-Serif" font-size="10.00"> tr_reg</text>
</g>
<!-- Node7 -->
<g id="node7" class="node"><title>Node7</title>
<polygon fill="white" stroke="#bfbfbf" points="82.5,-232.5 82.5,-251.5 167.5,-251.5 167.5,-232.5 82.5,-232.5"/>
<text text-anchor="middle" x="125" y="-239.5" font-family="Helvetica,sans-Serif" font-size="10.00">character(len=200)</text>
</g>
<!-- Node7&#45;&gt;Node1 -->
<g id="edge6" class="edge"><title>Node7&#45;&gt;Node1</title>
<path fill="none" stroke="#9a32cd" stroke-dasharray="5,2" d="M177.719,-238.388C203.194,-237.429 234.31,-237.485 262,-241 267.845,-241.742 273.927,-242.863 279.898,-244.173"/>
<polygon fill="#9a32cd" stroke="#9a32cd" points="177.372,-234.899 167.535,-238.835 177.679,-241.893 177.372,-234.899"/>
<text text-anchor="middle" x="228.5" y="-244" font-family="Helvetica,sans-Serif" font-size="10.00"> ic_file</text>
</g>
<!-- Node8 -->
<g id="node8" class="node"><title>Node8</title>
<polygon fill="white" stroke="#bfbfbf" points="103,-194.5 103,-213.5 147,-213.5 147,-194.5 103,-194.5"/>
<text text-anchor="middle" x="125" y="-201.5" font-family="Helvetica,sans-Serif" font-size="10.00">vardesc</text>
</g>
<!-- Node8&#45;&gt;Node1 -->
<g id="edge7" class="edge"><title>Node8&#45;&gt;Node1</title>
<path fill="none" stroke="#9a32cd" stroke-dasharray="5,2" d="M157.297,-205.162C185.342,-206.951 227.287,-211.489 262,-223 275.75,-227.56 289.996,-235.14 301.361,-241.987"/>
<polygon fill="#9a32cd" stroke="#9a32cd" points="157.452,-201.666 147.273,-204.603 157.062,-208.655 157.452,-201.666"/>
<text text-anchor="middle" x="228.5" y="-226" font-family="Helvetica,sans-Serif" font-size="10.00"> tr_desc</text>
</g>
<!-- Node9 -->
<g id="node9" class="node"><title>Node9</title>
<polygon fill="white" stroke="#bfbfbf" points="77.5,-145 77.5,-175 172.5,-175 172.5,-145 77.5,-145"/>
<text text-anchor="start" x="85.5" y="-163" font-family="Helvetica,sans-Serif" font-size="10.00">type(mom_restart_cs)</text>
<text text-anchor="middle" x="125" y="-152" font-family="Helvetica,sans-Serif" font-size="10.00">, pointer</text>
</g>
<!-- Node9&#45;&gt;Node1 -->
<g id="edge8" class="edge"><title>Node9&#45;&gt;Node1</title>
<path fill="none" stroke="#9a32cd" stroke-dasharray="5,2" d="M182.66,-167.029C208.139,-171.939 237.843,-180.194 262,-194 283.184,-206.107 301.971,-227.477 313.166,-241.934"/>
<polygon fill="#9a32cd" stroke="#9a32cd" points="183.222,-163.574 172.76,-165.246 181.981,-170.463 183.222,-163.574"/>
<text text-anchor="middle" x="228.5" y="-197" font-family="Helvetica,sans-Serif" font-size="10.00"> restart_csp</text>
</g>
<!-- Node10 -->
<g id="node10" class="node"><title>Node10</title>
<polygon fill="white" stroke="#bfbfbf" points="101.5,-106.5 101.5,-125.5 148.5,-125.5 148.5,-106.5 101.5,-106.5"/>
<text text-anchor="middle" x="125" y="-113.5" font-family="Helvetica,sans-Serif" font-size="10.00">diag_ctrl</text>
</g>
<!-- Node10&#45;&gt;Node1 -->
<g id="edge9" class="edge"><title>Node10&#45;&gt;Node1</title>
<path fill="none" stroke="#9a32cd" stroke-dasharray="5,2" d="M158.93,-118.979C188.505,-123.105 231.798,-132.89 262,-156 291.576,-178.631 310.323,-219.749 318.769,-241.9"/>
<polygon fill="#9a32cd" stroke="#9a32cd" points="159.061,-115.468 148.704,-117.7 158.192,-122.414 159.061,-115.468"/>
<text text-anchor="middle" x="228.5" y="-159" font-family="Helvetica,sans-Serif" font-size="10.00"> diag</text>
</g>
<!-- Node11 -->
<g id="node11" class="node"><title>Node11</title>
<polygon fill="white" stroke="#bfbfbf" points="104.5,-0.5 104.5,-19.5 145.5,-19.5 145.5,-0.5 104.5,-0.5"/>
<text text-anchor="middle" x="125" y="-7.5" font-family="Helvetica,sans-Serif" font-size="10.00">integer</text>
</g>
<!-- Node11&#45;&gt;Node1 -->
<g id="edge11" class="edge"><title>Node11&#45;&gt;Node1</title>
<path fill="none" stroke="#9a32cd" stroke-dasharray="5,2" d="M155.979,-7.02611C186.502,-5.73146 233.3,-8.7873 262,-35 323.163,-90.8617 325.951,-201.533 324.778,-241.853"/>
<polygon fill="#9a32cd" stroke="#9a32cd" points="155.688,-3.53721 145.918,-7.63465 156.111,-10.5244 155.688,-3.53721"/>
<text text-anchor="middle" x="228.5" y="-115" font-family="Helvetica,sans-Serif" font-size="10.00"> id_tracer</text>
<text text-anchor="middle" x="228.5" y="-104" font-family="Helvetica,sans-Serif" font-size="10.00">id_tr_dfx</text>
<text text-anchor="middle" x="228.5" y="-93" font-family="Helvetica,sans-Serif" font-size="10.00">ntr</text>
<text text-anchor="middle" x="228.5" y="-82" font-family="Helvetica,sans-Serif" font-size="10.00">id_tr_dfy</text>
<text text-anchor="middle" x="228.5" y="-71" font-family="Helvetica,sans-Serif" font-size="10.00">nkml</text>
<text text-anchor="middle" x="228.5" y="-60" font-family="Helvetica,sans-Serif" font-size="10.00">id_tr_adx</text>
<text text-anchor="middle" x="228.5" y="-49" font-family="Helvetica,sans-Serif" font-size="10.00">ind_tr</text>
<text text-anchor="middle" x="228.5" y="-38" font-family="Helvetica,sans-Serif" font-size="10.00">id_tr_ady</text>
</g>
</g>
</svg>
        <g id="navigator" transform="translate(0 0)" fill="#404254">
                <rect fill="#f2f5e9" fill-opacity="0.5" stroke="#606060" stroke-width=".5" x="0" y="0" width="60" height="60"/>
                <use id="zoomplus" xlink:href="#zoomPlus" x="17" y="9" onmousedown="handleZoom(evt,'in')"/>
                <use id="zoomminus" xlink:href="#zoomMin" x="42" y="9" onmousedown="handleZoom(evt,'out')"/>
                <use id="reset" xlink:href="#resetDef" x="30" y="36" onmousedown="handleReset()"/>
                <g id="arrowUp" xlink:href="#dirArrow" transform="translate(30 24)" onmousedown="handlePan(0,-1)">
                  <use xlink:href="#rim" fill="#404040">
                        <set attributeName="fill" to="#808080" begin="arrowUp.mouseover" end="arrowUp.mouseout"/>
                  </use>
                  <path fill="none" stroke="white" stroke-width="1.5" d="M0,-3.0v7 M-2.5,-0.5L0,-3.0L2.5,-0.5"/>
                </g>
                <g id="arrowRight" xlink:href="#dirArrow" transform="rotate(90) translate(36 -43)" onmousedown="handlePan(1,0)">
                  <use xlink:href="#rim" fill="#404040">
                        <set attributeName="fill" to="#808080" begin="arrowRight.mouseover" end="arrowRight.mouseout"/>
                  </use>
                  <path fill="none" stroke="white" stroke-width="1.5" d="M0,-3.0v7 M-2.5,-0.5L0,-3.0L2.5,-0.5"/>
                </g>
                <g id="arrowDown" xlink:href="#dirArrow" transform="rotate(180) translate(-30 -48)" onmousedown="handlePan(0,1)">
                  <use xlink:href="#rim" fill="#404040">
                        <set attributeName="fill" to="#808080" begin="arrowDown.mouseover" end="arrowDown.mouseout"/>
                  </use>
                  <path fill="none" stroke="white" stroke-width="1.5" d="M0,-3.0v7 M-2.5,-0.5L0,-3.0L2.5,-0.5"/>
                </g>
                <g id="arrowLeft" xlink:href="#dirArrow" transform="rotate(270) translate(-36 17)" onmousedown="handlePan(-1,0)">
                  <use xlink:href="#rim" fill="#404040">
                        <set attributeName="fill" to="#808080" begin="arrowLeft.mouseover" end="arrowLeft.mouseout"/>
                  </use>
                  <path fill="none" stroke="white" stroke-width="1.5" d="M0,-3.0v7 M-2.5,-0.5L0,-3.0L2.5,-0.5"/>
                </g>
        </g>
        <svg viewBox="0 0 15 15" width="100%" height="30px" preserveAspectRatio="xMaxYMin meet">
         <g id="arrow_out" transform="scale(0.3 0.3)">
          <a xlink:href="structideal__age__example_1_1ideal__age__tracer__cs__coll__graph_org.svg" target="_base">
           <rect id="button" ry="5" rx="5" y="6" x="6" height="38" width="38"
                fill="#f2f5e9" fill-opacity="0.5" stroke="#606060" stroke-width="1.0"/>
           <path id="arrow"
             d="M 11.500037,31.436501 C 11.940474,20.09759 22.043105,11.32322 32.158766,21.979434 L 37.068811,17.246167 C 37.068811,17.246167 37.088388,32 37.088388,32 L 22.160133,31.978069 C 22.160133,31.978069 26.997745,27.140456 26.997745,27.140456 C 18.528582,18.264221 13.291696,25.230495 11.500037,31.436501 z"
             style="fill:#404040;"/>
          </a>
         </g>
        </svg>
</svg>
