<?xml version="1.0" encoding="UTF-8" standalone="no"?>
<!DOCTYPE svg PUBLIC "-//W3C//DTD SVG 1.1//EN"
 "http://www.w3.org/Graphics/SVG/1.1/DTD/svg11.dtd">
<!-- Generated by graphviz version 2.38.0 (20140413.2041)
 -->
<!-- Title: mom_hor_visc::horizontal_viscosity Pages: 1 -->
<svg width="285pt" height="88pt"
 viewBox="0.00 0.00 285.00 88.00" xmlns="http://www.w3.org/2000/svg" xmlns:xlink="http://www.w3.org/1999/xlink">
<g id="graph0" class="graph" transform="scale(1 1) rotate(0) translate(4 84)">
<title>mom_hor_visc::horizontal_viscosity</title>
<polygon fill="white" stroke="none" points="-4,4 -4,-84 281,-84 281,4 -4,4"/>
<!-- Node10 -->
<g id="node1" class="node"><title>Node10</title>
<polygon fill="#bfbfbf" stroke="black" points="0,-24.5 0,-54.5 107,-54.5 107,-24.5 0,-24.5"/>
<text text-anchor="start" x="8" y="-42.5" font-family="Helvetica,sans-Serif" font-size="10.00">mom_hor_visc::horizontal</text>
<text text-anchor="middle" x="53.5" y="-31.5" font-family="Helvetica,sans-Serif" font-size="10.00">_viscosity</text>
</g>
<!-- Node11 -->
<g id="node2" class="node"><title>Node11</title>
<g id="a_node2"><a xlink:href="../../d7/d44/namespacemom__dynamics__unsplit.html#a53a72861e61f049479fdec46ea11227b" target="_top" xlink:title="mom_dynamics_unsplit\l::step_mom_dyn_unsplit">
<polygon fill="white" stroke="black" points="158.5,-49.5 158.5,-79.5 261.5,-79.5 261.5,-49.5 158.5,-49.5"/>
<text text-anchor="start" x="166.5" y="-67.5" font-family="Helvetica,sans-Serif" font-size="10.00">mom_dynamics_unsplit</text>
<text text-anchor="middle" x="210" y="-56.5" font-family="Helvetica,sans-Serif" font-size="10.00">::step_mom_dyn_unsplit</text>
</a>
</g>
</g>
<!-- Node10&#45;&gt;Node11 -->
<g id="edge1" class="edge"><title>Node10&#45;&gt;Node11</title>
<path fill="none" stroke="midnightblue" d="M117.483,-49.6915C131.075,-51.8908 145.277,-54.1888 158.327,-56.3004"/>
<polygon fill="midnightblue" stroke="midnightblue" points="117.669,-46.176 107.238,-48.0337 116.551,-53.0861 117.669,-46.176"/>
</g>
<!-- Node12 -->
<g id="node3" class="node"><title>Node12</title>
<g id="a_node3"><a xlink:href="../../d7/da4/namespacemom__dynamics__unsplit__rk2.html#ae10d75d92c1ec7783df7e5d8965b86a0" target="_top" xlink:title="mom_dynamics_unsplit\l_rk2::step_mom_dyn_unsplit_rk2">
<polygon fill="white" stroke="black" points="143,-0.5 143,-30.5 277,-30.5 277,-0.5 143,-0.5"/>
<text text-anchor="start" x="151" y="-18.5" font-family="Helvetica,sans-Serif" font-size="10.00">mom_dynamics_unsplit</text>
<text text-anchor="middle" x="210" y="-7.5" font-family="Helvetica,sans-Serif" font-size="10.00">_rk2::step_mom_dyn_unsplit_rk2</text>
</a>
</g>
</g>
<!-- Node10&#45;&gt;Node12 -->
<g id="edge2" class="edge"><title>Node10&#45;&gt;Node12</title>
<path fill="none" stroke="midnightblue" d="M117.342,-29.7382C125.744,-28.433 134.381,-27.0912 142.838,-25.7776"/>
<polygon fill="midnightblue" stroke="midnightblue" points="116.582,-26.3141 107.238,-31.3077 117.657,-33.2311 116.582,-26.3141"/>
</g>
</g>
</svg>
