<?xml version="1.0" encoding="UTF-8" standalone="no"?>
<!DOCTYPE svg PUBLIC "-//W3C//DTD SVG 1.1//EN"
 "http://www.w3.org/Graphics/SVG/1.1/DTD/svg11.dtd">
<!-- Generated by graphviz version 2.38.0 (20140413.2041)
 -->
<!-- Title: bfb_initialization::bfb_initialize_sponges_southonly Pages: 1 -->
<svg width="497pt" height="88pt"
 viewBox="0.00 0.00 497.00 88.00" xmlns="http://www.w3.org/2000/svg" xmlns:xlink="http://www.w3.org/1999/xlink">
<g id="graph0" class="graph" transform="scale(1 1) rotate(0) translate(4 84)">
<title>bfb_initialization::bfb_initialize_sponges_southonly</title>
<polygon fill="white" stroke="none" points="-4,4 -4,-84 493,-84 493,4 -4,4"/>
<!-- Node0 -->
<g id="node1" class="node"><title>Node0</title>
<polygon fill="#bfbfbf" stroke="black" points="0,-19 0,-60 98,-60 98,-19 0,-19"/>
<text text-anchor="start" x="8" y="-48" font-family="Helvetica,sans-Serif" font-size="10.00">bfb_initialization</text>
<text text-anchor="start" x="8" y="-37" font-family="Helvetica,sans-Serif" font-size="10.00">::bfb_initialize_sponges</text>
<text text-anchor="middle" x="49" y="-26" font-family="Helvetica,sans-Serif" font-size="10.00">_southonly</text>
</g>
<!-- Node1 -->
<g id="node2" class="node"><title>Node1</title>
<g id="a_node2"><a xlink:href="../../d8/da8/namespacemom__sponge.html#a61184539a8e8e9d27dd9071c509b68bf" target="_top" xlink:title="mom_sponge::initialize\l_sponge">
<polygon fill="white" stroke="black" points="134,-49.5 134,-79.5 231,-79.5 231,-49.5 134,-49.5"/>
<text text-anchor="start" x="142" y="-67.5" font-family="Helvetica,sans-Serif" font-size="10.00">mom_sponge::initialize</text>
<text text-anchor="middle" x="182.5" y="-56.5" font-family="Helvetica,sans-Serif" font-size="10.00">_sponge</text>
</a>
</g>
</g>
<!-- Node0&#45;&gt;Node1 -->
<g id="edge1" class="edge"><title>Node0&#45;&gt;Node1</title>
<path fill="none" stroke="midnightblue" d="M98.2191,-48.6671C106.543,-50.2497 115.272,-51.9091 123.816,-53.5335"/>
<polygon fill="midnightblue" stroke="midnightblue" points="123.248,-56.9882 133.726,-55.4175 124.556,-50.1113 123.248,-56.9882"/>
</g>
<!-- Node5 -->
<g id="node6" class="node"><title>Node5</title>
<g id="a_node6"><a xlink:href="../../d8/d30/namespacebfb__initialization.html#acf4641a95e7aa3b9953db2b04a627c97" target="_top" xlink:title="Write output about the parameter values being used. ">
<polygon fill="white" stroke="black" points="146.5,-0.5 146.5,-30.5 218.5,-30.5 218.5,-0.5 146.5,-0.5"/>
<text text-anchor="start" x="154.5" y="-18.5" font-family="Helvetica,sans-Serif" font-size="10.00">bfb_initialization</text>
<text text-anchor="middle" x="182.5" y="-7.5" font-family="Helvetica,sans-Serif" font-size="10.00">::write_bfb_log</text>
</a>
</g>
</g>
<!-- Node0&#45;&gt;Node5 -->
<g id="edge6" class="edge"><title>Node0&#45;&gt;Node5</title>
<path fill="none" stroke="midnightblue" d="M98.2191,-30.6996C110.703,-28.4211 124.097,-25.9766 136.414,-23.7287"/>
<polygon fill="midnightblue" stroke="midnightblue" points="137.254,-27.1333 146.463,-21.8946 135.997,-20.247 137.254,-27.1333"/>
</g>
<!-- Node2 -->
<g id="node3" class="node"><title>Node2</title>
<g id="a_node3"><a xlink:href="../../d0/de6/namespacemom__error__handler.html#a460cfb79a06c29fc249952c2a3710d67" target="_top" xlink:title="mom_error_handler::\lmom_error">
<polygon fill="white" stroke="black" points="267,-49.5 267,-79.5 360,-79.5 360,-49.5 267,-49.5"/>
<text text-anchor="start" x="275" y="-67.5" font-family="Helvetica,sans-Serif" font-size="10.00">mom_error_handler::</text>
<text text-anchor="middle" x="313.5" y="-56.5" font-family="Helvetica,sans-Serif" font-size="10.00">mom_error</text>
</a>
</g>
</g>
<!-- Node1&#45;&gt;Node2 -->
<g id="edge2" class="edge"><title>Node1&#45;&gt;Node2</title>
<path fill="none" stroke="midnightblue" d="M231.168,-64.5C239.434,-64.5 248.097,-64.5 256.56,-64.5"/>
<polygon fill="midnightblue" stroke="midnightblue" points="256.743,-68.0001 266.743,-64.5 256.743,-61.0001 256.743,-68.0001"/>
</g>
<!-- Node4 -->
<g id="node5" class="node"><title>Node4</title>
<g id="a_node5"><a xlink:href="../../d9/def/namespacemom__file__parser.html#a17c0ef1bb1912f02faa0aaa1e0f64210" target="_top" xlink:title="mom_file_parser::log\l_version">
<polygon fill="white" stroke="black" points="267.5,-0.5 267.5,-30.5 359.5,-30.5 359.5,-0.5 267.5,-0.5"/>
<text text-anchor="start" x="275.5" y="-18.5" font-family="Helvetica,sans-Serif" font-size="10.00">mom_file_parser::log</text>
<text text-anchor="middle" x="313.5" y="-7.5" font-family="Helvetica,sans-Serif" font-size="10.00">_version</text>
</a>
</g>
</g>
<!-- Node1&#45;&gt;Node4 -->
<g id="edge4" class="edge"><title>Node1&#45;&gt;Node4</title>
<path fill="none" stroke="midnightblue" d="M223.257,-49.3986C235.886,-44.6015 250.007,-39.2378 263.223,-34.2177"/>
<polygon fill="midnightblue" stroke="midnightblue" points="264.547,-37.4588 272.652,-30.6359 262.061,-30.915 264.547,-37.4588"/>
</g>
<!-- Node3 -->
<g id="node4" class="node"><title>Node3</title>
<g id="a_node4"><a xlink:href="../../d0/de6/namespacemom__error__handler.html#ad5f00a53059c72fe2332d1436c80ca71" target="_top" xlink:title="mom_error_handler::\lis_root_pe">
<polygon fill="white" stroke="black" points="396,-24.5 396,-54.5 489,-54.5 489,-24.5 396,-24.5"/>
<text text-anchor="start" x="404" y="-42.5" font-family="Helvetica,sans-Serif" font-size="10.00">mom_error_handler::</text>
<text text-anchor="middle" x="442.5" y="-31.5" font-family="Helvetica,sans-Serif" font-size="10.00">is_root_pe</text>
</a>
</g>
</g>
<!-- Node2&#45;&gt;Node3 -->
<g id="edge3" class="edge"><title>Node2&#45;&gt;Node3</title>
<path fill="none" stroke="midnightblue" d="M360.35,-55.4744C368.623,-53.8459 377.33,-52.1319 385.846,-50.4556"/>
<polygon fill="midnightblue" stroke="midnightblue" points="386.582,-53.8779 395.717,-48.5123 385.23,-47.0097 386.582,-53.8779"/>
</g>
<!-- Node4&#45;&gt;Node3 -->
<g id="edge5" class="edge"><title>Node4&#45;&gt;Node3</title>
<path fill="none" stroke="midnightblue" d="M359.633,-24.0291C368.037,-25.6172 376.911,-27.2941 385.592,-28.9347"/>
<polygon fill="midnightblue" stroke="midnightblue" points="385.18,-32.4187 395.656,-30.8365 386.48,-25.5404 385.18,-32.4187"/>
</g>
<!-- Node5&#45;&gt;Node4 -->
<g id="edge7" class="edge"><title>Node5&#45;&gt;Node4</title>
<path fill="none" stroke="midnightblue" d="M218.75,-15.5C230.522,-15.5 243.944,-15.5 256.881,-15.5"/>
<polygon fill="midnightblue" stroke="midnightblue" points="257.11,-19.0001 267.11,-15.5 257.11,-12.0001 257.11,-19.0001"/>
</g>
</g>
</svg>
