<?xml version="1.0" encoding="UTF-8" standalone="no"?>
<!DOCTYPE svg PUBLIC "-//W3C//DTD SVG 1.1//EN"
 "http://www.w3.org/Graphics/SVG/1.1/DTD/svg11.dtd">
<!-- Generated by graphviz version 2.38.0 (20140413.2041)
 -->
<!-- Title: bfb_initialization::write_bfb_log Pages: 1 -->
<svg width="571pt" height="99pt"
 viewBox="0.00 0.00 571.00 98.50" xmlns="http://www.w3.org/2000/svg" xmlns:xlink="http://www.w3.org/1999/xlink">
<g id="graph0" class="graph" transform="scale(1 1) rotate(0) translate(4 94.5)">
<title>bfb_initialization::write_bfb_log</title>
<polygon fill="white" stroke="none" points="-4,4 -4,-94.5 567,-94.5 567,4 -4,4"/>
<!-- Node21 -->
<g id="node1" class="node"><title>Node21</title>
<polygon fill="#bfbfbf" stroke="black" points="0,-27.5 0,-57.5 72,-57.5 72,-27.5 0,-27.5"/>
<text text-anchor="start" x="8" y="-45.5" font-family="Helvetica,sans-Serif" font-size="10.00">bfb_initialization</text>
<text text-anchor="middle" x="36" y="-34.5" font-family="Helvetica,sans-Serif" font-size="10.00">::write_bfb_log</text>
</g>
<!-- Node22 -->
<g id="node2" class="node"><title>Node22</title>
<g id="a_node2"><a xlink:href="../../d8/d30/namespacebfb__initialization.html#a03de1f1af12eab371cc0e4336a749ccf" target="_top" xlink:title="bfb_initialization\l::bfb_initialize_sponges\l_southonly">
<polygon fill="white" stroke="black" points="108,-49 108,-90 206,-90 206,-49 108,-49"/>
<text text-anchor="start" x="116" y="-78" font-family="Helvetica,sans-Serif" font-size="10.00">bfb_initialization</text>
<text text-anchor="start" x="116" y="-67" font-family="Helvetica,sans-Serif" font-size="10.00">::bfb_initialize_sponges</text>
<text text-anchor="middle" x="157" y="-56" font-family="Helvetica,sans-Serif" font-size="10.00">_southonly</text>
</a>
</g>
</g>
<!-- Node21&#45;&gt;Node22 -->
<g id="edge1" class="edge"><title>Node21&#45;&gt;Node22</title>
<path fill="none" stroke="midnightblue" d="M81.8358,-52.6728C90.37,-54.6092 99.3334,-56.6429 107.963,-58.6008"/>
<polygon fill="midnightblue" stroke="midnightblue" points="82.5869,-49.2544 72.0603,-50.4549 81.038,-56.0809 82.5869,-49.2544"/>
</g>
<!-- Node26 -->
<g id="node6" class="node"><title>Node26</title>
<g id="a_node6"><a xlink:href="../../d8/d30/namespacebfb__initialization.html#a681cb69f1a6fe142e5baa6aee5f57060" target="_top" xlink:title="bfb_initialization\l::bfb_set_coord">
<polygon fill="white" stroke="black" points="121,-0.5 121,-30.5 193,-30.5 193,-0.5 121,-0.5"/>
<text text-anchor="start" x="129" y="-18.5" font-family="Helvetica,sans-Serif" font-size="10.00">bfb_initialization</text>
<text text-anchor="middle" x="157" y="-7.5" font-family="Helvetica,sans-Serif" font-size="10.00">::bfb_set_coord</text>
</a>
</g>
</g>
<!-- Node21&#45;&gt;Node26 -->
<g id="edge5" class="edge"><title>Node21&#45;&gt;Node26</title>
<path fill="none" stroke="midnightblue" d="M82.0803,-32.2717C94.8892,-29.3655 108.647,-26.244 120.779,-23.4913"/>
<polygon fill="midnightblue" stroke="midnightblue" points="81.038,-28.9192 72.0603,-34.5451 82.5869,-35.7456 81.038,-28.9192"/>
</g>
<!-- Node23 -->
<g id="node3" class="node"><title>Node23</title>
<g id="a_node3"><a xlink:href="../../d6/d62/namespacemom__state__initialization.html#af4e854627c6572332ba3fd895f169321" target="_top" xlink:title="mom_state_initialization\l::mom_initialize_state">
<polygon fill="white" stroke="black" points="243.5,-52.5 243.5,-82.5 344.5,-82.5 344.5,-52.5 243.5,-52.5"/>
<text text-anchor="start" x="251.5" y="-70.5" font-family="Helvetica,sans-Serif" font-size="10.00">mom_state_initialization</text>
<text text-anchor="middle" x="294" y="-59.5" font-family="Helvetica,sans-Serif" font-size="10.00">::mom_initialize_state</text>
</a>
</g>
</g>
<!-- Node22&#45;&gt;Node23 -->
<g id="edge2" class="edge"><title>Node22&#45;&gt;Node23</title>
<path fill="none" stroke="midnightblue" d="M216.613,-68.6317C225.462,-68.5006 234.519,-68.3664 243.161,-68.2384"/>
<polygon fill="midnightblue" stroke="midnightblue" points="216.304,-65.1358 206.357,-68.7836 216.408,-72.135 216.304,-65.1358"/>
</g>
<!-- Node24 -->
<g id="node4" class="node"><title>Node24</title>
<g id="a_node4"><a xlink:href="../../da/d01/namespacemom.html#afebdc0103ad9cbe0ed4a54e522dc4104" target="_top" xlink:title="This subroutine initializes MOM. ">
<polygon fill="white" stroke="black" points="382,-33 382,-52 471,-52 471,-33 382,-33"/>
<text text-anchor="middle" x="426.5" y="-40" font-family="Helvetica,sans-Serif" font-size="10.00">mom::initialize_mom</text>
</a>
</g>
</g>
<!-- Node23&#45;&gt;Node24 -->
<g id="edge3" class="edge"><title>Node23&#45;&gt;Node24</title>
<path fill="none" stroke="midnightblue" d="M354.596,-56.0832C363.794,-54.3211 373.143,-52.53 381.905,-50.8515"/>
<polygon fill="midnightblue" stroke="midnightblue" points="353.872,-52.6582 344.709,-57.9773 355.189,-59.5332 353.872,-52.6582"/>
</g>
<!-- Node25 -->
<g id="node5" class="node"><title>Node25</title>
<g id="a_node5"><a xlink:href="../../de/dbc/MOM__driver_8F90.html#a08fffeb2d8e8acbf9ed4609be6d258c6" target="_top" xlink:title="mom_main">
<polygon fill="white" stroke="black" points="507,-33 507,-52 563,-52 563,-33 507,-33"/>
<text text-anchor="middle" x="535" y="-40" font-family="Helvetica,sans-Serif" font-size="10.00">mom_main</text>
</a>
</g>
</g>
<!-- Node24&#45;&gt;Node25 -->
<g id="edge4" class="edge"><title>Node24&#45;&gt;Node25</title>
<path fill="none" stroke="midnightblue" d="M481.407,-42.5C490.206,-42.5 498.981,-42.5 506.771,-42.5"/>
<polygon fill="midnightblue" stroke="midnightblue" points="481.125,-39.0001 471.125,-42.5 481.125,-46.0001 481.125,-39.0001"/>
</g>
<!-- Node27 -->
<g id="node7" class="node"><title>Node27</title>
<g id="a_node7"><a xlink:href="../../de/d88/namespacemom__coord__initialization.html#a6e2f4c11bc99476ea9c64a9aceac3b81" target="_top" xlink:title="MOM_initialize_coord sets up time&#45;invariant quantities related to MOM6&#39;s vertical coordinate...">
<polygon fill="white" stroke="black" points="242,-2.5 242,-32.5 346,-32.5 346,-2.5 242,-2.5"/>
<text text-anchor="start" x="250" y="-20.5" font-family="Helvetica,sans-Serif" font-size="10.00">mom_coord_initialization</text>
<text text-anchor="middle" x="294" y="-9.5" font-family="Helvetica,sans-Serif" font-size="10.00">::mom_initialize_coord</text>
</a>
</g>
</g>
<!-- Node26&#45;&gt;Node27 -->
<g id="edge6" class="edge"><title>Node26&#45;&gt;Node27</title>
<path fill="none" stroke="midnightblue" d="M203.209,-16.1698C215.589,-16.3532 229.096,-16.5533 241.786,-16.7413"/>
<polygon fill="midnightblue" stroke="midnightblue" points="203.168,-12.6689 193.117,-16.0203 203.064,-19.6681 203.168,-12.6689"/>
</g>
<!-- Node27&#45;&gt;Node24 -->
<g id="edge7" class="edge"><title>Node27&#45;&gt;Node24</title>
<path fill="none" stroke="midnightblue" d="M356.198,-29.2238C364.78,-30.8678 373.456,-32.5298 381.628,-34.0955"/>
<polygon fill="midnightblue" stroke="midnightblue" points="356.682,-25.753 346.203,-27.3089 355.365,-32.628 356.682,-25.753"/>
</g>
</g>
</svg>
