<?xml version="1.0" encoding="UTF-8" standalone="no"?>
<!DOCTYPE svg PUBLIC "-//W3C//DTD SVG 1.1//EN"
 "http://www.w3.org/Graphics/SVG/1.1/DTD/svg11.dtd">
<!-- Generated by graphviz version 2.38.0 (20140413.2041)
 -->
<!-- Title: mom_checksums::chksum_h_2d Pages: 1 -->
<svg width="481pt" height="154pt"
 viewBox="0.00 0.00 481.00 153.50" xmlns="http://www.w3.org/2000/svg" xmlns:xlink="http://www.w3.org/1999/xlink">
<g id="graph0" class="graph" transform="scale(1 1) rotate(0) translate(4 149.5)">
<title>mom_checksums::chksum_h_2d</title>
<polygon fill="white" stroke="none" points="-4,4 -4,-149.5 477,-149.5 477,4 -4,4"/>
<!-- Node36 -->
<g id="node1" class="node"><title>Node36</title>
<polygon fill="#bfbfbf" stroke="black" points="0,-57.5 0,-76.5 161,-76.5 161,-57.5 0,-57.5"/>
<text text-anchor="middle" x="80.5" y="-64.5" font-family="Helvetica,sans-Serif" font-size="10.00">mom_checksums::chksum_h_2d</text>
</g>
<!-- Node37 -->
<g id="node2" class="node"><title>Node37</title>
<g id="a_node2"><a xlink:href="../../d2/d84/namespacemom__checksums.html#a6400a8423305b77e4aed5d1cb4c24520" target="_top" xlink:title="mom_checksums::chksum\l_error">
<polygon fill="white" stroke="black" points="197,-115 197,-145 331,-145 331,-115 197,-115"/>
<text text-anchor="start" x="205" y="-133" font-family="Helvetica,sans-Serif" font-size="10.00">mom_checksums::chksum</text>
<text text-anchor="middle" x="264" y="-122" font-family="Helvetica,sans-Serif" font-size="10.00">_error</text>
</a>
</g>
</g>
<!-- Node36&#45;&gt;Node37 -->
<g id="edge1" class="edge"><title>Node36&#45;&gt;Node37</title>
<path fill="none" stroke="midnightblue" d="M109.066,-76.5683C135.782,-85.8418 177.003,-100.15 210.067,-111.627"/>
<polygon fill="midnightblue" stroke="midnightblue" points="209.004,-114.962 219.598,-114.935 211.299,-108.349 209.004,-114.962"/>
</g>
<!-- Node38 -->
<g id="node3" class="node"><title>Node38</title>
<g id="a_node3"><a xlink:href="../../d0/de6/namespacemom__error__handler.html#ad5f00a53059c72fe2332d1436c80ca71" target="_top" xlink:title="mom_error_handler::\lis_root_pe">
<polygon fill="white" stroke="black" points="367,-33 367,-63 473,-63 473,-33 367,-33"/>
<text text-anchor="start" x="375" y="-51" font-family="Helvetica,sans-Serif" font-size="10.00">mom_error_handler::</text>
<text text-anchor="middle" x="420" y="-40" font-family="Helvetica,sans-Serif" font-size="10.00">is_root_pe</text>
</a>
</g>
</g>
<!-- Node36&#45;&gt;Node38 -->
<g id="edge2" class="edge"><title>Node36&#45;&gt;Node38</title>
<path fill="none" stroke="midnightblue" d="M161.227,-71.2981C210.321,-72.8801 274.469,-73.0333 331,-67 339.378,-66.1059 348.129,-64.7458 356.726,-63.1557"/>
<polygon fill="midnightblue" stroke="midnightblue" points="357.574,-66.5561 366.714,-61.1976 356.228,-59.6869 357.574,-66.5561"/>
</g>
<!-- Node39 -->
<g id="node4" class="node"><title>Node39</title>
<g id="a_node4"><a xlink:href="../../d8/d48/MOM__checksums_8F90.html#a5a04c2e73a1777726a6d2a533911540e" target="_top" xlink:title="subchk">
<polygon fill="white" stroke="black" points="240,-38.5 240,-57.5 288,-57.5 288,-38.5 240,-38.5"/>
<text text-anchor="middle" x="264" y="-45.5" font-family="Helvetica,sans-Serif" font-size="10.00">subchk</text>
</a>
</g>
</g>
<!-- Node36&#45;&gt;Node39 -->
<g id="edge3" class="edge"><title>Node36&#45;&gt;Node39</title>
<path fill="none" stroke="midnightblue" d="M161.109,-58.6663C185.218,-56.1425 210.393,-53.5071 229.687,-51.4873"/>
<polygon fill="midnightblue" stroke="midnightblue" points="230.175,-54.9554 239.756,-50.4332 229.446,-47.9935 230.175,-54.9554"/>
</g>
<!-- Node40 -->
<g id="node5" class="node"><title>Node40</title>
<g id="a_node5"><a xlink:href="../../d8/d48/MOM__checksums_8F90.html#a685f6e54ff8cc7aed965d24213f895f1" target="_top" xlink:title="substats">
<polygon fill="white" stroke="black" points="237,-0.5 237,-19.5 291,-19.5 291,-0.5 237,-0.5"/>
<text text-anchor="middle" x="264" y="-7.5" font-family="Helvetica,sans-Serif" font-size="10.00">substats</text>
</a>
</g>
</g>
<!-- Node36&#45;&gt;Node40 -->
<g id="edge4" class="edge"><title>Node36&#45;&gt;Node40</title>
<path fill="none" stroke="midnightblue" d="M109.413,-57.4907C132.748,-49.6197 166.943,-38.2672 197,-29 206.725,-26.0015 217.302,-22.8904 227.082,-20.0751"/>
<polygon fill="midnightblue" stroke="midnightblue" points="228.262,-23.3781 236.915,-17.2655 226.338,-16.6474 228.262,-23.3781"/>
</g>
<!-- Node40&#45;&gt;Node38 -->
<g id="edge5" class="edge"><title>Node40&#45;&gt;Node38</title>
<path fill="none" stroke="midnightblue" d="M291.124,-16.4462C309.22,-20.9114 334.102,-27.0511 357.11,-32.7285"/>
<polygon fill="midnightblue" stroke="midnightblue" points="356.283,-36.1294 366.831,-35.1271 357.96,-29.3332 356.283,-36.1294"/>
</g>
</g>
</svg>
