<?xml version="1.0" encoding="UTF-8" standalone="no"?>
<!DOCTYPE svg PUBLIC "-//W3C//DTD SVG 1.1//EN"
 "http://www.w3.org/Graphics/SVG/1.1/DTD/svg11.dtd">
<!-- Generated by graphviz version 2.38.0 (20140413.2041)
 -->
<!-- Title: mom_eos_wright::int_density_dz_wright Pages: 1 -->
<svg width="627pt" height="39pt"
 viewBox="0.00 0.00 627.00 39.00" xmlns="http://www.w3.org/2000/svg" xmlns:xlink="http://www.w3.org/1999/xlink">
<g id="graph0" class="graph" transform="scale(1 1) rotate(0) translate(4 35)">
<title>mom_eos_wright::int_density_dz_wright</title>
<polygon fill="white" stroke="none" points="-4,4 -4,-35 623,-35 623,4 -4,4"/>
<!-- Node63 -->
<g id="node1" class="node"><title>Node63</title>
<polygon fill="#bfbfbf" stroke="black" points="0,-0.5 0,-30.5 107,-30.5 107,-0.5 0,-0.5"/>
<text text-anchor="start" x="8" y="-18.5" font-family="Helvetica,sans-Serif" font-size="10.00">mom_eos_wright::int</text>
<text text-anchor="middle" x="53.5" y="-7.5" font-family="Helvetica,sans-Serif" font-size="10.00">_density_dz_wright</text>
</g>
<!-- Node64 -->
<g id="node2" class="node"><title>Node64</title>
<g id="a_node2"><a xlink:href="../../d1/d01/namespacemom__eos.html#a1def0e6b257a12105457a50c92da2487" target="_top" xlink:title="This subroutine calculates analytical and nearly&#45;analytical integrals of pressure anomalies across la...">
<polygon fill="white" stroke="black" points="143,-6 143,-25 271,-25 271,-6 143,-6"/>
<text text-anchor="middle" x="207" y="-13" font-family="Helvetica,sans-Serif" font-size="10.00">mom_eos::int_density_dz</text>
</a>
</g>
</g>
<!-- Node63&#45;&gt;Node64 -->
<g id="edge1" class="edge"><title>Node63&#45;&gt;Node64</title>
<path fill="none" stroke="midnightblue" d="M117.237,-15.5C125.693,-15.5 134.373,-15.5 142.836,-15.5"/>
<polygon fill="midnightblue" stroke="midnightblue" points="117.062,-12.0001 107.062,-15.5 117.062,-19.0001 117.062,-12.0001"/>
</g>
<!-- Node65 -->
<g id="node3" class="node"><title>Node65</title>
<g id="a_node3"><a xlink:href="../../d9/d8b/namespacemom__diagnostics.html#a0b6f33e7b575b5f685f781030b301876" target="_top" xlink:title="mom_diagnostics::calculate\l_vertical_integrals">
<polygon fill="white" stroke="black" points="307,-0.5 307,-30.5 445,-30.5 445,-0.5 307,-0.5"/>
<text text-anchor="start" x="315" y="-18.5" font-family="Helvetica,sans-Serif" font-size="10.00">mom_diagnostics::calculate</text>
<text text-anchor="middle" x="376" y="-7.5" font-family="Helvetica,sans-Serif" font-size="10.00">_vertical_integrals</text>
</a>
</g>
</g>
<!-- Node64&#45;&gt;Node65 -->
<g id="edge2" class="edge"><title>Node64&#45;&gt;Node65</title>
<path fill="none" stroke="midnightblue" d="M281.345,-15.5C289.792,-15.5 298.379,-15.5 306.755,-15.5"/>
<polygon fill="midnightblue" stroke="midnightblue" points="281.136,-12.0001 271.136,-15.5 281.136,-19.0001 281.136,-12.0001"/>
</g>
<!-- Node66 -->
<g id="node4" class="node"><title>Node66</title>
<g id="a_node4"><a xlink:href="../../d9/d8b/namespacemom__diagnostics.html#abb6644248c28ab2e952361bfec436063" target="_top" xlink:title="mom_diagnostics::calculate\l_diagnostic_fields">
<polygon fill="white" stroke="black" points="481,-0.5 481,-30.5 619,-30.5 619,-0.5 481,-0.5"/>
<text text-anchor="start" x="489" y="-18.5" font-family="Helvetica,sans-Serif" font-size="10.00">mom_diagnostics::calculate</text>
<text text-anchor="middle" x="550" y="-7.5" font-family="Helvetica,sans-Serif" font-size="10.00">_diagnostic_fields</text>
</a>
</g>
</g>
<!-- Node65&#45;&gt;Node66 -->
<g id="edge3" class="edge"><title>Node65&#45;&gt;Node66</title>
<path fill="none" stroke="midnightblue" d="M455.637,-15.5C464.025,-15.5 472.508,-15.5 480.762,-15.5"/>
<polygon fill="midnightblue" stroke="midnightblue" points="455.473,-12.0001 445.473,-15.5 455.473,-19.0001 455.473,-12.0001"/>
</g>
</g>
</svg>
