<?xml version="1.0" encoding="UTF-8" standalone="no"?>
<!DOCTYPE svg PUBLIC "-//W3C//DTD SVG 1.1//EN"
 "http://www.w3.org/Graphics/SVG/1.1/DTD/svg11.dtd">
<!-- Generated by graphviz version 2.38.0 (20140413.2041)
 -->
<!-- Title: mom_eos_wright::calculate_density_array_wright Pages: 1 -->
<svg width="630pt" height="132pt"
 viewBox="0.00 0.00 630.00 132.00" xmlns="http://www.w3.org/2000/svg" xmlns:xlink="http://www.w3.org/1999/xlink">
<g id="graph0" class="graph" transform="scale(1 1) rotate(0) translate(4 128)">
<title>mom_eos_wright::calculate_density_array_wright</title>
<polygon fill="white" stroke="none" points="-4,4 -4,-128 626,-128 626,4 -4,4"/>
<!-- Node7 -->
<g id="node1" class="node"><title>Node7</title>
<polygon fill="#bfbfbf" stroke="black" points="0,-24.5 0,-54.5 136,-54.5 136,-24.5 0,-24.5"/>
<text text-anchor="start" x="8" y="-42.5" font-family="Helvetica,sans-Serif" font-size="10.00">mom_eos_wright::calculate</text>
<text text-anchor="middle" x="68" y="-31.5" font-family="Helvetica,sans-Serif" font-size="10.00">_density_array_wright</text>
</g>
<!-- Node8 -->
<g id="node2" class="node"><title>Node8</title>
<g id="a_node2"><a xlink:href="../../d1/d01/namespacemom__eos.html#a4fe43b1b2cd799d87411aa66e1d10ab5" target="_top" xlink:title="Calls the appropriate subroutine to calculate the density of sea water for 1&#45;D array inputs...">
<polygon fill="white" stroke="black" points="188,-49.5 188,-79.5 292,-79.5 292,-49.5 188,-49.5"/>
<text text-anchor="start" x="196" y="-67.5" font-family="Helvetica,sans-Serif" font-size="10.00">mom_eos::calculate</text>
<text text-anchor="middle" x="240" y="-56.5" font-family="Helvetica,sans-Serif" font-size="10.00">_density_array</text>
</a>
</g>
</g>
<!-- Node7&#45;&gt;Node8 -->
<g id="edge1" class="edge"><title>Node7&#45;&gt;Node8</title>
<path fill="none" stroke="midnightblue" d="M146.343,-50.8739C160.387,-52.9392 174.712,-55.0458 187.767,-56.9658"/>
<polygon fill="midnightblue" stroke="midnightblue" points="146.591,-47.3729 136.189,-49.3807 145.573,-54.2984 146.591,-47.3729"/>
</g>
<!-- Node12 -->
<g id="node6" class="node"><title>Node12</title>
<g id="a_node6"><a xlink:href="../../de/d76/namespacemom__eos__wright.html#a0f71fa2d25ad389061fc26be0466a811" target="_top" xlink:title="mom_eos_wright::calculate\l_density_scalar_wright">
<polygon fill="white" stroke="black" points="172,-0.5 172,-30.5 308,-30.5 308,-0.5 172,-0.5"/>
<text text-anchor="start" x="180" y="-18.5" font-family="Helvetica,sans-Serif" font-size="10.00">mom_eos_wright::calculate</text>
<text text-anchor="middle" x="240" y="-7.5" font-family="Helvetica,sans-Serif" font-size="10.00">_density_scalar_wright</text>
</a>
</g>
</g>
<!-- Node7&#45;&gt;Node12 -->
<g id="edge5" class="edge"><title>Node7&#45;&gt;Node12</title>
<path fill="none" stroke="midnightblue" d="M146.146,-28.6088C154.688,-27.4029 163.337,-26.1819 171.743,-24.9951"/>
<polygon fill="midnightblue" stroke="midnightblue" points="145.601,-25.1509 136.189,-30.0146 146.58,-32.0822 145.601,-25.1509"/>
</g>
<!-- Node9 -->
<g id="node3" class="node"><title>Node9</title>
<g id="a_node3"><a xlink:href="../../d1/d01/namespacemom__eos.html#a82d46c07f4f9c7ad5930fa2508c3e280" target="_top" xlink:title="Returns change in anomalous pressure change from top to non&#45;dimensional position pos between z_t and ...">
<polygon fill="white" stroke="black" points="344,-99 344,-118 476,-118 476,-99 344,-99"/>
<text text-anchor="middle" x="410" y="-106" font-family="Helvetica,sans-Serif" font-size="10.00">mom_eos::frac_dp_at_pos</text>
</a>
</g>
</g>
<!-- Node8&#45;&gt;Node9 -->
<g id="edge2" class="edge"><title>Node8&#45;&gt;Node9</title>
<path fill="none" stroke="midnightblue" d="M302.259,-80.5442C325.882,-86.7311 352.1,-93.5976 372.64,-98.9772"/>
<polygon fill="midnightblue" stroke="midnightblue" points="302.879,-77.0884 292.318,-77.9405 301.105,-83.86 302.879,-77.0884"/>
</g>
<!-- Node11 -->
<g id="node5" class="node"><title>Node11</title>
<g id="a_node5"><a xlink:href="../../d1/d01/namespacemom__eos.html#a635b77946d77cad1ae90344832724a18" target="_top" xlink:title="mom_eos::int_density\l_dz_generic_plm">
<polygon fill="white" stroke="black" points="353.5,-49.5 353.5,-79.5 466.5,-79.5 466.5,-49.5 353.5,-49.5"/>
<text text-anchor="start" x="361.5" y="-67.5" font-family="Helvetica,sans-Serif" font-size="10.00">mom_eos::int_density</text>
<text text-anchor="middle" x="410" y="-56.5" font-family="Helvetica,sans-Serif" font-size="10.00">_dz_generic_plm</text>
</a>
</g>
</g>
<!-- Node8&#45;&gt;Node11 -->
<g id="edge4" class="edge"><title>Node8&#45;&gt;Node11</title>
<path fill="none" stroke="midnightblue" d="M302.485,-64.5C319.12,-64.5 337.025,-64.5 353.321,-64.5"/>
<polygon fill="midnightblue" stroke="midnightblue" points="302.318,-61.0001 292.318,-64.5 302.318,-68.0001 302.318,-61.0001"/>
</g>
<!-- Node10 -->
<g id="node4" class="node"><title>Node10</title>
<g id="a_node4"><a xlink:href="../../d1/d01/namespacemom__eos.html#a98a25c2517647778ccc6d46bbccc15e9" target="_top" xlink:title="Find the depth at which the reconstructed pressure matches P_tgt. ">
<polygon fill="white" stroke="black" points="512,-93.5 512,-123.5 622,-123.5 622,-93.5 512,-93.5"/>
<text text-anchor="start" x="520" y="-111.5" font-family="Helvetica,sans-Serif" font-size="10.00">mom_eos::find_depth</text>
<text text-anchor="middle" x="567" y="-100.5" font-family="Helvetica,sans-Serif" font-size="10.00">_of_pressure_in_cell</text>
</a>
</g>
</g>
<!-- Node9&#45;&gt;Node10 -->
<g id="edge3" class="edge"><title>Node9&#45;&gt;Node10</title>
<path fill="none" stroke="midnightblue" d="M486.542,-108.5C494.986,-108.5 503.461,-108.5 511.566,-108.5"/>
<polygon fill="midnightblue" stroke="midnightblue" points="486.285,-105 476.285,-108.5 486.285,-112 486.285,-105"/>
</g>
<!-- Node13 -->
<g id="node7" class="node"><title>Node13</title>
<g id="a_node7"><a xlink:href="../../d1/d01/namespacemom__eos.html#aeb230837022ecddda93120c58c67dbc4" target="_top" xlink:title="Calls the appropriate subroutine to calculate density of sea water for scalar inputs. ">
<polygon fill="white" stroke="black" points="358,-0.5 358,-30.5 462,-30.5 462,-0.5 358,-0.5"/>
<text text-anchor="start" x="366" y="-18.5" font-family="Helvetica,sans-Serif" font-size="10.00">mom_eos::calculate</text>
<text text-anchor="middle" x="410" y="-7.5" font-family="Helvetica,sans-Serif" font-size="10.00">_density_scalar</text>
</a>
</g>
</g>
<!-- Node12&#45;&gt;Node13 -->
<g id="edge6" class="edge"><title>Node12&#45;&gt;Node13</title>
<path fill="none" stroke="midnightblue" d="M318.521,-15.5C331.888,-15.5 345.476,-15.5 357.919,-15.5"/>
<polygon fill="midnightblue" stroke="midnightblue" points="318.364,-12.0001 308.364,-15.5 318.364,-19.0001 318.364,-12.0001"/>
</g>
</g>
</svg>
