<?xml version="1.0" encoding="UTF-8" standalone="no"?>
<!DOCTYPE svg PUBLIC "-//W3C//DTD SVG 1.1//EN"
 "http://www.w3.org/Graphics/SVG/1.1/DTD/svg11.dtd">
<!-- Generated by graphviz version 2.38.0 (20140413.2041)
 -->
<!-- Title: mom_eos_wright::calculate_density_derivs_wright Pages: 1 -->
<!--zoomable 805 -->
<svg id="main" version="1.1" xmlns="http://www.w3.org/2000/svg" xmlns:xlink="http://www.w3.org/1999/xlink" xml:space="preserve" onload="init(evt)">
<style type="text/css"><![CDATA[
.edge:hover path { stroke: red; }
.edge:hover polygon { stroke: red; fill: red; }
]]></style>
<script type="text/javascript"><![CDATA[
var edges = document.getElementsByTagName('g');
if (edges && edges.length) {
  for (var i=0;i<edges.length;i++) {
    if (edges[i].id.substr(0,4)=='edge') {
      edges[i].setAttribute('class','edge');
    }
  }
}
]]></script>
        <defs>
                <circle id="rim" cx="0" cy="0" r="7"/>
                <circle id="rim2" cx="0" cy="0" r="3.5"/>
                <g id="zoomPlus">
                        <use xlink:href="#rim" fill="#404040">
                                <set attributeName="fill" to="#808080" begin="zoomplus.mouseover" end="zoomplus.mouseout"/>
                        </use>
                        <path d="M-4,0h8M0,-4v8" fill="none" stroke="white" stroke-width="1.5" pointer-events="none"/>
                </g>
                <g id="zoomMin">
                        <use xlink:href="#rim" fill="#404040">
                                <set attributeName="fill" to="#808080" begin="zoomminus.mouseover" end="zoomminus.mouseout"/>
                        </use>
                        <path d="M-4,0h8" fill="none" stroke="white" stroke-width="1.5" pointer-events="none"/>
                </g>
                <g id="dirArrow">
                        <path fill="none" stroke="white" stroke-width="1.5" d="M0,-3.0v7 M-2.5,-0.5L0,-3.0L2.5,-0.5"/>
                </g>
               <g id="resetDef">
                       <use xlink:href="#rim2" fill="#404040">
                               <set attributeName="fill" to="#808080" begin="reset.mouseover" end="reset.mouseout"/>
                       </use>
               </g>
        </defs>

<script type="text/javascript">
var viewWidth = 1016;
var viewHeight = 805;
var sectionId = 'dynsection-3';
</script>
<script xlink:href="../../svgpan.js"/>
<svg id="graph" class="graph">
<g id="viewport">
<title>mom_eos_wright::calculate_density_derivs_wright</title>
<polygon fill="white" stroke="none" points="-4,4 -4,-800.5 1012,-800.5 1012,4 -4,4"/>
<!-- Node15 -->
<g id="node1" class="node"><title>Node15</title>
<polygon fill="#bfbfbf" stroke="black" points="0,-402.5 0,-432.5 113,-432.5 113,-402.5 0,-402.5"/>
<text text-anchor="start" x="8" y="-420.5" font-family="Helvetica,sans-Serif" font-size="10.00">mom_eos_wright::calculate</text>
<text text-anchor="middle" x="56.5" y="-409.5" font-family="Helvetica,sans-Serif" font-size="10.00">_density_derivs_wright</text>
</g>
<!-- Node16 -->
<g id="node2" class="node"><title>Node16</title>
<g id="a_node2"><a xlink:href="../../d1/d01/namespacemom__eos.html#a204529f8434a0322314e6ce2a9762436" target="_top" xlink:title="Calls the appropriate subroutine to calculate density derivatives for 1&#45;D array inputs. ">
<polygon fill="white" stroke="black" points="149,-402.5 149,-432.5 236,-432.5 236,-402.5 149,-402.5"/>
<text text-anchor="start" x="157" y="-420.5" font-family="Helvetica,sans-Serif" font-size="10.00">mom_eos::calculate</text>
<text text-anchor="middle" x="192.5" y="-409.5" font-family="Helvetica,sans-Serif" font-size="10.00">_density_derivs</text>
</a>
</g>
</g>
<!-- Node15&#45;&gt;Node16 -->
<g id="edge1" class="edge"><title>Node15&#45;&gt;Node16</title>
<path fill="none" stroke="midnightblue" d="M123.318,-417.5C132.007,-417.5 140.724,-417.5 148.881,-417.5"/>
<polygon fill="midnightblue" stroke="midnightblue" points="123.164,-414 113.164,-417.5 123.164,-421 123.164,-414"/>
</g>
<!-- Node17 -->
<g id="node3" class="node"><title>Node17</title>
<g id="a_node3"><a xlink:href="../../da/d42/namespacebenchmark__initialization.html#a90737806bc1ea923d7698ff7ecd1d8eb" target="_top" xlink:title="This function puts the initial layer temperatures and salinities into T(:,:,:) and S(:...">
<polygon fill="white" stroke="black" points="505.5,-755 505.5,-796 629.5,-796 629.5,-755 505.5,-755"/>
<text text-anchor="start" x="513.5" y="-784" font-family="Helvetica,sans-Serif" font-size="10.00">benchmark_initialization</text>
<text text-anchor="start" x="513.5" y="-773" font-family="Helvetica,sans-Serif" font-size="10.00">::benchmark_init_temperature</text>
<text text-anchor="middle" x="567.5" y="-762" font-family="Helvetica,sans-Serif" font-size="10.00">_salinity</text>
</a>
</g>
</g>
<!-- Node16&#45;&gt;Node17 -->
<g id="edge2" class="edge"><title>Node16&#45;&gt;Node17</title>
<path fill="none" stroke="midnightblue" d="M195.846,-442.622C202.875,-512.092 226.171,-704.302 272,-744.5 335.772,-800.437 439.679,-797.145 505.493,-787.738"/>
<polygon fill="midnightblue" stroke="midnightblue" points="199.319,-442.178 194.856,-432.569 192.353,-442.863 199.319,-442.178"/>
</g>
<!-- Node21 -->
<g id="node7" class="node"><title>Node21</title>
<g id="a_node7"><a xlink:href="../../da/d42/namespacebenchmark__initialization.html#aefce536aee33c71ce3b914d0cabc7c31" target="_top" xlink:title="This subroutine initializes layer thicknesses for the benchmark test case, by finding the depths of i...">
<polygon fill="white" stroke="black" points="308,-544 308,-585 409,-585 409,-544 308,-544"/>
<text text-anchor="start" x="316" y="-573" font-family="Helvetica,sans-Serif" font-size="10.00">benchmark_initialization</text>
<text text-anchor="start" x="316" y="-562" font-family="Helvetica,sans-Serif" font-size="10.00">::benchmark_initialize</text>
<text text-anchor="middle" x="358.5" y="-551" font-family="Helvetica,sans-Serif" font-size="10.00">_thickness</text>
</a>
</g>
</g>
<!-- Node16&#45;&gt;Node21 -->
<g id="edge6" class="edge"><title>Node16&#45;&gt;Node21</title>
<path fill="none" stroke="midnightblue" d="M204.122,-442.011C216.718,-468.369 240.096,-509.808 272,-534.5 282.45,-542.588 295.248,-548.598 307.727,-553.023"/>
<polygon fill="midnightblue" stroke="midnightblue" points="207.199,-440.324 199.828,-432.714 200.844,-443.26 207.199,-440.324"/>
</g>
<!-- Node22 -->
<g id="node8" class="node"><title>Node22</title>
<g id="a_node8"><a xlink:href="../../d6/d4c/namespacemom__isopycnal__slopes.html#ad8b145434d470eceaf9a151a65a74dd5" target="_top" xlink:title="mom_isopycnal_slopes\l::calc_isoneutral_slopes">
<polygon fill="white" stroke="black" points="308,-495.5 308,-525.5 409,-525.5 409,-495.5 308,-495.5"/>
<text text-anchor="start" x="316" y="-513.5" font-family="Helvetica,sans-Serif" font-size="10.00">mom_isopycnal_slopes</text>
<text text-anchor="middle" x="358.5" y="-502.5" font-family="Helvetica,sans-Serif" font-size="10.00">::calc_isoneutral_slopes</text>
</a>
</g>
</g>
<!-- Node16&#45;&gt;Node22 -->
<g id="edge7" class="edge"><title>Node16&#45;&gt;Node22</title>
<path fill="none" stroke="midnightblue" d="M214.25,-439.947C229.064,-454.772 250.161,-473.593 272,-485.5 282.998,-491.496 295.597,-496.201 307.681,-499.831"/>
<polygon fill="midnightblue" stroke="midnightblue" points="216.592,-437.335 207.106,-432.616 211.579,-442.221 216.592,-437.335"/>
</g>
<!-- Node24 -->
<g id="node10" class="node"><title>Node24</title>
<g id="a_node10"><a xlink:href="../../d8/d95/namespacemom__kappa__shear.html#a84a0a23b1cb6df3e8613fdd7853cb495" target="_top" xlink:title="mom_kappa_shear::calculate\l_kappa_shear">
<polygon fill="white" stroke="black" points="298,-446.5 298,-476.5 419,-476.5 419,-446.5 298,-446.5"/>
<text text-anchor="start" x="306" y="-464.5" font-family="Helvetica,sans-Serif" font-size="10.00">mom_kappa_shear::calculate</text>
<text text-anchor="middle" x="358.5" y="-453.5" font-family="Helvetica,sans-Serif" font-size="10.00">_kappa_shear</text>
</a>
</g>
</g>
<!-- Node16&#45;&gt;Node24 -->
<g id="edge9" class="edge"><title>Node16&#45;&gt;Node24</title>
<path fill="none" stroke="midnightblue" d="M246.269,-431.658C263.894,-436.386 283.592,-441.671 301.457,-446.464"/>
<polygon fill="midnightblue" stroke="midnightblue" points="246.726,-428.157 236.161,-428.946 244.912,-434.917 246.726,-428.157"/>
</g>
<!-- Node26 -->
<g id="node12" class="node"><title>Node26</title>
<g id="a_node12"><a xlink:href="../../dd/dc3/namespacemom__forcing__type.html#a2bb917f3d8bcdcf4f5bf49c435992640" target="_top" xlink:title="This routine calculates surface buoyancy flux by adding up the heat, FW &amp; salt fluxes. These are actual fluxes, with units of stuff per time. Setting dt=1 in the call to extractFluxes routine allows us to get &quot;stuf per time&quot; rather than the time integrated fluxes needed in other routines that call extractFluxes. ">
<polygon fill="white" stroke="black" points="272,-408 272,-427 445,-427 445,-408 272,-408"/>
<text text-anchor="middle" x="358.5" y="-415" font-family="Helvetica,sans-Serif" font-size="10.00">mom_forcing_type::calculatebuoyancyflux1d</text>
</a>
</g>
</g>
<!-- Node16&#45;&gt;Node26 -->
<g id="edge11" class="edge"><title>Node16&#45;&gt;Node26</title>
<path fill="none" stroke="midnightblue" d="M246.264,-417.5C254.453,-417.5 263.089,-417.5 271.781,-417.5"/>
<polygon fill="midnightblue" stroke="midnightblue" points="246.161,-414 236.161,-417.5 246.161,-421 246.161,-414"/>
</g>
<!-- Node29 -->
<g id="node15" class="node"><title>Node29</title>
<g id="a_node15"><a xlink:href="../../d1/da5/namespacemidas__vertmap.html#aaa8a9e13494c4d80d09c162e0a02d6eb" target="_top" xlink:title="midas_vertmap::determine\l_temperature">
<polygon fill="white" stroke="black" points="302.5,-704.5 302.5,-734.5 414.5,-734.5 414.5,-704.5 302.5,-704.5"/>
<text text-anchor="start" x="310.5" y="-722.5" font-family="Helvetica,sans-Serif" font-size="10.00">midas_vertmap::determine</text>
<text text-anchor="middle" x="358.5" y="-711.5" font-family="Helvetica,sans-Serif" font-size="10.00">_temperature</text>
</a>
</g>
</g>
<!-- Node16&#45;&gt;Node29 -->
<g id="edge14" class="edge"><title>Node16&#45;&gt;Node29</title>
<path fill="none" stroke="midnightblue" d="M193.121,-442.852C193.736,-496.675 202.933,-623.171 272,-693.5 280.262,-701.913 291.154,-707.622 302.386,-711.492"/>
<polygon fill="midnightblue" stroke="midnightblue" points="196.621,-442.798 193.099,-432.805 189.621,-442.813 196.621,-442.798"/>
</g>
<!-- Node31 -->
<g id="node17" class="node"><title>Node31</title>
<g id="a_node17"><a xlink:href="../../da/d32/namespacemom__entrain__diffusive.html#acf36bae78e6175d37c3de0d61b0ac32f" target="_top" xlink:title="mom_entrain_diffusive\l::entrainment_diffusive">
<polygon fill="white" stroke="black" points="310,-309.5 310,-339.5 407,-339.5 407,-309.5 310,-309.5"/>
<text text-anchor="start" x="318" y="-327.5" font-family="Helvetica,sans-Serif" font-size="10.00">mom_entrain_diffusive</text>
<text text-anchor="middle" x="358.5" y="-316.5" font-family="Helvetica,sans-Serif" font-size="10.00">::entrainment_diffusive</text>
</a>
</g>
</g>
<!-- Node16&#45;&gt;Node31 -->
<g id="edge17" class="edge"><title>Node16&#45;&gt;Node31</title>
<path fill="none" stroke="midnightblue" d="M213.876,-394.913C228.656,-379.787 249.866,-360.517 272,-348.5 283.653,-342.174 297.125,-337.39 309.88,-333.825"/>
<polygon fill="midnightblue" stroke="midnightblue" points="211.122,-392.729 206.762,-402.385 216.192,-397.556 211.122,-392.729"/>
</g>
<!-- Node32 -->
<g id="node18" class="node"><title>Node32</title>
<g id="a_node18"><a xlink:href="../../d0/d77/namespacemom__int__tide__input.html#a66b16dd9f27c4131d8bd37886b947721" target="_top" xlink:title="mom_int_tide_input\l::find_n2_bottom">
<polygon fill="white" stroke="black" points="315.5,-260.5 315.5,-290.5 401.5,-290.5 401.5,-260.5 315.5,-260.5"/>
<text text-anchor="start" x="323.5" y="-278.5" font-family="Helvetica,sans-Serif" font-size="10.00">mom_int_tide_input</text>
<text text-anchor="middle" x="358.5" y="-267.5" font-family="Helvetica,sans-Serif" font-size="10.00">::find_n2_bottom</text>
</a>
</g>
</g>
<!-- Node16&#45;&gt;Node32 -->
<g id="edge18" class="edge"><title>Node16&#45;&gt;Node32</title>
<path fill="none" stroke="midnightblue" d="M203.577,-392.819C215.817,-365.911 239.002,-323.494 272,-299.5 284.594,-290.342 300.559,-284.675 315.275,-281.169"/>
<polygon fill="midnightblue" stroke="midnightblue" points="200.23,-391.737 199.424,-402.301 206.642,-394.545 200.23,-391.737"/>
</g>
<!-- Node34 -->
<g id="node20" class="node"><title>Node34</title>
<g id="a_node20"><a xlink:href="../../d8/da4/namespacemom__neutral__diffusion.html#a53d5e3f8d7610b60644aaa9f44fd854e" target="_top" xlink:title="Calculate remapping factors for u/v columns used to map adjoining columns to a shared coordinate spac...">
<polygon fill="white" stroke="black" points="309.5,-201 309.5,-242 407.5,-242 407.5,-201 309.5,-201"/>
<text text-anchor="start" x="317.5" y="-230" font-family="Helvetica,sans-Serif" font-size="10.00">mom_neutral_diffusion</text>
<text text-anchor="start" x="317.5" y="-219" font-family="Helvetica,sans-Serif" font-size="10.00">::neutral_diffusion_calc</text>
<text text-anchor="middle" x="358.5" y="-208" font-family="Helvetica,sans-Serif" font-size="10.00">_coeffs</text>
</a>
</g>
</g>
<!-- Node16&#45;&gt;Node34 -->
<g id="edge20" class="edge"><title>Node16&#45;&gt;Node34</title>
<path fill="none" stroke="midnightblue" d="M198.747,-392.37C207.608,-356.032 228.948,-288.966 272,-250.5 282.403,-241.205 295.906,-234.868 309.097,-230.556"/>
<polygon fill="midnightblue" stroke="midnightblue" points="195.322,-391.644 196.478,-402.176 202.142,-393.222 195.322,-391.644"/>
</g>
<!-- Node36 -->
<g id="node22" class="node"><title>Node36</title>
<g id="a_node22"><a xlink:href="../../d6/d5d/namespacemom__set__visc.html#a9e73d0338646bb91d14b78e86f6e3886" target="_top" xlink:title="mom_set_visc::set_viscous_bbl">
<polygon fill="white" stroke="black" points="295,-125 295,-144 422,-144 422,-125 295,-125"/>
<text text-anchor="middle" x="358.5" y="-132" font-family="Helvetica,sans-Serif" font-size="10.00">mom_set_visc::set_viscous_bbl</text>
</a>
</g>
</g>
<!-- Node16&#45;&gt;Node36 -->
<g id="edge22" class="edge"><title>Node16&#45;&gt;Node36</title>
<path fill="none" stroke="midnightblue" d="M193.106,-392.12C193.752,-339.424 203.094,-217.721 272,-153.5 278.452,-147.487 286.369,-143.223 294.756,-140.225"/>
<polygon fill="midnightblue" stroke="midnightblue" points="189.606,-392.264 193.082,-402.272 196.606,-392.281 189.606,-392.264"/>
</g>
<!-- Node41 -->
<g id="node27" class="node"><title>Node41</title>
<g id="a_node27"><a xlink:href="../../d6/d5d/namespacemom__set__visc.html#afa97c345f1c4caaaf53b039d0b3fc9d8" target="_top" xlink:title="mom_set_visc::set_viscous_ml">
<polygon fill="white" stroke="black" points="296,-163 296,-182 421,-182 421,-163 296,-163"/>
<text text-anchor="middle" x="358.5" y="-170" font-family="Helvetica,sans-Serif" font-size="10.00">mom_set_visc::set_viscous_ml</text>
</a>
</g>
</g>
<!-- Node16&#45;&gt;Node41 -->
<g id="edge27" class="edge"><title>Node16&#45;&gt;Node41</title>
<path fill="none" stroke="midnightblue" d="M194.594,-392.205C198.051,-345.248 212.414,-244.565 272,-191.5 278.813,-185.432 287.13,-181.165 295.87,-178.188"/>
<polygon fill="midnightblue" stroke="midnightblue" points="191.087,-392.211 193.955,-402.41 198.073,-392.649 191.087,-392.211"/>
</g>
<!-- Node42 -->
<g id="node28" class="node"><title>Node42</title>
<g id="a_node28"><a xlink:href="../../d1/d75/namespacemom__thickness__diffuse.html#ad461e8977f22cd7488fb1925e58cf084" target="_top" xlink:title="mom_thickness_diffuse\l::thickness_diffuse_full">
<polygon fill="white" stroke="black" points="309,-654.5 309,-684.5 408,-684.5 408,-654.5 309,-654.5"/>
<text text-anchor="start" x="317" y="-672.5" font-family="Helvetica,sans-Serif" font-size="10.00">mom_thickness_diffuse</text>
<text text-anchor="middle" x="358.5" y="-661.5" font-family="Helvetica,sans-Serif" font-size="10.00">::thickness_diffuse_full</text>
</a>
</g>
</g>
<!-- Node16&#45;&gt;Node42 -->
<g id="edge32" class="edge"><title>Node16&#45;&gt;Node42</title>
<path fill="none" stroke="midnightblue" d="M195.103,-442.544C199.404,-488.649 215.109,-587.28 272,-642.5 282.053,-652.258 295.605,-658.491 308.953,-662.473"/>
<polygon fill="midnightblue" stroke="midnightblue" points="198.586,-442.195 194.273,-432.518 191.61,-442.773 198.586,-442.195"/>
</g>
<!-- Node45 -->
<g id="node31" class="node"><title>Node45</title>
<g id="a_node31"><a xlink:href="../../dd/d33/namespacemom__wave__speed.html#a90775d734022991a9b49d5ee25210051" target="_top" xlink:title="Calculates the wave speed of the first baroclinic mode. ">
<polygon fill="white" stroke="black" points="305,-603.5 305,-633.5 412,-633.5 412,-603.5 305,-603.5"/>
<text text-anchor="start" x="313" y="-621.5" font-family="Helvetica,sans-Serif" font-size="10.00">mom_wave_speed::wave</text>
<text text-anchor="middle" x="358.5" y="-610.5" font-family="Helvetica,sans-Serif" font-size="10.00">_speed</text>
</a>
</g>
</g>
<!-- Node16&#45;&gt;Node45 -->
<g id="edge36" class="edge"><title>Node16&#45;&gt;Node45</title>
<path fill="none" stroke="midnightblue" d="M197.629,-442.478C205.301,-480.875 225.421,-554.179 272,-594.5 281.209,-602.472 292.876,-607.809 304.608,-611.378"/>
<polygon fill="midnightblue" stroke="midnightblue" points="201.066,-441.815 195.784,-432.63 194.186,-443.104 201.066,-441.815"/>
</g>
<!-- Node48 -->
<g id="node34" class="node"><title>Node48</title>
<g id="a_node34"><a xlink:href="../../dd/d33/namespacemom__wave__speed.html#a0009abd8573168b780c95db2962982d6" target="_top" xlink:title="Calculates the wave speeds for the first few barolinic modes. ">
<polygon fill="white" stroke="black" points="305,-358.5 305,-388.5 412,-388.5 412,-358.5 305,-358.5"/>
<text text-anchor="start" x="313" y="-376.5" font-family="Helvetica,sans-Serif" font-size="10.00">mom_wave_speed::wave</text>
<text text-anchor="middle" x="358.5" y="-365.5" font-family="Helvetica,sans-Serif" font-size="10.00">_speeds</text>
</a>
</g>
</g>
<!-- Node16&#45;&gt;Node48 -->
<g id="edge40" class="edge"><title>Node16&#45;&gt;Node48</title>
<path fill="none" stroke="midnightblue" d="M246.033,-403.406C264.821,-398.365 285.989,-392.686 304.792,-387.641"/>
<polygon fill="midnightblue" stroke="midnightblue" points="244.912,-400.083 236.161,-406.054 246.726,-406.843 244.912,-400.083"/>
</g>
<!-- Node49 -->
<g id="node35" class="node"><title>Node49</title>
<g id="a_node35"><a xlink:href="../../d4/d7e/namespacemom__wave__structure.html#a6dab6eaab930bb622d4462d5f51f8ab4" target="_top" xlink:title="mom_wave_structure\l::wave_structure">
<polygon fill="white" stroke="black" points="311.5,-38.5 311.5,-68.5 405.5,-68.5 405.5,-38.5 311.5,-38.5"/>
<text text-anchor="start" x="319.5" y="-56.5" font-family="Helvetica,sans-Serif" font-size="10.00">mom_wave_structure</text>
<text text-anchor="middle" x="358.5" y="-45.5" font-family="Helvetica,sans-Serif" font-size="10.00">::wave_structure</text>
</a>
</g>
</g>
<!-- Node16&#45;&gt;Node49 -->
<g id="edge42" class="edge"><title>Node16&#45;&gt;Node49</title>
<path fill="none" stroke="midnightblue" d="M194.436,-391.943C197.597,-336.752 211.435,-204.247 272,-115.5 285.746,-95.3571 308.287,-79.4094 326.774,-68.7346"/>
<polygon fill="midnightblue" stroke="midnightblue" points="190.926,-392.047 193.922,-402.209 197.917,-392.397 190.926,-392.047"/>
</g>
<!-- Node18 -->
<g id="node4" class="node"><title>Node18</title>
<g id="a_node4"><a xlink:href="../../d6/d62/namespacemom__state__initialization.html#af4e854627c6572332ba3fd895f169321" target="_top" xlink:title="mom_state_initialization\l::mom_initialize_state">
<polygon fill="white" stroke="black" points="690,-706.5 690,-736.5 791,-736.5 791,-706.5 690,-706.5"/>
<text text-anchor="start" x="698" y="-724.5" font-family="Helvetica,sans-Serif" font-size="10.00">mom_state_initialization</text>
<text text-anchor="middle" x="740.5" y="-713.5" font-family="Helvetica,sans-Serif" font-size="10.00">::mom_initialize_state</text>
</a>
</g>
</g>
<!-- Node17&#45;&gt;Node18 -->
<g id="edge3" class="edge"><title>Node17&#45;&gt;Node18</title>
<path fill="none" stroke="midnightblue" d="M639.448,-753.095C657.093,-747.523 675.591,-741.682 691.815,-736.559"/>
<polygon fill="midnightblue" stroke="midnightblue" points="638.234,-749.808 629.752,-756.157 640.342,-756.483 638.234,-749.808"/>
</g>
<!-- Node19 -->
<g id="node5" class="node"><title>Node19</title>
<g id="a_node5"><a xlink:href="../../da/d01/namespacemom.html#afebdc0103ad9cbe0ed4a54e522dc4104" target="_top" xlink:title="This subroutine initializes MOM. ">
<polygon fill="white" stroke="black" points="827,-709 827,-728 916,-728 916,-709 827,-709"/>
<text text-anchor="middle" x="871.5" y="-716" font-family="Helvetica,sans-Serif" font-size="10.00">mom::initialize_mom</text>
</a>
</g>
</g>
<!-- Node18&#45;&gt;Node19 -->
<g id="edge4" class="edge"><title>Node18&#45;&gt;Node19</title>
<path fill="none" stroke="midnightblue" d="M801.088,-720.114C809.755,-719.913 818.541,-719.708 826.815,-719.516"/>
<polygon fill="midnightblue" stroke="midnightblue" points="800.922,-716.617 791.006,-720.349 801.085,-723.615 800.922,-716.617"/>
</g>
<!-- Node20 -->
<g id="node6" class="node"><title>Node20</title>
<g id="a_node6"><a xlink:href="../../de/dbc/MOM__driver_8F90.html#a08fffeb2d8e8acbf9ed4609be6d258c6" target="_top" xlink:title="mom_main">
<polygon fill="white" stroke="black" points="952,-688 952,-707 1008,-707 1008,-688 952,-688"/>
<text text-anchor="middle" x="980" y="-695" font-family="Helvetica,sans-Serif" font-size="10.00">mom_main</text>
</a>
</g>
</g>
<!-- Node19&#45;&gt;Node20 -->
<g id="edge5" class="edge"><title>Node19&#45;&gt;Node20</title>
<path fill="none" stroke="midnightblue" d="M926.121,-707.927C935.016,-706.173 943.897,-704.422 951.771,-702.869"/>
<polygon fill="midnightblue" stroke="midnightblue" points="925.259,-704.529 916.125,-709.898 926.613,-711.397 925.259,-704.529"/>
</g>
<!-- Node23 -->
<g id="node9" class="node"><title>Node23</title>
<g id="a_node9"><a xlink:href="../../d0/d86/namespacemom__lateral__mixing__coeffs.html#a8abf768b636e96aafa9544287624523e" target="_top" xlink:title="Calculates functions of isopycnal slopes. ">
<polygon fill="white" stroke="black" points="523.5,-490 523.5,-531 611.5,-531 611.5,-490 523.5,-490"/>
<text text-anchor="start" x="531.5" y="-519" font-family="Helvetica,sans-Serif" font-size="10.00">mom_lateral_mixing</text>
<text text-anchor="start" x="531.5" y="-508" font-family="Helvetica,sans-Serif" font-size="10.00">_coeffs::calc_slope</text>
<text text-anchor="middle" x="567.5" y="-497" font-family="Helvetica,sans-Serif" font-size="10.00">_functions</text>
</a>
</g>
</g>
<!-- Node22&#45;&gt;Node23 -->
<g id="edge8" class="edge"><title>Node22&#45;&gt;Node23</title>
<path fill="none" stroke="midnightblue" d="M419.149,-510.5C452.417,-510.5 493.103,-510.5 523.286,-510.5"/>
<polygon fill="midnightblue" stroke="midnightblue" points="419.082,-507 409.082,-510.5 419.082,-514 419.082,-507"/>
</g>
<!-- Node25 -->
<g id="node11" class="node"><title>Node25</title>
<g id="a_node11"><a xlink:href="../../d3/d4b/namespacemom__set__diffusivity.html#a8b1f646393f0ec717ca690e4f04d96e8" target="_top" xlink:title="mom_set_diffusivity\l::set_diffusivity">
<polygon fill="white" stroke="black" points="524.5,-441.5 524.5,-471.5 610.5,-471.5 610.5,-441.5 524.5,-441.5"/>
<text text-anchor="start" x="532.5" y="-459.5" font-family="Helvetica,sans-Serif" font-size="10.00">mom_set_diffusivity</text>
<text text-anchor="middle" x="567.5" y="-448.5" font-family="Helvetica,sans-Serif" font-size="10.00">::set_diffusivity</text>
</a>
</g>
</g>
<!-- Node24&#45;&gt;Node25 -->
<g id="edge10" class="edge"><title>Node24&#45;&gt;Node25</title>
<path fill="none" stroke="midnightblue" d="M429.163,-459.817C460.737,-459.055 497.032,-458.178 524.378,-457.517"/>
<polygon fill="midnightblue" stroke="midnightblue" points="429.008,-456.32 419.095,-460.061 429.177,-463.318 429.008,-456.32"/>
</g>
<!-- Node27 -->
<g id="node13" class="node"><title>Node27</title>
<g id="a_node13"><a xlink:href="../../dd/dc3/namespacemom__forcing__type.html#ada776515b52ca3fa34901572cfef5858" target="_top" xlink:title="Calculates surface buoyancy flux by adding up the heat, FW and salt fluxes, for 2d arrays...">
<polygon fill="white" stroke="black" points="481,-403 481,-422 654,-422 654,-403 481,-403"/>
<text text-anchor="middle" x="567.5" y="-410" font-family="Helvetica,sans-Serif" font-size="10.00">mom_forcing_type::calculatebuoyancyflux2d</text>
</a>
</g>
</g>
<!-- Node26&#45;&gt;Node27 -->
<g id="edge12" class="edge"><title>Node26&#45;&gt;Node27</title>
<path fill="none" stroke="midnightblue" d="M455.198,-415.188C463.764,-414.982 472.402,-414.773 480.875,-414.568"/>
<polygon fill="midnightblue" stroke="midnightblue" points="455.102,-411.69 445.189,-415.43 455.271,-418.688 455.102,-411.69"/>
</g>
<!-- Node28 -->
<g id="node14" class="node"><title>Node28</title>
<g id="a_node14"><a xlink:href="../../d8/df3/namespacemom__diabatic__driver.html#a61e57d3902367aa46aa3c2d949ee900f" target="_top" xlink:title="This subroutine imposes the diapycnal mass fluxes and the accompanying diapycnal advection of momentu...">
<polygon fill="white" stroke="black" points="695,-378.5 695,-408.5 786,-408.5 786,-378.5 695,-378.5"/>
<text text-anchor="start" x="703" y="-396.5" font-family="Helvetica,sans-Serif" font-size="10.00">mom_diabatic_driver</text>
<text text-anchor="middle" x="740.5" y="-385.5" font-family="Helvetica,sans-Serif" font-size="10.00">::diabatic</text>
</a>
</g>
</g>
<!-- Node27&#45;&gt;Node28 -->
<g id="edge13" class="edge"><title>Node27&#45;&gt;Node28</title>
<path fill="none" stroke="midnightblue" d="M664.399,-401.845C674.939,-400.673 685.264,-399.526 694.722,-398.475"/>
<polygon fill="midnightblue" stroke="midnightblue" points="663.803,-398.389 654.25,-402.972 664.576,-405.346 663.803,-398.389"/>
</g>
<!-- Node30 -->
<g id="node16" class="node"><title>Node30</title>
<g id="a_node16"><a xlink:href="../../d6/d62/namespacemom__state__initialization.html#ae33403313da1b783a1ad980e10012f8e" target="_top" xlink:title="mom_state_initialization\l::mom_temp_salt_initialize_from_z">
<polygon fill="white" stroke="black" points="498,-706.5 498,-736.5 637,-736.5 637,-706.5 498,-706.5"/>
<text text-anchor="start" x="506" y="-724.5" font-family="Helvetica,sans-Serif" font-size="10.00">mom_state_initialization</text>
<text text-anchor="middle" x="567.5" y="-713.5" font-family="Helvetica,sans-Serif" font-size="10.00">::mom_temp_salt_initialize_from_z</text>
</a>
</g>
</g>
<!-- Node29&#45;&gt;Node30 -->
<g id="edge15" class="edge"><title>Node29&#45;&gt;Node30</title>
<path fill="none" stroke="midnightblue" d="M424.799,-720.131C448.029,-720.355 474.247,-720.609 497.757,-720.836"/>
<polygon fill="midnightblue" stroke="midnightblue" points="424.734,-716.63 414.7,-720.033 424.666,-723.63 424.734,-716.63"/>
</g>
<!-- Node30&#45;&gt;Node18 -->
<g id="edge16" class="edge"><title>Node30&#45;&gt;Node18</title>
<path fill="none" stroke="midnightblue" d="M647.082,-721.5C661.641,-721.5 676.47,-721.5 689.864,-721.5"/>
<polygon fill="midnightblue" stroke="midnightblue" points="647.067,-718 637.067,-721.5 647.067,-725 647.067,-718"/>
</g>
<!-- Node33 -->
<g id="node19" class="node"><title>Node33</title>
<g id="a_node19"><a xlink:href="../../d0/d77/namespacemom__int__tide__input.html#a085f75d081e7a3091ad5bdfe91858714" target="_top" xlink:title="mom_int_tide_input\l::set_int_tide_input">
<polygon fill="white" stroke="black" points="524.5,-304.5 524.5,-334.5 610.5,-334.5 610.5,-304.5 524.5,-304.5"/>
<text text-anchor="start" x="532.5" y="-322.5" font-family="Helvetica,sans-Serif" font-size="10.00">mom_int_tide_input</text>
<text text-anchor="middle" x="567.5" y="-311.5" font-family="Helvetica,sans-Serif" font-size="10.00">::set_int_tide_input</text>
</a>
</g>
</g>
<!-- Node32&#45;&gt;Node33 -->
<g id="edge19" class="edge"><title>Node32&#45;&gt;Node33</title>
<path fill="none" stroke="midnightblue" d="M411.642,-286.583C446.526,-293.998 491.836,-303.629 524.42,-310.555"/>
<polygon fill="midnightblue" stroke="midnightblue" points="412.148,-283.113 401.639,-284.457 410.693,-289.96 412.148,-283.113"/>
</g>
<!-- Node35 -->
<g id="node21" class="node"><title>Node35</title>
<g id="a_node21"><a xlink:href="../../da/db2/namespacemom__tracer__hor__diff.html#ae8eba26c164a4e8e4ba1008cda9850e6" target="_top" xlink:title="Compute along&#45;coordinate diffusion of all tracers using the diffusivity in CSKhTr, or using space&#45;dependent diffusivity. Multiple iterations are used (if necessary) so that there is no limit on the acceptable time increment. ">
<polygon fill="white" stroke="black" points="521.5,-255.5 521.5,-285.5 613.5,-285.5 613.5,-255.5 521.5,-255.5"/>
<text text-anchor="start" x="529.5" y="-273.5" font-family="Helvetica,sans-Serif" font-size="10.00">mom_tracer_hor_diff</text>
<text text-anchor="middle" x="567.5" y="-262.5" font-family="Helvetica,sans-Serif" font-size="10.00">::tracer_hordiff</text>
</a>
</g>
</g>
<!-- Node34&#45;&gt;Node35 -->
<g id="edge21" class="edge"><title>Node34&#45;&gt;Node35</title>
<path fill="none" stroke="midnightblue" d="M417.435,-235.214C450.269,-242.986 490.747,-252.568 521.233,-259.785"/>
<polygon fill="midnightblue" stroke="midnightblue" points="418.048,-231.762 407.51,-232.865 416.435,-238.574 418.048,-231.762"/>
</g>
<!-- Node37 -->
<g id="node23" class="node"><title>Node37</title>
<g id="a_node23"><a xlink:href="../../db/dd4/namespacemom__dynamics__legacy__split.html#ae34fe0561f87dc05c2fad64bf6d5a1ee" target="_top" xlink:title="mom_dynamics_legacy\l_split::step_mom_dyn\l_legacy_split">
<polygon fill="white" stroke="black" points="518,-98 518,-139 617,-139 617,-98 518,-98"/>
<text text-anchor="start" x="526" y="-127" font-family="Helvetica,sans-Serif" font-size="10.00">mom_dynamics_legacy</text>
<text text-anchor="start" x="526" y="-116" font-family="Helvetica,sans-Serif" font-size="10.00">_split::step_mom_dyn</text>
<text text-anchor="middle" x="567.5" y="-105" font-family="Helvetica,sans-Serif" font-size="10.00">_legacy_split</text>
</a>
</g>
</g>
<!-- Node36&#45;&gt;Node37 -->
<g id="edge23" class="edge"><title>Node36&#45;&gt;Node37</title>
<path fill="none" stroke="midnightblue" d="M432.429,-128.863C460.74,-126.675 492.403,-124.227 517.847,-122.261"/>
<polygon fill="midnightblue" stroke="midnightblue" points="431.869,-125.396 422.169,-129.656 432.409,-132.375 431.869,-125.396"/>
</g>
<!-- Node38 -->
<g id="node24" class="node"><title>Node38</title>
<g id="a_node24"><a xlink:href="../../d1/dc3/namespacemom__dynamics__split__rk2.html#a81cce65643a8cf94979d68354a9a1979" target="_top" xlink:title="RK2 splitting for time stepping MOM adiabatic dynamics. ">
<polygon fill="white" stroke="black" points="505,-49.5 505,-79.5 630,-79.5 630,-49.5 505,-49.5"/>
<text text-anchor="start" x="513" y="-67.5" font-family="Helvetica,sans-Serif" font-size="10.00">mom_dynamics_split</text>
<text text-anchor="middle" x="567.5" y="-56.5" font-family="Helvetica,sans-Serif" font-size="10.00">_rk2::step_mom_dyn_split_rk2</text>
</a>
</g>
</g>
<!-- Node36&#45;&gt;Node38 -->
<g id="edge24" class="edge"><title>Node36&#45;&gt;Node38</title>
<path fill="none" stroke="midnightblue" d="M392.478,-121.111C416.758,-111.475 450.682,-98.4728 481,-88.5 490.373,-85.4168 500.403,-82.3752 510.176,-79.5471"/>
<polygon fill="midnightblue" stroke="midnightblue" points="391.015,-117.926 383.026,-124.885 393.611,-124.427 391.015,-117.926"/>
</g>
<!-- Node39 -->
<g id="node25" class="node"><title>Node39</title>
<g id="a_node25"><a xlink:href="../../d7/d44/namespacemom__dynamics__unsplit.html#a53a72861e61f049479fdec46ea11227b" target="_top" xlink:title="mom_dynamics_unsplit\l::step_mom_dyn_unsplit">
<polygon fill="white" stroke="black" points="516,-206.5 516,-236.5 619,-236.5 619,-206.5 516,-206.5"/>
<text text-anchor="start" x="524" y="-224.5" font-family="Helvetica,sans-Serif" font-size="10.00">mom_dynamics_unsplit</text>
<text text-anchor="middle" x="567.5" y="-213.5" font-family="Helvetica,sans-Serif" font-size="10.00">::step_mom_dyn_unsplit</text>
</a>
</g>
</g>
<!-- Node36&#45;&gt;Node39 -->
<g id="edge25" class="edge"><title>Node36&#45;&gt;Node39</title>
<path fill="none" stroke="midnightblue" d="M431.749,-146.867C436.37,-148.771 440.834,-150.967 445,-153.5 466.298,-166.447 460.14,-182.859 481,-196.5 491.484,-203.356 503.894,-208.376 515.96,-212.036"/>
<polygon fill="midnightblue" stroke="midnightblue" points="432.681,-143.481 422.086,-143.353 430.288,-150.06 432.681,-143.481"/>
</g>
<!-- Node40 -->
<g id="node26" class="node"><title>Node40</title>
<g id="a_node26"><a xlink:href="../../d7/da4/namespacemom__dynamics__unsplit__rk2.html#ae10d75d92c1ec7783df7e5d8965b86a0" target="_top" xlink:title="mom_dynamics_unsplit\l_rk2::step_mom_dyn_unsplit_rk2">
<polygon fill="white" stroke="black" points="500.5,-157.5 500.5,-187.5 634.5,-187.5 634.5,-157.5 500.5,-157.5"/>
<text text-anchor="start" x="508.5" y="-175.5" font-family="Helvetica,sans-Serif" font-size="10.00">mom_dynamics_unsplit</text>
<text text-anchor="middle" x="567.5" y="-164.5" font-family="Helvetica,sans-Serif" font-size="10.00">_rk2::step_mom_dyn_unsplit_rk2</text>
</a>
</g>
</g>
<!-- Node36&#45;&gt;Node40 -->
<g id="edge26" class="edge"><title>Node36&#45;&gt;Node40</title>
<path fill="none" stroke="midnightblue" d="M421.513,-145.884C446.39,-150.451 475.099,-155.721 500.373,-160.361"/>
<polygon fill="midnightblue" stroke="midnightblue" points="421.935,-142.403 411.468,-144.04 420.671,-149.288 421.935,-142.403"/>
</g>
<!-- Node41&#45;&gt;Node37 -->
<g id="edge28" class="edge"><title>Node41&#45;&gt;Node37</title>
<path fill="none" stroke="midnightblue" d="M414.811,-160.734C424.882,-158.442 435.275,-155.979 445,-153.5 469.143,-147.346 495.761,-139.769 517.913,-133.241"/>
<polygon fill="midnightblue" stroke="midnightblue" points="413.875,-157.357 404.884,-162.962 415.408,-164.187 413.875,-157.357"/>
</g>
<!-- Node41&#45;&gt;Node38 -->
<g id="edge29" class="edge"><title>Node41&#45;&gt;Node38</title>
<path fill="none" stroke="midnightblue" d="M430.582,-161.83C435.706,-159.546 440.585,-156.8 445,-153.5 471.452,-133.73 455.102,-108.99 481,-88.5 488.013,-82.9517 496.237,-78.6856 504.763,-75.4054"/>
<polygon fill="midnightblue" stroke="midnightblue" points="429.222,-158.603 421.145,-165.459 431.735,-165.136 429.222,-158.603"/>
</g>
<!-- Node41&#45;&gt;Node39 -->
<g id="edge30" class="edge"><title>Node41&#45;&gt;Node39</title>
<path fill="none" stroke="midnightblue" d="M413.381,-184.272C423.878,-186.623 434.791,-189.106 445,-191.5 468.269,-196.957 493.973,-203.264 515.725,-208.682"/>
<polygon fill="midnightblue" stroke="midnightblue" points="414.002,-180.825 403.481,-182.067 412.48,-187.657 414.002,-180.825"/>
</g>
<!-- Node41&#45;&gt;Node40 -->
<g id="edge31" class="edge"><title>Node41&#45;&gt;Node40</title>
<path fill="none" stroke="midnightblue" d="M431.16,-172.5C453.546,-172.5 478.134,-172.5 500.14,-172.5"/>
<polygon fill="midnightblue" stroke="midnightblue" points="431.046,-169 421.046,-172.5 431.046,-176 431.046,-169"/>
</g>
<!-- Node43 -->
<g id="node29" class="node"><title>Node43</title>
<g id="a_node29"><a xlink:href="../../d1/d75/namespacemom__thickness__diffuse.html#a9506f374762ce6d5d12424a9314fad2f" target="_top" xlink:title="mom_thickness_diffuse\l::thickness_diffuse">
<polygon fill="white" stroke="black" points="518,-657.5 518,-687.5 617,-687.5 617,-657.5 518,-657.5"/>
<text text-anchor="start" x="526" y="-675.5" font-family="Helvetica,sans-Serif" font-size="10.00">mom_thickness_diffuse</text>
<text text-anchor="middle" x="567.5" y="-664.5" font-family="Helvetica,sans-Serif" font-size="10.00">::thickness_diffuse</text>
</a>
</g>
</g>
<!-- Node42&#45;&gt;Node43 -->
<g id="edge33" class="edge"><title>Node42&#45;&gt;Node43</title>
<path fill="none" stroke="midnightblue" d="M418.423,-670.354C449.894,-670.81 488.164,-671.365 517.914,-671.796"/>
<polygon fill="midnightblue" stroke="midnightblue" points="418.082,-666.849 408.032,-670.203 417.981,-673.848 418.082,-666.849"/>
</g>
<!-- Node44 -->
<g id="node30" class="node"><title>Node44</title>
<g id="a_node30"><a xlink:href="../../da/d01/namespacemom.html#a4c8332b095c6d295084089aa6b3b678a" target="_top" xlink:title="This subroutine orchestrates the time stepping of MOM. The adiabatic dynamics are stepped by calls to...">
<polygon fill="white" stroke="black" points="702,-663 702,-682 779,-682 779,-663 702,-663"/>
<text text-anchor="middle" x="740.5" y="-670" font-family="Helvetica,sans-Serif" font-size="10.00">mom::step_mom</text>
</a>
</g>
</g>
<!-- Node43&#45;&gt;Node44 -->
<g id="edge34" class="edge"><title>Node43&#45;&gt;Node44</title>
<path fill="none" stroke="midnightblue" d="M627.079,-672.5C651.88,-672.5 680.047,-672.5 701.983,-672.5"/>
<polygon fill="midnightblue" stroke="midnightblue" points="627.044,-669 617.044,-672.5 627.044,-676 627.044,-669"/>
</g>
<!-- Node44&#45;&gt;Node20 -->
<g id="edge35" class="edge"><title>Node44&#45;&gt;Node20</title>
<path fill="none" stroke="midnightblue" d="M789.151,-677.516C838.007,-682.659 912.277,-690.477 951.886,-694.646"/>
<polygon fill="midnightblue" stroke="midnightblue" points="789.444,-674.027 779.133,-676.461 788.711,-680.989 789.444,-674.027"/>
</g>
<!-- Node46 -->
<g id="node32" class="node"><title>Node46</title>
<g id="a_node32"><a xlink:href="../../d9/d8b/namespacemom__diagnostics.html#abb6644248c28ab2e952361bfec436063" target="_top" xlink:title="mom_diagnostics::calculate\l_diagnostic_fields">
<polygon fill="white" stroke="black" points="511,-549.5 511,-579.5 624,-579.5 624,-549.5 511,-549.5"/>
<text text-anchor="start" x="519" y="-567.5" font-family="Helvetica,sans-Serif" font-size="10.00">mom_diagnostics::calculate</text>
<text text-anchor="middle" x="567.5" y="-556.5" font-family="Helvetica,sans-Serif" font-size="10.00">_diagnostic_fields</text>
</a>
</g>
</g>
<!-- Node45&#45;&gt;Node46 -->
<g id="edge37" class="edge"><title>Node45&#45;&gt;Node46</title>
<path fill="none" stroke="midnightblue" d="M421.793,-602.25C450.1,-594.865 483.323,-586.198 510.792,-579.033"/>
<polygon fill="midnightblue" stroke="midnightblue" points="420.795,-598.893 412.002,-604.804 422.562,-605.666 420.795,-598.893"/>
</g>
<!-- Node47 -->
<g id="node33" class="node"><title>Node47</title>
<g id="a_node33"><a xlink:href="../../d0/d86/namespacemom__lateral__mixing__coeffs.html#af206bc656869b4fc27d4d7e8a15d438e" target="_top" xlink:title="mom_lateral_mixing\l_coeffs::calc_resoln\l_function">
<polygon fill="white" stroke="black" points="523.5,-598 523.5,-639 611.5,-639 611.5,-598 523.5,-598"/>
<text text-anchor="start" x="531.5" y="-627" font-family="Helvetica,sans-Serif" font-size="10.00">mom_lateral_mixing</text>
<text text-anchor="start" x="531.5" y="-616" font-family="Helvetica,sans-Serif" font-size="10.00">_coeffs::calc_resoln</text>
<text text-anchor="middle" x="567.5" y="-605" font-family="Helvetica,sans-Serif" font-size="10.00">_function</text>
</a>
</g>
</g>
<!-- Node45&#45;&gt;Node47 -->
<g id="edge38" class="edge"><title>Node45&#45;&gt;Node47</title>
<path fill="none" stroke="midnightblue" d="M422.376,-618.5C455.088,-618.5 494.234,-618.5 523.468,-618.5"/>
<polygon fill="midnightblue" stroke="midnightblue" points="422.002,-615 412.002,-618.5 422.002,-622 422.002,-615"/>
</g>
<!-- Node47&#45;&gt;Node44 -->
<g id="edge39" class="edge"><title>Node47&#45;&gt;Node44</title>
<path fill="none" stroke="midnightblue" d="M621.209,-635.145C650.131,-644.278 684.952,-655.274 709.298,-662.962"/>
<polygon fill="midnightblue" stroke="midnightblue" points="622.24,-631.8 611.651,-632.126 620.132,-638.475 622.24,-631.8"/>
</g>
<!-- Node48&#45;&gt;Node28 -->
<g id="edge41" class="edge"><title>Node48&#45;&gt;Node28</title>
<path fill="none" stroke="midnightblue" d="M422.368,-376.809C499.215,-380.853 627.334,-387.597 694.803,-391.148"/>
<polygon fill="midnightblue" stroke="midnightblue" points="422.508,-373.311 412.337,-376.281 422.14,-380.302 422.508,-373.311"/>
</g>
<!-- Node50 -->
<g id="node36" class="node"><title>Node50</title>
<g id="a_node36"><a xlink:href="../../d6/d34/namespacemom__internal__tides.html#a6cae26da43d0539e8ac959105cf125c2" target="_top" xlink:title="mom_internal_tides\l::propagate_int_tide">
<polygon fill="white" stroke="black" points="523.5,-0.5 523.5,-30.5 611.5,-30.5 611.5,-0.5 523.5,-0.5"/>
<text text-anchor="start" x="531.5" y="-18.5" font-family="Helvetica,sans-Serif" font-size="10.00">mom_internal_tides</text>
<text text-anchor="middle" x="567.5" y="-7.5" font-family="Helvetica,sans-Serif" font-size="10.00">::propagate_int_tide</text>
</a>
</g>
</g>
<!-- Node49&#45;&gt;Node50 -->
<g id="edge43" class="edge"><title>Node49&#45;&gt;Node50</title>
<path fill="none" stroke="midnightblue" d="M415.901,-43.1462C449.733,-36.9354 492.1,-29.158 523.272,-23.4356"/>
<polygon fill="midnightblue" stroke="midnightblue" points="414.901,-39.7712 405.697,-45.0194 416.165,-46.6562 414.901,-39.7712"/>
</g>
</g>
</svg>
        <g id="navigator" transform="translate(0 0)" fill="#404254">
                <rect fill="#f2f5e9" fill-opacity="0.5" stroke="#606060" stroke-width=".5" x="0" y="0" width="60" height="60"/>
                <use id="zoomplus" xlink:href="#zoomPlus" x="17" y="9" onmousedown="handleZoom(evt,'in')"/>
                <use id="zoomminus" xlink:href="#zoomMin" x="42" y="9" onmousedown="handleZoom(evt,'out')"/>
                <use id="reset" xlink:href="#resetDef" x="30" y="36" onmousedown="handleReset()"/>
                <g id="arrowUp" xlink:href="#dirArrow" transform="translate(30 24)" onmousedown="handlePan(0,-1)">
                  <use xlink:href="#rim" fill="#404040">
                        <set attributeName="fill" to="#808080" begin="arrowUp.mouseover" end="arrowUp.mouseout"/>
                  </use>
                  <path fill="none" stroke="white" stroke-width="1.5" d="M0,-3.0v7 M-2.5,-0.5L0,-3.0L2.5,-0.5"/>
                </g>
                <g id="arrowRight" xlink:href="#dirArrow" transform="rotate(90) translate(36 -43)" onmousedown="handlePan(1,0)">
                  <use xlink:href="#rim" fill="#404040">
                        <set attributeName="fill" to="#808080" begin="arrowRight.mouseover" end="arrowRight.mouseout"/>
                  </use>
                  <path fill="none" stroke="white" stroke-width="1.5" d="M0,-3.0v7 M-2.5,-0.5L0,-3.0L2.5,-0.5"/>
                </g>
                <g id="arrowDown" xlink:href="#dirArrow" transform="rotate(180) translate(-30 -48)" onmousedown="handlePan(0,1)">
                  <use xlink:href="#rim" fill="#404040">
                        <set attributeName="fill" to="#808080" begin="arrowDown.mouseover" end="arrowDown.mouseout"/>
                  </use>
                  <path fill="none" stroke="white" stroke-width="1.5" d="M0,-3.0v7 M-2.5,-0.5L0,-3.0L2.5,-0.5"/>
                </g>
                <g id="arrowLeft" xlink:href="#dirArrow" transform="rotate(270) translate(-36 17)" onmousedown="handlePan(-1,0)">
                  <use xlink:href="#rim" fill="#404040">
                        <set attributeName="fill" to="#808080" begin="arrowLeft.mouseover" end="arrowLeft.mouseout"/>
                  </use>
                  <path fill="none" stroke="white" stroke-width="1.5" d="M0,-3.0v7 M-2.5,-0.5L0,-3.0L2.5,-0.5"/>
                </g>
        </g>
        <svg viewBox="0 0 15 15" width="100%" height="30px" preserveAspectRatio="xMaxYMin meet">
         <g id="arrow_out" transform="scale(0.3 0.3)">
          <a xlink:href="namespacemom__eos__wright_ad7748e85ddacb33ad90ec3a9017e6e72_icgraph_org.svg" target="_base">
           <rect id="button" ry="5" rx="5" y="6" x="6" height="38" width="38"
                fill="#f2f5e9" fill-opacity="0.5" stroke="#606060" stroke-width="1.0"/>
           <path id="arrow"
             d="M 11.500037,31.436501 C 11.940474,20.09759 22.043105,11.32322 32.158766,21.979434 L 37.068811,17.246167 C 37.068811,17.246167 37.088388,32 37.088388,32 L 22.160133,31.978069 C 22.160133,31.978069 26.997745,27.140456 26.997745,27.140456 C 18.528582,18.264221 13.291696,25.230495 11.500037,31.436501 z"
             style="fill:#404040;"/>
          </a>
         </g>
        </svg>
</svg>
