<?xml version="1.0" encoding="UTF-8" standalone="no"?>
<!DOCTYPE svg PUBLIC "-//W3C//DTD SVG 1.1//EN"
 "http://www.w3.org/Graphics/SVG/1.1/DTD/svg11.dtd">
<!-- Generated by graphviz version 2.38.0 (20140413.2041)
 -->
<!-- Title: mom_ale_sponge::set_up_ale_sponge_field Pages: 1 -->
<svg width="609pt" height="88pt"
 viewBox="0.00 0.00 609.00 88.00" xmlns="http://www.w3.org/2000/svg" xmlns:xlink="http://www.w3.org/1999/xlink">
<g id="graph0" class="graph" transform="scale(1 1) rotate(0) translate(4 84)">
<title>mom_ale_sponge::set_up_ale_sponge_field</title>
<polygon fill="white" stroke="none" points="-4,4 -4,-84 605,-84 605,4 -4,4"/>
<!-- Node52 -->
<g id="node1" class="node"><title>Node52</title>
<polygon fill="#bfbfbf" stroke="black" points="0,-24.5 0,-54.5 95,-54.5 95,-24.5 0,-24.5"/>
<text text-anchor="start" x="8" y="-42.5" font-family="Helvetica,sans-Serif" font-size="10.00">mom_ale_sponge::set</text>
<text text-anchor="middle" x="47.5" y="-31.5" font-family="Helvetica,sans-Serif" font-size="10.00">_up_ale_sponge_field</text>
</g>
<!-- Node53 -->
<g id="node2" class="node"><title>Node53</title>
<g id="a_node2"><a xlink:href="../../da/d77/namespacedome2d__initialization.html#ab0df2b602fe1c83baa66ba03cc2c6dd4" target="_top" xlink:title="Set up sponges in 2d DOME configuration. ">
<polygon fill="white" stroke="black" points="131,-49.5 131,-79.5 247,-79.5 247,-49.5 131,-49.5"/>
<text text-anchor="start" x="139" y="-67.5" font-family="Helvetica,sans-Serif" font-size="10.00">dome2d_initialization</text>
<text text-anchor="middle" x="189" y="-56.5" font-family="Helvetica,sans-Serif" font-size="10.00">::dome2d_initialize_sponges</text>
</a>
</g>
</g>
<!-- Node52&#45;&gt;Node53 -->
<g id="edge1" class="edge"><title>Node52&#45;&gt;Node53</title>
<path fill="none" stroke="midnightblue" d="M105.42,-49.7007C113.816,-51.2054 122.469,-52.7562 130.87,-54.2617"/>
<polygon fill="midnightblue" stroke="midnightblue" points="105.8,-46.2132 95.3396,-47.8942 104.565,-53.1034 105.8,-46.2132"/>
</g>
<!-- Node57 -->
<g id="node6" class="node"><title>Node57</title>
<g id="a_node6"><a xlink:href="../../d7/da0/namespaceisomip__tracer.html#a6083b2b081277f46013d9a22b32b7741" target="_top" xlink:title="Initializes the NTR tracer fields in tr(:,:,:,:) ">
<polygon fill="white" stroke="black" points="141,-0.5 141,-30.5 237,-30.5 237,-0.5 141,-0.5"/>
<text text-anchor="start" x="149" y="-18.5" font-family="Helvetica,sans-Serif" font-size="10.00">isomip_tracer::initialize</text>
<text text-anchor="middle" x="189" y="-7.5" font-family="Helvetica,sans-Serif" font-size="10.00">_isomip_tracer</text>
</a>
</g>
</g>
<!-- Node52&#45;&gt;Node57 -->
<g id="edge5" class="edge"><title>Node52&#45;&gt;Node57</title>
<path fill="none" stroke="midnightblue" d="M105.435,-29.7047C117.107,-27.6966 129.276,-25.6031 140.571,-23.6598"/>
<polygon fill="midnightblue" stroke="midnightblue" points="104.601,-26.2967 95.3396,-31.4416 105.788,-33.1953 104.601,-26.2967"/>
</g>
<!-- Node54 -->
<g id="node3" class="node"><title>Node54</title>
<g id="a_node3"><a xlink:href="../../d6/d62/namespacemom__state__initialization.html#af4e854627c6572332ba3fd895f169321" target="_top" xlink:title="mom_state_initialization\l::mom_initialize_state">
<polygon fill="white" stroke="black" points="283,-49.5 283,-79.5 384,-79.5 384,-49.5 283,-49.5"/>
<text text-anchor="start" x="291" y="-67.5" font-family="Helvetica,sans-Serif" font-size="10.00">mom_state_initialization</text>
<text text-anchor="middle" x="333.5" y="-56.5" font-family="Helvetica,sans-Serif" font-size="10.00">::mom_initialize_state</text>
</a>
</g>
</g>
<!-- Node53&#45;&gt;Node54 -->
<g id="edge2" class="edge"><title>Node53&#45;&gt;Node54</title>
<path fill="none" stroke="midnightblue" d="M257.166,-64.5C265.765,-64.5 274.443,-64.5 282.698,-64.5"/>
<polygon fill="midnightblue" stroke="midnightblue" points="257.139,-61.0001 247.139,-64.5 257.139,-68.0001 257.139,-61.0001"/>
</g>
<!-- Node55 -->
<g id="node4" class="node"><title>Node55</title>
<g id="a_node4"><a xlink:href="../../da/d01/namespacemom.html#afebdc0103ad9cbe0ed4a54e522dc4104" target="_top" xlink:title="This subroutine initializes MOM. ">
<polygon fill="white" stroke="black" points="420,-55 420,-74 509,-74 509,-55 420,-55"/>
<text text-anchor="middle" x="464.5" y="-62" font-family="Helvetica,sans-Serif" font-size="10.00">mom::initialize_mom</text>
</a>
</g>
</g>
<!-- Node54&#45;&gt;Node55 -->
<g id="edge3" class="edge"><title>Node54&#45;&gt;Node55</title>
<path fill="none" stroke="midnightblue" d="M394.088,-64.5C402.755,-64.5 411.541,-64.5 419.815,-64.5"/>
<polygon fill="midnightblue" stroke="midnightblue" points="394.006,-61.0001 384.006,-64.5 394.006,-68.0001 394.006,-61.0001"/>
</g>
<!-- Node56 -->
<g id="node5" class="node"><title>Node56</title>
<g id="a_node5"><a xlink:href="../../de/dbc/MOM__driver_8F90.html#a08fffeb2d8e8acbf9ed4609be6d258c6" target="_top" xlink:title="mom_main">
<polygon fill="white" stroke="black" points="545,-55 545,-74 601,-74 601,-55 545,-55"/>
<text text-anchor="middle" x="573" y="-62" font-family="Helvetica,sans-Serif" font-size="10.00">mom_main</text>
</a>
</g>
</g>
<!-- Node55&#45;&gt;Node56 -->
<g id="edge4" class="edge"><title>Node55&#45;&gt;Node56</title>
<path fill="none" stroke="midnightblue" d="M519.407,-64.5C528.206,-64.5 536.981,-64.5 544.771,-64.5"/>
<polygon fill="midnightblue" stroke="midnightblue" points="519.125,-61.0001 509.125,-64.5 519.125,-68.0001 519.125,-61.0001"/>
</g>
</g>
</svg>
