<?xml version="1.0" encoding="UTF-8" standalone="no"?>
<!DOCTYPE svg PUBLIC "-//W3C//DTD SVG 1.1//EN"
 "http://www.w3.org/Graphics/SVG/1.1/DTD/svg11.dtd">
<!-- Generated by graphviz version 2.38.0 (20140413.2041)
 -->
<!-- Title: plm_functions::plm_reconstruction Pages: 1 -->
<!--zoomable 263 -->
<svg id="main" version="1.1" xmlns="http://www.w3.org/2000/svg" xmlns:xlink="http://www.w3.org/1999/xlink" xml:space="preserve" onload="init(evt)">
<style type="text/css"><![CDATA[
.edge:hover path { stroke: red; }
.edge:hover polygon { stroke: red; fill: red; }
]]></style>
<script type="text/javascript"><![CDATA[
var edges = document.getElementsByTagName('g');
if (edges && edges.length) {
  for (var i=0;i<edges.length;i++) {
    if (edges[i].id.substr(0,4)=='edge') {
      edges[i].setAttribute('class','edge');
    }
  }
}
]]></script>
        <defs>
                <circle id="rim" cx="0" cy="0" r="7"/>
                <circle id="rim2" cx="0" cy="0" r="3.5"/>
                <g id="zoomPlus">
                        <use xlink:href="#rim" fill="#404040">
                                <set attributeName="fill" to="#808080" begin="zoomplus.mouseover" end="zoomplus.mouseout"/>
                        </use>
                        <path d="M-4,0h8M0,-4v8" fill="none" stroke="white" stroke-width="1.5" pointer-events="none"/>
                </g>
                <g id="zoomMin">
                        <use xlink:href="#rim" fill="#404040">
                                <set attributeName="fill" to="#808080" begin="zoomminus.mouseover" end="zoomminus.mouseout"/>
                        </use>
                        <path d="M-4,0h8" fill="none" stroke="white" stroke-width="1.5" pointer-events="none"/>
                </g>
                <g id="dirArrow">
                        <path fill="none" stroke="white" stroke-width="1.5" d="M0,-3.0v7 M-2.5,-0.5L0,-3.0L2.5,-0.5"/>
                </g>
               <g id="resetDef">
                       <use xlink:href="#rim2" fill="#404040">
                               <set attributeName="fill" to="#808080" begin="reset.mouseover" end="reset.mouseout"/>
                       </use>
               </g>
        </defs>

<script type="text/javascript">
var viewWidth = 1067;
var viewHeight = 263;
var sectionId = 'dynsection-1';
</script>
<script xlink:href="../../svgpan.js"/>
<svg id="graph" class="graph">
<g id="viewport">
<title>plm_functions::plm_reconstruction</title>
<polygon fill="white" stroke="none" points="-4,4 -4,-258.5 1063,-258.5 1063,4 -4,4"/>
<!-- Node19 -->
<g id="node1" class="node"><title>Node19</title>
<polygon fill="#bfbfbf" stroke="black" points="0,-33 0,-63 83,-63 83,-33 0,-33"/>
<text text-anchor="start" x="8" y="-51" font-family="Helvetica,sans-Serif" font-size="10.00">plm_functions::plm</text>
<text text-anchor="middle" x="41.5" y="-40" font-family="Helvetica,sans-Serif" font-size="10.00">_reconstruction</text>
</g>
<!-- Node20 -->
<g id="node2" class="node"><title>Node20</title>
<g id="a_node2"><a xlink:href="../../d6/d75/namespacemom__remapping.html#a07d7276310f329f56560a1290bcb8b0a" target="_top" xlink:title="Creates polynomial reconstructions of u0 on the source grid h0. ">
<polygon fill="white" stroke="black" points="138.5,-77 138.5,-107 236.5,-107 236.5,-77 138.5,-77"/>
<text text-anchor="start" x="146.5" y="-95" font-family="Helvetica,sans-Serif" font-size="10.00">mom_remapping::build</text>
<text text-anchor="middle" x="187.5" y="-84" font-family="Helvetica,sans-Serif" font-size="10.00">_reconstructions_1d</text>
</a>
</g>
</g>
<!-- Node19&#45;&gt;Node20 -->
<g id="edge1" class="edge"><title>Node19&#45;&gt;Node20</title>
<path fill="none" stroke="midnightblue" d="M93.2876,-63.5184C107.945,-67.9972 123.891,-72.8694 138.381,-77.297"/>
<polygon fill="midnightblue" stroke="midnightblue" points="93.9657,-60.066 83.3794,-60.4909 91.9202,-66.7604 93.9657,-60.066"/>
</g>
<!-- Node33 -->
<g id="node15" class="node"><title>Node33</title>
<g id="a_node15"><a xlink:href="../../d6/d75/namespacemom__remapping.html#a8a79c37c89f8b800f79198aceca5f090" target="_top" xlink:title="Runs unit tests on remapping functions. Should only be called from a single/root thread Returns True ...">
<polygon fill="white" stroke="black" points="448,-33 448,-63 568,-63 568,-33 448,-33"/>
<text text-anchor="start" x="456" y="-51" font-family="Helvetica,sans-Serif" font-size="10.00">mom_remapping::remapping</text>
<text text-anchor="middle" x="508" y="-40" font-family="Helvetica,sans-Serif" font-size="10.00">_unit_tests</text>
</a>
</g>
</g>
<!-- Node19&#45;&gt;Node33 -->
<g id="edge18" class="edge"><title>Node19&#45;&gt;Node33</title>
<path fill="none" stroke="midnightblue" d="M93.4294,-48C180.087,-48 355.752,-48 447.762,-48"/>
<polygon fill="midnightblue" stroke="midnightblue" points="93.3142,-44.5001 83.3142,-48 93.3141,-51.5001 93.3142,-44.5001"/>
</g>
<!-- Node35 -->
<g id="node17" class="node"><title>Node35</title>
<g id="a_node17"><a xlink:href="../../d7/d73/namespacemom__ale.html#aabdfc467d534b505fcee9f63d7eb3f77" target="_top" xlink:title="Use plm reconstruction for pressure gradient (determine edge values) By using a PLM (limited piecewis...">
<polygon fill="white" stroke="black" points="119,-0.5 119,-19.5 256,-19.5 256,-0.5 119,-0.5"/>
<text text-anchor="middle" x="187.5" y="-7.5" font-family="Helvetica,sans-Serif" font-size="10.00">mom_ale::pressure_gradient_plm</text>
</a>
</g>
</g>
<!-- Node19&#45;&gt;Node35 -->
<g id="edge17" class="edge"><title>Node19&#45;&gt;Node35</title>
<path fill="none" stroke="midnightblue" d="M93.3061,-34.5928C112.163,-29.6168 133.148,-24.0789 150.424,-19.5201"/>
<polygon fill="midnightblue" stroke="midnightblue" points="92.1554,-31.2766 83.3794,-37.2124 93.9415,-38.0449 92.1554,-31.2766"/>
</g>
<!-- Node21 -->
<g id="node3" class="node"><title>Node21</title>
<g id="a_node3"><a xlink:href="../../d6/d75/namespacemom__remapping.html#a6d1533ffa647f3305aba055e2685b095" target="_top" xlink:title="Remaps column of values u0 on grid h0 to grid h1 assuming the top edge is aligned. ">
<polygon fill="white" stroke="black" points="292,-128 292,-158 412,-158 412,-128 292,-128"/>
<text text-anchor="start" x="300" y="-146" font-family="Helvetica,sans-Serif" font-size="10.00">mom_remapping::remapping</text>
<text text-anchor="middle" x="352" y="-135" font-family="Helvetica,sans-Serif" font-size="10.00">_core_h</text>
</a>
</g>
</g>
<!-- Node20&#45;&gt;Node21 -->
<g id="edge2" class="edge"><title>Node20&#45;&gt;Node21</title>
<path fill="none" stroke="midnightblue" d="M245.972,-110.038C264.69,-115.912 285.253,-122.366 303.185,-127.994"/>
<polygon fill="midnightblue" stroke="midnightblue" points="246.966,-106.681 236.376,-107.026 244.87,-113.36 246.966,-106.681"/>
</g>
<!-- Node32 -->
<g id="node14" class="node"><title>Node32</title>
<g id="a_node14"><a xlink:href="../../d6/d75/namespacemom__remapping.html#a8b967872b8db2ac7d538991f7f255e56" target="_top" xlink:title="Remaps column of values u0 on grid h0 to implied grid h1 where the interfaces of h1 differ from those...">
<polygon fill="white" stroke="black" points="292,-77 292,-107 412,-107 412,-77 292,-77"/>
<text text-anchor="start" x="300" y="-95" font-family="Helvetica,sans-Serif" font-size="10.00">mom_remapping::remapping</text>
<text text-anchor="middle" x="352" y="-84" font-family="Helvetica,sans-Serif" font-size="10.00">_core_w</text>
</a>
</g>
</g>
<!-- Node20&#45;&gt;Node32 -->
<g id="edge13" class="edge"><title>Node20&#45;&gt;Node32</title>
<path fill="none" stroke="midnightblue" d="M247.202,-92C261.761,-92 277.369,-92 291.945,-92"/>
<polygon fill="midnightblue" stroke="midnightblue" points="246.815,-88.5001 236.815,-92 246.815,-95.5001 246.815,-88.5001"/>
</g>
<!-- Node22 -->
<g id="node4" class="node"><title>Node22</title>
<g id="a_node4"><a xlink:href="../../de/dd7/namespacemom__ale__sponge.html#a8f6e6db99f860b048a58e97e58c101a6" target="_top" xlink:title="This subroutine applies damping to the layers thicknesses, temp, salt and a variety of tracers for ev...">
<polygon fill="white" stroke="black" points="456,-202 456,-232 560,-232 560,-202 456,-202"/>
<text text-anchor="start" x="464" y="-220" font-family="Helvetica,sans-Serif" font-size="10.00">mom_ale_sponge::apply</text>
<text text-anchor="middle" x="508" y="-209" font-family="Helvetica,sans-Serif" font-size="10.00">_ale_sponge</text>
</a>
</g>
</g>
<!-- Node21&#45;&gt;Node22 -->
<g id="edge3" class="edge"><title>Node21&#45;&gt;Node22</title>
<path fill="none" stroke="midnightblue" d="M393.662,-162.539C419.374,-174.894 452.1,-190.62 475.77,-201.993"/>
<polygon fill="midnightblue" stroke="midnightblue" points="395.065,-159.33 384.536,-158.154 392.033,-165.639 395.065,-159.33"/>
</g>
<!-- Node24 -->
<g id="node6" class="node"><title>Node24</title>
<g id="a_node6"><a xlink:href="../../d6/d62/namespacemom__state__initialization.html#a71ee3c056ca59c1c3529a4ec22e09fe3" target="_top" xlink:title="Adjust the layer thicknesses by cutting away the top at the depth where the hydrostatic pressure matc...">
<polygon fill="white" stroke="black" points="457.5,-131 457.5,-161 558.5,-161 558.5,-131 457.5,-131"/>
<text text-anchor="start" x="465.5" y="-149" font-family="Helvetica,sans-Serif" font-size="10.00">mom_state_initialization</text>
<text text-anchor="middle" x="508" y="-138" font-family="Helvetica,sans-Serif" font-size="10.00">::cut_off_column_top</text>
</a>
</g>
</g>
<!-- Node21&#45;&gt;Node24 -->
<g id="edge5" class="edge"><title>Node21&#45;&gt;Node24</title>
<path fill="none" stroke="midnightblue" d="M422.365,-144.351C434.149,-144.581 446.173,-144.815 457.32,-145.032"/>
<polygon fill="midnightblue" stroke="midnightblue" points="422.166,-140.847 412.1,-144.151 422.03,-147.845 422.166,-140.847"/>
</g>
<!-- Node30 -->
<g id="node12" class="node"><title>Node30</title>
<g id="a_node12"><a xlink:href="../../d9/d06/namespacemom__diag__mediator.html#ab5e628e0b8acd96234fab33d0fae2161" target="_top" xlink:title="Remap diagnostic field to z&#45;star vertical grid. ">
<polygon fill="white" stroke="black" points="460.5,-82 460.5,-112 555.5,-112 555.5,-82 460.5,-82"/>
<text text-anchor="start" x="468.5" y="-100" font-family="Helvetica,sans-Serif" font-size="10.00">mom_diag_mediator::</text>
<text text-anchor="middle" x="508" y="-89" font-family="Helvetica,sans-Serif" font-size="10.00">remap_diag_to_z</text>
</a>
</g>
</g>
<!-- Node21&#45;&gt;Node30 -->
<g id="edge11" class="edge"><title>Node21&#45;&gt;Node30</title>
<path fill="none" stroke="midnightblue" d="M413.057,-125.061C428.771,-120.367 445.476,-115.377 460.374,-110.927"/>
<polygon fill="midnightblue" stroke="midnightblue" points="412.005,-121.722 403.425,-127.938 414.009,-128.429 412.005,-121.722"/>
</g>
<!-- Node23 -->
<g id="node5" class="node"><title>Node23</title>
<g id="a_node5"><a xlink:href="../../d8/df3/namespacemom__diabatic__driver.html#a61e57d3902367aa46aa3c2d949ee900f" target="_top" xlink:title="This subroutine imposes the diapycnal mass fluxes and the accompanying diapycnal advection of momentu...">
<polygon fill="white" stroke="black" points="609,-224 609,-254 700,-254 700,-224 609,-224"/>
<text text-anchor="start" x="617" y="-242" font-family="Helvetica,sans-Serif" font-size="10.00">mom_diabatic_driver</text>
<text text-anchor="middle" x="654.5" y="-231" font-family="Helvetica,sans-Serif" font-size="10.00">::diabatic</text>
</a>
</g>
</g>
<!-- Node22&#45;&gt;Node23 -->
<g id="edge4" class="edge"><title>Node22&#45;&gt;Node23</title>
<path fill="none" stroke="midnightblue" d="M570.473,-226.359C583.254,-228.305 596.496,-230.321 608.55,-232.156"/>
<polygon fill="midnightblue" stroke="midnightblue" points="570.765,-222.863 560.352,-224.818 569.711,-229.784 570.765,-222.863"/>
</g>
<!-- Node25 -->
<g id="node7" class="node"><title>Node25</title>
<g id="a_node7"><a xlink:href="../../d6/d62/namespacemom__state__initialization.html#a5c77bf2b0ea9d28e28b661a2a42d3f88" target="_top" xlink:title="Run simple unit tests. ">
<polygon fill="white" stroke="black" points="604,-175 604,-205 705,-205 705,-175 604,-175"/>
<text text-anchor="start" x="612" y="-193" font-family="Helvetica,sans-Serif" font-size="10.00">mom_state_initialization</text>
<text text-anchor="middle" x="654.5" y="-182" font-family="Helvetica,sans-Serif" font-size="10.00">::mom_state_init_tests</text>
</a>
</g>
</g>
<!-- Node24&#45;&gt;Node25 -->
<g id="edge6" class="edge"><title>Node24&#45;&gt;Node25</title>
<path fill="none" stroke="midnightblue" d="M568.156,-164.013C580.032,-167.629 592.396,-171.394 603.907,-174.899"/>
<polygon fill="midnightblue" stroke="midnightblue" points="568.91,-160.584 558.325,-161.019 566.871,-167.28 568.91,-160.584"/>
</g>
<!-- Node26 -->
<g id="node8" class="node"><title>Node26</title>
<g id="a_node8"><a xlink:href="../../d6/d62/namespacemom__state__initialization.html#acc1029776c1bdda2862ed0f95c8dc640" target="_top" xlink:title="Adjust the layer thicknesses by cutting away the top of each model column at the depth where the hydr...">
<polygon fill="white" stroke="black" points="604,-126 604,-156 705,-156 705,-126 604,-126"/>
<text text-anchor="start" x="612" y="-144" font-family="Helvetica,sans-Serif" font-size="10.00">mom_state_initialization</text>
<text text-anchor="middle" x="654.5" y="-133" font-family="Helvetica,sans-Serif" font-size="10.00">::trim_for_ice</text>
</a>
</g>
</g>
<!-- Node24&#45;&gt;Node26 -->
<g id="edge7" class="edge"><title>Node24&#45;&gt;Node26</title>
<path fill="none" stroke="midnightblue" d="M568.782,-143.931C580.388,-143.53 592.436,-143.113 603.68,-142.724"/>
<polygon fill="midnightblue" stroke="midnightblue" points="568.602,-140.435 558.729,-144.279 568.844,-147.431 568.602,-140.435"/>
</g>
<!-- Node27 -->
<g id="node9" class="node"><title>Node27</title>
<g id="a_node9"><a xlink:href="../../d6/d62/namespacemom__state__initialization.html#af4e854627c6572332ba3fd895f169321" target="_top" xlink:title="mom_state_initialization\l::mom_initialize_state">
<polygon fill="white" stroke="black" points="741,-113 741,-143 842,-143 842,-113 741,-113"/>
<text text-anchor="start" x="749" y="-131" font-family="Helvetica,sans-Serif" font-size="10.00">mom_state_initialization</text>
<text text-anchor="middle" x="791.5" y="-120" font-family="Helvetica,sans-Serif" font-size="10.00">::mom_initialize_state</text>
</a>
</g>
</g>
<!-- Node26&#45;&gt;Node27 -->
<g id="edge8" class="edge"><title>Node26&#45;&gt;Node27</title>
<path fill="none" stroke="midnightblue" d="M715.207,-135.25C723.67,-134.435 732.299,-133.605 740.552,-132.81"/>
<polygon fill="midnightblue" stroke="midnightblue" points="714.621,-131.791 705.002,-136.233 715.292,-138.758 714.621,-131.791"/>
</g>
<!-- Node28 -->
<g id="node10" class="node"><title>Node28</title>
<g id="a_node10"><a xlink:href="../../da/d01/namespacemom.html#afebdc0103ad9cbe0ed4a54e522dc4104" target="_top" xlink:title="This subroutine initializes MOM. ">
<polygon fill="white" stroke="black" points="878,-90.5 878,-109.5 967,-109.5 967,-90.5 878,-90.5"/>
<text text-anchor="middle" x="922.5" y="-97.5" font-family="Helvetica,sans-Serif" font-size="10.00">mom::initialize_mom</text>
</a>
</g>
</g>
<!-- Node27&#45;&gt;Node28 -->
<g id="edge9" class="edge"><title>Node27&#45;&gt;Node28</title>
<path fill="none" stroke="midnightblue" d="M851.805,-115.128C860.564,-113.226 869.451,-111.297 877.815,-109.482"/>
<polygon fill="midnightblue" stroke="midnightblue" points="851.036,-111.713 842.006,-117.255 852.521,-118.554 851.036,-111.713"/>
</g>
<!-- Node29 -->
<g id="node11" class="node"><title>Node29</title>
<g id="a_node11"><a xlink:href="../../de/dbc/MOM__driver_8F90.html#a08fffeb2d8e8acbf9ed4609be6d258c6" target="_top" xlink:title="mom_main">
<polygon fill="white" stroke="black" points="1003,-90.5 1003,-109.5 1059,-109.5 1059,-90.5 1003,-90.5"/>
<text text-anchor="middle" x="1031" y="-97.5" font-family="Helvetica,sans-Serif" font-size="10.00">mom_main</text>
</a>
</g>
</g>
<!-- Node28&#45;&gt;Node29 -->
<g id="edge10" class="edge"><title>Node28&#45;&gt;Node29</title>
<path fill="none" stroke="midnightblue" d="M977.407,-100C986.206,-100 994.981,-100 1002.77,-100"/>
<polygon fill="midnightblue" stroke="midnightblue" points="977.125,-96.5001 967.125,-100 977.125,-103.5 977.125,-96.5001"/>
</g>
<!-- Node31 -->
<g id="node13" class="node"><title>Node31</title>
<g id="a_node13"><a xlink:href="../../d9/d06/namespacemom__diag__mediator.html#adb1030a0216c52dd0d25bd67a5b31868" target="_top" xlink:title="mom_diag_mediator::\lpost_data_3d">
<polygon fill="white" stroke="black" points="607,-77 607,-107 702,-107 702,-77 607,-77"/>
<text text-anchor="start" x="615" y="-95" font-family="Helvetica,sans-Serif" font-size="10.00">mom_diag_mediator::</text>
<text text-anchor="middle" x="654.5" y="-84" font-family="Helvetica,sans-Serif" font-size="10.00">post_data_3d</text>
</a>
</g>
</g>
<!-- Node30&#45;&gt;Node31 -->
<g id="edge12" class="edge"><title>Node30&#45;&gt;Node31</title>
<path fill="none" stroke="midnightblue" d="M565.687,-95.0385C579.227,-94.57 593.532,-94.075 606.576,-93.6237"/>
<polygon fill="midnightblue" stroke="midnightblue" points="565.389,-91.5466 555.516,-95.3904 565.631,-98.5424 565.389,-91.5466"/>
</g>
<!-- Node32&#45;&gt;Node33 -->
<g id="edge14" class="edge"><title>Node32&#45;&gt;Node33</title>
<path fill="none" stroke="midnightblue" d="M415.341,-74.1882C428.303,-70.485 441.839,-66.6173 454.408,-63.0262"/>
<polygon fill="midnightblue" stroke="midnightblue" points="414.221,-70.8681 405.567,-76.9808 416.144,-77.5988 414.221,-70.8681"/>
</g>
<!-- Node34 -->
<g id="node16" class="node"><title>Node34</title>
<g id="a_node16"><a xlink:href="../../da/d01/namespacemom.html#ae77cfd2e790f1266b31d93c58659d46c" target="_top" xlink:title="Calls unit tests for other modules. These are NOT normally invoked and so we provide the module use s...">
<polygon fill="white" stroke="black" points="755,-62.5 755,-81.5 828,-81.5 828,-62.5 755,-62.5"/>
<text text-anchor="middle" x="791.5" y="-69.5" font-family="Helvetica,sans-Serif" font-size="10.00">mom::unit_tests</text>
</a>
</g>
</g>
<!-- Node33&#45;&gt;Node34 -->
<g id="edge15" class="edge"><title>Node33&#45;&gt;Node34</title>
<path fill="none" stroke="midnightblue" d="M578.194,-53.8993C634.07,-58.6632 710.444,-65.1746 754.721,-68.9495"/>
<polygon fill="midnightblue" stroke="midnightblue" points="578.273,-50.3934 568.012,-53.0312 577.678,-57.3681 578.273,-50.3934"/>
</g>
<!-- Node34&#45;&gt;Node28 -->
<g id="edge16" class="edge"><title>Node34&#45;&gt;Node28</title>
<path fill="none" stroke="midnightblue" d="M838.137,-81.9057C851.012,-84.7004 864.987,-87.7337 877.749,-90.5037"/>
<polygon fill="midnightblue" stroke="midnightblue" points="838.606,-78.4261 828.091,-79.7252 837.121,-85.2668 838.606,-78.4261"/>
</g>
</g>
</svg>
        <g id="navigator" transform="translate(0 0)" fill="#404254">
                <rect fill="#f2f5e9" fill-opacity="0.5" stroke="#606060" stroke-width=".5" x="0" y="0" width="60" height="60"/>
                <use id="zoomplus" xlink:href="#zoomPlus" x="17" y="9" onmousedown="handleZoom(evt,'in')"/>
                <use id="zoomminus" xlink:href="#zoomMin" x="42" y="9" onmousedown="handleZoom(evt,'out')"/>
                <use id="reset" xlink:href="#resetDef" x="30" y="36" onmousedown="handleReset()"/>
                <g id="arrowUp" xlink:href="#dirArrow" transform="translate(30 24)" onmousedown="handlePan(0,-1)">
                  <use xlink:href="#rim" fill="#404040">
                        <set attributeName="fill" to="#808080" begin="arrowUp.mouseover" end="arrowUp.mouseout"/>
                  </use>
                  <path fill="none" stroke="white" stroke-width="1.5" d="M0,-3.0v7 M-2.5,-0.5L0,-3.0L2.5,-0.5"/>
                </g>
                <g id="arrowRight" xlink:href="#dirArrow" transform="rotate(90) translate(36 -43)" onmousedown="handlePan(1,0)">
                  <use xlink:href="#rim" fill="#404040">
                        <set attributeName="fill" to="#808080" begin="arrowRight.mouseover" end="arrowRight.mouseout"/>
                  </use>
                  <path fill="none" stroke="white" stroke-width="1.5" d="M0,-3.0v7 M-2.5,-0.5L0,-3.0L2.5,-0.5"/>
                </g>
                <g id="arrowDown" xlink:href="#dirArrow" transform="rotate(180) translate(-30 -48)" onmousedown="handlePan(0,1)">
                  <use xlink:href="#rim" fill="#404040">
                        <set attributeName="fill" to="#808080" begin="arrowDown.mouseover" end="arrowDown.mouseout"/>
                  </use>
                  <path fill="none" stroke="white" stroke-width="1.5" d="M0,-3.0v7 M-2.5,-0.5L0,-3.0L2.5,-0.5"/>
                </g>
                <g id="arrowLeft" xlink:href="#dirArrow" transform="rotate(270) translate(-36 17)" onmousedown="handlePan(-1,0)">
                  <use xlink:href="#rim" fill="#404040">
                        <set attributeName="fill" to="#808080" begin="arrowLeft.mouseover" end="arrowLeft.mouseout"/>
                  </use>
                  <path fill="none" stroke="white" stroke-width="1.5" d="M0,-3.0v7 M-2.5,-0.5L0,-3.0L2.5,-0.5"/>
                </g>
        </g>
        <svg viewBox="0 0 15 15" width="100%" height="30px" preserveAspectRatio="xMaxYMin meet">
         <g id="arrow_out" transform="scale(0.3 0.3)">
          <a xlink:href="namespaceplm__functions_abf6acfcb1bef51f0c1f8682de53782c4_icgraph_org.svg" target="_base">
           <rect id="button" ry="5" rx="5" y="6" x="6" height="38" width="38"
                fill="#f2f5e9" fill-opacity="0.5" stroke="#606060" stroke-width="1.0"/>
           <path id="arrow"
             d="M 11.500037,31.436501 C 11.940474,20.09759 22.043105,11.32322 32.158766,21.979434 L 37.068811,17.246167 C 37.068811,17.246167 37.088388,32 37.088388,32 L 22.160133,31.978069 C 22.160133,31.978069 26.997745,27.140456 26.997745,27.140456 C 18.528582,18.264221 13.291696,25.230495 11.500037,31.436501 z"
             style="fill:#404040;"/>
          </a>
         </g>
        </svg>
</svg>
