<?xml version="1.0" encoding="UTF-8" standalone="no"?>
<!DOCTYPE svg PUBLIC "-//W3C//DTD SVG 1.1//EN"
 "http://www.w3.org/Graphics/SVG/1.1/DTD/svg11.dtd">
<!-- Generated by graphviz version 2.38.0 (20140413.2041)
 -->
<!-- Title: mom_open_boundary::ocean_obc_type Pages: 1 -->
<svg width="595pt" height="362pt"
 viewBox="0.00 0.00 595.14 362.00" xmlns="http://www.w3.org/2000/svg" xmlns:xlink="http://www.w3.org/1999/xlink">
<g id="graph0" class="graph" transform="scale(1 1) rotate(0) translate(4 358)">
<title>mom_open_boundary::ocean_obc_type</title>
<polygon fill="white" stroke="none" points="-4,4 -4,-358 591.136,-358 591.136,4 -4,4"/>
<!-- Node1 -->
<g id="node1" class="node"><title>Node1</title>
<polygon fill="#bfbfbf" stroke="black" points="213.136,-0.5 213.136,-30.5 329.136,-30.5 329.136,-0.5 213.136,-0.5"/>
<text text-anchor="start" x="221.136" y="-18.5" font-family="Helvetica,sans-Serif" font-size="10.00">mom_open_boundary::</text>
<text text-anchor="middle" x="271.136" y="-7.5" font-family="Helvetica,sans-Serif" font-size="10.00">ocean_obc_type</text>
</g>
<!-- Node2 -->
<g id="node2" class="node"><title>Node2</title>
<polygon fill="white" stroke="#bfbfbf" points="50.1363,-334.5 50.1363,-353.5 94.1363,-353.5 94.1363,-334.5 50.1363,-334.5"/>
<text text-anchor="middle" x="72.1363" y="-341.5" font-family="Helvetica,sans-Serif" font-size="10.00">logical</text>
</g>
<!-- Node2&#45;&gt;Node1 -->
<g id="edge1" class="edge"><title>Node2&#45;&gt;Node1</title>
<path fill="none" stroke="#9a32cd" stroke-dasharray="5,2" d="M60.7052,-325.524C32.2611,-279.632 -35.2676,-154.008 24.1363,-78 47.1307,-48.5781 147.409,-31.2002 212.912,-22.7867"/>
<polygon fill="#9a32cd" stroke="#9a32cd" points="57.8086,-327.492 66.1219,-334.06 63.7191,-323.741 57.8086,-327.492"/>
<text text-anchor="start" x="24.1363" y="-224" font-family="Helvetica,sans-Serif" font-size="10.00"> flather_v_bcs_exist</text>
<text text-anchor="middle" x="72.6363" y="-213" font-family="Helvetica,sans-Serif" font-size="10.00">_globally</text>
<text text-anchor="middle" x="72.6363" y="-202" font-family="Helvetica,sans-Serif" font-size="10.00">obc_mask_u</text>
<text text-anchor="middle" x="72.6363" y="-191" font-family="Helvetica,sans-Serif" font-size="10.00">obc_mask_v</text>
<text text-anchor="middle" x="72.6363" y="-180" font-family="Helvetica,sans-Serif" font-size="10.00">update_obc</text>
<text text-anchor="middle" x="72.6363" y="-169" font-family="Helvetica,sans-Serif" font-size="10.00">obc_pe</text>
<text text-anchor="start" x="24.1363" y="-158" font-family="Helvetica,sans-Serif" font-size="10.00">flather_u_bcs</text>
<text text-anchor="middle" x="72.6363" y="-147" font-family="Helvetica,sans-Serif" font-size="10.00">_exist_globally</text>
<text text-anchor="start" x="24.1363" y="-136" font-family="Helvetica,sans-Serif" font-size="10.00">specified_u_bcs</text>
<text text-anchor="middle" x="72.6363" y="-125" font-family="Helvetica,sans-Serif" font-size="10.00">_exist_globally</text>
<text text-anchor="start" x="24.1363" y="-114" font-family="Helvetica,sans-Serif" font-size="10.00">nudged_uv_bcs_exist</text>
<text text-anchor="middle" x="72.6363" y="-103" font-family="Helvetica,sans-Serif" font-size="10.00">_globally</text>
<text text-anchor="start" x="24.1363" y="-92" font-family="Helvetica,sans-Serif" font-size="10.00">specified_v_bcs_exist</text>
<text text-anchor="middle" x="72.6363" y="-81" font-family="Helvetica,sans-Serif" font-size="10.00">_globally</text>
</g>
<!-- Node4 -->
<g id="node4" class="node"><title>Node4</title>
<g id="a_node4"><a xlink:href="../../da/d8f/structmom__open__boundary_1_1obc__segment__type.html" target="_top" xlink:title="Open boundary segment type &#45; we&#39;ll have one for each open segment to describe that segment...">
<polygon fill="white" stroke="black" points="341.136,-140 341.136,-170 457.136,-170 457.136,-140 341.136,-140"/>
<text text-anchor="start" x="349.136" y="-158" font-family="Helvetica,sans-Serif" font-size="10.00">mom_open_boundary::</text>
<text text-anchor="middle" x="399.136" y="-147" font-family="Helvetica,sans-Serif" font-size="10.00">obc_segment_type</text>
</a>
</g>
</g>
<!-- Node2&#45;&gt;Node4 -->
<g id="edge4" class="edge"><title>Node2&#45;&gt;Node4</title>
<path fill="none" stroke="#9a32cd" stroke-dasharray="5,2" d="M96.4331,-329.539C132.294,-310.064 201.88,-273.767 264.136,-250 291.342,-239.614 302.24,-247.106 327.136,-232 353.708,-215.878 376.906,-187.384 389.383,-170.24"/>
<polygon fill="#9a32cd" stroke="#9a32cd" points="94.7529,-326.468 87.6566,-334.335 98.1101,-332.611 94.7529,-326.468"/>
<text text-anchor="middle" x="288.136" y="-308" font-family="Helvetica,sans-Serif" font-size="10.00"> specified</text>
<text text-anchor="middle" x="288.136" y="-297" font-family="Helvetica,sans-Serif" font-size="10.00">gradient</text>
<text text-anchor="middle" x="288.136" y="-286" font-family="Helvetica,sans-Serif" font-size="10.00">radiation2d</text>
<text text-anchor="middle" x="288.136" y="-275" font-family="Helvetica,sans-Serif" font-size="10.00">nudged</text>
<text text-anchor="middle" x="288.136" y="-264" font-family="Helvetica,sans-Serif" font-size="10.00">radiation</text>
<text text-anchor="middle" x="288.136" y="-253" font-family="Helvetica,sans-Serif" font-size="10.00">flather</text>
</g>
<!-- Node3 -->
<g id="node3" class="node"><title>Node3</title>
<polygon fill="white" stroke="#bfbfbf" points="130.136,-145.5 130.136,-164.5 228.136,-164.5 228.136,-145.5 130.136,-145.5"/>
<text text-anchor="middle" x="179.136" y="-152.5" font-family="Helvetica,sans-Serif" font-size="10.00">character(len=200)</text>
</g>
<!-- Node3&#45;&gt;Node1 -->
<g id="edge2" class="edge"><title>Node3&#45;&gt;Node1</title>
<path fill="none" stroke="#9a32cd" stroke-dasharray="5,2" d="M171.51,-135.983C163.273,-113.396 153.634,-74.5475 172.136,-49 181.845,-35.5941 197.261,-27.6195 213.064,-22.9062"/>
<polygon fill="#9a32cd" stroke="#9a32cd" points="168.286,-137.347 175.201,-145.373 174.801,-134.786 168.286,-137.347"/>
<text text-anchor="middle" x="214.636" y="-52" font-family="Helvetica,sans-Serif" font-size="10.00"> obc_values_config</text>
</g>
<!-- Node4&#45;&gt;Node1 -->
<g id="edge3" class="edge"><title>Node4&#45;&gt;Node1</title>
<path fill="none" stroke="#9a32cd" stroke-dasharray="5,2" d="M379.016,-132.387C352.607,-104.018 306.975,-54.9983 284.472,-30.8258"/>
<polygon fill="#9a32cd" stroke="#9a32cd" points="376.545,-134.868 385.92,-139.803 381.668,-130.099 376.545,-134.868"/>
<text text-anchor="middle" x="358.136" y="-52" font-family="Helvetica,sans-Serif" font-size="10.00"> obc_segment_number</text>
</g>
<!-- Node5 -->
<g id="node5" class="node"><title>Node5</title>
<polygon fill="white" stroke="#bfbfbf" points="287.136,-334.5 287.136,-353.5 319.136,-353.5 319.136,-334.5 287.136,-334.5"/>
<text text-anchor="middle" x="303.136" y="-341.5" font-family="Helvetica,sans-Serif" font-size="10.00">real</text>
</g>
<!-- Node5&#45;&gt;Node1 -->
<g id="edge7" class="edge"><title>Node5&#45;&gt;Node1</title>
<path fill="none" stroke="#9a32cd" stroke-dasharray="5,2" d="M298.349,-324.539C292.894,-302.635 284.208,-264.932 280.136,-232 270.808,-156.56 270.615,-65.2567 270.934,-30.6851"/>
<polygon fill="#9a32cd" stroke="#9a32cd" points="295.011,-325.614 300.866,-334.444 301.795,-323.89 295.011,-325.614"/>
<text text-anchor="middle" x="306.136" y="-213" font-family="Helvetica,sans-Serif" font-size="10.00"> rx_old_u</text>
<text text-anchor="middle" x="306.136" y="-202" font-family="Helvetica,sans-Serif" font-size="10.00">gamma_h</text>
<text text-anchor="middle" x="306.136" y="-191" font-family="Helvetica,sans-Serif" font-size="10.00">eta_outer_u</text>
<text text-anchor="middle" x="306.136" y="-180" font-family="Helvetica,sans-Serif" font-size="10.00">vbt_outer</text>
<text text-anchor="middle" x="306.136" y="-169" font-family="Helvetica,sans-Serif" font-size="10.00">ry_old_v</text>
<text text-anchor="middle" x="306.136" y="-158" font-family="Helvetica,sans-Serif" font-size="10.00">vh</text>
<text text-anchor="start" x="280.136" y="-147" font-family="Helvetica,sans-Serif" font-size="10.00">eta_outer</text>
<text text-anchor="middle" x="306.136" y="-136" font-family="Helvetica,sans-Serif" font-size="10.00">_v</text>
<text text-anchor="middle" x="306.136" y="-125" font-family="Helvetica,sans-Serif" font-size="10.00">uh</text>
<text text-anchor="middle" x="306.136" y="-114" font-family="Helvetica,sans-Serif" font-size="10.00">gamma_uv</text>
<text text-anchor="middle" x="306.136" y="-103" font-family="Helvetica,sans-Serif" font-size="10.00">rx_old_h</text>
<text text-anchor="middle" x="306.136" y="-92" font-family="Helvetica,sans-Serif" font-size="10.00">...</text>
</g>
<!-- Node5&#45;&gt;Node4 -->
<g id="edge5" class="edge"><title>Node5&#45;&gt;Node4</title>
<path fill="none" stroke="#9a32cd" stroke-dasharray="5,2" d="M312.153,-325.435C331.078,-288.573 374.611,-203.773 391.883,-170.128"/>
<polygon fill="#9a32cd" stroke="#9a32cd" points="308.964,-323.984 307.511,-334.479 315.191,-327.181 308.964,-323.984"/>
<text text-anchor="middle" x="372.636" y="-286" font-family="Helvetica,sans-Serif" font-size="10.00"> tnudge_in</text>
<text text-anchor="middle" x="372.636" y="-275" font-family="Helvetica,sans-Serif" font-size="10.00">tnudge_out</text>
</g>
<!-- Node6 -->
<g id="node6" class="node"><title>Node6</title>
<polygon fill="white" stroke="#bfbfbf" points="432.136,-334.5 432.136,-353.5 478.136,-353.5 478.136,-334.5 432.136,-334.5"/>
<text text-anchor="middle" x="455.136" y="-341.5" font-family="Helvetica,sans-Serif" font-size="10.00">integer</text>
</g>
<!-- Node6&#45;&gt;Node1 -->
<g id="edge8" class="edge"><title>Node6&#45;&gt;Node1</title>
<path fill="none" stroke="#9a32cd" stroke-dasharray="5,2" d="M472.657,-326.96C475.307,-323.618 477.649,-319.911 479.136,-316 497.664,-267.267 495.015,-122.398 466.136,-78 450.942,-54.6409 381.042,-36.8022 329.252,-26.4985"/>
<polygon fill="#9a32cd" stroke="#9a32cd" points="469.967,-324.713 465.744,-334.43 475.105,-329.468 469.967,-324.713"/>
<text text-anchor="middle" x="538.636" y="-163.5" font-family="Helvetica,sans-Serif" font-size="10.00"> number_of_segments</text>
<text text-anchor="middle" x="538.636" y="-152.5" font-family="Helvetica,sans-Serif" font-size="10.00">obc_segment_u</text>
<text text-anchor="middle" x="538.636" y="-141.5" font-family="Helvetica,sans-Serif" font-size="10.00">obc_segment_v</text>
</g>
<!-- Node6&#45;&gt;Node4 -->
<g id="edge6" class="edge"><title>Node6&#45;&gt;Node4</title>
<path fill="none" stroke="#9a32cd" stroke-dasharray="5,2" d="M443.873,-325.662C442.125,-322.526 440.462,-319.225 439.136,-316 417.911,-264.358 405.812,-198.555 401.252,-170.128"/>
<polygon fill="#9a32cd" stroke="#9a32cd" points="440.953,-327.595 449.125,-334.338 446.941,-323.971 440.953,-327.595"/>
<text text-anchor="middle" x="459.136" y="-280.5" font-family="Helvetica,sans-Serif" font-size="10.00"> direction</text>
</g>
</g>
</svg>
