<?xml version="1.0" encoding="UTF-8" standalone="no"?>
<!DOCTYPE svg PUBLIC "-//W3C//DTD SVG 1.1//EN"
 "http://www.w3.org/Graphics/SVG/1.1/DTD/svg11.dtd">
<!-- Generated by graphviz version 2.38.0 (20140413.2041)
 -->
<!-- Title: mom_open_boundary::ocean_obc_type Pages: 1 -->
<!--zoomable 362 -->
<svg id="main" version="1.1" xmlns="http://www.w3.org/2000/svg" xmlns:xlink="http://www.w3.org/1999/xlink" xml:space="preserve" onload="init(evt)">
<style type="text/css"><![CDATA[
.edge:hover path { stroke: red; }
.edge:hover polygon { stroke: red; fill: red; }
]]></style>
<script type="text/javascript"><![CDATA[
var edges = document.getElementsByTagName('g');
if (edges && edges.length) {
  for (var i=0;i<edges.length;i++) {
    if (edges[i].id.substr(0,4)=='edge') {
      edges[i].setAttribute('class','edge');
    }
  }
}
]]></script>
        <defs>
                <circle id="rim" cx="0" cy="0" r="7"/>
                <circle id="rim2" cx="0" cy="0" r="3.5"/>
                <g id="zoomPlus">
                        <use xlink:href="#rim" fill="#404040">
                                <set attributeName="fill" to="#808080" begin="zoomplus.mouseover" end="zoomplus.mouseout"/>
                        </use>
                        <path d="M-4,0h8M0,-4v8" fill="none" stroke="white" stroke-width="1.5" pointer-events="none"/>
                </g>
                <g id="zoomMin">
                        <use xlink:href="#rim" fill="#404040">
                                <set attributeName="fill" to="#808080" begin="zoomminus.mouseover" end="zoomminus.mouseout"/>
                        </use>
                        <path d="M-4,0h8" fill="none" stroke="white" stroke-width="1.5" pointer-events="none"/>
                </g>
                <g id="dirArrow">
                        <path fill="none" stroke="white" stroke-width="1.5" d="M0,-3.0v7 M-2.5,-0.5L0,-3.0L2.5,-0.5"/>
                </g>
               <g id="resetDef">
                       <use xlink:href="#rim2" fill="#404040">
                               <set attributeName="fill" to="#808080" begin="reset.mouseover" end="reset.mouseout"/>
                       </use>
               </g>
        </defs>

<script type="text/javascript">
var viewWidth = 517;
var viewHeight = 362;
var sectionId = 'dynsection-0';
</script>
<script xlink:href="../../svgpan.js"/>
<svg id="graph" class="graph">
<g id="viewport">
<title>mom_open_boundary::ocean_obc_type</title>
<polygon fill="white" stroke="none" points="-4,4 -4,-358 513.159,-358 513.159,4 -4,4"/>
<!-- Node1 -->
<g id="node1" class="node"><title>Node1</title>
<polygon fill="#bfbfbf" stroke="black" points="184.159,-0.5 184.159,-30.5 284.159,-30.5 284.159,-0.5 184.159,-0.5"/>
<text text-anchor="start" x="192.159" y="-18.5" font-family="Helvetica,sans-Serif" font-size="10.00">mom_open_boundary::</text>
<text text-anchor="middle" x="234.159" y="-7.5" font-family="Helvetica,sans-Serif" font-size="10.00">ocean_obc_type</text>
</g>
<!-- Node2 -->
<g id="node2" class="node"><title>Node2</title>
<polygon fill="white" stroke="#bfbfbf" points="46.1586,-334.5 46.1586,-353.5 84.1586,-353.5 84.1586,-334.5 46.1586,-334.5"/>
<text text-anchor="middle" x="65.1586" y="-341.5" font-family="Helvetica,sans-Serif" font-size="10.00">logical</text>
</g>
<!-- Node2&#45;&gt;Node1 -->
<g id="edge1" class="edge"><title>Node2&#45;&gt;Node1</title>
<path fill="none" stroke="#9a32cd" stroke-dasharray="5,2" d="M54.4561,-325.334C28.1822,-279.445 -33.3105,-154.713 24.1586,-78 43.3483,-52.3845 128.255,-33.8457 184.055,-24.1652"/>
<polygon fill="#9a32cd" stroke="#9a32cd" points="51.5285,-327.26 59.6099,-334.112 57.5649,-323.716 51.5285,-327.26"/>
<text text-anchor="start" x="24.1586" y="-224" font-family="Helvetica,sans-Serif" font-size="10.00"> flather_v_bcs_exist</text>
<text text-anchor="middle" x="62.6586" y="-213" font-family="Helvetica,sans-Serif" font-size="10.00">_globally</text>
<text text-anchor="middle" x="62.6586" y="-202" font-family="Helvetica,sans-Serif" font-size="10.00">obc_mask_u</text>
<text text-anchor="middle" x="62.6586" y="-191" font-family="Helvetica,sans-Serif" font-size="10.00">obc_mask_v</text>
<text text-anchor="middle" x="62.6586" y="-180" font-family="Helvetica,sans-Serif" font-size="10.00">update_obc</text>
<text text-anchor="middle" x="62.6586" y="-169" font-family="Helvetica,sans-Serif" font-size="10.00">obc_pe</text>
<text text-anchor="start" x="24.1586" y="-158" font-family="Helvetica,sans-Serif" font-size="10.00">flather_u_bcs</text>
<text text-anchor="middle" x="62.6586" y="-147" font-family="Helvetica,sans-Serif" font-size="10.00">_exist_globally</text>
<text text-anchor="start" x="24.1586" y="-136" font-family="Helvetica,sans-Serif" font-size="10.00">specified_u_bcs</text>
<text text-anchor="middle" x="62.6586" y="-125" font-family="Helvetica,sans-Serif" font-size="10.00">_exist_globally</text>
<text text-anchor="start" x="24.1586" y="-114" font-family="Helvetica,sans-Serif" font-size="10.00">nudged_uv_bcs_exist</text>
<text text-anchor="middle" x="62.6586" y="-103" font-family="Helvetica,sans-Serif" font-size="10.00">_globally</text>
<text text-anchor="start" x="24.1586" y="-92" font-family="Helvetica,sans-Serif" font-size="10.00">specified_v_bcs_exist</text>
<text text-anchor="middle" x="62.6586" y="-81" font-family="Helvetica,sans-Serif" font-size="10.00">_globally</text>
</g>
<!-- Node4 -->
<g id="node4" class="node"><title>Node4</title>
<g id="a_node4"><a xlink:href="../../da/d8f/structmom__open__boundary_1_1obc__segment__type.html" target="_top" xlink:title="Open boundary segment type &#45; we&#39;ll have one for each open segment to describe that segment...">
<polygon fill="white" stroke="black" points="296.159,-140 296.159,-170 396.159,-170 396.159,-140 296.159,-140"/>
<text text-anchor="start" x="304.159" y="-158" font-family="Helvetica,sans-Serif" font-size="10.00">mom_open_boundary::</text>
<text text-anchor="middle" x="346.159" y="-147" font-family="Helvetica,sans-Serif" font-size="10.00">obc_segment_type</text>
</a>
</g>
</g>
<!-- Node2&#45;&gt;Node4 -->
<g id="edge4" class="edge"><title>Node2&#45;&gt;Node4</title>
<path fill="none" stroke="#9a32cd" stroke-dasharray="5,2" d="M87.9286,-328.752C119.514,-309.355 178.775,-274.279 232.159,-250 253.658,-240.222 262.776,-245.496 282.159,-232 306.224,-215.244 326.55,-187.227 337.491,-170.295"/>
<polygon fill="#9a32cd" stroke="#9a32cd" points="85.7177,-326.003 79.0519,-334.239 89.3984,-331.958 85.7177,-326.003"/>
<text text-anchor="middle" x="252.159" y="-308" font-family="Helvetica,sans-Serif" font-size="10.00"> specified</text>
<text text-anchor="middle" x="252.159" y="-297" font-family="Helvetica,sans-Serif" font-size="10.00">gradient</text>
<text text-anchor="middle" x="252.159" y="-286" font-family="Helvetica,sans-Serif" font-size="10.00">radiation2d</text>
<text text-anchor="middle" x="252.159" y="-275" font-family="Helvetica,sans-Serif" font-size="10.00">nudged</text>
<text text-anchor="middle" x="252.159" y="-264" font-family="Helvetica,sans-Serif" font-size="10.00">radiation</text>
<text text-anchor="middle" x="252.159" y="-253" font-family="Helvetica,sans-Serif" font-size="10.00">flather</text>
</g>
<!-- Node3 -->
<g id="node3" class="node"><title>Node3</title>
<polygon fill="white" stroke="#bfbfbf" points="110.659,-145.5 110.659,-164.5 195.659,-164.5 195.659,-145.5 110.659,-145.5"/>
<text text-anchor="middle" x="153.159" y="-152.5" font-family="Helvetica,sans-Serif" font-size="10.00">character(len=200)</text>
</g>
<!-- Node3&#45;&gt;Node1 -->
<g id="edge2" class="edge"><title>Node3&#45;&gt;Node1</title>
<path fill="none" stroke="#9a32cd" stroke-dasharray="5,2" d="M147.202,-135.833C141.038,-113.364 134.552,-74.9179 152.159,-49 159.645,-37.9797 171.514,-30.6962 183.921,-25.8824"/>
<polygon fill="#9a32cd" stroke="#9a32cd" points="143.863,-136.886 150.095,-145.454 150.567,-134.87 143.863,-136.886"/>
<text text-anchor="middle" x="186.159" y="-52" font-family="Helvetica,sans-Serif" font-size="10.00"> obc_values_config</text>
</g>
<!-- Node4&#45;&gt;Node1 -->
<g id="edge3" class="edge"><title>Node4&#45;&gt;Node1</title>
<path fill="none" stroke="#9a32cd" stroke-dasharray="5,2" d="M328.257,-132.022C305.105,-103.599 265.433,-54.895 245.828,-30.8258"/>
<polygon fill="#9a32cd" stroke="#9a32cd" points="325.565,-134.26 334.594,-139.803 330.993,-129.839 325.565,-134.26"/>
<text text-anchor="middle" x="300.159" y="-52" font-family="Helvetica,sans-Serif" font-size="10.00"> obc_segment_list</text>
</g>
<!-- Node5 -->
<g id="node5" class="node"><title>Node5</title>
<polygon fill="white" stroke="#bfbfbf" points="249.159,-334.5 249.159,-353.5 279.159,-353.5 279.159,-334.5 249.159,-334.5"/>
<text text-anchor="middle" x="264.159" y="-341.5" font-family="Helvetica,sans-Serif" font-size="10.00">real</text>
</g>
<!-- Node5&#45;&gt;Node1 -->
<g id="edge7" class="edge"><title>Node5&#45;&gt;Node1</title>
<path fill="none" stroke="#9a32cd" stroke-dasharray="5,2" d="M259.807,-324.511C254.845,-302.581 246.932,-264.853 243.159,-232 234.485,-156.482 233.908,-65.2244 234.041,-30.675"/>
<polygon fill="#9a32cd" stroke="#9a32cd" points="256.437,-325.473 262.096,-334.43 263.258,-323.899 256.437,-325.473"/>
<text text-anchor="middle" x="265.159" y="-213" font-family="Helvetica,sans-Serif" font-size="10.00"> rx_old_u</text>
<text text-anchor="middle" x="265.159" y="-202" font-family="Helvetica,sans-Serif" font-size="10.00">gamma_h</text>
<text text-anchor="middle" x="265.159" y="-191" font-family="Helvetica,sans-Serif" font-size="10.00">eta_outer_u</text>
<text text-anchor="middle" x="265.159" y="-180" font-family="Helvetica,sans-Serif" font-size="10.00">vbt_outer</text>
<text text-anchor="middle" x="265.159" y="-169" font-family="Helvetica,sans-Serif" font-size="10.00">ry_old_v</text>
<text text-anchor="middle" x="265.159" y="-158" font-family="Helvetica,sans-Serif" font-size="10.00">vh</text>
<text text-anchor="start" x="243.159" y="-147" font-family="Helvetica,sans-Serif" font-size="10.00">eta_outer</text>
<text text-anchor="middle" x="265.159" y="-136" font-family="Helvetica,sans-Serif" font-size="10.00">_v</text>
<text text-anchor="middle" x="265.159" y="-125" font-family="Helvetica,sans-Serif" font-size="10.00">uh</text>
<text text-anchor="middle" x="265.159" y="-114" font-family="Helvetica,sans-Serif" font-size="10.00">gamma_uv</text>
<text text-anchor="middle" x="265.159" y="-103" font-family="Helvetica,sans-Serif" font-size="10.00">rx_old_h</text>
<text text-anchor="middle" x="265.159" y="-92" font-family="Helvetica,sans-Serif" font-size="10.00">...</text>
</g>
<!-- Node5&#45;&gt;Node4 -->
<g id="edge5" class="edge"><title>Node5&#45;&gt;Node4</title>
<path fill="none" stroke="#9a32cd" stroke-dasharray="5,2" d="M272.069,-324.96C288.343,-287.849 325.273,-203.63 339.963,-170.128"/>
<polygon fill="#9a32cd" stroke="#9a32cd" points="268.706,-323.915 267.895,-334.479 275.116,-326.726 268.706,-323.915"/>
<text text-anchor="middle" x="323.659" y="-286" font-family="Helvetica,sans-Serif" font-size="10.00"> tnudge_in</text>
<text text-anchor="middle" x="323.659" y="-275" font-family="Helvetica,sans-Serif" font-size="10.00">tnudge_out</text>
</g>
<!-- Node6 -->
<g id="node6" class="node"><title>Node6</title>
<polygon fill="white" stroke="#bfbfbf" points="377.659,-334.5 377.659,-353.5 418.659,-353.5 418.659,-334.5 377.659,-334.5"/>
<text text-anchor="middle" x="398.159" y="-341.5" font-family="Helvetica,sans-Serif" font-size="10.00">integer</text>
</g>
<!-- Node6&#45;&gt;Node1 -->
<g id="edge8" class="edge"><title>Node6&#45;&gt;Node1</title>
<path fill="none" stroke="#9a32cd" stroke-dasharray="5,2" d="M413.065,-326.192C415.157,-322.999 416.99,-319.542 418.159,-316 435.383,-263.811 430.629,-113.364 405.159,-78 377.686,-39.8555 324.265,-25.2798 284.408,-19.7592"/>
<polygon fill="#9a32cd" stroke="#9a32cd" points="410.122,-324.279 406.819,-334.346 415.679,-328.536 410.122,-324.279"/>
<text text-anchor="middle" x="468.659" y="-174.5" font-family="Helvetica,sans-Serif" font-size="10.00"> number_of_segments</text>
<text text-anchor="middle" x="468.659" y="-163.5" font-family="Helvetica,sans-Serif" font-size="10.00">obc_direction_u</text>
<text text-anchor="middle" x="468.659" y="-152.5" font-family="Helvetica,sans-Serif" font-size="10.00">obc_direction_v</text>
<text text-anchor="middle" x="468.659" y="-141.5" font-family="Helvetica,sans-Serif" font-size="10.00">obc_segment_u</text>
<text text-anchor="middle" x="468.659" y="-130.5" font-family="Helvetica,sans-Serif" font-size="10.00">obc_segment_v</text>
</g>
<!-- Node6&#45;&gt;Node4 -->
<g id="edge6" class="edge"><title>Node6&#45;&gt;Node4</title>
<path fill="none" stroke="#9a32cd" stroke-dasharray="5,2" d="M388.95,-325.216C387.569,-322.186 386.246,-319.037 385.159,-316 366.457,-263.781 353.703,-198.822 348.622,-170.42"/>
<polygon fill="#9a32cd" stroke="#9a32cd" points="385.807,-326.755 393.343,-334.202 392.096,-323.681 385.807,-326.755"/>
<text text-anchor="middle" x="401.659" y="-280.5" font-family="Helvetica,sans-Serif" font-size="10.00"> direction</text>
</g>
</g>
</svg>
        <g id="navigator" transform="translate(0 0)" fill="#404254">
                <rect fill="#f2f5e9" fill-opacity="0.5" stroke="#606060" stroke-width=".5" x="0" y="0" width="60" height="60"/>
                <use id="zoomplus" xlink:href="#zoomPlus" x="17" y="9" onmousedown="handleZoom(evt,'in')"/>
                <use id="zoomminus" xlink:href="#zoomMin" x="42" y="9" onmousedown="handleZoom(evt,'out')"/>
                <use id="reset" xlink:href="#resetDef" x="30" y="36" onmousedown="handleReset()"/>
                <g id="arrowUp" xlink:href="#dirArrow" transform="translate(30 24)" onmousedown="handlePan(0,-1)">
                  <use xlink:href="#rim" fill="#404040">
                        <set attributeName="fill" to="#808080" begin="arrowUp.mouseover" end="arrowUp.mouseout"/>
                  </use>
                  <path fill="none" stroke="white" stroke-width="1.5" d="M0,-3.0v7 M-2.5,-0.5L0,-3.0L2.5,-0.5"/>
                </g>
                <g id="arrowRight" xlink:href="#dirArrow" transform="rotate(90) translate(36 -43)" onmousedown="handlePan(1,0)">
                  <use xlink:href="#rim" fill="#404040">
                        <set attributeName="fill" to="#808080" begin="arrowRight.mouseover" end="arrowRight.mouseout"/>
                  </use>
                  <path fill="none" stroke="white" stroke-width="1.5" d="M0,-3.0v7 M-2.5,-0.5L0,-3.0L2.5,-0.5"/>
                </g>
                <g id="arrowDown" xlink:href="#dirArrow" transform="rotate(180) translate(-30 -48)" onmousedown="handlePan(0,1)">
                  <use xlink:href="#rim" fill="#404040">
                        <set attributeName="fill" to="#808080" begin="arrowDown.mouseover" end="arrowDown.mouseout"/>
                  </use>
                  <path fill="none" stroke="white" stroke-width="1.5" d="M0,-3.0v7 M-2.5,-0.5L0,-3.0L2.5,-0.5"/>
                </g>
                <g id="arrowLeft" xlink:href="#dirArrow" transform="rotate(270) translate(-36 17)" onmousedown="handlePan(-1,0)">
                  <use xlink:href="#rim" fill="#404040">
                        <set attributeName="fill" to="#808080" begin="arrowLeft.mouseover" end="arrowLeft.mouseout"/>
                  </use>
                  <path fill="none" stroke="white" stroke-width="1.5" d="M0,-3.0v7 M-2.5,-0.5L0,-3.0L2.5,-0.5"/>
                </g>
        </g>
        <svg viewBox="0 0 15 15" width="100%" height="30px" preserveAspectRatio="xMaxYMin meet">
         <g id="arrow_out" transform="scale(0.3 0.3)">
          <a xlink:href="structmom__open__boundary_1_1ocean__obc__type__coll__graph_org.svg" target="_base">
           <rect id="button" ry="5" rx="5" y="6" x="6" height="38" width="38"
                fill="#f2f5e9" fill-opacity="0.5" stroke="#606060" stroke-width="1.0"/>
           <path id="arrow"
             d="M 11.500037,31.436501 C 11.940474,20.09759 22.043105,11.32322 32.158766,21.979434 L 37.068811,17.246167 C 37.068811,17.246167 37.088388,32 37.088388,32 L 22.160133,31.978069 C 22.160133,31.978069 26.997745,27.140456 26.997745,27.140456 C 18.528582,18.264221 13.291696,25.230495 11.500037,31.436501 z"
             style="fill:#404040;"/>
          </a>
         </g>
        </svg>
</svg>
