<?xml version="1.0" encoding="UTF-8" standalone="no"?>
<!DOCTYPE svg PUBLIC "-//W3C//DTD SVG 1.1//EN"
 "http://www.w3.org/Graphics/SVG/1.1/DTD/svg11.dtd">
<!-- Generated by graphviz version 2.38.0 (20140413.2041)
 -->
<!-- Title: mom_forcing_type::calculatebuoyancyflux1d Pages: 1 -->
<svg width="743pt" height="227pt"
 viewBox="0.00 0.00 743.00 227.00" xmlns="http://www.w3.org/2000/svg" xmlns:xlink="http://www.w3.org/1999/xlink">
<g id="graph0" class="graph" transform="scale(1 1) rotate(0) translate(4 223)">
<title>mom_forcing_type::calculatebuoyancyflux1d</title>
<polygon fill="white" stroke="none" points="-4,4 -4,-223 739,-223 739,4 -4,4"/>
<!-- Node20 -->
<g id="node1" class="node"><title>Node20</title>
<polygon fill="#bfbfbf" stroke="black" points="0,-50 0,-69 210,-69 210,-50 0,-50"/>
<text text-anchor="middle" x="105" y="-57" font-family="Helvetica,sans-Serif" font-size="10.00">mom_forcing_type::calculatebuoyancyflux1d</text>
</g>
<!-- Node21 -->
<g id="node2" class="node"><title>Node21</title>
<g id="a_node2"><a xlink:href="../../d1/d01/namespacemom__eos.html#a204529f8434a0322314e6ce2a9762436" target="_top" xlink:title="Calls the appropriate subroutine to calculate density derivatives for 1&#45;D array inputs. ">
<polygon fill="white" stroke="black" points="279,-90.5 279,-120.5 383,-120.5 383,-90.5 279,-90.5"/>
<text text-anchor="start" x="287" y="-108.5" font-family="Helvetica,sans-Serif" font-size="10.00">mom_eos::calculate</text>
<text text-anchor="middle" x="331" y="-97.5" font-family="Helvetica,sans-Serif" font-size="10.00">_density_derivs</text>
</a>
</g>
</g>
<!-- Node20&#45;&gt;Node21 -->
<g id="edge1" class="edge"><title>Node20&#45;&gt;Node21</title>
<path fill="none" stroke="midnightblue" d="M152.413,-69.0312C186.147,-75.9589 232.139,-85.4036 268.866,-92.9456"/>
<polygon fill="midnightblue" stroke="midnightblue" points="268.461,-96.4355 278.961,-95.0187 269.869,-89.5786 268.461,-96.4355"/>
</g>
<!-- Node27 -->
<g id="node8" class="node"><title>Node27</title>
<g id="a_node8"><a xlink:href="../../dd/dc3/namespacemom__forcing__type.html#ab67e7c2e99099bcf22d12885f349e1e4" target="_top" xlink:title="This subroutine extracts fluxes from the surface fluxes type. It works on a j&#45;row for optimization pu...">
<polygon fill="white" stroke="black" points="246,-50 246,-69 416,-69 416,-50 246,-50"/>
<text text-anchor="middle" x="331" y="-57" font-family="Helvetica,sans-Serif" font-size="10.00">mom_forcing_type::extractfluxes1d</text>
</a>
</g>
</g>
<!-- Node20&#45;&gt;Node27 -->
<g id="edge7" class="edge"><title>Node20&#45;&gt;Node27</title>
<path fill="none" stroke="midnightblue" d="M210.131,-59.5C218.659,-59.5 227.249,-59.5 235.701,-59.5"/>
<polygon fill="midnightblue" stroke="midnightblue" points="235.928,-63.0001 245.928,-59.5 235.928,-56.0001 235.928,-63.0001"/>
</g>
<!-- Node28 -->
<g id="node9" class="node"><title>Node28</title>
<g id="a_node9"><a xlink:href="../../d8/daf/namespacemom__shortwave__abs.html#a8a1184c3f836d0900dfd5fa587cfb879" target="_top" xlink:title="mom_shortwave_abs::\lsumswoverbands">
<polygon fill="white" stroke="black" points="273,-0.5 273,-30.5 389,-30.5 389,-0.5 273,-0.5"/>
<text text-anchor="start" x="281" y="-18.5" font-family="Helvetica,sans-Serif" font-size="10.00">mom_shortwave_abs::</text>
<text text-anchor="middle" x="331" y="-7.5" font-family="Helvetica,sans-Serif" font-size="10.00">sumswoverbands</text>
</a>
</g>
</g>
<!-- Node20&#45;&gt;Node28 -->
<g id="edge9" class="edge"><title>Node20&#45;&gt;Node28</title>
<path fill="none" stroke="midnightblue" d="M154.605,-49.9527C186.225,-43.7415 227.897,-35.5559 262.688,-28.722"/>
<polygon fill="midnightblue" stroke="midnightblue" points="263.635,-32.1029 272.773,-26.741 262.286,-25.2341 263.635,-32.1029"/>
</g>
<!-- Node22 -->
<g id="node3" class="node"><title>Node22</title>
<g id="a_node3"><a xlink:href="../../d5/de6/namespacemom__eos__linear.html#a73d8a625582247379092adf1aeeb55e0" target="_top" xlink:title="mom_eos_linear::calculate\l_density_derivs_linear">
<polygon fill="white" stroke="black" points="456,-188.5 456,-218.5 589,-218.5 589,-188.5 456,-188.5"/>
<text text-anchor="start" x="464" y="-206.5" font-family="Helvetica,sans-Serif" font-size="10.00">mom_eos_linear::calculate</text>
<text text-anchor="middle" x="522.5" y="-195.5" font-family="Helvetica,sans-Serif" font-size="10.00">_density_derivs_linear</text>
</a>
</g>
</g>
<!-- Node21&#45;&gt;Node22 -->
<g id="edge2" class="edge"><title>Node21&#45;&gt;Node22</title>
<path fill="none" stroke="midnightblue" d="M353.301,-120.642C376.68,-136.775 415.726,-162.31 452,-179.5 455.828,-181.314 459.832,-183.061 463.901,-184.728"/>
<polygon fill="midnightblue" stroke="midnightblue" points="462.876,-188.085 473.464,-188.467 465.425,-181.566 462.876,-188.085"/>
</g>
<!-- Node23 -->
<g id="node4" class="node"><title>Node23</title>
<g id="a_node4"><a xlink:href="../../dd/d6b/namespacemom__eos__unesco.html#af8666837abadea54c016bf59838f96cc" target="_top" xlink:title="mom_eos_unesco::calculate\l_density_derivs_unesco">
<polygon fill="white" stroke="black" points="452,-139.5 452,-169.5 593,-169.5 593,-139.5 452,-139.5"/>
<text text-anchor="start" x="460" y="-157.5" font-family="Helvetica,sans-Serif" font-size="10.00">mom_eos_unesco::calculate</text>
<text text-anchor="middle" x="522.5" y="-146.5" font-family="Helvetica,sans-Serif" font-size="10.00">_density_derivs_unesco</text>
</a>
</g>
</g>
<!-- Node21&#45;&gt;Node23 -->
<g id="edge3" class="edge"><title>Node21&#45;&gt;Node23</title>
<path fill="none" stroke="midnightblue" d="M383.281,-118.76C404.957,-124.365 430.508,-130.972 453.707,-136.97"/>
<polygon fill="midnightblue" stroke="midnightblue" points="452.929,-140.384 463.487,-139.499 454.682,-133.607 452.929,-140.384"/>
</g>
<!-- Node24 -->
<g id="node5" class="node"><title>Node24</title>
<g id="a_node5"><a xlink:href="../../de/d76/namespacemom__eos__wright.html#ad7748e85ddacb33ad90ec3a9017e6e72" target="_top" xlink:title="mom_eos_wright::calculate\l_density_derivs_wright">
<polygon fill="white" stroke="black" points="454.5,-90.5 454.5,-120.5 590.5,-120.5 590.5,-90.5 454.5,-90.5"/>
<text text-anchor="start" x="462.5" y="-108.5" font-family="Helvetica,sans-Serif" font-size="10.00">mom_eos_wright::calculate</text>
<text text-anchor="middle" x="522.5" y="-97.5" font-family="Helvetica,sans-Serif" font-size="10.00">_density_derivs_wright</text>
</a>
</g>
</g>
<!-- Node21&#45;&gt;Node24 -->
<g id="edge4" class="edge"><title>Node21&#45;&gt;Node24</title>
<path fill="none" stroke="midnightblue" d="M383.281,-105.5C402.121,-105.5 423.888,-105.5 444.493,-105.5"/>
<polygon fill="midnightblue" stroke="midnightblue" points="444.498,-109 454.498,-105.5 444.498,-102 444.498,-109"/>
</g>
<!-- Node25 -->
<g id="node6" class="node"><title>Node25</title>
<g id="a_node6"><a xlink:href="../../d0/de6/namespacemom__error__handler.html#a460cfb79a06c29fc249952c2a3710d67" target="_top" xlink:title="mom_error_handler::\lmom_error">
<polygon fill="white" stroke="black" points="469.5,-41.5 469.5,-71.5 575.5,-71.5 575.5,-41.5 469.5,-41.5"/>
<text text-anchor="start" x="477.5" y="-59.5" font-family="Helvetica,sans-Serif" font-size="10.00">mom_error_handler::</text>
<text text-anchor="middle" x="522.5" y="-48.5" font-family="Helvetica,sans-Serif" font-size="10.00">mom_error</text>
</a>
</g>
</g>
<!-- Node21&#45;&gt;Node25 -->
<g id="edge5" class="edge"><title>Node21&#45;&gt;Node25</title>
<path fill="none" stroke="midnightblue" d="M383.281,-92.2399C406.692,-86.1866 434.622,-78.9645 459.228,-72.6021"/>
<polygon fill="midnightblue" stroke="midnightblue" points="460.383,-75.9186 469.188,-70.0265 458.63,-69.1415 460.383,-75.9186"/>
</g>
<!-- Node26 -->
<g id="node7" class="node"><title>Node26</title>
<g id="a_node7"><a xlink:href="../../d0/de6/namespacemom__error__handler.html#ad5f00a53059c72fe2332d1436c80ca71" target="_top" xlink:title="mom_error_handler::\lis_root_pe">
<polygon fill="white" stroke="black" points="629,-41.5 629,-71.5 735,-71.5 735,-41.5 629,-41.5"/>
<text text-anchor="start" x="637" y="-59.5" font-family="Helvetica,sans-Serif" font-size="10.00">mom_error_handler::</text>
<text text-anchor="middle" x="682" y="-48.5" font-family="Helvetica,sans-Serif" font-size="10.00">is_root_pe</text>
</a>
</g>
</g>
<!-- Node25&#45;&gt;Node26 -->
<g id="edge6" class="edge"><title>Node25&#45;&gt;Node26</title>
<path fill="none" stroke="midnightblue" d="M575.508,-56.5C589.279,-56.5 604.289,-56.5 618.552,-56.5"/>
<polygon fill="midnightblue" stroke="midnightblue" points="618.778,-60.0001 628.778,-56.5 618.778,-53.0001 618.778,-60.0001"/>
</g>
<!-- Node27&#45;&gt;Node25 -->
<g id="edge8" class="edge"><title>Node27&#45;&gt;Node25</title>
<path fill="none" stroke="midnightblue" d="M416.221,-58.1667C430.636,-57.9385 445.38,-57.7051 459.097,-57.4879"/>
<polygon fill="midnightblue" stroke="midnightblue" points="459.419,-60.9833 469.363,-57.3254 459.309,-53.9842 459.419,-60.9833"/>
</g>
</g>
</svg>
