<?xml version="1.0" encoding="UTF-8" standalone="no"?>
<!DOCTYPE svg PUBLIC "-//W3C//DTD SVG 1.1//EN"
 "http://www.w3.org/Graphics/SVG/1.1/DTD/svg11.dtd">
<!-- Generated by graphviz version 2.38.0 (20140413.2041)
 -->
<!-- Title: mom_variables::thermo_var_ptrs Pages: 1 -->
<svg width="187pt" height="194pt"
 viewBox="0.00 0.00 186.50 194.00" xmlns="http://www.w3.org/2000/svg" xmlns:xlink="http://www.w3.org/1999/xlink">
<g id="graph0" class="graph" transform="scale(1 1) rotate(0) translate(4 190)">
<title>mom_variables::thermo_var_ptrs</title>
<polygon fill="white" stroke="none" points="-4,4 -4,-190 182.5,-190 182.5,4 -4,4"/>
<!-- Node1 -->
<g id="node1" class="node"><title>Node1</title>
<polygon fill="#bfbfbf" stroke="black" points="40,-0.5 40,-30.5 141,-30.5 141,-0.5 40,-0.5"/>
<text text-anchor="start" x="48" y="-18.5" font-family="Helvetica,sans-Serif" font-size="10.00">mom_variables::thermo</text>
<text text-anchor="middle" x="90.5" y="-7.5" font-family="Helvetica,sans-Serif" font-size="10.00">_var_ptrs</text>
</g>
<!-- Node2 -->
<g id="node2" class="node"><title>Node2</title>
<polygon fill="white" stroke="#bfbfbf" points="0,-166.5 0,-185.5 99,-185.5 99,-166.5 0,-166.5"/>
<text text-anchor="middle" x="49.5" y="-173.5" font-family="Helvetica,sans-Serif" font-size="10.00">type(eos_type), pointer</text>
</g>
<!-- Node2&#45;&gt;Node1 -->
<g id="edge1" class="edge"><title>Node2&#45;&gt;Node1</title>
<path fill="none" stroke="#9a32cd" stroke-dasharray="5,2" d="M47.7497,-156.177C46.1545,-130.726 46.0186,-84.4498 61.5,-49 64.4659,-42.2086 69.4109,-35.8541 74.385,-30.5973"/>
<polygon fill="#9a32cd" stroke="#9a32cd" points="44.2713,-156.592 48.5345,-166.291 51.2503,-156.05 44.2713,-156.592"/>
<text text-anchor="middle" x="86" y="-96" font-family="Helvetica,sans-Serif" font-size="10.00"> eqn_of_state</text>
</g>
<!-- Node3 -->
<g id="node3" class="node"><title>Node3</title>
<polygon fill="white" stroke="#bfbfbf" points="117.5,-166.5 117.5,-185.5 147.5,-185.5 147.5,-166.5 117.5,-166.5"/>
<text text-anchor="middle" x="132.5" y="-173.5" font-family="Helvetica,sans-Serif" font-size="10.00">real</text>
</g>
<!-- Node3&#45;&gt;Node1 -->
<g id="edge2" class="edge"><title>Node3&#45;&gt;Node1</title>
<path fill="none" stroke="#9a32cd" stroke-dasharray="5,2" d="M131.431,-156.16C129.51,-131.003 124.291,-85.3894 110.5,-49 108.105,-42.6809 104.444,-36.2379 100.905,-30.7729"/>
<polygon fill="#9a32cd" stroke="#9a32cd" points="127.959,-156.709 132.116,-166.455 134.944,-156.244 127.959,-156.709"/>
<text text-anchor="middle" x="155" y="-140" font-family="Helvetica,sans-Serif" font-size="10.00"> hml</text>
<text text-anchor="middle" x="155" y="-129" font-family="Helvetica,sans-Serif" font-size="10.00">salt_deficit</text>
<text text-anchor="middle" x="155" y="-118" font-family="Helvetica,sans-Serif" font-size="10.00">frazil</text>
<text text-anchor="middle" x="155" y="-107" font-family="Helvetica,sans-Serif" font-size="10.00">internal_heat</text>
<text text-anchor="middle" x="155" y="-96" font-family="Helvetica,sans-Serif" font-size="10.00">p_ref</text>
<text text-anchor="middle" x="155" y="-85" font-family="Helvetica,sans-Serif" font-size="10.00">s</text>
<text text-anchor="middle" x="155" y="-74" font-family="Helvetica,sans-Serif" font-size="10.00">c_p</text>
<text text-anchor="middle" x="155" y="-63" font-family="Helvetica,sans-Serif" font-size="10.00">t</text>
<text text-anchor="middle" x="155" y="-52" font-family="Helvetica,sans-Serif" font-size="10.00">tempxpme</text>
</g>
</g>
</svg>
