<?xml version="1.0" encoding="UTF-8" standalone="no"?>
<!DOCTYPE svg PUBLIC "-//W3C//DTD SVG 1.1//EN"
 "http://www.w3.org/Graphics/SVG/1.1/DTD/svg11.dtd">
<!-- Generated by graphviz version 2.38.0 (20140413.2041)
 -->
<!-- Title: mom::set_restart_fields Pages: 1 -->
<svg width="782pt" height="146pt"
 viewBox="0.00 0.00 782.00 145.50" xmlns="http://www.w3.org/2000/svg" xmlns:xlink="http://www.w3.org/1999/xlink">
<g id="graph0" class="graph" transform="scale(1 1) rotate(0) translate(4 141.5)">
<title>mom::set_restart_fields</title>
<polygon fill="white" stroke="none" points="-4,4 -4,-141.5 778,-141.5 778,4 -4,4"/>
<!-- Node347 -->
<g id="node1" class="node"><title>Node347</title>
<polygon fill="#bfbfbf" stroke="black" points="0,-63.5 0,-82.5 100,-82.5 100,-63.5 0,-63.5"/>
<text text-anchor="middle" x="50" y="-70.5" font-family="Helvetica,sans-Serif" font-size="10.00">mom::set_restart_fields</text>
</g>
<!-- Node348 -->
<g id="node2" class="node"><title>Node348</title>
<g id="a_node2"><a xlink:href="../../d6/dad/namespacemom__verticalgrid.html#af027c312e660a932b3f430f4c7a9675d" target="_top" xlink:title="Returns the model&#39;s thickness flux units, usually m^3/s or kg/s. ">
<polygon fill="white" stroke="black" points="136,-107 136,-137 229,-137 229,-107 136,-107"/>
<text text-anchor="start" x="144" y="-125" font-family="Helvetica,sans-Serif" font-size="10.00">mom_verticalgrid::get</text>
<text text-anchor="middle" x="182.5" y="-114" font-family="Helvetica,sans-Serif" font-size="10.00">_flux_units</text>
</a>
</g>
</g>
<!-- Node347&#45;&gt;Node348 -->
<g id="edge1" class="edge"><title>Node347&#45;&gt;Node348</title>
<path fill="none" stroke="midnightblue" d="M76.4715,-82.564C92.2718,-88.4967 113.104,-96.3188 132.047,-103.431"/>
<polygon fill="midnightblue" stroke="midnightblue" points="130.86,-106.724 141.453,-106.963 133.321,-100.171 130.86,-106.724"/>
</g>
<!-- Node349 -->
<g id="node3" class="node"><title>Node349</title>
<g id="a_node3"><a xlink:href="../../d6/dad/namespacemom__verticalgrid.html#a1eea13d63bdc910462ffba406d32fe04" target="_top" xlink:title="Returns the model&#39;s thickness units, usually m or kg/m^2. ">
<polygon fill="white" stroke="black" points="136,-58 136,-88 229,-88 229,-58 136,-58"/>
<text text-anchor="start" x="144" y="-76" font-family="Helvetica,sans-Serif" font-size="10.00">mom_verticalgrid::get</text>
<text text-anchor="middle" x="182.5" y="-65" font-family="Helvetica,sans-Serif" font-size="10.00">_thickness_units</text>
</a>
</g>
</g>
<!-- Node347&#45;&gt;Node349 -->
<g id="edge2" class="edge"><title>Node347&#45;&gt;Node349</title>
<path fill="none" stroke="midnightblue" d="M100.336,-73C108.649,-73 117.329,-73 125.79,-73"/>
<polygon fill="midnightblue" stroke="midnightblue" points="125.963,-76.5001 135.963,-73 125.963,-69.5001 125.963,-76.5001"/>
</g>
<!-- Node350 -->
<g id="node4" class="node"><title>Node350</title>
<g id="a_node4"><a xlink:href="../../d5/d89/namespacemom__io.html#a39c3ccc06bb1a6e446af2ee9010eba16" target="_top" xlink:title="Returns a vardesc type whose elements have been filled with the provided fields. The argument name is...">
<polygon fill="white" stroke="black" points="141.5,-19.5 141.5,-38.5 223.5,-38.5 223.5,-19.5 141.5,-19.5"/>
<text text-anchor="middle" x="182.5" y="-26.5" font-family="Helvetica,sans-Serif" font-size="10.00">mom_io::var_desc</text>
</a>
</g>
</g>
<!-- Node347&#45;&gt;Node350 -->
<g id="edge3" class="edge"><title>Node347&#45;&gt;Node350</title>
<path fill="none" stroke="midnightblue" d="M79.3166,-63.4527C98.1276,-57.1102 123.045,-48.7089 143.565,-41.7904"/>
<polygon fill="midnightblue" stroke="midnightblue" points="144.881,-45.0403 153.239,-38.5287 142.645,-38.4072 144.881,-45.0403"/>
</g>
<!-- Node351 -->
<g id="node5" class="node"><title>Node351</title>
<g id="a_node5"><a xlink:href="../../d5/d89/namespacemom__io.html#ac4bc408e8b38dbd669842753f26ebf88" target="_top" xlink:title="Copies a string. ">
<polygon fill="white" stroke="black" points="406,-19.5 406,-38.5 516,-38.5 516,-19.5 406,-19.5"/>
<text text-anchor="middle" x="461" y="-26.5" font-family="Helvetica,sans-Serif" font-size="10.00">mom_io::safe_string_copy</text>
</a>
</g>
</g>
<!-- Node350&#45;&gt;Node351 -->
<g id="edge4" class="edge"><title>Node350&#45;&gt;Node351</title>
<path fill="none" stroke="midnightblue" d="M223.705,-29C268.873,-29 342.808,-29 395.953,-29"/>
<polygon fill="midnightblue" stroke="midnightblue" points="395.956,-32.5001 405.956,-29 395.956,-25.5001 395.956,-32.5001"/>
</g>
<!-- Node354 -->
<g id="node8" class="node"><title>Node354</title>
<g id="a_node8"><a xlink:href="../../d5/d89/namespacemom__io.html#af96b29cb8410d557e8e452b81586223b" target="_top" xlink:title="This routine modifies the named elements of a vardesc type. All arguments are optional, except the vardesc type to be modified. ">
<polygon fill="white" stroke="black" points="265,-0.5 265,-19.5 370,-19.5 370,-0.5 265,-0.5"/>
<text text-anchor="middle" x="317.5" y="-7.5" font-family="Helvetica,sans-Serif" font-size="10.00">mom_io::modify_vardesc</text>
</a>
</g>
</g>
<!-- Node350&#45;&gt;Node354 -->
<g id="edge7" class="edge"><title>Node350&#45;&gt;Node354</title>
<path fill="none" stroke="midnightblue" d="M223.765,-23.2478C233.499,-21.8573 244.126,-20.3392 254.6,-18.8429"/>
<polygon fill="midnightblue" stroke="midnightblue" points="255.156,-22.299 264.561,-17.4199 254.166,-15.3693 255.156,-22.299"/>
</g>
<!-- Node352 -->
<g id="node6" class="node"><title>Node352</title>
<g id="a_node6"><a xlink:href="../../d0/de6/namespacemom__error__handler.html#a460cfb79a06c29fc249952c2a3710d67" target="_top" xlink:title="mom_error_handler::\lmom_error">
<polygon fill="white" stroke="black" points="552,-14 552,-44 645,-44 645,-14 552,-14"/>
<text text-anchor="start" x="560" y="-32" font-family="Helvetica,sans-Serif" font-size="10.00">mom_error_handler::</text>
<text text-anchor="middle" x="598.5" y="-21" font-family="Helvetica,sans-Serif" font-size="10.00">mom_error</text>
</a>
</g>
</g>
<!-- Node351&#45;&gt;Node352 -->
<g id="edge5" class="edge"><title>Node351&#45;&gt;Node352</title>
<path fill="none" stroke="midnightblue" d="M516.332,-29C524.707,-29 533.367,-29 541.772,-29"/>
<polygon fill="midnightblue" stroke="midnightblue" points="541.862,-32.5001 551.862,-29 541.862,-25.5001 541.862,-32.5001"/>
</g>
<!-- Node353 -->
<g id="node7" class="node"><title>Node353</title>
<g id="a_node7"><a xlink:href="../../d0/de6/namespacemom__error__handler.html#ad5f00a53059c72fe2332d1436c80ca71" target="_top" xlink:title="mom_error_handler::\lis_root_pe">
<polygon fill="white" stroke="black" points="681,-14 681,-44 774,-44 774,-14 681,-14"/>
<text text-anchor="start" x="689" y="-32" font-family="Helvetica,sans-Serif" font-size="10.00">mom_error_handler::</text>
<text text-anchor="middle" x="727.5" y="-21" font-family="Helvetica,sans-Serif" font-size="10.00">is_root_pe</text>
</a>
</g>
</g>
<!-- Node352&#45;&gt;Node353 -->
<g id="edge6" class="edge"><title>Node352&#45;&gt;Node353</title>
<path fill="none" stroke="midnightblue" d="M645.35,-29C653.533,-29 662.141,-29 670.568,-29"/>
<polygon fill="midnightblue" stroke="midnightblue" points="670.717,-32.5001 680.717,-29 670.717,-25.5001 670.717,-32.5001"/>
</g>
<!-- Node354&#45;&gt;Node351 -->
<g id="edge8" class="edge"><title>Node354&#45;&gt;Node351</title>
<path fill="none" stroke="midnightblue" d="M370.386,-16.967C378.663,-18.0784 387.311,-19.2397 395.832,-20.3837"/>
<polygon fill="midnightblue" stroke="midnightblue" points="395.368,-23.8528 405.744,-21.7148 396.299,-16.915 395.368,-23.8528"/>
</g>
</g>
</svg>
