<?xml version="1.0" encoding="UTF-8" standalone="no"?>
<!DOCTYPE svg PUBLIC "-//W3C//DTD SVG 1.1//EN"
 "http://www.w3.org/Graphics/SVG/1.1/DTD/svg11.dtd">
<!-- Generated by graphviz version 2.38.0 (20140413.2041)
 -->
<!-- Title: mom::post_diags_ts_tendency Pages: 1 -->
<svg width="340pt" height="39pt"
 viewBox="0.00 0.00 340.00 39.00" xmlns="http://www.w3.org/2000/svg" xmlns:xlink="http://www.w3.org/1999/xlink">
<g id="graph0" class="graph" transform="scale(1 1) rotate(0) translate(4 35)">
<title>mom::post_diags_ts_tendency</title>
<polygon fill="white" stroke="none" points="-4,4 -4,-35 336,-35 336,4 -4,4"/>
<!-- Node99 -->
<g id="node1" class="node"><title>Node99</title>
<polygon fill="#bfbfbf" stroke="black" points="0,-0.5 0,-30.5 105,-30.5 105,-0.5 0,-0.5"/>
<text text-anchor="start" x="8" y="-18.5" font-family="Helvetica,sans-Serif" font-size="10.00">mom::post_diags_ts</text>
<text text-anchor="middle" x="52.5" y="-7.5" font-family="Helvetica,sans-Serif" font-size="10.00">_tendency</text>
</g>
<!-- Node100 -->
<g id="node2" class="node"><title>Node100</title>
<g id="a_node2"><a xlink:href="../../da/d01/namespacemom.html#a4c8332b095c6d295084089aa6b3b678a" target="_top" xlink:title="This subroutine orchestrates the time stepping of MOM. The adiabatic dynamics are stepped by calls to...">
<polygon fill="white" stroke="black" points="141,-6 141,-25 231,-25 231,-6 141,-6"/>
<text text-anchor="middle" x="186" y="-13" font-family="Helvetica,sans-Serif" font-size="10.00">mom::step_mom</text>
</a>
</g>
</g>
<!-- Node99&#45;&gt;Node100 -->
<g id="edge1" class="edge"><title>Node99&#45;&gt;Node100</title>
<path fill="none" stroke="midnightblue" d="M115.167,-15.5C123.815,-15.5 132.557,-15.5 140.792,-15.5"/>
<polygon fill="midnightblue" stroke="midnightblue" points="115.095,-12.0001 105.095,-15.5 115.095,-19.0001 115.095,-12.0001"/>
</g>
<!-- Node101 -->
<g id="node3" class="node"><title>Node101</title>
<g id="a_node3"><a xlink:href="../../de/dbc/MOM__driver_8F90.html#a08fffeb2d8e8acbf9ed4609be6d258c6" target="_top" xlink:title="mom_main">
<polygon fill="white" stroke="black" points="267,-6 267,-25 332,-25 332,-6 267,-6"/>
<text text-anchor="middle" x="299.5" y="-13" font-family="Helvetica,sans-Serif" font-size="10.00">mom_main</text>
</a>
</g>
</g>
<!-- Node100&#45;&gt;Node101 -->
<g id="edge2" class="edge"><title>Node100&#45;&gt;Node101</title>
<path fill="none" stroke="midnightblue" d="M241.26,-15.5C250.006,-15.5 258.8,-15.5 266.782,-15.5"/>
<polygon fill="midnightblue" stroke="midnightblue" points="241.068,-12.0001 231.068,-15.5 241.068,-19.0001 241.068,-12.0001"/>
</g>
</g>
</svg>
