<?xml version="1.0" encoding="UTF-8" standalone="no"?>
<!DOCTYPE svg PUBLIC "-//W3C//DTD SVG 1.1//EN"
 "http://www.w3.org/Graphics/SVG/1.1/DTD/svg11.dtd">
<!-- Generated by graphviz version 2.38.0 (20140413.2041)
 -->
<!-- Title: mom::unit_tests Pages: 1 -->
<svg width="339pt" height="28pt"
 viewBox="0.00 0.00 339.00 28.00" xmlns="http://www.w3.org/2000/svg" xmlns:xlink="http://www.w3.org/1999/xlink">
<g id="graph0" class="graph" transform="scale(1 1) rotate(0) translate(4 24)">
<title>mom::unit_tests</title>
<polygon fill="white" stroke="none" points="-4,4 -4,-24 335,-24 335,4 -4,4"/>
<!-- Node274 -->
<g id="node1" class="node"><title>Node274</title>
<polygon fill="#bfbfbf" stroke="black" points="0,-0.5 0,-19.5 87,-19.5 87,-0.5 0,-0.5"/>
<text text-anchor="middle" x="43.5" y="-7.5" font-family="Helvetica,sans-Serif" font-size="10.00">mom::unit_tests</text>
</g>
<!-- Node275 -->
<g id="node2" class="node"><title>Node275</title>
<g id="a_node2"><a xlink:href="../../da/d01/namespacemom.html#a0be2869fef30e1e0604facfe1b41555d" target="_top" xlink:title="This subroutine initializes MOM. ">
<polygon fill="white" stroke="black" points="123,-0.5 123,-19.5 230,-19.5 230,-0.5 123,-0.5"/>
<text text-anchor="middle" x="176.5" y="-7.5" font-family="Helvetica,sans-Serif" font-size="10.00">mom::initialize_mom</text>
</a>
</g>
</g>
<!-- Node274&#45;&gt;Node275 -->
<g id="edge1" class="edge"><title>Node274&#45;&gt;Node275</title>
<path fill="none" stroke="midnightblue" d="M97.1046,-10C105.515,-10 114.22,-10 122.636,-10"/>
<polygon fill="midnightblue" stroke="midnightblue" points="97.032,-6.5001 87.0319,-10 97.0319,-13.5001 97.032,-6.5001"/>
</g>
<!-- Node276 -->
<g id="node3" class="node"><title>Node276</title>
<g id="a_node3"><a xlink:href="../../de/dbc/MOM__driver_8F90.html#a08fffeb2d8e8acbf9ed4609be6d258c6" target="_top" xlink:title="mom_main">
<polygon fill="white" stroke="black" points="266,-0.5 266,-19.5 331,-19.5 331,-0.5 266,-0.5"/>
<text text-anchor="middle" x="298.5" y="-7.5" font-family="Helvetica,sans-Serif" font-size="10.00">mom_main</text>
</a>
</g>
</g>
<!-- Node275&#45;&gt;Node276 -->
<g id="edge2" class="edge"><title>Node275&#45;&gt;Node276</title>
<path fill="none" stroke="midnightblue" d="M240.206,-10C249.134,-10 257.983,-10 265.958,-10"/>
<polygon fill="midnightblue" stroke="midnightblue" points="240.134,-6.5001 230.134,-10 240.134,-13.5001 240.134,-6.5001"/>
</g>
</g>
</svg>
