<?xml version="1.0" encoding="UTF-8" standalone="no"?>
<!DOCTYPE svg PUBLIC "-//W3C//DTD SVG 1.1//EN"
 "http://www.w3.org/Graphics/SVG/1.1/DTD/svg11.dtd">
<!-- Generated by graphviz version 2.38.0 (20140413.2041)
 -->
<!-- Title: mom_ale_sponge::ale_sponge_cs Pages: 1 -->
<!--zoomable 285 -->
<svg id="main" version="1.1" xmlns="http://www.w3.org/2000/svg" xmlns:xlink="http://www.w3.org/1999/xlink" xml:space="preserve" onload="init(evt)">
<style type="text/css"><![CDATA[
.edge:hover path { stroke: red; }
.edge:hover polygon { stroke: red; fill: red; }
]]></style>
<script type="text/javascript"><![CDATA[
var edges = document.getElementsByTagName('g');
if (edges && edges.length) {
  for (var i=0;i<edges.length;i++) {
    if (edges[i].id.substr(0,4)=='edge') {
      edges[i].setAttribute('class','edge');
    }
  }
}
]]></script>
        <defs>
                <circle id="rim" cx="0" cy="0" r="7"/>
                <circle id="rim2" cx="0" cy="0" r="3.5"/>
                <g id="zoomPlus">
                        <use xlink:href="#rim" fill="#404040">
                                <set attributeName="fill" to="#808080" begin="zoomplus.mouseover" end="zoomplus.mouseout"/>
                        </use>
                        <path d="M-4,0h8M0,-4v8" fill="none" stroke="white" stroke-width="1.5" pointer-events="none"/>
                </g>
                <g id="zoomMin">
                        <use xlink:href="#rim" fill="#404040">
                                <set attributeName="fill" to="#808080" begin="zoomminus.mouseover" end="zoomminus.mouseout"/>
                        </use>
                        <path d="M-4,0h8" fill="none" stroke="white" stroke-width="1.5" pointer-events="none"/>
                </g>
                <g id="dirArrow">
                        <path fill="none" stroke="white" stroke-width="1.5" d="M0,-3.0v7 M-2.5,-0.5L0,-3.0L2.5,-0.5"/>
                </g>
               <g id="resetDef">
                       <use xlink:href="#rim2" fill="#404040">
                               <set attributeName="fill" to="#808080" begin="reset.mouseover" end="reset.mouseout"/>
                       </use>
               </g>
        </defs>

<script type="text/javascript">
var viewWidth = 583;
var viewHeight = 285;
var sectionId = 'dynsection-0';
</script>
<script xlink:href="../../svgpan.js"/>
<svg id="graph" class="graph">
<g id="viewport">
<title>mom_ale_sponge::ale_sponge_cs</title>
<polygon fill="white" stroke="none" points="-4,4 -4,-281 578.5,-281 578.5,4 -4,4"/>
<!-- Node1 -->
<g id="node1" class="node"><title>Node1</title>
<polygon fill="#bfbfbf" stroke="black" points="258.5,-0.5 258.5,-30.5 370.5,-30.5 370.5,-0.5 258.5,-0.5"/>
<text text-anchor="start" x="266.5" y="-18.5" font-family="Helvetica,sans-Serif" font-size="10.00">mom_ale_sponge::ale</text>
<text text-anchor="middle" x="314.5" y="-7.5" font-family="Helvetica,sans-Serif" font-size="10.00">_sponge_cs</text>
</g>
<!-- Node2 -->
<g id="node2" class="node"><title>Node2</title>
<polygon fill="white" stroke="#bfbfbf" points="0,-189.5 0,-208.5 77,-208.5 77,-189.5 0,-189.5"/>
<text text-anchor="middle" x="38.5" y="-196.5" font-family="Helvetica,sans-Serif" font-size="10.00">remapping_cs</text>
</g>
<!-- Node2&#45;&gt;Node1 -->
<g id="edge1" class="edge"><title>Node2&#45;&gt;Node1</title>
<path fill="none" stroke="#9a32cd" stroke-dasharray="5,2" d="M33.8755,-179.408C27.2603,-147.879 19.3618,-83.9518 53.5,-49 81.0586,-20.7846 190.273,-15.8497 258.391,-15.624"/>
<polygon fill="#9a32cd" stroke="#9a32cd" points="30.5299,-180.478 36.1744,-189.445 37.3532,-178.915 30.5299,-180.478"/>
<text text-anchor="middle" x="76.5" y="-107" font-family="Helvetica,sans-Serif" font-size="10.00"> remap_cs</text>
</g>
<!-- Node3 -->
<g id="node3" class="node"><title>Node3</title>
<g id="a_node3"><a xlink:href="../../d1/d5a/structmom__ale__sponge_1_1p2d.html" target="_top" xlink:title="mom_ale_sponge::p2d">
<polygon fill="white" stroke="black" points="191,-189.5 191,-208.5 306,-208.5 306,-189.5 191,-189.5"/>
<text text-anchor="middle" x="248.5" y="-196.5" font-family="Helvetica,sans-Serif" font-size="10.00">mom_ale_sponge::p2d</text>
</a>
</g>
</g>
<!-- Node3&#45;&gt;Node1 -->
<g id="edge2" class="edge"><title>Node3&#45;&gt;Node1</title>
<path fill="none" stroke="#9a32cd" stroke-dasharray="5,2" d="M255.242,-179.458C268.47,-143.084 297.558,-63.09 309.367,-30.6169"/>
<polygon fill="#9a32cd" stroke="#9a32cd" points="251.812,-178.652 251.683,-189.246 258.39,-181.044 251.812,-178.652"/>
<text text-anchor="middle" x="319" y="-107" font-family="Helvetica,sans-Serif" font-size="10.00"> ref_val</text>
</g>
<!-- Node4 -->
<g id="node4" class="node"><title>Node4</title>
<polygon fill="white" stroke="#bfbfbf" points="232.5,-257.5 232.5,-276.5 264.5,-276.5 264.5,-257.5 232.5,-257.5"/>
<text text-anchor="middle" x="248.5" y="-264.5" font-family="Helvetica,sans-Serif" font-size="10.00">real</text>
</g>
<!-- Node4&#45;&gt;Node1 -->
<g id="edge7" class="edge"><title>Node4&#45;&gt;Node1</title>
<path fill="none" stroke="#9a32cd" stroke-dasharray="5,2" d="M222.455,-261.856C180.514,-253.805 104.439,-232.758 122.5,-188 153.609,-110.908 240.868,-55.3065 286.262,-30.6636"/>
<polygon fill="#9a32cd" stroke="#9a32cd" points="221.842,-265.302 232.304,-263.63 223.083,-258.413 221.842,-265.302"/>
<text text-anchor="middle" x="152" y="-202" font-family="Helvetica,sans-Serif" font-size="10.00"> iresttime_col</text>
<text text-anchor="middle" x="152" y="-191" font-family="Helvetica,sans-Serif" font-size="10.00">ref_h</text>
</g>
<!-- Node4&#45;&gt;Node3 -->
<g id="edge3" class="edge"><title>Node4&#45;&gt;Node3</title>
<path fill="none" stroke="#9a32cd" stroke-dasharray="5,2" d="M248.5,-247.041C248.5,-234.472 248.5,-218.563 248.5,-208.841"/>
<polygon fill="#9a32cd" stroke="#9a32cd" points="245,-247.372 248.5,-257.372 252,-247.372 245,-247.372"/>
<text text-anchor="middle" x="253" y="-231" font-family="Helvetica,sans-Serif" font-size="10.00"> p</text>
</g>
<!-- Node5 -->
<g id="node5" class="node"><title>Node5</title>
<g id="a_node5"><a xlink:href="../../d4/d1b/structmom__ale__sponge_1_1p3d.html" target="_top" xlink:title="mom_ale_sponge::p3d">
<polygon fill="white" stroke="black" points="324,-189.5 324,-208.5 439,-208.5 439,-189.5 324,-189.5"/>
<text text-anchor="middle" x="381.5" y="-196.5" font-family="Helvetica,sans-Serif" font-size="10.00">mom_ale_sponge::p3d</text>
</a>
</g>
</g>
<!-- Node4&#45;&gt;Node5 -->
<g id="edge5" class="edge"><title>Node4&#45;&gt;Node5</title>
<path fill="none" stroke="#9a32cd" stroke-dasharray="5,2" d="M273.573,-253.558C300.032,-240.428 341.033,-220.081 364.136,-208.617"/>
<polygon fill="#9a32cd" stroke="#9a32cd" points="271.945,-250.458 264.543,-258.039 275.056,-256.729 271.945,-250.458"/>
<text text-anchor="middle" x="328" y="-231" font-family="Helvetica,sans-Serif" font-size="10.00"> p</text>
</g>
<!-- Node5&#45;&gt;Node1 -->
<g id="edge4" class="edge"><title>Node5&#45;&gt;Node1</title>
<path fill="none" stroke="#9a32cd" stroke-dasharray="5,2" d="M378.563,-179.162C373.512,-150.047 361.534,-92.8942 339.5,-49 336.243,-42.5107 331.612,-36.0331 327.22,-30.5881"/>
<polygon fill="#9a32cd" stroke="#9a32cd" points="375.135,-179.881 380.216,-189.178 382.041,-178.742 375.135,-179.881"/>
<text text-anchor="middle" x="386" y="-107" font-family="Helvetica,sans-Serif" font-size="10.00"> var</text>
</g>
<!-- Node6 -->
<g id="node6" class="node"><title>Node6</title>
<polygon fill="white" stroke="#bfbfbf" points="457,-189.5 457,-208.5 510,-208.5 510,-189.5 457,-189.5"/>
<text text-anchor="middle" x="483.5" y="-196.5" font-family="Helvetica,sans-Serif" font-size="10.00">diag_ctrl</text>
</g>
<!-- Node6&#45;&gt;Node1 -->
<g id="edge6" class="edge"><title>Node6&#45;&gt;Node1</title>
<path fill="none" stroke="#9a32cd" stroke-dasharray="5,2" d="M477.65,-179.705C466.842,-148.662 440.898,-85.4992 398.5,-49 389.494,-41.2467 378.431,-35.2325 367.328,-30.6082"/>
<polygon fill="#9a32cd" stroke="#9a32cd" points="474.351,-180.876 480.844,-189.249 480.989,-178.655 474.351,-180.876"/>
<text text-anchor="middle" x="485.5" y="-107" font-family="Helvetica,sans-Serif" font-size="10.00"> diag</text>
</g>
<!-- Node7 -->
<g id="node7" class="node"><title>Node7</title>
<polygon fill="white" stroke="#bfbfbf" points="528.5,-189.5 528.5,-208.5 574.5,-208.5 574.5,-189.5 528.5,-189.5"/>
<text text-anchor="middle" x="551.5" y="-196.5" font-family="Helvetica,sans-Serif" font-size="10.00">integer</text>
</g>
<!-- Node7&#45;&gt;Node1 -->
<g id="edge8" class="edge"><title>Node7&#45;&gt;Node1</title>
<path fill="none" stroke="#9a32cd" stroke-dasharray="5,2" d="M550.886,-179.074C548.759,-147.04 539.565,-82.3745 500.5,-49 481.371,-32.6576 418.309,-24.2286 370.877,-20.0986"/>
<polygon fill="#9a32cd" stroke="#9a32cd" points="547.401,-179.466 551.392,-189.28 554.393,-179.119 547.401,-179.466"/>
<text text-anchor="middle" x="561" y="-162" font-family="Helvetica,sans-Serif" font-size="10.00"> iec</text>
<text text-anchor="middle" x="561" y="-151" font-family="Helvetica,sans-Serif" font-size="10.00">ied</text>
<text text-anchor="middle" x="561" y="-140" font-family="Helvetica,sans-Serif" font-size="10.00">jec</text>
<text text-anchor="middle" x="561" y="-129" font-family="Helvetica,sans-Serif" font-size="10.00">jed</text>
<text text-anchor="middle" x="561" y="-118" font-family="Helvetica,sans-Serif" font-size="10.00">col_i</text>
<text text-anchor="middle" x="561" y="-107" font-family="Helvetica,sans-Serif" font-size="10.00">isc</text>
<text text-anchor="middle" x="561" y="-96" font-family="Helvetica,sans-Serif" font-size="10.00">col_j</text>
<text text-anchor="middle" x="561" y="-85" font-family="Helvetica,sans-Serif" font-size="10.00">isd</text>
<text text-anchor="middle" x="561" y="-74" font-family="Helvetica,sans-Serif" font-size="10.00">jsc</text>
<text text-anchor="middle" x="561" y="-63" font-family="Helvetica,sans-Serif" font-size="10.00">jsd</text>
<text text-anchor="middle" x="561" y="-52" font-family="Helvetica,sans-Serif" font-size="10.00">...</text>
</g>
</g>
</svg>
        <g id="navigator" transform="translate(0 0)" fill="#404254">
                <rect fill="#f2f5e9" fill-opacity="0.5" stroke="#606060" stroke-width=".5" x="0" y="0" width="60" height="60"/>
                <use id="zoomplus" xlink:href="#zoomPlus" x="17" y="9" onmousedown="handleZoom(evt,'in')"/>
                <use id="zoomminus" xlink:href="#zoomMin" x="42" y="9" onmousedown="handleZoom(evt,'out')"/>
                <use id="reset" xlink:href="#resetDef" x="30" y="36" onmousedown="handleReset()"/>
                <g id="arrowUp" xlink:href="#dirArrow" transform="translate(30 24)" onmousedown="handlePan(0,-1)">
                  <use xlink:href="#rim" fill="#404040">
                        <set attributeName="fill" to="#808080" begin="arrowUp.mouseover" end="arrowUp.mouseout"/>
                  </use>
                  <path fill="none" stroke="white" stroke-width="1.5" d="M0,-3.0v7 M-2.5,-0.5L0,-3.0L2.5,-0.5"/>
                </g>
                <g id="arrowRight" xlink:href="#dirArrow" transform="rotate(90) translate(36 -43)" onmousedown="handlePan(1,0)">
                  <use xlink:href="#rim" fill="#404040">
                        <set attributeName="fill" to="#808080" begin="arrowRight.mouseover" end="arrowRight.mouseout"/>
                  </use>
                  <path fill="none" stroke="white" stroke-width="1.5" d="M0,-3.0v7 M-2.5,-0.5L0,-3.0L2.5,-0.5"/>
                </g>
                <g id="arrowDown" xlink:href="#dirArrow" transform="rotate(180) translate(-30 -48)" onmousedown="handlePan(0,1)">
                  <use xlink:href="#rim" fill="#404040">
                        <set attributeName="fill" to="#808080" begin="arrowDown.mouseover" end="arrowDown.mouseout"/>
                  </use>
                  <path fill="none" stroke="white" stroke-width="1.5" d="M0,-3.0v7 M-2.5,-0.5L0,-3.0L2.5,-0.5"/>
                </g>
                <g id="arrowLeft" xlink:href="#dirArrow" transform="rotate(270) translate(-36 17)" onmousedown="handlePan(-1,0)">
                  <use xlink:href="#rim" fill="#404040">
                        <set attributeName="fill" to="#808080" begin="arrowLeft.mouseover" end="arrowLeft.mouseout"/>
                  </use>
                  <path fill="none" stroke="white" stroke-width="1.5" d="M0,-3.0v7 M-2.5,-0.5L0,-3.0L2.5,-0.5"/>
                </g>
        </g>
        <svg viewBox="0 0 15 15" width="100%" height="30px" preserveAspectRatio="xMaxYMin meet">
         <g id="arrow_out" transform="scale(0.3 0.3)">
          <a xlink:href="structmom__ale__sponge_1_1ale__sponge__cs__coll__graph_org.svg" target="_base">
           <rect id="button" ry="5" rx="5" y="6" x="6" height="38" width="38"
                fill="#f2f5e9" fill-opacity="0.5" stroke="#606060" stroke-width="1.0"/>
           <path id="arrow"
             d="M 11.500037,31.436501 C 11.940474,20.09759 22.043105,11.32322 32.158766,21.979434 L 37.068811,17.246167 C 37.068811,17.246167 37.088388,32 37.088388,32 L 22.160133,31.978069 C 22.160133,31.978069 26.997745,27.140456 26.997745,27.140456 C 18.528582,18.264221 13.291696,25.230495 11.500037,31.436501 z"
             style="fill:#404040;"/>
          </a>
         </g>
        </svg>
</svg>
