<?xml version="1.0" encoding="UTF-8" standalone="no"?>
<!DOCTYPE svg PUBLIC "-//W3C//DTD SVG 1.1//EN"
 "http://www.w3.org/Graphics/SVG/1.1/DTD/svg11.dtd">
<!-- Generated by graphviz version 2.38.0 (20140413.2041)
 -->
<!-- Title: mom_thickness_diffuse::thickness_diffuse_full Pages: 1 -->
<svg width="603pt" height="186pt"
 viewBox="0.00 0.00 603.00 186.00" xmlns="http://www.w3.org/2000/svg" xmlns:xlink="http://www.w3.org/1999/xlink">
<g id="graph0" class="graph" transform="scale(1 1) rotate(0) translate(4 182)">
<title>mom_thickness_diffuse::thickness_diffuse_full</title>
<polygon fill="white" stroke="none" points="-4,4 -4,-182 599,-182 599,4 -4,4"/>
<!-- Node24 -->
<g id="node1" class="node"><title>Node24</title>
<polygon fill="#bfbfbf" stroke="black" points="0,-48.5 0,-78.5 120,-78.5 120,-48.5 0,-48.5"/>
<text text-anchor="start" x="8" y="-66.5" font-family="Helvetica,sans-Serif" font-size="10.00">mom_thickness_diffuse</text>
<text text-anchor="middle" x="60" y="-55.5" font-family="Helvetica,sans-Serif" font-size="10.00">::thickness_diffuse_full</text>
</g>
<!-- Node25 -->
<g id="node2" class="node"><title>Node25</title>
<g id="a_node2"><a xlink:href="../../d1/d01/namespacemom__eos.html#a204529f8434a0322314e6ce2a9762436" target="_top" xlink:title="Calls the appropriate subroutine to calculate density derivatives for 1&#45;D array inputs. ">
<polygon fill="white" stroke="black" points="164,-73.5 164,-103.5 268,-103.5 268,-73.5 164,-73.5"/>
<text text-anchor="start" x="172" y="-91.5" font-family="Helvetica,sans-Serif" font-size="10.00">mom_eos::calculate</text>
<text text-anchor="middle" x="216" y="-80.5" font-family="Helvetica,sans-Serif" font-size="10.00">_density_derivs</text>
</a>
</g>
</g>
<!-- Node24&#45;&gt;Node25 -->
<g id="edge1" class="edge"><title>Node24&#45;&gt;Node25</title>
<path fill="none" stroke="midnightblue" d="M120.1,-73.0942C131.14,-74.8864 142.7,-76.763 153.802,-78.5652"/>
<polygon fill="midnightblue" stroke="midnightblue" points="153.409,-82.0472 163.841,-80.1949 154.531,-75.1376 153.409,-82.0472"/>
</g>
<!-- Node31 -->
<g id="node8" class="node"><title>Node31</title>
<g id="a_node8"><a xlink:href="../../d1/d75/namespacemom__thickness__diffuse.html#aff6aa879773518e476ed0a603a1a301e" target="_top" xlink:title="Fills tracer values in massless layers with sensible values by diffusing vertically with a (small) co...">
<polygon fill="white" stroke="black" points="156,-24.5 156,-54.5 276,-54.5 276,-24.5 156,-24.5"/>
<text text-anchor="start" x="164" y="-42.5" font-family="Helvetica,sans-Serif" font-size="10.00">mom_thickness_diffuse</text>
<text text-anchor="middle" x="216" y="-31.5" font-family="Helvetica,sans-Serif" font-size="10.00">::vert_fill_ts</text>
</a>
</g>
</g>
<!-- Node24&#45;&gt;Node31 -->
<g id="edge7" class="edge"><title>Node24&#45;&gt;Node31</title>
<path fill="none" stroke="midnightblue" d="M120.1,-54.2896C128.513,-52.9785 137.228,-51.6203 145.813,-50.2825"/>
<polygon fill="midnightblue" stroke="midnightblue" points="146.462,-53.7236 155.804,-48.7254 145.384,-46.8071 146.462,-53.7236"/>
</g>
<!-- Node26 -->
<g id="node3" class="node"><title>Node26</title>
<g id="a_node3"><a xlink:href="../../d5/de6/namespacemom__eos__linear.html#a73d8a625582247379092adf1aeeb55e0" target="_top" xlink:title="mom_eos_linear::calculate\l_density_derivs_linear">
<polygon fill="white" stroke="black" points="316,-147.5 316,-177.5 449,-177.5 449,-147.5 316,-147.5"/>
<text text-anchor="start" x="324" y="-165.5" font-family="Helvetica,sans-Serif" font-size="10.00">mom_eos_linear::calculate</text>
<text text-anchor="middle" x="382.5" y="-154.5" font-family="Helvetica,sans-Serif" font-size="10.00">_density_derivs_linear</text>
</a>
</g>
</g>
<!-- Node25&#45;&gt;Node26 -->
<g id="edge2" class="edge"><title>Node25&#45;&gt;Node26</title>
<path fill="none" stroke="midnightblue" d="M243.09,-103.61C261.887,-114.153 288.054,-128.135 312,-138.5 316.313,-140.367 320.822,-142.193 325.382,-143.951"/>
<polygon fill="midnightblue" stroke="midnightblue" points="324.176,-147.237 334.768,-147.458 326.625,-140.679 324.176,-147.237"/>
</g>
<!-- Node27 -->
<g id="node4" class="node"><title>Node27</title>
<g id="a_node4"><a xlink:href="../../dd/d6b/namespacemom__eos__unesco.html#af8666837abadea54c016bf59838f96cc" target="_top" xlink:title="mom_eos_unesco::calculate\l_density_derivs_unesco">
<polygon fill="white" stroke="black" points="312,-98.5 312,-128.5 453,-128.5 453,-98.5 312,-98.5"/>
<text text-anchor="start" x="320" y="-116.5" font-family="Helvetica,sans-Serif" font-size="10.00">mom_eos_unesco::calculate</text>
<text text-anchor="middle" x="382.5" y="-105.5" font-family="Helvetica,sans-Serif" font-size="10.00">_density_derivs_unesco</text>
</a>
</g>
</g>
<!-- Node25&#45;&gt;Node27 -->
<g id="edge3" class="edge"><title>Node25&#45;&gt;Node27</title>
<path fill="none" stroke="midnightblue" d="M268.147,-96.2731C278.87,-97.9028 290.421,-99.6582 301.902,-101.403"/>
<polygon fill="midnightblue" stroke="midnightblue" points="301.539,-104.888 311.951,-102.93 302.591,-97.9674 301.539,-104.888"/>
</g>
<!-- Node28 -->
<g id="node5" class="node"><title>Node28</title>
<g id="a_node5"><a xlink:href="../../de/d76/namespacemom__eos__wright.html#ad7748e85ddacb33ad90ec3a9017e6e72" target="_top" xlink:title="mom_eos_wright::calculate\l_density_derivs_wright">
<polygon fill="white" stroke="black" points="314.5,-49.5 314.5,-79.5 450.5,-79.5 450.5,-49.5 314.5,-49.5"/>
<text text-anchor="start" x="322.5" y="-67.5" font-family="Helvetica,sans-Serif" font-size="10.00">mom_eos_wright::calculate</text>
<text text-anchor="middle" x="382.5" y="-56.5" font-family="Helvetica,sans-Serif" font-size="10.00">_density_derivs_wright</text>
</a>
</g>
</g>
<!-- Node25&#45;&gt;Node28 -->
<g id="edge4" class="edge"><title>Node25&#45;&gt;Node28</title>
<path fill="none" stroke="midnightblue" d="M268.147,-81.0378C279.568,-79.3715 291.927,-77.5683 304.142,-75.7862"/>
<polygon fill="midnightblue" stroke="midnightblue" points="304.955,-79.2048 314.345,-74.2977 303.944,-72.2781 304.955,-79.2048"/>
</g>
<!-- Node29 -->
<g id="node6" class="node"><title>Node29</title>
<g id="a_node6"><a xlink:href="../../d0/de6/namespacemom__error__handler.html#a460cfb79a06c29fc249952c2a3710d67" target="_top" xlink:title="mom_error_handler::\lmom_error">
<polygon fill="white" stroke="black" points="329.5,-0.5 329.5,-30.5 435.5,-30.5 435.5,-0.5 329.5,-0.5"/>
<text text-anchor="start" x="337.5" y="-18.5" font-family="Helvetica,sans-Serif" font-size="10.00">mom_error_handler::</text>
<text text-anchor="middle" x="382.5" y="-7.5" font-family="Helvetica,sans-Serif" font-size="10.00">mom_error</text>
</a>
</g>
</g>
<!-- Node25&#45;&gt;Node29 -->
<g id="edge5" class="edge"><title>Node25&#45;&gt;Node29</title>
<path fill="none" stroke="midnightblue" d="M257.171,-73.4351C263.569,-70.6733 270.039,-67.6577 276,-64.5 292.992,-55.4981 294.826,-49.1514 312,-40.5 316.284,-38.342 320.799,-36.2809 325.388,-34.3345"/>
<polygon fill="midnightblue" stroke="midnightblue" points="326.898,-37.4991 334.857,-30.5058 324.275,-31.0094 326.898,-37.4991"/>
</g>
<!-- Node30 -->
<g id="node7" class="node"><title>Node30</title>
<g id="a_node7"><a xlink:href="../../d0/de6/namespacemom__error__handler.html#ad5f00a53059c72fe2332d1436c80ca71" target="_top" xlink:title="mom_error_handler::\lis_root_pe">
<polygon fill="white" stroke="black" points="489,-0.5 489,-30.5 595,-30.5 595,-0.5 489,-0.5"/>
<text text-anchor="start" x="497" y="-18.5" font-family="Helvetica,sans-Serif" font-size="10.00">mom_error_handler::</text>
<text text-anchor="middle" x="542" y="-7.5" font-family="Helvetica,sans-Serif" font-size="10.00">is_root_pe</text>
</a>
</g>
</g>
<!-- Node29&#45;&gt;Node30 -->
<g id="edge6" class="edge"><title>Node29&#45;&gt;Node30</title>
<path fill="none" stroke="midnightblue" d="M435.508,-15.5C449.279,-15.5 464.289,-15.5 478.552,-15.5"/>
<polygon fill="midnightblue" stroke="midnightblue" points="478.778,-19.0001 488.778,-15.5 478.778,-12.0001 478.778,-19.0001"/>
</g>
</g>
</svg>
