<?xml version="1.0" encoding="UTF-8" standalone="no"?>
<!DOCTYPE svg PUBLIC "-//W3C//DTD SVG 1.1//EN"
 "http://www.w3.org/Graphics/SVG/1.1/DTD/svg11.dtd">
<!-- Generated by graphviz version 2.38.0 (20140413.2041)
 -->
<!-- Title: mom_energetic_pbl::energetic_pbl_cs Pages: 1 -->
<svg width="385pt" height="238pt"
 viewBox="0.00 0.00 385.00 238.00" xmlns="http://www.w3.org/2000/svg" xmlns:xlink="http://www.w3.org/1999/xlink">
<g id="graph0" class="graph" transform="scale(1 1) rotate(0) translate(4 234)">
<title>mom_energetic_pbl::energetic_pbl_cs</title>
<polygon fill="white" stroke="none" points="-4,4 -4,-234 381,-234 381,4 -4,4"/>
<!-- Node1 -->
<g id="node1" class="node"><title>Node1</title>
<polygon fill="#bfbfbf" stroke="black" points="119,-0.5 119,-30.5 211,-30.5 211,-0.5 119,-0.5"/>
<text text-anchor="start" x="127" y="-18.5" font-family="Helvetica,sans-Serif" font-size="10.00">mom_energetic_pbl::</text>
<text text-anchor="middle" x="165" y="-7.5" font-family="Helvetica,sans-Serif" font-size="10.00">energetic_pbl_cs</text>
</g>
<!-- Node2 -->
<g id="node2" class="node"><title>Node2</title>
<polygon fill="white" stroke="#bfbfbf" points="0,-210.5 0,-229.5 38,-229.5 38,-210.5 0,-210.5"/>
<text text-anchor="middle" x="19" y="-217.5" font-family="Helvetica,sans-Serif" font-size="10.00">logical</text>
</g>
<!-- Node2&#45;&gt;Node1 -->
<g id="edge1" class="edge"><title>Node2&#45;&gt;Node1</title>
<path fill="none" stroke="#9a32cd" stroke-dasharray="5,2" d="M13.7805,-200.244C5.45135,-165.862 -6.4434,-92.3037 30,-49 41.4479,-35.3971 84.5204,-26.6803 118.975,-21.7349"/>
<polygon fill="#9a32cd" stroke="#9a32cd" points="10.4914,-201.503 16.3935,-210.302 17.2665,-199.743 10.4914,-201.503"/>
<text text-anchor="middle" x="64.5" y="-129" font-family="Helvetica,sans-Serif" font-size="10.00"> mixing_diagnostics</text>
<text text-anchor="middle" x="64.5" y="-118" font-family="Helvetica,sans-Serif" font-size="10.00">use_mld_iteration</text>
<text text-anchor="middle" x="64.5" y="-107" font-family="Helvetica,sans-Serif" font-size="10.00">tke_diagnostics</text>
</g>
<!-- Node3 -->
<g id="node3" class="node"><title>Node3</title>
<polygon fill="white" stroke="#bfbfbf" points="72.5,-210.5 72.5,-229.5 123.5,-229.5 123.5,-210.5 72.5,-210.5"/>
<text text-anchor="middle" x="98" y="-217.5" font-family="Helvetica,sans-Serif" font-size="10.00">time_type</text>
</g>
<!-- Node3&#45;&gt;Node1 -->
<g id="edge2" class="edge"><title>Node3&#45;&gt;Node1</title>
<path fill="none" stroke="#9a32cd" stroke-dasharray="5,2" d="M100.89,-199.949C106.241,-167.745 119.356,-100.976 143,-49 145.878,-42.674 149.955,-36.2295 153.819,-30.7653"/>
<polygon fill="#9a32cd" stroke="#9a32cd" points="97.3808,-199.733 99.2652,-210.159 104.294,-200.833 97.3808,-199.733"/>
<text text-anchor="middle" x="152" y="-118" font-family="Helvetica,sans-Serif" font-size="10.00"> time</text>
</g>
<!-- Node4 -->
<g id="node4" class="node"><title>Node4</title>
<polygon fill="white" stroke="#bfbfbf" points="141.5,-210.5 141.5,-229.5 188.5,-229.5 188.5,-210.5 141.5,-210.5"/>
<text text-anchor="middle" x="165" y="-217.5" font-family="Helvetica,sans-Serif" font-size="10.00">diag_ctrl</text>
</g>
<!-- Node4&#45;&gt;Node1 -->
<g id="edge3" class="edge"><title>Node4&#45;&gt;Node1</title>
<path fill="none" stroke="#9a32cd" stroke-dasharray="5,2" d="M165,-200.287C165,-160.16 165,-66.581 165,-30.7797"/>
<polygon fill="#9a32cd" stroke="#9a32cd" points="161.5,-200.299 165,-210.299 168.5,-200.299 161.5,-200.299"/>
<text text-anchor="middle" x="174" y="-118" font-family="Helvetica,sans-Serif" font-size="10.00"> diag</text>
</g>
<!-- Node5 -->
<g id="node5" class="node"><title>Node5</title>
<polygon fill="white" stroke="#bfbfbf" points="206.5,-210.5 206.5,-229.5 247.5,-229.5 247.5,-210.5 206.5,-210.5"/>
<text text-anchor="middle" x="227" y="-217.5" font-family="Helvetica,sans-Serif" font-size="10.00">integer</text>
</g>
<!-- Node5&#45;&gt;Node1 -->
<g id="edge4" class="edge"><title>Node5&#45;&gt;Node1</title>
<path fill="none" stroke="#9a32cd" stroke-dasharray="5,2" d="M219.749,-200.529C218.756,-197.695 217.803,-194.786 217,-192 199.007,-129.603 212.344,-108.789 187,-49 184.288,-42.6013 180.244,-36.1421 176.361,-30.6865"/>
<polygon fill="#9a32cd" stroke="#9a32cd" points="216.55,-201.969 223.33,-210.111 223.108,-199.518 216.55,-201.969"/>
<text text-anchor="middle" x="252.5" y="-173" font-family="Helvetica,sans-Serif" font-size="10.00"> id_tke_mke</text>
<text text-anchor="middle" x="252.5" y="-162" font-family="Helvetica,sans-Serif" font-size="10.00">id_tke_conv_decay</text>
<text text-anchor="middle" x="252.5" y="-151" font-family="Helvetica,sans-Serif" font-size="10.00">id_mixing_length</text>
<text text-anchor="middle" x="252.5" y="-140" font-family="Helvetica,sans-Serif" font-size="10.00">id_tke_wind</text>
<text text-anchor="middle" x="252.5" y="-129" font-family="Helvetica,sans-Serif" font-size="10.00">id_tke_mech_decay</text>
<text text-anchor="middle" x="252.5" y="-118" font-family="Helvetica,sans-Serif" font-size="10.00">id_tke_conv</text>
<text text-anchor="middle" x="252.5" y="-107" font-family="Helvetica,sans-Serif" font-size="10.00">id_velocity_scale</text>
<text text-anchor="middle" x="252.5" y="-96" font-family="Helvetica,sans-Serif" font-size="10.00">id_ml_depth</text>
<text text-anchor="middle" x="252.5" y="-85" font-family="Helvetica,sans-Serif" font-size="10.00">id_hsfc_used</text>
<text text-anchor="middle" x="252.5" y="-74" font-family="Helvetica,sans-Serif" font-size="10.00">id_tke_forcing</text>
<text text-anchor="middle" x="252.5" y="-63" font-family="Helvetica,sans-Serif" font-size="10.00">...</text>
</g>
<!-- Node6 -->
<g id="node6" class="node"><title>Node6</title>
<polygon fill="white" stroke="#bfbfbf" points="295,-210.5 295,-229.5 325,-229.5 325,-210.5 295,-210.5"/>
<text text-anchor="middle" x="310" y="-217.5" font-family="Helvetica,sans-Serif" font-size="10.00">real</text>
</g>
<!-- Node6&#45;&gt;Node1 -->
<g id="edge5" class="edge"><title>Node6&#45;&gt;Node1</title>
<path fill="none" stroke="#9a32cd" stroke-dasharray="5,2" d="M313.687,-200.147C319.268,-165.604 325.578,-91.794 288,-49 277.762,-37.3409 241.713,-28.69 211.268,-23.2573"/>
<polygon fill="#9a32cd" stroke="#9a32cd" points="310.195,-199.795 311.887,-210.254 317.086,-201.023 310.195,-199.795"/>
<text text-anchor="middle" x="347" y="-184" font-family="Helvetica,sans-Serif" font-size="10.00"> diag_tke_mixing</text>
<text text-anchor="middle" x="347" y="-173" font-family="Helvetica,sans-Serif" font-size="10.00">diag_tke_mke</text>
<text text-anchor="middle" x="347" y="-162" font-family="Helvetica,sans-Serif" font-size="10.00">diag_tke_conv</text>
<text text-anchor="middle" x="347" y="-151" font-family="Helvetica,sans-Serif" font-size="10.00">ml_depth</text>
<text text-anchor="middle" x="347" y="-140" font-family="Helvetica,sans-Serif" font-size="10.00">tke_decay</text>
<text text-anchor="middle" x="347" y="-129" font-family="Helvetica,sans-Serif" font-size="10.00">velocity_scale</text>
<text text-anchor="middle" x="347" y="-118" font-family="Helvetica,sans-Serif" font-size="10.00">mstar</text>
<text text-anchor="start" x="317" y="-107" font-family="Helvetica,sans-Serif" font-size="10.00">diag_tke_mech</text>
<text text-anchor="middle" x="347" y="-96" font-family="Helvetica,sans-Serif" font-size="10.00">_decay</text>
<text text-anchor="middle" x="347" y="-85" font-family="Helvetica,sans-Serif" font-size="10.00">nstar</text>
<text text-anchor="start" x="317" y="-74" font-family="Helvetica,sans-Serif" font-size="10.00">ekman_scale</text>
<text text-anchor="middle" x="347" y="-63" font-family="Helvetica,sans-Serif" font-size="10.00">_coef</text>
<text text-anchor="middle" x="347" y="-52" font-family="Helvetica,sans-Serif" font-size="10.00">...</text>
</g>
</g>
</svg>
