<?xml version="1.0" encoding="UTF-8" standalone="no"?>
<!DOCTYPE svg PUBLIC "-//W3C//DTD SVG 1.1//EN"
 "http://www.w3.org/Graphics/SVG/1.1/DTD/svg11.dtd">
<!-- Generated by graphviz version 2.38.0 (20140413.2041)
 -->
<!-- Title: mom_set_visc::set_viscous_ml Pages: 1 -->
<svg width="652pt" height="254pt"
 viewBox="0.00 0.00 652.00 253.50" xmlns="http://www.w3.org/2000/svg" xmlns:xlink="http://www.w3.org/1999/xlink">
<g id="graph0" class="graph" transform="scale(1 1) rotate(0) translate(4 249.5)">
<title>mom_set_visc::set_viscous_ml</title>
<polygon fill="white" stroke="none" points="-4,4 -4,-249.5 648,-249.5 648,4 -4,4"/>
<!-- Node46 -->
<g id="node1" class="node"><title>Node46</title>
<polygon fill="#bfbfbf" stroke="black" points="0,-57.5 0,-76.5 155,-76.5 155,-57.5 0,-57.5"/>
<text text-anchor="middle" x="77.5" y="-64.5" font-family="Helvetica,sans-Serif" font-size="10.00">mom_set_visc::set_viscous_ml</text>
</g>
<!-- Node47 -->
<g id="node2" class="node"><title>Node47</title>
<g id="a_node2"><a xlink:href="../../d1/d01/namespacemom__eos.html#a204529f8434a0322314e6ce2a9762436" target="_top" xlink:title="Calls the appropriate subroutine to calculate density derivatives for 1&#45;D array inputs. ">
<polygon fill="white" stroke="black" points="206,-117 206,-147 310,-147 310,-117 206,-117"/>
<text text-anchor="start" x="214" y="-135" font-family="Helvetica,sans-Serif" font-size="10.00">mom_eos::calculate</text>
<text text-anchor="middle" x="258" y="-124" font-family="Helvetica,sans-Serif" font-size="10.00">_density_derivs</text>
</a>
</g>
</g>
<!-- Node46&#45;&gt;Node47 -->
<g id="edge1" class="edge"><title>Node46&#45;&gt;Node47</title>
<path fill="none" stroke="midnightblue" d="M104.838,-76.591C131.406,-86.2655 173.107,-101.451 206.14,-113.479"/>
<polygon fill="midnightblue" stroke="midnightblue" points="205.051,-116.808 215.645,-116.941 207.447,-110.23 205.051,-116.808"/>
</g>
<!-- Node51 -->
<g id="node6" class="node"><title>Node51</title>
<g id="a_node6"><a xlink:href="../../d0/de6/namespacemom__error__handler.html#a460cfb79a06c29fc249952c2a3710d67" target="_top" xlink:title="mom_error_handler::\lmom_error">
<polygon fill="white" stroke="black" points="378.5,-68 378.5,-98 484.5,-98 484.5,-68 378.5,-68"/>
<text text-anchor="start" x="386.5" y="-86" font-family="Helvetica,sans-Serif" font-size="10.00">mom_error_handler::</text>
<text text-anchor="middle" x="431.5" y="-75" font-family="Helvetica,sans-Serif" font-size="10.00">mom_error</text>
</a>
</g>
</g>
<!-- Node46&#45;&gt;Node51 -->
<g id="edge7" class="edge"><title>Node46&#45;&gt;Node51</title>
<path fill="none" stroke="midnightblue" d="M155.313,-70.4915C219.183,-73.3947 308.928,-77.474 368.347,-80.1748"/>
<polygon fill="midnightblue" stroke="midnightblue" points="368.195,-83.6715 378.344,-80.6293 368.513,-76.6787 368.195,-83.6715"/>
</g>
<!-- Node53 -->
<g id="node8" class="node"><title>Node53</title>
<g id="a_node8"><a xlink:href="../../d6/d5d/namespacemom__set__visc.html#a08eb74fc6d027dd5ac6701f90e009370" target="_top" xlink:title="mom_set_visc::set_u_at_v">
<polygon fill="white" stroke="black" points="191,-38.5 191,-57.5 325,-57.5 325,-38.5 191,-38.5"/>
<text text-anchor="middle" x="258" y="-45.5" font-family="Helvetica,sans-Serif" font-size="10.00">mom_set_visc::set_u_at_v</text>
</a>
</g>
</g>
<!-- Node46&#45;&gt;Node53 -->
<g id="edge8" class="edge"><title>Node46&#45;&gt;Node53</title>
<path fill="none" stroke="midnightblue" d="M155.236,-58.832C163.7,-57.9311 172.318,-57.0138 180.776,-56.1135"/>
<polygon fill="midnightblue" stroke="midnightblue" points="181.419,-59.5648 190.993,-55.026 180.679,-52.6042 181.419,-59.5648"/>
</g>
<!-- Node54 -->
<g id="node9" class="node"><title>Node54</title>
<g id="a_node9"><a xlink:href="../../d6/d5d/namespacemom__set__visc.html#a992756b5043feccdafd9580774373375" target="_top" xlink:title="mom_set_visc::set_v_at_u">
<polygon fill="white" stroke="black" points="191,-0.5 191,-19.5 325,-19.5 325,-0.5 191,-0.5"/>
<text text-anchor="middle" x="258" y="-7.5" font-family="Helvetica,sans-Serif" font-size="10.00">mom_set_visc::set_v_at_u</text>
</a>
</g>
</g>
<!-- Node46&#45;&gt;Node54 -->
<g id="edge9" class="edge"><title>Node46&#45;&gt;Node54</title>
<path fill="none" stroke="midnightblue" d="M105.666,-57.4377C128.382,-49.5352 161.683,-38.1661 191,-29 198.042,-26.7984 205.535,-24.5511 212.85,-22.4088"/>
<polygon fill="midnightblue" stroke="midnightblue" points="214.026,-25.7122 222.656,-19.5668 212.077,-18.9889 214.026,-25.7122"/>
</g>
<!-- Node48 -->
<g id="node3" class="node"><title>Node48</title>
<g id="a_node3"><a xlink:href="../../d5/de6/namespacemom__eos__linear.html#a73d8a625582247379092adf1aeeb55e0" target="_top" xlink:title="mom_eos_linear::calculate\l_density_derivs_linear">
<polygon fill="white" stroke="black" points="365,-215 365,-245 498,-245 498,-215 365,-215"/>
<text text-anchor="start" x="373" y="-233" font-family="Helvetica,sans-Serif" font-size="10.00">mom_eos_linear::calculate</text>
<text text-anchor="middle" x="431.5" y="-222" font-family="Helvetica,sans-Serif" font-size="10.00">_density_derivs_linear</text>
</a>
</g>
</g>
<!-- Node47&#45;&gt;Node48 -->
<g id="edge2" class="edge"><title>Node47&#45;&gt;Node48</title>
<path fill="none" stroke="midnightblue" d="M276.365,-147.084C295.864,-163.406 328.982,-189.328 361,-206 364.467,-207.805 368.1,-209.522 371.808,-211.146"/>
<polygon fill="midnightblue" stroke="midnightblue" points="370.552,-214.414 381.132,-214.988 373.219,-207.942 370.552,-214.414"/>
</g>
<!-- Node49 -->
<g id="node4" class="node"><title>Node49</title>
<g id="a_node4"><a xlink:href="../../dd/d6b/namespacemom__eos__unesco.html#af8666837abadea54c016bf59838f96cc" target="_top" xlink:title="mom_eos_unesco::calculate\l_density_derivs_unesco">
<polygon fill="white" stroke="black" points="361,-166 361,-196 502,-196 502,-166 361,-166"/>
<text text-anchor="start" x="369" y="-184" font-family="Helvetica,sans-Serif" font-size="10.00">mom_eos_unesco::calculate</text>
<text text-anchor="middle" x="431.5" y="-173" font-family="Helvetica,sans-Serif" font-size="10.00">_density_derivs_unesco</text>
</a>
</g>
</g>
<!-- Node47&#45;&gt;Node49 -->
<g id="edge3" class="edge"><title>Node47&#45;&gt;Node49</title>
<path fill="none" stroke="midnightblue" d="M310.456,-146.702C328.604,-151.887 349.206,-157.773 368.156,-163.187"/>
<polygon fill="midnightblue" stroke="midnightblue" points="367.317,-166.588 377.893,-165.97 369.24,-159.857 367.317,-166.588"/>
</g>
<!-- Node50 -->
<g id="node5" class="node"><title>Node50</title>
<g id="a_node5"><a xlink:href="../../de/d76/namespacemom__eos__wright.html#ad7748e85ddacb33ad90ec3a9017e6e72" target="_top" xlink:title="mom_eos_wright::calculate\l_density_derivs_wright">
<polygon fill="white" stroke="black" points="363.5,-117 363.5,-147 499.5,-147 499.5,-117 363.5,-117"/>
<text text-anchor="start" x="371.5" y="-135" font-family="Helvetica,sans-Serif" font-size="10.00">mom_eos_wright::calculate</text>
<text text-anchor="middle" x="431.5" y="-124" font-family="Helvetica,sans-Serif" font-size="10.00">_density_derivs_wright</text>
</a>
</g>
</g>
<!-- Node47&#45;&gt;Node50 -->
<g id="edge4" class="edge"><title>Node47&#45;&gt;Node50</title>
<path fill="none" stroke="midnightblue" d="M310.456,-132C323.794,-132 338.458,-132 352.817,-132"/>
<polygon fill="midnightblue" stroke="midnightblue" points="353.196,-135.5 363.196,-132 353.195,-128.5 353.196,-135.5"/>
</g>
<!-- Node47&#45;&gt;Node51 -->
<g id="edge5" class="edge"><title>Node47&#45;&gt;Node51</title>
<path fill="none" stroke="midnightblue" d="M310.456,-117.298C328.772,-112.065 349.587,-106.118 368.682,-100.662"/>
<polygon fill="midnightblue" stroke="midnightblue" points="369.834,-103.973 378.488,-97.8606 367.911,-97.2425 369.834,-103.973"/>
</g>
<!-- Node52 -->
<g id="node7" class="node"><title>Node52</title>
<g id="a_node7"><a xlink:href="../../d0/de6/namespacemom__error__handler.html#ad5f00a53059c72fe2332d1436c80ca71" target="_top" xlink:title="mom_error_handler::\lis_root_pe">
<polygon fill="white" stroke="black" points="538,-68 538,-98 644,-98 644,-68 538,-68"/>
<text text-anchor="start" x="546" y="-86" font-family="Helvetica,sans-Serif" font-size="10.00">mom_error_handler::</text>
<text text-anchor="middle" x="591" y="-75" font-family="Helvetica,sans-Serif" font-size="10.00">is_root_pe</text>
</a>
</g>
</g>
<!-- Node51&#45;&gt;Node52 -->
<g id="edge6" class="edge"><title>Node51&#45;&gt;Node52</title>
<path fill="none" stroke="midnightblue" d="M484.508,-83C498.279,-83 513.289,-83 527.552,-83"/>
<polygon fill="midnightblue" stroke="midnightblue" points="527.778,-86.5001 537.778,-83 527.778,-79.5001 527.778,-86.5001"/>
</g>
</g>
</svg>
