<?xml version="1.0" encoding="UTF-8" standalone="no"?>
<!DOCTYPE svg PUBLIC "-//W3C//DTD SVG 1.1//EN"
 "http://www.w3.org/Graphics/SVG/1.1/DTD/svg11.dtd">
<!-- Generated by graphviz version 2.38.0 (20140413.2041)
 -->
<!-- Title: mom_diag_to_z::register_z_tracer Pages: 1 -->
<svg width="259pt" height="462pt"
 viewBox="0.00 0.00 259.00 461.50" xmlns="http://www.w3.org/2000/svg" xmlns:xlink="http://www.w3.org/1999/xlink">
<g id="graph0" class="graph" transform="scale(1 1) rotate(0) translate(4 457.5)">
<title>mom_diag_to_z::register_z_tracer</title>
<polygon fill="white" stroke="none" points="-4,4 -4,-457.5 255,-457.5 255,4 -4,4"/>
<!-- Node84 -->
<g id="node1" class="node"><title>Node84</title>
<polygon fill="#bfbfbf" stroke="black" points="0,-206.5 0,-236.5 105,-236.5 105,-206.5 0,-206.5"/>
<text text-anchor="start" x="8" y="-224.5" font-family="Helvetica,sans-Serif" font-size="10.00">mom_diag_to_z::register</text>
<text text-anchor="middle" x="52.5" y="-213.5" font-family="Helvetica,sans-Serif" font-size="10.00">_z_tracer</text>
</g>
<!-- Node85 -->
<g id="node2" class="node"><title>Node85</title>
<g id="a_node2"><a xlink:href="../../d8/dc2/namespaceadvection__test__tracer.html#adad96933565e1ee601662052ad3f6943" target="_top" xlink:title="advection_test_tracer\l::initialize_advection\l_test_tracer">
<polygon fill="white" stroke="black" points="149.5,-412 149.5,-453 242.5,-453 242.5,-412 149.5,-412"/>
<text text-anchor="start" x="157.5" y="-441" font-family="Helvetica,sans-Serif" font-size="10.00">advection_test_tracer</text>
<text text-anchor="start" x="157.5" y="-430" font-family="Helvetica,sans-Serif" font-size="10.00">::initialize_advection</text>
<text text-anchor="middle" x="196" y="-419" font-family="Helvetica,sans-Serif" font-size="10.00">_test_tracer</text>
</a>
</g>
</g>
<!-- Node84&#45;&gt;Node85 -->
<g id="edge1" class="edge"><title>Node84&#45;&gt;Node85</title>
<path fill="none" stroke="midnightblue" d="M60.0043,-246.263C71.0513,-284.203 96.7036,-357.178 141,-403.5 143.942,-406.576 147.283,-409.399 150.826,-411.973"/>
<polygon fill="midnightblue" stroke="midnightblue" points="63.3475,-245.222 57.2724,-236.542 56.6086,-247.116 63.3475,-245.222"/>
</g>
<!-- Node86 -->
<g id="node3" class="node"><title>Node86</title>
<g id="a_node3"><a xlink:href="../../d2/d4c/namespacedome__tracer.html#acbbc86d4dbc4997c0cd55aa498d2c668" target="_top" xlink:title="dome_tracer::initialize\l_dome_tracer">
<polygon fill="white" stroke="black" points="149,-363.5 149,-393.5 243,-393.5 243,-363.5 149,-363.5"/>
<text text-anchor="start" x="157" y="-381.5" font-family="Helvetica,sans-Serif" font-size="10.00">dome_tracer::initialize</text>
<text text-anchor="middle" x="196" y="-370.5" font-family="Helvetica,sans-Serif" font-size="10.00">_dome_tracer</text>
</a>
</g>
</g>
<!-- Node84&#45;&gt;Node86 -->
<g id="edge2" class="edge"><title>Node84&#45;&gt;Node86</title>
<path fill="none" stroke="midnightblue" d="M64.1863,-245.791C78.1196,-275.024 105.022,-323.977 141,-354.5 144.99,-357.885 149.533,-360.874 154.251,-363.49"/>
<polygon fill="midnightblue" stroke="midnightblue" points="67.3469,-244.287 59.9639,-236.688 60.9968,-247.232 67.3469,-244.287"/>
</g>
<!-- Node87 -->
<g id="node4" class="node"><title>Node87</title>
<g id="a_node4"><a xlink:href="../../de/def/namespaceregional__dyes.html#aeef37afe2f348fc7d94fe977d74d6d0b" target="_top" xlink:title="regional_dyes::initialize\l_dye_tracer">
<polygon fill="white" stroke="black" points="147,-314.5 147,-344.5 245,-344.5 245,-314.5 147,-314.5"/>
<text text-anchor="start" x="155" y="-332.5" font-family="Helvetica,sans-Serif" font-size="10.00">regional_dyes::initialize</text>
<text text-anchor="middle" x="196" y="-321.5" font-family="Helvetica,sans-Serif" font-size="10.00">_dye_tracer</text>
</a>
</g>
</g>
<!-- Node84&#45;&gt;Node87 -->
<g id="edge3" class="edge"><title>Node84&#45;&gt;Node87</title>
<path fill="none" stroke="midnightblue" d="M73.4628,-244.671C90.1249,-262.958 115.232,-288.187 141,-305.5 145.854,-308.761 151.223,-311.76 156.638,-314.452"/>
<polygon fill="midnightblue" stroke="midnightblue" points="75.706,-241.929 66.4294,-236.811 70.4895,-246.597 75.706,-241.929"/>
</g>
<!-- Node88 -->
<g id="node5" class="node"><title>Node88</title>
<g id="a_node5"><a xlink:href="../../d6/dcd/namespaceideal__age__example.html#abec4db7c44f7a6d5c891a6d8a17a99b3" target="_top" xlink:title="ideal_age_example::\linitialize_ideal_age\l_tracer">
<polygon fill="white" stroke="black" points="151,-255 151,-296 241,-296 241,-255 151,-255"/>
<text text-anchor="start" x="159" y="-284" font-family="Helvetica,sans-Serif" font-size="10.00">ideal_age_example::</text>
<text text-anchor="start" x="159" y="-273" font-family="Helvetica,sans-Serif" font-size="10.00">initialize_ideal_age</text>
<text text-anchor="middle" x="196" y="-262" font-family="Helvetica,sans-Serif" font-size="10.00">_tracer</text>
</a>
</g>
</g>
<!-- Node84&#45;&gt;Node88 -->
<g id="edge4" class="edge"><title>Node84&#45;&gt;Node88</title>
<path fill="none" stroke="midnightblue" d="M102.461,-240.185C118.171,-246.18 135.469,-252.782 150.817,-258.638"/>
<polygon fill="midnightblue" stroke="midnightblue" points="103.506,-236.838 92.9156,-236.542 101.011,-243.377 103.506,-236.838"/>
</g>
<!-- Node89 -->
<g id="node6" class="node"><title>Node89</title>
<g id="a_node6"><a xlink:href="../../d7/da0/namespaceisomip__tracer.html#a6083b2b081277f46013d9a22b32b7741" target="_top" xlink:title="Initializes the NTR tracer fields in tr(:,:,:,:) ">
<polygon fill="white" stroke="black" points="148,-206.5 148,-236.5 244,-236.5 244,-206.5 148,-206.5"/>
<text text-anchor="start" x="156" y="-224.5" font-family="Helvetica,sans-Serif" font-size="10.00">isomip_tracer::initialize</text>
<text text-anchor="middle" x="196" y="-213.5" font-family="Helvetica,sans-Serif" font-size="10.00">_isomip_tracer</text>
</a>
</g>
</g>
<!-- Node84&#45;&gt;Node89 -->
<g id="edge5" class="edge"><title>Node84&#45;&gt;Node89</title>
<path fill="none" stroke="midnightblue" d="M115.622,-221.5C126.421,-221.5 137.492,-221.5 147.809,-221.5"/>
<polygon fill="midnightblue" stroke="midnightblue" points="115.386,-218 105.386,-221.5 115.386,-225 115.386,-218"/>
</g>
<!-- Node90 -->
<g id="node7" class="node"><title>Node90</title>
<g id="a_node7"><a xlink:href="../../d6/dd2/namespacemom__ocmip2__cfc.html#a0c916b2f0835bd79002803f246d2ef49" target="_top" xlink:title="mom_ocmip2_cfc::initialize\l_ocmip2_cfc">
<polygon fill="white" stroke="black" points="141,-157.5 141,-187.5 251,-187.5 251,-157.5 141,-157.5"/>
<text text-anchor="start" x="149" y="-175.5" font-family="Helvetica,sans-Serif" font-size="10.00">mom_ocmip2_cfc::initialize</text>
<text text-anchor="middle" x="196" y="-164.5" font-family="Helvetica,sans-Serif" font-size="10.00">_ocmip2_cfc</text>
</a>
</g>
</g>
<!-- Node84&#45;&gt;Node90 -->
<g id="edge6" class="edge"><title>Node84&#45;&gt;Node90</title>
<path fill="none" stroke="midnightblue" d="M106.605,-203.11C121.338,-198.008 137.161,-192.529 151.291,-187.636"/>
<polygon fill="midnightblue" stroke="midnightblue" points="105.413,-199.819 97.1093,-206.399 107.704,-206.434 105.413,-199.819"/>
</g>
<!-- Node91 -->
<g id="node8" class="node"><title>Node91</title>
<g id="a_node8"><a xlink:href="../../de/d98/namespaceoil__tracer.html#a2bb5dd516d506706c1e67e1206e389b5" target="_top" xlink:title="oil_tracer::initialize\l_oil_tracer">
<polygon fill="white" stroke="black" points="155.5,-108.5 155.5,-138.5 236.5,-138.5 236.5,-108.5 155.5,-108.5"/>
<text text-anchor="start" x="163.5" y="-126.5" font-family="Helvetica,sans-Serif" font-size="10.00">oil_tracer::initialize</text>
<text text-anchor="middle" x="196" y="-115.5" font-family="Helvetica,sans-Serif" font-size="10.00">_oil_tracer</text>
</a>
</g>
</g>
<!-- Node84&#45;&gt;Node91 -->
<g id="edge7" class="edge"><title>Node84&#45;&gt;Node91</title>
<path fill="none" stroke="midnightblue" d="M76.6733,-199.27C93.5975,-183.782 117.586,-163.325 141,-148.5 146.586,-144.963 152.754,-141.632 158.864,-138.625"/>
<polygon fill="midnightblue" stroke="midnightblue" points="73.912,-197.058 68.966,-206.427 78.6754,-202.187 73.912,-197.058"/>
</g>
<!-- Node92 -->
<g id="node9" class="node"><title>Node92</title>
<g id="a_node9"><a xlink:href="../../df/d4e/namespacepseudo__salt__tracer.html#adaef10fff7bd433eab35152075b3f166" target="_top" xlink:title="pseudo_salt_tracer\l::initialize_pseudo\l_salt_tracer">
<polygon fill="white" stroke="black" points="153.5,-49 153.5,-90 238.5,-90 238.5,-49 153.5,-49"/>
<text text-anchor="start" x="161.5" y="-78" font-family="Helvetica,sans-Serif" font-size="10.00">pseudo_salt_tracer</text>
<text text-anchor="start" x="161.5" y="-67" font-family="Helvetica,sans-Serif" font-size="10.00">::initialize_pseudo</text>
<text text-anchor="middle" x="196" y="-56" font-family="Helvetica,sans-Serif" font-size="10.00">_salt_tracer</text>
</a>
</g>
</g>
<!-- Node84&#45;&gt;Node92 -->
<g id="edge8" class="edge"><title>Node84&#45;&gt;Node92</title>
<path fill="none" stroke="midnightblue" d="M66.4562,-197.374C81.6078,-170.86 108.763,-128.225 141,-99.5 144.763,-96.1467 148.965,-93.0134 153.317,-90.1325"/>
<polygon fill="midnightblue" stroke="midnightblue" points="63.2583,-195.922 61.43,-206.358 69.3671,-199.34 63.2583,-195.922"/>
</g>
<!-- Node93 -->
<g id="node10" class="node"><title>Node93</title>
<g id="a_node10"><a xlink:href="../../df/db5/namespaceuser__tracer__example.html#a16d417b6068f44605caf3573bf5f4de9" target="_top" xlink:title="user_tracer_example\l::user_initialize_tracer">
<polygon fill="white" stroke="black" points="149,-0.5 149,-30.5 243,-30.5 243,-0.5 149,-0.5"/>
<text text-anchor="start" x="157" y="-18.5" font-family="Helvetica,sans-Serif" font-size="10.00">user_tracer_example</text>
<text text-anchor="middle" x="196" y="-7.5" font-family="Helvetica,sans-Serif" font-size="10.00">::user_initialize_tracer</text>
</a>
</g>
</g>
<!-- Node84&#45;&gt;Node93 -->
<g id="edge9" class="edge"><title>Node84&#45;&gt;Node93</title>
<path fill="none" stroke="midnightblue" d="M59.5098,-196.612C69.9565,-158.203 94.8917,-84.2489 141,-39.5 144.46,-36.1418 148.47,-33.2078 152.711,-30.6553"/>
<polygon fill="midnightblue" stroke="midnightblue" points="56.0812,-195.89 56.9419,-206.449 62.8543,-197.658 56.0812,-195.89"/>
</g>
</g>
</svg>
