<?xml version="1.0" encoding="UTF-8" standalone="no"?>
<!DOCTYPE svg PUBLIC "-//W3C//DTD SVG 1.1//EN"
 "http://www.w3.org/Graphics/SVG/1.1/DTD/svg11.dtd">
<!-- Generated by graphviz version 2.38.0 (20140413.2041)
 -->
<!-- Title: mom_diag_to_z::ocean_register_diag_with_z Pages: 1 -->
<svg width="1045pt" height="824pt"
 viewBox="0.00 0.00 1045.00 824.18" xmlns="http://www.w3.org/2000/svg" xmlns:xlink="http://www.w3.org/1999/xlink">
<g id="graph0" class="graph" transform="scale(1 1) rotate(0) translate(4 820.178)">
<title>mom_diag_to_z::ocean_register_diag_with_z</title>
<polygon fill="white" stroke="none" points="-4,4 -4,-820.178 1041,-820.178 1041,4 -4,4"/>
<!-- Node48 -->
<g id="node1" class="node"><title>Node48</title>
<polygon fill="#bfbfbf" stroke="black" points="0,-724.773 0,-754.773 118,-754.773 118,-724.773 0,-724.773"/>
<text text-anchor="start" x="8" y="-742.773" font-family="Helvetica,sans-Serif" font-size="10.00">mom_diag_to_z::ocean</text>
<text text-anchor="middle" x="59" y="-731.773" font-family="Helvetica,sans-Serif" font-size="10.00">_register_diag_with_z</text>
</g>
<!-- Node49 -->
<g id="node2" class="node"><title>Node49</title>
<g id="a_node2"><a xlink:href="../../d5/d89/namespacemom__io.html#af96b29cb8410d557e8e452b81586223b" target="_top" xlink:title="This routine modifies the named elements of a vardesc type. All arguments are optional, except the vardesc type to be modified. ">
<polygon fill="white" stroke="black" points="314,-768.273 314,-787.273 440,-787.273 440,-768.273 314,-768.273"/>
<text text-anchor="middle" x="377" y="-775.273" font-family="Helvetica,sans-Serif" font-size="10.00">mom_io::modify_vardesc</text>
</a>
</g>
</g>
<!-- Node48&#45;&gt;Node49 -->
<g id="edge1" class="edge"><title>Node48&#45;&gt;Node49</title>
<path fill="none" stroke="midnightblue" d="M118.116,-748.801C129.976,-750.539 142.381,-752.28 154,-753.773 203.835,-760.175 260.113,-766.247 303.536,-770.681"/>
<polygon fill="midnightblue" stroke="midnightblue" points="303.419,-774.187 313.721,-771.715 304.126,-767.223 303.419,-774.187"/>
</g>
<!-- Node51 -->
<g id="node4" class="node"><title>Node51</title>
<g id="a_node4"><a xlink:href="../../d0/de6/namespacemom__error__handler.html#a460cfb79a06c29fc249952c2a3710d67" target="_top" xlink:title="mom_error_handler::\lmom_error">
<polygon fill="white" stroke="black" points="789,-270.773 789,-300.773 895,-300.773 895,-270.773 789,-270.773"/>
<text text-anchor="start" x="797" y="-288.773" font-family="Helvetica,sans-Serif" font-size="10.00">mom_error_handler::</text>
<text text-anchor="middle" x="842" y="-277.773" font-family="Helvetica,sans-Serif" font-size="10.00">mom_error</text>
</a>
</g>
</g>
<!-- Node48&#45;&gt;Node51 -->
<g id="edge5" class="edge"><title>Node48&#45;&gt;Node51</title>
<path fill="none" stroke="midnightblue" d="M96.1204,-754.901C113.403,-761.704 134.529,-769.394 154,-774.773 250.713,-801.49 275.665,-815.773 376,-815.773 376,-815.773 376,-815.773 542.5,-815.773 640.68,-815.773 687.876,-822.246 753,-748.773 811.683,-682.568 834.017,-397.831 839.538,-311.005"/>
<polygon fill="midnightblue" stroke="midnightblue" points="843.034,-311.18 840.156,-300.983 836.047,-310.749 843.034,-311.18"/>
</g>
<!-- Node53 -->
<g id="node6" class="node"><title>Node53</title>
<g id="a_node6"><a xlink:href="../../d9/d06/namespacemom__diag__mediator.html#a21267e25d12fa3e5d2540d2a299d2d2c" target="_top" xlink:title="Registers a diagnostic using the information encapsulated in the vardesc type argument and returns an...">
<polygon fill="white" stroke="black" points="161,-484.773 161,-514.773 271,-514.773 271,-484.773 161,-484.773"/>
<text text-anchor="start" x="169" y="-502.773" font-family="Helvetica,sans-Serif" font-size="10.00">mom_diag_mediator::</text>
<text text-anchor="middle" x="216" y="-491.773" font-family="Helvetica,sans-Serif" font-size="10.00">ocean_register_diag</text>
</a>
</g>
</g>
<!-- Node48&#45;&gt;Node53 -->
<g id="edge6" class="edge"><title>Node48&#45;&gt;Node53</title>
<path fill="none" stroke="midnightblue" d="M69.6959,-724.76C95.8465,-684.269 167.987,-572.568 199.702,-523.46"/>
<polygon fill="midnightblue" stroke="midnightblue" points="202.823,-525.08 205.308,-514.781 196.942,-521.282 202.823,-525.08"/>
</g>
<!-- Node54 -->
<g id="node7" class="node"><title>Node54</title>
<g id="a_node7"><a xlink:href="../../d5/d89/namespacemom__io.html#a23e82d1d89d9bb1c9bdf802ce80d4508" target="_top" xlink:title="This routine queries vardesc. ">
<polygon fill="white" stroke="black" points="316.5,-730.273 316.5,-749.273 437.5,-749.273 437.5,-730.273 316.5,-730.273"/>
<text text-anchor="middle" x="377" y="-737.273" font-family="Helvetica,sans-Serif" font-size="10.00">mom_io::query_vardesc</text>
</a>
</g>
</g>
<!-- Node48&#45;&gt;Node54 -->
<g id="edge30" class="edge"><title>Node48&#45;&gt;Node54</title>
<path fill="none" stroke="midnightblue" d="M118.328,-739.773C171.379,-739.773 249.769,-739.773 306.144,-739.773"/>
<polygon fill="midnightblue" stroke="midnightblue" points="306.403,-743.273 316.403,-739.773 306.403,-736.273 306.403,-743.273"/>
</g>
<!-- Node70 -->
<g id="node23" class="node"><title>Node70</title>
<g id="a_node23"><a xlink:href="../../d0/dbf/namespacemom__diag__to__z.html#a4dda95a2d7577d6d347e94ec54638bb5" target="_top" xlink:title="mom_diag_to_z::register\l_z_diag">
<polygon fill="white" stroke="black" points="154,-680.773 154,-710.773 278,-710.773 278,-680.773 154,-680.773"/>
<text text-anchor="start" x="162" y="-698.773" font-family="Helvetica,sans-Serif" font-size="10.00">mom_diag_to_z::register</text>
<text text-anchor="middle" x="216" y="-687.773" font-family="Helvetica,sans-Serif" font-size="10.00">_z_diag</text>
</a>
</g>
</g>
<!-- Node48&#45;&gt;Node70 -->
<g id="edge31" class="edge"><title>Node48&#45;&gt;Node70</title>
<path fill="none" stroke="midnightblue" d="M112.909,-724.754C125.558,-721.163 139.182,-717.296 152.229,-713.592"/>
<polygon fill="midnightblue" stroke="midnightblue" points="153.403,-716.897 162.067,-710.799 151.491,-710.163 153.403,-716.897"/>
</g>
<!-- Node50 -->
<g id="node3" class="node"><title>Node50</title>
<g id="a_node3"><a xlink:href="../../d5/d89/namespacemom__io.html#ac4bc408e8b38dbd669842753f26ebf88" target="_top" xlink:title="Copies a string. ">
<polygon fill="white" stroke="black" points="476,-730.273 476,-749.273 607,-749.273 607,-730.273 476,-730.273"/>
<text text-anchor="middle" x="541.5" y="-737.273" font-family="Helvetica,sans-Serif" font-size="10.00">mom_io::safe_string_copy</text>
</a>
</g>
</g>
<!-- Node49&#45;&gt;Node50 -->
<g id="edge2" class="edge"><title>Node49&#45;&gt;Node50</title>
<path fill="none" stroke="midnightblue" d="M419.006,-768.184C440.546,-763.147 467.135,-756.929 489.941,-751.596"/>
<polygon fill="midnightblue" stroke="midnightblue" points="490.849,-754.978 499.789,-749.293 489.255,-748.162 490.849,-754.978"/>
</g>
<!-- Node50&#45;&gt;Node51 -->
<g id="edge3" class="edge"><title>Node50&#45;&gt;Node51</title>
<path fill="none" stroke="midnightblue" d="M593.482,-749.275C640.882,-754.957 710.403,-754.764 753,-715.773 813.383,-660.502 834.396,-395.124 839.59,-311.244"/>
<polygon fill="midnightblue" stroke="midnightblue" points="843.095,-311.27 840.197,-301.079 836.107,-310.853 843.095,-311.27"/>
</g>
<!-- Node52 -->
<g id="node5" class="node"><title>Node52</title>
<g id="a_node5"><a xlink:href="../../d0/de6/namespacemom__error__handler.html#ad5f00a53059c72fe2332d1436c80ca71" target="_top" xlink:title="mom_error_handler::\lis_root_pe">
<polygon fill="white" stroke="black" points="931,-163.773 931,-193.773 1037,-193.773 1037,-163.773 931,-163.773"/>
<text text-anchor="start" x="939" y="-181.773" font-family="Helvetica,sans-Serif" font-size="10.00">mom_error_handler::</text>
<text text-anchor="middle" x="984" y="-170.773" font-family="Helvetica,sans-Serif" font-size="10.00">is_root_pe</text>
</a>
</g>
</g>
<!-- Node51&#45;&gt;Node52 -->
<g id="edge4" class="edge"><title>Node51&#45;&gt;Node52</title>
<path fill="none" stroke="midnightblue" d="M862.762,-270.67C886.942,-252.189 928.027,-220.788 955.339,-199.914"/>
<polygon fill="midnightblue" stroke="midnightblue" points="957.519,-202.653 963.339,-193.8 953.268,-197.091 957.519,-202.653"/>
</g>
<!-- Node53&#45;&gt;Node51 -->
<g id="edge7" class="edge"><title>Node53&#45;&gt;Node51</title>
<path fill="none" stroke="midnightblue" d="M219.649,-484.398C232.475,-415.298 295.087,-132.187 476,-24.7731 590.766,43.3672 664.747,-40.6444 753,-140.773 786.412,-178.681 814.572,-230.921 829.507,-261.245"/>
<polygon fill="midnightblue" stroke="midnightblue" points="826.546,-263.161 834.054,-270.637 832.847,-260.111 826.546,-263.161"/>
</g>
<!-- Node53&#45;&gt;Node54 -->
<g id="edge8" class="edge"><title>Node53&#45;&gt;Node54</title>
<path fill="none" stroke="midnightblue" d="M226.946,-514.786C254.81,-556.845 333.575,-675.735 363.895,-721.502"/>
<polygon fill="midnightblue" stroke="midnightblue" points="361.153,-723.7 369.594,-730.104 366.989,-719.834 361.153,-723.7"/>
</g>
<!-- Node55 -->
<g id="node8" class="node"><title>Node55</title>
<g id="a_node8"><a xlink:href="../../d9/d06/namespacemom__diag__mediator.html#aab2007573b14ed73053282770d1b19a4" target="_top" xlink:title="mom_diag_mediator::\lregister_diag_field">
<polygon fill="white" stroke="black" points="322,-336.773 322,-366.773 432,-366.773 432,-336.773 322,-336.773"/>
<text text-anchor="start" x="330" y="-354.773" font-family="Helvetica,sans-Serif" font-size="10.00">mom_diag_mediator::</text>
<text text-anchor="middle" x="377" y="-343.773" font-family="Helvetica,sans-Serif" font-size="10.00">register_diag_field</text>
</a>
</g>
</g>
<!-- Node53&#45;&gt;Node55 -->
<g id="edge10" class="edge"><title>Node53&#45;&gt;Node55</title>
<path fill="none" stroke="midnightblue" d="M233.121,-484.768C261.334,-458.507 319.766,-404.117 352.491,-373.656"/>
<polygon fill="midnightblue" stroke="midnightblue" points="354.901,-376.194 359.837,-366.818 350.132,-371.07 354.901,-376.194"/>
</g>
<!-- Node54&#45;&gt;Node50 -->
<g id="edge9" class="edge"><title>Node54&#45;&gt;Node50</title>
<path fill="none" stroke="midnightblue" d="M437.586,-739.773C446.766,-739.773 456.344,-739.773 465.803,-739.773"/>
<polygon fill="midnightblue" stroke="midnightblue" points="465.995,-743.273 475.995,-739.773 465.995,-736.273 465.995,-743.273"/>
</g>
<!-- Node55&#45;&gt;Node51 -->
<g id="edge26" class="edge"><title>Node55&#45;&gt;Node51</title>
<path fill="none" stroke="midnightblue" d="M431.366,-336.739C445.767,-333.072 461.405,-329.441 476,-326.773 581.374,-307.509 705.625,-295.873 778.604,-290.148"/>
<polygon fill="midnightblue" stroke="midnightblue" points="779.29,-293.606 788.991,-289.346 778.751,-286.627 779.29,-293.606"/>
</g>
<!-- Node55&#45;&gt;Node52 -->
<g id="edge21" class="edge"><title>Node55&#45;&gt;Node52</title>
<path fill="none" stroke="midnightblue" d="M378.78,-336.478C381.947,-292.452 397.789,-165.234 476,-112.773 547.79,-64.6191 803.828,-127.946 922.191,-160.99"/>
<polygon fill="midnightblue" stroke="midnightblue" points="921.266,-164.366 931.84,-163.702 923.16,-157.627 921.266,-164.366"/>
</g>
<!-- Node56 -->
<g id="node9" class="node"><title>Node56</title>
<g id="a_node9"><a xlink:href="../../d9/d06/namespacemom__diag__mediator.html#a1b0bed2113a0c268eafd1bafbb48bd4f" target="_top" xlink:title="mom_diag_mediator::\lalloc_diag_with_id">
<polygon fill="white" stroke="black" points="486.5,-34.7731 486.5,-64.7731 596.5,-64.7731 596.5,-34.7731 486.5,-34.7731"/>
<text text-anchor="start" x="494.5" y="-52.7731" font-family="Helvetica,sans-Serif" font-size="10.00">mom_diag_mediator::</text>
<text text-anchor="middle" x="541.5" y="-41.7731" font-family="Helvetica,sans-Serif" font-size="10.00">alloc_diag_with_id</text>
</a>
</g>
</g>
<!-- Node55&#45;&gt;Node56 -->
<g id="edge11" class="edge"><title>Node55&#45;&gt;Node56</title>
<path fill="none" stroke="midnightblue" d="M379.395,-336.76C384.302,-292.033 404.538,-157.938 476,-79.7731 479.266,-76.2013 483.043,-73.02 487.098,-70.1934"/>
<polygon fill="midnightblue" stroke="midnightblue" points="489.056,-73.0986 495.74,-64.878 485.388,-67.1362 489.056,-73.0986"/>
</g>
<!-- Node57 -->
<g id="node10" class="node"><title>Node57</title>
<g id="a_node10"><a xlink:href="../../d9/d06/namespacemom__diag__mediator.html#a6e11afe7a97bf8e3333d33b0aebd6f6e" target="_top" xlink:title="mom_diag_mediator::\lassert">
<polygon fill="white" stroke="black" points="643,-248.773 643,-278.773 753,-278.773 753,-248.773 643,-248.773"/>
<text text-anchor="start" x="651" y="-266.773" font-family="Helvetica,sans-Serif" font-size="10.00">mom_diag_mediator::</text>
<text text-anchor="middle" x="698" y="-255.773" font-family="Helvetica,sans-Serif" font-size="10.00">assert</text>
</a>
</g>
</g>
<!-- Node55&#45;&gt;Node57 -->
<g id="edge12" class="edge"><title>Node55&#45;&gt;Node57</title>
<path fill="none" stroke="midnightblue" d="M398.21,-336.513C417.235,-322.977 447.056,-303.838 476,-293.773 526.893,-276.075 587.76,-268.754 632.719,-265.757"/>
<polygon fill="midnightblue" stroke="midnightblue" points="633.156,-269.237 642.923,-265.132 632.728,-262.25 633.156,-269.237"/>
</g>
<!-- Node58 -->
<g id="node11" class="node"><title>Node58</title>
<g id="a_node11"><a xlink:href="../../d9/d06/namespacemom__diag__mediator.html#a93abbf0b9659019bed9a2129ab292752" target="_top" xlink:title="Attaches &quot;cell_methods&quot; attribute to a variable based on defaults for axes_grp or optional arguments...">
<polygon fill="white" stroke="black" points="643,-150.773 643,-180.773 753,-180.773 753,-150.773 643,-150.773"/>
<text text-anchor="start" x="651" y="-168.773" font-family="Helvetica,sans-Serif" font-size="10.00">mom_diag_mediator::</text>
<text text-anchor="middle" x="698" y="-157.773" font-family="Helvetica,sans-Serif" font-size="10.00">attach_cell_methods</text>
</a>
</g>
</g>
<!-- Node55&#45;&gt;Node58 -->
<g id="edge14" class="edge"><title>Node55&#45;&gt;Node58</title>
<path fill="none" stroke="midnightblue" d="M382.99,-336.753C394.168,-305.651 424.37,-234.312 476,-200.773 522.435,-170.609 585.676,-163.185 632.611,-162.529"/>
<polygon fill="midnightblue" stroke="midnightblue" points="632.681,-166.029 642.667,-162.488 632.652,-159.029 632.681,-166.029"/>
</g>
<!-- Node59 -->
<g id="node12" class="node"><title>Node59</title>
<g id="a_node12"><a xlink:href="../../d9/d06/namespacemom__diag__mediator.html#a3f7442639213320f7429e2288a79fda2" target="_top" xlink:title="Returns a new diagnostic id, it may be necessary to expand the diagnostics array. ...">
<polygon fill="white" stroke="black" points="486.5,-210.773 486.5,-240.773 596.5,-240.773 596.5,-210.773 486.5,-210.773"/>
<text text-anchor="start" x="494.5" y="-228.773" font-family="Helvetica,sans-Serif" font-size="10.00">mom_diag_mediator::</text>
<text text-anchor="middle" x="541.5" y="-217.773" font-family="Helvetica,sans-Serif" font-size="10.00">get_new_diag_id</text>
</a>
</g>
</g>
<!-- Node55&#45;&gt;Node59 -->
<g id="edge16" class="edge"><title>Node55&#45;&gt;Node59</title>
<path fill="none" stroke="midnightblue" d="M390.63,-336.494C408.134,-316.054 441.528,-279.622 476,-255.773 481.332,-252.084 487.19,-248.647 493.133,-245.512"/>
<polygon fill="midnightblue" stroke="midnightblue" points="495.098,-248.444 502.481,-240.845 491.971,-242.181 495.098,-248.444"/>
</g>
<!-- Node61 -->
<g id="node14" class="node"><title>Node61</title>
<g id="a_node14"><a xlink:href="../../d9/d06/namespacemom__diag__mediator.html#a4b739f107cebe1ece8d29056c1144bff" target="_top" xlink:title="mom_diag_mediator::\lis_b_axes">
<polygon fill="white" stroke="black" points="486.5,-642.773 486.5,-672.773 596.5,-672.773 596.5,-642.773 486.5,-642.773"/>
<text text-anchor="start" x="494.5" y="-660.773" font-family="Helvetica,sans-Serif" font-size="10.00">mom_diag_mediator::</text>
<text text-anchor="middle" x="541.5" y="-649.773" font-family="Helvetica,sans-Serif" font-size="10.00">is_b_axes</text>
</a>
</g>
</g>
<!-- Node55&#45;&gt;Node61 -->
<g id="edge19" class="edge"><title>Node55&#45;&gt;Node61</title>
<path fill="none" stroke="midnightblue" d="M378.944,-366.842C382.628,-412.99 399.884,-554.008 476,-632.773 477.408,-634.23 478.911,-635.604 480.49,-636.899"/>
<polygon fill="midnightblue" stroke="midnightblue" points="478.717,-639.928 488.932,-642.739 482.699,-634.172 478.717,-639.928"/>
</g>
<!-- Node62 -->
<g id="node15" class="node"><title>Node62</title>
<g id="a_node15"><a xlink:href="../../d9/d06/namespacemom__diag__mediator.html#a84370fa96e03622edbfd5e343bcd9718" target="_top" xlink:title="mom_diag_mediator::\lis_layer_axes">
<polygon fill="white" stroke="black" points="486.5,-593.773 486.5,-623.773 596.5,-623.773 596.5,-593.773 486.5,-593.773"/>
<text text-anchor="start" x="494.5" y="-611.773" font-family="Helvetica,sans-Serif" font-size="10.00">mom_diag_mediator::</text>
<text text-anchor="middle" x="541.5" y="-600.773" font-family="Helvetica,sans-Serif" font-size="10.00">is_layer_axes</text>
</a>
</g>
</g>
<!-- Node55&#45;&gt;Node62 -->
<g id="edge20" class="edge"><title>Node55&#45;&gt;Node62</title>
<path fill="none" stroke="midnightblue" d="M380.209,-366.795C386.946,-407.41 410.894,-520.586 476,-583.773 477.611,-585.336 479.33,-586.804 481.133,-588.183"/>
<polygon fill="midnightblue" stroke="midnightblue" points="479.221,-591.114 489.502,-593.672 483.06,-585.261 479.221,-591.114"/>
</g>
<!-- Node63 -->
<g id="node16" class="node"><title>Node63</title>
<g id="a_node16"><a xlink:href="../../d9/d06/namespacemom__diag__mediator.html#a27fa63c9ff62b660bf457adbb8645bdf" target="_top" xlink:title="mom_diag_mediator::\lis_u_axes">
<polygon fill="white" stroke="black" points="486.5,-544.773 486.5,-574.773 596.5,-574.773 596.5,-544.773 486.5,-544.773"/>
<text text-anchor="start" x="494.5" y="-562.773" font-family="Helvetica,sans-Serif" font-size="10.00">mom_diag_mediator::</text>
<text text-anchor="middle" x="541.5" y="-551.773" font-family="Helvetica,sans-Serif" font-size="10.00">is_u_axes</text>
</a>
</g>
</g>
<!-- Node55&#45;&gt;Node63 -->
<g id="edge22" class="edge"><title>Node55&#45;&gt;Node63</title>
<path fill="none" stroke="midnightblue" d="M382.115,-366.836C392.277,-401.331 421.753,-486.765 476,-534.773 477.754,-536.325 479.615,-537.786 481.556,-539.16"/>
<polygon fill="midnightblue" stroke="midnightblue" points="480.148,-542.402 490.502,-544.646 483.807,-536.435 480.148,-542.402"/>
</g>
<!-- Node64 -->
<g id="node17" class="node"><title>Node64</title>
<g id="a_node17"><a xlink:href="../../d9/d06/namespacemom__diag__mediator.html#a9a30d653d812713d6fcff94f6f1fc3e6" target="_top" xlink:title="mom_diag_mediator::\lis_v_axes">
<polygon fill="white" stroke="black" points="486.5,-495.773 486.5,-525.773 596.5,-525.773 596.5,-495.773 486.5,-495.773"/>
<text text-anchor="start" x="494.5" y="-513.773" font-family="Helvetica,sans-Serif" font-size="10.00">mom_diag_mediator::</text>
<text text-anchor="middle" x="541.5" y="-502.773" font-family="Helvetica,sans-Serif" font-size="10.00">is_v_axes</text>
</a>
</g>
</g>
<!-- Node55&#45;&gt;Node64 -->
<g id="edge23" class="edge"><title>Node55&#45;&gt;Node64</title>
<path fill="none" stroke="midnightblue" d="M385.299,-366.821C399.271,-394.162 432.329,-452.259 476,-485.773 478.322,-487.555 480.787,-489.225 483.346,-490.787"/>
<polygon fill="midnightblue" stroke="midnightblue" points="481.886,-493.977 492.341,-495.691 485.237,-487.831 481.886,-493.977"/>
</g>
<!-- Node65 -->
<g id="node18" class="node"><title>Node65</title>
<g id="a_node18"><a xlink:href="../../d9/d06/namespacemom__diag__mediator.html#a65fe8d329cf5dbfd08c98874a7a64407" target="_top" xlink:title="Log a diagnostic to the available diagnostics file. ">
<polygon fill="white" stroke="black" points="486.5,-446.773 486.5,-476.773 596.5,-476.773 596.5,-446.773 486.5,-446.773"/>
<text text-anchor="start" x="494.5" y="-464.773" font-family="Helvetica,sans-Serif" font-size="10.00">mom_diag_mediator::</text>
<text text-anchor="middle" x="541.5" y="-453.773" font-family="Helvetica,sans-Serif" font-size="10.00">log_available_diag</text>
</a>
</g>
</g>
<!-- Node55&#45;&gt;Node65 -->
<g id="edge24" class="edge"><title>Node55&#45;&gt;Node65</title>
<path fill="none" stroke="midnightblue" d="M392.326,-367.091C410.366,-385.652 443.01,-416.902 476,-436.773 479.225,-438.715 482.626,-440.557 486.114,-442.293"/>
<polygon fill="midnightblue" stroke="midnightblue" points="484.938,-445.605 495.482,-446.64 487.884,-439.256 484.938,-445.605"/>
</g>
<!-- Node67 -->
<g id="node20" class="node"><title>Node67</title>
<g id="a_node20"><a xlink:href="../../d9/d06/namespacemom__diag__mediator.html#aca4a32fea8dade9f51e076a56b9bad2b" target="_top" xlink:title="Returns ID from register_diag_field_fms (the diag_manager routine) after expanding axes (axes&#45;group) ...">
<polygon fill="white" stroke="black" points="486.5,-386.273 486.5,-427.273 596.5,-427.273 596.5,-386.273 486.5,-386.273"/>
<text text-anchor="start" x="494.5" y="-415.273" font-family="Helvetica,sans-Serif" font-size="10.00">mom_diag_mediator::</text>
<text text-anchor="start" x="494.5" y="-404.273" font-family="Helvetica,sans-Serif" font-size="10.00">register_diag_field</text>
<text text-anchor="middle" x="541.5" y="-393.273" font-family="Helvetica,sans-Serif" font-size="10.00">_expand_axes</text>
</a>
</g>
</g>
<!-- Node55&#45;&gt;Node67 -->
<g id="edge27" class="edge"><title>Node55&#45;&gt;Node67</title>
<path fill="none" stroke="midnightblue" d="M422.404,-366.802C439.131,-372.464 458.503,-379.02 476.657,-385.165"/>
<polygon fill="midnightblue" stroke="midnightblue" points="475.711,-388.539 486.305,-388.43 477.955,-381.909 475.711,-388.539"/>
</g>
<!-- Node68 -->
<g id="node21" class="node"><title>Node68</title>
<g id="a_node21"><a xlink:href="../../d9/d06/namespacemom__diag__mediator.html#a085f313357879a914af6450f2ab8ec79" target="_top" xlink:title="mom_diag_mediator::\lset_diag_mask">
<polygon fill="white" stroke="black" points="486.5,-336.773 486.5,-366.773 596.5,-366.773 596.5,-336.773 486.5,-336.773"/>
<text text-anchor="start" x="494.5" y="-354.773" font-family="Helvetica,sans-Serif" font-size="10.00">mom_diag_mediator::</text>
<text text-anchor="middle" x="541.5" y="-343.773" font-family="Helvetica,sans-Serif" font-size="10.00">set_diag_mask</text>
</a>
</g>
</g>
<!-- Node55&#45;&gt;Node68 -->
<g id="edge28" class="edge"><title>Node55&#45;&gt;Node68</title>
<path fill="none" stroke="midnightblue" d="M432.11,-351.773C446.152,-351.773 461.415,-351.773 475.936,-351.773"/>
<polygon fill="midnightblue" stroke="midnightblue" points="476.349,-355.273 486.349,-351.773 476.349,-348.273 476.349,-355.273"/>
</g>
<!-- Node69 -->
<g id="node22" class="node"><title>Node69</title>
<g id="a_node22"><a xlink:href="../../d9/d06/namespacemom__diag__mediator.html#a5d1e1aa53cdd6bb335a6f841eded4f46" target="_top" xlink:title="mom_diag_mediator::\lset_diag_remap_axes">
<polygon fill="white" stroke="black" points="485.5,-122.773 485.5,-152.773 597.5,-152.773 597.5,-122.773 485.5,-122.773"/>
<text text-anchor="start" x="493.5" y="-140.773" font-family="Helvetica,sans-Serif" font-size="10.00">mom_diag_mediator::</text>
<text text-anchor="middle" x="541.5" y="-129.773" font-family="Helvetica,sans-Serif" font-size="10.00">set_diag_remap_axes</text>
</a>
</g>
</g>
<!-- Node55&#45;&gt;Node69 -->
<g id="edge29" class="edge"><title>Node55&#45;&gt;Node69</title>
<path fill="none" stroke="midnightblue" d="M382.393,-336.615C393.044,-302.28 423.32,-217.68 476,-167.773 479.824,-164.15 484.165,-160.901 488.744,-158.003"/>
<polygon fill="midnightblue" stroke="midnightblue" points="490.817,-160.85 497.769,-152.855 487.349,-154.77 490.817,-160.85"/>
</g>
<!-- Node57&#45;&gt;Node51 -->
<g id="edge13" class="edge"><title>Node57&#45;&gt;Node51</title>
<path fill="none" stroke="midnightblue" d="M753.089,-272.153C761.539,-273.462 770.329,-274.824 778.94,-276.158"/>
<polygon fill="midnightblue" stroke="midnightblue" points="778.517,-279.634 788.935,-277.707 779.589,-272.717 778.517,-279.634"/>
</g>
<!-- Node58&#45;&gt;Node51 -->
<g id="edge15" class="edge"><title>Node58&#45;&gt;Node51</title>
<path fill="none" stroke="midnightblue" d="M738.122,-180.832C743.314,-183.492 748.419,-186.478 753,-189.773 781.554,-210.311 807.901,-241.338 824.179,-262.523"/>
<polygon fill="midnightblue" stroke="midnightblue" points="821.5,-264.784 830.313,-270.665 827.091,-260.572 821.5,-264.784"/>
</g>
<!-- Node59&#45;&gt;Node57 -->
<g id="edge17" class="edge"><title>Node59&#45;&gt;Node57</title>
<path fill="none" stroke="midnightblue" d="M596.537,-239.064C608.298,-241.956 620.85,-245.044 632.957,-248.021"/>
<polygon fill="midnightblue" stroke="midnightblue" points="632.447,-251.5 642.994,-250.49 634.119,-244.703 632.447,-251.5"/>
</g>
<!-- Node60 -->
<g id="node13" class="node"><title>Node60</title>
<g id="a_node13"><a xlink:href="../../d9/d06/namespacemom__diag__mediator.html#a883862f004e30bbc5211f38635511ba0" target="_top" xlink:title="Initializes a diag_type (used after allocating new memory) ">
<polygon fill="white" stroke="black" points="643,-199.773 643,-229.773 753,-229.773 753,-199.773 643,-199.773"/>
<text text-anchor="start" x="651" y="-217.773" font-family="Helvetica,sans-Serif" font-size="10.00">mom_diag_mediator::</text>
<text text-anchor="middle" x="698" y="-206.773" font-family="Helvetica,sans-Serif" font-size="10.00">initialize_diag_type</text>
</a>
</g>
</g>
<!-- Node59&#45;&gt;Node60 -->
<g id="edge18" class="edge"><title>Node59&#45;&gt;Node60</title>
<path fill="none" stroke="midnightblue" d="M596.537,-221.926C608.298,-221.088 620.85,-220.195 632.957,-219.333"/>
<polygon fill="midnightblue" stroke="midnightblue" points="633.268,-222.82 642.994,-218.618 632.771,-215.837 633.268,-222.82"/>
</g>
<!-- Node66 -->
<g id="node19" class="node"><title>Node66</title>
<g id="a_node19"><a xlink:href="../../d9/d06/namespacemom__diag__mediator.html#ae002ca447acba252bf7bdc042e75a01e" target="_top" xlink:title="mom_diag_mediator::\ldescribe_option">
<polygon fill="white" stroke="black" points="643,-446.773 643,-476.773 753,-476.773 753,-446.773 643,-446.773"/>
<text text-anchor="start" x="651" y="-464.773" font-family="Helvetica,sans-Serif" font-size="10.00">mom_diag_mediator::</text>
<text text-anchor="middle" x="698" y="-453.773" font-family="Helvetica,sans-Serif" font-size="10.00">describe_option</text>
</a>
</g>
</g>
<!-- Node65&#45;&gt;Node66 -->
<g id="edge25" class="edge"><title>Node65&#45;&gt;Node66</title>
<path fill="none" stroke="midnightblue" d="M596.537,-461.773C608.298,-461.773 620.85,-461.773 632.957,-461.773"/>
<polygon fill="midnightblue" stroke="midnightblue" points="632.994,-465.273 642.994,-461.773 632.994,-458.273 632.994,-465.273"/>
</g>
<!-- Node70&#45;&gt;Node51 -->
<g id="edge33" class="edge"><title>Node70&#45;&gt;Node51</title>
<path fill="none" stroke="midnightblue" d="M278.322,-699.903C373.514,-705.267 551.655,-710.813 607,-681.773 756.286,-603.44 818.488,-384.99 835.71,-310.799"/>
<polygon fill="midnightblue" stroke="midnightblue" points="839.149,-311.457 837.93,-300.933 832.32,-309.921 839.149,-311.457"/>
</g>
<!-- Node70&#45;&gt;Node54 -->
<g id="edge32" class="edge"><title>Node70&#45;&gt;Node54</title>
<path fill="none" stroke="midnightblue" d="M271.274,-710.792C290.949,-716.237 312.923,-722.318 331.642,-727.498"/>
<polygon fill="midnightblue" stroke="midnightblue" points="330.816,-730.901 341.388,-730.195 332.683,-724.154 330.816,-730.901"/>
</g>
</g>
</svg>
