<?xml version="1.0" encoding="UTF-8" standalone="no"?>
<!DOCTYPE svg PUBLIC "-//W3C//DTD SVG 1.1//EN"
 "http://www.w3.org/Graphics/SVG/1.1/DTD/svg11.dtd">
<!-- Generated by graphviz version 2.38.0 (20140413.2041)
 -->
<!-- Title: mom_diag_to_z::ocean_register_diag_with_z Pages: 1 -->
<!--zoomable 819 -->
<svg id="main" version="1.1" xmlns="http://www.w3.org/2000/svg" xmlns:xlink="http://www.w3.org/1999/xlink" xml:space="preserve" onload="init(evt)">
<style type="text/css"><![CDATA[
.edge:hover path { stroke: red; }
.edge:hover polygon { stroke: red; fill: red; }
]]></style>
<script type="text/javascript"><![CDATA[
var edges = document.getElementsByTagName('g');
if (edges && edges.length) {
  for (var i=0;i<edges.length;i++) {
    if (edges[i].id.substr(0,4)=='edge') {
      edges[i].setAttribute('class','edge');
    }
  }
}
]]></script>
        <defs>
                <circle id="rim" cx="0" cy="0" r="7"/>
                <circle id="rim2" cx="0" cy="0" r="3.5"/>
                <g id="zoomPlus">
                        <use xlink:href="#rim" fill="#404040">
                                <set attributeName="fill" to="#808080" begin="zoomplus.mouseover" end="zoomplus.mouseout"/>
                        </use>
                        <path d="M-4,0h8M0,-4v8" fill="none" stroke="white" stroke-width="1.5" pointer-events="none"/>
                </g>
                <g id="zoomMin">
                        <use xlink:href="#rim" fill="#404040">
                                <set attributeName="fill" to="#808080" begin="zoomminus.mouseover" end="zoomminus.mouseout"/>
                        </use>
                        <path d="M-4,0h8" fill="none" stroke="white" stroke-width="1.5" pointer-events="none"/>
                </g>
                <g id="dirArrow">
                        <path fill="none" stroke="white" stroke-width="1.5" d="M0,-3.0v7 M-2.5,-0.5L0,-3.0L2.5,-0.5"/>
                </g>
               <g id="resetDef">
                       <use xlink:href="#rim2" fill="#404040">
                               <set attributeName="fill" to="#808080" begin="reset.mouseover" end="reset.mouseout"/>
                       </use>
               </g>
        </defs>

<script type="text/javascript">
var viewWidth = 925;
var viewHeight = 819;
var sectionId = 'dynsection-10';
</script>
<script xlink:href="../../svgpan.js"/>
<svg id="graph" class="graph">
<g id="viewport">
<title>mom_diag_to_z::ocean_register_diag_with_z</title>
<polygon fill="white" stroke="none" points="-4,4 -4,-814.898 921,-814.898 921,4 -4,4"/>
<!-- Node49 -->
<g id="node1" class="node"><title>Node49</title>
<polygon fill="#bfbfbf" stroke="black" points="0,-719.898 0,-749.898 100,-749.898 100,-719.898 0,-719.898"/>
<text text-anchor="start" x="8" y="-737.898" font-family="Helvetica,sans-Serif" font-size="10.00">mom_diag_to_z::ocean</text>
<text text-anchor="middle" x="50" y="-726.898" font-family="Helvetica,sans-Serif" font-size="10.00">_register_diag_with_z</text>
</g>
<!-- Node50 -->
<g id="node2" class="node"><title>Node50</title>
<g id="a_node2"><a xlink:href="../../d5/d89/namespacemom__io.html#af96b29cb8410d557e8e452b81586223b" target="_top" xlink:title="This routine modifies the named elements of a vardesc type. All arguments are optional, except the vardesc type to be modified. ">
<polygon fill="white" stroke="black" points="277,-763.398 277,-782.398 382,-782.398 382,-763.398 277,-763.398"/>
<text text-anchor="middle" x="329.5" y="-770.398" font-family="Helvetica,sans-Serif" font-size="10.00">mom_io::modify_vardesc</text>
</a>
</g>
</g>
<!-- Node49&#45;&gt;Node50 -->
<g id="edge1" class="edge"><title>Node49&#45;&gt;Node50</title>
<path fill="none" stroke="midnightblue" d="M100.391,-743.369C112.054,-745.276 124.455,-747.228 136,-748.898 179.569,-755.2 228.831,-761.323 266.614,-765.807"/>
<polygon fill="midnightblue" stroke="midnightblue" points="266.611,-769.331 276.952,-767.028 267.432,-762.379 266.611,-769.331"/>
</g>
<!-- Node52 -->
<g id="node4" class="node"><title>Node52</title>
<g id="a_node4"><a xlink:href="../../d0/de6/namespacemom__error__handler.html#a460cfb79a06c29fc249952c2a3710d67" target="_top" xlink:title="mom_error_handler::\lmom_error">
<polygon fill="white" stroke="black" points="695,-267.898 695,-297.898 788,-297.898 788,-267.898 695,-267.898"/>
<text text-anchor="start" x="703" y="-285.898" font-family="Helvetica,sans-Serif" font-size="10.00">mom_error_handler::</text>
<text text-anchor="middle" x="741.5" y="-274.898" font-family="Helvetica,sans-Serif" font-size="10.00">mom_error</text>
</a>
</g>
</g>
<!-- Node49&#45;&gt;Node52 -->
<g id="edge5" class="edge"><title>Node49&#45;&gt;Node52</title>
<path fill="none" stroke="midnightblue" d="M83.5261,-749.913C134.564,-772.062 237.089,-810.898 328.5,-810.898 328.5,-810.898 328.5,-810.898 474,-810.898 561.755,-810.898 602.819,-809.312 659,-741.898 714.967,-674.741 734.514,-394.066 739.253,-308.06"/>
<polygon fill="midnightblue" stroke="midnightblue" points="742.757,-308.078 739.793,-297.906 735.767,-307.706 742.757,-308.078"/>
</g>
<!-- Node54 -->
<g id="node6" class="node"><title>Node54</title>
<g id="a_node6"><a xlink:href="../../d9/d06/namespacemom__diag__mediator.html#a21267e25d12fa3e5d2540d2a299d2d2c" target="_top" xlink:title="Registers a diagnostic using the information encapsulated in the vardesc type argument and returns an...">
<polygon fill="white" stroke="black" points="141,-480.898 141,-510.898 236,-510.898 236,-480.898 141,-480.898"/>
<text text-anchor="start" x="149" y="-498.898" font-family="Helvetica,sans-Serif" font-size="10.00">mom_diag_mediator::</text>
<text text-anchor="middle" x="188.5" y="-487.898" font-family="Helvetica,sans-Serif" font-size="10.00">ocean_register_diag</text>
</a>
</g>
</g>
<!-- Node49&#45;&gt;Node54 -->
<g id="edge6" class="edge"><title>Node49&#45;&gt;Node54</title>
<path fill="none" stroke="midnightblue" d="M59.7463,-719.584C82.8601,-679.114 145.705,-569.077 173.712,-520.04"/>
<polygon fill="midnightblue" stroke="midnightblue" points="176.906,-521.504 178.827,-511.085 170.828,-518.032 176.906,-521.504"/>
</g>
<!-- Node55 -->
<g id="node7" class="node"><title>Node55</title>
<g id="a_node7"><a xlink:href="../../d5/d89/namespacemom__io.html#a23e82d1d89d9bb1c9bdf802ce80d4508" target="_top" xlink:title="This routine queries vardesc. ">
<polygon fill="white" stroke="black" points="278.5,-725.398 278.5,-744.398 380.5,-744.398 380.5,-725.398 278.5,-725.398"/>
<text text-anchor="middle" x="329.5" y="-732.398" font-family="Helvetica,sans-Serif" font-size="10.00">mom_io::query_vardesc</text>
</a>
</g>
</g>
<!-- Node49&#45;&gt;Node55 -->
<g id="edge30" class="edge"><title>Node49&#45;&gt;Node55</title>
<path fill="none" stroke="midnightblue" d="M100.292,-734.898C147.21,-734.898 217.919,-734.898 268.181,-734.898"/>
<polygon fill="midnightblue" stroke="midnightblue" points="268.263,-738.398 278.263,-734.898 268.263,-731.398 268.263,-738.398"/>
</g>
<!-- Node71 -->
<g id="node23" class="node"><title>Node71</title>
<g id="a_node23"><a xlink:href="../../d0/dbf/namespacemom__diag__to__z.html#a4dda95a2d7577d6d347e94ec54638bb5" target="_top" xlink:title="mom_diag_to_z::register\l_z_diag">
<polygon fill="white" stroke="black" points="136,-675.898 136,-705.898 241,-705.898 241,-675.898 136,-675.898"/>
<text text-anchor="start" x="144" y="-693.898" font-family="Helvetica,sans-Serif" font-size="10.00">mom_diag_to_z::register</text>
<text text-anchor="middle" x="188.5" y="-682.898" font-family="Helvetica,sans-Serif" font-size="10.00">_z_diag</text>
</a>
</g>
</g>
<!-- Node49&#45;&gt;Node71 -->
<g id="edge31" class="edge"><title>Node49&#45;&gt;Node71</title>
<path fill="none" stroke="midnightblue" d="M97.5938,-719.879C108.346,-716.413 119.898,-712.689 131.02,-709.104"/>
<polygon fill="midnightblue" stroke="midnightblue" points="132.209,-712.398 140.653,-705.999 130.061,-705.736 132.209,-712.398"/>
</g>
<!-- Node51 -->
<g id="node3" class="node"><title>Node51</title>
<g id="a_node3"><a xlink:href="../../d5/d89/namespacemom__io.html#ac4bc408e8b38dbd669842753f26ebf88" target="_top" xlink:title="Copies a string. ">
<polygon fill="white" stroke="black" points="418,-725.398 418,-744.398 528,-744.398 528,-725.398 418,-725.398"/>
<text text-anchor="middle" x="473" y="-732.398" font-family="Helvetica,sans-Serif" font-size="10.00">mom_io::safe_string_copy</text>
</a>
</g>
</g>
<!-- Node50&#45;&gt;Node51 -->
<g id="edge2" class="edge"><title>Node50&#45;&gt;Node51</title>
<path fill="none" stroke="midnightblue" d="M366.206,-763.309C384.473,-758.404 406.908,-752.379 426.411,-747.141"/>
<polygon fill="midnightblue" stroke="midnightblue" points="427.555,-750.458 436.305,-744.484 425.739,-743.698 427.555,-750.458"/>
</g>
<!-- Node51&#45;&gt;Node52 -->
<g id="edge3" class="edge"><title>Node51&#45;&gt;Node52</title>
<path fill="none" stroke="midnightblue" d="M528.057,-743.377C569.256,-746.576 624.59,-743.33 659,-710.898 718.133,-655.164 735.415,-391.509 739.443,-308.195"/>
<polygon fill="midnightblue" stroke="midnightblue" points="742.944,-308.249 739.908,-298.099 735.952,-307.927 742.944,-308.249"/>
</g>
<!-- Node53 -->
<g id="node5" class="node"><title>Node53</title>
<g id="a_node5"><a xlink:href="../../d0/de6/namespacemom__error__handler.html#ad5f00a53059c72fe2332d1436c80ca71" target="_top" xlink:title="mom_error_handler::\lis_root_pe">
<polygon fill="white" stroke="black" points="824,-160.898 824,-190.898 917,-190.898 917,-160.898 824,-160.898"/>
<text text-anchor="start" x="832" y="-178.898" font-family="Helvetica,sans-Serif" font-size="10.00">mom_error_handler::</text>
<text text-anchor="middle" x="870.5" y="-167.898" font-family="Helvetica,sans-Serif" font-size="10.00">is_root_pe</text>
</a>
</g>
</g>
<!-- Node52&#45;&gt;Node53 -->
<g id="edge4" class="edge"><title>Node52&#45;&gt;Node53</title>
<path fill="none" stroke="midnightblue" d="M760.427,-267.795C782.173,-249.473 818.99,-218.453 843.764,-197.581"/>
<polygon fill="midnightblue" stroke="midnightblue" points="846.272,-200.045 851.665,-190.925 841.762,-194.691 846.272,-200.045"/>
</g>
<!-- Node54&#45;&gt;Node52 -->
<g id="edge7" class="edge"><title>Node54&#45;&gt;Node52</title>
<path fill="none" stroke="midnightblue" d="M191.195,-480.633C199.732,-412.014 244.71,-130.735 418,-21.8981 518.665,41.3259 584.341,-45.3954 659,-137.898 689.96,-176.258 715.869,-227.932 729.697,-258.109"/>
<polygon fill="midnightblue" stroke="midnightblue" points="726.615,-259.788 733.913,-267.468 732.997,-256.913 726.615,-259.788"/>
</g>
<!-- Node54&#45;&gt;Node55 -->
<g id="edge8" class="edge"><title>Node54&#45;&gt;Node55</title>
<path fill="none" stroke="midnightblue" d="M198.407,-511.212C222.913,-553.349 291.28,-670.9 317.797,-716.495"/>
<polygon fill="midnightblue" stroke="midnightblue" points="314.871,-718.427 322.925,-725.312 320.923,-714.908 314.871,-718.427"/>
</g>
<!-- Node56 -->
<g id="node8" class="node"><title>Node56</title>
<g id="a_node8"><a xlink:href="../../d9/d06/namespacemom__diag__mediator.html#aab2007573b14ed73053282770d1b19a4" target="_top" xlink:title="mom_diag_mediator::\lregister_diag_field">
<polygon fill="white" stroke="black" points="282,-333.898 282,-363.898 377,-363.898 377,-333.898 282,-333.898"/>
<text text-anchor="start" x="290" y="-351.898" font-family="Helvetica,sans-Serif" font-size="10.00">mom_diag_mediator::</text>
<text text-anchor="middle" x="329.5" y="-340.898" font-family="Helvetica,sans-Serif" font-size="10.00">register_diag_field</text>
</a>
</g>
</g>
<!-- Node54&#45;&gt;Node56 -->
<g id="edge10" class="edge"><title>Node54&#45;&gt;Node56</title>
<path fill="none" stroke="midnightblue" d="M203.852,-480.72C228.303,-454.862 278.169,-402.126 306.865,-371.778"/>
<polygon fill="midnightblue" stroke="midnightblue" points="309.69,-373.884 314.018,-364.214 304.604,-369.075 309.69,-373.884"/>
</g>
<!-- Node55&#45;&gt;Node51 -->
<g id="edge9" class="edge"><title>Node55&#45;&gt;Node51</title>
<path fill="none" stroke="midnightblue" d="M380.786,-734.898C389.443,-734.898 398.548,-734.898 407.517,-734.898"/>
<polygon fill="midnightblue" stroke="midnightblue" points="407.555,-738.398 417.555,-734.898 407.555,-731.398 407.555,-738.398"/>
</g>
<!-- Node56&#45;&gt;Node52 -->
<g id="edge26" class="edge"><title>Node56&#45;&gt;Node52</title>
<path fill="none" stroke="midnightblue" d="M377.402,-334.079C390.448,-330.347 404.69,-326.629 418,-323.898 510.629,-304.892 620.142,-293.203 684.768,-287.393"/>
<polygon fill="midnightblue" stroke="midnightblue" points="685.092,-290.879 694.745,-286.511 684.475,-283.906 685.092,-290.879"/>
</g>
<!-- Node56&#45;&gt;Node53 -->
<g id="edge21" class="edge"><title>Node56&#45;&gt;Node53</title>
<path fill="none" stroke="midnightblue" d="M330.593,-333.67C331.786,-289.825 341.939,-163.049 418,-109.898 549.146,-18.2527 754.381,-112.29 835.176,-156.07"/>
<polygon fill="midnightblue" stroke="midnightblue" points="833.502,-159.144 843.951,-160.894 836.874,-153.01 833.502,-159.144"/>
</g>
<!-- Node57 -->
<g id="node9" class="node"><title>Node57</title>
<g id="a_node9"><a xlink:href="../../d9/d06/namespacemom__diag__mediator.html#a1b0bed2113a0c268eafd1bafbb48bd4f" target="_top" xlink:title="mom_diag_mediator::\lalloc_diag_with_id">
<polygon fill="white" stroke="black" points="425.5,-31.8981 425.5,-61.8981 520.5,-61.8981 520.5,-31.8981 425.5,-31.8981"/>
<text text-anchor="start" x="433.5" y="-49.8981" font-family="Helvetica,sans-Serif" font-size="10.00">mom_diag_mediator::</text>
<text text-anchor="middle" x="473" y="-38.8981" font-family="Helvetica,sans-Serif" font-size="10.00">alloc_diag_with_id</text>
</a>
</g>
</g>
<!-- Node56&#45;&gt;Node57 -->
<g id="edge11" class="edge"><title>Node56&#45;&gt;Node57</title>
<path fill="none" stroke="midnightblue" d="M331.53,-333.823C335.285,-289.49 351.737,-157.599 418,-76.8981 420.718,-73.5879 423.902,-70.5803 427.341,-67.8616"/>
<polygon fill="midnightblue" stroke="midnightblue" points="429.512,-70.6155 435.727,-62.0355 425.518,-64.8666 429.512,-70.6155"/>
</g>
<!-- Node58 -->
<g id="node10" class="node"><title>Node58</title>
<g id="a_node10"><a xlink:href="../../d9/d06/namespacemom__diag__mediator.html#a6e11afe7a97bf8e3333d33b0aebd6f6e" target="_top" xlink:title="mom_diag_mediator::\lassert">
<polygon fill="white" stroke="black" points="564,-245.898 564,-275.898 659,-275.898 659,-245.898 564,-245.898"/>
<text text-anchor="start" x="572" y="-263.898" font-family="Helvetica,sans-Serif" font-size="10.00">mom_diag_mediator::</text>
<text text-anchor="middle" x="611.5" y="-252.898" font-family="Helvetica,sans-Serif" font-size="10.00">assert</text>
</a>
</g>
</g>
<!-- Node56&#45;&gt;Node58 -->
<g id="edge12" class="edge"><title>Node56&#45;&gt;Node58</title>
<path fill="none" stroke="midnightblue" d="M348.314,-333.708C365.141,-320.221 391.662,-301.113 418,-290.898 461.711,-273.945 514.524,-266.555 553.766,-263.343"/>
<polygon fill="midnightblue" stroke="midnightblue" points="554.235,-266.818 563.945,-262.578 553.711,-259.837 554.235,-266.818"/>
</g>
<!-- Node59 -->
<g id="node11" class="node"><title>Node59</title>
<g id="a_node11"><a xlink:href="../../d9/d06/namespacemom__diag__mediator.html#a93abbf0b9659019bed9a2129ab292752" target="_top" xlink:title="Attaches &quot;cell_methods&quot; attribute to a variable based on defaults for axes_grp or optional arguments...">
<polygon fill="white" stroke="black" points="564,-147.898 564,-177.898 659,-177.898 659,-147.898 564,-147.898"/>
<text text-anchor="start" x="572" y="-165.898" font-family="Helvetica,sans-Serif" font-size="10.00">mom_diag_mediator::</text>
<text text-anchor="middle" x="611.5" y="-154.898" font-family="Helvetica,sans-Serif" font-size="10.00">attach_cell_methods</text>
</a>
</g>
</g>
<!-- Node56&#45;&gt;Node59 -->
<g id="edge14" class="edge"><title>Node56&#45;&gt;Node59</title>
<path fill="none" stroke="midnightblue" d="M334.66,-333.53C343.936,-302.421 369.418,-232.051 418,-197.898 457.579,-170.074 512.704,-162.377 553.826,-161.023"/>
<polygon fill="midnightblue" stroke="midnightblue" points="554.037,-164.52 563.96,-160.807 553.888,-157.521 554.037,-164.52"/>
</g>
<!-- Node60 -->
<g id="node12" class="node"><title>Node60</title>
<g id="a_node12"><a xlink:href="../../d9/d06/namespacemom__diag__mediator.html#a3f7442639213320f7429e2288a79fda2" target="_top" xlink:title="Returns a new diagnostic id, it may be necessary to expand the diagnostics array. ...">
<polygon fill="white" stroke="black" points="425.5,-207.898 425.5,-237.898 520.5,-237.898 520.5,-207.898 425.5,-207.898"/>
<text text-anchor="start" x="433.5" y="-225.898" font-family="Helvetica,sans-Serif" font-size="10.00">mom_diag_mediator::</text>
<text text-anchor="middle" x="473" y="-214.898" font-family="Helvetica,sans-Serif" font-size="10.00">get_new_diag_id</text>
</a>
</g>
</g>
<!-- Node56&#45;&gt;Node60 -->
<g id="edge16" class="edge"><title>Node56&#45;&gt;Node60</title>
<path fill="none" stroke="midnightblue" d="M341.676,-333.848C357.19,-313.666 386.875,-277.526 418,-252.898 422.363,-249.446 427.175,-246.161 432.075,-243.117"/>
<polygon fill="midnightblue" stroke="midnightblue" points="434.07,-246.004 440.912,-237.915 430.519,-239.972 434.07,-246.004"/>
</g>
<!-- Node62 -->
<g id="node14" class="node"><title>Node62</title>
<g id="a_node14"><a xlink:href="../../d9/d06/namespacemom__diag__mediator.html#a4b739f107cebe1ece8d29056c1144bff" target="_top" xlink:title="mom_diag_mediator::\lis_b_axes">
<polygon fill="white" stroke="black" points="425.5,-637.898 425.5,-667.898 520.5,-667.898 520.5,-637.898 425.5,-637.898"/>
<text text-anchor="start" x="433.5" y="-655.898" font-family="Helvetica,sans-Serif" font-size="10.00">mom_diag_mediator::</text>
<text text-anchor="middle" x="473" y="-644.898" font-family="Helvetica,sans-Serif" font-size="10.00">is_b_axes</text>
</a>
</g>
</g>
<!-- Node56&#45;&gt;Node62 -->
<g id="edge19" class="edge"><title>Node56&#45;&gt;Node62</title>
<path fill="none" stroke="midnightblue" d="M331.091,-363.945C333.648,-409.416 347.16,-547.22 418,-627.898 419.148,-629.206 420.379,-630.449 421.677,-631.632"/>
<polygon fill="midnightblue" stroke="midnightblue" points="419.651,-634.489 429.729,-637.756 423.888,-628.917 419.651,-634.489"/>
</g>
<!-- Node63 -->
<g id="node15" class="node"><title>Node63</title>
<g id="a_node15"><a xlink:href="../../d9/d06/namespacemom__diag__mediator.html#a84370fa96e03622edbfd5e343bcd9718" target="_top" xlink:title="mom_diag_mediator::\lis_layer_axes">
<polygon fill="white" stroke="black" points="425.5,-588.898 425.5,-618.898 520.5,-618.898 520.5,-588.898 425.5,-588.898"/>
<text text-anchor="start" x="433.5" y="-606.898" font-family="Helvetica,sans-Serif" font-size="10.00">mom_diag_mediator::</text>
<text text-anchor="middle" x="473" y="-595.898" font-family="Helvetica,sans-Serif" font-size="10.00">is_layer_axes</text>
</a>
</g>
</g>
<!-- Node56&#45;&gt;Node63 -->
<g id="edge20" class="edge"><title>Node56&#45;&gt;Node63</title>
<path fill="none" stroke="midnightblue" d="M332.301,-364.133C337.802,-404.29 357.841,-514.369 418,-578.898 419.347,-580.343 420.795,-581.712 422.32,-583.008"/>
<polygon fill="midnightblue" stroke="midnightblue" points="420.328,-585.887 430.487,-588.893 424.42,-580.207 420.328,-585.887"/>
</g>
<!-- Node64 -->
<g id="node16" class="node"><title>Node64</title>
<g id="a_node16"><a xlink:href="../../d9/d06/namespacemom__diag__mediator.html#a27fa63c9ff62b660bf457adbb8645bdf" target="_top" xlink:title="mom_diag_mediator::\lis_u_axes">
<polygon fill="white" stroke="black" points="425.5,-539.898 425.5,-569.898 520.5,-569.898 520.5,-539.898 425.5,-539.898"/>
<text text-anchor="start" x="433.5" y="-557.898" font-family="Helvetica,sans-Serif" font-size="10.00">mom_diag_mediator::</text>
<text text-anchor="middle" x="473" y="-546.898" font-family="Helvetica,sans-Serif" font-size="10.00">is_u_axes</text>
</a>
</g>
</g>
<!-- Node56&#45;&gt;Node64 -->
<g id="edge22" class="edge"><title>Node56&#45;&gt;Node64</title>
<path fill="none" stroke="midnightblue" d="M334.084,-364.066C342.819,-398.011 368.229,-480.952 418,-529.898 419.436,-531.311 420.967,-532.653 422.57,-533.928"/>
<polygon fill="midnightblue" stroke="midnightblue" points="420.847,-536.99 431.076,-539.749 424.8,-531.213 420.847,-536.99"/>
</g>
<!-- Node65 -->
<g id="node17" class="node"><title>Node65</title>
<g id="a_node17"><a xlink:href="../../d9/d06/namespacemom__diag__mediator.html#a9a30d653d812713d6fcff94f6f1fc3e6" target="_top" xlink:title="mom_diag_mediator::\lis_v_axes">
<polygon fill="white" stroke="black" points="425.5,-490.898 425.5,-520.898 520.5,-520.898 520.5,-490.898 425.5,-490.898"/>
<text text-anchor="start" x="433.5" y="-508.898" font-family="Helvetica,sans-Serif" font-size="10.00">mom_diag_mediator::</text>
<text text-anchor="middle" x="473" y="-497.898" font-family="Helvetica,sans-Serif" font-size="10.00">is_v_axes</text>
</a>
</g>
</g>
<!-- Node56&#45;&gt;Node65 -->
<g id="edge23" class="edge"><title>Node56&#45;&gt;Node65</title>
<path fill="none" stroke="midnightblue" d="M337.046,-363.909C349.365,-390.639 378.367,-446.867 418,-480.898 419.92,-482.547 421.968,-484.109 424.1,-485.586"/>
<polygon fill="midnightblue" stroke="midnightblue" points="422.31,-488.594 432.658,-490.865 425.984,-482.636 422.31,-488.594"/>
</g>
<!-- Node66 -->
<g id="node18" class="node"><title>Node66</title>
<g id="a_node18"><a xlink:href="../../d9/d06/namespacemom__diag__mediator.html#a65fe8d329cf5dbfd08c98874a7a64407" target="_top" xlink:title="Log a diagnostic to the available diagnostics file. ">
<polygon fill="white" stroke="black" points="425.5,-441.898 425.5,-471.898 520.5,-471.898 520.5,-441.898 425.5,-441.898"/>
<text text-anchor="start" x="433.5" y="-459.898" font-family="Helvetica,sans-Serif" font-size="10.00">mom_diag_mediator::</text>
<text text-anchor="middle" x="473" y="-448.898" font-family="Helvetica,sans-Serif" font-size="10.00">log_available_diag</text>
</a>
</g>
</g>
<!-- Node56&#45;&gt;Node66 -->
<g id="edge24" class="edge"><title>Node56&#45;&gt;Node66</title>
<path fill="none" stroke="midnightblue" d="M343.429,-364.209C359.45,-382.442 388.286,-412.933 418,-432.898 420.124,-434.325 422.346,-435.702 424.627,-437.024"/>
<polygon fill="midnightblue" stroke="midnightblue" points="423.17,-440.214 433.638,-441.85 426.475,-434.043 423.17,-440.214"/>
</g>
<!-- Node68 -->
<g id="node20" class="node"><title>Node68</title>
<g id="a_node20"><a xlink:href="../../d9/d06/namespacemom__diag__mediator.html#aca4a32fea8dade9f51e076a56b9bad2b" target="_top" xlink:title="Returns ID from register_diag_field_fms (the diag_manager routine) after expanding axes (axes&#45;group) ...">
<polygon fill="white" stroke="black" points="425.5,-382.398 425.5,-423.398 520.5,-423.398 520.5,-382.398 425.5,-382.398"/>
<text text-anchor="start" x="433.5" y="-411.398" font-family="Helvetica,sans-Serif" font-size="10.00">mom_diag_mediator::</text>
<text text-anchor="start" x="433.5" y="-400.398" font-family="Helvetica,sans-Serif" font-size="10.00">register_diag_field</text>
<text text-anchor="middle" x="473" y="-389.398" font-family="Helvetica,sans-Serif" font-size="10.00">_expand_axes</text>
</a>
</g>
</g>
<!-- Node56&#45;&gt;Node68 -->
<g id="edge27" class="edge"><title>Node56&#45;&gt;Node68</title>
<path fill="none" stroke="midnightblue" d="M369.916,-363.94C384.137,-369.367 400.475,-375.602 415.851,-381.47"/>
<polygon fill="midnightblue" stroke="midnightblue" points="414.682,-384.77 425.272,-385.066 417.178,-378.23 414.682,-384.77"/>
</g>
<!-- Node69 -->
<g id="node21" class="node"><title>Node69</title>
<g id="a_node21"><a xlink:href="../../d9/d06/namespacemom__diag__mediator.html#a085f313357879a914af6450f2ab8ec79" target="_top" xlink:title="mom_diag_mediator::\lset_diag_mask">
<polygon fill="white" stroke="black" points="425.5,-333.898 425.5,-363.898 520.5,-363.898 520.5,-333.898 425.5,-333.898"/>
<text text-anchor="start" x="433.5" y="-351.898" font-family="Helvetica,sans-Serif" font-size="10.00">mom_diag_mediator::</text>
<text text-anchor="middle" x="473" y="-340.898" font-family="Helvetica,sans-Serif" font-size="10.00">set_diag_mask</text>
</a>
</g>
</g>
<!-- Node56&#45;&gt;Node69 -->
<g id="edge28" class="edge"><title>Node56&#45;&gt;Node69</title>
<path fill="none" stroke="midnightblue" d="M377.225,-348.898C389.299,-348.898 402.434,-348.898 414.971,-348.898"/>
<polygon fill="midnightblue" stroke="midnightblue" points="415.325,-352.398 425.325,-348.898 415.324,-345.398 415.325,-352.398"/>
</g>
<!-- Node70 -->
<g id="node22" class="node"><title>Node70</title>
<g id="a_node22"><a xlink:href="../../d9/d06/namespacemom__diag__mediator.html#a5d1e1aa53cdd6bb335a6f841eded4f46" target="_top" xlink:title="mom_diag_mediator::\lset_diag_remap_axes">
<polygon fill="white" stroke="black" points="425.5,-119.898 425.5,-149.898 520.5,-149.898 520.5,-119.898 425.5,-119.898"/>
<text text-anchor="start" x="433.5" y="-137.898" font-family="Helvetica,sans-Serif" font-size="10.00">mom_diag_mediator::</text>
<text text-anchor="middle" x="473" y="-126.898" font-family="Helvetica,sans-Serif" font-size="10.00">set_diag_remap_axes</text>
</a>
</g>
</g>
<!-- Node56&#45;&gt;Node70 -->
<g id="edge29" class="edge"><title>Node56&#45;&gt;Node70</title>
<path fill="none" stroke="midnightblue" d="M334.278,-333.741C343.411,-299.769 369.581,-216.478 418,-164.898 421.14,-161.553 424.739,-158.488 428.555,-155.703"/>
<polygon fill="midnightblue" stroke="midnightblue" points="430.724,-158.466 437.164,-150.053 426.883,-152.614 430.724,-158.466"/>
</g>
<!-- Node58&#45;&gt;Node52 -->
<g id="edge13" class="edge"><title>Node58&#45;&gt;Node52</title>
<path fill="none" stroke="midnightblue" d="M659.073,-268.903C667.396,-270.333 676.145,-271.837 684.695,-273.307"/>
<polygon fill="midnightblue" stroke="midnightblue" points="684.156,-276.765 694.604,-275.01 685.341,-269.866 684.156,-276.765"/>
</g>
<!-- Node59&#45;&gt;Node52 -->
<g id="edge15" class="edge"><title>Node59&#45;&gt;Node52</title>
<path fill="none" stroke="midnightblue" d="M646.006,-178.158C650.553,-180.803 655.018,-183.732 659,-186.898 685.355,-207.85 709.495,-238.335 724.547,-259.301"/>
<polygon fill="midnightblue" stroke="midnightblue" points="721.804,-261.484 730.422,-267.648 727.528,-257.456 721.804,-261.484"/>
</g>
<!-- Node60&#45;&gt;Node58 -->
<g id="edge17" class="edge"><title>Node60&#45;&gt;Node58</title>
<path fill="none" stroke="midnightblue" d="M520.594,-235.869C531.237,-238.832 542.665,-242.014 553.683,-245.081"/>
<polygon fill="midnightblue" stroke="midnightblue" points="553.08,-248.546 563.653,-247.856 554.958,-241.803 553.08,-248.546"/>
</g>
<!-- Node61 -->
<g id="node13" class="node"><title>Node61</title>
<g id="a_node13"><a xlink:href="../../d9/d06/namespacemom__diag__mediator.html#a883862f004e30bbc5211f38635511ba0" target="_top" xlink:title="Initializes a diag_type (used after allocating new memory) ">
<polygon fill="white" stroke="black" points="564,-196.898 564,-226.898 659,-226.898 659,-196.898 564,-196.898"/>
<text text-anchor="start" x="572" y="-214.898" font-family="Helvetica,sans-Serif" font-size="10.00">mom_diag_mediator::</text>
<text text-anchor="middle" x="611.5" y="-203.898" font-family="Helvetica,sans-Serif" font-size="10.00">initialize_diag_type</text>
</a>
</g>
</g>
<!-- Node60&#45;&gt;Node61 -->
<g id="edge18" class="edge"><title>Node60&#45;&gt;Node61</title>
<path fill="none" stroke="midnightblue" d="M520.594,-219.143C531.237,-218.286 542.665,-217.365 553.683,-216.477"/>
<polygon fill="midnightblue" stroke="midnightblue" points="553.966,-219.965 563.653,-215.673 553.404,-212.988 553.966,-219.965"/>
</g>
<!-- Node67 -->
<g id="node19" class="node"><title>Node67</title>
<g id="a_node19"><a xlink:href="../../d9/d06/namespacemom__diag__mediator.html#ae002ca447acba252bf7bdc042e75a01e" target="_top" xlink:title="mom_diag_mediator::\ldescribe_option">
<polygon fill="white" stroke="black" points="564,-441.898 564,-471.898 659,-471.898 659,-441.898 564,-441.898"/>
<text text-anchor="start" x="572" y="-459.898" font-family="Helvetica,sans-Serif" font-size="10.00">mom_diag_mediator::</text>
<text text-anchor="middle" x="611.5" y="-448.898" font-family="Helvetica,sans-Serif" font-size="10.00">describe_option</text>
</a>
</g>
</g>
<!-- Node66&#45;&gt;Node67 -->
<g id="edge25" class="edge"><title>Node66&#45;&gt;Node67</title>
<path fill="none" stroke="midnightblue" d="M520.594,-456.898C531.129,-456.898 542.432,-456.898 553.346,-456.898"/>
<polygon fill="midnightblue" stroke="midnightblue" points="553.653,-460.398 563.653,-456.898 553.653,-453.398 553.653,-460.398"/>
</g>
<!-- Node71&#45;&gt;Node52 -->
<g id="edge33" class="edge"><title>Node71&#45;&gt;Node52</title>
<path fill="none" stroke="midnightblue" d="M241.265,-702.441C311.228,-715.148 437.601,-727.639 528,-676.898 670.461,-596.935 722.243,-382.636 736.21,-308.531"/>
<polygon fill="midnightblue" stroke="midnightblue" points="739.731,-308.728 738.069,-298.264 732.843,-307.48 739.731,-308.728"/>
</g>
<!-- Node71&#45;&gt;Node55 -->
<g id="edge32" class="edge"><title>Node71&#45;&gt;Node55</title>
<path fill="none" stroke="midnightblue" d="M236.947,-705.917C253.751,-711.236 272.473,-717.163 288.586,-722.264"/>
<polygon fill="midnightblue" stroke="midnightblue" points="287.651,-725.639 298.241,-725.32 289.764,-718.965 287.651,-725.639"/>
</g>
</g>
</svg>
        <g id="navigator" transform="translate(0 0)" fill="#404254">
                <rect fill="#f2f5e9" fill-opacity="0.5" stroke="#606060" stroke-width=".5" x="0" y="0" width="60" height="60"/>
                <use id="zoomplus" xlink:href="#zoomPlus" x="17" y="9" onmousedown="handleZoom(evt,'in')"/>
                <use id="zoomminus" xlink:href="#zoomMin" x="42" y="9" onmousedown="handleZoom(evt,'out')"/>
                <use id="reset" xlink:href="#resetDef" x="30" y="36" onmousedown="handleReset()"/>
                <g id="arrowUp" xlink:href="#dirArrow" transform="translate(30 24)" onmousedown="handlePan(0,-1)">
                  <use xlink:href="#rim" fill="#404040">
                        <set attributeName="fill" to="#808080" begin="arrowUp.mouseover" end="arrowUp.mouseout"/>
                  </use>
                  <path fill="none" stroke="white" stroke-width="1.5" d="M0,-3.0v7 M-2.5,-0.5L0,-3.0L2.5,-0.5"/>
                </g>
                <g id="arrowRight" xlink:href="#dirArrow" transform="rotate(90) translate(36 -43)" onmousedown="handlePan(1,0)">
                  <use xlink:href="#rim" fill="#404040">
                        <set attributeName="fill" to="#808080" begin="arrowRight.mouseover" end="arrowRight.mouseout"/>
                  </use>
                  <path fill="none" stroke="white" stroke-width="1.5" d="M0,-3.0v7 M-2.5,-0.5L0,-3.0L2.5,-0.5"/>
                </g>
                <g id="arrowDown" xlink:href="#dirArrow" transform="rotate(180) translate(-30 -48)" onmousedown="handlePan(0,1)">
                  <use xlink:href="#rim" fill="#404040">
                        <set attributeName="fill" to="#808080" begin="arrowDown.mouseover" end="arrowDown.mouseout"/>
                  </use>
                  <path fill="none" stroke="white" stroke-width="1.5" d="M0,-3.0v7 M-2.5,-0.5L0,-3.0L2.5,-0.5"/>
                </g>
                <g id="arrowLeft" xlink:href="#dirArrow" transform="rotate(270) translate(-36 17)" onmousedown="handlePan(-1,0)">
                  <use xlink:href="#rim" fill="#404040">
                        <set attributeName="fill" to="#808080" begin="arrowLeft.mouseover" end="arrowLeft.mouseout"/>
                  </use>
                  <path fill="none" stroke="white" stroke-width="1.5" d="M0,-3.0v7 M-2.5,-0.5L0,-3.0L2.5,-0.5"/>
                </g>
        </g>
        <svg viewBox="0 0 15 15" width="100%" height="30px" preserveAspectRatio="xMaxYMin meet">
         <g id="arrow_out" transform="scale(0.3 0.3)">
          <a xlink:href="namespacemom__diag__to__z_a90526b2f59f94c6af2f525a221029772_cgraph_org.svg" target="_base">
           <rect id="button" ry="5" rx="5" y="6" x="6" height="38" width="38"
                fill="#f2f5e9" fill-opacity="0.5" stroke="#606060" stroke-width="1.0"/>
           <path id="arrow"
             d="M 11.500037,31.436501 C 11.940474,20.09759 22.043105,11.32322 32.158766,21.979434 L 37.068811,17.246167 C 37.068811,17.246167 37.088388,32 37.088388,32 L 22.160133,31.978069 C 22.160133,31.978069 26.997745,27.140456 26.997745,27.140456 C 18.528582,18.264221 13.291696,25.230495 11.500037,31.436501 z"
             style="fill:#404040;"/>
          </a>
         </g>
        </svg>
</svg>
