<?xml version="1.0" encoding="UTF-8" standalone="no"?>
<!DOCTYPE svg PUBLIC "-//W3C//DTD SVG 1.1//EN"
 "http://www.w3.org/Graphics/SVG/1.1/DTD/svg11.dtd">
<!-- Generated by graphviz version 2.38.0 (20140413.2041)
 -->
<!-- Title: mom_restart::restore_state Pages: 1 -->
<svg width="519pt" height="137pt"
 viewBox="0.00 0.00 519.00 137.00" xmlns="http://www.w3.org/2000/svg" xmlns:xlink="http://www.w3.org/1999/xlink">
<g id="graph0" class="graph" transform="scale(1 1) rotate(0) translate(4 133)">
<title>mom_restart::restore_state</title>
<polygon fill="white" stroke="none" points="-4,4 -4,-133 515,-133 515,4 -4,4"/>
<!-- Node135 -->
<g id="node1" class="node"><title>Node135</title>
<polygon fill="#bfbfbf" stroke="black" points="0,-49.5 0,-79.5 107,-79.5 107,-49.5 0,-49.5"/>
<text text-anchor="start" x="8" y="-67.5" font-family="Helvetica,sans-Serif" font-size="10.00">mom_restart::restore</text>
<text text-anchor="middle" x="53.5" y="-56.5" font-family="Helvetica,sans-Serif" font-size="10.00">_state</text>
</g>
<!-- Node136 -->
<g id="node2" class="node"><title>Node136</title>
<g id="a_node2"><a xlink:href="../../df/da2/namespacemom__ice__shelf.html#ae315e8464ef8a20062e3bccb61886755" target="_top" xlink:title="mom_ice_shelf::initialize\l_ice_shelf">
<polygon fill="white" stroke="black" points="143,-98.5 143,-128.5 267,-128.5 267,-98.5 143,-98.5"/>
<text text-anchor="start" x="151" y="-116.5" font-family="Helvetica,sans-Serif" font-size="10.00">mom_ice_shelf::initialize</text>
<text text-anchor="middle" x="205" y="-105.5" font-family="Helvetica,sans-Serif" font-size="10.00">_ice_shelf</text>
</a>
</g>
</g>
<!-- Node135&#45;&gt;Node136 -->
<g id="edge1" class="edge"><title>Node135&#45;&gt;Node136</title>
<path fill="none" stroke="midnightblue" d="M110.209,-82.7591C125.977,-87.9273 142.956,-93.4924 158.077,-98.4484"/>
<polygon fill="midnightblue" stroke="midnightblue" points="111.168,-79.3902 100.575,-79.6014 108.987,-86.042 111.168,-79.3902"/>
</g>
<!-- Node139 -->
<g id="node5" class="node"><title>Node139</title>
<g id="a_node5"><a xlink:href="../../d6/d62/namespacemom__state__initialization.html#af4e854627c6572332ba3fd895f169321" target="_top" xlink:title="mom_state_initialization\l::mom_initialize_state">
<polygon fill="white" stroke="black" points="144,-49.5 144,-79.5 266,-79.5 266,-49.5 144,-49.5"/>
<text text-anchor="start" x="152" y="-67.5" font-family="Helvetica,sans-Serif" font-size="10.00">mom_state_initialization</text>
<text text-anchor="middle" x="205" y="-56.5" font-family="Helvetica,sans-Serif" font-size="10.00">::mom_initialize_state</text>
</a>
</g>
</g>
<!-- Node135&#45;&gt;Node139 -->
<g id="edge4" class="edge"><title>Node135&#45;&gt;Node139</title>
<path fill="none" stroke="midnightblue" d="M117.372,-64.5C126.144,-64.5 135.139,-64.5 143.858,-64.5"/>
<polygon fill="midnightblue" stroke="midnightblue" points="117.208,-61.0001 107.208,-64.5 117.208,-68.0001 117.208,-61.0001"/>
</g>
<!-- Node141 -->
<g id="node7" class="node"><title>Node141</title>
<g id="a_node7"><a xlink:href="../../dc/ded/namespacemom__surface__forcing.html#ad01961191fdfc928f233901e285f4beb" target="_top" xlink:title="mom_surface_forcing\l::surface_forcing_init">
<polygon fill="white" stroke="black" points="150,-0.5 150,-30.5 260,-30.5 260,-0.5 150,-0.5"/>
<text text-anchor="start" x="158" y="-18.5" font-family="Helvetica,sans-Serif" font-size="10.00">mom_surface_forcing</text>
<text text-anchor="middle" x="205" y="-7.5" font-family="Helvetica,sans-Serif" font-size="10.00">::surface_forcing_init</text>
</a>
</g>
</g>
<!-- Node135&#45;&gt;Node141 -->
<g id="edge7" class="edge"><title>Node135&#45;&gt;Node141</title>
<path fill="none" stroke="midnightblue" d="M110.209,-46.2409C125.977,-41.0727 142.956,-35.5076 158.077,-30.5516"/>
<polygon fill="midnightblue" stroke="midnightblue" points="108.987,-42.958 100.575,-49.3986 111.168,-49.6098 108.987,-42.958"/>
</g>
<!-- Node137 -->
<g id="node3" class="node"><title>Node137</title>
<g id="a_node3"><a xlink:href="../../de/dbc/MOM__driver_8F90.html#a08fffeb2d8e8acbf9ed4609be6d258c6" target="_top" xlink:title="mom_main">
<polygon fill="white" stroke="black" points="446,-93 446,-112 511,-112 511,-93 446,-93"/>
<text text-anchor="middle" x="478.5" y="-100" font-family="Helvetica,sans-Serif" font-size="10.00">mom_main</text>
</a>
</g>
</g>
<!-- Node136&#45;&gt;Node137 -->
<g id="edge2" class="edge"><title>Node136&#45;&gt;Node137</title>
<path fill="none" stroke="midnightblue" d="M277.439,-122.429C316.724,-125.804 366.235,-127.542 410,-121.5 423.507,-119.635 438.115,-115.765 450.276,-112.002"/>
<polygon fill="midnightblue" stroke="midnightblue" points="277.7,-118.938 267.423,-121.515 277.063,-125.909 277.7,-118.938"/>
</g>
<!-- Node138 -->
<g id="node4" class="node"><title>Node138</title>
<g id="a_node4"><a xlink:href="../../d5/d6d/ice__shelf__driver_8F90.html#aec5bef92f0dad343f545cd8d62e378d8" target="_top" xlink:title="shelf_main">
<polygon fill="white" stroke="black" points="324.5,-93 324.5,-112 388.5,-112 388.5,-93 324.5,-93"/>
<text text-anchor="middle" x="356.5" y="-100" font-family="Helvetica,sans-Serif" font-size="10.00">shelf_main</text>
</a>
</g>
</g>
<!-- Node136&#45;&gt;Node138 -->
<g id="edge3" class="edge"><title>Node136&#45;&gt;Node138</title>
<path fill="none" stroke="midnightblue" d="M277.469,-108.241C293.992,-107.026 310.728,-105.794 324.441,-104.785"/>
<polygon fill="midnightblue" stroke="midnightblue" points="276.955,-104.77 267.239,-108.994 277.469,-111.751 276.955,-104.77"/>
</g>
<!-- Node140 -->
<g id="node6" class="node"><title>Node140</title>
<g id="a_node6"><a xlink:href="../../da/d01/namespacemom.html#afebdc0103ad9cbe0ed4a54e522dc4104" target="_top" xlink:title="This subroutine initializes MOM. ">
<polygon fill="white" stroke="black" points="303,-55 303,-74 410,-74 410,-55 303,-55"/>
<text text-anchor="middle" x="356.5" y="-62" font-family="Helvetica,sans-Serif" font-size="10.00">mom::initialize_mom</text>
</a>
</g>
</g>
<!-- Node139&#45;&gt;Node140 -->
<g id="edge5" class="edge"><title>Node139&#45;&gt;Node140</title>
<path fill="none" stroke="midnightblue" d="M276.589,-64.5C285.343,-64.5 294.173,-64.5 302.598,-64.5"/>
<polygon fill="midnightblue" stroke="midnightblue" points="276.376,-61.0001 266.376,-64.5 276.376,-68.0001 276.376,-61.0001"/>
</g>
<!-- Node140&#45;&gt;Node137 -->
<g id="edge6" class="edge"><title>Node140&#45;&gt;Node137</title>
<path fill="none" stroke="midnightblue" d="M397.543,-77.1804C413.757,-82.3148 432.166,-88.1441 447.229,-92.9141"/>
<polygon fill="midnightblue" stroke="midnightblue" points="398.371,-73.7713 387.781,-74.089 396.258,-80.4447 398.371,-73.7713"/>
</g>
</g>
</svg>
