<?xml version="1.0" encoding="UTF-8" standalone="no"?>
<!DOCTYPE svg PUBLIC "-//W3C//DTD SVG 1.1//EN"
 "http://www.w3.org/Graphics/SVG/1.1/DTD/svg11.dtd">
<!-- Generated by graphviz version 2.38.0 (20140413.2041)
 -->
<!-- Title: mom_open_boundary::open_boundary_config Pages: 1 -->
<!--zoomable 284 -->
<svg id="main" version="1.1" xmlns="http://www.w3.org/2000/svg" xmlns:xlink="http://www.w3.org/1999/xlink" xml:space="preserve" onload="init(evt)">
<style type="text/css"><![CDATA[
.edge:hover path { stroke: red; }
.edge:hover polygon { stroke: red; fill: red; }
]]></style>
<script type="text/javascript"><![CDATA[
var edges = document.getElementsByTagName('g');
if (edges && edges.length) {
  for (var i=0;i<edges.length;i++) {
    if (edges[i].id.substr(0,4)=='edge') {
      edges[i].setAttribute('class','edge');
    }
  }
}
]]></script>
        <defs>
                <circle id="rim" cx="0" cy="0" r="7"/>
                <circle id="rim2" cx="0" cy="0" r="3.5"/>
                <g id="zoomPlus">
                        <use xlink:href="#rim" fill="#404040">
                                <set attributeName="fill" to="#808080" begin="zoomplus.mouseover" end="zoomplus.mouseout"/>
                        </use>
                        <path d="M-4,0h8M0,-4v8" fill="none" stroke="white" stroke-width="1.5" pointer-events="none"/>
                </g>
                <g id="zoomMin">
                        <use xlink:href="#rim" fill="#404040">
                                <set attributeName="fill" to="#808080" begin="zoomminus.mouseover" end="zoomminus.mouseout"/>
                        </use>
                        <path d="M-4,0h8" fill="none" stroke="white" stroke-width="1.5" pointer-events="none"/>
                </g>
                <g id="dirArrow">
                        <path fill="none" stroke="white" stroke-width="1.5" d="M0,-3.0v7 M-2.5,-0.5L0,-3.0L2.5,-0.5"/>
                </g>
               <g id="resetDef">
                       <use xlink:href="#rim2" fill="#404040">
                               <set attributeName="fill" to="#808080" begin="reset.mouseover" end="reset.mouseout"/>
                       </use>
               </g>
        </defs>

<script type="text/javascript">
var viewWidth = 771;
var viewHeight = 284;
var sectionId = 'dynsection-0';
</script>
<script xlink:href="../../svgpan.js"/>
<svg id="graph" class="graph">
<g id="viewport">
<title>mom_open_boundary::open_boundary_config</title>
<polygon fill="white" stroke="none" points="-4,4 -4,-279.678 767,-279.678 767,4 -4,4"/>
<!-- Node0 -->
<g id="node1" class="node"><title>Node0</title>
<polygon fill="#bfbfbf" stroke="black" points="0,-132.178 0,-162.178 100,-162.178 100,-132.178 0,-132.178"/>
<text text-anchor="start" x="8" y="-150.178" font-family="Helvetica,sans-Serif" font-size="10.00">mom_open_boundary::</text>
<text text-anchor="middle" x="50" y="-139.178" font-family="Helvetica,sans-Serif" font-size="10.00">open_boundary_config</text>
</g>
<!-- Node1 -->
<g id="node2" class="node"><title>Node1</title>
<g id="a_node2"><a xlink:href="../../d9/def/namespacemom__file__parser.html#a17c0ef1bb1912f02faa0aaa1e0f64210" target="_top" xlink:title="mom_file_parser::log\l_version">
<polygon fill="white" stroke="black" points="278,-245.178 278,-275.178 370,-275.178 370,-245.178 278,-245.178"/>
<text text-anchor="start" x="286" y="-263.178" font-family="Helvetica,sans-Serif" font-size="10.00">mom_file_parser::log</text>
<text text-anchor="middle" x="324" y="-252.178" font-family="Helvetica,sans-Serif" font-size="10.00">_version</text>
</a>
</g>
</g>
<!-- Node0&#45;&gt;Node1 -->
<g id="edge1" class="edge"><title>Node0&#45;&gt;Node1</title>
<path fill="none" stroke="midnightblue" d="M61.709,-162.304C76.1956,-181.498 103.943,-214.044 136,-230.178 177.116,-250.871 229.183,-257.904 267.929,-260.028"/>
<polygon fill="midnightblue" stroke="midnightblue" points="267.831,-263.527 277.98,-260.486 268.15,-256.534 267.831,-263.527"/>
</g>
<!-- Node3 -->
<g id="node4" class="node"><title>Node3</title>
<g id="a_node4"><a xlink:href="../../d0/de6/namespacemom__error__handler.html#a460cfb79a06c29fc249952c2a3710d67" target="_top" xlink:title="mom_error_handler::\lmom_error">
<polygon fill="white" stroke="black" points="541,-144.178 541,-174.178 634,-174.178 634,-144.178 541,-144.178"/>
<text text-anchor="start" x="549" y="-162.178" font-family="Helvetica,sans-Serif" font-size="10.00">mom_error_handler::</text>
<text text-anchor="middle" x="587.5" y="-151.178" font-family="Helvetica,sans-Serif" font-size="10.00">mom_error</text>
</a>
</g>
</g>
<!-- Node0&#45;&gt;Node3 -->
<g id="edge3" class="edge"><title>Node0&#45;&gt;Node3</title>
<path fill="none" stroke="midnightblue" d="M70.2856,-162.264C86.7106,-174.094 111.483,-189.617 136,-196.178 274.549,-233.253 444.884,-198.533 531.004,-175.633"/>
<polygon fill="midnightblue" stroke="midnightblue" points="532.092,-178.964 540.83,-172.973 530.263,-172.207 532.092,-178.964"/>
</g>
<!-- Node4 -->
<g id="node5" class="node"><title>Node4</title>
<g id="a_node5"><a xlink:href="../../de/ddd/namespacemom__open__boundary.html#a709a33b9e33b5689d5ca73349ed51fb6" target="_top" xlink:title="Deallocate open boundary data. ">
<polygon fill="white" stroke="black" points="136,-157.178 136,-187.178 238,-187.178 238,-157.178 136,-157.178"/>
<text text-anchor="start" x="144" y="-175.178" font-family="Helvetica,sans-Serif" font-size="10.00">mom_open_boundary::</text>
<text text-anchor="middle" x="187" y="-164.178" font-family="Helvetica,sans-Serif" font-size="10.00">open_boundary_dealloc</text>
</a>
</g>
</g>
<!-- Node0&#45;&gt;Node4 -->
<g id="edge5" class="edge"><title>Node0&#45;&gt;Node4</title>
<path fill="none" stroke="midnightblue" d="M100.12,-156.274C108.465,-157.82 117.215,-159.44 125.806,-161.031"/>
<polygon fill="midnightblue" stroke="midnightblue" points="125.313,-164.499 135.783,-162.879 126.588,-157.616 125.313,-164.499"/>
</g>
<!-- Node5 -->
<g id="node6" class="node"><title>Node5</title>
<g id="a_node6"><a xlink:href="../../df/d46/namespacemom__string__functions.html#a60262e56f544e4613754df43bf50652e" target="_top" xlink:title="Returns string with all spaces removed. ">
<polygon fill="white" stroke="black" points="139.5,-108.178 139.5,-138.178 234.5,-138.178 234.5,-108.178 139.5,-108.178"/>
<text text-anchor="start" x="147.5" y="-126.178" font-family="Helvetica,sans-Serif" font-size="10.00">mom_string_functions</text>
<text text-anchor="middle" x="187" y="-115.178" font-family="Helvetica,sans-Serif" font-size="10.00">::remove_spaces</text>
</a>
</g>
</g>
<!-- Node0&#45;&gt;Node5 -->
<g id="edge6" class="edge"><title>Node0&#45;&gt;Node5</title>
<path fill="none" stroke="midnightblue" d="M100.12,-138.445C109.632,-136.754 119.671,-134.97 129.4,-133.24"/>
<polygon fill="midnightblue" stroke="midnightblue" points="130.159,-136.66 139.392,-131.464 128.933,-129.768 130.159,-136.66"/>
</g>
<!-- Node6 -->
<g id="node7" class="node"><title>Node6</title>
<g id="a_node7"><a xlink:href="../../de/ddd/namespacemom__open__boundary.html#ab7c14cc1f67490ff9326c35471fb7ef7" target="_top" xlink:title="Parse an OBC_SEGMENT_%%% string starting with &quot;I=&quot; and configure placement and type of OBC accordingl...">
<polygon fill="white" stroke="black" points="137,-59.1779 137,-89.1779 237,-89.1779 237,-59.1779 137,-59.1779"/>
<text text-anchor="start" x="145" y="-77.1779" font-family="Helvetica,sans-Serif" font-size="10.00">mom_open_boundary::</text>
<text text-anchor="middle" x="187" y="-66.1779" font-family="Helvetica,sans-Serif" font-size="10.00">setup_u_point_obc</text>
</a>
</g>
</g>
<!-- Node0&#45;&gt;Node6 -->
<g id="edge7" class="edge"><title>Node0&#45;&gt;Node6</title>
<path fill="none" stroke="midnightblue" d="M76.0133,-132.094C92.8001,-122.136 115.509,-108.982 136,-98.1779 138.853,-96.6734 141.816,-95.1517 144.811,-93.6431"/>
<polygon fill="midnightblue" stroke="midnightblue" points="146.404,-96.7598 153.813,-89.1865 143.298,-90.4864 146.404,-96.7598"/>
</g>
<!-- Node10 -->
<g id="node11" class="node"><title>Node10</title>
<g id="a_node11"><a xlink:href="../../de/ddd/namespacemom__open__boundary.html#ae298511b7acc78ed5cd780ad967318cc" target="_top" xlink:title="Parse an OBC_SEGMENT_%%% string starting with &quot;J=&quot; and configure placement and type of OBC accordingl...">
<polygon fill="white" stroke="black" points="137,-10.1779 137,-40.1779 237,-40.1779 237,-10.1779 137,-10.1779"/>
<text text-anchor="start" x="145" y="-28.1779" font-family="Helvetica,sans-Serif" font-size="10.00">mom_open_boundary::</text>
<text text-anchor="middle" x="187" y="-17.1779" font-family="Helvetica,sans-Serif" font-size="10.00">setup_v_point_obc</text>
</a>
</g>
</g>
<!-- Node0&#45;&gt;Node10 -->
<g id="edge14" class="edge"><title>Node0&#45;&gt;Node10</title>
<path fill="none" stroke="midnightblue" d="M61.2347,-131.85C75.8085,-110.953 104.311,-73.3638 136,-49.1779 137.607,-47.9511 139.287,-46.7641 141.018,-45.6186"/>
<polygon fill="midnightblue" stroke="midnightblue" points="143.203,-48.3892 149.979,-40.2448 139.603,-42.3857 143.203,-48.3892"/>
</g>
<!-- Node2 -->
<g id="node3" class="node"><title>Node2</title>
<g id="a_node3"><a xlink:href="../../d0/de6/namespacemom__error__handler.html#ad5f00a53059c72fe2332d1436c80ca71" target="_top" xlink:title="mom_error_handler::\lis_root_pe">
<polygon fill="white" stroke="black" points="670,-202.178 670,-232.178 763,-232.178 763,-202.178 670,-202.178"/>
<text text-anchor="start" x="678" y="-220.178" font-family="Helvetica,sans-Serif" font-size="10.00">mom_error_handler::</text>
<text text-anchor="middle" x="716.5" y="-209.178" font-family="Helvetica,sans-Serif" font-size="10.00">is_root_pe</text>
</a>
</g>
</g>
<!-- Node1&#45;&gt;Node2 -->
<g id="edge2" class="edge"><title>Node1&#45;&gt;Node2</title>
<path fill="none" stroke="midnightblue" d="M370.177,-255.203C441.94,-247.301 581.815,-231.899 659.719,-223.32"/>
<polygon fill="midnightblue" stroke="midnightblue" points="660.269,-226.781 669.825,-222.207 659.502,-219.823 660.269,-226.781"/>
</g>
<!-- Node3&#45;&gt;Node2 -->
<g id="edge4" class="edge"><title>Node3&#45;&gt;Node2</title>
<path fill="none" stroke="midnightblue" d="M621.536,-174.265C637.411,-181.515 656.615,-190.286 673.514,-198.003"/>
<polygon fill="midnightblue" stroke="midnightblue" points="672.079,-201.195 682.629,-202.166 674.987,-194.828 672.079,-201.195"/>
</g>
<!-- Node6&#45;&gt;Node3 -->
<g id="edge13" class="edge"><title>Node6&#45;&gt;Node3</title>
<path fill="none" stroke="midnightblue" d="M224.175,-89.1888C267.511,-106.435 342.704,-134.041 410,-147.178 449.919,-154.971 495.769,-157.912 530.731,-158.936"/>
<polygon fill="midnightblue" stroke="midnightblue" points="530.666,-162.436 540.75,-159.186 530.841,-155.438 530.666,-162.436"/>
</g>
<!-- Node7 -->
<g id="node8" class="node"><title>Node7</title>
<g id="a_node8"><a xlink:href="../../de/ddd/namespacemom__open__boundary.html#ad40be6b6ce4c94040b7de59bde9be77f" target="_top" xlink:title="Parse an OBC_SEGMENT_%%% string. ">
<polygon fill="white" stroke="black" points="274,-59.1779 274,-89.1779 374,-89.1779 374,-59.1779 274,-59.1779"/>
<text text-anchor="start" x="282" y="-77.1779" font-family="Helvetica,sans-Serif" font-size="10.00">mom_open_boundary::</text>
<text text-anchor="middle" x="324" y="-66.1779" font-family="Helvetica,sans-Serif" font-size="10.00">parse_segment_str</text>
</a>
</g>
</g>
<!-- Node6&#45;&gt;Node7 -->
<g id="edge8" class="edge"><title>Node6&#45;&gt;Node7</title>
<path fill="none" stroke="midnightblue" d="M237.12,-74.1779C245.681,-74.1779 254.67,-74.1779 263.475,-74.1779"/>
<polygon fill="midnightblue" stroke="midnightblue" points="263.69,-77.678 273.69,-74.1779 263.69,-70.678 263.69,-77.678"/>
</g>
<!-- Node7&#45;&gt;Node3 -->
<g id="edge10" class="edge"><title>Node7&#45;&gt;Node3</title>
<path fill="none" stroke="midnightblue" d="M348.7,-89.3337C365.298,-99.3559 388.303,-112.091 410,-120.178 449.209,-134.791 495.456,-144.762 530.772,-150.962"/>
<polygon fill="midnightblue" stroke="midnightblue" points="530.448,-154.457 540.894,-152.689 531.625,-147.557 530.448,-154.457"/>
</g>
<!-- Node8 -->
<g id="node9" class="node"><title>Node8</title>
<g id="a_node9"><a xlink:href="../../df/d46/namespacemom__string__functions.html#aad76dee92b69dab4488da049fe11cdb8" target="_top" xlink:title="Returns the string corresponding to the nth word in the argument or &quot;&quot; if the string is not long enou...">
<polygon fill="white" stroke="black" points="410,-81.1779 410,-111.178 505,-111.178 505,-81.1779 410,-81.1779"/>
<text text-anchor="start" x="418" y="-99.1779" font-family="Helvetica,sans-Serif" font-size="10.00">mom_string_functions</text>
<text text-anchor="middle" x="457.5" y="-88.1779" font-family="Helvetica,sans-Serif" font-size="10.00">::extract_word</text>
</a>
</g>
</g>
<!-- Node7&#45;&gt;Node8 -->
<g id="edge9" class="edge"><title>Node7&#45;&gt;Node8</title>
<path fill="none" stroke="midnightblue" d="M374.34,-82.4325C382.721,-83.8346 391.482,-85.3003 400.029,-86.7303"/>
<polygon fill="midnightblue" stroke="midnightblue" points="399.489,-90.1886 409.93,-88.3867 400.644,-83.2845 399.489,-90.1886"/>
</g>
<!-- Node9 -->
<g id="node10" class="node"><title>Node9</title>
<g id="a_node10"><a xlink:href="../../db/ddc/MOM__open__boundary_8F90.html#a0793b1a5746e6ead6bff50c3a52cae90" target="_top" xlink:title="interpret_int_expr">
<polygon fill="white" stroke="black" points="417.5,-42.6779 417.5,-61.6779 497.5,-61.6779 497.5,-42.6779 417.5,-42.6779"/>
<text text-anchor="middle" x="457.5" y="-49.6779" font-family="Helvetica,sans-Serif" font-size="10.00">interpret_int_expr</text>
</a>
</g>
</g>
<!-- Node7&#45;&gt;Node9 -->
<g id="edge11" class="edge"><title>Node7&#45;&gt;Node9</title>
<path fill="none" stroke="midnightblue" d="M374.34,-65.9233C385.054,-64.1308 396.389,-62.2344 407.106,-60.4416"/>
<polygon fill="midnightblue" stroke="midnightblue" points="407.865,-63.8633 417.15,-58.7612 406.71,-56.9593 407.865,-63.8633"/>
</g>
<!-- Node9&#45;&gt;Node3 -->
<g id="edge12" class="edge"><title>Node9&#45;&gt;Node3</title>
<path fill="none" stroke="midnightblue" d="M487.546,-61.7609C493.572,-64.3652 499.695,-67.5031 505,-71.1779 530.796,-89.047 554.464,-116.373 569.57,-135.83"/>
<polygon fill="midnightblue" stroke="midnightblue" points="566.858,-138.046 575.693,-143.894 572.433,-133.813 566.858,-138.046"/>
</g>
<!-- Node10&#45;&gt;Node3 -->
<g id="edge16" class="edge"><title>Node10&#45;&gt;Node3</title>
<path fill="none" stroke="midnightblue" d="M237.042,-13.0955C302.68,0.2556 420.603,14.135 505,-33.1779 544.03,-55.0581 567.373,-104.293 578.511,-134.329"/>
<polygon fill="midnightblue" stroke="midnightblue" points="575.321,-135.809 581.947,-144.077 581.923,-133.482 575.321,-135.809"/>
</g>
<!-- Node10&#45;&gt;Node7 -->
<g id="edge15" class="edge"><title>Node10&#45;&gt;Node7</title>
<path fill="none" stroke="midnightblue" d="M229.606,-40.2793C242.951,-45.123 257.887,-50.5443 271.834,-55.6064"/>
<polygon fill="midnightblue" stroke="midnightblue" points="270.705,-58.9201 281.299,-59.042 273.093,-52.3401 270.705,-58.9201"/>
</g>
</g>
</svg>
        <g id="navigator" transform="translate(0 0)" fill="#404254">
                <rect fill="#f2f5e9" fill-opacity="0.5" stroke="#606060" stroke-width=".5" x="0" y="0" width="60" height="60"/>
                <use id="zoomplus" xlink:href="#zoomPlus" x="17" y="9" onmousedown="handleZoom(evt,'in')"/>
                <use id="zoomminus" xlink:href="#zoomMin" x="42" y="9" onmousedown="handleZoom(evt,'out')"/>
                <use id="reset" xlink:href="#resetDef" x="30" y="36" onmousedown="handleReset()"/>
                <g id="arrowUp" xlink:href="#dirArrow" transform="translate(30 24)" onmousedown="handlePan(0,-1)">
                  <use xlink:href="#rim" fill="#404040">
                        <set attributeName="fill" to="#808080" begin="arrowUp.mouseover" end="arrowUp.mouseout"/>
                  </use>
                  <path fill="none" stroke="white" stroke-width="1.5" d="M0,-3.0v7 M-2.5,-0.5L0,-3.0L2.5,-0.5"/>
                </g>
                <g id="arrowRight" xlink:href="#dirArrow" transform="rotate(90) translate(36 -43)" onmousedown="handlePan(1,0)">
                  <use xlink:href="#rim" fill="#404040">
                        <set attributeName="fill" to="#808080" begin="arrowRight.mouseover" end="arrowRight.mouseout"/>
                  </use>
                  <path fill="none" stroke="white" stroke-width="1.5" d="M0,-3.0v7 M-2.5,-0.5L0,-3.0L2.5,-0.5"/>
                </g>
                <g id="arrowDown" xlink:href="#dirArrow" transform="rotate(180) translate(-30 -48)" onmousedown="handlePan(0,1)">
                  <use xlink:href="#rim" fill="#404040">
                        <set attributeName="fill" to="#808080" begin="arrowDown.mouseover" end="arrowDown.mouseout"/>
                  </use>
                  <path fill="none" stroke="white" stroke-width="1.5" d="M0,-3.0v7 M-2.5,-0.5L0,-3.0L2.5,-0.5"/>
                </g>
                <g id="arrowLeft" xlink:href="#dirArrow" transform="rotate(270) translate(-36 17)" onmousedown="handlePan(-1,0)">
                  <use xlink:href="#rim" fill="#404040">
                        <set attributeName="fill" to="#808080" begin="arrowLeft.mouseover" end="arrowLeft.mouseout"/>
                  </use>
                  <path fill="none" stroke="white" stroke-width="1.5" d="M0,-3.0v7 M-2.5,-0.5L0,-3.0L2.5,-0.5"/>
                </g>
        </g>
        <svg viewBox="0 0 15 15" width="100%" height="30px" preserveAspectRatio="xMaxYMin meet">
         <g id="arrow_out" transform="scale(0.3 0.3)">
          <a xlink:href="namespacemom__open__boundary_a0d3f0ce359b2852f00092f7fef88cd5f_cgraph_org.svg" target="_base">
           <rect id="button" ry="5" rx="5" y="6" x="6" height="38" width="38"
                fill="#f2f5e9" fill-opacity="0.5" stroke="#606060" stroke-width="1.0"/>
           <path id="arrow"
             d="M 11.500037,31.436501 C 11.940474,20.09759 22.043105,11.32322 32.158766,21.979434 L 37.068811,17.246167 C 37.068811,17.246167 37.088388,32 37.088388,32 L 22.160133,31.978069 C 22.160133,31.978069 26.997745,27.140456 26.997745,27.140456 C 18.528582,18.264221 13.291696,25.230495 11.500037,31.436501 z"
             style="fill:#404040;"/>
          </a>
         </g>
        </svg>
</svg>
