<?xml version="1.0" encoding="UTF-8" standalone="no"?>
<!DOCTYPE svg PUBLIC "-//W3C//DTD SVG 1.1//EN"
 "http://www.w3.org/Graphics/SVG/1.1/DTD/svg11.dtd">
<!-- Generated by graphviz version 2.38.0 (20140413.2041)
 -->
<!-- Title: mom_open_boundary::open_boundary_config Pages: 1 -->
<!--zoomable 235 -->
<svg id="main" version="1.1" xmlns="http://www.w3.org/2000/svg" xmlns:xlink="http://www.w3.org/1999/xlink" xml:space="preserve" onload="init(evt)">
<style type="text/css"><![CDATA[
.edge:hover path { stroke: red; }
.edge:hover polygon { stroke: red; fill: red; }
]]></style>
<script type="text/javascript"><![CDATA[
var edges = document.getElementsByTagName('g');
if (edges && edges.length) {
  for (var i=0;i<edges.length;i++) {
    if (edges[i].id.substr(0,4)=='edge') {
      edges[i].setAttribute('class','edge');
    }
  }
}
]]></script>
        <defs>
                <circle id="rim" cx="0" cy="0" r="7"/>
                <circle id="rim2" cx="0" cy="0" r="3.5"/>
                <g id="zoomPlus">
                        <use xlink:href="#rim" fill="#404040">
                                <set attributeName="fill" to="#808080" begin="zoomplus.mouseover" end="zoomplus.mouseout"/>
                        </use>
                        <path d="M-4,0h8M0,-4v8" fill="none" stroke="white" stroke-width="1.5" pointer-events="none"/>
                </g>
                <g id="zoomMin">
                        <use xlink:href="#rim" fill="#404040">
                                <set attributeName="fill" to="#808080" begin="zoomminus.mouseover" end="zoomminus.mouseout"/>
                        </use>
                        <path d="M-4,0h8" fill="none" stroke="white" stroke-width="1.5" pointer-events="none"/>
                </g>
                <g id="dirArrow">
                        <path fill="none" stroke="white" stroke-width="1.5" d="M0,-3.0v7 M-2.5,-0.5L0,-3.0L2.5,-0.5"/>
                </g>
               <g id="resetDef">
                       <use xlink:href="#rim2" fill="#404040">
                               <set attributeName="fill" to="#808080" begin="reset.mouseover" end="reset.mouseout"/>
                       </use>
               </g>
        </defs>

<script type="text/javascript">
var viewWidth = 864;
var viewHeight = 235;
var sectionId = 'dynsection-0';
</script>
<script xlink:href="../../svgpan.js"/>
<svg id="graph" class="graph">
<g id="viewport">
<title>mom_open_boundary::open_boundary_config</title>
<polygon fill="white" stroke="none" points="-4,4 -4,-230.847 860,-230.847 860,4 -4,4"/>
<!-- Node0 -->
<g id="node1" class="node"><title>Node0</title>
<polygon fill="#bfbfbf" stroke="black" points="0,-115.706 0,-145.706 116,-145.706 116,-115.706 0,-115.706"/>
<text text-anchor="start" x="8" y="-133.706" font-family="Helvetica,sans-Serif" font-size="10.00">mom_open_boundary::</text>
<text text-anchor="middle" x="58" y="-122.706" font-family="Helvetica,sans-Serif" font-size="10.00">open_boundary_config</text>
</g>
<!-- Node1 -->
<g id="node2" class="node"><title>Node1</title>
<g id="a_node2"><a xlink:href="../../d0/de6/namespacemom__error__handler.html#a460cfb79a06c29fc249952c2a3710d67" target="_top" xlink:title="mom_error_handler::\lmom_error">
<polygon fill="white" stroke="black" points="608,-121.706 608,-151.706 714,-151.706 714,-121.706 608,-121.706"/>
<text text-anchor="start" x="616" y="-139.706" font-family="Helvetica,sans-Serif" font-size="10.00">mom_error_handler::</text>
<text text-anchor="middle" x="661" y="-128.706" font-family="Helvetica,sans-Serif" font-size="10.00">mom_error</text>
</a>
</g>
</g>
<!-- Node0&#45;&gt;Node1 -->
<g id="edge1" class="edge"><title>Node0&#45;&gt;Node1</title>
<path fill="none" stroke="midnightblue" d="M71.9332,-145.914C88.3854,-163.962 118.69,-193.071 152,-204.706 316.735,-262.249 527.183,-191.729 616.641,-155.581"/>
<polygon fill="midnightblue" stroke="midnightblue" points="618.004,-158.805 625.93,-151.774 615.349,-152.328 618.004,-158.805"/>
</g>
<!-- Node3 -->
<g id="node4" class="node"><title>Node3</title>
<g id="a_node4"><a xlink:href="../../de/ddd/namespacemom__open__boundary.html#a709a33b9e33b5689d5ca73349ed51fb6" target="_top" xlink:title="Deallocate open boundary data. ">
<polygon fill="white" stroke="black" points="152,-164.706 152,-194.706 271,-194.706 271,-164.706 152,-164.706"/>
<text text-anchor="start" x="160" y="-182.706" font-family="Helvetica,sans-Serif" font-size="10.00">mom_open_boundary::</text>
<text text-anchor="middle" x="211.5" y="-171.706" font-family="Helvetica,sans-Serif" font-size="10.00">open_boundary_dealloc</text>
</a>
</g>
</g>
<!-- Node0&#45;&gt;Node3 -->
<g id="edge3" class="edge"><title>Node0&#45;&gt;Node3</title>
<path fill="none" stroke="midnightblue" d="M105.691,-145.807C121.027,-150.767 138.236,-156.333 154.207,-161.499"/>
<polygon fill="midnightblue" stroke="midnightblue" points="153.371,-164.907 163.963,-164.654 155.525,-158.247 153.371,-164.907"/>
</g>
<!-- Node4 -->
<g id="node5" class="node"><title>Node4</title>
<g id="a_node5"><a xlink:href="../../df/d46/namespacemom__string__functions.html#a60262e56f544e4613754df43bf50652e" target="_top" xlink:title="Returns string with all spaces removed. ">
<polygon fill="white" stroke="black" points="155,-115.706 155,-145.706 268,-145.706 268,-115.706 155,-115.706"/>
<text text-anchor="start" x="163" y="-133.706" font-family="Helvetica,sans-Serif" font-size="10.00">mom_string_functions</text>
<text text-anchor="middle" x="211.5" y="-122.706" font-family="Helvetica,sans-Serif" font-size="10.00">::remove_spaces</text>
</a>
</g>
</g>
<!-- Node0&#45;&gt;Node4 -->
<g id="edge4" class="edge"><title>Node0&#45;&gt;Node4</title>
<path fill="none" stroke="midnightblue" d="M116.276,-130.706C125.568,-130.706 135.254,-130.706 144.729,-130.706"/>
<polygon fill="midnightblue" stroke="midnightblue" points="144.899,-134.206 154.899,-130.706 144.899,-127.206 144.899,-134.206"/>
</g>
<!-- Node5 -->
<g id="node6" class="node"><title>Node5</title>
<g id="a_node6"><a xlink:href="../../de/ddd/namespacemom__open__boundary.html#ab7c14cc1f67490ff9326c35471fb7ef7" target="_top" xlink:title="Parse an OBC_SEGMENT_%%% string starting with &quot;I=&quot; and configure placement and type of OBC accordingl...">
<polygon fill="white" stroke="black" points="153.5,-66.7057 153.5,-96.7057 269.5,-96.7057 269.5,-66.7057 153.5,-66.7057"/>
<text text-anchor="start" x="161.5" y="-84.7057" font-family="Helvetica,sans-Serif" font-size="10.00">mom_open_boundary::</text>
<text text-anchor="middle" x="211.5" y="-73.7057" font-family="Helvetica,sans-Serif" font-size="10.00">setup_u_point_obc</text>
</a>
</g>
</g>
<!-- Node0&#45;&gt;Node5 -->
<g id="edge5" class="edge"><title>Node0&#45;&gt;Node5</title>
<path fill="none" stroke="midnightblue" d="M105.691,-115.604C121.027,-110.644 138.236,-105.078 154.207,-99.9129"/>
<polygon fill="midnightblue" stroke="midnightblue" points="155.525,-103.165 163.963,-96.7573 153.371,-96.5046 155.525,-103.165"/>
</g>
<!-- Node9 -->
<g id="node10" class="node"><title>Node9</title>
<g id="a_node10"><a xlink:href="../../de/ddd/namespacemom__open__boundary.html#ae298511b7acc78ed5cd780ad967318cc" target="_top" xlink:title="Parse an OBC_SEGMENT_%%% string starting with &quot;J=&quot; and configure placement and type of OBC accordingl...">
<polygon fill="white" stroke="black" points="153.5,-17.7057 153.5,-47.7057 269.5,-47.7057 269.5,-17.7057 153.5,-17.7057"/>
<text text-anchor="start" x="161.5" y="-35.7057" font-family="Helvetica,sans-Serif" font-size="10.00">mom_open_boundary::</text>
<text text-anchor="middle" x="211.5" y="-24.7057" font-family="Helvetica,sans-Serif" font-size="10.00">setup_v_point_obc</text>
</a>
</g>
</g>
<!-- Node0&#45;&gt;Node9 -->
<g id="edge12" class="edge"><title>Node0&#45;&gt;Node9</title>
<path fill="none" stroke="midnightblue" d="M75.0926,-115.54C92.8566,-99.3858 122.816,-73.8333 152,-56.7057 154.66,-55.1447 157.44,-53.6373 160.283,-52.1905"/>
<polygon fill="midnightblue" stroke="midnightblue" points="161.989,-55.2545 169.503,-47.7847 158.971,-48.9386 161.989,-55.2545"/>
</g>
<!-- Node2 -->
<g id="node3" class="node"><title>Node2</title>
<g id="a_node3"><a xlink:href="../../d0/de6/namespacemom__error__handler.html#ad5f00a53059c72fe2332d1436c80ca71" target="_top" xlink:title="mom_error_handler::\lis_root_pe">
<polygon fill="white" stroke="black" points="750,-121.706 750,-151.706 856,-151.706 856,-121.706 750,-121.706"/>
<text text-anchor="start" x="758" y="-139.706" font-family="Helvetica,sans-Serif" font-size="10.00">mom_error_handler::</text>
<text text-anchor="middle" x="803" y="-128.706" font-family="Helvetica,sans-Serif" font-size="10.00">is_root_pe</text>
</a>
</g>
</g>
<!-- Node1&#45;&gt;Node2 -->
<g id="edge2" class="edge"><title>Node1&#45;&gt;Node2</title>
<path fill="none" stroke="midnightblue" d="M714.131,-136.706C722.421,-136.706 731.07,-136.706 739.568,-136.706"/>
<polygon fill="midnightblue" stroke="midnightblue" points="739.826,-140.206 749.826,-136.706 739.826,-133.206 739.826,-140.206"/>
</g>
<!-- Node5&#45;&gt;Node1 -->
<g id="edge11" class="edge"><title>Node5&#45;&gt;Node1</title>
<path fill="none" stroke="midnightblue" d="M269.64,-96.5592C281.944,-99.6618 294.89,-102.854 307,-105.706 374.289,-121.55 390.265,-131.33 459,-138.706 508.936,-144.064 521.781,-139.276 572,-138.706 580.347,-138.611 589.139,-138.465 597.805,-138.295"/>
<polygon fill="midnightblue" stroke="midnightblue" points="597.962,-141.793 607.887,-138.086 597.816,-134.794 597.962,-141.793"/>
</g>
<!-- Node6 -->
<g id="node7" class="node"><title>Node6</title>
<g id="a_node7"><a xlink:href="../../de/ddd/namespacemom__open__boundary.html#ad40be6b6ce4c94040b7de59bde9be77f" target="_top" xlink:title="Parse an OBC_SEGMENT_%%% string. ">
<polygon fill="white" stroke="black" points="307,-66.7057 307,-96.7057 423,-96.7057 423,-66.7057 307,-66.7057"/>
<text text-anchor="start" x="315" y="-84.7057" font-family="Helvetica,sans-Serif" font-size="10.00">mom_open_boundary::</text>
<text text-anchor="middle" x="365" y="-73.7057" font-family="Helvetica,sans-Serif" font-size="10.00">parse_segment_str</text>
</a>
</g>
</g>
<!-- Node5&#45;&gt;Node6 -->
<g id="edge6" class="edge"><title>Node5&#45;&gt;Node6</title>
<path fill="none" stroke="midnightblue" d="M269.776,-81.7057C278.603,-81.7057 287.788,-81.7057 296.808,-81.7057"/>
<polygon fill="midnightblue" stroke="midnightblue" points="296.895,-85.2058 306.895,-81.7057 296.895,-78.2058 296.895,-85.2058"/>
</g>
<!-- Node6&#45;&gt;Node1 -->
<g id="edge8" class="edge"><title>Node6&#45;&gt;Node1</title>
<path fill="none" stroke="midnightblue" d="M399.786,-96.8558C417.147,-104.01 438.841,-111.995 459,-116.706 504.707,-127.387 557.565,-132.366 597.602,-134.686"/>
<polygon fill="midnightblue" stroke="midnightblue" points="597.579,-138.19 607.753,-135.233 597.956,-131.2 597.579,-138.19"/>
</g>
<!-- Node7 -->
<g id="node8" class="node"><title>Node7</title>
<g id="a_node8"><a xlink:href="../../df/d46/namespacemom__string__functions.html#aad76dee92b69dab4488da049fe11cdb8" target="_top" xlink:title="Returns the string corresponding to the nth word in the argument or &quot;&quot; if the string is not long enou...">
<polygon fill="white" stroke="black" points="459,-77.7057 459,-107.706 572,-107.706 572,-77.7057 459,-77.7057"/>
<text text-anchor="start" x="467" y="-95.7057" font-family="Helvetica,sans-Serif" font-size="10.00">mom_string_functions</text>
<text text-anchor="middle" x="515.5" y="-84.7057" font-family="Helvetica,sans-Serif" font-size="10.00">::extract_word</text>
</a>
</g>
</g>
<!-- Node6&#45;&gt;Node7 -->
<g id="edge7" class="edge"><title>Node6&#45;&gt;Node7</title>
<path fill="none" stroke="midnightblue" d="M423.414,-85.9586C431.653,-86.569 440.185,-87.2009 448.573,-87.8223"/>
<polygon fill="midnightblue" stroke="midnightblue" points="448.473,-91.3243 458.704,-88.5727 448.99,-84.3435 448.473,-91.3243"/>
</g>
<!-- Node8 -->
<g id="node9" class="node"><title>Node8</title>
<g id="a_node9"><a xlink:href="../../db/ddc/MOM__open__boundary_8F90.html#a0793b1a5746e6ead6bff50c3a52cae90" target="_top" xlink:title="interpret_int_expr">
<polygon fill="white" stroke="black" points="469.5,-39.2057 469.5,-58.2057 561.5,-58.2057 561.5,-39.2057 469.5,-39.2057"/>
<text text-anchor="middle" x="515.5" y="-46.2057" font-family="Helvetica,sans-Serif" font-size="10.00">interpret_int_expr</text>
</a>
</g>
</g>
<!-- Node6&#45;&gt;Node8 -->
<g id="edge9" class="edge"><title>Node6&#45;&gt;Node8</title>
<path fill="none" stroke="midnightblue" d="M423.414,-68.9471C435.912,-66.1698 449.081,-63.2433 461.402,-60.5052"/>
<polygon fill="midnightblue" stroke="midnightblue" points="462.517,-63.843 471.52,-58.2569 460.998,-57.0097 462.517,-63.843"/>
</g>
<!-- Node8&#45;&gt;Node1 -->
<g id="edge10" class="edge"><title>Node8&#45;&gt;Node1</title>
<path fill="none" stroke="midnightblue" d="M550.433,-58.3033C557.744,-60.9213 565.287,-64.0612 572,-67.7057 595.753,-80.6021 619.697,-99.8781 636.599,-114.781"/>
<polygon fill="midnightblue" stroke="midnightblue" points="634.521,-117.619 644.299,-121.698 639.199,-112.412 634.521,-117.619"/>
</g>
<!-- Node9&#45;&gt;Node1 -->
<g id="edge14" class="edge"><title>Node9&#45;&gt;Node1</title>
<path fill="none" stroke="midnightblue" d="M269.299,-17.703C343.011,-1.37799 473.8,16.6766 572,-29.7057 608.027,-46.7222 634.277,-86.5204 648.317,-112.491"/>
<polygon fill="midnightblue" stroke="midnightblue" points="645.213,-114.109 652.933,-121.366 651.424,-110.879 645.213,-114.109"/>
</g>
<!-- Node9&#45;&gt;Node6 -->
<g id="edge13" class="edge"><title>Node9&#45;&gt;Node6</title>
<path fill="none" stroke="midnightblue" d="M259.191,-47.8072C274.527,-52.7673 291.736,-58.3331 307.707,-63.4986"/>
<polygon fill="midnightblue" stroke="midnightblue" points="306.871,-66.9069 317.463,-66.6542 309.025,-60.2466 306.871,-66.9069"/>
</g>
</g>
</svg>
        <g id="navigator" transform="translate(0 0)" fill="#404254">
                <rect fill="#f2f5e9" fill-opacity="0.5" stroke="#606060" stroke-width=".5" x="0" y="0" width="60" height="60"/>
                <use id="zoomplus" xlink:href="#zoomPlus" x="17" y="9" onmousedown="handleZoom(evt,'in')"/>
                <use id="zoomminus" xlink:href="#zoomMin" x="42" y="9" onmousedown="handleZoom(evt,'out')"/>
                <use id="reset" xlink:href="#resetDef" x="30" y="36" onmousedown="handleReset()"/>
                <g id="arrowUp" xlink:href="#dirArrow" transform="translate(30 24)" onmousedown="handlePan(0,-1)">
                  <use xlink:href="#rim" fill="#404040">
                        <set attributeName="fill" to="#808080" begin="arrowUp.mouseover" end="arrowUp.mouseout"/>
                  </use>
                  <path fill="none" stroke="white" stroke-width="1.5" d="M0,-3.0v7 M-2.5,-0.5L0,-3.0L2.5,-0.5"/>
                </g>
                <g id="arrowRight" xlink:href="#dirArrow" transform="rotate(90) translate(36 -43)" onmousedown="handlePan(1,0)">
                  <use xlink:href="#rim" fill="#404040">
                        <set attributeName="fill" to="#808080" begin="arrowRight.mouseover" end="arrowRight.mouseout"/>
                  </use>
                  <path fill="none" stroke="white" stroke-width="1.5" d="M0,-3.0v7 M-2.5,-0.5L0,-3.0L2.5,-0.5"/>
                </g>
                <g id="arrowDown" xlink:href="#dirArrow" transform="rotate(180) translate(-30 -48)" onmousedown="handlePan(0,1)">
                  <use xlink:href="#rim" fill="#404040">
                        <set attributeName="fill" to="#808080" begin="arrowDown.mouseover" end="arrowDown.mouseout"/>
                  </use>
                  <path fill="none" stroke="white" stroke-width="1.5" d="M0,-3.0v7 M-2.5,-0.5L0,-3.0L2.5,-0.5"/>
                </g>
                <g id="arrowLeft" xlink:href="#dirArrow" transform="rotate(270) translate(-36 17)" onmousedown="handlePan(-1,0)">
                  <use xlink:href="#rim" fill="#404040">
                        <set attributeName="fill" to="#808080" begin="arrowLeft.mouseover" end="arrowLeft.mouseout"/>
                  </use>
                  <path fill="none" stroke="white" stroke-width="1.5" d="M0,-3.0v7 M-2.5,-0.5L0,-3.0L2.5,-0.5"/>
                </g>
        </g>
        <svg viewBox="0 0 15 15" width="100%" height="30px" preserveAspectRatio="xMaxYMin meet">
         <g id="arrow_out" transform="scale(0.3 0.3)">
          <a xlink:href="namespacemom__open__boundary_a0d3f0ce359b2852f00092f7fef88cd5f_cgraph_org.svg" target="_base">
           <rect id="button" ry="5" rx="5" y="6" x="6" height="38" width="38"
                fill="#f2f5e9" fill-opacity="0.5" stroke="#606060" stroke-width="1.0"/>
           <path id="arrow"
             d="M 11.500037,31.436501 C 11.940474,20.09759 22.043105,11.32322 32.158766,21.979434 L 37.068811,17.246167 C 37.068811,17.246167 37.088388,32 37.088388,32 L 22.160133,31.978069 C 22.160133,31.978069 26.997745,27.140456 26.997745,27.140456 C 18.528582,18.264221 13.291696,25.230495 11.500037,31.436501 z"
             style="fill:#404040;"/>
          </a>
         </g>
        </svg>
</svg>
