<?xml version="1.0" encoding="UTF-8" standalone="no"?>
<!DOCTYPE svg PUBLIC "-//W3C//DTD SVG 1.1//EN"
 "http://www.w3.org/Graphics/SVG/1.1/DTD/svg11.dtd">
<!-- Generated by graphviz version 2.38.0 (20140413.2041)
 -->
<!-- Title: mom_open_boundary::parse_segment_str Pages: 1 -->
<svg width="497pt" height="102pt"
 viewBox="0.00 0.00 497.00 102.00" xmlns="http://www.w3.org/2000/svg" xmlns:xlink="http://www.w3.org/1999/xlink">
<g id="graph0" class="graph" transform="scale(1 1) rotate(0) translate(4 98)">
<title>mom_open_boundary::parse_segment_str</title>
<polygon fill="white" stroke="none" points="-4,4 -4,-98 493,-98 493,4 -4,4"/>
<!-- Node33 -->
<g id="node1" class="node"><title>Node33</title>
<polygon fill="#bfbfbf" stroke="black" points="0,-19.5 0,-49.5 100,-49.5 100,-19.5 0,-19.5"/>
<text text-anchor="start" x="8" y="-37.5" font-family="Helvetica,sans-Serif" font-size="10.00">mom_open_boundary::</text>
<text text-anchor="middle" x="50" y="-26.5" font-family="Helvetica,sans-Serif" font-size="10.00">parse_segment_str</text>
</g>
<!-- Node34 -->
<g id="node2" class="node"><title>Node34</title>
<g id="a_node2"><a xlink:href="../../df/d46/namespacemom__string__functions.html#aad76dee92b69dab4488da049fe11cdb8" target="_top" xlink:title="Returns the string corresponding to the nth word in the argument or &quot;&quot; if the string is not long enou...">
<polygon fill="white" stroke="black" points="136,-63.5 136,-93.5 231,-93.5 231,-63.5 136,-63.5"/>
<text text-anchor="start" x="144" y="-81.5" font-family="Helvetica,sans-Serif" font-size="10.00">mom_string_functions</text>
<text text-anchor="middle" x="183.5" y="-70.5" font-family="Helvetica,sans-Serif" font-size="10.00">::extract_word</text>
</a>
</g>
</g>
<!-- Node33&#45;&gt;Node34 -->
<g id="edge1" class="edge"><title>Node33&#45;&gt;Node34</title>
<path fill="none" stroke="midnightblue" d="M95.887,-49.5192C106.141,-52.9501 117.15,-56.6337 127.764,-60.1854"/>
<polygon fill="midnightblue" stroke="midnightblue" points="126.775,-63.545 137.369,-63.3991 128.996,-56.9068 126.775,-63.545"/>
</g>
<!-- Node35 -->
<g id="node3" class="node"><title>Node35</title>
<g id="a_node3"><a xlink:href="../../db/ddc/MOM__open__boundary_8F90.html#a0793b1a5746e6ead6bff50c3a52cae90" target="_top" xlink:title="interpret_int_expr">
<polygon fill="white" stroke="black" points="143.5,-25 143.5,-44 223.5,-44 223.5,-25 143.5,-25"/>
<text text-anchor="middle" x="183.5" y="-32" font-family="Helvetica,sans-Serif" font-size="10.00">interpret_int_expr</text>
</a>
</g>
</g>
<!-- Node33&#45;&gt;Node35 -->
<g id="edge2" class="edge"><title>Node33&#45;&gt;Node35</title>
<path fill="none" stroke="midnightblue" d="M100.34,-34.5C111.054,-34.5 122.389,-34.5 133.106,-34.5"/>
<polygon fill="midnightblue" stroke="midnightblue" points="133.15,-38.0001 143.15,-34.5 133.15,-31.0001 133.15,-38.0001"/>
</g>
<!-- Node36 -->
<g id="node4" class="node"><title>Node36</title>
<g id="a_node4"><a xlink:href="../../d0/de6/namespacemom__error__handler.html#a460cfb79a06c29fc249952c2a3710d67" target="_top" xlink:title="mom_error_handler::\lmom_error">
<polygon fill="white" stroke="black" points="267,-0.5 267,-30.5 360,-30.5 360,-0.5 267,-0.5"/>
<text text-anchor="start" x="275" y="-18.5" font-family="Helvetica,sans-Serif" font-size="10.00">mom_error_handler::</text>
<text text-anchor="middle" x="313.5" y="-7.5" font-family="Helvetica,sans-Serif" font-size="10.00">mom_error</text>
</a>
</g>
</g>
<!-- Node33&#45;&gt;Node36 -->
<g id="edge5" class="edge"><title>Node33&#45;&gt;Node36</title>
<path fill="none" stroke="midnightblue" d="M100.133,-21.5939C111.806,-19.0637 124.277,-16.7943 136,-15.5 176.023,-11.0814 221.462,-11.199 256.213,-12.3601"/>
<polygon fill="midnightblue" stroke="midnightblue" points="256.512,-15.8736 266.636,-12.75 256.774,-8.87853 256.512,-15.8736"/>
</g>
<!-- Node35&#45;&gt;Node36 -->
<g id="edge3" class="edge"><title>Node35&#45;&gt;Node36</title>
<path fill="none" stroke="midnightblue" d="M223.6,-28.6961C234.069,-27.142 245.593,-25.4316 256.773,-23.772"/>
<polygon fill="midnightblue" stroke="midnightblue" points="257.527,-27.1985 266.904,-22.2681 256.499,-20.2744 257.527,-27.1985"/>
</g>
<!-- Node37 -->
<g id="node5" class="node"><title>Node37</title>
<g id="a_node5"><a xlink:href="../../d0/de6/namespacemom__error__handler.html#ad5f00a53059c72fe2332d1436c80ca71" target="_top" xlink:title="mom_error_handler::\lis_root_pe">
<polygon fill="white" stroke="black" points="396,-0.5 396,-30.5 489,-30.5 489,-0.5 396,-0.5"/>
<text text-anchor="start" x="404" y="-18.5" font-family="Helvetica,sans-Serif" font-size="10.00">mom_error_handler::</text>
<text text-anchor="middle" x="442.5" y="-7.5" font-family="Helvetica,sans-Serif" font-size="10.00">is_root_pe</text>
</a>
</g>
</g>
<!-- Node36&#45;&gt;Node37 -->
<g id="edge4" class="edge"><title>Node36&#45;&gt;Node37</title>
<path fill="none" stroke="midnightblue" d="M360.35,-15.5C368.533,-15.5 377.141,-15.5 385.568,-15.5"/>
<polygon fill="midnightblue" stroke="midnightblue" points="385.717,-19.0001 395.717,-15.5 385.717,-12.0001 385.717,-19.0001"/>
</g>
</g>
</svg>
