<?xml version="1.0" encoding="UTF-8" standalone="no"?>
<!DOCTYPE svg PUBLIC "-//W3C//DTD SVG 1.1//EN"
 "http://www.w3.org/Graphics/SVG/1.1/DTD/svg11.dtd">
<!-- Generated by graphviz version 2.38.0 (20140413.2041)
 -->
<!-- Title: mom_surface_forcing::surface_forcing_init Pages: 1 -->
<svg width="1152pt" height="661pt"
 viewBox="0.00 0.00 1152.00 660.50" xmlns="http://www.w3.org/2000/svg" xmlns:xlink="http://www.w3.org/1999/xlink">
<g id="graph0" class="graph" transform="scale(1 1) rotate(0) translate(4 656.5)">
<title>mom_surface_forcing::surface_forcing_init</title>
<polygon fill="white" stroke="none" points="-4,4 -4,-656.5 1148,-656.5 1148,4 -4,4"/>
<!-- Node75 -->
<g id="node1" class="node"><title>Node75</title>
<polygon fill="#bfbfbf" stroke="black" points="0,-132.5 0,-162.5 94,-162.5 94,-132.5 0,-132.5"/>
<text text-anchor="start" x="8" y="-150.5" font-family="Helvetica,sans-Serif" font-size="10.00">mom_surface_forcing</text>
<text text-anchor="middle" x="47" y="-139.5" font-family="Helvetica,sans-Serif" font-size="10.00">::surface_forcing_init</text>
</g>
<!-- Node76 -->
<g id="node2" class="node"><title>Node76</title>
<g id="a_node2"><a xlink:href="../../dd/dc3/namespacemom__forcing__type.html#a432b1cbc47ab082b64bf7007a8674973" target="_top" xlink:title="Deallocate the forcing type. ">
<polygon fill="white" stroke="black" points="130,-355.5 130,-385.5 253,-385.5 253,-355.5 130,-355.5"/>
<text text-anchor="start" x="138" y="-373.5" font-family="Helvetica,sans-Serif" font-size="10.00">mom_forcing_type::deallocate</text>
<text text-anchor="middle" x="191.5" y="-362.5" font-family="Helvetica,sans-Serif" font-size="10.00">_forcing_type</text>
</a>
</g>
</g>
<!-- Node75&#45;&gt;Node76 -->
<g id="edge1" class="edge"><title>Node75&#45;&gt;Node76</title>
<path fill="none" stroke="midnightblue" d="M50.1464,-162.706C56.0831,-199.307 76.0098,-293.218 130,-346.5 131.081,-347.567 132.215,-348.587 133.393,-349.564"/>
<polygon fill="midnightblue" stroke="midnightblue" points="131.529,-352.531 141.73,-355.392 135.539,-346.794 131.529,-352.531"/>
</g>
<!-- Node77 -->
<g id="node3" class="node"><title>Node77</title>
<g id="a_node3"><a xlink:href="../../d9/d7f/namespacemom__get__input.html#a299c5b9476662ef1a382e23a8d078143" target="_top" xlink:title="mom_get_input::get\l_mom_input">
<polygon fill="white" stroke="black" points="147.5,-306.5 147.5,-336.5 235.5,-336.5 235.5,-306.5 147.5,-306.5"/>
<text text-anchor="start" x="155.5" y="-324.5" font-family="Helvetica,sans-Serif" font-size="10.00">mom_get_input::get</text>
<text text-anchor="middle" x="191.5" y="-313.5" font-family="Helvetica,sans-Serif" font-size="10.00">_mom_input</text>
</a>
</g>
</g>
<!-- Node75&#45;&gt;Node77 -->
<g id="edge2" class="edge"><title>Node75&#45;&gt;Node77</title>
<path fill="none" stroke="midnightblue" d="M57.8572,-162.851C72.5445,-185.322 101.51,-228.122 130,-261.5 141.236,-274.664 154.839,-288.328 166.298,-299.285"/>
<polygon fill="midnightblue" stroke="midnightblue" points="164.159,-302.079 173.833,-306.399 168.965,-296.989 164.159,-302.079"/>
</g>
<!-- Node78 -->
<g id="node4" class="node"><title>Node78</title>
<g id="a_node4"><a xlink:href="../../d0/de6/namespacemom__error__handler.html#a460cfb79a06c29fc249952c2a3710d67" target="_top" xlink:title="mom_error_handler::\lmom_error">
<polygon fill="white" stroke="black" points="442.5,-241.5 442.5,-271.5 535.5,-271.5 535.5,-241.5 442.5,-241.5"/>
<text text-anchor="start" x="450.5" y="-259.5" font-family="Helvetica,sans-Serif" font-size="10.00">mom_error_handler::</text>
<text text-anchor="middle" x="489" y="-248.5" font-family="Helvetica,sans-Serif" font-size="10.00">mom_error</text>
</a>
</g>
</g>
<!-- Node75&#45;&gt;Node78 -->
<g id="edge22" class="edge"><title>Node75&#45;&gt;Node78</title>
<path fill="none" stroke="midnightblue" d="M94.2266,-139.303C163.462,-129.24 296.666,-118.568 397,-163.5 429.761,-178.171 456.913,-210.462 472.797,-232.845"/>
<polygon fill="midnightblue" stroke="midnightblue" points="469.968,-234.908 478.513,-241.171 475.738,-230.946 469.968,-234.908"/>
</g>
<!-- Node90 -->
<g id="node16" class="node"><title>Node90</title>
<g id="a_node16"><a xlink:href="../../d9/def/namespacemom__file__parser.html#a17c0ef1bb1912f02faa0aaa1e0f64210" target="_top" xlink:title="mom_file_parser::log\l_version">
<polygon fill="white" stroke="black" points="297,-47.5 297,-77.5 389,-77.5 389,-47.5 297,-47.5"/>
<text text-anchor="start" x="305" y="-65.5" font-family="Helvetica,sans-Serif" font-size="10.00">mom_file_parser::log</text>
<text text-anchor="middle" x="343" y="-54.5" font-family="Helvetica,sans-Serif" font-size="10.00">_version</text>
</a>
</g>
</g>
<!-- Node75&#45;&gt;Node90 -->
<g id="edge20" class="edge"><title>Node75&#45;&gt;Node90</title>
<path fill="none" stroke="midnightblue" d="M60.6754,-132.239C75.4147,-115.717 101.404,-90.1686 130,-78.5 180.147,-58.0379 242.458,-55.7764 286.513,-57.5734"/>
<polygon fill="midnightblue" stroke="midnightblue" points="286.581,-61.0809 296.741,-58.0766 286.925,-54.0893 286.581,-61.0809"/>
</g>
<!-- Node91 -->
<g id="node17" class="node"><title>Node91</title>
<g id="a_node17"><a xlink:href="../../d1/d85/namespacemom__restart.html#a304183ab574d06ac810b41b1e82eb89c" target="_top" xlink:title="mom_restart::restart\l_init_end">
<polygon fill="white" stroke="black" points="146.5,-0.5 146.5,-30.5 236.5,-30.5 236.5,-0.5 146.5,-0.5"/>
<text text-anchor="start" x="154.5" y="-18.5" font-family="Helvetica,sans-Serif" font-size="10.00">mom_restart::restart</text>
<text text-anchor="middle" x="191.5" y="-7.5" font-family="Helvetica,sans-Serif" font-size="10.00">_init_end</text>
</a>
</g>
</g>
<!-- Node75&#45;&gt;Node91 -->
<g id="edge23" class="edge"><title>Node75&#45;&gt;Node91</title>
<path fill="none" stroke="midnightblue" d="M57.1888,-132.283C70.8394,-110.696 98.2989,-70.9787 130,-45.5 134.566,-41.83 139.655,-38.4498 144.888,-35.3859"/>
<polygon fill="midnightblue" stroke="midnightblue" points="146.669,-38.4011 153.765,-30.5332 143.312,-32.259 146.669,-38.4011"/>
</g>
<!-- Node93 -->
<g id="node19" class="node"><title>Node93</title>
<g id="a_node19"><a xlink:href="../../d1/d85/namespacemom__restart.html#aec60d8a437fc858db4a020f9985b449d" target="_top" xlink:title="mom_restart::restore\l_state">
<polygon fill="white" stroke="black" points="145.5,-222.5 145.5,-252.5 237.5,-252.5 237.5,-222.5 145.5,-222.5"/>
<text text-anchor="start" x="153.5" y="-240.5" font-family="Helvetica,sans-Serif" font-size="10.00">mom_restart::restore</text>
<text text-anchor="middle" x="191.5" y="-229.5" font-family="Helvetica,sans-Serif" font-size="10.00">_state</text>
</a>
</g>
</g>
<!-- Node75&#45;&gt;Node93 -->
<g id="edge25" class="edge"><title>Node75&#45;&gt;Node93</title>
<path fill="none" stroke="midnightblue" d="M71.8513,-162.564C95.4844,-177.49 131.851,-200.458 158.093,-217.032"/>
<polygon fill="midnightblue" stroke="midnightblue" points="156.247,-220.006 166.571,-222.387 159.985,-214.088 156.247,-220.006"/>
</g>
<!-- Node96 -->
<g id="node22" class="node"><title>Node96</title>
<g id="a_node22"><a xlink:href="../../db/d8c/namespaceuser__surface__forcing.html#aadd1db23ad3bade1ef44fb7d61ccb32f" target="_top" xlink:title="user_surface_forcing\l::user_surface_forcing_init">
<polygon fill="white" stroke="black" points="136.5,-88.5 136.5,-118.5 246.5,-118.5 246.5,-88.5 136.5,-88.5"/>
<text text-anchor="start" x="144.5" y="-106.5" font-family="Helvetica,sans-Serif" font-size="10.00">user_surface_forcing</text>
<text text-anchor="middle" x="191.5" y="-95.5" font-family="Helvetica,sans-Serif" font-size="10.00">::user_surface_forcing_init</text>
</a>
</g>
</g>
<!-- Node75&#45;&gt;Node96 -->
<g id="edge31" class="edge"><title>Node75&#45;&gt;Node96</title>
<path fill="none" stroke="midnightblue" d="M94.2657,-133.214C106.193,-129.532 119.19,-125.519 131.663,-121.667"/>
<polygon fill="midnightblue" stroke="midnightblue" points="133.001,-124.917 141.523,-118.623 130.936,-118.229 133.001,-124.917"/>
</g>
<!-- Node77&#45;&gt;Node78 -->
<g id="edge3" class="edge"><title>Node77&#45;&gt;Node78</title>
<path fill="none" stroke="midnightblue" d="M235.628,-312.415C277.043,-303.645 341.35,-289.907 397,-277.5 408.383,-274.962 420.554,-272.193 432.17,-269.522"/>
<polygon fill="midnightblue" stroke="midnightblue" points="433.245,-272.866 442.203,-267.209 431.672,-266.045 433.245,-272.866"/>
</g>
<!-- Node80 -->
<g id="node6" class="node"><title>Node80</title>
<g id="a_node6"><a xlink:href="../../d9/def/namespacemom__file__parser.html#abecae1b9386aafa17aec927af1f8c448" target="_top" xlink:title="mom_file_parser::open\l_param_file">
<polygon fill="white" stroke="black" points="293.5,-386.5 293.5,-416.5 392.5,-416.5 392.5,-386.5 293.5,-386.5"/>
<text text-anchor="start" x="301.5" y="-404.5" font-family="Helvetica,sans-Serif" font-size="10.00">mom_file_parser::open</text>
<text text-anchor="middle" x="343" y="-393.5" font-family="Helvetica,sans-Serif" font-size="10.00">_param_file</text>
</a>
</g>
</g>
<!-- Node77&#45;&gt;Node80 -->
<g id="edge5" class="edge"><title>Node77&#45;&gt;Node80</title>
<path fill="none" stroke="midnightblue" d="M232.45,-336.575C239.423,-339.609 246.515,-342.962 253,-346.5 270.1,-355.829 272.506,-361.136 289,-371.5 294.162,-374.743 299.687,-378.048 305.149,-381.221"/>
<polygon fill="midnightblue" stroke="midnightblue" points="303.791,-384.476 314.209,-386.403 307.267,-378.4 303.791,-384.476"/>
</g>
<!-- Node79 -->
<g id="node5" class="node"><title>Node79</title>
<g id="a_node5"><a xlink:href="../../d0/de6/namespacemom__error__handler.html#ad5f00a53059c72fe2332d1436c80ca71" target="_top" xlink:title="mom_error_handler::\lis_root_pe">
<polygon fill="white" stroke="black" points="817.5,-332.5 817.5,-362.5 910.5,-362.5 910.5,-332.5 817.5,-332.5"/>
<text text-anchor="start" x="825.5" y="-350.5" font-family="Helvetica,sans-Serif" font-size="10.00">mom_error_handler::</text>
<text text-anchor="middle" x="864" y="-339.5" font-family="Helvetica,sans-Serif" font-size="10.00">is_root_pe</text>
</a>
</g>
</g>
<!-- Node78&#45;&gt;Node79 -->
<g id="edge4" class="edge"><title>Node78&#45;&gt;Node79</title>
<path fill="none" stroke="midnightblue" d="M535.51,-263.35C586.321,-271.459 670.775,-286.318 742,-305.5 766.315,-312.048 792.795,-321.022 814.767,-328.993"/>
<polygon fill="midnightblue" stroke="midnightblue" points="813.61,-332.297 824.203,-332.455 816.021,-325.725 813.61,-332.297"/>
</g>
<!-- Node80&#45;&gt;Node79 -->
<g id="edge6" class="edge"><title>Node80&#45;&gt;Node79</title>
<path fill="none" stroke="midnightblue" d="M392.826,-396.42C489.557,-386.355 705,-363.939 807.173,-353.309"/>
<polygon fill="midnightblue" stroke="midnightblue" points="807.706,-356.772 817.29,-352.256 806.981,-349.81 807.706,-356.772"/>
</g>
<!-- Node81 -->
<g id="node7" class="node"><title>Node81</title>
<g id="a_node7"><a xlink:href="../../df/dfe/MOM__memory_8h.html#ae22791a326f7ecd05017238a41eea3a8" target="_top" xlink:title="number">
<polygon fill="white" stroke="black" points="467,-348 467,-367 511,-367 511,-348 467,-348"/>
<text text-anchor="middle" x="489" y="-355" font-family="Helvetica,sans-Serif" font-size="10.00">number</text>
</a>
</g>
</g>
<!-- Node80&#45;&gt;Node81 -->
<g id="edge7" class="edge"><title>Node80&#45;&gt;Node81</title>
<path fill="none" stroke="midnightblue" d="M392.752,-386.604C413.956,-380.125 438.173,-372.725 456.882,-367.008"/>
<polygon fill="midnightblue" stroke="midnightblue" points="458.115,-370.291 466.655,-364.022 456.069,-363.597 458.115,-370.291"/>
</g>
<!-- Node82 -->
<g id="node8" class="node"><title>Node82</title>
<g id="a_node8"><a xlink:href="../../d9/def/namespacemom__file__parser.html#a7abfd98d7f0831fc0d1f3747a68f1be9" target="_top" xlink:title="mom_file_parser::populate\l_param_data">
<polygon fill="white" stroke="black" points="433,-494.5 433,-524.5 545,-524.5 545,-494.5 433,-494.5"/>
<text text-anchor="start" x="441" y="-512.5" font-family="Helvetica,sans-Serif" font-size="10.00">mom_file_parser::populate</text>
<text text-anchor="middle" x="489" y="-501.5" font-family="Helvetica,sans-Serif" font-size="10.00">_param_data</text>
</a>
</g>
</g>
<!-- Node80&#45;&gt;Node82 -->
<g id="edge8" class="edge"><title>Node80&#45;&gt;Node82</title>
<path fill="none" stroke="midnightblue" d="M364.023,-416.517C388.815,-435.111 431.213,-466.91 459.42,-488.065"/>
<polygon fill="midnightblue" stroke="midnightblue" points="457.583,-491.062 467.683,-494.262 461.783,-485.462 457.583,-491.062"/>
</g>
<!-- Node82&#45;&gt;Node79 -->
<g id="edge10" class="edge"><title>Node82&#45;&gt;Node79</title>
<path fill="none" stroke="midnightblue" d="M545.093,-523.07C598.437,-533.192 680.106,-540.524 742,-509.5 799.617,-480.62 836.825,-409.843 853.264,-372.117"/>
<polygon fill="midnightblue" stroke="midnightblue" points="856.512,-373.422 857.173,-362.848 850.062,-370.702 856.512,-373.422"/>
</g>
<!-- Node83 -->
<g id="node9" class="node"><title>Node83</title>
<g id="a_node9"><a xlink:href="../../d9/def/namespacemom__file__parser.html#a99c426fd23fc4df0c4d05e33039e0a66" target="_top" xlink:title="mom_file_parser::closemultilinecomment">
<polygon fill="white" stroke="black" points="581,-405 581,-424 742,-424 742,-405 581,-405"/>
<text text-anchor="middle" x="661.5" y="-412" font-family="Helvetica,sans-Serif" font-size="10.00">mom_file_parser::closemultilinecomment</text>
</a>
</g>
</g>
<!-- Node82&#45;&gt;Node83 -->
<g id="edge9" class="edge"><title>Node82&#45;&gt;Node83</title>
<path fill="none" stroke="midnightblue" d="M503.91,-494.232C520.562,-476.896 550.094,-449.013 581,-433.5 585.835,-431.073 590.994,-428.947 596.271,-427.087"/>
<polygon fill="midnightblue" stroke="midnightblue" points="597.4,-430.401 605.857,-424.018 595.266,-423.734 597.4,-430.401"/>
</g>
<!-- Node84 -->
<g id="node10" class="node"><title>Node84</title>
<g id="a_node10"><a xlink:href="../../d9/def/namespacemom__file__parser.html#ab4b89d9420e174185db1c6aa3feb948b" target="_top" xlink:title="mom_file_parser::lastnoncommentnonblank">
<polygon fill="white" stroke="black" points="778,-595 778,-614 950,-614 950,-595 778,-595"/>
<text text-anchor="middle" x="864" y="-602" font-family="Helvetica,sans-Serif" font-size="10.00">mom_file_parser::lastnoncommentnonblank</text>
</a>
</g>
</g>
<!-- Node82&#45;&gt;Node84 -->
<g id="edge11" class="edge"><title>Node82&#45;&gt;Node84</title>
<path fill="none" stroke="midnightblue" d="M502.631,-524.737C518.704,-542.887 548.333,-572.394 581,-585.5 639.949,-609.151 711.384,-613.742 767.605,-612.501"/>
<polygon fill="midnightblue" stroke="midnightblue" points="768.024,-615.991 777.92,-612.205 767.823,-608.993 768.024,-615.991"/>
</g>
<!-- Node86 -->
<g id="node12" class="node"><title>Node86</title>
<g id="a_node12"><a xlink:href="../../d9/def/namespacemom__file__parser.html#a476a2649ce161e38088588e07f7df130" target="_top" xlink:title="mom_file_parser::openmultilinecomment">
<polygon fill="white" stroke="black" points="783.5,-633 783.5,-652 944.5,-652 944.5,-633 783.5,-633"/>
<text text-anchor="middle" x="864" y="-640" font-family="Helvetica,sans-Serif" font-size="10.00">mom_file_parser::openmultilinecomment</text>
</a>
</g>
</g>
<!-- Node82&#45;&gt;Node86 -->
<g id="edge13" class="edge"><title>Node82&#45;&gt;Node86</title>
<path fill="none" stroke="midnightblue" d="M498.288,-524.58C512.045,-547.961 541.988,-592.359 581,-612.5 640.017,-642.969 715.141,-649.657 773.01,-649.166"/>
<polygon fill="midnightblue" stroke="midnightblue" points="773.296,-652.662 783.239,-649.003 773.185,-645.663 773.296,-652.662"/>
</g>
<!-- Node87 -->
<g id="node13" class="node"><title>Node87</title>
<g id="a_node13"><a xlink:href="../../d9/def/namespacemom__file__parser.html#ae0b982cc161173a401291757a6677373" target="_top" xlink:title="mom_file_parser::removecomments">
<polygon fill="white" stroke="black" points="589,-557 589,-576 734,-576 734,-557 589,-557"/>
<text text-anchor="middle" x="661.5" y="-564" font-family="Helvetica,sans-Serif" font-size="10.00">mom_file_parser::removecomments</text>
</a>
</g>
</g>
<!-- Node82&#45;&gt;Node87 -->
<g id="edge15" class="edge"><title>Node82&#45;&gt;Node87</title>
<path fill="none" stroke="midnightblue" d="M530.152,-524.596C545.935,-530.39 564.253,-536.94 581,-542.5 592.866,-546.439 605.815,-550.464 617.752,-554.064"/>
<polygon fill="midnightblue" stroke="midnightblue" points="616.912,-557.465 627.495,-556.976 618.917,-550.759 616.912,-557.465"/>
</g>
<!-- Node88 -->
<g id="node14" class="node"><title>Node88</title>
<g id="a_node14"><a xlink:href="../../d9/def/namespacemom__file__parser.html#a9813087789e0924f363d7f67768c7f42" target="_top" xlink:title="mom_file_parser::replacetabs">
<polygon fill="white" stroke="black" points="600.5,-481 600.5,-500 722.5,-500 722.5,-481 600.5,-481"/>
<text text-anchor="middle" x="661.5" y="-488" font-family="Helvetica,sans-Serif" font-size="10.00">mom_file_parser::replacetabs</text>
</a>
</g>
</g>
<!-- Node82&#45;&gt;Node88 -->
<g id="edge17" class="edge"><title>Node82&#45;&gt;Node88</title>
<path fill="none" stroke="midnightblue" d="M545.356,-503.331C559.656,-501.738 575.241,-500.001 590.193,-498.335"/>
<polygon fill="midnightblue" stroke="midnightblue" points="590.868,-501.781 600.419,-497.195 590.093,-494.824 590.868,-501.781"/>
</g>
<!-- Node89 -->
<g id="node15" class="node"><title>Node89</title>
<g id="a_node15"><a xlink:href="../../d9/def/namespacemom__file__parser.html#a3ad322925f44e8cb48c4e652634f6f93" target="_top" xlink:title="mom_file_parser::simplifywhitespace">
<polygon fill="white" stroke="black" points="588.5,-443 588.5,-462 734.5,-462 734.5,-443 588.5,-443"/>
<text text-anchor="middle" x="661.5" y="-450" font-family="Helvetica,sans-Serif" font-size="10.00">mom_file_parser::simplifywhitespace</text>
</a>
</g>
</g>
<!-- Node82&#45;&gt;Node89 -->
<g id="edge18" class="edge"><title>Node82&#45;&gt;Node89</title>
<path fill="none" stroke="midnightblue" d="M522.374,-494.485C539.543,-486.907 561.141,-477.973 581,-471.5 588.77,-468.968 597.066,-466.613 605.26,-464.485"/>
<polygon fill="midnightblue" stroke="midnightblue" points="606.312,-467.829 615.161,-462.004 604.61,-461.039 606.312,-467.829"/>
</g>
<!-- Node85 -->
<g id="node11" class="node"><title>Node85</title>
<g id="a_node11"><a xlink:href="../../d9/def/namespacemom__file__parser.html#a000fd0a0681f9e73481ef2663154df78" target="_top" xlink:title="mom_file_parser::lastnoncommentindex">
<polygon fill="white" stroke="black" points="986,-614 986,-633 1144,-633 1144,-614 986,-614"/>
<text text-anchor="middle" x="1065" y="-621" font-family="Helvetica,sans-Serif" font-size="10.00">mom_file_parser::lastnoncommentindex</text>
</a>
</g>
</g>
<!-- Node84&#45;&gt;Node85 -->
<g id="edge12" class="edge"><title>Node84&#45;&gt;Node85</title>
<path fill="none" stroke="midnightblue" d="M950.26,-612.64C958.66,-613.442 967.198,-614.258 975.628,-615.062"/>
<polygon fill="midnightblue" stroke="midnightblue" points="975.553,-618.571 985.841,-616.038 976.219,-611.603 975.553,-618.571"/>
</g>
<!-- Node86&#45;&gt;Node85 -->
<g id="edge14" class="edge"><title>Node86&#45;&gt;Node85</title>
<path fill="none" stroke="midnightblue" d="M944.508,-634.909C954.845,-633.922 965.483,-632.906 975.949,-631.907"/>
<polygon fill="midnightblue" stroke="midnightblue" points="976.293,-635.39 985.916,-630.955 975.628,-628.422 976.293,-635.39"/>
</g>
<!-- Node87&#45;&gt;Node84 -->
<g id="edge16" class="edge"><title>Node87&#45;&gt;Node84</title>
<path fill="none" stroke="midnightblue" d="M712.836,-576.04C740.126,-581.212 774.042,-587.64 802.733,-593.078"/>
<polygon fill="midnightblue" stroke="midnightblue" points="802.167,-596.533 812.643,-594.956 803.47,-589.655 802.167,-596.533"/>
</g>
<!-- Node89&#45;&gt;Node79 -->
<g id="edge19" class="edge"><title>Node89&#45;&gt;Node79</title>
<path fill="none" stroke="midnightblue" d="M715.201,-442.921C724.342,-440.416 733.601,-437.314 742,-433.5 778.525,-416.915 815.365,-388.706 838.635,-369.139"/>
<polygon fill="midnightblue" stroke="midnightblue" points="840.946,-371.767 846.277,-362.611 836.4,-366.445 840.946,-371.767"/>
</g>
<!-- Node90&#45;&gt;Node79 -->
<g id="edge21" class="edge"><title>Node90&#45;&gt;Node79</title>
<path fill="none" stroke="midnightblue" d="M376.101,-77.5673C444.58,-110.025 609.547,-189.91 742,-267.5 773.932,-286.206 809.075,-309.797 833.221,-326.501"/>
<polygon fill="midnightblue" stroke="midnightblue" points="831.384,-329.487 841.593,-332.322 835.38,-323.74 831.384,-329.487"/>
</g>
<!-- Node92 -->
<g id="node18" class="node"><title>Node92</title>
<g id="a_node18"><a xlink:href="../../d1/d85/namespacemom__restart.html#ab1ebc8fc62c81dd175b09d376ca2a564" target="_top" xlink:title="mom_restart::restart_end">
<polygon fill="white" stroke="black" points="289,-6 289,-25 397,-25 397,-6 289,-6"/>
<text text-anchor="middle" x="343" y="-13" font-family="Helvetica,sans-Serif" font-size="10.00">mom_restart::restart_end</text>
</a>
</g>
</g>
<!-- Node91&#45;&gt;Node92 -->
<g id="edge24" class="edge"><title>Node91&#45;&gt;Node92</title>
<path fill="none" stroke="midnightblue" d="M236.546,-15.5C249.715,-15.5 264.422,-15.5 278.575,-15.5"/>
<polygon fill="midnightblue" stroke="midnightblue" points="278.752,-19.0001 288.752,-15.5 278.752,-12.0001 278.752,-19.0001"/>
</g>
<!-- Node93&#45;&gt;Node78 -->
<g id="edge28" class="edge"><title>Node93&#45;&gt;Node78</title>
<path fill="none" stroke="midnightblue" d="M237.725,-251.164C253.76,-255.362 272.036,-259.422 289,-261.5 337.123,-267.394 392.264,-265.327 432.279,-262.254"/>
<polygon fill="midnightblue" stroke="midnightblue" points="432.687,-265.732 442.371,-261.433 432.12,-258.755 432.687,-265.732"/>
</g>
<!-- Node93&#45;&gt;Node79 -->
<g id="edge26" class="edge"><title>Node93&#45;&gt;Node79</title>
<path fill="none" stroke="midnightblue" d="M223.049,-252.674C241.67,-261.283 266.199,-271.504 289,-277.5 474.621,-326.313 703.13,-341.259 806.943,-345.698"/>
<polygon fill="midnightblue" stroke="midnightblue" points="807.055,-349.205 817.19,-346.119 807.343,-342.211 807.055,-349.205"/>
</g>
<!-- Node94 -->
<g id="node20" class="node"><title>Node94</title>
<g id="a_node20"><a xlink:href="../../df/d46/namespacemom__string__functions.html#a4d76e9e8c2cd53f210b02006924a9212" target="_top" xlink:title="mom_string_functions\l::lowercase">
<polygon fill="white" stroke="black" points="295.5,-173.5 295.5,-203.5 390.5,-203.5 390.5,-173.5 295.5,-173.5"/>
<text text-anchor="start" x="303.5" y="-191.5" font-family="Helvetica,sans-Serif" font-size="10.00">mom_string_functions</text>
<text text-anchor="middle" x="343" y="-180.5" font-family="Helvetica,sans-Serif" font-size="10.00">::lowercase</text>
</a>
</g>
</g>
<!-- Node93&#45;&gt;Node94 -->
<g id="edge27" class="edge"><title>Node93&#45;&gt;Node94</title>
<path fill="none" stroke="midnightblue" d="M237.761,-222.665C253.062,-217.65 270.327,-211.991 286.339,-206.743"/>
<polygon fill="midnightblue" stroke="midnightblue" points="287.706,-209.979 296.119,-203.538 285.526,-203.327 287.706,-209.979"/>
</g>
<!-- Node95 -->
<g id="node21" class="node"><title>Node95</title>
<g id="a_node21"><a xlink:href="../../d1/d85/namespacemom__restart.html#a4b143fb18dab7c0825e426fbf9532623" target="_top" xlink:title="mom_restart::restart\l_error">
<polygon fill="white" stroke="black" points="298,-222.5 298,-252.5 388,-252.5 388,-222.5 298,-222.5"/>
<text text-anchor="start" x="306" y="-240.5" font-family="Helvetica,sans-Serif" font-size="10.00">mom_restart::restart</text>
<text text-anchor="middle" x="343" y="-229.5" font-family="Helvetica,sans-Serif" font-size="10.00">_error</text>
</a>
</g>
</g>
<!-- Node93&#45;&gt;Node95 -->
<g id="edge29" class="edge"><title>Node93&#45;&gt;Node95</title>
<path fill="none" stroke="midnightblue" d="M237.761,-237.5C253.56,-237.5 271.453,-237.5 287.899,-237.5"/>
<polygon fill="midnightblue" stroke="midnightblue" points="287.921,-241 297.921,-237.5 287.921,-234 287.921,-241"/>
</g>
<!-- Node95&#45;&gt;Node78 -->
<g id="edge30" class="edge"><title>Node95&#45;&gt;Node78</title>
<path fill="none" stroke="midnightblue" d="M388.38,-243.356C402.145,-245.172 417.497,-247.198 431.948,-249.104"/>
<polygon fill="midnightblue" stroke="midnightblue" points="431.902,-252.629 442.274,-250.467 432.818,-245.689 431.902,-252.629"/>
</g>
<!-- Node96&#45;&gt;Node78 -->
<g id="edge32" class="edge"><title>Node96&#45;&gt;Node78</title>
<path fill="none" stroke="midnightblue" d="M246.683,-99.3536C290.255,-98.5494 351.494,-103.328 397,-130.5 436.756,-154.239 464.102,-202.768 477.813,-232.186"/>
<polygon fill="midnightblue" stroke="midnightblue" points="474.646,-233.679 481.938,-241.366 481.032,-230.81 474.646,-233.679"/>
</g>
<!-- Node96&#45;&gt;Node90 -->
<g id="edge33" class="edge"><title>Node96&#45;&gt;Node90</title>
<path fill="none" stroke="midnightblue" d="M246.896,-88.5821C259.936,-85.006 273.87,-81.1845 286.939,-77.6002"/>
<polygon fill="midnightblue" stroke="midnightblue" points="288.018,-80.9337 296.736,-74.9135 286.167,-74.183 288.018,-80.9337"/>
</g>
</g>
</svg>
