<?xml version="1.0" encoding="UTF-8" standalone="no"?>
<!DOCTYPE svg PUBLIC "-//W3C//DTD SVG 1.1//EN"
 "http://www.w3.org/Graphics/SVG/1.1/DTD/svg11.dtd">
<!-- Generated by graphviz version 2.38.0 (20140413.2041)
 -->
<!-- Title: mom_surface_forcing::surface_forcing_init Pages: 1 -->
<svg width="1333pt" height="458pt"
 viewBox="0.00 0.00 1333.00 457.80" xmlns="http://www.w3.org/2000/svg" xmlns:xlink="http://www.w3.org/1999/xlink">
<g id="graph0" class="graph" transform="scale(1 1) rotate(0) translate(4 453.804)">
<title>mom_surface_forcing::surface_forcing_init</title>
<polygon fill="white" stroke="none" points="-4,4 -4,-453.804 1329,-453.804 1329,4 -4,4"/>
<!-- Node75 -->
<g id="node1" class="node"><title>Node75</title>
<polygon fill="#bfbfbf" stroke="black" points="0,-222.829 0,-252.829 110,-252.829 110,-222.829 0,-222.829"/>
<text text-anchor="start" x="8" y="-240.829" font-family="Helvetica,sans-Serif" font-size="10.00">mom_surface_forcing</text>
<text text-anchor="middle" x="55" y="-229.829" font-family="Helvetica,sans-Serif" font-size="10.00">::surface_forcing_init</text>
</g>
<!-- Node76 -->
<g id="node2" class="node"><title>Node76</title>
<g id="a_node2"><a xlink:href="../../dd/dc3/namespacemom__forcing__type.html#a432b1cbc47ab082b64bf7007a8674973" target="_top" xlink:title="Deallocate the forcing type. ">
<polygon fill="white" stroke="black" points="146,-342.829 146,-372.829 293,-372.829 293,-342.829 146,-342.829"/>
<text text-anchor="start" x="154" y="-360.829" font-family="Helvetica,sans-Serif" font-size="10.00">mom_forcing_type::deallocate</text>
<text text-anchor="middle" x="219.5" y="-349.829" font-family="Helvetica,sans-Serif" font-size="10.00">_forcing_type</text>
</a>
</g>
</g>
<!-- Node75&#45;&gt;Node76 -->
<g id="edge1" class="edge"><title>Node75&#45;&gt;Node76</title>
<path fill="none" stroke="midnightblue" d="M66.4309,-253.036C81.6083,-274.073 111.735,-311.931 146,-333.829 148.461,-335.402 151.036,-336.882 153.686,-338.274"/>
<polygon fill="midnightblue" stroke="midnightblue" points="152.399,-341.537 162.933,-342.669 155.404,-335.215 152.399,-341.537"/>
</g>
<!-- Node77 -->
<g id="node3" class="node"><title>Node77</title>
<g id="a_node3"><a xlink:href="../../d9/d7f/namespacemom__get__input.html#a299c5b9476662ef1a382e23a8d078143" target="_top" xlink:title="mom_get_input::get\l_mom_input">
<polygon fill="white" stroke="black" points="168,-244.829 168,-274.829 271,-274.829 271,-244.829 168,-244.829"/>
<text text-anchor="start" x="176" y="-262.829" font-family="Helvetica,sans-Serif" font-size="10.00">mom_get_input::get</text>
<text text-anchor="middle" x="219.5" y="-251.829" font-family="Helvetica,sans-Serif" font-size="10.00">_mom_input</text>
</a>
</g>
</g>
<!-- Node75&#45;&gt;Node77 -->
<g id="edge2" class="edge"><title>Node75&#45;&gt;Node77</title>
<path fill="none" stroke="midnightblue" d="M110.11,-245.155C125.409,-247.226 142.158,-249.494 157.817,-251.614"/>
<polygon fill="midnightblue" stroke="midnightblue" points="157.543,-255.109 167.923,-252.982 158.483,-248.172 157.543,-255.109"/>
</g>
<!-- Node78 -->
<g id="node4" class="node"><title>Node78</title>
<g id="a_node4"><a xlink:href="../../d0/de6/namespacemom__error__handler.html#a460cfb79a06c29fc249952c2a3710d67" target="_top" xlink:title="mom_error_handler::\lmom_error">
<polygon fill="white" stroke="black" points="508.5,-115.829 508.5,-145.829 614.5,-145.829 614.5,-115.829 508.5,-115.829"/>
<text text-anchor="start" x="516.5" y="-133.829" font-family="Helvetica,sans-Serif" font-size="10.00">mom_error_handler::</text>
<text text-anchor="middle" x="561.5" y="-122.829" font-family="Helvetica,sans-Serif" font-size="10.00">mom_error</text>
</a>
</g>
</g>
<!-- Node75&#45;&gt;Node78 -->
<g id="edge20" class="edge"><title>Node75&#45;&gt;Node78</title>
<path fill="none" stroke="midnightblue" d="M110.16,-234.182C212.985,-226.967 429.02,-210.318 460,-195.829 480.214,-186.376 477.624,-173.491 496,-160.829 501.339,-157.151 507.201,-153.719 513.147,-150.588"/>
<polygon fill="midnightblue" stroke="midnightblue" points="515.111,-153.519 522.496,-145.923 511.985,-147.256 515.111,-153.519"/>
</g>
<!-- Node90 -->
<g id="node16" class="node"><title>Node90</title>
<g id="a_node16"><a xlink:href="../../d1/d85/namespacemom__restart.html#a304183ab574d06ac810b41b1e82eb89c" target="_top" xlink:title="mom_restart::restart\l_init_end">
<polygon fill="white" stroke="black" points="167,-293.829 167,-323.829 272,-323.829 272,-293.829 167,-293.829"/>
<text text-anchor="start" x="175" y="-311.829" font-family="Helvetica,sans-Serif" font-size="10.00">mom_restart::restart</text>
<text text-anchor="middle" x="219.5" y="-300.829" font-family="Helvetica,sans-Serif" font-size="10.00">_init_end</text>
</a>
</g>
</g>
<!-- Node75&#45;&gt;Node90 -->
<g id="edge21" class="edge"><title>Node75&#45;&gt;Node90</title>
<path fill="none" stroke="midnightblue" d="M83.0964,-252.941C100.719,-262.452 124.363,-274.623 146,-283.829 151.13,-286.012 156.522,-288.15 161.952,-290.199"/>
<polygon fill="midnightblue" stroke="midnightblue" points="161.127,-293.624 171.721,-293.781 163.537,-287.052 161.127,-293.624"/>
</g>
<!-- Node92 -->
<g id="node18" class="node"><title>Node92</title>
<g id="a_node18"><a xlink:href="../../d1/d85/namespacemom__restart.html#aec60d8a437fc858db4a020f9985b449d" target="_top" xlink:title="mom_restart::restore\l_state">
<polygon fill="white" stroke="black" points="166,-63.8294 166,-93.8294 273,-93.8294 273,-63.8294 166,-63.8294"/>
<text text-anchor="start" x="174" y="-81.8294" font-family="Helvetica,sans-Serif" font-size="10.00">mom_restart::restore</text>
<text text-anchor="middle" x="219.5" y="-70.8294" font-family="Helvetica,sans-Serif" font-size="10.00">_state</text>
</a>
</g>
</g>
<!-- Node75&#45;&gt;Node92 -->
<g id="edge23" class="edge"><title>Node75&#45;&gt;Node92</title>
<path fill="none" stroke="midnightblue" d="M71.5812,-222.584C100.263,-194.52 161.553,-134.55 195.199,-101.628"/>
<polygon fill="midnightblue" stroke="midnightblue" points="198.027,-103.758 202.727,-94.2625 193.132,-98.7545 198.027,-103.758"/>
</g>
<!-- Node95 -->
<g id="node21" class="node"><title>Node95</title>
<g id="a_node21"><a xlink:href="../../db/d8c/namespaceuser__surface__forcing.html#aadd1db23ad3bade1ef44fb7d61ccb32f" target="_top" xlink:title="user_surface_forcing\l::user_surface_forcing_init">
<polygon fill="white" stroke="black" points="329,-156.829 329,-186.829 460,-186.829 460,-156.829 329,-156.829"/>
<text text-anchor="start" x="337" y="-174.829" font-family="Helvetica,sans-Serif" font-size="10.00">user_surface_forcing</text>
<text text-anchor="middle" x="394.5" y="-163.829" font-family="Helvetica,sans-Serif" font-size="10.00">::user_surface_forcing_init</text>
</a>
</g>
</g>
<!-- Node75&#45;&gt;Node95 -->
<g id="edge29" class="edge"><title>Node75&#45;&gt;Node95</title>
<path fill="none" stroke="midnightblue" d="M87.8131,-222.749C104.738,-215.335 126.11,-206.92 146,-201.829 202.98,-187.246 269.205,-179.692 318.805,-175.813"/>
<polygon fill="midnightblue" stroke="midnightblue" points="319.101,-179.301 328.811,-175.063 318.578,-172.321 319.101,-179.301"/>
</g>
<!-- Node77&#45;&gt;Node78 -->
<g id="edge3" class="edge"><title>Node77&#45;&gt;Node78</title>
<path fill="none" stroke="midnightblue" d="M271.11,-266.334C323.151,-270.29 404.251,-268.566 460,-229.829 488.406,-210.092 470.991,-184.725 496,-160.829 499.809,-157.19 504.139,-153.931 508.712,-151.026"/>
<polygon fill="midnightblue" stroke="midnightblue" points="510.786,-153.871 517.729,-145.869 507.311,-147.795 510.786,-153.871"/>
</g>
<!-- Node80 -->
<g id="node6" class="node"><title>Node80</title>
<g id="a_node6"><a xlink:href="../../d9/def/namespacemom__file__parser.html#abecae1b9386aafa17aec927af1f8c448" target="_top" xlink:title="mom_file_parser::open\l_param_file">
<polygon fill="white" stroke="black" points="336.5,-282.829 336.5,-312.829 452.5,-312.829 452.5,-282.829 336.5,-282.829"/>
<text text-anchor="start" x="344.5" y="-300.829" font-family="Helvetica,sans-Serif" font-size="10.00">mom_file_parser::open</text>
<text text-anchor="middle" x="394.5" y="-289.829" font-family="Helvetica,sans-Serif" font-size="10.00">_param_file</text>
</a>
</g>
</g>
<!-- Node77&#45;&gt;Node80 -->
<g id="edge5" class="edge"><title>Node77&#45;&gt;Node80</title>
<path fill="none" stroke="midnightblue" d="M271.004,-270.923C288.334,-274.729 308.011,-279.052 326.446,-283.101"/>
<polygon fill="midnightblue" stroke="midnightblue" points="325.725,-286.526 336.244,-285.253 327.227,-279.689 325.725,-286.526"/>
</g>
<!-- Node79 -->
<g id="node5" class="node"><title>Node79</title>
<g id="a_node5"><a xlink:href="../../d0/de6/namespacemom__error__handler.html#ad5f00a53059c72fe2332d1436c80ca71" target="_top" xlink:title="mom_error_handler::\lis_root_pe">
<polygon fill="white" stroke="black" points="943,-159.829 943,-189.829 1049,-189.829 1049,-159.829 943,-159.829"/>
<text text-anchor="start" x="951" y="-177.829" font-family="Helvetica,sans-Serif" font-size="10.00">mom_error_handler::</text>
<text text-anchor="middle" x="996" y="-166.829" font-family="Helvetica,sans-Serif" font-size="10.00">is_root_pe</text>
</a>
</g>
</g>
<!-- Node78&#45;&gt;Node79 -->
<g id="edge4" class="edge"><title>Node78&#45;&gt;Node79</title>
<path fill="none" stroke="midnightblue" d="M614.67,-136.137C694.659,-144.274 847.307,-159.804 932.888,-168.51"/>
<polygon fill="midnightblue" stroke="midnightblue" points="932.68,-172.007 942.982,-169.537 933.388,-165.043 932.68,-172.007"/>
</g>
<!-- Node80&#45;&gt;Node79 -->
<g id="edge6" class="edge"><title>Node80&#45;&gt;Node79</title>
<path fill="none" stroke="midnightblue" d="M423.762,-282.666C471.474,-257.941 571.734,-209.706 663,-189.829 755.366,-169.713 865.49,-169.202 932.809,-171.441"/>
<polygon fill="midnightblue" stroke="midnightblue" points="932.71,-174.939 942.83,-171.805 932.964,-167.944 932.71,-174.939"/>
</g>
<!-- Node81 -->
<g id="node7" class="node"><title>Node81</title>
<g id="a_node7"><a xlink:href="../../df/dfe/MOM__memory_8h.html#ae22791a326f7ecd05017238a41eea3a8" target="_top" xlink:title="number">
<polygon fill="white" stroke="black" points="537,-332.329 537,-351.329 586,-351.329 586,-332.329 537,-332.329"/>
<text text-anchor="middle" x="561.5" y="-339.329" font-family="Helvetica,sans-Serif" font-size="10.00">number</text>
</a>
</g>
</g>
<!-- Node80&#45;&gt;Node81 -->
<g id="edge7" class="edge"><title>Node80&#45;&gt;Node81</title>
<path fill="none" stroke="midnightblue" d="M451.822,-312.849C476.806,-319.511 505.364,-327.126 526.933,-332.878"/>
<polygon fill="midnightblue" stroke="midnightblue" points="526.049,-336.265 536.614,-335.46 527.853,-329.501 526.049,-336.265"/>
</g>
<!-- Node82 -->
<g id="node8" class="node"><title>Node82</title>
<g id="a_node8"><a xlink:href="../../d9/def/namespacemom__file__parser.html#a7abfd98d7f0831fc0d1f3747a68f1be9" target="_top" xlink:title="mom_file_parser::populate\l_param_data">
<polygon fill="white" stroke="black" points="496,-282.829 496,-312.829 627,-312.829 627,-282.829 496,-282.829"/>
<text text-anchor="start" x="504" y="-300.829" font-family="Helvetica,sans-Serif" font-size="10.00">mom_file_parser::populate</text>
<text text-anchor="middle" x="561.5" y="-289.829" font-family="Helvetica,sans-Serif" font-size="10.00">_param_data</text>
</a>
</g>
</g>
<!-- Node80&#45;&gt;Node82 -->
<g id="edge8" class="edge"><title>Node80&#45;&gt;Node82</title>
<path fill="none" stroke="midnightblue" d="M452.746,-297.829C463.364,-297.829 474.6,-297.829 485.651,-297.829"/>
<polygon fill="midnightblue" stroke="midnightblue" points="485.725,-301.33 495.725,-297.829 485.725,-294.33 485.725,-301.33"/>
</g>
<!-- Node82&#45;&gt;Node79 -->
<g id="edge10" class="edge"><title>Node82&#45;&gt;Node79</title>
<path fill="none" stroke="midnightblue" d="M580.475,-282.686C599.652,-267.368 631.541,-244.233 663,-231.829 711.05,-212.885 850.846,-192.947 932.909,-182.406"/>
<polygon fill="midnightblue" stroke="midnightblue" points="933.388,-185.873 942.865,-181.136 932.503,-178.929 933.388,-185.873"/>
</g>
<!-- Node83 -->
<g id="node9" class="node"><title>Node83</title>
<g id="a_node9"><a xlink:href="../../d9/def/namespacemom__file__parser.html#a99c426fd23fc4df0c4d05e33039e0a66" target="_top" xlink:title="mom_file_parser::closemultilinecomment">
<polygon fill="white" stroke="black" points="663,-279.329 663,-298.329 857,-298.329 857,-279.329 663,-279.329"/>
<text text-anchor="middle" x="760" y="-286.329" font-family="Helvetica,sans-Serif" font-size="10.00">mom_file_parser::closemultilinecomment</text>
</a>
</g>
</g>
<!-- Node82&#45;&gt;Node83 -->
<g id="edge9" class="edge"><title>Node82&#45;&gt;Node83</title>
<path fill="none" stroke="midnightblue" d="M627.114,-294.87C635.314,-294.494 643.871,-294.103 652.512,-293.707"/>
<polygon fill="midnightblue" stroke="midnightblue" points="652.851,-297.195 662.68,-293.241 652.531,-290.202 652.851,-297.195"/>
</g>
<!-- Node84 -->
<g id="node10" class="node"><title>Node84</title>
<g id="a_node10"><a xlink:href="../../d9/def/namespacemom__file__parser.html#ab4b89d9420e174185db1c6aa3feb948b" target="_top" xlink:title="mom_file_parser::lastnoncommentnonblank">
<polygon fill="white" stroke="black" points="893,-355.329 893,-374.329 1099,-374.329 1099,-355.329 893,-355.329"/>
<text text-anchor="middle" x="996" y="-362.329" font-family="Helvetica,sans-Serif" font-size="10.00">mom_file_parser::lastnoncommentnonblank</text>
</a>
</g>
</g>
<!-- Node82&#45;&gt;Node84 -->
<g id="edge11" class="edge"><title>Node82&#45;&gt;Node84</title>
<path fill="none" stroke="midnightblue" d="M614.016,-312.914C618.774,-315.692 623.219,-318.968 627,-322.829 659.757,-356.281 624.652,-394.97 663,-421.829 760.329,-490.001 912.306,-414.048 970.868,-379.81"/>
<polygon fill="midnightblue" stroke="midnightblue" points="972.958,-382.639 979.755,-374.511 969.373,-376.626 972.958,-382.639"/>
</g>
<!-- Node86 -->
<g id="node12" class="node"><title>Node86</title>
<g id="a_node12"><a xlink:href="../../d9/def/namespacemom__file__parser.html#a476a2649ce161e38088588e07f7df130" target="_top" xlink:title="mom_file_parser::openmultilinecomment">
<polygon fill="white" stroke="black" points="900,-317.329 900,-336.329 1092,-336.329 1092,-317.329 900,-317.329"/>
<text text-anchor="middle" x="996" y="-324.329" font-family="Helvetica,sans-Serif" font-size="10.00">mom_file_parser::openmultilinecomment</text>
</a>
</g>
</g>
<!-- Node82&#45;&gt;Node86 -->
<g id="edge13" class="edge"><title>Node82&#45;&gt;Node86</title>
<path fill="none" stroke="midnightblue" d="M627.07,-304.659C639.009,-305.807 651.375,-306.919 663,-307.829 738.668,-313.757 824.176,-318.607 889.461,-321.923"/>
<polygon fill="midnightblue" stroke="midnightblue" points="889.597,-325.434 899.761,-322.442 889.95,-318.443 889.597,-325.434"/>
</g>
<!-- Node87 -->
<g id="node13" class="node"><title>Node87</title>
<g id="a_node13"><a xlink:href="../../d9/def/namespacemom__file__parser.html#ae0b982cc161173a401291757a6677373" target="_top" xlink:title="mom_file_parser::removecomments">
<polygon fill="white" stroke="black" points="673.5,-355.329 673.5,-374.329 846.5,-374.329 846.5,-355.329 673.5,-355.329"/>
<text text-anchor="middle" x="760" y="-362.329" font-family="Helvetica,sans-Serif" font-size="10.00">mom_file_parser::removecomments</text>
</a>
</g>
</g>
<!-- Node82&#45;&gt;Node87 -->
<g id="edge15" class="edge"><title>Node82&#45;&gt;Node87</title>
<path fill="none" stroke="midnightblue" d="M602.995,-312.855C611.007,-316.016 619.313,-319.427 627,-322.829 643.358,-330.07 646.223,-334.623 663,-340.829 675.454,-345.437 689.14,-349.45 702.178,-352.807"/>
<polygon fill="midnightblue" stroke="midnightblue" points="701.442,-356.231 711.991,-355.246 703.13,-349.437 701.442,-356.231"/>
</g>
<!-- Node88 -->
<g id="node14" class="node"><title>Node88</title>
<g id="a_node14"><a xlink:href="../../d9/def/namespacemom__file__parser.html#a9813087789e0924f363d7f67768c7f42" target="_top" xlink:title="mom_file_parser::replacetabs">
<polygon fill="white" stroke="black" points="687.5,-393.329 687.5,-412.329 832.5,-412.329 832.5,-393.329 687.5,-393.329"/>
<text text-anchor="middle" x="760" y="-400.329" font-family="Helvetica,sans-Serif" font-size="10.00">mom_file_parser::replacetabs</text>
</a>
</g>
</g>
<!-- Node82&#45;&gt;Node88 -->
<g id="edge17" class="edge"><title>Node82&#45;&gt;Node88</title>
<path fill="none" stroke="midnightblue" d="M612.015,-312.964C617.381,-315.756 622.513,-319.022 627,-322.829 651.002,-343.199 637.315,-365.628 663,-383.829 667.592,-387.083 672.603,-389.814 677.847,-392.101"/>
<polygon fill="midnightblue" stroke="midnightblue" points="676.908,-395.488 687.5,-395.757 679.388,-388.942 676.908,-395.488"/>
</g>
<!-- Node89 -->
<g id="node15" class="node"><title>Node89</title>
<g id="a_node15"><a xlink:href="../../d9/def/namespacemom__file__parser.html#a3ad322925f44e8cb48c4e652634f6f93" target="_top" xlink:title="mom_file_parser::simplifywhitespace">
<polygon fill="white" stroke="black" points="671,-241.329 671,-260.329 849,-260.329 849,-241.329 671,-241.329"/>
<text text-anchor="middle" x="760" y="-248.329" font-family="Helvetica,sans-Serif" font-size="10.00">mom_file_parser::simplifywhitespace</text>
</a>
</g>
</g>
<!-- Node82&#45;&gt;Node89 -->
<g id="edge18" class="edge"><title>Node82&#45;&gt;Node89</title>
<path fill="none" stroke="midnightblue" d="M613.431,-282.827C629.25,-278.387 646.789,-273.686 663,-269.829 673.994,-267.214 685.756,-264.675 697.145,-262.349"/>
<polygon fill="midnightblue" stroke="midnightblue" points="697.913,-265.765 707.028,-260.364 696.534,-258.902 697.913,-265.765"/>
</g>
<!-- Node85 -->
<g id="node11" class="node"><title>Node85</title>
<g id="a_node11"><a xlink:href="../../d9/def/namespacemom__file__parser.html#a000fd0a0681f9e73481ef2663154df78" target="_top" xlink:title="mom_file_parser::lastnoncommentindex">
<polygon fill="white" stroke="black" points="1135,-336.329 1135,-355.329 1325,-355.329 1325,-336.329 1135,-336.329"/>
<text text-anchor="middle" x="1230" y="-343.329" font-family="Helvetica,sans-Serif" font-size="10.00">mom_file_parser::lastnoncommentindex</text>
</a>
</g>
</g>
<!-- Node84&#45;&gt;Node85 -->
<g id="edge12" class="edge"><title>Node84&#45;&gt;Node85</title>
<path fill="none" stroke="midnightblue" d="M1099.1,-356.468C1107.66,-355.767 1116.32,-355.057 1124.9,-354.355"/>
<polygon fill="midnightblue" stroke="midnightblue" points="1125.24,-357.839 1134.92,-353.534 1124.67,-350.862 1125.24,-357.839"/>
</g>
<!-- Node86&#45;&gt;Node85 -->
<g id="edge14" class="edge"><title>Node86&#45;&gt;Node85</title>
<path fill="none" stroke="midnightblue" d="M1092.03,-334.612C1102.86,-335.499 1113.94,-336.406 1124.87,-337.302"/>
<polygon fill="midnightblue" stroke="midnightblue" points="1124.61,-340.792 1134.87,-338.12 1125.18,-333.815 1124.61,-340.792"/>
</g>
<!-- Node87&#45;&gt;Node84 -->
<g id="edge16" class="edge"><title>Node87&#45;&gt;Node84</title>
<path fill="none" stroke="midnightblue" d="M846.804,-364.829C858.523,-364.829 870.693,-364.829 882.793,-364.829"/>
<polygon fill="midnightblue" stroke="midnightblue" points="882.931,-368.33 892.931,-364.829 882.931,-361.33 882.931,-368.33"/>
</g>
<!-- Node89&#45;&gt;Node79 -->
<g id="edge19" class="edge"><title>Node89&#45;&gt;Node79</title>
<path fill="none" stroke="midnightblue" d="M803.826,-241.242C820.537,-237.21 839.781,-232.206 857,-226.829 888.125,-217.11 922.437,-204.191 949.06,-193.662"/>
<polygon fill="midnightblue" stroke="midnightblue" points="950.506,-196.854 958.501,-189.901 947.916,-190.351 950.506,-196.854"/>
</g>
<!-- Node91 -->
<g id="node17" class="node"><title>Node91</title>
<g id="a_node17"><a xlink:href="../../d1/d85/namespacemom__restart.html#ab1ebc8fc62c81dd175b09d376ca2a564" target="_top" xlink:title="mom_restart::restart_end">
<polygon fill="white" stroke="black" points="331.5,-332.329 331.5,-351.329 457.5,-351.329 457.5,-332.329 331.5,-332.329"/>
<text text-anchor="middle" x="394.5" y="-339.329" font-family="Helvetica,sans-Serif" font-size="10.00">mom_restart::restart_end</text>
</a>
</g>
</g>
<!-- Node90&#45;&gt;Node91 -->
<g id="edge22" class="edge"><title>Node90&#45;&gt;Node91</title>
<path fill="none" stroke="midnightblue" d="M272.406,-318.731C291.648,-322.401 313.625,-326.593 333.527,-330.39"/>
<polygon fill="midnightblue" stroke="midnightblue" points="332.935,-333.84 343.414,-332.275 334.247,-326.964 332.935,-333.84"/>
</g>
<!-- Node92&#45;&gt;Node78 -->
<g id="edge26" class="edge"><title>Node92&#45;&gt;Node78</title>
<path fill="none" stroke="midnightblue" d="M273.324,-79.4231C322.186,-80.8185 396.615,-85.0982 460,-97.8294 477.296,-101.303 495.763,-106.817 512.086,-112.35"/>
<polygon fill="midnightblue" stroke="midnightblue" points="511.348,-115.799 521.943,-115.78 513.649,-109.188 511.348,-115.799"/>
</g>
<!-- Node92&#45;&gt;Node79 -->
<g id="edge24" class="edge"><title>Node92&#45;&gt;Node79</title>
<path fill="none" stroke="midnightblue" d="M237.383,-63.6899C257.517,-46.7502 292.991,-20.3094 329,-9.82942 384.903,6.44046 402.428,-1.15311 460,-9.82942 647.324,-38.0598 859.512,-118.941 950.13,-155.942"/>
<polygon fill="midnightblue" stroke="midnightblue" points="948.965,-159.247 959.545,-159.807 951.623,-152.772 948.965,-159.247"/>
</g>
<!-- Node93 -->
<g id="node19" class="node"><title>Node93</title>
<g id="a_node19"><a xlink:href="../../df/d46/namespacemom__string__functions.html#a4d76e9e8c2cd53f210b02006924a9212" target="_top" xlink:title="mom_string_functions\l::lowercase">
<polygon fill="white" stroke="black" points="338,-19.8294 338,-49.8294 451,-49.8294 451,-19.8294 338,-19.8294"/>
<text text-anchor="start" x="346" y="-37.8294" font-family="Helvetica,sans-Serif" font-size="10.00">mom_string_functions</text>
<text text-anchor="middle" x="394.5" y="-26.8294" font-family="Helvetica,sans-Serif" font-size="10.00">::lowercase</text>
</a>
</g>
</g>
<!-- Node92&#45;&gt;Node93 -->
<g id="edge25" class="edge"><title>Node92&#45;&gt;Node93</title>
<path fill="none" stroke="midnightblue" d="M273.346,-65.3889C290.617,-60.9962 310.009,-56.0641 328.092,-51.4651"/>
<polygon fill="midnightblue" stroke="midnightblue" points="329.152,-54.8069 337.981,-48.9499 327.427,-48.0228 329.152,-54.8069"/>
</g>
<!-- Node94 -->
<g id="node20" class="node"><title>Node94</title>
<g id="a_node20"><a xlink:href="../../d1/d85/namespacemom__restart.html#a4b143fb18dab7c0825e426fbf9532623" target="_top" xlink:title="mom_restart::restart\l_error">
<polygon fill="white" stroke="black" points="342,-107.829 342,-137.829 447,-137.829 447,-107.829 342,-107.829"/>
<text text-anchor="start" x="350" y="-125.829" font-family="Helvetica,sans-Serif" font-size="10.00">mom_restart::restart</text>
<text text-anchor="middle" x="394.5" y="-114.829" font-family="Helvetica,sans-Serif" font-size="10.00">_error</text>
</a>
</g>
</g>
<!-- Node92&#45;&gt;Node94 -->
<g id="edge27" class="edge"><title>Node92&#45;&gt;Node94</title>
<path fill="none" stroke="midnightblue" d="M273.346,-92.27C291.877,-96.9831 312.85,-102.317 332.027,-107.195"/>
<polygon fill="midnightblue" stroke="midnightblue" points="331.315,-110.625 341.869,-109.698 333.04,-103.841 331.315,-110.625"/>
</g>
<!-- Node94&#45;&gt;Node78 -->
<g id="edge28" class="edge"><title>Node94&#45;&gt;Node78</title>
<path fill="none" stroke="midnightblue" d="M447.254,-125.339C463.377,-126.12 481.328,-126.991 498.099,-127.804"/>
<polygon fill="midnightblue" stroke="midnightblue" points="498.204,-131.313 508.362,-128.302 498.543,-124.321 498.204,-131.313"/>
</g>
<!-- Node95&#45;&gt;Node78 -->
<g id="edge30" class="edge"><title>Node95&#45;&gt;Node78</title>
<path fill="none" stroke="midnightblue" d="M456.003,-156.795C469.843,-153.356 484.574,-149.696 498.477,-146.241"/>
<polygon fill="midnightblue" stroke="midnightblue" points="499.568,-149.577 508.429,-143.768 497.88,-142.783 499.568,-149.577"/>
</g>
</g>
</svg>
