<?xml version="1.0" encoding="UTF-8" standalone="no"?>
<!DOCTYPE svg PUBLIC "-//W3C//DTD SVG 1.1//EN"
 "http://www.w3.org/Graphics/SVG/1.1/DTD/svg11.dtd">
<!-- Generated by graphviz version 2.38.0 (20140413.2041)
 -->
<!-- Title: rossby_front_2d_initialization::hml Pages: 1 -->
<svg width="509pt" height="170pt"
 viewBox="0.00 0.00 509.00 170.00" xmlns="http://www.w3.org/2000/svg" xmlns:xlink="http://www.w3.org/1999/xlink">
<g id="graph0" class="graph" transform="scale(1 1) rotate(0) translate(4 166)">
<title>rossby_front_2d_initialization::hml</title>
<polygon fill="white" stroke="none" points="-4,4 -4,-166 505,-166 505,4 -4,4"/>
<!-- Node6 -->
<g id="node1" class="node"><title>Node6</title>
<polygon fill="#bfbfbf" stroke="black" points="0,-71.5 0,-90.5 164,-90.5 164,-71.5 0,-71.5"/>
<text text-anchor="middle" x="82" y="-78.5" font-family="Helvetica,sans-Serif" font-size="10.00">rossby_front_2d_initialization::hml</text>
</g>
<!-- Node7 -->
<g id="node2" class="node"><title>Node7</title>
<g id="a_node2"><a xlink:href="../../d5/d23/namespacerossby__front__2d__initialization.html#a9240b6245b21404456ccfb2b2b25ab7d" target="_top" xlink:title="Initialization of temperature and salinity in the Rossby front test. ">
<polygon fill="white" stroke="black" points="200,-120.5 200,-161.5 343,-161.5 343,-120.5 200,-120.5"/>
<text text-anchor="start" x="208" y="-149.5" font-family="Helvetica,sans-Serif" font-size="10.00">rossby_front_2d_initialization</text>
<text text-anchor="start" x="208" y="-138.5" font-family="Helvetica,sans-Serif" font-size="10.00">::rossby_front_initialize</text>
<text text-anchor="middle" x="271.5" y="-127.5" font-family="Helvetica,sans-Serif" font-size="10.00">_temperature_salinity</text>
</a>
</g>
</g>
<!-- Node6&#45;&gt;Node7 -->
<g id="edge1" class="edge"><title>Node6&#45;&gt;Node7</title>
<path fill="none" stroke="midnightblue" d="M122.312,-93.5797C146.645,-101.366 178.466,-111.549 206.38,-120.482"/>
<polygon fill="midnightblue" stroke="midnightblue" points="123.301,-90.2215 112.71,-90.5072 121.167,-96.8885 123.301,-90.2215"/>
</g>
<!-- Node8 -->
<g id="node3" class="node"><title>Node8</title>
<g id="a_node3"><a xlink:href="../../d5/d23/namespacerossby__front__2d__initialization.html#a349030e2e1c3cd3213ee2a4d7e9d6f19" target="_top" xlink:title="Initialization of thicknesses in 2D Rossby front test. ">
<polygon fill="white" stroke="black" points="200,-60.5 200,-101.5 343,-101.5 343,-60.5 200,-60.5"/>
<text text-anchor="start" x="208" y="-89.5" font-family="Helvetica,sans-Serif" font-size="10.00">rossby_front_2d_initialization</text>
<text text-anchor="start" x="208" y="-78.5" font-family="Helvetica,sans-Serif" font-size="10.00">::rossby_front_initialize</text>
<text text-anchor="middle" x="271.5" y="-67.5" font-family="Helvetica,sans-Serif" font-size="10.00">_thickness</text>
</a>
</g>
</g>
<!-- Node6&#45;&gt;Node8 -->
<g id="edge2" class="edge"><title>Node6&#45;&gt;Node8</title>
<path fill="none" stroke="midnightblue" d="M174.219,-81C182.822,-81 191.453,-81 199.823,-81"/>
<polygon fill="midnightblue" stroke="midnightblue" points="174.15,-77.5001 164.15,-81 174.15,-84.5001 174.15,-77.5001"/>
</g>
<!-- Node9 -->
<g id="node4" class="node"><title>Node9</title>
<g id="a_node4"><a xlink:href="../../d5/d23/namespacerossby__front__2d__initialization.html#a5496d0e26ba5adaa3b14e420a57a7d2f" target="_top" xlink:title="Initialization of u and v in the Rossby front test. ">
<polygon fill="white" stroke="black" points="200,-0.5 200,-41.5 343,-41.5 343,-0.5 200,-0.5"/>
<text text-anchor="start" x="208" y="-29.5" font-family="Helvetica,sans-Serif" font-size="10.00">rossby_front_2d_initialization</text>
<text text-anchor="start" x="208" y="-18.5" font-family="Helvetica,sans-Serif" font-size="10.00">::rossby_front_initialize</text>
<text text-anchor="middle" x="271.5" y="-7.5" font-family="Helvetica,sans-Serif" font-size="10.00">_velocity</text>
</a>
</g>
</g>
<!-- Node6&#45;&gt;Node9 -->
<g id="edge3" class="edge"><title>Node6&#45;&gt;Node9</title>
<path fill="none" stroke="midnightblue" d="M122.312,-68.4203C146.645,-60.6336 178.466,-50.451 206.38,-41.5184"/>
<polygon fill="midnightblue" stroke="midnightblue" points="121.167,-65.1115 112.71,-71.4928 123.301,-71.7785 121.167,-65.1115"/>
</g>
<!-- Node10 -->
<g id="node5" class="node"><title>Node10</title>
<g id="a_node5"><a xlink:href="../../d6/d62/namespacemom__state__initialization.html#af4e854627c6572332ba3fd895f169321" target="_top" xlink:title="mom_state_initialization\l::mom_initialize_state">
<polygon fill="white" stroke="black" points="379,-6 379,-36 501,-36 501,-6 379,-6"/>
<text text-anchor="start" x="387" y="-24" font-family="Helvetica,sans-Serif" font-size="10.00">mom_state_initialization</text>
<text text-anchor="middle" x="440" y="-13" font-family="Helvetica,sans-Serif" font-size="10.00">::mom_initialize_state</text>
</a>
</g>
</g>
<!-- Node9&#45;&gt;Node10 -->
<g id="edge4" class="edge"><title>Node9&#45;&gt;Node10</title>
<path fill="none" stroke="midnightblue" d="M353.193,-21C361.815,-21 370.473,-21 378.798,-21"/>
<polygon fill="midnightblue" stroke="midnightblue" points="353.111,-17.5001 343.111,-21 353.111,-24.5001 353.111,-17.5001"/>
</g>
</g>
</svg>
