<?xml version="1.0" encoding="UTF-8" standalone="no"?>
<!DOCTYPE svg PUBLIC "-//W3C//DTD SVG 1.1//EN"
 "http://www.w3.org/Graphics/SVG/1.1/DTD/svg11.dtd">
<!-- Generated by graphviz version 2.38.0 (20140413.2041)
 -->
<!-- Title: rossby_front_2d_initialization::rossby_front_initialize_velocity Pages: 1 -->
<svg width="530pt" height="83pt"
 viewBox="0.00 0.00 530.00 83.00" xmlns="http://www.w3.org/2000/svg" xmlns:xlink="http://www.w3.org/1999/xlink">
<g id="graph0" class="graph" transform="scale(1 1) rotate(0) translate(4 79)">
<title>rossby_front_2d_initialization::rossby_front_initialize_velocity</title>
<polygon fill="white" stroke="none" points="-4,4 -4,-79 526,-79 526,4 -4,4"/>
<!-- Node22 -->
<g id="node1" class="node"><title>Node22</title>
<polygon fill="#bfbfbf" stroke="black" points="0,-17 0,-58 143,-58 143,-17 0,-17"/>
<text text-anchor="start" x="8" y="-46" font-family="Helvetica,sans-Serif" font-size="10.00">rossby_front_2d_initialization</text>
<text text-anchor="start" x="8" y="-35" font-family="Helvetica,sans-Serif" font-size="10.00">::rossby_front_initialize</text>
<text text-anchor="middle" x="71.5" y="-24" font-family="Helvetica,sans-Serif" font-size="10.00">_velocity</text>
</g>
<!-- Node23 -->
<g id="node2" class="node"><title>Node23</title>
<g id="a_node2"><a xlink:href="../../d5/d23/namespacerossby__front__2d__initialization.html#a587a5f5c3f4694558d3d5206840ccab2" target="_top" xlink:title="Analytic prescription of mixed layer temperature gradient in 2d Rossby front test. ">
<polygon fill="white" stroke="black" points="189.5,-44.5 189.5,-74.5 332.5,-74.5 332.5,-44.5 189.5,-44.5"/>
<text text-anchor="start" x="197.5" y="-62.5" font-family="Helvetica,sans-Serif" font-size="10.00">rossby_front_2d_initialization</text>
<text text-anchor="middle" x="261" y="-51.5" font-family="Helvetica,sans-Serif" font-size="10.00">::dtdy</text>
</a>
</g>
</g>
<!-- Node22&#45;&gt;Node23 -->
<g id="edge1" class="edge"><title>Node22&#45;&gt;Node23</title>
<path fill="none" stroke="midnightblue" d="M143.119,-45.7859C154.959,-47.1752 167.325,-48.6262 179.395,-50.0423"/>
<polygon fill="midnightblue" stroke="midnightblue" points="179.105,-53.5323 189.445,-51.2216 179.921,-46.58 179.105,-53.5323"/>
</g>
<!-- Node24 -->
<g id="node3" class="node"><title>Node24</title>
<g id="a_node3"><a xlink:href="../../d5/d23/namespacerossby__front__2d__initialization.html#aa10adb0378184432ecaa78eb339c6c5a" target="_top" xlink:title="Analytic prescription of mixed layer depth in 2d Rossby front test. ">
<polygon fill="white" stroke="black" points="179,-6 179,-25 343,-25 343,-6 179,-6"/>
<text text-anchor="middle" x="261" y="-13" font-family="Helvetica,sans-Serif" font-size="10.00">rossby_front_2d_initialization::hml</text>
</a>
</g>
</g>
<!-- Node22&#45;&gt;Node24 -->
<g id="edge2" class="edge"><title>Node22&#45;&gt;Node24</title>
<path fill="none" stroke="midnightblue" d="M143.119,-29.2141C151.475,-28.2336 160.093,-27.2224 168.684,-26.2144"/>
<polygon fill="midnightblue" stroke="midnightblue" points="169.216,-29.6761 178.74,-25.0346 168.4,-22.7238 169.216,-29.6761"/>
</g>
<!-- Node25 -->
<g id="node4" class="node"><title>Node25</title>
<g id="a_node4"><a xlink:href="../../d5/d23/namespacerossby__front__2d__initialization.html#a15a0b752df24fbae7deabe844a418239" target="_top" xlink:title="Pseudo coordinate across domain used by Hml() and dTdy() returns a coordinate from &#45;PI/2 ...">
<polygon fill="white" stroke="black" points="379,-0.5 379,-30.5 522,-30.5 522,-0.5 379,-0.5"/>
<text text-anchor="start" x="387" y="-18.5" font-family="Helvetica,sans-Serif" font-size="10.00">rossby_front_2d_initialization</text>
<text text-anchor="middle" x="450.5" y="-7.5" font-family="Helvetica,sans-Serif" font-size="10.00">::ypseudo</text>
</a>
</g>
</g>
<!-- Node24&#45;&gt;Node25 -->
<g id="edge3" class="edge"><title>Node24&#45;&gt;Node25</title>
<path fill="none" stroke="midnightblue" d="M343.15,-15.5C351.593,-15.5 360.176,-15.5 368.616,-15.5"/>
<polygon fill="midnightblue" stroke="midnightblue" points="368.823,-19.0001 378.823,-15.5 368.823,-12.0001 368.823,-19.0001"/>
</g>
</g>
</svg>
