<?xml version="1.0" encoding="UTF-8" standalone="no"?>
<!DOCTYPE svg PUBLIC "-//W3C//DTD SVG 1.1//EN"
 "http://www.w3.org/Graphics/SVG/1.1/DTD/svg11.dtd">
<!-- Generated by graphviz version 2.38.0 (20140413.2041)
 -->
<!-- Title: rossby_front_2d_initialization::dtdy Pages: 1 -->
<svg width="488pt" height="50pt"
 viewBox="0.00 0.00 488.00 50.00" xmlns="http://www.w3.org/2000/svg" xmlns:xlink="http://www.w3.org/1999/xlink">
<g id="graph0" class="graph" transform="scale(1 1) rotate(0) translate(4 46)">
<title>rossby_front_2d_initialization::dtdy</title>
<polygon fill="white" stroke="none" points="-4,4 -4,-46 484,-46 484,4 -4,4"/>
<!-- Node1 -->
<g id="node1" class="node"><title>Node1</title>
<polygon fill="#bfbfbf" stroke="black" points="0,-6 0,-36 143,-36 143,-6 0,-6"/>
<text text-anchor="start" x="8" y="-24" font-family="Helvetica,sans-Serif" font-size="10.00">rossby_front_2d_initialization</text>
<text text-anchor="middle" x="71.5" y="-13" font-family="Helvetica,sans-Serif" font-size="10.00">::dtdy</text>
</g>
<!-- Node2 -->
<g id="node2" class="node"><title>Node2</title>
<g id="a_node2"><a xlink:href="../../d5/d23/namespacerossby__front__2d__initialization.html#a5496d0e26ba5adaa3b14e420a57a7d2f" target="_top" xlink:title="Initialization of u and v in the Rossby front test. ">
<polygon fill="white" stroke="black" points="179,-0.5 179,-41.5 322,-41.5 322,-0.5 179,-0.5"/>
<text text-anchor="start" x="187" y="-29.5" font-family="Helvetica,sans-Serif" font-size="10.00">rossby_front_2d_initialization</text>
<text text-anchor="start" x="187" y="-18.5" font-family="Helvetica,sans-Serif" font-size="10.00">::rossby_front_initialize</text>
<text text-anchor="middle" x="250.5" y="-7.5" font-family="Helvetica,sans-Serif" font-size="10.00">_velocity</text>
</a>
</g>
</g>
<!-- Node1&#45;&gt;Node2 -->
<g id="edge1" class="edge"><title>Node1&#45;&gt;Node2</title>
<path fill="none" stroke="midnightblue" d="M153.494,-21C161.973,-21 170.544,-21 178.894,-21"/>
<polygon fill="midnightblue" stroke="midnightblue" points="153.218,-17.5001 143.218,-21 153.218,-24.5001 153.218,-17.5001"/>
</g>
<!-- Node3 -->
<g id="node3" class="node"><title>Node3</title>
<g id="a_node3"><a xlink:href="../../d6/d62/namespacemom__state__initialization.html#af4e854627c6572332ba3fd895f169321" target="_top" xlink:title="mom_state_initialization\l::mom_initialize_state">
<polygon fill="white" stroke="black" points="358,-6 358,-36 480,-36 480,-6 358,-6"/>
<text text-anchor="start" x="366" y="-24" font-family="Helvetica,sans-Serif" font-size="10.00">mom_state_initialization</text>
<text text-anchor="middle" x="419" y="-13" font-family="Helvetica,sans-Serif" font-size="10.00">::mom_initialize_state</text>
</a>
</g>
</g>
<!-- Node2&#45;&gt;Node3 -->
<g id="edge2" class="edge"><title>Node2&#45;&gt;Node3</title>
<path fill="none" stroke="midnightblue" d="M332.193,-21C340.815,-21 349.473,-21 357.798,-21"/>
<polygon fill="midnightblue" stroke="midnightblue" points="332.111,-17.5001 322.111,-21 332.111,-24.5001 332.111,-17.5001"/>
</g>
</g>
</svg>
