<?xml version="1.0" encoding="UTF-8" standalone="no"?>
<!DOCTYPE svg PUBLIC "-//W3C//DTD SVG 1.1//EN"
 "http://www.w3.org/Graphics/SVG/1.1/DTD/svg11.dtd">
<!-- Generated by graphviz version 2.38.0 (20140413.2041)
 -->
<!-- Title: mom_diag_mediator::diag_ctrl Pages: 1 -->
<!--zoomable 724 -->
<svg id="main" version="1.1" xmlns="http://www.w3.org/2000/svg" xmlns:xlink="http://www.w3.org/1999/xlink" xml:space="preserve" onload="init(evt)">
<style type="text/css"><![CDATA[
.edge:hover path { stroke: red; }
.edge:hover polygon { stroke: red; fill: red; }
]]></style>
<script type="text/javascript"><![CDATA[
var edges = document.getElementsByTagName('g');
if (edges && edges.length) {
  for (var i=0;i<edges.length;i++) {
    if (edges[i].id.substr(0,4)=='edge') {
      edges[i].setAttribute('class','edge');
    }
  }
}
]]></script>
        <defs>
                <circle id="rim" cx="0" cy="0" r="7"/>
                <circle id="rim2" cx="0" cy="0" r="3.5"/>
                <g id="zoomPlus">
                        <use xlink:href="#rim" fill="#404040">
                                <set attributeName="fill" to="#808080" begin="zoomplus.mouseover" end="zoomplus.mouseout"/>
                        </use>
                        <path d="M-4,0h8M0,-4v8" fill="none" stroke="white" stroke-width="1.5" pointer-events="none"/>
                </g>
                <g id="zoomMin">
                        <use xlink:href="#rim" fill="#404040">
                                <set attributeName="fill" to="#808080" begin="zoomminus.mouseover" end="zoomminus.mouseout"/>
                        </use>
                        <path d="M-4,0h8" fill="none" stroke="white" stroke-width="1.5" pointer-events="none"/>
                </g>
                <g id="dirArrow">
                        <path fill="none" stroke="white" stroke-width="1.5" d="M0,-3.0v7 M-2.5,-0.5L0,-3.0L2.5,-0.5"/>
                </g>
               <g id="resetDef">
                       <use xlink:href="#rim2" fill="#404040">
                               <set attributeName="fill" to="#808080" begin="reset.mouseover" end="reset.mouseout"/>
                       </use>
               </g>
        </defs>

<script type="text/javascript">
var viewWidth = 673;
var viewHeight = 724;
var sectionId = 'dynsection-0';
</script>
<script xlink:href="../../svgpan.js"/>
<svg id="graph" class="graph">
<g id="viewport">
<title>mom_diag_mediator::diag_ctrl</title>
<polygon fill="white" stroke="none" points="-4,4 -4,-720 669,-720 669,4 -4,4"/>
<!-- Node1 -->
<g id="node1" class="node"><title>Node1</title>
<polygon fill="#bfbfbf" stroke="black" points="197,-393 197,-423 292,-423 292,-393 197,-393"/>
<text text-anchor="start" x="205" y="-411" font-family="Helvetica,sans-Serif" font-size="10.00">mom_diag_mediator::</text>
<text text-anchor="middle" x="244.5" y="-400" font-family="Helvetica,sans-Serif" font-size="10.00">diag_ctrl</text>
</g>
<!-- Node6 -->
<g id="node6" class="node"><title>Node6</title>
<g id="a_node6"><a xlink:href="../../d3/d46/structmom__diag__mediator_1_1axes__grp.html" target="_top" xlink:title="A group of 1D axes that comprise a 1D/2D/3D mesh. ">
<polygon fill="white" stroke="black" points="392,-537 392,-567 487,-567 487,-537 392,-537"/>
<text text-anchor="start" x="400" y="-555" font-family="Helvetica,sans-Serif" font-size="10.00">mom_diag_mediator::</text>
<text text-anchor="middle" x="439.5" y="-544" font-family="Helvetica,sans-Serif" font-size="10.00">axes_grp</text>
</a>
</g>
</g>
<!-- Node1&#45;&gt;Node6 -->
<g id="edge9" class="edge"><title>Node1&#45;&gt;Node6</title>
<path fill="none" stroke="#9a32cd" stroke-dasharray="5,2" d="M251.631,-433.173C259.9,-461.443 277.486,-506.442 310,-530 322.921,-539.362 360.591,-545.085 391.827,-548.338"/>
<polygon fill="#9a32cd" stroke="#9a32cd" points="254.926,-431.955 248.907,-423.236 248.176,-433.806 254.926,-431.955"/>
<text text-anchor="middle" x="342" y="-550" font-family="Helvetica,sans-Serif" font-size="10.00"> diag_cs</text>
</g>
<!-- Node2 -->
<g id="node2" class="node"><title>Node2</title>
<polygon fill="white" stroke="#bfbfbf" points="24,-631.5 24,-650.5 62,-650.5 62,-631.5 24,-631.5"/>
<text text-anchor="middle" x="43" y="-638.5" font-family="Helvetica,sans-Serif" font-size="10.00">logical</text>
</g>
<!-- Node2&#45;&gt;Node1 -->
<g id="edge1" class="edge"><title>Node2&#45;&gt;Node1</title>
<path fill="none" stroke="#9a32cd" stroke-dasharray="5,2" d="M50.4734,-621.555C59.1099,-598.551 76.5768,-560.651 104,-539 131.365,-517.395 151.564,-537.514 179,-516 210.45,-491.339 229.896,-446.747 238.429,-423.321"/>
<polygon fill="#9a32cd" stroke="#9a32cd" points="47.0821,-620.646 47.03,-631.24 53.6777,-622.99 47.0821,-620.646"/>
<text text-anchor="middle" x="141.5" y="-619" font-family="Helvetica,sans-Serif" font-size="10.00"> ave_enabled</text>
<text text-anchor="start" x="104" y="-608" font-family="Helvetica,sans-Serif" font-size="10.00">do_z_remapping_on</text>
<text text-anchor="middle" x="141.5" y="-597" font-family="Helvetica,sans-Serif" font-size="10.00">_t</text>
<text text-anchor="start" x="104" y="-586" font-family="Helvetica,sans-Serif" font-size="10.00">do_z_remapping</text>
<text text-anchor="middle" x="141.5" y="-575" font-family="Helvetica,sans-Serif" font-size="10.00">_on_u</text>
<text text-anchor="start" x="104" y="-564" font-family="Helvetica,sans-Serif" font-size="10.00">do_z_remapping</text>
<text text-anchor="middle" x="141.5" y="-553" font-family="Helvetica,sans-Serif" font-size="10.00">_on_v</text>
<text text-anchor="middle" x="141.5" y="-542" font-family="Helvetica,sans-Serif" font-size="10.00">remapping_initialized</text>
</g>
<!-- Node4 -->
<g id="node4" class="node"><title>Node4</title>
<g id="a_node4"><a xlink:href="../../d9/d4e/structmom__diag__mediator_1_1diag__type.html" target="_top" xlink:title="This type is used to represent a diagnostic at the diag_mediator level. There can be both &#39;primary&#39; a...">
<polygon fill="white" stroke="black" points="570,-379 570,-409 665,-409 665,-379 570,-379"/>
<text text-anchor="start" x="578" y="-397" font-family="Helvetica,sans-Serif" font-size="10.00">mom_diag_mediator::</text>
<text text-anchor="middle" x="617.5" y="-386" font-family="Helvetica,sans-Serif" font-size="10.00">diag_type</text>
</a>
</g>
</g>
<!-- Node2&#45;&gt;Node4 -->
<g id="edge4" class="edge"><title>Node2&#45;&gt;Node4</title>
<path fill="none" stroke="#9a32cd" stroke-dasharray="5,2" d="M71.5068,-654.726C130.075,-681.908 270.221,-735.98 374,-688 503.422,-628.165 586.791,-460.733 609.93,-409.254"/>
<polygon fill="#9a32cd" stroke="#9a32cd" points="72.7191,-651.427 62.1841,-650.303 69.7188,-657.752 72.7191,-651.427"/>
<text text-anchor="middle" x="342" y="-708" font-family="Helvetica,sans-Serif" font-size="10.00"> in_use</text>
</g>
<!-- Node2&#45;&gt;Node6 -->
<g id="edge8" class="edge"><title>Node2&#45;&gt;Node6</title>
<path fill="none" stroke="#9a32cd" stroke-dasharray="5,2" d="M72.6062,-640.971C142.559,-640.522 320.454,-636.982 374,-613 396.506,-602.92 416.075,-581.612 427.587,-567.048"/>
<polygon fill="#9a32cd" stroke="#9a32cd" points="72.3248,-637.472 62.3414,-641.02 72.3578,-644.472 72.3248,-637.472"/>
<text text-anchor="middle" x="244.5" y="-640" font-family="Helvetica,sans-Serif" font-size="10.00"> is_h_point</text>
</g>
<!-- Node3 -->
<g id="node3" class="node"><title>Node3</title>
<polygon fill="white" stroke="#bfbfbf" points="9.5,-388.5 9.5,-407.5 76.5,-407.5 76.5,-388.5 9.5,-388.5"/>
<text text-anchor="middle" x="43" y="-395.5" font-family="Helvetica,sans-Serif" font-size="10.00">remapping_cs</text>
</g>
<!-- Node3&#45;&gt;Node1 -->
<g id="edge2" class="edge"><title>Node3&#45;&gt;Node1</title>
<path fill="none" stroke="#9a32cd" stroke-dasharray="5,2" d="M86.8609,-399.146C113.409,-399.965 148.2,-401.237 179,-403 184.719,-403.327 190.719,-403.723 196.661,-404.146"/>
<polygon fill="#9a32cd" stroke="#9a32cd" points="86.853,-395.644 76.7528,-398.843 86.6436,-402.641 86.853,-395.644"/>
<text text-anchor="middle" x="141.5" y="-406" font-family="Helvetica,sans-Serif" font-size="10.00"> remap_cs</text>
</g>
<!-- Node4&#45;&gt;Node1 -->
<g id="edge3" class="edge"><title>Node4&#45;&gt;Node1</title>
<path fill="none" stroke="#9a32cd" stroke-dasharray="5,2" d="M559.902,-386.724C498.01,-380.238 396.15,-373.885 310,-389 304.136,-390.029 298.049,-391.402 292.059,-392.941"/>
<polygon fill="#9a32cd" stroke="#9a32cd" points="559.538,-390.205 569.857,-387.805 560.293,-383.246 559.538,-390.205"/>
<text text-anchor="middle" x="439.5" y="-384" font-family="Helvetica,sans-Serif" font-size="10.00"> diags</text>
</g>
<!-- Node4&#45;&gt;Node4 -->
<g id="edge6" class="edge"><title>Node4&#45;&gt;Node4</title>
<path fill="none" stroke="#9a32cd" stroke-dasharray="5,2" d="M601.863,-419.458C603.804,-424.179 609.016,-427.5 617.5,-427.5 631.422,-427.5 636.534,-418.557 632.836,-409.159"/>
<polygon fill="#9a32cd" stroke="#9a32cd" points="605.371,-419.257 602.164,-409.159 598.374,-419.053 605.371,-419.257"/>
<text text-anchor="middle" x="617.5" y="-430.5" font-family="Helvetica,sans-Serif" font-size="10.00"> next</text>
</g>
<!-- Node5 -->
<g id="node5" class="node"><title>Node5</title>
<polygon fill="white" stroke="#bfbfbf" points="407,-404.5 407,-423.5 472,-423.5 472,-404.5 407,-404.5"/>
<text text-anchor="middle" x="439.5" y="-411.5" font-family="Helvetica,sans-Serif" font-size="10.00">character(16)</text>
</g>
<!-- Node5&#45;&gt;Node4 -->
<g id="edge5" class="edge"><title>Node5&#45;&gt;Node4</title>
<path fill="none" stroke="#9a32cd" stroke-dasharray="5,2" d="M482.423,-409.236C508.764,-406.243 542.778,-402.377 569.955,-399.289"/>
<polygon fill="#9a32cd" stroke="#9a32cd" points="481.913,-405.771 472.372,-410.378 482.704,-412.727 481.913,-405.771"/>
<text text-anchor="middle" x="528.5" y="-410" font-family="Helvetica,sans-Serif" font-size="10.00"> debug_str</text>
</g>
<!-- Node6&#45;&gt;Node1 -->
<g id="edge18" class="edge"><title>Node6&#45;&gt;Node1</title>
<path fill="none" stroke="#9a32cd" stroke-dasharray="5,2" d="M429.395,-527.403C414.36,-487.442 384.92,-412.133 374,-405 350.18,-389.44 318.213,-390.123 292.122,-394.73"/>
<polygon fill="#9a32cd" stroke="#9a32cd" points="426.191,-528.827 432.972,-536.967 432.747,-526.375 426.191,-528.827"/>
<text text-anchor="middle" x="342" y="-518" font-family="Helvetica,sans-Serif" font-size="10.00"> axescvzl</text>
<text text-anchor="middle" x="342" y="-507" font-family="Helvetica,sans-Serif" font-size="10.00">axeszi</text>
<text text-anchor="middle" x="342" y="-496" font-family="Helvetica,sans-Serif" font-size="10.00">axescui</text>
<text text-anchor="middle" x="342" y="-485" font-family="Helvetica,sans-Serif" font-size="10.00">axest1</text>
<text text-anchor="middle" x="342" y="-474" font-family="Helvetica,sans-Serif" font-size="10.00">axesb1</text>
<text text-anchor="middle" x="342" y="-463" font-family="Helvetica,sans-Serif" font-size="10.00">axeszl</text>
<text text-anchor="middle" x="342" y="-452" font-family="Helvetica,sans-Serif" font-size="10.00">axescvi</text>
<text text-anchor="middle" x="342" y="-441" font-family="Helvetica,sans-Serif" font-size="10.00">axescul</text>
<text text-anchor="middle" x="342" y="-430" font-family="Helvetica,sans-Serif" font-size="10.00">axesti</text>
<text text-anchor="middle" x="342" y="-419" font-family="Helvetica,sans-Serif" font-size="10.00">axescvl</text>
<text text-anchor="middle" x="342" y="-408" font-family="Helvetica,sans-Serif" font-size="10.00">...</text>
</g>
<!-- Node6&#45;&gt;Node4 -->
<g id="edge7" class="edge"><title>Node6&#45;&gt;Node4</title>
<path fill="none" stroke="#9a32cd" stroke-dasharray="5,2" d="M465.057,-529.954C501.367,-497.358 568.439,-437.146 599.675,-409.104"/>
<polygon fill="#9a32cd" stroke="#9a32cd" points="462.479,-527.565 457.376,-536.85 467.155,-532.774 462.479,-527.565"/>
<text text-anchor="middle" x="528.5" y="-495" font-family="Helvetica,sans-Serif" font-size="10.00"> remap_axes</text>
</g>
<!-- Node7 -->
<g id="node7" class="node"><title>Node7</title>
<polygon fill="white" stroke="#bfbfbf" points="206.5,-576.5 206.5,-595.5 282.5,-595.5 282.5,-576.5 206.5,-576.5"/>
<text text-anchor="middle" x="244.5" y="-583.5" font-family="Helvetica,sans-Serif" font-size="10.00">character(len=9)</text>
</g>
<!-- Node7&#45;&gt;Node6 -->
<g id="edge10" class="edge"><title>Node7&#45;&gt;Node6</title>
<path fill="none" stroke="#9a32cd" stroke-dasharray="5,2" d="M292.674,-578.09C316.983,-573.972 347.096,-568.806 374,-564 379.718,-562.979 385.718,-561.888 391.661,-560.796"/>
<polygon fill="#9a32cd" stroke="#9a32cd" points="291.914,-574.669 282.638,-579.787 293.081,-581.571 291.914,-574.669"/>
<text text-anchor="middle" x="342" y="-601" font-family="Helvetica,sans-Serif" font-size="10.00"> v_cell_method</text>
<text text-anchor="middle" x="342" y="-590" font-family="Helvetica,sans-Serif" font-size="10.00">y_cell_method</text>
<text text-anchor="middle" x="342" y="-579" font-family="Helvetica,sans-Serif" font-size="10.00">x_cell_method</text>
</g>
<!-- Node8 -->
<g id="node8" class="node"><title>Node8</title>
<polygon fill="white" stroke="#bfbfbf" points="22.5,-181.5 22.5,-200.5 63.5,-200.5 63.5,-181.5 22.5,-181.5"/>
<text text-anchor="middle" x="43" y="-188.5" font-family="Helvetica,sans-Serif" font-size="10.00">integer</text>
</g>
<!-- Node8&#45;&gt;Node1 -->
<g id="edge21" class="edge"><title>Node8&#45;&gt;Node1</title>
<path fill="none" stroke="#9a32cd" stroke-dasharray="5,2" d="M73.6139,-195.788C103.795,-202.116 150.154,-216.046 179,-245 221.315,-287.473 236.7,-361.102 241.544,-392.785"/>
<polygon fill="#9a32cd" stroke="#9a32cd" points="74.1528,-192.327 63.6686,-193.854 72.8168,-199.199 74.1528,-192.327"/>
<text text-anchor="middle" x="141.5" y="-358" font-family="Helvetica,sans-Serif" font-size="10.00"> ied</text>
<text text-anchor="middle" x="141.5" y="-347" font-family="Helvetica,sans-Serif" font-size="10.00">jed</text>
<text text-anchor="middle" x="141.5" y="-336" font-family="Helvetica,sans-Serif" font-size="10.00">doc_unit</text>
<text text-anchor="middle" x="141.5" y="-325" font-family="Helvetica,sans-Serif" font-size="10.00">isd</text>
<text text-anchor="middle" x="141.5" y="-314" font-family="Helvetica,sans-Serif" font-size="10.00">jsd</text>
<text text-anchor="middle" x="141.5" y="-303" font-family="Helvetica,sans-Serif" font-size="10.00">js</text>
<text text-anchor="middle" x="141.5" y="-292" font-family="Helvetica,sans-Serif" font-size="10.00">is</text>
<text text-anchor="middle" x="141.5" y="-281" font-family="Helvetica,sans-Serif" font-size="10.00">je</text>
<text text-anchor="middle" x="141.5" y="-270" font-family="Helvetica,sans-Serif" font-size="10.00">ie</text>
<text text-anchor="middle" x="141.5" y="-259" font-family="Helvetica,sans-Serif" font-size="10.00">nz_remap</text>
<text text-anchor="middle" x="141.5" y="-248" font-family="Helvetica,sans-Serif" font-size="10.00">...</text>
</g>
<!-- Node8&#45;&gt;Node4 -->
<g id="edge14" class="edge"><title>Node8&#45;&gt;Node4</title>
<path fill="none" stroke="#9a32cd" stroke-dasharray="5,2" d="M44.9482,-170.861C47.7869,-136.378 59.0894,-66.7732 104,-36 131.497,-17.1585 147.607,-24.7928 179,-36 381.884,-108.429 558.491,-319.845 604.728,-378.66"/>
<polygon fill="#9a32cd" stroke="#9a32cd" points="41.4385,-170.894 44.2736,-181.103 48.4234,-171.354 41.4385,-170.894"/>
<text text-anchor="middle" x="342" y="-150" font-family="Helvetica,sans-Serif" font-size="10.00"> fms_diag_id</text>
</g>
<!-- Node8&#45;&gt;Node6 -->
<g id="edge11" class="edge"><title>Node8&#45;&gt;Node6</title>
<path fill="none" stroke="#9a32cd" stroke-dasharray="5,2" d="M73.8835,-188.765C102.227,-187.847 145.361,-189.634 179,-205 287.108,-254.384 307.291,-289.633 374,-388 375.114,-389.642 416.798,-496.368 432.552,-536.748"/>
<polygon fill="#9a32cd" stroke="#9a32cd" points="73.6252,-185.273 63.7956,-189.226 73.9451,-192.265 73.6252,-185.273"/>
<text text-anchor="middle" x="244.5" y="-313" font-family="Helvetica,sans-Serif" font-size="10.00"> handles</text>
<text text-anchor="middle" x="244.5" y="-302" font-family="Helvetica,sans-Serif" font-size="10.00">id_volume</text>
<text text-anchor="middle" x="244.5" y="-291" font-family="Helvetica,sans-Serif" font-size="10.00">rank</text>
<text text-anchor="middle" x="244.5" y="-280" font-family="Helvetica,sans-Serif" font-size="10.00">id_area</text>
</g>
<!-- Node9 -->
<g id="node9" class="node"><title>Node9</title>
<polygon fill="white" stroke="#bfbfbf" points="204.5,-666.5 204.5,-685.5 284.5,-685.5 284.5,-666.5 204.5,-666.5"/>
<text text-anchor="middle" x="244.5" y="-673.5" font-family="Helvetica,sans-Serif" font-size="10.00">character(len=15)</text>
</g>
<!-- Node9&#45;&gt;Node6 -->
<g id="edge12" class="edge"><title>Node9&#45;&gt;Node6</title>
<path fill="none" stroke="#9a32cd" stroke-dasharray="5,2" d="M294.983,-675.39C320.439,-672.957 350.888,-666.567 374,-651 404.795,-630.258 424.287,-589.357 433.065,-567.172"/>
<polygon fill="#9a32cd" stroke="#9a32cd" points="294.476,-671.919 284.777,-676.184 295.019,-678.898 294.476,-671.919"/>
<text text-anchor="middle" x="342" y="-676" font-family="Helvetica,sans-Serif" font-size="10.00"> id</text>
</g>
<!-- Node10 -->
<g id="node10" class="node"><title>Node10</title>
<polygon fill="white" stroke="#bfbfbf" points="28,-0.5 28,-19.5 58,-19.5 58,-0.5 28,-0.5"/>
<text text-anchor="middle" x="43" y="-7.5" font-family="Helvetica,sans-Serif" font-size="10.00">real</text>
</g>
<!-- Node10&#45;&gt;Node1 -->
<g id="edge20" class="edge"><title>Node10&#45;&gt;Node1</title>
<path fill="none" stroke="#9a32cd" stroke-dasharray="5,2" d="M68.4265,-15.0507C99.6775,-22.9028 152.88,-41.2404 179,-79 199.355,-108.426 190.233,-203.866 197,-239 208.107,-296.671 228.896,-363.44 238.456,-392.811"/>
<polygon fill="#9a32cd" stroke="#9a32cd" points="68.9031,-11.5677 58.3685,-12.696 67.3074,-18.3834 68.9031,-11.5677"/>
<text text-anchor="middle" x="141.5" y="-192" font-family="Helvetica,sans-Serif" font-size="10.00"> h</text>
<text text-anchor="middle" x="141.5" y="-181" font-family="Helvetica,sans-Serif" font-size="10.00">mask3dtl</text>
<text text-anchor="middle" x="141.5" y="-170" font-family="Helvetica,sans-Serif" font-size="10.00">time_int</text>
<text text-anchor="middle" x="141.5" y="-159" font-family="Helvetica,sans-Serif" font-size="10.00">mask3dcvi</text>
<text text-anchor="middle" x="141.5" y="-148" font-family="Helvetica,sans-Serif" font-size="10.00">mask3dcui</text>
<text text-anchor="middle" x="141.5" y="-137" font-family="Helvetica,sans-Serif" font-size="10.00">mask3dbui</text>
<text text-anchor="middle" x="141.5" y="-126" font-family="Helvetica,sans-Serif" font-size="10.00">mask2dt</text>
<text text-anchor="middle" x="141.5" y="-115" font-family="Helvetica,sans-Serif" font-size="10.00">zi_remap</text>
<text text-anchor="middle" x="141.5" y="-104" font-family="Helvetica,sans-Serif" font-size="10.00">mask3dcvl</text>
<text text-anchor="middle" x="141.5" y="-93" font-family="Helvetica,sans-Serif" font-size="10.00">mask3dcul</text>
<text text-anchor="middle" x="141.5" y="-82" font-family="Helvetica,sans-Serif" font-size="10.00">...</text>
</g>
<!-- Node10&#45;&gt;Node4 -->
<g id="edge13" class="edge"><title>Node10&#45;&gt;Node4</title>
<path fill="none" stroke="#9a32cd" stroke-dasharray="5,2" d="M68.4766,-8.90091C125.71,-7.39834 271.214,-9.83677 374,-66 478.132,-122.899 493.73,-161.629 552,-265 574.624,-305.135 598.047,-354.218 609.433,-378.652"/>
<polygon fill="#9a32cd" stroke="#9a32cd" points="68.1244,-5.41055 58.2455,-9.23922 68.3558,-12.4067 68.1244,-5.41055"/>
<text text-anchor="middle" x="342" y="-91" font-family="Helvetica,sans-Serif" font-size="10.00"> mask3d</text>
<text text-anchor="middle" x="342" y="-80" font-family="Helvetica,sans-Serif" font-size="10.00">mask2d</text>
<text text-anchor="middle" x="342" y="-69" font-family="Helvetica,sans-Serif" font-size="10.00">conversion_factor</text>
</g>
<!-- Node11 -->
<g id="node11" class="node"><title>Node11</title>
<polygon fill="white" stroke="#bfbfbf" points="17.5,-464.5 17.5,-483.5 68.5,-483.5 68.5,-464.5 17.5,-464.5"/>
<text text-anchor="middle" x="43" y="-471.5" font-family="Helvetica,sans-Serif" font-size="10.00">time_type</text>
</g>
<!-- Node11&#45;&gt;Node1 -->
<g id="edge15" class="edge"><title>Node11&#45;&gt;Node1</title>
<path fill="none" stroke="#9a32cd" stroke-dasharray="5,2" d="M78.9428,-468.228C106.629,-463.061 146.005,-454.379 179,-442 192.511,-436.931 206.779,-429.634 218.451,-423.099"/>
<polygon fill="#9a32cd" stroke="#9a32cd" points="78.1595,-464.813 68.942,-470.036 79.4052,-471.701 78.1595,-464.813"/>
<text text-anchor="middle" x="141.5" y="-466" font-family="Helvetica,sans-Serif" font-size="10.00"> time_end</text>
</g>
<!-- Node12 -->
<g id="node12" class="node"><title>Node12</title>
<polygon fill="white" stroke="#bfbfbf" points="0,-426.5 0,-445.5 86,-445.5 86,-426.5 0,-426.5"/>
<text text-anchor="middle" x="43" y="-433.5" font-family="Helvetica,sans-Serif" font-size="10.00">type(regridding_cs)</text>
</g>
<!-- Node12&#45;&gt;Node1 -->
<g id="edge16" class="edge"><title>Node12&#45;&gt;Node1</title>
<path fill="none" stroke="#9a32cd" stroke-dasharray="5,2" d="M96.5255,-428.628C127.624,-424.263 166.683,-418.781 196.718,-414.566"/>
<polygon fill="#9a32cd" stroke="#9a32cd" points="95.7253,-425.206 86.3088,-430.062 96.6982,-432.138 95.7253,-425.206"/>
<text text-anchor="middle" x="141.5" y="-430" font-family="Helvetica,sans-Serif" font-size="10.00"> regrid_cs</text>
</g>
<!-- Node13 -->
<g id="node13" class="node"><title>Node13</title>
<polygon fill="white" stroke="#bfbfbf" points="5,-350.5 5,-369.5 81,-369.5 81,-350.5 5,-350.5"/>
<text text-anchor="middle" x="43" y="-357.5" font-family="Helvetica,sans-Serif" font-size="10.00">character(len=6)</text>
</g>
<!-- Node13&#45;&gt;Node1 -->
<g id="edge17" class="edge"><title>Node13&#45;&gt;Node1</title>
<path fill="none" stroke="#9a32cd" stroke-dasharray="5,2" d="M91.0454,-366.822C117.178,-371.082 150.145,-377.237 179,-385 187.266,-387.224 195.984,-390.016 204.247,-392.881"/>
<polygon fill="#9a32cd" stroke="#9a32cd" points="91.4515,-363.342 81.0254,-365.226 90.3505,-370.255 91.4515,-363.342"/>
<text text-anchor="middle" x="141.5" y="-388" font-family="Helvetica,sans-Serif" font-size="10.00"> z_remap_suffix</text>
</g>
<!-- Node14 -->
<g id="node14" class="node"><title>Node14</title>
<polygon fill="white" stroke="#bfbfbf" points="5,-502.5 5,-521.5 81,-521.5 81,-502.5 5,-502.5"/>
<text text-anchor="middle" x="43" y="-509.5" font-family="Helvetica,sans-Serif" font-size="10.00">ocean_grid_type</text>
</g>
<!-- Node14&#45;&gt;Node1 -->
<g id="edge19" class="edge"><title>Node14&#45;&gt;Node1</title>
<path fill="none" stroke="#9a32cd" stroke-dasharray="5,2" d="M91.1929,-506.92C118.357,-502.389 152.29,-493.884 179,-478 202.294,-464.148 222.213,-439.316 233.522,-423.257"/>
<polygon fill="#9a32cd" stroke="#9a32cd" points="90.4927,-503.487 81.1427,-508.47 91.5593,-510.405 90.4927,-503.487"/>
<text text-anchor="middle" x="141.5" y="-508" font-family="Helvetica,sans-Serif" font-size="10.00"> g</text>
</g>
</g>
</svg>
        <g id="navigator" transform="translate(0 0)" fill="#404254">
                <rect fill="#f2f5e9" fill-opacity="0.5" stroke="#606060" stroke-width=".5" x="0" y="0" width="60" height="60"/>
                <use id="zoomplus" xlink:href="#zoomPlus" x="17" y="9" onmousedown="handleZoom(evt,'in')"/>
                <use id="zoomminus" xlink:href="#zoomMin" x="42" y="9" onmousedown="handleZoom(evt,'out')"/>
                <use id="reset" xlink:href="#resetDef" x="30" y="36" onmousedown="handleReset()"/>
                <g id="arrowUp" xlink:href="#dirArrow" transform="translate(30 24)" onmousedown="handlePan(0,-1)">
                  <use xlink:href="#rim" fill="#404040">
                        <set attributeName="fill" to="#808080" begin="arrowUp.mouseover" end="arrowUp.mouseout"/>
                  </use>
                  <path fill="none" stroke="white" stroke-width="1.5" d="M0,-3.0v7 M-2.5,-0.5L0,-3.0L2.5,-0.5"/>
                </g>
                <g id="arrowRight" xlink:href="#dirArrow" transform="rotate(90) translate(36 -43)" onmousedown="handlePan(1,0)">
                  <use xlink:href="#rim" fill="#404040">
                        <set attributeName="fill" to="#808080" begin="arrowRight.mouseover" end="arrowRight.mouseout"/>
                  </use>
                  <path fill="none" stroke="white" stroke-width="1.5" d="M0,-3.0v7 M-2.5,-0.5L0,-3.0L2.5,-0.5"/>
                </g>
                <g id="arrowDown" xlink:href="#dirArrow" transform="rotate(180) translate(-30 -48)" onmousedown="handlePan(0,1)">
                  <use xlink:href="#rim" fill="#404040">
                        <set attributeName="fill" to="#808080" begin="arrowDown.mouseover" end="arrowDown.mouseout"/>
                  </use>
                  <path fill="none" stroke="white" stroke-width="1.5" d="M0,-3.0v7 M-2.5,-0.5L0,-3.0L2.5,-0.5"/>
                </g>
                <g id="arrowLeft" xlink:href="#dirArrow" transform="rotate(270) translate(-36 17)" onmousedown="handlePan(-1,0)">
                  <use xlink:href="#rim" fill="#404040">
                        <set attributeName="fill" to="#808080" begin="arrowLeft.mouseover" end="arrowLeft.mouseout"/>
                  </use>
                  <path fill="none" stroke="white" stroke-width="1.5" d="M0,-3.0v7 M-2.5,-0.5L0,-3.0L2.5,-0.5"/>
                </g>
        </g>
        <svg viewBox="0 0 15 15" width="100%" height="30px" preserveAspectRatio="xMaxYMin meet">
         <g id="arrow_out" transform="scale(0.3 0.3)">
          <a xlink:href="structmom__diag__mediator_1_1diag__ctrl__coll__graph_org.svg" target="_base">
           <rect id="button" ry="5" rx="5" y="6" x="6" height="38" width="38"
                fill="#f2f5e9" fill-opacity="0.5" stroke="#606060" stroke-width="1.0"/>
           <path id="arrow"
             d="M 11.500037,31.436501 C 11.940474,20.09759 22.043105,11.32322 32.158766,21.979434 L 37.068811,17.246167 C 37.068811,17.246167 37.088388,32 37.088388,32 L 22.160133,31.978069 C 22.160133,31.978069 26.997745,27.140456 26.997745,27.140456 C 18.528582,18.264221 13.291696,25.230495 11.500037,31.436501 z"
             style="fill:#404040;"/>
          </a>
         </g>
        </svg>
</svg>
