<?xml version="1.0" encoding="UTF-8" standalone="no"?>
<!DOCTYPE svg PUBLIC "-//W3C//DTD SVG 1.1//EN"
 "http://www.w3.org/Graphics/SVG/1.1/DTD/svg11.dtd">
<!-- Generated by graphviz version 2.38.0 (20140413.2041)
 -->
<!-- Title: mom_vert_friction::vertvisc_limit_vel Pages: 1 -->
<svg width="214pt" height="39pt"
 viewBox="0.00 0.00 214.00 39.00" xmlns="http://www.w3.org/2000/svg" xmlns:xlink="http://www.w3.org/1999/xlink">
<g id="graph0" class="graph" transform="scale(1 1) rotate(0) translate(4 35)">
<title>mom_vert_friction::vertvisc_limit_vel</title>
<polygon fill="white" stroke="none" points="-4,4 -4,-35 210,-35 210,4 -4,4"/>
<!-- Node21 -->
<g id="node1" class="node"><title>Node21</title>
<polygon fill="#bfbfbf" stroke="black" points="0,-0.5 0,-30.5 85,-30.5 85,-0.5 0,-0.5"/>
<text text-anchor="start" x="8" y="-18.5" font-family="Helvetica,sans-Serif" font-size="10.00">mom_vert_friction::</text>
<text text-anchor="middle" x="42.5" y="-7.5" font-family="Helvetica,sans-Serif" font-size="10.00">vertvisc_limit_vel</text>
</g>
<!-- Node22 -->
<g id="node2" class="node"><title>Node22</title>
<g id="a_node2"><a xlink:href="../../d9/dcb/namespacemom__vert__friction.html#afcb3ca5d907b32d50101f90e93d0b160" target="_top" xlink:title="Perform a fully implicit vertical diffusion of momentum. Stress top and bottom boundary conditions ar...">
<polygon fill="white" stroke="black" points="121,-0.5 121,-30.5 206,-30.5 206,-0.5 121,-0.5"/>
<text text-anchor="start" x="129" y="-18.5" font-family="Helvetica,sans-Serif" font-size="10.00">mom_vert_friction::</text>
<text text-anchor="middle" x="163.5" y="-7.5" font-family="Helvetica,sans-Serif" font-size="10.00">vertvisc</text>
</a>
</g>
</g>
<!-- Node21&#45;&gt;Node22 -->
<g id="edge1" class="edge"><title>Node21&#45;&gt;Node22</title>
<path fill="none" stroke="midnightblue" d="M95.3174,-15.5C103.802,-15.5 112.499,-15.5 120.702,-15.5"/>
<polygon fill="midnightblue" stroke="midnightblue" points="95.1205,-12.0001 85.1204,-15.5 95.1204,-19.0001 95.1205,-12.0001"/>
</g>
</g>
</svg>
