<?xml version="1.0" encoding="UTF-8" standalone="no"?>
<!DOCTYPE svg PUBLIC "-//W3C//DTD SVG 1.1//EN"
 "http://www.w3.org/Graphics/SVG/1.1/DTD/svg11.dtd">
<!-- Generated by graphviz version 2.38.0 (20140413.2041)
 -->
<!-- Title: myalloc Pages: 1 -->
<svg width="570pt" height="659pt"
 viewBox="0.00 0.00 570.00 658.50" xmlns="http://www.w3.org/2000/svg" xmlns:xlink="http://www.w3.org/1999/xlink">
<g id="graph0" class="graph" transform="scale(1 1) rotate(0) translate(4 654.5)">
<title>myalloc</title>
<polygon fill="white" stroke="none" points="-4,4 -4,-654.5 566,-654.5 566,4 -4,4"/>
<!-- Node6 -->
<g id="node1" class="node"><title>Node6</title>
<polygon fill="#bfbfbf" stroke="black" points="0,-326.5 0,-345.5 43,-345.5 43,-326.5 0,-326.5"/>
<text text-anchor="middle" x="21.5" y="-333.5" font-family="Helvetica,sans-Serif" font-size="10.00">myalloc</text>
</g>
<!-- Node7 -->
<g id="node2" class="node"><title>Node7</title>
<g id="a_node2"><a xlink:href="../../dd/dc3/namespacemom__forcing__type.html#a765fdabc0bc35293aba97b957d579919" target="_top" xlink:title="Conditionally allocate fields within the forcing type. ">
<polygon fill="white" stroke="black" points="79,-321 79,-351 193,-351 193,-321 79,-321"/>
<text text-anchor="start" x="87" y="-339" font-family="Helvetica,sans-Serif" font-size="10.00">mom_forcing_type::allocate</text>
<text text-anchor="middle" x="136" y="-328" font-family="Helvetica,sans-Serif" font-size="10.00">_forcing_type</text>
</a>
</g>
</g>
<!-- Node6&#45;&gt;Node7 -->
<g id="edge1" class="edge"><title>Node6&#45;&gt;Node7</title>
<path fill="none" stroke="midnightblue" d="M53.3387,-336C61.2688,-336 70.0519,-336 78.8324,-336"/>
<polygon fill="midnightblue" stroke="midnightblue" points="53.1343,-332.5 43.1342,-336 53.1342,-339.5 53.1343,-332.5"/>
</g>
<!-- Node8 -->
<g id="node3" class="node"><title>Node8</title>
<g id="a_node3"><a xlink:href="../../dc/ded/namespacemom__surface__forcing.html#abca0c231a823abb684ce9f7d74f5f965" target="_top" xlink:title="mom_surface_forcing\l::convert_iob_to_fluxes">
<polygon fill="white" stroke="black" points="235.5,-620 235.5,-650 333.5,-650 333.5,-620 235.5,-620"/>
<text text-anchor="start" x="243.5" y="-638" font-family="Helvetica,sans-Serif" font-size="10.00">mom_surface_forcing</text>
<text text-anchor="middle" x="284.5" y="-627" font-family="Helvetica,sans-Serif" font-size="10.00">::convert_iob_to_fluxes</text>
</a>
</g>
</g>
<!-- Node7&#45;&gt;Node8 -->
<g id="edge2" class="edge"><title>Node7&#45;&gt;Node8</title>
<path fill="none" stroke="midnightblue" d="M138.759,-361.42C143.717,-414.389 162.173,-537.726 229,-611 232.135,-614.437 235.852,-617.408 239.849,-619.97"/>
<polygon fill="midnightblue" stroke="midnightblue" points="142.227,-360.897 137.893,-351.229 135.252,-361.489 142.227,-360.897"/>
</g>
<!-- Node9 -->
<g id="node4" class="node"><title>Node9</title>
<g id="a_node4"><a xlink:href="../../dc/ded/namespacemom__surface__forcing.html#a4d940b91cd4ca8f1aa44de3dca60c7c0" target="_top" xlink:title="mom_surface_forcing\l::wind_forcing_zero">
<polygon fill="white" stroke="black" points="237.5,-571 237.5,-601 331.5,-601 331.5,-571 237.5,-571"/>
<text text-anchor="start" x="245.5" y="-589" font-family="Helvetica,sans-Serif" font-size="10.00">mom_surface_forcing</text>
<text text-anchor="middle" x="284.5" y="-578" font-family="Helvetica,sans-Serif" font-size="10.00">::wind_forcing_zero</text>
</a>
</g>
</g>
<!-- Node7&#45;&gt;Node9 -->
<g id="edge3" class="edge"><title>Node7&#45;&gt;Node9</title>
<path fill="none" stroke="midnightblue" d="M140.851,-360.966C149.104,-406.558 172.548,-503.932 229,-562 232.315,-565.41 236.198,-568.369 240.339,-570.93"/>
<polygon fill="midnightblue" stroke="midnightblue" points="144.289,-360.311 139.149,-351.046 137.39,-361.494 144.289,-360.311"/>
</g>
<!-- Node12 -->
<g id="node7" class="node"><title>Node12</title>
<g id="a_node7"><a xlink:href="../../dc/ded/namespacemom__surface__forcing.html#adb45934fb80592e1b256e5a19ca375f2" target="_top" xlink:title="mom_surface_forcing\l::wind_forcing_2gyre">
<polygon fill="white" stroke="black" points="237.5,-522 237.5,-552 331.5,-552 331.5,-522 237.5,-522"/>
<text text-anchor="start" x="245.5" y="-540" font-family="Helvetica,sans-Serif" font-size="10.00">mom_surface_forcing</text>
<text text-anchor="middle" x="284.5" y="-529" font-family="Helvetica,sans-Serif" font-size="10.00">::wind_forcing_2gyre</text>
</a>
</g>
</g>
<!-- Node7&#45;&gt;Node12 -->
<g id="edge6" class="edge"><title>Node7&#45;&gt;Node12</title>
<path fill="none" stroke="midnightblue" d="M144.022,-360.793C155.81,-398.338 182.926,-469.807 229,-513 232.62,-516.394 236.799,-519.359 241.2,-521.937"/>
<polygon fill="midnightblue" stroke="midnightblue" points="147.35,-359.709 141.1,-351.154 140.651,-361.739 147.35,-359.709"/>
</g>
<!-- Node13 -->
<g id="node8" class="node"><title>Node13</title>
<g id="a_node8"><a xlink:href="../../dc/ded/namespacemom__surface__forcing.html#aa35a779a00dd1481216f8e9ece2d658c" target="_top" xlink:title="mom_surface_forcing\l::wind_forcing_1gyre">
<polygon fill="white" stroke="black" points="237.5,-473 237.5,-503 331.5,-503 331.5,-473 237.5,-473"/>
<text text-anchor="start" x="245.5" y="-491" font-family="Helvetica,sans-Serif" font-size="10.00">mom_surface_forcing</text>
<text text-anchor="middle" x="284.5" y="-480" font-family="Helvetica,sans-Serif" font-size="10.00">::wind_forcing_1gyre</text>
</a>
</g>
</g>
<!-- Node7&#45;&gt;Node13 -->
<g id="edge8" class="edge"><title>Node7&#45;&gt;Node13</title>
<path fill="none" stroke="midnightblue" d="M149.188,-360.177C164.464,-388.384 193.058,-434.864 229,-464 233.096,-467.32 237.723,-470.27 242.507,-472.866"/>
<polygon fill="midnightblue" stroke="midnightblue" points="152.116,-358.227 144.35,-351.02 145.927,-361.497 152.116,-358.227"/>
</g>
<!-- Node14 -->
<g id="node9" class="node"><title>Node14</title>
<g id="a_node9"><a xlink:href="../../dc/ded/namespacemom__surface__forcing.html#a33a33acb23912c2c764502570518c2ad" target="_top" xlink:title="mom_surface_forcing\l::wind_forcing_gyres">
<polygon fill="white" stroke="black" points="237.5,-424 237.5,-454 331.5,-454 331.5,-424 237.5,-424"/>
<text text-anchor="start" x="245.5" y="-442" font-family="Helvetica,sans-Serif" font-size="10.00">mom_surface_forcing</text>
<text text-anchor="middle" x="284.5" y="-431" font-family="Helvetica,sans-Serif" font-size="10.00">::wind_forcing_gyres</text>
</a>
</g>
</g>
<!-- Node7&#45;&gt;Node14 -->
<g id="edge10" class="edge"><title>Node7&#45;&gt;Node14</title>
<path fill="none" stroke="midnightblue" d="M159.388,-358.563C177.151,-375.603 203.203,-398.749 229,-415 234.074,-418.196 239.646,-421.176 245.23,-423.874"/>
<polygon fill="midnightblue" stroke="midnightblue" points="161.446,-355.682 151.841,-351.211 156.562,-360.696 161.446,-355.682"/>
</g>
<!-- Node15 -->
<g id="node10" class="node"><title>Node15</title>
<g id="a_node10"><a xlink:href="../../dc/ded/namespacemom__surface__forcing.html#a3c2efab8f262459aa7de2c592d1a3b1e" target="_top" xlink:title="mom_surface_forcing\l::wind_forcing_from_file">
<polygon fill="white" stroke="black" points="234,-375 234,-405 335,-405 335,-375 234,-375"/>
<text text-anchor="start" x="242" y="-393" font-family="Helvetica,sans-Serif" font-size="10.00">mom_surface_forcing</text>
<text text-anchor="middle" x="284.5" y="-382" font-family="Helvetica,sans-Serif" font-size="10.00">::wind_forcing_from_file</text>
</a>
</g>
</g>
<!-- Node7&#45;&gt;Node15 -->
<g id="edge12" class="edge"><title>Node7&#45;&gt;Node15</title>
<path fill="none" stroke="midnightblue" d="M187.565,-354.638C205.559,-361.271 225.579,-368.65 242.657,-374.945"/>
<polygon fill="midnightblue" stroke="midnightblue" points="188.402,-351.217 177.808,-351.042 185.981,-357.785 188.402,-351.217"/>
</g>
<!-- Node16 -->
<g id="node11" class="node"><title>Node16</title>
<g id="a_node11"><a xlink:href="../../dc/ded/namespacemom__surface__forcing.html#a4ddc50ed40b1c13197acf1e465ca0abe" target="_top" xlink:title="mom_surface_forcing\l::wind_forcing_by_data\l_override">
<polygon fill="white" stroke="black" points="235,-315.5 235,-356.5 334,-356.5 334,-315.5 235,-315.5"/>
<text text-anchor="start" x="243" y="-344.5" font-family="Helvetica,sans-Serif" font-size="10.00">mom_surface_forcing</text>
<text text-anchor="start" x="243" y="-333.5" font-family="Helvetica,sans-Serif" font-size="10.00">::wind_forcing_by_data</text>
<text text-anchor="middle" x="284.5" y="-322.5" font-family="Helvetica,sans-Serif" font-size="10.00">_override</text>
</a>
</g>
</g>
<!-- Node7&#45;&gt;Node16 -->
<g id="edge14" class="edge"><title>Node7&#45;&gt;Node16</title>
<path fill="none" stroke="midnightblue" d="M203.307,-336C213.92,-336 224.729,-336 234.832,-336"/>
<polygon fill="midnightblue" stroke="midnightblue" points="203.222,-332.5 193.222,-336 203.222,-339.5 203.222,-332.5"/>
</g>
<!-- Node17 -->
<g id="node12" class="node"><title>Node17</title>
<g id="a_node12"><a xlink:href="../../db/d8c/namespaceuser__surface__forcing.html#a4145549a6853192a787c04b70a8fbd30" target="_top" xlink:title="user_surface_forcing\l::user_wind_forcing">
<polygon fill="white" stroke="black" points="238.5,-267 238.5,-297 330.5,-297 330.5,-267 238.5,-267"/>
<text text-anchor="start" x="246.5" y="-285" font-family="Helvetica,sans-Serif" font-size="10.00">user_surface_forcing</text>
<text text-anchor="middle" x="284.5" y="-274" font-family="Helvetica,sans-Serif" font-size="10.00">::user_wind_forcing</text>
</a>
</g>
</g>
<!-- Node7&#45;&gt;Node17 -->
<g id="edge15" class="edge"><title>Node7&#45;&gt;Node17</title>
<path fill="none" stroke="midnightblue" d="M187.565,-317.362C205.559,-310.729 225.579,-303.35 242.657,-297.055"/>
<polygon fill="midnightblue" stroke="midnightblue" points="185.981,-314.215 177.808,-320.958 188.402,-320.783 185.981,-314.215"/>
</g>
<!-- Node18 -->
<g id="node13" class="node"><title>Node18</title>
<g id="a_node13"><a xlink:href="../../d6/df9/namespacemeso__surface__forcing.html#a7ab86d21960889d83d245685153dffc6" target="_top" xlink:title="meso_surface_forcing\l::meso_wind_forcing">
<polygon fill="white" stroke="black" points="237,-218 237,-248 332,-248 332,-218 237,-218"/>
<text text-anchor="start" x="245" y="-236" font-family="Helvetica,sans-Serif" font-size="10.00">meso_surface_forcing</text>
<text text-anchor="middle" x="284.5" y="-225" font-family="Helvetica,sans-Serif" font-size="10.00">::meso_wind_forcing</text>
</a>
</g>
</g>
<!-- Node7&#45;&gt;Node18 -->
<g id="edge16" class="edge"><title>Node7&#45;&gt;Node18</title>
<path fill="none" stroke="midnightblue" d="M159.829,-313.553C177.647,-296.828 203.567,-274.182 229,-258 234.621,-254.424 240.838,-251.073 247.001,-248.059"/>
<polygon fill="midnightblue" stroke="midnightblue" points="157.072,-311.345 152.243,-320.776 161.899,-316.415 157.072,-311.345"/>
</g>
<!-- Node19 -->
<g id="node14" class="node"><title>Node19</title>
<g id="a_node14"><a xlink:href="../../df/da2/namespacemom__ice__shelf.html#ae315e8464ef8a20062e3bccb61886755" target="_top" xlink:title="mom_ice_shelf::initialize\l_ice_shelf">
<polygon fill="white" stroke="black" points="234,-169 234,-199 335,-199 335,-169 234,-169"/>
<text text-anchor="start" x="242" y="-187" font-family="Helvetica,sans-Serif" font-size="10.00">mom_ice_shelf::initialize</text>
<text text-anchor="middle" x="284.5" y="-176" font-family="Helvetica,sans-Serif" font-size="10.00">_ice_shelf</text>
</a>
</g>
</g>
<!-- Node7&#45;&gt;Node19 -->
<g id="edge17" class="edge"><title>Node7&#45;&gt;Node19</title>
<path fill="none" stroke="midnightblue" d="M149.556,-311.666C165.007,-283.731 193.599,-238.038 229,-209 233.588,-205.237 238.834,-201.91 244.219,-199.012"/>
<polygon fill="midnightblue" stroke="midnightblue" points="146.322,-310.288 144.648,-320.749 152.481,-313.615 146.322,-310.288"/>
</g>
<!-- Node21 -->
<g id="node16" class="node"><title>Node21</title>
<g id="a_node16"><a xlink:href="../../dc/d69/namespacescm__cvmix__tests.html#a4ab083e8a54fae735fc1b89203e475ca" target="_top" xlink:title="scm_cvmix_tests::scm\l_cvmix_tests_wind_forcing">
<polygon fill="white" stroke="black" points="229,-120 229,-150 340,-150 340,-120 229,-120"/>
<text text-anchor="start" x="237" y="-138" font-family="Helvetica,sans-Serif" font-size="10.00">scm_cvmix_tests::scm</text>
<text text-anchor="middle" x="284.5" y="-127" font-family="Helvetica,sans-Serif" font-size="10.00">_cvmix_tests_wind_forcing</text>
</a>
</g>
</g>
<!-- Node7&#45;&gt;Node21 -->
<g id="edge20" class="edge"><title>Node7&#45;&gt;Node21</title>
<path fill="none" stroke="midnightblue" d="M144.022,-311.207C155.81,-273.662 182.926,-202.193 229,-159 232.62,-155.606 236.799,-152.641 241.2,-150.063"/>
<polygon fill="midnightblue" stroke="midnightblue" points="140.651,-310.261 141.1,-320.846 147.35,-312.291 140.651,-310.261"/>
</g>
<!-- Node22 -->
<g id="node17" class="node"><title>Node22</title>
<g id="a_node17"><a xlink:href="../../dc/d69/namespacescm__cvmix__tests.html#a013e19729529fd6656ca7a270563a698" target="_top" xlink:title="scm_cvmix_tests::scm\l_cvmix_tests_buoyancy\l_forcing">
<polygon fill="white" stroke="black" points="234.5,-60.5 234.5,-101.5 334.5,-101.5 334.5,-60.5 234.5,-60.5"/>
<text text-anchor="start" x="242.5" y="-89.5" font-family="Helvetica,sans-Serif" font-size="10.00">scm_cvmix_tests::scm</text>
<text text-anchor="start" x="242.5" y="-78.5" font-family="Helvetica,sans-Serif" font-size="10.00">_cvmix_tests_buoyancy</text>
<text text-anchor="middle" x="284.5" y="-67.5" font-family="Helvetica,sans-Serif" font-size="10.00">_forcing</text>
</a>
</g>
</g>
<!-- Node7&#45;&gt;Node22 -->
<g id="edge21" class="edge"><title>Node7&#45;&gt;Node22</title>
<path fill="none" stroke="midnightblue" d="M141.395,-310.816C150.437,-265.611 174.986,-169.85 229,-110 231.729,-106.976 234.848,-104.212 238.182,-101.695"/>
<polygon fill="midnightblue" stroke="midnightblue" points="137.904,-310.439 139.467,-320.918 144.779,-311.752 137.904,-310.439"/>
</g>
<!-- Node23 -->
<g id="node18" class="node"><title>Node23</title>
<g id="a_node18"><a xlink:href="../../dd/d12/namespacescm__idealized__hurricane.html#a1b6dd086c93c41b18d9b367af63d642a" target="_top" xlink:title="scm_idealized_hurricane\l::scm_idealized_hurricane\l_wind_forcing">
<polygon fill="white" stroke="black" points="230,-0.5 230,-41.5 339,-41.5 339,-0.5 230,-0.5"/>
<text text-anchor="start" x="238" y="-29.5" font-family="Helvetica,sans-Serif" font-size="10.00">scm_idealized_hurricane</text>
<text text-anchor="start" x="238" y="-18.5" font-family="Helvetica,sans-Serif" font-size="10.00">::scm_idealized_hurricane</text>
<text text-anchor="middle" x="284.5" y="-7.5" font-family="Helvetica,sans-Serif" font-size="10.00">_wind_forcing</text>
</a>
</g>
</g>
<!-- Node7&#45;&gt;Node23 -->
<g id="edge22" class="edge"><title>Node7&#45;&gt;Node23</title>
<path fill="none" stroke="midnightblue" d="M138.948,-310.862C144.3,-257.299 163.52,-130.349 229,-51 231.887,-47.5012 235.294,-44.343 238.972,-41.5077"/>
<polygon fill="midnightblue" stroke="midnightblue" points="135.46,-310.569 138.029,-320.847 142.431,-311.21 135.46,-310.569"/>
</g>
<!-- Node10 -->
<g id="node5" class="node"><title>Node10</title>
<g id="a_node5"><a xlink:href="../../dc/ded/namespacemom__surface__forcing.html#ad4eeb543c0b616e42ddb7c0a37f03bf0" target="_top" xlink:title="mom_surface_forcing\l::set_forcing">
<polygon fill="white" stroke="black" points="376,-448 376,-478 470,-478 470,-448 376,-448"/>
<text text-anchor="start" x="384" y="-466" font-family="Helvetica,sans-Serif" font-size="10.00">mom_surface_forcing</text>
<text text-anchor="middle" x="423" y="-455" font-family="Helvetica,sans-Serif" font-size="10.00">::set_forcing</text>
</a>
</g>
</g>
<!-- Node9&#45;&gt;Node10 -->
<g id="edge4" class="edge"><title>Node9&#45;&gt;Node10</title>
<path fill="none" stroke="midnightblue" d="M334.438,-565.857C336.361,-564.628 338.224,-563.342 340,-562 371.698,-538.056 398.96,-499.547 412.63,-478.303"/>
<polygon fill="midnightblue" stroke="midnightblue" points="332.625,-562.862 325.711,-570.89 336.123,-568.926 332.625,-562.862"/>
</g>
<!-- Node11 -->
<g id="node6" class="node"><title>Node11</title>
<g id="a_node6"><a xlink:href="../../de/dbc/MOM__driver_8F90.html#a08fffeb2d8e8acbf9ed4609be6d258c6" target="_top" xlink:title="mom_main">
<polygon fill="white" stroke="black" points="506,-363.5 506,-382.5 562,-382.5 562,-363.5 506,-363.5"/>
<text text-anchor="middle" x="534" y="-370.5" font-family="Helvetica,sans-Serif" font-size="10.00">mom_main</text>
</a>
</g>
</g>
<!-- Node10&#45;&gt;Node11 -->
<g id="edge5" class="edge"><title>Node10&#45;&gt;Node11</title>
<path fill="none" stroke="midnightblue" d="M450.397,-441.205C473.074,-422.481 504.687,-396.378 521.467,-382.522"/>
<polygon fill="midnightblue" stroke="midnightblue" points="447.973,-438.667 442.49,-447.733 452.43,-444.065 447.973,-438.667"/>
</g>
<!-- Node12&#45;&gt;Node10 -->
<g id="edge7" class="edge"><title>Node12&#45;&gt;Node10</title>
<path fill="none" stroke="midnightblue" d="M330.922,-517.548C334.016,-516.055 337.067,-514.531 340,-513 360.545,-502.273 382.954,-488.454 399.146,-478.063"/>
<polygon fill="midnightblue" stroke="midnightblue" points="329.16,-514.509 321.587,-521.918 332.127,-520.849 329.16,-514.509"/>
</g>
<!-- Node13&#45;&gt;Node10 -->
<g id="edge9" class="edge"><title>Node13&#45;&gt;Node10</title>
<path fill="none" stroke="midnightblue" d="M341.573,-477.73C352.968,-475.643 364.83,-473.471 375.835,-471.455"/>
<polygon fill="midnightblue" stroke="midnightblue" points="340.918,-474.292 331.713,-479.536 342.18,-481.177 340.918,-474.292"/>
</g>
<!-- Node14&#45;&gt;Node10 -->
<g id="edge11" class="edge"><title>Node14&#45;&gt;Node10</title>
<path fill="none" stroke="midnightblue" d="M341.573,-448.859C352.968,-450.862 364.83,-452.948 375.835,-454.883"/>
<polygon fill="midnightblue" stroke="midnightblue" points="342.168,-445.41 331.713,-447.125 340.955,-452.304 342.168,-445.41"/>
</g>
<!-- Node15&#45;&gt;Node10 -->
<g id="edge13" class="edge"><title>Node15&#45;&gt;Node10</title>
<path fill="none" stroke="midnightblue" d="M329.038,-409.498C332.769,-411.312 336.465,-413.16 340,-415 359.754,-425.28 381.478,-438.066 397.6,-447.857"/>
<polygon fill="midnightblue" stroke="midnightblue" points="330.301,-406.223 319.767,-405.087 327.293,-412.544 330.301,-406.223"/>
</g>
<!-- Node19&#45;&gt;Node11 -->
<g id="edge19" class="edge"><title>Node19&#45;&gt;Node11</title>
<path fill="none" stroke="midnightblue" d="M330.921,-203.659C334.047,-205.369 337.103,-207.154 340,-209 417.507,-258.375 497.098,-336.439 523.71,-363.439"/>
<polygon fill="midnightblue" stroke="midnightblue" points="332.493,-200.532 322.002,-199.053 329.281,-206.752 332.493,-200.532"/>
</g>
<!-- Node20 -->
<g id="node15" class="node"><title>Node20</title>
<g id="a_node15"><a xlink:href="../../d5/d6d/ice__shelf__driver_8F90.html#aec5bef92f0dad343f545cd8d62e378d8" target="_top" xlink:title="shelf_main">
<polygon fill="white" stroke="black" points="395.5,-174.5 395.5,-193.5 450.5,-193.5 450.5,-174.5 395.5,-174.5"/>
<text text-anchor="middle" x="423" y="-181.5" font-family="Helvetica,sans-Serif" font-size="10.00">shelf_main</text>
</a>
</g>
</g>
<!-- Node19&#45;&gt;Node20 -->
<g id="edge18" class="edge"><title>Node19&#45;&gt;Node20</title>
<path fill="none" stroke="midnightblue" d="M345.302,-184C362.723,-184 380.89,-184 395.168,-184"/>
<polygon fill="midnightblue" stroke="midnightblue" points="345.166,-180.5 335.166,-184 345.166,-187.5 345.166,-180.5"/>
</g>
</g>
</svg>
