<?xml version="1.0" encoding="UTF-8" standalone="no"?>
<!DOCTYPE svg PUBLIC "-//W3C//DTD SVG 1.1//EN"
 "http://www.w3.org/Graphics/SVG/1.1/DTD/svg11.dtd">
<!-- Generated by graphviz version 2.38.0 (20140413.2041)
 -->
<!-- Title: mom_diagnostics::calculate_vertical_integrals Pages: 1 -->
<!--zoomable 186 -->
<svg id="main" version="1.1" xmlns="http://www.w3.org/2000/svg" xmlns:xlink="http://www.w3.org/1999/xlink" xml:space="preserve" onload="init(evt)">
<style type="text/css"><![CDATA[
.edge:hover path { stroke: red; }
.edge:hover polygon { stroke: red; fill: red; }
]]></style>
<script type="text/javascript"><![CDATA[
var edges = document.getElementsByTagName('g');
if (edges && edges.length) {
  for (var i=0;i<edges.length;i++) {
    if (edges[i].id.substr(0,4)=='edge') {
      edges[i].setAttribute('class','edge');
    }
  }
}
]]></script>
        <defs>
                <circle id="rim" cx="0" cy="0" r="7"/>
                <circle id="rim2" cx="0" cy="0" r="3.5"/>
                <g id="zoomPlus">
                        <use xlink:href="#rim" fill="#404040">
                                <set attributeName="fill" to="#808080" begin="zoomplus.mouseover" end="zoomplus.mouseout"/>
                        </use>
                        <path d="M-4,0h8M0,-4v8" fill="none" stroke="white" stroke-width="1.5" pointer-events="none"/>
                </g>
                <g id="zoomMin">
                        <use xlink:href="#rim" fill="#404040">
                                <set attributeName="fill" to="#808080" begin="zoomminus.mouseover" end="zoomminus.mouseout"/>
                        </use>
                        <path d="M-4,0h8" fill="none" stroke="white" stroke-width="1.5" pointer-events="none"/>
                </g>
                <g id="dirArrow">
                        <path fill="none" stroke="white" stroke-width="1.5" d="M0,-3.0v7 M-2.5,-0.5L0,-3.0L2.5,-0.5"/>
                </g>
               <g id="resetDef">
                       <use xlink:href="#rim2" fill="#404040">
                               <set attributeName="fill" to="#808080" begin="reset.mouseover" end="reset.mouseout"/>
                       </use>
               </g>
        </defs>

<script type="text/javascript">
var viewWidth = 601;
var viewHeight = 186;
var sectionId = 'dynsection-3';
</script>
<script xlink:href="../../svgpan.js"/>
<svg id="graph" class="graph">
<g id="viewport">
<title>mom_diagnostics::calculate_vertical_integrals</title>
<polygon fill="white" stroke="none" points="-4,4 -4,-182 597,-182 597,4 -4,4"/>
<!-- Node52 -->
<g id="node1" class="node"><title>Node52</title>
<polygon fill="#bfbfbf" stroke="black" points="0,-73.5 0,-103.5 138,-103.5 138,-73.5 0,-73.5"/>
<text text-anchor="start" x="8" y="-91.5" font-family="Helvetica,sans-Serif" font-size="10.00">mom_diagnostics::calculate</text>
<text text-anchor="middle" x="69" y="-80.5" font-family="Helvetica,sans-Serif" font-size="10.00">_vertical_integrals</text>
</g>
<!-- Node53 -->
<g id="node2" class="node"><title>Node53</title>
<g id="a_node2"><a xlink:href="../../d1/d01/namespacemom__eos.html#a1def0e6b257a12105457a50c92da2487" target="_top" xlink:title="This subroutine calculates analytical and nearly&#45;analytical integrals of pressure anomalies across la...">
<polygon fill="white" stroke="black" points="174,-79 174,-98 302,-98 302,-79 174,-79"/>
<text text-anchor="middle" x="238" y="-86" font-family="Helvetica,sans-Serif" font-size="10.00">mom_eos::int_density_dz</text>
</a>
</g>
</g>
<!-- Node52&#45;&gt;Node53 -->
<g id="edge1" class="edge"><title>Node52&#45;&gt;Node53</title>
<path fill="none" stroke="midnightblue" d="M138.407,-88.5C146.732,-88.5 155.264,-88.5 163.657,-88.5"/>
<polygon fill="midnightblue" stroke="midnightblue" points="163.803,-92.0001 173.803,-88.5 163.803,-85.0001 163.803,-92.0001"/>
</g>
<!-- Node54 -->
<g id="node3" class="node"><title>Node54</title>
<g id="a_node3"><a xlink:href="../../d0/de6/namespacemom__error__handler.html#a460cfb79a06c29fc249952c2a3710d67" target="_top" xlink:title="mom_error_handler::\lmom_error">
<polygon fill="white" stroke="black" points="341.5,-147.5 341.5,-177.5 447.5,-177.5 447.5,-147.5 341.5,-147.5"/>
<text text-anchor="start" x="349.5" y="-165.5" font-family="Helvetica,sans-Serif" font-size="10.00">mom_error_handler::</text>
<text text-anchor="middle" x="394.5" y="-154.5" font-family="Helvetica,sans-Serif" font-size="10.00">mom_error</text>
</a>
</g>
</g>
<!-- Node53&#45;&gt;Node54 -->
<g id="edge2" class="edge"><title>Node53&#45;&gt;Node54</title>
<path fill="none" stroke="midnightblue" d="M257.087,-98.0429C276.815,-108.355 309.401,-125.109 338,-138.5 341.384,-140.084 344.9,-141.692 348.445,-143.286"/>
<polygon fill="midnightblue" stroke="midnightblue" points="347.27,-146.594 357.831,-147.448 350.108,-140.195 347.27,-146.594"/>
</g>
<!-- Node56 -->
<g id="node5" class="node"><title>Node56</title>
<g id="a_node5"><a xlink:href="../../d1/d01/namespacemom__eos.html#a9a8d9a5df8f211fbb4c22dcccc2f7916" target="_top" xlink:title="mom_eos::int_density\l_dz_generic">
<polygon fill="white" stroke="black" points="338,-98.5 338,-128.5 451,-128.5 451,-98.5 338,-98.5"/>
<text text-anchor="start" x="346" y="-116.5" font-family="Helvetica,sans-Serif" font-size="10.00">mom_eos::int_density</text>
<text text-anchor="middle" x="394.5" y="-105.5" font-family="Helvetica,sans-Serif" font-size="10.00">_dz_generic</text>
</a>
</g>
</g>
<!-- Node53&#45;&gt;Node56 -->
<g id="edge4" class="edge"><title>Node53&#45;&gt;Node56</title>
<path fill="none" stroke="midnightblue" d="M297.851,-98.0227C307.7,-99.6165 317.973,-101.279 327.978,-102.898"/>
<polygon fill="midnightblue" stroke="midnightblue" points="327.436,-106.356 337.867,-104.498 328.554,-99.4454 327.436,-106.356"/>
</g>
<!-- Node57 -->
<g id="node6" class="node"><title>Node57</title>
<g id="a_node6"><a xlink:href="../../d5/de6/namespacemom__eos__linear.html#aba00b479ec037448437b55295f0a6c01" target="_top" xlink:title="mom_eos_linear::int\l_density_dz_linear">
<polygon fill="white" stroke="black" points="342.5,-49.5 342.5,-79.5 446.5,-79.5 446.5,-49.5 342.5,-49.5"/>
<text text-anchor="start" x="350.5" y="-67.5" font-family="Helvetica,sans-Serif" font-size="10.00">mom_eos_linear::int</text>
<text text-anchor="middle" x="394.5" y="-56.5" font-family="Helvetica,sans-Serif" font-size="10.00">_density_dz_linear</text>
</a>
</g>
</g>
<!-- Node53&#45;&gt;Node57 -->
<g id="edge5" class="edge"><title>Node53&#45;&gt;Node57</title>
<path fill="none" stroke="midnightblue" d="M300.506,-78.9456C310.857,-77.3378 321.601,-75.6687 331.953,-74.0607"/>
<polygon fill="midnightblue" stroke="midnightblue" points="332.8,-77.4712 342.144,-72.4776 331.726,-70.5541 332.8,-77.4712"/>
</g>
<!-- Node58 -->
<g id="node7" class="node"><title>Node58</title>
<g id="a_node7"><a xlink:href="../../de/d76/namespacemom__eos__wright.html#adde51def9a4b771d7165d4d187e5dea8" target="_top" xlink:title="mom_eos_wright::int\l_density_dz_wright">
<polygon fill="white" stroke="black" points="341,-0.5 341,-30.5 448,-30.5 448,-0.5 341,-0.5"/>
<text text-anchor="start" x="349" y="-18.5" font-family="Helvetica,sans-Serif" font-size="10.00">mom_eos_wright::int</text>
<text text-anchor="middle" x="394.5" y="-7.5" font-family="Helvetica,sans-Serif" font-size="10.00">_density_dz_wright</text>
</a>
</g>
</g>
<!-- Node53&#45;&gt;Node58 -->
<g id="edge6" class="edge"><title>Node53&#45;&gt;Node58</title>
<path fill="none" stroke="midnightblue" d="M258.272,-78.9566C278.167,-69.152 310.142,-53.5248 338,-40.5 342.04,-38.6111 346.257,-36.6655 350.481,-34.7333"/>
<polygon fill="midnightblue" stroke="midnightblue" points="352.024,-37.877 359.678,-30.5519 349.126,-31.5046 352.024,-37.877"/>
</g>
<!-- Node55 -->
<g id="node4" class="node"><title>Node55</title>
<g id="a_node4"><a xlink:href="../../d0/de6/namespacemom__error__handler.html#ad5f00a53059c72fe2332d1436c80ca71" target="_top" xlink:title="mom_error_handler::\lis_root_pe">
<polygon fill="white" stroke="black" points="487,-147.5 487,-177.5 593,-177.5 593,-147.5 487,-147.5"/>
<text text-anchor="start" x="495" y="-165.5" font-family="Helvetica,sans-Serif" font-size="10.00">mom_error_handler::</text>
<text text-anchor="middle" x="540" y="-154.5" font-family="Helvetica,sans-Serif" font-size="10.00">is_root_pe</text>
</a>
</g>
</g>
<!-- Node54&#45;&gt;Node55 -->
<g id="edge3" class="edge"><title>Node54&#45;&gt;Node55</title>
<path fill="none" stroke="midnightblue" d="M447.713,-162.5C457.011,-162.5 466.783,-162.5 476.337,-162.5"/>
<polygon fill="midnightblue" stroke="midnightblue" points="476.586,-166 486.586,-162.5 476.586,-159 476.586,-166"/>
</g>
</g>
</svg>
        <g id="navigator" transform="translate(0 0)" fill="#404254">
                <rect fill="#f2f5e9" fill-opacity="0.5" stroke="#606060" stroke-width=".5" x="0" y="0" width="60" height="60"/>
                <use id="zoomplus" xlink:href="#zoomPlus" x="17" y="9" onmousedown="handleZoom(evt,'in')"/>
                <use id="zoomminus" xlink:href="#zoomMin" x="42" y="9" onmousedown="handleZoom(evt,'out')"/>
                <use id="reset" xlink:href="#resetDef" x="30" y="36" onmousedown="handleReset()"/>
                <g id="arrowUp" xlink:href="#dirArrow" transform="translate(30 24)" onmousedown="handlePan(0,-1)">
                  <use xlink:href="#rim" fill="#404040">
                        <set attributeName="fill" to="#808080" begin="arrowUp.mouseover" end="arrowUp.mouseout"/>
                  </use>
                  <path fill="none" stroke="white" stroke-width="1.5" d="M0,-3.0v7 M-2.5,-0.5L0,-3.0L2.5,-0.5"/>
                </g>
                <g id="arrowRight" xlink:href="#dirArrow" transform="rotate(90) translate(36 -43)" onmousedown="handlePan(1,0)">
                  <use xlink:href="#rim" fill="#404040">
                        <set attributeName="fill" to="#808080" begin="arrowRight.mouseover" end="arrowRight.mouseout"/>
                  </use>
                  <path fill="none" stroke="white" stroke-width="1.5" d="M0,-3.0v7 M-2.5,-0.5L0,-3.0L2.5,-0.5"/>
                </g>
                <g id="arrowDown" xlink:href="#dirArrow" transform="rotate(180) translate(-30 -48)" onmousedown="handlePan(0,1)">
                  <use xlink:href="#rim" fill="#404040">
                        <set attributeName="fill" to="#808080" begin="arrowDown.mouseover" end="arrowDown.mouseout"/>
                  </use>
                  <path fill="none" stroke="white" stroke-width="1.5" d="M0,-3.0v7 M-2.5,-0.5L0,-3.0L2.5,-0.5"/>
                </g>
                <g id="arrowLeft" xlink:href="#dirArrow" transform="rotate(270) translate(-36 17)" onmousedown="handlePan(-1,0)">
                  <use xlink:href="#rim" fill="#404040">
                        <set attributeName="fill" to="#808080" begin="arrowLeft.mouseover" end="arrowLeft.mouseout"/>
                  </use>
                  <path fill="none" stroke="white" stroke-width="1.5" d="M0,-3.0v7 M-2.5,-0.5L0,-3.0L2.5,-0.5"/>
                </g>
        </g>
        <svg viewBox="0 0 15 15" width="100%" height="30px" preserveAspectRatio="xMaxYMin meet">
         <g id="arrow_out" transform="scale(0.3 0.3)">
          <a xlink:href="namespacemom__diagnostics_a0b6f33e7b575b5f685f781030b301876_cgraph_org.svg" target="_base">
           <rect id="button" ry="5" rx="5" y="6" x="6" height="38" width="38"
                fill="#f2f5e9" fill-opacity="0.5" stroke="#606060" stroke-width="1.0"/>
           <path id="arrow"
             d="M 11.500037,31.436501 C 11.940474,20.09759 22.043105,11.32322 32.158766,21.979434 L 37.068811,17.246167 C 37.068811,17.246167 37.088388,32 37.088388,32 L 22.160133,31.978069 C 22.160133,31.978069 26.997745,27.140456 26.997745,27.140456 C 18.528582,18.264221 13.291696,25.230495 11.500037,31.436501 z"
             style="fill:#404040;"/>
          </a>
         </g>
        </svg>
</svg>
