<?xml version="1.0" encoding="UTF-8" standalone="no"?>
<!DOCTYPE svg PUBLIC "-//W3C//DTD SVG 1.1//EN"
 "http://www.w3.org/Graphics/SVG/1.1/DTD/svg11.dtd">
<!-- Generated by graphviz version 2.38.0 (20140413.2041)
 -->
<!-- Title: mom_diagnostics::mom_diagnostics_init Pages: 1 -->
<svg width="738pt" height="165pt"
 viewBox="0.00 0.00 738.00 165.00" xmlns="http://www.w3.org/2000/svg" xmlns:xlink="http://www.w3.org/1999/xlink">
<g id="graph0" class="graph" transform="scale(1 1) rotate(0) translate(4 161)">
<title>mom_diagnostics::mom_diagnostics_init</title>
<polygon fill="white" stroke="none" points="-4,4 -4,-161 734,-161 734,4 -4,4"/>
<!-- Node40 -->
<g id="node1" class="node"><title>Node40</title>
<polygon fill="#bfbfbf" stroke="black" points="0,-63.5 0,-93.5 121,-93.5 121,-63.5 0,-63.5"/>
<text text-anchor="start" x="8" y="-81.5" font-family="Helvetica,sans-Serif" font-size="10.00">mom_diagnostics::mom</text>
<text text-anchor="middle" x="60.5" y="-70.5" font-family="Helvetica,sans-Serif" font-size="10.00">_diagnostics_init</text>
</g>
<!-- Node41 -->
<g id="node2" class="node"><title>Node41</title>
<g id="a_node2"><a xlink:href="../../d9/def/namespacemom__file__parser.html#a17c0ef1bb1912f02faa0aaa1e0f64210" target="_top" xlink:title="mom_file_parser::log\l_version">
<polygon fill="white" stroke="black" points="327,-126.5 327,-156.5 434,-156.5 434,-126.5 327,-126.5"/>
<text text-anchor="start" x="335" y="-144.5" font-family="Helvetica,sans-Serif" font-size="10.00">mom_file_parser::log</text>
<text text-anchor="middle" x="380.5" y="-133.5" font-family="Helvetica,sans-Serif" font-size="10.00">_version</text>
</a>
</g>
</g>
<!-- Node40&#45;&gt;Node41 -->
<g id="edge1" class="edge"><title>Node40&#45;&gt;Node41</title>
<path fill="none" stroke="midnightblue" d="M99.5529,-93.5962C116.848,-99.9492 137.715,-106.916 157,-111.5 210.123,-124.127 271.734,-131.918 316.635,-136.385"/>
<polygon fill="midnightblue" stroke="midnightblue" points="316.521,-139.89 326.812,-137.369 317.195,-132.922 316.521,-139.89"/>
</g>
<!-- Node43 -->
<g id="node4" class="node"><title>Node43</title>
<g id="a_node4"><a xlink:href="../../d0/de6/namespacemom__error__handler.html#a460cfb79a06c29fc249952c2a3710d67" target="_top" xlink:title="mom_error_handler::\lmom_error">
<polygon fill="white" stroke="black" points="482,-82.5 482,-112.5 588,-112.5 588,-82.5 482,-82.5"/>
<text text-anchor="start" x="490" y="-100.5" font-family="Helvetica,sans-Serif" font-size="10.00">mom_error_handler::</text>
<text text-anchor="middle" x="535" y="-89.5" font-family="Helvetica,sans-Serif" font-size="10.00">mom_error</text>
</a>
</g>
</g>
<!-- Node40&#45;&gt;Node43 -->
<g id="edge3" class="edge"><title>Node40&#45;&gt;Node43</title>
<path fill="none" stroke="midnightblue" d="M121.342,-80.9064C211.248,-84.5216 380.343,-91.3212 471.68,-94.994"/>
<polygon fill="midnightblue" stroke="midnightblue" points="471.752,-98.4996 481.884,-95.4043 472.033,-91.5053 471.752,-98.4996"/>
</g>
<!-- Node44 -->
<g id="node5" class="node"><title>Node44</title>
<g id="a_node5"><a xlink:href="../../d9/d8b/namespacemom__diagnostics.html#a09d6bde56531baa237e612627550d124" target="_top" xlink:title="mom_diagnostics::register\l_time_deriv">
<polygon fill="white" stroke="black" points="315,-38.5 315,-68.5 446,-68.5 446,-38.5 315,-38.5"/>
<text text-anchor="start" x="323" y="-56.5" font-family="Helvetica,sans-Serif" font-size="10.00">mom_diagnostics::register</text>
<text text-anchor="middle" x="380.5" y="-45.5" font-family="Helvetica,sans-Serif" font-size="10.00">_time_deriv</text>
</a>
</g>
</g>
<!-- Node40&#45;&gt;Node44 -->
<g id="edge5" class="edge"><title>Node40&#45;&gt;Node44</title>
<path fill="none" stroke="midnightblue" d="M121.313,-73.7977C173.226,-69.7165 248.627,-63.7888 304.554,-59.392"/>
<polygon fill="midnightblue" stroke="midnightblue" points="305.065,-62.8627 314.76,-58.5896 304.517,-55.8842 305.065,-62.8627"/>
</g>
<!-- Node45 -->
<g id="node6" class="node"><title>Node45</title>
<g id="a_node6"><a xlink:href="../../d9/d8b/namespacemom__diagnostics.html#a90a92410576d955e89d2aa4e3f6d7402" target="_top" xlink:title="mom_diagnostics::set\l_dependent_diagnostics">
<polygon fill="white" stroke="black" points="157,-0.5 157,-30.5 279,-30.5 279,-0.5 157,-0.5"/>
<text text-anchor="start" x="165" y="-18.5" font-family="Helvetica,sans-Serif" font-size="10.00">mom_diagnostics::set</text>
<text text-anchor="middle" x="218" y="-7.5" font-family="Helvetica,sans-Serif" font-size="10.00">_dependent_diagnostics</text>
</a>
</g>
</g>
<!-- Node40&#45;&gt;Node45 -->
<g id="edge7" class="edge"><title>Node40&#45;&gt;Node45</title>
<path fill="none" stroke="midnightblue" d="M98.7461,-63.4099C120.209,-54.7143 147.385,-43.704 170.272,-34.4316"/>
<polygon fill="midnightblue" stroke="midnightblue" points="171.835,-37.5749 179.789,-30.576 169.206,-31.0871 171.835,-37.5749"/>
</g>
<!-- Node42 -->
<g id="node3" class="node"><title>Node42</title>
<g id="a_node3"><a xlink:href="../../d0/de6/namespacemom__error__handler.html#ad5f00a53059c72fe2332d1436c80ca71" target="_top" xlink:title="mom_error_handler::\lis_root_pe">
<polygon fill="white" stroke="black" points="624,-104.5 624,-134.5 730,-134.5 730,-104.5 624,-104.5"/>
<text text-anchor="start" x="632" y="-122.5" font-family="Helvetica,sans-Serif" font-size="10.00">mom_error_handler::</text>
<text text-anchor="middle" x="677" y="-111.5" font-family="Helvetica,sans-Serif" font-size="10.00">is_root_pe</text>
</a>
</g>
</g>
<!-- Node41&#45;&gt;Node42 -->
<g id="edge2" class="edge"><title>Node41&#45;&gt;Node42</title>
<path fill="none" stroke="midnightblue" d="M434.151,-137.567C484.51,-133.805 560.468,-128.131 613.79,-124.147"/>
<polygon fill="midnightblue" stroke="midnightblue" points="614.094,-127.634 623.805,-123.399 613.572,-120.654 614.094,-127.634"/>
</g>
<!-- Node43&#45;&gt;Node42 -->
<g id="edge4" class="edge"><title>Node43&#45;&gt;Node42</title>
<path fill="none" stroke="midnightblue" d="M588.131,-105.692C596.512,-107.009 605.26,-108.384 613.849,-109.733"/>
<polygon fill="midnightblue" stroke="midnightblue" points="613.403,-113.206 623.826,-111.301 614.49,-106.291 613.403,-113.206"/>
</g>
<!-- Node44&#45;&gt;Node43 -->
<g id="edge6" class="edge"><title>Node44&#45;&gt;Node43</title>
<path fill="none" stroke="midnightblue" d="M433.555,-68.5192C446.001,-72.11 459.405,-75.9776 472.241,-79.681"/>
<polygon fill="midnightblue" stroke="midnightblue" points="471.342,-83.0644 481.921,-82.4738 473.283,-76.3387 471.342,-83.0644"/>
</g>
<!-- Node45&#45;&gt;Node44 -->
<g id="edge8" class="edge"><title>Node45&#45;&gt;Node44</title>
<path fill="none" stroke="midnightblue" d="M279.221,-29.7579C288.039,-31.8458 297.203,-34.0153 306.247,-36.1565"/>
<polygon fill="midnightblue" stroke="midnightblue" points="305.454,-39.5656 315.991,-38.4637 307.067,-32.7539 305.454,-39.5656"/>
</g>
</g>
</svg>
