<?xml version="1.0" encoding="UTF-8" standalone="no"?>
<!DOCTYPE svg PUBLIC "-//W3C//DTD SVG 1.1//EN"
 "http://www.w3.org/Graphics/SVG/1.1/DTD/svg11.dtd">
<!-- Generated by graphviz version 2.38.0 (20140413.2041)
 -->
<!-- Title: mom_barotropic::barotropic_cs Pages: 1 -->
<!--zoomable 812 -->
<svg id="main" version="1.1" xmlns="http://www.w3.org/2000/svg" xmlns:xlink="http://www.w3.org/1999/xlink" xml:space="preserve" onload="init(evt)">
<style type="text/css"><![CDATA[
.edge:hover path { stroke: red; }
.edge:hover polygon { stroke: red; fill: red; }
]]></style>
<script type="text/javascript"><![CDATA[
var edges = document.getElementsByTagName('g');
if (edges && edges.length) {
  for (var i=0;i<edges.length;i++) {
    if (edges[i].id.substr(0,4)=='edge') {
      edges[i].setAttribute('class','edge');
    }
  }
}
]]></script>
        <defs>
                <circle id="rim" cx="0" cy="0" r="7"/>
                <circle id="rim2" cx="0" cy="0" r="3.5"/>
                <g id="zoomPlus">
                        <use xlink:href="#rim" fill="#404040">
                                <set attributeName="fill" to="#808080" begin="zoomplus.mouseover" end="zoomplus.mouseout"/>
                        </use>
                        <path d="M-4,0h8M0,-4v8" fill="none" stroke="white" stroke-width="1.5" pointer-events="none"/>
                </g>
                <g id="zoomMin">
                        <use xlink:href="#rim" fill="#404040">
                                <set attributeName="fill" to="#808080" begin="zoomminus.mouseover" end="zoomminus.mouseout"/>
                        </use>
                        <path d="M-4,0h8" fill="none" stroke="white" stroke-width="1.5" pointer-events="none"/>
                </g>
                <g id="dirArrow">
                        <path fill="none" stroke="white" stroke-width="1.5" d="M0,-3.0v7 M-2.5,-0.5L0,-3.0L2.5,-0.5"/>
                </g>
               <g id="resetDef">
                       <use xlink:href="#rim2" fill="#404040">
                               <set attributeName="fill" to="#808080" begin="reset.mouseover" end="reset.mouseout"/>
                       </use>
               </g>
        </defs>

<script type="text/javascript">
var viewWidth = 404;
var viewHeight = 812;
var sectionId = 'dynsection-0';
</script>
<script xlink:href="../../svgpan.js"/>
<svg id="graph" class="graph">
<g id="viewport">
<title>mom_barotropic::barotropic_cs</title>
<polygon fill="white" stroke="none" points="-4,4 -4,-807.5 400,-807.5 400,4 -4,4"/>
<!-- Node1 -->
<g id="node1" class="node"><title>Node1</title>
<polygon fill="#bfbfbf" stroke="black" points="245,-405 245,-424 396,-424 396,-405 245,-405"/>
<text text-anchor="middle" x="320.5" y="-412" font-family="Helvetica,sans-Serif" font-size="10.00">mom_barotropic::barotropic_cs</text>
</g>
<!-- Node2 -->
<g id="node2" class="node"><title>Node2</title>
<polygon fill="white" stroke="#bfbfbf" points="40,-668 40,-687 84,-687 84,-668 40,-668"/>
<text text-anchor="middle" x="62" y="-675" font-family="Helvetica,sans-Serif" font-size="10.00">logical</text>
</g>
<!-- Node2&#45;&gt;Node1 -->
<g id="edge1" class="edge"><title>Node2&#45;&gt;Node1</title>
<path fill="none" stroke="#9a32cd" stroke-dasharray="5,2" d="M94.6123,-682.118C130.58,-685.548 189.214,-685.365 227,-655.5 304.177,-594.502 317.011,-460.93 319.102,-424.081"/>
<polygon fill="#9a32cd" stroke="#9a32cd" points="94.5505,-678.59 84.2257,-680.966 93.779,-685.547 94.5505,-678.59"/>
<text text-anchor="middle" x="184.5" y="-795.5" font-family="Helvetica,sans-Serif" font-size="10.00"> bound_bt_corr</text>
<text text-anchor="middle" x="184.5" y="-784.5" font-family="Helvetica,sans-Serif" font-size="10.00">visc_rem_u_uh0</text>
<text text-anchor="middle" x="184.5" y="-773.5" font-family="Helvetica,sans-Serif" font-size="10.00">use_wide_halos</text>
<text text-anchor="middle" x="184.5" y="-762.5" font-family="Helvetica,sans-Serif" font-size="10.00">adjust_bt_cont</text>
<text text-anchor="middle" x="184.5" y="-751.5" font-family="Helvetica,sans-Serif" font-size="10.00">clip_velocity</text>
<text text-anchor="middle" x="184.5" y="-740.5" font-family="Helvetica,sans-Serif" font-size="10.00">dynamic_psurf</text>
<text text-anchor="middle" x="184.5" y="-729.5" font-family="Helvetica,sans-Serif" font-size="10.00">sadourny</text>
<text text-anchor="middle" x="184.5" y="-718.5" font-family="Helvetica,sans-Serif" font-size="10.00">split</text>
<text text-anchor="middle" x="184.5" y="-707.5" font-family="Helvetica,sans-Serif" font-size="10.00">debug_bt</text>
<text text-anchor="middle" x="184.5" y="-696.5" font-family="Helvetica,sans-Serif" font-size="10.00">bt_project_velocity</text>
<text text-anchor="middle" x="184.5" y="-685.5" font-family="Helvetica,sans-Serif" font-size="10.00">...</text>
</g>
<!-- Node3 -->
<g id="node3" class="node"><title>Node3</title>
<polygon fill="white" stroke="#bfbfbf" points="20.5,-630 20.5,-649 103.5,-649 103.5,-630 20.5,-630"/>
<text text-anchor="middle" x="62" y="-637" font-family="Helvetica,sans-Serif" font-size="10.00">hor_index_type</text>
</g>
<!-- Node3&#45;&gt;Node1 -->
<g id="edge2" class="edge"><title>Node3&#45;&gt;Node1</title>
<path fill="none" stroke="#9a32cd" stroke-dasharray="5,2" d="M113.826,-644.809C148.872,-645.778 194.767,-641.413 227,-617.5 294.185,-567.656 313.847,-457.405 318.352,-424.169"/>
<polygon fill="#9a32cd" stroke="#9a32cd" points="113.929,-641.31 103.788,-644.38 113.629,-648.304 113.929,-641.31"/>
<text text-anchor="middle" x="184.5" y="-646.5" font-family="Helvetica,sans-Serif" font-size="10.00"> debug_bt_hi</text>
</g>
<!-- Node4 -->
<g id="node4" class="node"><title>Node4</title>
<polygon fill="white" stroke="#bfbfbf" points="32.5,-592 32.5,-611 91.5,-611 91.5,-592 32.5,-592"/>
<text text-anchor="middle" x="62" y="-599" font-family="Helvetica,sans-Serif" font-size="10.00">time_type</text>
</g>
<!-- Node4&#45;&gt;Node1 -->
<g id="edge3" class="edge"><title>Node4&#45;&gt;Node1</title>
<path fill="none" stroke="#9a32cd" stroke-dasharray="5,2" d="M101.508,-604.376C137.106,-605.092 189.945,-601.029 227,-575.5 283.012,-536.911 309.53,-452.56 317.122,-424.098"/>
<polygon fill="#9a32cd" stroke="#9a32cd" points="101.613,-600.877 91.5013,-604.04 101.378,-607.873 101.613,-600.877"/>
<text text-anchor="middle" x="184.5" y="-605.5" font-family="Helvetica,sans-Serif" font-size="10.00"> time</text>
</g>
<!-- Node5 -->
<g id="node5" class="node"><title>Node5</title>
<polygon fill="white" stroke="#bfbfbf" points="16.5,-443 16.5,-462 107.5,-462 107.5,-443 16.5,-443"/>
<text text-anchor="middle" x="62" y="-450" font-family="Helvetica,sans-Serif" font-size="10.00">group_pass_type</text>
</g>
<!-- Node5&#45;&gt;Node1 -->
<g id="edge4" class="edge"><title>Node5&#45;&gt;Node1</title>
<path fill="none" stroke="#9a32cd" stroke-dasharray="5,2" d="M117.582,-444.414C157.839,-438.45 212.75,-430.315 255.147,-424.034"/>
<polygon fill="#9a32cd" stroke="#9a32cd" points="117.058,-440.953 107.679,-445.881 118.084,-447.878 117.058,-440.953"/>
<text text-anchor="middle" x="184.5" y="-563.5" font-family="Helvetica,sans-Serif" font-size="10.00"> pass_dat_uv</text>
<text text-anchor="middle" x="184.5" y="-552.5" font-family="Helvetica,sans-Serif" font-size="10.00">pass_gtot</text>
<text text-anchor="middle" x="184.5" y="-541.5" font-family="Helvetica,sans-Serif" font-size="10.00">pass_etaav</text>
<text text-anchor="middle" x="184.5" y="-530.5" font-family="Helvetica,sans-Serif" font-size="10.00">pass_ubta_uhbta</text>
<text text-anchor="middle" x="184.5" y="-519.5" font-family="Helvetica,sans-Serif" font-size="10.00">pass_tmp_uv</text>
<text text-anchor="middle" x="184.5" y="-508.5" font-family="Helvetica,sans-Serif" font-size="10.00">pass_e_anom</text>
<text text-anchor="middle" x="184.5" y="-497.5" font-family="Helvetica,sans-Serif" font-size="10.00">pass_eta_bt_rem</text>
<text text-anchor="middle" x="184.5" y="-486.5" font-family="Helvetica,sans-Serif" font-size="10.00">pass_eta_ubt</text>
<text text-anchor="middle" x="184.5" y="-475.5" font-family="Helvetica,sans-Serif" font-size="10.00">pass_q_dcor</text>
<text text-anchor="start" x="146.5" y="-464.5" font-family="Helvetica,sans-Serif" font-size="10.00">pass_force_hbt0</text>
<text text-anchor="middle" x="184.5" y="-453.5" font-family="Helvetica,sans-Serif" font-size="10.00">_cor_ref</text>
<text text-anchor="middle" x="184.5" y="-442.5" font-family="Helvetica,sans-Serif" font-size="10.00">...</text>
</g>
<!-- Node6 -->
<g id="node6" class="node"><title>Node6</title>
<polygon fill="white" stroke="#bfbfbf" points="35.5,-405 35.5,-424 88.5,-424 88.5,-405 35.5,-405"/>
<text text-anchor="middle" x="62" y="-412" font-family="Helvetica,sans-Serif" font-size="10.00">diag_ctrl</text>
</g>
<!-- Node6&#45;&gt;Node1 -->
<g id="edge5" class="edge"><title>Node6&#45;&gt;Node1</title>
<path fill="none" stroke="#9a32cd" stroke-dasharray="5,2" d="M98.9918,-414.5C136.651,-414.5 196.858,-414.5 244.852,-414.5"/>
<polygon fill="#9a32cd" stroke="#9a32cd" points="98.532,-411 88.5319,-414.5 98.5319,-418 98.532,-411"/>
<text text-anchor="middle" x="184.5" y="-417.5" font-family="Helvetica,sans-Serif" font-size="10.00"> diag</text>
</g>
<!-- Node7 -->
<g id="node7" class="node"><title>Node7</title>
<polygon fill="white" stroke="#bfbfbf" points="16.5,-355.5 16.5,-385.5 107.5,-385.5 107.5,-355.5 16.5,-355.5"/>
<text text-anchor="start" x="24.5" y="-373.5" font-family="Helvetica,sans-Serif" font-size="10.00">type(tidal_forcing</text>
<text text-anchor="middle" x="62" y="-362.5" font-family="Helvetica,sans-Serif" font-size="10.00">_cs), pointer</text>
</g>
<!-- Node7&#45;&gt;Node1 -->
<g id="edge6" class="edge"><title>Node7&#45;&gt;Node1</title>
<path fill="none" stroke="#9a32cd" stroke-dasharray="5,2" d="M117.686,-379.881C160.704,-387.26 220.404,-397.501 263.705,-404.929"/>
<polygon fill="#9a32cd" stroke="#9a32cd" points="118.127,-376.405 107.679,-378.164 116.943,-383.305 118.127,-376.405"/>
<text text-anchor="middle" x="184.5" y="-400.5" font-family="Helvetica,sans-Serif" font-size="10.00"> tides_csp</text>
</g>
<!-- Node8 -->
<g id="node8" class="node"><title>Node8</title>
<polygon fill="white" stroke="#bfbfbf" points="39,-216 39,-235 85,-235 85,-216 39,-216"/>
<text text-anchor="middle" x="62" y="-223" font-family="Helvetica,sans-Serif" font-size="10.00">integer</text>
</g>
<!-- Node8&#45;&gt;Node1 -->
<g id="edge7" class="edge"><title>Node8&#45;&gt;Node1</title>
<path fill="none" stroke="#9a32cd" stroke-dasharray="5,2" d="M95.3512,-222.001C130.783,-219.869 187.778,-221.616 227,-248.5 284.691,-288.043 310.267,-375.934 317.354,-404.979"/>
<polygon fill="#9a32cd" stroke="#9a32cd" points="94.804,-218.532 85.0908,-222.763 95.3227,-225.512 94.804,-218.532"/>
<text text-anchor="middle" x="184.5" y="-372.5" font-family="Helvetica,sans-Serif" font-size="10.00"> id_gtotn</text>
<text text-anchor="middle" x="184.5" y="-361.5" font-family="Helvetica,sans-Serif" font-size="10.00">id_ubt_hifreq</text>
<text text-anchor="middle" x="184.5" y="-350.5" font-family="Helvetica,sans-Serif" font-size="10.00">id_vbt_st</text>
<text text-anchor="middle" x="184.5" y="-339.5" font-family="Helvetica,sans-Serif" font-size="10.00">id_ubtav</text>
<text text-anchor="start" x="142" y="-328.5" font-family="Helvetica,sans-Serif" font-size="10.00">nonlin_cont_update</text>
<text text-anchor="middle" x="184.5" y="-317.5" font-family="Helvetica,sans-Serif" font-size="10.00">_period</text>
<text text-anchor="middle" x="184.5" y="-306.5" font-family="Helvetica,sans-Serif" font-size="10.00">id_btc_ubt_ee</text>
<text text-anchor="middle" x="184.5" y="-295.5" font-family="Helvetica,sans-Serif" font-size="10.00">id_ubt_st</text>
<text text-anchor="middle" x="184.5" y="-284.5" font-family="Helvetica,sans-Serif" font-size="10.00">id_vbtav</text>
<text text-anchor="middle" x="184.5" y="-273.5" font-family="Helvetica,sans-Serif" font-size="10.00">id_ubt</text>
<text text-anchor="middle" x="184.5" y="-262.5" font-family="Helvetica,sans-Serif" font-size="10.00">id_vhbt</text>
<text text-anchor="middle" x="184.5" y="-251.5" font-family="Helvetica,sans-Serif" font-size="10.00">...</text>
</g>
<!-- Node9 -->
<g id="node9" class="node"><title>Node9</title>
<polygon fill="white" stroke="#bfbfbf" points="46,-50 46,-69 78,-69 78,-50 46,-50"/>
<text text-anchor="middle" x="62" y="-57" font-family="Helvetica,sans-Serif" font-size="10.00">real</text>
</g>
<!-- Node9&#45;&gt;Node1 -->
<g id="edge8" class="edge"><title>Node9&#45;&gt;Node1</title>
<path fill="none" stroke="#9a32cd" stroke-dasharray="5,2" d="M88.2412,-53.9608C123.613,-47.7854 187.965,-42.5651 227,-75.5 280.155,-120.348 312,-354.21 318.33,-404.83"/>
<polygon fill="#9a32cd" stroke="#9a32cd" points="87.4207,-50.5542 78.2541,-55.8668 88.733,-57.4301 87.4207,-50.5542"/>
<text text-anchor="middle" x="184.5" y="-210.5" font-family="Helvetica,sans-Serif" font-size="10.00"> dtbt</text>
<text text-anchor="middle" x="184.5" y="-199.5" font-family="Helvetica,sans-Serif" font-size="10.00">dmin_dyn_psurf</text>
<text text-anchor="middle" x="184.5" y="-188.5" font-family="Helvetica,sans-Serif" font-size="10.00">idatu</text>
<text text-anchor="middle" x="184.5" y="-177.5" font-family="Helvetica,sans-Serif" font-size="10.00">idatv</text>
<text text-anchor="middle" x="184.5" y="-166.5" font-family="Helvetica,sans-Serif" font-size="10.00">g_extra</text>
<text text-anchor="middle" x="184.5" y="-155.5" font-family="Helvetica,sans-Serif" font-size="10.00">ubtav</text>
<text text-anchor="start" x="149.5" y="-144.5" font-family="Helvetica,sans-Serif" font-size="10.00">allocable</text>
<text text-anchor="middle" x="184.5" y="-133.5" font-family="Helvetica,sans-Serif" font-size="10.00">_</text>
<text text-anchor="start" x="149.5" y="-122.5" font-family="Helvetica,sans-Serif" font-size="10.00">maxcfl_bt</text>
<text text-anchor="middle" x="184.5" y="-111.5" font-family="Helvetica,sans-Serif" font-size="10.00">_cont</text>
<text text-anchor="middle" x="184.5" y="-100.5" font-family="Helvetica,sans-Serif" font-size="10.00">bebt</text>
<text text-anchor="middle" x="184.5" y="-89.5" font-family="Helvetica,sans-Serif" font-size="10.00">dtbt_fraction</text>
<text text-anchor="middle" x="184.5" y="-78.5" font-family="Helvetica,sans-Serif" font-size="10.00">...</text>
</g>
<!-- Node10 -->
<g id="node10" class="node"><title>Node10</title>
<polygon fill="white" stroke="#bfbfbf" points="0,-0.5 0,-30.5 124,-30.5 124,-0.5 0,-0.5"/>
<text text-anchor="start" x="8" y="-18.5" font-family="Helvetica,sans-Serif" font-size="10.00">type(mom_domain_type)</text>
<text text-anchor="middle" x="62" y="-7.5" font-family="Helvetica,sans-Serif" font-size="10.00">, pointer</text>
</g>
<!-- Node10&#45;&gt;Node1 -->
<g id="edge9" class="edge"><title>Node10&#45;&gt;Node1</title>
<path fill="none" stroke="#9a32cd" stroke-dasharray="5,2" d="M134.556,-6.57891C166.386,-6.57115 202.192,-12.5794 227,-34.5 285.387,-86.0903 313.429,-350.581 318.609,-404.786"/>
<polygon fill="#9a32cd" stroke="#9a32cd" points="134.309,-3.08302 124.38,-6.78028 134.447,-10.0816 134.309,-3.08302"/>
<text text-anchor="middle" x="184.5" y="-37.5" font-family="Helvetica,sans-Serif" font-size="10.00"> bt_domain</text>
</g>
</g>
</svg>
        <g id="navigator" transform="translate(0 0)" fill="#404254">
                <rect fill="#f2f5e9" fill-opacity="0.5" stroke="#606060" stroke-width=".5" x="0" y="0" width="60" height="60"/>
                <use id="zoomplus" xlink:href="#zoomPlus" x="17" y="9" onmousedown="handleZoom(evt,'in')"/>
                <use id="zoomminus" xlink:href="#zoomMin" x="42" y="9" onmousedown="handleZoom(evt,'out')"/>
                <use id="reset" xlink:href="#resetDef" x="30" y="36" onmousedown="handleReset()"/>
                <g id="arrowUp" xlink:href="#dirArrow" transform="translate(30 24)" onmousedown="handlePan(0,-1)">
                  <use xlink:href="#rim" fill="#404040">
                        <set attributeName="fill" to="#808080" begin="arrowUp.mouseover" end="arrowUp.mouseout"/>
                  </use>
                  <path fill="none" stroke="white" stroke-width="1.5" d="M0,-3.0v7 M-2.5,-0.5L0,-3.0L2.5,-0.5"/>
                </g>
                <g id="arrowRight" xlink:href="#dirArrow" transform="rotate(90) translate(36 -43)" onmousedown="handlePan(1,0)">
                  <use xlink:href="#rim" fill="#404040">
                        <set attributeName="fill" to="#808080" begin="arrowRight.mouseover" end="arrowRight.mouseout"/>
                  </use>
                  <path fill="none" stroke="white" stroke-width="1.5" d="M0,-3.0v7 M-2.5,-0.5L0,-3.0L2.5,-0.5"/>
                </g>
                <g id="arrowDown" xlink:href="#dirArrow" transform="rotate(180) translate(-30 -48)" onmousedown="handlePan(0,1)">
                  <use xlink:href="#rim" fill="#404040">
                        <set attributeName="fill" to="#808080" begin="arrowDown.mouseover" end="arrowDown.mouseout"/>
                  </use>
                  <path fill="none" stroke="white" stroke-width="1.5" d="M0,-3.0v7 M-2.5,-0.5L0,-3.0L2.5,-0.5"/>
                </g>
                <g id="arrowLeft" xlink:href="#dirArrow" transform="rotate(270) translate(-36 17)" onmousedown="handlePan(-1,0)">
                  <use xlink:href="#rim" fill="#404040">
                        <set attributeName="fill" to="#808080" begin="arrowLeft.mouseover" end="arrowLeft.mouseout"/>
                  </use>
                  <path fill="none" stroke="white" stroke-width="1.5" d="M0,-3.0v7 M-2.5,-0.5L0,-3.0L2.5,-0.5"/>
                </g>
        </g>
        <svg viewBox="0 0 15 15" width="100%" height="30px" preserveAspectRatio="xMaxYMin meet">
         <g id="arrow_out" transform="scale(0.3 0.3)">
          <a xlink:href="structmom__barotropic_1_1barotropic__cs__coll__graph_org.svg" target="_base">
           <rect id="button" ry="5" rx="5" y="6" x="6" height="38" width="38"
                fill="#f2f5e9" fill-opacity="0.5" stroke="#606060" stroke-width="1.0"/>
           <path id="arrow"
             d="M 11.500037,31.436501 C 11.940474,20.09759 22.043105,11.32322 32.158766,21.979434 L 37.068811,17.246167 C 37.068811,17.246167 37.088388,32 37.088388,32 L 22.160133,31.978069 C 22.160133,31.978069 26.997745,27.140456 26.997745,27.140456 C 18.528582,18.264221 13.291696,25.230495 11.500037,31.436501 z"
             style="fill:#404040;"/>
          </a>
         </g>
        </svg>
</svg>
