<?xml version="1.0" encoding="UTF-8" standalone="no"?>
<!DOCTYPE svg PUBLIC "-//W3C//DTD SVG 1.1//EN"
 "http://www.w3.org/Graphics/SVG/1.1/DTD/svg11.dtd">
<!-- Generated by graphviz version 2.38.0 (20140413.2041)
 -->
<!-- Title: mom_barotropic::barotropic_cs Pages: 1 -->
<svg width="348pt" height="809pt"
 viewBox="0.00 0.00 348.00 808.50" xmlns="http://www.w3.org/2000/svg" xmlns:xlink="http://www.w3.org/1999/xlink">
<g id="graph0" class="graph" transform="scale(1 1) rotate(0) translate(4 804.5)">
<title>mom_barotropic::barotropic_cs</title>
<polygon fill="white" stroke="none" points="-4,4 -4,-804.5 344,-804.5 344,4 -4,4"/>
<!-- Node1 -->
<g id="node1" class="node"><title>Node1</title>
<polygon fill="#bfbfbf" stroke="black" points="212,-405 212,-424 340,-424 340,-405 212,-405"/>
<text text-anchor="middle" x="276" y="-412" font-family="Helvetica,sans-Serif" font-size="10.00">mom_barotropic::barotropic_cs</text>
</g>
<!-- Node2 -->
<g id="node2" class="node"><title>Node2</title>
<polygon fill="white" stroke="#bfbfbf" points="34,-668 34,-687 72,-687 72,-668 34,-668"/>
<text text-anchor="middle" x="53" y="-675" font-family="Helvetica,sans-Serif" font-size="10.00">logical</text>
</g>
<!-- Node2&#45;&gt;Node1 -->
<g id="edge1" class="edge"><title>Node2&#45;&gt;Node1</title>
<path fill="none" stroke="#9a32cd" stroke-dasharray="5,2" d="M82.4605,-681.045C113.498,-683.268 162.89,-681.768 194,-655.5 267.86,-593.136 274.628,-461.103 275.042,-424.239"/>
<polygon fill="#9a32cd" stroke="#9a32cd" points="82.5795,-677.542 72.3077,-680.138 81.9565,-684.514 82.5795,-677.542"/>
<text text-anchor="middle" x="159" y="-792.5" font-family="Helvetica,sans-Serif" font-size="10.00"> bound_bt_corr</text>
<text text-anchor="middle" x="159" y="-781.5" font-family="Helvetica,sans-Serif" font-size="10.00">visc_rem_u_uh0</text>
<text text-anchor="middle" x="159" y="-770.5" font-family="Helvetica,sans-Serif" font-size="10.00">use_wide_halos</text>
<text text-anchor="middle" x="159" y="-759.5" font-family="Helvetica,sans-Serif" font-size="10.00">adjust_bt_cont</text>
<text text-anchor="middle" x="159" y="-748.5" font-family="Helvetica,sans-Serif" font-size="10.00">clip_velocity</text>
<text text-anchor="middle" x="159" y="-737.5" font-family="Helvetica,sans-Serif" font-size="10.00">dynamic_psurf</text>
<text text-anchor="middle" x="159" y="-726.5" font-family="Helvetica,sans-Serif" font-size="10.00">sadourny</text>
<text text-anchor="middle" x="159" y="-715.5" font-family="Helvetica,sans-Serif" font-size="10.00">split</text>
<text text-anchor="middle" x="159" y="-704.5" font-family="Helvetica,sans-Serif" font-size="10.00">debug_bt</text>
<text text-anchor="middle" x="159" y="-693.5" font-family="Helvetica,sans-Serif" font-size="10.00">bt_project_velocity</text>
<text text-anchor="middle" x="159" y="-682.5" font-family="Helvetica,sans-Serif" font-size="10.00">...</text>
</g>
<!-- Node3 -->
<g id="node3" class="node"><title>Node3</title>
<polygon fill="white" stroke="#bfbfbf" points="17.5,-630 17.5,-649 88.5,-649 88.5,-630 17.5,-630"/>
<text text-anchor="middle" x="53" y="-637" font-family="Helvetica,sans-Serif" font-size="10.00">hor_index_type</text>
</g>
<!-- Node3&#45;&gt;Node1 -->
<g id="edge2" class="edge"><title>Node3&#45;&gt;Node1</title>
<path fill="none" stroke="#9a32cd" stroke-dasharray="5,2" d="M98.7966,-642.523C128.784,-642.186 167.472,-636.897 194,-615.5 256.961,-564.716 271.299,-457.461 274.277,-424.408"/>
<polygon fill="#9a32cd" stroke="#9a32cd" points="98.6103,-639.022 88.5868,-642.454 98.5629,-646.022 98.6103,-639.022"/>
<text text-anchor="middle" x="159" y="-643.5" font-family="Helvetica,sans-Serif" font-size="10.00"> debug_bt_hi</text>
</g>
<!-- Node4 -->
<g id="node4" class="node"><title>Node4</title>
<polygon fill="white" stroke="#bfbfbf" points="27.5,-592 27.5,-611 78.5,-611 78.5,-592 27.5,-592"/>
<text text-anchor="middle" x="53" y="-599" font-family="Helvetica,sans-Serif" font-size="10.00">time_type</text>
</g>
<!-- Node4&#45;&gt;Node1 -->
<g id="edge3" class="edge"><title>Node4&#45;&gt;Node1</title>
<path fill="none" stroke="#9a32cd" stroke-dasharray="5,2" d="M88.8183,-603.293C119.418,-603.09 163.674,-598.275 194,-575.5 246.791,-535.853 267.586,-452.189 273.265,-424"/>
<polygon fill="#9a32cd" stroke="#9a32cd" points="88.6429,-599.791 78.6094,-603.194 88.575,-606.79 88.6429,-599.791"/>
<text text-anchor="middle" x="159" y="-603.5" font-family="Helvetica,sans-Serif" font-size="10.00"> time</text>
</g>
<!-- Node5 -->
<g id="node5" class="node"><title>Node5</title>
<polygon fill="white" stroke="#bfbfbf" points="14,-443 14,-462 92,-462 92,-443 14,-443"/>
<text text-anchor="middle" x="53" y="-450" font-family="Helvetica,sans-Serif" font-size="10.00">group_pass_type</text>
</g>
<!-- Node5&#45;&gt;Node1 -->
<g id="edge4" class="edge"><title>Node5&#45;&gt;Node1</title>
<path fill="none" stroke="#9a32cd" stroke-dasharray="5,2" d="M102.542,-444.153C137.041,-438.221 183.444,-430.243 219.426,-424.056"/>
<polygon fill="#9a32cd" stroke="#9a32cd" points="101.505,-440.78 92.243,-445.924 102.691,-447.679 101.505,-440.78"/>
<text text-anchor="middle" x="159" y="-563.5" font-family="Helvetica,sans-Serif" font-size="10.00"> pass_dat_uv</text>
<text text-anchor="middle" x="159" y="-552.5" font-family="Helvetica,sans-Serif" font-size="10.00">pass_gtot</text>
<text text-anchor="middle" x="159" y="-541.5" font-family="Helvetica,sans-Serif" font-size="10.00">pass_etaav</text>
<text text-anchor="middle" x="159" y="-530.5" font-family="Helvetica,sans-Serif" font-size="10.00">pass_ubta_uhbta</text>
<text text-anchor="middle" x="159" y="-519.5" font-family="Helvetica,sans-Serif" font-size="10.00">pass_tmp_uv</text>
<text text-anchor="middle" x="159" y="-508.5" font-family="Helvetica,sans-Serif" font-size="10.00">pass_e_anom</text>
<text text-anchor="middle" x="159" y="-497.5" font-family="Helvetica,sans-Serif" font-size="10.00">pass_eta_bt_rem</text>
<text text-anchor="middle" x="159" y="-486.5" font-family="Helvetica,sans-Serif" font-size="10.00">pass_eta_ubt</text>
<text text-anchor="middle" x="159" y="-475.5" font-family="Helvetica,sans-Serif" font-size="10.00">pass_q_dcor</text>
<text text-anchor="start" x="127.5" y="-464.5" font-family="Helvetica,sans-Serif" font-size="10.00">pass_force_hbt0</text>
<text text-anchor="middle" x="159" y="-453.5" font-family="Helvetica,sans-Serif" font-size="10.00">_cor_ref</text>
<text text-anchor="middle" x="159" y="-442.5" font-family="Helvetica,sans-Serif" font-size="10.00">...</text>
</g>
<!-- Node6 -->
<g id="node6" class="node"><title>Node6</title>
<polygon fill="white" stroke="#bfbfbf" points="29.5,-405 29.5,-424 76.5,-424 76.5,-405 29.5,-405"/>
<text text-anchor="middle" x="53" y="-412" font-family="Helvetica,sans-Serif" font-size="10.00">diag_ctrl</text>
</g>
<!-- Node6&#45;&gt;Node1 -->
<g id="edge5" class="edge"><title>Node6&#45;&gt;Node1</title>
<path fill="none" stroke="#9a32cd" stroke-dasharray="5,2" d="M87.2104,-414.5C120.036,-414.5 171.09,-414.5 211.684,-414.5"/>
<polygon fill="#9a32cd" stroke="#9a32cd" points="86.8185,-411 76.8185,-414.5 86.8185,-418 86.8185,-411"/>
<text text-anchor="middle" x="159" y="-417.5" font-family="Helvetica,sans-Serif" font-size="10.00"> diag</text>
</g>
<!-- Node7 -->
<g id="node7" class="node"><title>Node7</title>
<polygon fill="white" stroke="#bfbfbf" points="14.5,-355.5 14.5,-385.5 91.5,-385.5 91.5,-355.5 14.5,-355.5"/>
<text text-anchor="start" x="22.5" y="-373.5" font-family="Helvetica,sans-Serif" font-size="10.00">type(tidal_forcing</text>
<text text-anchor="middle" x="53" y="-362.5" font-family="Helvetica,sans-Serif" font-size="10.00">_cs), pointer</text>
</g>
<!-- Node7&#45;&gt;Node1 -->
<g id="edge6" class="edge"><title>Node7&#45;&gt;Node1</title>
<path fill="none" stroke="#9a32cd" stroke-dasharray="5,2" d="M101.79,-380.015C138.823,-387.388 189.905,-397.558 226.994,-404.942"/>
<polygon fill="#9a32cd" stroke="#9a32cd" points="102.231,-376.534 91.7401,-378.014 100.864,-383.399 102.231,-376.534"/>
<text text-anchor="middle" x="159" y="-400.5" font-family="Helvetica,sans-Serif" font-size="10.00"> tides_csp</text>
</g>
<!-- Node8 -->
<g id="node8" class="node"><title>Node8</title>
<polygon fill="white" stroke="#bfbfbf" points="32.5,-216 32.5,-235 73.5,-235 73.5,-216 32.5,-216"/>
<text text-anchor="middle" x="53" y="-223" font-family="Helvetica,sans-Serif" font-size="10.00">integer</text>
</g>
<!-- Node8&#45;&gt;Node1 -->
<g id="edge7" class="edge"><title>Node8&#45;&gt;Node1</title>
<path fill="none" stroke="#9a32cd" stroke-dasharray="5,2" d="M83.8689,-222.887C114.482,-221.797 162.008,-224.689 194,-248.5 248.278,-288.898 268.108,-375.472 273.403,-404.66"/>
<polygon fill="#9a32cd" stroke="#9a32cd" points="83.6036,-219.396 73.7991,-223.412 83.9675,-226.387 83.6036,-219.396"/>
<text text-anchor="middle" x="159" y="-372.5" font-family="Helvetica,sans-Serif" font-size="10.00"> id_gtotn</text>
<text text-anchor="middle" x="159" y="-361.5" font-family="Helvetica,sans-Serif" font-size="10.00">id_ubt_hifreq</text>
<text text-anchor="middle" x="159" y="-350.5" font-family="Helvetica,sans-Serif" font-size="10.00">id_vbt_st</text>
<text text-anchor="middle" x="159" y="-339.5" font-family="Helvetica,sans-Serif" font-size="10.00">id_ubtav</text>
<text text-anchor="start" x="124" y="-328.5" font-family="Helvetica,sans-Serif" font-size="10.00">nonlin_cont_update</text>
<text text-anchor="middle" x="159" y="-317.5" font-family="Helvetica,sans-Serif" font-size="10.00">_period</text>
<text text-anchor="middle" x="159" y="-306.5" font-family="Helvetica,sans-Serif" font-size="10.00">id_btc_ubt_ee</text>
<text text-anchor="middle" x="159" y="-295.5" font-family="Helvetica,sans-Serif" font-size="10.00">id_ubt_st</text>
<text text-anchor="middle" x="159" y="-284.5" font-family="Helvetica,sans-Serif" font-size="10.00">id_vbtav</text>
<text text-anchor="middle" x="159" y="-273.5" font-family="Helvetica,sans-Serif" font-size="10.00">id_ubt</text>
<text text-anchor="middle" x="159" y="-262.5" font-family="Helvetica,sans-Serif" font-size="10.00">id_vhbt</text>
<text text-anchor="middle" x="159" y="-251.5" font-family="Helvetica,sans-Serif" font-size="10.00">...</text>
</g>
<!-- Node9 -->
<g id="node9" class="node"><title>Node9</title>
<polygon fill="white" stroke="#bfbfbf" points="38,-50 38,-69 68,-69 68,-50 38,-50"/>
<text text-anchor="middle" x="53" y="-57" font-family="Helvetica,sans-Serif" font-size="10.00">real</text>
</g>
<!-- Node9&#45;&gt;Node1 -->
<g id="edge8" class="edge"><title>Node9&#45;&gt;Node1</title>
<path fill="none" stroke="#9a32cd" stroke-dasharray="5,2" d="M77.9105,-55.3235C108.767,-51.4042 162.248,-49.8223 194,-78.5 244.765,-124.349 269.355,-355.049 274.127,-404.966"/>
<polygon fill="#9a32cd" stroke="#9a32cd" points="77.4053,-51.8601 68.0124,-56.7615 78.4118,-58.7873 77.4053,-51.8601"/>
<text text-anchor="middle" x="159" y="-213.5" font-family="Helvetica,sans-Serif" font-size="10.00"> dtbt</text>
<text text-anchor="middle" x="159" y="-202.5" font-family="Helvetica,sans-Serif" font-size="10.00">dmin_dyn_psurf</text>
<text text-anchor="middle" x="159" y="-191.5" font-family="Helvetica,sans-Serif" font-size="10.00">idatu</text>
<text text-anchor="middle" x="159" y="-180.5" font-family="Helvetica,sans-Serif" font-size="10.00">idatv</text>
<text text-anchor="middle" x="159" y="-169.5" font-family="Helvetica,sans-Serif" font-size="10.00">g_extra</text>
<text text-anchor="middle" x="159" y="-158.5" font-family="Helvetica,sans-Serif" font-size="10.00">ubtav</text>
<text text-anchor="start" x="130" y="-147.5" font-family="Helvetica,sans-Serif" font-size="10.00">allocable</text>
<text text-anchor="middle" x="159" y="-136.5" font-family="Helvetica,sans-Serif" font-size="10.00">_</text>
<text text-anchor="start" x="130" y="-125.5" font-family="Helvetica,sans-Serif" font-size="10.00">maxcfl_bt</text>
<text text-anchor="middle" x="159" y="-114.5" font-family="Helvetica,sans-Serif" font-size="10.00">_cont</text>
<text text-anchor="middle" x="159" y="-103.5" font-family="Helvetica,sans-Serif" font-size="10.00">bebt</text>
<text text-anchor="middle" x="159" y="-92.5" font-family="Helvetica,sans-Serif" font-size="10.00">dtbt_fraction</text>
<text text-anchor="middle" x="159" y="-81.5" font-family="Helvetica,sans-Serif" font-size="10.00">...</text>
</g>
<!-- Node10 -->
<g id="node10" class="node"><title>Node10</title>
<polygon fill="white" stroke="#bfbfbf" points="0,-0.5 0,-30.5 106,-30.5 106,-0.5 0,-0.5"/>
<text text-anchor="start" x="8" y="-18.5" font-family="Helvetica,sans-Serif" font-size="10.00">type(mom_domain_type)</text>
<text text-anchor="middle" x="53" y="-7.5" font-family="Helvetica,sans-Serif" font-size="10.00">, pointer</text>
</g>
<!-- Node10&#45;&gt;Node1 -->
<g id="edge9" class="edge"><title>Node10&#45;&gt;Node1</title>
<path fill="none" stroke="#9a32cd" stroke-dasharray="5,2" d="M116.425,-11.4939C143.513,-13.12 173.63,-19.9869 194,-39.5 249.192,-92.3711 270.525,-351.828 274.35,-404.977"/>
<polygon fill="#9a32cd" stroke="#9a32cd" points="116.343,-7.98845 106.219,-11.1118 116.081,-14.9835 116.343,-7.98845"/>
<text text-anchor="middle" x="159" y="-42.5" font-family="Helvetica,sans-Serif" font-size="10.00"> bt_domain</text>
</g>
</g>
</svg>
