<?xml version="1.0" encoding="UTF-8" standalone="no"?>
<!DOCTYPE svg PUBLIC "-//W3C//DTD SVG 1.1//EN"
 "http://www.w3.org/Graphics/SVG/1.1/DTD/svg11.dtd">
<!-- Generated by graphviz version 2.38.0 (20140413.2041)
 -->
<!-- Title: mom_tracer_hor_diff::tracer_hordiff Pages: 1 -->
<svg width="945pt" height="555pt"
 viewBox="0.00 0.00 945.00 555.00" xmlns="http://www.w3.org/2000/svg" xmlns:xlink="http://www.w3.org/1999/xlink">
<g id="graph0" class="graph" transform="scale(1 1) rotate(0) translate(4 551)">
<title>mom_tracer_hor_diff::tracer_hordiff</title>
<polygon fill="white" stroke="none" points="-4,4 -4,-551 941,-551 941,4 -4,4"/>
<!-- Node8 -->
<g id="node1" class="node"><title>Node8</title>
<polygon fill="#bfbfbf" stroke="black" points="0,-169.5 0,-199.5 106,-199.5 106,-169.5 0,-169.5"/>
<text text-anchor="start" x="8" y="-187.5" font-family="Helvetica,sans-Serif" font-size="10.00">mom_tracer_hor_diff</text>
<text text-anchor="middle" x="53" y="-176.5" font-family="Helvetica,sans-Serif" font-size="10.00">::tracer_hordiff</text>
</g>
<!-- Node9 -->
<g id="node2" class="node"><title>Node9</title>
<g id="a_node2"><a xlink:href="../../d0/de6/namespacemom__error__handler.html#a9cda07a87815f0e5594066162b4345c3" target="_top" xlink:title="Writes a message about entering a subroutine if call tree reporting is active. ">
<polygon fill="white" stroke="black" points="329,-516.5 329,-546.5 435,-546.5 435,-516.5 329,-516.5"/>
<text text-anchor="start" x="337" y="-534.5" font-family="Helvetica,sans-Serif" font-size="10.00">mom_error_handler::</text>
<text text-anchor="middle" x="382" y="-523.5" font-family="Helvetica,sans-Serif" font-size="10.00">calltree_enter</text>
</a>
</g>
</g>
<!-- Node8&#45;&gt;Node9 -->
<g id="edge1" class="edge"><title>Node8&#45;&gt;Node9</title>
<path fill="none" stroke="midnightblue" d="M55.578,-199.528C60.6418,-240.767 79.9615,-357.233 142,-426.5 188.398,-478.304 265.044,-505.73 319.006,-519.39"/>
<polygon fill="midnightblue" stroke="midnightblue" points="318.26,-522.811 328.805,-521.783 319.921,-516.011 318.26,-522.811"/>
</g>
<!-- Node11 -->
<g id="node4" class="node"><title>Node11</title>
<g id="a_node4"><a xlink:href="../../d0/de6/namespacemom__error__handler.html#a88ea67781e2ed9b73ab7eac8ea5e8578" target="_top" xlink:title="Writes a message about leaving a subroutine if call tree reporting is active. ">
<polygon fill="white" stroke="black" points="329,-467.5 329,-497.5 435,-497.5 435,-467.5 329,-467.5"/>
<text text-anchor="start" x="337" y="-485.5" font-family="Helvetica,sans-Serif" font-size="10.00">mom_error_handler::</text>
<text text-anchor="middle" x="382" y="-474.5" font-family="Helvetica,sans-Serif" font-size="10.00">calltree_leave</text>
</a>
</g>
</g>
<!-- Node8&#45;&gt;Node11 -->
<g id="edge3" class="edge"><title>Node8&#45;&gt;Node11</title>
<path fill="none" stroke="midnightblue" d="M57.2605,-199.589C65.5396,-234.621 90.4694,-322.441 142,-374.5 190.851,-423.852 266.318,-452.732 319.353,-468.016"/>
<polygon fill="midnightblue" stroke="midnightblue" points="318.409,-471.387 328.983,-470.714 320.297,-464.646 318.409,-471.387"/>
</g>
<!-- Node12 -->
<g id="node5" class="node"><title>Node12</title>
<g id="a_node5"><a xlink:href="../../d0/de6/namespacemom__error__handler.html#a34a02e601a60f03cb97a72fe25a32853" target="_top" xlink:title="Writes a message about reaching a milestone if call tree reporting is active. ">
<polygon fill="white" stroke="black" points="153,-335.5 153,-365.5 259,-365.5 259,-335.5 153,-335.5"/>
<text text-anchor="start" x="161" y="-353.5" font-family="Helvetica,sans-Serif" font-size="10.00">mom_error_handler::</text>
<text text-anchor="middle" x="206" y="-342.5" font-family="Helvetica,sans-Serif" font-size="10.00">calltree_waypoint</text>
</a>
</g>
</g>
<!-- Node8&#45;&gt;Node12 -->
<g id="edge5" class="edge"><title>Node8&#45;&gt;Node12</title>
<path fill="none" stroke="midnightblue" d="M67.6666,-199.524C94.1471,-228.635 152.599,-292.894 184.029,-327.446"/>
<polygon fill="midnightblue" stroke="midnightblue" points="181.718,-330.107 191.036,-335.149 186.897,-325.397 181.718,-330.107"/>
</g>
<!-- Node13 -->
<g id="node6" class="node"><title>Node13</title>
<g id="a_node6"><a xlink:href="../../d1/d95/namespacemom__domains.html#ac90ecdd1f8397352dfa996ae7198b0ef" target="_top" xlink:title="mom_domains::do_group_pass">
<polygon fill="white" stroke="black" points="306,-50 306,-69 458,-69 458,-50 306,-50"/>
<text text-anchor="middle" x="382" y="-57" font-family="Helvetica,sans-Serif" font-size="10.00">mom_domains::do_group_pass</text>
</a>
</g>
</g>
<!-- Node8&#45;&gt;Node13 -->
<g id="edge7" class="edge"><title>Node8&#45;&gt;Node13</title>
<path fill="none" stroke="midnightblue" d="M73.6741,-169.414C90.9129,-156.783 117.045,-139.022 142,-127.5 159.267,-119.528 287.667,-83.5586 306,-78.5 314.467,-76.1638 323.502,-73.7813 332.262,-71.5288"/>
<polygon fill="midnightblue" stroke="midnightblue" points="333.165,-74.9107 341.991,-69.0501 331.437,-68.1274 333.165,-74.9107"/>
</g>
<!-- Node14 -->
<g id="node7" class="node"><title>Node14</title>
<g id="a_node7"><a xlink:href="../../d1/d35/namespacemom__tracer__registry.html#ad350bb834bb3dcfd6e603bb136bd8098" target="_top" xlink:title="This subroutine writes out chksums for thermodynamic state variables. ">
<polygon fill="white" stroke="black" points="149,-0.5 149,-30.5 263,-30.5 263,-0.5 149,-0.5"/>
<text text-anchor="start" x="157" y="-18.5" font-family="Helvetica,sans-Serif" font-size="10.00">mom_tracer_registry</text>
<text text-anchor="middle" x="206" y="-7.5" font-family="Helvetica,sans-Serif" font-size="10.00">::mom_tracer_chksum</text>
</a>
</g>
</g>
<!-- Node8&#45;&gt;Node14 -->
<g id="edge8" class="edge"><title>Node8&#45;&gt;Node14</title>
<path fill="none" stroke="midnightblue" d="M59.4323,-169.087C70.4926,-139.82 98.3368,-75.8795 142,-39.5 143.517,-38.2357 145.109,-37.0338 146.757,-35.8916"/>
<polygon fill="midnightblue" stroke="midnightblue" points="148.655,-38.8338 155.402,-30.6649 145.034,-32.8435 148.655,-38.8338"/>
</g>
<!-- Node15 -->
<g id="node8" class="node"><title>Node15</title>
<g id="a_node8"><a xlink:href="../../d8/da4/namespacemom__neutral__diffusion.html#a0aa7d320b2d623791e7de7d879930a64" target="_top" xlink:title="Update tracer concentration due to neutral diffusion; layer thickness unchanged by this update...">
<polygon fill="white" stroke="black" points="148.5,-197.5 148.5,-227.5 263.5,-227.5 263.5,-197.5 148.5,-197.5"/>
<text text-anchor="start" x="156.5" y="-215.5" font-family="Helvetica,sans-Serif" font-size="10.00">mom_neutral_diffusion</text>
<text text-anchor="middle" x="206" y="-204.5" font-family="Helvetica,sans-Serif" font-size="10.00">::neutral_diffusion</text>
</a>
</g>
</g>
<!-- Node8&#45;&gt;Node15 -->
<g id="edge9" class="edge"><title>Node8&#45;&gt;Node15</title>
<path fill="none" stroke="midnightblue" d="M106.389,-194.214C116.652,-196.118 127.546,-198.138 138.206,-200.114"/>
<polygon fill="midnightblue" stroke="midnightblue" points="137.855,-203.609 148.326,-201.991 139.132,-196.726 137.855,-203.609"/>
</g>
<!-- Node23 -->
<g id="node16" class="node"><title>Node23</title>
<g id="a_node16"><a xlink:href="../../d8/da4/namespacemom__neutral__diffusion.html#a53d5e3f8d7610b60644aaa9f44fd854e" target="_top" xlink:title="Calculate remapping factors for u/v columns used to map adjoining columns to a shared coordinate spac...">
<polygon fill="white" stroke="black" points="147.5,-137 147.5,-178 264.5,-178 264.5,-137 147.5,-137"/>
<text text-anchor="start" x="155.5" y="-166" font-family="Helvetica,sans-Serif" font-size="10.00">mom_neutral_diffusion</text>
<text text-anchor="start" x="155.5" y="-155" font-family="Helvetica,sans-Serif" font-size="10.00">::neutral_diffusion_calc</text>
<text text-anchor="middle" x="206" y="-144" font-family="Helvetica,sans-Serif" font-size="10.00">_coeffs</text>
</a>
</g>
</g>
<!-- Node8&#45;&gt;Node23 -->
<g id="edge17" class="edge"><title>Node8&#45;&gt;Node23</title>
<path fill="none" stroke="midnightblue" d="M106.389,-175.132C116.394,-173.343 126.999,-171.447 137.401,-169.587"/>
<polygon fill="midnightblue" stroke="midnightblue" points="138.059,-173.025 147.286,-167.82 136.826,-166.135 138.059,-173.025"/>
</g>
<!-- Node32 -->
<g id="node25" class="node"><title>Node32</title>
<g id="a_node25"><a xlink:href="../../da/db2/namespacemom__tracer__hor__diff.html#a3c96ca84172a944f6d8b15e4204228bb" target="_top" xlink:title="This subroutine does epipycnal diffusion of all tracers between the mixed and buffer layers and the i...">
<polygon fill="white" stroke="black" points="142,-49.5 142,-79.5 270,-79.5 270,-49.5 142,-49.5"/>
<text text-anchor="start" x="150" y="-67.5" font-family="Helvetica,sans-Serif" font-size="10.00">mom_tracer_hor_diff</text>
<text text-anchor="middle" x="206" y="-56.5" font-family="Helvetica,sans-Serif" font-size="10.00">::tracer_epipycnal_ml_diff</text>
</a>
</g>
</g>
<!-- Node8&#45;&gt;Node32 -->
<g id="edge28" class="edge"><title>Node8&#45;&gt;Node32</title>
<path fill="none" stroke="midnightblue" d="M66.0533,-169.185C81.8678,-149.856 111.242,-116.483 142,-94.5 147.174,-90.8019 152.876,-87.3589 158.671,-84.2219"/>
<polygon fill="midnightblue" stroke="midnightblue" points="160.486,-87.2246 167.792,-79.5514 157.296,-80.9939 160.486,-87.2246"/>
</g>
<!-- Node10 -->
<g id="node3" class="node"><title>Node10</title>
<g id="a_node3"><a xlink:href="../../d0/de6/namespacemom__error__handler.html#ad5f00a53059c72fe2332d1436c80ca71" target="_top" xlink:title="mom_error_handler::\lis_root_pe">
<polygon fill="white" stroke="black" points="675.5,-448.5 675.5,-478.5 781.5,-478.5 781.5,-448.5 675.5,-448.5"/>
<text text-anchor="start" x="683.5" y="-466.5" font-family="Helvetica,sans-Serif" font-size="10.00">mom_error_handler::</text>
<text text-anchor="middle" x="728.5" y="-455.5" font-family="Helvetica,sans-Serif" font-size="10.00">is_root_pe</text>
</a>
</g>
</g>
<!-- Node9&#45;&gt;Node10 -->
<g id="edge2" class="edge"><title>Node9&#45;&gt;Node10</title>
<path fill="none" stroke="midnightblue" d="M435.323,-523.207C486.43,-514.859 566.327,-501.152 635,-486.5 644.832,-484.402 655.206,-482.005 665.312,-479.568"/>
<polygon fill="midnightblue" stroke="midnightblue" points="666.415,-482.902 675.299,-477.128 664.754,-476.102 666.415,-482.902"/>
</g>
<!-- Node11&#45;&gt;Node10 -->
<g id="edge4" class="edge"><title>Node11&#45;&gt;Node10</title>
<path fill="none" stroke="midnightblue" d="M435.322,-479.614C496.963,-476.215 599.282,-470.572 665.025,-466.946"/>
<polygon fill="midnightblue" stroke="midnightblue" points="665.459,-470.427 675.251,-466.382 665.073,-463.438 665.459,-470.427"/>
</g>
<!-- Node12&#45;&gt;Node10 -->
<g id="edge6" class="edge"><title>Node12&#45;&gt;Node10</title>
<path fill="none" stroke="midnightblue" d="M258.498,-365.527C315.671,-381.841 410.865,-407.914 494,-425.5 551.651,-437.695 618.023,-448.157 665.233,-454.997"/>
<polygon fill="midnightblue" stroke="midnightblue" points="664.908,-458.486 675.304,-456.444 665.903,-451.558 664.908,-458.486"/>
</g>
<!-- Node16 -->
<g id="node9" class="node"><title>Node16</title>
<g id="a_node9"><a xlink:href="../../d8/da4/namespacemom__neutral__diffusion.html#a626e0189b03bbbf36c33cfa52e4f098d" target="_top" xlink:title="Returns a single column of neutral diffusion fluxes of a tracer. ">
<polygon fill="white" stroke="black" points="324.5,-189.5 324.5,-219.5 439.5,-219.5 439.5,-189.5 324.5,-189.5"/>
<text text-anchor="start" x="332.5" y="-207.5" font-family="Helvetica,sans-Serif" font-size="10.00">mom_neutral_diffusion</text>
<text text-anchor="middle" x="382" y="-196.5" font-family="Helvetica,sans-Serif" font-size="10.00">::neutral_surface_flux</text>
</a>
</g>
</g>
<!-- Node15&#45;&gt;Node16 -->
<g id="edge10" class="edge"><title>Node15&#45;&gt;Node16</title>
<path fill="none" stroke="midnightblue" d="M263.974,-209.881C280.061,-209.141 297.71,-208.329 314.313,-207.566"/>
<polygon fill="midnightblue" stroke="midnightblue" points="314.663,-211.054 324.492,-207.098 314.342,-204.061 314.663,-211.054"/>
</g>
<!-- Node17 -->
<g id="node10" class="node"><title>Node17</title>
<g id="a_node10"><a xlink:href="../../d8/da4/namespacemom__neutral__diffusion.html#afbc54a4e2f34af5d72c18dc96e354af7" target="_top" xlink:title="Returns interface scalar, Si, for a column of layer values, S. ">
<polygon fill="white" stroke="black" points="507,-140.5 507,-170.5 622,-170.5 622,-140.5 507,-140.5"/>
<text text-anchor="start" x="515" y="-158.5" font-family="Helvetica,sans-Serif" font-size="10.00">mom_neutral_diffusion</text>
<text text-anchor="middle" x="564.5" y="-147.5" font-family="Helvetica,sans-Serif" font-size="10.00">::interface_scalar</text>
</a>
</g>
</g>
<!-- Node16&#45;&gt;Node17 -->
<g id="edge11" class="edge"><title>Node16&#45;&gt;Node17</title>
<path fill="none" stroke="midnightblue" d="M438.629,-189.399C457.503,-184.275 478.759,-178.504 498.311,-173.197"/>
<polygon fill="midnightblue" stroke="midnightblue" points="499.321,-176.549 508.055,-170.552 497.487,-169.794 499.321,-176.549"/>
</g>
<!-- Node22 -->
<g id="node15" class="node"><title>Node22</title>
<g id="a_node15"><a xlink:href="../../d8/da4/namespacemom__neutral__diffusion.html#a6931d9a07d09aa5d76d5abd2e47a54df" target="_top" xlink:title="Returns the average of a PPM reconstruction between two fractional positions. ">
<polygon fill="white" stroke="black" points="507,-189.5 507,-219.5 622,-219.5 622,-189.5 507,-189.5"/>
<text text-anchor="start" x="515" y="-207.5" font-family="Helvetica,sans-Serif" font-size="10.00">mom_neutral_diffusion</text>
<text text-anchor="middle" x="564.5" y="-196.5" font-family="Helvetica,sans-Serif" font-size="10.00">::ppm_ave</text>
</a>
</g>
</g>
<!-- Node16&#45;&gt;Node22 -->
<g id="edge16" class="edge"><title>Node16&#45;&gt;Node22</title>
<path fill="none" stroke="midnightblue" d="M439.616,-204.5C457.673,-204.5 477.827,-204.5 496.546,-204.5"/>
<polygon fill="midnightblue" stroke="midnightblue" points="496.775,-208 506.775,-204.5 496.775,-201 496.775,-208"/>
</g>
<!-- Node18 -->
<g id="node11" class="node"><title>Node18</title>
<g id="a_node11"><a xlink:href="../../d8/da4/namespacemom__neutral__diffusion.html#ac211ae488cb6e3c6685df85d24ecd0dd" target="_top" xlink:title="Returns PLM slopes for a column where the slopes are the difference in value across each cell...">
<polygon fill="white" stroke="black" points="671,-165.5 671,-195.5 786,-195.5 786,-165.5 671,-165.5"/>
<text text-anchor="start" x="679" y="-183.5" font-family="Helvetica,sans-Serif" font-size="10.00">mom_neutral_diffusion</text>
<text text-anchor="middle" x="728.5" y="-172.5" font-family="Helvetica,sans-Serif" font-size="10.00">::plm_diff</text>
</a>
</g>
</g>
<!-- Node17&#45;&gt;Node18 -->
<g id="edge12" class="edge"><title>Node17&#45;&gt;Node18</title>
<path fill="none" stroke="midnightblue" d="M622.16,-164.244C634.615,-166.166 647.917,-168.219 660.728,-170.196"/>
<polygon fill="midnightblue" stroke="midnightblue" points="660.455,-173.695 670.872,-171.761 661.523,-166.777 660.455,-173.695"/>
</g>
<!-- Node21 -->
<g id="node14" class="node"><title>Node21</title>
<g id="a_node14"><a xlink:href="../../d8/da4/namespacemom__neutral__diffusion.html#a87d3d020b56a98f3f0c143701f76c86e" target="_top" xlink:title="Returns the PPM quasi&#45;fourth order edge value at k+1/2 following equation 1.6 in Colella &amp; Woodward...">
<polygon fill="white" stroke="black" points="671,-116.5 671,-146.5 786,-146.5 786,-116.5 671,-116.5"/>
<text text-anchor="start" x="679" y="-134.5" font-family="Helvetica,sans-Serif" font-size="10.00">mom_neutral_diffusion</text>
<text text-anchor="middle" x="728.5" y="-123.5" font-family="Helvetica,sans-Serif" font-size="10.00">::ppm_edge</text>
</a>
</g>
</g>
<!-- Node17&#45;&gt;Node21 -->
<g id="edge15" class="edge"><title>Node17&#45;&gt;Node21</title>
<path fill="none" stroke="midnightblue" d="M622.16,-147.106C634.615,-145.261 647.917,-143.29 660.728,-141.392"/>
<polygon fill="midnightblue" stroke="midnightblue" points="661.493,-144.817 670.872,-139.889 660.467,-137.893 661.493,-144.817"/>
</g>
<!-- Node19 -->
<g id="node12" class="node"><title>Node19</title>
<g id="a_node12"><a xlink:href="../../d8/da4/namespacemom__neutral__diffusion.html#a1c5ac28d7c54581cdd872fe58ef0b204" target="_top" xlink:title="Returns the cell&#45;centered second&#45;order finite volume (unlimited PLM) slope using three consecutive ce...">
<polygon fill="white" stroke="black" points="822,-190.5 822,-220.5 937,-220.5 937,-190.5 822,-190.5"/>
<text text-anchor="start" x="830" y="-208.5" font-family="Helvetica,sans-Serif" font-size="10.00">mom_neutral_diffusion</text>
<text text-anchor="middle" x="879.5" y="-197.5" font-family="Helvetica,sans-Serif" font-size="10.00">::fv_diff</text>
</a>
</g>
</g>
<!-- Node18&#45;&gt;Node19 -->
<g id="edge13" class="edge"><title>Node18&#45;&gt;Node19</title>
<path fill="none" stroke="midnightblue" d="M786.256,-190.023C794.649,-191.431 803.362,-192.893 811.933,-194.331"/>
<polygon fill="midnightblue" stroke="midnightblue" points="811.461,-197.801 821.902,-196.004 812.619,-190.897 811.461,-197.801"/>
</g>
<!-- Node20 -->
<g id="node13" class="node"><title>Node20</title>
<g id="a_node13"><a xlink:href="../../d8/da4/namespacemom__neutral__diffusion.html#a6ed3814088af470ad6fc4a3a80926fd7" target="_top" xlink:title="Returns the cell&#45;centered second&#45;order weighted least squares slope using three consecutive cell widt...">
<polygon fill="white" stroke="black" points="822,-141.5 822,-171.5 937,-171.5 937,-141.5 822,-141.5"/>
<text text-anchor="start" x="830" y="-159.5" font-family="Helvetica,sans-Serif" font-size="10.00">mom_neutral_diffusion</text>
<text text-anchor="middle" x="879.5" y="-148.5" font-family="Helvetica,sans-Serif" font-size="10.00">::fvlsq_slope</text>
</a>
</g>
</g>
<!-- Node18&#45;&gt;Node20 -->
<g id="edge14" class="edge"><title>Node18&#45;&gt;Node20</title>
<path fill="none" stroke="midnightblue" d="M786.256,-171.358C794.649,-170.006 803.362,-168.603 811.933,-167.222"/>
<polygon fill="midnightblue" stroke="midnightblue" points="812.586,-170.662 821.902,-165.616 811.473,-163.751 812.586,-170.662"/>
</g>
<!-- Node23&#45;&gt;Node17 -->
<g id="edge27" class="edge"><title>Node23&#45;&gt;Node17</title>
<path fill="none" stroke="midnightblue" d="M264.674,-157.176C328.123,-156.82 429.944,-156.249 496.785,-155.874"/>
<polygon fill="midnightblue" stroke="midnightblue" points="496.812,-159.374 506.793,-155.818 496.773,-152.374 496.812,-159.374"/>
</g>
<!-- Node24 -->
<g id="node17" class="node"><title>Node24</title>
<g id="a_node17"><a xlink:href="../../d1/d01/namespacemom__eos.html#a204529f8434a0322314e6ce2a9762436" target="_top" xlink:title="Calls the appropriate subroutine to calculate density derivatives for 1&#45;D array inputs. ">
<polygon fill="white" stroke="black" points="330,-287.5 330,-317.5 434,-317.5 434,-287.5 330,-287.5"/>
<text text-anchor="start" x="338" y="-305.5" font-family="Helvetica,sans-Serif" font-size="10.00">mom_eos::calculate</text>
<text text-anchor="middle" x="382" y="-294.5" font-family="Helvetica,sans-Serif" font-size="10.00">_density_derivs</text>
</a>
</g>
</g>
<!-- Node23&#45;&gt;Node24 -->
<g id="edge18" class="edge"><title>Node23&#45;&gt;Node24</title>
<path fill="none" stroke="midnightblue" d="M255.655,-178.158C260.673,-181.018 265.555,-184.139 270,-187.5 289.344,-202.124 289.358,-210.862 306,-228.5 322.783,-246.288 342.492,-265.679 357.493,-280.148"/>
<polygon fill="midnightblue" stroke="midnightblue" points="355.231,-282.828 364.868,-287.231 360.08,-277.78 355.231,-282.828"/>
</g>
<!-- Node29 -->
<g id="node22" class="node"><title>Node29</title>
<g id="a_node22"><a xlink:href="../../d8/da4/namespacemom__neutral__diffusion.html#aacce4f78e738a3c7530ae8940c144fb9" target="_top" xlink:title="Returns positions within left/right columns of combined interfaces. ">
<polygon fill="white" stroke="black" points="324.5,-88 324.5,-129 439.5,-129 439.5,-88 324.5,-88"/>
<text text-anchor="start" x="332.5" y="-117" font-family="Helvetica,sans-Serif" font-size="10.00">mom_neutral_diffusion</text>
<text text-anchor="start" x="332.5" y="-106" font-family="Helvetica,sans-Serif" font-size="10.00">::find_neutral_surface</text>
<text text-anchor="middle" x="382" y="-95" font-family="Helvetica,sans-Serif" font-size="10.00">_positions</text>
</a>
</g>
</g>
<!-- Node23&#45;&gt;Node29 -->
<g id="edge24" class="edge"><title>Node23&#45;&gt;Node29</title>
<path fill="none" stroke="midnightblue" d="M264.939,-141.184C280.822,-136.711 298.165,-131.827 314.487,-127.231"/>
<polygon fill="midnightblue" stroke="midnightblue" points="315.819,-130.492 324.496,-124.412 313.922,-123.754 315.819,-130.492"/>
</g>
<!-- Node25 -->
<g id="node18" class="node"><title>Node25</title>
<g id="a_node18"><a xlink:href="../../d5/de6/namespacemom__eos__linear.html#a73d8a625582247379092adf1aeeb55e0" target="_top" xlink:title="mom_eos_linear::calculate\l_density_derivs_linear">
<polygon fill="white" stroke="black" points="498,-336.5 498,-366.5 631,-366.5 631,-336.5 498,-336.5"/>
<text text-anchor="start" x="506" y="-354.5" font-family="Helvetica,sans-Serif" font-size="10.00">mom_eos_linear::calculate</text>
<text text-anchor="middle" x="564.5" y="-343.5" font-family="Helvetica,sans-Serif" font-size="10.00">_density_derivs_linear</text>
</a>
</g>
</g>
<!-- Node24&#45;&gt;Node25 -->
<g id="edge19" class="edge"><title>Node24&#45;&gt;Node25</title>
<path fill="none" stroke="midnightblue" d="M434.241,-316.41C454.126,-321.808 477.139,-328.056 498.189,-333.77"/>
<polygon fill="midnightblue" stroke="midnightblue" points="497.454,-337.197 508.021,-336.439 499.288,-330.442 497.454,-337.197"/>
</g>
<!-- Node26 -->
<g id="node19" class="node"><title>Node26</title>
<g id="a_node19"><a xlink:href="../../dd/d6b/namespacemom__eos__unesco.html#af8666837abadea54c016bf59838f96cc" target="_top" xlink:title="mom_eos_unesco::calculate\l_density_derivs_unesco">
<polygon fill="white" stroke="black" points="494,-287.5 494,-317.5 635,-317.5 635,-287.5 494,-287.5"/>
<text text-anchor="start" x="502" y="-305.5" font-family="Helvetica,sans-Serif" font-size="10.00">mom_eos_unesco::calculate</text>
<text text-anchor="middle" x="564.5" y="-294.5" font-family="Helvetica,sans-Serif" font-size="10.00">_density_derivs_unesco</text>
</a>
</g>
</g>
<!-- Node24&#45;&gt;Node26 -->
<g id="edge20" class="edge"><title>Node24&#45;&gt;Node26</title>
<path fill="none" stroke="midnightblue" d="M434.241,-302.5C449.605,-302.5 466.836,-302.5 483.586,-302.5"/>
<polygon fill="midnightblue" stroke="midnightblue" points="483.932,-306 493.932,-302.5 483.932,-299 483.932,-306"/>
</g>
<!-- Node27 -->
<g id="node20" class="node"><title>Node27</title>
<g id="a_node20"><a xlink:href="../../de/d76/namespacemom__eos__wright.html#ad7748e85ddacb33ad90ec3a9017e6e72" target="_top" xlink:title="mom_eos_wright::calculate\l_density_derivs_wright">
<polygon fill="white" stroke="black" points="496.5,-238.5 496.5,-268.5 632.5,-268.5 632.5,-238.5 496.5,-238.5"/>
<text text-anchor="start" x="504.5" y="-256.5" font-family="Helvetica,sans-Serif" font-size="10.00">mom_eos_wright::calculate</text>
<text text-anchor="middle" x="564.5" y="-245.5" font-family="Helvetica,sans-Serif" font-size="10.00">_density_derivs_wright</text>
</a>
</g>
</g>
<!-- Node24&#45;&gt;Node27 -->
<g id="edge21" class="edge"><title>Node24&#45;&gt;Node27</title>
<path fill="none" stroke="midnightblue" d="M434.241,-288.59C454.126,-283.192 477.139,-276.944 498.189,-271.23"/>
<polygon fill="midnightblue" stroke="midnightblue" points="499.288,-274.558 508.021,-268.561 497.454,-267.803 499.288,-274.558"/>
</g>
<!-- Node28 -->
<g id="node21" class="node"><title>Node28</title>
<g id="a_node21"><a xlink:href="../../d0/de6/namespacemom__error__handler.html#a460cfb79a06c29fc249952c2a3710d67" target="_top" xlink:title="mom_error_handler::\lmom_error">
<polygon fill="white" stroke="black" points="511.5,-385.5 511.5,-415.5 617.5,-415.5 617.5,-385.5 511.5,-385.5"/>
<text text-anchor="start" x="519.5" y="-403.5" font-family="Helvetica,sans-Serif" font-size="10.00">mom_error_handler::</text>
<text text-anchor="middle" x="564.5" y="-392.5" font-family="Helvetica,sans-Serif" font-size="10.00">mom_error</text>
</a>
</g>
</g>
<!-- Node24&#45;&gt;Node28 -->
<g id="edge22" class="edge"><title>Node24&#45;&gt;Node28</title>
<path fill="none" stroke="midnightblue" d="M402.989,-317.747C424.566,-333.692 460.371,-358.691 494,-375.5 498.29,-377.645 502.811,-379.696 507.403,-381.636"/>
<polygon fill="midnightblue" stroke="midnightblue" points="506.293,-384.963 516.877,-385.456 508.911,-378.47 506.293,-384.963"/>
</g>
<!-- Node28&#45;&gt;Node10 -->
<g id="edge23" class="edge"><title>Node28&#45;&gt;Node10</title>
<path fill="none" stroke="midnightblue" d="M604.303,-415.59C626.763,-424.324 655.228,-435.394 679.138,-444.692"/>
<polygon fill="midnightblue" stroke="midnightblue" points="678.145,-448.062 688.733,-448.424 680.682,-441.537 678.145,-448.062"/>
</g>
<!-- Node30 -->
<g id="node23" class="node"><title>Node30</title>
<g id="a_node23"><a xlink:href="../../d8/da4/namespacemom__neutral__diffusion.html#a6a30ebbb70dd95dade154d1253393952" target="_top" xlink:title="Converts non&#45;dimensional position within a layer to absolute position (for debugging) ...">
<polygon fill="white" stroke="black" points="507,-91.5 507,-121.5 622,-121.5 622,-91.5 507,-91.5"/>
<text text-anchor="start" x="515" y="-109.5" font-family="Helvetica,sans-Serif" font-size="10.00">mom_neutral_diffusion</text>
<text text-anchor="middle" x="564.5" y="-98.5" font-family="Helvetica,sans-Serif" font-size="10.00">::absolute_position</text>
</a>
</g>
</g>
<!-- Node29&#45;&gt;Node30 -->
<g id="edge25" class="edge"><title>Node29&#45;&gt;Node30</title>
<path fill="none" stroke="midnightblue" d="M439.616,-107.873C457.673,-107.673 477.827,-107.449 496.546,-107.242"/>
<polygon fill="midnightblue" stroke="midnightblue" points="496.814,-110.739 506.775,-107.129 496.737,-103.74 496.814,-110.739"/>
</g>
<!-- Node31 -->
<g id="node24" class="node"><title>Node31</title>
<g id="a_node24"><a xlink:href="../../d8/da4/namespacemom__neutral__diffusion.html#a666836e70bdae7ef4ec271246cf91993" target="_top" xlink:title="Returns the non&#45;dimensional position between Pneg and Ppos where the interpolated density difference ...">
<polygon fill="white" stroke="black" points="504,-31 504,-72 625,-72 625,-31 504,-31"/>
<text text-anchor="start" x="512" y="-60" font-family="Helvetica,sans-Serif" font-size="10.00">mom_neutral_diffusion</text>
<text text-anchor="start" x="512" y="-49" font-family="Helvetica,sans-Serif" font-size="10.00">::interpolate_for_nondim</text>
<text text-anchor="middle" x="564.5" y="-38" font-family="Helvetica,sans-Serif" font-size="10.00">_position</text>
</a>
</g>
</g>
<!-- Node29&#45;&gt;Node31 -->
<g id="edge26" class="edge"><title>Node29&#45;&gt;Node31</title>
<path fill="none" stroke="midnightblue" d="M439.616,-90.6212C456.888,-85.1668 476.079,-79.1068 494.096,-73.417"/>
<polygon fill="midnightblue" stroke="midnightblue" points="495.484,-76.6492 503.966,-70.3003 493.376,-69.9741 495.484,-76.6492"/>
</g>
<!-- Node32&#45;&gt;Node13 -->
<g id="edge29" class="edge"><title>Node32&#45;&gt;Node13</title>
<path fill="none" stroke="midnightblue" d="M270.31,-62.6807C278.621,-62.4419 287.245,-62.1941 295.844,-61.947"/>
<polygon fill="midnightblue" stroke="midnightblue" points="296.012,-65.4437 305.907,-61.6578 295.811,-58.4466 296.012,-65.4437"/>
</g>
</g>
</svg>
