<?xml version="1.0" encoding="UTF-8" standalone="no"?>
<!DOCTYPE svg PUBLIC "-//W3C//DTD SVG 1.1//EN"
 "http://www.w3.org/Graphics/SVG/1.1/DTD/svg11.dtd">
<!-- Generated by graphviz version 2.38.0 (20140413.2041)
 -->
<!-- Title: mom_tracer_hor_diff::tracer_hordiff Pages: 1 -->
<!--zoomable 525 -->
<svg id="main" version="1.1" xmlns="http://www.w3.org/2000/svg" xmlns:xlink="http://www.w3.org/1999/xlink" xml:space="preserve" onload="init(evt)">
<style type="text/css"><![CDATA[
.edge:hover path { stroke: red; }
.edge:hover polygon { stroke: red; fill: red; }
]]></style>
<script type="text/javascript"><![CDATA[
var edges = document.getElementsByTagName('g');
if (edges && edges.length) {
  for (var i=0;i<edges.length;i++) {
    if (edges[i].id.substr(0,4)=='edge') {
      edges[i].setAttribute('class','edge');
    }
  }
}
]]></script>
        <defs>
                <circle id="rim" cx="0" cy="0" r="7"/>
                <circle id="rim2" cx="0" cy="0" r="3.5"/>
                <g id="zoomPlus">
                        <use xlink:href="#rim" fill="#404040">
                                <set attributeName="fill" to="#808080" begin="zoomplus.mouseover" end="zoomplus.mouseout"/>
                        </use>
                        <path d="M-4,0h8M0,-4v8" fill="none" stroke="white" stroke-width="1.5" pointer-events="none"/>
                </g>
                <g id="zoomMin">
                        <use xlink:href="#rim" fill="#404040">
                                <set attributeName="fill" to="#808080" begin="zoomminus.mouseover" end="zoomminus.mouseout"/>
                        </use>
                        <path d="M-4,0h8" fill="none" stroke="white" stroke-width="1.5" pointer-events="none"/>
                </g>
                <g id="dirArrow">
                        <path fill="none" stroke="white" stroke-width="1.5" d="M0,-3.0v7 M-2.5,-0.5L0,-3.0L2.5,-0.5"/>
                </g>
               <g id="resetDef">
                       <use xlink:href="#rim2" fill="#404040">
                               <set attributeName="fill" to="#808080" begin="reset.mouseover" end="reset.mouseout"/>
                       </use>
               </g>
        </defs>

<script type="text/javascript">
var viewWidth = 908;
var viewHeight = 525;
var sectionId = 'dynsection-1';
</script>
<script xlink:href="../../svgpan.js"/>
<svg id="graph" class="graph">
<g id="viewport">
<title>mom_tracer_hor_diff::tracer_hordiff</title>
<polygon fill="white" stroke="none" points="-4,4 -4,-520.5 904,-520.5 904,4 -4,4"/>
<!-- Node7 -->
<g id="node1" class="node"><title>Node7</title>
<polygon fill="#bfbfbf" stroke="black" points="0,-328 0,-358 106,-358 106,-328 0,-328"/>
<text text-anchor="start" x="8" y="-346" font-family="Helvetica,sans-Serif" font-size="10.00">mom_tracer_hor_diff</text>
<text text-anchor="middle" x="53" y="-335" font-family="Helvetica,sans-Serif" font-size="10.00">::tracer_hordiff</text>
</g>
<!-- Node8 -->
<g id="node2" class="node"><title>Node8</title>
<g id="a_node2"><a xlink:href="../../d0/de6/namespacemom__error__handler.html#a9cda07a87815f0e5594066162b4345c3" target="_top" xlink:title="Writes a message about entering a subroutine if call tree reporting is active. ">
<polygon fill="white" stroke="black" points="310.5,-486 310.5,-516 416.5,-516 416.5,-486 310.5,-486"/>
<text text-anchor="start" x="318.5" y="-504" font-family="Helvetica,sans-Serif" font-size="10.00">mom_error_handler::</text>
<text text-anchor="middle" x="363.5" y="-493" font-family="Helvetica,sans-Serif" font-size="10.00">calltree_enter</text>
</a>
</g>
</g>
<!-- Node7&#45;&gt;Node8 -->
<g id="edge1" class="edge"><title>Node7&#45;&gt;Node8</title>
<path fill="none" stroke="midnightblue" d="M61.6798,-358.187C74.7167,-382.326 103.552,-429.151 142,-453 189.922,-482.725 253.662,-494.198 300.284,-498.547"/>
<polygon fill="midnightblue" stroke="midnightblue" points="299.996,-502.035 310.257,-499.393 300.589,-495.06 299.996,-502.035"/>
</g>
<!-- Node10 -->
<g id="node4" class="node"><title>Node10</title>
<g id="a_node4"><a xlink:href="../../d0/de6/namespacemom__error__handler.html#a88ea67781e2ed9b73ab7eac8ea5e8578" target="_top" xlink:title="Writes a message about leaving a subroutine if call tree reporting is active. ">
<polygon fill="white" stroke="black" points="310.5,-437 310.5,-467 416.5,-467 416.5,-437 310.5,-437"/>
<text text-anchor="start" x="318.5" y="-455" font-family="Helvetica,sans-Serif" font-size="10.00">mom_error_handler::</text>
<text text-anchor="middle" x="363.5" y="-444" font-family="Helvetica,sans-Serif" font-size="10.00">calltree_leave</text>
</a>
</g>
</g>
<!-- Node7&#45;&gt;Node10 -->
<g id="edge3" class="edge"><title>Node7&#45;&gt;Node10</title>
<path fill="none" stroke="midnightblue" d="M65.1645,-358.127C80.2462,-377.288 109.063,-409.656 142,-425 191.727,-448.167 254.269,-453.925 300.032,-454.468"/>
<polygon fill="midnightblue" stroke="midnightblue" points="300.102,-457.968 310.115,-454.506 300.129,-450.968 300.102,-457.968"/>
</g>
<!-- Node11 -->
<g id="node5" class="node"><title>Node11</title>
<g id="a_node5"><a xlink:href="../../d0/de6/namespacemom__error__handler.html#a34a02e601a60f03cb97a72fe25a32853" target="_top" xlink:title="Writes a message about reaching a milestone if call tree reporting is active. ">
<polygon fill="white" stroke="black" points="153,-385 153,-415 259,-415 259,-385 153,-385"/>
<text text-anchor="start" x="161" y="-403" font-family="Helvetica,sans-Serif" font-size="10.00">mom_error_handler::</text>
<text text-anchor="middle" x="206" y="-392" font-family="Helvetica,sans-Serif" font-size="10.00">calltree_waypoint</text>
</a>
</g>
</g>
<!-- Node7&#45;&gt;Node11 -->
<g id="edge5" class="edge"><title>Node7&#45;&gt;Node11</title>
<path fill="none" stroke="midnightblue" d="M94.0688,-358.125C112.915,-365.24 135.571,-373.792 155.481,-381.308"/>
<polygon fill="midnightblue" stroke="midnightblue" points="154.414,-384.646 165.006,-384.903 156.887,-378.097 154.414,-384.646"/>
</g>
<!-- Node12 -->
<g id="node6" class="node"><title>Node12</title>
<g id="a_node6"><a xlink:href="../../d1/d35/namespacemom__tracer__registry.html#ad350bb834bb3dcfd6e603bb136bd8098" target="_top" xlink:title="This subroutine writes out chksums for thermodynamic state variables. ">
<polygon fill="white" stroke="black" points="149,-218 149,-248 263,-248 263,-218 149,-218"/>
<text text-anchor="start" x="157" y="-236" font-family="Helvetica,sans-Serif" font-size="10.00">mom_tracer_registry</text>
<text text-anchor="middle" x="206" y="-225" font-family="Helvetica,sans-Serif" font-size="10.00">::mom_tracer_chksum</text>
</a>
</g>
</g>
<!-- Node7&#45;&gt;Node12 -->
<g id="edge7" class="edge"><title>Node7&#45;&gt;Node12</title>
<path fill="none" stroke="midnightblue" d="M66.2898,-327.948C82.128,-309.367 111.299,-277.805 142,-258 144.957,-256.092 148.083,-254.289 151.298,-252.592"/>
<polygon fill="midnightblue" stroke="midnightblue" points="153.074,-255.621 160.529,-248.092 150.006,-249.328 153.074,-255.621"/>
</g>
<!-- Node13 -->
<g id="node7" class="node"><title>Node13</title>
<g id="a_node7"><a xlink:href="../../d8/da4/namespacemom__neutral__diffusion.html#a0aa7d320b2d623791e7de7d879930a64" target="_top" xlink:title="Update tracer concentration due to neutral diffusion; layer thickness unchanged by this update...">
<polygon fill="white" stroke="black" points="148.5,-328 148.5,-358 263.5,-358 263.5,-328 148.5,-328"/>
<text text-anchor="start" x="156.5" y="-346" font-family="Helvetica,sans-Serif" font-size="10.00">mom_neutral_diffusion</text>
<text text-anchor="middle" x="206" y="-335" font-family="Helvetica,sans-Serif" font-size="10.00">::neutral_diffusion</text>
</a>
</g>
</g>
<!-- Node7&#45;&gt;Node13 -->
<g id="edge8" class="edge"><title>Node7&#45;&gt;Node13</title>
<path fill="none" stroke="midnightblue" d="M106.389,-343C116.652,-343 127.546,-343 138.206,-343"/>
<polygon fill="midnightblue" stroke="midnightblue" points="138.326,-346.5 148.326,-343 138.326,-339.5 138.326,-346.5"/>
</g>
<!-- Node21 -->
<g id="node15" class="node"><title>Node21</title>
<g id="a_node15"><a xlink:href="../../d8/da4/namespacemom__neutral__diffusion.html#a53d5e3f8d7610b60644aaa9f44fd854e" target="_top" xlink:title="Calculate remapping factors for u/v columns used to map adjoining columns to a shared coordinate spac...">
<polygon fill="white" stroke="black" points="147.5,-267.5 147.5,-308.5 264.5,-308.5 264.5,-267.5 147.5,-267.5"/>
<text text-anchor="start" x="155.5" y="-296.5" font-family="Helvetica,sans-Serif" font-size="10.00">mom_neutral_diffusion</text>
<text text-anchor="start" x="155.5" y="-285.5" font-family="Helvetica,sans-Serif" font-size="10.00">::neutral_diffusion_calc</text>
<text text-anchor="middle" x="206" y="-274.5" font-family="Helvetica,sans-Serif" font-size="10.00">_coeffs</text>
</a>
</g>
</g>
<!-- Node7&#45;&gt;Node21 -->
<g id="edge16" class="edge"><title>Node7&#45;&gt;Node21</title>
<path fill="none" stroke="midnightblue" d="M95.2614,-327.971C108.728,-323.066 124.038,-317.489 138.86,-312.091"/>
<polygon fill="midnightblue" stroke="midnightblue" points="140.306,-315.289 148.505,-308.578 137.911,-308.712 140.306,-315.289"/>
</g>
<!-- Node30 -->
<g id="node24" class="node"><title>Node30</title>
<g id="a_node24"><a xlink:href="../../da/db2/namespacemom__tracer__hor__diff.html#a3c96ca84172a944f6d8b15e4204228bb" target="_top" xlink:title="This subroutine does epipycnal diffusion of all tracers between the mixed and buffer layers and the i...">
<polygon fill="white" stroke="black" points="142,-169 142,-199 270,-199 270,-169 142,-169"/>
<text text-anchor="start" x="150" y="-187" font-family="Helvetica,sans-Serif" font-size="10.00">mom_tracer_hor_diff</text>
<text text-anchor="middle" x="206" y="-176" font-family="Helvetica,sans-Serif" font-size="10.00">::tracer_epipycnal_ml_diff</text>
</a>
</g>
</g>
<!-- Node7&#45;&gt;Node30 -->
<g id="edge27" class="edge"><title>Node7&#45;&gt;Node30</title>
<path fill="none" stroke="midnightblue" d="M60.1685,-327.965C72.0875,-300.644 100.79,-242.58 142,-209 144.035,-207.341 146.195,-205.782 148.44,-204.317"/>
<polygon fill="midnightblue" stroke="midnightblue" points="150.536,-207.15 157.455,-199.126 147.042,-201.084 150.536,-207.15"/>
</g>
<!-- Node9 -->
<g id="node3" class="node"><title>Node9</title>
<g id="a_node3"><a xlink:href="../../d0/de6/namespacemom__error__handler.html#ad5f00a53059c72fe2332d1436c80ca71" target="_top" xlink:title="mom_error_handler::\lis_root_pe">
<polygon fill="white" stroke="black" points="638.5,-418 638.5,-448 744.5,-448 744.5,-418 638.5,-418"/>
<text text-anchor="start" x="646.5" y="-436" font-family="Helvetica,sans-Serif" font-size="10.00">mom_error_handler::</text>
<text text-anchor="middle" x="691.5" y="-425" font-family="Helvetica,sans-Serif" font-size="10.00">is_root_pe</text>
</a>
</g>
</g>
<!-- Node8&#45;&gt;Node9 -->
<g id="edge2" class="edge"><title>Node8&#45;&gt;Node9</title>
<path fill="none" stroke="midnightblue" d="M416.598,-491.782C464.027,-483.195 535.914,-469.691 598,-456 607.817,-453.835 618.184,-451.403 628.287,-448.951"/>
<polygon fill="midnightblue" stroke="midnightblue" points="629.393,-452.284 638.271,-446.503 627.725,-445.485 629.393,-452.284"/>
</g>
<!-- Node10&#45;&gt;Node9 -->
<g id="edge4" class="edge"><title>Node10&#45;&gt;Node9</title>
<path fill="none" stroke="midnightblue" d="M416.516,-448.968C474.038,-445.616 566.677,-440.217 628.071,-436.638"/>
<polygon fill="midnightblue" stroke="midnightblue" points="628.62,-440.113 638.4,-436.037 628.213,-433.124 628.62,-440.113"/>
</g>
<!-- Node11&#45;&gt;Node9 -->
<g id="edge6" class="edge"><title>Node11&#45;&gt;Node9</title>
<path fill="none" stroke="midnightblue" d="M259.202,-403.563C348.848,-409.681 531.684,-422.16 627.977,-428.733"/>
<polygon fill="midnightblue" stroke="midnightblue" points="627.935,-432.238 638.15,-429.427 628.411,-425.254 627.935,-432.238"/>
</g>
<!-- Node14 -->
<g id="node8" class="node"><title>Node14</title>
<g id="a_node8"><a xlink:href="../../d8/da4/namespacemom__neutral__diffusion.html#a626e0189b03bbbf36c33cfa52e4f098d" target="_top" xlink:title="Returns a single column of neutral diffusion fluxes of a tracer. ">
<polygon fill="white" stroke="black" points="306,-159 306,-189 421,-189 421,-159 306,-159"/>
<text text-anchor="start" x="314" y="-177" font-family="Helvetica,sans-Serif" font-size="10.00">mom_neutral_diffusion</text>
<text text-anchor="middle" x="363.5" y="-166" font-family="Helvetica,sans-Serif" font-size="10.00">::neutral_surface_flux</text>
</a>
</g>
</g>
<!-- Node13&#45;&gt;Node14 -->
<g id="edge9" class="edge"><title>Node13&#45;&gt;Node14</title>
<path fill="none" stroke="midnightblue" d="M254.582,-327.919C260.079,-325.101 265.367,-321.814 270,-318 272.713,-315.766 321.97,-238.132 347.47,-197.804"/>
<polygon fill="midnightblue" stroke="midnightblue" points="350.579,-199.436 352.963,-189.112 344.662,-195.696 350.579,-199.436"/>
</g>
<!-- Node15 -->
<g id="node9" class="node"><title>Node15</title>
<g id="a_node9"><a xlink:href="../../d8/da4/namespacemom__neutral__diffusion.html#afbc54a4e2f34af5d72c18dc96e354af7" target="_top" xlink:title="Returns interface scalar, Si, for a column of layer values, S. ">
<polygon fill="white" stroke="black" points="470,-110 470,-140 585,-140 585,-110 470,-110"/>
<text text-anchor="start" x="478" y="-128" font-family="Helvetica,sans-Serif" font-size="10.00">mom_neutral_diffusion</text>
<text text-anchor="middle" x="527.5" y="-117" font-family="Helvetica,sans-Serif" font-size="10.00">::interface_scalar</text>
</a>
</g>
</g>
<!-- Node14&#45;&gt;Node15 -->
<g id="edge10" class="edge"><title>Node14&#45;&gt;Node15</title>
<path fill="none" stroke="midnightblue" d="M414.427,-158.899C430.981,-153.892 449.575,-148.268 466.788,-143.061"/>
<polygon fill="midnightblue" stroke="midnightblue" points="468.179,-146.297 476.738,-140.052 466.153,-139.597 468.179,-146.297"/>
</g>
<!-- Node20 -->
<g id="node14" class="node"><title>Node20</title>
<g id="a_node14"><a xlink:href="../../d8/da4/namespacemom__neutral__diffusion.html#a6931d9a07d09aa5d76d5abd2e47a54df" target="_top" xlink:title="Returns the average of a PPM reconstruction between two fractional positions. ">
<polygon fill="white" stroke="black" points="470,-159 470,-189 585,-189 585,-159 470,-159"/>
<text text-anchor="start" x="478" y="-177" font-family="Helvetica,sans-Serif" font-size="10.00">mom_neutral_diffusion</text>
<text text-anchor="middle" x="527.5" y="-166" font-family="Helvetica,sans-Serif" font-size="10.00">::ppm_ave</text>
</a>
</g>
</g>
<!-- Node14&#45;&gt;Node20 -->
<g id="edge15" class="edge"><title>Node14&#45;&gt;Node20</title>
<path fill="none" stroke="midnightblue" d="M421.16,-174C433.615,-174 446.917,-174 459.728,-174"/>
<polygon fill="midnightblue" stroke="midnightblue" points="459.872,-177.5 469.872,-174 459.872,-170.5 459.872,-177.5"/>
</g>
<!-- Node16 -->
<g id="node10" class="node"><title>Node16</title>
<g id="a_node10"><a xlink:href="../../d8/da4/namespacemom__neutral__diffusion.html#ac211ae488cb6e3c6685df85d24ecd0dd" target="_top" xlink:title="Returns PLM slopes for a column where the slopes are the difference in value across each cell...">
<polygon fill="white" stroke="black" points="634,-135 634,-165 749,-165 749,-135 634,-135"/>
<text text-anchor="start" x="642" y="-153" font-family="Helvetica,sans-Serif" font-size="10.00">mom_neutral_diffusion</text>
<text text-anchor="middle" x="691.5" y="-142" font-family="Helvetica,sans-Serif" font-size="10.00">::plm_diff</text>
</a>
</g>
</g>
<!-- Node15&#45;&gt;Node16 -->
<g id="edge11" class="edge"><title>Node15&#45;&gt;Node16</title>
<path fill="none" stroke="midnightblue" d="M585.16,-133.744C597.615,-135.666 610.917,-137.719 623.728,-139.696"/>
<polygon fill="midnightblue" stroke="midnightblue" points="623.455,-143.195 633.872,-141.261 624.523,-136.277 623.455,-143.195"/>
</g>
<!-- Node19 -->
<g id="node13" class="node"><title>Node19</title>
<g id="a_node13"><a xlink:href="../../d8/da4/namespacemom__neutral__diffusion.html#a87d3d020b56a98f3f0c143701f76c86e" target="_top" xlink:title="Returns the PPM quasi&#45;fourth order edge value at k+1/2 following equation 1.6 in Colella &amp; Woodward...">
<polygon fill="white" stroke="black" points="634,-86 634,-116 749,-116 749,-86 634,-86"/>
<text text-anchor="start" x="642" y="-104" font-family="Helvetica,sans-Serif" font-size="10.00">mom_neutral_diffusion</text>
<text text-anchor="middle" x="691.5" y="-93" font-family="Helvetica,sans-Serif" font-size="10.00">::ppm_edge</text>
</a>
</g>
</g>
<!-- Node15&#45;&gt;Node19 -->
<g id="edge14" class="edge"><title>Node15&#45;&gt;Node19</title>
<path fill="none" stroke="midnightblue" d="M585.16,-116.606C597.615,-114.761 610.917,-112.79 623.728,-110.892"/>
<polygon fill="midnightblue" stroke="midnightblue" points="624.493,-114.317 633.872,-109.389 623.467,-107.393 624.493,-114.317"/>
</g>
<!-- Node17 -->
<g id="node11" class="node"><title>Node17</title>
<g id="a_node11"><a xlink:href="../../d8/da4/namespacemom__neutral__diffusion.html#a1c5ac28d7c54581cdd872fe58ef0b204" target="_top" xlink:title="Returns the cell&#45;centered second&#45;order finite volume (unlimited PLM) slope using three consecutive ce...">
<polygon fill="white" stroke="black" points="785,-160 785,-190 900,-190 900,-160 785,-160"/>
<text text-anchor="start" x="793" y="-178" font-family="Helvetica,sans-Serif" font-size="10.00">mom_neutral_diffusion</text>
<text text-anchor="middle" x="842.5" y="-167" font-family="Helvetica,sans-Serif" font-size="10.00">::fv_diff</text>
</a>
</g>
</g>
<!-- Node16&#45;&gt;Node17 -->
<g id="edge12" class="edge"><title>Node16&#45;&gt;Node17</title>
<path fill="none" stroke="midnightblue" d="M749.256,-159.523C757.649,-160.931 766.362,-162.393 774.933,-163.831"/>
<polygon fill="midnightblue" stroke="midnightblue" points="774.461,-167.301 784.902,-165.504 775.619,-160.397 774.461,-167.301"/>
</g>
<!-- Node18 -->
<g id="node12" class="node"><title>Node18</title>
<g id="a_node12"><a xlink:href="../../d8/da4/namespacemom__neutral__diffusion.html#a6ed3814088af470ad6fc4a3a80926fd7" target="_top" xlink:title="Returns the cell&#45;centered second&#45;order weighted least squares slope using three consecutive cell widt...">
<polygon fill="white" stroke="black" points="785,-111 785,-141 900,-141 900,-111 785,-111"/>
<text text-anchor="start" x="793" y="-129" font-family="Helvetica,sans-Serif" font-size="10.00">mom_neutral_diffusion</text>
<text text-anchor="middle" x="842.5" y="-118" font-family="Helvetica,sans-Serif" font-size="10.00">::fvlsq_slope</text>
</a>
</g>
</g>
<!-- Node16&#45;&gt;Node18 -->
<g id="edge13" class="edge"><title>Node16&#45;&gt;Node18</title>
<path fill="none" stroke="midnightblue" d="M749.256,-140.858C757.649,-139.506 766.362,-138.103 774.933,-136.722"/>
<polygon fill="midnightblue" stroke="midnightblue" points="775.586,-140.162 784.902,-135.116 774.473,-133.251 775.586,-140.162"/>
</g>
<!-- Node21&#45;&gt;Node15 -->
<g id="edge26" class="edge"><title>Node21&#45;&gt;Node15</title>
<path fill="none" stroke="midnightblue" d="M259.614,-267.289C263.418,-264.534 266.951,-261.449 270,-258 303.517,-220.097 266.689,-181.853 306,-150 348.617,-115.468 412.032,-111.614 459.93,-114.994"/>
<polygon fill="midnightblue" stroke="midnightblue" points="459.648,-118.483 469.902,-115.817 460.224,-111.507 459.648,-118.483"/>
</g>
<!-- Node22 -->
<g id="node16" class="node"><title>Node22</title>
<g id="a_node16"><a xlink:href="../../d1/d01/namespacemom__eos.html#a204529f8434a0322314e6ce2a9762436" target="_top" xlink:title="Calls the appropriate subroutine to calculate density derivatives for 1&#45;D array inputs. ">
<polygon fill="white" stroke="black" points="311.5,-273 311.5,-303 415.5,-303 415.5,-273 311.5,-273"/>
<text text-anchor="start" x="319.5" y="-291" font-family="Helvetica,sans-Serif" font-size="10.00">mom_eos::calculate</text>
<text text-anchor="middle" x="363.5" y="-280" font-family="Helvetica,sans-Serif" font-size="10.00">_density_derivs</text>
</a>
</g>
</g>
<!-- Node21&#45;&gt;Node22 -->
<g id="edge17" class="edge"><title>Node21&#45;&gt;Node22</title>
<path fill="none" stroke="midnightblue" d="M264.902,-288C276.724,-288 289.201,-288 301.138,-288"/>
<polygon fill="midnightblue" stroke="midnightblue" points="301.459,-291.5 311.459,-288 301.459,-284.5 301.459,-291.5"/>
</g>
<!-- Node27 -->
<g id="node21" class="node"><title>Node27</title>
<g id="a_node21"><a xlink:href="../../d8/da4/namespacemom__neutral__diffusion.html#aacce4f78e738a3c7530ae8940c144fb9" target="_top" xlink:title="Returns positions within left/right columns of combined interfaces. ">
<polygon fill="white" stroke="black" points="306,-55.5 306,-96.5 421,-96.5 421,-55.5 306,-55.5"/>
<text text-anchor="start" x="314" y="-84.5" font-family="Helvetica,sans-Serif" font-size="10.00">mom_neutral_diffusion</text>
<text text-anchor="start" x="314" y="-73.5" font-family="Helvetica,sans-Serif" font-size="10.00">::find_neutral_surface</text>
<text text-anchor="middle" x="363.5" y="-62.5" font-family="Helvetica,sans-Serif" font-size="10.00">_positions</text>
</a>
</g>
</g>
<!-- Node21&#45;&gt;Node27 -->
<g id="edge23" class="edge"><title>Node21&#45;&gt;Node27</title>
<path fill="none" stroke="midnightblue" d="M260.207,-267.321C263.833,-264.566 267.165,-261.472 270,-258 312.003,-206.572 267.571,-167.151 306,-113 308.481,-109.504 311.406,-106.252 314.597,-103.245"/>
<polygon fill="midnightblue" stroke="midnightblue" points="317.023,-105.779 322.444,-96.6759 312.529,-100.412 317.023,-105.779"/>
</g>
<!-- Node23 -->
<g id="node17" class="node"><title>Node23</title>
<g id="a_node17"><a xlink:href="../../d5/de6/namespacemom__eos__linear.html#a73d8a625582247379092adf1aeeb55e0" target="_top" xlink:title="mom_eos_linear::calculate\l_density_derivs_linear">
<polygon fill="white" stroke="black" points="461,-306 461,-336 594,-336 594,-306 461,-306"/>
<text text-anchor="start" x="469" y="-324" font-family="Helvetica,sans-Serif" font-size="10.00">mom_eos_linear::calculate</text>
<text text-anchor="middle" x="527.5" y="-313" font-family="Helvetica,sans-Serif" font-size="10.00">_density_derivs_linear</text>
</a>
</g>
</g>
<!-- Node22&#45;&gt;Node23 -->
<g id="edge18" class="edge"><title>Node22&#45;&gt;Node23</title>
<path fill="none" stroke="midnightblue" d="M415.758,-298.441C426.91,-300.713 438.937,-303.163 450.81,-305.582"/>
<polygon fill="midnightblue" stroke="midnightblue" points="450.228,-309.035 460.725,-307.601 451.625,-302.176 450.228,-309.035"/>
</g>
<!-- Node24 -->
<g id="node18" class="node"><title>Node24</title>
<g id="a_node18"><a xlink:href="../../dd/d6b/namespacemom__eos__unesco.html#af8666837abadea54c016bf59838f96cc" target="_top" xlink:title="mom_eos_unesco::calculate\l_density_derivs_unesco">
<polygon fill="white" stroke="black" points="457,-257 457,-287 598,-287 598,-257 457,-257"/>
<text text-anchor="start" x="465" y="-275" font-family="Helvetica,sans-Serif" font-size="10.00">mom_eos_unesco::calculate</text>
<text text-anchor="middle" x="527.5" y="-264" font-family="Helvetica,sans-Serif" font-size="10.00">_density_derivs_unesco</text>
</a>
</g>
</g>
<!-- Node22&#45;&gt;Node24 -->
<g id="edge19" class="edge"><title>Node22&#45;&gt;Node24</title>
<path fill="none" stroke="midnightblue" d="M415.758,-282.938C425.663,-281.959 436.257,-280.913 446.82,-279.87"/>
<polygon fill="midnightblue" stroke="midnightblue" points="447.309,-283.339 456.916,-278.872 446.62,-276.372 447.309,-283.339"/>
</g>
<!-- Node25 -->
<g id="node19" class="node"><title>Node25</title>
<g id="a_node19"><a xlink:href="../../de/d76/namespacemom__eos__wright.html#ad7748e85ddacb33ad90ec3a9017e6e72" target="_top" xlink:title="mom_eos_wright::calculate\l_density_derivs_wright">
<polygon fill="white" stroke="black" points="459.5,-208 459.5,-238 595.5,-238 595.5,-208 459.5,-208"/>
<text text-anchor="start" x="467.5" y="-226" font-family="Helvetica,sans-Serif" font-size="10.00">mom_eos_wright::calculate</text>
<text text-anchor="middle" x="527.5" y="-215" font-family="Helvetica,sans-Serif" font-size="10.00">_density_derivs_wright</text>
</a>
</g>
</g>
<!-- Node22&#45;&gt;Node25 -->
<g id="edge20" class="edge"><title>Node22&#45;&gt;Node25</title>
<path fill="none" stroke="midnightblue" d="M398.117,-272.858C415.573,-265.15 437.314,-255.788 457,-248 462.423,-245.854 468.114,-243.682 473.805,-241.56"/>
<polygon fill="midnightblue" stroke="midnightblue" points="475.161,-244.79 483.336,-238.05 472.742,-238.222 475.161,-244.79"/>
</g>
<!-- Node26 -->
<g id="node20" class="node"><title>Node26</title>
<g id="a_node20"><a xlink:href="../../d0/de6/namespacemom__error__handler.html#a460cfb79a06c29fc249952c2a3710d67" target="_top" xlink:title="mom_error_handler::\lmom_error">
<polygon fill="white" stroke="black" points="474.5,-355 474.5,-385 580.5,-385 580.5,-355 474.5,-355"/>
<text text-anchor="start" x="482.5" y="-373" font-family="Helvetica,sans-Serif" font-size="10.00">mom_error_handler::</text>
<text text-anchor="middle" x="527.5" y="-362" font-family="Helvetica,sans-Serif" font-size="10.00">mom_error</text>
</a>
</g>
</g>
<!-- Node22&#45;&gt;Node26 -->
<g id="edge21" class="edge"><title>Node22&#45;&gt;Node26</title>
<path fill="none" stroke="midnightblue" d="M385.388,-303.033C403.639,-315.687 431.181,-333.646 457,-346 460.757,-347.798 464.685,-349.527 468.679,-351.176"/>
<polygon fill="midnightblue" stroke="midnightblue" points="467.484,-354.467 478.072,-354.872 470.048,-347.953 467.484,-354.467"/>
</g>
<!-- Node26&#45;&gt;Node9 -->
<g id="edge22" class="edge"><title>Node26&#45;&gt;Node9</title>
<path fill="none" stroke="midnightblue" d="M567.303,-385.09C589.763,-393.824 618.228,-404.894 642.138,-414.192"/>
<polygon fill="midnightblue" stroke="midnightblue" points="641.145,-417.562 651.733,-417.924 643.682,-411.037 641.145,-417.562"/>
</g>
<!-- Node28 -->
<g id="node22" class="node"><title>Node28</title>
<g id="a_node22"><a xlink:href="../../d8/da4/namespacemom__neutral__diffusion.html#a6a30ebbb70dd95dade154d1253393952" target="_top" xlink:title="Converts non&#45;dimensional position within a layer to absolute position (for debugging) ...">
<polygon fill="white" stroke="black" points="470,-61 470,-91 585,-91 585,-61 470,-61"/>
<text text-anchor="start" x="478" y="-79" font-family="Helvetica,sans-Serif" font-size="10.00">mom_neutral_diffusion</text>
<text text-anchor="middle" x="527.5" y="-68" font-family="Helvetica,sans-Serif" font-size="10.00">::absolute_position</text>
</a>
</g>
</g>
<!-- Node27&#45;&gt;Node28 -->
<g id="edge24" class="edge"><title>Node27&#45;&gt;Node28</title>
<path fill="none" stroke="midnightblue" d="M421.16,-76C433.615,-76 446.917,-76 459.728,-76"/>
<polygon fill="midnightblue" stroke="midnightblue" points="459.872,-79.5001 469.872,-76 459.872,-72.5001 459.872,-79.5001"/>
</g>
<!-- Node29 -->
<g id="node23" class="node"><title>Node29</title>
<g id="a_node23"><a xlink:href="../../d8/da4/namespacemom__neutral__diffusion.html#a666836e70bdae7ef4ec271246cf91993" target="_top" xlink:title="Returns the non&#45;dimensional position between Pneg and Ppos where the interpolated density difference ...">
<polygon fill="white" stroke="black" points="467,-0.5 467,-41.5 588,-41.5 588,-0.5 467,-0.5"/>
<text text-anchor="start" x="475" y="-29.5" font-family="Helvetica,sans-Serif" font-size="10.00">mom_neutral_diffusion</text>
<text text-anchor="start" x="475" y="-18.5" font-family="Helvetica,sans-Serif" font-size="10.00">::interpolate_for_nondim</text>
<text text-anchor="middle" x="527.5" y="-7.5" font-family="Helvetica,sans-Serif" font-size="10.00">_position</text>
</a>
</g>
</g>
<!-- Node27&#45;&gt;Node29 -->
<g id="edge25" class="edge"><title>Node27&#45;&gt;Node29</title>
<path fill="none" stroke="midnightblue" d="M421.16,-56.7637C432.823,-52.8039 445.229,-48.5921 457.279,-44.501"/>
<polygon fill="midnightblue" stroke="midnightblue" points="458.502,-47.7821 466.846,-41.253 456.251,-41.1537 458.502,-47.7821"/>
</g>
</g>
</svg>
        <g id="navigator" transform="translate(0 0)" fill="#404254">
                <rect fill="#f2f5e9" fill-opacity="0.5" stroke="#606060" stroke-width=".5" x="0" y="0" width="60" height="60"/>
                <use id="zoomplus" xlink:href="#zoomPlus" x="17" y="9" onmousedown="handleZoom(evt,'in')"/>
                <use id="zoomminus" xlink:href="#zoomMin" x="42" y="9" onmousedown="handleZoom(evt,'out')"/>
                <use id="reset" xlink:href="#resetDef" x="30" y="36" onmousedown="handleReset()"/>
                <g id="arrowUp" xlink:href="#dirArrow" transform="translate(30 24)" onmousedown="handlePan(0,-1)">
                  <use xlink:href="#rim" fill="#404040">
                        <set attributeName="fill" to="#808080" begin="arrowUp.mouseover" end="arrowUp.mouseout"/>
                  </use>
                  <path fill="none" stroke="white" stroke-width="1.5" d="M0,-3.0v7 M-2.5,-0.5L0,-3.0L2.5,-0.5"/>
                </g>
                <g id="arrowRight" xlink:href="#dirArrow" transform="rotate(90) translate(36 -43)" onmousedown="handlePan(1,0)">
                  <use xlink:href="#rim" fill="#404040">
                        <set attributeName="fill" to="#808080" begin="arrowRight.mouseover" end="arrowRight.mouseout"/>
                  </use>
                  <path fill="none" stroke="white" stroke-width="1.5" d="M0,-3.0v7 M-2.5,-0.5L0,-3.0L2.5,-0.5"/>
                </g>
                <g id="arrowDown" xlink:href="#dirArrow" transform="rotate(180) translate(-30 -48)" onmousedown="handlePan(0,1)">
                  <use xlink:href="#rim" fill="#404040">
                        <set attributeName="fill" to="#808080" begin="arrowDown.mouseover" end="arrowDown.mouseout"/>
                  </use>
                  <path fill="none" stroke="white" stroke-width="1.5" d="M0,-3.0v7 M-2.5,-0.5L0,-3.0L2.5,-0.5"/>
                </g>
                <g id="arrowLeft" xlink:href="#dirArrow" transform="rotate(270) translate(-36 17)" onmousedown="handlePan(-1,0)">
                  <use xlink:href="#rim" fill="#404040">
                        <set attributeName="fill" to="#808080" begin="arrowLeft.mouseover" end="arrowLeft.mouseout"/>
                  </use>
                  <path fill="none" stroke="white" stroke-width="1.5" d="M0,-3.0v7 M-2.5,-0.5L0,-3.0L2.5,-0.5"/>
                </g>
        </g>
        <svg viewBox="0 0 15 15" width="100%" height="30px" preserveAspectRatio="xMaxYMin meet">
         <g id="arrow_out" transform="scale(0.3 0.3)">
          <a xlink:href="namespacemom__tracer__hor__diff_a069e22612062290389c2630c7f90ede2_cgraph_org.svg" target="_base">
           <rect id="button" ry="5" rx="5" y="6" x="6" height="38" width="38"
                fill="#f2f5e9" fill-opacity="0.5" stroke="#606060" stroke-width="1.0"/>
           <path id="arrow"
             d="M 11.500037,31.436501 C 11.940474,20.09759 22.043105,11.32322 32.158766,21.979434 L 37.068811,17.246167 C 37.068811,17.246167 37.088388,32 37.088388,32 L 22.160133,31.978069 C 22.160133,31.978069 26.997745,27.140456 26.997745,27.140456 C 18.528582,18.264221 13.291696,25.230495 11.500037,31.436501 z"
             style="fill:#404040;"/>
          </a>
         </g>
        </svg>
</svg>
