<?xml version="1.0" encoding="UTF-8" standalone="no"?>
<!DOCTYPE svg PUBLIC "-//W3C//DTD SVG 1.1//EN"
 "http://www.w3.org/Graphics/SVG/1.1/DTD/svg11.dtd">
<!-- Generated by graphviz version 2.38.0 (20140413.2041)
 -->
<!-- Title: substats Pages: 1 -->
<svg width="259pt" height="294pt"
 viewBox="0.00 0.00 259.00 294.00" xmlns="http://www.w3.org/2000/svg" xmlns:xlink="http://www.w3.org/1999/xlink">
<g id="graph0" class="graph" transform="scale(1 1) rotate(0) translate(4 290)">
<title>substats</title>
<polygon fill="white" stroke="none" points="-4,4 -4,-290 255,-290 255,4 -4,4"/>
<!-- Node34 -->
<g id="node1" class="node"><title>Node34</title>
<polygon fill="#bfbfbf" stroke="black" points="0,-133.5 0,-152.5 54,-152.5 54,-133.5 0,-133.5"/>
<text text-anchor="middle" x="27" y="-140.5" font-family="Helvetica,sans-Serif" font-size="10.00">substats</text>
</g>
<!-- Node35 -->
<g id="node2" class="node"><title>Node35</title>
<g id="a_node2"><a xlink:href="../../d2/d84/namespacemom__checksums.html#a63f469d838dbb54dda59616f68a33cec" target="_top" xlink:title="chksum_B_2d performs checksums on a 2d array staggered at corner points. ">
<polygon fill="white" stroke="black" points="90,-266.5 90,-285.5 251,-285.5 251,-266.5 90,-266.5"/>
<text text-anchor="middle" x="170.5" y="-273.5" font-family="Helvetica,sans-Serif" font-size="10.00">mom_checksums::chksum_b_2d</text>
</a>
</g>
</g>
<!-- Node34&#45;&gt;Node35 -->
<g id="edge1" class="edge"><title>Node34&#45;&gt;Node35</title>
<path fill="none" stroke="midnightblue" d="M33.1744,-162.431C41.0461,-188.111 58.5438,-232.906 90,-257 95.0696,-260.883 100.813,-263.988 106.838,-266.469"/>
<polygon fill="midnightblue" stroke="midnightblue" points="36.5065,-161.354 30.3776,-152.712 29.7795,-163.29 36.5065,-161.354"/>
</g>
<!-- Node36 -->
<g id="node3" class="node"><title>Node36</title>
<g id="a_node3"><a xlink:href="../../d2/d84/namespacemom__checksums.html#a63c25285f7134dd6b53483c4985d299c" target="_top" xlink:title="chksum_B_3d performs checksums on a 3d array staggered at corner points. ">
<polygon fill="white" stroke="black" points="90,-228.5 90,-247.5 251,-247.5 251,-228.5 90,-228.5"/>
<text text-anchor="middle" x="170.5" y="-235.5" font-family="Helvetica,sans-Serif" font-size="10.00">mom_checksums::chksum_b_3d</text>
</a>
</g>
</g>
<!-- Node34&#45;&gt;Node36 -->
<g id="edge2" class="edge"><title>Node34&#45;&gt;Node36</title>
<path fill="none" stroke="midnightblue" d="M38.1571,-161.39C48.7921,-178.896 67.1229,-204.64 90,-219 96.1297,-222.848 102.972,-225.916 110.001,-228.364"/>
<polygon fill="midnightblue" stroke="midnightblue" points="41.1167,-159.517 33.0604,-152.636 35.0673,-163.039 41.1167,-159.517"/>
</g>
<!-- Node37 -->
<g id="node4" class="node"><title>Node37</title>
<g id="a_node4"><a xlink:href="../../d2/d84/namespacemom__checksums.html#a639927d039b3be2d24c370c48d3f02a3" target="_top" xlink:title="chksum_h_2d performs checksums on a 2d array staggered at tracer points. ">
<polygon fill="white" stroke="black" points="90,-190.5 90,-209.5 251,-209.5 251,-190.5 90,-190.5"/>
<text text-anchor="middle" x="170.5" y="-197.5" font-family="Helvetica,sans-Serif" font-size="10.00">mom_checksums::chksum_h_2d</text>
</a>
</g>
</g>
<!-- Node34&#45;&gt;Node37 -->
<g id="edge3" class="edge"><title>Node34&#45;&gt;Node37</title>
<path fill="none" stroke="midnightblue" d="M49.6171,-158.588C61.1364,-166.277 75.8239,-175.136 90,-181 99.1792,-184.797 109.283,-187.938 119.118,-190.498"/>
<polygon fill="midnightblue" stroke="midnightblue" points="51.3515,-155.533 41.1283,-152.751 47.3856,-161.301 51.3515,-155.533"/>
</g>
<!-- Node38 -->
<g id="node5" class="node"><title>Node38</title>
<g id="a_node5"><a xlink:href="../../d2/d84/namespacemom__checksums.html#adb8f16de2eff70b3f4424ed60d29c797" target="_top" xlink:title="chksum_h_3d performs checksums on a 3d array staggered at tracer points. ">
<polygon fill="white" stroke="black" points="90,-152.5 90,-171.5 251,-171.5 251,-152.5 90,-152.5"/>
<text text-anchor="middle" x="170.5" y="-159.5" font-family="Helvetica,sans-Serif" font-size="10.00">mom_checksums::chksum_h_3d</text>
</a>
</g>
</g>
<!-- Node34&#45;&gt;Node38 -->
<g id="edge4" class="edge"><title>Node34&#45;&gt;Node38</title>
<path fill="none" stroke="midnightblue" d="M64.3009,-147.874C74.8153,-149.286 86.6726,-150.878 98.5379,-152.472"/>
<polygon fill="midnightblue" stroke="midnightblue" points="64.6603,-144.391 54.2834,-146.529 63.7287,-151.329 64.6603,-144.391"/>
</g>
<!-- Node39 -->
<g id="node6" class="node"><title>Node39</title>
<g id="a_node6"><a xlink:href="../../d2/d84/namespacemom__checksums.html#acab3f86710e3dd1eb3cb96427b14586f" target="_top" xlink:title="chksum_u_2d performs checksums on a 2d array staggered at C&#45;grid u points. ">
<polygon fill="white" stroke="black" points="90,-114.5 90,-133.5 251,-133.5 251,-114.5 90,-114.5"/>
<text text-anchor="middle" x="170.5" y="-121.5" font-family="Helvetica,sans-Serif" font-size="10.00">mom_checksums::chksum_u_2d</text>
</a>
</g>
</g>
<!-- Node34&#45;&gt;Node39 -->
<g id="edge5" class="edge"><title>Node34&#45;&gt;Node39</title>
<path fill="none" stroke="midnightblue" d="M64.3009,-138.126C74.8153,-136.714 86.6726,-135.122 98.5379,-133.528"/>
<polygon fill="midnightblue" stroke="midnightblue" points="63.7287,-134.671 54.2834,-139.471 64.6603,-141.609 63.7287,-134.671"/>
</g>
<!-- Node40 -->
<g id="node7" class="node"><title>Node40</title>
<g id="a_node7"><a xlink:href="../../d2/d84/namespacemom__checksums.html#a7575c4a70d43a779a3183a6839692e7a" target="_top" xlink:title="chksum_u_3d performs checksums on a 3d array staggered at C&#45;grid u points. ">
<polygon fill="white" stroke="black" points="90,-76.5 90,-95.5 251,-95.5 251,-76.5 90,-76.5"/>
<text text-anchor="middle" x="170.5" y="-83.5" font-family="Helvetica,sans-Serif" font-size="10.00">mom_checksums::chksum_u_3d</text>
</a>
</g>
</g>
<!-- Node34&#45;&gt;Node40 -->
<g id="edge6" class="edge"><title>Node34&#45;&gt;Node40</title>
<path fill="none" stroke="midnightblue" d="M49.6171,-127.412C61.1364,-119.723 75.8239,-110.864 90,-105 99.1792,-101.203 109.283,-98.0618 119.118,-95.5018"/>
<polygon fill="midnightblue" stroke="midnightblue" points="47.3856,-124.699 41.1283,-133.249 51.3515,-130.467 47.3856,-124.699"/>
</g>
<!-- Node41 -->
<g id="node8" class="node"><title>Node41</title>
<g id="a_node8"><a xlink:href="../../d2/d84/namespacemom__checksums.html#adf00fae09b5585f11fbe9d7a5f32a472" target="_top" xlink:title="chksum_v_2d performs checksums on a 2d array staggered at C&#45;grid v points. ">
<polygon fill="white" stroke="black" points="90,-38.5 90,-57.5 251,-57.5 251,-38.5 90,-38.5"/>
<text text-anchor="middle" x="170.5" y="-45.5" font-family="Helvetica,sans-Serif" font-size="10.00">mom_checksums::chksum_v_2d</text>
</a>
</g>
</g>
<!-- Node34&#45;&gt;Node41 -->
<g id="edge7" class="edge"><title>Node34&#45;&gt;Node41</title>
<path fill="none" stroke="midnightblue" d="M38.1571,-124.61C48.7921,-107.104 67.1229,-81.3603 90,-67 96.1297,-63.1523 102.972,-60.0836 110.001,-57.6362"/>
<polygon fill="midnightblue" stroke="midnightblue" points="35.0673,-122.961 33.0604,-133.364 41.1167,-126.483 35.0673,-122.961"/>
</g>
<!-- Node42 -->
<g id="node9" class="node"><title>Node42</title>
<g id="a_node9"><a xlink:href="../../d2/d84/namespacemom__checksums.html#a69a33182089ef67ba50e177c39b94c4c" target="_top" xlink:title="chksum_v_3d performs checksums on a 3d array staggered at C&#45;grid v points. ">
<polygon fill="white" stroke="black" points="90,-0.5 90,-19.5 251,-19.5 251,-0.5 90,-0.5"/>
<text text-anchor="middle" x="170.5" y="-7.5" font-family="Helvetica,sans-Serif" font-size="10.00">mom_checksums::chksum_v_3d</text>
</a>
</g>
</g>
<!-- Node34&#45;&gt;Node42 -->
<g id="edge8" class="edge"><title>Node34&#45;&gt;Node42</title>
<path fill="none" stroke="midnightblue" d="M33.1744,-123.569C41.0461,-97.8887 58.5438,-53.0941 90,-29 95.0696,-25.1169 100.813,-22.0119 106.838,-19.5314"/>
<polygon fill="midnightblue" stroke="midnightblue" points="29.7795,-122.71 30.3776,-133.288 36.5065,-124.646 29.7795,-122.71"/>
</g>
</g>
</svg>
