<?xml version="1.0" encoding="UTF-8" standalone="no"?>
<!DOCTYPE svg PUBLIC "-//W3C//DTD SVG 1.1//EN"
 "http://www.w3.org/Graphics/SVG/1.1/DTD/svg11.dtd">
<!-- Generated by graphviz version 2.38.0 (20140413.2041)
 -->
<!-- Title: user_shelf_init::write_user_log Pages: 1 -->
<svg width="824pt" height="66pt"
 viewBox="0.00 0.00 824.00 66.00" xmlns="http://www.w3.org/2000/svg" xmlns:xlink="http://www.w3.org/1999/xlink">
<g id="graph0" class="graph" transform="scale(1 1) rotate(0) translate(4 62)">
<title>user_shelf_init::write_user_log</title>
<polygon fill="white" stroke="none" points="-4,4 -4,-62 820,-62 820,4 -4,4"/>
<!-- Node27 -->
<g id="node1" class="node"><title>Node27</title>
<polygon fill="#bfbfbf" stroke="black" points="0,-14 0,-44 107,-44 107,-14 0,-14"/>
<text text-anchor="start" x="8" y="-32" font-family="Helvetica,sans-Serif" font-size="10.00">user_shelf_init::write</text>
<text text-anchor="middle" x="53.5" y="-21" font-family="Helvetica,sans-Serif" font-size="10.00">_user_log</text>
</g>
<!-- Node28 -->
<g id="node2" class="node"><title>Node28</title>
<g id="a_node2"><a xlink:href="../../d7/df8/namespaceuser__shelf__init.html#a160ee7639522c12c10408f853ff4d897" target="_top" xlink:title="user_shelf_init::user\l_initialize_shelf_mass">
<polygon fill="white" stroke="black" points="143,-14 143,-44 256,-44 256,-14 143,-14"/>
<text text-anchor="start" x="151" y="-32" font-family="Helvetica,sans-Serif" font-size="10.00">user_shelf_init::user</text>
<text text-anchor="middle" x="199.5" y="-21" font-family="Helvetica,sans-Serif" font-size="10.00">_initialize_shelf_mass</text>
</a>
</g>
</g>
<!-- Node27&#45;&gt;Node28 -->
<g id="edge1" class="edge"><title>Node27&#45;&gt;Node28</title>
<path fill="none" stroke="midnightblue" d="M117.473,-29C125.905,-29 134.505,-29 142.8,-29"/>
<polygon fill="midnightblue" stroke="midnightblue" points="117.303,-25.5001 107.303,-29 117.303,-32.5001 117.303,-25.5001"/>
</g>
<!-- Node29 -->
<g id="node3" class="node"><title>Node29</title>
<g id="a_node3"><a xlink:href="../../d7/df8/namespaceuser__shelf__init.html#a489d62c2d76eef329b9e5b17c63ccc66" target="_top" xlink:title="user_shelf_init::user\l_init_ice_thickness">
<polygon fill="white" stroke="black" points="292,-14 292,-44 396,-44 396,-14 292,-14"/>
<text text-anchor="start" x="300" y="-32" font-family="Helvetica,sans-Serif" font-size="10.00">user_shelf_init::user</text>
<text text-anchor="middle" x="344" y="-21" font-family="Helvetica,sans-Serif" font-size="10.00">_init_ice_thickness</text>
</a>
</g>
</g>
<!-- Node28&#45;&gt;Node29 -->
<g id="edge2" class="edge"><title>Node28&#45;&gt;Node29</title>
<path fill="none" stroke="midnightblue" d="M266.005,-29C274.595,-29 283.297,-29 291.608,-29"/>
<polygon fill="midnightblue" stroke="midnightblue" points="266.002,-25.5001 256.002,-29 266.002,-32.5001 266.002,-25.5001"/>
</g>
<!-- Node30 -->
<g id="node4" class="node"><title>Node30</title>
<g id="a_node4"><a xlink:href="../../d9/d5a/namespacemom__ice__shelf__initialize.html#ab040ec0f7f05b8b398ef9ae1cce704f9" target="_top" xlink:title="mom_ice_shelf_initialize\l::initialize_ice_thickness">
<polygon fill="white" stroke="black" points="432,-14 432,-44 555,-44 555,-14 432,-14"/>
<text text-anchor="start" x="440" y="-32" font-family="Helvetica,sans-Serif" font-size="10.00">mom_ice_shelf_initialize</text>
<text text-anchor="middle" x="493.5" y="-21" font-family="Helvetica,sans-Serif" font-size="10.00">::initialize_ice_thickness</text>
</a>
</g>
</g>
<!-- Node29&#45;&gt;Node30 -->
<g id="edge3" class="edge"><title>Node29&#45;&gt;Node30</title>
<path fill="none" stroke="midnightblue" d="M406.304,-29C414.724,-29 423.367,-29 431.776,-29"/>
<polygon fill="midnightblue" stroke="midnightblue" points="406.174,-25.5001 396.174,-29 406.174,-32.5001 406.174,-25.5001"/>
</g>
<!-- Node31 -->
<g id="node5" class="node"><title>Node31</title>
<g id="a_node5"><a xlink:href="../../df/da2/namespacemom__ice__shelf.html#ae315e8464ef8a20062e3bccb61886755" target="_top" xlink:title="mom_ice_shelf::initialize\l_ice_shelf">
<polygon fill="white" stroke="black" points="591,-14 591,-44 715,-44 715,-14 591,-14"/>
<text text-anchor="start" x="599" y="-32" font-family="Helvetica,sans-Serif" font-size="10.00">mom_ice_shelf::initialize</text>
<text text-anchor="middle" x="653" y="-21" font-family="Helvetica,sans-Serif" font-size="10.00">_ice_shelf</text>
</a>
</g>
</g>
<!-- Node30&#45;&gt;Node31 -->
<g id="edge4" class="edge"><title>Node30&#45;&gt;Node31</title>
<path fill="none" stroke="midnightblue" d="M565.563,-29C573.97,-29 582.494,-29 590.749,-29"/>
<polygon fill="midnightblue" stroke="midnightblue" points="565.394,-25.5001 555.394,-29 565.394,-32.5001 565.394,-25.5001"/>
</g>
<!-- Node32 -->
<g id="node6" class="node"><title>Node32</title>
<g id="a_node6"><a xlink:href="../../de/dbc/MOM__driver_8F90.html#a08fffeb2d8e8acbf9ed4609be6d258c6" target="_top" xlink:title="mom_main">
<polygon fill="white" stroke="black" points="751,-38.5 751,-57.5 816,-57.5 816,-38.5 751,-38.5"/>
<text text-anchor="middle" x="783.5" y="-45.5" font-family="Helvetica,sans-Serif" font-size="10.00">mom_main</text>
</a>
</g>
</g>
<!-- Node31&#45;&gt;Node32 -->
<g id="edge5" class="edge"><title>Node31&#45;&gt;Node32</title>
<path fill="none" stroke="midnightblue" d="M725.31,-39.544C734.195,-40.8576 742.897,-42.1442 750.726,-43.3018"/>
<polygon fill="midnightblue" stroke="midnightblue" points="725.644,-36.0553 715.239,-38.0548 724.62,-42.98 725.644,-36.0553"/>
</g>
<!-- Node33 -->
<g id="node7" class="node"><title>Node33</title>
<g id="a_node7"><a xlink:href="../../d5/d6d/ice__shelf__driver_8F90.html#aec5bef92f0dad343f545cd8d62e378d8" target="_top" xlink:title="shelf_main">
<polygon fill="white" stroke="black" points="751.5,-0.5 751.5,-19.5 815.5,-19.5 815.5,-0.5 751.5,-0.5"/>
<text text-anchor="middle" x="783.5" y="-7.5" font-family="Helvetica,sans-Serif" font-size="10.00">shelf_main</text>
</a>
</g>
</g>
<!-- Node31&#45;&gt;Node33 -->
<g id="edge6" class="edge"><title>Node31&#45;&gt;Node33</title>
<path fill="none" stroke="midnightblue" d="M725.229,-18.4681C734.399,-17.1122 743.377,-15.7847 751.404,-14.5979"/>
<polygon fill="midnightblue" stroke="midnightblue" points="724.62,-15.02 715.239,-19.9452 725.644,-21.9447 724.62,-15.02"/>
</g>
</g>
</svg>
