<?xml version="1.0" encoding="UTF-8" standalone="no"?>
<!DOCTYPE svg PUBLIC "-//W3C//DTD SVG 1.1//EN"
 "http://www.w3.org/Graphics/SVG/1.1/DTD/svg11.dtd">
<!-- Generated by graphviz version 2.38.0 (20140413.2041)
 -->
<!-- Title: user_shelf_init::user_init_ice_thickness Pages: 1 -->
<svg width="689pt" height="88pt"
 viewBox="0.00 0.00 689.00 88.00" xmlns="http://www.w3.org/2000/svg" xmlns:xlink="http://www.w3.org/1999/xlink">
<g id="graph0" class="graph" transform="scale(1 1) rotate(0) translate(4 84)">
<title>user_shelf_init::user_init_ice_thickness</title>
<polygon fill="white" stroke="none" points="-4,4 -4,-84 685,-84 685,4 -4,4"/>
<!-- Node0 -->
<g id="node1" class="node"><title>Node0</title>
<polygon fill="#bfbfbf" stroke="black" points="0,-24.5 0,-54.5 104,-54.5 104,-24.5 0,-24.5"/>
<text text-anchor="start" x="8" y="-42.5" font-family="Helvetica,sans-Serif" font-size="10.00">user_shelf_init::user</text>
<text text-anchor="middle" x="52" y="-31.5" font-family="Helvetica,sans-Serif" font-size="10.00">_init_ice_thickness</text>
</g>
<!-- Node1 -->
<g id="node2" class="node"><title>Node1</title>
<g id="a_node2"><a xlink:href="../../d7/df8/namespaceuser__shelf__init.html#a160ee7639522c12c10408f853ff4d897" target="_top" xlink:title="user_shelf_init::user\l_initialize_shelf_mass">
<polygon fill="white" stroke="black" points="140,-24.5 140,-54.5 253,-54.5 253,-24.5 140,-24.5"/>
<text text-anchor="start" x="148" y="-42.5" font-family="Helvetica,sans-Serif" font-size="10.00">user_shelf_init::user</text>
<text text-anchor="middle" x="196.5" y="-31.5" font-family="Helvetica,sans-Serif" font-size="10.00">_initialize_shelf_mass</text>
</a>
</g>
</g>
<!-- Node0&#45;&gt;Node1 -->
<g id="edge1" class="edge"><title>Node0&#45;&gt;Node1</title>
<path fill="none" stroke="midnightblue" d="M104.043,-39.5C112.424,-39.5 121.211,-39.5 129.886,-39.5"/>
<polygon fill="midnightblue" stroke="midnightblue" points="129.987,-43.0001 139.987,-39.5 129.987,-36.0001 129.987,-43.0001"/>
</g>
<!-- Node2 -->
<g id="node3" class="node"><title>Node2</title>
<g id="a_node3"><a xlink:href="../../d7/df8/namespaceuser__shelf__init.html#a04dc4958214e8b07da385f8be785d706" target="_top" xlink:title="user_shelf_init::write\l_user_log">
<polygon fill="white" stroke="black" points="289,-49.5 289,-79.5 396,-79.5 396,-49.5 289,-49.5"/>
<text text-anchor="start" x="297" y="-67.5" font-family="Helvetica,sans-Serif" font-size="10.00">user_shelf_init::write</text>
<text text-anchor="middle" x="342.5" y="-56.5" font-family="Helvetica,sans-Serif" font-size="10.00">_user_log</text>
</a>
</g>
</g>
<!-- Node1&#45;&gt;Node2 -->
<g id="edge2" class="edge"><title>Node1&#45;&gt;Node2</title>
<path fill="none" stroke="midnightblue" d="M253.174,-49.1657C261.593,-50.6273 270.326,-52.1435 278.88,-53.6285"/>
<polygon fill="midnightblue" stroke="midnightblue" points="278.358,-57.0901 288.809,-55.3523 279.555,-50.1932 278.358,-57.0901"/>
</g>
<!-- Node5 -->
<g id="node6" class="node"><title>Node5</title>
<g id="a_node6"><a xlink:href="../../d7/df8/namespaceuser__shelf__init.html#abd99438d24c4a57aa3fbab3b067a7c81" target="_top" xlink:title="user_shelf_init::user\l_update_shelf_mass">
<polygon fill="white" stroke="black" points="289,-0.5 289,-30.5 396,-30.5 396,-0.5 289,-0.5"/>
<text text-anchor="start" x="297" y="-18.5" font-family="Helvetica,sans-Serif" font-size="10.00">user_shelf_init::user</text>
<text text-anchor="middle" x="342.5" y="-7.5" font-family="Helvetica,sans-Serif" font-size="10.00">_update_shelf_mass</text>
</a>
</g>
</g>
<!-- Node1&#45;&gt;Node5 -->
<g id="edge5" class="edge"><title>Node1&#45;&gt;Node5</title>
<path fill="none" stroke="midnightblue" d="M253.174,-30.221C261.593,-28.8178 270.326,-27.3623 278.88,-25.9367"/>
<polygon fill="midnightblue" stroke="midnightblue" points="279.52,-29.3783 288.809,-24.2818 278.37,-22.4735 279.52,-29.3783"/>
</g>
<!-- Node3 -->
<g id="node4" class="node"><title>Node3</title>
<g id="a_node4"><a xlink:href="../../d9/def/namespacemom__file__parser.html#a17c0ef1bb1912f02faa0aaa1e0f64210" target="_top" xlink:title="mom_file_parser::log\l_version">
<polygon fill="white" stroke="black" points="432,-49.5 432,-79.5 539,-79.5 539,-49.5 432,-49.5"/>
<text text-anchor="start" x="440" y="-67.5" font-family="Helvetica,sans-Serif" font-size="10.00">mom_file_parser::log</text>
<text text-anchor="middle" x="485.5" y="-56.5" font-family="Helvetica,sans-Serif" font-size="10.00">_version</text>
</a>
</g>
</g>
<!-- Node2&#45;&gt;Node3 -->
<g id="edge3" class="edge"><title>Node2&#45;&gt;Node3</title>
<path fill="none" stroke="midnightblue" d="M396.003,-64.5C404.445,-64.5 413.255,-64.5 421.905,-64.5"/>
<polygon fill="midnightblue" stroke="midnightblue" points="421.953,-68.0001 431.953,-64.5 421.953,-61.0001 421.953,-68.0001"/>
</g>
<!-- Node4 -->
<g id="node5" class="node"><title>Node4</title>
<g id="a_node5"><a xlink:href="../../d0/de6/namespacemom__error__handler.html#ad5f00a53059c72fe2332d1436c80ca71" target="_top" xlink:title="mom_error_handler::\lis_root_pe">
<polygon fill="white" stroke="black" points="575,-49.5 575,-79.5 681,-79.5 681,-49.5 575,-49.5"/>
<text text-anchor="start" x="583" y="-67.5" font-family="Helvetica,sans-Serif" font-size="10.00">mom_error_handler::</text>
<text text-anchor="middle" x="628" y="-56.5" font-family="Helvetica,sans-Serif" font-size="10.00">is_root_pe</text>
</a>
</g>
</g>
<!-- Node3&#45;&gt;Node4 -->
<g id="edge4" class="edge"><title>Node3&#45;&gt;Node4</title>
<path fill="none" stroke="midnightblue" d="M539.217,-64.5C547.52,-64.5 556.173,-64.5 564.67,-64.5"/>
<polygon fill="midnightblue" stroke="midnightblue" points="564.922,-68.0001 574.922,-64.5 564.922,-61.0001 564.922,-68.0001"/>
</g>
</g>
</svg>
