<?xml version="1.0" encoding="UTF-8" standalone="no"?>
<!DOCTYPE svg PUBLIC "-//W3C//DTD SVG 1.1//EN"
 "http://www.w3.org/Graphics/SVG/1.1/DTD/svg11.dtd">
<!-- Generated by graphviz version 2.38.0 (20140413.2041)
 -->
<!-- Title: mom_ice_shelf::ice_shelf_cs Pages: 1 -->
<!--zoomable 765 -->
<svg id="main" version="1.1" xmlns="http://www.w3.org/2000/svg" xmlns:xlink="http://www.w3.org/1999/xlink" xml:space="preserve" onload="init(evt)">
<style type="text/css"><![CDATA[
.edge:hover path { stroke: red; }
.edge:hover polygon { stroke: red; fill: red; }
]]></style>
<script type="text/javascript"><![CDATA[
var edges = document.getElementsByTagName('g');
if (edges && edges.length) {
  for (var i=0;i<edges.length;i++) {
    if (edges[i].id.substr(0,4)=='edge') {
      edges[i].setAttribute('class','edge');
    }
  }
}
]]></script>
        <defs>
                <circle id="rim" cx="0" cy="0" r="7"/>
                <circle id="rim2" cx="0" cy="0" r="3.5"/>
                <g id="zoomPlus">
                        <use xlink:href="#rim" fill="#404040">
                                <set attributeName="fill" to="#808080" begin="zoomplus.mouseover" end="zoomplus.mouseout"/>
                        </use>
                        <path d="M-4,0h8M0,-4v8" fill="none" stroke="white" stroke-width="1.5" pointer-events="none"/>
                </g>
                <g id="zoomMin">
                        <use xlink:href="#rim" fill="#404040">
                                <set attributeName="fill" to="#808080" begin="zoomminus.mouseover" end="zoomminus.mouseout"/>
                        </use>
                        <path d="M-4,0h8" fill="none" stroke="white" stroke-width="1.5" pointer-events="none"/>
                </g>
                <g id="dirArrow">
                        <path fill="none" stroke="white" stroke-width="1.5" d="M0,-3.0v7 M-2.5,-0.5L0,-3.0L2.5,-0.5"/>
                </g>
               <g id="resetDef">
                       <use xlink:href="#rim2" fill="#404040">
                               <set attributeName="fill" to="#808080" begin="reset.mouseover" end="reset.mouseout"/>
                       </use>
               </g>
        </defs>

<script type="text/javascript">
var viewWidth = 376;
var viewHeight = 765;
var sectionId = 'dynsection-0';
</script>
<script xlink:href="../../svgpan.js"/>
<svg id="graph" class="graph">
<g id="viewport">
<title>mom_ice_shelf::ice_shelf_cs</title>
<polygon fill="white" stroke="none" points="-4,4 -4,-761.098 372,-761.098 372,4 -4,4"/>
<!-- Node1 -->
<g id="node1" class="node"><title>Node1</title>
<polygon fill="#bfbfbf" stroke="black" points="267,-427.098 267,-457.098 368,-457.098 368,-427.098 267,-427.098"/>
<text text-anchor="start" x="275" y="-445.098" font-family="Helvetica,sans-Serif" font-size="10.00">mom_ice_shelf::ice</text>
<text text-anchor="middle" x="317.5" y="-434.098" font-family="Helvetica,sans-Serif" font-size="10.00">_shelf_cs</text>
</g>
<!-- Node2 -->
<g id="node2" class="node"><title>Node2</title>
<polygon fill="white" stroke="#bfbfbf" points="36,-618.598 36,-637.598 80,-637.598 80,-618.598 36,-618.598"/>
<text text-anchor="middle" x="58" y="-625.598" font-family="Helvetica,sans-Serif" font-size="10.00">logical</text>
</g>
<!-- Node2&#45;&gt;Node1 -->
<g id="edge1" class="edge"><title>Node2&#45;&gt;Node1</title>
<path fill="none" stroke="#9a32cd" stroke-dasharray="5,2" d="M90.1989,-633.428C130.993,-638.574 202.695,-641.14 249,-606.098 297.981,-569.032 311.613,-490.139 315.245,-457.121"/>
<polygon fill="#9a32cd" stroke="#9a32cd" points="90.4307,-629.926 80.0431,-632.012 89.4638,-636.859 90.4307,-629.926"/>
<text text-anchor="middle" x="191.5" y="-749.098" font-family="Helvetica,sans-Serif" font-size="10.00"> override_shelf_movement</text>
<text text-anchor="middle" x="191.5" y="-738.098" font-family="Helvetica,sans-Serif" font-size="10.00">use_reproducing_sums</text>
<text text-anchor="middle" x="191.5" y="-727.098" font-family="Helvetica,sans-Serif" font-size="10.00">solo_ice_sheet</text>
<text text-anchor="middle" x="191.5" y="-716.098" font-family="Helvetica,sans-Serif" font-size="10.00">moving_shelf_front</text>
<text text-anchor="middle" x="191.5" y="-705.098" font-family="Helvetica,sans-Serif" font-size="10.00">find_salt_root</text>
<text text-anchor="middle" x="191.5" y="-694.098" font-family="Helvetica,sans-Serif" font-size="10.00">calve_to_mask</text>
<text text-anchor="middle" x="191.5" y="-683.098" font-family="Helvetica,sans-Serif" font-size="10.00">gl_couple</text>
<text text-anchor="middle" x="191.5" y="-672.098" font-family="Helvetica,sans-Serif" font-size="10.00">shelf_mass_is_dynamic</text>
<text text-anchor="middle" x="191.5" y="-661.098" font-family="Helvetica,sans-Serif" font-size="10.00">threeeq</text>
<text text-anchor="middle" x="191.5" y="-650.098" font-family="Helvetica,sans-Serif" font-size="10.00">const_gamma</text>
<text text-anchor="middle" x="191.5" y="-639.098" font-family="Helvetica,sans-Serif" font-size="10.00">...</text>
</g>
<!-- Node3 -->
<g id="node3" class="node"><title>Node3</title>
<polygon fill="white" stroke="#bfbfbf" points="28.5,-580.598 28.5,-599.598 87.5,-599.598 87.5,-580.598 28.5,-580.598"/>
<text text-anchor="middle" x="58" y="-587.598" font-family="Helvetica,sans-Serif" font-size="10.00">time_type</text>
</g>
<!-- Node3&#45;&gt;Node1 -->
<g id="edge2" class="edge"><title>Node3&#45;&gt;Node1</title>
<path fill="none" stroke="#9a32cd" stroke-dasharray="5,2" d="M97.6976,-593.043C138.814,-594.204 203.975,-590.209 249,-559.098 285.271,-534.037 304.672,-482.686 312.42,-457.174"/>
<polygon fill="#9a32cd" stroke="#9a32cd" points="97.6676,-589.539 87.5359,-592.637 97.3882,-596.533 97.6676,-589.539"/>
<text text-anchor="middle" x="191.5" y="-595.098" font-family="Helvetica,sans-Serif" font-size="10.00"> time</text>
</g>
<!-- Node4 -->
<g id="node4" class="node"><title>Node4</title>
<polygon fill="white" stroke="#bfbfbf" points="0,-542.598 0,-561.598 116,-561.598 116,-542.598 0,-542.598"/>
<text text-anchor="middle" x="58" y="-549.598" font-family="Helvetica,sans-Serif" font-size="10.00">type(eos_type), pointer</text>
</g>
<!-- Node4&#45;&gt;Node1 -->
<g id="edge3" class="edge"><title>Node4&#45;&gt;Node1</title>
<path fill="none" stroke="#9a32cd" stroke-dasharray="5,2" d="M126.309,-546.112C164.192,-540.538 211.309,-529.793 249,-509.098 272.447,-496.225 293.249,-472.814 305.365,-457.358"/>
<polygon fill="#9a32cd" stroke="#9a32cd" points="125.813,-542.647 116.387,-547.486 126.773,-549.581 125.813,-542.647"/>
<text text-anchor="middle" x="191.5" y="-547.098" font-family="Helvetica,sans-Serif" font-size="10.00"> eqn_of_state</text>
</g>
<!-- Node5 -->
<g id="node5" class="node"><title>Node5</title>
<polygon fill="white" stroke="#bfbfbf" points="2,-493.098 2,-523.098 114,-523.098 114,-493.098 2,-493.098"/>
<text text-anchor="start" x="10" y="-511.098" font-family="Helvetica,sans-Serif" font-size="10.00">type(mom_restart_cs)</text>
<text text-anchor="middle" x="58" y="-500.098" font-family="Helvetica,sans-Serif" font-size="10.00">, pointer</text>
</g>
<!-- Node5&#45;&gt;Node1 -->
<g id="edge4" class="edge"><title>Node5&#45;&gt;Node1</title>
<path fill="none" stroke="#9a32cd" stroke-dasharray="5,2" d="M124.193,-497.048C161.164,-490.117 208.078,-480.203 249,-468.098 259.356,-465.035 270.372,-461.096 280.436,-457.215"/>
<polygon fill="#9a32cd" stroke="#9a32cd" points="123.24,-493.665 114.042,-498.923 124.512,-500.548 123.24,-493.665"/>
<text text-anchor="middle" x="191.5" y="-497.098" font-family="Helvetica,sans-Serif" font-size="10.00"> restart_csp</text>
</g>
<!-- Node6 -->
<g id="node6" class="node"><title>Node6</title>
<polygon fill="white" stroke="#bfbfbf" points="7.5,-444.098 7.5,-474.098 108.5,-474.098 108.5,-444.098 7.5,-444.098"/>
<text text-anchor="start" x="15.5" y="-462.098" font-family="Helvetica,sans-Serif" font-size="10.00">type(user_ice_shelf</text>
<text text-anchor="middle" x="58" y="-451.098" font-family="Helvetica,sans-Serif" font-size="10.00">_cs), pointer</text>
</g>
<!-- Node6&#45;&gt;Node1 -->
<g id="edge5" class="edge"><title>Node6&#45;&gt;Node1</title>
<path fill="none" stroke="#9a32cd" stroke-dasharray="5,2" d="M118.823,-455.149C163.661,-452.189 224.315,-448.184 266.565,-445.395"/>
<polygon fill="#9a32cd" stroke="#9a32cd" points="118.396,-451.669 108.649,-455.821 118.857,-458.654 118.396,-451.669"/>
<text text-anchor="middle" x="191.5" y="-456.098" font-family="Helvetica,sans-Serif" font-size="10.00"> user_cs</text>
</g>
<!-- Node7 -->
<g id="node7" class="node"><title>Node7</title>
<polygon fill="white" stroke="#bfbfbf" points="31.5,-405.598 31.5,-424.598 84.5,-424.598 84.5,-405.598 31.5,-405.598"/>
<text text-anchor="middle" x="58" y="-412.598" font-family="Helvetica,sans-Serif" font-size="10.00">diag_ctrl</text>
</g>
<!-- Node7&#45;&gt;Node1 -->
<g id="edge6" class="edge"><title>Node7&#45;&gt;Node1</title>
<path fill="none" stroke="#9a32cd" stroke-dasharray="5,2" d="M94.6915,-417.275C132.941,-419.801 195.396,-424.484 249,-431.098 254.774,-431.811 260.811,-432.654 266.798,-433.551"/>
<polygon fill="#9a32cd" stroke="#9a32cd" points="94.7778,-413.774 84.5725,-416.62 94.3255,-420.759 94.7778,-413.774"/>
<text text-anchor="middle" x="191.5" y="-434.098" font-family="Helvetica,sans-Serif" font-size="10.00"> diag</text>
</g>
<!-- Node8 -->
<g id="node8" class="node"><title>Node8</title>
<polygon fill="white" stroke="#bfbfbf" points="9,-367.598 9,-386.598 107,-386.598 107,-367.598 9,-367.598"/>
<text text-anchor="middle" x="58" y="-374.598" font-family="Helvetica,sans-Serif" font-size="10.00">character(len=128)</text>
</g>
<!-- Node8&#45;&gt;Node1 -->
<g id="edge7" class="edge"><title>Node8&#45;&gt;Node1</title>
<path fill="none" stroke="#9a32cd" stroke-dasharray="5,2" d="M117.765,-380.364C155.956,-383.789 206.383,-390.793 249,-405.098 264.71,-410.372 281.037,-419.218 293.699,-426.938"/>
<polygon fill="#9a32cd" stroke="#9a32cd" points="117.592,-376.837 107.334,-379.49 117.007,-383.813 117.592,-376.837"/>
<text text-anchor="middle" x="191.5" y="-408.098" font-family="Helvetica,sans-Serif" font-size="10.00"> restart_output_dir</text>
</g>
<!-- Node9 -->
<g id="node9" class="node"><title>Node9</title>
<polygon fill="white" stroke="#bfbfbf" points="35,-237.598 35,-256.598 81,-256.598 81,-237.598 35,-237.598"/>
<text text-anchor="middle" x="58" y="-244.598" font-family="Helvetica,sans-Serif" font-size="10.00">integer</text>
</g>
<!-- Node9&#45;&gt;Node1 -->
<g id="edge8" class="edge"><title>Node9&#45;&gt;Node1</title>
<path fill="none" stroke="#9a32cd" stroke-dasharray="5,2" d="M91.2042,-239.131C132.137,-231.017 202.993,-223.95 249,-258.098 304.465,-299.266 314.41,-390.843 316.15,-426.998"/>
<polygon fill="#9a32cd" stroke="#9a32cd" points="90.2868,-235.748 81.2312,-241.247 91.7399,-242.595 90.2868,-235.748"/>
<text text-anchor="middle" x="191.5" y="-371.098" font-family="Helvetica,sans-Serif" font-size="10.00"> id_od_av</text>
<text text-anchor="middle" x="191.5" y="-360.098" font-family="Helvetica,sans-Serif" font-size="10.00">id_bathym</text>
<text text-anchor="middle" x="191.5" y="-349.098" font-family="Helvetica,sans-Serif" font-size="10.00">id_exch_vel_s</text>
<text text-anchor="middle" x="191.5" y="-338.098" font-family="Helvetica,sans-Serif" font-size="10.00">id_melt</text>
<text text-anchor="middle" x="191.5" y="-327.098" font-family="Helvetica,sans-Serif" font-size="10.00">id_exch_vel_t</text>
<text text-anchor="middle" x="191.5" y="-316.098" font-family="Helvetica,sans-Serif" font-size="10.00">cg_max_iterations</text>
<text text-anchor="middle" x="191.5" y="-305.098" font-family="Helvetica,sans-Serif" font-size="10.00">id_tfl_shelf</text>
<text text-anchor="middle" x="191.5" y="-294.098" font-family="Helvetica,sans-Serif" font-size="10.00">id_t_shelf</text>
<text text-anchor="middle" x="191.5" y="-283.098" font-family="Helvetica,sans-Serif" font-size="10.00">id_col_thick</text>
<text text-anchor="middle" x="191.5" y="-272.098" font-family="Helvetica,sans-Serif" font-size="10.00">id_h_shelf</text>
<text text-anchor="middle" x="191.5" y="-261.098" font-family="Helvetica,sans-Serif" font-size="10.00">...</text>
</g>
<!-- Node10 -->
<g id="node10" class="node"><title>Node10</title>
<polygon fill="white" stroke="#bfbfbf" points="42,-60.5984 42,-79.5984 74,-79.5984 74,-60.5984 42,-60.5984"/>
<text text-anchor="middle" x="58" y="-67.5984" font-family="Helvetica,sans-Serif" font-size="10.00">real</text>
</g>
<!-- Node10&#45;&gt;Node1 -->
<g id="edge9" class="edge"><title>Node10&#45;&gt;Node1</title>
<path fill="none" stroke="#9a32cd" stroke-dasharray="5,2" d="M83.7546,-61.9617C123.679,-50.5472 202.503,-35.3257 249,-75.0984 303.646,-121.841 314.276,-363.504 316.136,-426.871"/>
<polygon fill="#9a32cd" stroke="#9a32cd" points="82.6003,-58.6539 74.0341,-64.8886 84.6186,-65.3567 82.6003,-58.6539"/>
<text text-anchor="middle" x="191.5" y="-221.098" font-family="Helvetica,sans-Serif" font-size="10.00"> input_thickness</text>
<text text-anchor="middle" x="191.5" y="-210.098" font-family="Helvetica,sans-Serif" font-size="10.00">gamma_t</text>
<text text-anchor="middle" x="191.5" y="-199.098" font-family="Helvetica,sans-Serif" font-size="10.00">cdrag</text>
<text text-anchor="start" x="155.5" y="-188.098" font-family="Helvetica,sans-Serif" font-size="10.00">taub_beta_eff</text>
<text text-anchor="middle" x="191.5" y="-177.098" font-family="Helvetica,sans-Serif" font-size="10.00">_upper_tri</text>
<text text-anchor="middle" x="191.5" y="-166.098" font-family="Helvetica,sans-Serif" font-size="10.00">v_face_mask</text>
<text text-anchor="middle" x="191.5" y="-155.098" font-family="Helvetica,sans-Serif" font-size="10.00">h_shelf</text>
<text text-anchor="middle" x="191.5" y="-144.098" font-family="Helvetica,sans-Serif" font-size="10.00">salt_flux</text>
<text text-anchor="middle" x="191.5" y="-133.098" font-family="Helvetica,sans-Serif" font-size="10.00">gamma_t_3eq</text>
<text text-anchor="start" x="155.5" y="-122.098" font-family="Helvetica,sans-Serif" font-size="10.00">ice_visc_lower</text>
<text text-anchor="middle" x="191.5" y="-111.098" font-family="Helvetica,sans-Serif" font-size="10.00">_tri</text>
<text text-anchor="start" x="155.5" y="-100.098" font-family="Helvetica,sans-Serif" font-size="10.00">u_flux_boundary</text>
<text text-anchor="middle" x="191.5" y="-89.0984" font-family="Helvetica,sans-Serif" font-size="10.00">_values</text>
<text text-anchor="middle" x="191.5" y="-78.0984" font-family="Helvetica,sans-Serif" font-size="10.00">...</text>
</g>
<!-- Node11 -->
<g id="node11" class="node"><title>Node11</title>
<polygon fill="white" stroke="#bfbfbf" points="14,-15.5984 14,-34.5984 102,-34.5984 102,-15.5984 14,-15.5984"/>
<text text-anchor="middle" x="58" y="-22.5984" font-family="Helvetica,sans-Serif" font-size="10.00">ocean_grid_type</text>
</g>
<!-- Node11&#45;&gt;Node1 -->
<g id="edge10" class="edge"><title>Node11&#45;&gt;Node1</title>
<path fill="none" stroke="#9a32cd" stroke-dasharray="5,2" d="M94.4765,-12.5239C136.54,-0.111307 206.308,12.253 249,-24.0984 311.685,-77.4733 316.351,-357.473 316.538,-426.639"/>
<polygon fill="#9a32cd" stroke="#9a32cd" points="93.1807,-9.26132 84.6675,-15.568 95.2555,-15.9468 93.1807,-9.26132"/>
<text text-anchor="middle" x="191.5" y="-38.0984" font-family="Helvetica,sans-Serif" font-size="10.00"> ocn_grid</text>
<text text-anchor="middle" x="191.5" y="-27.0984" font-family="Helvetica,sans-Serif" font-size="10.00">grid</text>
</g>
</g>
</svg>
        <g id="navigator" transform="translate(0 0)" fill="#404254">
                <rect fill="#f2f5e9" fill-opacity="0.5" stroke="#606060" stroke-width=".5" x="0" y="0" width="60" height="60"/>
                <use id="zoomplus" xlink:href="#zoomPlus" x="17" y="9" onmousedown="handleZoom(evt,'in')"/>
                <use id="zoomminus" xlink:href="#zoomMin" x="42" y="9" onmousedown="handleZoom(evt,'out')"/>
                <use id="reset" xlink:href="#resetDef" x="30" y="36" onmousedown="handleReset()"/>
                <g id="arrowUp" xlink:href="#dirArrow" transform="translate(30 24)" onmousedown="handlePan(0,-1)">
                  <use xlink:href="#rim" fill="#404040">
                        <set attributeName="fill" to="#808080" begin="arrowUp.mouseover" end="arrowUp.mouseout"/>
                  </use>
                  <path fill="none" stroke="white" stroke-width="1.5" d="M0,-3.0v7 M-2.5,-0.5L0,-3.0L2.5,-0.5"/>
                </g>
                <g id="arrowRight" xlink:href="#dirArrow" transform="rotate(90) translate(36 -43)" onmousedown="handlePan(1,0)">
                  <use xlink:href="#rim" fill="#404040">
                        <set attributeName="fill" to="#808080" begin="arrowRight.mouseover" end="arrowRight.mouseout"/>
                  </use>
                  <path fill="none" stroke="white" stroke-width="1.5" d="M0,-3.0v7 M-2.5,-0.5L0,-3.0L2.5,-0.5"/>
                </g>
                <g id="arrowDown" xlink:href="#dirArrow" transform="rotate(180) translate(-30 -48)" onmousedown="handlePan(0,1)">
                  <use xlink:href="#rim" fill="#404040">
                        <set attributeName="fill" to="#808080" begin="arrowDown.mouseover" end="arrowDown.mouseout"/>
                  </use>
                  <path fill="none" stroke="white" stroke-width="1.5" d="M0,-3.0v7 M-2.5,-0.5L0,-3.0L2.5,-0.5"/>
                </g>
                <g id="arrowLeft" xlink:href="#dirArrow" transform="rotate(270) translate(-36 17)" onmousedown="handlePan(-1,0)">
                  <use xlink:href="#rim" fill="#404040">
                        <set attributeName="fill" to="#808080" begin="arrowLeft.mouseover" end="arrowLeft.mouseout"/>
                  </use>
                  <path fill="none" stroke="white" stroke-width="1.5" d="M0,-3.0v7 M-2.5,-0.5L0,-3.0L2.5,-0.5"/>
                </g>
        </g>
        <svg viewBox="0 0 15 15" width="100%" height="30px" preserveAspectRatio="xMaxYMin meet">
         <g id="arrow_out" transform="scale(0.3 0.3)">
          <a xlink:href="structmom__ice__shelf_1_1ice__shelf__cs__coll__graph_org.svg" target="_base">
           <rect id="button" ry="5" rx="5" y="6" x="6" height="38" width="38"
                fill="#f2f5e9" fill-opacity="0.5" stroke="#606060" stroke-width="1.0"/>
           <path id="arrow"
             d="M 11.500037,31.436501 C 11.940474,20.09759 22.043105,11.32322 32.158766,21.979434 L 37.068811,17.246167 C 37.068811,17.246167 37.088388,32 37.088388,32 L 22.160133,31.978069 C 22.160133,31.978069 26.997745,27.140456 26.997745,27.140456 C 18.528582,18.264221 13.291696,25.230495 11.500037,31.436501 z"
             style="fill:#404040;"/>
          </a>
         </g>
        </svg>
</svg>
