<?xml version="1.0" encoding="UTF-8" standalone="no"?>
<!DOCTYPE svg PUBLIC "-//W3C//DTD SVG 1.1//EN"
 "http://www.w3.org/Graphics/SVG/1.1/DTD/svg11.dtd">
<!-- Generated by graphviz version 2.38.0 (20140413.2041)
 -->
<!-- Title: mom_ice_shelf::ice_shelf_cs Pages: 1 -->
<!--zoomable 756 -->
<svg id="main" version="1.1" xmlns="http://www.w3.org/2000/svg" xmlns:xlink="http://www.w3.org/1999/xlink" xml:space="preserve" onload="init(evt)">
<style type="text/css"><![CDATA[
.edge:hover path { stroke: red; }
.edge:hover polygon { stroke: red; fill: red; }
]]></style>
<script type="text/javascript"><![CDATA[
var edges = document.getElementsByTagName('g');
if (edges && edges.length) {
  for (var i=0;i<edges.length;i++) {
    if (edges[i].id.substr(0,4)=='edge') {
      edges[i].setAttribute('class','edge');
    }
  }
}
]]></script>
        <defs>
                <circle id="rim" cx="0" cy="0" r="7"/>
                <circle id="rim2" cx="0" cy="0" r="3.5"/>
                <g id="zoomPlus">
                        <use xlink:href="#rim" fill="#404040">
                                <set attributeName="fill" to="#808080" begin="zoomplus.mouseover" end="zoomplus.mouseout"/>
                        </use>
                        <path d="M-4,0h8M0,-4v8" fill="none" stroke="white" stroke-width="1.5" pointer-events="none"/>
                </g>
                <g id="zoomMin">
                        <use xlink:href="#rim" fill="#404040">
                                <set attributeName="fill" to="#808080" begin="zoomminus.mouseover" end="zoomminus.mouseout"/>
                        </use>
                        <path d="M-4,0h8" fill="none" stroke="white" stroke-width="1.5" pointer-events="none"/>
                </g>
                <g id="dirArrow">
                        <path fill="none" stroke="white" stroke-width="1.5" d="M0,-3.0v7 M-2.5,-0.5L0,-3.0L2.5,-0.5"/>
                </g>
               <g id="resetDef">
                       <use xlink:href="#rim2" fill="#404040">
                               <set attributeName="fill" to="#808080" begin="reset.mouseover" end="reset.mouseout"/>
                       </use>
               </g>
        </defs>

<script type="text/javascript">
var viewWidth = 322;
var viewHeight = 756;
var sectionId = 'dynsection-0';
</script>
<script xlink:href="../../svgpan.js"/>
<svg id="graph" class="graph">
<g id="viewport">
<title>mom_ice_shelf::ice_shelf_cs</title>
<polygon fill="white" stroke="none" points="-4,4 -4,-752.301 318,-752.301 318,4 -4,4"/>
<!-- Node1 -->
<g id="node1" class="node"><title>Node1</title>
<polygon fill="#bfbfbf" stroke="black" points="230,-421.301 230,-451.301 314,-451.301 314,-421.301 230,-421.301"/>
<text text-anchor="start" x="238" y="-439.301" font-family="Helvetica,sans-Serif" font-size="10.00">mom_ice_shelf::ice</text>
<text text-anchor="middle" x="272" y="-428.301" font-family="Helvetica,sans-Serif" font-size="10.00">_shelf_cs</text>
</g>
<!-- Node2 -->
<g id="node2" class="node"><title>Node2</title>
<polygon fill="white" stroke="#bfbfbf" points="30.5,-612.801 30.5,-631.801 68.5,-631.801 68.5,-612.801 30.5,-612.801"/>
<text text-anchor="middle" x="49.5" y="-619.801" font-family="Helvetica,sans-Serif" font-size="10.00">logical</text>
</g>
<!-- Node2&#45;&gt;Node1 -->
<g id="edge1" class="edge"><title>Node2&#45;&gt;Node1</title>
<path fill="none" stroke="#9a32cd" stroke-dasharray="5,2" d="M78.6602,-626.167C113.862,-629.367 174.088,-629.244 212,-598.301 257.914,-560.827 268.099,-484.411 270.357,-451.709"/>
<polygon fill="#9a32cd" stroke="#9a32cd" points="78.9051,-622.673 68.5913,-625.097 78.1656,-629.634 78.9051,-622.673"/>
<text text-anchor="middle" x="164.5" y="-740.301" font-family="Helvetica,sans-Serif" font-size="10.00"> override_shelf_movement</text>
<text text-anchor="middle" x="164.5" y="-729.301" font-family="Helvetica,sans-Serif" font-size="10.00">use_reproducing_sums</text>
<text text-anchor="middle" x="164.5" y="-718.301" font-family="Helvetica,sans-Serif" font-size="10.00">solo_ice_sheet</text>
<text text-anchor="middle" x="164.5" y="-707.301" font-family="Helvetica,sans-Serif" font-size="10.00">moving_shelf_front</text>
<text text-anchor="middle" x="164.5" y="-696.301" font-family="Helvetica,sans-Serif" font-size="10.00">calve_to_mask</text>
<text text-anchor="middle" x="164.5" y="-685.301" font-family="Helvetica,sans-Serif" font-size="10.00">gl_couple</text>
<text text-anchor="middle" x="164.5" y="-674.301" font-family="Helvetica,sans-Serif" font-size="10.00">shelf_mass_is_dynamic</text>
<text text-anchor="middle" x="164.5" y="-663.301" font-family="Helvetica,sans-Serif" font-size="10.00">threeeq</text>
<text text-anchor="middle" x="164.5" y="-652.301" font-family="Helvetica,sans-Serif" font-size="10.00">gl_regularize</text>
<text text-anchor="middle" x="164.5" y="-641.301" font-family="Helvetica,sans-Serif" font-size="10.00">write_output_to_file</text>
<text text-anchor="middle" x="164.5" y="-630.301" font-family="Helvetica,sans-Serif" font-size="10.00">...</text>
</g>
<!-- Node3 -->
<g id="node3" class="node"><title>Node3</title>
<polygon fill="white" stroke="#bfbfbf" points="24,-574.801 24,-593.801 75,-593.801 75,-574.801 24,-574.801"/>
<text text-anchor="middle" x="49.5" y="-581.801" font-family="Helvetica,sans-Serif" font-size="10.00">time_type</text>
</g>
<!-- Node3&#45;&gt;Node1 -->
<g id="edge2" class="edge"><title>Node3&#45;&gt;Node1</title>
<path fill="none" stroke="#9a32cd" stroke-dasharray="5,2" d="M85.3459,-585.55C120.672,-585.048 175.227,-579.208 212,-551.301 245.426,-525.934 261.5,-476.264 267.737,-451.332"/>
<polygon fill="#9a32cd" stroke="#9a32cd" points="85.04,-582.05 75.0411,-585.553 85.0421,-589.05 85.04,-582.05"/>
<text text-anchor="middle" x="164.5" y="-586.301" font-family="Helvetica,sans-Serif" font-size="10.00"> time</text>
</g>
<!-- Node4 -->
<g id="node4" class="node"><title>Node4</title>
<polygon fill="white" stroke="#bfbfbf" points="0,-536.801 0,-555.801 99,-555.801 99,-536.801 0,-536.801"/>
<text text-anchor="middle" x="49.5" y="-543.801" font-family="Helvetica,sans-Serif" font-size="10.00">type(eos_type), pointer</text>
</g>
<!-- Node4&#45;&gt;Node1 -->
<g id="edge3" class="edge"><title>Node4&#45;&gt;Node1</title>
<path fill="none" stroke="#9a32cd" stroke-dasharray="5,2" d="M109.488,-538.595C141.606,-532.413 180.996,-521.466 212,-502.301 233.048,-489.29 250.957,-466.54 261.351,-451.447"/>
<polygon fill="#9a32cd" stroke="#9a32cd" points="108.55,-535.208 99.336,-540.439 109.801,-542.096 108.55,-535.208"/>
<text text-anchor="middle" x="164.5" y="-539.301" font-family="Helvetica,sans-Serif" font-size="10.00"> eqn_of_state</text>
</g>
<!-- Node5 -->
<g id="node5" class="node"><title>Node5</title>
<polygon fill="white" stroke="#bfbfbf" points="2,-487.301 2,-517.301 97,-517.301 97,-487.301 2,-487.301"/>
<text text-anchor="start" x="10" y="-505.301" font-family="Helvetica,sans-Serif" font-size="10.00">type(mom_restart_cs)</text>
<text text-anchor="middle" x="49.5" y="-494.301" font-family="Helvetica,sans-Serif" font-size="10.00">, pointer</text>
</g>
<!-- Node5&#45;&gt;Node1 -->
<g id="edge4" class="edge"><title>Node5&#45;&gt;Node1</title>
<path fill="none" stroke="#9a32cd" stroke-dasharray="5,2" d="M106.925,-490.832C138.256,-483.841 177.713,-474.004 212,-462.301 221.11,-459.191 230.758,-455.237 239.554,-451.356"/>
<polygon fill="#9a32cd" stroke="#9a32cd" points="106.072,-487.436 97.0556,-493 107.574,-494.273 106.072,-487.436"/>
<text text-anchor="middle" x="164.5" y="-490.301" font-family="Helvetica,sans-Serif" font-size="10.00"> restart_csp</text>
</g>
<!-- Node6 -->
<g id="node6" class="node"><title>Node6</title>
<polygon fill="white" stroke="#bfbfbf" points="6.5,-438.301 6.5,-468.301 92.5,-468.301 92.5,-438.301 6.5,-438.301"/>
<text text-anchor="start" x="14.5" y="-456.301" font-family="Helvetica,sans-Serif" font-size="10.00">type(user_ice_shelf</text>
<text text-anchor="middle" x="49.5" y="-445.301" font-family="Helvetica,sans-Serif" font-size="10.00">_cs), pointer</text>
</g>
<!-- Node6&#45;&gt;Node1 -->
<g id="edge5" class="edge"><title>Node6&#45;&gt;Node1</title>
<path fill="none" stroke="#9a32cd" stroke-dasharray="5,2" d="M102.81,-449.268C141.594,-446.278 193.742,-442.257 229.636,-439.49"/>
<polygon fill="#9a32cd" stroke="#9a32cd" points="102.455,-445.785 92.7537,-450.043 102.993,-452.764 102.455,-445.785"/>
<text text-anchor="middle" x="164.5" y="-450.301" font-family="Helvetica,sans-Serif" font-size="10.00"> user_cs</text>
</g>
<!-- Node7 -->
<g id="node7" class="node"><title>Node7</title>
<polygon fill="white" stroke="#bfbfbf" points="26,-399.801 26,-418.801 73,-418.801 73,-399.801 26,-399.801"/>
<text text-anchor="middle" x="49.5" y="-406.801" font-family="Helvetica,sans-Serif" font-size="10.00">diag_ctrl</text>
</g>
<!-- Node7&#45;&gt;Node1 -->
<g id="edge6" class="edge"><title>Node7&#45;&gt;Node1</title>
<path fill="none" stroke="#9a32cd" stroke-dasharray="5,2" d="M83.3717,-411.728C116.075,-414.338 167.642,-418.98 212,-425.301 217.777,-426.124 223.849,-427.113 229.812,-428.157"/>
<polygon fill="#9a32cd" stroke="#9a32cd" points="83.284,-408.211 73.0418,-410.922 82.7389,-415.19 83.284,-408.211"/>
<text text-anchor="middle" x="164.5" y="-428.301" font-family="Helvetica,sans-Serif" font-size="10.00"> diag</text>
</g>
<!-- Node8 -->
<g id="node8" class="node"><title>Node8</title>
<polygon fill="white" stroke="#bfbfbf" points="7,-361.801 7,-380.801 92,-380.801 92,-361.801 7,-361.801"/>
<text text-anchor="middle" x="49.5" y="-368.801" font-family="Helvetica,sans-Serif" font-size="10.00">character(len=128)</text>
</g>
<!-- Node8&#45;&gt;Node1 -->
<g id="edge7" class="edge"><title>Node8&#45;&gt;Node1</title>
<path fill="none" stroke="#9a32cd" stroke-dasharray="5,2" d="M102.305,-375.132C134.673,-378.769 176.753,-385.796 212,-399.301 226,-404.665 240.28,-413.513 251.284,-421.212"/>
<polygon fill="#9a32cd" stroke="#9a32cd" points="102.469,-371.63 92.158,-374.067 101.738,-378.592 102.469,-371.63"/>
<text text-anchor="middle" x="164.5" y="-402.301" font-family="Helvetica,sans-Serif" font-size="10.00"> restart_output_dir</text>
</g>
<!-- Node9 -->
<g id="node9" class="node"><title>Node9</title>
<polygon fill="white" stroke="#bfbfbf" points="29,-231.801 29,-250.801 70,-250.801 70,-231.801 29,-231.801"/>
<text text-anchor="middle" x="49.5" y="-238.801" font-family="Helvetica,sans-Serif" font-size="10.00">integer</text>
</g>
<!-- Node9&#45;&gt;Node1 -->
<g id="edge8" class="edge"><title>Node9&#45;&gt;Node1</title>
<path fill="none" stroke="#9a32cd" stroke-dasharray="5,2" d="M80.2452,-234.211C115.562,-227.657 174.4,-222.862 212,-252.301 265.488,-294.179 271.273,-384.934 271.355,-421.038"/>
<polygon fill="#9a32cd" stroke="#9a32cd" points="79.1971,-230.852 70.0895,-236.265 80.5849,-237.713 79.1971,-230.852"/>
<text text-anchor="middle" x="164.5" y="-365.301" font-family="Helvetica,sans-Serif" font-size="10.00"> id_od_av</text>
<text text-anchor="middle" x="164.5" y="-354.301" font-family="Helvetica,sans-Serif" font-size="10.00">id_bathym</text>
<text text-anchor="middle" x="164.5" y="-343.301" font-family="Helvetica,sans-Serif" font-size="10.00">id_exch_vel_s</text>
<text text-anchor="middle" x="164.5" y="-332.301" font-family="Helvetica,sans-Serif" font-size="10.00">id_melt</text>
<text text-anchor="middle" x="164.5" y="-321.301" font-family="Helvetica,sans-Serif" font-size="10.00">id_exch_vel_t</text>
<text text-anchor="middle" x="164.5" y="-310.301" font-family="Helvetica,sans-Serif" font-size="10.00">cg_max_iterations</text>
<text text-anchor="middle" x="164.5" y="-299.301" font-family="Helvetica,sans-Serif" font-size="10.00">id_tfl_shelf</text>
<text text-anchor="middle" x="164.5" y="-288.301" font-family="Helvetica,sans-Serif" font-size="10.00">id_t_shelf</text>
<text text-anchor="middle" x="164.5" y="-277.301" font-family="Helvetica,sans-Serif" font-size="10.00">id_col_thick</text>
<text text-anchor="middle" x="164.5" y="-266.301" font-family="Helvetica,sans-Serif" font-size="10.00">id_h_shelf</text>
<text text-anchor="middle" x="164.5" y="-255.301" font-family="Helvetica,sans-Serif" font-size="10.00">...</text>
</g>
<!-- Node10 -->
<g id="node10" class="node"><title>Node10</title>
<polygon fill="white" stroke="#bfbfbf" points="34.5,-54.8008 34.5,-73.8008 64.5,-73.8008 64.5,-54.8008 34.5,-54.8008"/>
<text text-anchor="middle" x="49.5" y="-61.8008" font-family="Helvetica,sans-Serif" font-size="10.00">real</text>
</g>
<!-- Node10&#45;&gt;Node1 -->
<g id="edge9" class="edge"><title>Node10&#45;&gt;Node1</title>
<path fill="none" stroke="#9a32cd" stroke-dasharray="5,2" d="M74.5696,-56.9604C109.498,-47.9459 174.181,-37.6649 212,-71.3008 265.241,-118.653 270.511,-358.364 270.972,-421.202"/>
<polygon fill="#9a32cd" stroke="#9a32cd" points="73.4582,-53.6361 64.7475,-59.6673 75.3181,-60.3845 73.4582,-53.6361"/>
<text text-anchor="middle" x="164.5" y="-217.301" font-family="Helvetica,sans-Serif" font-size="10.00"> input_thickness</text>
<text text-anchor="middle" x="164.5" y="-206.301" font-family="Helvetica,sans-Serif" font-size="10.00">gamma_t</text>
<text text-anchor="middle" x="164.5" y="-195.301" font-family="Helvetica,sans-Serif" font-size="10.00">cdrag</text>
<text text-anchor="start" x="131.5" y="-184.301" font-family="Helvetica,sans-Serif" font-size="10.00">taub_beta_eff</text>
<text text-anchor="middle" x="164.5" y="-173.301" font-family="Helvetica,sans-Serif" font-size="10.00">_upper_tri</text>
<text text-anchor="middle" x="164.5" y="-162.301" font-family="Helvetica,sans-Serif" font-size="10.00">v_face_mask</text>
<text text-anchor="middle" x="164.5" y="-151.301" font-family="Helvetica,sans-Serif" font-size="10.00">h_shelf</text>
<text text-anchor="middle" x="164.5" y="-140.301" font-family="Helvetica,sans-Serif" font-size="10.00">salt_flux</text>
<text text-anchor="start" x="131.5" y="-129.301" font-family="Helvetica,sans-Serif" font-size="10.00">ice_visc_lower</text>
<text text-anchor="middle" x="164.5" y="-118.301" font-family="Helvetica,sans-Serif" font-size="10.00">_tri</text>
<text text-anchor="start" x="131.5" y="-107.301" font-family="Helvetica,sans-Serif" font-size="10.00">u_flux_boundary</text>
<text text-anchor="middle" x="164.5" y="-96.3008" font-family="Helvetica,sans-Serif" font-size="10.00">_values</text>
<text text-anchor="middle" x="164.5" y="-85.3008" font-family="Helvetica,sans-Serif" font-size="10.00">a_glen_isothermal</text>
<text text-anchor="middle" x="164.5" y="-74.3008" font-family="Helvetica,sans-Serif" font-size="10.00">...</text>
</g>
<!-- Node11 -->
<g id="node11" class="node"><title>Node11</title>
<polygon fill="white" stroke="#bfbfbf" points="11.5,-9.80085 11.5,-28.8008 87.5,-28.8008 87.5,-9.80085 11.5,-9.80085"/>
<text text-anchor="middle" x="49.5" y="-16.8008" font-family="Helvetica,sans-Serif" font-size="10.00">ocean_grid_type</text>
</g>
<!-- Node11&#45;&gt;Node1 -->
<g id="edge10" class="edge"><title>Node11&#45;&gt;Node1</title>
<path fill="none" stroke="#9a32cd" stroke-dasharray="5,2" d="M89.3261,-7.25294C125.596,1.36571 178.968,6.89993 212,-22.3008 272.922,-76.156 272.402,-352.733 271.321,-421.036"/>
<polygon fill="#9a32cd" stroke="#9a32cd" points="88.4051,-3.87573 79.5807,-9.73933 90.1356,-10.6585 88.4051,-3.87573"/>
<text text-anchor="middle" x="164.5" y="-36.3008" font-family="Helvetica,sans-Serif" font-size="10.00"> ocn_grid</text>
<text text-anchor="middle" x="164.5" y="-25.3008" font-family="Helvetica,sans-Serif" font-size="10.00">grid</text>
</g>
</g>
</svg>
        <g id="navigator" transform="translate(0 0)" fill="#404254">
                <rect fill="#f2f5e9" fill-opacity="0.5" stroke="#606060" stroke-width=".5" x="0" y="0" width="60" height="60"/>
                <use id="zoomplus" xlink:href="#zoomPlus" x="17" y="9" onmousedown="handleZoom(evt,'in')"/>
                <use id="zoomminus" xlink:href="#zoomMin" x="42" y="9" onmousedown="handleZoom(evt,'out')"/>
                <use id="reset" xlink:href="#resetDef" x="30" y="36" onmousedown="handleReset()"/>
                <g id="arrowUp" xlink:href="#dirArrow" transform="translate(30 24)" onmousedown="handlePan(0,-1)">
                  <use xlink:href="#rim" fill="#404040">
                        <set attributeName="fill" to="#808080" begin="arrowUp.mouseover" end="arrowUp.mouseout"/>
                  </use>
                  <path fill="none" stroke="white" stroke-width="1.5" d="M0,-3.0v7 M-2.5,-0.5L0,-3.0L2.5,-0.5"/>
                </g>
                <g id="arrowRight" xlink:href="#dirArrow" transform="rotate(90) translate(36 -43)" onmousedown="handlePan(1,0)">
                  <use xlink:href="#rim" fill="#404040">
                        <set attributeName="fill" to="#808080" begin="arrowRight.mouseover" end="arrowRight.mouseout"/>
                  </use>
                  <path fill="none" stroke="white" stroke-width="1.5" d="M0,-3.0v7 M-2.5,-0.5L0,-3.0L2.5,-0.5"/>
                </g>
                <g id="arrowDown" xlink:href="#dirArrow" transform="rotate(180) translate(-30 -48)" onmousedown="handlePan(0,1)">
                  <use xlink:href="#rim" fill="#404040">
                        <set attributeName="fill" to="#808080" begin="arrowDown.mouseover" end="arrowDown.mouseout"/>
                  </use>
                  <path fill="none" stroke="white" stroke-width="1.5" d="M0,-3.0v7 M-2.5,-0.5L0,-3.0L2.5,-0.5"/>
                </g>
                <g id="arrowLeft" xlink:href="#dirArrow" transform="rotate(270) translate(-36 17)" onmousedown="handlePan(-1,0)">
                  <use xlink:href="#rim" fill="#404040">
                        <set attributeName="fill" to="#808080" begin="arrowLeft.mouseover" end="arrowLeft.mouseout"/>
                  </use>
                  <path fill="none" stroke="white" stroke-width="1.5" d="M0,-3.0v7 M-2.5,-0.5L0,-3.0L2.5,-0.5"/>
                </g>
        </g>
        <svg viewBox="0 0 15 15" width="100%" height="30px" preserveAspectRatio="xMaxYMin meet">
         <g id="arrow_out" transform="scale(0.3 0.3)">
          <a xlink:href="structmom__ice__shelf_1_1ice__shelf__cs__coll__graph_org.svg" target="_base">
           <rect id="button" ry="5" rx="5" y="6" x="6" height="38" width="38"
                fill="#f2f5e9" fill-opacity="0.5" stroke="#606060" stroke-width="1.0"/>
           <path id="arrow"
             d="M 11.500037,31.436501 C 11.940474,20.09759 22.043105,11.32322 32.158766,21.979434 L 37.068811,17.246167 C 37.068811,17.246167 37.088388,32 37.088388,32 L 22.160133,31.978069 C 22.160133,31.978069 26.997745,27.140456 26.997745,27.140456 C 18.528582,18.264221 13.291696,25.230495 11.500037,31.436501 z"
             style="fill:#404040;"/>
          </a>
         </g>
        </svg>
</svg>
