<?xml version="1.0" encoding="UTF-8" standalone="no"?>
<!DOCTYPE svg PUBLIC "-//W3C//DTD SVG 1.1//EN"
 "http://www.w3.org/Graphics/SVG/1.1/DTD/svg11.dtd">
<!-- Generated by graphviz version 2.38.0 (20140413.2041)
 -->
<!-- Title: compare_nsp_row Pages: 1 -->
<svg width="654pt" height="39pt"
 viewBox="0.00 0.00 654.00 39.00" xmlns="http://www.w3.org/2000/svg" xmlns:xlink="http://www.w3.org/1999/xlink">
<g id="graph0" class="graph" transform="scale(1 1) rotate(0) translate(4 35)">
<title>compare_nsp_row</title>
<polygon fill="white" stroke="none" points="-4,4 -4,-35 650,-35 650,4 -4,4"/>
<!-- Node1 -->
<g id="node1" class="node"><title>Node1</title>
<polygon fill="#bfbfbf" stroke="black" points="0,-6 0,-25 83,-25 83,-6 0,-6"/>
<text text-anchor="middle" x="41.5" y="-13" font-family="Helvetica,sans-Serif" font-size="10.00">compare_nsp_row</text>
</g>
<!-- Node2 -->
<g id="node2" class="node"><title>Node2</title>
<g id="a_node2"><a xlink:href="../../d8/da4/MOM__neutral__diffusion_8F90.html#af5d8d8848fb00ea16bf467cbd3cd2f8e" target="_top" xlink:title="Returns true if output of find_neutral_surface_positions() does not match correct values...">
<polygon fill="white" stroke="black" points="119,-6 119,-25 166,-25 166,-6 119,-6"/>
<text text-anchor="middle" x="142.5" y="-13" font-family="Helvetica,sans-Serif" font-size="10.00">test_nsp</text>
</a>
</g>
</g>
<!-- Node1&#45;&gt;Node2 -->
<g id="edge1" class="edge"><title>Node1&#45;&gt;Node2</title>
<path fill="none" stroke="midnightblue" d="M93.1446,-15.5C102.12,-15.5 111.045,-15.5 118.739,-15.5"/>
<polygon fill="midnightblue" stroke="midnightblue" points="93.0528,-12.0001 83.0527,-15.5 93.0527,-19.0001 93.0528,-12.0001"/>
</g>
<!-- Node3 -->
<g id="node3" class="node"><title>Node3</title>
<g id="a_node3"><a xlink:href="../../d8/da4/namespacemom__neutral__diffusion.html#ae21f026dc5c73f2304ab6cbc230b9fb0" target="_top" xlink:title="Returns true if unit tests of neutral_diffusion functions fail. Otherwise returns false...">
<polygon fill="white" stroke="black" points="202,-0.5 202,-30.5 320,-30.5 320,-0.5 202,-0.5"/>
<text text-anchor="start" x="210" y="-18.5" font-family="Helvetica,sans-Serif" font-size="10.00">mom_neutral_diffusion</text>
<text text-anchor="middle" x="261" y="-7.5" font-family="Helvetica,sans-Serif" font-size="10.00">::neutral_diffusion_unit_tests</text>
</a>
</g>
</g>
<!-- Node2&#45;&gt;Node3 -->
<g id="edge2" class="edge"><title>Node2&#45;&gt;Node3</title>
<path fill="none" stroke="midnightblue" d="M176.416,-15.5C184.279,-15.5 192.907,-15.5 201.541,-15.5"/>
<polygon fill="midnightblue" stroke="midnightblue" points="176.239,-12.0001 166.239,-15.5 176.239,-19.0001 176.239,-12.0001"/>
</g>
<!-- Node4 -->
<g id="node4" class="node"><title>Node4</title>
<g id="a_node4"><a xlink:href="../../da/d01/namespacemom.html#ae77cfd2e790f1266b31d93c58659d46c" target="_top" xlink:title="Calls unit tests for other modules. These are NOT normally invoked and so we provide the module use s...">
<polygon fill="white" stroke="black" points="356,-6 356,-25 429,-25 429,-6 356,-6"/>
<text text-anchor="middle" x="392.5" y="-13" font-family="Helvetica,sans-Serif" font-size="10.00">mom::unit_tests</text>
</a>
</g>
</g>
<!-- Node3&#45;&gt;Node4 -->
<g id="edge3" class="edge"><title>Node3&#45;&gt;Node4</title>
<path fill="none" stroke="midnightblue" d="M330.54,-15.5C339.25,-15.5 347.869,-15.5 355.763,-15.5"/>
<polygon fill="midnightblue" stroke="midnightblue" points="330.31,-12.0001 320.31,-15.5 330.31,-19.0001 330.31,-12.0001"/>
</g>
<!-- Node5 -->
<g id="node5" class="node"><title>Node5</title>
<g id="a_node5"><a xlink:href="../../da/d01/namespacemom.html#afebdc0103ad9cbe0ed4a54e522dc4104" target="_top" xlink:title="This subroutine initializes MOM. ">
<polygon fill="white" stroke="black" points="465,-6 465,-25 554,-25 554,-6 465,-6"/>
<text text-anchor="middle" x="509.5" y="-13" font-family="Helvetica,sans-Serif" font-size="10.00">mom::initialize_mom</text>
</a>
</g>
</g>
<!-- Node4&#45;&gt;Node5 -->
<g id="edge4" class="edge"><title>Node4&#45;&gt;Node5</title>
<path fill="none" stroke="midnightblue" d="M439.526,-15.5C447.817,-15.5 456.44,-15.5 464.667,-15.5"/>
<polygon fill="midnightblue" stroke="midnightblue" points="439.256,-12.0001 429.256,-15.5 439.256,-19.0001 439.256,-12.0001"/>
</g>
<!-- Node6 -->
<g id="node6" class="node"><title>Node6</title>
<g id="a_node6"><a xlink:href="../../de/dbc/MOM__driver_8F90.html#a08fffeb2d8e8acbf9ed4609be6d258c6" target="_top" xlink:title="mom_main">
<polygon fill="white" stroke="black" points="590,-6 590,-25 646,-25 646,-6 590,-6"/>
<text text-anchor="middle" x="618" y="-13" font-family="Helvetica,sans-Serif" font-size="10.00">mom_main</text>
</a>
</g>
</g>
<!-- Node5&#45;&gt;Node6 -->
<g id="edge5" class="edge"><title>Node5&#45;&gt;Node6</title>
<path fill="none" stroke="midnightblue" d="M564.407,-15.5C573.206,-15.5 581.981,-15.5 589.771,-15.5"/>
<polygon fill="midnightblue" stroke="midnightblue" points="564.125,-12.0001 554.125,-15.5 564.125,-19.0001 564.125,-12.0001"/>
</g>
</g>
</svg>
