<?xml version="1.0" encoding="UTF-8" standalone="no"?>
<!DOCTYPE svg PUBLIC "-//W3C//DTD SVG 1.1//EN"
 "http://www.w3.org/Graphics/SVG/1.1/DTD/svg11.dtd">
<!-- Generated by graphviz version 2.38.0 (20140413.2041)
 -->
<!-- Title: test_fv_diff Pages: 1 -->
<svg width="618pt" height="39pt"
 viewBox="0.00 0.00 618.00 39.00" xmlns="http://www.w3.org/2000/svg" xmlns:xlink="http://www.w3.org/1999/xlink">
<g id="graph0" class="graph" transform="scale(1 1) rotate(0) translate(4 35)">
<title>test_fv_diff</title>
<polygon fill="white" stroke="none" points="-4,4 -4,-35 614,-35 614,4 -4,4"/>
<!-- Node17 -->
<g id="node1" class="node"><title>Node17</title>
<polygon fill="#bfbfbf" stroke="black" points="0,-6 0,-25 65,-25 65,-6 0,-6"/>
<text text-anchor="middle" x="32.5" y="-13" font-family="Helvetica,sans-Serif" font-size="10.00">test_fv_diff</text>
</g>
<!-- Node18 -->
<g id="node2" class="node"><title>Node18</title>
<g id="a_node2"><a xlink:href="../../d8/da4/namespacemom__neutral__diffusion.html#ae21f026dc5c73f2304ab6cbc230b9fb0" target="_top" xlink:title="Returns true if unit tests of neutral_diffusion functions fail. Otherwise returns false...">
<polygon fill="white" stroke="black" points="101,-0.5 101,-30.5 243,-30.5 243,-0.5 101,-0.5"/>
<text text-anchor="start" x="109" y="-18.5" font-family="Helvetica,sans-Serif" font-size="10.00">mom_neutral_diffusion</text>
<text text-anchor="middle" x="172" y="-7.5" font-family="Helvetica,sans-Serif" font-size="10.00">::neutral_diffusion_unit_tests</text>
</a>
</g>
</g>
<!-- Node17&#45;&gt;Node18 -->
<g id="edge1" class="edge"><title>Node17&#45;&gt;Node18</title>
<path fill="none" stroke="midnightblue" d="M75.0667,-15.5C83.2733,-15.5 92.0958,-15.5 100.947,-15.5"/>
<polygon fill="midnightblue" stroke="midnightblue" points="75.0453,-12.0001 65.0453,-15.5 75.0452,-19.0001 75.0453,-12.0001"/>
</g>
<!-- Node19 -->
<g id="node3" class="node"><title>Node19</title>
<g id="a_node3"><a xlink:href="../../da/d01/namespacemom.html#ae77cfd2e790f1266b31d93c58659d46c" target="_top" xlink:title="Calls unit tests for other modules. These are NOT normally invoked and so we provide the module use s...">
<polygon fill="white" stroke="black" points="279,-6 279,-25 366,-25 366,-6 279,-6"/>
<text text-anchor="middle" x="322.5" y="-13" font-family="Helvetica,sans-Serif" font-size="10.00">mom::unit_tests</text>
</a>
</g>
</g>
<!-- Node18&#45;&gt;Node19 -->
<g id="edge2" class="edge"><title>Node18&#45;&gt;Node19</title>
<path fill="none" stroke="midnightblue" d="M253.587,-15.5C262.299,-15.5 270.893,-15.5 278.885,-15.5"/>
<polygon fill="midnightblue" stroke="midnightblue" points="253.336,-12.0001 243.336,-15.5 253.336,-19.0001 253.336,-12.0001"/>
</g>
<!-- Node20 -->
<g id="node4" class="node"><title>Node20</title>
<g id="a_node4"><a xlink:href="../../da/d01/namespacemom.html#a0be2869fef30e1e0604facfe1b41555d" target="_top" xlink:title="This subroutine initializes MOM. ">
<polygon fill="white" stroke="black" points="402,-6 402,-25 509,-25 509,-6 402,-6"/>
<text text-anchor="middle" x="455.5" y="-13" font-family="Helvetica,sans-Serif" font-size="10.00">mom::initialize_mom</text>
</a>
</g>
</g>
<!-- Node19&#45;&gt;Node20 -->
<g id="edge3" class="edge"><title>Node19&#45;&gt;Node20</title>
<path fill="none" stroke="midnightblue" d="M376.105,-15.5C384.515,-15.5 393.22,-15.5 401.636,-15.5"/>
<polygon fill="midnightblue" stroke="midnightblue" points="376.032,-12.0001 366.032,-15.5 376.032,-19.0001 376.032,-12.0001"/>
</g>
<!-- Node21 -->
<g id="node5" class="node"><title>Node21</title>
<g id="a_node5"><a xlink:href="../../de/dbc/MOM__driver_8F90.html#a08fffeb2d8e8acbf9ed4609be6d258c6" target="_top" xlink:title="mom_main">
<polygon fill="white" stroke="black" points="545,-6 545,-25 610,-25 610,-6 545,-6"/>
<text text-anchor="middle" x="577.5" y="-13" font-family="Helvetica,sans-Serif" font-size="10.00">mom_main</text>
</a>
</g>
</g>
<!-- Node20&#45;&gt;Node21 -->
<g id="edge4" class="edge"><title>Node20&#45;&gt;Node21</title>
<path fill="none" stroke="midnightblue" d="M519.206,-15.5C528.134,-15.5 536.983,-15.5 544.958,-15.5"/>
<polygon fill="midnightblue" stroke="midnightblue" points="519.134,-12.0001 509.134,-15.5 519.134,-19.0001 519.134,-12.0001"/>
</g>
</g>
</svg>
