<?xml version="1.0" encoding="UTF-8" standalone="no"?>
<!DOCTYPE svg PUBLIC "-//W3C//DTD SVG 1.1//EN"
 "http://www.w3.org/Graphics/SVG/1.1/DTD/svg11.dtd">
<!-- Generated by graphviz version 2.38.0 (20140413.2041)
 -->
<!-- Title: mom_neutral_diffusion::fvlsq_slope Pages: 1 -->
<svg width="1142pt" height="174pt"
 viewBox="0.00 0.00 1142.00 174.00" xmlns="http://www.w3.org/2000/svg" xmlns:xlink="http://www.w3.org/1999/xlink">
<g id="graph0" class="graph" transform="scale(1 1) rotate(0) translate(4 170)">
<title>mom_neutral_diffusion::fvlsq_slope</title>
<polygon fill="white" stroke="none" points="-4,4 -4,-170 1138,-170 1138,4 -4,4"/>
<!-- Node41 -->
<g id="node1" class="node"><title>Node41</title>
<polygon fill="#bfbfbf" stroke="black" points="0,-40 0,-70 115,-70 115,-40 0,-40"/>
<text text-anchor="start" x="8" y="-58" font-family="Helvetica,sans-Serif" font-size="10.00">mom_neutral_diffusion</text>
<text text-anchor="middle" x="57.5" y="-47" font-family="Helvetica,sans-Serif" font-size="10.00">::fvlsq_slope</text>
</g>
<!-- Node42 -->
<g id="node2" class="node"><title>Node42</title>
<g id="a_node2"><a xlink:href="../../d8/da4/namespacemom__neutral__diffusion.html#ac211ae488cb6e3c6685df85d24ecd0dd" target="_top" xlink:title="Returns PLM slopes for a column where the slopes are the difference in value across each cell...">
<polygon fill="white" stroke="black" points="151,-67 151,-97 266,-97 266,-67 151,-67"/>
<text text-anchor="start" x="159" y="-85" font-family="Helvetica,sans-Serif" font-size="10.00">mom_neutral_diffusion</text>
<text text-anchor="middle" x="208.5" y="-74" font-family="Helvetica,sans-Serif" font-size="10.00">::plm_diff</text>
</a>
</g>
</g>
<!-- Node41&#45;&gt;Node42 -->
<g id="edge1" class="edge"><title>Node41&#45;&gt;Node42</title>
<path fill="none" stroke="midnightblue" d="M125.228,-67.0917C133.801,-68.6451 142.513,-70.2237 150.902,-71.744"/>
<polygon fill="midnightblue" stroke="midnightblue" points="125.719,-63.6238 115.256,-65.2846 124.471,-70.5116 125.719,-63.6238"/>
</g>
<!-- Node52 -->
<g id="node12" class="node"><title>Node52</title>
<g id="a_node12"><a xlink:href="../../d8/da4/MOM__neutral__diffusion_8F90.html#ae5e9faf2d308b4c5de56d7dcd90bd286" target="_top" xlink:title="Returns true if a test of fvlsq_slope() fails, and conditionally writes results to stream...">
<polygon fill="white" stroke="black" points="315.5,-0.5 315.5,-19.5 403.5,-19.5 403.5,-0.5 315.5,-0.5"/>
<text text-anchor="middle" x="359.5" y="-7.5" font-family="Helvetica,sans-Serif" font-size="10.00">test_fvlsq_slope</text>
</a>
</g>
</g>
<!-- Node41&#45;&gt;Node52 -->
<g id="edge13" class="edge"><title>Node41&#45;&gt;Node52</title>
<path fill="none" stroke="midnightblue" d="M125.437,-44.9594C183.342,-36.2737 265.365,-23.9703 315.079,-16.5131"/>
<polygon fill="midnightblue" stroke="midnightblue" points="124.651,-41.5382 115.28,-46.4829 125.689,-48.4607 124.651,-41.5382"/>
</g>
<!-- Node43 -->
<g id="node3" class="node"><title>Node43</title>
<g id="a_node3"><a xlink:href="../../d8/da4/namespacemom__neutral__diffusion.html#afbc54a4e2f34af5d72c18dc96e354af7" target="_top" xlink:title="Returns interface scalar, Si, for a column of layer values, S. ">
<polygon fill="white" stroke="black" points="302,-72 302,-102 417,-102 417,-72 302,-72"/>
<text text-anchor="start" x="310" y="-90" font-family="Helvetica,sans-Serif" font-size="10.00">mom_neutral_diffusion</text>
<text text-anchor="middle" x="359.5" y="-79" font-family="Helvetica,sans-Serif" font-size="10.00">::interface_scalar</text>
</a>
</g>
</g>
<!-- Node42&#45;&gt;Node43 -->
<g id="edge2" class="edge"><title>Node42&#45;&gt;Node43</title>
<path fill="none" stroke="midnightblue" d="M276.508,-84.2486C284.99,-84.5332 293.604,-84.8223 301.902,-85.1007"/>
<polygon fill="midnightblue" stroke="midnightblue" points="276.367,-80.742 266.256,-83.9045 276.133,-87.7381 276.367,-80.742"/>
</g>
<!-- Node44 -->
<g id="node4" class="node"><title>Node44</title>
<g id="a_node4"><a xlink:href="../../d8/da4/namespacemom__neutral__diffusion.html#a53d5e3f8d7610b60644aaa9f44fd854e" target="_top" xlink:title="Calculate remapping factors for u/v columns used to map adjoining columns to a shared coordinate spac...">
<polygon fill="white" stroke="black" points="453,-124.5 453,-165.5 570,-165.5 570,-124.5 453,-124.5"/>
<text text-anchor="start" x="461" y="-153.5" font-family="Helvetica,sans-Serif" font-size="10.00">mom_neutral_diffusion</text>
<text text-anchor="start" x="461" y="-142.5" font-family="Helvetica,sans-Serif" font-size="10.00">::neutral_diffusion_calc</text>
<text text-anchor="middle" x="511.5" y="-131.5" font-family="Helvetica,sans-Serif" font-size="10.00">_coeffs</text>
</a>
</g>
</g>
<!-- Node43&#45;&gt;Node44 -->
<g id="edge3" class="edge"><title>Node43&#45;&gt;Node44</title>
<path fill="none" stroke="midnightblue" d="M408.885,-105.709C424.331,-111.681 441.508,-118.323 457.278,-124.421"/>
<polygon fill="midnightblue" stroke="midnightblue" points="410.108,-102.429 399.519,-102.087 407.584,-108.958 410.108,-102.429"/>
</g>
<!-- Node46 -->
<g id="node6" class="node"><title>Node46</title>
<g id="a_node6"><a xlink:href="../../d8/da4/namespacemom__neutral__diffusion.html#a626e0189b03bbbf36c33cfa52e4f098d" target="_top" xlink:title="Returns a single column of neutral diffusion fluxes of a tracer. ">
<polygon fill="white" stroke="black" points="454,-75 454,-105 569,-105 569,-75 454,-75"/>
<text text-anchor="start" x="462" y="-93" font-family="Helvetica,sans-Serif" font-size="10.00">mom_neutral_diffusion</text>
<text text-anchor="middle" x="511.5" y="-82" font-family="Helvetica,sans-Serif" font-size="10.00">::neutral_surface_flux</text>
</a>
</g>
</g>
<!-- Node43&#45;&gt;Node46 -->
<g id="edge5" class="edge"><title>Node43&#45;&gt;Node46</title>
<path fill="none" stroke="midnightblue" d="M427.416,-88.3383C436.194,-88.5139 445.122,-88.6924 453.711,-88.8642"/>
<polygon fill="midnightblue" stroke="midnightblue" points="427.277,-84.8349 417.209,-88.1342 427.137,-91.8335 427.277,-84.8349"/>
</g>
<!-- Node48 -->
<g id="node8" class="node"><title>Node48</title>
<g id="a_node8"><a xlink:href="../../d8/da4/namespacemom__neutral__diffusion.html#ae21f026dc5c73f2304ab6cbc230b9fb0" target="_top" xlink:title="Returns true if unit tests of neutral_diffusion functions fail. Otherwise returns false...">
<polygon fill="white" stroke="black" points="606,-31 606,-61 748,-61 748,-31 606,-31"/>
<text text-anchor="start" x="614" y="-49" font-family="Helvetica,sans-Serif" font-size="10.00">mom_neutral_diffusion</text>
<text text-anchor="middle" x="677" y="-38" font-family="Helvetica,sans-Serif" font-size="10.00">::neutral_diffusion_unit_tests</text>
</a>
</g>
</g>
<!-- Node43&#45;&gt;Node48 -->
<g id="edge12" class="edge"><title>Node43&#45;&gt;Node48</title>
<path fill="none" stroke="midnightblue" d="M427.443,-69.8431C436.006,-68.0132 444.683,-66.3358 453,-65 503.832,-56.8359 561.784,-52.0331 605.868,-49.2991"/>
<polygon fill="midnightblue" stroke="midnightblue" points="426.48,-66.4715 417.472,-72.0497 427.992,-73.3062 426.48,-66.4715"/>
</g>
<!-- Node45 -->
<g id="node5" class="node"><title>Node45</title>
<g id="a_node5"><a xlink:href="../../da/db2/namespacemom__tracer__hor__diff.html#a069e22612062290389c2630c7f90ede2" target="_top" xlink:title="Compute along&#45;coordinate diffusion of all tracers using the diffusivity in CSKhTr, or using space&#45;dependent diffusivity. Multiple iterations are used (if necessary) so that there is no limit on the acceptable time increment. ">
<polygon fill="white" stroke="black" points="784,-105 784,-135 890,-135 890,-105 784,-105"/>
<text text-anchor="start" x="792" y="-123" font-family="Helvetica,sans-Serif" font-size="10.00">mom_tracer_hor_diff</text>
<text text-anchor="middle" x="837" y="-112" font-family="Helvetica,sans-Serif" font-size="10.00">::tracer_hordiff</text>
</a>
</g>
</g>
<!-- Node44&#45;&gt;Node45 -->
<g id="edge4" class="edge"><title>Node44&#45;&gt;Node45</title>
<path fill="none" stroke="midnightblue" d="M580.571,-139.74C641.159,-135.057 728.508,-128.307 783.745,-124.038"/>
<polygon fill="midnightblue" stroke="midnightblue" points="580.036,-136.27 570.335,-140.531 580.575,-143.25 580.036,-136.27"/>
</g>
<!-- Node47 -->
<g id="node7" class="node"><title>Node47</title>
<g id="a_node7"><a xlink:href="../../d8/da4/namespacemom__neutral__diffusion.html#a0aa7d320b2d623791e7de7d879930a64" target="_top" xlink:title="Update tracer concentration due to neutral diffusion; layer thickness unchanged by this update...">
<polygon fill="white" stroke="black" points="619.5,-83 619.5,-113 734.5,-113 734.5,-83 619.5,-83"/>
<text text-anchor="start" x="627.5" y="-101" font-family="Helvetica,sans-Serif" font-size="10.00">mom_neutral_diffusion</text>
<text text-anchor="middle" x="677" y="-90" font-family="Helvetica,sans-Serif" font-size="10.00">::neutral_diffusion</text>
</a>
</g>
</g>
<!-- Node46&#45;&gt;Node47 -->
<g id="edge6" class="edge"><title>Node46&#45;&gt;Node47</title>
<path fill="none" stroke="midnightblue" d="M579.273,-93.2672C592.584,-93.9185 606.444,-94.5967 619.375,-95.2293"/>
<polygon fill="midnightblue" stroke="midnightblue" points="579.385,-89.7685 569.226,-92.7756 579.042,-96.7602 579.385,-89.7685"/>
</g>
<!-- Node46&#45;&gt;Node48 -->
<g id="edge8" class="edge"><title>Node46&#45;&gt;Node48</title>
<path fill="none" stroke="midnightblue" d="M578.282,-72.2971C592.166,-68.5608 606.689,-64.6525 620.164,-61.0262"/>
<polygon fill="midnightblue" stroke="midnightblue" points="577.057,-69.0023 568.31,-74.9808 578.876,-75.7618 577.057,-69.0023"/>
</g>
<!-- Node47&#45;&gt;Node45 -->
<g id="edge7" class="edge"><title>Node47&#45;&gt;Node45</title>
<path fill="none" stroke="midnightblue" d="M744.503,-107.26C757.612,-109.085 771.192,-110.976 783.749,-112.725"/>
<polygon fill="midnightblue" stroke="midnightblue" points="744.983,-103.793 734.595,-105.88 744.017,-110.726 744.983,-103.793"/>
</g>
<!-- Node49 -->
<g id="node9" class="node"><title>Node49</title>
<g id="a_node9"><a xlink:href="../../da/d01/namespacemom.html#ae77cfd2e790f1266b31d93c58659d46c" target="_top" xlink:title="Calls unit tests for other modules. These are NOT normally invoked and so we provide the module use s...">
<polygon fill="white" stroke="black" points="793.5,-36.5 793.5,-55.5 880.5,-55.5 880.5,-36.5 793.5,-36.5"/>
<text text-anchor="middle" x="837" y="-43.5" font-family="Helvetica,sans-Serif" font-size="10.00">mom::unit_tests</text>
</a>
</g>
</g>
<!-- Node48&#45;&gt;Node49 -->
<g id="edge9" class="edge"><title>Node48&#45;&gt;Node49</title>
<path fill="none" stroke="midnightblue" d="M758.321,-46C770.362,-46 782.362,-46 793.202,-46"/>
<polygon fill="midnightblue" stroke="midnightblue" points="758.221,-42.5001 748.221,-46 758.221,-49.5001 758.221,-42.5001"/>
</g>
<!-- Node50 -->
<g id="node10" class="node"><title>Node50</title>
<g id="a_node10"><a xlink:href="../../da/d01/namespacemom.html#a0be2869fef30e1e0604facfe1b41555d" target="_top" xlink:title="This subroutine initializes MOM. ">
<polygon fill="white" stroke="black" points="926,-36.5 926,-55.5 1033,-55.5 1033,-36.5 926,-36.5"/>
<text text-anchor="middle" x="979.5" y="-43.5" font-family="Helvetica,sans-Serif" font-size="10.00">mom::initialize_mom</text>
</a>
</g>
</g>
<!-- Node49&#45;&gt;Node50 -->
<g id="edge10" class="edge"><title>Node49&#45;&gt;Node50</title>
<path fill="none" stroke="midnightblue" d="M890.85,-46C902.325,-46 914.46,-46 925.925,-46"/>
<polygon fill="midnightblue" stroke="midnightblue" points="890.536,-42.5001 880.536,-46 890.536,-49.5001 890.536,-42.5001"/>
</g>
<!-- Node51 -->
<g id="node11" class="node"><title>Node51</title>
<g id="a_node11"><a xlink:href="../../de/dbc/MOM__driver_8F90.html#a08fffeb2d8e8acbf9ed4609be6d258c6" target="_top" xlink:title="mom_main">
<polygon fill="white" stroke="black" points="1069,-36.5 1069,-55.5 1134,-55.5 1134,-36.5 1069,-36.5"/>
<text text-anchor="middle" x="1101.5" y="-43.5" font-family="Helvetica,sans-Serif" font-size="10.00">mom_main</text>
</a>
</g>
</g>
<!-- Node50&#45;&gt;Node51 -->
<g id="edge11" class="edge"><title>Node50&#45;&gt;Node51</title>
<path fill="none" stroke="midnightblue" d="M1043.21,-46C1052.13,-46 1060.98,-46 1068.96,-46"/>
<polygon fill="midnightblue" stroke="midnightblue" points="1043.13,-42.5001 1033.13,-46 1043.13,-49.5001 1043.13,-42.5001"/>
</g>
<!-- Node52&#45;&gt;Node48 -->
<g id="edge14" class="edge"><title>Node52&#45;&gt;Node48</title>
<path fill="none" stroke="midnightblue" d="M413.961,-15.2171C456.321,-19.4467 516.989,-25.7171 570,-32 581.613,-33.3764 593.93,-34.9232 605.901,-36.4733"/>
<polygon fill="midnightblue" stroke="midnightblue" points="414.169,-11.7206 403.871,-14.2137 413.476,-18.6862 414.169,-11.7206"/>
</g>
</g>
</svg>
