<?xml version="1.0" encoding="UTF-8" standalone="no"?>
<!DOCTYPE svg PUBLIC "-//W3C//DTD SVG 1.1//EN"
 "http://www.w3.org/Graphics/SVG/1.1/DTD/svg11.dtd">
<!-- Generated by graphviz version 2.38.0 (20140413.2041)
 -->
<!-- Title: mom_neutral_diffusion::neutral_diffusion_diag_init Pages: 1 -->
<!--zoomable 666 -->
<svg id="main" version="1.1" xmlns="http://www.w3.org/2000/svg" xmlns:xlink="http://www.w3.org/1999/xlink" xml:space="preserve" onload="init(evt)">
<style type="text/css"><![CDATA[
.edge:hover path { stroke: red; }
.edge:hover polygon { stroke: red; fill: red; }
]]></style>
<script type="text/javascript"><![CDATA[
var edges = document.getElementsByTagName('g');
if (edges && edges.length) {
  for (var i=0;i<edges.length;i++) {
    if (edges[i].id.substr(0,4)=='edge') {
      edges[i].setAttribute('class','edge');
    }
  }
}
]]></script>
        <defs>
                <circle id="rim" cx="0" cy="0" r="7"/>
                <circle id="rim2" cx="0" cy="0" r="3.5"/>
                <g id="zoomPlus">
                        <use xlink:href="#rim" fill="#404040">
                                <set attributeName="fill" to="#808080" begin="zoomplus.mouseover" end="zoomplus.mouseout"/>
                        </use>
                        <path d="M-4,0h8M0,-4v8" fill="none" stroke="white" stroke-width="1.5" pointer-events="none"/>
                </g>
                <g id="zoomMin">
                        <use xlink:href="#rim" fill="#404040">
                                <set attributeName="fill" to="#808080" begin="zoomminus.mouseover" end="zoomminus.mouseout"/>
                        </use>
                        <path d="M-4,0h8" fill="none" stroke="white" stroke-width="1.5" pointer-events="none"/>
                </g>
                <g id="dirArrow">
                        <path fill="none" stroke="white" stroke-width="1.5" d="M0,-3.0v7 M-2.5,-0.5L0,-3.0L2.5,-0.5"/>
                </g>
               <g id="resetDef">
                       <use xlink:href="#rim2" fill="#404040">
                               <set attributeName="fill" to="#808080" begin="reset.mouseover" end="reset.mouseout"/>
                       </use>
               </g>
        </defs>

<script type="text/javascript">
var viewWidth = 867;
var viewHeight = 666;
var sectionId = 'dynsection-14';
</script>
<script xlink:href="../../svgpan.js"/>
<svg id="graph" class="graph">
<g id="viewport">
<title>mom_neutral_diffusion::neutral_diffusion_diag_init</title>
<polygon fill="white" stroke="none" points="-4,4 -4,-662 863,-662 863,4 -4,4"/>
<!-- Node104 -->
<g id="node1" class="node"><title>Node104</title>
<polygon fill="#bfbfbf" stroke="black" points="0,-330.5 0,-360.5 135,-360.5 135,-330.5 0,-330.5"/>
<text text-anchor="start" x="8" y="-348.5" font-family="Helvetica,sans-Serif" font-size="10.00">mom_neutral_diffusion</text>
<text text-anchor="middle" x="67.5" y="-337.5" font-family="Helvetica,sans-Serif" font-size="10.00">::neutral_diffusion_diag_init</text>
</g>
<!-- Node105 -->
<g id="node2" class="node"><title>Node105</title>
<g id="a_node2"><a xlink:href="../../d9/d06/namespacemom__diag__mediator.html#aab2007573b14ed73053282770d1b19a4" target="_top" xlink:title="mom_diag_mediator::\lregister_diag_field">
<polygon fill="white" stroke="black" points="171,-330.5 171,-360.5 281,-360.5 281,-330.5 171,-330.5"/>
<text text-anchor="start" x="179" y="-348.5" font-family="Helvetica,sans-Serif" font-size="10.00">mom_diag_mediator::</text>
<text text-anchor="middle" x="226" y="-337.5" font-family="Helvetica,sans-Serif" font-size="10.00">register_diag_field</text>
</a>
</g>
</g>
<!-- Node104&#45;&gt;Node105 -->
<g id="edge1" class="edge"><title>Node104&#45;&gt;Node105</title>
<path fill="none" stroke="midnightblue" d="M135.324,-345.5C143.711,-345.5 152.277,-345.5 160.625,-345.5"/>
<polygon fill="midnightblue" stroke="midnightblue" points="160.674,-349 170.674,-345.5 160.674,-342 160.674,-349"/>
</g>
<!-- Node106 -->
<g id="node3" class="node"><title>Node106</title>
<g id="a_node3"><a xlink:href="../../d9/d06/namespacemom__diag__mediator.html#a1b0bed2113a0c268eafd1bafbb48bd4f" target="_top" xlink:title="mom_diag_mediator::\lalloc_diag_with_id">
<polygon fill="white" stroke="black" points="318,-627.5 318,-657.5 428,-657.5 428,-627.5 318,-627.5"/>
<text text-anchor="start" x="326" y="-645.5" font-family="Helvetica,sans-Serif" font-size="10.00">mom_diag_mediator::</text>
<text text-anchor="middle" x="373" y="-634.5" font-family="Helvetica,sans-Serif" font-size="10.00">alloc_diag_with_id</text>
</a>
</g>
</g>
<!-- Node105&#45;&gt;Node106 -->
<g id="edge2" class="edge"><title>Node105&#45;&gt;Node106</title>
<path fill="none" stroke="midnightblue" d="M228.276,-360.643C232.704,-404.556 250.958,-533.818 317,-612.5 319.793,-615.827 323.053,-618.846 326.566,-621.573"/>
<polygon fill="midnightblue" stroke="midnightblue" points="324.89,-624.666 335.123,-627.41 328.834,-618.883 324.89,-624.666"/>
</g>
<!-- Node107 -->
<g id="node4" class="node"><title>Node107</title>
<g id="a_node4"><a xlink:href="../../d9/d06/namespacemom__diag__mediator.html#a6e11afe7a97bf8e3333d33b0aebd6f6e" target="_top" xlink:title="mom_diag_mediator::\lassert">
<polygon fill="white" stroke="black" points="465,-490.5 465,-520.5 575,-520.5 575,-490.5 465,-490.5"/>
<text text-anchor="start" x="473" y="-508.5" font-family="Helvetica,sans-Serif" font-size="10.00">mom_diag_mediator::</text>
<text text-anchor="middle" x="520" y="-497.5" font-family="Helvetica,sans-Serif" font-size="10.00">assert</text>
</a>
</g>
</g>
<!-- Node105&#45;&gt;Node107 -->
<g id="edge3" class="edge"><title>Node105&#45;&gt;Node107</title>
<path fill="none" stroke="midnightblue" d="M231.959,-360.753C242.41,-390.185 269.713,-454.463 317,-483.5 357.963,-508.654 412.55,-513.263 454.652,-512.072"/>
<polygon fill="midnightblue" stroke="midnightblue" points="454.944,-515.563 464.796,-511.667 454.665,-508.568 454.944,-515.563"/>
</g>
<!-- Node108 -->
<g id="node5" class="node"><title>Node108</title>
<g id="a_node5"><a xlink:href="../../d0/de6/namespacemom__error__handler.html#a460cfb79a06c29fc249952c2a3710d67" target="_top" xlink:title="mom_error_handler::\lmom_error">
<polygon fill="white" stroke="black" points="611,-514.5 611,-544.5 717,-544.5 717,-514.5 611,-514.5"/>
<text text-anchor="start" x="619" y="-532.5" font-family="Helvetica,sans-Serif" font-size="10.00">mom_error_handler::</text>
<text text-anchor="middle" x="664" y="-521.5" font-family="Helvetica,sans-Serif" font-size="10.00">mom_error</text>
</a>
</g>
</g>
<!-- Node105&#45;&gt;Node108 -->
<g id="edge18" class="edge"><title>Node105&#45;&gt;Node108</title>
<path fill="none" stroke="midnightblue" d="M248.871,-360.649C266.473,-372.081 292.268,-387.173 317,-395.5 426.784,-432.463 472.694,-378.164 575,-432.5 607.088,-449.542 633.403,-483.1 648.651,-505.917"/>
<polygon fill="midnightblue" stroke="midnightblue" points="645.752,-507.881 654.125,-514.372 651.628,-504.076 645.752,-507.881"/>
</g>
<!-- Node109 -->
<g id="node6" class="node"><title>Node109</title>
<g id="a_node6"><a xlink:href="../../d0/de6/namespacemom__error__handler.html#ad5f00a53059c72fe2332d1436c80ca71" target="_top" xlink:title="mom_error_handler::\lis_root_pe">
<polygon fill="white" stroke="black" points="753,-548.5 753,-578.5 859,-578.5 859,-548.5 753,-548.5"/>
<text text-anchor="start" x="761" y="-566.5" font-family="Helvetica,sans-Serif" font-size="10.00">mom_error_handler::</text>
<text text-anchor="middle" x="806" y="-555.5" font-family="Helvetica,sans-Serif" font-size="10.00">is_root_pe</text>
</a>
</g>
</g>
<!-- Node105&#45;&gt;Node109 -->
<g id="edge13" class="edge"><title>Node105&#45;&gt;Node109</title>
<path fill="none" stroke="midnightblue" d="M229.242,-360.708C235.596,-398.151 257.3,-495.314 317,-544.5 440.524,-646.271 647.216,-608.287 747.262,-581.315"/>
<polygon fill="midnightblue" stroke="midnightblue" points="748.474,-584.612 757.185,-578.582 746.614,-577.864 748.474,-584.612"/>
</g>
<!-- Node110 -->
<g id="node7" class="node"><title>Node110</title>
<g id="a_node7"><a xlink:href="../../d9/d06/namespacemom__diag__mediator.html#a93abbf0b9659019bed9a2129ab292752" target="_top" xlink:title="Attaches &quot;cell_methods&quot; attribute to a variable based on defaults for axes_grp or optional arguments...">
<polygon fill="white" stroke="black" points="465,-539.5 465,-569.5 575,-569.5 575,-539.5 465,-539.5"/>
<text text-anchor="start" x="473" y="-557.5" font-family="Helvetica,sans-Serif" font-size="10.00">mom_diag_mediator::</text>
<text text-anchor="middle" x="520" y="-546.5" font-family="Helvetica,sans-Serif" font-size="10.00">attach_cell_methods</text>
</a>
</g>
</g>
<!-- Node105&#45;&gt;Node110 -->
<g id="edge6" class="edge"><title>Node105&#45;&gt;Node110</title>
<path fill="none" stroke="midnightblue" d="M230.627,-360.715C239.347,-393.8 264.746,-472.443 317,-511.5 356.483,-541.011 411.815,-551.227 454.587,-554.361"/>
<polygon fill="midnightblue" stroke="midnightblue" points="454.419,-557.857 464.617,-554.984 454.854,-550.87 454.419,-557.857"/>
</g>
<!-- Node111 -->
<g id="node8" class="node"><title>Node111</title>
<g id="a_node8"><a xlink:href="../../d9/d06/namespacemom__diag__mediator.html#a3f7442639213320f7429e2288a79fda2" target="_top" xlink:title="Returns a new diagnostic id, it may be necessary to expand the diagnostics array. ...">
<polygon fill="white" stroke="black" points="318,-443.5 318,-473.5 428,-473.5 428,-443.5 318,-443.5"/>
<text text-anchor="start" x="326" y="-461.5" font-family="Helvetica,sans-Serif" font-size="10.00">mom_diag_mediator::</text>
<text text-anchor="middle" x="373" y="-450.5" font-family="Helvetica,sans-Serif" font-size="10.00">get_new_diag_id</text>
</a>
</g>
</g>
<!-- Node105&#45;&gt;Node111 -->
<g id="edge8" class="edge"><title>Node105&#45;&gt;Node111</title>
<path fill="none" stroke="midnightblue" d="M241.306,-360.803C258.291,-378.448 287.982,-407.69 317,-428.5 321.813,-431.952 327.067,-435.292 332.356,-438.413"/>
<polygon fill="midnightblue" stroke="midnightblue" points="330.795,-441.551 341.22,-443.438 334.247,-435.461 330.795,-441.551"/>
</g>
<!-- Node113 -->
<g id="node10" class="node"><title>Node113</title>
<g id="a_node10"><a xlink:href="../../d9/d06/namespacemom__diag__mediator.html#a4b739f107cebe1ece8d29056c1144bff" target="_top" xlink:title="mom_diag_mediator::\lis_b_axes">
<polygon fill="white" stroke="black" points="318,-355.5 318,-385.5 428,-385.5 428,-355.5 318,-355.5"/>
<text text-anchor="start" x="326" y="-373.5" font-family="Helvetica,sans-Serif" font-size="10.00">mom_diag_mediator::</text>
<text text-anchor="middle" x="373" y="-362.5" font-family="Helvetica,sans-Serif" font-size="10.00">is_b_axes</text>
</a>
</g>
</g>
<!-- Node105&#45;&gt;Node113 -->
<g id="edge11" class="edge"><title>Node105&#45;&gt;Node113</title>
<path fill="none" stroke="midnightblue" d="M281.405,-354.88C290.046,-356.37 299.054,-357.923 307.893,-359.447"/>
<polygon fill="midnightblue" stroke="midnightblue" points="307.323,-362.9 317.772,-361.15 308.512,-356.002 307.323,-362.9"/>
</g>
<!-- Node114 -->
<g id="node11" class="node"><title>Node114</title>
<g id="a_node11"><a xlink:href="../../d9/d06/namespacemom__diag__mediator.html#a84370fa96e03622edbfd5e343bcd9718" target="_top" xlink:title="mom_diag_mediator::\lis_layer_axes">
<polygon fill="white" stroke="black" points="318,-306.5 318,-336.5 428,-336.5 428,-306.5 318,-306.5"/>
<text text-anchor="start" x="326" y="-324.5" font-family="Helvetica,sans-Serif" font-size="10.00">mom_diag_mediator::</text>
<text text-anchor="middle" x="373" y="-313.5" font-family="Helvetica,sans-Serif" font-size="10.00">is_layer_axes</text>
</a>
</g>
</g>
<!-- Node105&#45;&gt;Node114 -->
<g id="edge12" class="edge"><title>Node105&#45;&gt;Node114</title>
<path fill="none" stroke="midnightblue" d="M281.405,-336.495C290.046,-335.065 299.054,-333.574 307.893,-332.111"/>
<polygon fill="midnightblue" stroke="midnightblue" points="308.478,-335.562 317.772,-330.476 307.335,-328.656 308.478,-335.562"/>
</g>
<!-- Node115 -->
<g id="node12" class="node"><title>Node115</title>
<g id="a_node12"><a xlink:href="../../d9/d06/namespacemom__diag__mediator.html#a27fa63c9ff62b660bf457adbb8645bdf" target="_top" xlink:title="mom_diag_mediator::\lis_u_axes">
<polygon fill="white" stroke="black" points="318,-257.5 318,-287.5 428,-287.5 428,-257.5 318,-257.5"/>
<text text-anchor="start" x="326" y="-275.5" font-family="Helvetica,sans-Serif" font-size="10.00">mom_diag_mediator::</text>
<text text-anchor="middle" x="373" y="-264.5" font-family="Helvetica,sans-Serif" font-size="10.00">is_u_axes</text>
</a>
</g>
</g>
<!-- Node105&#45;&gt;Node115 -->
<g id="edge14" class="edge"><title>Node105&#45;&gt;Node115</title>
<path fill="none" stroke="midnightblue" d="M254.339,-330.339C272.058,-320.657 295.719,-307.998 317,-297.5 320.81,-295.621 324.79,-293.71 328.793,-291.826"/>
<polygon fill="midnightblue" stroke="midnightblue" points="330.506,-294.889 338.101,-287.502 327.557,-288.54 330.506,-294.889"/>
</g>
<!-- Node116 -->
<g id="node13" class="node"><title>Node116</title>
<g id="a_node13"><a xlink:href="../../d9/d06/namespacemom__diag__mediator.html#a9a30d653d812713d6fcff94f6f1fc3e6" target="_top" xlink:title="mom_diag_mediator::\lis_v_axes">
<polygon fill="white" stroke="black" points="318,-208.5 318,-238.5 428,-238.5 428,-208.5 318,-208.5"/>
<text text-anchor="start" x="326" y="-226.5" font-family="Helvetica,sans-Serif" font-size="10.00">mom_diag_mediator::</text>
<text text-anchor="middle" x="373" y="-215.5" font-family="Helvetica,sans-Serif" font-size="10.00">is_v_axes</text>
</a>
</g>
</g>
<!-- Node105&#45;&gt;Node116 -->
<g id="edge15" class="edge"><title>Node105&#45;&gt;Node116</title>
<path fill="none" stroke="midnightblue" d="M238,-330.283C253.62,-309.548 284.019,-272.282 317,-248.5 319.473,-246.717 322.093,-245.017 324.795,-243.403"/>
<polygon fill="midnightblue" stroke="midnightblue" points="326.546,-246.435 333.624,-238.551 323.175,-240.3 326.546,-246.435"/>
</g>
<!-- Node117 -->
<g id="node14" class="node"><title>Node117</title>
<g id="a_node14"><a xlink:href="../../d9/d06/namespacemom__diag__mediator.html#a65fe8d329cf5dbfd08c98874a7a64407" target="_top" xlink:title="Log a diagnostic to the available diagnostics file. ">
<polygon fill="white" stroke="black" points="318,-159.5 318,-189.5 428,-189.5 428,-159.5 318,-159.5"/>
<text text-anchor="start" x="326" y="-177.5" font-family="Helvetica,sans-Serif" font-size="10.00">mom_diag_mediator::</text>
<text text-anchor="middle" x="373" y="-166.5" font-family="Helvetica,sans-Serif" font-size="10.00">log_available_diag</text>
</a>
</g>
</g>
<!-- Node105&#45;&gt;Node117 -->
<g id="edge16" class="edge"><title>Node105&#45;&gt;Node117</title>
<path fill="none" stroke="midnightblue" d="M232.837,-330.23C244.628,-301.187 273.89,-237.502 317,-199.5 318.726,-197.978 320.56,-196.534 322.471,-195.165"/>
<polygon fill="midnightblue" stroke="midnightblue" points="324.651,-197.929 331.245,-189.636 320.919,-192.006 324.651,-197.929"/>
</g>
<!-- Node119 -->
<g id="node16" class="node"><title>Node119</title>
<g id="a_node16"><a xlink:href="../../d9/d06/namespacemom__diag__mediator.html#aca4a32fea8dade9f51e076a56b9bad2b" target="_top" xlink:title="Returns ID from register_diag_field_fms (the diag_manager routine) after expanding axes (axes&#45;group) ...">
<polygon fill="white" stroke="black" points="318,-99 318,-140 428,-140 428,-99 318,-99"/>
<text text-anchor="start" x="326" y="-128" font-family="Helvetica,sans-Serif" font-size="10.00">mom_diag_mediator::</text>
<text text-anchor="start" x="326" y="-117" font-family="Helvetica,sans-Serif" font-size="10.00">register_diag_field</text>
<text text-anchor="middle" x="373" y="-106" font-family="Helvetica,sans-Serif" font-size="10.00">_expand_axes</text>
</a>
</g>
</g>
<!-- Node105&#45;&gt;Node119 -->
<g id="edge19" class="edge"><title>Node105&#45;&gt;Node119</title>
<path fill="none" stroke="midnightblue" d="M230.575,-330.259C239.554,-294.826 266.064,-205.729 317,-150.5 318.201,-149.198 319.469,-147.937 320.791,-146.717"/>
<polygon fill="midnightblue" stroke="midnightblue" points="323.297,-149.191 328.864,-140.177 318.891,-143.752 323.297,-149.191"/>
</g>
<!-- Node120 -->
<g id="node17" class="node"><title>Node120</title>
<g id="a_node17"><a xlink:href="../../d9/d06/namespacemom__diag__mediator.html#a085f313357879a914af6450f2ab8ec79" target="_top" xlink:title="mom_diag_mediator::\lset_diag_mask">
<polygon fill="white" stroke="black" points="318,-49.5 318,-79.5 428,-79.5 428,-49.5 318,-49.5"/>
<text text-anchor="start" x="326" y="-67.5" font-family="Helvetica,sans-Serif" font-size="10.00">mom_diag_mediator::</text>
<text text-anchor="middle" x="373" y="-56.5" font-family="Helvetica,sans-Serif" font-size="10.00">set_diag_mask</text>
</a>
</g>
</g>
<!-- Node105&#45;&gt;Node120 -->
<g id="edge20" class="edge"><title>Node105&#45;&gt;Node120</title>
<path fill="none" stroke="midnightblue" d="M228.234,-330.436C232.52,-287.397 250.368,-162.311 317,-89.5 318.193,-88.1967 319.467,-86.9566 320.806,-85.7772"/>
<polygon fill="midnightblue" stroke="midnightblue" points="323.115,-88.4227 329.079,-79.666 318.956,-82.7921 323.115,-88.4227"/>
</g>
<!-- Node121 -->
<g id="node18" class="node"><title>Node121</title>
<g id="a_node18"><a xlink:href="../../d9/d06/namespacemom__diag__mediator.html#a5d1e1aa53cdd6bb335a6f841eded4f46" target="_top" xlink:title="mom_diag_mediator::\lset_diag_remap_axes">
<polygon fill="white" stroke="black" points="317,-0.5 317,-30.5 429,-30.5 429,-0.5 317,-0.5"/>
<text text-anchor="start" x="325" y="-18.5" font-family="Helvetica,sans-Serif" font-size="10.00">mom_diag_mediator::</text>
<text text-anchor="middle" x="373" y="-7.5" font-family="Helvetica,sans-Serif" font-size="10.00">set_diag_remap_axes</text>
</a>
</g>
</g>
<!-- Node105&#45;&gt;Node121 -->
<g id="edge21" class="edge"><title>Node105&#45;&gt;Node121</title>
<path fill="none" stroke="midnightblue" d="M227.224,-330.428C228.727,-282.174 239.673,-129.46 317,-40.5 318.135,-39.1938 319.353,-37.9522 320.637,-36.7722"/>
<polygon fill="midnightblue" stroke="midnightblue" points="322.801,-39.5235 328.617,-30.6676 318.548,-33.9638 322.801,-39.5235"/>
</g>
<!-- Node107&#45;&gt;Node108 -->
<g id="edge4" class="edge"><title>Node107&#45;&gt;Node108</title>
<path fill="none" stroke="midnightblue" d="M575.089,-514.642C583.539,-516.07 592.329,-517.556 600.94,-519.011"/>
<polygon fill="midnightblue" stroke="midnightblue" points="600.492,-522.485 610.935,-520.7 601.659,-515.583 600.492,-522.485"/>
</g>
<!-- Node108&#45;&gt;Node109 -->
<g id="edge5" class="edge"><title>Node108&#45;&gt;Node109</title>
<path fill="none" stroke="midnightblue" d="M717.131,-542.16C725.512,-544.196 734.26,-546.32 742.849,-548.406"/>
<polygon fill="midnightblue" stroke="midnightblue" points="742.282,-551.87 752.826,-550.829 743.934,-545.068 742.282,-551.87"/>
</g>
<!-- Node110&#45;&gt;Node108 -->
<g id="edge7" class="edge"><title>Node110&#45;&gt;Node108</title>
<path fill="none" stroke="midnightblue" d="M575.089,-544.977C583.539,-543.49 592.329,-541.942 600.94,-540.426"/>
<polygon fill="midnightblue" stroke="midnightblue" points="601.694,-543.847 610.935,-538.666 600.48,-536.953 601.694,-543.847"/>
</g>
<!-- Node111&#45;&gt;Node107 -->
<g id="edge9" class="edge"><title>Node111&#45;&gt;Node107</title>
<path fill="none" stroke="midnightblue" d="M420.278,-473.5C433.88,-477.91 448.907,-482.78 463.046,-487.363"/>
<polygon fill="midnightblue" stroke="midnightblue" points="462.073,-490.727 472.665,-490.481 464.231,-484.068 462.073,-490.727"/>
</g>
<!-- Node112 -->
<g id="node9" class="node"><title>Node112</title>
<g id="a_node9"><a xlink:href="../../d9/d06/namespacemom__diag__mediator.html#a883862f004e30bbc5211f38635511ba0" target="_top" xlink:title="Initializes a diag_type (used after allocating new memory) ">
<polygon fill="white" stroke="black" points="465,-441.5 465,-471.5 575,-471.5 575,-441.5 465,-441.5"/>
<text text-anchor="start" x="473" y="-459.5" font-family="Helvetica,sans-Serif" font-size="10.00">mom_diag_mediator::</text>
<text text-anchor="middle" x="520" y="-448.5" font-family="Helvetica,sans-Serif" font-size="10.00">initialize_diag_type</text>
</a>
</g>
</g>
<!-- Node111&#45;&gt;Node112 -->
<g id="edge10" class="edge"><title>Node111&#45;&gt;Node112</title>
<path fill="none" stroke="midnightblue" d="M428.405,-457.75C436.953,-457.632 445.86,-457.509 454.608,-457.388"/>
<polygon fill="midnightblue" stroke="midnightblue" points="454.821,-460.886 464.772,-457.248 454.725,-453.886 454.821,-460.886"/>
</g>
<!-- Node118 -->
<g id="node15" class="node"><title>Node118</title>
<g id="a_node15"><a xlink:href="../../d9/d06/namespacemom__diag__mediator.html#ae002ca447acba252bf7bdc042e75a01e" target="_top" xlink:title="mom_diag_mediator::\ldescribe_option">
<polygon fill="white" stroke="black" points="465,-159.5 465,-189.5 575,-189.5 575,-159.5 465,-159.5"/>
<text text-anchor="start" x="473" y="-177.5" font-family="Helvetica,sans-Serif" font-size="10.00">mom_diag_mediator::</text>
<text text-anchor="middle" x="520" y="-166.5" font-family="Helvetica,sans-Serif" font-size="10.00">describe_option</text>
</a>
</g>
</g>
<!-- Node117&#45;&gt;Node118 -->
<g id="edge17" class="edge"><title>Node117&#45;&gt;Node118</title>
<path fill="none" stroke="midnightblue" d="M428.405,-174.5C436.953,-174.5 445.86,-174.5 454.608,-174.5"/>
<polygon fill="midnightblue" stroke="midnightblue" points="454.772,-178 464.772,-174.5 454.772,-171 454.772,-178"/>
</g>
</g>
</svg>
        <g id="navigator" transform="translate(0 0)" fill="#404254">
                <rect fill="#f2f5e9" fill-opacity="0.5" stroke="#606060" stroke-width=".5" x="0" y="0" width="60" height="60"/>
                <use id="zoomplus" xlink:href="#zoomPlus" x="17" y="9" onmousedown="handleZoom(evt,'in')"/>
                <use id="zoomminus" xlink:href="#zoomMin" x="42" y="9" onmousedown="handleZoom(evt,'out')"/>
                <use id="reset" xlink:href="#resetDef" x="30" y="36" onmousedown="handleReset()"/>
                <g id="arrowUp" xlink:href="#dirArrow" transform="translate(30 24)" onmousedown="handlePan(0,-1)">
                  <use xlink:href="#rim" fill="#404040">
                        <set attributeName="fill" to="#808080" begin="arrowUp.mouseover" end="arrowUp.mouseout"/>
                  </use>
                  <path fill="none" stroke="white" stroke-width="1.5" d="M0,-3.0v7 M-2.5,-0.5L0,-3.0L2.5,-0.5"/>
                </g>
                <g id="arrowRight" xlink:href="#dirArrow" transform="rotate(90) translate(36 -43)" onmousedown="handlePan(1,0)">
                  <use xlink:href="#rim" fill="#404040">
                        <set attributeName="fill" to="#808080" begin="arrowRight.mouseover" end="arrowRight.mouseout"/>
                  </use>
                  <path fill="none" stroke="white" stroke-width="1.5" d="M0,-3.0v7 M-2.5,-0.5L0,-3.0L2.5,-0.5"/>
                </g>
                <g id="arrowDown" xlink:href="#dirArrow" transform="rotate(180) translate(-30 -48)" onmousedown="handlePan(0,1)">
                  <use xlink:href="#rim" fill="#404040">
                        <set attributeName="fill" to="#808080" begin="arrowDown.mouseover" end="arrowDown.mouseout"/>
                  </use>
                  <path fill="none" stroke="white" stroke-width="1.5" d="M0,-3.0v7 M-2.5,-0.5L0,-3.0L2.5,-0.5"/>
                </g>
                <g id="arrowLeft" xlink:href="#dirArrow" transform="rotate(270) translate(-36 17)" onmousedown="handlePan(-1,0)">
                  <use xlink:href="#rim" fill="#404040">
                        <set attributeName="fill" to="#808080" begin="arrowLeft.mouseover" end="arrowLeft.mouseout"/>
                  </use>
                  <path fill="none" stroke="white" stroke-width="1.5" d="M0,-3.0v7 M-2.5,-0.5L0,-3.0L2.5,-0.5"/>
                </g>
        </g>
        <svg viewBox="0 0 15 15" width="100%" height="30px" preserveAspectRatio="xMaxYMin meet">
         <g id="arrow_out" transform="scale(0.3 0.3)">
          <a xlink:href="namespacemom__neutral__diffusion_a87cf821c52ac1111493d4168f0a91d17_cgraph_org.svg" target="_base">
           <rect id="button" ry="5" rx="5" y="6" x="6" height="38" width="38"
                fill="#f2f5e9" fill-opacity="0.5" stroke="#606060" stroke-width="1.0"/>
           <path id="arrow"
             d="M 11.500037,31.436501 C 11.940474,20.09759 22.043105,11.32322 32.158766,21.979434 L 37.068811,17.246167 C 37.068811,17.246167 37.088388,32 37.088388,32 L 22.160133,31.978069 C 22.160133,31.978069 26.997745,27.140456 26.997745,27.140456 C 18.528582,18.264221 13.291696,25.230495 11.500037,31.436501 z"
             style="fill:#404040;"/>
          </a>
         </g>
        </svg>
</svg>
