<?xml version="1.0" encoding="UTF-8" standalone="no"?>
<!DOCTYPE svg PUBLIC "-//W3C//DTD SVG 1.1//EN"
 "http://www.w3.org/Graphics/SVG/1.1/DTD/svg11.dtd">
<!-- Generated by graphviz version 2.38.0 (20140413.2041)
 -->
<!-- Title: mom_neutral_diffusion::neutral_diffusion_unit_tests Pages: 1 -->
<!--zoomable 425 -->
<svg id="main" version="1.1" xmlns="http://www.w3.org/2000/svg" xmlns:xlink="http://www.w3.org/1999/xlink" xml:space="preserve" onload="init(evt)">
<style type="text/css"><![CDATA[
.edge:hover path { stroke: red; }
.edge:hover polygon { stroke: red; fill: red; }
]]></style>
<script type="text/javascript"><![CDATA[
var edges = document.getElementsByTagName('g');
if (edges && edges.length) {
  for (var i=0;i<edges.length;i++) {
    if (edges[i].id.substr(0,4)=='edge') {
      edges[i].setAttribute('class','edge');
    }
  }
}
]]></script>
        <defs>
                <circle id="rim" cx="0" cy="0" r="7"/>
                <circle id="rim2" cx="0" cy="0" r="3.5"/>
                <g id="zoomPlus">
                        <use xlink:href="#rim" fill="#404040">
                                <set attributeName="fill" to="#808080" begin="zoomplus.mouseover" end="zoomplus.mouseout"/>
                        </use>
                        <path d="M-4,0h8M0,-4v8" fill="none" stroke="white" stroke-width="1.5" pointer-events="none"/>
                </g>
                <g id="zoomMin">
                        <use xlink:href="#rim" fill="#404040">
                                <set attributeName="fill" to="#808080" begin="zoomminus.mouseover" end="zoomminus.mouseout"/>
                        </use>
                        <path d="M-4,0h8" fill="none" stroke="white" stroke-width="1.5" pointer-events="none"/>
                </g>
                <g id="dirArrow">
                        <path fill="none" stroke="white" stroke-width="1.5" d="M0,-3.0v7 M-2.5,-0.5L0,-3.0L2.5,-0.5"/>
                </g>
               <g id="resetDef">
                       <use xlink:href="#rim2" fill="#404040">
                               <set attributeName="fill" to="#808080" begin="reset.mouseover" end="reset.mouseout"/>
                       </use>
               </g>
        </defs>

<script type="text/javascript">
var viewWidth = 668;
var viewHeight = 425;
var sectionId = 'dynsection-16';
</script>
<script xlink:href="../../svgpan.js"/>
<svg id="graph" class="graph">
<g id="viewport">
<title>mom_neutral_diffusion::neutral_diffusion_unit_tests</title>
<polygon fill="white" stroke="none" points="-4,4 -4,-421.358 664,-421.358 664,4 -4,4"/>
<!-- Node129 -->
<g id="node1" class="node"><title>Node129</title>
<polygon fill="#bfbfbf" stroke="black" points="0,-178 0,-208 118,-208 118,-178 0,-178"/>
<text text-anchor="start" x="8" y="-196" font-family="Helvetica,sans-Serif" font-size="10.00">mom_neutral_diffusion</text>
<text text-anchor="middle" x="59" y="-185" font-family="Helvetica,sans-Serif" font-size="10.00">::neutral_diffusion_unit_tests</text>
</g>
<!-- Node130 -->
<g id="node2" class="node"><title>Node130</title>
<g id="a_node2"><a xlink:href="../../d8/da4/namespacemom__neutral__diffusion.html#a8f341aaa492064bbece077ada4d48d83" target="_top" xlink:title="Converts non&#45;dimensional positions within layers to absolute positions (for debugging) ...">
<polygon fill="white" stroke="black" points="154,-349 154,-379 252,-379 252,-349 154,-349"/>
<text text-anchor="start" x="162" y="-367" font-family="Helvetica,sans-Serif" font-size="10.00">mom_neutral_diffusion</text>
<text text-anchor="middle" x="203" y="-356" font-family="Helvetica,sans-Serif" font-size="10.00">::absolute_positions</text>
</a>
</g>
</g>
<!-- Node129&#45;&gt;Node130 -->
<g id="edge1" class="edge"><title>Node129&#45;&gt;Node130</title>
<path fill="none" stroke="midnightblue" d="M66.3807,-208.221C79.183,-237.2 110.541,-300.892 154,-340 155.125,-341.013 156.301,-341.994 157.517,-342.943"/>
<polygon fill="midnightblue" stroke="midnightblue" points="155.767,-345.986 165.997,-348.742 159.719,-340.208 155.767,-345.986"/>
</g>
<!-- Node132 -->
<g id="node4" class="node"><title>Node132</title>
<g id="a_node4"><a xlink:href="../../d8/da4/namespacemom__neutral__diffusion.html#aacce4f78e738a3c7530ae8940c144fb9" target="_top" xlink:title="Returns positions within left/right columns of combined interfaces. ">
<polygon fill="white" stroke="black" points="154,-289.5 154,-330.5 252,-330.5 252,-289.5 154,-289.5"/>
<text text-anchor="start" x="162" y="-318.5" font-family="Helvetica,sans-Serif" font-size="10.00">mom_neutral_diffusion</text>
<text text-anchor="start" x="162" y="-307.5" font-family="Helvetica,sans-Serif" font-size="10.00">::find_neutral_surface</text>
<text text-anchor="middle" x="203" y="-296.5" font-family="Helvetica,sans-Serif" font-size="10.00">_positions</text>
</a>
</g>
</g>
<!-- Node129&#45;&gt;Node132 -->
<g id="edge3" class="edge"><title>Node129&#45;&gt;Node132</title>
<path fill="none" stroke="midnightblue" d="M74.5296,-208.086C92.37,-226.21 123.968,-257.042 154,-280 155.581,-281.209 157.212,-282.414 158.876,-283.608"/>
<polygon fill="midnightblue" stroke="midnightblue" points="157.159,-286.675 167.381,-289.461 161.127,-280.909 157.159,-286.675"/>
</g>
<!-- Node134 -->
<g id="node6" class="node"><title>Node134</title>
<g id="a_node6"><a xlink:href="../../d8/da4/namespacemom__neutral__diffusion.html#afbc54a4e2f34af5d72c18dc96e354af7" target="_top" xlink:title="Returns interface scalar, Si, for a column of layer values, S. ">
<polygon fill="white" stroke="black" points="291,-77 291,-107 389,-107 389,-77 291,-77"/>
<text text-anchor="start" x="299" y="-95" font-family="Helvetica,sans-Serif" font-size="10.00">mom_neutral_diffusion</text>
<text text-anchor="middle" x="340" y="-84" font-family="Helvetica,sans-Serif" font-size="10.00">::interface_scalar</text>
</a>
</g>
</g>
<!-- Node129&#45;&gt;Node134 -->
<g id="edge6" class="edge"><title>Node129&#45;&gt;Node134</title>
<path fill="none" stroke="midnightblue" d="M70.7038,-177.901C86.3291,-157.239 117.527,-120.909 154,-105 193.789,-87.6448 242.981,-84.9643 280.635,-86.3152"/>
<polygon fill="midnightblue" stroke="midnightblue" points="280.78,-89.8256 290.932,-86.7943 281.106,-82.8332 280.78,-89.8256"/>
</g>
<!-- Node139 -->
<g id="node11" class="node"><title>Node139</title>
<g id="a_node11"><a xlink:href="../../d0/de6/namespacemom__error__handler.html#a2e47f830d9b3ae003d057141096867d5" target="_top" xlink:title="mom_error_handler::\lmom_get_verbosity">
<polygon fill="white" stroke="black" points="156.5,-241 156.5,-271 249.5,-271 249.5,-241 156.5,-241"/>
<text text-anchor="start" x="164.5" y="-259" font-family="Helvetica,sans-Serif" font-size="10.00">mom_error_handler::</text>
<text text-anchor="middle" x="203" y="-248" font-family="Helvetica,sans-Serif" font-size="10.00">mom_get_verbosity</text>
</a>
</g>
</g>
<!-- Node129&#45;&gt;Node139 -->
<g id="edge11" class="edge"><title>Node129&#45;&gt;Node139</title>
<path fill="none" stroke="midnightblue" d="M94.0125,-208.09C113.366,-216.676 137.807,-227.52 158.539,-236.718"/>
<polygon fill="midnightblue" stroke="midnightblue" points="157.213,-239.959 167.773,-240.815 160.051,-233.56 157.213,-239.959"/>
</g>
<!-- Node140 -->
<g id="node12" class="node"><title>Node140</title>
<g id="a_node12"><a xlink:href="../../d8/da4/namespacemom__neutral__diffusion.html#a626e0189b03bbbf36c33cfa52e4f098d" target="_top" xlink:title="Returns a single column of neutral diffusion fluxes of a tracer. ">
<polygon fill="white" stroke="black" points="154,-115 154,-145 252,-145 252,-115 154,-115"/>
<text text-anchor="start" x="162" y="-133" font-family="Helvetica,sans-Serif" font-size="10.00">mom_neutral_diffusion</text>
<text text-anchor="middle" x="203" y="-122" font-family="Helvetica,sans-Serif" font-size="10.00">::neutral_surface_flux</text>
</a>
</g>
</g>
<!-- Node129&#45;&gt;Node140 -->
<g id="edge12" class="edge"><title>Node129&#45;&gt;Node140</title>
<path fill="none" stroke="midnightblue" d="M94.0125,-177.91C113.366,-169.324 137.807,-158.48 158.539,-149.282"/>
<polygon fill="midnightblue" stroke="midnightblue" points="160.051,-152.44 167.773,-145.185 157.213,-146.041 160.051,-152.44"/>
</g>
<!-- Node142 -->
<g id="node14" class="node"><title>Node142</title>
<g id="a_node14"><a xlink:href="../../d8/da4/MOM__neutral__diffusion_8F90.html#a8f7076fd5b347575904aaa3eccdb77b5" target="_top" xlink:title="Returns true if comparison of Po and Ptrue fails, and conditionally writes results to stream...">
<polygon fill="white" stroke="black" points="173.5,-164.5 173.5,-183.5 232.5,-183.5 232.5,-164.5 173.5,-164.5"/>
<text text-anchor="middle" x="203" y="-171.5" font-family="Helvetica,sans-Serif" font-size="10.00">test_data1d</text>
</a>
</g>
</g>
<!-- Node129&#45;&gt;Node142 -->
<g id="edge15" class="edge"><title>Node129&#45;&gt;Node142</title>
<path fill="none" stroke="midnightblue" d="M118.167,-185.217C133.303,-183.192 149.245,-181.059 163.115,-179.203"/>
<polygon fill="midnightblue" stroke="midnightblue" points="163.822,-182.64 173.27,-177.844 162.894,-175.701 163.822,-182.64"/>
</g>
<!-- Node143 -->
<g id="node15" class="node"><title>Node143</title>
<g id="a_node15"><a xlink:href="../../d8/da4/MOM__neutral__diffusion_8F90.html#a22542088a9844debe9b0162868913ac0" target="_top" xlink:title="Returns true if a test of fv_diff() fails, and conditionally writes results to stream. ">
<polygon fill="white" stroke="black" points="449.5,-286.5 449.5,-305.5 504.5,-305.5 504.5,-286.5 449.5,-286.5"/>
<text text-anchor="middle" x="477" y="-293.5" font-family="Helvetica,sans-Serif" font-size="10.00">test_fv_diff</text>
</a>
</g>
</g>
<!-- Node129&#45;&gt;Node143 -->
<g id="edge16" class="edge"><title>Node129&#45;&gt;Node143</title>
<path fill="none" stroke="midnightblue" d="M61.8685,-208.049C67.5338,-246.402 88.3671,-347.686 154,-389 244.093,-445.711 295.157,-406.208 392,-362 418.148,-350.063 443.423,-328.39 459.299,-313.144"/>
<polygon fill="midnightblue" stroke="midnightblue" points="462.038,-315.357 466.699,-305.842 457.122,-310.374 462.038,-315.357"/>
</g>
<!-- Node144 -->
<g id="node16" class="node"><title>Node144</title>
<g id="a_node16"><a xlink:href="../../d8/da4/MOM__neutral__diffusion_8F90.html#ae5e9faf2d308b4c5de56d7dcd90bd286" target="_top" xlink:title="Returns true if a test of fvlsq_slope() fails, and conditionally writes results to stream...">
<polygon fill="white" stroke="black" points="440.5,-38.5 440.5,-57.5 513.5,-57.5 513.5,-38.5 440.5,-38.5"/>
<text text-anchor="middle" x="477" y="-45.5" font-family="Helvetica,sans-Serif" font-size="10.00">test_fvlsq_slope</text>
</a>
</g>
</g>
<!-- Node129&#45;&gt;Node144 -->
<g id="edge18" class="edge"><title>Node129&#45;&gt;Node144</title>
<path fill="none" stroke="midnightblue" d="M68.0001,-177.768C81.8478,-153.122 112.802,-105.041 154,-83 242.716,-35.5367 364.719,-37.3232 430.14,-42.7008"/>
<polygon fill="midnightblue" stroke="midnightblue" points="429.869,-46.1905 440.14,-43.5878 430.488,-39.2179 429.869,-46.1905"/>
</g>
<!-- Node145 -->
<g id="node17" class="node"><title>Node145</title>
<g id="a_node17"><a xlink:href="../../d8/da4/MOM__neutral__diffusion_8F90.html#a719cc02cd04e45abec7d125bfc2f747c" target="_top" xlink:title="Returns true if a test of interpolate_for_nondim_position() fails, and conditionally writes results t...">
<polygon fill="white" stroke="black" points="177.5,-202.5 177.5,-221.5 228.5,-221.5 228.5,-202.5 177.5,-202.5"/>
<text text-anchor="middle" x="203" y="-209.5" font-family="Helvetica,sans-Serif" font-size="10.00">test_ifndp</text>
</a>
</g>
</g>
<!-- Node129&#45;&gt;Node145 -->
<g id="edge20" class="edge"><title>Node129&#45;&gt;Node145</title>
<path fill="none" stroke="midnightblue" d="M118.167,-200.783C134.807,-203.009 152.421,-205.366 167.186,-207.342"/>
<polygon fill="midnightblue" stroke="midnightblue" points="167.002,-210.848 177.378,-208.706 167.931,-203.91 167.002,-210.848"/>
</g>
<!-- Node146 -->
<g id="node18" class="node"><title>Node146</title>
<g id="a_node18"><a xlink:href="../../d8/da4/MOM__neutral__diffusion_8F90.html#af5d8d8848fb00ea16bf467cbd3cd2f8e" target="_top" xlink:title="Returns true if output of find_neutral_surface_positions() does not match correct values...">
<polygon fill="white" stroke="black" points="179.5,-0.5 179.5,-19.5 226.5,-19.5 226.5,-0.5 179.5,-0.5"/>
<text text-anchor="middle" x="203" y="-7.5" font-family="Helvetica,sans-Serif" font-size="10.00">test_nsp</text>
</a>
</g>
</g>
<!-- Node129&#45;&gt;Node146 -->
<g id="edge22" class="edge"><title>Node129&#45;&gt;Node146</title>
<path fill="none" stroke="midnightblue" d="M65.4935,-177.954C77.3473,-147.291 108.023,-76.8544 154,-34 158.741,-29.581 164.45,-25.7914 170.25,-22.6156"/>
<polygon fill="midnightblue" stroke="midnightblue" points="171.906,-25.7014 179.314,-18.1278 168.8,-19.4282 171.906,-25.7014"/>
</g>
<!-- Node131 -->
<g id="node3" class="node"><title>Node131</title>
<g id="a_node3"><a xlink:href="../../d8/da4/namespacemom__neutral__diffusion.html#a6a30ebbb70dd95dade154d1253393952" target="_top" xlink:title="Converts non&#45;dimensional position within a layer to absolute position (for debugging) ...">
<polygon fill="white" stroke="black" points="291,-322 291,-352 389,-352 389,-322 291,-322"/>
<text text-anchor="start" x="299" y="-340" font-family="Helvetica,sans-Serif" font-size="10.00">mom_neutral_diffusion</text>
<text text-anchor="middle" x="340" y="-329" font-family="Helvetica,sans-Serif" font-size="10.00">::absolute_position</text>
</a>
</g>
</g>
<!-- Node130&#45;&gt;Node131 -->
<g id="edge2" class="edge"><title>Node130&#45;&gt;Node131</title>
<path fill="none" stroke="midnightblue" d="M252.357,-354.329C261.678,-352.464 271.53,-350.494 281.118,-348.576"/>
<polygon fill="midnightblue" stroke="midnightblue" points="281.861,-351.997 290.981,-346.604 280.489,-345.133 281.861,-351.997"/>
</g>
<!-- Node132&#45;&gt;Node131 -->
<g id="edge4" class="edge"><title>Node132&#45;&gt;Node131</title>
<path fill="none" stroke="midnightblue" d="M252.357,-319.671C261.678,-321.536 271.53,-323.506 281.118,-325.424"/>
<polygon fill="midnightblue" stroke="midnightblue" points="280.489,-328.867 290.981,-327.396 281.861,-322.003 280.489,-328.867"/>
</g>
<!-- Node133 -->
<g id="node5" class="node"><title>Node133</title>
<g id="a_node5"><a xlink:href="../../d8/da4/namespacemom__neutral__diffusion.html#a666836e70bdae7ef4ec271246cf91993" target="_top" xlink:title="Returns the non&#45;dimensional position between Pneg and Ppos where the interpolated density difference ...">
<polygon fill="white" stroke="black" points="288,-226.5 288,-267.5 392,-267.5 392,-226.5 288,-226.5"/>
<text text-anchor="start" x="296" y="-255.5" font-family="Helvetica,sans-Serif" font-size="10.00">mom_neutral_diffusion</text>
<text text-anchor="start" x="296" y="-244.5" font-family="Helvetica,sans-Serif" font-size="10.00">::interpolate_for_nondim</text>
<text text-anchor="middle" x="340" y="-233.5" font-family="Helvetica,sans-Serif" font-size="10.00">_position</text>
</a>
</g>
</g>
<!-- Node132&#45;&gt;Node133 -->
<g id="edge5" class="edge"><title>Node132&#45;&gt;Node133</title>
<path fill="none" stroke="midnightblue" d="M248.204,-289.371C260.092,-283.824 273.079,-277.763 285.417,-272.005"/>
<polygon fill="midnightblue" stroke="midnightblue" points="287.115,-275.075 294.697,-267.675 284.155,-268.732 287.115,-275.075"/>
</g>
<!-- Node135 -->
<g id="node7" class="node"><title>Node135</title>
<g id="a_node7"><a xlink:href="../../d8/da4/namespacemom__neutral__diffusion.html#ac211ae488cb6e3c6685df85d24ecd0dd" target="_top" xlink:title="Returns PLM slopes for a column where the slopes are the difference in value across each cell...">
<polygon fill="white" stroke="black" points="428,-77 428,-107 526,-107 526,-77 428,-77"/>
<text text-anchor="start" x="436" y="-95" font-family="Helvetica,sans-Serif" font-size="10.00">mom_neutral_diffusion</text>
<text text-anchor="middle" x="477" y="-84" font-family="Helvetica,sans-Serif" font-size="10.00">::plm_diff</text>
</a>
</g>
</g>
<!-- Node134&#45;&gt;Node135 -->
<g id="edge7" class="edge"><title>Node134&#45;&gt;Node135</title>
<path fill="none" stroke="midnightblue" d="M389.357,-92C398.58,-92 408.323,-92 417.815,-92"/>
<polygon fill="midnightblue" stroke="midnightblue" points="417.981,-95.5001 427.981,-92 417.981,-88.5001 417.981,-95.5001"/>
</g>
<!-- Node138 -->
<g id="node10" class="node"><title>Node138</title>
<g id="a_node10"><a xlink:href="../../d8/da4/namespacemom__neutral__diffusion.html#a87d3d020b56a98f3f0c143701f76c86e" target="_top" xlink:title="Returns the PPM quasi&#45;fourth order edge value at k+1/2 following equation 1.6 in Colella &amp; Woodward...">
<polygon fill="white" stroke="black" points="428,-126 428,-156 526,-156 526,-126 428,-126"/>
<text text-anchor="start" x="436" y="-144" font-family="Helvetica,sans-Serif" font-size="10.00">mom_neutral_diffusion</text>
<text text-anchor="middle" x="477" y="-133" font-family="Helvetica,sans-Serif" font-size="10.00">::ppm_edge</text>
</a>
</g>
</g>
<!-- Node134&#45;&gt;Node138 -->
<g id="edge10" class="edge"><title>Node134&#45;&gt;Node138</title>
<path fill="none" stroke="midnightblue" d="M382.606,-107.101C395.951,-111.945 410.887,-117.366 424.834,-122.428"/>
<polygon fill="midnightblue" stroke="midnightblue" points="423.705,-125.742 434.299,-125.864 426.093,-119.162 423.705,-125.742"/>
</g>
<!-- Node136 -->
<g id="node8" class="node"><title>Node136</title>
<g id="a_node8"><a xlink:href="../../d8/da4/namespacemom__neutral__diffusion.html#a1c5ac28d7c54581cdd872fe58ef0b204" target="_top" xlink:title="Returns the cell&#45;centered second&#45;order finite volume (unlimited PLM) slope using three consecutive ce...">
<polygon fill="white" stroke="black" points="562,-192 562,-222 660,-222 660,-192 562,-192"/>
<text text-anchor="start" x="570" y="-210" font-family="Helvetica,sans-Serif" font-size="10.00">mom_neutral_diffusion</text>
<text text-anchor="middle" x="611" y="-199" font-family="Helvetica,sans-Serif" font-size="10.00">::fv_diff</text>
</a>
</g>
</g>
<!-- Node135&#45;&gt;Node136 -->
<g id="edge8" class="edge"><title>Node135&#45;&gt;Node136</title>
<path fill="none" stroke="midnightblue" d="M511.972,-107.036C516.854,-109.746 521.68,-112.753 526,-116 552.168,-135.667 576.921,-164.128 592.687,-183.966"/>
<polygon fill="midnightblue" stroke="midnightblue" points="589.959,-186.16 598.871,-191.89 595.477,-181.853 589.959,-186.16"/>
</g>
<!-- Node137 -->
<g id="node9" class="node"><title>Node137</title>
<g id="a_node9"><a xlink:href="../../d8/da4/namespacemom__neutral__diffusion.html#a6ed3814088af470ad6fc4a3a80926fd7" target="_top" xlink:title="Returns the cell&#45;centered second&#45;order weighted least squares slope using three consecutive cell widt...">
<polygon fill="white" stroke="black" points="562,-55 562,-85 660,-85 660,-55 562,-55"/>
<text text-anchor="start" x="570" y="-73" font-family="Helvetica,sans-Serif" font-size="10.00">mom_neutral_diffusion</text>
<text text-anchor="middle" x="611" y="-62" font-family="Helvetica,sans-Serif" font-size="10.00">::fvlsq_slope</text>
</a>
</g>
</g>
<!-- Node135&#45;&gt;Node137 -->
<g id="edge9" class="edge"><title>Node135&#45;&gt;Node137</title>
<path fill="none" stroke="midnightblue" d="M526.028,-83.9953C534.4,-82.6001 543.188,-81.1353 551.798,-79.7004"/>
<polygon fill="midnightblue" stroke="midnightblue" points="552.498,-83.1321 561.786,-78.0356 551.347,-76.2273 552.498,-83.1321"/>
</g>
<!-- Node140&#45;&gt;Node134 -->
<g id="edge13" class="edge"><title>Node140&#45;&gt;Node134</title>
<path fill="none" stroke="midnightblue" d="M252.357,-116.388C261.678,-113.765 271.53,-110.991 281.118,-108.293"/>
<polygon fill="midnightblue" stroke="midnightblue" points="282.303,-111.595 290.981,-105.517 280.407,-104.857 282.303,-111.595"/>
</g>
<!-- Node141 -->
<g id="node13" class="node"><title>Node141</title>
<g id="a_node13"><a xlink:href="../../d8/da4/namespacemom__neutral__diffusion.html#a6931d9a07d09aa5d76d5abd2e47a54df" target="_top" xlink:title="Returns the average of a PPM reconstruction between two fractional positions. ">
<polygon fill="white" stroke="black" points="291,-126 291,-156 389,-156 389,-126 291,-126"/>
<text text-anchor="start" x="299" y="-144" font-family="Helvetica,sans-Serif" font-size="10.00">mom_neutral_diffusion</text>
<text text-anchor="middle" x="340" y="-133" font-family="Helvetica,sans-Serif" font-size="10.00">::ppm_ave</text>
</a>
</g>
</g>
<!-- Node140&#45;&gt;Node141 -->
<g id="edge14" class="edge"><title>Node140&#45;&gt;Node141</title>
<path fill="none" stroke="midnightblue" d="M252.357,-133.94C261.58,-134.692 271.323,-135.486 280.815,-136.259"/>
<polygon fill="midnightblue" stroke="midnightblue" points="280.73,-139.764 290.981,-137.087 281.298,-132.787 280.73,-139.764"/>
</g>
<!-- Node143&#45;&gt;Node136 -->
<g id="edge17" class="edge"><title>Node143&#45;&gt;Node136</title>
<path fill="none" stroke="midnightblue" d="M492.126,-286.475C512.771,-272.556 551.708,-246.303 579.17,-227.787"/>
<polygon fill="midnightblue" stroke="midnightblue" points="581.311,-230.565 587.645,-222.072 577.397,-224.761 581.311,-230.565"/>
</g>
<!-- Node144&#45;&gt;Node137 -->
<g id="edge19" class="edge"><title>Node144&#45;&gt;Node137</title>
<path fill="none" stroke="midnightblue" d="M513.721,-53.9535C525.409,-55.9015 538.714,-58.119 551.625,-60.2708"/>
<polygon fill="midnightblue" stroke="midnightblue" points="551.417,-63.7843 561.856,-61.976 552.568,-56.8796 551.417,-63.7843"/>
</g>
<!-- Node145&#45;&gt;Node133 -->
<g id="edge21" class="edge"><title>Node145&#45;&gt;Node133</title>
<path fill="none" stroke="midnightblue" d="M228.761,-218.42C242.569,-221.999 260.431,-226.63 277.74,-231.118"/>
<polygon fill="midnightblue" stroke="midnightblue" points="277.275,-234.613 287.833,-233.734 279.031,-227.837 277.275,-234.613"/>
</g>
<!-- Node147 -->
<g id="node19" class="node"><title>Node147</title>
<g id="a_node19"><a xlink:href="../../d8/da4/MOM__neutral__diffusion_8F90.html#ace087b00a2f2ca6b9eb2bf0faf75d63d" target="_top" xlink:title="Compares a single row, k, of output from find_neutral_surface_positions() ">
<polygon fill="white" stroke="black" points="298.5,-0.5 298.5,-19.5 381.5,-19.5 381.5,-0.5 298.5,-0.5"/>
<text text-anchor="middle" x="340" y="-7.5" font-family="Helvetica,sans-Serif" font-size="10.00">compare_nsp_row</text>
</a>
</g>
</g>
<!-- Node146&#45;&gt;Node147 -->
<g id="edge23" class="edge"><title>Node146&#45;&gt;Node147</title>
<path fill="none" stroke="midnightblue" d="M226.596,-10C243.367,-10 266.908,-10 288.115,-10"/>
<polygon fill="midnightblue" stroke="midnightblue" points="288.298,-13.5001 298.298,-10 288.298,-6.5001 288.298,-13.5001"/>
</g>
</g>
</svg>
        <g id="navigator" transform="translate(0 0)" fill="#404254">
                <rect fill="#f2f5e9" fill-opacity="0.5" stroke="#606060" stroke-width=".5" x="0" y="0" width="60" height="60"/>
                <use id="zoomplus" xlink:href="#zoomPlus" x="17" y="9" onmousedown="handleZoom(evt,'in')"/>
                <use id="zoomminus" xlink:href="#zoomMin" x="42" y="9" onmousedown="handleZoom(evt,'out')"/>
                <use id="reset" xlink:href="#resetDef" x="30" y="36" onmousedown="handleReset()"/>
                <g id="arrowUp" xlink:href="#dirArrow" transform="translate(30 24)" onmousedown="handlePan(0,-1)">
                  <use xlink:href="#rim" fill="#404040">
                        <set attributeName="fill" to="#808080" begin="arrowUp.mouseover" end="arrowUp.mouseout"/>
                  </use>
                  <path fill="none" stroke="white" stroke-width="1.5" d="M0,-3.0v7 M-2.5,-0.5L0,-3.0L2.5,-0.5"/>
                </g>
                <g id="arrowRight" xlink:href="#dirArrow" transform="rotate(90) translate(36 -43)" onmousedown="handlePan(1,0)">
                  <use xlink:href="#rim" fill="#404040">
                        <set attributeName="fill" to="#808080" begin="arrowRight.mouseover" end="arrowRight.mouseout"/>
                  </use>
                  <path fill="none" stroke="white" stroke-width="1.5" d="M0,-3.0v7 M-2.5,-0.5L0,-3.0L2.5,-0.5"/>
                </g>
                <g id="arrowDown" xlink:href="#dirArrow" transform="rotate(180) translate(-30 -48)" onmousedown="handlePan(0,1)">
                  <use xlink:href="#rim" fill="#404040">
                        <set attributeName="fill" to="#808080" begin="arrowDown.mouseover" end="arrowDown.mouseout"/>
                  </use>
                  <path fill="none" stroke="white" stroke-width="1.5" d="M0,-3.0v7 M-2.5,-0.5L0,-3.0L2.5,-0.5"/>
                </g>
                <g id="arrowLeft" xlink:href="#dirArrow" transform="rotate(270) translate(-36 17)" onmousedown="handlePan(-1,0)">
                  <use xlink:href="#rim" fill="#404040">
                        <set attributeName="fill" to="#808080" begin="arrowLeft.mouseover" end="arrowLeft.mouseout"/>
                  </use>
                  <path fill="none" stroke="white" stroke-width="1.5" d="M0,-3.0v7 M-2.5,-0.5L0,-3.0L2.5,-0.5"/>
                </g>
        </g>
        <svg viewBox="0 0 15 15" width="100%" height="30px" preserveAspectRatio="xMaxYMin meet">
         <g id="arrow_out" transform="scale(0.3 0.3)">
          <a xlink:href="namespacemom__neutral__diffusion_ae21f026dc5c73f2304ab6cbc230b9fb0_cgraph_org.svg" target="_base">
           <rect id="button" ry="5" rx="5" y="6" x="6" height="38" width="38"
                fill="#f2f5e9" fill-opacity="0.5" stroke="#606060" stroke-width="1.0"/>
           <path id="arrow"
             d="M 11.500037,31.436501 C 11.940474,20.09759 22.043105,11.32322 32.158766,21.979434 L 37.068811,17.246167 C 37.068811,17.246167 37.088388,32 37.088388,32 L 22.160133,31.978069 C 22.160133,31.978069 26.997745,27.140456 26.997745,27.140456 C 18.528582,18.264221 13.291696,25.230495 11.500037,31.436501 z"
             style="fill:#404040;"/>
          </a>
         </g>
        </svg>
</svg>
