<?xml version="1.0" encoding="UTF-8" standalone="no"?>
<!DOCTYPE svg PUBLIC "-//W3C//DTD SVG 1.1//EN"
 "http://www.w3.org/Graphics/SVG/1.1/DTD/svg11.dtd">
<!-- Generated by graphviz version 2.38.0 (20140413.2041)
 -->
<!-- Title: mom_neutral_diffusion::neutral_diffusion_diag_init Pages: 1 -->
<svg width="772pt" height="664pt"
 viewBox="0.00 0.00 772.00 664.00" xmlns="http://www.w3.org/2000/svg" xmlns:xlink="http://www.w3.org/1999/xlink">
<g id="graph0" class="graph" transform="scale(1 1) rotate(0) translate(4 660)">
<title>mom_neutral_diffusion::neutral_diffusion_diag_init</title>
<polygon fill="white" stroke="none" points="-4,4 -4,-660 768,-660 768,4 -4,4"/>
<!-- Node104 -->
<g id="node1" class="node"><title>Node104</title>
<polygon fill="#bfbfbf" stroke="black" points="0,-328.5 0,-358.5 113,-358.5 113,-328.5 0,-328.5"/>
<text text-anchor="start" x="8" y="-346.5" font-family="Helvetica,sans-Serif" font-size="10.00">mom_neutral_diffusion</text>
<text text-anchor="middle" x="56.5" y="-335.5" font-family="Helvetica,sans-Serif" font-size="10.00">::neutral_diffusion_diag_init</text>
</g>
<!-- Node105 -->
<g id="node2" class="node"><title>Node105</title>
<g id="a_node2"><a xlink:href="../../d9/d06/namespacemom__diag__mediator.html#aab2007573b14ed73053282770d1b19a4" target="_top" xlink:title="mom_diag_mediator::\lregister_diag_field">
<polygon fill="white" stroke="black" points="149,-328.5 149,-358.5 244,-358.5 244,-328.5 149,-328.5"/>
<text text-anchor="start" x="157" y="-346.5" font-family="Helvetica,sans-Serif" font-size="10.00">mom_diag_mediator::</text>
<text text-anchor="middle" x="196.5" y="-335.5" font-family="Helvetica,sans-Serif" font-size="10.00">register_diag_field</text>
</a>
</g>
</g>
<!-- Node104&#45;&gt;Node105 -->
<g id="edge1" class="edge"><title>Node104&#45;&gt;Node105</title>
<path fill="none" stroke="midnightblue" d="M113.232,-343.5C121.635,-343.5 130.31,-343.5 138.734,-343.5"/>
<polygon fill="midnightblue" stroke="midnightblue" points="138.85,-347 148.85,-343.5 138.85,-340 138.85,-347"/>
</g>
<!-- Node106 -->
<g id="node3" class="node"><title>Node106</title>
<g id="a_node3"><a xlink:href="../../d9/d06/namespacemom__diag__mediator.html#a1b0bed2113a0c268eafd1bafbb48bd4f" target="_top" xlink:title="mom_diag_mediator::\lalloc_diag_with_id">
<polygon fill="white" stroke="black" points="280,-625.5 280,-655.5 375,-655.5 375,-625.5 280,-625.5"/>
<text text-anchor="start" x="288" y="-643.5" font-family="Helvetica,sans-Serif" font-size="10.00">mom_diag_mediator::</text>
<text text-anchor="middle" x="327.5" y="-632.5" font-family="Helvetica,sans-Serif" font-size="10.00">alloc_diag_with_id</text>
</a>
</g>
</g>
<!-- Node105&#45;&gt;Node106 -->
<g id="edge2" class="edge"><title>Node105&#45;&gt;Node106</title>
<path fill="none" stroke="midnightblue" d="M198.598,-358.711C202.439,-402.264 218.588,-529.508 280,-610.5 282.413,-613.682 285.267,-616.621 288.357,-619.313"/>
<polygon fill="midnightblue" stroke="midnightblue" points="286.341,-622.178 296.404,-625.491 290.604,-616.625 286.341,-622.178"/>
</g>
<!-- Node107 -->
<g id="node4" class="node"><title>Node107</title>
<g id="a_node4"><a xlink:href="../../d9/d06/namespacemom__diag__mediator.html#a6e11afe7a97bf8e3333d33b0aebd6f6e" target="_top" xlink:title="mom_diag_mediator::\lassert">
<polygon fill="white" stroke="black" points="411,-488.5 411,-518.5 506,-518.5 506,-488.5 411,-488.5"/>
<text text-anchor="start" x="419" y="-506.5" font-family="Helvetica,sans-Serif" font-size="10.00">mom_diag_mediator::</text>
<text text-anchor="middle" x="458.5" y="-495.5" font-family="Helvetica,sans-Serif" font-size="10.00">assert</text>
</a>
</g>
</g>
<!-- Node105&#45;&gt;Node107 -->
<g id="edge3" class="edge"><title>Node105&#45;&gt;Node107</title>
<path fill="none" stroke="midnightblue" d="M201.69,-358.659C210.648,-387.927 234.634,-451.93 280,-481.5 315.429,-504.593 363.4,-509.341 400.54,-508.728"/>
<polygon fill="midnightblue" stroke="midnightblue" points="400.818,-512.221 410.709,-508.424 400.609,-505.224 400.818,-512.221"/>
</g>
<!-- Node108 -->
<g id="node5" class="node"><title>Node108</title>
<g id="a_node5"><a xlink:href="../../d0/de6/namespacemom__error__handler.html#a460cfb79a06c29fc249952c2a3710d67" target="_top" xlink:title="mom_error_handler::\lmom_error">
<polygon fill="white" stroke="black" points="542,-512.5 542,-542.5 635,-542.5 635,-512.5 542,-512.5"/>
<text text-anchor="start" x="550" y="-530.5" font-family="Helvetica,sans-Serif" font-size="10.00">mom_error_handler::</text>
<text text-anchor="middle" x="588.5" y="-519.5" font-family="Helvetica,sans-Serif" font-size="10.00">mom_error</text>
</a>
</g>
</g>
<!-- Node105&#45;&gt;Node108 -->
<g id="edge18" class="edge"><title>Node105&#45;&gt;Node108</title>
<path fill="none" stroke="midnightblue" d="M217.4,-358.572C233.453,-369.961 257.06,-385.033 280,-393.5 375.486,-428.742 417.528,-380.179 506,-430.5 536.415,-447.799 560.501,-481.056 574.379,-503.757"/>
<polygon fill="midnightblue" stroke="midnightblue" points="571.425,-505.638 579.524,-512.47 577.453,-502.079 571.425,-505.638"/>
</g>
<!-- Node109 -->
<g id="node6" class="node"><title>Node109</title>
<g id="a_node6"><a xlink:href="../../d0/de6/namespacemom__error__handler.html#ad5f00a53059c72fe2332d1436c80ca71" target="_top" xlink:title="mom_error_handler::\lis_root_pe">
<polygon fill="white" stroke="black" points="671,-546.5 671,-576.5 764,-576.5 764,-546.5 671,-546.5"/>
<text text-anchor="start" x="679" y="-564.5" font-family="Helvetica,sans-Serif" font-size="10.00">mom_error_handler::</text>
<text text-anchor="middle" x="717.5" y="-553.5" font-family="Helvetica,sans-Serif" font-size="10.00">is_root_pe</text>
</a>
</g>
</g>
<!-- Node105&#45;&gt;Node109 -->
<g id="edge13" class="edge"><title>Node105&#45;&gt;Node109</title>
<path fill="none" stroke="midnightblue" d="M199.311,-358.747C204.543,-395.839 223.131,-491.411 280,-541.5 386.175,-635.017 569.329,-602.886 660.941,-578.552"/>
<polygon fill="midnightblue" stroke="midnightblue" points="662.119,-581.858 670.849,-575.855 660.281,-575.104 662.119,-581.858"/>
</g>
<!-- Node110 -->
<g id="node7" class="node"><title>Node110</title>
<g id="a_node7"><a xlink:href="../../d9/d06/namespacemom__diag__mediator.html#a93abbf0b9659019bed9a2129ab292752" target="_top" xlink:title="Attaches &quot;cell_methods&quot; attribute to a variable based on defaults for axes_grp or optional arguments...">
<polygon fill="white" stroke="black" points="411,-537.5 411,-567.5 506,-567.5 506,-537.5 411,-537.5"/>
<text text-anchor="start" x="419" y="-555.5" font-family="Helvetica,sans-Serif" font-size="10.00">mom_diag_mediator::</text>
<text text-anchor="middle" x="458.5" y="-544.5" font-family="Helvetica,sans-Serif" font-size="10.00">attach_cell_methods</text>
</a>
</g>
</g>
<!-- Node105&#45;&gt;Node110 -->
<g id="edge6" class="edge"><title>Node105&#45;&gt;Node110</title>
<path fill="none" stroke="midnightblue" d="M200.662,-358.968C208.216,-391.839 230.495,-468.87 280,-508.5 314.096,-535.795 362.803,-546.461 400.573,-550.487"/>
<polygon fill="midnightblue" stroke="midnightblue" points="400.632,-554.008 410.915,-551.455 401.285,-547.039 400.632,-554.008"/>
</g>
<!-- Node111 -->
<g id="node8" class="node"><title>Node111</title>
<g id="a_node8"><a xlink:href="../../d9/d06/namespacemom__diag__mediator.html#a3f7442639213320f7429e2288a79fda2" target="_top" xlink:title="Returns a new diagnostic id, it may be necessary to expand the diagnostics array. ...">
<polygon fill="white" stroke="black" points="280,-441.5 280,-471.5 375,-471.5 375,-441.5 280,-441.5"/>
<text text-anchor="start" x="288" y="-459.5" font-family="Helvetica,sans-Serif" font-size="10.00">mom_diag_mediator::</text>
<text text-anchor="middle" x="327.5" y="-448.5" font-family="Helvetica,sans-Serif" font-size="10.00">get_new_diag_id</text>
</a>
</g>
</g>
<!-- Node105&#45;&gt;Node111 -->
<g id="edge8" class="edge"><title>Node105&#45;&gt;Node111</title>
<path fill="none" stroke="midnightblue" d="M210.64,-358.565C226.234,-375.987 253.474,-405.019 280,-426.5 283.812,-429.587 287.954,-432.637 292.142,-435.54"/>
<polygon fill="midnightblue" stroke="midnightblue" points="290.451,-438.62 300.712,-441.261 294.338,-432.798 290.451,-438.62"/>
</g>
<!-- Node113 -->
<g id="node10" class="node"><title>Node113</title>
<g id="a_node10"><a xlink:href="../../d9/d06/namespacemom__diag__mediator.html#a4b739f107cebe1ece8d29056c1144bff" target="_top" xlink:title="mom_diag_mediator::\lis_b_axes">
<polygon fill="white" stroke="black" points="280,-353.5 280,-383.5 375,-383.5 375,-353.5 280,-353.5"/>
<text text-anchor="start" x="288" y="-371.5" font-family="Helvetica,sans-Serif" font-size="10.00">mom_diag_mediator::</text>
<text text-anchor="middle" x="327.5" y="-360.5" font-family="Helvetica,sans-Serif" font-size="10.00">is_b_axes</text>
</a>
</g>
</g>
<!-- Node105&#45;&gt;Node113 -->
<g id="edge11" class="edge"><title>Node105&#45;&gt;Node113</title>
<path fill="none" stroke="midnightblue" d="M244.072,-352.526C252.475,-354.154 261.319,-355.868 269.969,-357.544"/>
<polygon fill="midnightblue" stroke="midnightblue" points="269.513,-361.021 279.996,-359.488 270.845,-354.149 269.513,-361.021"/>
</g>
<!-- Node114 -->
<g id="node11" class="node"><title>Node114</title>
<g id="a_node11"><a xlink:href="../../d9/d06/namespacemom__diag__mediator.html#a84370fa96e03622edbfd5e343bcd9718" target="_top" xlink:title="mom_diag_mediator::\lis_layer_axes">
<polygon fill="white" stroke="black" points="280,-304.5 280,-334.5 375,-334.5 375,-304.5 280,-304.5"/>
<text text-anchor="start" x="288" y="-322.5" font-family="Helvetica,sans-Serif" font-size="10.00">mom_diag_mediator::</text>
<text text-anchor="middle" x="327.5" y="-311.5" font-family="Helvetica,sans-Serif" font-size="10.00">is_layer_axes</text>
</a>
</g>
</g>
<!-- Node105&#45;&gt;Node114 -->
<g id="edge12" class="edge"><title>Node105&#45;&gt;Node114</title>
<path fill="none" stroke="midnightblue" d="M244.072,-334.835C252.475,-333.272 261.319,-331.627 269.969,-330.017"/>
<polygon fill="midnightblue" stroke="midnightblue" points="270.805,-333.422 279.996,-328.152 269.525,-326.54 270.805,-333.422"/>
</g>
<!-- Node115 -->
<g id="node12" class="node"><title>Node115</title>
<g id="a_node12"><a xlink:href="../../d9/d06/namespacemom__diag__mediator.html#a27fa63c9ff62b660bf457adbb8645bdf" target="_top" xlink:title="mom_diag_mediator::\lis_u_axes">
<polygon fill="white" stroke="black" points="280,-255.5 280,-285.5 375,-285.5 375,-255.5 280,-255.5"/>
<text text-anchor="start" x="288" y="-273.5" font-family="Helvetica,sans-Serif" font-size="10.00">mom_diag_mediator::</text>
<text text-anchor="middle" x="327.5" y="-262.5" font-family="Helvetica,sans-Serif" font-size="10.00">is_u_axes</text>
</a>
</g>
</g>
<!-- Node105&#45;&gt;Node115 -->
<g id="edge14" class="edge"><title>Node105&#45;&gt;Node115</title>
<path fill="none" stroke="midnightblue" d="M223.014,-328.358C239.25,-318.797 260.767,-306.261 280,-295.5 282.88,-293.889 285.869,-292.236 288.88,-290.586"/>
<polygon fill="midnightblue" stroke="midnightblue" points="290.778,-293.538 297.891,-285.686 287.434,-287.388 290.778,-293.538"/>
</g>
<!-- Node116 -->
<g id="node13" class="node"><title>Node116</title>
<g id="a_node13"><a xlink:href="../../d9/d06/namespacemom__diag__mediator.html#a9a30d653d812713d6fcff94f6f1fc3e6" target="_top" xlink:title="mom_diag_mediator::\lis_v_axes">
<polygon fill="white" stroke="black" points="280,-206.5 280,-236.5 375,-236.5 375,-206.5 280,-206.5"/>
<text text-anchor="start" x="288" y="-224.5" font-family="Helvetica,sans-Serif" font-size="10.00">mom_diag_mediator::</text>
<text text-anchor="middle" x="327.5" y="-213.5" font-family="Helvetica,sans-Serif" font-size="10.00">is_v_axes</text>
</a>
</g>
</g>
<!-- Node105&#45;&gt;Node116 -->
<g id="edge15" class="edge"><title>Node105&#45;&gt;Node116</title>
<path fill="none" stroke="midnightblue" d="M207.768,-328.167C222.091,-307.632 249.737,-270.955 280,-246.5 281.796,-245.049 283.688,-243.641 285.641,-242.283"/>
<polygon fill="midnightblue" stroke="midnightblue" points="287.921,-244.981 294.476,-236.658 284.161,-239.076 287.921,-244.981"/>
</g>
<!-- Node117 -->
<g id="node14" class="node"><title>Node117</title>
<g id="a_node14"><a xlink:href="../../d9/d06/namespacemom__diag__mediator.html#a65fe8d329cf5dbfd08c98874a7a64407" target="_top" xlink:title="Log a diagnostic to the available diagnostics file. ">
<polygon fill="white" stroke="black" points="280,-157.5 280,-187.5 375,-187.5 375,-157.5 280,-157.5"/>
<text text-anchor="start" x="288" y="-175.5" font-family="Helvetica,sans-Serif" font-size="10.00">mom_diag_mediator::</text>
<text text-anchor="middle" x="327.5" y="-164.5" font-family="Helvetica,sans-Serif" font-size="10.00">log_available_diag</text>
</a>
</g>
</g>
<!-- Node105&#45;&gt;Node117 -->
<g id="edge16" class="edge"><title>Node105&#45;&gt;Node117</title>
<path fill="none" stroke="midnightblue" d="M202.736,-328.468C213.349,-299.832 239.852,-236.812 280,-197.5 281.424,-196.105 282.942,-194.767 284.528,-193.486"/>
<polygon fill="midnightblue" stroke="midnightblue" points="286.76,-196.194 292.896,-187.557 282.713,-190.482 286.76,-196.194"/>
</g>
<!-- Node119 -->
<g id="node16" class="node"><title>Node119</title>
<g id="a_node16"><a xlink:href="../../d9/d06/namespacemom__diag__mediator.html#aca4a32fea8dade9f51e076a56b9bad2b" target="_top" xlink:title="Returns ID from register_diag_field_fms (the diag_manager routine) after expanding axes (axes&#45;group) ...">
<polygon fill="white" stroke="black" points="280,-98 280,-139 375,-139 375,-98 280,-98"/>
<text text-anchor="start" x="288" y="-127" font-family="Helvetica,sans-Serif" font-size="10.00">mom_diag_mediator::</text>
<text text-anchor="start" x="288" y="-116" font-family="Helvetica,sans-Serif" font-size="10.00">register_diag_field</text>
<text text-anchor="middle" x="327.5" y="-105" font-family="Helvetica,sans-Serif" font-size="10.00">_expand_axes</text>
</a>
</g>
</g>
<!-- Node105&#45;&gt;Node119 -->
<g id="edge19" class="edge"><title>Node105&#45;&gt;Node119</title>
<path fill="none" stroke="midnightblue" d="M200.645,-328.458C208.594,-293.451 232.337,-205.198 280,-148.5 280.711,-147.654 281.452,-146.824 282.219,-146.01"/>
<polygon fill="midnightblue" stroke="midnightblue" points="284.721,-148.463 289.705,-139.113 279.979,-143.314 284.721,-148.463"/>
</g>
<!-- Node120 -->
<g id="node17" class="node"><title>Node120</title>
<g id="a_node17"><a xlink:href="../../d9/d06/namespacemom__diag__mediator.html#a085f313357879a914af6450f2ab8ec79" target="_top" xlink:title="mom_diag_mediator::\lset_diag_mask">
<polygon fill="white" stroke="black" points="280,-49.5 280,-79.5 375,-79.5 375,-49.5 280,-49.5"/>
<text text-anchor="start" x="288" y="-67.5" font-family="Helvetica,sans-Serif" font-size="10.00">mom_diag_mediator::</text>
<text text-anchor="middle" x="327.5" y="-56.5" font-family="Helvetica,sans-Serif" font-size="10.00">set_diag_mask</text>
</a>
</g>
</g>
<!-- Node105&#45;&gt;Node120 -->
<g id="edge20" class="edge"><title>Node105&#45;&gt;Node120</title>
<path fill="none" stroke="midnightblue" d="M198.459,-328.369C201.91,-285.69 217.083,-162.652 280,-88.5 280.617,-87.7726 281.262,-87.0646 281.931,-86.3754"/>
<polygon fill="midnightblue" stroke="midnightblue" points="284.472,-88.8116 289.879,-79.7 279.97,-83.4515 284.472,-88.8116"/>
</g>
<!-- Node121 -->
<g id="node18" class="node"><title>Node121</title>
<g id="a_node18"><a xlink:href="../../d9/d06/namespacemom__diag__mediator.html#a5d1e1aa53cdd6bb335a6f841eded4f46" target="_top" xlink:title="mom_diag_mediator::\lset_diag_remap_axes">
<polygon fill="white" stroke="black" points="280,-0.5 280,-30.5 375,-30.5 375,-0.5 280,-0.5"/>
<text text-anchor="start" x="288" y="-18.5" font-family="Helvetica,sans-Serif" font-size="10.00">mom_diag_mediator::</text>
<text text-anchor="middle" x="327.5" y="-7.5" font-family="Helvetica,sans-Serif" font-size="10.00">set_diag_remap_axes</text>
</a>
</g>
</g>
<!-- Node105&#45;&gt;Node121 -->
<g id="edge21" class="edge"><title>Node105&#45;&gt;Node121</title>
<path fill="none" stroke="midnightblue" d="M197.584,-328.42C198.611,-280.797 207.736,-131.402 280,-40.5 280.834,-39.4507 281.725,-38.4397 282.663,-37.466"/>
<polygon fill="midnightblue" stroke="midnightblue" points="285.26,-39.8525 290.627,-30.7171 280.735,-34.5121 285.26,-39.8525"/>
</g>
<!-- Node107&#45;&gt;Node108 -->
<g id="edge4" class="edge"><title>Node107&#45;&gt;Node108</title>
<path fill="none" stroke="midnightblue" d="M506.073,-512.232C514.396,-513.793 523.145,-515.433 531.695,-517.037"/>
<polygon fill="midnightblue" stroke="midnightblue" points="531.13,-520.492 541.604,-518.895 532.42,-513.611 531.13,-520.492"/>
</g>
<!-- Node108&#45;&gt;Node109 -->
<g id="edge5" class="edge"><title>Node108&#45;&gt;Node109</title>
<path fill="none" stroke="midnightblue" d="M635.35,-539.775C643.623,-541.99 652.33,-544.321 660.846,-546.6"/>
<polygon fill="midnightblue" stroke="midnightblue" points="660.152,-550.038 670.717,-549.243 661.963,-543.276 660.152,-550.038"/>
</g>
<!-- Node110&#45;&gt;Node108 -->
<g id="edge7" class="edge"><title>Node110&#45;&gt;Node108</title>
<path fill="none" stroke="midnightblue" d="M506.073,-543.404C514.396,-541.778 523.145,-540.069 531.695,-538.399"/>
<polygon fill="midnightblue" stroke="midnightblue" points="532.46,-541.816 541.604,-536.464 531.119,-534.946 532.46,-541.816"/>
</g>
<!-- Node111&#45;&gt;Node107 -->
<g id="edge9" class="edge"><title>Node111&#45;&gt;Node107</title>
<path fill="none" stroke="midnightblue" d="M369.671,-471.5C381.424,-475.782 394.371,-480.5 406.63,-484.966"/>
<polygon fill="midnightblue" stroke="midnightblue" points="405.684,-488.346 416.278,-488.481 408.08,-481.769 405.684,-488.346"/>
</g>
<!-- Node112 -->
<g id="node9" class="node"><title>Node112</title>
<g id="a_node9"><a xlink:href="../../d9/d06/namespacemom__diag__mediator.html#a883862f004e30bbc5211f38635511ba0" target="_top" xlink:title="Initializes a diag_type (used after allocating new memory) ">
<polygon fill="white" stroke="black" points="411,-439.5 411,-469.5 506,-469.5 506,-439.5 411,-439.5"/>
<text text-anchor="start" x="419" y="-457.5" font-family="Helvetica,sans-Serif" font-size="10.00">mom_diag_mediator::</text>
<text text-anchor="middle" x="458.5" y="-446.5" font-family="Helvetica,sans-Serif" font-size="10.00">initialize_diag_type</text>
</a>
</g>
</g>
<!-- Node111&#45;&gt;Node112 -->
<g id="edge10" class="edge"><title>Node111&#45;&gt;Node112</title>
<path fill="none" stroke="midnightblue" d="M375.072,-455.778C383.475,-455.648 392.319,-455.511 400.969,-455.376"/>
<polygon fill="midnightblue" stroke="midnightblue" points="401.052,-458.876 410.996,-455.221 400.943,-451.877 401.052,-458.876"/>
</g>
<!-- Node118 -->
<g id="node15" class="node"><title>Node118</title>
<g id="a_node15"><a xlink:href="../../d9/d06/namespacemom__diag__mediator.html#ae002ca447acba252bf7bdc042e75a01e" target="_top" xlink:title="mom_diag_mediator::\ldescribe_option">
<polygon fill="white" stroke="black" points="411,-157.5 411,-187.5 506,-187.5 506,-157.5 411,-157.5"/>
<text text-anchor="start" x="419" y="-175.5" font-family="Helvetica,sans-Serif" font-size="10.00">mom_diag_mediator::</text>
<text text-anchor="middle" x="458.5" y="-164.5" font-family="Helvetica,sans-Serif" font-size="10.00">describe_option</text>
</a>
</g>
</g>
<!-- Node117&#45;&gt;Node118 -->
<g id="edge17" class="edge"><title>Node117&#45;&gt;Node118</title>
<path fill="none" stroke="midnightblue" d="M375.072,-172.5C383.475,-172.5 392.319,-172.5 400.969,-172.5"/>
<polygon fill="midnightblue" stroke="midnightblue" points="400.996,-176 410.996,-172.5 400.996,-169 400.996,-176"/>
</g>
</g>
</svg>
