<?xml version="1.0" encoding="UTF-8" standalone="no"?>
<!DOCTYPE svg PUBLIC "-//W3C//DTD SVG 1.1//EN"
 "http://www.w3.org/Graphics/SVG/1.1/DTD/svg11.dtd">
<!-- Generated by graphviz version 2.38.0 (20140413.2041)
 -->
<!-- Title: mom_neutral_diffusion::neutral_surface_flux Pages: 1 -->
<svg width="687pt" height="88pt"
 viewBox="0.00 0.00 687.00 88.00" xmlns="http://www.w3.org/2000/svg" xmlns:xlink="http://www.w3.org/1999/xlink">
<g id="graph0" class="graph" transform="scale(1 1) rotate(0) translate(4 84)">
<title>mom_neutral_diffusion::neutral_surface_flux</title>
<polygon fill="white" stroke="none" points="-4,4 -4,-84 683,-84 683,4 -4,4"/>
<!-- Node157 -->
<g id="node1" class="node"><title>Node157</title>
<polygon fill="#bfbfbf" stroke="black" points="0,-24.5 0,-54.5 115,-54.5 115,-24.5 0,-24.5"/>
<text text-anchor="start" x="8" y="-42.5" font-family="Helvetica,sans-Serif" font-size="10.00">mom_neutral_diffusion</text>
<text text-anchor="middle" x="57.5" y="-31.5" font-family="Helvetica,sans-Serif" font-size="10.00">::neutral_surface_flux</text>
</g>
<!-- Node158 -->
<g id="node2" class="node"><title>Node158</title>
<g id="a_node2"><a xlink:href="../../d8/da4/namespacemom__neutral__diffusion.html#a0aa7d320b2d623791e7de7d879930a64" target="_top" xlink:title="Update tracer concentration due to neutral diffusion; layer thickness unchanged by this update...">
<polygon fill="white" stroke="black" points="164.5,-49.5 164.5,-79.5 279.5,-79.5 279.5,-49.5 164.5,-49.5"/>
<text text-anchor="start" x="172.5" y="-67.5" font-family="Helvetica,sans-Serif" font-size="10.00">mom_neutral_diffusion</text>
<text text-anchor="middle" x="222" y="-56.5" font-family="Helvetica,sans-Serif" font-size="10.00">::neutral_diffusion</text>
</a>
</g>
</g>
<!-- Node157&#45;&gt;Node158 -->
<g id="edge1" class="edge"><title>Node157&#45;&gt;Node158</title>
<path fill="none" stroke="midnightblue" d="M125.57,-49.8185C138.498,-51.8074 151.92,-53.8723 164.472,-55.8034"/>
<polygon fill="midnightblue" stroke="midnightblue" points="125.751,-46.3051 115.335,-48.2438 124.686,-53.2237 125.751,-46.3051"/>
</g>
<!-- Node160 -->
<g id="node4" class="node"><title>Node160</title>
<g id="a_node4"><a xlink:href="../../d8/da4/namespacemom__neutral__diffusion.html#ae21f026dc5c73f2304ab6cbc230b9fb0" target="_top" xlink:title="Returns true if unit tests of neutral_diffusion functions fail. Otherwise returns false...">
<polygon fill="white" stroke="black" points="151,-0.5 151,-30.5 293,-30.5 293,-0.5 151,-0.5"/>
<text text-anchor="start" x="159" y="-18.5" font-family="Helvetica,sans-Serif" font-size="10.00">mom_neutral_diffusion</text>
<text text-anchor="middle" x="222" y="-7.5" font-family="Helvetica,sans-Serif" font-size="10.00">::neutral_diffusion_unit_tests</text>
</a>
</g>
</g>
<!-- Node157&#45;&gt;Node160 -->
<g id="edge3" class="edge"><title>Node157&#45;&gt;Node160</title>
<path fill="none" stroke="midnightblue" d="M125.409,-29.618C133.774,-28.3826 142.349,-27.1162 150.762,-25.8735"/>
<polygon fill="midnightblue" stroke="midnightblue" points="124.716,-26.1824 115.335,-31.106 125.739,-33.1072 124.716,-26.1824"/>
</g>
<!-- Node159 -->
<g id="node3" class="node"><title>Node159</title>
<g id="a_node3"><a xlink:href="../../da/db2/namespacemom__tracer__hor__diff.html#a069e22612062290389c2630c7f90ede2" target="_top" xlink:title="Compute along&#45;coordinate diffusion of all tracers using the diffusivity in CSKhTr, or using space&#45;dependent diffusivity. Multiple iterations are used (if necessary) so that there is no limit on the acceptable time increment. ">
<polygon fill="white" stroke="black" points="329,-49.5 329,-79.5 435,-79.5 435,-49.5 329,-49.5"/>
<text text-anchor="start" x="337" y="-67.5" font-family="Helvetica,sans-Serif" font-size="10.00">mom_tracer_hor_diff</text>
<text text-anchor="middle" x="382" y="-56.5" font-family="Helvetica,sans-Serif" font-size="10.00">::tracer_hordiff</text>
</a>
</g>
</g>
<!-- Node158&#45;&gt;Node159 -->
<g id="edge2" class="edge"><title>Node158&#45;&gt;Node159</title>
<path fill="none" stroke="midnightblue" d="M289.889,-64.5C302.878,-64.5 316.315,-64.5 328.749,-64.5"/>
<polygon fill="midnightblue" stroke="midnightblue" points="289.595,-61.0001 279.595,-64.5 289.595,-68.0001 289.595,-61.0001"/>
</g>
<!-- Node161 -->
<g id="node5" class="node"><title>Node161</title>
<g id="a_node5"><a xlink:href="../../da/d01/namespacemom.html#ae77cfd2e790f1266b31d93c58659d46c" target="_top" xlink:title="Calls unit tests for other modules. These are NOT normally invoked and so we provide the module use s...">
<polygon fill="white" stroke="black" points="338.5,-6 338.5,-25 425.5,-25 425.5,-6 338.5,-6"/>
<text text-anchor="middle" x="382" y="-13" font-family="Helvetica,sans-Serif" font-size="10.00">mom::unit_tests</text>
</a>
</g>
</g>
<!-- Node160&#45;&gt;Node161 -->
<g id="edge4" class="edge"><title>Node160&#45;&gt;Node161</title>
<path fill="none" stroke="midnightblue" d="M303.321,-15.5C315.362,-15.5 327.362,-15.5 338.202,-15.5"/>
<polygon fill="midnightblue" stroke="midnightblue" points="303.221,-12.0001 293.221,-15.5 303.221,-19.0001 303.221,-12.0001"/>
</g>
<!-- Node162 -->
<g id="node6" class="node"><title>Node162</title>
<g id="a_node6"><a xlink:href="../../da/d01/namespacemom.html#a0be2869fef30e1e0604facfe1b41555d" target="_top" xlink:title="This subroutine initializes MOM. ">
<polygon fill="white" stroke="black" points="471,-6 471,-25 578,-25 578,-6 471,-6"/>
<text text-anchor="middle" x="524.5" y="-13" font-family="Helvetica,sans-Serif" font-size="10.00">mom::initialize_mom</text>
</a>
</g>
</g>
<!-- Node161&#45;&gt;Node162 -->
<g id="edge5" class="edge"><title>Node161&#45;&gt;Node162</title>
<path fill="none" stroke="midnightblue" d="M435.85,-15.5C447.325,-15.5 459.46,-15.5 470.925,-15.5"/>
<polygon fill="midnightblue" stroke="midnightblue" points="435.536,-12.0001 425.536,-15.5 435.536,-19.0001 435.536,-12.0001"/>
</g>
<!-- Node163 -->
<g id="node7" class="node"><title>Node163</title>
<g id="a_node7"><a xlink:href="../../de/dbc/MOM__driver_8F90.html#a08fffeb2d8e8acbf9ed4609be6d258c6" target="_top" xlink:title="mom_main">
<polygon fill="white" stroke="black" points="614,-6 614,-25 679,-25 679,-6 614,-6"/>
<text text-anchor="middle" x="646.5" y="-13" font-family="Helvetica,sans-Serif" font-size="10.00">mom_main</text>
</a>
</g>
</g>
<!-- Node162&#45;&gt;Node163 -->
<g id="edge6" class="edge"><title>Node162&#45;&gt;Node163</title>
<path fill="none" stroke="midnightblue" d="M588.206,-15.5C597.134,-15.5 605.983,-15.5 613.958,-15.5"/>
<polygon fill="midnightblue" stroke="midnightblue" points="588.134,-12.0001 578.134,-15.5 588.134,-19.0001 588.134,-12.0001"/>
</g>
</g>
</svg>
