<?xml version="1.0" encoding="UTF-8" standalone="no"?>
<!DOCTYPE svg PUBLIC "-//W3C//DTD SVG 1.1//EN"
 "http://www.w3.org/Graphics/SVG/1.1/DTD/svg11.dtd">
<!-- Generated by graphviz version 2.38.0 (20140413.2041)
 -->
<!-- Title: mom_neutral_diffusion::plm_diff Pages: 1 -->
<svg width="873pt" height="141pt"
 viewBox="0.00 0.00 873.00 140.50" xmlns="http://www.w3.org/2000/svg" xmlns:xlink="http://www.w3.org/1999/xlink">
<g id="graph0" class="graph" transform="scale(1 1) rotate(0) translate(4 136.5)">
<title>mom_neutral_diffusion::plm_diff</title>
<polygon fill="white" stroke="none" points="-4,4 -4,-136.5 869,-136.5 869,4 -4,4"/>
<!-- Node169 -->
<g id="node1" class="node"><title>Node169</title>
<polygon fill="#bfbfbf" stroke="black" points="0,-42.5 0,-72.5 98,-72.5 98,-42.5 0,-42.5"/>
<text text-anchor="start" x="8" y="-60.5" font-family="Helvetica,sans-Serif" font-size="10.00">mom_neutral_diffusion</text>
<text text-anchor="middle" x="49" y="-49.5" font-family="Helvetica,sans-Serif" font-size="10.00">::plm_diff</text>
</g>
<!-- Node170 -->
<g id="node2" class="node"><title>Node170</title>
<g id="a_node2"><a xlink:href="../../d8/da4/namespacemom__neutral__diffusion.html#afbc54a4e2f34af5d72c18dc96e354af7" target="_top" xlink:title="Returns interface scalar, Si, for a column of layer values, S. ">
<polygon fill="white" stroke="black" points="134,-42.5 134,-72.5 232,-72.5 232,-42.5 134,-42.5"/>
<text text-anchor="start" x="142" y="-60.5" font-family="Helvetica,sans-Serif" font-size="10.00">mom_neutral_diffusion</text>
<text text-anchor="middle" x="183" y="-49.5" font-family="Helvetica,sans-Serif" font-size="10.00">::interface_scalar</text>
</a>
</g>
</g>
<!-- Node169&#45;&gt;Node170 -->
<g id="edge1" class="edge"><title>Node169&#45;&gt;Node170</title>
<path fill="none" stroke="midnightblue" d="M108.292,-57.5C116.809,-57.5 125.5,-57.5 133.786,-57.5"/>
<polygon fill="midnightblue" stroke="midnightblue" points="108.028,-54.0001 98.0284,-57.5 108.028,-61.0001 108.028,-54.0001"/>
</g>
<!-- Node171 -->
<g id="node3" class="node"><title>Node171</title>
<g id="a_node3"><a xlink:href="../../d8/da4/namespacemom__neutral__diffusion.html#a53d5e3f8d7610b60644aaa9f44fd854e" target="_top" xlink:title="Calculate remapping factors for u/v columns used to map adjoining columns to a shared coordinate spac...">
<polygon fill="white" stroke="black" points="268,-91 268,-132 366,-132 366,-91 268,-91"/>
<text text-anchor="start" x="276" y="-120" font-family="Helvetica,sans-Serif" font-size="10.00">mom_neutral_diffusion</text>
<text text-anchor="start" x="276" y="-109" font-family="Helvetica,sans-Serif" font-size="10.00">::neutral_diffusion_calc</text>
<text text-anchor="middle" x="317" y="-98" font-family="Helvetica,sans-Serif" font-size="10.00">_coeffs</text>
</a>
</g>
</g>
<!-- Node170&#45;&gt;Node171 -->
<g id="edge2" class="edge"><title>Node170&#45;&gt;Node171</title>
<path fill="none" stroke="midnightblue" d="M230.221,-76.4085C242.311,-81.3544 255.376,-86.6993 267.577,-91.6906"/>
<polygon fill="midnightblue" stroke="midnightblue" points="231.35,-73.089 220.769,-72.542 228.7,-79.5678 231.35,-73.089"/>
</g>
<!-- Node173 -->
<g id="node5" class="node"><title>Node173</title>
<g id="a_node5"><a xlink:href="../../d8/da4/namespacemom__neutral__diffusion.html#ae21f026dc5c73f2304ab6cbc230b9fb0" target="_top" xlink:title="Returns true if unit tests of neutral_diffusion functions fail. Otherwise returns false...">
<polygon fill="white" stroke="black" points="402,-0.5 402,-30.5 520,-30.5 520,-0.5 402,-0.5"/>
<text text-anchor="start" x="410" y="-18.5" font-family="Helvetica,sans-Serif" font-size="10.00">mom_neutral_diffusion</text>
<text text-anchor="middle" x="461" y="-7.5" font-family="Helvetica,sans-Serif" font-size="10.00">::neutral_diffusion_unit_tests</text>
</a>
</g>
</g>
<!-- Node170&#45;&gt;Node173 -->
<g id="edge4" class="edge"><title>Node170&#45;&gt;Node173</title>
<path fill="none" stroke="midnightblue" d="M238.168,-39.6479C248.011,-36.9008 258.248,-34.3632 268,-32.5 312.373,-24.0217 363.34,-19.7578 401.607,-17.6212"/>
<polygon fill="midnightblue" stroke="midnightblue" points="237.124,-36.3064 228.49,-42.4476 239.069,-43.0307 237.124,-36.3064"/>
</g>
<!-- Node177 -->
<g id="node9" class="node"><title>Node177</title>
<g id="a_node9"><a xlink:href="../../d8/da4/namespacemom__neutral__diffusion.html#a626e0189b03bbbf36c33cfa52e4f098d" target="_top" xlink:title="Returns a single column of neutral diffusion fluxes of a tracer. ">
<polygon fill="white" stroke="black" points="268,-42.5 268,-72.5 366,-72.5 366,-42.5 268,-42.5"/>
<text text-anchor="start" x="276" y="-60.5" font-family="Helvetica,sans-Serif" font-size="10.00">mom_neutral_diffusion</text>
<text text-anchor="middle" x="317" y="-49.5" font-family="Helvetica,sans-Serif" font-size="10.00">::neutral_surface_flux</text>
</a>
</g>
</g>
<!-- Node170&#45;&gt;Node177 -->
<g id="edge8" class="edge"><title>Node170&#45;&gt;Node177</title>
<path fill="none" stroke="midnightblue" d="M242.292,-57.5C250.809,-57.5 259.5,-57.5 267.786,-57.5"/>
<polygon fill="midnightblue" stroke="midnightblue" points="242.028,-54.0001 232.028,-57.5 242.028,-61.0001 242.028,-54.0001"/>
</g>
<!-- Node172 -->
<g id="node4" class="node"><title>Node172</title>
<g id="a_node4"><a xlink:href="../../da/db2/namespacemom__tracer__hor__diff.html#ae8eba26c164a4e8e4ba1008cda9850e6" target="_top" xlink:title="Compute along&#45;coordinate diffusion of all tracers using the diffusivity in CSKhTr, or using space&#45;dependent diffusivity. Multiple iterations are used (if necessary) so that there is no limit on the acceptable time increment. ">
<polygon fill="white" stroke="black" points="556,-72.5 556,-102.5 648,-102.5 648,-72.5 556,-72.5"/>
<text text-anchor="start" x="564" y="-90.5" font-family="Helvetica,sans-Serif" font-size="10.00">mom_tracer_hor_diff</text>
<text text-anchor="middle" x="602" y="-79.5" font-family="Helvetica,sans-Serif" font-size="10.00">::tracer_hordiff</text>
</a>
</g>
</g>
<!-- Node171&#45;&gt;Node172 -->
<g id="edge3" class="edge"><title>Node171&#45;&gt;Node172</title>
<path fill="none" stroke="midnightblue" d="M376.297,-106.556C429.446,-102.049 506.884,-95.4816 555.57,-91.3527"/>
<polygon fill="midnightblue" stroke="midnightblue" points="375.676,-103.096 366.007,-107.429 376.267,-110.071 375.676,-103.096"/>
</g>
<!-- Node174 -->
<g id="node6" class="node"><title>Node174</title>
<g id="a_node6"><a xlink:href="../../da/d01/namespacemom.html#ae77cfd2e790f1266b31d93c58659d46c" target="_top" xlink:title="Calls unit tests for other modules. These are NOT normally invoked and so we provide the module use s...">
<polygon fill="white" stroke="black" points="565.5,-6 565.5,-25 638.5,-25 638.5,-6 565.5,-6"/>
<text text-anchor="middle" x="602" y="-13" font-family="Helvetica,sans-Serif" font-size="10.00">mom::unit_tests</text>
</a>
</g>
</g>
<!-- Node173&#45;&gt;Node174 -->
<g id="edge5" class="edge"><title>Node173&#45;&gt;Node174</title>
<path fill="none" stroke="midnightblue" d="M530.277,-15.5C542.393,-15.5 554.558,-15.5 565.3,-15.5"/>
<polygon fill="midnightblue" stroke="midnightblue" points="530.143,-12.0001 520.143,-15.5 530.143,-19.0001 530.143,-12.0001"/>
</g>
<!-- Node175 -->
<g id="node7" class="node"><title>Node175</title>
<g id="a_node7"><a xlink:href="../../da/d01/namespacemom.html#afebdc0103ad9cbe0ed4a54e522dc4104" target="_top" xlink:title="This subroutine initializes MOM. ">
<polygon fill="white" stroke="black" points="684,-6 684,-25 773,-25 773,-6 684,-6"/>
<text text-anchor="middle" x="728.5" y="-13" font-family="Helvetica,sans-Serif" font-size="10.00">mom::initialize_mom</text>
</a>
</g>
</g>
<!-- Node174&#45;&gt;Node175 -->
<g id="edge6" class="edge"><title>Node174&#45;&gt;Node175</title>
<path fill="none" stroke="midnightblue" d="M648.899,-15.5C660.324,-15.5 672.541,-15.5 683.855,-15.5"/>
<polygon fill="midnightblue" stroke="midnightblue" points="648.677,-12.0001 638.677,-15.5 648.677,-19.0001 648.677,-12.0001"/>
</g>
<!-- Node176 -->
<g id="node8" class="node"><title>Node176</title>
<g id="a_node8"><a xlink:href="../../de/dbc/MOM__driver_8F90.html#a08fffeb2d8e8acbf9ed4609be6d258c6" target="_top" xlink:title="mom_main">
<polygon fill="white" stroke="black" points="809,-6 809,-25 865,-25 865,-6 809,-6"/>
<text text-anchor="middle" x="837" y="-13" font-family="Helvetica,sans-Serif" font-size="10.00">mom_main</text>
</a>
</g>
</g>
<!-- Node175&#45;&gt;Node176 -->
<g id="edge7" class="edge"><title>Node175&#45;&gt;Node176</title>
<path fill="none" stroke="midnightblue" d="M783.407,-15.5C792.206,-15.5 800.981,-15.5 808.771,-15.5"/>
<polygon fill="midnightblue" stroke="midnightblue" points="783.125,-12.0001 773.125,-15.5 783.125,-19.0001 783.125,-12.0001"/>
</g>
<!-- Node177&#45;&gt;Node173 -->
<g id="edge11" class="edge"><title>Node177&#45;&gt;Node173</title>
<path fill="none" stroke="midnightblue" d="M375.988,-40.3485C386.949,-37.1067 398.337,-33.7383 409.061,-30.5666"/>
<polygon fill="midnightblue" stroke="midnightblue" points="374.671,-37.0881 366.075,-43.2807 376.657,-43.8006 374.671,-37.0881"/>
</g>
<!-- Node178 -->
<g id="node10" class="node"><title>Node178</title>
<g id="a_node10"><a xlink:href="../../d8/da4/namespacemom__neutral__diffusion.html#a0aa7d320b2d623791e7de7d879930a64" target="_top" xlink:title="Update tracer concentration due to neutral diffusion; layer thickness unchanged by this update...">
<polygon fill="white" stroke="black" points="412,-50.5 412,-80.5 510,-80.5 510,-50.5 412,-50.5"/>
<text text-anchor="start" x="420" y="-68.5" font-family="Helvetica,sans-Serif" font-size="10.00">mom_neutral_diffusion</text>
<text text-anchor="middle" x="461" y="-57.5" font-family="Helvetica,sans-Serif" font-size="10.00">::neutral_diffusion</text>
</a>
</g>
</g>
<!-- Node177&#45;&gt;Node178 -->
<g id="edge9" class="edge"><title>Node177&#45;&gt;Node178</title>
<path fill="none" stroke="midnightblue" d="M376.332,-60.7863C388.186,-61.4541 400.527,-62.1494 411.975,-62.7944"/>
<polygon fill="midnightblue" stroke="midnightblue" points="376.256,-57.2766 366.075,-60.2084 375.862,-64.2655 376.256,-57.2766"/>
</g>
<!-- Node178&#45;&gt;Node172 -->
<g id="edge10" class="edge"><title>Node178&#45;&gt;Node172</title>
<path fill="none" stroke="midnightblue" d="M520.427,-74.7475C532.204,-76.6114 544.416,-78.5442 555.664,-80.3244"/>
<polygon fill="midnightblue" stroke="midnightblue" points="520.65,-71.2392 510.225,-73.1328 519.555,-78.1531 520.65,-71.2392"/>
</g>
</g>
</svg>
