<?xml version="1.0" encoding="UTF-8" standalone="no"?>
<!DOCTYPE svg PUBLIC "-//W3C//DTD SVG 1.1//EN"
 "http://www.w3.org/Graphics/SVG/1.1/DTD/svg11.dtd">
<!-- Generated by graphviz version 2.38.0 (20140413.2041)
 -->
<!-- Title: mom_neutral_diffusion::absolute_positions Pages: 1 -->
<svg width="668pt" height="39pt"
 viewBox="0.00 0.00 668.00 39.00" xmlns="http://www.w3.org/2000/svg" xmlns:xlink="http://www.w3.org/1999/xlink">
<g id="graph0" class="graph" transform="scale(1 1) rotate(0) translate(4 35)">
<title>mom_neutral_diffusion::absolute_positions</title>
<polygon fill="white" stroke="none" points="-4,4 -4,-35 664,-35 664,4 -4,4"/>
<!-- Node12 -->
<g id="node1" class="node"><title>Node12</title>
<polygon fill="#bfbfbf" stroke="black" points="0,-0.5 0,-30.5 115,-30.5 115,-0.5 0,-0.5"/>
<text text-anchor="start" x="8" y="-18.5" font-family="Helvetica,sans-Serif" font-size="10.00">mom_neutral_diffusion</text>
<text text-anchor="middle" x="57.5" y="-7.5" font-family="Helvetica,sans-Serif" font-size="10.00">::absolute_positions</text>
</g>
<!-- Node13 -->
<g id="node2" class="node"><title>Node13</title>
<g id="a_node2"><a xlink:href="../../d8/da4/namespacemom__neutral__diffusion.html#ae21f026dc5c73f2304ab6cbc230b9fb0" target="_top" xlink:title="Returns true if unit tests of neutral_diffusion functions fail. Otherwise returns false...">
<polygon fill="white" stroke="black" points="151,-0.5 151,-30.5 293,-30.5 293,-0.5 151,-0.5"/>
<text text-anchor="start" x="159" y="-18.5" font-family="Helvetica,sans-Serif" font-size="10.00">mom_neutral_diffusion</text>
<text text-anchor="middle" x="222" y="-7.5" font-family="Helvetica,sans-Serif" font-size="10.00">::neutral_diffusion_unit_tests</text>
</a>
</g>
</g>
<!-- Node12&#45;&gt;Node13 -->
<g id="edge1" class="edge"><title>Node12&#45;&gt;Node13</title>
<path fill="none" stroke="midnightblue" d="M125.409,-15.5C133.774,-15.5 142.349,-15.5 150.762,-15.5"/>
<polygon fill="midnightblue" stroke="midnightblue" points="125.335,-12.0001 115.335,-15.5 125.335,-19.0001 125.335,-12.0001"/>
</g>
<!-- Node14 -->
<g id="node3" class="node"><title>Node14</title>
<g id="a_node3"><a xlink:href="../../da/d01/namespacemom.html#ae77cfd2e790f1266b31d93c58659d46c" target="_top" xlink:title="Calls unit tests for other modules. These are NOT normally invoked and so we provide the module use s...">
<polygon fill="white" stroke="black" points="329,-6 329,-25 416,-25 416,-6 329,-6"/>
<text text-anchor="middle" x="372.5" y="-13" font-family="Helvetica,sans-Serif" font-size="10.00">mom::unit_tests</text>
</a>
</g>
</g>
<!-- Node13&#45;&gt;Node14 -->
<g id="edge2" class="edge"><title>Node13&#45;&gt;Node14</title>
<path fill="none" stroke="midnightblue" d="M303.587,-15.5C312.299,-15.5 320.893,-15.5 328.885,-15.5"/>
<polygon fill="midnightblue" stroke="midnightblue" points="303.336,-12.0001 293.336,-15.5 303.336,-19.0001 303.336,-12.0001"/>
</g>
<!-- Node15 -->
<g id="node4" class="node"><title>Node15</title>
<g id="a_node4"><a xlink:href="../../da/d01/namespacemom.html#a0be2869fef30e1e0604facfe1b41555d" target="_top" xlink:title="This subroutine initializes MOM. ">
<polygon fill="white" stroke="black" points="452,-6 452,-25 559,-25 559,-6 452,-6"/>
<text text-anchor="middle" x="505.5" y="-13" font-family="Helvetica,sans-Serif" font-size="10.00">mom::initialize_mom</text>
</a>
</g>
</g>
<!-- Node14&#45;&gt;Node15 -->
<g id="edge3" class="edge"><title>Node14&#45;&gt;Node15</title>
<path fill="none" stroke="midnightblue" d="M426.105,-15.5C434.515,-15.5 443.22,-15.5 451.636,-15.5"/>
<polygon fill="midnightblue" stroke="midnightblue" points="426.032,-12.0001 416.032,-15.5 426.032,-19.0001 426.032,-12.0001"/>
</g>
<!-- Node16 -->
<g id="node5" class="node"><title>Node16</title>
<g id="a_node5"><a xlink:href="../../de/dbc/MOM__driver_8F90.html#a08fffeb2d8e8acbf9ed4609be6d258c6" target="_top" xlink:title="mom_main">
<polygon fill="white" stroke="black" points="595,-6 595,-25 660,-25 660,-6 595,-6"/>
<text text-anchor="middle" x="627.5" y="-13" font-family="Helvetica,sans-Serif" font-size="10.00">mom_main</text>
</a>
</g>
</g>
<!-- Node15&#45;&gt;Node16 -->
<g id="edge4" class="edge"><title>Node15&#45;&gt;Node16</title>
<path fill="none" stroke="midnightblue" d="M569.206,-15.5C578.134,-15.5 586.983,-15.5 594.958,-15.5"/>
<polygon fill="midnightblue" stroke="midnightblue" points="569.134,-12.0001 559.134,-15.5 569.134,-19.0001 569.134,-12.0001"/>
</g>
</g>
</svg>
