<?xml version="1.0" encoding="UTF-8" standalone="no"?>
<!DOCTYPE svg PUBLIC "-//W3C//DTD SVG 1.1//EN"
 "http://www.w3.org/Graphics/SVG/1.1/DTD/svg11.dtd">
<!-- Generated by graphviz version 2.38.0 (20140413.2041)
 -->
<!-- Title: mom_neutral_diffusion::interface_scalar Pages: 1 -->
<!--zoomable 141 -->
<svg id="main" version="1.1" xmlns="http://www.w3.org/2000/svg" xmlns:xlink="http://www.w3.org/1999/xlink" xml:space="preserve" onload="init(evt)">
<style type="text/css"><![CDATA[
.edge:hover path { stroke: red; }
.edge:hover polygon { stroke: red; fill: red; }
]]></style>
<script type="text/javascript"><![CDATA[
var edges = document.getElementsByTagName('g');
if (edges && edges.length) {
  for (var i=0;i<edges.length;i++) {
    if (edges[i].id.substr(0,4)=='edge') {
      edges[i].setAttribute('class','edge');
    }
  }
}
]]></script>
        <defs>
                <circle id="rim" cx="0" cy="0" r="7"/>
                <circle id="rim2" cx="0" cy="0" r="3.5"/>
                <g id="zoomPlus">
                        <use xlink:href="#rim" fill="#404040">
                                <set attributeName="fill" to="#808080" begin="zoomplus.mouseover" end="zoomplus.mouseout"/>
                        </use>
                        <path d="M-4,0h8M0,-4v8" fill="none" stroke="white" stroke-width="1.5" pointer-events="none"/>
                </g>
                <g id="zoomMin">
                        <use xlink:href="#rim" fill="#404040">
                                <set attributeName="fill" to="#808080" begin="zoomminus.mouseover" end="zoomminus.mouseout"/>
                        </use>
                        <path d="M-4,0h8" fill="none" stroke="white" stroke-width="1.5" pointer-events="none"/>
                </g>
                <g id="dirArrow">
                        <path fill="none" stroke="white" stroke-width="1.5" d="M0,-3.0v7 M-2.5,-0.5L0,-3.0L2.5,-0.5"/>
                </g>
               <g id="resetDef">
                       <use xlink:href="#rim2" fill="#404040">
                               <set attributeName="fill" to="#808080" begin="reset.mouseover" end="reset.mouseout"/>
                       </use>
               </g>
        </defs>

<script type="text/javascript">
var viewWidth = 840;
var viewHeight = 141;
var sectionId = 'dynsection-8';
</script>
<script xlink:href="../../svgpan.js"/>
<svg id="graph" class="graph">
<g id="viewport">
<title>mom_neutral_diffusion::interface_scalar</title>
<polygon fill="white" stroke="none" points="-4,4 -4,-136.5 836,-136.5 836,4 -4,4"/>
<!-- Node58 -->
<g id="node1" class="node"><title>Node58</title>
<polygon fill="#bfbfbf" stroke="black" points="0,-41.5 0,-71.5 115,-71.5 115,-41.5 0,-41.5"/>
<text text-anchor="start" x="8" y="-59.5" font-family="Helvetica,sans-Serif" font-size="10.00">mom_neutral_diffusion</text>
<text text-anchor="middle" x="57.5" y="-48.5" font-family="Helvetica,sans-Serif" font-size="10.00">::interface_scalar</text>
</g>
<!-- Node59 -->
<g id="node2" class="node"><title>Node59</title>
<g id="a_node2"><a xlink:href="../../d8/da4/namespacemom__neutral__diffusion.html#a53d5e3f8d7610b60644aaa9f44fd854e" target="_top" xlink:title="Calculate remapping factors for u/v columns used to map adjoining columns to a shared coordinate spac...">
<polygon fill="white" stroke="black" points="151,-91 151,-132 268,-132 268,-91 151,-91"/>
<text text-anchor="start" x="159" y="-120" font-family="Helvetica,sans-Serif" font-size="10.00">mom_neutral_diffusion</text>
<text text-anchor="start" x="159" y="-109" font-family="Helvetica,sans-Serif" font-size="10.00">::neutral_diffusion_calc</text>
<text text-anchor="middle" x="209.5" y="-98" font-family="Helvetica,sans-Serif" font-size="10.00">_coeffs</text>
</a>
</g>
</g>
<!-- Node58&#45;&gt;Node59 -->
<g id="edge1" class="edge"><title>Node58&#45;&gt;Node59</title>
<path fill="none" stroke="midnightblue" d="M108.921,-74.9875C122.88,-80.106 138.117,-85.6927 152.379,-90.9223"/>
<polygon fill="midnightblue" stroke="midnightblue" points="110.082,-71.6855 99.4882,-71.529 107.672,-78.2577 110.082,-71.6855"/>
</g>
<!-- Node61 -->
<g id="node4" class="node"><title>Node61</title>
<g id="a_node4"><a xlink:href="../../d8/da4/namespacemom__neutral__diffusion.html#ae21f026dc5c73f2304ab6cbc230b9fb0" target="_top" xlink:title="Returns true if unit tests of neutral_diffusion functions fail. Otherwise returns false...">
<polygon fill="white" stroke="black" points="304,-0.5 304,-30.5 446,-30.5 446,-0.5 304,-0.5"/>
<text text-anchor="start" x="312" y="-18.5" font-family="Helvetica,sans-Serif" font-size="10.00">mom_neutral_diffusion</text>
<text text-anchor="middle" x="375" y="-7.5" font-family="Helvetica,sans-Serif" font-size="10.00">::neutral_diffusion_unit_tests</text>
</a>
</g>
</g>
<!-- Node58&#45;&gt;Node61 -->
<g id="edge3" class="edge"><title>Node58&#45;&gt;Node61</title>
<path fill="none" stroke="midnightblue" d="M116.812,-38.9192C128.071,-36.0435 139.837,-33.3909 151,-31.5 201.707,-22.9108 259.663,-18.9266 303.781,-17.0814"/>
<polygon fill="midnightblue" stroke="midnightblue" points="115.851,-35.5528 107.076,-41.4901 117.638,-42.3208 115.851,-35.5528"/>
</g>
<!-- Node65 -->
<g id="node8" class="node"><title>Node65</title>
<g id="a_node8"><a xlink:href="../../d8/da4/namespacemom__neutral__diffusion.html#a626e0189b03bbbf36c33cfa52e4f098d" target="_top" xlink:title="Returns a single column of neutral diffusion fluxes of a tracer. ">
<polygon fill="white" stroke="black" points="152,-41.5 152,-71.5 267,-71.5 267,-41.5 152,-41.5"/>
<text text-anchor="start" x="160" y="-59.5" font-family="Helvetica,sans-Serif" font-size="10.00">mom_neutral_diffusion</text>
<text text-anchor="middle" x="209.5" y="-48.5" font-family="Helvetica,sans-Serif" font-size="10.00">::neutral_surface_flux</text>
</a>
</g>
</g>
<!-- Node58&#45;&gt;Node65 -->
<g id="edge7" class="edge"><title>Node58&#45;&gt;Node65</title>
<path fill="none" stroke="midnightblue" d="M125.416,-56.5C134.194,-56.5 143.122,-56.5 151.711,-56.5"/>
<polygon fill="midnightblue" stroke="midnightblue" points="125.209,-53.0001 115.209,-56.5 125.209,-60.0001 125.209,-53.0001"/>
</g>
<!-- Node60 -->
<g id="node3" class="node"><title>Node60</title>
<g id="a_node3"><a xlink:href="../../da/db2/namespacemom__tracer__hor__diff.html#a069e22612062290389c2630c7f90ede2" target="_top" xlink:title="Compute along&#45;coordinate diffusion of all tracers using the diffusivity in CSKhTr, or using space&#45;dependent diffusivity. Multiple iterations are used (if necessary) so that there is no limit on the acceptable time increment. ">
<polygon fill="white" stroke="black" points="482,-72.5 482,-102.5 588,-102.5 588,-72.5 482,-72.5"/>
<text text-anchor="start" x="490" y="-90.5" font-family="Helvetica,sans-Serif" font-size="10.00">mom_tracer_hor_diff</text>
<text text-anchor="middle" x="535" y="-79.5" font-family="Helvetica,sans-Serif" font-size="10.00">::tracer_hordiff</text>
</a>
</g>
</g>
<!-- Node59&#45;&gt;Node60 -->
<g id="edge2" class="edge"><title>Node59&#45;&gt;Node60</title>
<path fill="none" stroke="midnightblue" d="M278.571,-106.45C339.159,-101.955 426.508,-95.4747 481.745,-91.3767"/>
<polygon fill="midnightblue" stroke="midnightblue" points="278.049,-102.979 268.335,-107.209 278.567,-109.96 278.049,-102.979"/>
</g>
<!-- Node62 -->
<g id="node5" class="node"><title>Node62</title>
<g id="a_node5"><a xlink:href="../../da/d01/namespacemom.html#ae77cfd2e790f1266b31d93c58659d46c" target="_top" xlink:title="Calls unit tests for other modules. These are NOT normally invoked and so we provide the module use s...">
<polygon fill="white" stroke="black" points="491.5,-6 491.5,-25 578.5,-25 578.5,-6 491.5,-6"/>
<text text-anchor="middle" x="535" y="-13" font-family="Helvetica,sans-Serif" font-size="10.00">mom::unit_tests</text>
</a>
</g>
</g>
<!-- Node61&#45;&gt;Node62 -->
<g id="edge4" class="edge"><title>Node61&#45;&gt;Node62</title>
<path fill="none" stroke="midnightblue" d="M456.321,-15.5C468.362,-15.5 480.362,-15.5 491.202,-15.5"/>
<polygon fill="midnightblue" stroke="midnightblue" points="456.221,-12.0001 446.221,-15.5 456.221,-19.0001 456.221,-12.0001"/>
</g>
<!-- Node63 -->
<g id="node6" class="node"><title>Node63</title>
<g id="a_node6"><a xlink:href="../../da/d01/namespacemom.html#a0be2869fef30e1e0604facfe1b41555d" target="_top" xlink:title="This subroutine initializes MOM. ">
<polygon fill="white" stroke="black" points="624,-6 624,-25 731,-25 731,-6 624,-6"/>
<text text-anchor="middle" x="677.5" y="-13" font-family="Helvetica,sans-Serif" font-size="10.00">mom::initialize_mom</text>
</a>
</g>
</g>
<!-- Node62&#45;&gt;Node63 -->
<g id="edge5" class="edge"><title>Node62&#45;&gt;Node63</title>
<path fill="none" stroke="midnightblue" d="M588.85,-15.5C600.325,-15.5 612.46,-15.5 623.925,-15.5"/>
<polygon fill="midnightblue" stroke="midnightblue" points="588.536,-12.0001 578.536,-15.5 588.536,-19.0001 588.536,-12.0001"/>
</g>
<!-- Node64 -->
<g id="node7" class="node"><title>Node64</title>
<g id="a_node7"><a xlink:href="../../de/dbc/MOM__driver_8F90.html#a08fffeb2d8e8acbf9ed4609be6d258c6" target="_top" xlink:title="mom_main">
<polygon fill="white" stroke="black" points="767,-6 767,-25 832,-25 832,-6 767,-6"/>
<text text-anchor="middle" x="799.5" y="-13" font-family="Helvetica,sans-Serif" font-size="10.00">mom_main</text>
</a>
</g>
</g>
<!-- Node63&#45;&gt;Node64 -->
<g id="edge6" class="edge"><title>Node63&#45;&gt;Node64</title>
<path fill="none" stroke="midnightblue" d="M741.206,-15.5C750.134,-15.5 758.983,-15.5 766.958,-15.5"/>
<polygon fill="midnightblue" stroke="midnightblue" points="741.134,-12.0001 731.134,-15.5 741.134,-19.0001 741.134,-12.0001"/>
</g>
<!-- Node65&#45;&gt;Node61 -->
<g id="edge10" class="edge"><title>Node65&#45;&gt;Node61</title>
<path fill="none" stroke="midnightblue" d="M276.944,-39.8382C289.218,-36.7604 301.969,-33.5629 314.036,-30.5368"/>
<polygon fill="midnightblue" stroke="midnightblue" points="276.074,-36.448 267.226,-42.2753 277.777,-43.2377 276.074,-36.448"/>
</g>
<!-- Node66 -->
<g id="node9" class="node"><title>Node66</title>
<g id="a_node9"><a xlink:href="../../d8/da4/namespacemom__neutral__diffusion.html#a0aa7d320b2d623791e7de7d879930a64" target="_top" xlink:title="Update tracer concentration due to neutral diffusion; layer thickness unchanged by this update...">
<polygon fill="white" stroke="black" points="317.5,-50.5 317.5,-80.5 432.5,-80.5 432.5,-50.5 317.5,-50.5"/>
<text text-anchor="start" x="325.5" y="-68.5" font-family="Helvetica,sans-Serif" font-size="10.00">mom_neutral_diffusion</text>
<text text-anchor="middle" x="375" y="-57.5" font-family="Helvetica,sans-Serif" font-size="10.00">::neutral_diffusion</text>
</a>
</g>
</g>
<!-- Node65&#45;&gt;Node66 -->
<g id="edge8" class="edge"><title>Node65&#45;&gt;Node66</title>
<path fill="none" stroke="midnightblue" d="M277.273,-60.1756C290.584,-60.9083 304.444,-61.6712 317.375,-62.383"/>
<polygon fill="midnightblue" stroke="midnightblue" points="277.403,-56.6775 267.226,-59.6225 277.018,-63.6669 277.403,-56.6775"/>
</g>
<!-- Node66&#45;&gt;Node60 -->
<g id="edge9" class="edge"><title>Node66&#45;&gt;Node60</title>
<path fill="none" stroke="midnightblue" d="M442.503,-74.7599C455.612,-76.5852 469.192,-78.4761 481.749,-80.2246"/>
<polygon fill="midnightblue" stroke="midnightblue" points="442.983,-71.293 432.595,-73.3804 442.017,-78.2261 442.983,-71.293"/>
</g>
</g>
</svg>
        <g id="navigator" transform="translate(0 0)" fill="#404254">
                <rect fill="#f2f5e9" fill-opacity="0.5" stroke="#606060" stroke-width=".5" x="0" y="0" width="60" height="60"/>
                <use id="zoomplus" xlink:href="#zoomPlus" x="17" y="9" onmousedown="handleZoom(evt,'in')"/>
                <use id="zoomminus" xlink:href="#zoomMin" x="42" y="9" onmousedown="handleZoom(evt,'out')"/>
                <use id="reset" xlink:href="#resetDef" x="30" y="36" onmousedown="handleReset()"/>
                <g id="arrowUp" xlink:href="#dirArrow" transform="translate(30 24)" onmousedown="handlePan(0,-1)">
                  <use xlink:href="#rim" fill="#404040">
                        <set attributeName="fill" to="#808080" begin="arrowUp.mouseover" end="arrowUp.mouseout"/>
                  </use>
                  <path fill="none" stroke="white" stroke-width="1.5" d="M0,-3.0v7 M-2.5,-0.5L0,-3.0L2.5,-0.5"/>
                </g>
                <g id="arrowRight" xlink:href="#dirArrow" transform="rotate(90) translate(36 -43)" onmousedown="handlePan(1,0)">
                  <use xlink:href="#rim" fill="#404040">
                        <set attributeName="fill" to="#808080" begin="arrowRight.mouseover" end="arrowRight.mouseout"/>
                  </use>
                  <path fill="none" stroke="white" stroke-width="1.5" d="M0,-3.0v7 M-2.5,-0.5L0,-3.0L2.5,-0.5"/>
                </g>
                <g id="arrowDown" xlink:href="#dirArrow" transform="rotate(180) translate(-30 -48)" onmousedown="handlePan(0,1)">
                  <use xlink:href="#rim" fill="#404040">
                        <set attributeName="fill" to="#808080" begin="arrowDown.mouseover" end="arrowDown.mouseout"/>
                  </use>
                  <path fill="none" stroke="white" stroke-width="1.5" d="M0,-3.0v7 M-2.5,-0.5L0,-3.0L2.5,-0.5"/>
                </g>
                <g id="arrowLeft" xlink:href="#dirArrow" transform="rotate(270) translate(-36 17)" onmousedown="handlePan(-1,0)">
                  <use xlink:href="#rim" fill="#404040">
                        <set attributeName="fill" to="#808080" begin="arrowLeft.mouseover" end="arrowLeft.mouseout"/>
                  </use>
                  <path fill="none" stroke="white" stroke-width="1.5" d="M0,-3.0v7 M-2.5,-0.5L0,-3.0L2.5,-0.5"/>
                </g>
        </g>
        <svg viewBox="0 0 15 15" width="100%" height="30px" preserveAspectRatio="xMaxYMin meet">
         <g id="arrow_out" transform="scale(0.3 0.3)">
          <a xlink:href="namespacemom__neutral__diffusion_afbc54a4e2f34af5d72c18dc96e354af7_icgraph_org.svg" target="_base">
           <rect id="button" ry="5" rx="5" y="6" x="6" height="38" width="38"
                fill="#f2f5e9" fill-opacity="0.5" stroke="#606060" stroke-width="1.0"/>
           <path id="arrow"
             d="M 11.500037,31.436501 C 11.940474,20.09759 22.043105,11.32322 32.158766,21.979434 L 37.068811,17.246167 C 37.068811,17.246167 37.088388,32 37.088388,32 L 22.160133,31.978069 C 22.160133,31.978069 26.997745,27.140456 26.997745,27.140456 C 18.528582,18.264221 13.291696,25.230495 11.500037,31.436501 z"
             style="fill:#404040;"/>
          </a>
         </g>
        </svg>
</svg>
