<?xml version="1.0" encoding="UTF-8" standalone="no"?>
<!DOCTYPE svg PUBLIC "-//W3C//DTD SVG 1.1//EN"
 "http://www.w3.org/Graphics/SVG/1.1/DTD/svg11.dtd">
<!-- Generated by graphviz version 2.38.0 (20140413.2041)
 -->
<!-- Title: mom_neutral_diffusion::neutral_diffusion_unit_tests Pages: 1 -->
<svg width="760pt" height="430pt"
 viewBox="0.00 0.00 760.00 430.32" xmlns="http://www.w3.org/2000/svg" xmlns:xlink="http://www.w3.org/1999/xlink">
<g id="graph0" class="graph" transform="scale(1 1) rotate(0) translate(4 426.322)">
<title>mom_neutral_diffusion::neutral_diffusion_unit_tests</title>
<polygon fill="white" stroke="none" points="-4,4 -4,-426.322 756,-426.322 756,4 -4,4"/>
<!-- Node127 -->
<g id="node1" class="node"><title>Node127</title>
<polygon fill="#bfbfbf" stroke="black" points="0,-178 0,-208 142,-208 142,-178 0,-178"/>
<text text-anchor="start" x="8" y="-196" font-family="Helvetica,sans-Serif" font-size="10.00">mom_neutral_diffusion</text>
<text text-anchor="middle" x="71" y="-185" font-family="Helvetica,sans-Serif" font-size="10.00">::neutral_diffusion_unit_tests</text>
</g>
<!-- Node128 -->
<g id="node2" class="node"><title>Node128</title>
<g id="a_node2"><a xlink:href="../../d8/da4/namespacemom__neutral__diffusion.html#a8f341aaa492064bbece077ada4d48d83" target="_top" xlink:title="Converts non&#45;dimensional positions within layers to absolute positions (for debugging) ...">
<polygon fill="white" stroke="black" points="178,-351 178,-381 293,-381 293,-351 178,-351"/>
<text text-anchor="start" x="186" y="-369" font-family="Helvetica,sans-Serif" font-size="10.00">mom_neutral_diffusion</text>
<text text-anchor="middle" x="235.5" y="-358" font-family="Helvetica,sans-Serif" font-size="10.00">::absolute_positions</text>
</a>
</g>
</g>
<!-- Node127&#45;&gt;Node128 -->
<g id="edge1" class="edge"><title>Node127&#45;&gt;Node128</title>
<path fill="none" stroke="midnightblue" d="M79.2713,-208.029C94.0882,-237.265 130.437,-302.307 178,-341 180.002,-342.629 182.127,-344.172 184.334,-345.632"/>
<polygon fill="midnightblue" stroke="midnightblue" points="182.777,-348.777 193.167,-350.851 186.338,-342.751 182.777,-348.777"/>
</g>
<!-- Node130 -->
<g id="node4" class="node"><title>Node130</title>
<g id="a_node4"><a xlink:href="../../d8/da4/namespacemom__neutral__diffusion.html#aacce4f78e738a3c7530ae8940c144fb9" target="_top" xlink:title="Returns positions within left/right columns of combined interfaces. ">
<polygon fill="white" stroke="black" points="178,-290.5 178,-331.5 293,-331.5 293,-290.5 178,-290.5"/>
<text text-anchor="start" x="186" y="-319.5" font-family="Helvetica,sans-Serif" font-size="10.00">mom_neutral_diffusion</text>
<text text-anchor="start" x="186" y="-308.5" font-family="Helvetica,sans-Serif" font-size="10.00">::find_neutral_surface</text>
<text text-anchor="middle" x="235.5" y="-297.5" font-family="Helvetica,sans-Serif" font-size="10.00">_positions</text>
</a>
</g>
</g>
<!-- Node127&#45;&gt;Node130 -->
<g id="edge3" class="edge"><title>Node127&#45;&gt;Node130</title>
<path fill="none" stroke="midnightblue" d="M88.499,-208.183C108.73,-226.403 144.472,-257.33 178,-280 180.559,-281.73 183.223,-283.448 185.94,-285.136"/>
<polygon fill="midnightblue" stroke="midnightblue" points="184.356,-288.266 194.733,-290.402 187.952,-282.261 184.356,-288.266"/>
</g>
<!-- Node132 -->
<g id="node6" class="node"><title>Node132</title>
<g id="a_node6"><a xlink:href="../../d8/da4/namespacemom__neutral__diffusion.html#afbc54a4e2f34af5d72c18dc96e354af7" target="_top" xlink:title="Returns interface scalar, Si, for a column of layer values, S. ">
<polygon fill="white" stroke="black" points="332,-77 332,-107 447,-107 447,-77 332,-77"/>
<text text-anchor="start" x="340" y="-95" font-family="Helvetica,sans-Serif" font-size="10.00">mom_neutral_diffusion</text>
<text text-anchor="middle" x="389.5" y="-84" font-family="Helvetica,sans-Serif" font-size="10.00">::interface_scalar</text>
</a>
</g>
</g>
<!-- Node127&#45;&gt;Node132 -->
<g id="edge6" class="edge"><title>Node127&#45;&gt;Node132</title>
<path fill="none" stroke="midnightblue" d="M84.5017,-177.838C102.634,-157.102 138.42,-120.684 178,-105 223.598,-86.9313 279.112,-84.2125 321.68,-85.7268"/>
<polygon fill="midnightblue" stroke="midnightblue" points="321.787,-89.2349 331.933,-86.1815 322.098,-82.2418 321.787,-89.2349"/>
</g>
<!-- Node137 -->
<g id="node11" class="node"><title>Node137</title>
<g id="a_node11"><a xlink:href="../../d0/de6/namespacemom__error__handler.html#a2e47f830d9b3ae003d057141096867d5" target="_top" xlink:title="mom_error_handler::\lmom_get_verbosity">
<polygon fill="white" stroke="black" points="182.5,-241 182.5,-271 288.5,-271 288.5,-241 182.5,-241"/>
<text text-anchor="start" x="190.5" y="-259" font-family="Helvetica,sans-Serif" font-size="10.00">mom_error_handler::</text>
<text text-anchor="middle" x="235.5" y="-248" font-family="Helvetica,sans-Serif" font-size="10.00">mom_get_verbosity</text>
</a>
</g>
</g>
<!-- Node127&#45;&gt;Node137 -->
<g id="edge11" class="edge"><title>Node127&#45;&gt;Node137</title>
<path fill="none" stroke="midnightblue" d="M110.923,-208.09C133.452,-216.824 162.005,-227.894 185.988,-237.192"/>
<polygon fill="midnightblue" stroke="midnightblue" points="185.025,-240.573 195.614,-240.924 187.555,-234.046 185.025,-240.573"/>
</g>
<!-- Node138 -->
<g id="node12" class="node"><title>Node138</title>
<g id="a_node12"><a xlink:href="../../d8/da4/namespacemom__neutral__diffusion.html#a626e0189b03bbbf36c33cfa52e4f098d" target="_top" xlink:title="Returns a single column of neutral diffusion fluxes of a tracer. ">
<polygon fill="white" stroke="black" points="178,-115 178,-145 293,-145 293,-115 178,-115"/>
<text text-anchor="start" x="186" y="-133" font-family="Helvetica,sans-Serif" font-size="10.00">mom_neutral_diffusion</text>
<text text-anchor="middle" x="235.5" y="-122" font-family="Helvetica,sans-Serif" font-size="10.00">::neutral_surface_flux</text>
</a>
</g>
</g>
<!-- Node127&#45;&gt;Node138 -->
<g id="edge12" class="edge"><title>Node127&#45;&gt;Node138</title>
<path fill="none" stroke="midnightblue" d="M110.923,-177.91C133.452,-169.176 162.005,-158.106 185.988,-148.808"/>
<polygon fill="midnightblue" stroke="midnightblue" points="187.555,-151.954 195.614,-145.076 185.025,-145.427 187.555,-151.954"/>
</g>
<!-- Node140 -->
<g id="node14" class="node"><title>Node140</title>
<g id="a_node14"><a xlink:href="../../d8/da4/MOM__neutral__diffusion_8F90.html#a8f7076fd5b347575904aaa3eccdb77b5" target="_top" xlink:title="Returns true if comparison of Po and Ptrue fails, and conditionally writes results to stream...">
<polygon fill="white" stroke="black" points="201.5,-164.5 201.5,-183.5 269.5,-183.5 269.5,-164.5 201.5,-164.5"/>
<text text-anchor="middle" x="235.5" y="-171.5" font-family="Helvetica,sans-Serif" font-size="10.00">test_data1d</text>
</a>
</g>
</g>
<!-- Node127&#45;&gt;Node140 -->
<g id="edge15" class="edge"><title>Node127&#45;&gt;Node140</title>
<path fill="none" stroke="midnightblue" d="M142.33,-184.777C158.917,-182.837 176.122,-180.826 191.113,-179.073"/>
<polygon fill="midnightblue" stroke="midnightblue" points="191.576,-182.543 201.102,-177.905 190.763,-175.59 191.576,-182.543"/>
</g>
<!-- Node141 -->
<g id="node15" class="node"><title>Node141</title>
<g id="a_node15"><a xlink:href="../../d8/da4/MOM__neutral__diffusion_8F90.html#a22542088a9844debe9b0162868913ac0" target="_top" xlink:title="Returns true if a test of fv_diff() fails, and conditionally writes results to stream. ">
<polygon fill="white" stroke="black" points="511,-287.5 511,-306.5 576,-306.5 576,-287.5 511,-287.5"/>
<text text-anchor="middle" x="543.5" y="-294.5" font-family="Helvetica,sans-Serif" font-size="10.00">test_fv_diff</text>
</a>
</g>
</g>
<!-- Node127&#45;&gt;Node141 -->
<g id="edge16" class="edge"><title>Node127&#45;&gt;Node141</title>
<path fill="none" stroke="midnightblue" d="M74.7223,-208.269C82.5752,-247.169 109.26,-349.829 178,-391 282.258,-453.444 337.976,-410.114 450,-363 478.599,-350.972 506.968,-328.815 524.598,-313.512"/>
<polygon fill="midnightblue" stroke="midnightblue" points="527.196,-315.886 532.343,-306.625 522.544,-310.654 527.196,-315.886"/>
</g>
<!-- Node142 -->
<g id="node16" class="node"><title>Node142</title>
<g id="a_node16"><a xlink:href="../../d8/da4/MOM__neutral__diffusion_8F90.html#ae5e9faf2d308b4c5de56d7dcd90bd286" target="_top" xlink:title="Returns true if a test of fvlsq_slope() fails, and conditionally writes results to stream...">
<polygon fill="white" stroke="black" points="499.5,-38.5 499.5,-57.5 587.5,-57.5 587.5,-38.5 499.5,-38.5"/>
<text text-anchor="middle" x="543.5" y="-45.5" font-family="Helvetica,sans-Serif" font-size="10.00">test_fvlsq_slope</text>
</a>
</g>
</g>
<!-- Node127&#45;&gt;Node142 -->
<g id="edge18" class="edge"><title>Node127&#45;&gt;Node142</title>
<path fill="none" stroke="midnightblue" d="M81.1897,-177.915C97.297,-153.001 133.213,-103.841 178,-82 279.48,-32.5125 415.639,-35.3341 489.482,-41.6974"/>
<polygon fill="midnightblue" stroke="midnightblue" points="489.2,-45.1862 499.478,-42.6138 489.839,-38.2154 489.2,-45.1862"/>
</g>
<!-- Node143 -->
<g id="node17" class="node"><title>Node143</title>
<g id="a_node17"><a xlink:href="../../d8/da4/MOM__neutral__diffusion_8F90.html#a719cc02cd04e45abec7d125bfc2f747c" target="_top" xlink:title="Returns true if a test of interpolate_for_nondim_position() fails, and conditionally writes results t...">
<polygon fill="white" stroke="black" points="206,-202.5 206,-221.5 265,-221.5 265,-202.5 206,-202.5"/>
<text text-anchor="middle" x="235.5" y="-209.5" font-family="Helvetica,sans-Serif" font-size="10.00">test_ifndp</text>
</a>
</g>
</g>
<!-- Node127&#45;&gt;Node143 -->
<g id="edge20" class="edge"><title>Node127&#45;&gt;Node143</title>
<path fill="none" stroke="midnightblue" d="M142.33,-201.223C160.624,-203.362 179.671,-205.589 195.669,-207.46"/>
<polygon fill="midnightblue" stroke="midnightblue" points="195.364,-210.948 205.703,-208.633 196.177,-203.995 195.364,-210.948"/>
</g>
<!-- Node144 -->
<g id="node18" class="node"><title>Node144</title>
<g id="a_node18"><a xlink:href="../../d8/da4/MOM__neutral__diffusion_8F90.html#af5d8d8848fb00ea16bf467cbd3cd2f8e" target="_top" xlink:title="Returns true if output of find_neutral_surface_positions() does not match correct values...">
<polygon fill="white" stroke="black" points="208.5,-0.5 208.5,-19.5 262.5,-19.5 262.5,-0.5 208.5,-0.5"/>
<text text-anchor="middle" x="235.5" y="-7.5" font-family="Helvetica,sans-Serif" font-size="10.00">test_nsp</text>
</a>
</g>
</g>
<!-- Node127&#45;&gt;Node144 -->
<g id="edge22" class="edge"><title>Node127&#45;&gt;Node144</title>
<path fill="none" stroke="midnightblue" d="M78.4896,-177.731C92.4003,-146.657 127.942,-75.5031 178,-34 184.172,-28.8824 191.597,-24.7 199.004,-21.345"/>
<polygon fill="midnightblue" stroke="midnightblue" points="200.364,-24.57 208.282,-17.5298 197.702,-18.096 200.364,-24.57"/>
</g>
<!-- Node129 -->
<g id="node3" class="node"><title>Node129</title>
<g id="a_node3"><a xlink:href="../../d8/da4/namespacemom__neutral__diffusion.html#a6a30ebbb70dd95dade154d1253393952" target="_top" xlink:title="Converts non&#45;dimensional position within a layer to absolute position (for debugging) ...">
<polygon fill="white" stroke="black" points="332,-323 332,-353 447,-353 447,-323 332,-323"/>
<text text-anchor="start" x="340" y="-341" font-family="Helvetica,sans-Serif" font-size="10.00">mom_neutral_diffusion</text>
<text text-anchor="middle" x="389.5" y="-330" font-family="Helvetica,sans-Serif" font-size="10.00">::absolute_position</text>
</a>
</g>
</g>
<!-- Node128&#45;&gt;Node129 -->
<g id="edge2" class="edge"><title>Node128&#45;&gt;Node129</title>
<path fill="none" stroke="midnightblue" d="M293.099,-355.574C302.496,-353.843 312.317,-352.034 321.933,-350.262"/>
<polygon fill="midnightblue" stroke="midnightblue" points="322.653,-353.689 331.854,-348.435 321.385,-346.804 322.653,-353.689"/>
</g>
<!-- Node130&#45;&gt;Node129 -->
<g id="edge4" class="edge"><title>Node130&#45;&gt;Node129</title>
<path fill="none" stroke="midnightblue" d="M293.099,-321.054C302.496,-322.723 312.317,-324.467 321.933,-326.176"/>
<polygon fill="midnightblue" stroke="midnightblue" points="321.396,-329.635 331.854,-327.938 322.62,-322.743 321.396,-329.635"/>
</g>
<!-- Node131 -->
<g id="node5" class="node"><title>Node131</title>
<g id="a_node5"><a xlink:href="../../d8/da4/namespacemom__neutral__diffusion.html#a666836e70bdae7ef4ec271246cf91993" target="_top" xlink:title="Returns the non&#45;dimensional position between Pneg and Ppos where the interpolated density difference ...">
<polygon fill="white" stroke="black" points="329,-226.5 329,-267.5 450,-267.5 450,-226.5 329,-226.5"/>
<text text-anchor="start" x="337" y="-255.5" font-family="Helvetica,sans-Serif" font-size="10.00">mom_neutral_diffusion</text>
<text text-anchor="start" x="337" y="-244.5" font-family="Helvetica,sans-Serif" font-size="10.00">::interpolate_for_nondim</text>
<text text-anchor="middle" x="389.5" y="-233.5" font-family="Helvetica,sans-Serif" font-size="10.00">_position</text>
</a>
</g>
</g>
<!-- Node130&#45;&gt;Node131 -->
<g id="edge5" class="edge"><title>Node130&#45;&gt;Node131</title>
<path fill="none" stroke="midnightblue" d="M285.43,-290.398C299.669,-284.403 315.365,-277.794 330.123,-271.58"/>
<polygon fill="midnightblue" stroke="midnightblue" points="331.803,-274.67 339.661,-267.564 329.087,-268.219 331.803,-274.67"/>
</g>
<!-- Node133 -->
<g id="node7" class="node"><title>Node133</title>
<g id="a_node7"><a xlink:href="../../d8/da4/namespacemom__neutral__diffusion.html#ac211ae488cb6e3c6685df85d24ecd0dd" target="_top" xlink:title="Returns PLM slopes for a column where the slopes are the difference in value across each cell...">
<polygon fill="white" stroke="black" points="486,-77 486,-107 601,-107 601,-77 486,-77"/>
<text text-anchor="start" x="494" y="-95" font-family="Helvetica,sans-Serif" font-size="10.00">mom_neutral_diffusion</text>
<text text-anchor="middle" x="543.5" y="-84" font-family="Helvetica,sans-Serif" font-size="10.00">::plm_diff</text>
</a>
</g>
</g>
<!-- Node132&#45;&gt;Node133 -->
<g id="edge7" class="edge"><title>Node132&#45;&gt;Node133</title>
<path fill="none" stroke="midnightblue" d="M447.099,-92C456.397,-92 466.11,-92 475.629,-92"/>
<polygon fill="midnightblue" stroke="midnightblue" points="475.854,-95.5001 485.854,-92 475.854,-88.5001 475.854,-95.5001"/>
</g>
<!-- Node136 -->
<g id="node10" class="node"><title>Node136</title>
<g id="a_node10"><a xlink:href="../../d8/da4/namespacemom__neutral__diffusion.html#a87d3d020b56a98f3f0c143701f76c86e" target="_top" xlink:title="Returns the PPM quasi&#45;fourth order edge value at k+1/2 following equation 1.6 in Colella &amp; Woodward...">
<polygon fill="white" stroke="black" points="486,-126 486,-156 601,-156 601,-126 486,-126"/>
<text text-anchor="start" x="494" y="-144" font-family="Helvetica,sans-Serif" font-size="10.00">mom_neutral_diffusion</text>
<text text-anchor="middle" x="543.5" y="-133" font-family="Helvetica,sans-Serif" font-size="10.00">::ppm_edge</text>
</a>
</g>
</g>
<!-- Node132&#45;&gt;Node136 -->
<g id="edge10" class="edge"><title>Node132&#45;&gt;Node136</title>
<path fill="none" stroke="midnightblue" d="M437.345,-107.101C452.732,-112.062 469.997,-117.627 486.021,-122.793"/>
<polygon fill="midnightblue" stroke="midnightblue" points="485.218,-126.211 495.809,-125.948 487.366,-119.549 485.218,-126.211"/>
</g>
<!-- Node134 -->
<g id="node8" class="node"><title>Node134</title>
<g id="a_node8"><a xlink:href="../../d8/da4/namespacemom__neutral__diffusion.html#a1c5ac28d7c54581cdd872fe58ef0b204" target="_top" xlink:title="Returns the cell&#45;centered second&#45;order finite volume (unlimited PLM) slope using three consecutive ce...">
<polygon fill="white" stroke="black" points="637,-193 637,-223 752,-223 752,-193 637,-193"/>
<text text-anchor="start" x="645" y="-211" font-family="Helvetica,sans-Serif" font-size="10.00">mom_neutral_diffusion</text>
<text text-anchor="middle" x="694.5" y="-200" font-family="Helvetica,sans-Serif" font-size="10.00">::fv_diff</text>
</a>
</g>
</g>
<!-- Node133&#45;&gt;Node134 -->
<g id="edge8" class="edge"><title>Node133&#45;&gt;Node134</title>
<path fill="none" stroke="midnightblue" d="M585.302,-107.102C590.755,-109.755 596.137,-112.728 601,-116 629.905,-135.445 657.467,-164.734 674.866,-185.02"/>
<polygon fill="midnightblue" stroke="midnightblue" points="672.337,-187.449 681.456,-192.842 677.69,-182.939 672.337,-187.449"/>
</g>
<!-- Node135 -->
<g id="node9" class="node"><title>Node135</title>
<g id="a_node9"><a xlink:href="../../d8/da4/namespacemom__neutral__diffusion.html#a6ed3814088af470ad6fc4a3a80926fd7" target="_top" xlink:title="Returns the cell&#45;centered second&#45;order weighted least squares slope using three consecutive cell widt...">
<polygon fill="white" stroke="black" points="637,-55 637,-85 752,-85 752,-55 637,-55"/>
<text text-anchor="start" x="645" y="-73" font-family="Helvetica,sans-Serif" font-size="10.00">mom_neutral_diffusion</text>
<text text-anchor="middle" x="694.5" y="-62" font-family="Helvetica,sans-Serif" font-size="10.00">::fvlsq_slope</text>
</a>
</g>
</g>
<!-- Node133&#45;&gt;Node135 -->
<g id="edge9" class="edge"><title>Node133&#45;&gt;Node135</title>
<path fill="none" stroke="midnightblue" d="M601.256,-83.62C609.649,-82.3806 618.362,-81.0942 626.933,-79.8287"/>
<polygon fill="midnightblue" stroke="midnightblue" points="627.521,-83.2799 636.902,-78.3567 626.498,-76.355 627.521,-83.2799"/>
</g>
<!-- Node138&#45;&gt;Node132 -->
<g id="edge13" class="edge"><title>Node138&#45;&gt;Node132</title>
<path fill="none" stroke="midnightblue" d="M293.099,-115.85C302.496,-113.501 312.317,-111.046 321.933,-108.642"/>
<polygon fill="midnightblue" stroke="midnightblue" points="323.001,-111.983 331.854,-106.162 321.303,-105.192 323.001,-111.983"/>
</g>
<!-- Node139 -->
<g id="node13" class="node"><title>Node139</title>
<g id="a_node13"><a xlink:href="../../d8/da4/namespacemom__neutral__diffusion.html#a6931d9a07d09aa5d76d5abd2e47a54df" target="_top" xlink:title="Returns the average of a PPM reconstruction between two fractional positions. ">
<polygon fill="white" stroke="black" points="332,-126 332,-156 447,-156 447,-126 332,-126"/>
<text text-anchor="start" x="340" y="-144" font-family="Helvetica,sans-Serif" font-size="10.00">mom_neutral_diffusion</text>
<text text-anchor="middle" x="389.5" y="-133" font-family="Helvetica,sans-Serif" font-size="10.00">::ppm_ave</text>
</a>
</g>
</g>
<!-- Node138&#45;&gt;Node139 -->
<g id="edge14" class="edge"><title>Node138&#45;&gt;Node139</title>
<path fill="none" stroke="midnightblue" d="M293.099,-134.096C302.397,-134.769 312.11,-135.472 321.629,-136.161"/>
<polygon fill="midnightblue" stroke="midnightblue" points="321.627,-139.67 331.854,-136.901 322.132,-132.688 321.627,-139.67"/>
</g>
<!-- Node141&#45;&gt;Node134 -->
<g id="edge17" class="edge"><title>Node141&#45;&gt;Node134</title>
<path fill="none" stroke="midnightblue" d="M560.446,-287.475C583.951,-273.435 628.464,-246.847 659.502,-228.308"/>
<polygon fill="midnightblue" stroke="midnightblue" points="661.476,-231.205 668.266,-223.072 657.886,-225.196 661.476,-231.205"/>
</g>
<!-- Node142&#45;&gt;Node135 -->
<g id="edge19" class="edge"><title>Node142&#45;&gt;Node135</title>
<path fill="none" stroke="midnightblue" d="M587.597,-54.3633C599.857,-56.1735 613.505,-58.1887 626.817,-60.1542"/>
<polygon fill="midnightblue" stroke="midnightblue" points="626.498,-63.645 636.902,-61.6433 627.521,-56.7201 626.498,-63.645"/>
</g>
<!-- Node143&#45;&gt;Node131 -->
<g id="edge21" class="edge"><title>Node143&#45;&gt;Node131</title>
<path fill="none" stroke="midnightblue" d="M265.09,-218.583C280.396,-222.108 299.972,-226.615 319.002,-230.997"/>
<polygon fill="midnightblue" stroke="midnightblue" points="318.347,-234.438 328.877,-233.271 319.918,-227.616 318.347,-234.438"/>
</g>
<!-- Node145 -->
<g id="node19" class="node"><title>Node145</title>
<g id="a_node19"><a xlink:href="../../d8/da4/MOM__neutral__diffusion_8F90.html#ace087b00a2f2ca6b9eb2bf0faf75d63d" target="_top" xlink:title="Compares a single row, k, of output from find_neutral_surface_positions() ">
<polygon fill="white" stroke="black" points="341.5,-0.5 341.5,-19.5 437.5,-19.5 437.5,-0.5 341.5,-0.5"/>
<text text-anchor="middle" x="389.5" y="-7.5" font-family="Helvetica,sans-Serif" font-size="10.00">compare_nsp_row</text>
</a>
</g>
</g>
<!-- Node144&#45;&gt;Node145 -->
<g id="edge23" class="edge"><title>Node144&#45;&gt;Node145</title>
<path fill="none" stroke="midnightblue" d="M262.63,-10C281.41,-10 307.465,-10 331,-10"/>
<polygon fill="midnightblue" stroke="midnightblue" points="331.251,-13.5001 341.251,-10 331.251,-6.5001 331.251,-13.5001"/>
</g>
</g>
</svg>
