<?xml version="1.0" encoding="UTF-8" standalone="no"?>
<!DOCTYPE svg PUBLIC "-//W3C//DTD SVG 1.1//EN"
 "http://www.w3.org/Graphics/SVG/1.1/DTD/svg11.dtd">
<!-- Generated by graphviz version 2.38.0 (20140413.2041)
 -->
<!-- Title: mom_domains::do_group_pass Pages: 1 -->
<svg width="469pt" height="225pt"
 viewBox="0.00 0.00 469.00 225.00" xmlns="http://www.w3.org/2000/svg" xmlns:xlink="http://www.w3.org/1999/xlink">
<g id="graph0" class="graph" transform="scale(1 1) rotate(0) translate(4 221)">
<title>mom_domains::do_group_pass</title>
<polygon fill="white" stroke="none" points="-4,4 -4,-221 465,-221 465,4 -4,4"/>
<!-- Node24 -->
<g id="node1" class="node"><title>Node24</title>
<polygon fill="#bfbfbf" stroke="black" points="0,-99 0,-118 152,-118 152,-99 0,-99"/>
<text text-anchor="middle" x="76" y="-106" font-family="Helvetica,sans-Serif" font-size="10.00">mom_domains::do_group_pass</text>
</g>
<!-- Node25 -->
<g id="node2" class="node"><title>Node25</title>
<g id="a_node2"><a xlink:href="../../d9/d29/namespacemom__tracer__advect.html#a4c97e84c1a3c433d0c2e84b57926bc08" target="_top" xlink:title="This routine time steps the tracer concentration using a monotonic, conservative, weakly diffusive sc...">
<polygon fill="white" stroke="black" points="193,-186.5 193,-216.5 302,-216.5 302,-186.5 193,-186.5"/>
<text text-anchor="start" x="201" y="-204.5" font-family="Helvetica,sans-Serif" font-size="10.00">mom_tracer_advect::</text>
<text text-anchor="middle" x="247.5" y="-193.5" font-family="Helvetica,sans-Serif" font-size="10.00">advect_tracer</text>
</a>
</g>
</g>
<!-- Node24&#45;&gt;Node25 -->
<g id="edge1" class="edge"><title>Node24&#45;&gt;Node25</title>
<path fill="none" stroke="midnightblue" d="M99.2281,-123.859C121.19,-138.661 156.04,-161.155 188,-177.5 194.06,-180.599 200.616,-183.605 207.072,-186.38"/>
<polygon fill="midnightblue" stroke="midnightblue" points="101.163,-120.943 90.9255,-118.216 97.2283,-126.732 101.163,-120.943"/>
</g>
<!-- Node26 -->
<g id="node3" class="node"><title>Node26</title>
<g id="a_node3"><a xlink:href="../../d1/da1/namespacemom__bulk__mixed__layer.html#a9c3a37aae75b52453efad11d8c8abbe6" target="_top" xlink:title="mom_bulk_mixed_layer\l::bulkmixedlayer">
<polygon fill="white" stroke="black" points="188,-137.5 188,-167.5 307,-167.5 307,-137.5 188,-137.5"/>
<text text-anchor="start" x="196" y="-155.5" font-family="Helvetica,sans-Serif" font-size="10.00">mom_bulk_mixed_layer</text>
<text text-anchor="middle" x="247.5" y="-144.5" font-family="Helvetica,sans-Serif" font-size="10.00">::bulkmixedlayer</text>
</a>
</g>
</g>
<!-- Node24&#45;&gt;Node26 -->
<g id="edge2" class="edge"><title>Node24&#45;&gt;Node26</title>
<path fill="none" stroke="midnightblue" d="M123.602,-120.597C143.65,-125.801 167.295,-131.939 188.464,-137.435"/>
<polygon fill="midnightblue" stroke="midnightblue" points="124.338,-117.172 113.779,-118.047 122.579,-123.948 124.338,-117.172"/>
</g>
<!-- Node27 -->
<g id="node4" class="node"><title>Node27</title>
<g id="a_node4"><a xlink:href="../../d8/df3/namespacemom__diabatic__driver.html#a61e57d3902367aa46aa3c2d949ee900f" target="_top" xlink:title="This subroutine imposes the diapycnal mass fluxes and the accompanying diapycnal advection of momentu...">
<polygon fill="white" stroke="black" points="348.5,-117.5 348.5,-147.5 455.5,-147.5 455.5,-117.5 348.5,-117.5"/>
<text text-anchor="start" x="356.5" y="-135.5" font-family="Helvetica,sans-Serif" font-size="10.00">mom_diabatic_driver</text>
<text text-anchor="middle" x="402" y="-124.5" font-family="Helvetica,sans-Serif" font-size="10.00">::diabatic</text>
</a>
</g>
</g>
<!-- Node24&#45;&gt;Node27 -->
<g id="edge8" class="edge"><title>Node24&#45;&gt;Node27</title>
<path fill="none" stroke="midnightblue" d="M162.217,-114.812C221.32,-119.19 298.161,-124.882 348.494,-128.611"/>
<polygon fill="midnightblue" stroke="midnightblue" points="162.378,-111.315 152.146,-114.066 161.861,-118.296 162.378,-111.315"/>
</g>
<!-- Node28 -->
<g id="node5" class="node"><title>Node28</title>
<g id="a_node5"><a xlink:href="../../d3/df8/namespacemom__error__checking.html#a64a6ff01e63fde123a875f1dbeb384d7" target="_top" xlink:title="mom_error_checking\l::check_redundant_s2d">
<polygon fill="white" stroke="black" points="188.5,-49.5 188.5,-79.5 306.5,-79.5 306.5,-49.5 188.5,-49.5"/>
<text text-anchor="start" x="196.5" y="-67.5" font-family="Helvetica,sans-Serif" font-size="10.00">mom_error_checking</text>
<text text-anchor="middle" x="247.5" y="-56.5" font-family="Helvetica,sans-Serif" font-size="10.00">::check_redundant_s2d</text>
</a>
</g>
</g>
<!-- Node24&#45;&gt;Node28 -->
<g id="edge4" class="edge"><title>Node24&#45;&gt;Node28</title>
<path fill="none" stroke="midnightblue" d="M123.602,-96.4026C143.65,-91.1987 167.295,-85.0605 188.464,-79.5654"/>
<polygon fill="midnightblue" stroke="midnightblue" points="122.579,-93.0523 113.779,-98.9527 124.338,-99.8277 122.579,-93.0523"/>
</g>
<!-- Node30 -->
<g id="node7" class="node"><title>Node30</title>
<g id="a_node7"><a xlink:href="../../d3/df8/namespacemom__error__checking.html#abd1857dee63b962132a007fc27cee701" target="_top" xlink:title="mom_error_checking\l::check_redundant_v2d">
<polygon fill="white" stroke="black" points="188.5,-0.5 188.5,-30.5 306.5,-30.5 306.5,-0.5 188.5,-0.5"/>
<text text-anchor="start" x="196.5" y="-18.5" font-family="Helvetica,sans-Serif" font-size="10.00">mom_error_checking</text>
<text text-anchor="middle" x="247.5" y="-7.5" font-family="Helvetica,sans-Serif" font-size="10.00">::check_redundant_v2d</text>
</a>
</g>
</g>
<!-- Node24&#45;&gt;Node30 -->
<g id="edge6" class="edge"><title>Node24&#45;&gt;Node30</title>
<path fill="none" stroke="midnightblue" d="M99.2281,-93.1405C121.19,-78.3394 156.04,-55.8451 188,-39.5 194.06,-36.4009 200.616,-33.3953 207.072,-30.6195"/>
<polygon fill="midnightblue" stroke="midnightblue" points="97.2283,-90.2678 90.9255,-98.784 101.163,-96.057 97.2283,-90.2678"/>
</g>
<!-- Node26&#45;&gt;Node27 -->
<g id="edge3" class="edge"><title>Node26&#45;&gt;Node27</title>
<path fill="none" stroke="midnightblue" d="M317.025,-143.513C327.546,-142.133 338.266,-140.727 348.371,-139.402"/>
<polygon fill="midnightblue" stroke="midnightblue" points="316.484,-140.054 307.024,-144.825 317.395,-146.995 316.484,-140.054"/>
</g>
<!-- Node29 -->
<g id="node6" class="node"><title>Node29</title>
<g id="a_node6"><a xlink:href="../../d3/df8/namespacemom__error__checking.html#ab6c828bf123d06ee8ee78721151dce65" target="_top" xlink:title="mom_error_checking\l::check_redundant_s3d">
<polygon fill="white" stroke="black" points="343,-49.5 343,-79.5 461,-79.5 461,-49.5 343,-49.5"/>
<text text-anchor="start" x="351" y="-67.5" font-family="Helvetica,sans-Serif" font-size="10.00">mom_error_checking</text>
<text text-anchor="middle" x="402" y="-56.5" font-family="Helvetica,sans-Serif" font-size="10.00">::check_redundant_s3d</text>
</a>
</g>
</g>
<!-- Node28&#45;&gt;Node29 -->
<g id="edge5" class="edge"><title>Node28&#45;&gt;Node29</title>
<path fill="none" stroke="midnightblue" d="M316.723,-64.5C325.435,-64.5 334.288,-64.5 342.82,-64.5"/>
<polygon fill="midnightblue" stroke="midnightblue" points="316.589,-61.0001 306.589,-64.5 316.589,-68.0001 316.589,-61.0001"/>
</g>
<!-- Node31 -->
<g id="node8" class="node"><title>Node31</title>
<g id="a_node8"><a xlink:href="../../d3/df8/namespacemom__error__checking.html#a374132a74b43a1cbd90ef8960b9332ae" target="_top" xlink:title="mom_error_checking\l::check_redundant_v3d">
<polygon fill="white" stroke="black" points="343,-0.5 343,-30.5 461,-30.5 461,-0.5 343,-0.5"/>
<text text-anchor="start" x="351" y="-18.5" font-family="Helvetica,sans-Serif" font-size="10.00">mom_error_checking</text>
<text text-anchor="middle" x="402" y="-7.5" font-family="Helvetica,sans-Serif" font-size="10.00">::check_redundant_v3d</text>
</a>
</g>
</g>
<!-- Node30&#45;&gt;Node31 -->
<g id="edge7" class="edge"><title>Node30&#45;&gt;Node31</title>
<path fill="none" stroke="midnightblue" d="M316.723,-15.5C325.435,-15.5 334.288,-15.5 342.82,-15.5"/>
<polygon fill="midnightblue" stroke="midnightblue" points="316.589,-12.0001 306.589,-15.5 316.589,-19.0001 316.589,-12.0001"/>
</g>
</g>
</svg>
