<?xml version="1.0" encoding="UTF-8" standalone="no"?>
<!DOCTYPE svg PUBLIC "-//W3C//DTD SVG 1.1//EN"
 "http://www.w3.org/Graphics/SVG/1.1/DTD/svg11.dtd">
<!-- Generated by graphviz version 2.38.0 (20140413.2041)
 -->
<!-- Title: mom_barotropic::bt_obc_type Pages: 1 -->
<svg width="149pt" height="216pt"
 viewBox="0.00 0.00 149.00 216.00" xmlns="http://www.w3.org/2000/svg" xmlns:xlink="http://www.w3.org/1999/xlink">
<g id="graph0" class="graph" transform="scale(1 1) rotate(0) translate(4 212)">
<title>mom_barotropic::bt_obc_type</title>
<polygon fill="white" stroke="none" points="-4,4 -4,-212 145,-212 145,4 -4,4"/>
<!-- Node1 -->
<g id="node1" class="node"><title>Node1</title>
<polygon fill="#bfbfbf" stroke="black" points="5.5,-0.5 5.5,-30.5 106.5,-30.5 106.5,-0.5 5.5,-0.5"/>
<text text-anchor="start" x="13.5" y="-18.5" font-family="Helvetica,sans-Serif" font-size="10.00">mom_barotropic::bt</text>
<text text-anchor="middle" x="56" y="-7.5" font-family="Helvetica,sans-Serif" font-size="10.00">_obc_type</text>
</g>
<!-- Node2 -->
<g id="node2" class="node"><title>Node2</title>
<polygon fill="white" stroke="#bfbfbf" points="0,-188.5 0,-207.5 46,-207.5 46,-188.5 0,-188.5"/>
<text text-anchor="middle" x="23" y="-195.5" font-family="Helvetica,sans-Serif" font-size="10.00">integer</text>
</g>
<!-- Node2&#45;&gt;Node1 -->
<g id="edge1" class="edge"><title>Node2&#45;&gt;Node1</title>
<path fill="none" stroke="#9a32cd" stroke-dasharray="5,2" d="M18.7897,-178.237C13.2186,-149.249 6.05243,-92.3903 24,-49 26.845,-42.1219 31.9151,-35.913 37.1928,-30.8093"/>
<polygon fill="#9a32cd" stroke="#9a32cd" points="15.4007,-179.132 20.8614,-188.211 22.2545,-177.708 15.4007,-179.132"/>
<text text-anchor="middle" x="45.5" y="-145.5" font-family="Helvetica,sans-Serif" font-size="10.00"> js_u_obc</text>
<text text-anchor="middle" x="45.5" y="-134.5" font-family="Helvetica,sans-Serif" font-size="10.00">js_v_obc</text>
<text text-anchor="middle" x="45.5" y="-123.5" font-family="Helvetica,sans-Serif" font-size="10.00">is_u_obc</text>
<text text-anchor="middle" x="45.5" y="-112.5" font-family="Helvetica,sans-Serif" font-size="10.00">is_v_obc</text>
<text text-anchor="middle" x="45.5" y="-101.5" font-family="Helvetica,sans-Serif" font-size="10.00">je_u_obc</text>
<text text-anchor="middle" x="45.5" y="-90.5" font-family="Helvetica,sans-Serif" font-size="10.00">je_v_obc</text>
<text text-anchor="middle" x="45.5" y="-79.5" font-family="Helvetica,sans-Serif" font-size="10.00">ie_u_obc</text>
<text text-anchor="middle" x="45.5" y="-68.5" font-family="Helvetica,sans-Serif" font-size="10.00">ie_v_obc</text>
</g>
<!-- Node3 -->
<g id="node3" class="node"><title>Node3</title>
<polygon fill="white" stroke="#bfbfbf" points="73,-188.5 73,-207.5 105,-207.5 105,-188.5 73,-188.5"/>
<text text-anchor="middle" x="89" y="-195.5" font-family="Helvetica,sans-Serif" font-size="10.00">real</text>
</g>
<!-- Node3&#45;&gt;Node1 -->
<g id="edge2" class="edge"><title>Node3&#45;&gt;Node1</title>
<path fill="none" stroke="#9a32cd" stroke-dasharray="5,2" d="M87.2862,-178.128C84.4689,-149.797 78.0409,-94.7179 67,-49 65.5177,-42.8623 63.377,-36.2353 61.3773,-30.5765"/>
<polygon fill="#9a32cd" stroke="#9a32cd" points="83.815,-178.598 88.2477,-188.221 90.7835,-177.934 83.815,-178.598"/>
<text text-anchor="middle" x="113.5" y="-162" font-family="Helvetica,sans-Serif" font-size="10.00"> eta_outer_u</text>
<text text-anchor="middle" x="113.5" y="-151" font-family="Helvetica,sans-Serif" font-size="10.00">vbt_outer</text>
<text text-anchor="middle" x="113.5" y="-140" font-family="Helvetica,sans-Serif" font-size="10.00">eta_outer_v</text>
<text text-anchor="middle" x="113.5" y="-129" font-family="Helvetica,sans-Serif" font-size="10.00">vhbt</text>
<text text-anchor="middle" x="113.5" y="-118" font-family="Helvetica,sans-Serif" font-size="10.00">uhbt</text>
<text text-anchor="middle" x="113.5" y="-107" font-family="Helvetica,sans-Serif" font-size="10.00">h_u</text>
<text text-anchor="middle" x="113.5" y="-96" font-family="Helvetica,sans-Serif" font-size="10.00">h_v</text>
<text text-anchor="middle" x="113.5" y="-85" font-family="Helvetica,sans-Serif" font-size="10.00">cg_u</text>
<text text-anchor="middle" x="113.5" y="-74" font-family="Helvetica,sans-Serif" font-size="10.00">cg_v</text>
<text text-anchor="middle" x="113.5" y="-63" font-family="Helvetica,sans-Serif" font-size="10.00">ubt_outer</text>
<text text-anchor="middle" x="113.5" y="-52" font-family="Helvetica,sans-Serif" font-size="10.00">...</text>
</g>
</g>
</svg>
