<?xml version="1.0" encoding="UTF-8" standalone="no"?>
<!DOCTYPE svg PUBLIC "-//W3C//DTD SVG 1.1//EN"
 "http://www.w3.org/Graphics/SVG/1.1/DTD/svg11.dtd">
<!-- Generated by graphviz version 2.38.0 (20140413.2041)
 -->
<!-- Title: oil_tracer::oil_tracer_cs Pages: 1 -->
<svg width="369pt" height="632pt"
 viewBox="0.00 0.00 369.00 632.23" xmlns="http://www.w3.org/2000/svg" xmlns:xlink="http://www.w3.org/1999/xlink">
<g id="graph0" class="graph" transform="scale(1 1) rotate(0) translate(4 628.227)">
<title>oil_tracer::oil_tracer_cs</title>
<polygon fill="white" stroke="none" points="-4,4 -4,-628.227 365,-628.227 365,4 -4,4"/>
<!-- Node1 -->
<g id="node1" class="node"><title>Node1</title>
<polygon fill="#bfbfbf" stroke="black" points="262,-405.727 262,-424.727 361,-424.727 361,-405.727 262,-405.727"/>
<text text-anchor="middle" x="311.5" y="-412.727" font-family="Helvetica,sans-Serif" font-size="10.00">oil_tracer::oil_tracer_cs</text>
</g>
<!-- Node2 -->
<g id="node2" class="node"><title>Node2</title>
<polygon fill="white" stroke="#bfbfbf" points="101.5,-579.727 101.5,-598.727 139.5,-598.727 139.5,-579.727 101.5,-579.727"/>
<text text-anchor="middle" x="120.5" y="-586.727" font-family="Helvetica,sans-Serif" font-size="10.00">logical</text>
</g>
<!-- Node2&#45;&gt;Node1 -->
<g id="edge1" class="edge"><title>Node2&#45;&gt;Node1</title>
<path fill="none" stroke="#9a32cd" stroke-dasharray="5,2" d="M149.862,-587.683C176.886,-584.828 217.299,-576.782 244,-554.227 286.098,-518.665 303.505,-450.33 308.698,-424.993"/>
<polygon fill="#9a32cd" stroke="#9a32cd" points="149.524,-584.199 139.872,-588.567 150.142,-591.172 149.524,-584.199"/>
<text text-anchor="middle" x="215" y="-616.227" font-family="Helvetica,sans-Serif" font-size="10.00"> oil_may_reinit</text>
<text text-anchor="middle" x="215" y="-605.227" font-family="Helvetica,sans-Serif" font-size="10.00">z_ic_file</text>
<text text-anchor="middle" x="215" y="-594.227" font-family="Helvetica,sans-Serif" font-size="10.00">coupled_tracers</text>
<text text-anchor="middle" x="215" y="-583.227" font-family="Helvetica,sans-Serif" font-size="10.00">mask_tracers</text>
</g>
<!-- Node3 -->
<g id="node3" class="node"><title>Node3</title>
<polygon fill="white" stroke="#bfbfbf" points="95,-541.727 95,-560.727 146,-560.727 146,-541.727 95,-541.727"/>
<text text-anchor="middle" x="120.5" y="-548.727" font-family="Helvetica,sans-Serif" font-size="10.00">time_type</text>
</g>
<!-- Node3&#45;&gt;Node1 -->
<g id="edge2" class="edge"><title>Node3&#45;&gt;Node1</title>
<path fill="none" stroke="#9a32cd" stroke-dasharray="5,2" d="M156.107,-546.81C182.312,-542.058 218.097,-532.42 244,-513.227 276.38,-489.235 298.159,-444.535 306.589,-424.9"/>
<polygon fill="#9a32cd" stroke="#9a32cd" points="155.513,-543.361 146.223,-548.455 156.662,-550.266 155.513,-543.361"/>
<text text-anchor="middle" x="215" y="-542.227" font-family="Helvetica,sans-Serif" font-size="10.00"> time</text>
</g>
<!-- Node4 -->
<g id="node4" class="node"><title>Node4</title>
<polygon fill="white" stroke="#bfbfbf" points="76.5,-503.727 76.5,-522.727 164.5,-522.727 164.5,-503.727 76.5,-503.727"/>
<text text-anchor="middle" x="120.5" y="-510.727" font-family="Helvetica,sans-Serif" font-size="10.00">tracer_registry_type</text>
</g>
<!-- Node4&#45;&gt;Node1 -->
<g id="edge3" class="edge"><title>Node4&#45;&gt;Node1</title>
<path fill="none" stroke="#9a32cd" stroke-dasharray="5,2" d="M174.219,-502.821C196.666,-497.02 222.56,-488.44 244,-476.227 268.231,-462.424 290.916,-438.325 302.49,-424.921"/>
<polygon fill="#9a32cd" stroke="#9a32cd" points="173.376,-499.424 164.505,-505.216 175.052,-506.22 173.376,-499.424"/>
<text text-anchor="middle" x="215" y="-501.227" font-family="Helvetica,sans-Serif" font-size="10.00"> tr_reg</text>
</g>
<!-- Node5 -->
<g id="node5" class="node"><title>Node5</title>
<polygon fill="white" stroke="#bfbfbf" points="78,-465.727 78,-484.727 163,-484.727 163,-465.727 78,-465.727"/>
<text text-anchor="middle" x="120.5" y="-472.727" font-family="Helvetica,sans-Serif" font-size="10.00">character(len=200)</text>
</g>
<!-- Node5&#45;&gt;Node1 -->
<g id="edge4" class="edge"><title>Node5&#45;&gt;Node1</title>
<path fill="none" stroke="#9a32cd" stroke-dasharray="5,2" d="M173.026,-464.821C195.144,-459.788 221.112,-453.117 244,-445.227 260.524,-439.531 278.557,-431.258 291.671,-424.842"/>
<polygon fill="#9a32cd" stroke="#9a32cd" points="172.16,-461.428 163.159,-467.017 173.681,-468.261 172.16,-461.428"/>
<text text-anchor="middle" x="215" y="-464.227" font-family="Helvetica,sans-Serif" font-size="10.00"> ic_file</text>
</g>
<!-- Node6 -->
<g id="node6" class="node"><title>Node6</title>
<polygon fill="white" stroke="#bfbfbf" points="98.5,-427.727 98.5,-446.727 142.5,-446.727 142.5,-427.727 98.5,-427.727"/>
<text text-anchor="middle" x="120.5" y="-434.727" font-family="Helvetica,sans-Serif" font-size="10.00">vardesc</text>
</g>
<!-- Node6&#45;&gt;Node1 -->
<g id="edge5" class="edge"><title>Node6&#45;&gt;Node1</title>
<path fill="none" stroke="#9a32cd" stroke-dasharray="5,2" d="M153.005,-433.56C182.664,-430.107 227.527,-424.885 261.794,-420.897"/>
<polygon fill="#9a32cd" stroke="#9a32cd" points="152.342,-430.113 142.813,-434.746 153.151,-437.066 152.342,-430.113"/>
<text text-anchor="middle" x="215" y="-433.227" font-family="Helvetica,sans-Serif" font-size="10.00"> tr_desc</text>
</g>
<!-- Node7 -->
<g id="node7" class="node"><title>Node7</title>
<polygon fill="white" stroke="#bfbfbf" points="73,-378.227 73,-408.227 168,-408.227 168,-378.227 73,-378.227"/>
<text text-anchor="start" x="81" y="-396.227" font-family="Helvetica,sans-Serif" font-size="10.00">type(mom_restart_cs)</text>
<text text-anchor="middle" x="120.5" y="-385.227" font-family="Helvetica,sans-Serif" font-size="10.00">, pointer</text>
</g>
<!-- Node7&#45;&gt;Node1 -->
<g id="edge6" class="edge"><title>Node7&#45;&gt;Node1</title>
<path fill="none" stroke="#9a32cd" stroke-dasharray="5,2" d="M178.157,-399.822C204.757,-402.918 236.149,-406.572 261.682,-409.545"/>
<polygon fill="#9a32cd" stroke="#9a32cd" points="178.557,-396.345 168.219,-398.665 177.747,-403.298 178.557,-396.345"/>
<text text-anchor="middle" x="215" y="-411.227" font-family="Helvetica,sans-Serif" font-size="10.00"> restart_csp</text>
</g>
<!-- Node8 -->
<g id="node8" class="node"><title>Node8</title>
<g id="a_node8"><a xlink:href="../../dd/dc2/structoil__tracer_1_1p3d.html" target="_top" xlink:title="oil_tracer::p3d">
<polygon fill="white" stroke="black" points="86.5,-182.727 86.5,-201.727 154.5,-201.727 154.5,-182.727 86.5,-182.727"/>
<text text-anchor="middle" x="120.5" y="-189.727" font-family="Helvetica,sans-Serif" font-size="10.00">oil_tracer::p3d</text>
</a>
</g>
</g>
<!-- Node8&#45;&gt;Node1 -->
<g id="edge7" class="edge"><title>Node8&#45;&gt;Node1</title>
<path fill="none" stroke="#9a32cd" stroke-dasharray="5,2" d="M158.771,-180.109C185.136,-174.003 219.939,-171.226 244,-189.227 280.269,-216.362 303.56,-365.731 309.178,-405.498"/>
<polygon fill="#9a32cd" stroke="#9a32cd" points="157.579,-176.801 148.762,-182.676 159.318,-183.582 157.579,-176.801"/>
<text text-anchor="middle" x="215" y="-225.227" font-family="Helvetica,sans-Serif" font-size="10.00"> tr_adx</text>
<text text-anchor="middle" x="215" y="-214.227" font-family="Helvetica,sans-Serif" font-size="10.00">tr_dfx</text>
<text text-anchor="middle" x="215" y="-203.227" font-family="Helvetica,sans-Serif" font-size="10.00">tr_ady</text>
<text text-anchor="middle" x="215" y="-192.227" font-family="Helvetica,sans-Serif" font-size="10.00">tr_dfy</text>
</g>
<!-- Node9 -->
<g id="node9" class="node"><title>Node9</title>
<polygon fill="white" stroke="#bfbfbf" points="0,-210.727 0,-229.727 30,-229.727 30,-210.727 0,-210.727"/>
<text text-anchor="middle" x="15" y="-217.727" font-family="Helvetica,sans-Serif" font-size="10.00">real</text>
</g>
<!-- Node9&#45;&gt;Node1 -->
<g id="edge10" class="edge"><title>Node9&#45;&gt;Node1</title>
<path fill="none" stroke="#9a32cd" stroke-dasharray="5,2" d="M40.0105,-223.58C80.0257,-229.302 157.064,-240.943 168,-247.227 238.3,-287.625 289.891,-376.327 305.549,-405.625"/>
<polygon fill="#9a32cd" stroke="#9a32cd" points="40.4095,-220.101 30.0173,-222.164 39.4274,-227.032 40.4095,-220.101"/>
<text text-anchor="middle" x="120.5" y="-360.227" font-family="Helvetica,sans-Serif" font-size="10.00"> oil_decay_rate</text>
<text text-anchor="middle" x="120.5" y="-349.227" font-family="Helvetica,sans-Serif" font-size="10.00">oil_source_longitude</text>
<text text-anchor="middle" x="120.5" y="-338.227" font-family="Helvetica,sans-Serif" font-size="10.00">oil_decay_days</text>
<text text-anchor="middle" x="120.5" y="-327.227" font-family="Helvetica,sans-Serif" font-size="10.00">oil_source_rate</text>
<text text-anchor="middle" x="120.5" y="-316.227" font-family="Helvetica,sans-Serif" font-size="10.00">land_val</text>
<text text-anchor="middle" x="120.5" y="-305.227" font-family="Helvetica,sans-Serif" font-size="10.00">oil_end_year</text>
<text text-anchor="middle" x="120.5" y="-294.227" font-family="Helvetica,sans-Serif" font-size="10.00">ic_val</text>
<text text-anchor="middle" x="120.5" y="-283.227" font-family="Helvetica,sans-Serif" font-size="10.00">oil_start_year</text>
<text text-anchor="middle" x="120.5" y="-272.227" font-family="Helvetica,sans-Serif" font-size="10.00">oil_source_latitude</text>
<text text-anchor="middle" x="120.5" y="-261.227" font-family="Helvetica,sans-Serif" font-size="10.00">young_val</text>
<text text-anchor="middle" x="120.5" y="-250.227" font-family="Helvetica,sans-Serif" font-size="10.00">...</text>
</g>
<!-- Node9&#45;&gt;Node8 -->
<g id="edge8" class="edge"><title>Node9&#45;&gt;Node8</title>
<path fill="none" stroke="#9a32cd" stroke-dasharray="5,2" d="M40.1185,-213.702C53.9173,-209.969 71.4249,-205.233 86.4852,-201.159"/>
<polygon fill="#9a32cd" stroke="#9a32cd" points="39.1302,-210.344 30.3912,-216.334 40.9583,-217.101 39.1302,-210.344"/>
<text text-anchor="middle" x="51.5" y="-214.227" font-family="Helvetica,sans-Serif" font-size="10.00"> p</text>
</g>
<!-- Node10 -->
<g id="node10" class="node"><title>Node10</title>
<polygon fill="white" stroke="#bfbfbf" points="97,-144.727 97,-163.727 144,-163.727 144,-144.727 97,-144.727"/>
<text text-anchor="middle" x="120.5" y="-151.727" font-family="Helvetica,sans-Serif" font-size="10.00">diag_ctrl</text>
</g>
<!-- Node10&#45;&gt;Node1 -->
<g id="edge9" class="edge"><title>Node10&#45;&gt;Node1</title>
<path fill="none" stroke="#9a32cd" stroke-dasharray="5,2" d="M154.354,-146.431C181.427,-142.065 219.26,-140.978 244,-161.227 283.419,-193.491 304.696,-363.021 309.463,-405.545"/>
<polygon fill="#9a32cd" stroke="#9a32cd" points="153.399,-143.048 144.198,-148.301 154.666,-149.932 153.399,-143.048"/>
<text text-anchor="middle" x="215" y="-164.227" font-family="Helvetica,sans-Serif" font-size="10.00"> diag</text>
</g>
<!-- Node11 -->
<g id="node11" class="node"><title>Node11</title>
<polygon fill="white" stroke="#bfbfbf" points="100,-0.727112 100,-19.7271 141,-19.7271 141,-0.727112 100,-0.727112"/>
<text text-anchor="middle" x="120.5" y="-7.72711" font-family="Helvetica,sans-Serif" font-size="10.00">integer</text>
</g>
<!-- Node11&#45;&gt;Node1 -->
<g id="edge11" class="edge"><title>Node11&#45;&gt;Node1</title>
<path fill="none" stroke="#9a32cd" stroke-dasharray="5,2" d="M151.214,-3.1035C178.81,1.59791 219.259,3.31284 244,-19.2271 303.263,-73.218 309.716,-349.841 310.415,-405.473"/>
<polygon fill="#9a32cd" stroke="#9a32cd" points="150.484,0.320326 141.326,-5.00724 151.807,-6.55343 150.484,0.320326"/>
<text text-anchor="middle" x="215" y="-132.227" font-family="Helvetica,sans-Serif" font-size="10.00"> id_tracer</text>
<text text-anchor="middle" x="215" y="-121.227" font-family="Helvetica,sans-Serif" font-size="10.00">id_tr_dfx</text>
<text text-anchor="middle" x="215" y="-110.227" font-family="Helvetica,sans-Serif" font-size="10.00">ntr</text>
<text text-anchor="middle" x="215" y="-99.2271" font-family="Helvetica,sans-Serif" font-size="10.00">id_tr_dfy</text>
<text text-anchor="middle" x="215" y="-88.2271" font-family="Helvetica,sans-Serif" font-size="10.00">oil_source_i</text>
<text text-anchor="middle" x="215" y="-77.2271" font-family="Helvetica,sans-Serif" font-size="10.00">oil_source_j</text>
<text text-anchor="middle" x="215" y="-66.2271" font-family="Helvetica,sans-Serif" font-size="10.00">oil_source_k</text>
<text text-anchor="middle" x="215" y="-55.2271" font-family="Helvetica,sans-Serif" font-size="10.00">id_tr_adx</text>
<text text-anchor="middle" x="215" y="-44.2271" font-family="Helvetica,sans-Serif" font-size="10.00">ind_tr</text>
<text text-anchor="middle" x="215" y="-33.2271" font-family="Helvetica,sans-Serif" font-size="10.00">id_tr_ady</text>
<text text-anchor="middle" x="215" y="-22.2271" font-family="Helvetica,sans-Serif" font-size="10.00">...</text>
</g>
</g>
</svg>
