<?xml version="1.0" encoding="UTF-8" standalone="no"?>
<!DOCTYPE svg PUBLIC "-//W3C//DTD SVG 1.1//EN"
 "http://www.w3.org/Graphics/SVG/1.1/DTD/svg11.dtd">
<!-- Generated by graphviz version 2.38.0 (20140413.2041)
 -->
<!-- Title: mom_fixed_initialization::mom_initialize_topography Pages: 1 -->
<svg width="545pt" height="485pt"
 viewBox="0.00 0.00 545.00 484.50" xmlns="http://www.w3.org/2000/svg" xmlns:xlink="http://www.w3.org/1999/xlink">
<g id="graph0" class="graph" transform="scale(1 1) rotate(0) translate(4 480.5)">
<title>mom_fixed_initialization::mom_initialize_topography</title>
<polygon fill="white" stroke="none" points="-4,4 -4,-480.5 541,-480.5 541,4 -4,4"/>
<!-- Node46 -->
<g id="node1" class="node"><title>Node46</title>
<polygon fill="#bfbfbf" stroke="black" points="0,-229 0,-259 116,-259 116,-229 0,-229"/>
<text text-anchor="start" x="8" y="-247" font-family="Helvetica,sans-Serif" font-size="10.00">mom_fixed_initialization</text>
<text text-anchor="middle" x="58" y="-236" font-family="Helvetica,sans-Serif" font-size="10.00">::mom_initialize_topography</text>
</g>
<!-- Node47 -->
<g id="node2" class="node"><title>Node47</title>
<g id="a_node2"><a xlink:href="../../da/d42/namespacebenchmark__initialization.html#a1bebd9e20d92971e047b79c9ceb9f694" target="_top" xlink:title="This subroutine sets up the benchmark test case topography. ">
<polygon fill="white" stroke="black" points="165,-277.5 165,-318.5 266,-318.5 266,-277.5 165,-277.5"/>
<text text-anchor="start" x="173" y="-306.5" font-family="Helvetica,sans-Serif" font-size="10.00">benchmark_initialization</text>
<text text-anchor="start" x="173" y="-295.5" font-family="Helvetica,sans-Serif" font-size="10.00">::benchmark_initialize</text>
<text text-anchor="middle" x="215.5" y="-284.5" font-family="Helvetica,sans-Serif" font-size="10.00">_topography</text>
</a>
</g>
</g>
<!-- Node46&#45;&gt;Node47 -->
<g id="edge1" class="edge"><title>Node46&#45;&gt;Node47</title>
<path fill="none" stroke="midnightblue" d="M102.315,-259.042C118.693,-264.73 137.626,-271.304 155.22,-277.414"/>
<polygon fill="midnightblue" stroke="midnightblue" points="154.236,-280.777 164.831,-280.752 156.533,-274.165 154.236,-280.777"/>
</g>
<!-- Node51 -->
<g id="node6" class="node"><title>Node51</title>
<g id="a_node6"><a xlink:href="../../da/d77/namespacedome2d__initialization.html#ae850c5e89a9275c4333c02828187bf81" target="_top" xlink:title="Initialize topography with a shelf and slope in a 2D domain. ">
<polygon fill="white" stroke="black" points="152,-180 152,-210 279,-210 279,-180 152,-180"/>
<text text-anchor="start" x="160" y="-198" font-family="Helvetica,sans-Serif" font-size="10.00">dome2d_initialization</text>
<text text-anchor="middle" x="215.5" y="-187" font-family="Helvetica,sans-Serif" font-size="10.00">::dome2d_initialize_topography</text>
</a>
</g>
</g>
<!-- Node46&#45;&gt;Node51 -->
<g id="edge6" class="edge"><title>Node46&#45;&gt;Node51</title>
<path fill="none" stroke="midnightblue" d="M106.924,-228.899C122.813,-223.892 140.661,-218.268 157.184,-213.061"/>
<polygon fill="midnightblue" stroke="midnightblue" points="158.249,-216.395 166.734,-210.052 156.145,-209.719 158.249,-216.395"/>
</g>
<!-- Node52 -->
<g id="node7" class="node"><title>Node52</title>
<g id="a_node7"><a xlink:href="../../db/d96/namespacedome__initialization.html#ad7b6dd46068562244ce6be9d56ebceb1" target="_top" xlink:title="This subroutine sets up the DOME topography. ">
<polygon fill="white" stroke="black" points="156.5,-446 156.5,-476 274.5,-476 274.5,-446 156.5,-446"/>
<text text-anchor="start" x="164.5" y="-464" font-family="Helvetica,sans-Serif" font-size="10.00">dome_initialization</text>
<text text-anchor="middle" x="215.5" y="-453" font-family="Helvetica,sans-Serif" font-size="10.00">::dome_initialize_topography</text>
</a>
</g>
</g>
<!-- Node46&#45;&gt;Node52 -->
<g id="edge7" class="edge"><title>Node46&#45;&gt;Node52</title>
<path fill="none" stroke="midnightblue" d="M62.228,-259.08C70.6513,-294.914 96.5937,-385.981 152,-437 153.264,-438.164 154.59,-439.273 155.967,-440.331"/>
<polygon fill="midnightblue" stroke="midnightblue" points="154.056,-443.262 164.333,-445.835 157.903,-437.415 154.056,-443.262"/>
</g>
<!-- Node53 -->
<g id="node8" class="node"><title>Node53</title>
<g id="a_node8"><a xlink:href="../../d7/d55/namespaceisomip__initialization.html#ab744ce65e54b3ba5f6107dd909ded31f" target="_top" xlink:title="Initialization of topography. ">
<polygon fill="white" stroke="black" points="155.5,-397 155.5,-427 275.5,-427 275.5,-397 155.5,-397"/>
<text text-anchor="start" x="163.5" y="-415" font-family="Helvetica,sans-Serif" font-size="10.00">isomip_initialization</text>
<text text-anchor="middle" x="215.5" y="-404" font-family="Helvetica,sans-Serif" font-size="10.00">::isomip_initialize_topography</text>
</a>
</g>
</g>
<!-- Node46&#45;&gt;Node53 -->
<g id="edge10" class="edge"><title>Node46&#45;&gt;Node53</title>
<path fill="none" stroke="midnightblue" d="M65.0233,-259.292C77.1946,-288.334 107.41,-351.794 152,-388 153.557,-389.264 155.187,-390.466 156.875,-391.61"/>
<polygon fill="midnightblue" stroke="midnightblue" points="155.322,-394.758 165.708,-396.85 158.893,-388.738 155.322,-394.758"/>
</g>
<!-- Node54 -->
<g id="node9" class="node"><title>Node54</title>
<g id="a_node9"><a xlink:href="../../d8/ddc/namespacephillips__initialization.html#a43bb71b08d4747199e2a06f063fb87fe" target="_top" xlink:title="Initialize topography. ">
<polygon fill="white" stroke="black" points="173.5,-120.5 173.5,-161.5 257.5,-161.5 257.5,-120.5 173.5,-120.5"/>
<text text-anchor="start" x="181.5" y="-149.5" font-family="Helvetica,sans-Serif" font-size="10.00">phillips_initialization</text>
<text text-anchor="start" x="181.5" y="-138.5" font-family="Helvetica,sans-Serif" font-size="10.00">::phillips_initialize</text>
<text text-anchor="middle" x="215.5" y="-127.5" font-family="Helvetica,sans-Serif" font-size="10.00">_topography</text>
</a>
</g>
</g>
<!-- Node46&#45;&gt;Node54 -->
<g id="edge13" class="edge"><title>Node46&#45;&gt;Node54</title>
<path fill="none" stroke="midnightblue" d="M75.9882,-228.805C94.0235,-213.132 123.766,-188.564 152,-171 156.005,-168.509 160.248,-166.077 164.563,-163.745"/>
<polygon fill="midnightblue" stroke="midnightblue" points="166.212,-166.833 173.467,-159.112 162.98,-160.623 166.212,-166.833"/>
</g>
<!-- Node55 -->
<g id="node10" class="node"><title>Node55</title>
<g id="a_node10"><a xlink:href="../../d7/d25/namespaceseamount__initialization.html#ad0d12dd03f77e4a827fcd925805b92c9" target="_top" xlink:title="Initialization of topography. ">
<polygon fill="white" stroke="black" points="167.5,-60.5 167.5,-101.5 263.5,-101.5 263.5,-60.5 167.5,-60.5"/>
<text text-anchor="start" x="175.5" y="-89.5" font-family="Helvetica,sans-Serif" font-size="10.00">seamount_initialization</text>
<text text-anchor="start" x="175.5" y="-78.5" font-family="Helvetica,sans-Serif" font-size="10.00">::seamount_initialize</text>
<text text-anchor="middle" x="215.5" y="-67.5" font-family="Helvetica,sans-Serif" font-size="10.00">_topography</text>
</a>
</g>
</g>
<!-- Node46&#45;&gt;Node55 -->
<g id="edge14" class="edge"><title>Node46&#45;&gt;Node55</title>
<path fill="none" stroke="midnightblue" d="M66.2206,-228.948C79.7319,-202.13 111.196,-145.652 152,-111 154.193,-109.137 156.522,-107.361 158.941,-105.671"/>
<polygon fill="midnightblue" stroke="midnightblue" points="160.893,-108.578 167.454,-100.259 157.137,-102.671 160.893,-108.578"/>
</g>
<!-- Node56 -->
<g id="node11" class="node"><title>Node56</title>
<g id="a_node11"><a xlink:href="../../d0/d18/namespacesloshing__initialization.html#a0ecf019d4e63415fc16ce5ca4158f7f3" target="_top" xlink:title="Initialization of topography. ">
<polygon fill="white" stroke="black" points="171,-0.5 171,-41.5 260,-41.5 260,-0.5 171,-0.5"/>
<text text-anchor="start" x="179" y="-29.5" font-family="Helvetica,sans-Serif" font-size="10.00">sloshing_initialization</text>
<text text-anchor="start" x="179" y="-18.5" font-family="Helvetica,sans-Serif" font-size="10.00">::sloshing_initialize</text>
<text text-anchor="middle" x="215.5" y="-7.5" font-family="Helvetica,sans-Serif" font-size="10.00">_topography</text>
</a>
</g>
</g>
<!-- Node46&#45;&gt;Node56 -->
<g id="edge15" class="edge"><title>Node46&#45;&gt;Node56</title>
<path fill="none" stroke="midnightblue" d="M62.5714,-228.947C71.6667,-193.561 98.8333,-104.086 152,-51 155.151,-47.8534 158.697,-44.9897 162.458,-42.3929"/>
<polygon fill="midnightblue" stroke="midnightblue" points="164.303,-45.367 170.964,-37.1279 160.619,-39.4149 164.303,-45.367"/>
</g>
<!-- Node57 -->
<g id="node12" class="node"><title>Node57</title>
<g id="a_node12"><a xlink:href="../../dc/dec/namespacesupercritical__initialization.html#a0cedacc057705a1f7c01e64880a3267c" target="_top" xlink:title="This subroutine sets up the supercritical topography. ">
<polygon fill="white" stroke="black" points="164,-337.5 164,-378.5 267,-378.5 267,-337.5 164,-337.5"/>
<text text-anchor="start" x="172" y="-366.5" font-family="Helvetica,sans-Serif" font-size="10.00">supercritical_initialization</text>
<text text-anchor="start" x="172" y="-355.5" font-family="Helvetica,sans-Serif" font-size="10.00">::supercritical_initialize</text>
<text text-anchor="middle" x="215.5" y="-344.5" font-family="Helvetica,sans-Serif" font-size="10.00">_topography</text>
</a>
</g>
</g>
<!-- Node46&#45;&gt;Node57 -->
<g id="edge16" class="edge"><title>Node46&#45;&gt;Node57</title>
<path fill="none" stroke="midnightblue" d="M73.0367,-259.092C90.3543,-277.11 121.288,-307.39 152,-328 154.142,-329.438 156.364,-330.845 158.637,-332.217"/>
<polygon fill="midnightblue" stroke="midnightblue" points="157.177,-335.413 167.598,-337.323 160.642,-329.331 157.177,-335.413"/>
</g>
<!-- Node58 -->
<g id="node13" class="node"><title>Node58</title>
<g id="a_node13"><a xlink:href="../../d9/dfa/namespaceuser__initialization.html#a7b7630e690c942f2961e45e19c4f69fc" target="_top" xlink:title="Initialize topography. ">
<polygon fill="white" stroke="black" points="159,-229 159,-259 272,-259 272,-229 159,-229"/>
<text text-anchor="start" x="167" y="-247" font-family="Helvetica,sans-Serif" font-size="10.00">user_initialization</text>
<text text-anchor="middle" x="215.5" y="-236" font-family="Helvetica,sans-Serif" font-size="10.00">::user_initialize_topography</text>
</a>
</g>
</g>
<!-- Node46&#45;&gt;Node58 -->
<g id="edge19" class="edge"><title>Node46&#45;&gt;Node58</title>
<path fill="none" stroke="midnightblue" d="M116.019,-244C126.595,-244 137.723,-244 148.538,-244"/>
<polygon fill="midnightblue" stroke="midnightblue" points="148.785,-247.5 158.785,-244 148.785,-240.5 148.785,-247.5"/>
</g>
<!-- Node48 -->
<g id="node3" class="node"><title>Node48</title>
<g id="a_node3"><a xlink:href="../../d9/def/namespacemom__file__parser.html#a17c0ef1bb1912f02faa0aaa1e0f64210" target="_top" xlink:title="mom_file_parser::log\l_version">
<polygon fill="white" stroke="black" points="315.5,-392 315.5,-422 407.5,-422 407.5,-392 315.5,-392"/>
<text text-anchor="start" x="323.5" y="-410" font-family="Helvetica,sans-Serif" font-size="10.00">mom_file_parser::log</text>
<text text-anchor="middle" x="361.5" y="-399" font-family="Helvetica,sans-Serif" font-size="10.00">_version</text>
</a>
</g>
</g>
<!-- Node47&#45;&gt;Node48 -->
<g id="edge2" class="edge"><title>Node47&#45;&gt;Node48</title>
<path fill="none" stroke="midnightblue" d="M266.217,-318.663C270.758,-321.479 275.107,-324.59 279,-328 300.976,-347.25 293.392,-363.337 315,-383 316.115,-384.014 317.28,-384.999 318.485,-385.954"/>
<polygon fill="midnightblue" stroke="midnightblue" points="316.679,-388.962 326.882,-391.816 320.685,-383.222 316.679,-388.962"/>
</g>
<!-- Node50 -->
<g id="node5" class="node"><title>Node50</title>
<g id="a_node5"><a xlink:href="../../d0/de6/namespacemom__error__handler.html#a1c462df7b61f1296407b4af51dfeceab" target="_top" xlink:title="mom_error_handler::\lmom_mesg">
<polygon fill="white" stroke="black" points="315,-343 315,-373 408,-373 408,-343 315,-343"/>
<text text-anchor="start" x="323" y="-361" font-family="Helvetica,sans-Serif" font-size="10.00">mom_error_handler::</text>
<text text-anchor="middle" x="361.5" y="-350" font-family="Helvetica,sans-Serif" font-size="10.00">mom_mesg</text>
</a>
</g>
</g>
<!-- Node47&#45;&gt;Node50 -->
<g id="edge4" class="edge"><title>Node47&#45;&gt;Node50</title>
<path fill="none" stroke="midnightblue" d="M266.057,-318.649C281.957,-325.274 299.479,-332.575 315.068,-339.07"/>
<polygon fill="midnightblue" stroke="midnightblue" points="313.917,-342.382 324.494,-342.997 316.609,-335.92 313.917,-342.382"/>
</g>
<!-- Node49 -->
<g id="node4" class="node"><title>Node49</title>
<g id="a_node4"><a xlink:href="../../d0/de6/namespacemom__error__handler.html#ad5f00a53059c72fe2332d1436c80ca71" target="_top" xlink:title="mom_error_handler::\lis_root_pe">
<polygon fill="white" stroke="black" points="444,-343 444,-373 537,-373 537,-343 444,-343"/>
<text text-anchor="start" x="452" y="-361" font-family="Helvetica,sans-Serif" font-size="10.00">mom_error_handler::</text>
<text text-anchor="middle" x="490.5" y="-350" font-family="Helvetica,sans-Serif" font-size="10.00">is_root_pe</text>
</a>
</g>
</g>
<!-- Node48&#45;&gt;Node49 -->
<g id="edge3" class="edge"><title>Node48&#45;&gt;Node49</title>
<path fill="none" stroke="midnightblue" d="M401.64,-391.899C413.953,-387.148 427.706,-381.842 440.608,-376.864"/>
<polygon fill="midnightblue" stroke="midnightblue" points="442.2,-380.001 450.27,-373.136 439.681,-373.47 442.2,-380.001"/>
</g>
<!-- Node50&#45;&gt;Node49 -->
<g id="edge5" class="edge"><title>Node50&#45;&gt;Node49</title>
<path fill="none" stroke="midnightblue" d="M408.35,-358C416.533,-358 425.141,-358 433.568,-358"/>
<polygon fill="midnightblue" stroke="midnightblue" points="433.717,-361.5 443.717,-358 433.717,-354.5 433.717,-361.5"/>
</g>
<!-- Node52&#45;&gt;Node48 -->
<g id="edge8" class="edge"><title>Node52&#45;&gt;Node48</title>
<path fill="none" stroke="midnightblue" d="M256.612,-445.958C273.394,-439.665 293.072,-432.286 310.762,-425.652"/>
<polygon fill="midnightblue" stroke="midnightblue" points="312.219,-428.843 320.354,-422.055 309.761,-422.289 312.219,-428.843"/>
</g>
<!-- Node52&#45;&gt;Node50 -->
<g id="edge9" class="edge"><title>Node52&#45;&gt;Node50</title>
<path fill="none" stroke="midnightblue" d="M264.924,-445.953C269.928,-443.381 274.734,-440.413 279,-437 301.524,-418.982 293.75,-402.505 315,-383 316.494,-381.629 318.077,-380.305 319.721,-379.032"/>
<polygon fill="midnightblue" stroke="midnightblue" points="322.088,-381.652 328.333,-373.093 318.113,-375.889 322.088,-381.652"/>
</g>
<!-- Node53&#45;&gt;Node48 -->
<g id="edge11" class="edge"><title>Node53&#45;&gt;Node48</title>
<path fill="none" stroke="midnightblue" d="M275.902,-409.937C285.574,-409.602 295.559,-409.255 305.129,-408.923"/>
<polygon fill="midnightblue" stroke="midnightblue" points="305.445,-412.414 315.317,-408.569 305.202,-405.418 305.445,-412.414"/>
</g>
<!-- Node53&#45;&gt;Node50 -->
<g id="edge12" class="edge"><title>Node53&#45;&gt;Node50</title>
<path fill="none" stroke="midnightblue" d="M256.612,-396.958C273.394,-390.665 293.072,-383.286 310.762,-376.652"/>
<polygon fill="midnightblue" stroke="midnightblue" points="312.219,-379.843 320.354,-373.055 309.761,-373.289 312.219,-379.843"/>
</g>
<!-- Node57&#45;&gt;Node48 -->
<g id="edge18" class="edge"><title>Node57&#45;&gt;Node48</title>
<path fill="none" stroke="midnightblue" d="M267.269,-375.276C280.045,-379.623 293.801,-384.304 306.719,-388.699"/>
<polygon fill="midnightblue" stroke="midnightblue" points="305.81,-392.087 316.404,-391.995 308.065,-385.46 305.81,-392.087"/>
</g>
<!-- Node57&#45;&gt;Node50 -->
<g id="edge17" class="edge"><title>Node57&#45;&gt;Node50</title>
<path fill="none" stroke="midnightblue" d="M267.269,-358C279.415,-358 292.446,-358 304.802,-358"/>
<polygon fill="midnightblue" stroke="midnightblue" points="304.987,-361.5 314.987,-358 304.987,-354.5 304.987,-361.5"/>
</g>
<!-- Node59 -->
<g id="node14" class="node"><title>Node59</title>
<g id="a_node14"><a xlink:href="../../d0/de6/namespacemom__error__handler.html#a460cfb79a06c29fc249952c2a3710d67" target="_top" xlink:title="mom_error_handler::\lmom_error">
<polygon fill="white" stroke="black" points="315,-286 315,-316 408,-316 408,-286 315,-286"/>
<text text-anchor="start" x="323" y="-304" font-family="Helvetica,sans-Serif" font-size="10.00">mom_error_handler::</text>
<text text-anchor="middle" x="361.5" y="-293" font-family="Helvetica,sans-Serif" font-size="10.00">mom_error</text>
</a>
</g>
</g>
<!-- Node58&#45;&gt;Node59 -->
<g id="edge20" class="edge"><title>Node58&#45;&gt;Node59</title>
<path fill="none" stroke="midnightblue" d="M256.218,-259.128C263.791,-262.047 271.647,-265.1 279,-268 290.427,-272.507 302.723,-277.441 314.212,-282.089"/>
<polygon fill="midnightblue" stroke="midnightblue" points="313.054,-285.396 323.637,-285.909 315.684,-278.909 313.054,-285.396"/>
</g>
<!-- Node60 -->
<g id="node15" class="node"><title>Node60</title>
<g id="a_node15"><a xlink:href="../../d9/dfa/namespaceuser__initialization.html#aebfc0db710e83bae83f08e1a774256dd" target="_top" xlink:title="Write output about the parameter values being used. ">
<polygon fill="white" stroke="black" points="323,-229 323,-259 400,-259 400,-229 323,-229"/>
<text text-anchor="start" x="331" y="-247" font-family="Helvetica,sans-Serif" font-size="10.00">user_initialization</text>
<text text-anchor="middle" x="361.5" y="-236" font-family="Helvetica,sans-Serif" font-size="10.00">::write_user_log</text>
</a>
</g>
</g>
<!-- Node58&#45;&gt;Node60 -->
<g id="edge22" class="edge"><title>Node58&#45;&gt;Node60</title>
<path fill="none" stroke="midnightblue" d="M272.174,-244C285.538,-244 299.695,-244 312.667,-244"/>
<polygon fill="midnightblue" stroke="midnightblue" points="312.779,-247.5 322.779,-244 312.779,-240.5 312.779,-247.5"/>
</g>
<!-- Node59&#45;&gt;Node49 -->
<g id="edge21" class="edge"><title>Node59&#45;&gt;Node49</title>
<path fill="none" stroke="midnightblue" d="M396.2,-316.125C411.557,-323.018 429.922,-331.26 446.28,-338.602"/>
<polygon fill="midnightblue" stroke="midnightblue" points="445.086,-341.902 455.642,-342.804 447.952,-335.516 445.086,-341.902"/>
</g>
</g>
</svg>
