<?xml version="1.0" encoding="UTF-8" standalone="no"?>
<!DOCTYPE svg PUBLIC "-//W3C//DTD SVG 1.1//EN"
 "http://www.w3.org/Graphics/SVG/1.1/DTD/svg11.dtd">
<!-- Generated by graphviz version 2.38.0 (20140413.2041)
 -->
<!-- Title: mom_fixed_initialization::mom_initialize_fixed Pages: 1 -->
<svg width="1140pt" height="1207pt"
 viewBox="0.00 0.00 1140.00 1206.50" xmlns="http://www.w3.org/2000/svg" xmlns:xlink="http://www.w3.org/1999/xlink">
<g id="graph0" class="graph" transform="scale(1 1) rotate(0) translate(4 1202.5)">
<title>mom_fixed_initialization::mom_initialize_fixed</title>
<polygon fill="white" stroke="none" points="-4,4 -4,-1202.5 1136,-1202.5 1136,4 -4,4"/>
<!-- Node0 -->
<g id="node1" class="node"><title>Node0</title>
<polygon fill="#bfbfbf" stroke="black" points="0,-237 0,-267 121,-267 121,-237 0,-237"/>
<text text-anchor="start" x="8" y="-255" font-family="Helvetica,sans-Serif" font-size="10.00">mom_fixed_initialization</text>
<text text-anchor="middle" x="60.5" y="-244" font-family="Helvetica,sans-Serif" font-size="10.00">::mom_initialize_fixed</text>
</g>
<!-- Node1 -->
<g id="node2" class="node"><title>Node1</title>
<g id="a_node2"><a xlink:href="../../d0/de6/namespacemom__error__handler.html#a9cda07a87815f0e5594066162b4345c3" target="_top" xlink:title="Writes a message about entering a subroutine if call tree reporting is active. ">
<polygon fill="white" stroke="black" points="539,-320 539,-350 645,-350 645,-320 539,-320"/>
<text text-anchor="start" x="547" y="-338" font-family="Helvetica,sans-Serif" font-size="10.00">mom_error_handler::</text>
<text text-anchor="middle" x="592" y="-327" font-family="Helvetica,sans-Serif" font-size="10.00">calltree_enter</text>
</a>
</g>
</g>
<!-- Node0&#45;&gt;Node1 -->
<g id="edge1" class="edge"><title>Node0&#45;&gt;Node1</title>
<path fill="none" stroke="midnightblue" d="M71.9682,-267.194C105.319,-313.979 214.694,-455.274 347,-498 406.211,-517.121 437.761,-536.042 487,-498 537.16,-459.247 480.408,-406.944 523,-360 525.24,-357.531 527.744,-355.306 530.435,-353.3"/>
<polygon fill="midnightblue" stroke="midnightblue" points="532.389,-356.206 538.987,-347.916 528.66,-350.282 532.389,-356.206"/>
</g>
<!-- Node3 -->
<g id="node4" class="node"><title>Node3</title>
<g id="a_node4"><a xlink:href="../../d0/de6/namespacemom__error__handler.html#a88ea67781e2ed9b73ab7eac8ea5e8578" target="_top" xlink:title="Writes a message about leaving a subroutine if call tree reporting is active. ">
<polygon fill="white" stroke="black" points="539,-222 539,-252 645,-252 645,-222 539,-222"/>
<text text-anchor="start" x="547" y="-240" font-family="Helvetica,sans-Serif" font-size="10.00">mom_error_handler::</text>
<text text-anchor="middle" x="592" y="-229" font-family="Helvetica,sans-Serif" font-size="10.00">calltree_leave</text>
</a>
</g>
</g>
<!-- Node0&#45;&gt;Node3 -->
<g id="edge3" class="edge"><title>Node0&#45;&gt;Node3</title>
<path fill="none" stroke="midnightblue" d="M97.6193,-236.845C150.997,-215.352 254.611,-177.067 347,-163 408.513,-153.634 431.485,-134.899 487,-163 511.111,-175.204 501.401,-195.759 523,-212 525.483,-213.867 528.121,-215.607 530.859,-217.227"/>
<polygon fill="midnightblue" stroke="midnightblue" points="529.408,-220.418 539.884,-221.998 532.68,-214.23 529.408,-220.418"/>
</g>
<!-- Node4 -->
<g id="node5" class="node"><title>Node4</title>
<g id="a_node5"><a xlink:href="../../d7/dc9/namespacemom__shared__initialization.html#a501559f833324821cd6e04252d4e156b" target="_top" xlink:title="Pre&#45;compute global integrals of grid quantities (like masked ocean area) for later use in reporting d...">
<polygon fill="white" stroke="black" points="157,-110 157,-140 311,-140 311,-110 157,-110"/>
<text text-anchor="start" x="165" y="-128" font-family="Helvetica,sans-Serif" font-size="10.00">mom_shared_initialization</text>
<text text-anchor="middle" x="234" y="-117" font-family="Helvetica,sans-Serif" font-size="10.00">::compute_global_grid_integrals</text>
</a>
</g>
</g>
<!-- Node0&#45;&gt;Node4 -->
<g id="edge5" class="edge"><title>Node0&#45;&gt;Node4</title>
<path fill="none" stroke="midnightblue" d="M72.9245,-236.938C89.4525,-216.041 121.92,-178.214 157,-155 163.018,-151.017 169.646,-147.433 176.404,-144.246"/>
<polygon fill="midnightblue" stroke="midnightblue" points="177.93,-147.398 185.653,-140.146 175.093,-140.998 177.93,-147.398"/>
</g>
<!-- Node5 -->
<g id="node6" class="node"><title>Node5</title>
<g id="a_node6"><a xlink:href="../../d5/daa/namespacemom__grid__initialize.html#a3b1ac6c7cfc9f3401cbb020d1b4e87b5" target="_top" xlink:title="initialize_masks initializes the grid masks and any metrics that come with masks already applied...">
<polygon fill="white" stroke="black" points="184,-61 184,-91 284,-91 284,-61 184,-61"/>
<text text-anchor="start" x="192" y="-79" font-family="Helvetica,sans-Serif" font-size="10.00">mom_grid_initialize</text>
<text text-anchor="middle" x="234" y="-68" font-family="Helvetica,sans-Serif" font-size="10.00">::initialize_masks</text>
</a>
</g>
</g>
<!-- Node0&#45;&gt;Node5 -->
<g id="edge6" class="edge"><title>Node0&#45;&gt;Node5</title>
<path fill="none" stroke="midnightblue" d="M66.9916,-236.551C78.6719,-205.901 108.911,-137.157 157,-100 162.297,-95.9074 168.305,-92.5046 174.568,-89.6769"/>
<polygon fill="midnightblue" stroke="midnightblue" points="175.901,-92.9131 183.871,-85.9323 173.288,-86.4194 175.901,-92.9131"/>
</g>
<!-- Node7 -->
<g id="node8" class="node"><title>Node7</title>
<g id="a_node8"><a xlink:href="../../d3/da8/namespacemom__fixed__initialization.html#a4f19c092d796f0cbb036c96575299b11" target="_top" xlink:title="MOM_initialize_topography makes the appropriate call to set up the bathymetry. ">
<polygon fill="white" stroke="black" points="523,-917 523,-947 661,-947 661,-917 523,-917"/>
<text text-anchor="start" x="531" y="-935" font-family="Helvetica,sans-Serif" font-size="10.00">mom_fixed_initialization</text>
<text text-anchor="middle" x="592" y="-924" font-family="Helvetica,sans-Serif" font-size="10.00">::mom_initialize_topography</text>
</a>
</g>
</g>
<!-- Node0&#45;&gt;Node7 -->
<g id="edge8" class="edge"><title>Node0&#45;&gt;Node7</title>
<path fill="none" stroke="midnightblue" d="M60.8586,-267.156C59.1482,-325.725 60.0608,-540.627 157,-674 252.318,-805.143 436.443,-881.459 531.299,-913.718"/>
<polygon fill="midnightblue" stroke="midnightblue" points="530.432,-917.119 541.026,-916.978 532.657,-910.482 530.432,-917.119"/>
</g>
<!-- Node20 -->
<g id="node21" class="node"><title>Node20</title>
<g id="a_node21"><a xlink:href="../../de/ddd/namespacemom__open__boundary.html#a3afa10bd701ed46f5229e202804afaed" target="_top" xlink:title="Reconcile masks and open boundaries, deallocate OBC on PEs where it is not needed. Also adjust u&#45; and v&#45;point cell area on specified open boundaries. ">
<polygon fill="white" stroke="black" points="174.5,-0.5 174.5,-41.5 293.5,-41.5 293.5,-0.5 174.5,-0.5"/>
<text text-anchor="start" x="182.5" y="-29.5" font-family="Helvetica,sans-Serif" font-size="10.00">mom_open_boundary::</text>
<text text-anchor="start" x="182.5" y="-18.5" font-family="Helvetica,sans-Serif" font-size="10.00">open_boundary_impose</text>
<text text-anchor="middle" x="234" y="-7.5" font-family="Helvetica,sans-Serif" font-size="10.00">_land_mask</text>
</a>
</g>
</g>
<!-- Node0&#45;&gt;Node20 -->
<g id="edge26" class="edge"><title>Node0&#45;&gt;Node20</title>
<path fill="none" stroke="midnightblue" d="M64.6547,-236.88C73.0941,-200.031 99.56,-104.683 157,-51 159.618,-48.5528 162.46,-46.2965 165.456,-44.2171"/>
<polygon fill="midnightblue" stroke="midnightblue" points="167.561,-47.0319 174.248,-38.8142 163.896,-41.068 167.561,-47.0319"/>
</g>
<!-- Node21 -->
<g id="node22" class="node"><title>Node21</title>
<g id="a_node22"><a xlink:href="../../d5/daa/namespacemom__grid__initialize.html#a235a9712823e2f78e4958e8d681b6ba4" target="_top" xlink:title="set_grid_metrics is used to set the primary values in the model&#39;s horizontal grid. The bathymetry, land&#45;sea mask and any restricted channel widths are not known yet, so these are set later. ">
<polygon fill="white" stroke="black" points="184,-321 184,-351 284,-351 284,-321 184,-321"/>
<text text-anchor="start" x="192" y="-339" font-family="Helvetica,sans-Serif" font-size="10.00">mom_grid_initialize</text>
<text text-anchor="middle" x="234" y="-328" font-family="Helvetica,sans-Serif" font-size="10.00">::set_grid_metrics</text>
</a>
</g>
</g>
<!-- Node0&#45;&gt;Node21 -->
<g id="edge27" class="edge"><title>Node0&#45;&gt;Node21</title>
<path fill="none" stroke="midnightblue" d="M92.1608,-267.018C120.363,-280.831 162.353,-301.397 193.146,-316.48"/>
<polygon fill="midnightblue" stroke="midnightblue" points="191.796,-319.716 202.316,-320.971 194.875,-313.429 191.796,-319.716"/>
</g>
<!-- Node38 -->
<g id="node39" class="node"><title>Node38</title>
<g id="a_node39"><a xlink:href="../../d7/dc9/namespacemom__shared__initialization.html#abef3d6e722e67f47ebdd3f989b9e90b8" target="_top" xlink:title="Write out a file describing the topography, Coriolis parameter, grid locations and various other fixe...">
<polygon fill="white" stroke="black" points="164.5,-634 164.5,-664 303.5,-664 303.5,-634 164.5,-634"/>
<text text-anchor="start" x="172.5" y="-652" font-family="Helvetica,sans-Serif" font-size="10.00">mom_shared_initialization</text>
<text text-anchor="middle" x="234" y="-641" font-family="Helvetica,sans-Serif" font-size="10.00">::write_ocean_geometry_file</text>
</a>
</g>
</g>
<!-- Node0&#45;&gt;Node38 -->
<g id="edge54" class="edge"><title>Node0&#45;&gt;Node38</title>
<path fill="none" stroke="midnightblue" d="M65.259,-267.021C76.2228,-309.68 110.363,-434.698 157,-531 173.763,-565.615 198.746,-602.402 215.44,-625.524"/>
<polygon fill="midnightblue" stroke="midnightblue" points="212.675,-627.672 221.398,-633.684 218.328,-623.544 212.675,-627.672"/>
</g>
<!-- Node2 -->
<g id="node3" class="node"><title>Node2</title>
<g id="a_node3"><a xlink:href="../../d0/de6/namespacemom__error__handler.html#ad5f00a53059c72fe2332d1436c80ca71" target="_top" xlink:title="mom_error_handler::\lis_root_pe">
<polygon fill="white" stroke="black" points="1026,-473 1026,-503 1132,-503 1132,-473 1026,-473"/>
<text text-anchor="start" x="1034" y="-491" font-family="Helvetica,sans-Serif" font-size="10.00">mom_error_handler::</text>
<text text-anchor="middle" x="1079" y="-480" font-family="Helvetica,sans-Serif" font-size="10.00">is_root_pe</text>
</a>
</g>
</g>
<!-- Node1&#45;&gt;Node2 -->
<g id="edge2" class="edge"><title>Node1&#45;&gt;Node2</title>
<path fill="none" stroke="midnightblue" d="M640.831,-350.089C730.592,-378.405 923.924,-439.395 1020.56,-469.881"/>
<polygon fill="midnightblue" stroke="midnightblue" points="1019.58,-473.24 1030.17,-472.911 1021.69,-466.565 1019.58,-473.24"/>
</g>
<!-- Node3&#45;&gt;Node2 -->
<g id="edge4" class="edge"><title>Node3&#45;&gt;Node2</title>
<path fill="none" stroke="midnightblue" d="M637.913,-252.004C645.673,-254.837 653.615,-257.892 661,-261 811.221,-324.233 850.783,-338.244 990,-423 1011.61,-436.156 1034.56,-453.22 1051.6,-466.562"/>
<polygon fill="midnightblue" stroke="midnightblue" points="1049.44,-469.32 1059.46,-472.78 1053.79,-463.83 1049.44,-469.32"/>
</g>
<!-- Node6 -->
<g id="node7" class="node"><title>Node6</title>
<g id="a_node7"><a xlink:href="../../d5/daa/namespacemom__grid__initialize.html#ac5445d58b86d259f4c352255849d7fe0" target="_top" xlink:title="This function implements Adcroft&#39;s rule for reciprocals, namely that Adcroft_Inv(x) = 1/x for |x|&gt;0 o...">
<polygon fill="white" stroke="black" points="367,-61 367,-91 467,-91 467,-61 367,-61"/>
<text text-anchor="start" x="375" y="-79" font-family="Helvetica,sans-Serif" font-size="10.00">mom_grid_initialize</text>
<text text-anchor="middle" x="417" y="-68" font-family="Helvetica,sans-Serif" font-size="10.00">::adcroft_reciprocal</text>
</a>
</g>
</g>
<!-- Node5&#45;&gt;Node6 -->
<g id="edge7" class="edge"><title>Node5&#45;&gt;Node6</title>
<path fill="none" stroke="midnightblue" d="M284.459,-76C306.797,-76 333.368,-76 356.762,-76"/>
<polygon fill="midnightblue" stroke="midnightblue" points="356.914,-79.5001 366.914,-76 356.914,-72.5001 356.914,-79.5001"/>
</g>
<!-- Node8 -->
<g id="node9" class="node"><title>Node8</title>
<g id="a_node9"><a xlink:href="../../db/d96/namespacedome__initialization.html#ad7b6dd46068562244ce6be9d56ebceb1" target="_top" xlink:title="This subroutine sets up the DOME topography. ">
<polygon fill="white" stroke="black" points="702.5,-1168 702.5,-1198 842.5,-1198 842.5,-1168 702.5,-1168"/>
<text text-anchor="start" x="710.5" y="-1186" font-family="Helvetica,sans-Serif" font-size="10.00">dome_initialization</text>
<text text-anchor="middle" x="772.5" y="-1175" font-family="Helvetica,sans-Serif" font-size="10.00">::dome_initialize_topography</text>
</a>
</g>
</g>
<!-- Node7&#45;&gt;Node8 -->
<g id="edge9" class="edge"><title>Node7&#45;&gt;Node8</title>
<path fill="none" stroke="midnightblue" d="M595.599,-947.215C603.323,-987.766 629.92,-1099.4 697,-1159 698.327,-1160.18 699.712,-1161.3 701.147,-1162.37"/>
<polygon fill="midnightblue" stroke="midnightblue" points="699.518,-1165.48 709.835,-1167.89 703.274,-1159.57 699.518,-1165.48"/>
</g>
<!-- Node10 -->
<g id="node11" class="node"><title>Node10</title>
<g id="a_node11"><a xlink:href="../../d7/d55/namespaceisomip__initialization.html#ab744ce65e54b3ba5f6107dd909ded31f" target="_top" xlink:title="Initialization of topography. ">
<polygon fill="white" stroke="black" points="700,-1119 700,-1149 845,-1149 845,-1119 700,-1119"/>
<text text-anchor="start" x="708" y="-1137" font-family="Helvetica,sans-Serif" font-size="10.00">isomip_initialization</text>
<text text-anchor="middle" x="772.5" y="-1126" font-family="Helvetica,sans-Serif" font-size="10.00">::isomip_initialize_topography</text>
</a>
</g>
</g>
<!-- Node7&#45;&gt;Node10 -->
<g id="edge12" class="edge"><title>Node7&#45;&gt;Node10</title>
<path fill="none" stroke="midnightblue" d="M597.806,-947.256C609.307,-981.318 641.648,-1064.09 697,-1109 699.086,-1110.69 701.291,-1112.27 703.586,-1113.75"/>
<polygon fill="midnightblue" stroke="midnightblue" points="702.38,-1117.08 712.812,-1118.93 705.808,-1110.98 702.38,-1117.08"/>
</g>
<!-- Node11 -->
<g id="node12" class="node"><title>Node11</title>
<g id="a_node12"><a xlink:href="../../da/d42/namespacebenchmark__initialization.html#a1bebd9e20d92971e047b79c9ceb9f694" target="_top" xlink:title="This subroutine sets up the benchmark test case topography. ">
<polygon fill="white" stroke="black" points="712,-1058.5 712,-1099.5 833,-1099.5 833,-1058.5 712,-1058.5"/>
<text text-anchor="start" x="720" y="-1087.5" font-family="Helvetica,sans-Serif" font-size="10.00">benchmark_initialization</text>
<text text-anchor="start" x="720" y="-1076.5" font-family="Helvetica,sans-Serif" font-size="10.00">::benchmark_initialize</text>
<text text-anchor="middle" x="772.5" y="-1065.5" font-family="Helvetica,sans-Serif" font-size="10.00">_topography</text>
</a>
</g>
</g>
<!-- Node7&#45;&gt;Node11 -->
<g id="edge14" class="edge"><title>Node7&#45;&gt;Node11</title>
<path fill="none" stroke="midnightblue" d="M603.075,-947.327C619.885,-971.843 655.891,-1020.05 697,-1049 699.145,-1050.51 701.377,-1051.96 703.671,-1053.35"/>
<polygon fill="midnightblue" stroke="midnightblue" points="702.341,-1056.62 712.781,-1058.42 705.747,-1050.5 702.341,-1056.62"/>
</g>
<!-- Node12 -->
<g id="node13" class="node"><title>Node12</title>
<g id="a_node13"><a xlink:href="../../da/d77/namespacedome2d__initialization.html#ae850c5e89a9275c4333c02828187bf81" target="_top" xlink:title="Initialize topography with a shelf and slope in a 2D domain. ">
<polygon fill="white" stroke="black" points="697,-889 697,-919 848,-919 848,-889 697,-889"/>
<text text-anchor="start" x="705" y="-907" font-family="Helvetica,sans-Serif" font-size="10.00">dome2d_initialization</text>
<text text-anchor="middle" x="772.5" y="-896" font-family="Helvetica,sans-Serif" font-size="10.00">::dome2d_initialize_topography</text>
</a>
</g>
</g>
<!-- Node7&#45;&gt;Node12 -->
<g id="edge16" class="edge"><title>Node7&#45;&gt;Node12</title>
<path fill="none" stroke="midnightblue" d="M661.247,-921.295C669.595,-919.985 678.202,-918.635 686.754,-917.294"/>
<polygon fill="midnightblue" stroke="midnightblue" points="687.412,-920.733 696.748,-915.726 686.327,-913.818 687.412,-920.733"/>
</g>
<!-- Node13 -->
<g id="node14" class="node"><title>Node13</title>
<g id="a_node14"><a xlink:href="../../d0/d18/namespacesloshing__initialization.html#a0ecf019d4e63415fc16ce5ca4158f7f3" target="_top" xlink:title="Initialization of topography. ">
<polygon fill="white" stroke="black" points="718,-779.5 718,-820.5 827,-820.5 827,-779.5 718,-779.5"/>
<text text-anchor="start" x="726" y="-808.5" font-family="Helvetica,sans-Serif" font-size="10.00">sloshing_initialization</text>
<text text-anchor="start" x="726" y="-797.5" font-family="Helvetica,sans-Serif" font-size="10.00">::sloshing_initialize</text>
<text text-anchor="middle" x="772.5" y="-786.5" font-family="Helvetica,sans-Serif" font-size="10.00">_topography</text>
</a>
</g>
</g>
<!-- Node7&#45;&gt;Node13 -->
<g id="edge17" class="edge"><title>Node7&#45;&gt;Node13</title>
<path fill="none" stroke="midnightblue" d="M605.356,-916.811C623.522,-895.29 659.378,-855.785 697,-831 700.72,-828.549 704.665,-826.229 708.722,-824.045"/>
<polygon fill="midnightblue" stroke="midnightblue" points="710.396,-827.121 717.738,-819.483 707.235,-820.875 710.396,-827.121"/>
</g>
<!-- Node14 -->
<g id="node15" class="node"><title>Node14</title>
<g id="a_node15"><a xlink:href="../../d7/d25/namespaceseamount__initialization.html#ad0d12dd03f77e4a827fcd925805b92c9" target="_top" xlink:title="Initialization of topography. ">
<polygon fill="white" stroke="black" points="714.5,-719.5 714.5,-760.5 830.5,-760.5 830.5,-719.5 714.5,-719.5"/>
<text text-anchor="start" x="722.5" y="-748.5" font-family="Helvetica,sans-Serif" font-size="10.00">seamount_initialization</text>
<text text-anchor="start" x="722.5" y="-737.5" font-family="Helvetica,sans-Serif" font-size="10.00">::seamount_initialize</text>
<text text-anchor="middle" x="772.5" y="-726.5" font-family="Helvetica,sans-Serif" font-size="10.00">_topography</text>
</a>
</g>
</g>
<!-- Node7&#45;&gt;Node14 -->
<g id="edge18" class="edge"><title>Node7&#45;&gt;Node14</title>
<path fill="none" stroke="midnightblue" d="M598.944,-916.842C612.035,-885.285 646.281,-811.984 697,-770 699.714,-767.754 702.617,-765.658 705.647,-763.706"/>
<polygon fill="midnightblue" stroke="midnightblue" points="707.581,-766.631 714.467,-758.578 704.062,-760.579 707.581,-766.631"/>
</g>
<!-- Node15 -->
<g id="node16" class="node"><title>Node15</title>
<g id="a_node16"><a xlink:href="../../d8/ddc/namespacephillips__initialization.html#a43bb71b08d4747199e2a06f063fb87fe" target="_top" xlink:title="Initialize topography. ">
<polygon fill="white" stroke="black" points="721,-938.5 721,-979.5 824,-979.5 824,-938.5 721,-938.5"/>
<text text-anchor="start" x="729" y="-967.5" font-family="Helvetica,sans-Serif" font-size="10.00">phillips_initialization</text>
<text text-anchor="start" x="729" y="-956.5" font-family="Helvetica,sans-Serif" font-size="10.00">::phillips_initialize</text>
<text text-anchor="middle" x="772.5" y="-945.5" font-family="Helvetica,sans-Serif" font-size="10.00">_topography</text>
</a>
</g>
</g>
<!-- Node7&#45;&gt;Node15 -->
<g id="edge19" class="edge"><title>Node7&#45;&gt;Node15</title>
<path fill="none" stroke="midnightblue" d="M661.247,-942.323C677.475,-944.778 694.685,-947.381 710.562,-949.782"/>
<polygon fill="midnightblue" stroke="midnightblue" points="710.368,-953.293 720.779,-951.328 711.415,-946.372 710.368,-953.293"/>
</g>
<!-- Node16 -->
<g id="node17" class="node"><title>Node16</title>
<g id="a_node17"><a xlink:href="../../dc/dec/namespacesupercritical__initialization.html#a0cedacc057705a1f7c01e64880a3267c" target="_top" xlink:title="This subroutine sets up the supercritical topography. ">
<polygon fill="white" stroke="black" points="710,-998.5 710,-1039.5 835,-1039.5 835,-998.5 710,-998.5"/>
<text text-anchor="start" x="718" y="-1027.5" font-family="Helvetica,sans-Serif" font-size="10.00">supercritical_initialization</text>
<text text-anchor="start" x="718" y="-1016.5" font-family="Helvetica,sans-Serif" font-size="10.00">::supercritical_initialize</text>
<text text-anchor="middle" x="772.5" y="-1005.5" font-family="Helvetica,sans-Serif" font-size="10.00">_topography</text>
</a>
</g>
</g>
<!-- Node7&#45;&gt;Node16 -->
<g id="edge20" class="edge"><title>Node7&#45;&gt;Node16</title>
<path fill="none" stroke="midnightblue" d="M618.628,-947.158C639.412,-959.179 669.643,-976.051 697,-989 700.828,-990.812 704.797,-992.616 708.818,-994.389"/>
<polygon fill="midnightblue" stroke="midnightblue" points="707.689,-997.714 718.258,-998.458 710.46,-991.286 707.689,-997.714"/>
</g>
<!-- Node17 -->
<g id="node18" class="node"><title>Node17</title>
<g id="a_node18"><a xlink:href="../../d9/dfa/namespaceuser__initialization.html#a7b7630e690c942f2961e45e19c4f69fc" target="_top" xlink:title="Initialize topography. ">
<polygon fill="white" stroke="black" points="705,-840 705,-870 840,-870 840,-840 705,-840"/>
<text text-anchor="start" x="713" y="-858" font-family="Helvetica,sans-Serif" font-size="10.00">user_initialization</text>
<text text-anchor="middle" x="772.5" y="-847" font-family="Helvetica,sans-Serif" font-size="10.00">::user_initialize_topography</text>
</a>
</g>
</g>
<!-- Node7&#45;&gt;Node17 -->
<g id="edge22" class="edge"><title>Node7&#45;&gt;Node17</title>
<path fill="none" stroke="midnightblue" d="M620.754,-916.79C641.425,-905.793 670.528,-890.996 697,-880 702.408,-877.754 708.096,-875.558 713.82,-873.459"/>
<polygon fill="midnightblue" stroke="midnightblue" points="715.199,-876.683 723.441,-870.025 712.846,-870.09 715.199,-876.683"/>
</g>
<!-- Node9 -->
<g id="node10" class="node"><title>Node9</title>
<g id="a_node10"><a xlink:href="../../d0/de6/namespacemom__error__handler.html#a1c462df7b61f1296407b4af51dfeceab" target="_top" xlink:title="mom_error_handler::\lmom_mesg">
<polygon fill="white" stroke="black" points="884,-1064 884,-1094 990,-1094 990,-1064 884,-1064"/>
<text text-anchor="start" x="892" y="-1082" font-family="Helvetica,sans-Serif" font-size="10.00">mom_error_handler::</text>
<text text-anchor="middle" x="937" y="-1071" font-family="Helvetica,sans-Serif" font-size="10.00">mom_mesg</text>
</a>
</g>
</g>
<!-- Node8&#45;&gt;Node9 -->
<g id="edge10" class="edge"><title>Node8&#45;&gt;Node9</title>
<path fill="none" stroke="midnightblue" d="M829.553,-1167.84C835.951,-1165.27 842.237,-1162.34 848,-1159 874.343,-1143.75 899.529,-1119.53 916.154,-1101.74"/>
<polygon fill="midnightblue" stroke="midnightblue" points="919.002,-1103.81 923.164,-1094.07 913.834,-1099.09 919.002,-1103.81"/>
</g>
<!-- Node9&#45;&gt;Node2 -->
<g id="edge11" class="edge"><title>Node9&#45;&gt;Node2</title>
<path fill="none" stroke="midnightblue" d="M942.16,-1063.82C951.223,-1030.59 973.275,-948.88 990,-880 1023.46,-742.208 1059.27,-576.058 1072.6,-513.484"/>
<polygon fill="midnightblue" stroke="midnightblue" points="1076.1,-513.871 1074.75,-503.362 1069.25,-512.415 1076.1,-513.871"/>
</g>
<!-- Node10&#45;&gt;Node9 -->
<g id="edge13" class="edge"><title>Node10&#45;&gt;Node9</title>
<path fill="none" stroke="midnightblue" d="M818.423,-1118.96C828.177,-1115.69 838.437,-1112.23 848,-1109 858.998,-1105.28 870.763,-1101.28 881.996,-1097.46"/>
<polygon fill="midnightblue" stroke="midnightblue" points="883.361,-1100.69 891.698,-1094.15 881.103,-1094.06 883.361,-1100.69"/>
</g>
<!-- Node11&#45;&gt;Node9 -->
<g id="edge15" class="edge"><title>Node11&#45;&gt;Node9</title>
<path fill="none" stroke="midnightblue" d="M833.086,-1079C846.368,-1079 860.482,-1079 873.864,-1079"/>
<polygon fill="midnightblue" stroke="midnightblue" points="873.927,-1082.5 883.927,-1079 873.927,-1075.5 873.927,-1082.5"/>
</g>
<!-- Node16&#45;&gt;Node9 -->
<g id="edge21" class="edge"><title>Node16&#45;&gt;Node9</title>
<path fill="none" stroke="midnightblue" d="M829.423,-1039.65C847.704,-1046.4 867.886,-1053.85 885.725,-1060.44"/>
<polygon fill="midnightblue" stroke="midnightblue" points="884.774,-1063.82 895.368,-1064 887.199,-1057.25 884.774,-1063.82"/>
</g>
<!-- Node18 -->
<g id="node19" class="node"><title>Node18</title>
<g id="a_node19"><a xlink:href="../../d0/de6/namespacemom__error__handler.html#a460cfb79a06c29fc249952c2a3710d67" target="_top" xlink:title="mom_error_handler::\lmom_error">
<polygon fill="white" stroke="black" points="884,-578 884,-608 990,-608 990,-578 884,-578"/>
<text text-anchor="start" x="892" y="-596" font-family="Helvetica,sans-Serif" font-size="10.00">mom_error_handler::</text>
<text text-anchor="middle" x="937" y="-585" font-family="Helvetica,sans-Serif" font-size="10.00">mom_error</text>
</a>
</g>
</g>
<!-- Node17&#45;&gt;Node18 -->
<g id="edge23" class="edge"><title>Node17&#45;&gt;Node18</title>
<path fill="none" stroke="midnightblue" d="M834.378,-839.954C839.341,-837.178 843.982,-833.892 848,-830 908.832,-771.07 927.956,-666.32 933.686,-618.31"/>
<polygon fill="midnightblue" stroke="midnightblue" points="937.187,-618.493 934.795,-608.172 930.228,-617.732 937.187,-618.493"/>
</g>
<!-- Node19 -->
<g id="node20" class="node"><title>Node19</title>
<g id="a_node20"><a xlink:href="../../d9/dfa/namespaceuser__initialization.html#aebfc0db710e83bae83f08e1a774256dd" target="_top" xlink:title="Write output about the parameter values being used. ">
<polygon fill="white" stroke="black" points="891,-840 891,-870 983,-870 983,-840 891,-840"/>
<text text-anchor="start" x="899" y="-858" font-family="Helvetica,sans-Serif" font-size="10.00">user_initialization</text>
<text text-anchor="middle" x="937" y="-847" font-family="Helvetica,sans-Serif" font-size="10.00">::write_user_log</text>
</a>
</g>
</g>
<!-- Node17&#45;&gt;Node19 -->
<g id="edge25" class="edge"><title>Node17&#45;&gt;Node19</title>
<path fill="none" stroke="midnightblue" d="M840.064,-855C853.481,-855 867.451,-855 880.444,-855"/>
<polygon fill="midnightblue" stroke="midnightblue" points="880.625,-858.5 890.625,-855 880.625,-851.5 880.625,-858.5"/>
</g>
<!-- Node18&#45;&gt;Node2 -->
<g id="edge24" class="edge"><title>Node18&#45;&gt;Node2</title>
<path fill="none" stroke="midnightblue" d="M958.059,-577.956C982.074,-559.945 1022.45,-529.661 1049.65,-509.263"/>
<polygon fill="midnightblue" stroke="midnightblue" points="1052.08,-511.816 1057.98,-503.016 1047.88,-506.216 1052.08,-511.816"/>
</g>
<!-- Node21&#45;&gt;Node1 -->
<g id="edge28" class="edge"><title>Node21&#45;&gt;Node1</title>
<path fill="none" stroke="midnightblue" d="M284.229,-349.44C303.629,-354.09 326.207,-358.708 347,-361 408.847,-367.819 425.244,-368.603 487,-361 501.633,-359.199 517.169,-356.022 531.647,-352.495"/>
<polygon fill="midnightblue" stroke="midnightblue" points="532.641,-355.854 541.477,-350.009 530.925,-349.067 532.641,-355.854"/>
</g>
<!-- Node21&#45;&gt;Node3 -->
<g id="edge52" class="edge"><title>Node21&#45;&gt;Node3</title>
<path fill="none" stroke="midnightblue" d="M248.833,-320.982C268.44,-300.859 306.462,-265.947 347,-251 405.847,-229.302 478.086,-227.994 528.632,-230.763"/>
<polygon fill="midnightblue" stroke="midnightblue" points="528.562,-234.265 538.759,-231.388 528.993,-227.278 528.562,-234.265"/>
</g>
<!-- Node22 -->
<g id="node23" class="node"><title>Node22</title>
<g id="a_node23"><a xlink:href="../../d5/daa/namespacemom__grid__initialize.html#a59e71c4235b01cf3ad4fb6252ef74248" target="_top" xlink:title="set_grid_metrics_from_mosaic sets the grid metrics from a mosaic file. ">
<polygon fill="white" stroke="black" points="357.5,-260.5 357.5,-301.5 476.5,-301.5 476.5,-260.5 357.5,-260.5"/>
<text text-anchor="start" x="365.5" y="-289.5" font-family="Helvetica,sans-Serif" font-size="10.00">mom_grid_initialize</text>
<text text-anchor="start" x="365.5" y="-278.5" font-family="Helvetica,sans-Serif" font-size="10.00">::set_grid_metrics_from</text>
<text text-anchor="middle" x="417" y="-267.5" font-family="Helvetica,sans-Serif" font-size="10.00">_mosaic</text>
</a>
</g>
</g>
<!-- Node21&#45;&gt;Node22 -->
<g id="edge29" class="edge"><title>Node21&#45;&gt;Node22</title>
<path fill="none" stroke="midnightblue" d="M284.459,-320.971C303.886,-315.068 326.515,-308.192 347.47,-301.824"/>
<polygon fill="midnightblue" stroke="midnightblue" points="348.731,-305.099 357.281,-298.843 346.696,-298.401 348.731,-305.099"/>
</g>
<!-- Node24 -->
<g id="node25" class="node"><title>Node24</title>
<g id="a_node25"><a xlink:href="../../d5/daa/namespacemom__grid__initialize.html#a4f9a9f748316e1edd893da9c44cb940e" target="_top" xlink:title="mom_grid_initialize\l::set_grid_metrics_cartesian">
<polygon fill="white" stroke="black" points="347,-321 347,-351 487,-351 487,-321 347,-321"/>
<text text-anchor="start" x="355" y="-339" font-family="Helvetica,sans-Serif" font-size="10.00">mom_grid_initialize</text>
<text text-anchor="middle" x="417" y="-328" font-family="Helvetica,sans-Serif" font-size="10.00">::set_grid_metrics_cartesian</text>
</a>
</g>
</g>
<!-- Node21&#45;&gt;Node24 -->
<g id="edge33" class="edge"><title>Node21&#45;&gt;Node24</title>
<path fill="none" stroke="midnightblue" d="M284.459,-336C300.559,-336 318.856,-336 336.579,-336"/>
<polygon fill="midnightblue" stroke="midnightblue" points="336.926,-339.5 346.926,-336 336.926,-332.5 336.926,-339.5"/>
</g>
<!-- Node25 -->
<g id="node26" class="node"><title>Node25</title>
<g id="a_node26"><a xlink:href="../../d5/daa/namespacemom__grid__initialize.html#a3ede1d607f09115204c0ea0fbde5e9f8" target="_top" xlink:title="mom_grid_initialize\l::set_grid_metrics_spherical">
<polygon fill="white" stroke="black" points="347.5,-409 347.5,-439 486.5,-439 486.5,-409 347.5,-409"/>
<text text-anchor="start" x="355.5" y="-427" font-family="Helvetica,sans-Serif" font-size="10.00">mom_grid_initialize</text>
<text text-anchor="middle" x="417" y="-416" font-family="Helvetica,sans-Serif" font-size="10.00">::set_grid_metrics_spherical</text>
</a>
</g>
</g>
<!-- Node21&#45;&gt;Node25 -->
<g id="edge36" class="edge"><title>Node21&#45;&gt;Node25</title>
<path fill="none" stroke="midnightblue" d="M262.814,-351.071C285.317,-363.102 317.932,-380.174 347,-394 354.631,-397.629 362.81,-401.34 370.775,-404.859"/>
<polygon fill="midnightblue" stroke="midnightblue" points="369.415,-408.085 379.98,-408.886 372.221,-401.672 369.415,-408.085"/>
</g>
<!-- Node26 -->
<g id="node27" class="node"><title>Node26</title>
<g id="a_node27"><a xlink:href="../../d5/daa/namespacemom__grid__initialize.html#ac37d98379b33a9e95d0bbffc1d7a730f" target="_top" xlink:title="mom_grid_initialize\l::set_grid_metrics_mercator">
<polygon fill="white" stroke="black" points="348,-546 348,-576 486,-576 486,-546 348,-546"/>
<text text-anchor="start" x="356" y="-564" font-family="Helvetica,sans-Serif" font-size="10.00">mom_grid_initialize</text>
<text text-anchor="middle" x="417" y="-553" font-family="Helvetica,sans-Serif" font-size="10.00">::set_grid_metrics_mercator</text>
</a>
</g>
</g>
<!-- Node21&#45;&gt;Node26 -->
<g id="edge38" class="edge"><title>Node21&#45;&gt;Node26</title>
<path fill="none" stroke="midnightblue" d="M243.848,-351.112C261.546,-380.766 303.368,-448.037 347,-498 359.901,-512.772 376.007,-527.644 389.413,-539.225"/>
<polygon fill="midnightblue" stroke="midnightblue" points="387.472,-542.17 397.358,-545.981 392.007,-536.837 387.472,-542.17"/>
</g>
<!-- Node35 -->
<g id="node36" class="node"><title>Node35</title>
<g id="a_node36"><a xlink:href="../../db/dc0/namespacemom__dyn__horgrid.html#aefa448039e24b26fe06f9251848b6aac" target="_top" xlink:title="set_derived_dyn_horgrid calculates metric terms that are derived from other metrics. ">
<polygon fill="white" stroke="black" points="360.5,-173 360.5,-203 473.5,-203 473.5,-173 360.5,-173"/>
<text text-anchor="start" x="368.5" y="-191" font-family="Helvetica,sans-Serif" font-size="10.00">mom_dyn_horgrid::set</text>
<text text-anchor="middle" x="417" y="-180" font-family="Helvetica,sans-Serif" font-size="10.00">_derived_dyn_horgrid</text>
</a>
</g>
</g>
<!-- Node21&#45;&gt;Node35 -->
<g id="edge50" class="edge"><title>Node21&#45;&gt;Node35</title>
<path fill="none" stroke="midnightblue" d="M246.189,-320.721C264.767,-296.246 304.195,-247.968 347,-218 352.536,-214.124 358.652,-210.59 364.888,-207.417"/>
<polygon fill="midnightblue" stroke="midnightblue" points="366.547,-210.503 374.057,-203.03 363.526,-204.189 366.547,-210.503"/>
</g>
<!-- Node37 -->
<g id="node38" class="node"><title>Node37</title>
<g id="a_node38"><a xlink:href="../../d5/daa/namespacemom__grid__initialize.html#aaa2e124bccd43d4f8735c4ef8e07f287" target="_top" xlink:title="grid_metrics_chksum performs a set of checksums on metrics on the grid for debugging. ">
<polygon fill="white" stroke="black" points="359,-458 359,-488 475,-488 475,-458 359,-458"/>
<text text-anchor="start" x="367" y="-476" font-family="Helvetica,sans-Serif" font-size="10.00">mom_grid_initialize</text>
<text text-anchor="middle" x="417" y="-465" font-family="Helvetica,sans-Serif" font-size="10.00">::grid_metrics_chksum</text>
</a>
</g>
</g>
<!-- Node21&#45;&gt;Node37 -->
<g id="edge53" class="edge"><title>Node21&#45;&gt;Node37</title>
<path fill="none" stroke="midnightblue" d="M246.391,-351.358C264.954,-375.383 304.001,-421.905 347,-449 349.599,-450.638 352.323,-452.18 355.127,-453.631"/>
<polygon fill="midnightblue" stroke="midnightblue" points="353.753,-456.853 364.29,-457.956 356.741,-450.523 353.753,-456.853"/>
</g>
<!-- Node22&#45;&gt;Node1 -->
<g id="edge30" class="edge"><title>Node22&#45;&gt;Node1</title>
<path fill="none" stroke="midnightblue" d="M476.57,-299.282C494.85,-304.988 514.994,-311.276 533.22,-316.965"/>
<polygon fill="midnightblue" stroke="midnightblue" points="532.25,-320.328 542.839,-319.967 534.336,-313.646 532.25,-320.328"/>
</g>
<!-- Node22&#45;&gt;Node3 -->
<g id="edge32" class="edge"><title>Node22&#45;&gt;Node3</title>
<path fill="none" stroke="midnightblue" d="M476.57,-266.104C493.45,-261.81 511.92,-257.113 529.001,-252.769"/>
<polygon fill="midnightblue" stroke="midnightblue" points="530.046,-256.114 538.874,-250.257 528.32,-249.33 530.046,-256.114"/>
</g>
<!-- Node23 -->
<g id="node24" class="node"><title>Node23</title>
<g id="a_node24"><a xlink:href="../../d5/daa/namespacemom__grid__initialize.html#ac78daa312636b0ef9a93694901b5c705" target="_top" xlink:title="extrapolate_metric extrapolates missing metric data into all the halo regions. ">
<polygon fill="white" stroke="black" points="540.5,-271 540.5,-301 643.5,-301 643.5,-271 540.5,-271"/>
<text text-anchor="start" x="548.5" y="-289" font-family="Helvetica,sans-Serif" font-size="10.00">mom_grid_initialize</text>
<text text-anchor="middle" x="592" y="-278" font-family="Helvetica,sans-Serif" font-size="10.00">::extrapolate_metric</text>
</a>
</g>
</g>
<!-- Node22&#45;&gt;Node23 -->
<g id="edge31" class="edge"><title>Node22&#45;&gt;Node23</title>
<path fill="none" stroke="midnightblue" d="M476.57,-282.693C493.86,-283.192 512.817,-283.74 530.242,-284.244"/>
<polygon fill="midnightblue" stroke="midnightblue" points="530.203,-287.744 540.3,-284.535 530.405,-280.747 530.203,-287.744"/>
</g>
<!-- Node24&#45;&gt;Node1 -->
<g id="edge34" class="edge"><title>Node24&#45;&gt;Node1</title>
<path fill="none" stroke="midnightblue" d="M487.369,-335.599C501.077,-335.52 515.384,-335.437 528.835,-335.359"/>
<polygon fill="midnightblue" stroke="midnightblue" points="528.952,-338.859 538.931,-335.301 528.911,-331.859 528.952,-338.859"/>
</g>
<!-- Node24&#45;&gt;Node3 -->
<g id="edge35" class="edge"><title>Node24&#45;&gt;Node3</title>
<path fill="none" stroke="midnightblue" d="M470.259,-320.95C476.188,-318.136 481.918,-314.841 487,-311 508.846,-294.49 501.086,-277.42 523,-261 525.104,-259.424 527.32,-257.944 529.617,-256.557"/>
<polygon fill="midnightblue" stroke="midnightblue" points="531.63,-259.449 538.8,-251.649 528.33,-253.276 531.63,-259.449"/>
</g>
<!-- Node25&#45;&gt;Node1 -->
<g id="edge37" class="edge"><title>Node25&#45;&gt;Node1</title>
<path fill="none" stroke="midnightblue" d="M458.992,-408.961C468.52,-404.719 478.388,-399.685 487,-394 505.367,-381.875 504.291,-371.589 523,-360 526.181,-358.03 529.541,-356.179 532.996,-354.448"/>
<polygon fill="midnightblue" stroke="midnightblue" points="534.696,-357.518 542.303,-350.143 531.757,-351.165 534.696,-357.518"/>
</g>
<!-- Node27 -->
<g id="node28" class="node"><title>Node27</title>
<g id="a_node28"><a xlink:href="../../d5/daa/namespacemom__grid__initialize.html#a8ed056787130f21f4b9c1bc81bd60c50" target="_top" xlink:title="mom_grid_initialize\l::int_dj_dy">
<polygon fill="white" stroke="black" points="542,-418 542,-448 642,-448 642,-418 542,-418"/>
<text text-anchor="start" x="550" y="-436" font-family="Helvetica,sans-Serif" font-size="10.00">mom_grid_initialize</text>
<text text-anchor="middle" x="592" y="-425" font-family="Helvetica,sans-Serif" font-size="10.00">::int_dj_dy</text>
</a>
</g>
</g>
<!-- Node26&#45;&gt;Node27 -->
<g id="edge39" class="edge"><title>Node26&#45;&gt;Node27</title>
<path fill="none" stroke="midnightblue" d="M464.936,-545.962C472.919,-541.971 480.665,-537.038 487,-531 513.187,-506.042 496.103,-482.191 523,-458 526.018,-455.286 529.355,-452.859 532.883,-450.69"/>
<polygon fill="midnightblue" stroke="midnightblue" points="534.816,-453.624 541.973,-445.812 531.507,-447.456 534.816,-453.624"/>
</g>
<!-- Node28 -->
<g id="node29" class="node"><title>Node28</title>
<g id="a_node29"><a xlink:href="../../d5/daa/namespacemom__grid__initialize.html#a25cb0001f061ef10b90e637f98ed9fcc" target="_top" xlink:title="mom_grid_initialize\l::find_root">
<polygon fill="white" stroke="black" points="542,-369 542,-399 642,-399 642,-369 542,-369"/>
<text text-anchor="start" x="550" y="-387" font-family="Helvetica,sans-Serif" font-size="10.00">mom_grid_initialize</text>
<text text-anchor="middle" x="592" y="-376" font-family="Helvetica,sans-Serif" font-size="10.00">::find_root</text>
</a>
</g>
</g>
<!-- Node26&#45;&gt;Node28 -->
<g id="edge40" class="edge"><title>Node26&#45;&gt;Node28</title>
<path fill="none" stroke="midnightblue" d="M467.579,-545.881C474.824,-541.957 481.637,-537.068 487,-531 524.439,-488.64 484.352,-450.26 523,-409 525.95,-405.85 529.332,-403.095 532.975,-400.687"/>
<polygon fill="midnightblue" stroke="midnightblue" points="534.88,-403.631 541.873,-395.671 531.443,-397.533 534.88,-403.631"/>
</g>
<!-- Node29 -->
<g id="node30" class="node"><title>Node29</title>
<g id="a_node30"><a xlink:href="../../d5/daa/namespacemom__grid__initialize.html#aff493c70cca560bfefcdbfabdf778656" target="_top" xlink:title="mom_grid_initialize\l::dy_dj">
<polygon fill="white" stroke="black" points="722.5,-561 722.5,-591 822.5,-591 822.5,-561 722.5,-561"/>
<text text-anchor="start" x="730.5" y="-579" font-family="Helvetica,sans-Serif" font-size="10.00">mom_grid_initialize</text>
<text text-anchor="middle" x="772.5" y="-568" font-family="Helvetica,sans-Serif" font-size="10.00">::dy_dj</text>
</a>
</g>
</g>
<!-- Node26&#45;&gt;Node29 -->
<g id="edge42" class="edge"><title>Node26&#45;&gt;Node29</title>
<path fill="none" stroke="midnightblue" d="M486.158,-563.892C551.726,-566.674 649.844,-570.838 712.246,-573.486"/>
<polygon fill="midnightblue" stroke="midnightblue" points="712.185,-576.986 722.324,-573.913 712.482,-569.992 712.185,-576.986"/>
</g>
<!-- Node30 -->
<g id="node31" class="node"><title>Node30</title>
<g id="a_node31"><a xlink:href="../../d5/daa/namespacemom__grid__initialize.html#aee53e3cf4937fa86949aa376d5f3d82a" target="_top" xlink:title="mom_grid_initialize\l::int_di_dx">
<polygon fill="white" stroke="black" points="542,-506 542,-536 642,-536 642,-506 542,-506"/>
<text text-anchor="start" x="550" y="-524" font-family="Helvetica,sans-Serif" font-size="10.00">mom_grid_initialize</text>
<text text-anchor="middle" x="592" y="-513" font-family="Helvetica,sans-Serif" font-size="10.00">::int_di_dx</text>
</a>
</g>
</g>
<!-- Node26&#45;&gt;Node30 -->
<g id="edge43" class="edge"><title>Node26&#45;&gt;Node30</title>
<path fill="none" stroke="midnightblue" d="M482.911,-545.992C498.956,-542.282 516.059,-538.327 531.815,-534.684"/>
<polygon fill="midnightblue" stroke="midnightblue" points="532.995,-538.004 541.949,-532.341 531.418,-531.184 532.995,-538.004"/>
</g>
<!-- Node31 -->
<g id="node32" class="node"><title>Node31</title>
<g id="a_node32"><a xlink:href="../../d5/daa/namespacemom__grid__initialize.html#afa76ec84052508b78fde53cd6ed70161" target="_top" xlink:title="mom_grid_initialize\l::dx_di">
<polygon fill="white" stroke="black" points="722.5,-632 722.5,-662 822.5,-662 822.5,-632 722.5,-632"/>
<text text-anchor="start" x="730.5" y="-650" font-family="Helvetica,sans-Serif" font-size="10.00">mom_grid_initialize</text>
<text text-anchor="middle" x="772.5" y="-639" font-family="Helvetica,sans-Serif" font-size="10.00">::dx_di</text>
</a>
</g>
</g>
<!-- Node26&#45;&gt;Node31 -->
<g id="edge44" class="edge"><title>Node26&#45;&gt;Node31</title>
<path fill="none" stroke="midnightblue" d="M425.487,-576.297C439.915,-603.787 474.486,-660.746 523,-683 578.748,-708.572 600.426,-692.619 661,-683 664.117,-682.505 690.588,-673.893 716.837,-665.217"/>
<polygon fill="midnightblue" stroke="midnightblue" points="718.062,-668.498 726.455,-662.032 715.861,-661.853 718.062,-668.498"/>
</g>
<!-- Node32 -->
<g id="node33" class="node"><title>Node32</title>
<g id="a_node33"><a xlink:href="../../d5/daa/namespacemom__grid__initialize.html#a5a50815c6d1d0948dfbae076da654b94" target="_top" xlink:title="mom_grid_initialize\l::ds_di">
<polygon fill="white" stroke="black" points="542,-643 542,-673 642,-673 642,-643 542,-643"/>
<text text-anchor="start" x="550" y="-661" font-family="Helvetica,sans-Serif" font-size="10.00">mom_grid_initialize</text>
<text text-anchor="middle" x="592" y="-650" font-family="Helvetica,sans-Serif" font-size="10.00">::ds_di</text>
</a>
</g>
</g>
<!-- Node26&#45;&gt;Node32 -->
<g id="edge45" class="edge"><title>Node26&#45;&gt;Node32</title>
<path fill="none" stroke="midnightblue" d="M436.38,-576.076C456.616,-592.109 490.593,-617.399 523,-634 526.473,-635.779 530.109,-637.481 533.816,-639.098"/>
<polygon fill="midnightblue" stroke="midnightblue" points="532.546,-642.36 543.126,-642.937 535.215,-635.889 532.546,-642.36"/>
</g>
<!-- Node33 -->
<g id="node34" class="node"><title>Node33</title>
<g id="a_node34"><a xlink:href="../../d5/daa/namespacemom__grid__initialize.html#aaa3a376606d5067107c3a43beb6f8032" target="_top" xlink:title="mom_grid_initialize\l::ds_dj">
<polygon fill="white" stroke="black" points="542,-594 542,-624 642,-624 642,-594 542,-594"/>
<text text-anchor="start" x="550" y="-612" font-family="Helvetica,sans-Serif" font-size="10.00">mom_grid_initialize</text>
<text text-anchor="middle" x="592" y="-601" font-family="Helvetica,sans-Serif" font-size="10.00">::ds_dj</text>
</a>
</g>
</g>
<!-- Node26&#45;&gt;Node33 -->
<g id="edge47" class="edge"><title>Node26&#45;&gt;Node33</title>
<path fill="none" stroke="midnightblue" d="M472.264,-576.056C491.337,-581.348 512.85,-587.317 532.274,-592.706"/>
<polygon fill="midnightblue" stroke="midnightblue" points="531.346,-596.081 541.918,-595.382 533.217,-589.336 531.346,-596.081"/>
</g>
<!-- Node34 -->
<g id="node35" class="node"><title>Node34</title>
<g id="a_node35"><a xlink:href="../../d5/daa/namespacemom__grid__initialize.html#aac9e8e21e95ba01e853569e3060ee8d3" target="_top" xlink:title="mom_grid_initialize::dl">
<polygon fill="white" stroke="black" points="535.5,-467.5 535.5,-486.5 648.5,-486.5 648.5,-467.5 535.5,-467.5"/>
<text text-anchor="middle" x="592" y="-474.5" font-family="Helvetica,sans-Serif" font-size="10.00">mom_grid_initialize::dl</text>
</a>
</g>
</g>
<!-- Node26&#45;&gt;Node34 -->
<g id="edge49" class="edge"><title>Node26&#45;&gt;Node34</title>
<path fill="none" stroke="midnightblue" d="M458.992,-545.961C468.52,-541.719 478.388,-536.685 487,-531 505.367,-518.875 503.917,-507.963 523,-497 527.552,-494.385 532.474,-492.087 537.518,-490.071"/>
<polygon fill="midnightblue" stroke="midnightblue" points="539.086,-493.226 547.301,-486.536 536.707,-486.643 539.086,-493.226"/>
</g>
<!-- Node28&#45;&gt;Node18 -->
<g id="edge41" class="edge"><title>Node28&#45;&gt;Node18</title>
<path fill="none" stroke="midnightblue" d="M638.632,-399.072C646.234,-402.064 653.939,-405.404 661,-409 757.58,-458.18 861.173,-534.812 908.982,-571.718"/>
<polygon fill="midnightblue" stroke="midnightblue" points="906.93,-574.557 916.977,-577.922 911.222,-569.026 906.93,-574.557"/>
</g>
<!-- Node32&#45;&gt;Node31 -->
<g id="edge46" class="edge"><title>Node32&#45;&gt;Node31</title>
<path fill="none" stroke="midnightblue" d="M642.248,-654.965C663.904,-653.631 689.522,-652.052 712.216,-650.653"/>
<polygon fill="midnightblue" stroke="midnightblue" points="712.647,-654.134 722.412,-650.025 712.216,-647.147 712.647,-654.134"/>
</g>
<!-- Node33&#45;&gt;Node29 -->
<g id="edge48" class="edge"><title>Node33&#45;&gt;Node29</title>
<path fill="none" stroke="midnightblue" d="M642.248,-599.895C664.002,-595.874 689.753,-591.113 712.522,-586.903"/>
<polygon fill="midnightblue" stroke="midnightblue" points="713.215,-590.335 722.412,-585.075 711.943,-583.451 713.215,-590.335"/>
</g>
<!-- Node36 -->
<g id="node37" class="node"><title>Node36</title>
<g id="a_node37"><a xlink:href="../../db/dc0/namespacemom__dyn__horgrid.html#aa6579f50769698067defbc3c676e0191" target="_top" xlink:title="Adcroft_reciprocal(x) = 1/x for |x|&gt;0 or 0 for x=0. ">
<polygon fill="white" stroke="black" points="527,-173 527,-203 657,-203 657,-173 527,-173"/>
<text text-anchor="start" x="535" y="-191" font-family="Helvetica,sans-Serif" font-size="10.00">mom_dyn_horgrid::adcroft</text>
<text text-anchor="middle" x="592" y="-180" font-family="Helvetica,sans-Serif" font-size="10.00">_reciprocal</text>
</a>
</g>
</g>
<!-- Node35&#45;&gt;Node36 -->
<g id="edge51" class="edge"><title>Node35&#45;&gt;Node36</title>
<path fill="none" stroke="midnightblue" d="M473.691,-188C487.362,-188 502.214,-188 516.61,-188"/>
<polygon fill="midnightblue" stroke="midnightblue" points="516.988,-191.5 526.988,-188 516.988,-184.5 516.988,-191.5"/>
</g>
<!-- Node39 -->
<g id="node40" class="node"><title>Node39</title>
<g id="a_node40"><a xlink:href="../../d5/d89/namespacemom__io.html#a39c3ccc06bb1a6e446af2ee9010eba16" target="_top" xlink:title="Returns a vardesc type whose elements have been filled with the provided fields. The argument name is...">
<polygon fill="white" stroke="black" points="368.5,-730.5 368.5,-749.5 465.5,-749.5 465.5,-730.5 368.5,-730.5"/>
<text text-anchor="middle" x="417" y="-737.5" font-family="Helvetica,sans-Serif" font-size="10.00">mom_io::var_desc</text>
</a>
</g>
</g>
<!-- Node38&#45;&gt;Node39 -->
<g id="edge55" class="edge"><title>Node38&#45;&gt;Node39</title>
<path fill="none" stroke="midnightblue" d="M264.888,-664.027C298.976,-681.165 354.296,-708.977 387.704,-725.774"/>
<polygon fill="midnightblue" stroke="midnightblue" points="386.409,-729.04 396.916,-730.405 389.554,-722.786 386.409,-729.04"/>
</g>
<!-- Node40 -->
<g id="node41" class="node"><title>Node40</title>
<g id="a_node41"><a xlink:href="../../d5/d89/namespacemom__io.html#ac4bc408e8b38dbd669842753f26ebf88" target="_top" xlink:title="Copies a string. ">
<polygon fill="white" stroke="black" points="707,-681.5 707,-700.5 838,-700.5 838,-681.5 707,-681.5"/>
<text text-anchor="middle" x="772.5" y="-688.5" font-family="Helvetica,sans-Serif" font-size="10.00">mom_io::safe_string_copy</text>
</a>
</g>
</g>
<!-- Node39&#45;&gt;Node40 -->
<g id="edge56" class="edge"><title>Node39&#45;&gt;Node40</title>
<path fill="none" stroke="midnightblue" d="M441.668,-749.587C487.021,-766.355 588.133,-795.884 661,-759 685.111,-746.796 674.597,-725.112 697,-710 700.057,-707.938 703.322,-706.1 706.714,-704.461"/>
<polygon fill="midnightblue" stroke="midnightblue" points="708.081,-707.683 715.935,-700.572 705.361,-701.233 708.081,-707.683"/>
</g>
<!-- Node41 -->
<g id="node42" class="node"><title>Node41</title>
<g id="a_node42"><a xlink:href="../../d5/d89/namespacemom__io.html#af96b29cb8410d557e8e452b81586223b" target="_top" xlink:title="This routine modifies the named elements of a vardesc type. All arguments are optional, except the vardesc type to be modified. ">
<polygon fill="white" stroke="black" points="529,-730.5 529,-749.5 655,-749.5 655,-730.5 529,-730.5"/>
<text text-anchor="middle" x="592" y="-737.5" font-family="Helvetica,sans-Serif" font-size="10.00">mom_io::modify_vardesc</text>
</a>
</g>
</g>
<!-- Node39&#45;&gt;Node41 -->
<g id="edge58" class="edge"><title>Node39&#45;&gt;Node41</title>
<path fill="none" stroke="midnightblue" d="M465.731,-740C482.034,-740 500.654,-740 518.462,-740"/>
<polygon fill="midnightblue" stroke="midnightblue" points="518.83,-743.5 528.83,-740 518.83,-736.5 518.83,-743.5"/>
</g>
<!-- Node40&#45;&gt;Node18 -->
<g id="edge57" class="edge"><title>Node40&#45;&gt;Node18</title>
<path fill="none" stroke="midnightblue" d="M824.825,-681.4C832.829,-678.923 840.818,-675.837 848,-672 874.697,-657.739 899.829,-633.704 916.345,-615.882"/>
<polygon fill="midnightblue" stroke="midnightblue" points="919.191,-617.953 923.302,-608.188 913.999,-613.258 919.191,-617.953"/>
</g>
<!-- Node41&#45;&gt;Node40 -->
<g id="edge59" class="edge"><title>Node41&#45;&gt;Node40</title>
<path fill="none" stroke="midnightblue" d="M625.251,-730.416C645.752,-724.394 672.881,-716.553 697,-710 705.517,-707.686 714.603,-705.3 723.398,-703.034"/>
<polygon fill="midnightblue" stroke="midnightblue" points="724.337,-706.406 733.157,-700.536 722.601,-699.625 724.337,-706.406"/>
</g>
</g>
</svg>
