<?xml version="1.0" encoding="UTF-8" standalone="no"?>
<!DOCTYPE svg PUBLIC "-//W3C//DTD SVG 1.1//EN"
 "http://www.w3.org/Graphics/SVG/1.1/DTD/svg11.dtd">
<!-- Generated by graphviz version 2.38.0 (20140413.2041)
 -->
<!-- Title: mom_fixed_initialization::mom_initialize_topography Pages: 1 -->
<svg width="617pt" height="488pt"
 viewBox="0.00 0.00 617.00 487.50" xmlns="http://www.w3.org/2000/svg" xmlns:xlink="http://www.w3.org/1999/xlink">
<g id="graph0" class="graph" transform="scale(1 1) rotate(0) translate(4 483.5)">
<title>mom_fixed_initialization::mom_initialize_topography</title>
<polygon fill="white" stroke="none" points="-4,4 -4,-483.5 613,-483.5 613,4 -4,4"/>
<!-- Node43 -->
<g id="node1" class="node"><title>Node43</title>
<polygon fill="#bfbfbf" stroke="black" points="0,-235.5 0,-265.5 138,-265.5 138,-235.5 0,-235.5"/>
<text text-anchor="start" x="8" y="-253.5" font-family="Helvetica,sans-Serif" font-size="10.00">mom_fixed_initialization</text>
<text text-anchor="middle" x="69" y="-242.5" font-family="Helvetica,sans-Serif" font-size="10.00">::mom_initialize_topography</text>
</g>
<!-- Node44 -->
<g id="node2" class="node"><title>Node44</title>
<g id="a_node2"><a xlink:href="../../da/d42/namespacebenchmark__initialization.html#a1bebd9e20d92971e047b79c9ceb9f694" target="_top" xlink:title="This subroutine sets up the benchmark test case topography. ">
<polygon fill="white" stroke="black" points="189,-438 189,-479 310,-479 310,-438 189,-438"/>
<text text-anchor="start" x="197" y="-467" font-family="Helvetica,sans-Serif" font-size="10.00">benchmark_initialization</text>
<text text-anchor="start" x="197" y="-456" font-family="Helvetica,sans-Serif" font-size="10.00">::benchmark_initialize</text>
<text text-anchor="middle" x="249.5" y="-445" font-family="Helvetica,sans-Serif" font-size="10.00">_topography</text>
</a>
</g>
</g>
<!-- Node43&#45;&gt;Node44 -->
<g id="edge1" class="edge"><title>Node43&#45;&gt;Node44</title>
<path fill="none" stroke="midnightblue" d="M74.9758,-265.609C86.8233,-299.387 119.828,-381.709 174,-428.5 175.939,-430.175 177.983,-431.764 180.108,-433.27"/>
<polygon fill="midnightblue" stroke="midnightblue" points="178.328,-436.286 188.649,-438.682 182.075,-430.373 178.328,-436.286"/>
</g>
<!-- Node47 -->
<g id="node5" class="node"><title>Node47</title>
<g id="a_node5"><a xlink:href="../../da/d77/namespacedome2d__initialization.html#ae850c5e89a9275c4333c02828187bf81" target="_top" xlink:title="Initialize topography with a shelf and slope in a 2D domain. ">
<polygon fill="white" stroke="black" points="174,-388.5 174,-418.5 325,-418.5 325,-388.5 174,-388.5"/>
<text text-anchor="start" x="182" y="-406.5" font-family="Helvetica,sans-Serif" font-size="10.00">dome2d_initialization</text>
<text text-anchor="middle" x="249.5" y="-395.5" font-family="Helvetica,sans-Serif" font-size="10.00">::dome2d_initialize_topography</text>
</a>
</g>
</g>
<!-- Node43&#45;&gt;Node47 -->
<g id="edge4" class="edge"><title>Node43&#45;&gt;Node47</title>
<path fill="none" stroke="midnightblue" d="M78.1903,-265.63C93.4831,-292.482 128.949,-348.549 174,-379.5 176.156,-380.981 178.409,-382.375 180.732,-383.687"/>
<polygon fill="midnightblue" stroke="midnightblue" points="179.479,-386.975 189.985,-388.349 182.629,-380.724 179.479,-386.975"/>
</g>
<!-- Node48 -->
<g id="node6" class="node"><title>Node48</title>
<g id="a_node6"><a xlink:href="../../db/d96/namespacedome__initialization.html#ad7b6dd46068562244ce6be9d56ebceb1" target="_top" xlink:title="This subroutine sets up the DOME topography. ">
<polygon fill="white" stroke="black" points="179.5,-339.5 179.5,-369.5 319.5,-369.5 319.5,-339.5 179.5,-339.5"/>
<text text-anchor="start" x="187.5" y="-357.5" font-family="Helvetica,sans-Serif" font-size="10.00">dome_initialization</text>
<text text-anchor="middle" x="249.5" y="-346.5" font-family="Helvetica,sans-Serif" font-size="10.00">::dome_initialize_topography</text>
</a>
</g>
</g>
<!-- Node43&#45;&gt;Node48 -->
<g id="edge5" class="edge"><title>Node43&#45;&gt;Node48</title>
<path fill="none" stroke="midnightblue" d="M86.0615,-265.736C105.511,-283.467 139.919,-312.597 174,-330.5 177.487,-332.332 181.139,-334.056 184.875,-335.674"/>
<polygon fill="midnightblue" stroke="midnightblue" points="183.702,-338.975 194.285,-339.478 186.325,-332.485 183.702,-338.975"/>
</g>
<!-- Node49 -->
<g id="node7" class="node"><title>Node49</title>
<g id="a_node7"><a xlink:href="../../d7/d55/namespaceisomip__initialization.html#ab744ce65e54b3ba5f6107dd909ded31f" target="_top" xlink:title="Initialization of topography. ">
<polygon fill="white" stroke="black" points="177,-290.5 177,-320.5 322,-320.5 322,-290.5 177,-290.5"/>
<text text-anchor="start" x="185" y="-308.5" font-family="Helvetica,sans-Serif" font-size="10.00">isomip_initialization</text>
<text text-anchor="middle" x="249.5" y="-297.5" font-family="Helvetica,sans-Serif" font-size="10.00">::isomip_initialize_topography</text>
</a>
</g>
</g>
<!-- Node43&#45;&gt;Node49 -->
<g id="edge7" class="edge"><title>Node43&#45;&gt;Node49</title>
<path fill="none" stroke="midnightblue" d="M118.776,-265.529C140.814,-272.319 167.03,-280.397 190.106,-287.508"/>
<polygon fill="midnightblue" stroke="midnightblue" points="189.196,-290.889 199.783,-290.489 191.257,-284.2 189.196,-290.889"/>
</g>
<!-- Node50 -->
<g id="node8" class="node"><title>Node50</title>
<g id="a_node8"><a xlink:href="../../d8/ddc/namespacephillips__initialization.html#a43bb71b08d4747199e2a06f063fb87fe" target="_top" xlink:title="Initialize topography. ">
<polygon fill="white" stroke="black" points="198,-230 198,-271 301,-271 301,-230 198,-230"/>
<text text-anchor="start" x="206" y="-259" font-family="Helvetica,sans-Serif" font-size="10.00">phillips_initialization</text>
<text text-anchor="start" x="206" y="-248" font-family="Helvetica,sans-Serif" font-size="10.00">::phillips_initialize</text>
<text text-anchor="middle" x="249.5" y="-237" font-family="Helvetica,sans-Serif" font-size="10.00">_topography</text>
</a>
</g>
</g>
<!-- Node43&#45;&gt;Node50 -->
<g id="edge9" class="edge"><title>Node43&#45;&gt;Node50</title>
<path fill="none" stroke="midnightblue" d="M138.247,-250.5C154.475,-250.5 171.685,-250.5 187.562,-250.5"/>
<polygon fill="midnightblue" stroke="midnightblue" points="187.779,-254 197.779,-250.5 187.779,-247 187.779,-254"/>
</g>
<!-- Node51 -->
<g id="node9" class="node"><title>Node51</title>
<g id="a_node9"><a xlink:href="../../d7/d25/namespaceseamount__initialization.html#ad0d12dd03f77e4a827fcd925805b92c9" target="_top" xlink:title="Initialization of topography. ">
<polygon fill="white" stroke="black" points="191.5,-170 191.5,-211 307.5,-211 307.5,-170 191.5,-170"/>
<text text-anchor="start" x="199.5" y="-199" font-family="Helvetica,sans-Serif" font-size="10.00">seamount_initialization</text>
<text text-anchor="start" x="199.5" y="-188" font-family="Helvetica,sans-Serif" font-size="10.00">::seamount_initialize</text>
<text text-anchor="middle" x="249.5" y="-177" font-family="Helvetica,sans-Serif" font-size="10.00">_topography</text>
</a>
</g>
</g>
<!-- Node43&#45;&gt;Node51 -->
<g id="edge10" class="edge"><title>Node43&#45;&gt;Node51</title>
<path fill="none" stroke="midnightblue" d="M115.043,-235.359C135.196,-228.586 159.371,-220.459 181.576,-212.995"/>
<polygon fill="midnightblue" stroke="midnightblue" points="182.921,-216.236 191.285,-209.732 180.691,-209.601 182.921,-216.236"/>
</g>
<!-- Node52 -->
<g id="node10" class="node"><title>Node52</title>
<g id="a_node10"><a xlink:href="../../d0/d18/namespacesloshing__initialization.html#a0ecf019d4e63415fc16ce5ca4158f7f3" target="_top" xlink:title="Initialization of topography. ">
<polygon fill="white" stroke="black" points="195,-110 195,-151 304,-151 304,-110 195,-110"/>
<text text-anchor="start" x="203" y="-139" font-family="Helvetica,sans-Serif" font-size="10.00">sloshing_initialization</text>
<text text-anchor="start" x="203" y="-128" font-family="Helvetica,sans-Serif" font-size="10.00">::sloshing_initialize</text>
<text text-anchor="middle" x="249.5" y="-117" font-family="Helvetica,sans-Serif" font-size="10.00">_topography</text>
</a>
</g>
</g>
<!-- Node43&#45;&gt;Node52 -->
<g id="edge11" class="edge"><title>Node43&#45;&gt;Node52</title>
<path fill="none" stroke="midnightblue" d="M84.2605,-235.377C103.237,-215.946 138.539,-182.148 174,-160.5 177.784,-158.19 181.778,-155.991 185.87,-153.911"/>
<polygon fill="midnightblue" stroke="midnightblue" points="187.446,-157.036 194.944,-149.551 184.415,-150.727 187.446,-157.036"/>
</g>
<!-- Node53 -->
<g id="node11" class="node"><title>Node53</title>
<g id="a_node11"><a xlink:href="../../dc/dec/namespacesupercritical__initialization.html#a0cedacc057705a1f7c01e64880a3267c" target="_top" xlink:title="This subroutine sets up the supercritical topography. ">
<polygon fill="white" stroke="black" points="187,-50 187,-91 312,-91 312,-50 187,-50"/>
<text text-anchor="start" x="195" y="-79" font-family="Helvetica,sans-Serif" font-size="10.00">supercritical_initialization</text>
<text text-anchor="start" x="195" y="-68" font-family="Helvetica,sans-Serif" font-size="10.00">::supercritical_initialize</text>
<text text-anchor="middle" x="249.5" y="-57" font-family="Helvetica,sans-Serif" font-size="10.00">_topography</text>
</a>
</g>
</g>
<!-- Node43&#45;&gt;Node53 -->
<g id="edge12" class="edge"><title>Node43&#45;&gt;Node53</title>
<path fill="none" stroke="midnightblue" d="M76.8913,-235.116C91.0031,-205.219 125.955,-138.853 174,-100.5 175.771,-99.0864 177.617,-97.7315 179.522,-96.4333"/>
<polygon fill="midnightblue" stroke="midnightblue" points="181.511,-99.3188 188.197,-91.1002 177.845,-93.3554 181.511,-99.3188"/>
</g>
<!-- Node54 -->
<g id="node12" class="node"><title>Node54</title>
<g id="a_node12"><a xlink:href="../../d9/dfa/namespaceuser__initialization.html#a7b7630e690c942f2961e45e19c4f69fc" target="_top" xlink:title="Initialize topography. ">
<polygon fill="white" stroke="black" points="182,-0.5 182,-30.5 317,-30.5 317,-0.5 182,-0.5"/>
<text text-anchor="start" x="190" y="-18.5" font-family="Helvetica,sans-Serif" font-size="10.00">user_initialization</text>
<text text-anchor="middle" x="249.5" y="-7.5" font-family="Helvetica,sans-Serif" font-size="10.00">::user_initialize_topography</text>
</a>
</g>
</g>
<!-- Node43&#45;&gt;Node54 -->
<g id="edge14" class="edge"><title>Node43&#45;&gt;Node54</title>
<path fill="none" stroke="midnightblue" d="M73.2552,-235.345C82.2691,-197.009 111.153,-95.3291 174,-40.5 175.934,-38.8127 177.986,-37.2385 180.128,-35.7697"/>
<polygon fill="midnightblue" stroke="midnightblue" points="181.983,-38.7386 188.78,-30.6115 178.399,-32.7261 181.983,-38.7386"/>
</g>
<!-- Node45 -->
<g id="node3" class="node"><title>Node45</title>
<g id="a_node3"><a xlink:href="../../d0/de6/namespacemom__error__handler.html#a1c462df7b61f1296407b4af51dfeceab" target="_top" xlink:title="mom_error_handler::\lmom_mesg">
<polygon fill="white" stroke="black" points="361,-290.5 361,-320.5 467,-320.5 467,-290.5 361,-290.5"/>
<text text-anchor="start" x="369" y="-308.5" font-family="Helvetica,sans-Serif" font-size="10.00">mom_error_handler::</text>
<text text-anchor="middle" x="414" y="-297.5" font-family="Helvetica,sans-Serif" font-size="10.00">mom_mesg</text>
</a>
</g>
</g>
<!-- Node44&#45;&gt;Node45 -->
<g id="edge2" class="edge"><title>Node44&#45;&gt;Node45</title>
<path fill="none" stroke="midnightblue" d="M310.37,-438.039C315.541,-435.205 320.506,-432.033 325,-428.5 359.527,-401.353 386.506,-357.166 401.058,-329.799"/>
<polygon fill="midnightblue" stroke="midnightblue" points="404.189,-331.365 405.679,-320.876 397.973,-328.146 404.189,-331.365"/>
</g>
<!-- Node46 -->
<g id="node4" class="node"><title>Node46</title>
<g id="a_node4"><a xlink:href="../../d0/de6/namespacemom__error__handler.html#ad5f00a53059c72fe2332d1436c80ca71" target="_top" xlink:title="mom_error_handler::\lis_root_pe">
<polygon fill="white" stroke="black" points="503,-217.5 503,-247.5 609,-247.5 609,-217.5 503,-217.5"/>
<text text-anchor="start" x="511" y="-235.5" font-family="Helvetica,sans-Serif" font-size="10.00">mom_error_handler::</text>
<text text-anchor="middle" x="556" y="-224.5" font-family="Helvetica,sans-Serif" font-size="10.00">is_root_pe</text>
</a>
</g>
</g>
<!-- Node45&#45;&gt;Node46 -->
<g id="edge3" class="edge"><title>Node45&#45;&gt;Node46</title>
<path fill="none" stroke="midnightblue" d="M444.008,-290.374C465.126,-279.363 493.929,-264.344 516.901,-252.366"/>
<polygon fill="midnightblue" stroke="midnightblue" points="518.78,-255.333 526.029,-247.606 515.544,-249.126 518.78,-255.333"/>
</g>
<!-- Node48&#45;&gt;Node45 -->
<g id="edge6" class="edge"><title>Node48&#45;&gt;Node45</title>
<path fill="none" stroke="midnightblue" d="M300.581,-339.399C317.186,-334.392 335.837,-328.768 353.104,-323.561"/>
<polygon fill="midnightblue" stroke="midnightblue" points="354.52,-326.79 363.084,-320.552 352.499,-320.088 354.52,-326.79"/>
</g>
<!-- Node49&#45;&gt;Node45 -->
<g id="edge8" class="edge"><title>Node49&#45;&gt;Node45</title>
<path fill="none" stroke="midnightblue" d="M322.248,-305.5C331.638,-305.5 341.199,-305.5 350.421,-305.5"/>
<polygon fill="midnightblue" stroke="midnightblue" points="350.662,-309 360.661,-305.5 350.661,-302 350.662,-309"/>
</g>
<!-- Node53&#45;&gt;Node45 -->
<g id="edge13" class="edge"><title>Node53&#45;&gt;Node45</title>
<path fill="none" stroke="midnightblue" d="M312.34,-90.6355C316.921,-93.5152 321.22,-96.7869 325,-100.5 354.267,-129.251 344.844,-147.789 361,-185.5 375.161,-218.554 391.702,-256.638 402.259,-280.877"/>
<polygon fill="midnightblue" stroke="midnightblue" points="399.189,-282.594 406.393,-290.363 405.607,-279.797 399.189,-282.594"/>
</g>
<!-- Node55 -->
<g id="node13" class="node"><title>Node55</title>
<g id="a_node13"><a xlink:href="../../d0/de6/namespacemom__error__handler.html#a460cfb79a06c29fc249952c2a3710d67" target="_top" xlink:title="mom_error_handler::\lmom_error">
<polygon fill="white" stroke="black" points="361,-145.5 361,-175.5 467,-175.5 467,-145.5 361,-145.5"/>
<text text-anchor="start" x="369" y="-163.5" font-family="Helvetica,sans-Serif" font-size="10.00">mom_error_handler::</text>
<text text-anchor="middle" x="414" y="-152.5" font-family="Helvetica,sans-Serif" font-size="10.00">mom_error</text>
</a>
</g>
</g>
<!-- Node54&#45;&gt;Node55 -->
<g id="edge15" class="edge"><title>Node54&#45;&gt;Node55</title>
<path fill="none" stroke="midnightblue" d="M307.652,-30.5426C313.788,-33.344 319.712,-36.6372 325,-40.5 359.744,-65.8806 386.527,-109.027 401.002,-136.081"/>
<polygon fill="midnightblue" stroke="midnightblue" points="398.053,-137.997 405.769,-145.257 404.265,-134.77 398.053,-137.997"/>
</g>
<!-- Node56 -->
<g id="node14" class="node"><title>Node56</title>
<g id="a_node14"><a xlink:href="../../d9/dfa/namespaceuser__initialization.html#aebfc0db710e83bae83f08e1a774256dd" target="_top" xlink:title="Write output about the parameter values being used. ">
<polygon fill="white" stroke="black" points="368,-0.5 368,-30.5 460,-30.5 460,-0.5 368,-0.5"/>
<text text-anchor="start" x="376" y="-18.5" font-family="Helvetica,sans-Serif" font-size="10.00">user_initialization</text>
<text text-anchor="middle" x="414" y="-7.5" font-family="Helvetica,sans-Serif" font-size="10.00">::write_user_log</text>
</a>
</g>
</g>
<!-- Node54&#45;&gt;Node56 -->
<g id="edge17" class="edge"><title>Node54&#45;&gt;Node56</title>
<path fill="none" stroke="midnightblue" d="M317.064,-15.5C330.481,-15.5 344.451,-15.5 357.444,-15.5"/>
<polygon fill="midnightblue" stroke="midnightblue" points="357.625,-19.0001 367.625,-15.5 357.625,-12.0001 357.625,-19.0001"/>
</g>
<!-- Node55&#45;&gt;Node46 -->
<g id="edge16" class="edge"><title>Node55&#45;&gt;Node46</title>
<path fill="none" stroke="midnightblue" d="M444.349,-175.594C465.349,-186.394 493.82,-201.036 516.622,-212.763"/>
<polygon fill="midnightblue" stroke="midnightblue" points="515.196,-215.965 525.69,-217.426 518.398,-209.74 515.196,-215.965"/>
</g>
</g>
</svg>
