<?xml version="1.0" encoding="UTF-8" standalone="no"?>
<!DOCTYPE svg PUBLIC "-//W3C//DTD SVG 1.1//EN"
 "http://www.w3.org/Graphics/SVG/1.1/DTD/svg11.dtd">
<!-- Generated by graphviz version 2.38.0 (20140413.2041)
 -->
<!-- Title: polynomial_functions::evaluation_polynomial Pages: 1 -->
<!--zoomable 361 -->
<svg id="main" version="1.1" xmlns="http://www.w3.org/2000/svg" xmlns:xlink="http://www.w3.org/1999/xlink" xml:space="preserve" onload="init(evt)">
<style type="text/css"><![CDATA[
.edge:hover path { stroke: red; }
.edge:hover polygon { stroke: red; fill: red; }
]]></style>
<script type="text/javascript"><![CDATA[
var edges = document.getElementsByTagName('g');
if (edges && edges.length) {
  for (var i=0;i<edges.length;i++) {
    if (edges[i].id.substr(0,4)=='edge') {
      edges[i].setAttribute('class','edge');
    }
  }
}
]]></script>
        <defs>
                <circle id="rim" cx="0" cy="0" r="7"/>
                <circle id="rim2" cx="0" cy="0" r="3.5"/>
                <g id="zoomPlus">
                        <use xlink:href="#rim" fill="#404040">
                                <set attributeName="fill" to="#808080" begin="zoomplus.mouseover" end="zoomplus.mouseout"/>
                        </use>
                        <path d="M-4,0h8M0,-4v8" fill="none" stroke="white" stroke-width="1.5" pointer-events="none"/>
                </g>
                <g id="zoomMin">
                        <use xlink:href="#rim" fill="#404040">
                                <set attributeName="fill" to="#808080" begin="zoomminus.mouseover" end="zoomminus.mouseout"/>
                        </use>
                        <path d="M-4,0h8" fill="none" stroke="white" stroke-width="1.5" pointer-events="none"/>
                </g>
                <g id="dirArrow">
                        <path fill="none" stroke="white" stroke-width="1.5" d="M0,-3.0v7 M-2.5,-0.5L0,-3.0L2.5,-0.5"/>
                </g>
               <g id="resetDef">
                       <use xlink:href="#rim2" fill="#404040">
                               <set attributeName="fill" to="#808080" begin="reset.mouseover" end="reset.mouseout"/>
                       </use>
               </g>
        </defs>

<script type="text/javascript">
var viewWidth = 1277;
var viewHeight = 361;
var sectionId = 'dynsection-0';
</script>
<script xlink:href="../../svgpan.js"/>
<svg id="graph" class="graph">
<g id="viewport">
<title>polynomial_functions::evaluation_polynomial</title>
<polygon fill="white" stroke="none" points="-4,4 -4,-357 1273,-357 1273,4 -4,4"/>
<!-- Node1 -->
<g id="node1" class="node"><title>Node1</title>
<polygon fill="#bfbfbf" stroke="black" points="0,-98.5 0,-128.5 119,-128.5 119,-98.5 0,-98.5"/>
<text text-anchor="start" x="8" y="-116.5" font-family="Helvetica,sans-Serif" font-size="10.00">polynomial_functions</text>
<text text-anchor="middle" x="59.5" y="-105.5" font-family="Helvetica,sans-Serif" font-size="10.00">::evaluation_polynomial</text>
</g>
<!-- Node2 -->
<g id="node2" class="node"><title>Node2</title>
<g id="a_node2"><a xlink:href="../../da/d9a/namespaceregrid__edge__slopes.html#a378dcb603968664e58d65e8ed892ec69" target="_top" xlink:title="regrid_edge_slopes\l::edge_slopes_implicit_h3">
<polygon fill="white" stroke="black" points="155,-196.5 155,-226.5 284,-226.5 284,-196.5 155,-196.5"/>
<text text-anchor="start" x="163" y="-214.5" font-family="Helvetica,sans-Serif" font-size="10.00">regrid_edge_slopes</text>
<text text-anchor="middle" x="219.5" y="-203.5" font-family="Helvetica,sans-Serif" font-size="10.00">::edge_slopes_implicit_h3</text>
</a>
</g>
</g>
<!-- Node1&#45;&gt;Node2 -->
<g id="edge1" class="edge"><title>Node1&#45;&gt;Node2</title>
<path fill="none" stroke="midnightblue" d="M84.7148,-135.316C103.044,-151.03 129.361,-171.942 155,-186.5 161.388,-190.127 168.406,-193.464 175.375,-196.438"/>
<polygon fill="midnightblue" stroke="midnightblue" points="86.7278,-132.428 76.8867,-128.503 82.1325,-137.708 86.7278,-132.428"/>
</g>
<!-- Node22 -->
<g id="node22" class="node"><title>Node22</title>
<g id="a_node22"><a xlink:href="../../da/d9a/namespaceregrid__edge__slopes.html#a32fc906bf14cfb859703b4a1a7c46a9c" target="_top" xlink:title="regrid_edge_slopes\l::edge_slopes_implicit_h5">
<polygon fill="white" stroke="black" points="155,-147.5 155,-177.5 284,-177.5 284,-147.5 155,-147.5"/>
<text text-anchor="start" x="163" y="-165.5" font-family="Helvetica,sans-Serif" font-size="10.00">regrid_edge_slopes</text>
<text text-anchor="middle" x="219.5" y="-154.5" font-family="Helvetica,sans-Serif" font-size="10.00">::edge_slopes_implicit_h5</text>
</a>
</g>
</g>
<!-- Node1&#45;&gt;Node22 -->
<g id="edge22" class="edge"><title>Node1&#45;&gt;Node22</title>
<path fill="none" stroke="midnightblue" d="M118.905,-131.613C135.702,-136.822 153.835,-142.446 169.966,-147.448"/>
<polygon fill="midnightblue" stroke="midnightblue" points="119.782,-128.221 109.194,-128.601 117.709,-134.907 119.782,-128.221"/>
</g>
<!-- Node23 -->
<g id="node23" class="node"><title>Node23</title>
<g id="a_node23"><a xlink:href="../../df/d50/namespaceregrid__edge__values.html#ae035eeac02b037af753339993eeb2a00" target="_top" xlink:title="regrid_edge_values\l::edge_values_explicit_h4">
<polygon fill="white" stroke="black" points="155,-98.5 155,-128.5 284,-128.5 284,-98.5 155,-98.5"/>
<text text-anchor="start" x="163" y="-116.5" font-family="Helvetica,sans-Serif" font-size="10.00">regrid_edge_values</text>
<text text-anchor="middle" x="219.5" y="-105.5" font-family="Helvetica,sans-Serif" font-size="10.00">::edge_values_explicit_h4</text>
</a>
</g>
</g>
<!-- Node1&#45;&gt;Node23 -->
<g id="edge24" class="edge"><title>Node1&#45;&gt;Node23</title>
<path fill="none" stroke="midnightblue" d="M129.506,-113.5C137.929,-113.5 146.507,-113.5 154.847,-113.5"/>
<polygon fill="midnightblue" stroke="midnightblue" points="129.333,-110 119.333,-113.5 129.333,-117 129.333,-110"/>
</g>
<!-- Node24 -->
<g id="node24" class="node"><title>Node24</title>
<g id="a_node24"><a xlink:href="../../df/d50/namespaceregrid__edge__values.html#a2c2460b31b6de501eed3cb7db07a4be5" target="_top" xlink:title="regrid_edge_values\l::edge_values_implicit_h4">
<polygon fill="white" stroke="black" points="155,-0.5 155,-30.5 284,-30.5 284,-0.5 155,-0.5"/>
<text text-anchor="start" x="163" y="-18.5" font-family="Helvetica,sans-Serif" font-size="10.00">regrid_edge_values</text>
<text text-anchor="middle" x="219.5" y="-7.5" font-family="Helvetica,sans-Serif" font-size="10.00">::edge_values_implicit_h4</text>
</a>
</g>
</g>
<!-- Node1&#45;&gt;Node24 -->
<g id="edge25" class="edge"><title>Node1&#45;&gt;Node24</title>
<path fill="none" stroke="midnightblue" d="M84.2726,-91.5491C102.56,-75.523 129.02,-54.1295 155,-39.5 160.751,-36.2617 167.024,-33.2918 173.316,-30.6277"/>
<polygon fill="midnightblue" stroke="midnightblue" points="81.6173,-89.227 76.4765,-98.4911 86.2724,-94.4548 81.6173,-89.227"/>
</g>
<!-- Node26 -->
<g id="node26" class="node"><title>Node26</title>
<g id="a_node26"><a xlink:href="../../df/d50/namespaceregrid__edge__values.html#a6c14843c556353d86f2efb4c7c74c9f5" target="_top" xlink:title="regrid_edge_values\l::edge_values_implicit_h6">
<polygon fill="white" stroke="black" points="155,-49.5 155,-79.5 284,-79.5 284,-49.5 155,-49.5"/>
<text text-anchor="start" x="163" y="-67.5" font-family="Helvetica,sans-Serif" font-size="10.00">regrid_edge_values</text>
<text text-anchor="middle" x="219.5" y="-56.5" font-family="Helvetica,sans-Serif" font-size="10.00">::edge_values_implicit_h6</text>
</a>
</g>
</g>
<!-- Node1&#45;&gt;Node26 -->
<g id="edge28" class="edge"><title>Node1&#45;&gt;Node26</title>
<path fill="none" stroke="midnightblue" d="M118.905,-95.3871C135.702,-90.1778 153.835,-84.5543 169.966,-79.5516"/>
<polygon fill="midnightblue" stroke="midnightblue" points="117.709,-92.0935 109.194,-98.3986 119.782,-98.7793 117.709,-92.0935"/>
</g>
<!-- Node3 -->
<g id="node3" class="node"><title>Node3</title>
<g id="a_node3"><a xlink:href="../../d6/d75/namespacemom__remapping.html#a07d7276310f329f56560a1290bcb8b0a" target="_top" xlink:title="Creates polynomial reconstructions of u0 on the source grid h0. ">
<polygon fill="white" stroke="black" points="344.5,-98.5 344.5,-128.5 459.5,-128.5 459.5,-98.5 344.5,-98.5"/>
<text text-anchor="start" x="352.5" y="-116.5" font-family="Helvetica,sans-Serif" font-size="10.00">mom_remapping::build</text>
<text text-anchor="middle" x="402" y="-105.5" font-family="Helvetica,sans-Serif" font-size="10.00">_reconstructions_1d</text>
</a>
</g>
</g>
<!-- Node2&#45;&gt;Node3 -->
<g id="edge2" class="edge"><title>Node2&#45;&gt;Node3</title>
<path fill="none" stroke="midnightblue" d="M271.417,-192.417C275.717,-190.515 279.962,-188.533 284,-186.5 318.643,-169.057 356.293,-144.458 379.273,-128.744"/>
<polygon fill="midnightblue" stroke="midnightblue" points="269.801,-189.301 261.973,-196.44 272.544,-195.741 269.801,-189.301"/>
</g>
<!-- Node4 -->
<g id="node4" class="node"><title>Node4</title>
<g id="a_node4"><a xlink:href="../../d6/d75/namespacemom__remapping.html#a6d1533ffa647f3305aba055e2685b095" target="_top" xlink:title="Remaps column of values u0 on grid h0 to grid h1 assuming the top edge is aligned. ">
<polygon fill="white" stroke="black" points="520,-175.5 520,-205.5 660,-205.5 660,-175.5 520,-175.5"/>
<text text-anchor="start" x="528" y="-193.5" font-family="Helvetica,sans-Serif" font-size="10.00">mom_remapping::remapping</text>
<text text-anchor="middle" x="590" y="-182.5" font-family="Helvetica,sans-Serif" font-size="10.00">_core_h</text>
</a>
</g>
</g>
<!-- Node3&#45;&gt;Node4 -->
<g id="edge3" class="edge"><title>Node3&#45;&gt;Node4</title>
<path fill="none" stroke="midnightblue" d="M448.865,-132.487C480.795,-145.706 522.802,-163.095 552.47,-175.377"/>
<polygon fill="midnightblue" stroke="midnightblue" points="449.883,-129.12 439.304,-128.529 447.205,-135.588 449.883,-129.12"/>
</g>
<!-- Node18 -->
<g id="node18" class="node"><title>Node18</title>
<g id="a_node18"><a xlink:href="../../d6/d75/namespacemom__remapping.html#a8b967872b8db2ac7d538991f7f255e56" target="_top" xlink:title="Remaps column of values u0 on grid h0 to implied grid h1 where the interfaces of h1 differ from those...">
<polygon fill="white" stroke="black" points="520,-74.5 520,-104.5 660,-104.5 660,-74.5 520,-74.5"/>
<text text-anchor="start" x="528" y="-92.5" font-family="Helvetica,sans-Serif" font-size="10.00">mom_remapping::remapping</text>
<text text-anchor="middle" x="590" y="-81.5" font-family="Helvetica,sans-Serif" font-size="10.00">_core_w</text>
</a>
</g>
</g>
<!-- Node3&#45;&gt;Node18 -->
<g id="edge17" class="edge"><title>Node3&#45;&gt;Node18</title>
<path fill="none" stroke="midnightblue" d="M469.567,-104.911C485.912,-102.802 503.446,-100.539 519.907,-98.4153"/>
<polygon fill="midnightblue" stroke="midnightblue" points="469.034,-101.45 459.564,-106.201 469.929,-108.393 469.034,-101.45"/>
</g>
<!-- Node5 -->
<g id="node5" class="node"><title>Node5</title>
<g id="a_node5"><a xlink:href="../../de/dd7/namespacemom__ale__sponge.html#a8f6e6db99f860b048a58e97e58c101a6" target="_top" xlink:title="This subroutine applies damping to the layers thicknesses, temp, salt and a variety of tracers for ev...">
<polygon fill="white" stroke="black" points="705,-297.5 705,-327.5 827,-327.5 827,-297.5 705,-297.5"/>
<text text-anchor="start" x="713" y="-315.5" font-family="Helvetica,sans-Serif" font-size="10.00">mom_ale_sponge::apply</text>
<text text-anchor="middle" x="766" y="-304.5" font-family="Helvetica,sans-Serif" font-size="10.00">_ale_sponge</text>
</a>
</g>
</g>
<!-- Node4&#45;&gt;Node5 -->
<g id="edge4" class="edge"><title>Node4&#45;&gt;Node5</title>
<path fill="none" stroke="midnightblue" d="M621.072,-211.585C656.026,-236.093 712.835,-275.925 743.588,-297.487"/>
<polygon fill="midnightblue" stroke="midnightblue" points="622.883,-208.58 612.685,-205.705 618.864,-214.311 622.883,-208.58"/>
</g>
<!-- Node7 -->
<g id="node7" class="node"><title>Node7</title>
<g id="a_node7"><a xlink:href="../../d6/d62/namespacemom__state__initialization.html#a71ee3c056ca59c1c3529a4ec22e09fe3" target="_top" xlink:title="Adjust the layer thicknesses by cutting away the top at the depth where the hydrostatic pressure matc...">
<polygon fill="white" stroke="black" points="705,-224.5 705,-254.5 827,-254.5 827,-224.5 705,-224.5"/>
<text text-anchor="start" x="713" y="-242.5" font-family="Helvetica,sans-Serif" font-size="10.00">mom_state_initialization</text>
<text text-anchor="middle" x="766" y="-231.5" font-family="Helvetica,sans-Serif" font-size="10.00">::cut_off_column_top</text>
</a>
</g>
</g>
<!-- Node4&#45;&gt;Node7 -->
<g id="edge6" class="edge"><title>Node4&#45;&gt;Node7</title>
<path fill="none" stroke="midnightblue" d="M654.284,-208.321C673.07,-213.612 693.455,-219.352 711.552,-224.448"/>
<polygon fill="midnightblue" stroke="midnightblue" points="655.2,-204.943 644.626,-205.601 653.302,-211.681 655.2,-204.943"/>
</g>
<!-- Node11 -->
<g id="node11" class="node"><title>Node11</title>
<g id="a_node11"><a xlink:href="../../d9/d06/namespacemom__diag__mediator.html#ab5e628e0b8acd96234fab33d0fae2161" target="_top" xlink:title="Remap diagnostic field to z&#45;star vertical grid. ">
<polygon fill="white" stroke="black" points="711,-175.5 711,-205.5 821,-205.5 821,-175.5 711,-175.5"/>
<text text-anchor="start" x="719" y="-193.5" font-family="Helvetica,sans-Serif" font-size="10.00">mom_diag_mediator::</text>
<text text-anchor="middle" x="766" y="-182.5" font-family="Helvetica,sans-Serif" font-size="10.00">remap_diag_to_z</text>
</a>
</g>
</g>
<!-- Node4&#45;&gt;Node11 -->
<g id="edge10" class="edge"><title>Node4&#45;&gt;Node11</title>
<path fill="none" stroke="midnightblue" d="M670.405,-190.5C684.081,-190.5 698.009,-190.5 710.824,-190.5"/>
<polygon fill="midnightblue" stroke="midnightblue" points="670.019,-187 660.019,-190.5 670.019,-194 670.019,-187"/>
</g>
<!-- Node13 -->
<g id="node13" class="node"><title>Node13</title>
<g id="a_node13"><a xlink:href="../../dd/d33/namespacemom__wave__speed.html#a72302e356c47c5055ba0b1a8714c772a" target="_top" xlink:title="Calculates the wave speed of the first baroclinic mode. ">
<polygon fill="white" stroke="black" points="702,-120.5 702,-150.5 830,-150.5 830,-120.5 702,-120.5"/>
<text text-anchor="start" x="710" y="-138.5" font-family="Helvetica,sans-Serif" font-size="10.00">mom_wave_speed::wave</text>
<text text-anchor="middle" x="766" y="-127.5" font-family="Helvetica,sans-Serif" font-size="10.00">_speed</text>
</a>
</g>
</g>
<!-- Node4&#45;&gt;Node13 -->
<g id="edge12" class="edge"><title>Node4&#45;&gt;Node13</title>
<path fill="none" stroke="midnightblue" d="M648.283,-172.393C670.71,-165.304 696.132,-157.269 717.511,-150.511"/>
<polygon fill="midnightblue" stroke="midnightblue" points="647.026,-169.12 638.546,-175.471 649.136,-175.794 647.026,-169.12"/>
</g>
<!-- Node6 -->
<g id="node6" class="node"><title>Node6</title>
<g id="a_node6"><a xlink:href="../../d8/df3/namespacemom__diabatic__driver.html#a61e57d3902367aa46aa3c2d949ee900f" target="_top" xlink:title="This subroutine imposes the diapycnal mass fluxes and the accompanying diapycnal advection of momentu...">
<polygon fill="white" stroke="black" points="887.5,-322.5 887.5,-352.5 994.5,-352.5 994.5,-322.5 887.5,-322.5"/>
<text text-anchor="start" x="895.5" y="-340.5" font-family="Helvetica,sans-Serif" font-size="10.00">mom_diabatic_driver</text>
<text text-anchor="middle" x="941" y="-329.5" font-family="Helvetica,sans-Serif" font-size="10.00">::diabatic</text>
</a>
</g>
</g>
<!-- Node5&#45;&gt;Node6 -->
<g id="edge5" class="edge"><title>Node5&#45;&gt;Node6</title>
<path fill="none" stroke="midnightblue" d="M837.291,-322.658C853.995,-325.071 871.535,-327.606 887.299,-329.884"/>
<polygon fill="midnightblue" stroke="midnightblue" points="837.419,-319.14 827.021,-321.174 836.418,-326.068 837.419,-319.14"/>
</g>
<!-- Node8 -->
<g id="node8" class="node"><title>Node8</title>
<g id="a_node8"><a xlink:href="../../d6/d62/namespacemom__state__initialization.html#a5c77bf2b0ea9d28e28b661a2a42d3f88" target="_top" xlink:title="Run simple unit tests. ">
<polygon fill="white" stroke="black" points="880,-273.5 880,-303.5 1002,-303.5 1002,-273.5 880,-273.5"/>
<text text-anchor="start" x="888" y="-291.5" font-family="Helvetica,sans-Serif" font-size="10.00">mom_state_initialization</text>
<text text-anchor="middle" x="941" y="-280.5" font-family="Helvetica,sans-Serif" font-size="10.00">::mom_state_init_tests</text>
</a>
</g>
</g>
<!-- Node7&#45;&gt;Node8 -->
<g id="edge7" class="edge"><title>Node7&#45;&gt;Node8</title>
<path fill="none" stroke="midnightblue" d="M830.177,-257.394C848.785,-262.664 868.948,-268.376 886.859,-273.448"/>
<polygon fill="midnightblue" stroke="midnightblue" points="830.893,-253.959 820.317,-254.601 828.985,-260.694 830.893,-253.959"/>
</g>
<!-- Node9 -->
<g id="node9" class="node"><title>Node9</title>
<g id="a_node9"><a xlink:href="../../d6/d62/namespacemom__state__initialization.html#acc1029776c1bdda2862ed0f95c8dc640" target="_top" xlink:title="Adjust the layer thicknesses by cutting away the top of each model column at the depth where the hydr...">
<polygon fill="white" stroke="black" points="880,-224.5 880,-254.5 1002,-254.5 1002,-224.5 880,-224.5"/>
<text text-anchor="start" x="888" y="-242.5" font-family="Helvetica,sans-Serif" font-size="10.00">mom_state_initialization</text>
<text text-anchor="middle" x="941" y="-231.5" font-family="Helvetica,sans-Serif" font-size="10.00">::trim_for_ice</text>
</a>
</g>
</g>
<!-- Node7&#45;&gt;Node9 -->
<g id="edge8" class="edge"><title>Node7&#45;&gt;Node9</title>
<path fill="none" stroke="midnightblue" d="M837.18,-239.5C851.309,-239.5 866.04,-239.5 879.792,-239.5"/>
<polygon fill="midnightblue" stroke="midnightblue" points="837.022,-236 827.021,-239.5 837.021,-243 837.022,-236"/>
</g>
<!-- Node10 -->
<g id="node10" class="node"><title>Node10</title>
<g id="a_node10"><a xlink:href="../../d6/d62/namespacemom__state__initialization.html#af4e854627c6572332ba3fd895f169321" target="_top" xlink:title="mom_state_initialization\l::mom_initialize_state">
<polygon fill="white" stroke="black" points="1046,-224.5 1046,-254.5 1168,-254.5 1168,-224.5 1046,-224.5"/>
<text text-anchor="start" x="1054" y="-242.5" font-family="Helvetica,sans-Serif" font-size="10.00">mom_state_initialization</text>
<text text-anchor="middle" x="1107" y="-231.5" font-family="Helvetica,sans-Serif" font-size="10.00">::mom_initialize_state</text>
</a>
</g>
</g>
<!-- Node9&#45;&gt;Node10 -->
<g id="edge9" class="edge"><title>Node9&#45;&gt;Node10</title>
<path fill="none" stroke="midnightblue" d="M1012.3,-239.5C1023.48,-239.5 1034.95,-239.5 1045.87,-239.5"/>
<polygon fill="midnightblue" stroke="midnightblue" points="1012.14,-236 1002.14,-239.5 1012.14,-243 1012.14,-236"/>
</g>
<!-- Node12 -->
<g id="node12" class="node"><title>Node12</title>
<g id="a_node12"><a xlink:href="../../d9/d06/namespacemom__diag__mediator.html#adb1030a0216c52dd0d25bd67a5b31868" target="_top" xlink:title="mom_diag_mediator::\lpost_data_3d">
<polygon fill="white" stroke="black" points="886,-175.5 886,-205.5 996,-205.5 996,-175.5 886,-175.5"/>
<text text-anchor="start" x="894" y="-193.5" font-family="Helvetica,sans-Serif" font-size="10.00">mom_diag_mediator::</text>
<text text-anchor="middle" x="941" y="-182.5" font-family="Helvetica,sans-Serif" font-size="10.00">post_data_3d</text>
</a>
</g>
</g>
<!-- Node11&#45;&gt;Node12 -->
<g id="edge11" class="edge"><title>Node11&#45;&gt;Node12</title>
<path fill="none" stroke="midnightblue" d="M831.362,-190.5C849.316,-190.5 868.634,-190.5 885.929,-190.5"/>
<polygon fill="midnightblue" stroke="midnightblue" points="831.264,-187 821.264,-190.5 831.264,-194 831.264,-187"/>
</g>
<!-- Node14 -->
<g id="node14" class="node"><title>Node14</title>
<g id="a_node14"><a xlink:href="../../d0/d86/namespacemom__lateral__mixing__coeffs.html#af206bc656869b4fc27d4d7e8a15d438e" target="_top" xlink:title="Calculates and stores the non&#45;dimensional resolution functions. ">
<polygon fill="white" stroke="black" points="889,-115 889,-156 993,-156 993,-115 889,-115"/>
<text text-anchor="start" x="897" y="-144" font-family="Helvetica,sans-Serif" font-size="10.00">mom_lateral_mixing</text>
<text text-anchor="start" x="897" y="-133" font-family="Helvetica,sans-Serif" font-size="10.00">_coeffs::calc_resoln</text>
<text text-anchor="middle" x="941" y="-122" font-family="Helvetica,sans-Serif" font-size="10.00">_function</text>
</a>
</g>
</g>
<!-- Node13&#45;&gt;Node14 -->
<g id="edge13" class="edge"><title>Node13&#45;&gt;Node14</title>
<path fill="none" stroke="midnightblue" d="M840.455,-135.5C856.71,-135.5 873.594,-135.5 888.74,-135.5"/>
<polygon fill="midnightblue" stroke="midnightblue" points="840.437,-132 830.436,-135.5 840.436,-139 840.437,-132"/>
</g>
<!-- Node17 -->
<g id="node17" class="node"><title>Node17</title>
<g id="a_node17"><a xlink:href="../../d9/d8b/namespacemom__diagnostics.html#abb6644248c28ab2e952361bfec436063" target="_top" xlink:title="mom_diagnostics::calculate\l_diagnostic_fields">
<polygon fill="white" stroke="black" points="872,-65.5 872,-95.5 1010,-95.5 1010,-65.5 872,-65.5"/>
<text text-anchor="start" x="880" y="-83.5" font-family="Helvetica,sans-Serif" font-size="10.00">mom_diagnostics::calculate</text>
<text text-anchor="middle" x="941" y="-72.5" font-family="Helvetica,sans-Serif" font-size="10.00">_diagnostic_fields</text>
</a>
</g>
</g>
<!-- Node13&#45;&gt;Node17 -->
<g id="edge16" class="edge"><title>Node13&#45;&gt;Node17</title>
<path fill="none" stroke="midnightblue" d="M823.954,-117.393C846.252,-110.304 871.527,-102.269 892.784,-95.5108"/>
<polygon fill="midnightblue" stroke="midnightblue" points="822.743,-114.106 814.273,-120.471 824.863,-120.777 822.743,-114.106"/>
</g>
<!-- Node15 -->
<g id="node15" class="node"><title>Node15</title>
<g id="a_node15"><a xlink:href="../../da/d01/namespacemom.html#a4c8332b095c6d295084089aa6b3b678a" target="_top" xlink:title="This subroutine orchestrates the time stepping of MOM. The adiabatic dynamics are stepped by calls to...">
<polygon fill="white" stroke="black" points="1062,-96 1062,-115 1152,-115 1152,-96 1062,-96"/>
<text text-anchor="middle" x="1107" y="-103" font-family="Helvetica,sans-Serif" font-size="10.00">mom::step_mom</text>
</a>
</g>
</g>
<!-- Node14&#45;&gt;Node15 -->
<g id="edge14" class="edge"><title>Node14&#45;&gt;Node15</title>
<path fill="none" stroke="midnightblue" d="M1003.43,-124.263C1022.87,-120.707 1043.95,-116.85 1061.92,-113.563"/>
<polygon fill="midnightblue" stroke="midnightblue" points="1002.65,-120.848 993.441,-126.09 1003.91,-127.734 1002.65,-120.848"/>
</g>
<!-- Node16 -->
<g id="node16" class="node"><title>Node16</title>
<g id="a_node16"><a xlink:href="../../de/dbc/MOM__driver_8F90.html#a08fffeb2d8e8acbf9ed4609be6d258c6" target="_top" xlink:title="mom_main">
<polygon fill="white" stroke="black" points="1204,-69 1204,-88 1269,-88 1269,-69 1204,-69"/>
<text text-anchor="middle" x="1236.5" y="-76" font-family="Helvetica,sans-Serif" font-size="10.00">mom_main</text>
</a>
</g>
</g>
<!-- Node15&#45;&gt;Node16 -->
<g id="edge15" class="edge"><title>Node15&#45;&gt;Node16</title>
<path fill="none" stroke="midnightblue" d="M1162.37,-93.9855C1176.51,-90.9927 1191.27,-87.8669 1203.8,-85.2137"/>
<polygon fill="midnightblue" stroke="midnightblue" points="1161.29,-90.6366 1152.24,-96.1325 1162.74,-97.4848 1161.29,-90.6366"/>
</g>
<!-- Node19 -->
<g id="node19" class="node"><title>Node19</title>
<g id="a_node19"><a xlink:href="../../d6/d75/namespacemom__remapping.html#a8a79c37c89f8b800f79198aceca5f090" target="_top" xlink:title="Runs unit tests on remapping functions. Should only be called from a single/root thread Returns True ...">
<polygon fill="white" stroke="black" points="696,-46.5 696,-76.5 836,-76.5 836,-46.5 696,-46.5"/>
<text text-anchor="start" x="704" y="-64.5" font-family="Helvetica,sans-Serif" font-size="10.00">mom_remapping::remapping</text>
<text text-anchor="middle" x="766" y="-53.5" font-family="Helvetica,sans-Serif" font-size="10.00">_unit_tests</text>
</a>
</g>
</g>
<!-- Node18&#45;&gt;Node19 -->
<g id="edge18" class="edge"><title>Node18&#45;&gt;Node19</title>
<path fill="none" stroke="midnightblue" d="M670.035,-76.7817C678.625,-75.3994 687.319,-74.0003 695.779,-72.6389"/>
<polygon fill="midnightblue" stroke="midnightblue" points="669.336,-73.3491 660.019,-78.3934 670.448,-80.2601 669.336,-73.3491"/>
</g>
<!-- Node20 -->
<g id="node20" class="node"><title>Node20</title>
<g id="a_node20"><a xlink:href="../../da/d01/namespacemom.html#ae77cfd2e790f1266b31d93c58659d46c" target="_top" xlink:title="Calls unit tests for other modules. These are NOT normally invoked and so we provide the module use s...">
<polygon fill="white" stroke="black" points="897.5,-27 897.5,-46 984.5,-46 984.5,-27 897.5,-27"/>
<text text-anchor="middle" x="941" y="-34" font-family="Helvetica,sans-Serif" font-size="10.00">mom::unit_tests</text>
</a>
</g>
</g>
<!-- Node19&#45;&gt;Node20 -->
<g id="edge19" class="edge"><title>Node19&#45;&gt;Node20</title>
<path fill="none" stroke="midnightblue" d="M846.589,-49.9988C864.057,-47.4744 881.904,-44.8954 897.255,-42.677"/>
<polygon fill="midnightblue" stroke="midnightblue" points="845.765,-46.5813 836.369,-51.4756 846.767,-53.5093 845.765,-46.5813"/>
</g>
<!-- Node21 -->
<g id="node21" class="node"><title>Node21</title>
<g id="a_node21"><a xlink:href="../../da/d01/namespacemom.html#a0be2869fef30e1e0604facfe1b41555d" target="_top" xlink:title="This subroutine initializes MOM. ">
<polygon fill="white" stroke="black" points="1053.5,-43 1053.5,-62 1160.5,-62 1160.5,-43 1053.5,-43"/>
<text text-anchor="middle" x="1107" y="-50" font-family="Helvetica,sans-Serif" font-size="10.00">mom::initialize_mom</text>
</a>
</g>
</g>
<!-- Node20&#45;&gt;Node21 -->
<g id="edge20" class="edge"><title>Node20&#45;&gt;Node21</title>
<path fill="none" stroke="midnightblue" d="M994.793,-41.6505C1013.52,-43.4772 1034.58,-45.5318 1053.29,-47.3578"/>
<polygon fill="midnightblue" stroke="midnightblue" points="994.954,-38.1497 984.661,-40.662 994.274,-45.1166 994.954,-38.1497"/>
</g>
<!-- Node21&#45;&gt;Node16 -->
<g id="edge21" class="edge"><title>Node21&#45;&gt;Node16</title>
<path fill="none" stroke="midnightblue" d="M1164.87,-64.0976C1178.26,-66.8282 1192.06,-69.6424 1203.87,-72.0506"/>
<polygon fill="midnightblue" stroke="midnightblue" points="1165.25,-60.6026 1154.75,-62.0338 1163.85,-67.4614 1165.25,-60.6026"/>
</g>
<!-- Node22&#45;&gt;Node3 -->
<g id="edge23" class="edge"><title>Node22&#45;&gt;Node3</title>
<path fill="none" stroke="midnightblue" d="M285.88,-144.752C305.442,-139.441 326.696,-133.671 345.555,-128.552"/>
<polygon fill="midnightblue" stroke="midnightblue" points="284.863,-141.401 276.129,-147.399 286.696,-148.156 284.863,-141.401"/>
</g>
<!-- Node24&#45;&gt;Node3 -->
<g id="edge27" class="edge"><title>Node24&#45;&gt;Node3</title>
<path fill="none" stroke="midnightblue" d="M273.562,-34.621C277.129,-36.1921 280.638,-37.8233 284,-39.5 319.057,-56.9853 356.904,-82.2046 379.776,-98.2203"/>
<polygon fill="midnightblue" stroke="midnightblue" points="274.617,-31.2679 264.043,-30.6128 271.901,-37.7193 274.617,-31.2679"/>
</g>
<!-- Node25 -->
<g id="node25" class="node"><title>Node25</title>
<g id="a_node25"><a xlink:href="../../d7/d73/namespacemom__ale.html#aea1b73dedf1ae5f3db9fa0a6aa6ebaa0" target="_top" xlink:title="Use ppm reconstruction for pressure gradient (determine edge values) By using a PPM (limited piecewis...">
<polygon fill="white" stroke="black" points="320,-6 320,-25 484,-25 484,-6 320,-6"/>
<text text-anchor="middle" x="402" y="-13" font-family="Helvetica,sans-Serif" font-size="10.00">mom_ale::pressure_gradient_ppm</text>
</a>
</g>
</g>
<!-- Node24&#45;&gt;Node25 -->
<g id="edge26" class="edge"><title>Node24&#45;&gt;Node25</title>
<path fill="none" stroke="midnightblue" d="M294.312,-15.5C302.75,-15.5 311.387,-15.5 319.914,-15.5"/>
<polygon fill="midnightblue" stroke="midnightblue" points="294.138,-12.0001 284.138,-15.5 294.138,-19.0001 294.138,-12.0001"/>
</g>
<!-- Node26&#45;&gt;Node3 -->
<g id="edge29" class="edge"><title>Node26&#45;&gt;Node3</title>
<path fill="none" stroke="midnightblue" d="M285.88,-82.2485C305.442,-87.5591 326.696,-93.3288 345.555,-98.4484"/>
<polygon fill="midnightblue" stroke="midnightblue" points="286.696,-78.8436 276.129,-79.6014 284.863,-85.5991 286.696,-78.8436"/>
</g>
</g>
</svg>
        <g id="navigator" transform="translate(0 0)" fill="#404254">
                <rect fill="#f2f5e9" fill-opacity="0.5" stroke="#606060" stroke-width=".5" x="0" y="0" width="60" height="60"/>
                <use id="zoomplus" xlink:href="#zoomPlus" x="17" y="9" onmousedown="handleZoom(evt,'in')"/>
                <use id="zoomminus" xlink:href="#zoomMin" x="42" y="9" onmousedown="handleZoom(evt,'out')"/>
                <use id="reset" xlink:href="#resetDef" x="30" y="36" onmousedown="handleReset()"/>
                <g id="arrowUp" xlink:href="#dirArrow" transform="translate(30 24)" onmousedown="handlePan(0,-1)">
                  <use xlink:href="#rim" fill="#404040">
                        <set attributeName="fill" to="#808080" begin="arrowUp.mouseover" end="arrowUp.mouseout"/>
                  </use>
                  <path fill="none" stroke="white" stroke-width="1.5" d="M0,-3.0v7 M-2.5,-0.5L0,-3.0L2.5,-0.5"/>
                </g>
                <g id="arrowRight" xlink:href="#dirArrow" transform="rotate(90) translate(36 -43)" onmousedown="handlePan(1,0)">
                  <use xlink:href="#rim" fill="#404040">
                        <set attributeName="fill" to="#808080" begin="arrowRight.mouseover" end="arrowRight.mouseout"/>
                  </use>
                  <path fill="none" stroke="white" stroke-width="1.5" d="M0,-3.0v7 M-2.5,-0.5L0,-3.0L2.5,-0.5"/>
                </g>
                <g id="arrowDown" xlink:href="#dirArrow" transform="rotate(180) translate(-30 -48)" onmousedown="handlePan(0,1)">
                  <use xlink:href="#rim" fill="#404040">
                        <set attributeName="fill" to="#808080" begin="arrowDown.mouseover" end="arrowDown.mouseout"/>
                  </use>
                  <path fill="none" stroke="white" stroke-width="1.5" d="M0,-3.0v7 M-2.5,-0.5L0,-3.0L2.5,-0.5"/>
                </g>
                <g id="arrowLeft" xlink:href="#dirArrow" transform="rotate(270) translate(-36 17)" onmousedown="handlePan(-1,0)">
                  <use xlink:href="#rim" fill="#404040">
                        <set attributeName="fill" to="#808080" begin="arrowLeft.mouseover" end="arrowLeft.mouseout"/>
                  </use>
                  <path fill="none" stroke="white" stroke-width="1.5" d="M0,-3.0v7 M-2.5,-0.5L0,-3.0L2.5,-0.5"/>
                </g>
        </g>
        <svg viewBox="0 0 15 15" width="100%" height="30px" preserveAspectRatio="xMaxYMin meet">
         <g id="arrow_out" transform="scale(0.3 0.3)">
          <a xlink:href="namespacepolynomial__functions_aed77465c5ca9937dab06fdb5f94eba39_icgraph_org.svg" target="_base">
           <rect id="button" ry="5" rx="5" y="6" x="6" height="38" width="38"
                fill="#f2f5e9" fill-opacity="0.5" stroke="#606060" stroke-width="1.0"/>
           <path id="arrow"
             d="M 11.500037,31.436501 C 11.940474,20.09759 22.043105,11.32322 32.158766,21.979434 L 37.068811,17.246167 C 37.068811,17.246167 37.088388,32 37.088388,32 L 22.160133,31.978069 C 22.160133,31.978069 26.997745,27.140456 26.997745,27.140456 C 18.528582,18.264221 13.291696,25.230495 11.500037,31.436501 z"
             style="fill:#404040;"/>
          </a>
         </g>
        </svg>
</svg>
