<?xml version="1.0" encoding="UTF-8" standalone="no"?>
<!DOCTYPE svg PUBLIC "-//W3C//DTD SVG 1.1//EN"
 "http://www.w3.org/Graphics/SVG/1.1/DTD/svg11.dtd">
<!-- Generated by graphviz version 2.38.0 (20140413.2041)
 -->
<!-- Title: mom_offline_transport::transport_by_files Pages: 1 -->
<svg width="412pt" height="88pt"
 viewBox="0.00 0.00 412.00 88.00" xmlns="http://www.w3.org/2000/svg" xmlns:xlink="http://www.w3.org/1999/xlink">
<g id="graph0" class="graph" transform="scale(1 1) rotate(0) translate(4 84)">
<title>mom_offline_transport::transport_by_files</title>
<polygon fill="white" stroke="none" points="-4,4 -4,-84 408,-84 408,4 -4,4"/>
<!-- Node19 -->
<g id="node1" class="node"><title>Node19</title>
<polygon fill="#bfbfbf" stroke="black" points="0,-24.5 0,-54.5 113,-54.5 113,-24.5 0,-24.5"/>
<text text-anchor="start" x="8" y="-42.5" font-family="Helvetica,sans-Serif" font-size="10.00">mom_offline_transport</text>
<text text-anchor="middle" x="56.5" y="-31.5" font-family="Helvetica,sans-Serif" font-size="10.00">::transport_by_files</text>
</g>
<!-- Node20 -->
<g id="node2" class="node"><title>Node20</title>
<g id="a_node2"><a xlink:href="../../d0/de6/namespacemom__error__handler.html#a9cda07a87815f0e5594066162b4345c3" target="_top" xlink:title="Writes a message about entering a subroutine if call tree reporting is active. ">
<polygon fill="white" stroke="black" points="152.5,-49.5 152.5,-79.5 258.5,-79.5 258.5,-49.5 152.5,-49.5"/>
<text text-anchor="start" x="160.5" y="-67.5" font-family="Helvetica,sans-Serif" font-size="10.00">mom_error_handler::</text>
<text text-anchor="middle" x="205.5" y="-56.5" font-family="Helvetica,sans-Serif" font-size="10.00">calltree_enter</text>
</a>
</g>
</g>
<!-- Node19&#45;&gt;Node20 -->
<g id="edge1" class="edge"><title>Node19&#45;&gt;Node20</title>
<path fill="none" stroke="midnightblue" d="M113.074,-48.9514C122.609,-50.5729 132.571,-52.2672 142.266,-53.916"/>
<polygon fill="midnightblue" stroke="midnightblue" points="141.798,-57.3866 152.243,-55.6128 142.972,-50.4856 141.798,-57.3866"/>
</g>
<!-- Node22 -->
<g id="node4" class="node"><title>Node22</title>
<g id="a_node4"><a xlink:href="../../d1/d36/namespacemom__offline__transport.html#a277e868a412054fa0cf723b15e32b8a2" target="_top" xlink:title="Calculates the next timelevel to read from the input fields. This allows the &#39;looping&#39; of the fields...">
<polygon fill="white" stroke="black" points="149,-0.5 149,-30.5 262,-30.5 262,-0.5 149,-0.5"/>
<text text-anchor="start" x="157" y="-18.5" font-family="Helvetica,sans-Serif" font-size="10.00">mom_offline_transport</text>
<text text-anchor="middle" x="205.5" y="-7.5" font-family="Helvetica,sans-Serif" font-size="10.00">::next_modulo_time</text>
</a>
</g>
</g>
<!-- Node19&#45;&gt;Node22 -->
<g id="edge3" class="edge"><title>Node19&#45;&gt;Node22</title>
<path fill="none" stroke="midnightblue" d="M113.074,-30.4266C121.489,-29.0528 130.238,-27.6244 138.842,-26.2197"/>
<polygon fill="midnightblue" stroke="midnightblue" points="139.542,-29.6519 148.847,-24.5862 138.414,-22.7433 139.542,-29.6519"/>
</g>
<!-- Node21 -->
<g id="node3" class="node"><title>Node21</title>
<g id="a_node3"><a xlink:href="../../d0/de6/namespacemom__error__handler.html#ad5f00a53059c72fe2332d1436c80ca71" target="_top" xlink:title="mom_error_handler::\lis_root_pe">
<polygon fill="white" stroke="black" points="298,-49.5 298,-79.5 404,-79.5 404,-49.5 298,-49.5"/>
<text text-anchor="start" x="306" y="-67.5" font-family="Helvetica,sans-Serif" font-size="10.00">mom_error_handler::</text>
<text text-anchor="middle" x="351" y="-56.5" font-family="Helvetica,sans-Serif" font-size="10.00">is_root_pe</text>
</a>
</g>
</g>
<!-- Node20&#45;&gt;Node21 -->
<g id="edge2" class="edge"><title>Node20&#45;&gt;Node21</title>
<path fill="none" stroke="midnightblue" d="M258.713,-64.5C268.011,-64.5 277.783,-64.5 287.337,-64.5"/>
<polygon fill="midnightblue" stroke="midnightblue" points="287.586,-68.0001 297.586,-64.5 287.586,-61.0001 287.586,-68.0001"/>
</g>
</g>
</svg>
