<?xml version="1.0" encoding="UTF-8" standalone="no"?>
<!DOCTYPE svg PUBLIC "-//W3C//DTD SVG 1.1//EN"
 "http://www.w3.org/Graphics/SVG/1.1/DTD/svg11.dtd">
<!-- Generated by graphviz version 2.38.0 (20140413.2041)
 -->
<!-- Title: localtest Pages: 1 -->
<svg width="604pt" height="39pt"
 viewBox="0.00 0.00 604.00 39.00" xmlns="http://www.w3.org/2000/svg" xmlns:xlink="http://www.w3.org/1999/xlink">
<g id="graph0" class="graph" transform="scale(1 1) rotate(0) translate(4 35)">
<title>localtest</title>
<polygon fill="white" stroke="none" points="-4,4 -4,-35 600,-35 600,4 -4,4"/>
<!-- Node9 -->
<g id="node1" class="node"><title>Node9</title>
<polygon fill="#bfbfbf" stroke="black" points="0,-6 0,-25 53,-25 53,-6 0,-6"/>
<text text-anchor="middle" x="26.5" y="-13" font-family="Helvetica,sans-Serif" font-size="10.00">localtest</text>
</g>
<!-- Node10 -->
<g id="node2" class="node"><title>Node10</title>
<g id="a_node2"><a xlink:href="../../df/d46/namespacemom__string__functions.html#a82a6737657a9ae78a53b30ab2a761d23" target="_top" xlink:title="mom_string_functions\l::string_functions_unit_tests">
<polygon fill="white" stroke="black" points="89,-0.5 89,-30.5 229,-30.5 229,-0.5 89,-0.5"/>
<text text-anchor="start" x="97" y="-18.5" font-family="Helvetica,sans-Serif" font-size="10.00">mom_string_functions</text>
<text text-anchor="middle" x="159" y="-7.5" font-family="Helvetica,sans-Serif" font-size="10.00">::string_functions_unit_tests</text>
</a>
</g>
</g>
<!-- Node9&#45;&gt;Node10 -->
<g id="edge1" class="edge"><title>Node9&#45;&gt;Node10</title>
<path fill="none" stroke="midnightblue" d="M63.3297,-9.40109C71.3424,-9.0212 80.1038,-8.80755 88.9585,-8.76014"/>
<polygon fill="midnightblue" stroke="midnightblue" points="63.0581,-5.91095 53.2826,-9.99626 63.4721,-12.8987 63.0581,-5.91095"/>
</g>
<!-- Node10&#45;&gt;Node9 -->
<g id="edge5" class="edge"><title>Node10&#45;&gt;Node9</title>
<path fill="none" stroke="midnightblue" d="M78.8878,-22.1127C69.712,-21.9285 60.9196,-21.5589 53.2826,-21.0037"/>
<polygon fill="midnightblue" stroke="midnightblue" points="78.9151,-25.6133 88.9585,-22.2399 79.0035,-18.6138 78.9151,-25.6133"/>
</g>
<!-- Node11 -->
<g id="node3" class="node"><title>Node11</title>
<g id="a_node3"><a xlink:href="../../da/d01/namespacemom.html#ae77cfd2e790f1266b31d93c58659d46c" target="_top" xlink:title="Calls unit tests for other modules. These are NOT normally invoked and so we provide the module use s...">
<polygon fill="white" stroke="black" points="265,-6 265,-25 352,-25 352,-6 265,-6"/>
<text text-anchor="middle" x="308.5" y="-13" font-family="Helvetica,sans-Serif" font-size="10.00">mom::unit_tests</text>
</a>
</g>
</g>
<!-- Node10&#45;&gt;Node11 -->
<g id="edge2" class="edge"><title>Node10&#45;&gt;Node11</title>
<path fill="none" stroke="midnightblue" d="M239.652,-15.5C248.341,-15.5 256.92,-15.5 264.902,-15.5"/>
<polygon fill="midnightblue" stroke="midnightblue" points="239.431,-12.0001 229.431,-15.5 239.431,-19.0001 239.431,-12.0001"/>
</g>
<!-- Node12 -->
<g id="node4" class="node"><title>Node12</title>
<g id="a_node4"><a xlink:href="../../da/d01/namespacemom.html#a0be2869fef30e1e0604facfe1b41555d" target="_top" xlink:title="This subroutine initializes MOM. ">
<polygon fill="white" stroke="black" points="388,-6 388,-25 495,-25 495,-6 388,-6"/>
<text text-anchor="middle" x="441.5" y="-13" font-family="Helvetica,sans-Serif" font-size="10.00">mom::initialize_mom</text>
</a>
</g>
</g>
<!-- Node11&#45;&gt;Node12 -->
<g id="edge3" class="edge"><title>Node11&#45;&gt;Node12</title>
<path fill="none" stroke="midnightblue" d="M362.105,-15.5C370.515,-15.5 379.22,-15.5 387.636,-15.5"/>
<polygon fill="midnightblue" stroke="midnightblue" points="362.032,-12.0001 352.032,-15.5 362.032,-19.0001 362.032,-12.0001"/>
</g>
<!-- Node13 -->
<g id="node5" class="node"><title>Node13</title>
<g id="a_node5"><a xlink:href="../../de/dbc/MOM__driver_8F90.html#a08fffeb2d8e8acbf9ed4609be6d258c6" target="_top" xlink:title="mom_main">
<polygon fill="white" stroke="black" points="531,-6 531,-25 596,-25 596,-6 531,-6"/>
<text text-anchor="middle" x="563.5" y="-13" font-family="Helvetica,sans-Serif" font-size="10.00">mom_main</text>
</a>
</g>
</g>
<!-- Node12&#45;&gt;Node13 -->
<g id="edge4" class="edge"><title>Node12&#45;&gt;Node13</title>
<path fill="none" stroke="midnightblue" d="M505.206,-15.5C514.134,-15.5 522.983,-15.5 530.958,-15.5"/>
<polygon fill="midnightblue" stroke="midnightblue" points="505.134,-12.0001 495.134,-15.5 505.134,-19.0001 505.134,-12.0001"/>
</g>
</g>
</svg>
