<?xml version="1.0" encoding="UTF-8" standalone="no"?>
<!DOCTYPE svg PUBLIC "-//W3C//DTD SVG 1.1//EN"
 "http://www.w3.org/Graphics/SVG/1.1/DTD/svg11.dtd">
<!-- Generated by graphviz version 2.38.0 (20140413.2041)
 -->
<!-- Title: localtest Pages: 1 -->
<svg width="693pt" height="217pt"
 viewBox="0.00 0.00 693.00 217.08" xmlns="http://www.w3.org/2000/svg" xmlns:xlink="http://www.w3.org/1999/xlink">
<g id="graph0" class="graph" transform="scale(1 1) rotate(0) translate(4 213.083)">
<title>localtest</title>
<polygon fill="white" stroke="none" points="-4,4 -4,-213.083 689,-213.083 689,4 -4,4"/>
<!-- Node0 -->
<g id="node1" class="node"><title>Node0</title>
<polygon fill="#bfbfbf" stroke="black" points="0,-92.9538 0,-111.954 53,-111.954 53,-92.9538 0,-92.9538"/>
<text text-anchor="middle" x="26.5" y="-99.9538" font-family="Helvetica,sans-Serif" font-size="10.00">localtest</text>
</g>
<!-- Node1 -->
<g id="node2" class="node"><title>Node1</title>
<g id="a_node2"><a xlink:href="../../df/d46/namespacemom__string__functions.html#a82a6737657a9ae78a53b30ab2a761d23" target="_top" xlink:title="mom_string_functions\l::string_functions_unit_tests">
<polygon fill="white" stroke="black" points="89,-87.4538 89,-117.454 229,-117.454 229,-87.4538 89,-87.4538"/>
<text text-anchor="start" x="97" y="-105.454" font-family="Helvetica,sans-Serif" font-size="10.00">mom_string_functions</text>
<text text-anchor="middle" x="159" y="-94.4538" font-family="Helvetica,sans-Serif" font-size="10.00">::string_functions_unit_tests</text>
</a>
</g>
</g>
<!-- Node0&#45;&gt;Node1 -->
<g id="edge1" class="edge"><title>Node0&#45;&gt;Node1</title>
<path fill="none" stroke="midnightblue" d="M53.2826,-96.95C60.9196,-96.3949 69.712,-96.0252 78.8878,-95.841"/>
<polygon fill="midnightblue" stroke="midnightblue" points="79.0035,-99.3399 88.9585,-95.7139 78.9151,-92.3405 79.0035,-99.3399"/>
</g>
<!-- Node1&#45;&gt;Node0 -->
<g id="edge2" class="edge"><title>Node1&#45;&gt;Node0</title>
<path fill="none" stroke="midnightblue" d="M88.9585,-109.194C80.1038,-109.146 71.3424,-108.933 63.3297,-108.553"/>
<polygon fill="midnightblue" stroke="midnightblue" points="63.4721,-105.055 53.2826,-107.958 63.0581,-112.043 63.4721,-105.055"/>
</g>
<!-- Node2 -->
<g id="node3" class="node"><title>Node2</title>
<g id="a_node3"><a xlink:href="../../df/d46/namespacemom__string__functions.html#ae6b4260129cce257d834cc9b32e847f3" target="_top" xlink:title="mom_string_functions\l::left_int">
<polygon fill="white" stroke="black" points="414,-158.454 414,-188.454 527,-188.454 527,-158.454 414,-158.454"/>
<text text-anchor="start" x="422" y="-176.454" font-family="Helvetica,sans-Serif" font-size="10.00">mom_string_functions</text>
<text text-anchor="middle" x="470.5" y="-165.454" font-family="Helvetica,sans-Serif" font-size="10.00">::left_int</text>
</a>
</g>
</g>
<!-- Node1&#45;&gt;Node2 -->
<g id="edge3" class="edge"><title>Node1&#45;&gt;Node2</title>
<path fill="none" stroke="midnightblue" d="M170.744,-117.802C187.703,-140.526 223.094,-182.184 265,-198.454 316.35,-218.39 379.925,-205.292 422.434,-191.691"/>
<polygon fill="midnightblue" stroke="midnightblue" points="423.585,-194.997 431.968,-188.519 421.375,-188.355 423.585,-194.997"/>
</g>
<!-- Node3 -->
<g id="node4" class="node"><title>Node3</title>
<g id="a_node4"><a xlink:href="../../df/d46/namespacemom__string__functions.html#a0db6538cb622d0f20a577b07cb545f2e" target="_top" xlink:title="mom_string_functions\l::left_ints">
<polygon fill="white" stroke="black" points="265,-158.454 265,-188.454 378,-188.454 378,-158.454 265,-158.454"/>
<text text-anchor="start" x="273" y="-176.454" font-family="Helvetica,sans-Serif" font-size="10.00">mom_string_functions</text>
<text text-anchor="middle" x="321.5" y="-165.454" font-family="Helvetica,sans-Serif" font-size="10.00">::left_ints</text>
</a>
</g>
</g>
<!-- Node1&#45;&gt;Node3 -->
<g id="edge4" class="edge"><title>Node1&#45;&gt;Node3</title>
<path fill="none" stroke="midnightblue" d="M193.526,-117.591C214.119,-126.856 241.052,-138.917 265,-149.454 268.626,-151.049 272.389,-152.696 276.169,-154.344"/>
<polygon fill="midnightblue" stroke="midnightblue" points="274.969,-157.638 285.535,-158.414 277.759,-151.218 274.969,-157.638"/>
</g>
<!-- Node4 -->
<g id="node5" class="node"><title>Node4</title>
<g id="a_node5"><a xlink:href="../../df/d46/namespacemom__string__functions.html#ab56b89fb51a387279afc68c85d30dca2" target="_top" xlink:title="mom_string_functions\l::left_real">
<polygon fill="white" stroke="black" points="414,-77.4538 414,-107.454 527,-107.454 527,-77.4538 414,-77.4538"/>
<text text-anchor="start" x="422" y="-95.4538" font-family="Helvetica,sans-Serif" font-size="10.00">mom_string_functions</text>
<text text-anchor="middle" x="470.5" y="-84.4538" font-family="Helvetica,sans-Serif" font-size="10.00">::left_real</text>
</a>
</g>
</g>
<!-- Node1&#45;&gt;Node4 -->
<g id="edge6" class="edge"><title>Node1&#45;&gt;Node4</title>
<path fill="none" stroke="midnightblue" d="M229.073,-100.222C281.075,-98.5418 351.926,-96.2526 403.234,-94.5948"/>
<polygon fill="midnightblue" stroke="midnightblue" points="403.665,-98.0828 413.547,-94.2616 403.439,-91.0865 403.665,-98.0828"/>
</g>
<!-- Node6 -->
<g id="node7" class="node"><title>Node6</title>
<g id="a_node7"><a xlink:href="../../df/d46/namespacemom__string__functions.html#a07fa1b92ce5c4c4336bb45c5a89fa548" target="_top" xlink:title="mom_string_functions\l::left_reals">
<polygon fill="white" stroke="black" points="265,-109.454 265,-139.454 378,-139.454 378,-109.454 265,-109.454"/>
<text text-anchor="start" x="273" y="-127.454" font-family="Helvetica,sans-Serif" font-size="10.00">mom_string_functions</text>
<text text-anchor="middle" x="321.5" y="-116.454" font-family="Helvetica,sans-Serif" font-size="10.00">::left_reals</text>
</a>
</g>
</g>
<!-- Node1&#45;&gt;Node6 -->
<g id="edge8" class="edge"><title>Node1&#45;&gt;Node6</title>
<path fill="none" stroke="midnightblue" d="M229.464,-111.975C237.897,-113.131 246.491,-114.309 254.865,-115.457"/>
<polygon fill="midnightblue" stroke="midnightblue" points="254.563,-118.948 264.945,-116.839 255.513,-112.013 254.563,-118.948"/>
</g>
<!-- Node7 -->
<g id="node8" class="node"><title>Node7</title>
<g id="a_node8"><a xlink:href="../../df/d46/namespacemom__string__functions.html#a7bfdab6bba33230cc94ed625e95022c9" target="_top" xlink:title="Returns the string corresponding to the nth word in the argument or &quot;&quot; if the string is not long enou...">
<polygon fill="white" stroke="black" points="265,-21.4538 265,-51.4538 378,-51.4538 378,-21.4538 265,-21.4538"/>
<text text-anchor="start" x="273" y="-39.4538" font-family="Helvetica,sans-Serif" font-size="10.00">mom_string_functions</text>
<text text-anchor="middle" x="321.5" y="-28.4538" font-family="Helvetica,sans-Serif" font-size="10.00">::extractword</text>
</a>
</g>
</g>
<!-- Node1&#45;&gt;Node7 -->
<g id="edge11" class="edge"><title>Node1&#45;&gt;Node7</title>
<path fill="none" stroke="midnightblue" d="M196.822,-87.312C219.862,-77.8375 249.737,-65.5525 274.353,-55.4301"/>
<polygon fill="midnightblue" stroke="midnightblue" points="275.932,-58.5653 283.849,-51.525 273.27,-52.0913 275.932,-58.5653"/>
</g>
<!-- Node8 -->
<g id="node9" class="node"><title>Node8</title>
<g id="a_node9"><a xlink:href="../../df/d46/namespacemom__string__functions.html#aad76dee92b69dab4488da049fe11cdb8" target="_top" xlink:title="Returns the string corresponding to the nth word in the argument or &quot;&quot; if the string is not long enou...">
<polygon fill="white" stroke="black" points="414,-9.45377 414,-39.4538 527,-39.4538 527,-9.45377 414,-9.45377"/>
<text text-anchor="start" x="422" y="-27.4538" font-family="Helvetica,sans-Serif" font-size="10.00">mom_string_functions</text>
<text text-anchor="middle" x="470.5" y="-16.4538" font-family="Helvetica,sans-Serif" font-size="10.00">::extract_word</text>
</a>
</g>
</g>
<!-- Node1&#45;&gt;Node8 -->
<g id="edge13" class="edge"><title>Node1&#45;&gt;Node8</title>
<path fill="none" stroke="midnightblue" d="M171.511,-87.1676C188.935,-65.4534 224.318,-26.6296 265,-11.4538 310.265,5.43164 365.054,0.744014 406.524,-7.38024"/>
<polygon fill="midnightblue" stroke="midnightblue" points="405.995,-10.8449 416.498,-9.44976 407.417,-3.99094 405.995,-10.8449"/>
</g>
<!-- Node3&#45;&gt;Node2 -->
<g id="edge5" class="edge"><title>Node3&#45;&gt;Node2</title>
<path fill="none" stroke="midnightblue" d="M378.074,-173.454C386.489,-173.454 395.238,-173.454 403.842,-173.454"/>
<polygon fill="midnightblue" stroke="midnightblue" points="403.847,-176.954 413.847,-173.454 403.847,-169.954 403.847,-176.954"/>
</g>
<!-- Node5 -->
<g id="node6" class="node"><title>Node5</title>
<g id="a_node6"><a xlink:href="../../df/d46/namespacemom__string__functions.html#aec369a6ac0badc1dbd782a1668d2c7c3" target="_top" xlink:title="mom_string_functions\l::isformattedfloatequalto">
<polygon fill="white" stroke="black" points="563,-77.4538 563,-107.454 685,-107.454 685,-77.4538 563,-77.4538"/>
<text text-anchor="start" x="571" y="-95.4538" font-family="Helvetica,sans-Serif" font-size="10.00">mom_string_functions</text>
<text text-anchor="middle" x="624" y="-84.4538" font-family="Helvetica,sans-Serif" font-size="10.00">::isformattedfloatequalto</text>
</a>
</g>
</g>
<!-- Node4&#45;&gt;Node5 -->
<g id="edge7" class="edge"><title>Node4&#45;&gt;Node5</title>
<path fill="none" stroke="midnightblue" d="M527.053,-92.4538C535.429,-92.4538 544.161,-92.4538 552.796,-92.4538"/>
<polygon fill="midnightblue" stroke="midnightblue" points="552.861,-95.9539 562.861,-92.4538 552.861,-88.9539 552.861,-95.9539"/>
</g>
<!-- Node6&#45;&gt;Node2 -->
<g id="edge9" class="edge"><title>Node6&#45;&gt;Node2</title>
<path fill="none" stroke="midnightblue" d="M367.804,-139.555C382.544,-144.468 399.067,-149.976 414.44,-155.1"/>
<polygon fill="midnightblue" stroke="midnightblue" points="413.752,-158.56 424.345,-158.402 415.965,-151.919 413.752,-158.56"/>
</g>
<!-- Node6&#45;&gt;Node4 -->
<g id="edge10" class="edge"><title>Node6&#45;&gt;Node4</title>
<path fill="none" stroke="midnightblue" d="M378.074,-112.356C386.489,-110.524 395.238,-108.62 403.842,-106.747"/>
<polygon fill="midnightblue" stroke="midnightblue" points="404.82,-110.116 413.847,-104.569 403.331,-103.276 404.82,-110.116"/>
</g>
<!-- Node7&#45;&gt;Node8 -->
<g id="edge12" class="edge"><title>Node7&#45;&gt;Node8</title>
<path fill="none" stroke="midnightblue" d="M378.074,-31.9171C386.489,-31.2301 395.238,-30.516 403.842,-29.8136"/>
<polygon fill="midnightblue" stroke="midnightblue" points="404.165,-33.299 413.847,-28.9969 403.595,-26.3222 404.165,-33.299"/>
</g>
</g>
</svg>
