<?xml version="1.0" encoding="UTF-8" standalone="no"?>
<!DOCTYPE svg PUBLIC "-//W3C//DTD SVG 1.1//EN"
 "http://www.w3.org/Graphics/SVG/1.1/DTD/svg11.dtd">
<!-- Generated by graphviz version 2.38.0 (20140413.2041)
 -->
<!-- Title: dumpgrid Pages: 1 -->
<svg width="540pt" height="39pt"
 viewBox="0.00 0.00 540.00 39.00" xmlns="http://www.w3.org/2000/svg" xmlns:xlink="http://www.w3.org/1999/xlink">
<g id="graph0" class="graph" transform="scale(1 1) rotate(0) translate(4 35)">
<title>dumpgrid</title>
<polygon fill="white" stroke="none" points="-4,4 -4,-35 536,-35 536,4 -4,4"/>
<!-- Node1 -->
<g id="node1" class="node"><title>Node1</title>
<polygon fill="#bfbfbf" stroke="black" points="0,-6 0,-25 50,-25 50,-6 0,-6"/>
<text text-anchor="middle" x="25" y="-13" font-family="Helvetica,sans-Serif" font-size="10.00">dumpgrid</text>
</g>
<!-- Node2 -->
<g id="node2" class="node"><title>Node2</title>
<g id="a_node2"><a xlink:href="../../d6/d75/namespacemom__remapping.html#a8a79c37c89f8b800f79198aceca5f090" target="_top" xlink:title="Runs unit tests on remapping functions. Should only be called from a single/root thread Returns True ...">
<polygon fill="white" stroke="black" points="86,-0.5 86,-30.5 206,-30.5 206,-0.5 86,-0.5"/>
<text text-anchor="start" x="94" y="-18.5" font-family="Helvetica,sans-Serif" font-size="10.00">mom_remapping::remapping</text>
<text text-anchor="middle" x="146" y="-7.5" font-family="Helvetica,sans-Serif" font-size="10.00">_unit_tests</text>
</a>
</g>
</g>
<!-- Node1&#45;&gt;Node2 -->
<g id="edge1" class="edge"><title>Node1&#45;&gt;Node2</title>
<path fill="none" stroke="midnightblue" d="M60.3461,-15.5C68.2539,-15.5 76.8881,-15.5 85.5218,-15.5"/>
<polygon fill="midnightblue" stroke="midnightblue" points="60.0815,-12.0001 50.0814,-15.5 60.0814,-19.0001 60.0815,-12.0001"/>
</g>
<!-- Node3 -->
<g id="node3" class="node"><title>Node3</title>
<g id="a_node3"><a xlink:href="../../da/d01/namespacemom.html#ae77cfd2e790f1266b31d93c58659d46c" target="_top" xlink:title="Calls unit tests for other modules. These are NOT normally invoked and so we provide the module use s...">
<polygon fill="white" stroke="black" points="242,-6 242,-25 315,-25 315,-6 242,-6"/>
<text text-anchor="middle" x="278.5" y="-13" font-family="Helvetica,sans-Serif" font-size="10.00">mom::unit_tests</text>
</a>
</g>
</g>
<!-- Node2&#45;&gt;Node3 -->
<g id="edge2" class="edge"><title>Node2&#45;&gt;Node3</title>
<path fill="none" stroke="midnightblue" d="M216.413,-15.5C225.156,-15.5 233.799,-15.5 241.711,-15.5"/>
<polygon fill="midnightblue" stroke="midnightblue" points="216.141,-12.0001 206.141,-15.5 216.141,-19.0001 216.141,-12.0001"/>
</g>
<!-- Node4 -->
<g id="node4" class="node"><title>Node4</title>
<g id="a_node4"><a xlink:href="../../da/d01/namespacemom.html#afebdc0103ad9cbe0ed4a54e522dc4104" target="_top" xlink:title="This subroutine initializes MOM. ">
<polygon fill="white" stroke="black" points="351,-6 351,-25 440,-25 440,-6 351,-6"/>
<text text-anchor="middle" x="395.5" y="-13" font-family="Helvetica,sans-Serif" font-size="10.00">mom::initialize_mom</text>
</a>
</g>
</g>
<!-- Node3&#45;&gt;Node4 -->
<g id="edge3" class="edge"><title>Node3&#45;&gt;Node4</title>
<path fill="none" stroke="midnightblue" d="M325.526,-15.5C333.817,-15.5 342.44,-15.5 350.667,-15.5"/>
<polygon fill="midnightblue" stroke="midnightblue" points="325.256,-12.0001 315.256,-15.5 325.256,-19.0001 325.256,-12.0001"/>
</g>
<!-- Node5 -->
<g id="node5" class="node"><title>Node5</title>
<g id="a_node5"><a xlink:href="../../de/dbc/MOM__driver_8F90.html#a08fffeb2d8e8acbf9ed4609be6d258c6" target="_top" xlink:title="mom_main">
<polygon fill="white" stroke="black" points="476,-6 476,-25 532,-25 532,-6 476,-6"/>
<text text-anchor="middle" x="504" y="-13" font-family="Helvetica,sans-Serif" font-size="10.00">mom_main</text>
</a>
</g>
</g>
<!-- Node4&#45;&gt;Node5 -->
<g id="edge4" class="edge"><title>Node4&#45;&gt;Node5</title>
<path fill="none" stroke="midnightblue" d="M450.407,-15.5C459.206,-15.5 467.981,-15.5 475.771,-15.5"/>
<polygon fill="midnightblue" stroke="midnightblue" points="450.125,-12.0001 440.125,-15.5 450.125,-19.0001 450.125,-12.0001"/>
</g>
</g>
</svg>
