<?xml version="1.0" encoding="UTF-8" standalone="no"?>
<!DOCTYPE svg PUBLIC "-//W3C//DTD SVG 1.1//EN"
 "http://www.w3.org/Graphics/SVG/1.1/DTD/svg11.dtd">
<!-- Generated by graphviz version 2.38.0 (20140413.2041)
 -->
<!-- Title: mom_shared_initialization::limit_topography Pages: 1 -->
<svg width="374pt" height="88pt"
 viewBox="0.00 0.00 374.00 88.00" xmlns="http://www.w3.org/2000/svg" xmlns:xlink="http://www.w3.org/1999/xlink">
<g id="graph0" class="graph" transform="scale(1 1) rotate(0) translate(4 84)">
<title>mom_shared_initialization::limit_topography</title>
<polygon fill="white" stroke="none" points="-4,4 -4,-84 370,-84 370,4 -4,4"/>
<!-- Node26 -->
<g id="node1" class="node"><title>Node26</title>
<polygon fill="#bfbfbf" stroke="black" points="0,-24.5 0,-54.5 108,-54.5 108,-24.5 0,-24.5"/>
<text text-anchor="start" x="8" y="-42.5" font-family="Helvetica,sans-Serif" font-size="10.00">mom_shared_initialization</text>
<text text-anchor="middle" x="54" y="-31.5" font-family="Helvetica,sans-Serif" font-size="10.00">::limit_topography</text>
</g>
<!-- Node27 -->
<g id="node2" class="node"><title>Node27</title>
<g id="a_node2"><a xlink:href="../../d0/de6/namespacemom__error__handler.html#a9cda07a87815f0e5594066162b4345c3" target="_top" xlink:title="Writes a message about entering a subroutine if call tree reporting is active. ">
<polygon fill="white" stroke="black" points="144,-49.5 144,-79.5 237,-79.5 237,-49.5 144,-49.5"/>
<text text-anchor="start" x="152" y="-67.5" font-family="Helvetica,sans-Serif" font-size="10.00">mom_error_handler::</text>
<text text-anchor="middle" x="190.5" y="-56.5" font-family="Helvetica,sans-Serif" font-size="10.00">calltree_enter</text>
</a>
</g>
</g>
<!-- Node26&#45;&gt;Node27 -->
<g id="edge1" class="edge"><title>Node26&#45;&gt;Node27</title>
<path fill="none" stroke="midnightblue" d="M108.158,-49.3807C116.51,-50.9332 125.166,-52.5421 133.579,-54.1058"/>
<polygon fill="midnightblue" stroke="midnightblue" points="133.212,-57.5973 143.683,-55.9838 134.491,-50.7152 133.212,-57.5973"/>
</g>
<!-- Node29 -->
<g id="node4" class="node"><title>Node29</title>
<g id="a_node4"><a xlink:href="../../d0/de6/namespacemom__error__handler.html#a88ea67781e2ed9b73ab7eac8ea5e8578" target="_top" xlink:title="Writes a message about leaving a subroutine if call tree reporting is active. ">
<polygon fill="white" stroke="black" points="144,-0.5 144,-30.5 237,-30.5 237,-0.5 144,-0.5"/>
<text text-anchor="start" x="152" y="-18.5" font-family="Helvetica,sans-Serif" font-size="10.00">mom_error_handler::</text>
<text text-anchor="middle" x="190.5" y="-7.5" font-family="Helvetica,sans-Serif" font-size="10.00">calltree_leave</text>
</a>
</g>
</g>
<!-- Node26&#45;&gt;Node29 -->
<g id="edge3" class="edge"><title>Node26&#45;&gt;Node29</title>
<path fill="none" stroke="midnightblue" d="M108.158,-30.0146C116.51,-28.5242 125.166,-26.9796 133.579,-25.4785"/>
<polygon fill="midnightblue" stroke="midnightblue" points="134.453,-28.8778 143.683,-23.6755 133.224,-21.9867 134.453,-28.8778"/>
</g>
<!-- Node28 -->
<g id="node3" class="node"><title>Node28</title>
<g id="a_node3"><a xlink:href="../../d0/de6/namespacemom__error__handler.html#ad5f00a53059c72fe2332d1436c80ca71" target="_top" xlink:title="mom_error_handler::\lis_root_pe">
<polygon fill="white" stroke="black" points="273,-24.5 273,-54.5 366,-54.5 366,-24.5 273,-24.5"/>
<text text-anchor="start" x="281" y="-42.5" font-family="Helvetica,sans-Serif" font-size="10.00">mom_error_handler::</text>
<text text-anchor="middle" x="319.5" y="-31.5" font-family="Helvetica,sans-Serif" font-size="10.00">is_root_pe</text>
</a>
</g>
</g>
<!-- Node27&#45;&gt;Node28 -->
<g id="edge2" class="edge"><title>Node27&#45;&gt;Node28</title>
<path fill="none" stroke="midnightblue" d="M237.35,-55.4744C245.623,-53.8459 254.33,-52.1319 262.846,-50.4556"/>
<polygon fill="midnightblue" stroke="midnightblue" points="263.582,-53.8779 272.717,-48.5123 262.23,-47.0097 263.582,-53.8779"/>
</g>
<!-- Node29&#45;&gt;Node28 -->
<g id="edge4" class="edge"><title>Node29&#45;&gt;Node28</title>
<path fill="none" stroke="midnightblue" d="M237.35,-24.1646C245.623,-25.7279 254.33,-27.3734 262.846,-28.9827"/>
<polygon fill="midnightblue" stroke="midnightblue" points="262.241,-32.4303 272.717,-30.8482 263.541,-25.5521 262.241,-32.4303"/>
</g>
</g>
</svg>
