<?xml version="1.0" encoding="UTF-8" standalone="no"?>
<!DOCTYPE svg PUBLIC "-//W3C//DTD SVG 1.1//EN"
 "http://www.w3.org/Graphics/SVG/1.1/DTD/svg11.dtd">
<!-- Generated by graphviz version 2.38.0 (20140413.2041)
 -->
<!-- Title: mom_shared_initialization::reset_face_lengths_list Pages: 1 -->
<svg width="391pt" height="153pt"
 viewBox="0.00 0.00 391.00 153.46" xmlns="http://www.w3.org/2000/svg" xmlns:xlink="http://www.w3.org/1999/xlink">
<g id="graph0" class="graph" transform="scale(1 1) rotate(0) translate(4 149.458)">
<title>mom_shared_initialization::reset_face_lengths_list</title>
<polygon fill="white" stroke="none" points="-4,4 -4,-149.458 387,-149.458 387,4 -4,4"/>
<!-- Node53 -->
<g id="node1" class="node"><title>Node53</title>
<polygon fill="#bfbfbf" stroke="black" points="0,-40.9584 0,-70.9584 108,-70.9584 108,-40.9584 0,-40.9584"/>
<text text-anchor="start" x="8" y="-58.9584" font-family="Helvetica,sans-Serif" font-size="10.00">mom_shared_initialization</text>
<text text-anchor="middle" x="54" y="-47.9584" font-family="Helvetica,sans-Serif" font-size="10.00">::reset_face_lengths_list</text>
</g>
<!-- Node54 -->
<g id="node2" class="node"><title>Node54</title>
<g id="a_node2"><a xlink:href="../../d0/de6/namespacemom__error__handler.html#a9cda07a87815f0e5594066162b4345c3" target="_top" xlink:title="Writes a message about entering a subroutine if call tree reporting is active. ">
<polygon fill="white" stroke="black" points="151.5,-114.958 151.5,-144.958 244.5,-144.958 244.5,-114.958 151.5,-114.958"/>
<text text-anchor="start" x="159.5" y="-132.958" font-family="Helvetica,sans-Serif" font-size="10.00">mom_error_handler::</text>
<text text-anchor="middle" x="198" y="-121.958" font-family="Helvetica,sans-Serif" font-size="10.00">calltree_enter</text>
</a>
</g>
</g>
<!-- Node53&#45;&gt;Node54 -->
<g id="edge1" class="edge"><title>Node53&#45;&gt;Node54</title>
<path fill="none" stroke="midnightblue" d="M80.3868,-70.9951C98.0207,-81.2475 122.178,-94.914 144,-105.958 147.067,-107.511 150.255,-109.074 153.478,-110.619"/>
<polygon fill="midnightblue" stroke="midnightblue" points="152.042,-113.811 162.581,-114.896 155.019,-107.476 152.042,-113.811"/>
</g>
<!-- Node56 -->
<g id="node4" class="node"><title>Node56</title>
<g id="a_node4"><a xlink:href="../../d0/de6/namespacemom__error__handler.html#a88ea67781e2ed9b73ab7eac8ea5e8578" target="_top" xlink:title="Writes a message about leaving a subroutine if call tree reporting is active. ">
<polygon fill="white" stroke="black" points="151.5,-65.9584 151.5,-95.9584 244.5,-95.9584 244.5,-65.9584 151.5,-65.9584"/>
<text text-anchor="start" x="159.5" y="-83.9584" font-family="Helvetica,sans-Serif" font-size="10.00">mom_error_handler::</text>
<text text-anchor="middle" x="198" y="-72.9584" font-family="Helvetica,sans-Serif" font-size="10.00">calltree_leave</text>
</a>
</g>
</g>
<!-- Node53&#45;&gt;Node56 -->
<g id="edge3" class="edge"><title>Node53&#45;&gt;Node56</title>
<path fill="none" stroke="midnightblue" d="M108.28,-65.3386C119.125,-67.248 130.56,-69.2612 141.481,-71.184"/>
<polygon fill="midnightblue" stroke="midnightblue" points="140.879,-74.6317 151.335,-72.9187 142.093,-67.7378 140.879,-74.6317"/>
</g>
<!-- Node57 -->
<g id="node5" class="node"><title>Node57</title>
<g id="a_node5"><a xlink:href="../../d7/dc9/namespacemom__shared__initialization.html#a49c0443c10514a0d5ce5d8df4d68bce8" target="_top" xlink:title="mom_shared_initialization\l::read_face_length_list">
<polygon fill="white" stroke="black" points="144,-16.9584 144,-46.9584 252,-46.9584 252,-16.9584 144,-16.9584"/>
<text text-anchor="start" x="152" y="-34.9584" font-family="Helvetica,sans-Serif" font-size="10.00">mom_shared_initialization</text>
<text text-anchor="middle" x="198" y="-23.9584" font-family="Helvetica,sans-Serif" font-size="10.00">::read_face_length_list</text>
</a>
</g>
</g>
<!-- Node53&#45;&gt;Node57 -->
<g id="edge5" class="edge"><title>Node53&#45;&gt;Node57</title>
<path fill="none" stroke="midnightblue" d="M108.28,-46.9534C116.651,-45.5385 125.374,-44.0643 133.94,-42.6165"/>
<polygon fill="midnightblue" stroke="midnightblue" points="134.617,-46.0517 143.894,-40.9341 133.451,-39.1496 134.617,-46.0517"/>
</g>
<!-- Node58 -->
<g id="node6" class="node"><title>Node58</title>
<g id="a_node6"><a xlink:href="../../df/d46/namespacemom__string__functions.html#aca148baf726de2f028b7e7baad3c85d4" target="_top" xlink:title="mom_string_functions\l::uppercase">
<polygon fill="white" stroke="black" points="288,-5.95843 288,-35.9584 383,-35.9584 383,-5.95843 288,-5.95843"/>
<text text-anchor="start" x="296" y="-23.9584" font-family="Helvetica,sans-Serif" font-size="10.00">mom_string_functions</text>
<text text-anchor="middle" x="335.5" y="-12.9584" font-family="Helvetica,sans-Serif" font-size="10.00">::uppercase</text>
</a>
</g>
</g>
<!-- Node53&#45;&gt;Node58 -->
<g id="edge7" class="edge"><title>Node53&#45;&gt;Node58</title>
<path fill="none" stroke="midnightblue" d="M75.307,-40.8632C92.5728,-29.0279 118.546,-13.5022 144,-6.95843 188.077,4.37322 239.643,-0.467793 278.001,-7.39831"/>
<polygon fill="midnightblue" stroke="midnightblue" points="277.474,-10.8609 287.953,-9.29628 278.786,-3.98482 277.474,-10.8609"/>
</g>
<!-- Node55 -->
<g id="node3" class="node"><title>Node55</title>
<g id="a_node3"><a xlink:href="../../d0/de6/namespacemom__error__handler.html#ad5f00a53059c72fe2332d1436c80ca71" target="_top" xlink:title="mom_error_handler::\lis_root_pe">
<polygon fill="white" stroke="black" points="289,-76.9584 289,-106.958 382,-106.958 382,-76.9584 289,-76.9584"/>
<text text-anchor="start" x="297" y="-94.9584" font-family="Helvetica,sans-Serif" font-size="10.00">mom_error_handler::</text>
<text text-anchor="middle" x="335.5" y="-83.9584" font-family="Helvetica,sans-Serif" font-size="10.00">is_root_pe</text>
</a>
</g>
</g>
<!-- Node54&#45;&gt;Node55 -->
<g id="edge2" class="edge"><title>Node54&#45;&gt;Node55</title>
<path fill="none" stroke="midnightblue" d="M244.874,-117.093C255.8,-114.029 267.577,-110.726 278.887,-107.555"/>
<polygon fill="midnightblue" stroke="midnightblue" points="279.99,-110.881 288.673,-104.81 278.099,-104.141 279.99,-110.881"/>
</g>
<!-- Node56&#45;&gt;Node55 -->
<g id="edge4" class="edge"><title>Node56&#45;&gt;Node55</title>
<path fill="none" stroke="midnightblue" d="M244.874,-84.6825C255.69,-85.5606 267.339,-86.5063 278.544,-87.4159"/>
<polygon fill="midnightblue" stroke="midnightblue" points="278.423,-90.9174 288.673,-88.2382 278.989,-83.9404 278.423,-90.9174"/>
</g>
<!-- Node57&#45;&gt;Node58 -->
<g id="edge6" class="edge"><title>Node57&#45;&gt;Node58</title>
<path fill="none" stroke="midnightblue" d="M252.164,-27.6425C260.493,-26.9664 269.13,-26.2652 277.539,-25.5826"/>
<polygon fill="midnightblue" stroke="midnightblue" points="277.964,-29.0597 287.648,-24.7619 277.397,-22.0826 277.964,-29.0597"/>
</g>
</g>
</svg>
