<?xml version="1.0" encoding="UTF-8" standalone="no"?>
<!DOCTYPE svg PUBLIC "-//W3C//DTD SVG 1.1//EN"
 "http://www.w3.org/Graphics/SVG/1.1/DTD/svg11.dtd">
<!-- Generated by graphviz version 2.38.0 (20140413.2041)
 -->
<!-- Title: mom_state_initialization::mom_temp_salt_initialize_from_z Pages: 1 -->
<svg width="738pt" height="455pt"
 viewBox="0.00 0.00 738.00 455.00" xmlns="http://www.w3.org/2000/svg" xmlns:xlink="http://www.w3.org/1999/xlink">
<g id="graph0" class="graph" transform="scale(1 1) rotate(0) translate(4 451)">
<title>mom_state_initialization::mom_temp_salt_initialize_from_z</title>
<polygon fill="white" stroke="none" points="-4,4 -4,-451 734,-451 734,4 -4,4"/>
<!-- Node297 -->
<g id="node1" class="node"><title>Node297</title>
<polygon fill="#bfbfbf" stroke="black" points="0,-252.5 0,-282.5 139,-282.5 139,-252.5 0,-252.5"/>
<text text-anchor="start" x="8" y="-270.5" font-family="Helvetica,sans-Serif" font-size="10.00">mom_state_initialization</text>
<text text-anchor="middle" x="69.5" y="-259.5" font-family="Helvetica,sans-Serif" font-size="10.00">::mom_temp_salt_initialize_from_z</text>
</g>
<!-- Node298 -->
<g id="node2" class="node"><title>Node298</title>
<g id="a_node2"><a xlink:href="../../d6/d62/namespacemom__state__initialization.html#a7252819826e260c3937db9cf983dcf82" target="_top" xlink:title="Adjust interface heights to fit the bathymetry and diagnose layer thickness. If the bottom most inter...">
<polygon fill="white" stroke="black" points="178,-416.5 178,-446.5 284,-446.5 284,-416.5 178,-416.5"/>
<text text-anchor="start" x="186" y="-434.5" font-family="Helvetica,sans-Serif" font-size="10.00">mom_state_initialization</text>
<text text-anchor="middle" x="231" y="-423.5" font-family="Helvetica,sans-Serif" font-size="10.00">::adjustetatofitbathymetry</text>
</a>
</g>
</g>
<!-- Node297&#45;&gt;Node298 -->
<g id="edge1" class="edge"><title>Node297&#45;&gt;Node298</title>
<path fill="none" stroke="midnightblue" d="M79.4925,-282.816C95.7922,-309.573 132.494,-365.413 175,-401.5 179.146,-405.02 183.77,-408.309 188.528,-411.323"/>
<polygon fill="midnightblue" stroke="midnightblue" points="186.775,-414.353 197.162,-416.443 190.346,-408.332 186.775,-414.353"/>
</g>
<!-- Node299 -->
<g id="node3" class="node"><title>Node299</title>
<g id="a_node3"><a xlink:href="../../d7/d73/namespacemom__ale.html#a10d17f422df12dc5a69cf5fbd8496a7f" target="_top" xlink:title="Generates new grid. ">
<polygon fill="white" stroke="black" points="179,-340 179,-359 283,-359 283,-340 179,-340"/>
<text text-anchor="middle" x="231" y="-347" font-family="Helvetica,sans-Serif" font-size="10.00">mom_ale::ale_build_grid</text>
</a>
</g>
</g>
<!-- Node297&#45;&gt;Node299 -->
<g id="edge2" class="edge"><title>Node297&#45;&gt;Node299</title>
<path fill="none" stroke="midnightblue" d="M96.3303,-282.74C117.259,-294.866 147.656,-311.984 175,-325.5 182.223,-329.071 190.103,-332.674 197.582,-335.965"/>
<polygon fill="midnightblue" stroke="midnightblue" points="196.195,-339.179 206.762,-339.94 198.976,-332.755 196.195,-339.179"/>
</g>
<!-- Node300 -->
<g id="node4" class="node"><title>Node300</title>
<g id="a_node4"><a xlink:href="../../d0/de6/namespacemom__error__handler.html#a9cda07a87815f0e5594066162b4345c3" target="_top" xlink:title="Writes a message about entering a subroutine if call tree reporting is active. ">
<polygon fill="white" stroke="black" points="339,-372.5 339,-402.5 432,-402.5 432,-372.5 339,-372.5"/>
<text text-anchor="start" x="347" y="-390.5" font-family="Helvetica,sans-Serif" font-size="10.00">mom_error_handler::</text>
<text text-anchor="middle" x="385.5" y="-379.5" font-family="Helvetica,sans-Serif" font-size="10.00">calltree_enter</text>
</a>
</g>
</g>
<!-- Node297&#45;&gt;Node300 -->
<g id="edge9" class="edge"><title>Node297&#45;&gt;Node300</title>
<path fill="none" stroke="midnightblue" d="M80.9049,-282.765C97.658,-305.926 133.019,-349.277 175,-368.5 223.57,-390.741 285.033,-393.768 328.798,-392.278"/>
<polygon fill="midnightblue" stroke="midnightblue" points="329.127,-395.767 338.967,-391.84 328.826,-388.774 329.127,-395.767"/>
</g>
<!-- Node302 -->
<g id="node6" class="node"><title>Node302</title>
<g id="a_node6"><a xlink:href="../../d0/de6/namespacemom__error__handler.html#a88ea67781e2ed9b73ab7eac8ea5e8578" target="_top" xlink:title="Writes a message about leaving a subroutine if call tree reporting is active. ">
<polygon fill="white" stroke="black" points="339,-323.5 339,-353.5 432,-353.5 432,-323.5 339,-323.5"/>
<text text-anchor="start" x="347" y="-341.5" font-family="Helvetica,sans-Serif" font-size="10.00">mom_error_handler::</text>
<text text-anchor="middle" x="385.5" y="-330.5" font-family="Helvetica,sans-Serif" font-size="10.00">calltree_leave</text>
</a>
</g>
</g>
<!-- Node297&#45;&gt;Node302 -->
<g id="edge10" class="edge"><title>Node297&#45;&gt;Node302</title>
<path fill="none" stroke="midnightblue" d="M132.62,-282.563C146.553,-285.885 161.273,-289.351 175,-292.5 227.082,-304.447 286.601,-317.453 328.856,-326.578"/>
<polygon fill="midnightblue" stroke="midnightblue" points="328.159,-330.008 338.672,-328.695 329.635,-323.166 328.159,-330.008"/>
</g>
<!-- Node303 -->
<g id="node7" class="node"><title>Node303</title>
<g id="a_node7"><a xlink:href="../../d7/d73/namespacemom__ale.html#aab30651699eb2cd8dc5a67c8e03474ee" target="_top" xlink:title="Remaps a single scalar between grids described by thicknesses h_src and h_dst. h_dst must be dimensio...">
<polygon fill="white" stroke="black" points="185,-252.5 185,-282.5 277,-282.5 277,-252.5 185,-252.5"/>
<text text-anchor="start" x="193" y="-270.5" font-family="Helvetica,sans-Serif" font-size="10.00">mom_ale::ale_remap</text>
<text text-anchor="middle" x="231" y="-259.5" font-family="Helvetica,sans-Serif" font-size="10.00">_scalar</text>
</a>
</g>
</g>
<!-- Node297&#45;&gt;Node303 -->
<g id="edge7" class="edge"><title>Node297&#45;&gt;Node303</title>
<path fill="none" stroke="midnightblue" d="M139.068,-267.5C150.963,-267.5 163.196,-267.5 174.681,-267.5"/>
<polygon fill="midnightblue" stroke="midnightblue" points="174.986,-271 184.986,-267.5 174.986,-264 174.986,-271"/>
</g>
<!-- Node305 -->
<g id="node9" class="node"><title>Node305</title>
<g id="a_node9"><a xlink:href="../../d1/da5/namespacemidas__vertmap.html#aaa8a9e13494c4d80d09c162e0a02d6eb" target="_top" xlink:title="midas_vertmap::determine\l_temperature">
<polygon fill="white" stroke="black" points="175,-203.5 175,-233.5 287,-233.5 287,-203.5 175,-203.5"/>
<text text-anchor="start" x="183" y="-221.5" font-family="Helvetica,sans-Serif" font-size="10.00">midas_vertmap::determine</text>
<text text-anchor="middle" x="231" y="-210.5" font-family="Helvetica,sans-Serif" font-size="10.00">_temperature</text>
</a>
</g>
</g>
<!-- Node297&#45;&gt;Node305 -->
<g id="edge11" class="edge"><title>Node297&#45;&gt;Node305</title>
<path fill="none" stroke="midnightblue" d="M119.657,-252.399C135.955,-247.392 154.262,-241.768 171.21,-236.561"/>
<polygon fill="midnightblue" stroke="midnightblue" points="172.474,-239.834 181.006,-233.552 170.419,-233.143 172.474,-239.834"/>
</g>
<!-- Node311 -->
<g id="node15" class="node"><title>Node311</title>
<g id="a_node15"><a xlink:href="../../d8/d8a/namespacemom__tracer__initialization__from__z.html#a5f3dc84eae5f78304c8e366bf80e3afd" target="_top" xlink:title="mom_tracer_initialization\l_from_z::horiz_interp_and\l_extrap_tracer">
<polygon fill="white" stroke="black" points="176,-138 176,-179 286,-179 286,-138 176,-138"/>
<text text-anchor="start" x="184" y="-167" font-family="Helvetica,sans-Serif" font-size="10.00">mom_tracer_initialization</text>
<text text-anchor="start" x="184" y="-156" font-family="Helvetica,sans-Serif" font-size="10.00">_from_z::horiz_interp_and</text>
<text text-anchor="middle" x="231" y="-145" font-family="Helvetica,sans-Serif" font-size="10.00">_extrap_tracer</text>
</a>
</g>
</g>
<!-- Node297&#45;&gt;Node311 -->
<g id="edge18" class="edge"><title>Node297&#45;&gt;Node311</title>
<path fill="none" stroke="midnightblue" d="M91.5856,-252.491C112.6,-237.599 145.853,-214.213 175,-194.5 179.784,-191.264 184.826,-187.901 189.837,-184.587"/>
<polygon fill="midnightblue" stroke="midnightblue" points="191.763,-187.51 198.19,-179.088 187.913,-181.663 191.763,-187.51"/>
</g>
<!-- Node315 -->
<g id="node19" class="node"><title>Node315</title>
<g id="a_node19"><a xlink:href="../../d9/def/namespacemom__file__parser.html#a17c0ef1bb1912f02faa0aaa1e0f64210" target="_top" xlink:title="mom_file_parser::log\l_version">
<polygon fill="white" stroke="black" points="496.5,-66.5 496.5,-96.5 588.5,-96.5 588.5,-66.5 496.5,-66.5"/>
<text text-anchor="start" x="504.5" y="-84.5" font-family="Helvetica,sans-Serif" font-size="10.00">mom_file_parser::log</text>
<text text-anchor="middle" x="542.5" y="-73.5" font-family="Helvetica,sans-Serif" font-size="10.00">_version</text>
</a>
</g>
</g>
<!-- Node297&#45;&gt;Node315 -->
<g id="edge22" class="edge"><title>Node297&#45;&gt;Node315</title>
<path fill="none" stroke="midnightblue" d="M78.0201,-252.149C92.7308,-223.668 128.024,-162.462 175,-128.5 267.664,-61.5071 408.969,-65.0198 486.255,-73.3335"/>
<polygon fill="midnightblue" stroke="midnightblue" points="485.935,-76.8196 496.268,-74.4764 486.729,-69.8648 485.935,-76.8196"/>
</g>
<!-- Node316 -->
<g id="node20" class="node"><title>Node316</title>
<g id="a_node20"><a xlink:href="../../d7/d1b/namespacemom__regridding.html#ac384596d1d07e413bbed37c71e0571e0" target="_top" xlink:title="This subroutine can be used to set many of the parameters for MOM_regridding. ">
<polygon fill="white" stroke="black" points="186,-0.5 186,-30.5 276,-30.5 276,-0.5 186,-0.5"/>
<text text-anchor="start" x="194" y="-18.5" font-family="Helvetica,sans-Serif" font-size="10.00">mom_regridding::set</text>
<text text-anchor="middle" x="231" y="-7.5" font-family="Helvetica,sans-Serif" font-size="10.00">_regrid_params</text>
</a>
</g>
</g>
<!-- Node297&#45;&gt;Node316 -->
<g id="edge24" class="edge"><title>Node297&#45;&gt;Node316</title>
<path fill="none" stroke="midnightblue" d="M74.0866,-252.429C83.9766,-213.689 114.966,-109.21 175,-45.5 178.277,-42.0219 182.05,-38.854 186.051,-35.9923"/>
<polygon fill="midnightblue" stroke="midnightblue" points="187.991,-38.9063 194.5,-30.5469 184.198,-33.0225 187.991,-38.9063"/>
</g>
<!-- Node299&#45;&gt;Node300 -->
<g id="edge3" class="edge"><title>Node299&#45;&gt;Node300</title>
<path fill="none" stroke="midnightblue" d="M270.482,-359.089C288.215,-363.508 309.593,-368.835 329.024,-373.676"/>
<polygon fill="midnightblue" stroke="midnightblue" points="328.428,-377.135 338.977,-376.157 330.12,-370.343 328.428,-377.135"/>
</g>
<!-- Node299&#45;&gt;Node302 -->
<g id="edge5" class="edge"><title>Node299&#45;&gt;Node302</title>
<path fill="none" stroke="midnightblue" d="M283.205,-345.807C297.828,-344.752 313.834,-343.597 328.716,-342.524"/>
<polygon fill="midnightblue" stroke="midnightblue" points="329.087,-346.006 338.81,-341.796 328.584,-339.024 329.087,-346.006"/>
</g>
<!-- Node301 -->
<g id="node5" class="node"><title>Node301</title>
<g id="a_node5"><a xlink:href="../../d0/de6/namespacemom__error__handler.html#ad5f00a53059c72fe2332d1436c80ca71" target="_top" xlink:title="mom_error_handler::\lis_root_pe">
<polygon fill="white" stroke="black" points="637,-232.5 637,-262.5 730,-262.5 730,-232.5 637,-232.5"/>
<text text-anchor="start" x="645" y="-250.5" font-family="Helvetica,sans-Serif" font-size="10.00">mom_error_handler::</text>
<text text-anchor="middle" x="683.5" y="-239.5" font-family="Helvetica,sans-Serif" font-size="10.00">is_root_pe</text>
</a>
</g>
</g>
<!-- Node300&#45;&gt;Node301 -->
<g id="edge4" class="edge"><title>Node300&#45;&gt;Node301</title>
<path fill="none" stroke="midnightblue" d="M432.401,-388.205C478.157,-386.925 548.928,-379.42 601,-348.5 631.99,-330.098 656.072,-295.259 669.78,-271.709"/>
<polygon fill="midnightblue" stroke="midnightblue" points="673,-273.123 674.846,-262.691 666.897,-269.695 673,-273.123"/>
</g>
<!-- Node302&#45;&gt;Node301 -->
<g id="edge6" class="edge"><title>Node302&#45;&gt;Node301</title>
<path fill="none" stroke="midnightblue" d="M432.122,-344.206C477.035,-347.87 546.607,-348.212 601,-324.5 627.615,-312.898 650.883,-288.676 665.669,-270.479"/>
<polygon fill="midnightblue" stroke="midnightblue" points="668.425,-272.636 671.847,-262.609 662.919,-268.313 668.425,-272.636"/>
</g>
<!-- Node304 -->
<g id="node8" class="node"><title>Node304</title>
<g id="a_node8"><a xlink:href="../../d6/d75/namespacemom__remapping.html#a494289c324db2496816f2687f4ceea76" target="_top" xlink:title="Calculates the change in interface positions based on h1 and h2. ">
<polygon fill="white" stroke="black" points="323,-285 323,-304 448,-304 448,-285 323,-285"/>
<text text-anchor="middle" x="385.5" y="-292" font-family="Helvetica,sans-Serif" font-size="10.00">mom_remapping::dzfromh1h2</text>
</a>
</g>
</g>
<!-- Node303&#45;&gt;Node304 -->
<g id="edge8" class="edge"><title>Node303&#45;&gt;Node304</title>
<path fill="none" stroke="midnightblue" d="M277.342,-275.528C290.967,-277.94 306.178,-280.633 320.76,-283.215"/>
<polygon fill="midnightblue" stroke="midnightblue" points="320.271,-286.683 330.728,-284.98 321.492,-279.79 320.271,-286.683"/>
</g>
<!-- Node306 -->
<g id="node10" class="node"><title>Node306</title>
<g id="a_node10"><a xlink:href="../../d1/d01/namespacemom__eos.html#a204529f8434a0322314e6ce2a9762436" target="_top" xlink:title="Calls the appropriate subroutine to calculate density derivatives for 1&#45;D array inputs. ">
<polygon fill="white" stroke="black" points="342,-235.5 342,-265.5 429,-265.5 429,-235.5 342,-235.5"/>
<text text-anchor="start" x="350" y="-253.5" font-family="Helvetica,sans-Serif" font-size="10.00">mom_eos::calculate</text>
<text text-anchor="middle" x="385.5" y="-242.5" font-family="Helvetica,sans-Serif" font-size="10.00">_density_derivs</text>
</a>
</g>
</g>
<!-- Node305&#45;&gt;Node306 -->
<g id="edge12" class="edge"><title>Node305&#45;&gt;Node306</title>
<path fill="none" stroke="midnightblue" d="M287.056,-230.053C301.752,-233.136 317.588,-236.46 332.135,-239.512"/>
<polygon fill="midnightblue" stroke="midnightblue" points="331.464,-242.947 341.97,-241.576 332.902,-236.096 331.464,-242.947"/>
</g>
<!-- Node307 -->
<g id="node11" class="node"><title>Node307</title>
<g id="a_node11"><a xlink:href="../../d5/de6/namespacemom__eos__linear.html#a73d8a625582247379092adf1aeeb55e0" target="_top" xlink:title="mom_eos_linear::calculate\l_density_derivs_linear">
<polygon fill="white" stroke="black" points="487,-284.5 487,-314.5 598,-314.5 598,-284.5 487,-284.5"/>
<text text-anchor="start" x="495" y="-302.5" font-family="Helvetica,sans-Serif" font-size="10.00">mom_eos_linear::calculate</text>
<text text-anchor="middle" x="542.5" y="-291.5" font-family="Helvetica,sans-Serif" font-size="10.00">_density_derivs_linear</text>
</a>
</g>
</g>
<!-- Node306&#45;&gt;Node307 -->
<g id="edge13" class="edge"><title>Node306&#45;&gt;Node307</title>
<path fill="none" stroke="midnightblue" d="M429.265,-264.019C446.279,-269.398 466.109,-275.667 484.327,-281.426"/>
<polygon fill="midnightblue" stroke="midnightblue" points="483.378,-284.797 493.968,-284.474 485.488,-278.122 483.378,-284.797"/>
</g>
<!-- Node308 -->
<g id="node12" class="node"><title>Node308</title>
<g id="a_node12"><a xlink:href="../../dd/d6b/namespacemom__eos__unesco.html#af8666837abadea54c016bf59838f96cc" target="_top" xlink:title="mom_eos_unesco::calculate\l_density_derivs_unesco">
<polygon fill="white" stroke="black" points="484,-235.5 484,-265.5 601,-265.5 601,-235.5 484,-235.5"/>
<text text-anchor="start" x="492" y="-253.5" font-family="Helvetica,sans-Serif" font-size="10.00">mom_eos_unesco::calculate</text>
<text text-anchor="middle" x="542.5" y="-242.5" font-family="Helvetica,sans-Serif" font-size="10.00">_density_derivs_unesco</text>
</a>
</g>
</g>
<!-- Node306&#45;&gt;Node308 -->
<g id="edge14" class="edge"><title>Node306&#45;&gt;Node308</title>
<path fill="none" stroke="midnightblue" d="M429.265,-250.5C442.952,-250.5 458.462,-250.5 473.489,-250.5"/>
<polygon fill="midnightblue" stroke="midnightblue" points="473.787,-254 483.787,-250.5 473.787,-247 473.787,-254"/>
</g>
<!-- Node309 -->
<g id="node13" class="node"><title>Node309</title>
<g id="a_node13"><a xlink:href="../../de/d76/namespacemom__eos__wright.html#ad7748e85ddacb33ad90ec3a9017e6e72" target="_top" xlink:title="mom_eos_wright::calculate\l_density_derivs_wright">
<polygon fill="white" stroke="black" points="486,-186.5 486,-216.5 599,-216.5 599,-186.5 486,-186.5"/>
<text text-anchor="start" x="494" y="-204.5" font-family="Helvetica,sans-Serif" font-size="10.00">mom_eos_wright::calculate</text>
<text text-anchor="middle" x="542.5" y="-193.5" font-family="Helvetica,sans-Serif" font-size="10.00">_density_derivs_wright</text>
</a>
</g>
</g>
<!-- Node306&#45;&gt;Node309 -->
<g id="edge15" class="edge"><title>Node306&#45;&gt;Node309</title>
<path fill="none" stroke="midnightblue" d="M429.265,-236.981C446.279,-231.602 466.109,-225.333 484.327,-219.574"/>
<polygon fill="midnightblue" stroke="midnightblue" points="485.488,-222.878 493.968,-216.526 483.378,-216.203 485.488,-222.878"/>
</g>
<!-- Node310 -->
<g id="node14" class="node"><title>Node310</title>
<g id="a_node14"><a xlink:href="../../d0/de6/namespacemom__error__handler.html#a460cfb79a06c29fc249952c2a3710d67" target="_top" xlink:title="mom_error_handler::\lmom_error">
<polygon fill="white" stroke="black" points="496,-137.5 496,-167.5 589,-167.5 589,-137.5 496,-137.5"/>
<text text-anchor="start" x="504" y="-155.5" font-family="Helvetica,sans-Serif" font-size="10.00">mom_error_handler::</text>
<text text-anchor="middle" x="542.5" y="-144.5" font-family="Helvetica,sans-Serif" font-size="10.00">mom_error</text>
</a>
</g>
</g>
<!-- Node306&#45;&gt;Node310 -->
<g id="edge16" class="edge"><title>Node306&#45;&gt;Node310</title>
<path fill="none" stroke="midnightblue" d="M429.214,-237.495C435.849,-234.465 442.363,-230.827 448,-226.5 469.437,-210.047 462.88,-194.358 484,-177.5 486.047,-175.866 488.217,-174.318 490.47,-172.855"/>
<polygon fill="midnightblue" stroke="midnightblue" points="492.585,-175.674 499.475,-167.627 489.07,-169.621 492.585,-175.674"/>
</g>
<!-- Node310&#45;&gt;Node301 -->
<g id="edge17" class="edge"><title>Node310&#45;&gt;Node301</title>
<path fill="none" stroke="midnightblue" d="M582.664,-167.636C588.96,-170.601 595.282,-173.916 601,-177.5 622.668,-191.081 644.503,-210.192 660.111,-225.015"/>
<polygon fill="midnightblue" stroke="midnightblue" points="658.049,-227.89 667.672,-232.324 662.914,-222.857 658.049,-227.89"/>
</g>
<!-- Node312 -->
<g id="node16" class="node"><title>Node312</title>
<g id="a_node16"><a xlink:href="../../d8/d8a/namespacemom__tracer__initialization__from__z.html#ac3910d4783aaa36b1e2c21ff4ee08453" target="_top" xlink:title="mom_tracer_initialization\l_from_z::meshgrid">
<polygon fill="white" stroke="black" points="333.5,-186.5 333.5,-216.5 437.5,-216.5 437.5,-186.5 333.5,-186.5"/>
<text text-anchor="start" x="341.5" y="-204.5" font-family="Helvetica,sans-Serif" font-size="10.00">mom_tracer_initialization</text>
<text text-anchor="middle" x="385.5" y="-193.5" font-family="Helvetica,sans-Serif" font-size="10.00">_from_z::meshgrid</text>
</a>
</g>
</g>
<!-- Node311&#45;&gt;Node312 -->
<g id="edge19" class="edge"><title>Node311&#45;&gt;Node312</title>
<path fill="none" stroke="midnightblue" d="M286.195,-173.781C298.287,-177.191 311.189,-180.829 323.533,-184.309"/>
<polygon fill="midnightblue" stroke="midnightblue" points="322.713,-187.714 333.287,-187.06 324.612,-180.977 322.713,-187.714"/>
</g>
<!-- Node313 -->
<g id="node17" class="node"><title>Node313</title>
<g id="a_node17"><a xlink:href="../../d8/d8a/namespacemom__tracer__initialization__from__z.html#adcb9907744147d5e873af4b5912044ea" target="_top" xlink:title="mom_tracer_initialization\l_from_z::mystats">
<polygon fill="white" stroke="black" points="333.5,-137.5 333.5,-167.5 437.5,-167.5 437.5,-137.5 333.5,-137.5"/>
<text text-anchor="start" x="341.5" y="-155.5" font-family="Helvetica,sans-Serif" font-size="10.00">mom_tracer_initialization</text>
<text text-anchor="middle" x="385.5" y="-144.5" font-family="Helvetica,sans-Serif" font-size="10.00">_from_z::mystats</text>
</a>
</g>
</g>
<!-- Node311&#45;&gt;Node313 -->
<g id="edge20" class="edge"><title>Node311&#45;&gt;Node313</title>
<path fill="none" stroke="midnightblue" d="M286.195,-156.368C298.167,-155.897 310.933,-155.394 323.166,-154.913"/>
<polygon fill="midnightblue" stroke="midnightblue" points="323.433,-158.405 333.287,-154.515 323.157,-151.411 323.433,-158.405"/>
</g>
<!-- Node314 -->
<g id="node18" class="node"><title>Node314</title>
<g id="a_node18"><a xlink:href="../../d8/d8a/namespacemom__tracer__initialization__from__z.html#a3e944fc452963865258b02181f817283" target="_top" xlink:title="mom_tracer_initialization\l_from_z::fill_miss_2d">
<polygon fill="white" stroke="black" points="333.5,-88.5 333.5,-118.5 437.5,-118.5 437.5,-88.5 333.5,-88.5"/>
<text text-anchor="start" x="341.5" y="-106.5" font-family="Helvetica,sans-Serif" font-size="10.00">mom_tracer_initialization</text>
<text text-anchor="middle" x="385.5" y="-95.5" font-family="Helvetica,sans-Serif" font-size="10.00">_from_z::fill_miss_2d</text>
</a>
</g>
</g>
<!-- Node311&#45;&gt;Node314 -->
<g id="edge21" class="edge"><title>Node311&#45;&gt;Node314</title>
<path fill="none" stroke="midnightblue" d="M286.195,-138.954C301.364,-133.483 317.808,-127.553 332.827,-122.136"/>
<polygon fill="midnightblue" stroke="midnightblue" points="334.243,-125.346 342.463,-118.661 331.869,-118.761 334.243,-125.346"/>
</g>
<!-- Node315&#45;&gt;Node301 -->
<g id="edge23" class="edge"><title>Node315&#45;&gt;Node301</title>
<path fill="none" stroke="midnightblue" d="M564.695,-96.5024C576.132,-105.148 590.097,-116.631 601,-128.5 628.489,-158.423 653.875,-198.224 668.779,-223.358"/>
<polygon fill="midnightblue" stroke="midnightblue" points="665.892,-225.355 673.961,-232.222 671.935,-221.822 665.892,-225.355"/>
</g>
</g>
</svg>
