<?xml version="1.0" encoding="UTF-8" standalone="no"?>
<!DOCTYPE svg PUBLIC "-//W3C//DTD SVG 1.1//EN"
 "http://www.w3.org/Graphics/SVG/1.1/DTD/svg11.dtd">
<!-- Generated by graphviz version 2.38.0 (20140413.2041)
 -->
<!-- Title: mom_state_initialization::mom_temp_salt_initialize_from_z Pages: 1 -->
<svg width="334pt" height="39pt"
 viewBox="0.00 0.00 334.00 39.00" xmlns="http://www.w3.org/2000/svg" xmlns:xlink="http://www.w3.org/1999/xlink">
<g id="graph0" class="graph" transform="scale(1 1) rotate(0) translate(4 35)">
<title>mom_state_initialization::mom_temp_salt_initialize_from_z</title>
<polygon fill="white" stroke="none" points="-4,4 -4,-35 330,-35 330,4 -4,4"/>
<!-- Node280 -->
<g id="node1" class="node"><title>Node280</title>
<polygon fill="#bfbfbf" stroke="black" points="0,-0.5 0,-30.5 168,-30.5 168,-0.5 0,-0.5"/>
<text text-anchor="start" x="8" y="-18.5" font-family="Helvetica,sans-Serif" font-size="10.00">mom_state_initialization</text>
<text text-anchor="middle" x="84" y="-7.5" font-family="Helvetica,sans-Serif" font-size="10.00">::mom_temp_salt_initialize_from_z</text>
</g>
<!-- Node281 -->
<g id="node2" class="node"><title>Node281</title>
<g id="a_node2"><a xlink:href="../../d6/d62/namespacemom__state__initialization.html#af4e854627c6572332ba3fd895f169321" target="_top" xlink:title="mom_state_initialization\l::mom_initialize_state">
<polygon fill="white" stroke="black" points="204,-0.5 204,-30.5 326,-30.5 326,-0.5 204,-0.5"/>
<text text-anchor="start" x="212" y="-18.5" font-family="Helvetica,sans-Serif" font-size="10.00">mom_state_initialization</text>
<text text-anchor="middle" x="265" y="-7.5" font-family="Helvetica,sans-Serif" font-size="10.00">::mom_initialize_state</text>
</a>
</g>
</g>
<!-- Node280&#45;&gt;Node281 -->
<g id="edge1" class="edge"><title>Node280&#45;&gt;Node281</title>
<path fill="none" stroke="midnightblue" d="M178.397,-15.5C187.07,-15.5 195.695,-15.5 203.944,-15.5"/>
<polygon fill="midnightblue" stroke="midnightblue" points="178.212,-12.0001 168.212,-15.5 178.212,-19.0001 178.212,-12.0001"/>
</g>
</g>
</svg>
