<?xml version="1.0" encoding="UTF-8" standalone="no"?>
<!DOCTYPE svg PUBLIC "-//W3C//DTD SVG 1.1//EN"
 "http://www.w3.org/Graphics/SVG/1.1/DTD/svg11.dtd">
<!-- Generated by graphviz version 2.38.0 (20140413.2041)
 -->
<!-- Title: mom_obsolete_diagnostics::register_obsolete_diagnostics Pages: 1 -->
<svg width="541pt" height="165pt"
 viewBox="0.00 0.00 541.00 165.00" xmlns="http://www.w3.org/2000/svg" xmlns:xlink="http://www.w3.org/1999/xlink">
<g id="graph0" class="graph" transform="scale(1 1) rotate(0) translate(4 161)">
<title>mom_obsolete_diagnostics::register_obsolete_diagnostics</title>
<polygon fill="white" stroke="none" points="-4,4 -4,-161 537,-161 537,4 -4,4"/>
<!-- Node7 -->
<g id="node1" class="node"><title>Node7</title>
<polygon fill="#bfbfbf" stroke="black" points="0,-63.5 0,-93.5 126,-93.5 126,-63.5 0,-63.5"/>
<text text-anchor="start" x="8" y="-81.5" font-family="Helvetica,sans-Serif" font-size="10.00">mom_obsolete_diagnostics</text>
<text text-anchor="middle" x="63" y="-70.5" font-family="Helvetica,sans-Serif" font-size="10.00">::register_obsolete_diagnostics</text>
</g>
<!-- Node8 -->
<g id="node2" class="node"><title>Node8</title>
<g id="a_node2"><a xlink:href="../../df/d1a/namespacemom__obsolete__diagnostics.html#a137ff7cb882b715d0ccf915fef52386c" target="_top" xlink:title="Fakes a register of a diagnostic to find out if an obsolete parameter appears in the diag_table...">
<polygon fill="white" stroke="black" points="162,-126.5 162,-156.5 275,-156.5 275,-126.5 162,-126.5"/>
<text text-anchor="start" x="170" y="-144.5" font-family="Helvetica,sans-Serif" font-size="10.00">mom_obsolete_diagnostics</text>
<text text-anchor="middle" x="218.5" y="-133.5" font-family="Helvetica,sans-Serif" font-size="10.00">::found_in_diagtable</text>
</a>
</g>
</g>
<!-- Node7&#45;&gt;Node8 -->
<g id="edge1" class="edge"><title>Node7&#45;&gt;Node8</title>
<path fill="none" stroke="midnightblue" d="M100.767,-93.5901C121.954,-102.286 148.781,-113.296 171.373,-122.568"/>
<polygon fill="midnightblue" stroke="midnightblue" points="170.187,-125.865 180.767,-126.424 172.845,-119.389 170.187,-125.865"/>
</g>
<!-- Node9 -->
<g id="node3" class="node"><title>Node9</title>
<g id="a_node3"><a xlink:href="../../d0/de6/namespacemom__error__handler.html#ad5f00a53059c72fe2332d1436c80ca71" target="_top" xlink:title="mom_error_handler::\lis_root_pe">
<polygon fill="white" stroke="black" points="440,-66.5 440,-96.5 533,-96.5 533,-66.5 440,-66.5"/>
<text text-anchor="start" x="448" y="-84.5" font-family="Helvetica,sans-Serif" font-size="10.00">mom_error_handler::</text>
<text text-anchor="middle" x="486.5" y="-73.5" font-family="Helvetica,sans-Serif" font-size="10.00">is_root_pe</text>
</a>
</g>
</g>
<!-- Node7&#45;&gt;Node9 -->
<g id="edge5" class="edge"><title>Node7&#45;&gt;Node9</title>
<path fill="none" stroke="midnightblue" d="M126.048,-77.8154C194.212,-77.2231 306.916,-76.7138 404,-78.5 412.343,-78.6535 421.165,-78.8953 429.802,-79.1767"/>
<polygon fill="midnightblue" stroke="midnightblue" points="429.702,-82.6752 439.817,-79.5222 429.944,-75.6794 429.702,-82.6752"/>
</g>
<!-- Node10 -->
<g id="node4" class="node"><title>Node10</title>
<g id="a_node4"><a xlink:href="../../d0/de6/namespacemom__error__handler.html#a460cfb79a06c29fc249952c2a3710d67" target="_top" xlink:title="mom_error_handler::\lmom_error">
<polygon fill="white" stroke="black" points="311,-88.5 311,-118.5 404,-118.5 404,-88.5 311,-88.5"/>
<text text-anchor="start" x="319" y="-106.5" font-family="Helvetica,sans-Serif" font-size="10.00">mom_error_handler::</text>
<text text-anchor="middle" x="357.5" y="-95.5" font-family="Helvetica,sans-Serif" font-size="10.00">mom_error</text>
</a>
</g>
</g>
<!-- Node7&#45;&gt;Node10 -->
<g id="edge8" class="edge"><title>Node7&#45;&gt;Node10</title>
<path fill="none" stroke="midnightblue" d="M126.032,-83.8019C177.805,-88.2269 250.938,-94.4776 300.847,-98.7433"/>
<polygon fill="midnightblue" stroke="midnightblue" points="300.555,-102.231 310.817,-99.5955 301.151,-95.2565 300.555,-102.231"/>
</g>
<!-- Node11 -->
<g id="node5" class="node"><title>Node11</title>
<g id="a_node5"><a xlink:href="../../d9/def/namespacemom__file__parser.html#a17c0ef1bb1912f02faa0aaa1e0f64210" target="_top" xlink:title="mom_file_parser::log\l_version">
<polygon fill="white" stroke="black" points="311.5,-0.5 311.5,-30.5 403.5,-30.5 403.5,-0.5 311.5,-0.5"/>
<text text-anchor="start" x="319.5" y="-18.5" font-family="Helvetica,sans-Serif" font-size="10.00">mom_file_parser::log</text>
<text text-anchor="middle" x="357.5" y="-7.5" font-family="Helvetica,sans-Serif" font-size="10.00">_version</text>
</a>
</g>
</g>
<!-- Node7&#45;&gt;Node11 -->
<g id="edge6" class="edge"><title>Node7&#45;&gt;Node11</title>
<path fill="none" stroke="midnightblue" d="M103.596,-63.4391C121.264,-57.1696 142.464,-50.2584 162,-45.5 208.319,-34.2179 261.927,-26.3221 301.118,-21.4728"/>
<polygon fill="midnightblue" stroke="midnightblue" points="301.756,-24.9212 311.264,-20.2455 300.916,-17.9719 301.756,-24.9212"/>
</g>
<!-- Node8&#45;&gt;Node9 -->
<g id="edge2" class="edge"><title>Node8&#45;&gt;Node9</title>
<path fill="none" stroke="midnightblue" d="M275.147,-143.524C312.375,-143.374 362.043,-140.24 404,-127.5 422.411,-121.91 441.228,-111.648 456.136,-102.233"/>
<polygon fill="midnightblue" stroke="midnightblue" points="458.414,-104.926 464.875,-96.5298 454.588,-99.0644 458.414,-104.926"/>
</g>
<!-- Node8&#45;&gt;Node10 -->
<g id="edge3" class="edge"><title>Node8&#45;&gt;Node10</title>
<path fill="none" stroke="midnightblue" d="M273.646,-126.481C282.654,-123.983 292.008,-121.388 301.048,-118.881"/>
<polygon fill="midnightblue" stroke="midnightblue" points="302.002,-122.249 310.702,-116.203 300.131,-115.503 302.002,-122.249"/>
</g>
<!-- Node10&#45;&gt;Node9 -->
<g id="edge4" class="edge"><title>Node10&#45;&gt;Node9</title>
<path fill="none" stroke="midnightblue" d="M404.35,-95.5575C412.623,-94.1244 421.33,-92.6161 429.846,-91.1409"/>
<polygon fill="midnightblue" stroke="midnightblue" points="430.462,-94.5864 439.717,-89.4308 429.267,-87.6892 430.462,-94.5864"/>
</g>
<!-- Node11&#45;&gt;Node9 -->
<g id="edge7" class="edge"><title>Node11&#45;&gt;Node9</title>
<path fill="none" stroke="midnightblue" d="M387.636,-30.6417C405.384,-39.8647 428.256,-51.751 447.425,-61.713"/>
<polygon fill="midnightblue" stroke="midnightblue" points="446.012,-64.923 456.499,-66.4287 449.24,-58.7117 446.012,-64.923"/>
</g>
</g>
</svg>
