<?xml version="1.0" encoding="UTF-8" standalone="no"?>
<!DOCTYPE svg PUBLIC "-//W3C//DTD SVG 1.1//EN"
 "http://www.w3.org/Graphics/SVG/1.1/DTD/svg11.dtd">
<!-- Generated by graphviz version 2.38.0 (20140413.2041)
 -->
<!-- Title: mom_variables::bt_cont_type Pages: 1 -->
<svg width="163pt" height="205pt"
 viewBox="0.00 0.00 163.00 205.00" xmlns="http://www.w3.org/2000/svg" xmlns:xlink="http://www.w3.org/1999/xlink">
<g id="graph0" class="graph" transform="scale(1 1) rotate(0) translate(4 201)">
<title>mom_variables::bt_cont_type</title>
<polygon fill="white" stroke="none" points="-4,4 -4,-201 159,-201 159,4 -4,4"/>
<!-- Node1 -->
<g id="node1" class="node"><title>Node1</title>
<polygon fill="#bfbfbf" stroke="black" points="20.5,-0.5 20.5,-19.5 141.5,-19.5 141.5,-0.5 20.5,-0.5"/>
<text text-anchor="middle" x="81" y="-7.5" font-family="Helvetica,sans-Serif" font-size="10.00">mom_variables::bt_cont_type</text>
</g>
<!-- Node2 -->
<g id="node2" class="node"><title>Node2</title>
<polygon fill="white" stroke="#bfbfbf" points="0,-177.5 0,-196.5 78,-196.5 78,-177.5 0,-177.5"/>
<text text-anchor="middle" x="39" y="-184.5" font-family="Helvetica,sans-Serif" font-size="10.00">group_pass_type</text>
</g>
<!-- Node2&#45;&gt;Node1 -->
<g id="edge1" class="edge"><title>Node2&#45;&gt;Node1</title>
<path fill="none" stroke="#9a32cd" stroke-dasharray="5,2" d="M33.8878,-167.533C26.8341,-138.104 17.3793,-79.6442 40,-38 44.3936,-29.9115 52.3772,-23.8423 60.1398,-19.5281"/>
<polygon fill="#9a32cd" stroke="#9a32cd" points="30.5184,-168.484 36.4017,-177.295 37.2972,-166.738 30.5184,-168.484"/>
<text text-anchor="middle" x="70.5" y="-101.5" font-family="Helvetica,sans-Serif" font-size="10.00"> pass_polarity_bt</text>
<text text-anchor="middle" x="70.5" y="-90.5" font-family="Helvetica,sans-Serif" font-size="10.00">pass_fa_uv</text>
</g>
<!-- Node3 -->
<g id="node3" class="node"><title>Node3</title>
<polygon fill="white" stroke="#bfbfbf" points="108,-177.5 108,-196.5 138,-196.5 138,-177.5 108,-177.5"/>
<text text-anchor="middle" x="123" y="-184.5" font-family="Helvetica,sans-Serif" font-size="10.00">real</text>
</g>
<!-- Node3&#45;&gt;Node1 -->
<g id="edge2" class="edge"><title>Node3&#45;&gt;Node1</title>
<path fill="none" stroke="#9a32cd" stroke-dasharray="5,2" d="M123.081,-166.968C122.573,-138.016 119.08,-81.6655 101,-38 98.2328,-31.3168 93.454,-24.7732 89.2615,-19.802"/>
<polygon fill="#9a32cd" stroke="#9a32cd" points="119.583,-167.294 123.151,-177.27 126.583,-167.246 119.583,-167.294"/>
<text text-anchor="middle" x="138.5" y="-151" font-family="Helvetica,sans-Serif" font-size="10.00"> fa_v_nn</text>
<text text-anchor="middle" x="138.5" y="-140" font-family="Helvetica,sans-Serif" font-size="10.00">fa_v_s0</text>
<text text-anchor="middle" x="138.5" y="-129" font-family="Helvetica,sans-Serif" font-size="10.00">fa_u_ww</text>
<text text-anchor="middle" x="138.5" y="-118" font-family="Helvetica,sans-Serif" font-size="10.00">h_u</text>
<text text-anchor="middle" x="138.5" y="-107" font-family="Helvetica,sans-Serif" font-size="10.00">h_v</text>
<text text-anchor="middle" x="138.5" y="-96" font-family="Helvetica,sans-Serif" font-size="10.00">fa_u_e0</text>
<text text-anchor="middle" x="138.5" y="-85" font-family="Helvetica,sans-Serif" font-size="10.00">vbt_nn</text>
<text text-anchor="middle" x="138.5" y="-74" font-family="Helvetica,sans-Serif" font-size="10.00">vbt_ss</text>
<text text-anchor="middle" x="138.5" y="-63" font-family="Helvetica,sans-Serif" font-size="10.00">ubt_ee</text>
<text text-anchor="middle" x="138.5" y="-52" font-family="Helvetica,sans-Serif" font-size="10.00">ubt_ww</text>
<text text-anchor="middle" x="138.5" y="-41" font-family="Helvetica,sans-Serif" font-size="10.00">...</text>
</g>
</g>
</svg>
