<?xml version="1.0" encoding="UTF-8" standalone="no"?>
<!DOCTYPE svg PUBLIC "-//W3C//DTD SVG 1.1//EN"
 "http://www.w3.org/Graphics/SVG/1.1/DTD/svg11.dtd">
<!-- Generated by graphviz version 2.38.0 (20140413.2041)
 -->
<!-- Title: ppm_functions::ppm_boundary_extrapolation Pages: 1 -->
<svg width="1092pt" height="263pt"
 viewBox="0.00 0.00 1092.00 262.50" xmlns="http://www.w3.org/2000/svg" xmlns:xlink="http://www.w3.org/1999/xlink">
<g id="graph0" class="graph" transform="scale(1 1) rotate(0) translate(4 258.5)">
<title>ppm_functions::ppm_boundary_extrapolation</title>
<polygon fill="white" stroke="none" points="-4,4 -4,-258.5 1088,-258.5 1088,4 -4,4"/>
<!-- Node1 -->
<g id="node1" class="node"><title>Node1</title>
<polygon fill="#bfbfbf" stroke="black" points="0,-33 0,-63 105,-63 105,-33 0,-33"/>
<text text-anchor="start" x="8" y="-51" font-family="Helvetica,sans-Serif" font-size="10.00">ppm_functions::ppm</text>
<text text-anchor="middle" x="52.5" y="-40" font-family="Helvetica,sans-Serif" font-size="10.00">_boundary_extrapolation</text>
</g>
<!-- Node2 -->
<g id="node2" class="node"><title>Node2</title>
<g id="a_node2"><a xlink:href="../../d6/d75/namespacemom__remapping.html#a07d7276310f329f56560a1290bcb8b0a" target="_top" xlink:title="Creates polynomial reconstructions of u0 on the source grid h0. ">
<polygon fill="white" stroke="black" points="162,-77 162,-107 260,-107 260,-77 162,-77"/>
<text text-anchor="start" x="170" y="-95" font-family="Helvetica,sans-Serif" font-size="10.00">mom_remapping::build</text>
<text text-anchor="middle" x="211" y="-84" font-family="Helvetica,sans-Serif" font-size="10.00">_reconstructions_1d</text>
</a>
</g>
</g>
<!-- Node1&#45;&gt;Node2 -->
<g id="edge1" class="edge"><title>Node1&#45;&gt;Node2</title>
<path fill="none" stroke="midnightblue" d="M115.201,-65.3474C130.695,-69.7033 147.095,-74.3144 161.82,-78.4543"/>
<polygon fill="midnightblue" stroke="midnightblue" points="115.752,-61.8665 105.178,-62.5292 113.857,-68.6052 115.752,-61.8665"/>
</g>
<!-- Node15 -->
<g id="node15" class="node"><title>Node15</title>
<g id="a_node15"><a xlink:href="../../d6/d75/namespacemom__remapping.html#a8a79c37c89f8b800f79198aceca5f090" target="_top" xlink:title="Runs unit tests on remapping functions. Should only be called from a single/root thread Returns True ...">
<polygon fill="white" stroke="black" points="473,-33 473,-63 593,-63 593,-33 473,-33"/>
<text text-anchor="start" x="481" y="-51" font-family="Helvetica,sans-Serif" font-size="10.00">mom_remapping::remapping</text>
<text text-anchor="middle" x="533" y="-40" font-family="Helvetica,sans-Serif" font-size="10.00">_unit_tests</text>
</a>
</g>
</g>
<!-- Node1&#45;&gt;Node15 -->
<g id="edge18" class="edge"><title>Node1&#45;&gt;Node15</title>
<path fill="none" stroke="midnightblue" d="M115.227,-48C207.839,-48 381.58,-48 472.732,-48"/>
<polygon fill="midnightblue" stroke="midnightblue" points="115.163,-44.5001 105.163,-48 115.162,-51.5001 115.163,-44.5001"/>
</g>
<!-- Node17 -->
<g id="node17" class="node"><title>Node17</title>
<g id="a_node17"><a xlink:href="../../d7/d73/namespacemom__ale.html#aea1b73dedf1ae5f3db9fa0a6aa6ebaa0" target="_top" xlink:title="Use ppm reconstruction for pressure gradient (determine edge values) By using a PPM (limited piecewis...">
<polygon fill="white" stroke="black" points="141,-0.5 141,-19.5 281,-19.5 281,-0.5 141,-0.5"/>
<text text-anchor="middle" x="211" y="-7.5" font-family="Helvetica,sans-Serif" font-size="10.00">mom_ale::pressure_gradient_ppm</text>
</a>
</g>
</g>
<!-- Node1&#45;&gt;Node17 -->
<g id="edge17" class="edge"><title>Node1&#45;&gt;Node17</title>
<path fill="none" stroke="midnightblue" d="M115.126,-33.0365C133.866,-28.4863 153.939,-23.6123 170.774,-19.5246"/>
<polygon fill="midnightblue" stroke="midnightblue" points="114.069,-29.6913 105.178,-35.4521 115.721,-36.4936 114.069,-29.6913"/>
</g>
<!-- Node3 -->
<g id="node3" class="node"><title>Node3</title>
<g id="a_node3"><a xlink:href="../../d6/d75/namespacemom__remapping.html#a6d1533ffa647f3305aba055e2685b095" target="_top" xlink:title="Remaps column of values u0 on grid h0 to grid h1 assuming the top edge is aligned. ">
<polygon fill="white" stroke="black" points="317,-128 317,-158 437,-158 437,-128 317,-128"/>
<text text-anchor="start" x="325" y="-146" font-family="Helvetica,sans-Serif" font-size="10.00">mom_remapping::remapping</text>
<text text-anchor="middle" x="377" y="-135" font-family="Helvetica,sans-Serif" font-size="10.00">_core_h</text>
</a>
</g>
</g>
<!-- Node2&#45;&gt;Node3 -->
<g id="edge2" class="edge"><title>Node2&#45;&gt;Node3</title>
<path fill="none" stroke="midnightblue" d="M270.003,-110.038C288.893,-115.912 309.647,-122.366 327.744,-127.994"/>
<polygon fill="midnightblue" stroke="midnightblue" points="270.907,-106.653 260.318,-107.026 268.828,-113.338 270.907,-106.653"/>
</g>
<!-- Node14 -->
<g id="node14" class="node"><title>Node14</title>
<g id="a_node14"><a xlink:href="../../d6/d75/namespacemom__remapping.html#a8b967872b8db2ac7d538991f7f255e56" target="_top" xlink:title="Remaps column of values u0 on grid h0 to implied grid h1 where the interfaces of h1 differ from those...">
<polygon fill="white" stroke="black" points="317,-77 317,-107 437,-107 437,-77 317,-77"/>
<text text-anchor="start" x="325" y="-95" font-family="Helvetica,sans-Serif" font-size="10.00">mom_remapping::remapping</text>
<text text-anchor="middle" x="377" y="-84" font-family="Helvetica,sans-Serif" font-size="10.00">_core_w</text>
</a>
</g>
</g>
<!-- Node2&#45;&gt;Node14 -->
<g id="edge13" class="edge"><title>Node2&#45;&gt;Node14</title>
<path fill="none" stroke="midnightblue" d="M270.551,-92C285.639,-92 301.884,-92 316.995,-92"/>
<polygon fill="midnightblue" stroke="midnightblue" points="270.318,-88.5001 260.318,-92 270.318,-95.5001 270.318,-88.5001"/>
</g>
<!-- Node4 -->
<g id="node4" class="node"><title>Node4</title>
<g id="a_node4"><a xlink:href="../../de/dd7/namespacemom__ale__sponge.html#a8f6e6db99f860b048a58e97e58c101a6" target="_top" xlink:title="This subroutine applies damping to the layers thicknesses, temp, salt and a variety of tracers for ev...">
<polygon fill="white" stroke="black" points="481,-202 481,-232 585,-232 585,-202 481,-202"/>
<text text-anchor="start" x="489" y="-220" font-family="Helvetica,sans-Serif" font-size="10.00">mom_ale_sponge::apply</text>
<text text-anchor="middle" x="533" y="-209" font-family="Helvetica,sans-Serif" font-size="10.00">_ale_sponge</text>
</a>
</g>
</g>
<!-- Node3&#45;&gt;Node4 -->
<g id="edge3" class="edge"><title>Node3&#45;&gt;Node4</title>
<path fill="none" stroke="midnightblue" d="M418.662,-162.539C444.374,-174.894 477.1,-190.62 500.77,-201.993"/>
<polygon fill="midnightblue" stroke="midnightblue" points="420.065,-159.33 409.536,-158.154 417.033,-165.639 420.065,-159.33"/>
</g>
<!-- Node6 -->
<g id="node6" class="node"><title>Node6</title>
<g id="a_node6"><a xlink:href="../../d6/d62/namespacemom__state__initialization.html#a71ee3c056ca59c1c3529a4ec22e09fe3" target="_top" xlink:title="Adjust the layer thicknesses by cutting away the top at the depth where the hydrostatic pressure matc...">
<polygon fill="white" stroke="black" points="482.5,-131 482.5,-161 583.5,-161 583.5,-131 482.5,-131"/>
<text text-anchor="start" x="490.5" y="-149" font-family="Helvetica,sans-Serif" font-size="10.00">mom_state_initialization</text>
<text text-anchor="middle" x="533" y="-138" font-family="Helvetica,sans-Serif" font-size="10.00">::cut_off_column_top</text>
</a>
</g>
</g>
<!-- Node3&#45;&gt;Node6 -->
<g id="edge5" class="edge"><title>Node3&#45;&gt;Node6</title>
<path fill="none" stroke="midnightblue" d="M447.365,-144.351C459.149,-144.581 471.173,-144.815 482.32,-145.032"/>
<polygon fill="midnightblue" stroke="midnightblue" points="447.166,-140.847 437.1,-144.151 447.03,-147.845 447.166,-140.847"/>
</g>
<!-- Node12 -->
<g id="node12" class="node"><title>Node12</title>
<g id="a_node12"><a xlink:href="../../d9/d06/namespacemom__diag__mediator.html#ab5e628e0b8acd96234fab33d0fae2161" target="_top" xlink:title="Remap diagnostic field to z&#45;star vertical grid. ">
<polygon fill="white" stroke="black" points="485.5,-82 485.5,-112 580.5,-112 580.5,-82 485.5,-82"/>
<text text-anchor="start" x="493.5" y="-100" font-family="Helvetica,sans-Serif" font-size="10.00">mom_diag_mediator::</text>
<text text-anchor="middle" x="533" y="-89" font-family="Helvetica,sans-Serif" font-size="10.00">remap_diag_to_z</text>
</a>
</g>
</g>
<!-- Node3&#45;&gt;Node12 -->
<g id="edge11" class="edge"><title>Node3&#45;&gt;Node12</title>
<path fill="none" stroke="midnightblue" d="M438.057,-125.061C453.771,-120.367 470.476,-115.377 485.374,-110.927"/>
<polygon fill="midnightblue" stroke="midnightblue" points="437.005,-121.722 428.425,-127.938 439.009,-128.429 437.005,-121.722"/>
</g>
<!-- Node5 -->
<g id="node5" class="node"><title>Node5</title>
<g id="a_node5"><a xlink:href="../../d8/df3/namespacemom__diabatic__driver.html#a61e57d3902367aa46aa3c2d949ee900f" target="_top" xlink:title="This subroutine imposes the diapycnal mass fluxes and the accompanying diapycnal advection of momentu...">
<polygon fill="white" stroke="black" points="634,-224 634,-254 725,-254 725,-224 634,-224"/>
<text text-anchor="start" x="642" y="-242" font-family="Helvetica,sans-Serif" font-size="10.00">mom_diabatic_driver</text>
<text text-anchor="middle" x="679.5" y="-231" font-family="Helvetica,sans-Serif" font-size="10.00">::diabatic</text>
</a>
</g>
</g>
<!-- Node4&#45;&gt;Node5 -->
<g id="edge4" class="edge"><title>Node4&#45;&gt;Node5</title>
<path fill="none" stroke="midnightblue" d="M595.473,-226.359C608.254,-228.305 621.496,-230.321 633.55,-232.156"/>
<polygon fill="midnightblue" stroke="midnightblue" points="595.765,-222.863 585.352,-224.818 594.711,-229.784 595.765,-222.863"/>
</g>
<!-- Node7 -->
<g id="node7" class="node"><title>Node7</title>
<g id="a_node7"><a xlink:href="../../d6/d62/namespacemom__state__initialization.html#a5c77bf2b0ea9d28e28b661a2a42d3f88" target="_top" xlink:title="Run simple unit tests. ">
<polygon fill="white" stroke="black" points="629,-175 629,-205 730,-205 730,-175 629,-175"/>
<text text-anchor="start" x="637" y="-193" font-family="Helvetica,sans-Serif" font-size="10.00">mom_state_initialization</text>
<text text-anchor="middle" x="679.5" y="-182" font-family="Helvetica,sans-Serif" font-size="10.00">::mom_state_init_tests</text>
</a>
</g>
</g>
<!-- Node6&#45;&gt;Node7 -->
<g id="edge6" class="edge"><title>Node6&#45;&gt;Node7</title>
<path fill="none" stroke="midnightblue" d="M593.156,-164.013C605.032,-167.629 617.396,-171.394 628.907,-174.899"/>
<polygon fill="midnightblue" stroke="midnightblue" points="593.91,-160.584 583.325,-161.019 591.871,-167.28 593.91,-160.584"/>
</g>
<!-- Node8 -->
<g id="node8" class="node"><title>Node8</title>
<g id="a_node8"><a xlink:href="../../d6/d62/namespacemom__state__initialization.html#acc1029776c1bdda2862ed0f95c8dc640" target="_top" xlink:title="Adjust the layer thicknesses by cutting away the top of each model column at the depth where the hydr...">
<polygon fill="white" stroke="black" points="629,-126 629,-156 730,-156 730,-126 629,-126"/>
<text text-anchor="start" x="637" y="-144" font-family="Helvetica,sans-Serif" font-size="10.00">mom_state_initialization</text>
<text text-anchor="middle" x="679.5" y="-133" font-family="Helvetica,sans-Serif" font-size="10.00">::trim_for_ice</text>
</a>
</g>
</g>
<!-- Node6&#45;&gt;Node8 -->
<g id="edge7" class="edge"><title>Node6&#45;&gt;Node8</title>
<path fill="none" stroke="midnightblue" d="M593.782,-143.931C605.388,-143.53 617.436,-143.113 628.68,-142.724"/>
<polygon fill="midnightblue" stroke="midnightblue" points="593.602,-140.435 583.729,-144.279 593.844,-147.431 593.602,-140.435"/>
</g>
<!-- Node9 -->
<g id="node9" class="node"><title>Node9</title>
<g id="a_node9"><a xlink:href="../../d6/d62/namespacemom__state__initialization.html#af4e854627c6572332ba3fd895f169321" target="_top" xlink:title="mom_state_initialization\l::mom_initialize_state">
<polygon fill="white" stroke="black" points="766,-113 766,-143 867,-143 867,-113 766,-113"/>
<text text-anchor="start" x="774" y="-131" font-family="Helvetica,sans-Serif" font-size="10.00">mom_state_initialization</text>
<text text-anchor="middle" x="816.5" y="-120" font-family="Helvetica,sans-Serif" font-size="10.00">::mom_initialize_state</text>
</a>
</g>
</g>
<!-- Node8&#45;&gt;Node9 -->
<g id="edge8" class="edge"><title>Node8&#45;&gt;Node9</title>
<path fill="none" stroke="midnightblue" d="M740.207,-135.25C748.67,-134.435 757.299,-133.605 765.552,-132.81"/>
<polygon fill="midnightblue" stroke="midnightblue" points="739.621,-131.791 730.002,-136.233 740.292,-138.758 739.621,-131.791"/>
</g>
<!-- Node10 -->
<g id="node10" class="node"><title>Node10</title>
<g id="a_node10"><a xlink:href="../../da/d01/namespacemom.html#afebdc0103ad9cbe0ed4a54e522dc4104" target="_top" xlink:title="This subroutine initializes MOM. ">
<polygon fill="white" stroke="black" points="903,-90.5 903,-109.5 992,-109.5 992,-90.5 903,-90.5"/>
<text text-anchor="middle" x="947.5" y="-97.5" font-family="Helvetica,sans-Serif" font-size="10.00">mom::initialize_mom</text>
</a>
</g>
</g>
<!-- Node9&#45;&gt;Node10 -->
<g id="edge9" class="edge"><title>Node9&#45;&gt;Node10</title>
<path fill="none" stroke="midnightblue" d="M876.805,-115.128C885.564,-113.226 894.451,-111.297 902.815,-109.482"/>
<polygon fill="midnightblue" stroke="midnightblue" points="876.036,-111.713 867.006,-117.255 877.521,-118.554 876.036,-111.713"/>
</g>
<!-- Node11 -->
<g id="node11" class="node"><title>Node11</title>
<g id="a_node11"><a xlink:href="../../de/dbc/MOM__driver_8F90.html#a08fffeb2d8e8acbf9ed4609be6d258c6" target="_top" xlink:title="mom_main">
<polygon fill="white" stroke="black" points="1028,-90.5 1028,-109.5 1084,-109.5 1084,-90.5 1028,-90.5"/>
<text text-anchor="middle" x="1056" y="-97.5" font-family="Helvetica,sans-Serif" font-size="10.00">mom_main</text>
</a>
</g>
</g>
<!-- Node10&#45;&gt;Node11 -->
<g id="edge10" class="edge"><title>Node10&#45;&gt;Node11</title>
<path fill="none" stroke="midnightblue" d="M1002.41,-100C1011.21,-100 1019.98,-100 1027.77,-100"/>
<polygon fill="midnightblue" stroke="midnightblue" points="1002.12,-96.5001 992.125,-100 1002.12,-103.5 1002.12,-96.5001"/>
</g>
<!-- Node13 -->
<g id="node13" class="node"><title>Node13</title>
<g id="a_node13"><a xlink:href="../../d9/d06/namespacemom__diag__mediator.html#adb1030a0216c52dd0d25bd67a5b31868" target="_top" xlink:title="mom_diag_mediator::\lpost_data_3d">
<polygon fill="white" stroke="black" points="632,-77 632,-107 727,-107 727,-77 632,-77"/>
<text text-anchor="start" x="640" y="-95" font-family="Helvetica,sans-Serif" font-size="10.00">mom_diag_mediator::</text>
<text text-anchor="middle" x="679.5" y="-84" font-family="Helvetica,sans-Serif" font-size="10.00">post_data_3d</text>
</a>
</g>
</g>
<!-- Node12&#45;&gt;Node13 -->
<g id="edge12" class="edge"><title>Node12&#45;&gt;Node13</title>
<path fill="none" stroke="midnightblue" d="M590.687,-95.0385C604.227,-94.57 618.532,-94.075 631.576,-93.6237"/>
<polygon fill="midnightblue" stroke="midnightblue" points="590.389,-91.5466 580.516,-95.3904 590.631,-98.5424 590.389,-91.5466"/>
</g>
<!-- Node14&#45;&gt;Node15 -->
<g id="edge14" class="edge"><title>Node14&#45;&gt;Node15</title>
<path fill="none" stroke="midnightblue" d="M440.341,-74.1882C453.303,-70.485 466.839,-66.6173 479.408,-63.0262"/>
<polygon fill="midnightblue" stroke="midnightblue" points="439.221,-70.8681 430.567,-76.9808 441.144,-77.5988 439.221,-70.8681"/>
</g>
<!-- Node16 -->
<g id="node16" class="node"><title>Node16</title>
<g id="a_node16"><a xlink:href="../../da/d01/namespacemom.html#ae77cfd2e790f1266b31d93c58659d46c" target="_top" xlink:title="Calls unit tests for other modules. These are NOT normally invoked and so we provide the module use s...">
<polygon fill="white" stroke="black" points="780,-62.5 780,-81.5 853,-81.5 853,-62.5 780,-62.5"/>
<text text-anchor="middle" x="816.5" y="-69.5" font-family="Helvetica,sans-Serif" font-size="10.00">mom::unit_tests</text>
</a>
</g>
</g>
<!-- Node15&#45;&gt;Node16 -->
<g id="edge15" class="edge"><title>Node15&#45;&gt;Node16</title>
<path fill="none" stroke="midnightblue" d="M603.194,-53.8993C659.07,-58.6632 735.444,-65.1746 779.721,-68.9495"/>
<polygon fill="midnightblue" stroke="midnightblue" points="603.273,-50.3934 593.012,-53.0312 602.678,-57.3681 603.273,-50.3934"/>
</g>
<!-- Node16&#45;&gt;Node10 -->
<g id="edge16" class="edge"><title>Node16&#45;&gt;Node10</title>
<path fill="none" stroke="midnightblue" d="M863.137,-81.9057C876.012,-84.7004 889.987,-87.7337 902.749,-90.5037"/>
<polygon fill="midnightblue" stroke="midnightblue" points="863.606,-78.4261 853.091,-79.7252 862.121,-85.2668 863.606,-78.4261"/>
</g>
</g>
</svg>
