<?xml version="1.0" encoding="UTF-8" standalone="no"?>
<!DOCTYPE svg PUBLIC "-//W3C//DTD SVG 1.1//EN"
 "http://www.w3.org/Graphics/SVG/1.1/DTD/svg11.dtd">
<!-- Generated by graphviz version 2.38.0 (20140413.2041)
 -->
<!-- Title: ppm_functions::ppm_limiter_standard Pages: 1 -->
<svg width="1239pt" height="335pt"
 viewBox="0.00 0.00 1239.00 334.50" xmlns="http://www.w3.org/2000/svg" xmlns:xlink="http://www.w3.org/1999/xlink">
<g id="graph0" class="graph" transform="scale(1 1) rotate(0) translate(4 330.5)">
<title>ppm_functions::ppm_limiter_standard</title>
<polygon fill="white" stroke="none" points="-4,4 -4,-330.5 1235,-330.5 1235,4 -4,4"/>
<!-- Node25 -->
<g id="node1" class="node"><title>Node25</title>
<polygon fill="#bfbfbf" stroke="black" points="0,-64 0,-94 105,-94 105,-64 0,-64"/>
<text text-anchor="start" x="8" y="-82" font-family="Helvetica,sans-Serif" font-size="10.00">ppm_functions::ppm</text>
<text text-anchor="middle" x="52.5" y="-71" font-family="Helvetica,sans-Serif" font-size="10.00">_limiter_standard</text>
</g>
<!-- Node26 -->
<g id="node2" class="node"><title>Node26</title>
<g id="a_node2"><a xlink:href="../../d1/de6/namespaceppm__functions.html#a97e2144c7499aacd90858788f1312432" target="_top" xlink:title="Builds quadratic polynomials coefficients from cell mean and edge values. ">
<polygon fill="white" stroke="black" points="141,-64 141,-94 246,-94 246,-64 141,-64"/>
<text text-anchor="start" x="149" y="-82" font-family="Helvetica,sans-Serif" font-size="10.00">ppm_functions::ppm</text>
<text text-anchor="middle" x="193.5" y="-71" font-family="Helvetica,sans-Serif" font-size="10.00">_reconstruction</text>
</a>
</g>
</g>
<!-- Node25&#45;&gt;Node26 -->
<g id="edge1" class="edge"><title>Node25&#45;&gt;Node26</title>
<path fill="none" stroke="midnightblue" d="M115.441,-79C123.878,-79 132.466,-79 140.698,-79"/>
<polygon fill="midnightblue" stroke="midnightblue" points="115.259,-75.5001 105.258,-79 115.258,-82.5001 115.259,-75.5001"/>
</g>
<!-- Node27 -->
<g id="node3" class="node"><title>Node27</title>
<g id="a_node3"><a xlink:href="../../d7/d73/namespacemom__ale.html#aea1b73dedf1ae5f3db9fa0a6aa6ebaa0" target="_top" xlink:title="Use ppm reconstruction for pressure gradient (determine edge values) By using a PPM (limited piecewis...">
<polygon fill="white" stroke="black" points="282,-113.5 282,-132.5 446,-132.5 446,-113.5 282,-113.5"/>
<text text-anchor="middle" x="364" y="-120.5" font-family="Helvetica,sans-Serif" font-size="10.00">mom_ale::pressure_gradient_ppm</text>
</a>
</g>
</g>
<!-- Node26&#45;&gt;Node27 -->
<g id="edge2" class="edge"><title>Node26&#45;&gt;Node27</title>
<path fill="none" stroke="midnightblue" d="M256.01,-96.0847C264.726,-98.4433 273.583,-100.807 282,-103 295.456,-106.506 310.211,-110.195 323.398,-113.437"/>
<polygon fill="midnightblue" stroke="midnightblue" points="256.83,-92.6804 246.261,-93.4334 254.992,-99.4351 256.83,-92.6804"/>
</g>
<!-- Node28 -->
<g id="node4" class="node"><title>Node28</title>
<g id="a_node4"><a xlink:href="../../d6/d75/namespacemom__remapping.html#a07d7276310f329f56560a1290bcb8b0a" target="_top" xlink:title="Creates polynomial reconstructions of u0 on the source grid h0. ">
<polygon fill="white" stroke="black" points="306.5,-64 306.5,-94 421.5,-94 421.5,-64 306.5,-64"/>
<text text-anchor="start" x="314.5" y="-82" font-family="Helvetica,sans-Serif" font-size="10.00">mom_remapping::build</text>
<text text-anchor="middle" x="364" y="-71" font-family="Helvetica,sans-Serif" font-size="10.00">_reconstructions_1d</text>
</a>
</g>
</g>
<!-- Node26&#45;&gt;Node28 -->
<g id="edge3" class="edge"><title>Node26&#45;&gt;Node28</title>
<path fill="none" stroke="midnightblue" d="M256.869,-79C273.049,-79 290.385,-79 306.258,-79"/>
<polygon fill="midnightblue" stroke="midnightblue" points="256.43,-75.5001 246.43,-79 256.43,-82.5001 256.43,-75.5001"/>
</g>
<!-- Node44 -->
<g id="node20" class="node"><title>Node44</title>
<g id="a_node20"><a xlink:href="../../d6/d75/namespacemom__remapping.html#a8a79c37c89f8b800f79198aceca5f090" target="_top" xlink:title="Runs unit tests on remapping functions. Should only be called from a single/root thread Returns True ...">
<polygon fill="white" stroke="black" points="658,-20 658,-50 798,-50 798,-20 658,-20"/>
<text text-anchor="start" x="666" y="-38" font-family="Helvetica,sans-Serif" font-size="10.00">mom_remapping::remapping</text>
<text text-anchor="middle" x="728" y="-27" font-family="Helvetica,sans-Serif" font-size="10.00">_unit_tests</text>
</a>
</g>
</g>
<!-- Node26&#45;&gt;Node44 -->
<g id="edge23" class="edge"><title>Node26&#45;&gt;Node44</title>
<path fill="none" stroke="midnightblue" d="M249.175,-61.2462C259.953,-58.354 271.253,-55.7396 282,-54 413.676,-32.6847 569.947,-31.4683 657.882,-32.9424"/>
<polygon fill="midnightblue" stroke="midnightblue" points="248.143,-57.9003 239.455,-63.9632 250.028,-64.6419 248.143,-57.9003"/>
</g>
<!-- Node29 -->
<g id="node5" class="node"><title>Node29</title>
<g id="a_node5"><a xlink:href="../../d6/d75/namespacemom__remapping.html#a6d1533ffa647f3305aba055e2685b095" target="_top" xlink:title="Remaps column of values u0 on grid h0 to grid h1 assuming the top edge is aligned. ">
<polygon fill="white" stroke="black" points="482,-149 482,-179 622,-179 622,-149 482,-149"/>
<text text-anchor="start" x="490" y="-167" font-family="Helvetica,sans-Serif" font-size="10.00">mom_remapping::remapping</text>
<text text-anchor="middle" x="552" y="-156" font-family="Helvetica,sans-Serif" font-size="10.00">_core_h</text>
</a>
</g>
</g>
<!-- Node28&#45;&gt;Node29 -->
<g id="edge4" class="edge"><title>Node28&#45;&gt;Node29</title>
<path fill="none" stroke="midnightblue" d="M429.272,-97.4005C434.989,-99.4679 440.637,-101.674 446,-104 475.47,-116.783 507.22,-135.718 527.997,-148.885"/>
<polygon fill="midnightblue" stroke="midnightblue" points="430.221,-94.0251 419.626,-94.0557 427.928,-100.639 430.221,-94.0251"/>
</g>
<!-- Node43 -->
<g id="node19" class="node"><title>Node43</title>
<g id="a_node19"><a xlink:href="../../d6/d75/namespacemom__remapping.html#a8b967872b8db2ac7d538991f7f255e56" target="_top" xlink:title="Remaps column of values u0 on grid h0 to implied grid h1 where the interfaces of h1 differ from those...">
<polygon fill="white" stroke="black" points="482,-64 482,-94 622,-94 622,-64 482,-64"/>
<text text-anchor="start" x="490" y="-82" font-family="Helvetica,sans-Serif" font-size="10.00">mom_remapping::remapping</text>
<text text-anchor="middle" x="552" y="-71" font-family="Helvetica,sans-Serif" font-size="10.00">_core_w</text>
</a>
</g>
</g>
<!-- Node28&#45;&gt;Node43 -->
<g id="edge18" class="edge"><title>Node28&#45;&gt;Node43</title>
<path fill="none" stroke="midnightblue" d="M431.567,-79C447.912,-79 465.446,-79 481.907,-79"/>
<polygon fill="midnightblue" stroke="midnightblue" points="431.564,-75.5001 421.564,-79 431.564,-82.5001 431.564,-75.5001"/>
</g>
<!-- Node30 -->
<g id="node6" class="node"><title>Node30</title>
<g id="a_node6"><a xlink:href="../../de/dd7/namespacemom__ale__sponge.html#a8f6e6db99f860b048a58e97e58c101a6" target="_top" xlink:title="This subroutine applies damping to the layers thicknesses, temp, salt and a variety of tracers for ev...">
<polygon fill="white" stroke="black" points="667,-271 667,-301 789,-301 789,-271 667,-271"/>
<text text-anchor="start" x="675" y="-289" font-family="Helvetica,sans-Serif" font-size="10.00">mom_ale_sponge::apply</text>
<text text-anchor="middle" x="728" y="-278" font-family="Helvetica,sans-Serif" font-size="10.00">_ale_sponge</text>
</a>
</g>
</g>
<!-- Node29&#45;&gt;Node30 -->
<g id="edge5" class="edge"><title>Node29&#45;&gt;Node30</title>
<path fill="none" stroke="midnightblue" d="M583.072,-185.085C618.026,-209.593 674.835,-249.425 705.588,-270.987"/>
<polygon fill="midnightblue" stroke="midnightblue" points="584.883,-182.08 574.685,-179.205 580.864,-187.811 584.883,-182.08"/>
</g>
<!-- Node32 -->
<g id="node8" class="node"><title>Node32</title>
<g id="a_node8"><a xlink:href="../../d6/d62/namespacemom__state__initialization.html#a71ee3c056ca59c1c3529a4ec22e09fe3" target="_top" xlink:title="Adjust the layer thicknesses by cutting away the top at the depth where the hydrostatic pressure matc...">
<polygon fill="white" stroke="black" points="667,-198 667,-228 789,-228 789,-198 667,-198"/>
<text text-anchor="start" x="675" y="-216" font-family="Helvetica,sans-Serif" font-size="10.00">mom_state_initialization</text>
<text text-anchor="middle" x="728" y="-205" font-family="Helvetica,sans-Serif" font-size="10.00">::cut_off_column_top</text>
</a>
</g>
</g>
<!-- Node29&#45;&gt;Node32 -->
<g id="edge7" class="edge"><title>Node29&#45;&gt;Node32</title>
<path fill="none" stroke="midnightblue" d="M616.284,-181.821C635.07,-187.112 655.455,-192.852 673.552,-197.948"/>
<polygon fill="midnightblue" stroke="midnightblue" points="617.2,-178.443 606.626,-179.101 615.302,-185.181 617.2,-178.443"/>
</g>
<!-- Node36 -->
<g id="node12" class="node"><title>Node36</title>
<g id="a_node12"><a xlink:href="../../d9/d06/namespacemom__diag__mediator.html#ab5e628e0b8acd96234fab33d0fae2161" target="_top" xlink:title="Remap diagnostic field to z&#45;star vertical grid. ">
<polygon fill="white" stroke="black" points="673,-149 673,-179 783,-179 783,-149 673,-149"/>
<text text-anchor="start" x="681" y="-167" font-family="Helvetica,sans-Serif" font-size="10.00">mom_diag_mediator::</text>
<text text-anchor="middle" x="728" y="-156" font-family="Helvetica,sans-Serif" font-size="10.00">remap_diag_to_z</text>
</a>
</g>
</g>
<!-- Node29&#45;&gt;Node36 -->
<g id="edge11" class="edge"><title>Node29&#45;&gt;Node36</title>
<path fill="none" stroke="midnightblue" d="M632.405,-164C646.081,-164 660.009,-164 672.824,-164"/>
<polygon fill="midnightblue" stroke="midnightblue" points="632.019,-160.5 622.019,-164 632.019,-167.5 632.019,-160.5"/>
</g>
<!-- Node38 -->
<g id="node14" class="node"><title>Node38</title>
<g id="a_node14"><a xlink:href="../../dd/d33/namespacemom__wave__speed.html#a72302e356c47c5055ba0b1a8714c772a" target="_top" xlink:title="Calculates the wave speed of the first baroclinic mode. ">
<polygon fill="white" stroke="black" points="664,-94 664,-124 792,-124 792,-94 664,-94"/>
<text text-anchor="start" x="672" y="-112" font-family="Helvetica,sans-Serif" font-size="10.00">mom_wave_speed::wave</text>
<text text-anchor="middle" x="728" y="-101" font-family="Helvetica,sans-Serif" font-size="10.00">_speed</text>
</a>
</g>
</g>
<!-- Node29&#45;&gt;Node38 -->
<g id="edge13" class="edge"><title>Node29&#45;&gt;Node38</title>
<path fill="none" stroke="midnightblue" d="M610.283,-145.893C632.71,-138.804 658.132,-130.769 679.511,-124.011"/>
<polygon fill="midnightblue" stroke="midnightblue" points="609.026,-142.62 600.546,-148.971 611.136,-149.294 609.026,-142.62"/>
</g>
<!-- Node31 -->
<g id="node7" class="node"><title>Node31</title>
<g id="a_node7"><a xlink:href="../../d8/df3/namespacemom__diabatic__driver.html#a61e57d3902367aa46aa3c2d949ee900f" target="_top" xlink:title="This subroutine imposes the diapycnal mass fluxes and the accompanying diapycnal advection of momentu...">
<polygon fill="white" stroke="black" points="849.5,-296 849.5,-326 956.5,-326 956.5,-296 849.5,-296"/>
<text text-anchor="start" x="857.5" y="-314" font-family="Helvetica,sans-Serif" font-size="10.00">mom_diabatic_driver</text>
<text text-anchor="middle" x="903" y="-303" font-family="Helvetica,sans-Serif" font-size="10.00">::diabatic</text>
</a>
</g>
</g>
<!-- Node30&#45;&gt;Node31 -->
<g id="edge6" class="edge"><title>Node30&#45;&gt;Node31</title>
<path fill="none" stroke="midnightblue" d="M799.291,-296.158C815.995,-298.571 833.535,-301.106 849.299,-303.384"/>
<polygon fill="midnightblue" stroke="midnightblue" points="799.419,-292.64 789.021,-294.674 798.418,-299.568 799.419,-292.64"/>
</g>
<!-- Node33 -->
<g id="node9" class="node"><title>Node33</title>
<g id="a_node9"><a xlink:href="../../d6/d62/namespacemom__state__initialization.html#a5c77bf2b0ea9d28e28b661a2a42d3f88" target="_top" xlink:title="Run simple unit tests. ">
<polygon fill="white" stroke="black" points="842,-247 842,-277 964,-277 964,-247 842,-247"/>
<text text-anchor="start" x="850" y="-265" font-family="Helvetica,sans-Serif" font-size="10.00">mom_state_initialization</text>
<text text-anchor="middle" x="903" y="-254" font-family="Helvetica,sans-Serif" font-size="10.00">::mom_state_init_tests</text>
</a>
</g>
</g>
<!-- Node32&#45;&gt;Node33 -->
<g id="edge8" class="edge"><title>Node32&#45;&gt;Node33</title>
<path fill="none" stroke="midnightblue" d="M792.177,-230.894C810.785,-236.164 830.948,-241.876 848.859,-246.948"/>
<polygon fill="midnightblue" stroke="midnightblue" points="792.893,-227.459 782.317,-228.101 790.985,-234.194 792.893,-227.459"/>
</g>
<!-- Node34 -->
<g id="node10" class="node"><title>Node34</title>
<g id="a_node10"><a xlink:href="../../d6/d62/namespacemom__state__initialization.html#acc1029776c1bdda2862ed0f95c8dc640" target="_top" xlink:title="Adjust the layer thicknesses by cutting away the top of each model column at the depth where the hydr...">
<polygon fill="white" stroke="black" points="842,-198 842,-228 964,-228 964,-198 842,-198"/>
<text text-anchor="start" x="850" y="-216" font-family="Helvetica,sans-Serif" font-size="10.00">mom_state_initialization</text>
<text text-anchor="middle" x="903" y="-205" font-family="Helvetica,sans-Serif" font-size="10.00">::trim_for_ice</text>
</a>
</g>
</g>
<!-- Node32&#45;&gt;Node34 -->
<g id="edge9" class="edge"><title>Node32&#45;&gt;Node34</title>
<path fill="none" stroke="midnightblue" d="M799.18,-213C813.309,-213 828.04,-213 841.792,-213"/>
<polygon fill="midnightblue" stroke="midnightblue" points="799.022,-209.5 789.021,-213 799.021,-216.5 799.022,-209.5"/>
</g>
<!-- Node35 -->
<g id="node11" class="node"><title>Node35</title>
<g id="a_node11"><a xlink:href="../../d6/d62/namespacemom__state__initialization.html#af4e854627c6572332ba3fd895f169321" target="_top" xlink:title="mom_state_initialization\l::mom_initialize_state">
<polygon fill="white" stroke="black" points="1008,-198 1008,-228 1130,-228 1130,-198 1008,-198"/>
<text text-anchor="start" x="1016" y="-216" font-family="Helvetica,sans-Serif" font-size="10.00">mom_state_initialization</text>
<text text-anchor="middle" x="1069" y="-205" font-family="Helvetica,sans-Serif" font-size="10.00">::mom_initialize_state</text>
</a>
</g>
</g>
<!-- Node34&#45;&gt;Node35 -->
<g id="edge10" class="edge"><title>Node34&#45;&gt;Node35</title>
<path fill="none" stroke="midnightblue" d="M974.296,-213C985.476,-213 996.953,-213 1007.87,-213"/>
<polygon fill="midnightblue" stroke="midnightblue" points="974.136,-209.5 964.136,-213 974.136,-216.5 974.136,-209.5"/>
</g>
<!-- Node37 -->
<g id="node13" class="node"><title>Node37</title>
<g id="a_node13"><a xlink:href="../../d9/d06/namespacemom__diag__mediator.html#adb1030a0216c52dd0d25bd67a5b31868" target="_top" xlink:title="mom_diag_mediator::\lpost_data_3d">
<polygon fill="white" stroke="black" points="848,-149 848,-179 958,-179 958,-149 848,-149"/>
<text text-anchor="start" x="856" y="-167" font-family="Helvetica,sans-Serif" font-size="10.00">mom_diag_mediator::</text>
<text text-anchor="middle" x="903" y="-156" font-family="Helvetica,sans-Serif" font-size="10.00">post_data_3d</text>
</a>
</g>
</g>
<!-- Node36&#45;&gt;Node37 -->
<g id="edge12" class="edge"><title>Node36&#45;&gt;Node37</title>
<path fill="none" stroke="midnightblue" d="M793.362,-164C811.316,-164 830.634,-164 847.929,-164"/>
<polygon fill="midnightblue" stroke="midnightblue" points="793.264,-160.5 783.264,-164 793.264,-167.5 793.264,-160.5"/>
</g>
<!-- Node39 -->
<g id="node15" class="node"><title>Node39</title>
<g id="a_node15"><a xlink:href="../../d0/d86/namespacemom__lateral__mixing__coeffs.html#af206bc656869b4fc27d4d7e8a15d438e" target="_top" xlink:title="Calculates and stores the non&#45;dimensional resolution functions. ">
<polygon fill="white" stroke="black" points="851,-88.5 851,-129.5 955,-129.5 955,-88.5 851,-88.5"/>
<text text-anchor="start" x="859" y="-117.5" font-family="Helvetica,sans-Serif" font-size="10.00">mom_lateral_mixing</text>
<text text-anchor="start" x="859" y="-106.5" font-family="Helvetica,sans-Serif" font-size="10.00">_coeffs::calc_resoln</text>
<text text-anchor="middle" x="903" y="-95.5" font-family="Helvetica,sans-Serif" font-size="10.00">_function</text>
</a>
</g>
</g>
<!-- Node38&#45;&gt;Node39 -->
<g id="edge14" class="edge"><title>Node38&#45;&gt;Node39</title>
<path fill="none" stroke="midnightblue" d="M802.455,-109C818.71,-109 835.594,-109 850.74,-109"/>
<polygon fill="midnightblue" stroke="midnightblue" points="802.437,-105.5 792.436,-109 802.436,-112.5 802.437,-105.5"/>
</g>
<!-- Node42 -->
<g id="node18" class="node"><title>Node42</title>
<g id="a_node18"><a xlink:href="../../d9/d8b/namespacemom__diagnostics.html#abb6644248c28ab2e952361bfec436063" target="_top" xlink:title="mom_diagnostics::calculate\l_diagnostic_fields">
<polygon fill="white" stroke="black" points="834,-39 834,-69 972,-69 972,-39 834,-39"/>
<text text-anchor="start" x="842" y="-57" font-family="Helvetica,sans-Serif" font-size="10.00">mom_diagnostics::calculate</text>
<text text-anchor="middle" x="903" y="-46" font-family="Helvetica,sans-Serif" font-size="10.00">_diagnostic_fields</text>
</a>
</g>
</g>
<!-- Node38&#45;&gt;Node42 -->
<g id="edge17" class="edge"><title>Node38&#45;&gt;Node42</title>
<path fill="none" stroke="midnightblue" d="M785.954,-90.8933C808.252,-83.8042 833.527,-75.7687 854.784,-69.0108"/>
<polygon fill="midnightblue" stroke="midnightblue" points="784.743,-87.6057 776.273,-93.971 786.863,-94.2767 784.743,-87.6057"/>
</g>
<!-- Node40 -->
<g id="node16" class="node"><title>Node40</title>
<g id="a_node16"><a xlink:href="../../da/d01/namespacemom.html#a4c8332b095c6d295084089aa6b3b678a" target="_top" xlink:title="This subroutine orchestrates the time stepping of MOM. The adiabatic dynamics are stepped by calls to...">
<polygon fill="white" stroke="black" points="1024,-69.5 1024,-88.5 1114,-88.5 1114,-69.5 1024,-69.5"/>
<text text-anchor="middle" x="1069" y="-76.5" font-family="Helvetica,sans-Serif" font-size="10.00">mom::step_mom</text>
</a>
</g>
</g>
<!-- Node39&#45;&gt;Node40 -->
<g id="edge15" class="edge"><title>Node39&#45;&gt;Node40</title>
<path fill="none" stroke="midnightblue" d="M965.43,-97.7628C984.868,-94.2071 1005.95,-90.3498 1023.92,-87.0626"/>
<polygon fill="midnightblue" stroke="midnightblue" points="964.648,-94.3478 955.441,-99.5901 965.907,-101.234 964.648,-94.3478"/>
</g>
<!-- Node41 -->
<g id="node17" class="node"><title>Node41</title>
<g id="a_node17"><a xlink:href="../../de/dbc/MOM__driver_8F90.html#a08fffeb2d8e8acbf9ed4609be6d258c6" target="_top" xlink:title="mom_main">
<polygon fill="white" stroke="black" points="1166,-42.5 1166,-61.5 1231,-61.5 1231,-42.5 1166,-42.5"/>
<text text-anchor="middle" x="1198.5" y="-49.5" font-family="Helvetica,sans-Serif" font-size="10.00">mom_main</text>
</a>
</g>
</g>
<!-- Node40&#45;&gt;Node41 -->
<g id="edge16" class="edge"><title>Node40&#45;&gt;Node41</title>
<path fill="none" stroke="midnightblue" d="M1124.37,-67.4855C1138.51,-64.4927 1153.27,-61.3669 1165.8,-58.7137"/>
<polygon fill="midnightblue" stroke="midnightblue" points="1123.29,-64.1366 1114.24,-69.6325 1124.74,-70.9848 1123.29,-64.1366"/>
</g>
<!-- Node43&#45;&gt;Node44 -->
<g id="edge19" class="edge"><title>Node43&#45;&gt;Node44</title>
<path fill="none" stroke="midnightblue" d="M622.147,-61.5145C637.181,-57.7127 652.959,-53.723 667.578,-50.0262"/>
<polygon fill="midnightblue" stroke="midnightblue" points="621.231,-58.1359 612.394,-63.9808 622.947,-64.9223 621.231,-58.1359"/>
</g>
<!-- Node45 -->
<g id="node21" class="node"><title>Node45</title>
<g id="a_node21"><a xlink:href="../../da/d01/namespacemom.html#ae77cfd2e790f1266b31d93c58659d46c" target="_top" xlink:title="Calls unit tests for other modules. These are NOT normally invoked and so we provide the module use s...">
<polygon fill="white" stroke="black" points="859.5,-0.5 859.5,-19.5 946.5,-19.5 946.5,-0.5 859.5,-0.5"/>
<text text-anchor="middle" x="903" y="-7.5" font-family="Helvetica,sans-Serif" font-size="10.00">mom::unit_tests</text>
</a>
</g>
</g>
<!-- Node44&#45;&gt;Node45 -->
<g id="edge20" class="edge"><title>Node44&#45;&gt;Node45</title>
<path fill="none" stroke="midnightblue" d="M808.589,-23.4988C826.057,-20.9744 843.904,-18.3954 859.255,-16.177"/>
<polygon fill="midnightblue" stroke="midnightblue" points="807.765,-20.0813 798.369,-24.9756 808.767,-27.0093 807.765,-20.0813"/>
</g>
<!-- Node46 -->
<g id="node22" class="node"><title>Node46</title>
<g id="a_node22"><a xlink:href="../../da/d01/namespacemom.html#a0be2869fef30e1e0604facfe1b41555d" target="_top" xlink:title="This subroutine initializes MOM. ">
<polygon fill="white" stroke="black" points="1015.5,-16.5 1015.5,-35.5 1122.5,-35.5 1122.5,-16.5 1015.5,-16.5"/>
<text text-anchor="middle" x="1069" y="-23.5" font-family="Helvetica,sans-Serif" font-size="10.00">mom::initialize_mom</text>
</a>
</g>
</g>
<!-- Node45&#45;&gt;Node46 -->
<g id="edge21" class="edge"><title>Node45&#45;&gt;Node46</title>
<path fill="none" stroke="midnightblue" d="M956.793,-15.1505C975.516,-16.9772 996.576,-19.0318 1015.29,-20.8578"/>
<polygon fill="midnightblue" stroke="midnightblue" points="956.954,-11.6497 946.661,-14.162 956.274,-18.6166 956.954,-11.6497"/>
</g>
<!-- Node46&#45;&gt;Node41 -->
<g id="edge22" class="edge"><title>Node46&#45;&gt;Node41</title>
<path fill="none" stroke="midnightblue" d="M1126.87,-37.5976C1140.26,-40.3282 1154.06,-43.1424 1165.87,-45.5506"/>
<polygon fill="midnightblue" stroke="midnightblue" points="1127.25,-34.1026 1116.75,-35.5338 1125.85,-40.9614 1127.25,-34.1026"/>
</g>
</g>
</svg>
