<?xml version="1.0" encoding="UTF-8" standalone="no"?>
<!DOCTYPE svg PUBLIC "-//W3C//DTD SVG 1.1//EN"
 "http://www.w3.org/Graphics/SVG/1.1/DTD/svg11.dtd">
<!-- Generated by graphviz version 2.38.0 (20140413.2041)
 -->
<!-- Title: ppm_functions::ppm_reconstruction Pages: 1 -->
<svg width="1098pt" height="348pt"
 viewBox="0.00 0.00 1098.00 347.50" xmlns="http://www.w3.org/2000/svg" xmlns:xlink="http://www.w3.org/1999/xlink">
<g id="graph0" class="graph" transform="scale(1 1) rotate(0) translate(4 343.5)">
<title>ppm_functions::ppm_reconstruction</title>
<polygon fill="white" stroke="none" points="-4,4 -4,-343.5 1094,-343.5 1094,4 -4,4"/>
<!-- Node51 -->
<g id="node1" class="node"><title>Node51</title>
<polygon fill="#bfbfbf" stroke="black" points="0,-33 0,-63 105,-63 105,-33 0,-33"/>
<text text-anchor="start" x="8" y="-51" font-family="Helvetica,sans-Serif" font-size="10.00">ppm_functions::ppm</text>
<text text-anchor="middle" x="52.5" y="-40" font-family="Helvetica,sans-Serif" font-size="10.00">_reconstruction</text>
</g>
<!-- Node52 -->
<g id="node2" class="node"><title>Node52</title>
<g id="a_node2"><a xlink:href="../../d6/d75/namespacemom__remapping.html#a07d7276310f329f56560a1290bcb8b0a" target="_top" xlink:title="Creates polynomial reconstructions of u0 on the source grid h0. ">
<polygon fill="white" stroke="black" points="165.5,-77 165.5,-107 280.5,-107 280.5,-77 165.5,-77"/>
<text text-anchor="start" x="173.5" y="-95" font-family="Helvetica,sans-Serif" font-size="10.00">mom_remapping::build</text>
<text text-anchor="middle" x="223" y="-84" font-family="Helvetica,sans-Serif" font-size="10.00">_reconstructions_1d</text>
</a>
</g>
</g>
<!-- Node51&#45;&gt;Node52 -->
<g id="edge1" class="edge"><title>Node51&#45;&gt;Node52</title>
<path fill="none" stroke="midnightblue" d="M115.407,-64.1656C131.718,-68.4249 149.234,-72.9987 165.258,-77.1831"/>
<polygon fill="midnightblue" stroke="midnightblue" points="115.99,-60.7007 105.43,-61.5605 114.222,-67.4736 115.99,-60.7007"/>
</g>
<!-- Node68 -->
<g id="node18" class="node"><title>Node68</title>
<g id="a_node18"><a xlink:href="../../d6/d75/namespacemom__remapping.html#a8a79c37c89f8b800f79198aceca5f090" target="_top" xlink:title="Runs unit tests on remapping functions. Should only be called from a single/root thread Returns True ...">
<polygon fill="white" stroke="black" points="517,-33 517,-63 657,-63 657,-33 517,-33"/>
<text text-anchor="start" x="525" y="-51" font-family="Helvetica,sans-Serif" font-size="10.00">mom_remapping::remapping</text>
<text text-anchor="middle" x="587" y="-40" font-family="Helvetica,sans-Serif" font-size="10.00">_unit_tests</text>
</a>
</g>
</g>
<!-- Node51&#45;&gt;Node68 -->
<g id="edge22" class="edge"><title>Node51&#45;&gt;Node68</title>
<path fill="none" stroke="midnightblue" d="M115.299,-48C215.41,-48 412.359,-48 516.943,-48"/>
<polygon fill="midnightblue" stroke="midnightblue" points="115.042,-44.5001 105.042,-48 115.042,-51.5001 115.042,-44.5001"/>
</g>
<!-- Node71 -->
<g id="node21" class="node"><title>Node71</title>
<g id="a_node21"><a xlink:href="../../d7/d73/namespacemom__ale.html#aea1b73dedf1ae5f3db9fa0a6aa6ebaa0" target="_top" xlink:title="Use ppm reconstruction for pressure gradient (determine edge values) By using a PPM (limited piecewis...">
<polygon fill="white" stroke="black" points="141,-0.5 141,-19.5 305,-19.5 305,-0.5 141,-0.5"/>
<text text-anchor="middle" x="223" y="-7.5" font-family="Helvetica,sans-Serif" font-size="10.00">mom_ale::pressure_gradient_ppm</text>
</a>
</g>
</g>
<!-- Node51&#45;&gt;Node71 -->
<g id="edge21" class="edge"><title>Node51&#45;&gt;Node71</title>
<path fill="none" stroke="midnightblue" d="M115.432,-34.0332C136.861,-29.2004 160.367,-23.8993 179.838,-19.5084"/>
<polygon fill="midnightblue" stroke="midnightblue" points="114.415,-30.6744 105.43,-36.2887 115.955,-37.5029 114.415,-30.6744"/>
</g>
<!-- Node53 -->
<g id="node3" class="node"><title>Node53</title>
<g id="a_node3"><a xlink:href="../../d6/d75/namespacemom__remapping.html#a6d1533ffa647f3305aba055e2685b095" target="_top" xlink:title="Remaps column of values u0 on grid h0 to grid h1 assuming the top edge is aligned. ">
<polygon fill="white" stroke="black" points="341,-162 341,-192 481,-192 481,-162 341,-162"/>
<text text-anchor="start" x="349" y="-180" font-family="Helvetica,sans-Serif" font-size="10.00">mom_remapping::remapping</text>
<text text-anchor="middle" x="411" y="-169" font-family="Helvetica,sans-Serif" font-size="10.00">_core_h</text>
</a>
</g>
</g>
<!-- Node52&#45;&gt;Node53 -->
<g id="edge2" class="edge"><title>Node52&#45;&gt;Node53</title>
<path fill="none" stroke="midnightblue" d="M265.924,-111.159C299.479,-126.493 345.892,-147.703 376.878,-161.863"/>
<polygon fill="midnightblue" stroke="midnightblue" points="267.375,-107.974 256.825,-107.001 264.465,-114.34 267.375,-107.974"/>
</g>
<!-- Node67 -->
<g id="node17" class="node"><title>Node67</title>
<g id="a_node17"><a xlink:href="../../d6/d75/namespacemom__remapping.html#a8b967872b8db2ac7d538991f7f255e56" target="_top" xlink:title="Remaps column of values u0 on grid h0 to implied grid h1 where the interfaces of h1 differ from those...">
<polygon fill="white" stroke="black" points="341,-77 341,-107 481,-107 481,-77 341,-77"/>
<text text-anchor="start" x="349" y="-95" font-family="Helvetica,sans-Serif" font-size="10.00">mom_remapping::remapping</text>
<text text-anchor="middle" x="411" y="-84" font-family="Helvetica,sans-Serif" font-size="10.00">_core_w</text>
</a>
</g>
</g>
<!-- Node52&#45;&gt;Node67 -->
<g id="edge16" class="edge"><title>Node52&#45;&gt;Node67</title>
<path fill="none" stroke="midnightblue" d="M290.567,-92C306.912,-92 324.446,-92 340.907,-92"/>
<polygon fill="midnightblue" stroke="midnightblue" points="290.564,-88.5001 280.564,-92 290.564,-95.5001 290.564,-88.5001"/>
</g>
<!-- Node54 -->
<g id="node4" class="node"><title>Node54</title>
<g id="a_node4"><a xlink:href="../../de/dd7/namespacemom__ale__sponge.html#a8f6e6db99f860b048a58e97e58c101a6" target="_top" xlink:title="This subroutine applies damping to the layers thicknesses, temp, salt and a variety of tracers for ev...">
<polygon fill="white" stroke="black" points="526,-284 526,-314 648,-314 648,-284 526,-284"/>
<text text-anchor="start" x="534" y="-302" font-family="Helvetica,sans-Serif" font-size="10.00">mom_ale_sponge::apply</text>
<text text-anchor="middle" x="587" y="-291" font-family="Helvetica,sans-Serif" font-size="10.00">_ale_sponge</text>
</a>
</g>
</g>
<!-- Node53&#45;&gt;Node54 -->
<g id="edge3" class="edge"><title>Node53&#45;&gt;Node54</title>
<path fill="none" stroke="midnightblue" d="M442.072,-198.085C477.026,-222.593 533.835,-262.425 564.588,-283.987"/>
<polygon fill="midnightblue" stroke="midnightblue" points="443.883,-195.08 433.685,-192.205 439.864,-200.811 443.883,-195.08"/>
</g>
<!-- Node56 -->
<g id="node6" class="node"><title>Node56</title>
<g id="a_node6"><a xlink:href="../../d6/d62/namespacemom__state__initialization.html#a71ee3c056ca59c1c3529a4ec22e09fe3" target="_top" xlink:title="Adjust the layer thicknesses by cutting away the top at the depth where the hydrostatic pressure matc...">
<polygon fill="white" stroke="black" points="526,-211 526,-241 648,-241 648,-211 526,-211"/>
<text text-anchor="start" x="534" y="-229" font-family="Helvetica,sans-Serif" font-size="10.00">mom_state_initialization</text>
<text text-anchor="middle" x="587" y="-218" font-family="Helvetica,sans-Serif" font-size="10.00">::cut_off_column_top</text>
</a>
</g>
</g>
<!-- Node53&#45;&gt;Node56 -->
<g id="edge5" class="edge"><title>Node53&#45;&gt;Node56</title>
<path fill="none" stroke="midnightblue" d="M475.284,-194.821C494.07,-200.112 514.455,-205.852 532.552,-210.948"/>
<polygon fill="midnightblue" stroke="midnightblue" points="476.2,-191.443 465.626,-192.101 474.302,-198.181 476.2,-191.443"/>
</g>
<!-- Node60 -->
<g id="node10" class="node"><title>Node60</title>
<g id="a_node10"><a xlink:href="../../d9/d06/namespacemom__diag__mediator.html#ab5e628e0b8acd96234fab33d0fae2161" target="_top" xlink:title="Remap diagnostic field to z&#45;star vertical grid. ">
<polygon fill="white" stroke="black" points="532,-162 532,-192 642,-192 642,-162 532,-162"/>
<text text-anchor="start" x="540" y="-180" font-family="Helvetica,sans-Serif" font-size="10.00">mom_diag_mediator::</text>
<text text-anchor="middle" x="587" y="-169" font-family="Helvetica,sans-Serif" font-size="10.00">remap_diag_to_z</text>
</a>
</g>
</g>
<!-- Node53&#45;&gt;Node60 -->
<g id="edge9" class="edge"><title>Node53&#45;&gt;Node60</title>
<path fill="none" stroke="midnightblue" d="M491.405,-177C505.081,-177 519.009,-177 531.824,-177"/>
<polygon fill="midnightblue" stroke="midnightblue" points="491.019,-173.5 481.019,-177 491.019,-180.5 491.019,-173.5"/>
</g>
<!-- Node62 -->
<g id="node12" class="node"><title>Node62</title>
<g id="a_node12"><a xlink:href="../../dd/d33/namespacemom__wave__speed.html#a72302e356c47c5055ba0b1a8714c772a" target="_top" xlink:title="Calculates the wave speed of the first baroclinic mode. ">
<polygon fill="white" stroke="black" points="523,-107 523,-137 651,-137 651,-107 523,-107"/>
<text text-anchor="start" x="531" y="-125" font-family="Helvetica,sans-Serif" font-size="10.00">mom_wave_speed::wave</text>
<text text-anchor="middle" x="587" y="-114" font-family="Helvetica,sans-Serif" font-size="10.00">_speed</text>
</a>
</g>
</g>
<!-- Node53&#45;&gt;Node62 -->
<g id="edge11" class="edge"><title>Node53&#45;&gt;Node62</title>
<path fill="none" stroke="midnightblue" d="M469.283,-158.893C491.71,-151.804 517.132,-143.769 538.511,-137.011"/>
<polygon fill="midnightblue" stroke="midnightblue" points="468.026,-155.62 459.546,-161.971 470.136,-162.294 468.026,-155.62"/>
</g>
<!-- Node55 -->
<g id="node5" class="node"><title>Node55</title>
<g id="a_node5"><a xlink:href="../../d8/df3/namespacemom__diabatic__driver.html#a61e57d3902367aa46aa3c2d949ee900f" target="_top" xlink:title="This subroutine imposes the diapycnal mass fluxes and the accompanying diapycnal advection of momentu...">
<polygon fill="white" stroke="black" points="708.5,-309 708.5,-339 815.5,-339 815.5,-309 708.5,-309"/>
<text text-anchor="start" x="716.5" y="-327" font-family="Helvetica,sans-Serif" font-size="10.00">mom_diabatic_driver</text>
<text text-anchor="middle" x="762" y="-316" font-family="Helvetica,sans-Serif" font-size="10.00">::diabatic</text>
</a>
</g>
</g>
<!-- Node54&#45;&gt;Node55 -->
<g id="edge4" class="edge"><title>Node54&#45;&gt;Node55</title>
<path fill="none" stroke="midnightblue" d="M658.291,-309.158C674.995,-311.571 692.535,-314.106 708.299,-316.384"/>
<polygon fill="midnightblue" stroke="midnightblue" points="658.419,-305.64 648.021,-307.674 657.418,-312.568 658.419,-305.64"/>
</g>
<!-- Node57 -->
<g id="node7" class="node"><title>Node57</title>
<g id="a_node7"><a xlink:href="../../d6/d62/namespacemom__state__initialization.html#a5c77bf2b0ea9d28e28b661a2a42d3f88" target="_top" xlink:title="Run simple unit tests. ">
<polygon fill="white" stroke="black" points="701,-260 701,-290 823,-290 823,-260 701,-260"/>
<text text-anchor="start" x="709" y="-278" font-family="Helvetica,sans-Serif" font-size="10.00">mom_state_initialization</text>
<text text-anchor="middle" x="762" y="-267" font-family="Helvetica,sans-Serif" font-size="10.00">::mom_state_init_tests</text>
</a>
</g>
</g>
<!-- Node56&#45;&gt;Node57 -->
<g id="edge6" class="edge"><title>Node56&#45;&gt;Node57</title>
<path fill="none" stroke="midnightblue" d="M651.177,-243.894C669.785,-249.164 689.948,-254.876 707.859,-259.948"/>
<polygon fill="midnightblue" stroke="midnightblue" points="651.893,-240.459 641.317,-241.101 649.985,-247.194 651.893,-240.459"/>
</g>
<!-- Node58 -->
<g id="node8" class="node"><title>Node58</title>
<g id="a_node8"><a xlink:href="../../d6/d62/namespacemom__state__initialization.html#acc1029776c1bdda2862ed0f95c8dc640" target="_top" xlink:title="Adjust the layer thicknesses by cutting away the top of each model column at the depth where the hydr...">
<polygon fill="white" stroke="black" points="701,-211 701,-241 823,-241 823,-211 701,-211"/>
<text text-anchor="start" x="709" y="-229" font-family="Helvetica,sans-Serif" font-size="10.00">mom_state_initialization</text>
<text text-anchor="middle" x="762" y="-218" font-family="Helvetica,sans-Serif" font-size="10.00">::trim_for_ice</text>
</a>
</g>
</g>
<!-- Node56&#45;&gt;Node58 -->
<g id="edge7" class="edge"><title>Node56&#45;&gt;Node58</title>
<path fill="none" stroke="midnightblue" d="M658.18,-226C672.309,-226 687.04,-226 700.792,-226"/>
<polygon fill="midnightblue" stroke="midnightblue" points="658.022,-222.5 648.021,-226 658.021,-229.5 658.022,-222.5"/>
</g>
<!-- Node59 -->
<g id="node9" class="node"><title>Node59</title>
<g id="a_node9"><a xlink:href="../../d6/d62/namespacemom__state__initialization.html#af4e854627c6572332ba3fd895f169321" target="_top" xlink:title="mom_state_initialization\l::mom_initialize_state">
<polygon fill="white" stroke="black" points="867,-211 867,-241 989,-241 989,-211 867,-211"/>
<text text-anchor="start" x="875" y="-229" font-family="Helvetica,sans-Serif" font-size="10.00">mom_state_initialization</text>
<text text-anchor="middle" x="928" y="-218" font-family="Helvetica,sans-Serif" font-size="10.00">::mom_initialize_state</text>
</a>
</g>
</g>
<!-- Node58&#45;&gt;Node59 -->
<g id="edge8" class="edge"><title>Node58&#45;&gt;Node59</title>
<path fill="none" stroke="midnightblue" d="M833.296,-226C844.476,-226 855.953,-226 866.871,-226"/>
<polygon fill="midnightblue" stroke="midnightblue" points="833.136,-222.5 823.136,-226 833.136,-229.5 833.136,-222.5"/>
</g>
<!-- Node61 -->
<g id="node11" class="node"><title>Node61</title>
<g id="a_node11"><a xlink:href="../../d9/d06/namespacemom__diag__mediator.html#adb1030a0216c52dd0d25bd67a5b31868" target="_top" xlink:title="mom_diag_mediator::\lpost_data_3d">
<polygon fill="white" stroke="black" points="707,-162 707,-192 817,-192 817,-162 707,-162"/>
<text text-anchor="start" x="715" y="-180" font-family="Helvetica,sans-Serif" font-size="10.00">mom_diag_mediator::</text>
<text text-anchor="middle" x="762" y="-169" font-family="Helvetica,sans-Serif" font-size="10.00">post_data_3d</text>
</a>
</g>
</g>
<!-- Node60&#45;&gt;Node61 -->
<g id="edge10" class="edge"><title>Node60&#45;&gt;Node61</title>
<path fill="none" stroke="midnightblue" d="M652.362,-177C670.316,-177 689.634,-177 706.929,-177"/>
<polygon fill="midnightblue" stroke="midnightblue" points="652.264,-173.5 642.264,-177 652.264,-180.5 652.264,-173.5"/>
</g>
<!-- Node63 -->
<g id="node13" class="node"><title>Node63</title>
<g id="a_node13"><a xlink:href="../../d0/d86/namespacemom__lateral__mixing__coeffs.html#af206bc656869b4fc27d4d7e8a15d438e" target="_top" xlink:title="Calculates and stores the non&#45;dimensional resolution functions. ">
<polygon fill="white" stroke="black" points="710,-101.5 710,-142.5 814,-142.5 814,-101.5 710,-101.5"/>
<text text-anchor="start" x="718" y="-130.5" font-family="Helvetica,sans-Serif" font-size="10.00">mom_lateral_mixing</text>
<text text-anchor="start" x="718" y="-119.5" font-family="Helvetica,sans-Serif" font-size="10.00">_coeffs::calc_resoln</text>
<text text-anchor="middle" x="762" y="-108.5" font-family="Helvetica,sans-Serif" font-size="10.00">_function</text>
</a>
</g>
</g>
<!-- Node62&#45;&gt;Node63 -->
<g id="edge12" class="edge"><title>Node62&#45;&gt;Node63</title>
<path fill="none" stroke="midnightblue" d="M661.455,-122C677.71,-122 694.594,-122 709.74,-122"/>
<polygon fill="midnightblue" stroke="midnightblue" points="661.437,-118.5 651.436,-122 661.436,-125.5 661.437,-118.5"/>
</g>
<!-- Node66 -->
<g id="node16" class="node"><title>Node66</title>
<g id="a_node16"><a xlink:href="../../d9/d8b/namespacemom__diagnostics.html#abb6644248c28ab2e952361bfec436063" target="_top" xlink:title="mom_diagnostics::calculate\l_diagnostic_fields">
<polygon fill="white" stroke="black" points="693,-52 693,-82 831,-82 831,-52 693,-52"/>
<text text-anchor="start" x="701" y="-70" font-family="Helvetica,sans-Serif" font-size="10.00">mom_diagnostics::calculate</text>
<text text-anchor="middle" x="762" y="-59" font-family="Helvetica,sans-Serif" font-size="10.00">_diagnostic_fields</text>
</a>
</g>
</g>
<!-- Node62&#45;&gt;Node66 -->
<g id="edge15" class="edge"><title>Node62&#45;&gt;Node66</title>
<path fill="none" stroke="midnightblue" d="M644.954,-103.893C667.252,-96.8042 692.527,-88.7687 713.784,-82.0108"/>
<polygon fill="midnightblue" stroke="midnightblue" points="643.743,-100.606 635.273,-106.971 645.863,-107.277 643.743,-100.606"/>
</g>
<!-- Node64 -->
<g id="node14" class="node"><title>Node64</title>
<g id="a_node14"><a xlink:href="../../da/d01/namespacemom.html#a4c8332b095c6d295084089aa6b3b678a" target="_top" xlink:title="This subroutine orchestrates the time stepping of MOM. The adiabatic dynamics are stepped by calls to...">
<polygon fill="white" stroke="black" points="883,-82.5 883,-101.5 973,-101.5 973,-82.5 883,-82.5"/>
<text text-anchor="middle" x="928" y="-89.5" font-family="Helvetica,sans-Serif" font-size="10.00">mom::step_mom</text>
</a>
</g>
</g>
<!-- Node63&#45;&gt;Node64 -->
<g id="edge13" class="edge"><title>Node63&#45;&gt;Node64</title>
<path fill="none" stroke="midnightblue" d="M824.43,-110.763C843.868,-107.207 864.955,-103.35 882.925,-100.063"/>
<polygon fill="midnightblue" stroke="midnightblue" points="823.648,-107.348 814.441,-112.59 824.907,-114.234 823.648,-107.348"/>
</g>
<!-- Node65 -->
<g id="node15" class="node"><title>Node65</title>
<g id="a_node15"><a xlink:href="../../de/dbc/MOM__driver_8F90.html#a08fffeb2d8e8acbf9ed4609be6d258c6" target="_top" xlink:title="mom_main">
<polygon fill="white" stroke="black" points="1025,-55.5 1025,-74.5 1090,-74.5 1090,-55.5 1025,-55.5"/>
<text text-anchor="middle" x="1057.5" y="-62.5" font-family="Helvetica,sans-Serif" font-size="10.00">mom_main</text>
</a>
</g>
</g>
<!-- Node64&#45;&gt;Node65 -->
<g id="edge14" class="edge"><title>Node64&#45;&gt;Node65</title>
<path fill="none" stroke="midnightblue" d="M983.374,-80.4855C997.506,-77.4927 1012.27,-74.3669 1024.8,-71.7137"/>
<polygon fill="midnightblue" stroke="midnightblue" points="982.293,-77.1366 973.235,-82.6325 983.744,-83.9848 982.293,-77.1366"/>
</g>
<!-- Node67&#45;&gt;Node68 -->
<g id="edge17" class="edge"><title>Node67&#45;&gt;Node68</title>
<path fill="none" stroke="midnightblue" d="M481.147,-74.5145C496.181,-70.7127 511.959,-66.723 526.578,-63.0262"/>
<polygon fill="midnightblue" stroke="midnightblue" points="480.231,-71.1359 471.394,-76.9808 481.947,-77.9223 480.231,-71.1359"/>
</g>
<!-- Node69 -->
<g id="node19" class="node"><title>Node69</title>
<g id="a_node19"><a xlink:href="../../da/d01/namespacemom.html#ae77cfd2e790f1266b31d93c58659d46c" target="_top" xlink:title="Calls unit tests for other modules. These are NOT normally invoked and so we provide the module use s...">
<polygon fill="white" stroke="black" points="718.5,-13.5 718.5,-32.5 805.5,-32.5 805.5,-13.5 718.5,-13.5"/>
<text text-anchor="middle" x="762" y="-20.5" font-family="Helvetica,sans-Serif" font-size="10.00">mom::unit_tests</text>
</a>
</g>
</g>
<!-- Node68&#45;&gt;Node69 -->
<g id="edge18" class="edge"><title>Node68&#45;&gt;Node69</title>
<path fill="none" stroke="midnightblue" d="M667.589,-36.4988C685.057,-33.9744 702.904,-31.3954 718.255,-29.177"/>
<polygon fill="midnightblue" stroke="midnightblue" points="666.765,-33.0813 657.369,-37.9756 667.767,-40.0093 666.765,-33.0813"/>
</g>
<!-- Node70 -->
<g id="node20" class="node"><title>Node70</title>
<g id="a_node20"><a xlink:href="../../da/d01/namespacemom.html#a0be2869fef30e1e0604facfe1b41555d" target="_top" xlink:title="This subroutine initializes MOM. ">
<polygon fill="white" stroke="black" points="874.5,-29.5 874.5,-48.5 981.5,-48.5 981.5,-29.5 874.5,-29.5"/>
<text text-anchor="middle" x="928" y="-36.5" font-family="Helvetica,sans-Serif" font-size="10.00">mom::initialize_mom</text>
</a>
</g>
</g>
<!-- Node69&#45;&gt;Node70 -->
<g id="edge19" class="edge"><title>Node69&#45;&gt;Node70</title>
<path fill="none" stroke="midnightblue" d="M815.793,-28.1505C834.516,-29.9772 855.576,-32.0318 874.292,-33.8578"/>
<polygon fill="midnightblue" stroke="midnightblue" points="815.954,-24.6497 805.661,-27.162 815.274,-31.6166 815.954,-24.6497"/>
</g>
<!-- Node70&#45;&gt;Node65 -->
<g id="edge20" class="edge"><title>Node70&#45;&gt;Node65</title>
<path fill="none" stroke="midnightblue" d="M985.873,-50.5976C999.263,-53.3282 1013.06,-56.1424 1024.87,-58.5506"/>
<polygon fill="midnightblue" stroke="midnightblue" points="986.25,-47.1026 975.752,-48.5338 984.851,-53.9614 986.25,-47.1026"/>
</g>
</g>
</svg>
