<?xml version="1.0" encoding="UTF-8" standalone="no"?>
<!DOCTYPE svg PUBLIC "-//W3C//DTD SVG 1.1//EN"
 "http://www.w3.org/Graphics/SVG/1.1/DTD/svg11.dtd">
<!-- Generated by graphviz version 2.38.0 (20140413.2041)
 -->
<!-- Title: mom_ale::ale_main Pages: 1 -->
<svg width="539pt" height="242pt"
 viewBox="0.00 0.00 539.00 241.50" xmlns="http://www.w3.org/2000/svg" xmlns:xlink="http://www.w3.org/1999/xlink">
<g id="graph0" class="graph" transform="scale(1 1) rotate(0) translate(4 237.5)">
<title>mom_ale::ale_main</title>
<polygon fill="white" stroke="none" points="-4,4 -4,-237.5 535,-237.5 535,4 -4,4"/>
<!-- Node35 -->
<g id="node1" class="node"><title>Node35</title>
<polygon fill="#bfbfbf" stroke="black" points="0,-98.5 0,-117.5 101,-117.5 101,-98.5 0,-98.5"/>
<text text-anchor="middle" x="50.5" y="-105.5" font-family="Helvetica,sans-Serif" font-size="10.00">mom_ale::ale_main</text>
</g>
<!-- Node36 -->
<g id="node2" class="node"><title>Node36</title>
<g id="a_node2"><a xlink:href="../../d7/d73/namespacemom__ale.html#aa892ad9bccb3137ea1f662b317be2611" target="_top" xlink:title="Updates the weights for time filtering the new grid generated in regridding. ">
<polygon fill="white" stroke="black" points="137,-203 137,-233 247,-233 247,-203 137,-203"/>
<text text-anchor="start" x="145" y="-221" font-family="Helvetica,sans-Serif" font-size="10.00">mom_ale::ale_update</text>
<text text-anchor="middle" x="192" y="-210" font-family="Helvetica,sans-Serif" font-size="10.00">_regrid_weights</text>
</a>
</g>
</g>
<!-- Node35&#45;&gt;Node36 -->
<g id="edge1" class="edge"><title>Node35&#45;&gt;Node36</title>
<path fill="none" stroke="midnightblue" d="M60.3273,-117.679C75.1526,-133.592 106.44,-165.735 137,-188 141.72,-191.439 146.875,-194.772 152.067,-197.889"/>
<polygon fill="midnightblue" stroke="midnightblue" points="150.358,-200.944 160.769,-202.911 153.857,-194.881 150.358,-200.944"/>
</g>
<!-- Node37 -->
<g id="node3" class="node"><title>Node37</title>
<g id="a_node3"><a xlink:href="../../d0/de6/namespacemom__error__handler.html#a9cda07a87815f0e5594066162b4345c3" target="_top" xlink:title="Writes a message about entering a subroutine if call tree reporting is active. ">
<polygon fill="white" stroke="black" points="283,-145 283,-175 389,-175 389,-145 283,-145"/>
<text text-anchor="start" x="291" y="-163" font-family="Helvetica,sans-Serif" font-size="10.00">mom_error_handler::</text>
<text text-anchor="middle" x="336" y="-152" font-family="Helvetica,sans-Serif" font-size="10.00">calltree_enter</text>
</a>
</g>
</g>
<!-- Node35&#45;&gt;Node37 -->
<g id="edge2" class="edge"><title>Node35&#45;&gt;Node37</title>
<path fill="none" stroke="midnightblue" d="M64.5937,-117.574C80.7006,-128.729 109.323,-146.58 137,-154 181.309,-165.879 233.199,-167.008 272.74,-165.364"/>
<polygon fill="midnightblue" stroke="midnightblue" points="272.954,-168.858 282.773,-164.877 272.615,-161.866 272.954,-168.858"/>
</g>
<!-- Node39 -->
<g id="node5" class="node"><title>Node39</title>
<g id="a_node5"><a xlink:href="../../d0/de6/namespacemom__error__handler.html#a88ea67781e2ed9b73ab7eac8ea5e8578" target="_top" xlink:title="Writes a message about leaving a subroutine if call tree reporting is active. ">
<polygon fill="white" stroke="black" points="283,-96 283,-126 389,-126 389,-96 283,-96"/>
<text text-anchor="start" x="291" y="-114" font-family="Helvetica,sans-Serif" font-size="10.00">mom_error_handler::</text>
<text text-anchor="middle" x="336" y="-103" font-family="Helvetica,sans-Serif" font-size="10.00">calltree_leave</text>
</a>
</g>
</g>
<!-- Node35&#45;&gt;Node39 -->
<g id="edge4" class="edge"><title>Node35&#45;&gt;Node39</title>
<path fill="none" stroke="midnightblue" d="M101.224,-105.96C112.954,-105.561 125.417,-105.203 137,-105 185.881,-104.143 198.139,-103.336 247,-105 255.36,-105.285 264.159,-105.721 272.829,-106.231"/>
<polygon fill="midnightblue" stroke="midnightblue" points="272.715,-109.731 282.914,-106.86 273.151,-102.745 272.715,-109.731"/>
</g>
<!-- Node40 -->
<g id="node6" class="node"><title>Node40</title>
<g id="a_node6"><a xlink:href="../../d0/de6/namespacemom__error__handler.html#a34a02e601a60f03cb97a72fe25a32853" target="_top" xlink:title="Writes a message about reaching a milestone if call tree reporting is active. ">
<polygon fill="white" stroke="black" points="283,-47 283,-77 389,-77 389,-47 283,-47"/>
<text text-anchor="start" x="291" y="-65" font-family="Helvetica,sans-Serif" font-size="10.00">mom_error_handler::</text>
<text text-anchor="middle" x="336" y="-54" font-family="Helvetica,sans-Serif" font-size="10.00">calltree_waypoint</text>
</a>
</g>
</g>
<!-- Node35&#45;&gt;Node40 -->
<g id="edge6" class="edge"><title>Node35&#45;&gt;Node40</title>
<path fill="none" stroke="midnightblue" d="M101.206,-99.9348C148.996,-92.1806 221.376,-80.4363 272.93,-72.0713"/>
<polygon fill="midnightblue" stroke="midnightblue" points="273.639,-75.5021 282.95,-70.4456 272.518,-68.5925 273.639,-75.5021"/>
</g>
<!-- Node41 -->
<g id="node7" class="node"><title>Node41</title>
<g id="a_node7"><a xlink:href="../../d7/d73/namespacemom__ale.html#a9b511a4b61f92b735cef1129dff14bcb" target="_top" xlink:title="Check grid for negative thicknesses. ">
<polygon fill="white" stroke="black" points="137,-0.5 137,-19.5 247,-19.5 247,-0.5 137,-0.5"/>
<text text-anchor="middle" x="192" y="-7.5" font-family="Helvetica,sans-Serif" font-size="10.00">mom_ale::check_grid</text>
</a>
</g>
</g>
<!-- Node35&#45;&gt;Node41 -->
<g id="edge8" class="edge"><title>Node35&#45;&gt;Node41</title>
<path fill="none" stroke="midnightblue" d="M60.7494,-98.3275C75.6788,-83.1214 106.508,-53.3652 137,-34 142.935,-30.2307 149.562,-26.7596 156.086,-23.6971"/>
<polygon fill="midnightblue" stroke="midnightblue" points="157.765,-26.7807 165.477,-19.5155 154.918,-20.386 157.765,-26.7807"/>
</g>
<!-- Node42 -->
<g id="node8" class="node"><title>Node42</title>
<g id="a_node8"><a xlink:href="../../d7/d73/namespacemom__ale.html#afa44870e6fe590c2e2bc5265998dc19f" target="_top" xlink:title="This routine takes care of remapping all variable between the old and the new grids. When velocity components need to be remapped, thicknesses at velocity points are taken to be arithmetic averages of tracer thicknesses. This routine is called during initialization of the model at time=0, to remap initiali conditions to the model grid. It is also called during a time step to update the state. ">
<polygon fill="white" stroke="black" points="140,-115 140,-145 244,-145 244,-115 140,-115"/>
<text text-anchor="start" x="148" y="-133" font-family="Helvetica,sans-Serif" font-size="10.00">mom_ale::remap_all</text>
<text text-anchor="middle" x="192" y="-122" font-family="Helvetica,sans-Serif" font-size="10.00">_state_vars</text>
</a>
</g>
</g>
<!-- Node35&#45;&gt;Node42 -->
<g id="edge9" class="edge"><title>Node35&#45;&gt;Node42</title>
<path fill="none" stroke="midnightblue" d="M101.075,-115.818C110.375,-117.285 120.198,-118.834 129.802,-120.349"/>
<polygon fill="midnightblue" stroke="midnightblue" points="129.276,-123.809 139.699,-121.91 130.366,-116.894 129.276,-123.809"/>
</g>
<!-- Node38 -->
<g id="node4" class="node"><title>Node38</title>
<g id="a_node4"><a xlink:href="../../d0/de6/namespacemom__error__handler.html#ad5f00a53059c72fe2332d1436c80ca71" target="_top" xlink:title="mom_error_handler::\lis_root_pe">
<polygon fill="white" stroke="black" points="425,-96 425,-126 531,-126 531,-96 425,-96"/>
<text text-anchor="start" x="433" y="-114" font-family="Helvetica,sans-Serif" font-size="10.00">mom_error_handler::</text>
<text text-anchor="middle" x="478" y="-103" font-family="Helvetica,sans-Serif" font-size="10.00">is_root_pe</text>
</a>
</g>
</g>
<!-- Node37&#45;&gt;Node38 -->
<g id="edge3" class="edge"><title>Node37&#45;&gt;Node38</title>
<path fill="none" stroke="midnightblue" d="M380.147,-144.899C393.986,-140.055 409.475,-134.634 423.938,-129.572"/>
<polygon fill="midnightblue" stroke="midnightblue" points="425.472,-132.743 433.755,-126.136 423.16,-126.136 425.472,-132.743"/>
</g>
<!-- Node39&#45;&gt;Node38 -->
<g id="edge5" class="edge"><title>Node39&#45;&gt;Node38</title>
<path fill="none" stroke="midnightblue" d="M389.131,-111C397.421,-111 406.07,-111 414.568,-111"/>
<polygon fill="midnightblue" stroke="midnightblue" points="414.826,-114.5 424.826,-111 414.826,-107.5 414.826,-114.5"/>
</g>
<!-- Node40&#45;&gt;Node38 -->
<g id="edge7" class="edge"><title>Node40&#45;&gt;Node38</title>
<path fill="none" stroke="midnightblue" d="M380.147,-77.1014C393.986,-81.9451 409.475,-87.3664 423.938,-92.4285"/>
<polygon fill="midnightblue" stroke="midnightblue" points="423.16,-95.864 433.755,-95.8641 425.472,-89.257 423.16,-95.864"/>
</g>
<!-- Node42&#45;&gt;Node37 -->
<g id="edge10" class="edge"><title>Node42&#45;&gt;Node37</title>
<path fill="none" stroke="midnightblue" d="M244.265,-140.831C253.581,-142.799 263.389,-144.871 272.976,-146.896"/>
<polygon fill="midnightblue" stroke="midnightblue" points="272.348,-150.341 282.855,-148.984 273.795,-143.492 272.348,-150.341"/>
</g>
<!-- Node42&#45;&gt;Node39 -->
<g id="edge12" class="edge"><title>Node42&#45;&gt;Node39</title>
<path fill="none" stroke="midnightblue" d="M244.265,-123.141C253.483,-121.907 263.183,-120.609 272.673,-119.34"/>
<polygon fill="midnightblue" stroke="midnightblue" points="273.408,-122.772 282.855,-117.977 272.479,-115.834 273.408,-122.772"/>
</g>
<!-- Node42&#45;&gt;Node40 -->
<g id="edge11" class="edge"><title>Node42&#45;&gt;Node40</title>
<path fill="none" stroke="midnightblue" d="M223.33,-114.963C240.744,-106.382 263.049,-95.4794 283,-86 286.149,-84.5038 289.411,-82.9673 292.695,-81.4295"/>
<polygon fill="midnightblue" stroke="midnightblue" points="294.351,-84.5196 301.938,-77.1249 291.395,-78.174 294.351,-84.5196"/>
</g>
</g>
</svg>
