<?xml version="1.0" encoding="UTF-8" standalone="no"?>
<!DOCTYPE svg PUBLIC "-//W3C//DTD SVG 1.1//EN"
 "http://www.w3.org/Graphics/SVG/1.1/DTD/svg11.dtd">
<!-- Generated by graphviz version 2.38.0 (20140413.2041)
 -->
<!-- Title: mom_ale::dz_function1 Pages: 1 -->
<svg width="426pt" height="28pt"
 viewBox="0.00 0.00 426.00 28.00" xmlns="http://www.w3.org/2000/svg" xmlns:xlink="http://www.w3.org/1999/xlink">
<g id="graph0" class="graph" transform="scale(1 1) rotate(0) translate(4 24)">
<title>mom_ale::dz_function1</title>
<polygon fill="white" stroke="none" points="-4,4 -4,-24 422,-24 422,4 -4,4"/>
<!-- Node109 -->
<g id="node1" class="node"><title>Node109</title>
<polygon fill="#bfbfbf" stroke="black" points="0,-0.5 0,-19.5 118,-19.5 118,-0.5 0,-0.5"/>
<text text-anchor="middle" x="59" y="-7.5" font-family="Helvetica,sans-Serif" font-size="10.00">mom_ale::dz_function1</text>
</g>
<!-- Node110 -->
<g id="node2" class="node"><title>Node110</title>
<g id="a_node2"><a xlink:href="../../d7/d73/namespacemom__ale.html#acb67ef912ee001b72fa9ed5d6c79cabe" target="_top" xlink:title="Initialize regridding module. ">
<polygon fill="white" stroke="black" points="154,-0.5 154,-19.5 289,-19.5 289,-0.5 154,-0.5"/>
<text text-anchor="middle" x="221.5" y="-7.5" font-family="Helvetica,sans-Serif" font-size="10.00">mom_ale::ale_initregridding</text>
</a>
</g>
</g>
<!-- Node109&#45;&gt;Node110 -->
<g id="edge1" class="edge"><title>Node109&#45;&gt;Node110</title>
<path fill="none" stroke="midnightblue" d="M128.563,-10C136.99,-10 145.591,-10 153.987,-10"/>
<polygon fill="midnightblue" stroke="midnightblue" points="128.398,-6.5001 118.398,-10 128.398,-13.5001 128.398,-6.5001"/>
</g>
<!-- Node111 -->
<g id="node3" class="node"><title>Node111</title>
<g id="a_node3"><a xlink:href="../../d7/d73/namespacemom__ale.html#a58d4b7c32f779beec0086caeb802d492" target="_top" xlink:title="This routine is typically called (from initialize_MOM in file MOM.F90) before the main time integrati...">
<polygon fill="white" stroke="black" points="325,-0.5 325,-19.5 418,-19.5 418,-0.5 325,-0.5"/>
<text text-anchor="middle" x="371.5" y="-7.5" font-family="Helvetica,sans-Serif" font-size="10.00">mom_ale::ale_init</text>
</a>
</g>
</g>
<!-- Node110&#45;&gt;Node111 -->
<g id="edge2" class="edge"><title>Node110&#45;&gt;Node111</title>
<path fill="none" stroke="midnightblue" d="M299.402,-10C308.148,-10 316.839,-10 324.987,-10"/>
<polygon fill="midnightblue" stroke="midnightblue" points="299.14,-6.5001 289.14,-10 299.14,-13.5001 299.14,-6.5001"/>
</g>
</g>
</svg>
