<?xml version="1.0" encoding="UTF-8" standalone="no"?>
<!DOCTYPE svg PUBLIC "-//W3C//DTD SVG 1.1//EN"
 "http://www.w3.org/Graphics/SVG/1.1/DTD/svg11.dtd">
<!-- Generated by graphviz version 2.38.0 (20140413.2041)
 -->
<!-- Title: mom_ale::ale_update_regrid_weights Pages: 1 -->
<svg width="522pt" height="66pt"
 viewBox="0.00 0.00 522.00 66.00" xmlns="http://www.w3.org/2000/svg" xmlns:xlink="http://www.w3.org/1999/xlink">
<g id="graph0" class="graph" transform="scale(1 1) rotate(0) translate(4 62)">
<title>mom_ale::ale_update_regrid_weights</title>
<polygon fill="white" stroke="none" points="-4,4 -4,-62 518,-62 518,4 -4,4"/>
<!-- Node89 -->
<g id="node1" class="node"><title>Node89</title>
<polygon fill="#bfbfbf" stroke="black" points="0,-14 0,-44 110,-44 110,-14 0,-14"/>
<text text-anchor="start" x="8" y="-32" font-family="Helvetica,sans-Serif" font-size="10.00">mom_ale::ale_update</text>
<text text-anchor="middle" x="55" y="-21" font-family="Helvetica,sans-Serif" font-size="10.00">_regrid_weights</text>
</g>
<!-- Node90 -->
<g id="node2" class="node"><title>Node90</title>
<g id="a_node2"><a xlink:href="../../d7/d73/namespacemom__ale.html#a85ced017378248ea6db867aa03220a1d" target="_top" xlink:title="Takes care of (1) building a new grid and (2) remapping all variables between the old grid and the ne...">
<polygon fill="white" stroke="black" points="162,-38.5 162,-57.5 263,-57.5 263,-38.5 162,-38.5"/>
<text text-anchor="middle" x="212.5" y="-45.5" font-family="Helvetica,sans-Serif" font-size="10.00">mom_ale::ale_main</text>
</a>
</g>
</g>
<!-- Node89&#45;&gt;Node90 -->
<g id="edge1" class="edge"><title>Node89&#45;&gt;Node90</title>
<path fill="none" stroke="midnightblue" d="M120.344,-36.8619C134.197,-38.5546 148.635,-40.3188 161.828,-41.9307"/>
<polygon fill="midnightblue" stroke="midnightblue" points="120.737,-33.384 110.386,-35.6453 119.888,-40.3324 120.737,-33.384"/>
</g>
<!-- Node91 -->
<g id="node3" class="node"><title>Node91</title>
<g id="a_node3"><a xlink:href="../../d7/d73/namespacemom__ale.html#a5a39781fe9a087c4ab8b4b2ea86ef05c" target="_top" xlink:title="Takes care of (1) building a new grid and (2) remapping all variables between the old grid and the ne...">
<polygon fill="white" stroke="black" points="146,-0.5 146,-19.5 279,-19.5 279,-0.5 146,-0.5"/>
<text text-anchor="middle" x="212.5" y="-7.5" font-family="Helvetica,sans-Serif" font-size="10.00">mom_ale::ale_main_offline</text>
</a>
</g>
</g>
<!-- Node89&#45;&gt;Node91 -->
<g id="edge2" class="edge"><title>Node89&#45;&gt;Node91</title>
<path fill="none" stroke="midnightblue" d="M120.496,-21.1195C128.893,-20.0935 137.502,-19.0415 145.917,-18.0134"/>
<polygon fill="midnightblue" stroke="midnightblue" points="119.888,-17.6676 110.386,-22.3547 120.737,-24.616 119.888,-17.6676"/>
</g>
<!-- Node92 -->
<g id="node4" class="node"><title>Node92</title>
<g id="a_node4"><a xlink:href="../../da/d01/namespacemom.html#ada859fe9e7e841ea281dae323cc4f6ac" target="_top" xlink:title="step_tracers is the main driver for running tracers offline in MOM6. This has been primarily develope...">
<polygon fill="white" stroke="black" points="315,-0.5 315,-19.5 413,-19.5 413,-0.5 315,-0.5"/>
<text text-anchor="middle" x="364" y="-7.5" font-family="Helvetica,sans-Serif" font-size="10.00">mom::step_tracers</text>
</a>
</g>
</g>
<!-- Node91&#45;&gt;Node92 -->
<g id="edge3" class="edge"><title>Node91&#45;&gt;Node92</title>
<path fill="none" stroke="midnightblue" d="M289.182,-10C297.811,-10 306.423,-10 314.558,-10"/>
<polygon fill="midnightblue" stroke="midnightblue" points="289.073,-6.5001 279.073,-10 289.073,-13.5001 289.073,-6.5001"/>
</g>
<!-- Node93 -->
<g id="node5" class="node"><title>Node93</title>
<g id="a_node5"><a xlink:href="../../de/dbc/MOM__driver_8F90.html#a08fffeb2d8e8acbf9ed4609be6d258c6" target="_top" xlink:title="mom_main">
<polygon fill="white" stroke="black" points="449,-0.5 449,-19.5 514,-19.5 514,-0.5 449,-0.5"/>
<text text-anchor="middle" x="481.5" y="-7.5" font-family="Helvetica,sans-Serif" font-size="10.00">mom_main</text>
</a>
</g>
</g>
<!-- Node92&#45;&gt;Node93 -->
<g id="edge4" class="edge"><title>Node92&#45;&gt;Node93</title>
<path fill="none" stroke="midnightblue" d="M423.516,-10C432.24,-10 440.94,-10 448.82,-10"/>
<polygon fill="midnightblue" stroke="midnightblue" points="423.313,-6.5001 413.313,-10 423.313,-13.5001 423.313,-6.5001"/>
</g>
</g>
</svg>
