<?xml version="1.0" encoding="UTF-8" standalone="no"?>
<!DOCTYPE svg PUBLIC "-//W3C//DTD SVG 1.1//EN"
 "http://www.w3.org/Graphics/SVG/1.1/DTD/svg11.dtd">
<!-- Generated by graphviz version 2.38.0 (20140413.2041)
 -->
<!-- Title: mom_ale::ale_init Pages: 1 -->
<svg width="504pt" height="154pt"
 viewBox="0.00 0.00 504.00 154.00" xmlns="http://www.w3.org/2000/svg" xmlns:xlink="http://www.w3.org/1999/xlink">
<g id="graph0" class="graph" transform="scale(1 1) rotate(0) translate(4 150)">
<title>mom_ale::ale_init</title>
<polygon fill="white" stroke="none" points="-4,4 -4,-150 500,-150 500,4 -4,4"/>
<!-- Node17 -->
<g id="node1" class="node"><title>Node17</title>
<polygon fill="#bfbfbf" stroke="black" points="0,-55 0,-74 79,-74 79,-55 0,-55"/>
<text text-anchor="middle" x="39.5" y="-62" font-family="Helvetica,sans-Serif" font-size="10.00">mom_ale::ale_init</text>
</g>
<!-- Node18 -->
<g id="node2" class="node"><title>Node18</title>
<g id="a_node2"><a xlink:href="../../d7/d73/namespacemom__ale.html#acb67ef912ee001b72fa9ed5d6c79cabe" target="_top" xlink:title="Initialize regridding module. ">
<polygon fill="white" stroke="black" points="115,-99 115,-118 230,-118 230,-99 115,-99"/>
<text text-anchor="middle" x="172.5" y="-106" font-family="Helvetica,sans-Serif" font-size="10.00">mom_ale::ale_initregridding</text>
</a>
</g>
</g>
<!-- Node17&#45;&gt;Node18 -->
<g id="edge1" class="edge"><title>Node17&#45;&gt;Node18</title>
<path fill="none" stroke="midnightblue" d="M68.925,-74.0473C87.8082,-80.3898 112.821,-88.7911 133.419,-95.7096"/>
<polygon fill="midnightblue" stroke="midnightblue" points="132.536,-99.1051 143.13,-98.9713 134.765,-92.4694 132.536,-99.1051"/>
</g>
<!-- Node22 -->
<g id="node6" class="node"><title>Node22</title>
<g id="a_node6"><a xlink:href="../../d0/de6/namespacemom__error__handler.html#a9cda07a87815f0e5594066162b4345c3" target="_top" xlink:title="Writes a message about entering a subroutine if call tree reporting is active. ">
<polygon fill="white" stroke="black" points="126,-49.5 126,-79.5 219,-79.5 219,-49.5 126,-49.5"/>
<text text-anchor="start" x="134" y="-67.5" font-family="Helvetica,sans-Serif" font-size="10.00">mom_error_handler::</text>
<text text-anchor="middle" x="172.5" y="-56.5" font-family="Helvetica,sans-Serif" font-size="10.00">calltree_enter</text>
</a>
</g>
</g>
<!-- Node17&#45;&gt;Node22 -->
<g id="edge5" class="edge"><title>Node17&#45;&gt;Node22</title>
<path fill="none" stroke="midnightblue" d="M79.0958,-64.5C90.5345,-64.5 103.298,-64.5 115.6,-64.5"/>
<polygon fill="midnightblue" stroke="midnightblue" points="115.786,-68.0001 125.786,-64.5 115.786,-61.0001 115.786,-68.0001"/>
</g>
<!-- Node24 -->
<g id="node8" class="node"><title>Node24</title>
<g id="a_node8"><a xlink:href="../../d0/de6/namespacemom__error__handler.html#a88ea67781e2ed9b73ab7eac8ea5e8578" target="_top" xlink:title="Writes a message about leaving a subroutine if call tree reporting is active. ">
<polygon fill="white" stroke="black" points="126,-0.5 126,-30.5 219,-30.5 219,-0.5 126,-0.5"/>
<text text-anchor="start" x="134" y="-18.5" font-family="Helvetica,sans-Serif" font-size="10.00">mom_error_handler::</text>
<text text-anchor="middle" x="172.5" y="-7.5" font-family="Helvetica,sans-Serif" font-size="10.00">calltree_leave</text>
</a>
</g>
</g>
<!-- Node17&#45;&gt;Node24 -->
<g id="edge7" class="edge"><title>Node17&#45;&gt;Node24</title>
<path fill="none" stroke="midnightblue" d="M66.0691,-54.936C81.9299,-49.0033 102.842,-41.1812 121.857,-34.0687"/>
<polygon fill="midnightblue" stroke="midnightblue" points="123.159,-37.3186 131.299,-30.537 120.707,-30.7622 123.159,-37.3186"/>
</g>
<!-- Node19 -->
<g id="node3" class="node"><title>Node19</title>
<g id="a_node3"><a xlink:href="../../df/d46/namespacemom__string__functions.html#a7bfdab6bba33230cc94ed625e95022c9" target="_top" xlink:title="Returns the string corresponding to the nth word in the argument or &quot;&quot; if the string is not long enou...">
<polygon fill="white" stroke="black" points="268,-115.5 268,-145.5 363,-145.5 363,-115.5 268,-115.5"/>
<text text-anchor="start" x="276" y="-133.5" font-family="Helvetica,sans-Serif" font-size="10.00">mom_string_functions</text>
<text text-anchor="middle" x="315.5" y="-122.5" font-family="Helvetica,sans-Serif" font-size="10.00">::extractword</text>
</a>
</g>
</g>
<!-- Node18&#45;&gt;Node19 -->
<g id="edge2" class="edge"><title>Node18&#45;&gt;Node19</title>
<path fill="none" stroke="midnightblue" d="M230.038,-117.321C239.167,-118.746 248.622,-120.221 257.756,-121.646"/>
<polygon fill="midnightblue" stroke="midnightblue" points="257.478,-125.145 267.898,-123.229 258.557,-118.229 257.478,-125.145"/>
</g>
<!-- Node21 -->
<g id="node5" class="node"><title>Node21</title>
<g id="a_node5"><a xlink:href="../../d7/d73/namespacemom__ale.html#aa4e21aab357f4922537bb9a07e80f49f" target="_top" xlink:title="Parses a string and generates a dz(:) profile. ">
<polygon fill="white" stroke="black" points="266,-77 266,-96 365,-96 365,-77 266,-77"/>
<text text-anchor="middle" x="315.5" y="-84" font-family="Helvetica,sans-Serif" font-size="10.00">mom_ale::dz_function1</text>
</a>
</g>
</g>
<!-- Node18&#45;&gt;Node21 -->
<g id="edge4" class="edge"><title>Node18&#45;&gt;Node21</title>
<path fill="none" stroke="midnightblue" d="M230.038,-99.6785C238.426,-98.3697 247.089,-97.0181 255.525,-95.7017"/>
<polygon fill="midnightblue" stroke="midnightblue" points="256.329,-99.1187 265.67,-94.1188 255.25,-92.2024 256.329,-99.1187"/>
</g>
<!-- Node20 -->
<g id="node4" class="node"><title>Node20</title>
<g id="a_node4"><a xlink:href="../../df/d46/namespacemom__string__functions.html#aad76dee92b69dab4488da049fe11cdb8" target="_top" xlink:title="Returns the string corresponding to the nth word in the argument or &quot;&quot; if the string is not long enou...">
<polygon fill="white" stroke="black" points="401,-115.5 401,-145.5 496,-145.5 496,-115.5 401,-115.5"/>
<text text-anchor="start" x="409" y="-133.5" font-family="Helvetica,sans-Serif" font-size="10.00">mom_string_functions</text>
<text text-anchor="middle" x="448.5" y="-122.5" font-family="Helvetica,sans-Serif" font-size="10.00">::extract_word</text>
</a>
</g>
</g>
<!-- Node19&#45;&gt;Node20 -->
<g id="edge3" class="edge"><title>Node19&#45;&gt;Node20</title>
<path fill="none" stroke="midnightblue" d="M363.055,-130.5C371.924,-130.5 381.301,-130.5 390.454,-130.5"/>
<polygon fill="midnightblue" stroke="midnightblue" points="390.654,-134 400.654,-130.5 390.654,-127 390.654,-134"/>
</g>
<!-- Node23 -->
<g id="node7" class="node"><title>Node23</title>
<g id="a_node7"><a xlink:href="../../d0/de6/namespacemom__error__handler.html#ad5f00a53059c72fe2332d1436c80ca71" target="_top" xlink:title="mom_error_handler::\lis_root_pe">
<polygon fill="white" stroke="black" points="269,-25.5 269,-55.5 362,-55.5 362,-25.5 269,-25.5"/>
<text text-anchor="start" x="277" y="-43.5" font-family="Helvetica,sans-Serif" font-size="10.00">mom_error_handler::</text>
<text text-anchor="middle" x="315.5" y="-32.5" font-family="Helvetica,sans-Serif" font-size="10.00">is_root_pe</text>
</a>
</g>
</g>
<!-- Node22&#45;&gt;Node23 -->
<g id="edge6" class="edge"><title>Node22&#45;&gt;Node23</title>
<path fill="none" stroke="midnightblue" d="M219.279,-56.7079C231.966,-54.5483 245.877,-52.1805 259.052,-49.938"/>
<polygon fill="midnightblue" stroke="midnightblue" points="259.68,-53.3815 268.951,-48.253 258.505,-46.4807 259.68,-53.3815"/>
</g>
<!-- Node24&#45;&gt;Node23 -->
<g id="edge8" class="edge"><title>Node24&#45;&gt;Node23</title>
<path fill="none" stroke="midnightblue" d="M219.279,-23.6168C231.966,-25.8663 245.877,-28.3328 259.052,-30.6688"/>
<polygon fill="midnightblue" stroke="midnightblue" points="258.494,-34.1243 268.951,-32.4239 259.716,-27.2318 258.494,-34.1243"/>
</g>
</g>
</svg>
