<?xml version="1.0" encoding="UTF-8" standalone="no"?>
<!DOCTYPE svg PUBLIC "-//W3C//DTD SVG 1.1//EN"
 "http://www.w3.org/Graphics/SVG/1.1/DTD/svg11.dtd">
<!-- Generated by graphviz version 2.38.0 (20140413.2041)
 -->
<!-- Title: mom_ale::ale_remap_scalar Pages: 1 -->
<svg width="721pt" height="100pt"
 viewBox="0.00 0.00 721.00 99.50" xmlns="http://www.w3.org/2000/svg" xmlns:xlink="http://www.w3.org/1999/xlink">
<g id="graph0" class="graph" transform="scale(1 1) rotate(0) translate(4 95.5)">
<title>mom_ale::ale_remap_scalar</title>
<polygon fill="white" stroke="none" points="-4,4 -4,-95.5 717,-95.5 717,4 -4,4"/>
<!-- Node71 -->
<g id="node1" class="node"><title>Node71</title>
<polygon fill="#bfbfbf" stroke="black" points="0,-27.5 0,-57.5 107,-57.5 107,-27.5 0,-27.5"/>
<text text-anchor="start" x="8" y="-45.5" font-family="Helvetica,sans-Serif" font-size="10.00">mom_ale::ale_remap</text>
<text text-anchor="middle" x="53.5" y="-34.5" font-family="Helvetica,sans-Serif" font-size="10.00">_scalar</text>
</g>
<!-- Node72 -->
<g id="node2" class="node"><title>Node72</title>
<g id="a_node2"><a xlink:href="../../d8/d8a/namespacemom__tracer__initialization__from__z.html#a5281cd3eaf835f799cff81a50c273c5e" target="_top" xlink:title="mom_tracer_initialization\l_from_z::mom_initialize\l_tracer_from_z">
<polygon fill="white" stroke="black" points="164.5,-50 164.5,-91 289.5,-91 289.5,-50 164.5,-50"/>
<text text-anchor="start" x="172.5" y="-79" font-family="Helvetica,sans-Serif" font-size="10.00">mom_tracer_initialization</text>
<text text-anchor="start" x="172.5" y="-68" font-family="Helvetica,sans-Serif" font-size="10.00">_from_z::mom_initialize</text>
<text text-anchor="middle" x="227" y="-57" font-family="Helvetica,sans-Serif" font-size="10.00">_tracer_from_z</text>
</a>
</g>
</g>
<!-- Node71&#45;&gt;Node72 -->
<g id="edge1" class="edge"><title>Node71&#45;&gt;Node72</title>
<path fill="none" stroke="midnightblue" d="M117.262,-52.7469C132.605,-55.2519 149.008,-57.93 164.301,-60.4267"/>
<polygon fill="midnightblue" stroke="midnightblue" points="117.788,-49.2865 107.355,-51.1294 116.66,-56.1951 117.788,-49.2865"/>
</g>
<!-- Node73 -->
<g id="node3" class="node"><title>Node73</title>
<g id="a_node3"><a xlink:href="../../d6/d62/namespacemom__state__initialization.html#ae33403313da1b783a1ad980e10012f8e" target="_top" xlink:title="mom_state_initialization\l::mom_temp_salt_initialize_from_z">
<polygon fill="white" stroke="black" points="143,-0.5 143,-30.5 311,-30.5 311,-0.5 143,-0.5"/>
<text text-anchor="start" x="151" y="-18.5" font-family="Helvetica,sans-Serif" font-size="10.00">mom_state_initialization</text>
<text text-anchor="middle" x="227" y="-7.5" font-family="Helvetica,sans-Serif" font-size="10.00">::mom_temp_salt_initialize_from_z</text>
</a>
</g>
</g>
<!-- Node71&#45;&gt;Node73 -->
<g id="edge2" class="edge"><title>Node71&#45;&gt;Node73</title>
<path fill="none" stroke="midnightblue" d="M117.284,-32.6157C125.568,-31.3115 134.161,-29.9587 142.721,-28.611"/>
<polygon fill="midnightblue" stroke="midnightblue" points="116.689,-29.1661 107.355,-34.1788 117.778,-36.0809 116.689,-29.1661"/>
</g>
<!-- Node74 -->
<g id="node4" class="node"><title>Node74</title>
<g id="a_node4"><a xlink:href="../../d6/d62/namespacemom__state__initialization.html#af4e854627c6572332ba3fd895f169321" target="_top" xlink:title="mom_state_initialization\l::mom_initialize_state">
<polygon fill="white" stroke="black" points="347,-0.5 347,-30.5 469,-30.5 469,-0.5 347,-0.5"/>
<text text-anchor="start" x="355" y="-18.5" font-family="Helvetica,sans-Serif" font-size="10.00">mom_state_initialization</text>
<text text-anchor="middle" x="408" y="-7.5" font-family="Helvetica,sans-Serif" font-size="10.00">::mom_initialize_state</text>
</a>
</g>
</g>
<!-- Node73&#45;&gt;Node74 -->
<g id="edge3" class="edge"><title>Node73&#45;&gt;Node74</title>
<path fill="none" stroke="midnightblue" d="M321.397,-15.5C330.07,-15.5 338.695,-15.5 346.944,-15.5"/>
<polygon fill="midnightblue" stroke="midnightblue" points="321.212,-12.0001 311.212,-15.5 321.212,-19.0001 321.212,-12.0001"/>
</g>
<!-- Node75 -->
<g id="node5" class="node"><title>Node75</title>
<g id="a_node5"><a xlink:href="../../da/d01/namespacemom.html#afebdc0103ad9cbe0ed4a54e522dc4104" target="_top" xlink:title="This subroutine initializes MOM. ">
<polygon fill="white" stroke="black" points="505,-6 505,-25 612,-25 612,-6 505,-6"/>
<text text-anchor="middle" x="558.5" y="-13" font-family="Helvetica,sans-Serif" font-size="10.00">mom::initialize_mom</text>
</a>
</g>
</g>
<!-- Node74&#45;&gt;Node75 -->
<g id="edge4" class="edge"><title>Node74&#45;&gt;Node75</title>
<path fill="none" stroke="midnightblue" d="M479.657,-15.5C488.116,-15.5 496.636,-15.5 504.779,-15.5"/>
<polygon fill="midnightblue" stroke="midnightblue" points="479.401,-12.0001 469.401,-15.5 479.401,-19.0001 479.401,-12.0001"/>
</g>
<!-- Node76 -->
<g id="node6" class="node"><title>Node76</title>
<g id="a_node6"><a xlink:href="../../de/dbc/MOM__driver_8F90.html#a08fffeb2d8e8acbf9ed4609be6d258c6" target="_top" xlink:title="mom_main">
<polygon fill="white" stroke="black" points="648,-6 648,-25 713,-25 713,-6 648,-6"/>
<text text-anchor="middle" x="680.5" y="-13" font-family="Helvetica,sans-Serif" font-size="10.00">mom_main</text>
</a>
</g>
</g>
<!-- Node75&#45;&gt;Node76 -->
<g id="edge5" class="edge"><title>Node75&#45;&gt;Node76</title>
<path fill="none" stroke="midnightblue" d="M622.206,-15.5C631.134,-15.5 639.983,-15.5 647.958,-15.5"/>
<polygon fill="midnightblue" stroke="midnightblue" points="622.134,-12.0001 612.134,-15.5 622.134,-19.0001 622.134,-12.0001"/>
</g>
</g>
</svg>
