<?xml version="1.0" encoding="UTF-8" standalone="no"?>
<!DOCTYPE svg PUBLIC "-//W3C//DTD SVG 1.1//EN"
 "http://www.w3.org/Graphics/SVG/1.1/DTD/svg11.dtd">
<!-- Generated by graphviz version 2.38.0 (20140413.2041)
 -->
<!-- Title: mom_remapping::dzfromh1h2 Pages: 1 -->
<svg width="793pt" height="146pt"
 viewBox="0.00 0.00 793.00 145.50" xmlns="http://www.w3.org/2000/svg" xmlns:xlink="http://www.w3.org/1999/xlink">
<g id="graph0" class="graph" transform="scale(1 1) rotate(0) translate(4 141.5)">
<title>mom_remapping::dzfromh1h2</title>
<polygon fill="white" stroke="none" points="-4,4 -4,-141.5 789,-141.5 789,4 -4,4"/>
<!-- Node92 -->
<g id="node1" class="node"><title>Node92</title>
<polygon fill="#bfbfbf" stroke="black" points="0,-30 0,-49 146,-49 146,-30 0,-30"/>
<text text-anchor="middle" x="73" y="-37" font-family="Helvetica,sans-Serif" font-size="10.00">mom_remapping::dzfromh1h2</text>
</g>
<!-- Node93 -->
<g id="node2" class="node"><title>Node93</title>
<g id="a_node2"><a xlink:href="../../d7/d73/namespacemom__ale.html#aab30651699eb2cd8dc5a67c8e03474ee" target="_top" xlink:title="Remaps a single scalar between grids described by thicknesses h_src and h_dst. h_dst must be dimensio...">
<polygon fill="white" stroke="black" points="198.5,-49.5 198.5,-79.5 305.5,-79.5 305.5,-49.5 198.5,-49.5"/>
<text text-anchor="start" x="206.5" y="-67.5" font-family="Helvetica,sans-Serif" font-size="10.00">mom_ale::ale_remap</text>
<text text-anchor="middle" x="252" y="-56.5" font-family="Helvetica,sans-Serif" font-size="10.00">_scalar</text>
</a>
</g>
</g>
<!-- Node92&#45;&gt;Node93 -->
<g id="edge1" class="edge"><title>Node92&#45;&gt;Node93</title>
<path fill="none" stroke="midnightblue" d="M151.695,-50.4739C167.464,-52.7011 183.697,-54.9939 198.352,-57.0638"/>
<polygon fill="midnightblue" stroke="midnightblue" points="151.812,-46.9558 141.421,-49.0227 150.833,-53.887 151.812,-46.9558"/>
</g>
<!-- Node97 -->
<g id="node6" class="node"><title>Node97</title>
<g id="a_node6"><a xlink:href="../../d6/d75/namespacemom__remapping.html#a8a79c37c89f8b800f79198aceca5f090" target="_top" xlink:title="Runs unit tests on remapping functions. Should only be called from a single/root thread Returns True ...">
<polygon fill="white" stroke="black" points="182,-0.5 182,-30.5 322,-30.5 322,-0.5 182,-0.5"/>
<text text-anchor="start" x="190" y="-18.5" font-family="Helvetica,sans-Serif" font-size="10.00">mom_remapping::remapping</text>
<text text-anchor="middle" x="252" y="-7.5" font-family="Helvetica,sans-Serif" font-size="10.00">_unit_tests</text>
</a>
</g>
</g>
<!-- Node92&#45;&gt;Node97 -->
<g id="edge5" class="edge"><title>Node92&#45;&gt;Node97</title>
<path fill="none" stroke="midnightblue" d="M154.14,-28.6335C163.354,-27.3842 172.69,-26.1183 181.743,-24.8907"/>
<polygon fill="midnightblue" stroke="midnightblue" points="153.648,-25.1681 144.209,-29.9801 154.589,-32.1046 153.648,-25.1681"/>
</g>
<!-- Node94 -->
<g id="node3" class="node"><title>Node94</title>
<g id="a_node3"><a xlink:href="../../d8/d8a/namespacemom__tracer__initialization__from__z.html#a5281cd3eaf835f799cff81a50c273c5e" target="_top" xlink:title="mom_tracer_initialization\l_from_z::mom_initialize\l_tracer_from_z">
<polygon fill="white" stroke="black" points="379.5,-96 379.5,-137 504.5,-137 504.5,-96 379.5,-96"/>
<text text-anchor="start" x="387.5" y="-125" font-family="Helvetica,sans-Serif" font-size="10.00">mom_tracer_initialization</text>
<text text-anchor="start" x="387.5" y="-114" font-family="Helvetica,sans-Serif" font-size="10.00">_from_z::mom_initialize</text>
<text text-anchor="middle" x="442" y="-103" font-family="Helvetica,sans-Serif" font-size="10.00">_tracer_from_z</text>
</a>
</g>
</g>
<!-- Node93&#45;&gt;Node94 -->
<g id="edge2" class="edge"><title>Node93&#45;&gt;Node94</title>
<path fill="none" stroke="midnightblue" d="M315.511,-81.7903C336.076,-87.4784 358.914,-93.7954 379.41,-99.4644"/>
<polygon fill="midnightblue" stroke="midnightblue" points="316.19,-78.3466 305.618,-79.054 314.324,-85.0933 316.19,-78.3466"/>
</g>
<!-- Node95 -->
<g id="node4" class="node"><title>Node95</title>
<g id="a_node4"><a xlink:href="../../d6/d62/namespacemom__state__initialization.html#ae33403313da1b783a1ad980e10012f8e" target="_top" xlink:title="mom_state_initialization\l::mom_temp_salt_initialize_from_z">
<polygon fill="white" stroke="black" points="358,-46.5 358,-76.5 526,-76.5 526,-46.5 358,-46.5"/>
<text text-anchor="start" x="366" y="-64.5" font-family="Helvetica,sans-Serif" font-size="10.00">mom_state_initialization</text>
<text text-anchor="middle" x="442" y="-53.5" font-family="Helvetica,sans-Serif" font-size="10.00">::mom_temp_salt_initialize_from_z</text>
</a>
</g>
</g>
<!-- Node93&#45;&gt;Node95 -->
<g id="edge3" class="edge"><title>Node93&#45;&gt;Node95</title>
<path fill="none" stroke="midnightblue" d="M315.713,-63.4993C329.189,-63.2842 343.633,-63.0537 357.749,-62.8285"/>
<polygon fill="midnightblue" stroke="midnightblue" points="315.561,-60.0011 305.618,-63.6603 315.673,-67.0002 315.561,-60.0011"/>
</g>
<!-- Node96 -->
<g id="node5" class="node"><title>Node96</title>
<g id="a_node5"><a xlink:href="../../d6/d62/namespacemom__state__initialization.html#af4e854627c6572332ba3fd895f169321" target="_top" xlink:title="mom_state_initialization\l::mom_initialize_state">
<polygon fill="white" stroke="black" points="562,-46.5 562,-76.5 684,-76.5 684,-46.5 562,-46.5"/>
<text text-anchor="start" x="570" y="-64.5" font-family="Helvetica,sans-Serif" font-size="10.00">mom_state_initialization</text>
<text text-anchor="middle" x="623" y="-53.5" font-family="Helvetica,sans-Serif" font-size="10.00">::mom_initialize_state</text>
</a>
</g>
</g>
<!-- Node95&#45;&gt;Node96 -->
<g id="edge4" class="edge"><title>Node95&#45;&gt;Node96</title>
<path fill="none" stroke="midnightblue" d="M536.397,-61.5C545.07,-61.5 553.695,-61.5 561.944,-61.5"/>
<polygon fill="midnightblue" stroke="midnightblue" points="536.212,-58.0001 526.212,-61.5 536.212,-65.0001 536.212,-58.0001"/>
</g>
<!-- Node98 -->
<g id="node7" class="node"><title>Node98</title>
<g id="a_node7"><a xlink:href="../../da/d01/namespacemom.html#ae77cfd2e790f1266b31d93c58659d46c" target="_top" xlink:title="Calls unit tests for other modules. These are NOT normally invoked and so we provide the module use s...">
<polygon fill="white" stroke="black" points="398.5,-6 398.5,-25 485.5,-25 485.5,-6 398.5,-6"/>
<text text-anchor="middle" x="442" y="-13" font-family="Helvetica,sans-Serif" font-size="10.00">mom::unit_tests</text>
</a>
</g>
</g>
<!-- Node97&#45;&gt;Node98 -->
<g id="edge6" class="edge"><title>Node97&#45;&gt;Node98</title>
<path fill="none" stroke="midnightblue" d="M332.502,-15.5C355.134,-15.5 378.915,-15.5 398.426,-15.5"/>
<polygon fill="midnightblue" stroke="midnightblue" points="332.203,-12.0001 322.203,-15.5 332.203,-19.0001 332.203,-12.0001"/>
</g>
<!-- Node99 -->
<g id="node8" class="node"><title>Node99</title>
<g id="a_node8"><a xlink:href="../../da/d01/namespacemom.html#a0be2869fef30e1e0604facfe1b41555d" target="_top" xlink:title="This subroutine initializes MOM. ">
<polygon fill="white" stroke="black" points="569.5,-6 569.5,-25 676.5,-25 676.5,-6 569.5,-6"/>
<text text-anchor="middle" x="623" y="-13" font-family="Helvetica,sans-Serif" font-size="10.00">mom::initialize_mom</text>
</a>
</g>
</g>
<!-- Node98&#45;&gt;Node99 -->
<g id="edge7" class="edge"><title>Node98&#45;&gt;Node99</title>
<path fill="none" stroke="midnightblue" d="M496.177,-15.5C519.254,-15.5 546.212,-15.5 569.241,-15.5"/>
<polygon fill="midnightblue" stroke="midnightblue" points="495.875,-12.0001 485.875,-15.5 495.875,-19.0001 495.875,-12.0001"/>
</g>
<!-- Node100 -->
<g id="node9" class="node"><title>Node100</title>
<g id="a_node9"><a xlink:href="../../de/dbc/MOM__driver_8F90.html#a08fffeb2d8e8acbf9ed4609be6d258c6" target="_top" xlink:title="mom_main">
<polygon fill="white" stroke="black" points="720,-6 720,-25 785,-25 785,-6 720,-6"/>
<text text-anchor="middle" x="752.5" y="-13" font-family="Helvetica,sans-Serif" font-size="10.00">mom_main</text>
</a>
</g>
</g>
<!-- Node99&#45;&gt;Node100 -->
<g id="edge8" class="edge"><title>Node99&#45;&gt;Node100</title>
<path fill="none" stroke="midnightblue" d="M686.66,-15.5C698.171,-15.5 709.729,-15.5 719.832,-15.5"/>
<polygon fill="midnightblue" stroke="midnightblue" points="686.595,-12.0001 676.595,-15.5 686.595,-19.0001 686.595,-12.0001"/>
</g>
</g>
</svg>
