<?xml version="1.0" encoding="UTF-8" standalone="no"?>
<!DOCTYPE svg PUBLIC "-//W3C//DTD SVG 1.1//EN"
 "http://www.w3.org/Graphics/SVG/1.1/DTD/svg11.dtd">
<!-- Generated by graphviz version 2.38.0 (20140413.2041)
 -->
<!-- Title: mom_remapping::remapbyprojection Pages: 1 -->
<svg width="725pt" height="39pt"
 viewBox="0.00 0.00 725.00 39.00" xmlns="http://www.w3.org/2000/svg" xmlns:xlink="http://www.w3.org/1999/xlink">
<g id="graph0" class="graph" transform="scale(1 1) rotate(0) translate(4 35)">
<title>mom_remapping::remapbyprojection</title>
<polygon fill="white" stroke="none" points="-4,4 -4,-35 721,-35 721,4 -4,4"/>
<!-- Node214 -->
<g id="node1" class="node"><title>Node214</title>
<polygon fill="#bfbfbf" stroke="black" points="0,-6 0,-25 174,-25 174,-6 0,-6"/>
<text text-anchor="middle" x="87" y="-13" font-family="Helvetica,sans-Serif" font-size="10.00">mom_remapping::remapbyprojection</text>
</g>
<!-- Node215 -->
<g id="node2" class="node"><title>Node215</title>
<g id="a_node2"><a xlink:href="../../d6/d75/namespacemom__remapping.html#a8a79c37c89f8b800f79198aceca5f090" target="_top" xlink:title="Runs unit tests on remapping functions. Should only be called from a single/root thread Returns True ...">
<polygon fill="white" stroke="black" points="210,-0.5 210,-30.5 350,-30.5 350,-0.5 210,-0.5"/>
<text text-anchor="start" x="218" y="-18.5" font-family="Helvetica,sans-Serif" font-size="10.00">mom_remapping::remapping</text>
<text text-anchor="middle" x="280" y="-7.5" font-family="Helvetica,sans-Serif" font-size="10.00">_unit_tests</text>
</a>
</g>
</g>
<!-- Node214&#45;&gt;Node215 -->
<g id="edge1" class="edge"><title>Node214&#45;&gt;Node215</title>
<path fill="none" stroke="midnightblue" d="M184.141,-15.5C192.79,-15.5 201.433,-15.5 209.784,-15.5"/>
<polygon fill="midnightblue" stroke="midnightblue" points="184.001,-12.0001 174.001,-15.5 184.001,-19.0001 184.001,-12.0001"/>
</g>
<!-- Node216 -->
<g id="node3" class="node"><title>Node216</title>
<g id="a_node3"><a xlink:href="../../da/d01/namespacemom.html#ae77cfd2e790f1266b31d93c58659d46c" target="_top" xlink:title="Calls unit tests for other modules. These are NOT normally invoked and so we provide the module use s...">
<polygon fill="white" stroke="black" points="386,-6 386,-25 473,-25 473,-6 386,-6"/>
<text text-anchor="middle" x="429.5" y="-13" font-family="Helvetica,sans-Serif" font-size="10.00">mom::unit_tests</text>
</a>
</g>
</g>
<!-- Node215&#45;&gt;Node216 -->
<g id="edge2" class="edge"><title>Node215&#45;&gt;Node216</title>
<path fill="none" stroke="midnightblue" d="M360.652,-15.5C369.341,-15.5 377.92,-15.5 385.902,-15.5"/>
<polygon fill="midnightblue" stroke="midnightblue" points="360.431,-12.0001 350.431,-15.5 360.431,-19.0001 360.431,-12.0001"/>
</g>
<!-- Node217 -->
<g id="node4" class="node"><title>Node217</title>
<g id="a_node4"><a xlink:href="../../da/d01/namespacemom.html#a0be2869fef30e1e0604facfe1b41555d" target="_top" xlink:title="This subroutine initializes MOM. ">
<polygon fill="white" stroke="black" points="509,-6 509,-25 616,-25 616,-6 509,-6"/>
<text text-anchor="middle" x="562.5" y="-13" font-family="Helvetica,sans-Serif" font-size="10.00">mom::initialize_mom</text>
</a>
</g>
</g>
<!-- Node216&#45;&gt;Node217 -->
<g id="edge3" class="edge"><title>Node216&#45;&gt;Node217</title>
<path fill="none" stroke="midnightblue" d="M483.105,-15.5C491.515,-15.5 500.22,-15.5 508.636,-15.5"/>
<polygon fill="midnightblue" stroke="midnightblue" points="483.032,-12.0001 473.032,-15.5 483.032,-19.0001 483.032,-12.0001"/>
</g>
<!-- Node218 -->
<g id="node5" class="node"><title>Node218</title>
<g id="a_node5"><a xlink:href="../../de/dbc/MOM__driver_8F90.html#a08fffeb2d8e8acbf9ed4609be6d258c6" target="_top" xlink:title="mom_main">
<polygon fill="white" stroke="black" points="652,-6 652,-25 717,-25 717,-6 652,-6"/>
<text text-anchor="middle" x="684.5" y="-13" font-family="Helvetica,sans-Serif" font-size="10.00">mom_main</text>
</a>
</g>
</g>
<!-- Node217&#45;&gt;Node218 -->
<g id="edge4" class="edge"><title>Node217&#45;&gt;Node218</title>
<path fill="none" stroke="midnightblue" d="M626.206,-15.5C635.134,-15.5 643.983,-15.5 651.958,-15.5"/>
<polygon fill="midnightblue" stroke="midnightblue" points="626.134,-12.0001 616.134,-15.5 626.134,-19.0001 626.134,-12.0001"/>
</g>
</g>
</svg>
