<?xml version="1.0" encoding="UTF-8" standalone="no"?>
<!DOCTYPE svg PUBLIC "-//W3C//DTD SVG 1.1//EN"
 "http://www.w3.org/Graphics/SVG/1.1/DTD/svg11.dtd">
<!-- Generated by graphviz version 2.38.0 (20140413.2041)
 -->
<!-- Title: mom_remapping::remap_via_sub_cells Pages: 1 -->
<!--zoomable 230 -->
<svg id="main" version="1.1" xmlns="http://www.w3.org/2000/svg" xmlns:xlink="http://www.w3.org/1999/xlink" xml:space="preserve" onload="init(evt)">
<style type="text/css"><![CDATA[
.edge:hover path { stroke: red; }
.edge:hover polygon { stroke: red; fill: red; }
]]></style>
<script type="text/javascript"><![CDATA[
var edges = document.getElementsByTagName('g');
if (edges && edges.length) {
  for (var i=0;i<edges.length;i++) {
    if (edges[i].id.substr(0,4)=='edge') {
      edges[i].setAttribute('class','edge');
    }
  }
}
]]></script>
        <defs>
                <circle id="rim" cx="0" cy="0" r="7"/>
                <circle id="rim2" cx="0" cy="0" r="3.5"/>
                <g id="zoomPlus">
                        <use xlink:href="#rim" fill="#404040">
                                <set attributeName="fill" to="#808080" begin="zoomplus.mouseover" end="zoomplus.mouseout"/>
                        </use>
                        <path d="M-4,0h8M0,-4v8" fill="none" stroke="white" stroke-width="1.5" pointer-events="none"/>
                </g>
                <g id="zoomMin">
                        <use xlink:href="#rim" fill="#404040">
                                <set attributeName="fill" to="#808080" begin="zoomminus.mouseover" end="zoomminus.mouseout"/>
                        </use>
                        <path d="M-4,0h8" fill="none" stroke="white" stroke-width="1.5" pointer-events="none"/>
                </g>
                <g id="dirArrow">
                        <path fill="none" stroke="white" stroke-width="1.5" d="M0,-3.0v7 M-2.5,-0.5L0,-3.0L2.5,-0.5"/>
                </g>
               <g id="resetDef">
                       <use xlink:href="#rim2" fill="#404040">
                               <set attributeName="fill" to="#808080" begin="reset.mouseover" end="reset.mouseout"/>
                       </use>
               </g>
        </defs>

<script type="text/javascript">
var viewWidth = 916;
var viewHeight = 230;
var sectionId = 'dynsection-16';
</script>
<script xlink:href="../../svgpan.js"/>
<svg id="graph" class="graph">
<g id="viewport">
<title>mom_remapping::remap_via_sub_cells</title>
<polygon fill="white" stroke="none" points="-4,4 -4,-226 912,-226 912,4 -4,4"/>
<!-- Node159 -->
<g id="node1" class="node"><title>Node159</title>
<polygon fill="#bfbfbf" stroke="black" points="0,-44.5 0,-74.5 105,-74.5 105,-44.5 0,-44.5"/>
<text text-anchor="start" x="8" y="-62.5" font-family="Helvetica,sans-Serif" font-size="10.00">mom_remapping::remap</text>
<text text-anchor="middle" x="52.5" y="-51.5" font-family="Helvetica,sans-Serif" font-size="10.00">_via_sub_cells</text>
</g>
<!-- Node160 -->
<g id="node2" class="node"><title>Node160</title>
<g id="a_node2"><a xlink:href="../../d6/d75/namespacemom__remapping.html#a6d1533ffa647f3305aba055e2685b095" target="_top" xlink:title="Remaps column of values u0 on grid h0 to grid h1 assuming the top edge is aligned. ">
<polygon fill="white" stroke="black" points="141,-95.5 141,-125.5 261,-125.5 261,-95.5 141,-95.5"/>
<text text-anchor="start" x="149" y="-113.5" font-family="Helvetica,sans-Serif" font-size="10.00">mom_remapping::remapping</text>
<text text-anchor="middle" x="201" y="-102.5" font-family="Helvetica,sans-Serif" font-size="10.00">_core_h</text>
</a>
</g>
</g>
<!-- Node159&#45;&gt;Node160 -->
<g id="edge1" class="edge"><title>Node159&#45;&gt;Node160</title>
<path fill="none" stroke="midnightblue" d="M106.244,-77.8614C122.868,-83.6485 141.024,-89.969 156.893,-95.4935"/>
<polygon fill="midnightblue" stroke="midnightblue" points="107.257,-74.5082 96.6625,-74.5258 104.956,-81.119 107.257,-74.5082"/>
</g>
<!-- Node171 -->
<g id="node13" class="node"><title>Node171</title>
<g id="a_node13"><a xlink:href="../../d6/d75/namespacemom__remapping.html#a8b967872b8db2ac7d538991f7f255e56" target="_top" xlink:title="Remaps column of values u0 on grid h0 to implied grid h1 where the interfaces of h1 differ from those...">
<polygon fill="white" stroke="black" points="141,-44.5 141,-74.5 261,-74.5 261,-44.5 141,-44.5"/>
<text text-anchor="start" x="149" y="-62.5" font-family="Helvetica,sans-Serif" font-size="10.00">mom_remapping::remapping</text>
<text text-anchor="middle" x="201" y="-51.5" font-family="Helvetica,sans-Serif" font-size="10.00">_core_w</text>
</a>
</g>
</g>
<!-- Node159&#45;&gt;Node171 -->
<g id="edge12" class="edge"><title>Node159&#45;&gt;Node171</title>
<path fill="none" stroke="midnightblue" d="M115.317,-59.5C123.762,-59.5 132.415,-59.5 140.812,-59.5"/>
<polygon fill="midnightblue" stroke="midnightblue" points="115.15,-56.0001 105.15,-59.5 115.15,-63.0001 115.15,-56.0001"/>
</g>
<!-- Node172 -->
<g id="node14" class="node"><title>Node172</title>
<g id="a_node14"><a xlink:href="../../d6/d75/namespacemom__remapping.html#a8a79c37c89f8b800f79198aceca5f090" target="_top" xlink:title="Runs unit tests on remapping functions. Should only be called from a single/root thread Returns True ...">
<polygon fill="white" stroke="black" points="297,-0.5 297,-30.5 417,-30.5 417,-0.5 297,-0.5"/>
<text text-anchor="start" x="305" y="-18.5" font-family="Helvetica,sans-Serif" font-size="10.00">mom_remapping::remapping</text>
<text text-anchor="middle" x="357" y="-7.5" font-family="Helvetica,sans-Serif" font-size="10.00">_unit_tests</text>
</a>
</g>
</g>
<!-- Node159&#45;&gt;Node172 -->
<g id="edge16" class="edge"><title>Node159&#45;&gt;Node172</title>
<path fill="none" stroke="midnightblue" d="M109.641,-41.7588C119.988,-38.9762 130.758,-36.3978 141,-34.5 193.135,-24.8394 253.322,-20.0535 296.732,-17.7049"/>
<polygon fill="midnightblue" stroke="midnightblue" points="108.578,-38.4217 99.8819,-44.4737 110.454,-45.1656 108.578,-38.4217"/>
</g>
<!-- Node161 -->
<g id="node3" class="node"><title>Node161</title>
<g id="a_node3"><a xlink:href="../../d9/d06/namespacemom__diag__mediator.html#ab5e628e0b8acd96234fab33d0fae2161" target="_top" xlink:title="Remap diagnostic field to z&#45;star vertical grid. ">
<polygon fill="white" stroke="black" points="309.5,-169.5 309.5,-199.5 404.5,-199.5 404.5,-169.5 309.5,-169.5"/>
<text text-anchor="start" x="317.5" y="-187.5" font-family="Helvetica,sans-Serif" font-size="10.00">mom_diag_mediator::</text>
<text text-anchor="middle" x="357" y="-176.5" font-family="Helvetica,sans-Serif" font-size="10.00">remap_diag_to_z</text>
</a>
</g>
</g>
<!-- Node160&#45;&gt;Node161 -->
<g id="edge2" class="edge"><title>Node160&#45;&gt;Node161</title>
<path fill="none" stroke="midnightblue" d="M242.662,-130.039C268.374,-142.394 301.1,-158.12 324.77,-169.493"/>
<polygon fill="midnightblue" stroke="midnightblue" points="244.065,-126.83 233.536,-125.654 241.033,-133.139 244.065,-126.83"/>
</g>
<!-- Node163 -->
<g id="node5" class="node"><title>Node163</title>
<g id="a_node5"><a xlink:href="../../d6/d62/namespacemom__state__initialization.html#a71ee3c056ca59c1c3529a4ec22e09fe3" target="_top" xlink:title="Adjust the layer thicknesses by cutting away the top at the depth where the hydrostatic pressure matc...">
<polygon fill="white" stroke="black" points="306.5,-98.5 306.5,-128.5 407.5,-128.5 407.5,-98.5 306.5,-98.5"/>
<text text-anchor="start" x="314.5" y="-116.5" font-family="Helvetica,sans-Serif" font-size="10.00">mom_state_initialization</text>
<text text-anchor="middle" x="357" y="-105.5" font-family="Helvetica,sans-Serif" font-size="10.00">::cut_off_column_top</text>
</a>
</g>
</g>
<!-- Node160&#45;&gt;Node163 -->
<g id="edge4" class="edge"><title>Node160&#45;&gt;Node163</title>
<path fill="none" stroke="midnightblue" d="M271.365,-111.851C283.149,-112.081 295.173,-112.315 306.32,-112.532"/>
<polygon fill="midnightblue" stroke="midnightblue" points="271.166,-108.347 261.1,-111.651 271.03,-115.345 271.166,-108.347"/>
</g>
<!-- Node169 -->
<g id="node11" class="node"><title>Node169</title>
<g id="a_node11"><a xlink:href="../../de/dd7/namespacemom__ale__sponge.html#a8f6e6db99f860b048a58e97e58c101a6" target="_top" xlink:title="This subroutine applies damping to the layers thicknesses, temp, salt and a variety of tracers for ev...">
<polygon fill="white" stroke="black" points="305,-49.5 305,-79.5 409,-79.5 409,-49.5 305,-49.5"/>
<text text-anchor="start" x="313" y="-67.5" font-family="Helvetica,sans-Serif" font-size="10.00">mom_ale_sponge::apply</text>
<text text-anchor="middle" x="357" y="-56.5" font-family="Helvetica,sans-Serif" font-size="10.00">_ale_sponge</text>
</a>
</g>
</g>
<!-- Node160&#45;&gt;Node169 -->
<g id="edge10" class="edge"><title>Node160&#45;&gt;Node169</title>
<path fill="none" stroke="midnightblue" d="M262.231,-92.5089C276.623,-88.2101 291.836,-83.6659 305.724,-79.5174"/>
<polygon fill="midnightblue" stroke="midnightblue" points="261.005,-89.2222 252.425,-95.4379 263.009,-95.9293 261.005,-89.2222"/>
</g>
<!-- Node162 -->
<g id="node4" class="node"><title>Node162</title>
<g id="a_node4"><a xlink:href="../../d9/d06/namespacemom__diag__mediator.html#adb1030a0216c52dd0d25bd67a5b31868" target="_top" xlink:title="mom_diag_mediator::\lpost_data_3d">
<polygon fill="white" stroke="black" points="456,-191.5 456,-221.5 551,-221.5 551,-191.5 456,-191.5"/>
<text text-anchor="start" x="464" y="-209.5" font-family="Helvetica,sans-Serif" font-size="10.00">mom_diag_mediator::</text>
<text text-anchor="middle" x="503.5" y="-198.5" font-family="Helvetica,sans-Serif" font-size="10.00">post_data_3d</text>
</a>
</g>
</g>
<!-- Node161&#45;&gt;Node162 -->
<g id="edge3" class="edge"><title>Node161&#45;&gt;Node162</title>
<path fill="none" stroke="midnightblue" d="M414.687,-193.131C428.227,-195.192 442.532,-197.37 455.576,-199.356"/>
<polygon fill="midnightblue" stroke="midnightblue" points="414.929,-189.627 404.516,-191.582 413.875,-196.547 414.929,-189.627"/>
</g>
<!-- Node164 -->
<g id="node6" class="node"><title>Node164</title>
<g id="a_node6"><a xlink:href="../../d6/d62/namespacemom__state__initialization.html#acc1029776c1bdda2862ed0f95c8dc640" target="_top" xlink:title="Adjust the layer thicknesses by cutting away the top of each model column at the depth where the hydr...">
<polygon fill="white" stroke="black" points="453,-142.5 453,-172.5 554,-172.5 554,-142.5 453,-142.5"/>
<text text-anchor="start" x="461" y="-160.5" font-family="Helvetica,sans-Serif" font-size="10.00">mom_state_initialization</text>
<text text-anchor="middle" x="503.5" y="-149.5" font-family="Helvetica,sans-Serif" font-size="10.00">::trim_for_ice</text>
</a>
</g>
</g>
<!-- Node163&#45;&gt;Node164 -->
<g id="edge5" class="edge"><title>Node163&#45;&gt;Node164</title>
<path fill="none" stroke="midnightblue" d="M417.156,-131.513C429.032,-135.129 441.396,-138.894 452.907,-142.399"/>
<polygon fill="midnightblue" stroke="midnightblue" points="417.91,-128.084 407.325,-128.519 415.871,-134.78 417.91,-128.084"/>
</g>
<!-- Node168 -->
<g id="node10" class="node"><title>Node168</title>
<g id="a_node10"><a xlink:href="../../d6/d62/namespacemom__state__initialization.html#a5c77bf2b0ea9d28e28b661a2a42d3f88" target="_top" xlink:title="Run simple unit tests. ">
<polygon fill="white" stroke="black" points="453,-93.5 453,-123.5 554,-123.5 554,-93.5 453,-93.5"/>
<text text-anchor="start" x="461" y="-111.5" font-family="Helvetica,sans-Serif" font-size="10.00">mom_state_initialization</text>
<text text-anchor="middle" x="503.5" y="-100.5" font-family="Helvetica,sans-Serif" font-size="10.00">::mom_state_init_tests</text>
</a>
</g>
</g>
<!-- Node163&#45;&gt;Node168 -->
<g id="edge9" class="edge"><title>Node163&#45;&gt;Node168</title>
<path fill="none" stroke="midnightblue" d="M417.782,-111.431C429.388,-111.03 441.436,-110.613 452.68,-110.224"/>
<polygon fill="midnightblue" stroke="midnightblue" points="417.602,-107.935 407.729,-111.779 417.844,-114.931 417.602,-107.935"/>
</g>
<!-- Node165 -->
<g id="node7" class="node"><title>Node165</title>
<g id="a_node7"><a xlink:href="../../d6/d62/namespacemom__state__initialization.html#af4e854627c6572332ba3fd895f169321" target="_top" xlink:title="mom_state_initialization\l::mom_initialize_state">
<polygon fill="white" stroke="black" points="590,-117.5 590,-147.5 691,-147.5 691,-117.5 590,-117.5"/>
<text text-anchor="start" x="598" y="-135.5" font-family="Helvetica,sans-Serif" font-size="10.00">mom_state_initialization</text>
<text text-anchor="middle" x="640.5" y="-124.5" font-family="Helvetica,sans-Serif" font-size="10.00">::mom_initialize_state</text>
</a>
</g>
</g>
<!-- Node164&#45;&gt;Node165 -->
<g id="edge6" class="edge"><title>Node164&#45;&gt;Node165</title>
<path fill="none" stroke="midnightblue" d="M563.928,-146.495C572.481,-144.911 581.208,-143.295 589.552,-141.75"/>
<polygon fill="midnightblue" stroke="midnightblue" points="563.198,-143.07 554.002,-148.333 564.473,-149.953 563.198,-143.07"/>
</g>
<!-- Node166 -->
<g id="node8" class="node"><title>Node166</title>
<g id="a_node8"><a xlink:href="../../da/d01/namespacemom.html#afebdc0103ad9cbe0ed4a54e522dc4104" target="_top" xlink:title="This subroutine initializes MOM. ">
<polygon fill="white" stroke="black" points="727,-89 727,-108 816,-108 816,-89 727,-89"/>
<text text-anchor="middle" x="771.5" y="-96" font-family="Helvetica,sans-Serif" font-size="10.00">mom::initialize_mom</text>
</a>
</g>
</g>
<!-- Node165&#45;&gt;Node166 -->
<g id="edge7" class="edge"><title>Node165&#45;&gt;Node166</title>
<path fill="none" stroke="midnightblue" d="M700.887,-116.848C712.234,-113.857 723.793,-110.81 734.148,-108.081"/>
<polygon fill="midnightblue" stroke="midnightblue" points="699.784,-113.519 691.006,-119.452 701.568,-120.288 699.784,-113.519"/>
</g>
<!-- Node167 -->
<g id="node9" class="node"><title>Node167</title>
<g id="a_node9"><a xlink:href="../../de/dbc/MOM__driver_8F90.html#a08fffeb2d8e8acbf9ed4609be6d258c6" target="_top" xlink:title="mom_main">
<polygon fill="white" stroke="black" points="852,-89 852,-108 908,-108 908,-89 852,-89"/>
<text text-anchor="middle" x="880" y="-96" font-family="Helvetica,sans-Serif" font-size="10.00">mom_main</text>
</a>
</g>
</g>
<!-- Node166&#45;&gt;Node167 -->
<g id="edge8" class="edge"><title>Node166&#45;&gt;Node167</title>
<path fill="none" stroke="midnightblue" d="M826.407,-98.5C835.206,-98.5 843.981,-98.5 851.771,-98.5"/>
<polygon fill="midnightblue" stroke="midnightblue" points="826.125,-95.0001 816.125,-98.5 826.125,-102 826.125,-95.0001"/>
</g>
<!-- Node170 -->
<g id="node12" class="node"><title>Node170</title>
<g id="a_node12"><a xlink:href="../../d8/df3/namespacemom__diabatic__driver.html#a61e57d3902367aa46aa3c2d949ee900f" target="_top" xlink:title="This subroutine imposes the diapycnal mass fluxes and the accompanying diapycnal advection of momentu...">
<polygon fill="white" stroke="black" points="458,-44.5 458,-74.5 549,-74.5 549,-44.5 458,-44.5"/>
<text text-anchor="start" x="466" y="-62.5" font-family="Helvetica,sans-Serif" font-size="10.00">mom_diabatic_driver</text>
<text text-anchor="middle" x="503.5" y="-51.5" font-family="Helvetica,sans-Serif" font-size="10.00">::diabatic</text>
</a>
</g>
</g>
<!-- Node169&#45;&gt;Node170 -->
<g id="edge11" class="edge"><title>Node169&#45;&gt;Node170</title>
<path fill="none" stroke="midnightblue" d="M419.473,-62.3729C432.254,-61.9306 445.496,-61.4724 457.55,-61.0554"/>
<polygon fill="midnightblue" stroke="midnightblue" points="419.225,-58.8793 409.352,-62.7231 419.467,-65.8751 419.225,-58.8793"/>
</g>
<!-- Node171&#45;&gt;Node172 -->
<g id="edge13" class="edge"><title>Node171&#45;&gt;Node172</title>
<path fill="none" stroke="midnightblue" d="M264.341,-41.6882C277.303,-37.985 290.839,-34.1173 303.408,-30.5262"/>
<polygon fill="midnightblue" stroke="midnightblue" points="263.221,-38.3681 254.567,-44.4808 265.144,-45.0988 263.221,-38.3681"/>
</g>
<!-- Node173 -->
<g id="node15" class="node"><title>Node173</title>
<g id="a_node15"><a xlink:href="../../da/d01/namespacemom.html#ae77cfd2e790f1266b31d93c58659d46c" target="_top" xlink:title="Calls unit tests for other modules. These are NOT normally invoked and so we provide the module use s...">
<polygon fill="white" stroke="black" points="604,-55 604,-74 677,-74 677,-55 604,-55"/>
<text text-anchor="middle" x="640.5" y="-62" font-family="Helvetica,sans-Serif" font-size="10.00">mom::unit_tests</text>
</a>
</g>
</g>
<!-- Node172&#45;&gt;Node173 -->
<g id="edge14" class="edge"><title>Node172&#45;&gt;Node173</title>
<path fill="none" stroke="midnightblue" d="M427.705,-18.1724C465.434,-20.639 512.651,-25.3816 554,-34.5 575.968,-39.3443 600.071,-48.1374 617.071,-54.9562"/>
<polygon fill="midnightblue" stroke="midnightblue" points="427.524,-14.6548 417.328,-17.5353 427.095,-21.6416 427.524,-14.6548"/>
</g>
<!-- Node173&#45;&gt;Node166 -->
<g id="edge15" class="edge"><title>Node173&#45;&gt;Node166</title>
<path fill="none" stroke="midnightblue" d="M686.974,-76.4854C702.427,-80.5583 719.481,-85.053 734.128,-88.9135"/>
<polygon fill="midnightblue" stroke="midnightblue" points="687.653,-73.0449 677.091,-73.8807 685.869,-79.8138 687.653,-73.0449"/>
</g>
</g>
</svg>
        <g id="navigator" transform="translate(0 0)" fill="#404254">
                <rect fill="#f2f5e9" fill-opacity="0.5" stroke="#606060" stroke-width=".5" x="0" y="0" width="60" height="60"/>
                <use id="zoomplus" xlink:href="#zoomPlus" x="17" y="9" onmousedown="handleZoom(evt,'in')"/>
                <use id="zoomminus" xlink:href="#zoomMin" x="42" y="9" onmousedown="handleZoom(evt,'out')"/>
                <use id="reset" xlink:href="#resetDef" x="30" y="36" onmousedown="handleReset()"/>
                <g id="arrowUp" xlink:href="#dirArrow" transform="translate(30 24)" onmousedown="handlePan(0,-1)">
                  <use xlink:href="#rim" fill="#404040">
                        <set attributeName="fill" to="#808080" begin="arrowUp.mouseover" end="arrowUp.mouseout"/>
                  </use>
                  <path fill="none" stroke="white" stroke-width="1.5" d="M0,-3.0v7 M-2.5,-0.5L0,-3.0L2.5,-0.5"/>
                </g>
                <g id="arrowRight" xlink:href="#dirArrow" transform="rotate(90) translate(36 -43)" onmousedown="handlePan(1,0)">
                  <use xlink:href="#rim" fill="#404040">
                        <set attributeName="fill" to="#808080" begin="arrowRight.mouseover" end="arrowRight.mouseout"/>
                  </use>
                  <path fill="none" stroke="white" stroke-width="1.5" d="M0,-3.0v7 M-2.5,-0.5L0,-3.0L2.5,-0.5"/>
                </g>
                <g id="arrowDown" xlink:href="#dirArrow" transform="rotate(180) translate(-30 -48)" onmousedown="handlePan(0,1)">
                  <use xlink:href="#rim" fill="#404040">
                        <set attributeName="fill" to="#808080" begin="arrowDown.mouseover" end="arrowDown.mouseout"/>
                  </use>
                  <path fill="none" stroke="white" stroke-width="1.5" d="M0,-3.0v7 M-2.5,-0.5L0,-3.0L2.5,-0.5"/>
                </g>
                <g id="arrowLeft" xlink:href="#dirArrow" transform="rotate(270) translate(-36 17)" onmousedown="handlePan(-1,0)">
                  <use xlink:href="#rim" fill="#404040">
                        <set attributeName="fill" to="#808080" begin="arrowLeft.mouseover" end="arrowLeft.mouseout"/>
                  </use>
                  <path fill="none" stroke="white" stroke-width="1.5" d="M0,-3.0v7 M-2.5,-0.5L0,-3.0L2.5,-0.5"/>
                </g>
        </g>
        <svg viewBox="0 0 15 15" width="100%" height="30px" preserveAspectRatio="xMaxYMin meet">
         <g id="arrow_out" transform="scale(0.3 0.3)">
          <a xlink:href="namespacemom__remapping_aac27eb299cd36293b458a51b60ac771f_icgraph_org.svg" target="_base">
           <rect id="button" ry="5" rx="5" y="6" x="6" height="38" width="38"
                fill="#f2f5e9" fill-opacity="0.5" stroke="#606060" stroke-width="1.0"/>
           <path id="arrow"
             d="M 11.500037,31.436501 C 11.940474,20.09759 22.043105,11.32322 32.158766,21.979434 L 37.068811,17.246167 C 37.068811,17.246167 37.088388,32 37.088388,32 L 22.160133,31.978069 C 22.160133,31.978069 26.997745,27.140456 26.997745,27.140456 C 18.528582,18.264221 13.291696,25.230495 11.500037,31.436501 z"
             style="fill:#404040;"/>
          </a>
         </g>
        </svg>
</svg>
