<?xml version="1.0" encoding="UTF-8" standalone="no"?>
<!DOCTYPE svg PUBLIC "-//W3C//DTD SVG 1.1//EN"
 "http://www.w3.org/Graphics/SVG/1.1/DTD/svg11.dtd">
<!-- Generated by graphviz version 2.38.0 (20140413.2041)
 -->
<!-- Title: mom_remapping::remapping_unit_tests Pages: 1 -->
<svg width="515pt" height="39pt"
 viewBox="0.00 0.00 515.00 39.00" xmlns="http://www.w3.org/2000/svg" xmlns:xlink="http://www.w3.org/1999/xlink">
<g id="graph0" class="graph" transform="scale(1 1) rotate(0) translate(4 35)">
<title>mom_remapping::remapping_unit_tests</title>
<polygon fill="white" stroke="none" points="-4,4 -4,-35 511,-35 511,4 -4,4"/>
<!-- Node348 -->
<g id="node1" class="node"><title>Node348</title>
<polygon fill="#bfbfbf" stroke="black" points="0,-0.5 0,-30.5 140,-30.5 140,-0.5 0,-0.5"/>
<text text-anchor="start" x="8" y="-18.5" font-family="Helvetica,sans-Serif" font-size="10.00">mom_remapping::remapping</text>
<text text-anchor="middle" x="70" y="-7.5" font-family="Helvetica,sans-Serif" font-size="10.00">_unit_tests</text>
</g>
<!-- Node349 -->
<g id="node2" class="node"><title>Node349</title>
<g id="a_node2"><a xlink:href="../../da/d01/namespacemom.html#ae77cfd2e790f1266b31d93c58659d46c" target="_top" xlink:title="Calls unit tests for other modules. These are NOT normally invoked and so we provide the module use s...">
<polygon fill="white" stroke="black" points="176,-6 176,-25 263,-25 263,-6 176,-6"/>
<text text-anchor="middle" x="219.5" y="-13" font-family="Helvetica,sans-Serif" font-size="10.00">mom::unit_tests</text>
</a>
</g>
</g>
<!-- Node348&#45;&gt;Node349 -->
<g id="edge1" class="edge"><title>Node348&#45;&gt;Node349</title>
<path fill="none" stroke="midnightblue" d="M150.652,-15.5C159.341,-15.5 167.92,-15.5 175.902,-15.5"/>
<polygon fill="midnightblue" stroke="midnightblue" points="150.431,-12.0001 140.431,-15.5 150.431,-19.0001 150.431,-12.0001"/>
</g>
<!-- Node350 -->
<g id="node3" class="node"><title>Node350</title>
<g id="a_node3"><a xlink:href="../../da/d01/namespacemom.html#a0be2869fef30e1e0604facfe1b41555d" target="_top" xlink:title="This subroutine initializes MOM. ">
<polygon fill="white" stroke="black" points="299,-6 299,-25 406,-25 406,-6 299,-6"/>
<text text-anchor="middle" x="352.5" y="-13" font-family="Helvetica,sans-Serif" font-size="10.00">mom::initialize_mom</text>
</a>
</g>
</g>
<!-- Node349&#45;&gt;Node350 -->
<g id="edge2" class="edge"><title>Node349&#45;&gt;Node350</title>
<path fill="none" stroke="midnightblue" d="M273.105,-15.5C281.515,-15.5 290.22,-15.5 298.636,-15.5"/>
<polygon fill="midnightblue" stroke="midnightblue" points="273.032,-12.0001 263.032,-15.5 273.032,-19.0001 273.032,-12.0001"/>
</g>
<!-- Node351 -->
<g id="node4" class="node"><title>Node351</title>
<g id="a_node4"><a xlink:href="../../de/dbc/MOM__driver_8F90.html#a08fffeb2d8e8acbf9ed4609be6d258c6" target="_top" xlink:title="mom_main">
<polygon fill="white" stroke="black" points="442,-6 442,-25 507,-25 507,-6 442,-6"/>
<text text-anchor="middle" x="474.5" y="-13" font-family="Helvetica,sans-Serif" font-size="10.00">mom_main</text>
</a>
</g>
</g>
<!-- Node350&#45;&gt;Node351 -->
<g id="edge3" class="edge"><title>Node350&#45;&gt;Node351</title>
<path fill="none" stroke="midnightblue" d="M416.206,-15.5C425.134,-15.5 433.983,-15.5 441.958,-15.5"/>
<polygon fill="midnightblue" stroke="midnightblue" points="416.134,-12.0001 406.134,-15.5 416.134,-19.0001 416.134,-12.0001"/>
</g>
</g>
</svg>
