<?xml version="1.0" encoding="UTF-8" standalone="no"?>
<!DOCTYPE svg PUBLIC "-//W3C//DTD SVG 1.1//EN"
 "http://www.w3.org/Graphics/SVG/1.1/DTD/svg11.dtd">
<!-- Generated by graphviz version 2.38.0 (20140413.2041)
 -->
<!-- Title: mom_remapping::setreconstructiontype Pages: 1 -->
<!--zoomable 88 -->
<svg id="main" version="1.1" xmlns="http://www.w3.org/2000/svg" xmlns:xlink="http://www.w3.org/1999/xlink" xml:space="preserve" onload="init(evt)">
<style type="text/css"><![CDATA[
.edge:hover path { stroke: red; }
.edge:hover polygon { stroke: red; fill: red; }
]]></style>
<script type="text/javascript"><![CDATA[
var edges = document.getElementsByTagName('g');
if (edges && edges.length) {
  for (var i=0;i<edges.length;i++) {
    if (edges[i].id.substr(0,4)=='edge') {
      edges[i].setAttribute('class','edge');
    }
  }
}
]]></script>
        <defs>
                <circle id="rim" cx="0" cy="0" r="7"/>
                <circle id="rim2" cx="0" cy="0" r="3.5"/>
                <g id="zoomPlus">
                        <use xlink:href="#rim" fill="#404040">
                                <set attributeName="fill" to="#808080" begin="zoomplus.mouseover" end="zoomplus.mouseout"/>
                        </use>
                        <path d="M-4,0h8M0,-4v8" fill="none" stroke="white" stroke-width="1.5" pointer-events="none"/>
                </g>
                <g id="zoomMin">
                        <use xlink:href="#rim" fill="#404040">
                                <set attributeName="fill" to="#808080" begin="zoomminus.mouseover" end="zoomminus.mouseout"/>
                        </use>
                        <path d="M-4,0h8" fill="none" stroke="white" stroke-width="1.5" pointer-events="none"/>
                </g>
                <g id="dirArrow">
                        <path fill="none" stroke="white" stroke-width="1.5" d="M0,-3.0v7 M-2.5,-0.5L0,-3.0L2.5,-0.5"/>
                </g>
               <g id="resetDef">
                       <use xlink:href="#rim2" fill="#404040">
                               <set attributeName="fill" to="#808080" begin="reset.mouseover" end="reset.mouseout"/>
                       </use>
               </g>
        </defs>

<script type="text/javascript">
var viewWidth = 1125;
var viewHeight = 88;
var sectionId = 'dynsection-30';
</script>
<script xlink:href="../../svgpan.js"/>
<svg id="graph" class="graph">
<g id="viewport">
<title>mom_remapping::setreconstructiontype</title>
<polygon fill="white" stroke="none" points="-4,4 -4,-84 1121,-84 1121,4 -4,4"/>
<!-- Node323 -->
<g id="node1" class="node"><title>Node323</title>
<polygon fill="#bfbfbf" stroke="black" points="0,-30 0,-49 158,-49 158,-30 0,-30"/>
<text text-anchor="middle" x="79" y="-37" font-family="Helvetica,sans-Serif" font-size="10.00">mom_remapping::setreconstructiontype</text>
</g>
<!-- Node324 -->
<g id="node2" class="node"><title>Node324</title>
<g id="a_node2"><a xlink:href="../../d6/d75/namespacemom__remapping.html#a9e811f89c505a4416ea0eec315769801" target="_top" xlink:title="Set parameters within remapping object. ">
<polygon fill="white" stroke="black" points="194,-24.5 194,-54.5 314,-54.5 314,-24.5 194,-24.5"/>
<text text-anchor="start" x="202" y="-42.5" font-family="Helvetica,sans-Serif" font-size="10.00">mom_remapping::remapping</text>
<text text-anchor="middle" x="254" y="-31.5" font-family="Helvetica,sans-Serif" font-size="10.00">_set_param</text>
</a>
</g>
</g>
<!-- Node323&#45;&gt;Node324 -->
<g id="edge1" class="edge"><title>Node323&#45;&gt;Node324</title>
<path fill="none" stroke="midnightblue" d="M168.303,-39.5C176.962,-39.5 185.596,-39.5 193.859,-39.5"/>
<polygon fill="midnightblue" stroke="midnightblue" points="168.149,-36.0001 158.149,-39.5 168.149,-43.0001 168.149,-36.0001"/>
</g>
<!-- Node325 -->
<g id="node3" class="node"><title>Node325</title>
<g id="a_node3"><a xlink:href="../../d6/d75/namespacemom__remapping.html#a6847e0c44ccb54fb72587677f90d95b6" target="_top" xlink:title="Constructor for remapping control structure. ">
<polygon fill="white" stroke="black" points="350,-24.5 350,-54.5 459,-54.5 459,-24.5 350,-24.5"/>
<text text-anchor="start" x="358" y="-42.5" font-family="Helvetica,sans-Serif" font-size="10.00">mom_remapping::initialize</text>
<text text-anchor="middle" x="404.5" y="-31.5" font-family="Helvetica,sans-Serif" font-size="10.00">_remapping</text>
</a>
</g>
</g>
<!-- Node324&#45;&gt;Node325 -->
<g id="edge2" class="edge"><title>Node324&#45;&gt;Node325</title>
<path fill="none" stroke="midnightblue" d="M324.18,-39.5C332.811,-39.5 341.534,-39.5 349.88,-39.5"/>
<polygon fill="midnightblue" stroke="midnightblue" points="324.118,-36.0001 314.118,-39.5 324.118,-43.0001 324.118,-36.0001"/>
</g>
<!-- Node326 -->
<g id="node4" class="node"><title>Node326</title>
<g id="a_node4"><a xlink:href="../../de/dd7/namespacemom__ale__sponge.html#a135d5ca4d0dff789bc6db5ac789b4142" target="_top" xlink:title="This subroutine determines the number of points which are within. ">
<polygon fill="white" stroke="black" points="495,-47.5 495,-77.5 607,-77.5 607,-47.5 495,-47.5"/>
<text text-anchor="start" x="503" y="-65.5" font-family="Helvetica,sans-Serif" font-size="10.00">mom_ale_sponge::initialize</text>
<text text-anchor="middle" x="551" y="-54.5" font-family="Helvetica,sans-Serif" font-size="10.00">_ale_sponge</text>
</a>
</g>
</g>
<!-- Node325&#45;&gt;Node326 -->
<g id="edge3" class="edge"><title>Node325&#45;&gt;Node326</title>
<path fill="none" stroke="midnightblue" d="M469.187,-49.637C477.691,-50.9906 486.356,-52.3698 494.701,-53.698"/>
<polygon fill="midnightblue" stroke="midnightblue" points="469.732,-46.1799 459.306,-48.0644 468.632,-53.0928 469.732,-46.1799"/>
</g>
<!-- Node331 -->
<g id="node9" class="node"><title>Node331</title>
<g id="a_node9"><a xlink:href="../../d6/d75/namespacemom__remapping.html#a8a79c37c89f8b800f79198aceca5f090" target="_top" xlink:title="Runs unit tests on remapping functions. Should only be called from a single/root thread Returns True ...">
<polygon fill="white" stroke="black" points="643,-0.5 643,-30.5 763,-30.5 763,-0.5 643,-0.5"/>
<text text-anchor="start" x="651" y="-18.5" font-family="Helvetica,sans-Serif" font-size="10.00">mom_remapping::remapping</text>
<text text-anchor="middle" x="703" y="-7.5" font-family="Helvetica,sans-Serif" font-size="10.00">_unit_tests</text>
</a>
</g>
</g>
<!-- Node325&#45;&gt;Node331 -->
<g id="edge8" class="edge"><title>Node325&#45;&gt;Node331</title>
<path fill="none" stroke="midnightblue" d="M469.207,-34.3433C520.697,-30.1754 592.626,-24.3532 642.857,-20.2873"/>
<polygon fill="midnightblue" stroke="midnightblue" points="468.879,-30.8583 459.194,-35.1538 469.444,-37.8355 468.879,-30.8583"/>
</g>
<!-- Node327 -->
<g id="node5" class="node"><title>Node327</title>
<g id="a_node5"><a xlink:href="../../da/d77/namespacedome2d__initialization.html#ab0df2b602fe1c83baa66ba03cc2c6dd4" target="_top" xlink:title="Set up sponges in 2d DOME configuration. ">
<polygon fill="white" stroke="black" points="645,-49.5 645,-79.5 761,-79.5 761,-49.5 645,-49.5"/>
<text text-anchor="start" x="653" y="-67.5" font-family="Helvetica,sans-Serif" font-size="10.00">dome2d_initialization</text>
<text text-anchor="middle" x="703" y="-56.5" font-family="Helvetica,sans-Serif" font-size="10.00">::dome2d_initialize_sponges</text>
</a>
</g>
</g>
<!-- Node326&#45;&gt;Node327 -->
<g id="edge4" class="edge"><title>Node326&#45;&gt;Node327</title>
<path fill="none" stroke="midnightblue" d="M617.002,-63.3667C626.318,-63.4909 635.844,-63.6179 644.991,-63.7399"/>
<polygon fill="midnightblue" stroke="midnightblue" points="617.049,-59.8671 607.003,-63.2334 616.955,-66.8665 617.049,-59.8671"/>
</g>
<!-- Node328 -->
<g id="node6" class="node"><title>Node328</title>
<g id="a_node6"><a xlink:href="../../d6/d62/namespacemom__state__initialization.html#af4e854627c6572332ba3fd895f169321" target="_top" xlink:title="mom_state_initialization\l::mom_initialize_state">
<polygon fill="white" stroke="black" points="799,-47.5 799,-77.5 900,-77.5 900,-47.5 799,-47.5"/>
<text text-anchor="start" x="807" y="-65.5" font-family="Helvetica,sans-Serif" font-size="10.00">mom_state_initialization</text>
<text text-anchor="middle" x="849.5" y="-54.5" font-family="Helvetica,sans-Serif" font-size="10.00">::mom_initialize_state</text>
</a>
</g>
</g>
<!-- Node327&#45;&gt;Node328 -->
<g id="edge5" class="edge"><title>Node327&#45;&gt;Node328</title>
<path fill="none" stroke="midnightblue" d="M771.146,-63.5706C780.464,-63.4417 789.895,-63.3111 798.816,-63.1877"/>
<polygon fill="midnightblue" stroke="midnightblue" points="771.061,-60.0714 761.11,-63.7095 771.158,-67.0707 771.061,-60.0714"/>
</g>
<!-- Node329 -->
<g id="node7" class="node"><title>Node329</title>
<g id="a_node7"><a xlink:href="../../da/d01/namespacemom.html#afebdc0103ad9cbe0ed4a54e522dc4104" target="_top" xlink:title="This subroutine initializes MOM. ">
<polygon fill="white" stroke="black" points="936,-30 936,-49 1025,-49 1025,-30 936,-30"/>
<text text-anchor="middle" x="980.5" y="-37" font-family="Helvetica,sans-Serif" font-size="10.00">mom::initialize_mom</text>
</a>
</g>
</g>
<!-- Node328&#45;&gt;Node329 -->
<g id="edge6" class="edge"><title>Node328&#45;&gt;Node329</title>
<path fill="none" stroke="midnightblue" d="M910.088,-51.8758C918.755,-50.3305 927.541,-48.764 935.815,-47.2888"/>
<polygon fill="midnightblue" stroke="midnightblue" points="909.236,-48.4724 900.006,-53.6734 910.465,-55.3637 909.236,-48.4724"/>
</g>
<!-- Node330 -->
<g id="node8" class="node"><title>Node330</title>
<g id="a_node8"><a xlink:href="../../de/dbc/MOM__driver_8F90.html#a08fffeb2d8e8acbf9ed4609be6d258c6" target="_top" xlink:title="mom_main">
<polygon fill="white" stroke="black" points="1061,-30 1061,-49 1117,-49 1117,-30 1061,-30"/>
<text text-anchor="middle" x="1089" y="-37" font-family="Helvetica,sans-Serif" font-size="10.00">mom_main</text>
</a>
</g>
</g>
<!-- Node329&#45;&gt;Node330 -->
<g id="edge7" class="edge"><title>Node329&#45;&gt;Node330</title>
<path fill="none" stroke="midnightblue" d="M1035.41,-39.5C1044.21,-39.5 1052.98,-39.5 1060.77,-39.5"/>
<polygon fill="midnightblue" stroke="midnightblue" points="1035.12,-36.0001 1025.12,-39.5 1035.12,-43.0001 1035.12,-36.0001"/>
</g>
<!-- Node332 -->
<g id="node10" class="node"><title>Node332</title>
<g id="a_node10"><a xlink:href="../../da/d01/namespacemom.html#ae77cfd2e790f1266b31d93c58659d46c" target="_top" xlink:title="Calls unit tests for other modules. These are NOT normally invoked and so we provide the module use s...">
<polygon fill="white" stroke="black" points="813,-8 813,-27 886,-27 886,-8 813,-8"/>
<text text-anchor="middle" x="849.5" y="-15" font-family="Helvetica,sans-Serif" font-size="10.00">mom::unit_tests</text>
</a>
</g>
</g>
<!-- Node331&#45;&gt;Node332 -->
<g id="edge9" class="edge"><title>Node331&#45;&gt;Node332</title>
<path fill="none" stroke="midnightblue" d="M773.539,-16.4625C787.145,-16.6508 800.88,-16.8409 812.81,-17.006"/>
<polygon fill="midnightblue" stroke="midnightblue" points="773.238,-12.9581 763.191,-16.3192 773.141,-19.9574 773.238,-12.9581"/>
</g>
<!-- Node332&#45;&gt;Node329 -->
<g id="edge10" class="edge"><title>Node332&#45;&gt;Node329</title>
<path fill="none" stroke="midnightblue" d="M896.137,-25.2831C909.012,-27.4789 922.987,-29.8622 935.749,-32.0386"/>
<polygon fill="midnightblue" stroke="midnightblue" points="896.537,-21.8009 886.091,-23.5698 895.361,-28.7013 896.537,-21.8009"/>
</g>
</g>
</svg>
        <g id="navigator" transform="translate(0 0)" fill="#404254">
                <rect fill="#f2f5e9" fill-opacity="0.5" stroke="#606060" stroke-width=".5" x="0" y="0" width="60" height="60"/>
                <use id="zoomplus" xlink:href="#zoomPlus" x="17" y="9" onmousedown="handleZoom(evt,'in')"/>
                <use id="zoomminus" xlink:href="#zoomMin" x="42" y="9" onmousedown="handleZoom(evt,'out')"/>
                <use id="reset" xlink:href="#resetDef" x="30" y="36" onmousedown="handleReset()"/>
                <g id="arrowUp" xlink:href="#dirArrow" transform="translate(30 24)" onmousedown="handlePan(0,-1)">
                  <use xlink:href="#rim" fill="#404040">
                        <set attributeName="fill" to="#808080" begin="arrowUp.mouseover" end="arrowUp.mouseout"/>
                  </use>
                  <path fill="none" stroke="white" stroke-width="1.5" d="M0,-3.0v7 M-2.5,-0.5L0,-3.0L2.5,-0.5"/>
                </g>
                <g id="arrowRight" xlink:href="#dirArrow" transform="rotate(90) translate(36 -43)" onmousedown="handlePan(1,0)">
                  <use xlink:href="#rim" fill="#404040">
                        <set attributeName="fill" to="#808080" begin="arrowRight.mouseover" end="arrowRight.mouseout"/>
                  </use>
                  <path fill="none" stroke="white" stroke-width="1.5" d="M0,-3.0v7 M-2.5,-0.5L0,-3.0L2.5,-0.5"/>
                </g>
                <g id="arrowDown" xlink:href="#dirArrow" transform="rotate(180) translate(-30 -48)" onmousedown="handlePan(0,1)">
                  <use xlink:href="#rim" fill="#404040">
                        <set attributeName="fill" to="#808080" begin="arrowDown.mouseover" end="arrowDown.mouseout"/>
                  </use>
                  <path fill="none" stroke="white" stroke-width="1.5" d="M0,-3.0v7 M-2.5,-0.5L0,-3.0L2.5,-0.5"/>
                </g>
                <g id="arrowLeft" xlink:href="#dirArrow" transform="rotate(270) translate(-36 17)" onmousedown="handlePan(-1,0)">
                  <use xlink:href="#rim" fill="#404040">
                        <set attributeName="fill" to="#808080" begin="arrowLeft.mouseover" end="arrowLeft.mouseout"/>
                  </use>
                  <path fill="none" stroke="white" stroke-width="1.5" d="M0,-3.0v7 M-2.5,-0.5L0,-3.0L2.5,-0.5"/>
                </g>
        </g>
        <svg viewBox="0 0 15 15" width="100%" height="30px" preserveAspectRatio="xMaxYMin meet">
         <g id="arrow_out" transform="scale(0.3 0.3)">
          <a xlink:href="namespacemom__remapping_a41a89ac62578250500b7a450d5fdfae7_icgraph_org.svg" target="_base">
           <rect id="button" ry="5" rx="5" y="6" x="6" height="38" width="38"
                fill="#f2f5e9" fill-opacity="0.5" stroke="#606060" stroke-width="1.0"/>
           <path id="arrow"
             d="M 11.500037,31.436501 C 11.940474,20.09759 22.043105,11.32322 32.158766,21.979434 L 37.068811,17.246167 C 37.068811,17.246167 37.088388,32 37.088388,32 L 22.160133,31.978069 C 22.160133,31.978069 26.997745,27.140456 26.997745,27.140456 C 18.528582,18.264221 13.291696,25.230495 11.500037,31.436501 z"
             style="fill:#404040;"/>
          </a>
         </g>
        </svg>
</svg>
