<?xml version="1.0" encoding="UTF-8" standalone="no"?>
<!DOCTYPE svg PUBLIC "-//W3C//DTD SVG 1.1//EN"
 "http://www.w3.org/Graphics/SVG/1.1/DTD/svg11.dtd">
<!-- Generated by graphviz version 2.38.0 (20140413.2041)
 -->
<!-- Title: mom_remapping::measure_input_bounds Pages: 1 -->
<!--zoomable 335 -->
<svg id="main" version="1.1" xmlns="http://www.w3.org/2000/svg" xmlns:xlink="http://www.w3.org/1999/xlink" xml:space="preserve" onload="init(evt)">
<style type="text/css"><![CDATA[
.edge:hover path { stroke: red; }
.edge:hover polygon { stroke: red; fill: red; }
]]></style>
<script type="text/javascript"><![CDATA[
var edges = document.getElementsByTagName('g');
if (edges && edges.length) {
  for (var i=0;i<edges.length;i++) {
    if (edges[i].id.substr(0,4)=='edge') {
      edges[i].setAttribute('class','edge');
    }
  }
}
]]></script>
        <defs>
                <circle id="rim" cx="0" cy="0" r="7"/>
                <circle id="rim2" cx="0" cy="0" r="3.5"/>
                <g id="zoomPlus">
                        <use xlink:href="#rim" fill="#404040">
                                <set attributeName="fill" to="#808080" begin="zoomplus.mouseover" end="zoomplus.mouseout"/>
                        </use>
                        <path d="M-4,0h8M0,-4v8" fill="none" stroke="white" stroke-width="1.5" pointer-events="none"/>
                </g>
                <g id="zoomMin">
                        <use xlink:href="#rim" fill="#404040">
                                <set attributeName="fill" to="#808080" begin="zoomminus.mouseover" end="zoomminus.mouseout"/>
                        </use>
                        <path d="M-4,0h8" fill="none" stroke="white" stroke-width="1.5" pointer-events="none"/>
                </g>
                <g id="dirArrow">
                        <path fill="none" stroke="white" stroke-width="1.5" d="M0,-3.0v7 M-2.5,-0.5L0,-3.0L2.5,-0.5"/>
                </g>
               <g id="resetDef">
                       <use xlink:href="#rim2" fill="#404040">
                               <set attributeName="fill" to="#808080" begin="reset.mouseover" end="reset.mouseout"/>
                       </use>
               </g>
        </defs>

<script type="text/javascript">
var viewWidth = 1083;
var viewHeight = 335;
var sectionId = 'dynsection-13';
</script>
<script xlink:href="../../svgpan.js"/>
<svg id="graph" class="graph">
<g id="viewport">
<title>mom_remapping::measure_input_bounds</title>
<polygon fill="white" stroke="none" points="-4,4 -4,-330.5 1079,-330.5 1079,4 -4,4"/>
<!-- Node135 -->
<g id="node1" class="node"><title>Node135</title>
<polygon fill="#bfbfbf" stroke="black" points="0,-52 0,-82 132,-82 132,-52 0,-52"/>
<text text-anchor="start" x="8" y="-70" font-family="Helvetica,sans-Serif" font-size="10.00">mom_remapping::measure</text>
<text text-anchor="middle" x="66" y="-59" font-family="Helvetica,sans-Serif" font-size="10.00">_input_bounds</text>
</g>
<!-- Node136 -->
<g id="node2" class="node"><title>Node136</title>
<g id="a_node2"><a xlink:href="../../d6/d75/namespacemom__remapping.html#aac27eb299cd36293b458a51b60ac771f" target="_top" xlink:title="Remaps column of n0 values u0 on grid h0 to grid h1 with n1 cells by calculating the n0+n1+1 sub&#45;inte...">
<polygon fill="white" stroke="black" points="168,-52 168,-82 290,-82 290,-52 168,-52"/>
<text text-anchor="start" x="176" y="-70" font-family="Helvetica,sans-Serif" font-size="10.00">mom_remapping::remap</text>
<text text-anchor="middle" x="229" y="-59" font-family="Helvetica,sans-Serif" font-size="10.00">_via_sub_cells</text>
</a>
</g>
</g>
<!-- Node135&#45;&gt;Node136 -->
<g id="edge1" class="edge"><title>Node135&#45;&gt;Node136</title>
<path fill="none" stroke="midnightblue" d="M142.122,-67C150.78,-67 159.521,-67 167.942,-67"/>
<polygon fill="midnightblue" stroke="midnightblue" points="142.021,-63.5001 132.021,-67 142.021,-70.5001 142.021,-63.5001"/>
</g>
<!-- Node137 -->
<g id="node3" class="node"><title>Node137</title>
<g id="a_node3"><a xlink:href="../../d6/d75/namespacemom__remapping.html#a6d1533ffa647f3305aba055e2685b095" target="_top" xlink:title="Remaps column of values u0 on grid h0 to grid h1 assuming the top edge is aligned. ">
<polygon fill="white" stroke="black" points="326,-101 326,-131 466,-131 466,-101 326,-101"/>
<text text-anchor="start" x="334" y="-119" font-family="Helvetica,sans-Serif" font-size="10.00">mom_remapping::remapping</text>
<text text-anchor="middle" x="396" y="-108" font-family="Helvetica,sans-Serif" font-size="10.00">_core_h</text>
</a>
</g>
</g>
<!-- Node135&#45;&gt;Node137 -->
<g id="edge22" class="edge"><title>Node135&#45;&gt;Node137</title>
<path fill="none" stroke="midnightblue" d="M134.746,-84.3118C145.812,-86.7893 157.191,-89.1279 168,-91 220.642,-100.117 280.759,-106.563 325.897,-110.624"/>
<polygon fill="midnightblue" stroke="midnightblue" points="135.225,-80.831 124.696,-82.007 133.66,-87.6539 135.225,-80.831"/>
</g>
<!-- Node151 -->
<g id="node17" class="node"><title>Node151</title>
<g id="a_node17"><a xlink:href="../../d6/d75/namespacemom__remapping.html#a8b967872b8db2ac7d538991f7f255e56" target="_top" xlink:title="Remaps column of values u0 on grid h0 to implied grid h1 where the interfaces of h1 differ from those...">
<polygon fill="white" stroke="black" points="326,-8 326,-38 466,-38 466,-8 326,-8"/>
<text text-anchor="start" x="334" y="-26" font-family="Helvetica,sans-Serif" font-size="10.00">mom_remapping::remapping</text>
<text text-anchor="middle" x="396" y="-15" font-family="Helvetica,sans-Serif" font-size="10.00">_core_w</text>
</a>
</g>
</g>
<!-- Node135&#45;&gt;Node151 -->
<g id="edge23" class="edge"><title>Node135&#45;&gt;Node151</title>
<path fill="none" stroke="midnightblue" d="M130.66,-49.6136C142.976,-46.7132 155.834,-44.0017 168,-42 220.583,-33.3481 280.703,-28.5401 325.857,-25.9266"/>
<polygon fill="midnightblue" stroke="midnightblue" points="129.818,-46.2162 120.922,-51.9703 131.465,-53.0198 129.818,-46.2162"/>
</g>
<!-- Node136&#45;&gt;Node137 -->
<g id="edge2" class="edge"><title>Node136&#45;&gt;Node137</title>
<path fill="none" stroke="midnightblue" d="M290.501,-84.967C308.18,-90.217 327.313,-95.8989 344.316,-100.948"/>
<polygon fill="midnightblue" stroke="midnightblue" points="291.434,-81.5931 280.852,-82.1014 289.442,-88.3035 291.434,-81.5931"/>
</g>
<!-- Node136&#45;&gt;Node151 -->
<g id="edge16" class="edge"><title>Node136&#45;&gt;Node151</title>
<path fill="none" stroke="midnightblue" d="M296.386,-49.2971C310.397,-45.5608 325.053,-41.6525 338.652,-38.0262"/>
<polygon fill="midnightblue" stroke="midnightblue" points="295.083,-46.0222 286.322,-51.9808 296.886,-52.7859 295.083,-46.0222"/>
</g>
<!-- Node152 -->
<g id="node18" class="node"><title>Node152</title>
<g id="a_node18"><a xlink:href="../../d6/d75/namespacemom__remapping.html#a8a79c37c89f8b800f79198aceca5f090" target="_top" xlink:title="Runs unit tests on remapping functions. Should only be called from a single/root thread Returns True ...">
<polygon fill="white" stroke="black" points="502,-6 502,-36 642,-36 642,-6 502,-6"/>
<text text-anchor="start" x="510" y="-24" font-family="Helvetica,sans-Serif" font-size="10.00">mom_remapping::remapping</text>
<text text-anchor="middle" x="572" y="-13" font-family="Helvetica,sans-Serif" font-size="10.00">_unit_tests</text>
</a>
</g>
</g>
<!-- Node136&#45;&gt;Node152 -->
<g id="edge21" class="edge"><title>Node136&#45;&gt;Node152</title>
<path fill="none" stroke="midnightblue" d="M300.561,-63.9428C347.65,-61.1869 410.817,-56.1116 466,-47 482.861,-44.2159 501.003,-40.1259 517.384,-36.01"/>
<polygon fill="midnightblue" stroke="midnightblue" points="300.252,-60.4546 290.465,-64.5126 300.647,-67.4435 300.252,-60.4546"/>
</g>
<!-- Node138 -->
<g id="node4" class="node"><title>Node138</title>
<g id="a_node4"><a xlink:href="../../dd/d33/namespacemom__wave__speed.html#a72302e356c47c5055ba0b1a8714c772a" target="_top" xlink:title="Calculates the wave speed of the first baroclinic mode. ">
<polygon fill="white" stroke="black" points="508,-241 508,-271 636,-271 636,-241 508,-241"/>
<text text-anchor="start" x="516" y="-259" font-family="Helvetica,sans-Serif" font-size="10.00">mom_wave_speed::wave</text>
<text text-anchor="middle" x="572" y="-248" font-family="Helvetica,sans-Serif" font-size="10.00">_speed</text>
</a>
</g>
</g>
<!-- Node137&#45;&gt;Node138 -->
<g id="edge3" class="edge"><title>Node137&#45;&gt;Node138</title>
<path fill="none" stroke="midnightblue" d="M422.917,-137.926C444.035,-155.682 474.718,-181.232 502,-203 518.294,-216.001 537.072,-230.386 550.92,-240.886"/>
<polygon fill="midnightblue" stroke="midnightblue" points="424.946,-135.059 415.043,-131.294 420.437,-140.413 424.946,-135.059"/>
</g>
<!-- Node143 -->
<g id="node9" class="node"><title>Node143</title>
<g id="a_node9"><a xlink:href="../../d9/d06/namespacemom__diag__mediator.html#ab5e628e0b8acd96234fab33d0fae2161" target="_top" xlink:title="Remap diagnostic field to z&#45;star vertical grid. ">
<polygon fill="white" stroke="black" points="517,-164 517,-194 627,-194 627,-164 517,-164"/>
<text text-anchor="start" x="525" y="-182" font-family="Helvetica,sans-Serif" font-size="10.00">mom_diag_mediator::</text>
<text text-anchor="middle" x="572" y="-171" font-family="Helvetica,sans-Serif" font-size="10.00">remap_diag_to_z</text>
</a>
</g>
</g>
<!-- Node137&#45;&gt;Node143 -->
<g id="edge8" class="edge"><title>Node137&#45;&gt;Node143</title>
<path fill="none" stroke="midnightblue" d="M448.302,-134.575C474.128,-143.926 505.03,-155.114 529.362,-163.924"/>
<polygon fill="midnightblue" stroke="midnightblue" points="449.272,-131.204 438.677,-131.09 446.888,-137.785 449.272,-131.204"/>
</g>
<!-- Node145 -->
<g id="node11" class="node"><title>Node145</title>
<g id="a_node11"><a xlink:href="../../d6/d62/namespacemom__state__initialization.html#a71ee3c056ca59c1c3529a4ec22e09fe3" target="_top" xlink:title="Adjust the layer thicknesses by cutting away the top at the depth where the hydrostatic pressure matc...">
<polygon fill="white" stroke="black" points="511,-104 511,-134 633,-134 633,-104 511,-104"/>
<text text-anchor="start" x="519" y="-122" font-family="Helvetica,sans-Serif" font-size="10.00">mom_state_initialization</text>
<text text-anchor="middle" x="572" y="-111" font-family="Helvetica,sans-Serif" font-size="10.00">::cut_off_column_top</text>
</a>
</g>
</g>
<!-- Node137&#45;&gt;Node145 -->
<g id="edge10" class="edge"><title>Node137&#45;&gt;Node145</title>
<path fill="none" stroke="midnightblue" d="M476.17,-117.365C487.801,-117.566 499.62,-117.769 510.786,-117.962"/>
<polygon fill="midnightblue" stroke="midnightblue" points="476.078,-113.863 466.019,-117.19 475.957,-120.862 476.078,-113.863"/>
</g>
<!-- Node149 -->
<g id="node15" class="node"><title>Node149</title>
<g id="a_node15"><a xlink:href="../../de/dd7/namespacemom__ale__sponge.html#a8f6e6db99f860b048a58e97e58c101a6" target="_top" xlink:title="This subroutine applies damping to the layers thicknesses, temp, salt and a variety of tracers for ev...">
<polygon fill="white" stroke="black" points="511,-55 511,-85 633,-85 633,-55 511,-55"/>
<text text-anchor="start" x="519" y="-73" font-family="Helvetica,sans-Serif" font-size="10.00">mom_ale_sponge::apply</text>
<text text-anchor="middle" x="572" y="-62" font-family="Helvetica,sans-Serif" font-size="10.00">_ale_sponge</text>
</a>
</g>
</g>
<!-- Node137&#45;&gt;Node149 -->
<g id="edge14" class="edge"><title>Node137&#45;&gt;Node149</title>
<path fill="none" stroke="midnightblue" d="M463.649,-98.3803C480.321,-93.9726 498.05,-89.2856 514.195,-85.0174"/>
<polygon fill="midnightblue" stroke="midnightblue" points="462.747,-94.9982 453.974,-100.938 464.537,-101.766 462.747,-94.9982"/>
</g>
<!-- Node139 -->
<g id="node5" class="node"><title>Node139</title>
<g id="a_node5"><a xlink:href="../../d9/d8b/namespacemom__diagnostics.html#abb6644248c28ab2e952361bfec436063" target="_top" xlink:title="mom_diagnostics::calculate\l_diagnostic_fields">
<polygon fill="white" stroke="black" points="678,-296 678,-326 816,-326 816,-296 678,-296"/>
<text text-anchor="start" x="686" y="-314" font-family="Helvetica,sans-Serif" font-size="10.00">mom_diagnostics::calculate</text>
<text text-anchor="middle" x="747" y="-303" font-family="Helvetica,sans-Serif" font-size="10.00">_diagnostic_fields</text>
</a>
</g>
</g>
<!-- Node138&#45;&gt;Node139 -->
<g id="edge4" class="edge"><title>Node138&#45;&gt;Node139</title>
<path fill="none" stroke="midnightblue" d="M629.954,-274.107C652.252,-281.196 677.527,-289.231 698.784,-295.989"/>
<polygon fill="midnightblue" stroke="midnightblue" points="630.863,-270.723 620.273,-271.029 628.743,-277.394 630.863,-270.723"/>
</g>
<!-- Node140 -->
<g id="node6" class="node"><title>Node140</title>
<g id="a_node6"><a xlink:href="../../d0/d86/namespacemom__lateral__mixing__coeffs.html#af206bc656869b4fc27d4d7e8a15d438e" target="_top" xlink:title="Calculates and stores the non&#45;dimensional resolution functions. ">
<polygon fill="white" stroke="black" points="695,-235.5 695,-276.5 799,-276.5 799,-235.5 695,-235.5"/>
<text text-anchor="start" x="703" y="-264.5" font-family="Helvetica,sans-Serif" font-size="10.00">mom_lateral_mixing</text>
<text text-anchor="start" x="703" y="-253.5" font-family="Helvetica,sans-Serif" font-size="10.00">_coeffs::calc_resoln</text>
<text text-anchor="middle" x="747" y="-242.5" font-family="Helvetica,sans-Serif" font-size="10.00">_function</text>
</a>
</g>
</g>
<!-- Node138&#45;&gt;Node140 -->
<g id="edge5" class="edge"><title>Node138&#45;&gt;Node140</title>
<path fill="none" stroke="midnightblue" d="M646.455,-256C662.71,-256 679.594,-256 694.74,-256"/>
<polygon fill="midnightblue" stroke="midnightblue" points="646.437,-252.5 636.436,-256 646.436,-259.5 646.437,-252.5"/>
</g>
<!-- Node141 -->
<g id="node7" class="node"><title>Node141</title>
<g id="a_node7"><a xlink:href="../../da/d01/namespacemom.html#a4c8332b095c6d295084089aa6b3b678a" target="_top" xlink:title="This subroutine orchestrates the time stepping of MOM. The adiabatic dynamics are stepped by calls to...">
<polygon fill="white" stroke="black" points="868,-216.5 868,-235.5 958,-235.5 958,-216.5 868,-216.5"/>
<text text-anchor="middle" x="913" y="-223.5" font-family="Helvetica,sans-Serif" font-size="10.00">mom::step_mom</text>
</a>
</g>
</g>
<!-- Node140&#45;&gt;Node141 -->
<g id="edge6" class="edge"><title>Node140&#45;&gt;Node141</title>
<path fill="none" stroke="midnightblue" d="M809.43,-244.763C828.868,-241.207 849.955,-237.35 867.925,-234.063"/>
<polygon fill="midnightblue" stroke="midnightblue" points="808.648,-241.348 799.441,-246.59 809.907,-248.234 808.648,-241.348"/>
</g>
<!-- Node142 -->
<g id="node8" class="node"><title>Node142</title>
<g id="a_node8"><a xlink:href="../../de/dbc/MOM__driver_8F90.html#a08fffeb2d8e8acbf9ed4609be6d258c6" target="_top" xlink:title="mom_main">
<polygon fill="white" stroke="black" points="1010,-132.5 1010,-151.5 1075,-151.5 1075,-132.5 1010,-132.5"/>
<text text-anchor="middle" x="1042.5" y="-139.5" font-family="Helvetica,sans-Serif" font-size="10.00">mom_main</text>
</a>
</g>
</g>
<!-- Node141&#45;&gt;Node142 -->
<g id="edge7" class="edge"><title>Node141&#45;&gt;Node142</title>
<path fill="none" stroke="midnightblue" d="M937.175,-210.731C963.352,-193.486 1005.15,-165.95 1027.04,-151.523"/>
<polygon fill="midnightblue" stroke="midnightblue" points="935.051,-207.94 928.626,-216.364 938.902,-213.785 935.051,-207.94"/>
</g>
<!-- Node144 -->
<g id="node10" class="node"><title>Node144</title>
<g id="a_node10"><a xlink:href="../../d9/d06/namespacemom__diag__mediator.html#adb1030a0216c52dd0d25bd67a5b31868" target="_top" xlink:title="mom_diag_mediator::\lpost_data_3d">
<polygon fill="white" stroke="black" points="692,-186 692,-216 802,-216 802,-186 692,-186"/>
<text text-anchor="start" x="700" y="-204" font-family="Helvetica,sans-Serif" font-size="10.00">mom_diag_mediator::</text>
<text text-anchor="middle" x="747" y="-193" font-family="Helvetica,sans-Serif" font-size="10.00">post_data_3d</text>
</a>
</g>
</g>
<!-- Node143&#45;&gt;Node144 -->
<g id="edge9" class="edge"><title>Node143&#45;&gt;Node144</title>
<path fill="none" stroke="midnightblue" d="M637.362,-187.185C655.316,-189.468 674.634,-191.925 691.929,-194.124"/>
<polygon fill="midnightblue" stroke="midnightblue" points="637.625,-183.69 627.264,-185.901 636.742,-190.634 637.625,-183.69"/>
</g>
<!-- Node146 -->
<g id="node12" class="node"><title>Node146</title>
<g id="a_node12"><a xlink:href="../../d6/d62/namespacemom__state__initialization.html#acc1029776c1bdda2862ed0f95c8dc640" target="_top" xlink:title="Adjust the layer thicknesses by cutting away the top of each model column at the depth where the hydr...">
<polygon fill="white" stroke="black" points="686,-137 686,-167 808,-167 808,-137 686,-137"/>
<text text-anchor="start" x="694" y="-155" font-family="Helvetica,sans-Serif" font-size="10.00">mom_state_initialization</text>
<text text-anchor="middle" x="747" y="-144" font-family="Helvetica,sans-Serif" font-size="10.00">::trim_for_ice</text>
</a>
</g>
</g>
<!-- Node145&#45;&gt;Node146 -->
<g id="edge11" class="edge"><title>Node145&#45;&gt;Node146</title>
<path fill="none" stroke="midnightblue" d="M643.18,-132.387C657.309,-135.082 672.04,-137.892 685.792,-140.515"/>
<polygon fill="midnightblue" stroke="midnightblue" points="643.5,-128.885 633.021,-130.449 642.189,-135.761 643.5,-128.885"/>
</g>
<!-- Node148 -->
<g id="node14" class="node"><title>Node148</title>
<g id="a_node14"><a xlink:href="../../d6/d62/namespacemom__state__initialization.html#a5c77bf2b0ea9d28e28b661a2a42d3f88" target="_top" xlink:title="Run simple unit tests. ">
<polygon fill="white" stroke="black" points="686,-88 686,-118 808,-118 808,-88 686,-88"/>
<text text-anchor="start" x="694" y="-106" font-family="Helvetica,sans-Serif" font-size="10.00">mom_state_initialization</text>
<text text-anchor="middle" x="747" y="-95" font-family="Helvetica,sans-Serif" font-size="10.00">::mom_state_init_tests</text>
</a>
</g>
</g>
<!-- Node145&#45;&gt;Node148 -->
<g id="edge13" class="edge"><title>Node145&#45;&gt;Node148</title>
<path fill="none" stroke="midnightblue" d="M643.18,-112.509C657.309,-111.203 672.04,-109.84 685.792,-108.568"/>
<polygon fill="midnightblue" stroke="midnightblue" points="642.657,-109.043 633.021,-113.449 643.301,-116.013 642.657,-109.043"/>
</g>
<!-- Node147 -->
<g id="node13" class="node"><title>Node147</title>
<g id="a_node13"><a xlink:href="../../d6/d62/namespacemom__state__initialization.html#af4e854627c6572332ba3fd895f169321" target="_top" xlink:title="mom_state_initialization\l::mom_initialize_state">
<polygon fill="white" stroke="black" points="852,-137 852,-167 974,-167 974,-137 852,-137"/>
<text text-anchor="start" x="860" y="-155" font-family="Helvetica,sans-Serif" font-size="10.00">mom_state_initialization</text>
<text text-anchor="middle" x="913" y="-144" font-family="Helvetica,sans-Serif" font-size="10.00">::mom_initialize_state</text>
</a>
</g>
</g>
<!-- Node146&#45;&gt;Node147 -->
<g id="edge12" class="edge"><title>Node146&#45;&gt;Node147</title>
<path fill="none" stroke="midnightblue" d="M818.296,-152C829.476,-152 840.953,-152 851.871,-152"/>
<polygon fill="midnightblue" stroke="midnightblue" points="818.136,-148.5 808.136,-152 818.136,-155.5 818.136,-148.5"/>
</g>
<!-- Node150 -->
<g id="node16" class="node"><title>Node150</title>
<g id="a_node16"><a xlink:href="../../d8/df3/namespacemom__diabatic__driver.html#a61e57d3902367aa46aa3c2d949ee900f" target="_top" xlink:title="This subroutine imposes the diapycnal mass fluxes and the accompanying diapycnal advection of momentu...">
<polygon fill="white" stroke="black" points="693.5,-39 693.5,-69 800.5,-69 800.5,-39 693.5,-39"/>
<text text-anchor="start" x="701.5" y="-57" font-family="Helvetica,sans-Serif" font-size="10.00">mom_diabatic_driver</text>
<text text-anchor="middle" x="747" y="-46" font-family="Helvetica,sans-Serif" font-size="10.00">::diabatic</text>
</a>
</g>
</g>
<!-- Node149&#45;&gt;Node150 -->
<g id="edge15" class="edge"><title>Node149&#45;&gt;Node150</title>
<path fill="none" stroke="midnightblue" d="M643.291,-63.4991C659.995,-61.9542 677.535,-60.332 693.299,-58.8741"/>
<polygon fill="midnightblue" stroke="midnightblue" points="642.657,-60.0427 633.021,-64.4489 643.301,-67.013 642.657,-60.0427"/>
</g>
<!-- Node151&#45;&gt;Node152 -->
<g id="edge17" class="edge"><title>Node151&#45;&gt;Node152</title>
<path fill="none" stroke="midnightblue" d="M476.035,-22.0916C484.625,-21.9928 493.319,-21.8929 501.779,-21.7956"/>
<polygon fill="midnightblue" stroke="midnightblue" points="475.978,-18.5919 466.019,-22.2067 476.059,-25.5914 475.978,-18.5919"/>
</g>
<!-- Node153 -->
<g id="node19" class="node"><title>Node153</title>
<g id="a_node19"><a xlink:href="../../da/d01/namespacemom.html#ae77cfd2e790f1266b31d93c58659d46c" target="_top" xlink:title="Calls unit tests for other modules. These are NOT normally invoked and so we provide the module use s...">
<polygon fill="white" stroke="black" points="703.5,-0.5 703.5,-19.5 790.5,-19.5 790.5,-0.5 703.5,-0.5"/>
<text text-anchor="middle" x="747" y="-7.5" font-family="Helvetica,sans-Serif" font-size="10.00">mom::unit_tests</text>
</a>
</g>
</g>
<!-- Node152&#45;&gt;Node153 -->
<g id="edge18" class="edge"><title>Node152&#45;&gt;Node153</title>
<path fill="none" stroke="midnightblue" d="M652.589,-15.9395C670.057,-14.8287 687.904,-13.694 703.255,-12.7179"/>
<polygon fill="midnightblue" stroke="midnightblue" points="652.127,-12.4617 642.369,-16.5893 652.571,-19.4476 652.127,-12.4617"/>
</g>
<!-- Node154 -->
<g id="node20" class="node"><title>Node154</title>
<g id="a_node20"><a xlink:href="../../da/d01/namespacemom.html#a0be2869fef30e1e0604facfe1b41555d" target="_top" xlink:title="This subroutine initializes MOM. ">
<polygon fill="white" stroke="black" points="859.5,-49.5 859.5,-68.5 966.5,-68.5 966.5,-49.5 859.5,-49.5"/>
<text text-anchor="middle" x="913" y="-56.5" font-family="Helvetica,sans-Serif" font-size="10.00">mom::initialize_mom</text>
</a>
</g>
</g>
<!-- Node153&#45;&gt;Node154 -->
<g id="edge19" class="edge"><title>Node153&#45;&gt;Node154</title>
<path fill="none" stroke="midnightblue" d="M792.686,-22.2768C800.47,-24.4749 808.479,-26.7748 816,-29 838.269,-35.5891 863.311,-43.4291 882.234,-49.4418"/>
<polygon fill="midnightblue" stroke="midnightblue" points="793.575,-18.8911 783.001,-19.5603 791.685,-25.631 793.575,-18.8911"/>
</g>
<!-- Node154&#45;&gt;Node142 -->
<g id="edge20" class="edge"><title>Node154&#45;&gt;Node142</title>
<path fill="none" stroke="midnightblue" d="M937.126,-74.0547C963.144,-90.992 1004.64,-118.003 1026.65,-132.334"/>
<polygon fill="midnightblue" stroke="midnightblue" points="938.916,-71.0436 928.626,-68.5212 935.097,-76.9101 938.916,-71.0436"/>
</g>
</g>
</svg>
        <g id="navigator" transform="translate(0 0)" fill="#404254">
                <rect fill="#f2f5e9" fill-opacity="0.5" stroke="#606060" stroke-width=".5" x="0" y="0" width="60" height="60"/>
                <use id="zoomplus" xlink:href="#zoomPlus" x="17" y="9" onmousedown="handleZoom(evt,'in')"/>
                <use id="zoomminus" xlink:href="#zoomMin" x="42" y="9" onmousedown="handleZoom(evt,'out')"/>
                <use id="reset" xlink:href="#resetDef" x="30" y="36" onmousedown="handleReset()"/>
                <g id="arrowUp" xlink:href="#dirArrow" transform="translate(30 24)" onmousedown="handlePan(0,-1)">
                  <use xlink:href="#rim" fill="#404040">
                        <set attributeName="fill" to="#808080" begin="arrowUp.mouseover" end="arrowUp.mouseout"/>
                  </use>
                  <path fill="none" stroke="white" stroke-width="1.5" d="M0,-3.0v7 M-2.5,-0.5L0,-3.0L2.5,-0.5"/>
                </g>
                <g id="arrowRight" xlink:href="#dirArrow" transform="rotate(90) translate(36 -43)" onmousedown="handlePan(1,0)">
                  <use xlink:href="#rim" fill="#404040">
                        <set attributeName="fill" to="#808080" begin="arrowRight.mouseover" end="arrowRight.mouseout"/>
                  </use>
                  <path fill="none" stroke="white" stroke-width="1.5" d="M0,-3.0v7 M-2.5,-0.5L0,-3.0L2.5,-0.5"/>
                </g>
                <g id="arrowDown" xlink:href="#dirArrow" transform="rotate(180) translate(-30 -48)" onmousedown="handlePan(0,1)">
                  <use xlink:href="#rim" fill="#404040">
                        <set attributeName="fill" to="#808080" begin="arrowDown.mouseover" end="arrowDown.mouseout"/>
                  </use>
                  <path fill="none" stroke="white" stroke-width="1.5" d="M0,-3.0v7 M-2.5,-0.5L0,-3.0L2.5,-0.5"/>
                </g>
                <g id="arrowLeft" xlink:href="#dirArrow" transform="rotate(270) translate(-36 17)" onmousedown="handlePan(-1,0)">
                  <use xlink:href="#rim" fill="#404040">
                        <set attributeName="fill" to="#808080" begin="arrowLeft.mouseover" end="arrowLeft.mouseout"/>
                  </use>
                  <path fill="none" stroke="white" stroke-width="1.5" d="M0,-3.0v7 M-2.5,-0.5L0,-3.0L2.5,-0.5"/>
                </g>
        </g>
        <svg viewBox="0 0 15 15" width="100%" height="30px" preserveAspectRatio="xMaxYMin meet">
         <g id="arrow_out" transform="scale(0.3 0.3)">
          <a xlink:href="namespacemom__remapping_afe0efe65edb680f96fc5efe3d29a9217_icgraph_org.svg" target="_base">
           <rect id="button" ry="5" rx="5" y="6" x="6" height="38" width="38"
                fill="#f2f5e9" fill-opacity="0.5" stroke="#606060" stroke-width="1.0"/>
           <path id="arrow"
             d="M 11.500037,31.436501 C 11.940474,20.09759 22.043105,11.32322 32.158766,21.979434 L 37.068811,17.246167 C 37.068811,17.246167 37.088388,32 37.088388,32 L 22.160133,31.978069 C 22.160133,31.978069 26.997745,27.140456 26.997745,27.140456 C 18.528582,18.264221 13.291696,25.230495 11.500037,31.436501 z"
             style="fill:#404040;"/>
          </a>
         </g>
        </svg>
</svg>
