<?xml version="1.0" encoding="UTF-8" standalone="no"?>
<!DOCTYPE svg PUBLIC "-//W3C//DTD SVG 1.1//EN"
 "http://www.w3.org/Graphics/SVG/1.1/DTD/svg11.dtd">
<!-- Generated by graphviz version 2.38.0 (20140413.2041)
 -->
<!-- Title: mom_remapping::measure_output_bounds Pages: 1 -->
<svg width="1065pt" height="230pt"
 viewBox="0.00 0.00 1065.00 230.00" xmlns="http://www.w3.org/2000/svg" xmlns:xlink="http://www.w3.org/1999/xlink">
<g id="graph0" class="graph" transform="scale(1 1) rotate(0) translate(4 226)">
<title>mom_remapping::measure_output_bounds</title>
<polygon fill="white" stroke="none" points="-4,4 -4,-226 1061,-226 1061,4 -4,4"/>
<!-- Node137 -->
<g id="node1" class="node"><title>Node137</title>
<polygon fill="#bfbfbf" stroke="black" points="0,-44.5 0,-74.5 113,-74.5 113,-44.5 0,-44.5"/>
<text text-anchor="start" x="8" y="-62.5" font-family="Helvetica,sans-Serif" font-size="10.00">mom_remapping::measure</text>
<text text-anchor="middle" x="56.5" y="-51.5" font-family="Helvetica,sans-Serif" font-size="10.00">_output_bounds</text>
</g>
<!-- Node138 -->
<g id="node2" class="node"><title>Node138</title>
<g id="a_node2"><a xlink:href="../../d6/d75/namespacemom__remapping.html#aac27eb299cd36293b458a51b60ac771f" target="_top" xlink:title="Remaps column of n0 values u0 on grid h0 to grid h1 with n1 cells by calculating the n0+n1+1 sub&#45;inte...">
<polygon fill="white" stroke="black" points="149,-44.5 149,-74.5 254,-74.5 254,-44.5 149,-44.5"/>
<text text-anchor="start" x="157" y="-62.5" font-family="Helvetica,sans-Serif" font-size="10.00">mom_remapping::remap</text>
<text text-anchor="middle" x="201.5" y="-51.5" font-family="Helvetica,sans-Serif" font-size="10.00">_via_sub_cells</text>
</a>
</g>
</g>
<!-- Node137&#45;&gt;Node138 -->
<g id="edge1" class="edge"><title>Node137&#45;&gt;Node138</title>
<path fill="none" stroke="midnightblue" d="M123.235,-59.5C131.855,-59.5 140.588,-59.5 148.927,-59.5"/>
<polygon fill="midnightblue" stroke="midnightblue" points="123.197,-56.0001 113.197,-59.5 123.197,-63.0001 123.197,-56.0001"/>
</g>
<!-- Node139 -->
<g id="node3" class="node"><title>Node139</title>
<g id="a_node3"><a xlink:href="../../d6/d75/namespacemom__remapping.html#a6d1533ffa647f3305aba055e2685b095" target="_top" xlink:title="Remaps column of values u0 on grid h0 to grid h1 assuming the top edge is aligned. ">
<polygon fill="white" stroke="black" points="290,-88.5 290,-118.5 410,-118.5 410,-88.5 290,-88.5"/>
<text text-anchor="start" x="298" y="-106.5" font-family="Helvetica,sans-Serif" font-size="10.00">mom_remapping::remapping</text>
<text text-anchor="middle" x="350" y="-95.5" font-family="Helvetica,sans-Serif" font-size="10.00">_core_h</text>
</a>
</g>
</g>
<!-- Node137&#45;&gt;Node139 -->
<g id="edge18" class="edge"><title>Node137&#45;&gt;Node139</title>
<path fill="none" stroke="midnightblue" d="M118.852,-77.0025C128.869,-79.4525 139.181,-81.7326 149,-83.5 195.879,-91.9382 249.627,-97.0639 289.591,-100.011"/>
<polygon fill="midnightblue" stroke="midnightblue" points="119.514,-73.56 108.962,-74.5087 117.803,-80.3475 119.514,-73.56"/>
</g>
<!-- Node150 -->
<g id="node14" class="node"><title>Node150</title>
<g id="a_node14"><a xlink:href="../../d6/d75/namespacemom__remapping.html#a8b967872b8db2ac7d538991f7f255e56" target="_top" xlink:title="Remaps column of values u0 on grid h0 to implied grid h1 where the interfaces of h1 differ from those...">
<polygon fill="white" stroke="black" points="290,-0.5 290,-30.5 410,-30.5 410,-0.5 290,-0.5"/>
<text text-anchor="start" x="298" y="-18.5" font-family="Helvetica,sans-Serif" font-size="10.00">mom_remapping::remapping</text>
<text text-anchor="middle" x="350" y="-7.5" font-family="Helvetica,sans-Serif" font-size="10.00">_core_w</text>
</a>
</g>
</g>
<!-- Node137&#45;&gt;Node150 -->
<g id="edge19" class="edge"><title>Node137&#45;&gt;Node150</title>
<path fill="none" stroke="midnightblue" d="M116.299,-41.8365C127.101,-39.049 138.334,-36.4488 149,-34.5 195.834,-25.943 249.585,-21.1095 289.562,-18.4614"/>
<polygon fill="midnightblue" stroke="midnightblue" points="115.293,-38.4825 106.529,-44.4359 117.093,-45.2472 115.293,-38.4825"/>
</g>
<!-- Node138&#45;&gt;Node139 -->
<g id="edge2" class="edge"><title>Node138&#45;&gt;Node139</title>
<path fill="none" stroke="midnightblue" d="M262.114,-77.4045C274.264,-81.0538 286.934,-84.859 298.721,-88.3991"/>
<polygon fill="midnightblue" stroke="midnightblue" points="263.091,-74.0437 252.507,-74.5192 261.078,-80.7479 263.091,-74.0437"/>
</g>
<!-- Node138&#45;&gt;Node150 -->
<g id="edge13" class="edge"><title>Node138&#45;&gt;Node150</title>
<path fill="none" stroke="midnightblue" d="M262.114,-41.5955C274.264,-37.9462 286.934,-34.141 298.721,-30.6009"/>
<polygon fill="midnightblue" stroke="midnightblue" points="261.078,-38.2521 252.507,-44.4808 263.091,-44.9563 261.078,-38.2521"/>
</g>
<!-- Node151 -->
<g id="node15" class="node"><title>Node151</title>
<g id="a_node15"><a xlink:href="../../d6/d75/namespacemom__remapping.html#a8a79c37c89f8b800f79198aceca5f090" target="_top" xlink:title="Runs unit tests on remapping functions. Should only be called from a single/root thread Returns True ...">
<polygon fill="white" stroke="black" points="446,-0.5 446,-30.5 566,-30.5 566,-0.5 446,-0.5"/>
<text text-anchor="start" x="454" y="-18.5" font-family="Helvetica,sans-Serif" font-size="10.00">mom_remapping::remapping</text>
<text text-anchor="middle" x="506" y="-7.5" font-family="Helvetica,sans-Serif" font-size="10.00">_unit_tests</text>
</a>
</g>
</g>
<!-- Node138&#45;&gt;Node151 -->
<g id="edge17" class="edge"><title>Node138&#45;&gt;Node151</title>
<path fill="none" stroke="midnightblue" d="M264.59,-55.9805C305.992,-53.03 361.513,-47.9116 410,-39.5 423.576,-37.1448 438.072,-33.8772 451.546,-30.5105"/>
<polygon fill="midnightblue" stroke="midnightblue" points="264.117,-52.5047 254.381,-56.6846 264.598,-59.4881 264.117,-52.5047"/>
</g>
<!-- Node140 -->
<g id="node4" class="node"><title>Node140</title>
<g id="a_node4"><a xlink:href="../../d9/d06/namespacemom__diag__mediator.html#ab5e628e0b8acd96234fab33d0fae2161" target="_top" xlink:title="Remap diagnostic field to z&#45;star vertical grid. ">
<polygon fill="white" stroke="black" points="458.5,-169.5 458.5,-199.5 553.5,-199.5 553.5,-169.5 458.5,-169.5"/>
<text text-anchor="start" x="466.5" y="-187.5" font-family="Helvetica,sans-Serif" font-size="10.00">mom_diag_mediator::</text>
<text text-anchor="middle" x="506" y="-176.5" font-family="Helvetica,sans-Serif" font-size="10.00">remap_diag_to_z</text>
</a>
</g>
</g>
<!-- Node139&#45;&gt;Node140 -->
<g id="edge3" class="edge"><title>Node139&#45;&gt;Node140</title>
<path fill="none" stroke="midnightblue" d="M388.762,-123.362C415.778,-137.572 451.589,-156.407 476.287,-169.398"/>
<polygon fill="midnightblue" stroke="midnightblue" points="390.085,-120.103 379.605,-118.546 386.826,-126.298 390.085,-120.103"/>
</g>
<!-- Node142 -->
<g id="node6" class="node"><title>Node142</title>
<g id="a_node6"><a xlink:href="../../d6/d62/namespacemom__state__initialization.html#a71ee3c056ca59c1c3529a4ec22e09fe3" target="_top" xlink:title="Adjust the layer thicknesses by cutting away the top at the depth where the hydrostatic pressure matc...">
<polygon fill="white" stroke="black" points="455.5,-98.5 455.5,-128.5 556.5,-128.5 556.5,-98.5 455.5,-98.5"/>
<text text-anchor="start" x="463.5" y="-116.5" font-family="Helvetica,sans-Serif" font-size="10.00">mom_state_initialization</text>
<text text-anchor="middle" x="506" y="-105.5" font-family="Helvetica,sans-Serif" font-size="10.00">::cut_off_column_top</text>
</a>
</g>
</g>
<!-- Node139&#45;&gt;Node142 -->
<g id="edge5" class="edge"><title>Node139&#45;&gt;Node142</title>
<path fill="none" stroke="midnightblue" d="M420.365,-108.004C432.149,-108.769 444.173,-109.55 455.32,-110.274"/>
<polygon fill="midnightblue" stroke="midnightblue" points="420.306,-104.493 410.1,-107.338 419.852,-111.478 420.306,-104.493"/>
</g>
<!-- Node148 -->
<g id="node12" class="node"><title>Node148</title>
<g id="a_node12"><a xlink:href="../../de/dd7/namespacemom__ale__sponge.html#a8f6e6db99f860b048a58e97e58c101a6" target="_top" xlink:title="This subroutine applies damping to the layers thicknesses, temp, salt and a variety of tracers for ev...">
<polygon fill="white" stroke="black" points="454,-49.5 454,-79.5 558,-79.5 558,-49.5 454,-49.5"/>
<text text-anchor="start" x="462" y="-67.5" font-family="Helvetica,sans-Serif" font-size="10.00">mom_ale_sponge::apply</text>
<text text-anchor="middle" x="506" y="-56.5" font-family="Helvetica,sans-Serif" font-size="10.00">_ale_sponge</text>
</a>
</g>
</g>
<!-- Node139&#45;&gt;Node148 -->
<g id="edge11" class="edge"><title>Node139&#45;&gt;Node148</title>
<path fill="none" stroke="midnightblue" d="M420.012,-86.0229C431.389,-83.1417 443.001,-80.201 453.841,-77.456"/>
<polygon fill="midnightblue" stroke="midnightblue" points="418.935,-82.6852 410.1,-88.5331 420.653,-89.471 418.935,-82.6852"/>
</g>
<!-- Node141 -->
<g id="node5" class="node"><title>Node141</title>
<g id="a_node5"><a xlink:href="../../d9/d06/namespacemom__diag__mediator.html#adb1030a0216c52dd0d25bd67a5b31868" target="_top" xlink:title="mom_diag_mediator::\lpost_data_3d">
<polygon fill="white" stroke="black" points="605,-191.5 605,-221.5 700,-221.5 700,-191.5 605,-191.5"/>
<text text-anchor="start" x="613" y="-209.5" font-family="Helvetica,sans-Serif" font-size="10.00">mom_diag_mediator::</text>
<text text-anchor="middle" x="652.5" y="-198.5" font-family="Helvetica,sans-Serif" font-size="10.00">post_data_3d</text>
</a>
</g>
</g>
<!-- Node140&#45;&gt;Node141 -->
<g id="edge4" class="edge"><title>Node140&#45;&gt;Node141</title>
<path fill="none" stroke="midnightblue" d="M563.687,-193.131C577.227,-195.192 591.532,-197.37 604.576,-199.356"/>
<polygon fill="midnightblue" stroke="midnightblue" points="563.929,-189.627 553.516,-191.582 562.875,-196.547 563.929,-189.627"/>
</g>
<!-- Node143 -->
<g id="node7" class="node"><title>Node143</title>
<g id="a_node7"><a xlink:href="../../d6/d62/namespacemom__state__initialization.html#acc1029776c1bdda2862ed0f95c8dc640" target="_top" xlink:title="Adjust the layer thicknesses by cutting away the top of each model column at the depth where the hydr...">
<polygon fill="white" stroke="black" points="602,-142.5 602,-172.5 703,-172.5 703,-142.5 602,-142.5"/>
<text text-anchor="start" x="610" y="-160.5" font-family="Helvetica,sans-Serif" font-size="10.00">mom_state_initialization</text>
<text text-anchor="middle" x="652.5" y="-149.5" font-family="Helvetica,sans-Serif" font-size="10.00">::trim_for_ice</text>
</a>
</g>
</g>
<!-- Node142&#45;&gt;Node143 -->
<g id="edge6" class="edge"><title>Node142&#45;&gt;Node143</title>
<path fill="none" stroke="midnightblue" d="M566.156,-131.513C578.032,-135.129 590.396,-138.894 601.907,-142.399"/>
<polygon fill="midnightblue" stroke="midnightblue" points="566.91,-128.084 556.325,-128.519 564.871,-134.78 566.91,-128.084"/>
</g>
<!-- Node147 -->
<g id="node11" class="node"><title>Node147</title>
<g id="a_node11"><a xlink:href="../../d6/d62/namespacemom__state__initialization.html#a5c77bf2b0ea9d28e28b661a2a42d3f88" target="_top" xlink:title="Run simple unit tests. ">
<polygon fill="white" stroke="black" points="602,-93.5 602,-123.5 703,-123.5 703,-93.5 602,-93.5"/>
<text text-anchor="start" x="610" y="-111.5" font-family="Helvetica,sans-Serif" font-size="10.00">mom_state_initialization</text>
<text text-anchor="middle" x="652.5" y="-100.5" font-family="Helvetica,sans-Serif" font-size="10.00">::mom_state_init_tests</text>
</a>
</g>
</g>
<!-- Node142&#45;&gt;Node147 -->
<g id="edge10" class="edge"><title>Node142&#45;&gt;Node147</title>
<path fill="none" stroke="midnightblue" d="M566.782,-111.431C578.388,-111.03 590.436,-110.613 601.68,-110.224"/>
<polygon fill="midnightblue" stroke="midnightblue" points="566.602,-107.935 556.729,-111.779 566.844,-114.931 566.602,-107.935"/>
</g>
<!-- Node144 -->
<g id="node8" class="node"><title>Node144</title>
<g id="a_node8"><a xlink:href="../../d6/d62/namespacemom__state__initialization.html#af4e854627c6572332ba3fd895f169321" target="_top" xlink:title="mom_state_initialization\l::mom_initialize_state">
<polygon fill="white" stroke="black" points="739,-117.5 739,-147.5 840,-147.5 840,-117.5 739,-117.5"/>
<text text-anchor="start" x="747" y="-135.5" font-family="Helvetica,sans-Serif" font-size="10.00">mom_state_initialization</text>
<text text-anchor="middle" x="789.5" y="-124.5" font-family="Helvetica,sans-Serif" font-size="10.00">::mom_initialize_state</text>
</a>
</g>
</g>
<!-- Node143&#45;&gt;Node144 -->
<g id="edge7" class="edge"><title>Node143&#45;&gt;Node144</title>
<path fill="none" stroke="midnightblue" d="M712.928,-146.495C721.481,-144.911 730.208,-143.295 738.552,-141.75"/>
<polygon fill="midnightblue" stroke="midnightblue" points="712.198,-143.07 703.002,-148.333 713.473,-149.953 712.198,-143.07"/>
</g>
<!-- Node145 -->
<g id="node9" class="node"><title>Node145</title>
<g id="a_node9"><a xlink:href="../../da/d01/namespacemom.html#afebdc0103ad9cbe0ed4a54e522dc4104" target="_top" xlink:title="This subroutine initializes MOM. ">
<polygon fill="white" stroke="black" points="876,-89 876,-108 965,-108 965,-89 876,-89"/>
<text text-anchor="middle" x="920.5" y="-96" font-family="Helvetica,sans-Serif" font-size="10.00">mom::initialize_mom</text>
</a>
</g>
</g>
<!-- Node144&#45;&gt;Node145 -->
<g id="edge8" class="edge"><title>Node144&#45;&gt;Node145</title>
<path fill="none" stroke="midnightblue" d="M849.887,-116.848C861.234,-113.857 872.793,-110.81 883.148,-108.081"/>
<polygon fill="midnightblue" stroke="midnightblue" points="848.784,-113.519 840.006,-119.452 850.568,-120.288 848.784,-113.519"/>
</g>
<!-- Node146 -->
<g id="node10" class="node"><title>Node146</title>
<g id="a_node10"><a xlink:href="../../de/dbc/MOM__driver_8F90.html#a08fffeb2d8e8acbf9ed4609be6d258c6" target="_top" xlink:title="mom_main">
<polygon fill="white" stroke="black" points="1001,-89 1001,-108 1057,-108 1057,-89 1001,-89"/>
<text text-anchor="middle" x="1029" y="-96" font-family="Helvetica,sans-Serif" font-size="10.00">mom_main</text>
</a>
</g>
</g>
<!-- Node145&#45;&gt;Node146 -->
<g id="edge9" class="edge"><title>Node145&#45;&gt;Node146</title>
<path fill="none" stroke="midnightblue" d="M975.407,-98.5C984.206,-98.5 992.981,-98.5 1000.77,-98.5"/>
<polygon fill="midnightblue" stroke="midnightblue" points="975.125,-95.0001 965.125,-98.5 975.125,-102 975.125,-95.0001"/>
</g>
<!-- Node149 -->
<g id="node13" class="node"><title>Node149</title>
<g id="a_node13"><a xlink:href="../../d8/df3/namespacemom__diabatic__driver.html#a61e57d3902367aa46aa3c2d949ee900f" target="_top" xlink:title="This subroutine imposes the diapycnal mass fluxes and the accompanying diapycnal advection of momentu...">
<polygon fill="white" stroke="black" points="607,-44.5 607,-74.5 698,-74.5 698,-44.5 607,-44.5"/>
<text text-anchor="start" x="615" y="-62.5" font-family="Helvetica,sans-Serif" font-size="10.00">mom_diabatic_driver</text>
<text text-anchor="middle" x="652.5" y="-51.5" font-family="Helvetica,sans-Serif" font-size="10.00">::diabatic</text>
</a>
</g>
</g>
<!-- Node148&#45;&gt;Node149 -->
<g id="edge12" class="edge"><title>Node148&#45;&gt;Node149</title>
<path fill="none" stroke="midnightblue" d="M568.473,-62.3729C581.254,-61.9306 594.496,-61.4724 606.55,-61.0554"/>
<polygon fill="midnightblue" stroke="midnightblue" points="568.225,-58.8793 558.352,-62.7231 568.467,-65.8751 568.225,-58.8793"/>
</g>
<!-- Node150&#45;&gt;Node151 -->
<g id="edge14" class="edge"><title>Node150&#45;&gt;Node151</title>
<path fill="none" stroke="midnightblue" d="M420.369,-15.5C428.862,-15.5 437.48,-15.5 445.804,-15.5"/>
<polygon fill="midnightblue" stroke="midnightblue" points="420.1,-12.0001 410.1,-15.5 420.1,-19.0001 420.1,-12.0001"/>
</g>
<!-- Node152 -->
<g id="node16" class="node"><title>Node152</title>
<g id="a_node16"><a xlink:href="../../da/d01/namespacemom.html#ae77cfd2e790f1266b31d93c58659d46c" target="_top" xlink:title="Calls unit tests for other modules. These are NOT normally invoked and so we provide the module use s...">
<polygon fill="white" stroke="black" points="753,-55 753,-74 826,-74 826,-55 753,-55"/>
<text text-anchor="middle" x="789.5" y="-62" font-family="Helvetica,sans-Serif" font-size="10.00">mom::unit_tests</text>
</a>
</g>
</g>
<!-- Node151&#45;&gt;Node152 -->
<g id="edge15" class="edge"><title>Node151&#45;&gt;Node152</title>
<path fill="none" stroke="midnightblue" d="M576.705,-18.1724C614.434,-20.639 661.651,-25.3816 703,-34.5 724.968,-39.3443 749.071,-48.1374 766.071,-54.9562"/>
<polygon fill="midnightblue" stroke="midnightblue" points="576.524,-14.6548 566.328,-17.5353 576.095,-21.6416 576.524,-14.6548"/>
</g>
<!-- Node152&#45;&gt;Node145 -->
<g id="edge16" class="edge"><title>Node152&#45;&gt;Node145</title>
<path fill="none" stroke="midnightblue" d="M835.974,-76.4854C851.427,-80.5583 868.481,-85.053 883.128,-88.9135"/>
<polygon fill="midnightblue" stroke="midnightblue" points="836.653,-73.0449 826.091,-73.8807 834.869,-79.8138 836.653,-73.0449"/>
</g>
</g>
</svg>
