<?xml version="1.0" encoding="UTF-8" standalone="no"?>
<!DOCTYPE svg PUBLIC "-//W3C//DTD SVG 1.1//EN"
 "http://www.w3.org/Graphics/SVG/1.1/DTD/svg11.dtd">
<!-- Generated by graphviz version 2.38.0 (20140413.2041)
 -->
<!-- Title: mom_remapping::buildgridfromh Pages: 1 -->
<svg width="706pt" height="39pt"
 viewBox="0.00 0.00 706.00 39.00" xmlns="http://www.w3.org/2000/svg" xmlns:xlink="http://www.w3.org/1999/xlink">
<g id="graph0" class="graph" transform="scale(1 1) rotate(0) translate(4 35)">
<title>mom_remapping::buildgridfromh</title>
<polygon fill="white" stroke="none" points="-4,4 -4,-35 702,-35 702,4 -4,4"/>
<!-- Node64 -->
<g id="node1" class="node"><title>Node64</title>
<polygon fill="#bfbfbf" stroke="black" points="0,-6 0,-25 155,-25 155,-6 0,-6"/>
<text text-anchor="middle" x="77.5" y="-13" font-family="Helvetica,sans-Serif" font-size="10.00">mom_remapping::buildgridfromh</text>
</g>
<!-- Node65 -->
<g id="node2" class="node"><title>Node65</title>
<g id="a_node2"><a xlink:href="../../d6/d75/namespacemom__remapping.html#a8a79c37c89f8b800f79198aceca5f090" target="_top" xlink:title="Runs unit tests on remapping functions. Should only be called from a single/root thread Returns True ...">
<polygon fill="white" stroke="black" points="191,-0.5 191,-30.5 331,-30.5 331,-0.5 191,-0.5"/>
<text text-anchor="start" x="199" y="-18.5" font-family="Helvetica,sans-Serif" font-size="10.00">mom_remapping::remapping</text>
<text text-anchor="middle" x="261" y="-7.5" font-family="Helvetica,sans-Serif" font-size="10.00">_unit_tests</text>
</a>
</g>
</g>
<!-- Node64&#45;&gt;Node65 -->
<g id="edge1" class="edge"><title>Node64&#45;&gt;Node65</title>
<path fill="none" stroke="midnightblue" d="M165.227,-15.5C173.795,-15.5 182.411,-15.5 190.769,-15.5"/>
<polygon fill="midnightblue" stroke="midnightblue" points="165.209,-12.0001 155.209,-15.5 165.209,-19.0001 165.209,-12.0001"/>
</g>
<!-- Node66 -->
<g id="node3" class="node"><title>Node66</title>
<g id="a_node3"><a xlink:href="../../da/d01/namespacemom.html#ae77cfd2e790f1266b31d93c58659d46c" target="_top" xlink:title="Calls unit tests for other modules. These are NOT normally invoked and so we provide the module use s...">
<polygon fill="white" stroke="black" points="367,-6 367,-25 454,-25 454,-6 367,-6"/>
<text text-anchor="middle" x="410.5" y="-13" font-family="Helvetica,sans-Serif" font-size="10.00">mom::unit_tests</text>
</a>
</g>
</g>
<!-- Node65&#45;&gt;Node66 -->
<g id="edge2" class="edge"><title>Node65&#45;&gt;Node66</title>
<path fill="none" stroke="midnightblue" d="M341.652,-15.5C350.341,-15.5 358.92,-15.5 366.902,-15.5"/>
<polygon fill="midnightblue" stroke="midnightblue" points="341.431,-12.0001 331.431,-15.5 341.431,-19.0001 341.431,-12.0001"/>
</g>
<!-- Node67 -->
<g id="node4" class="node"><title>Node67</title>
<g id="a_node4"><a xlink:href="../../da/d01/namespacemom.html#a0be2869fef30e1e0604facfe1b41555d" target="_top" xlink:title="This subroutine initializes MOM. ">
<polygon fill="white" stroke="black" points="490,-6 490,-25 597,-25 597,-6 490,-6"/>
<text text-anchor="middle" x="543.5" y="-13" font-family="Helvetica,sans-Serif" font-size="10.00">mom::initialize_mom</text>
</a>
</g>
</g>
<!-- Node66&#45;&gt;Node67 -->
<g id="edge3" class="edge"><title>Node66&#45;&gt;Node67</title>
<path fill="none" stroke="midnightblue" d="M464.105,-15.5C472.515,-15.5 481.22,-15.5 489.636,-15.5"/>
<polygon fill="midnightblue" stroke="midnightblue" points="464.032,-12.0001 454.032,-15.5 464.032,-19.0001 464.032,-12.0001"/>
</g>
<!-- Node68 -->
<g id="node5" class="node"><title>Node68</title>
<g id="a_node5"><a xlink:href="../../de/dbc/MOM__driver_8F90.html#a08fffeb2d8e8acbf9ed4609be6d258c6" target="_top" xlink:title="mom_main">
<polygon fill="white" stroke="black" points="633,-6 633,-25 698,-25 698,-6 633,-6"/>
<text text-anchor="middle" x="665.5" y="-13" font-family="Helvetica,sans-Serif" font-size="10.00">mom_main</text>
</a>
</g>
</g>
<!-- Node67&#45;&gt;Node68 -->
<g id="edge4" class="edge"><title>Node67&#45;&gt;Node68</title>
<path fill="none" stroke="midnightblue" d="M607.206,-15.5C616.134,-15.5 624.983,-15.5 632.958,-15.5"/>
<polygon fill="midnightblue" stroke="midnightblue" points="607.134,-12.0001 597.134,-15.5 607.134,-19.0001 607.134,-12.0001"/>
</g>
</g>
</svg>
