<?xml version="1.0" encoding="UTF-8" standalone="no"?>
<!DOCTYPE svg PUBLIC "-//W3C//DTD SVG 1.1//EN"
 "http://www.w3.org/Graphics/SVG/1.1/DTD/svg11.dtd">
<!-- Generated by graphviz version 2.38.0 (20140413.2041)
 -->
<!-- Title: mom_remapping::setreconstructiontype Pages: 1 -->
<svg width="1149pt" height="183pt"
 viewBox="0.00 0.00 1149.00 183.00" xmlns="http://www.w3.org/2000/svg" xmlns:xlink="http://www.w3.org/1999/xlink">
<g id="graph0" class="graph" transform="scale(1 1) rotate(0) translate(4 179)">
<title>mom_remapping::setreconstructiontype</title>
<polygon fill="white" stroke="none" points="-4,4 -4,-179 1145,-179 1145,4 -4,4"/>
<!-- Node356 -->
<g id="node1" class="node"><title>Node356</title>
<polygon fill="#bfbfbf" stroke="black" points="0,-101 0,-120 188,-120 188,-101 0,-101"/>
<text text-anchor="middle" x="94" y="-108" font-family="Helvetica,sans-Serif" font-size="10.00">mom_remapping::setreconstructiontype</text>
</g>
<!-- Node357 -->
<g id="node2" class="node"><title>Node357</title>
<g id="a_node2"><a xlink:href="../../d6/d75/namespacemom__remapping.html#a9e811f89c505a4416ea0eec315769801" target="_top" xlink:title="Set parameters within remapping object. ">
<polygon fill="white" stroke="black" points="224,-95.5 224,-125.5 364,-125.5 364,-95.5 224,-95.5"/>
<text text-anchor="start" x="232" y="-113.5" font-family="Helvetica,sans-Serif" font-size="10.00">mom_remapping::remapping</text>
<text text-anchor="middle" x="294" y="-102.5" font-family="Helvetica,sans-Serif" font-size="10.00">_set_param</text>
</a>
</g>
</g>
<!-- Node356&#45;&gt;Node357 -->
<g id="edge1" class="edge"><title>Node356&#45;&gt;Node357</title>
<path fill="none" stroke="midnightblue" d="M198.369,-110.5C207.026,-110.5 215.638,-110.5 223.94,-110.5"/>
<polygon fill="midnightblue" stroke="midnightblue" points="198.202,-107 188.202,-110.5 198.202,-114 198.202,-107"/>
</g>
<!-- Node358 -->
<g id="node3" class="node"><title>Node358</title>
<g id="a_node3"><a xlink:href="../../d6/d75/namespacemom__remapping.html#a6847e0c44ccb54fb72587677f90d95b6" target="_top" xlink:title="Constructor for remapping control structure. ">
<polygon fill="white" stroke="black" points="400,-95.5 400,-125.5 530,-125.5 530,-95.5 400,-95.5"/>
<text text-anchor="start" x="408" y="-113.5" font-family="Helvetica,sans-Serif" font-size="10.00">mom_remapping::initialize</text>
<text text-anchor="middle" x="465" y="-102.5" font-family="Helvetica,sans-Serif" font-size="10.00">_remapping</text>
</a>
</g>
</g>
<!-- Node357&#45;&gt;Node358 -->
<g id="edge2" class="edge"><title>Node357&#45;&gt;Node358</title>
<path fill="none" stroke="midnightblue" d="M374.503,-110.5C382.974,-110.5 391.513,-110.5 399.776,-110.5"/>
<polygon fill="midnightblue" stroke="midnightblue" points="374.226,-107 364.226,-110.5 374.226,-114 374.226,-107"/>
</g>
<!-- Node359 -->
<g id="node4" class="node"><title>Node359</title>
<g id="a_node4"><a xlink:href="../../de/dd7/namespacemom__ale__sponge.html#a135d5ca4d0dff789bc6db5ac789b4142" target="_top" xlink:title="This subroutine determines the number of points which are within. ">
<polygon fill="white" stroke="black" points="569,-144.5 569,-174.5 703,-174.5 703,-144.5 569,-144.5"/>
<text text-anchor="start" x="577" y="-162.5" font-family="Helvetica,sans-Serif" font-size="10.00">mom_ale_sponge::initialize</text>
<text text-anchor="middle" x="636" y="-151.5" font-family="Helvetica,sans-Serif" font-size="10.00">_ale_sponge</text>
</a>
</g>
</g>
<!-- Node358&#45;&gt;Node359 -->
<g id="edge3" class="edge"><title>Node358&#45;&gt;Node359</title>
<path fill="none" stroke="midnightblue" d="M527.716,-128.394C545.894,-133.664 565.591,-139.376 583.087,-144.448"/>
<polygon fill="midnightblue" stroke="midnightblue" points="528.664,-125.025 518.085,-125.601 526.714,-131.748 528.664,-125.025"/>
</g>
<!-- Node362 -->
<g id="node7" class="node"><title>Node362</title>
<g id="a_node7"><a xlink:href="../../d6/d75/namespacemom__remapping.html#a8a79c37c89f8b800f79198aceca5f090" target="_top" xlink:title="Runs unit tests on remapping functions. Should only be called from a single/root thread Returns True ...">
<polygon fill="white" stroke="black" points="566,-95.5 566,-125.5 706,-125.5 706,-95.5 566,-95.5"/>
<text text-anchor="start" x="574" y="-113.5" font-family="Helvetica,sans-Serif" font-size="10.00">mom_remapping::remapping</text>
<text text-anchor="middle" x="636" y="-102.5" font-family="Helvetica,sans-Serif" font-size="10.00">_unit_tests</text>
</a>
</g>
</g>
<!-- Node358&#45;&gt;Node362 -->
<g id="edge6" class="edge"><title>Node358&#45;&gt;Node362</title>
<path fill="none" stroke="midnightblue" d="M540.516,-110.5C548.903,-110.5 557.423,-110.5 565.739,-110.5"/>
<polygon fill="midnightblue" stroke="midnightblue" points="540.374,-107 530.374,-110.5 540.374,-114 540.374,-107"/>
</g>
<!-- Node366 -->
<g id="node11" class="node"><title>Node366</title>
<g id="a_node11"><a xlink:href="../../dd/d33/namespacemom__wave__speed.html#a46e21529ec8098b0b19053afa133b971" target="_top" xlink:title="Initialize control structure for MOM_wave_speed. ">
<polygon fill="white" stroke="black" points="572,-46.5 572,-76.5 700,-76.5 700,-46.5 572,-46.5"/>
<text text-anchor="start" x="580" y="-64.5" font-family="Helvetica,sans-Serif" font-size="10.00">mom_wave_speed::wave</text>
<text text-anchor="middle" x="636" y="-53.5" font-family="Helvetica,sans-Serif" font-size="10.00">_speed_init</text>
</a>
</g>
</g>
<!-- Node358&#45;&gt;Node366 -->
<g id="edge10" class="edge"><title>Node358&#45;&gt;Node366</title>
<path fill="none" stroke="midnightblue" d="M527.716,-92.6059C545.894,-87.3356 565.591,-81.6245 583.087,-76.5516"/>
<polygon fill="midnightblue" stroke="midnightblue" points="526.714,-89.2522 518.085,-95.3986 528.664,-95.9753 526.714,-89.2522"/>
</g>
<!-- Node360 -->
<g id="node5" class="node"><title>Node360</title>
<g id="a_node5"><a xlink:href="../../da/d77/namespacedome2d__initialization.html#ab0df2b602fe1c83baa66ba03cc2c6dd4" target="_top" xlink:title="Set up sponges in 2d DOME configuration. ">
<polygon fill="white" stroke="black" points="742,-144.5 742,-174.5 882,-174.5 882,-144.5 742,-144.5"/>
<text text-anchor="start" x="750" y="-162.5" font-family="Helvetica,sans-Serif" font-size="10.00">dome2d_initialization</text>
<text text-anchor="middle" x="812" y="-151.5" font-family="Helvetica,sans-Serif" font-size="10.00">::dome2d_initialize_sponges</text>
</a>
</g>
</g>
<!-- Node359&#45;&gt;Node360 -->
<g id="edge4" class="edge"><title>Node359&#45;&gt;Node360</title>
<path fill="none" stroke="midnightblue" d="M713.413,-159.5C722.832,-159.5 732.42,-159.5 741.726,-159.5"/>
<polygon fill="midnightblue" stroke="midnightblue" points="713.278,-156 703.278,-159.5 713.278,-163 713.278,-156"/>
</g>
<!-- Node361 -->
<g id="node6" class="node"><title>Node361</title>
<g id="a_node6"><a xlink:href="../../d6/d62/namespacemom__state__initialization.html#af4e854627c6572332ba3fd895f169321" target="_top" xlink:title="mom_state_initialization\l::mom_initialize_state">
<polygon fill="white" stroke="black" points="918,-144.5 918,-174.5 1040,-174.5 1040,-144.5 918,-144.5"/>
<text text-anchor="start" x="926" y="-162.5" font-family="Helvetica,sans-Serif" font-size="10.00">mom_state_initialization</text>
<text text-anchor="middle" x="979" y="-151.5" font-family="Helvetica,sans-Serif" font-size="10.00">::mom_initialize_state</text>
</a>
</g>
</g>
<!-- Node360&#45;&gt;Node361 -->
<g id="edge5" class="edge"><title>Node360&#45;&gt;Node361</title>
<path fill="none" stroke="midnightblue" d="M892.146,-159.5C900.813,-159.5 909.528,-159.5 917.91,-159.5"/>
<polygon fill="midnightblue" stroke="midnightblue" points="892.019,-156 882.019,-159.5 892.019,-163 892.019,-156"/>
</g>
<!-- Node363 -->
<g id="node8" class="node"><title>Node363</title>
<g id="a_node8"><a xlink:href="../../da/d01/namespacemom.html#ae77cfd2e790f1266b31d93c58659d46c" target="_top" xlink:title="Calls unit tests for other modules. These are NOT normally invoked and so we provide the module use s...">
<polygon fill="white" stroke="black" points="768.5,-101 768.5,-120 855.5,-120 855.5,-101 768.5,-101"/>
<text text-anchor="middle" x="812" y="-108" font-family="Helvetica,sans-Serif" font-size="10.00">mom::unit_tests</text>
</a>
</g>
</g>
<!-- Node362&#45;&gt;Node363 -->
<g id="edge7" class="edge"><title>Node362&#45;&gt;Node363</title>
<path fill="none" stroke="midnightblue" d="M716.231,-110.5C734.205,-110.5 752.624,-110.5 768.387,-110.5"/>
<polygon fill="midnightblue" stroke="midnightblue" points="716.019,-107 706.019,-110.5 716.019,-114 716.019,-107"/>
</g>
<!-- Node364 -->
<g id="node9" class="node"><title>Node364</title>
<g id="a_node9"><a xlink:href="../../da/d01/namespacemom.html#a0be2869fef30e1e0604facfe1b41555d" target="_top" xlink:title="This subroutine initializes MOM. ">
<polygon fill="white" stroke="black" points="925.5,-101 925.5,-120 1032.5,-120 1032.5,-101 925.5,-101"/>
<text text-anchor="middle" x="979" y="-108" font-family="Helvetica,sans-Serif" font-size="10.00">mom::initialize_mom</text>
</a>
</g>
</g>
<!-- Node363&#45;&gt;Node364 -->
<g id="edge8" class="edge"><title>Node363&#45;&gt;Node364</title>
<path fill="none" stroke="midnightblue" d="M866.162,-110.5C885.089,-110.5 906.384,-110.5 925.274,-110.5"/>
<polygon fill="midnightblue" stroke="midnightblue" points="865.921,-107 855.921,-110.5 865.921,-114 865.921,-107"/>
</g>
<!-- Node365 -->
<g id="node10" class="node"><title>Node365</title>
<g id="a_node10"><a xlink:href="../../de/dbc/MOM__driver_8F90.html#a08fffeb2d8e8acbf9ed4609be6d258c6" target="_top" xlink:title="mom_main">
<polygon fill="white" stroke="black" points="1076,-101 1076,-120 1141,-120 1141,-101 1076,-101"/>
<text text-anchor="middle" x="1108.5" y="-108" font-family="Helvetica,sans-Serif" font-size="10.00">mom_main</text>
</a>
</g>
</g>
<!-- Node364&#45;&gt;Node365 -->
<g id="edge9" class="edge"><title>Node364&#45;&gt;Node365</title>
<path fill="none" stroke="midnightblue" d="M1042.66,-110.5C1054.17,-110.5 1065.73,-110.5 1075.83,-110.5"/>
<polygon fill="midnightblue" stroke="midnightblue" points="1042.6,-107 1032.6,-110.5 1042.6,-114 1042.6,-107"/>
</g>
<!-- Node367 -->
<g id="node12" class="node"><title>Node367</title>
<g id="a_node12"><a xlink:href="../../d9/d8b/namespacemom__diagnostics.html#ab2108574e351f6deb812da3faf437278" target="_top" xlink:title="mom_diagnostics::mom\l_diagnostics_init">
<polygon fill="white" stroke="black" points="751.5,-49.5 751.5,-79.5 872.5,-79.5 872.5,-49.5 751.5,-49.5"/>
<text text-anchor="start" x="759.5" y="-67.5" font-family="Helvetica,sans-Serif" font-size="10.00">mom_diagnostics::mom</text>
<text text-anchor="middle" x="812" y="-56.5" font-family="Helvetica,sans-Serif" font-size="10.00">_diagnostics_init</text>
</a>
</g>
</g>
<!-- Node366&#45;&gt;Node367 -->
<g id="edge11" class="edge"><title>Node366&#45;&gt;Node367</title>
<path fill="none" stroke="midnightblue" d="M710.568,-62.7684C724.124,-63.0021 738.127,-63.2436 751.215,-63.4692"/>
<polygon fill="midnightblue" stroke="midnightblue" points="710.369,-59.2646 700.31,-62.5916 710.248,-66.2635 710.369,-59.2646"/>
</g>
<!-- Node368 -->
<g id="node13" class="node"><title>Node368</title>
<g id="a_node13"><a xlink:href="../../d0/d86/namespacemom__lateral__mixing__coeffs.html#aeb658054e8d4d723dff397f8ae186e4a" target="_top" xlink:title="Initializes the variables mixing coefficients container. ">
<polygon fill="white" stroke="black" points="760,-0.5 760,-30.5 864,-30.5 864,-0.5 760,-0.5"/>
<text text-anchor="start" x="768" y="-18.5" font-family="Helvetica,sans-Serif" font-size="10.00">mom_lateral_mixing</text>
<text text-anchor="middle" x="812" y="-7.5" font-family="Helvetica,sans-Serif" font-size="10.00">_coeffs::varmix_init</text>
</a>
</g>
</g>
<!-- Node366&#45;&gt;Node368 -->
<g id="edge12" class="edge"><title>Node366&#45;&gt;Node368</title>
<path fill="none" stroke="midnightblue" d="M703.836,-43.8308C722.398,-38.9235 742.256,-33.6736 759.772,-29.043"/>
<polygon fill="midnightblue" stroke="midnightblue" points="702.747,-40.4982 693.974,-46.4379 704.537,-47.2657 702.747,-40.4982"/>
</g>
</g>
</svg>
