<?xml version="1.0" encoding="UTF-8" standalone="no"?>
<!DOCTYPE svg PUBLIC "-//W3C//DTD SVG 1.1//EN"
 "http://www.w3.org/Graphics/SVG/1.1/DTD/svg11.dtd">
<!-- Generated by graphviz version 2.38.0 (20140413.2041)
 -->
<!-- Title: mom_remapping::initialize_remapping Pages: 1 -->
<!--zoomable 183 -->
<svg id="main" version="1.1" xmlns="http://www.w3.org/2000/svg" xmlns:xlink="http://www.w3.org/1999/xlink" xml:space="preserve" onload="init(evt)">
<style type="text/css"><![CDATA[
.edge:hover path { stroke: red; }
.edge:hover polygon { stroke: red; fill: red; }
]]></style>
<script type="text/javascript"><![CDATA[
var edges = document.getElementsByTagName('g');
if (edges && edges.length) {
  for (var i=0;i<edges.length;i++) {
    if (edges[i].id.substr(0,4)=='edge') {
      edges[i].setAttribute('class','edge');
    }
  }
}
]]></script>
        <defs>
                <circle id="rim" cx="0" cy="0" r="7"/>
                <circle id="rim2" cx="0" cy="0" r="3.5"/>
                <g id="zoomPlus">
                        <use xlink:href="#rim" fill="#404040">
                                <set attributeName="fill" to="#808080" begin="zoomplus.mouseover" end="zoomplus.mouseout"/>
                        </use>
                        <path d="M-4,0h8M0,-4v8" fill="none" stroke="white" stroke-width="1.5" pointer-events="none"/>
                </g>
                <g id="zoomMin">
                        <use xlink:href="#rim" fill="#404040">
                                <set attributeName="fill" to="#808080" begin="zoomminus.mouseover" end="zoomminus.mouseout"/>
                        </use>
                        <path d="M-4,0h8" fill="none" stroke="white" stroke-width="1.5" pointer-events="none"/>
                </g>
                <g id="dirArrow">
                        <path fill="none" stroke="white" stroke-width="1.5" d="M0,-3.0v7 M-2.5,-0.5L0,-3.0L2.5,-0.5"/>
                </g>
               <g id="resetDef">
                       <use xlink:href="#rim2" fill="#404040">
                               <set attributeName="fill" to="#808080" begin="reset.mouseover" end="reset.mouseout"/>
                       </use>
               </g>
        </defs>

<script type="text/javascript">
var viewWidth = 749;
var viewHeight = 183;
var sectionId = 'dynsection-9';
</script>
<script xlink:href="../../svgpan.js"/>
<svg id="graph" class="graph">
<g id="viewport">
<title>mom_remapping::initialize_remapping</title>
<polygon fill="white" stroke="none" points="-4,4 -4,-179 745,-179 745,4 -4,4"/>
<!-- Node109 -->
<g id="node1" class="node"><title>Node109</title>
<polygon fill="#bfbfbf" stroke="black" points="0,-95.5 0,-125.5 130,-125.5 130,-95.5 0,-95.5"/>
<text text-anchor="start" x="8" y="-113.5" font-family="Helvetica,sans-Serif" font-size="10.00">mom_remapping::initialize</text>
<text text-anchor="middle" x="65" y="-102.5" font-family="Helvetica,sans-Serif" font-size="10.00">_remapping</text>
</g>
<!-- Node110 -->
<g id="node2" class="node"><title>Node110</title>
<g id="a_node2"><a xlink:href="../../de/dd7/namespacemom__ale__sponge.html#a135d5ca4d0dff789bc6db5ac789b4142" target="_top" xlink:title="This subroutine determines the number of points which are within. ">
<polygon fill="white" stroke="black" points="169,-144.5 169,-174.5 303,-174.5 303,-144.5 169,-144.5"/>
<text text-anchor="start" x="177" y="-162.5" font-family="Helvetica,sans-Serif" font-size="10.00">mom_ale_sponge::initialize</text>
<text text-anchor="middle" x="236" y="-151.5" font-family="Helvetica,sans-Serif" font-size="10.00">_ale_sponge</text>
</a>
</g>
</g>
<!-- Node109&#45;&gt;Node110 -->
<g id="edge1" class="edge"><title>Node109&#45;&gt;Node110</title>
<path fill="none" stroke="midnightblue" d="M127.716,-128.394C145.894,-133.664 165.591,-139.376 183.087,-144.448"/>
<polygon fill="midnightblue" stroke="midnightblue" points="128.664,-125.025 118.085,-125.601 126.714,-131.748 128.664,-125.025"/>
</g>
<!-- Node113 -->
<g id="node5" class="node"><title>Node113</title>
<g id="a_node5"><a xlink:href="../../d6/d75/namespacemom__remapping.html#a8a79c37c89f8b800f79198aceca5f090" target="_top" xlink:title="Runs unit tests on remapping functions. Should only be called from a single/root thread Returns True ...">
<polygon fill="white" stroke="black" points="166,-95.5 166,-125.5 306,-125.5 306,-95.5 166,-95.5"/>
<text text-anchor="start" x="174" y="-113.5" font-family="Helvetica,sans-Serif" font-size="10.00">mom_remapping::remapping</text>
<text text-anchor="middle" x="236" y="-102.5" font-family="Helvetica,sans-Serif" font-size="10.00">_unit_tests</text>
</a>
</g>
</g>
<!-- Node109&#45;&gt;Node113 -->
<g id="edge4" class="edge"><title>Node109&#45;&gt;Node113</title>
<path fill="none" stroke="midnightblue" d="M140.516,-110.5C148.903,-110.5 157.423,-110.5 165.739,-110.5"/>
<polygon fill="midnightblue" stroke="midnightblue" points="140.374,-107 130.374,-110.5 140.374,-114 140.374,-107"/>
</g>
<!-- Node117 -->
<g id="node9" class="node"><title>Node117</title>
<g id="a_node9"><a xlink:href="../../dd/d33/namespacemom__wave__speed.html#a46e21529ec8098b0b19053afa133b971" target="_top" xlink:title="Initialize control structure for MOM_wave_speed. ">
<polygon fill="white" stroke="black" points="172,-46.5 172,-76.5 300,-76.5 300,-46.5 172,-46.5"/>
<text text-anchor="start" x="180" y="-64.5" font-family="Helvetica,sans-Serif" font-size="10.00">mom_wave_speed::wave</text>
<text text-anchor="middle" x="236" y="-53.5" font-family="Helvetica,sans-Serif" font-size="10.00">_speed_init</text>
</a>
</g>
</g>
<!-- Node109&#45;&gt;Node117 -->
<g id="edge8" class="edge"><title>Node109&#45;&gt;Node117</title>
<path fill="none" stroke="midnightblue" d="M127.716,-92.6059C145.894,-87.3356 165.591,-81.6245 183.087,-76.5516"/>
<polygon fill="midnightblue" stroke="midnightblue" points="126.714,-89.2522 118.085,-95.3986 128.664,-95.9753 126.714,-89.2522"/>
</g>
<!-- Node111 -->
<g id="node3" class="node"><title>Node111</title>
<g id="a_node3"><a xlink:href="../../da/d77/namespacedome2d__initialization.html#ab0df2b602fe1c83baa66ba03cc2c6dd4" target="_top" xlink:title="Set up sponges in 2d DOME configuration. ">
<polygon fill="white" stroke="black" points="342,-144.5 342,-174.5 482,-174.5 482,-144.5 342,-144.5"/>
<text text-anchor="start" x="350" y="-162.5" font-family="Helvetica,sans-Serif" font-size="10.00">dome2d_initialization</text>
<text text-anchor="middle" x="412" y="-151.5" font-family="Helvetica,sans-Serif" font-size="10.00">::dome2d_initialize_sponges</text>
</a>
</g>
</g>
<!-- Node110&#45;&gt;Node111 -->
<g id="edge2" class="edge"><title>Node110&#45;&gt;Node111</title>
<path fill="none" stroke="midnightblue" d="M313.413,-159.5C322.832,-159.5 332.42,-159.5 341.726,-159.5"/>
<polygon fill="midnightblue" stroke="midnightblue" points="313.278,-156 303.278,-159.5 313.278,-163 313.278,-156"/>
</g>
<!-- Node112 -->
<g id="node4" class="node"><title>Node112</title>
<g id="a_node4"><a xlink:href="../../d6/d62/namespacemom__state__initialization.html#af4e854627c6572332ba3fd895f169321" target="_top" xlink:title="mom_state_initialization\l::mom_initialize_state">
<polygon fill="white" stroke="black" points="518,-144.5 518,-174.5 640,-174.5 640,-144.5 518,-144.5"/>
<text text-anchor="start" x="526" y="-162.5" font-family="Helvetica,sans-Serif" font-size="10.00">mom_state_initialization</text>
<text text-anchor="middle" x="579" y="-151.5" font-family="Helvetica,sans-Serif" font-size="10.00">::mom_initialize_state</text>
</a>
</g>
</g>
<!-- Node111&#45;&gt;Node112 -->
<g id="edge3" class="edge"><title>Node111&#45;&gt;Node112</title>
<path fill="none" stroke="midnightblue" d="M492.146,-159.5C500.813,-159.5 509.528,-159.5 517.91,-159.5"/>
<polygon fill="midnightblue" stroke="midnightblue" points="492.019,-156 482.019,-159.5 492.019,-163 492.019,-156"/>
</g>
<!-- Node114 -->
<g id="node6" class="node"><title>Node114</title>
<g id="a_node6"><a xlink:href="../../da/d01/namespacemom.html#ae77cfd2e790f1266b31d93c58659d46c" target="_top" xlink:title="Calls unit tests for other modules. These are NOT normally invoked and so we provide the module use s...">
<polygon fill="white" stroke="black" points="368.5,-101 368.5,-120 455.5,-120 455.5,-101 368.5,-101"/>
<text text-anchor="middle" x="412" y="-108" font-family="Helvetica,sans-Serif" font-size="10.00">mom::unit_tests</text>
</a>
</g>
</g>
<!-- Node113&#45;&gt;Node114 -->
<g id="edge5" class="edge"><title>Node113&#45;&gt;Node114</title>
<path fill="none" stroke="midnightblue" d="M316.231,-110.5C334.205,-110.5 352.624,-110.5 368.387,-110.5"/>
<polygon fill="midnightblue" stroke="midnightblue" points="316.019,-107 306.019,-110.5 316.019,-114 316.019,-107"/>
</g>
<!-- Node115 -->
<g id="node7" class="node"><title>Node115</title>
<g id="a_node7"><a xlink:href="../../da/d01/namespacemom.html#a0be2869fef30e1e0604facfe1b41555d" target="_top" xlink:title="This subroutine initializes MOM. ">
<polygon fill="white" stroke="black" points="525.5,-101 525.5,-120 632.5,-120 632.5,-101 525.5,-101"/>
<text text-anchor="middle" x="579" y="-108" font-family="Helvetica,sans-Serif" font-size="10.00">mom::initialize_mom</text>
</a>
</g>
</g>
<!-- Node114&#45;&gt;Node115 -->
<g id="edge6" class="edge"><title>Node114&#45;&gt;Node115</title>
<path fill="none" stroke="midnightblue" d="M466.162,-110.5C485.089,-110.5 506.384,-110.5 525.274,-110.5"/>
<polygon fill="midnightblue" stroke="midnightblue" points="465.921,-107 455.921,-110.5 465.921,-114 465.921,-107"/>
</g>
<!-- Node116 -->
<g id="node8" class="node"><title>Node116</title>
<g id="a_node8"><a xlink:href="../../de/dbc/MOM__driver_8F90.html#a08fffeb2d8e8acbf9ed4609be6d258c6" target="_top" xlink:title="mom_main">
<polygon fill="white" stroke="black" points="676,-101 676,-120 741,-120 741,-101 676,-101"/>
<text text-anchor="middle" x="708.5" y="-108" font-family="Helvetica,sans-Serif" font-size="10.00">mom_main</text>
</a>
</g>
</g>
<!-- Node115&#45;&gt;Node116 -->
<g id="edge7" class="edge"><title>Node115&#45;&gt;Node116</title>
<path fill="none" stroke="midnightblue" d="M642.66,-110.5C654.171,-110.5 665.729,-110.5 675.832,-110.5"/>
<polygon fill="midnightblue" stroke="midnightblue" points="642.595,-107 632.595,-110.5 642.595,-114 642.595,-107"/>
</g>
<!-- Node118 -->
<g id="node10" class="node"><title>Node118</title>
<g id="a_node10"><a xlink:href="../../d9/d8b/namespacemom__diagnostics.html#ab2108574e351f6deb812da3faf437278" target="_top" xlink:title="mom_diagnostics::mom\l_diagnostics_init">
<polygon fill="white" stroke="black" points="351.5,-49.5 351.5,-79.5 472.5,-79.5 472.5,-49.5 351.5,-49.5"/>
<text text-anchor="start" x="359.5" y="-67.5" font-family="Helvetica,sans-Serif" font-size="10.00">mom_diagnostics::mom</text>
<text text-anchor="middle" x="412" y="-56.5" font-family="Helvetica,sans-Serif" font-size="10.00">_diagnostics_init</text>
</a>
</g>
</g>
<!-- Node117&#45;&gt;Node118 -->
<g id="edge9" class="edge"><title>Node117&#45;&gt;Node118</title>
<path fill="none" stroke="midnightblue" d="M310.568,-62.7684C324.124,-63.0021 338.127,-63.2436 351.215,-63.4692"/>
<polygon fill="midnightblue" stroke="midnightblue" points="310.369,-59.2646 300.31,-62.5916 310.248,-66.2635 310.369,-59.2646"/>
</g>
<!-- Node119 -->
<g id="node11" class="node"><title>Node119</title>
<g id="a_node11"><a xlink:href="../../d0/d86/namespacemom__lateral__mixing__coeffs.html#aeb658054e8d4d723dff397f8ae186e4a" target="_top" xlink:title="Initializes the variables mixing coefficients container. ">
<polygon fill="white" stroke="black" points="360,-0.5 360,-30.5 464,-30.5 464,-0.5 360,-0.5"/>
<text text-anchor="start" x="368" y="-18.5" font-family="Helvetica,sans-Serif" font-size="10.00">mom_lateral_mixing</text>
<text text-anchor="middle" x="412" y="-7.5" font-family="Helvetica,sans-Serif" font-size="10.00">_coeffs::varmix_init</text>
</a>
</g>
</g>
<!-- Node117&#45;&gt;Node119 -->
<g id="edge10" class="edge"><title>Node117&#45;&gt;Node119</title>
<path fill="none" stroke="midnightblue" d="M303.836,-43.8308C322.398,-38.9235 342.256,-33.6736 359.772,-29.043"/>
<polygon fill="midnightblue" stroke="midnightblue" points="302.747,-40.4982 293.974,-46.4379 304.537,-47.2657 302.747,-40.4982"/>
</g>
</g>
</svg>
        <g id="navigator" transform="translate(0 0)" fill="#404254">
                <rect fill="#f2f5e9" fill-opacity="0.5" stroke="#606060" stroke-width=".5" x="0" y="0" width="60" height="60"/>
                <use id="zoomplus" xlink:href="#zoomPlus" x="17" y="9" onmousedown="handleZoom(evt,'in')"/>
                <use id="zoomminus" xlink:href="#zoomMin" x="42" y="9" onmousedown="handleZoom(evt,'out')"/>
                <use id="reset" xlink:href="#resetDef" x="30" y="36" onmousedown="handleReset()"/>
                <g id="arrowUp" xlink:href="#dirArrow" transform="translate(30 24)" onmousedown="handlePan(0,-1)">
                  <use xlink:href="#rim" fill="#404040">
                        <set attributeName="fill" to="#808080" begin="arrowUp.mouseover" end="arrowUp.mouseout"/>
                  </use>
                  <path fill="none" stroke="white" stroke-width="1.5" d="M0,-3.0v7 M-2.5,-0.5L0,-3.0L2.5,-0.5"/>
                </g>
                <g id="arrowRight" xlink:href="#dirArrow" transform="rotate(90) translate(36 -43)" onmousedown="handlePan(1,0)">
                  <use xlink:href="#rim" fill="#404040">
                        <set attributeName="fill" to="#808080" begin="arrowRight.mouseover" end="arrowRight.mouseout"/>
                  </use>
                  <path fill="none" stroke="white" stroke-width="1.5" d="M0,-3.0v7 M-2.5,-0.5L0,-3.0L2.5,-0.5"/>
                </g>
                <g id="arrowDown" xlink:href="#dirArrow" transform="rotate(180) translate(-30 -48)" onmousedown="handlePan(0,1)">
                  <use xlink:href="#rim" fill="#404040">
                        <set attributeName="fill" to="#808080" begin="arrowDown.mouseover" end="arrowDown.mouseout"/>
                  </use>
                  <path fill="none" stroke="white" stroke-width="1.5" d="M0,-3.0v7 M-2.5,-0.5L0,-3.0L2.5,-0.5"/>
                </g>
                <g id="arrowLeft" xlink:href="#dirArrow" transform="rotate(270) translate(-36 17)" onmousedown="handlePan(-1,0)">
                  <use xlink:href="#rim" fill="#404040">
                        <set attributeName="fill" to="#808080" begin="arrowLeft.mouseover" end="arrowLeft.mouseout"/>
                  </use>
                  <path fill="none" stroke="white" stroke-width="1.5" d="M0,-3.0v7 M-2.5,-0.5L0,-3.0L2.5,-0.5"/>
                </g>
        </g>
        <svg viewBox="0 0 15 15" width="100%" height="30px" preserveAspectRatio="xMaxYMin meet">
         <g id="arrow_out" transform="scale(0.3 0.3)">
          <a xlink:href="namespacemom__remapping_a6847e0c44ccb54fb72587677f90d95b6_icgraph_org.svg" target="_base">
           <rect id="button" ry="5" rx="5" y="6" x="6" height="38" width="38"
                fill="#f2f5e9" fill-opacity="0.5" stroke="#606060" stroke-width="1.0"/>
           <path id="arrow"
             d="M 11.500037,31.436501 C 11.940474,20.09759 22.043105,11.32322 32.158766,21.979434 L 37.068811,17.246167 C 37.068811,17.246167 37.088388,32 37.088388,32 L 22.160133,31.978069 C 22.160133,31.978069 26.997745,27.140456 26.997745,27.140456 C 18.528582,18.264221 13.291696,25.230495 11.500037,31.436501 z"
             style="fill:#404040;"/>
          </a>
         </g>
        </svg>
</svg>
