<?xml version="1.0" encoding="UTF-8" standalone="no"?>
<!DOCTYPE svg PUBLIC "-//W3C//DTD SVG 1.1//EN"
 "http://www.w3.org/Graphics/SVG/1.1/DTD/svg11.dtd">
<!-- Generated by graphviz version 2.38.0 (20140413.2041)
 -->
<!-- Title: mom_remapping::average_value_ppoly Pages: 1 -->
<svg width="1080pt" height="337pt"
 viewBox="0.00 0.00 1080.00 337.00" xmlns="http://www.w3.org/2000/svg" xmlns:xlink="http://www.w3.org/1999/xlink">
<g id="graph0" class="graph" transform="scale(1 1) rotate(0) translate(4 333)">
<title>mom_remapping::average_value_ppoly</title>
<polygon fill="white" stroke="none" points="-4,4 -4,-333 1076,-333 1076,4 -4,4"/>
<!-- Node3 -->
<g id="node1" class="node"><title>Node3</title>
<polygon fill="#bfbfbf" stroke="black" points="0,-44.5 0,-74.5 129,-74.5 129,-44.5 0,-44.5"/>
<text text-anchor="start" x="8" y="-62.5" font-family="Helvetica,sans-Serif" font-size="10.00">mom_remapping::average</text>
<text text-anchor="middle" x="64.5" y="-51.5" font-family="Helvetica,sans-Serif" font-size="10.00">_value_ppoly</text>
</g>
<!-- Node4 -->
<g id="node2" class="node"><title>Node4</title>
<g id="a_node2"><a xlink:href="../../d6/d75/namespacemom__remapping.html#aac27eb299cd36293b458a51b60ac771f" target="_top" xlink:title="Remaps column of n0 values u0 on grid h0 to grid h1 with n1 cells by calculating the n0+n1+1 sub&#45;inte...">
<polygon fill="white" stroke="black" points="165,-44.5 165,-74.5 287,-74.5 287,-44.5 165,-44.5"/>
<text text-anchor="start" x="173" y="-62.5" font-family="Helvetica,sans-Serif" font-size="10.00">mom_remapping::remap</text>
<text text-anchor="middle" x="226" y="-51.5" font-family="Helvetica,sans-Serif" font-size="10.00">_via_sub_cells</text>
</a>
</g>
</g>
<!-- Node3&#45;&gt;Node4 -->
<g id="edge1" class="edge"><title>Node3&#45;&gt;Node4</title>
<path fill="none" stroke="midnightblue" d="M139.695,-59.5C148.144,-59.5 156.677,-59.5 164.911,-59.5"/>
<polygon fill="midnightblue" stroke="midnightblue" points="139.456,-56.0001 129.456,-59.5 139.456,-63.0001 139.456,-56.0001"/>
</g>
<!-- Node5 -->
<g id="node3" class="node"><title>Node5</title>
<g id="a_node3"><a xlink:href="../../d6/d75/namespacemom__remapping.html#a6d1533ffa647f3305aba055e2685b095" target="_top" xlink:title="Remaps column of values u0 on grid h0 to grid h1 assuming the top edge is aligned. ">
<polygon fill="white" stroke="black" points="323,-114.5 323,-144.5 463,-144.5 463,-114.5 323,-114.5"/>
<text text-anchor="start" x="331" y="-132.5" font-family="Helvetica,sans-Serif" font-size="10.00">mom_remapping::remapping</text>
<text text-anchor="middle" x="393" y="-121.5" font-family="Helvetica,sans-Serif" font-size="10.00">_core_h</text>
</a>
</g>
</g>
<!-- Node4&#45;&gt;Node5 -->
<g id="edge2" class="edge"><title>Node4&#45;&gt;Node5</title>
<path fill="none" stroke="midnightblue" d="M271.856,-78.5299C298.422,-89.8001 331.616,-103.883 356.378,-114.387"/>
<polygon fill="midnightblue" stroke="midnightblue" points="272.969,-75.2003 262.397,-74.5168 270.236,-81.6444 272.969,-75.2003"/>
</g>
<!-- Node19 -->
<g id="node17" class="node"><title>Node19</title>
<g id="a_node17"><a xlink:href="../../d6/d75/namespacemom__remapping.html#a8b967872b8db2ac7d538991f7f255e56" target="_top" xlink:title="Remaps column of values u0 on grid h0 to implied grid h1 where the interfaces of h1 differ from those...">
<polygon fill="white" stroke="black" points="323,-44.5 323,-74.5 463,-74.5 463,-44.5 323,-44.5"/>
<text text-anchor="start" x="331" y="-62.5" font-family="Helvetica,sans-Serif" font-size="10.00">mom_remapping::remapping</text>
<text text-anchor="middle" x="393" y="-51.5" font-family="Helvetica,sans-Serif" font-size="10.00">_core_w</text>
</a>
</g>
</g>
<!-- Node4&#45;&gt;Node19 -->
<g id="edge16" class="edge"><title>Node4&#45;&gt;Node19</title>
<path fill="none" stroke="midnightblue" d="M297.24,-59.5C305.698,-59.5 314.331,-59.5 322.774,-59.5"/>
<polygon fill="midnightblue" stroke="midnightblue" points="297.036,-56.0001 287.036,-59.5 297.036,-63.0001 297.036,-56.0001"/>
</g>
<!-- Node20 -->
<g id="node18" class="node"><title>Node20</title>
<g id="a_node18"><a xlink:href="../../d6/d75/namespacemom__remapping.html#a8a79c37c89f8b800f79198aceca5f090" target="_top" xlink:title="Runs unit tests on remapping functions. Should only be called from a single/root thread Returns True ...">
<polygon fill="white" stroke="black" points="499,-0.5 499,-30.5 639,-30.5 639,-0.5 499,-0.5"/>
<text text-anchor="start" x="507" y="-18.5" font-family="Helvetica,sans-Serif" font-size="10.00">mom_remapping::remapping</text>
<text text-anchor="middle" x="569" y="-7.5" font-family="Helvetica,sans-Serif" font-size="10.00">_unit_tests</text>
</a>
</g>
</g>
<!-- Node4&#45;&gt;Node20 -->
<g id="edge21" class="edge"><title>Node4&#45;&gt;Node20</title>
<path fill="none" stroke="midnightblue" d="M287.957,-41.8968C299.517,-39.0517 311.571,-36.4158 323,-34.5 381.906,-24.6262 449.656,-19.8695 498.96,-17.586"/>
<polygon fill="midnightblue" stroke="midnightblue" points="286.784,-38.5836 277.953,-44.438 288.507,-45.3681 286.784,-38.5836"/>
</g>
<!-- Node6 -->
<g id="node4" class="node"><title>Node6</title>
<g id="a_node4"><a xlink:href="../../dd/d33/namespacemom__wave__speed.html#a72302e356c47c5055ba0b1a8714c772a" target="_top" xlink:title="Calculates the wave speed of the first baroclinic mode. ">
<polygon fill="white" stroke="black" points="505,-243.5 505,-273.5 633,-273.5 633,-243.5 505,-243.5"/>
<text text-anchor="start" x="513" y="-261.5" font-family="Helvetica,sans-Serif" font-size="10.00">mom_wave_speed::wave</text>
<text text-anchor="middle" x="569" y="-250.5" font-family="Helvetica,sans-Serif" font-size="10.00">_speed</text>
</a>
</g>
</g>
<!-- Node5&#45;&gt;Node6 -->
<g id="edge3" class="edge"><title>Node5&#45;&gt;Node6</title>
<path fill="none" stroke="midnightblue" d="M422.708,-150.783C457.897,-176.872 516.65,-220.43 547.56,-243.346"/>
<polygon fill="midnightblue" stroke="midnightblue" points="424.418,-147.694 414.301,-144.55 420.249,-153.318 424.418,-147.694"/>
</g>
<!-- Node11 -->
<g id="node9" class="node"><title>Node11</title>
<g id="a_node9"><a xlink:href="../../d9/d06/namespacemom__diag__mediator.html#ab5e628e0b8acd96234fab33d0fae2161" target="_top" xlink:title="Remap diagnostic field to z&#45;star vertical grid. ">
<polygon fill="white" stroke="black" points="514,-166.5 514,-196.5 624,-196.5 624,-166.5 514,-166.5"/>
<text text-anchor="start" x="522" y="-184.5" font-family="Helvetica,sans-Serif" font-size="10.00">mom_diag_mediator::</text>
<text text-anchor="middle" x="569" y="-173.5" font-family="Helvetica,sans-Serif" font-size="10.00">remap_diag_to_z</text>
</a>
</g>
</g>
<!-- Node5&#45;&gt;Node11 -->
<g id="edge8" class="edge"><title>Node5&#45;&gt;Node11</title>
<path fill="none" stroke="midnightblue" d="M454.011,-147.434C474.799,-153.647 497.868,-160.541 517.785,-166.493"/>
<polygon fill="midnightblue" stroke="midnightblue" points="454.912,-144.051 444.328,-144.541 452.907,-150.757 454.912,-144.051"/>
</g>
<!-- Node13 -->
<g id="node11" class="node"><title>Node13</title>
<g id="a_node11"><a xlink:href="../../d6/d62/namespacemom__state__initialization.html#a71ee3c056ca59c1c3529a4ec22e09fe3" target="_top" xlink:title="Adjust the layer thicknesses by cutting away the top at the depth where the hydrostatic pressure matc...">
<polygon fill="white" stroke="black" points="508,-114.5 508,-144.5 630,-144.5 630,-114.5 508,-114.5"/>
<text text-anchor="start" x="516" y="-132.5" font-family="Helvetica,sans-Serif" font-size="10.00">mom_state_initialization</text>
<text text-anchor="middle" x="569" y="-121.5" font-family="Helvetica,sans-Serif" font-size="10.00">::cut_off_column_top</text>
</a>
</g>
</g>
<!-- Node5&#45;&gt;Node13 -->
<g id="edge10" class="edge"><title>Node5&#45;&gt;Node13</title>
<path fill="none" stroke="midnightblue" d="M473.17,-129.5C484.801,-129.5 496.62,-129.5 507.786,-129.5"/>
<polygon fill="midnightblue" stroke="midnightblue" points="473.019,-126 463.019,-129.5 473.019,-133 473.019,-126"/>
</g>
<!-- Node17 -->
<g id="node15" class="node"><title>Node17</title>
<g id="a_node15"><a xlink:href="../../de/dd7/namespacemom__ale__sponge.html#a8f6e6db99f860b048a58e97e58c101a6" target="_top" xlink:title="This subroutine applies damping to the layers thicknesses, temp, salt and a variety of tracers for ev...">
<polygon fill="white" stroke="black" points="508,-60.5 508,-90.5 630,-90.5 630,-60.5 508,-60.5"/>
<text text-anchor="start" x="516" y="-78.5" font-family="Helvetica,sans-Serif" font-size="10.00">mom_ale_sponge::apply</text>
<text text-anchor="middle" x="569" y="-67.5" font-family="Helvetica,sans-Serif" font-size="10.00">_ale_sponge</text>
</a>
</g>
</g>
<!-- Node5&#45;&gt;Node17 -->
<g id="edge14" class="edge"><title>Node5&#45;&gt;Node17</title>
<path fill="none" stroke="midnightblue" d="M452.282,-111.413C474.105,-104.64 498.644,-97.0244 519.49,-90.5549"/>
<polygon fill="midnightblue" stroke="midnightblue" points="450.982,-108.151 442.469,-114.458 453.057,-114.837 450.982,-108.151"/>
</g>
<!-- Node7 -->
<g id="node5" class="node"><title>Node7</title>
<g id="a_node5"><a xlink:href="../../d9/d8b/namespacemom__diagnostics.html#abb6644248c28ab2e952361bfec436063" target="_top" xlink:title="mom_diagnostics::calculate\l_diagnostic_fields">
<polygon fill="white" stroke="black" points="675,-298.5 675,-328.5 813,-328.5 813,-298.5 675,-298.5"/>
<text text-anchor="start" x="683" y="-316.5" font-family="Helvetica,sans-Serif" font-size="10.00">mom_diagnostics::calculate</text>
<text text-anchor="middle" x="744" y="-305.5" font-family="Helvetica,sans-Serif" font-size="10.00">_diagnostic_fields</text>
</a>
</g>
</g>
<!-- Node6&#45;&gt;Node7 -->
<g id="edge4" class="edge"><title>Node6&#45;&gt;Node7</title>
<path fill="none" stroke="midnightblue" d="M626.954,-276.607C649.252,-283.696 674.527,-291.731 695.784,-298.489"/>
<polygon fill="midnightblue" stroke="midnightblue" points="627.863,-273.223 617.273,-273.529 625.743,-279.894 627.863,-273.223"/>
</g>
<!-- Node8 -->
<g id="node6" class="node"><title>Node8</title>
<g id="a_node6"><a xlink:href="../../d0/d86/namespacemom__lateral__mixing__coeffs.html#af206bc656869b4fc27d4d7e8a15d438e" target="_top" xlink:title="Calculates and stores the non&#45;dimensional resolution functions. ">
<polygon fill="white" stroke="black" points="692,-238 692,-279 796,-279 796,-238 692,-238"/>
<text text-anchor="start" x="700" y="-267" font-family="Helvetica,sans-Serif" font-size="10.00">mom_lateral_mixing</text>
<text text-anchor="start" x="700" y="-256" font-family="Helvetica,sans-Serif" font-size="10.00">_coeffs::calc_resoln</text>
<text text-anchor="middle" x="744" y="-245" font-family="Helvetica,sans-Serif" font-size="10.00">_function</text>
</a>
</g>
</g>
<!-- Node6&#45;&gt;Node8 -->
<g id="edge5" class="edge"><title>Node6&#45;&gt;Node8</title>
<path fill="none" stroke="midnightblue" d="M643.455,-258.5C659.71,-258.5 676.594,-258.5 691.74,-258.5"/>
<polygon fill="midnightblue" stroke="midnightblue" points="643.437,-255 633.436,-258.5 643.436,-262 643.437,-255"/>
</g>
<!-- Node9 -->
<g id="node7" class="node"><title>Node9</title>
<g id="a_node7"><a xlink:href="../../da/d01/namespacemom.html#a4c8332b095c6d295084089aa6b3b678a" target="_top" xlink:title="This subroutine orchestrates the time stepping of MOM. The adiabatic dynamics are stepped by calls to...">
<polygon fill="white" stroke="black" points="865,-219 865,-238 955,-238 955,-219 865,-219"/>
<text text-anchor="middle" x="910" y="-226" font-family="Helvetica,sans-Serif" font-size="10.00">mom::step_mom</text>
</a>
</g>
</g>
<!-- Node8&#45;&gt;Node9 -->
<g id="edge6" class="edge"><title>Node8&#45;&gt;Node9</title>
<path fill="none" stroke="midnightblue" d="M806.43,-247.263C825.868,-243.707 846.955,-239.85 864.925,-236.563"/>
<polygon fill="midnightblue" stroke="midnightblue" points="805.648,-243.848 796.441,-249.09 806.907,-250.734 805.648,-243.848"/>
</g>
<!-- Node10 -->
<g id="node8" class="node"><title>Node10</title>
<g id="a_node8"><a xlink:href="../../de/dbc/MOM__driver_8F90.html#a08fffeb2d8e8acbf9ed4609be6d258c6" target="_top" xlink:title="mom_main">
<polygon fill="white" stroke="black" points="1007,-135 1007,-154 1072,-154 1072,-135 1007,-135"/>
<text text-anchor="middle" x="1039.5" y="-142" font-family="Helvetica,sans-Serif" font-size="10.00">mom_main</text>
</a>
</g>
</g>
<!-- Node9&#45;&gt;Node10 -->
<g id="edge7" class="edge"><title>Node9&#45;&gt;Node10</title>
<path fill="none" stroke="midnightblue" d="M934.175,-213.231C960.352,-195.986 1002.15,-168.45 1024.04,-154.023"/>
<polygon fill="midnightblue" stroke="midnightblue" points="932.051,-210.44 925.626,-218.864 935.902,-216.285 932.051,-210.44"/>
</g>
<!-- Node12 -->
<g id="node10" class="node"><title>Node12</title>
<g id="a_node10"><a xlink:href="../../d9/d06/namespacemom__diag__mediator.html#adb1030a0216c52dd0d25bd67a5b31868" target="_top" xlink:title="mom_diag_mediator::\lpost_data_3d">
<polygon fill="white" stroke="black" points="689,-188.5 689,-218.5 799,-218.5 799,-188.5 689,-188.5"/>
<text text-anchor="start" x="697" y="-206.5" font-family="Helvetica,sans-Serif" font-size="10.00">mom_diag_mediator::</text>
<text text-anchor="middle" x="744" y="-195.5" font-family="Helvetica,sans-Serif" font-size="10.00">post_data_3d</text>
</a>
</g>
</g>
<!-- Node11&#45;&gt;Node12 -->
<g id="edge9" class="edge"><title>Node11&#45;&gt;Node12</title>
<path fill="none" stroke="midnightblue" d="M634.362,-189.685C652.316,-191.968 671.634,-194.425 688.929,-196.624"/>
<polygon fill="midnightblue" stroke="midnightblue" points="634.625,-186.19 624.264,-188.401 633.742,-193.134 634.625,-186.19"/>
</g>
<!-- Node14 -->
<g id="node12" class="node"><title>Node14</title>
<g id="a_node12"><a xlink:href="../../d6/d62/namespacemom__state__initialization.html#acc1029776c1bdda2862ed0f95c8dc640" target="_top" xlink:title="Adjust the layer thicknesses by cutting away the top of each model column at the depth where the hydr...">
<polygon fill="white" stroke="black" points="683,-139.5 683,-169.5 805,-169.5 805,-139.5 683,-139.5"/>
<text text-anchor="start" x="691" y="-157.5" font-family="Helvetica,sans-Serif" font-size="10.00">mom_state_initialization</text>
<text text-anchor="middle" x="744" y="-146.5" font-family="Helvetica,sans-Serif" font-size="10.00">::trim_for_ice</text>
</a>
</g>
</g>
<!-- Node13&#45;&gt;Node14 -->
<g id="edge11" class="edge"><title>Node13&#45;&gt;Node14</title>
<path fill="none" stroke="midnightblue" d="M640.18,-139.642C654.309,-141.683 669.04,-143.812 682.792,-145.799"/>
<polygon fill="midnightblue" stroke="midnightblue" points="640.419,-136.14 630.021,-138.174 639.418,-143.068 640.419,-136.14"/>
</g>
<!-- Node16 -->
<g id="node14" class="node"><title>Node16</title>
<g id="a_node14"><a xlink:href="../../d6/d62/namespacemom__state__initialization.html#a5c77bf2b0ea9d28e28b661a2a42d3f88" target="_top" xlink:title="Run simple unit tests. ">
<polygon fill="white" stroke="black" points="683,-90.5 683,-120.5 805,-120.5 805,-90.5 683,-90.5"/>
<text text-anchor="start" x="691" y="-108.5" font-family="Helvetica,sans-Serif" font-size="10.00">mom_state_initialization</text>
<text text-anchor="middle" x="744" y="-97.5" font-family="Helvetica,sans-Serif" font-size="10.00">::mom_state_init_tests</text>
</a>
</g>
</g>
<!-- Node13&#45;&gt;Node16 -->
<g id="edge13" class="edge"><title>Node13&#45;&gt;Node16</title>
<path fill="none" stroke="midnightblue" d="M640.18,-119.764C654.309,-117.804 669.04,-115.76 682.792,-113.853"/>
<polygon fill="midnightblue" stroke="midnightblue" points="639.446,-116.332 630.021,-121.173 640.408,-123.266 639.446,-116.332"/>
</g>
<!-- Node15 -->
<g id="node13" class="node"><title>Node15</title>
<g id="a_node13"><a xlink:href="../../d6/d62/namespacemom__state__initialization.html#af4e854627c6572332ba3fd895f169321" target="_top" xlink:title="mom_state_initialization\l::mom_initialize_state">
<polygon fill="white" stroke="black" points="849,-139.5 849,-169.5 971,-169.5 971,-139.5 849,-139.5"/>
<text text-anchor="start" x="857" y="-157.5" font-family="Helvetica,sans-Serif" font-size="10.00">mom_state_initialization</text>
<text text-anchor="middle" x="910" y="-146.5" font-family="Helvetica,sans-Serif" font-size="10.00">::mom_initialize_state</text>
</a>
</g>
</g>
<!-- Node14&#45;&gt;Node15 -->
<g id="edge12" class="edge"><title>Node14&#45;&gt;Node15</title>
<path fill="none" stroke="midnightblue" d="M815.296,-154.5C826.476,-154.5 837.953,-154.5 848.871,-154.5"/>
<polygon fill="midnightblue" stroke="midnightblue" points="815.136,-151 805.136,-154.5 815.136,-158 815.136,-151"/>
</g>
<!-- Node18 -->
<g id="node16" class="node"><title>Node18</title>
<g id="a_node16"><a xlink:href="../../d8/df3/namespacemom__diabatic__driver.html#a61e57d3902367aa46aa3c2d949ee900f" target="_top" xlink:title="This subroutine imposes the diapycnal mass fluxes and the accompanying diapycnal advection of momentu...">
<polygon fill="white" stroke="black" points="690.5,-41.5 690.5,-71.5 797.5,-71.5 797.5,-41.5 690.5,-41.5"/>
<text text-anchor="start" x="698.5" y="-59.5" font-family="Helvetica,sans-Serif" font-size="10.00">mom_diabatic_driver</text>
<text text-anchor="middle" x="744" y="-48.5" font-family="Helvetica,sans-Serif" font-size="10.00">::diabatic</text>
</a>
</g>
</g>
<!-- Node17&#45;&gt;Node18 -->
<g id="edge15" class="edge"><title>Node17&#45;&gt;Node18</title>
<path fill="none" stroke="midnightblue" d="M640.291,-67.7802C656.995,-65.9457 674.535,-64.0193 690.299,-62.288"/>
<polygon fill="midnightblue" stroke="midnightblue" points="639.58,-64.3372 630.021,-68.908 640.344,-71.2953 639.58,-64.3372"/>
</g>
<!-- Node19&#45;&gt;Node20 -->
<g id="edge17" class="edge"><title>Node19&#45;&gt;Node20</title>
<path fill="none" stroke="midnightblue" d="M463.147,-42.0145C478.181,-38.2127 493.959,-34.223 508.578,-30.5262"/>
<polygon fill="midnightblue" stroke="midnightblue" points="462.231,-38.6359 453.394,-44.4808 463.947,-45.4223 462.231,-38.6359"/>
</g>
<!-- Node21 -->
<g id="node19" class="node"><title>Node21</title>
<g id="a_node19"><a xlink:href="../../da/d01/namespacemom.html#ae77cfd2e790f1266b31d93c58659d46c" target="_top" xlink:title="Calls unit tests for other modules. These are NOT normally invoked and so we provide the module use s...">
<polygon fill="white" stroke="black" points="700.5,-3 700.5,-22 787.5,-22 787.5,-3 700.5,-3"/>
<text text-anchor="middle" x="744" y="-10" font-family="Helvetica,sans-Serif" font-size="10.00">mom::unit_tests</text>
</a>
</g>
</g>
<!-- Node20&#45;&gt;Node21 -->
<g id="edge18" class="edge"><title>Node20&#45;&gt;Node21</title>
<path fill="none" stroke="midnightblue" d="M649.589,-14.1199C667.057,-13.8169 684.904,-13.5074 700.255,-13.2412"/>
<polygon fill="midnightblue" stroke="midnightblue" points="649.307,-10.6241 639.369,-14.2971 649.428,-17.6231 649.307,-10.6241"/>
</g>
<!-- Node22 -->
<g id="node20" class="node"><title>Node22</title>
<g id="a_node20"><a xlink:href="../../da/d01/namespacemom.html#a0be2869fef30e1e0604facfe1b41555d" target="_top" xlink:title="This subroutine initializes MOM. ">
<polygon fill="white" stroke="black" points="856.5,-52 856.5,-71 963.5,-71 963.5,-52 856.5,-52"/>
<text text-anchor="middle" x="910" y="-59" font-family="Helvetica,sans-Serif" font-size="10.00">mom::initialize_mom</text>
</a>
</g>
</g>
<!-- Node21&#45;&gt;Node22 -->
<g id="edge19" class="edge"><title>Node21&#45;&gt;Node22</title>
<path fill="none" stroke="midnightblue" d="M789.686,-24.7768C797.47,-26.9749 805.479,-29.2748 813,-31.5 835.269,-38.0891 860.311,-45.9291 879.234,-51.9418"/>
<polygon fill="midnightblue" stroke="midnightblue" points="790.575,-21.3911 780.001,-22.0603 788.685,-28.131 790.575,-21.3911"/>
</g>
<!-- Node22&#45;&gt;Node10 -->
<g id="edge20" class="edge"><title>Node22&#45;&gt;Node10</title>
<path fill="none" stroke="midnightblue" d="M934.126,-76.5547C960.144,-93.492 1001.64,-120.503 1023.65,-134.834"/>
<polygon fill="midnightblue" stroke="midnightblue" points="935.916,-73.5436 925.626,-71.0212 932.097,-79.4101 935.916,-73.5436"/>
</g>
</g>
</svg>
