<?xml version="1.0" encoding="UTF-8" standalone="no"?>
<!DOCTYPE svg PUBLIC "-//W3C//DTD SVG 1.1//EN"
 "http://www.w3.org/Graphics/SVG/1.1/DTD/svg11.dtd">
<!-- Generated by graphviz version 2.38.0 (20140413.2041)
 -->
<!-- Title: mom_sponge::initialize_sponge Pages: 1 -->
<svg width="458pt" height="258pt"
 viewBox="0.00 0.00 458.00 258.00" xmlns="http://www.w3.org/2000/svg" xmlns:xlink="http://www.w3.org/1999/xlink">
<g id="graph0" class="graph" transform="scale(1 1) rotate(0) translate(4 254)">
<title>mom_sponge::initialize_sponge</title>
<polygon fill="white" stroke="none" points="-4,4 -4,-254 454,-254 454,4 -4,4"/>
<!-- Node13 -->
<g id="node1" class="node"><title>Node13</title>
<polygon fill="#bfbfbf" stroke="black" points="0,-110 0,-140 116,-140 116,-110 0,-110"/>
<text text-anchor="start" x="8" y="-128" font-family="Helvetica,sans-Serif" font-size="10.00">mom_sponge::initialize</text>
<text text-anchor="middle" x="58" y="-117" font-family="Helvetica,sans-Serif" font-size="10.00">_sponge</text>
</g>
<!-- Node14 -->
<g id="node2" class="node"><title>Node14</title>
<g id="a_node2"><a xlink:href="../../d8/d30/namespacebfb__initialization.html#a03de1f1af12eab371cc0e4336a749ccf" target="_top" xlink:title="bfb_initialization\l::bfb_initialize_sponges\l_southonly">
<polygon fill="white" stroke="black" points="162.5,-208.5 162.5,-249.5 281.5,-249.5 281.5,-208.5 162.5,-208.5"/>
<text text-anchor="start" x="170.5" y="-237.5" font-family="Helvetica,sans-Serif" font-size="10.00">bfb_initialization</text>
<text text-anchor="start" x="170.5" y="-226.5" font-family="Helvetica,sans-Serif" font-size="10.00">::bfb_initialize_sponges</text>
<text text-anchor="middle" x="222" y="-215.5" font-family="Helvetica,sans-Serif" font-size="10.00">_southonly</text>
</a>
</g>
</g>
<!-- Node13&#45;&gt;Node14 -->
<g id="edge1" class="edge"><title>Node13&#45;&gt;Node14</title>
<path fill="none" stroke="midnightblue" d="M82.8778,-146.902C100.939,-162.725 126.848,-183.885 152,-199 157.486,-202.297 163.4,-205.431 169.377,-208.343"/>
<polygon fill="midnightblue" stroke="midnightblue" points="84.963,-144.073 75.1623,-140.049 80.3142,-149.307 84.963,-144.073"/>
</g>
<!-- Node16 -->
<g id="node4" class="node"><title>Node16</title>
<g id="a_node4"><a xlink:href="../../da/d77/namespacedome2d__initialization.html#ab0df2b602fe1c83baa66ba03cc2c6dd4" target="_top" xlink:title="Set up sponges in 2d DOME configuration. ">
<polygon fill="white" stroke="black" points="152,-159 152,-189 292,-189 292,-159 152,-159"/>
<text text-anchor="start" x="160" y="-177" font-family="Helvetica,sans-Serif" font-size="10.00">dome2d_initialization</text>
<text text-anchor="middle" x="222" y="-166" font-family="Helvetica,sans-Serif" font-size="10.00">::dome2d_initialize_sponges</text>
</a>
</g>
</g>
<!-- Node13&#45;&gt;Node16 -->
<g id="edge3" class="edge"><title>Node13&#45;&gt;Node16</title>
<path fill="none" stroke="midnightblue" d="M118.884,-143.113C136.106,-148.322 154.698,-153.946 171.238,-158.948"/>
<polygon fill="midnightblue" stroke="midnightblue" points="119.512,-139.647 108.927,-140.101 117.486,-146.347 119.512,-139.647"/>
</g>
<!-- Node17 -->
<g id="node5" class="node"><title>Node17</title>
<g id="a_node5"><a xlink:href="../../db/d96/namespacedome__initialization.html#a407c1b2429d1d5abd600d3d3cd35ac38" target="_top" xlink:title="This subroutine sets the inverse restoration time (Idamp), and ! the values towards which the interfa...">
<polygon fill="white" stroke="black" points="157.5,-110 157.5,-140 286.5,-140 286.5,-110 157.5,-110"/>
<text text-anchor="start" x="165.5" y="-128" font-family="Helvetica,sans-Serif" font-size="10.00">dome_initialization</text>
<text text-anchor="middle" x="222" y="-117" font-family="Helvetica,sans-Serif" font-size="10.00">::dome_initialize_sponges</text>
</a>
</g>
</g>
<!-- Node13&#45;&gt;Node17 -->
<g id="edge5" class="edge"><title>Node13&#45;&gt;Node17</title>
<path fill="none" stroke="midnightblue" d="M126.242,-125C136.495,-125 147.05,-125 157.226,-125"/>
<polygon fill="midnightblue" stroke="midnightblue" points="126.115,-121.5 116.115,-125 126.115,-128.5 126.115,-121.5"/>
</g>
<!-- Node18 -->
<g id="node6" class="node"><title>Node18</title>
<g id="a_node6"><a xlink:href="../../d6/d62/namespacemom__state__initialization.html#a99730b61ad00c449a56beff4d9e5ed0a" target="_top" xlink:title="mom_state_initialization\l::initialize_sponges_file">
<polygon fill="white" stroke="black" points="161,-61 161,-91 283,-91 283,-61 161,-61"/>
<text text-anchor="start" x="169" y="-79" font-family="Helvetica,sans-Serif" font-size="10.00">mom_state_initialization</text>
<text text-anchor="middle" x="222" y="-68" font-family="Helvetica,sans-Serif" font-size="10.00">::initialize_sponges_file</text>
</a>
</g>
</g>
<!-- Node13&#45;&gt;Node18 -->
<g id="edge7" class="edge"><title>Node13&#45;&gt;Node18</title>
<path fill="none" stroke="midnightblue" d="M118.884,-106.887C136.106,-101.678 154.698,-96.0543 171.238,-91.0516"/>
<polygon fill="midnightblue" stroke="midnightblue" points="117.486,-103.653 108.927,-109.899 119.512,-110.353 117.486,-103.653"/>
</g>
<!-- Node19 -->
<g id="node7" class="node"><title>Node19</title>
<g id="a_node7"><a xlink:href="../../d8/ddc/namespacephillips__initialization.html#ab288e8ab915b23a2def100493d7ff434" target="_top" xlink:title="Sets up the the inverse restoration time (Idamp), and. ">
<polygon fill="white" stroke="black" points="170.5,-0.5 170.5,-41.5 273.5,-41.5 273.5,-0.5 170.5,-0.5"/>
<text text-anchor="start" x="178.5" y="-29.5" font-family="Helvetica,sans-Serif" font-size="10.00">phillips_initialization</text>
<text text-anchor="start" x="178.5" y="-18.5" font-family="Helvetica,sans-Serif" font-size="10.00">::phillips_initialize</text>
<text text-anchor="middle" x="222" y="-7.5" font-family="Helvetica,sans-Serif" font-size="10.00">_sponges</text>
</a>
</g>
</g>
<!-- Node13&#45;&gt;Node19 -->
<g id="edge9" class="edge"><title>Node13&#45;&gt;Node19</title>
<path fill="none" stroke="midnightblue" d="M83.3124,-103.224C101.409,-87.703 127.173,-67.0132 152,-52 158.068,-48.3304 164.647,-44.8296 171.25,-41.5896"/>
<polygon fill="midnightblue" stroke="midnightblue" points="80.8214,-100.751 75.5681,-109.952 85.4125,-106.035 80.8214,-100.751"/>
</g>
<!-- Node15 -->
<g id="node3" class="node"><title>Node15</title>
<g id="a_node3"><a xlink:href="../../d6/d62/namespacemom__state__initialization.html#af4e854627c6572332ba3fd895f169321" target="_top" xlink:title="mom_state_initialization\l::mom_initialize_state">
<polygon fill="white" stroke="black" points="328,-110 328,-140 450,-140 450,-110 328,-110"/>
<text text-anchor="start" x="336" y="-128" font-family="Helvetica,sans-Serif" font-size="10.00">mom_state_initialization</text>
<text text-anchor="middle" x="389" y="-117" font-family="Helvetica,sans-Serif" font-size="10.00">::mom_initialize_state</text>
</a>
</g>
</g>
<!-- Node14&#45;&gt;Node15 -->
<g id="edge2" class="edge"><title>Node14&#45;&gt;Node15</title>
<path fill="none" stroke="midnightblue" d="M283.286,-203.858C286.267,-202.283 289.188,-200.66 292,-199 321.717,-181.452 352.757,-156.018 371.23,-140.003"/>
<polygon fill="midnightblue" stroke="midnightblue" points="281.56,-200.809 274.207,-208.437 284.712,-207.059 281.56,-200.809"/>
</g>
<!-- Node16&#45;&gt;Node15 -->
<g id="edge4" class="edge"><title>Node16&#45;&gt;Node15</title>
<path fill="none" stroke="midnightblue" d="M283.501,-156.033C301.18,-150.783 320.313,-145.101 337.316,-140.052"/>
<polygon fill="midnightblue" stroke="midnightblue" points="282.442,-152.696 273.852,-158.899 284.434,-159.407 282.442,-152.696"/>
</g>
<!-- Node17&#45;&gt;Node15 -->
<g id="edge6" class="edge"><title>Node17&#45;&gt;Node15</title>
<path fill="none" stroke="midnightblue" d="M297.036,-125C307.362,-125 317.867,-125 327.894,-125"/>
<polygon fill="midnightblue" stroke="midnightblue" points="296.793,-121.5 286.793,-125 296.793,-128.5 296.793,-121.5"/>
</g>
<!-- Node18&#45;&gt;Node15 -->
<g id="edge8" class="edge"><title>Node18&#45;&gt;Node15</title>
<path fill="none" stroke="midnightblue" d="M283.501,-93.967C301.18,-99.217 320.313,-104.899 337.316,-109.948"/>
<polygon fill="midnightblue" stroke="midnightblue" points="284.434,-90.5931 273.852,-91.1014 282.442,-97.3035 284.434,-90.5931"/>
</g>
<!-- Node19&#45;&gt;Node15 -->
<g id="edge10" class="edge"><title>Node19&#45;&gt;Node15</title>
<path fill="none" stroke="midnightblue" d="M281.63,-46.206C285.183,-48.0821 288.666,-50.0187 292,-52 321.159,-69.3283 351.857,-93.9585 370.47,-109.71"/>
<polygon fill="midnightblue" stroke="midnightblue" points="283.199,-43.0777 272.698,-41.6769 280.034,-49.321 283.199,-43.0777"/>
</g>
</g>
</svg>
