<?xml version="1.0" encoding="UTF-8" standalone="no"?>
<!DOCTYPE svg PUBLIC "-//W3C//DTD SVG 1.1//EN"
 "http://www.w3.org/Graphics/SVG/1.1/DTD/svg11.dtd">
<!-- Generated by graphviz version 2.38.0 (20140413.2041)
 -->
<!-- Title: mom_sponge::set_up_sponge_field Pages: 1 -->
<svg width="441pt" height="137pt"
 viewBox="0.00 0.00 441.00 137.00" xmlns="http://www.w3.org/2000/svg" xmlns:xlink="http://www.w3.org/1999/xlink">
<g id="graph0" class="graph" transform="scale(1 1) rotate(0) translate(4 133)">
<title>mom_sponge::set_up_sponge_field</title>
<polygon fill="white" stroke="none" points="-4,4 -4,-133 437,-133 437,4 -4,4"/>
<!-- Node23 -->
<g id="node1" class="node"><title>Node23</title>
<polygon fill="#bfbfbf" stroke="black" points="0,-49.5 0,-79.5 110,-79.5 110,-49.5 0,-49.5"/>
<text text-anchor="start" x="8" y="-67.5" font-family="Helvetica,sans-Serif" font-size="10.00">mom_sponge::set_up</text>
<text text-anchor="middle" x="55" y="-56.5" font-family="Helvetica,sans-Serif" font-size="10.00">_sponge_field</text>
</g>
<!-- Node24 -->
<g id="node2" class="node"><title>Node24</title>
<g id="a_node2"><a xlink:href="../../db/d96/namespacedome__initialization.html#a407c1b2429d1d5abd600d3d3cd35ac38" target="_top" xlink:title="This subroutine sets the inverse restoration time (Idamp), and ! the values towards which the interfa...">
<polygon fill="white" stroke="black" points="146,-98.5 146,-128.5 275,-128.5 275,-98.5 146,-98.5"/>
<text text-anchor="start" x="154" y="-116.5" font-family="Helvetica,sans-Serif" font-size="10.00">dome_initialization</text>
<text text-anchor="middle" x="210.5" y="-105.5" font-family="Helvetica,sans-Serif" font-size="10.00">::dome_initialize_sponges</text>
</a>
</g>
</g>
<!-- Node23&#45;&gt;Node24 -->
<g id="edge1" class="edge"><title>Node23&#45;&gt;Node24</title>
<path fill="none" stroke="midnightblue" d="M113.199,-82.7591C129.39,-87.9273 146.823,-93.4924 162.349,-98.4484"/>
<polygon fill="midnightblue" stroke="midnightblue" points="113.898,-79.3083 103.308,-79.6014 111.77,-85.9767 113.898,-79.3083"/>
</g>
<!-- Node26 -->
<g id="node4" class="node"><title>Node26</title>
<g id="a_node4"><a xlink:href="../../d2/d4c/namespacedome__tracer.html#acbbc86d4dbc4997c0cd55aa498d2c668" target="_top" xlink:title="dome_tracer::initialize\l_dome_tracer">
<polygon fill="white" stroke="black" points="154.5,-49.5 154.5,-79.5 266.5,-79.5 266.5,-49.5 154.5,-49.5"/>
<text text-anchor="start" x="162.5" y="-67.5" font-family="Helvetica,sans-Serif" font-size="10.00">dome_tracer::initialize</text>
<text text-anchor="middle" x="210.5" y="-56.5" font-family="Helvetica,sans-Serif" font-size="10.00">_dome_tracer</text>
</a>
</g>
</g>
<!-- Node23&#45;&gt;Node26 -->
<g id="edge3" class="edge"><title>Node23&#45;&gt;Node26</title>
<path fill="none" stroke="midnightblue" d="M120.354,-64.5C131.644,-64.5 143.302,-64.5 154.315,-64.5"/>
<polygon fill="midnightblue" stroke="midnightblue" points="120.118,-61.0001 110.118,-64.5 120.118,-68.0001 120.118,-61.0001"/>
</g>
<!-- Node27 -->
<g id="node5" class="node"><title>Node27</title>
<g id="a_node5"><a xlink:href="../../df/db5/namespaceuser__tracer__example.html#a16d417b6068f44605caf3573bf5f4de9" target="_top" xlink:title="user_tracer_example\l::user_initialize_tracer">
<polygon fill="white" stroke="black" points="154.5,-0.5 154.5,-30.5 266.5,-30.5 266.5,-0.5 154.5,-0.5"/>
<text text-anchor="start" x="162.5" y="-18.5" font-family="Helvetica,sans-Serif" font-size="10.00">user_tracer_example</text>
<text text-anchor="middle" x="210.5" y="-7.5" font-family="Helvetica,sans-Serif" font-size="10.00">::user_initialize_tracer</text>
</a>
</g>
</g>
<!-- Node23&#45;&gt;Node27 -->
<g id="edge4" class="edge"><title>Node23&#45;&gt;Node27</title>
<path fill="none" stroke="midnightblue" d="M113.199,-46.2409C129.39,-41.0727 146.823,-35.5076 162.349,-30.5516"/>
<polygon fill="midnightblue" stroke="midnightblue" points="111.77,-43.0233 103.308,-49.3986 113.898,-49.6917 111.77,-43.0233"/>
</g>
<!-- Node25 -->
<g id="node3" class="node"><title>Node25</title>
<g id="a_node3"><a xlink:href="../../d6/d62/namespacemom__state__initialization.html#af4e854627c6572332ba3fd895f169321" target="_top" xlink:title="mom_state_initialization\l::mom_initialize_state">
<polygon fill="white" stroke="black" points="311,-98.5 311,-128.5 433,-128.5 433,-98.5 311,-98.5"/>
<text text-anchor="start" x="319" y="-116.5" font-family="Helvetica,sans-Serif" font-size="10.00">mom_state_initialization</text>
<text text-anchor="middle" x="372" y="-105.5" font-family="Helvetica,sans-Serif" font-size="10.00">::mom_initialize_state</text>
</a>
</g>
</g>
<!-- Node24&#45;&gt;Node25 -->
<g id="edge2" class="edge"><title>Node24&#45;&gt;Node25</title>
<path fill="none" stroke="midnightblue" d="M285.695,-113.5C294.144,-113.5 302.677,-113.5 310.911,-113.5"/>
<polygon fill="midnightblue" stroke="midnightblue" points="285.456,-110 275.456,-113.5 285.456,-117 285.456,-110"/>
</g>
</g>
</svg>
