<?xml version="1.0" encoding="UTF-8" standalone="no"?>
<!DOCTYPE svg PUBLIC "-//W3C//DTD SVG 1.1//EN"
 "http://www.w3.org/Graphics/SVG/1.1/DTD/svg11.dtd">
<!-- Generated by graphviz version 2.38.0 (20140413.2041)
 -->
<!-- Title: mom_internal_tides::propagate_int_tide Pages: 1 -->
<!--zoomable 480 -->
<svg id="main" version="1.1" xmlns="http://www.w3.org/2000/svg" xmlns:xlink="http://www.w3.org/1999/xlink" xml:space="preserve" onload="init(evt)">
<style type="text/css"><![CDATA[
.edge:hover path { stroke: red; }
.edge:hover polygon { stroke: red; fill: red; }
]]></style>
<script type="text/javascript"><![CDATA[
var edges = document.getElementsByTagName('g');
if (edges && edges.length) {
  for (var i=0;i<edges.length;i++) {
    if (edges[i].id.substr(0,4)=='edge') {
      edges[i].setAttribute('class','edge');
    }
  }
}
]]></script>
        <defs>
                <circle id="rim" cx="0" cy="0" r="7"/>
                <circle id="rim2" cx="0" cy="0" r="3.5"/>
                <g id="zoomPlus">
                        <use xlink:href="#rim" fill="#404040">
                                <set attributeName="fill" to="#808080" begin="zoomplus.mouseover" end="zoomplus.mouseout"/>
                        </use>
                        <path d="M-4,0h8M0,-4v8" fill="none" stroke="white" stroke-width="1.5" pointer-events="none"/>
                </g>
                <g id="zoomMin">
                        <use xlink:href="#rim" fill="#404040">
                                <set attributeName="fill" to="#808080" begin="zoomminus.mouseover" end="zoomminus.mouseout"/>
                        </use>
                        <path d="M-4,0h8" fill="none" stroke="white" stroke-width="1.5" pointer-events="none"/>
                </g>
                <g id="dirArrow">
                        <path fill="none" stroke="white" stroke-width="1.5" d="M0,-3.0v7 M-2.5,-0.5L0,-3.0L2.5,-0.5"/>
                </g>
               <g id="resetDef">
                       <use xlink:href="#rim2" fill="#404040">
                               <set attributeName="fill" to="#808080" begin="reset.mouseover" end="reset.mouseout"/>
                       </use>
               </g>
        </defs>

<script type="text/javascript">
var viewWidth = 759;
var viewHeight = 480;
var sectionId = 'dynsection-13';
</script>
<script xlink:href="../../svgpan.js"/>
<svg id="graph" class="graph">
<g id="viewport">
<title>mom_internal_tides::propagate_int_tide</title>
<polygon fill="white" stroke="none" points="-4,4 -4,-476 755,-476 755,4 -4,4"/>
<!-- Node59 -->
<g id="node1" class="node"><title>Node59</title>
<polygon fill="#bfbfbf" stroke="black" points="0,-240.5 0,-270.5 102,-270.5 102,-240.5 0,-240.5"/>
<text text-anchor="start" x="8" y="-258.5" font-family="Helvetica,sans-Serif" font-size="10.00">mom_internal_tides</text>
<text text-anchor="middle" x="51" y="-247.5" font-family="Helvetica,sans-Serif" font-size="10.00">::propagate_int_tide</text>
</g>
<!-- Node60 -->
<g id="node2" class="node"><title>Node60</title>
<g id="a_node2"><a xlink:href="../../d1/d95/namespacemom__domains.html#ad6fe013fb609fbb74bfeb66852d26796" target="_top" xlink:title="mom_domains::complete\l_group_pass">
<polygon fill="white" stroke="black" points="138,-431.5 138,-461.5 264,-461.5 264,-431.5 138,-431.5"/>
<text text-anchor="start" x="146" y="-449.5" font-family="Helvetica,sans-Serif" font-size="10.00">mom_domains::complete</text>
<text text-anchor="middle" x="201" y="-438.5" font-family="Helvetica,sans-Serif" font-size="10.00">_group_pass</text>
</a>
</g>
</g>
<!-- Node59&#45;&gt;Node60 -->
<g id="edge1" class="edge"><title>Node59&#45;&gt;Node60</title>
<path fill="none" stroke="midnightblue" d="M55.8486,-270.684C64.7962,-303.038 89.982,-379.33 138,-422.5 139.298,-423.667 140.659,-424.78 142.072,-425.841"/>
<polygon fill="midnightblue" stroke="midnightblue" points="140.335,-428.886 150.635,-431.369 144.131,-423.005 140.335,-428.886"/>
</g>
<!-- Node61 -->
<g id="node3" class="node"><title>Node61</title>
<g id="a_node3"><a xlink:href="../../d6/d34/namespacemom__internal__tides.html#a6643978290bfd9080c1218c338acd605" target="_top" xlink:title="mom_internal_tides\l::correct_halo_rotation">
<polygon fill="white" stroke="black" points="144.5,-382.5 144.5,-412.5 257.5,-412.5 257.5,-382.5 144.5,-382.5"/>
<text text-anchor="start" x="152.5" y="-400.5" font-family="Helvetica,sans-Serif" font-size="10.00">mom_internal_tides</text>
<text text-anchor="middle" x="201" y="-389.5" font-family="Helvetica,sans-Serif" font-size="10.00">::correct_halo_rotation</text>
</a>
</g>
</g>
<!-- Node59&#45;&gt;Node61 -->
<g id="edge2" class="edge"><title>Node59&#45;&gt;Node61</title>
<path fill="none" stroke="midnightblue" d="M59.3875,-270.699C72.1548,-295.498 100.612,-344.772 138,-373.5 139.785,-374.871 141.657,-376.173 143.594,-377.408"/>
<polygon fill="midnightblue" stroke="midnightblue" points="141.995,-380.524 152.422,-382.4 145.44,-374.431 141.995,-380.524"/>
</g>
<!-- Node62 -->
<g id="node4" class="node"><title>Node62</title>
<g id="a_node4"><a xlink:href="../../d6/d34/namespacemom__internal__tides.html#abb26441c0f9e0748f0ad66d22c1d81b0" target="_top" xlink:title="mom_internal_tides\l::itidal_lowmode_loss">
<polygon fill="white" stroke="black" points="146,-333.5 146,-363.5 256,-363.5 256,-333.5 146,-333.5"/>
<text text-anchor="start" x="154" y="-351.5" font-family="Helvetica,sans-Serif" font-size="10.00">mom_internal_tides</text>
<text text-anchor="middle" x="201" y="-340.5" font-family="Helvetica,sans-Serif" font-size="10.00">::itidal_lowmode_loss</text>
</a>
</g>
</g>
<!-- Node59&#45;&gt;Node62 -->
<g id="edge3" class="edge"><title>Node59&#45;&gt;Node62</title>
<path fill="none" stroke="midnightblue" d="M67.7076,-270.597C84.1663,-285.789 111.297,-309.113 138,-324.5 140.85,-326.142 143.834,-327.716 146.887,-329.217"/>
<polygon fill="midnightblue" stroke="midnightblue" points="145.638,-332.495 156.186,-333.494 148.563,-326.136 145.638,-332.495"/>
</g>
<!-- Node63 -->
<g id="node5" class="node"><title>Node63</title>
<g id="a_node5"><a xlink:href="../../d0/de6/namespacemom__error__handler.html#a460cfb79a06c29fc249952c2a3710d67" target="_top" xlink:title="mom_error_handler::\lmom_error">
<polygon fill="white" stroke="black" points="485.5,-294.5 485.5,-324.5 591.5,-324.5 591.5,-294.5 485.5,-294.5"/>
<text text-anchor="start" x="493.5" y="-312.5" font-family="Helvetica,sans-Serif" font-size="10.00">mom_error_handler::</text>
<text text-anchor="middle" x="538.5" y="-301.5" font-family="Helvetica,sans-Serif" font-size="10.00">mom_error</text>
</a>
</g>
</g>
<!-- Node59&#45;&gt;Node63 -->
<g id="edge4" class="edge"><title>Node59&#45;&gt;Node63</title>
<path fill="none" stroke="midnightblue" d="M102.277,-254.035C175.476,-252.827 315.378,-254.016 432,-275.5 442.627,-277.458 464.232,-284.241 485.139,-291.239"/>
<polygon fill="midnightblue" stroke="midnightblue" points="484.059,-294.568 494.654,-294.452 486.3,-287.936 484.059,-294.568"/>
</g>
<!-- Node65 -->
<g id="node7" class="node"><title>Node65</title>
<g id="a_node7"><a xlink:href="../../d6/d34/namespacemom__internal__tides.html#a22caa92b67ed4077ce78eac34d15b14d" target="_top" xlink:title="mom_internal_tides\l::propagate">
<polygon fill="white" stroke="black" points="150.5,-196.5 150.5,-226.5 251.5,-226.5 251.5,-196.5 150.5,-196.5"/>
<text text-anchor="start" x="158.5" y="-214.5" font-family="Helvetica,sans-Serif" font-size="10.00">mom_internal_tides</text>
<text text-anchor="middle" x="201" y="-203.5" font-family="Helvetica,sans-Serif" font-size="10.00">::propagate</text>
</a>
</g>
</g>
<!-- Node59&#45;&gt;Node65 -->
<g id="edge6" class="edge"><title>Node59&#45;&gt;Node65</title>
<path fill="none" stroke="midnightblue" d="M102.106,-240.604C114.536,-236.908 127.973,-232.914 140.792,-229.102"/>
<polygon fill="midnightblue" stroke="midnightblue" points="141.86,-232.436 150.448,-226.232 139.865,-225.727 141.86,-232.436"/>
</g>
<!-- Node76 -->
<g id="node18" class="node"><title>Node76</title>
<g id="a_node18"><a xlink:href="../../d6/d34/namespacemom__internal__tides.html#a1008324f9434f216ded4fbd182cbae28" target="_top" xlink:title="mom_internal_tides\l::refract">
<polygon fill="white" stroke="black" points="150.5,-147.5 150.5,-177.5 251.5,-177.5 251.5,-147.5 150.5,-147.5"/>
<text text-anchor="start" x="158.5" y="-165.5" font-family="Helvetica,sans-Serif" font-size="10.00">mom_internal_tides</text>
<text text-anchor="middle" x="201" y="-154.5" font-family="Helvetica,sans-Serif" font-size="10.00">::refract</text>
</a>
</g>
</g>
<!-- Node59&#45;&gt;Node76 -->
<g id="edge20" class="edge"><title>Node59&#45;&gt;Node76</title>
<path fill="none" stroke="midnightblue" d="M68.1008,-240.437C84.6549,-225.534 111.665,-202.795 138,-187.5 141.403,-185.524 144.992,-183.632 148.658,-181.838"/>
<polygon fill="midnightblue" stroke="midnightblue" points="150.257,-184.955 157.869,-177.585 147.322,-178.6 150.257,-184.955"/>
</g>
<!-- Node78 -->
<g id="node20" class="node"><title>Node78</title>
<g id="a_node20"><a xlink:href="../../d1/d95/namespacemom__domains.html#aee5ecb920463220ac2622e011151f8cd" target="_top" xlink:title="mom_domains::start\l_group_pass">
<polygon fill="white" stroke="black" points="148,-98.5 148,-128.5 254,-128.5 254,-98.5 148,-98.5"/>
<text text-anchor="start" x="156" y="-116.5" font-family="Helvetica,sans-Serif" font-size="10.00">mom_domains::start</text>
<text text-anchor="middle" x="201" y="-105.5" font-family="Helvetica,sans-Serif" font-size="10.00">_group_pass</text>
</a>
</g>
</g>
<!-- Node59&#45;&gt;Node78 -->
<g id="edge22" class="edge"><title>Node59&#45;&gt;Node78</title>
<path fill="none" stroke="midnightblue" d="M59.4657,-240.49C72.3453,-215.988 100.961,-167.253 138,-138.5 140.278,-136.732 142.697,-135.072 145.209,-133.515"/>
<polygon fill="midnightblue" stroke="midnightblue" points="146.994,-136.527 154.038,-128.614 143.596,-130.407 146.994,-136.527"/>
</g>
<!-- Node79 -->
<g id="node21" class="node"><title>Node79</title>
<g id="a_node21"><a xlink:href="../../d6/d34/namespacemom__internal__tides.html#a9e8e7b153aef9049c2217658821e3178" target="_top" xlink:title="mom_internal_tides\l::sum_en">
<polygon fill="white" stroke="black" points="150.5,-49.5 150.5,-79.5 251.5,-79.5 251.5,-49.5 150.5,-49.5"/>
<text text-anchor="start" x="158.5" y="-67.5" font-family="Helvetica,sans-Serif" font-size="10.00">mom_internal_tides</text>
<text text-anchor="middle" x="201" y="-56.5" font-family="Helvetica,sans-Serif" font-size="10.00">::sum_en</text>
</a>
</g>
</g>
<!-- Node59&#45;&gt;Node79 -->
<g id="edge23" class="edge"><title>Node59&#45;&gt;Node79</title>
<path fill="none" stroke="midnightblue" d="M55.8486,-240.316C64.7962,-207.962 89.982,-131.67 138,-88.5 139.298,-87.3328 140.659,-86.2198 142.072,-85.1586"/>
<polygon fill="midnightblue" stroke="midnightblue" points="144.131,-87.995 150.635,-79.6312 140.335,-82.1138 144.131,-87.995"/>
</g>
<!-- Node80 -->
<g id="node22" class="node"><title>Node80</title>
<g id="a_node22"><a xlink:href="../../d4/d7e/namespacemom__wave__structure.html#a6dab6eaab930bb622d4462d5f51f8ab4" target="_top" xlink:title="mom_wave_structure\l::wave_structure">
<polygon fill="white" stroke="black" points="146,-284.5 146,-314.5 256,-314.5 256,-284.5 146,-284.5"/>
<text text-anchor="start" x="154" y="-302.5" font-family="Helvetica,sans-Serif" font-size="10.00">mom_wave_structure</text>
<text text-anchor="middle" x="201" y="-291.5" font-family="Helvetica,sans-Serif" font-size="10.00">::wave_structure</text>
</a>
</g>
</g>
<!-- Node59&#45;&gt;Node80 -->
<g id="edge24" class="edge"><title>Node59&#45;&gt;Node80</title>
<path fill="none" stroke="midnightblue" d="M102.106,-270.396C114.149,-273.977 127.138,-277.838 139.594,-281.542"/>
<polygon fill="midnightblue" stroke="midnightblue" points="138.859,-284.974 149.442,-284.469 140.854,-278.265 138.859,-284.974"/>
</g>
<!-- Node64 -->
<g id="node6" class="node"><title>Node64</title>
<g id="a_node6"><a xlink:href="../../d0/de6/namespacemom__error__handler.html#ad5f00a53059c72fe2332d1436c80ca71" target="_top" xlink:title="mom_error_handler::\lis_root_pe">
<polygon fill="white" stroke="black" points="645,-294.5 645,-324.5 751,-324.5 751,-294.5 645,-294.5"/>
<text text-anchor="start" x="653" y="-312.5" font-family="Helvetica,sans-Serif" font-size="10.00">mom_error_handler::</text>
<text text-anchor="middle" x="698" y="-301.5" font-family="Helvetica,sans-Serif" font-size="10.00">is_root_pe</text>
</a>
</g>
</g>
<!-- Node63&#45;&gt;Node64 -->
<g id="edge5" class="edge"><title>Node63&#45;&gt;Node64</title>
<path fill="none" stroke="midnightblue" d="M591.508,-309.5C605.279,-309.5 620.289,-309.5 634.552,-309.5"/>
<polygon fill="midnightblue" stroke="midnightblue" points="634.778,-313 644.778,-309.5 634.778,-306 634.778,-313"/>
</g>
<!-- Node66 -->
<g id="node8" class="node"><title>Node66</title>
<g id="a_node8"><a xlink:href="../../d6/d34/namespacemom__internal__tides.html#a66c9354cfdcde3d06a2ebe8775572d23" target="_top" xlink:title="mom_internal_tides\l::propagate_corner_spread">
<polygon fill="white" stroke="black" points="300,-196.5 300,-226.5 432,-226.5 432,-196.5 300,-196.5"/>
<text text-anchor="start" x="308" y="-214.5" font-family="Helvetica,sans-Serif" font-size="10.00">mom_internal_tides</text>
<text text-anchor="middle" x="366" y="-203.5" font-family="Helvetica,sans-Serif" font-size="10.00">::propagate_corner_spread</text>
</a>
</g>
</g>
<!-- Node65&#45;&gt;Node66 -->
<g id="edge7" class="edge"><title>Node65&#45;&gt;Node66</title>
<path fill="none" stroke="midnightblue" d="M251.791,-211.5C263.759,-211.5 276.807,-211.5 289.651,-211.5"/>
<polygon fill="midnightblue" stroke="midnightblue" points="289.883,-215 299.883,-211.5 289.883,-208 289.883,-215"/>
</g>
<!-- Node67 -->
<g id="node9" class="node"><title>Node67</title>
<g id="a_node9"><a xlink:href="../../d6/d34/namespacemom__internal__tides.html#a487e6cad7cea4c5095f198c236628d6d" target="_top" xlink:title="mom_internal_tides\l::propagate_x">
<polygon fill="white" stroke="black" points="315.5,-147.5 315.5,-177.5 416.5,-177.5 416.5,-147.5 315.5,-147.5"/>
<text text-anchor="start" x="323.5" y="-165.5" font-family="Helvetica,sans-Serif" font-size="10.00">mom_internal_tides</text>
<text text-anchor="middle" x="366" y="-154.5" font-family="Helvetica,sans-Serif" font-size="10.00">::propagate_x</text>
</a>
</g>
</g>
<!-- Node65&#45;&gt;Node67 -->
<g id="edge8" class="edge"><title>Node65&#45;&gt;Node67</title>
<path fill="none" stroke="midnightblue" d="M251.791,-196.532C268.775,-191.427 287.935,-185.667 305.598,-180.357"/>
<polygon fill="midnightblue" stroke="midnightblue" points="306.664,-183.691 315.233,-177.461 304.649,-176.988 306.664,-183.691"/>
</g>
<!-- Node73 -->
<g id="node15" class="node"><title>Node73</title>
<g id="a_node15"><a xlink:href="../../d6/d34/namespacemom__internal__tides.html#a5f63667c6d87b8ae6d51076ea2942aca" target="_top" xlink:title="mom_internal_tides\l::propagate_y">
<polygon fill="white" stroke="black" points="315.5,-98.5 315.5,-128.5 416.5,-128.5 416.5,-98.5 315.5,-98.5"/>
<text text-anchor="start" x="323.5" y="-116.5" font-family="Helvetica,sans-Serif" font-size="10.00">mom_internal_tides</text>
<text text-anchor="middle" x="366" y="-105.5" font-family="Helvetica,sans-Serif" font-size="10.00">::propagate_y</text>
</a>
</g>
</g>
<!-- Node65&#45;&gt;Node73 -->
<g id="edge14" class="edge"><title>Node65&#45;&gt;Node73</title>
<path fill="none" stroke="midnightblue" d="M249.565,-196.383C254.671,-193.815 259.6,-190.867 264,-187.5 285.46,-171.076 278.523,-154.901 300,-138.5 302.42,-136.652 304.994,-134.925 307.666,-133.314"/>
<polygon fill="midnightblue" stroke="midnightblue" points="309.341,-136.388 316.475,-128.555 306.013,-130.229 309.341,-136.388"/>
</g>
<!-- Node68 -->
<g id="node10" class="node"><title>Node68</title>
<g id="a_node10"><a xlink:href="../../d6/d34/namespacemom__internal__tides.html#afa863318cc960c0be08672731ce6f225" target="_top" xlink:title="mom_internal_tides\l::ppm_reconstruction_x">
<polygon fill="white" stroke="black" points="479,-245.5 479,-275.5 598,-275.5 598,-245.5 479,-245.5"/>
<text text-anchor="start" x="487" y="-263.5" font-family="Helvetica,sans-Serif" font-size="10.00">mom_internal_tides</text>
<text text-anchor="middle" x="538.5" y="-252.5" font-family="Helvetica,sans-Serif" font-size="10.00">::ppm_reconstruction_x</text>
</a>
</g>
</g>
<!-- Node67&#45;&gt;Node68 -->
<g id="edge9" class="edge"><title>Node67&#45;&gt;Node68</title>
<path fill="none" stroke="midnightblue" d="M415.525,-177.555C421.354,-180.387 427.003,-183.684 432,-187.5 453.477,-203.901 446.241,-220.474 468,-236.5 469.879,-237.884 471.844,-239.193 473.873,-240.43"/>
<polygon fill="midnightblue" stroke="midnightblue" points="472.65,-243.746 483.114,-245.407 475.969,-237.583 472.65,-243.746"/>
</g>
<!-- Node70 -->
<g id="node12" class="node"><title>Node70</title>
<g id="a_node12"><a xlink:href="../../d6/d34/namespacemom__internal__tides.html#a11b6fedbef7fd03428f8dfc404252792" target="_top" xlink:title="mom_internal_tides\l::zonal_flux_en">
<polygon fill="white" stroke="black" points="488,-196.5 488,-226.5 589,-226.5 589,-196.5 488,-196.5"/>
<text text-anchor="start" x="496" y="-214.5" font-family="Helvetica,sans-Serif" font-size="10.00">mom_internal_tides</text>
<text text-anchor="middle" x="538.5" y="-203.5" font-family="Helvetica,sans-Serif" font-size="10.00">::zonal_flux_en</text>
</a>
</g>
</g>
<!-- Node67&#45;&gt;Node70 -->
<g id="edge11" class="edge"><title>Node67&#45;&gt;Node70</title>
<path fill="none" stroke="midnightblue" d="M416.774,-176.805C436.033,-182.339 458.232,-188.719 478.301,-194.487"/>
<polygon fill="midnightblue" stroke="midnightblue" points="477.381,-197.864 487.959,-197.262 479.315,-191.136 477.381,-197.864"/>
</g>
<!-- Node71 -->
<g id="node13" class="node"><title>Node71</title>
<g id="a_node13"><a xlink:href="../../d6/d34/namespacemom__internal__tides.html#a6c622bfe3863b8fcea98c78104477491" target="_top" xlink:title="mom_internal_tides\l::reflect">
<polygon fill="white" stroke="black" points="488,-98.5 488,-128.5 589,-128.5 589,-98.5 488,-98.5"/>
<text text-anchor="start" x="496" y="-116.5" font-family="Helvetica,sans-Serif" font-size="10.00">mom_internal_tides</text>
<text text-anchor="middle" x="538.5" y="-105.5" font-family="Helvetica,sans-Serif" font-size="10.00">::reflect</text>
</a>
</g>
</g>
<!-- Node67&#45;&gt;Node71 -->
<g id="edge12" class="edge"><title>Node67&#45;&gt;Node71</title>
<path fill="none" stroke="midnightblue" d="M416.774,-148.195C436.033,-142.661 458.232,-136.281 478.301,-130.513"/>
<polygon fill="midnightblue" stroke="midnightblue" points="479.315,-133.864 487.959,-127.738 477.381,-127.136 479.315,-133.864"/>
</g>
<!-- Node72 -->
<g id="node14" class="node"><title>Node72</title>
<g id="a_node14"><a xlink:href="../../d6/d34/namespacemom__internal__tides.html#a0a20d26531e245a26385d1c056b6a5b6" target="_top" xlink:title="mom_internal_tides\l::teleport">
<polygon fill="white" stroke="black" points="488,-147.5 488,-177.5 589,-177.5 589,-147.5 488,-147.5"/>
<text text-anchor="start" x="496" y="-165.5" font-family="Helvetica,sans-Serif" font-size="10.00">mom_internal_tides</text>
<text text-anchor="middle" x="538.5" y="-154.5" font-family="Helvetica,sans-Serif" font-size="10.00">::teleport</text>
</a>
</g>
</g>
<!-- Node67&#45;&gt;Node72 -->
<g id="edge13" class="edge"><title>Node67&#45;&gt;Node72</title>
<path fill="none" stroke="midnightblue" d="M416.774,-162.5C435.858,-162.5 457.829,-162.5 477.753,-162.5"/>
<polygon fill="midnightblue" stroke="midnightblue" points="477.959,-166 487.959,-162.5 477.959,-159 477.959,-166"/>
</g>
<!-- Node69 -->
<g id="node11" class="node"><title>Node69</title>
<g id="a_node11"><a xlink:href="../../d6/d34/namespacemom__internal__tides.html#a16dd5b071e0fc87eb04c32f602c08aa5" target="_top" xlink:title="mom_internal_tides\l::ppm_limit_pos">
<polygon fill="white" stroke="black" points="647.5,-147.5 647.5,-177.5 748.5,-177.5 748.5,-147.5 647.5,-147.5"/>
<text text-anchor="start" x="655.5" y="-165.5" font-family="Helvetica,sans-Serif" font-size="10.00">mom_internal_tides</text>
<text text-anchor="middle" x="698" y="-154.5" font-family="Helvetica,sans-Serif" font-size="10.00">::ppm_limit_pos</text>
</a>
</g>
</g>
<!-- Node68&#45;&gt;Node69 -->
<g id="edge10" class="edge"><title>Node68&#45;&gt;Node69</title>
<path fill="none" stroke="midnightblue" d="M590.195,-245.455C596.688,-242.821 603.115,-239.837 609,-236.5 633.845,-222.411 658.409,-200.954 675.243,-184.766"/>
<polygon fill="midnightblue" stroke="midnightblue" points="677.715,-187.244 682.407,-177.745 672.816,-182.245 677.715,-187.244"/>
</g>
<!-- Node73&#45;&gt;Node71 -->
<g id="edge18" class="edge"><title>Node73&#45;&gt;Node71</title>
<path fill="none" stroke="midnightblue" d="M416.774,-113.5C435.858,-113.5 457.829,-113.5 477.753,-113.5"/>
<polygon fill="midnightblue" stroke="midnightblue" points="477.959,-117 487.959,-113.5 477.959,-110 477.959,-117"/>
</g>
<!-- Node73&#45;&gt;Node72 -->
<g id="edge19" class="edge"><title>Node73&#45;&gt;Node72</title>
<path fill="none" stroke="midnightblue" d="M416.774,-127.805C436.033,-133.339 458.232,-139.719 478.301,-145.487"/>
<polygon fill="midnightblue" stroke="midnightblue" points="477.381,-148.864 487.959,-148.262 479.315,-142.136 477.381,-148.864"/>
</g>
<!-- Node74 -->
<g id="node16" class="node"><title>Node74</title>
<g id="a_node16"><a xlink:href="../../d6/d34/namespacemom__internal__tides.html#a6c3dc6d74dfd6e5b13d5f710899be278" target="_top" xlink:title="mom_internal_tides\l::ppm_reconstruction_y">
<polygon fill="white" stroke="black" points="479,-49.5 479,-79.5 598,-79.5 598,-49.5 479,-49.5"/>
<text text-anchor="start" x="487" y="-67.5" font-family="Helvetica,sans-Serif" font-size="10.00">mom_internal_tides</text>
<text text-anchor="middle" x="538.5" y="-56.5" font-family="Helvetica,sans-Serif" font-size="10.00">::ppm_reconstruction_y</text>
</a>
</g>
</g>
<!-- Node73&#45;&gt;Node74 -->
<g id="edge15" class="edge"><title>Node73&#45;&gt;Node74</title>
<path fill="none" stroke="midnightblue" d="M416.774,-99.1954C435.189,-93.9032 456.291,-87.8385 475.649,-82.2753"/>
<polygon fill="midnightblue" stroke="midnightblue" points="476.646,-85.6306 485.29,-79.5046 474.712,-78.9029 476.646,-85.6306"/>
</g>
<!-- Node75 -->
<g id="node17" class="node"><title>Node75</title>
<g id="a_node17"><a xlink:href="../../d6/d34/namespacemom__internal__tides.html#a08d375b914ce03bed1b317c9b7371f77" target="_top" xlink:title="mom_internal_tides\l::merid_flux_en">
<polygon fill="white" stroke="black" points="488,-0.5 488,-30.5 589,-30.5 589,-0.5 488,-0.5"/>
<text text-anchor="start" x="496" y="-18.5" font-family="Helvetica,sans-Serif" font-size="10.00">mom_internal_tides</text>
<text text-anchor="middle" x="538.5" y="-7.5" font-family="Helvetica,sans-Serif" font-size="10.00">::merid_flux_en</text>
</a>
</g>
</g>
<!-- Node73&#45;&gt;Node75 -->
<g id="edge17" class="edge"><title>Node73&#45;&gt;Node75</title>
<path fill="none" stroke="midnightblue" d="M415.525,-98.4445C421.354,-95.6128 427.003,-92.3157 432,-88.5 453.477,-72.0991 446.241,-55.5261 468,-39.5 471.353,-37.0302 474.981,-34.8001 478.758,-32.7888"/>
<polygon fill="midnightblue" stroke="midnightblue" points="480.266,-35.9473 487.784,-28.4827 477.252,-29.6294 480.266,-35.9473"/>
</g>
<!-- Node74&#45;&gt;Node69 -->
<g id="edge16" class="edge"><title>Node74&#45;&gt;Node69</title>
<path fill="none" stroke="midnightblue" d="M590.195,-79.5445C596.688,-82.1786 603.115,-85.1628 609,-88.5 633.845,-102.589 658.409,-124.046 675.243,-140.234"/>
<polygon fill="midnightblue" stroke="midnightblue" points="672.816,-142.755 682.407,-147.255 677.715,-137.756 672.816,-142.755"/>
</g>
<!-- Node77 -->
<g id="node19" class="node"><title>Node77</title>
<g id="a_node19"><a xlink:href="../../d6/d34/namespacemom__internal__tides.html#ae34593443ab6362445946e9d75528155" target="_top" xlink:title="mom_internal_tides\l::ppm_angular_advect">
<polygon fill="white" stroke="black" points="309.5,-49.5 309.5,-79.5 422.5,-79.5 422.5,-49.5 309.5,-49.5"/>
<text text-anchor="start" x="317.5" y="-67.5" font-family="Helvetica,sans-Serif" font-size="10.00">mom_internal_tides</text>
<text text-anchor="middle" x="366" y="-56.5" font-family="Helvetica,sans-Serif" font-size="10.00">::ppm_angular_advect</text>
</a>
</g>
</g>
<!-- Node76&#45;&gt;Node77 -->
<g id="edge21" class="edge"><title>Node76&#45;&gt;Node77</title>
<path fill="none" stroke="midnightblue" d="M247.963,-147.387C253.637,-144.554 259.141,-141.272 264,-137.5 285.345,-120.927 278.413,-104.756 300,-88.5 301.835,-87.1183 303.758,-85.8093 305.745,-84.5696"/>
<polygon fill="midnightblue" stroke="midnightblue" points="307.737,-87.4676 314.799,-79.5696 304.353,-81.3399 307.737,-87.4676"/>
</g>
<!-- Node80&#45;&gt;Node63 -->
<g id="edge25" class="edge"><title>Node80&#45;&gt;Node63</title>
<path fill="none" stroke="midnightblue" d="M250.891,-314.525C266.434,-318.61 283.798,-322.466 300,-324.5 359.32,-331.947 427.463,-326.182 475.501,-319.762"/>
<polygon fill="midnightblue" stroke="midnightblue" points="476.011,-323.225 485.437,-318.387 475.051,-316.291 476.011,-323.225"/>
</g>
<!-- Node81 -->
<g id="node23" class="node"><title>Node81</title>
<g id="a_node23"><a xlink:href="../../d1/d01/namespacemom__eos.html#a204529f8434a0322314e6ce2a9762436" target="_top" xlink:title="Calls the appropriate subroutine to calculate density derivatives for 1&#45;D array inputs. ">
<polygon fill="white" stroke="black" points="314,-372.5 314,-402.5 418,-402.5 418,-372.5 314,-372.5"/>
<text text-anchor="start" x="322" y="-390.5" font-family="Helvetica,sans-Serif" font-size="10.00">mom_eos::calculate</text>
<text text-anchor="middle" x="366" y="-379.5" font-family="Helvetica,sans-Serif" font-size="10.00">_density_derivs</text>
</a>
</g>
</g>
<!-- Node80&#45;&gt;Node81 -->
<g id="edge26" class="edge"><title>Node80&#45;&gt;Node81</title>
<path fill="none" stroke="midnightblue" d="M245.349,-314.64C251.792,-317.551 258.208,-320.848 264,-324.5 282.36,-336.078 281.93,-345.475 300,-357.5 305.631,-361.247 311.805,-364.757 318.038,-367.961"/>
<polygon fill="midnightblue" stroke="midnightblue" points="316.634,-371.171 327.153,-372.429 319.714,-364.885 316.634,-371.171"/>
</g>
<!-- Node85 -->
<g id="node27" class="node"><title>Node85</title>
<g id="a_node27"><a xlink:href="../../d4/d7e/namespacemom__wave__structure.html#ad8e6e47af44d24efcd3f3b80f4344fbd" target="_top" xlink:title="mom_wave_structure\l::tridiag_solver">
<polygon fill="white" stroke="black" points="311,-284.5 311,-314.5 421,-314.5 421,-284.5 311,-284.5"/>
<text text-anchor="start" x="319" y="-302.5" font-family="Helvetica,sans-Serif" font-size="10.00">mom_wave_structure</text>
<text text-anchor="middle" x="366" y="-291.5" font-family="Helvetica,sans-Serif" font-size="10.00">::tridiag_solver</text>
</a>
</g>
</g>
<!-- Node80&#45;&gt;Node85 -->
<g id="edge31" class="edge"><title>Node80&#45;&gt;Node85</title>
<path fill="none" stroke="midnightblue" d="M256.277,-299.5C270.573,-299.5 286.133,-299.5 300.894,-299.5"/>
<polygon fill="midnightblue" stroke="midnightblue" points="300.96,-303 310.96,-299.5 300.96,-296 300.96,-303"/>
</g>
<!-- Node81&#45;&gt;Node63 -->
<g id="edge30" class="edge"><title>Node81&#45;&gt;Node63</title>
<path fill="none" stroke="midnightblue" d="M401.841,-372.478C411.725,-367.933 422.404,-362.748 432,-357.5 448.658,-348.39 450.961,-342.877 468,-334.5 472.305,-332.384 476.835,-330.352 481.433,-328.426"/>
<polygon fill="midnightblue" stroke="midnightblue" points="482.936,-331.594 490.917,-324.626 480.333,-325.096 482.936,-331.594"/>
</g>
<!-- Node82 -->
<g id="node24" class="node"><title>Node82</title>
<g id="a_node24"><a xlink:href="../../d5/de6/namespacemom__eos__linear.html#a73d8a625582247379092adf1aeeb55e0" target="_top" xlink:title="mom_eos_linear::calculate\l_density_derivs_linear">
<polygon fill="white" stroke="black" points="472,-441.5 472,-471.5 605,-471.5 605,-441.5 472,-441.5"/>
<text text-anchor="start" x="480" y="-459.5" font-family="Helvetica,sans-Serif" font-size="10.00">mom_eos_linear::calculate</text>
<text text-anchor="middle" x="538.5" y="-448.5" font-family="Helvetica,sans-Serif" font-size="10.00">_density_derivs_linear</text>
</a>
</g>
</g>
<!-- Node81&#45;&gt;Node82 -->
<g id="edge27" class="edge"><title>Node81&#45;&gt;Node82</title>
<path fill="none" stroke="midnightblue" d="M398.994,-402.607C418.709,-411.703 444.608,-423.27 468,-432.5 472.703,-434.356 477.615,-436.212 482.558,-438.024"/>
<polygon fill="midnightblue" stroke="midnightblue" points="481.461,-441.349 492.056,-441.442 483.832,-434.762 481.461,-441.349"/>
</g>
<!-- Node83 -->
<g id="node25" class="node"><title>Node83</title>
<g id="a_node25"><a xlink:href="../../dd/d6b/namespacemom__eos__unesco.html#af8666837abadea54c016bf59838f96cc" target="_top" xlink:title="mom_eos_unesco::calculate\l_density_derivs_unesco">
<polygon fill="white" stroke="black" points="468,-392.5 468,-422.5 609,-422.5 609,-392.5 468,-392.5"/>
<text text-anchor="start" x="476" y="-410.5" font-family="Helvetica,sans-Serif" font-size="10.00">mom_eos_unesco::calculate</text>
<text text-anchor="middle" x="538.5" y="-399.5" font-family="Helvetica,sans-Serif" font-size="10.00">_density_derivs_unesco</text>
</a>
</g>
</g>
<!-- Node81&#45;&gt;Node83 -->
<g id="edge28" class="edge"><title>Node81&#45;&gt;Node83</title>
<path fill="none" stroke="midnightblue" d="M418.156,-393.501C430.584,-394.959 444.17,-396.552 457.579,-398.125"/>
<polygon fill="midnightblue" stroke="midnightblue" points="457.437,-401.632 467.776,-399.321 458.252,-394.68 457.437,-401.632"/>
</g>
<!-- Node84 -->
<g id="node26" class="node"><title>Node84</title>
<g id="a_node26"><a xlink:href="../../de/d76/namespacemom__eos__wright.html#ad7748e85ddacb33ad90ec3a9017e6e72" target="_top" xlink:title="mom_eos_wright::calculate\l_density_derivs_wright">
<polygon fill="white" stroke="black" points="470.5,-343.5 470.5,-373.5 606.5,-373.5 606.5,-343.5 470.5,-343.5"/>
<text text-anchor="start" x="478.5" y="-361.5" font-family="Helvetica,sans-Serif" font-size="10.00">mom_eos_wright::calculate</text>
<text text-anchor="middle" x="538.5" y="-350.5" font-family="Helvetica,sans-Serif" font-size="10.00">_density_derivs_wright</text>
</a>
</g>
</g>
<!-- Node81&#45;&gt;Node84 -->
<g id="edge29" class="edge"><title>Node81&#45;&gt;Node84</title>
<path fill="none" stroke="midnightblue" d="M418.156,-378.799C431.337,-376.557 445.821,-374.094 460.015,-371.679"/>
<polygon fill="midnightblue" stroke="midnightblue" points="461.005,-375.061 470.276,-369.934 459.831,-368.16 461.005,-375.061"/>
</g>
<!-- Node85&#45;&gt;Node63 -->
<g id="edge32" class="edge"><title>Node85&#45;&gt;Node63</title>
<path fill="none" stroke="midnightblue" d="M421.416,-302.692C438.524,-303.695 457.547,-304.811 475.161,-305.844"/>
<polygon fill="midnightblue" stroke="midnightblue" points="475.156,-309.349 485.344,-306.441 475.566,-302.361 475.156,-309.349"/>
</g>
</g>
</svg>
        <g id="navigator" transform="translate(0 0)" fill="#404254">
                <rect fill="#f2f5e9" fill-opacity="0.5" stroke="#606060" stroke-width=".5" x="0" y="0" width="60" height="60"/>
                <use id="zoomplus" xlink:href="#zoomPlus" x="17" y="9" onmousedown="handleZoom(evt,'in')"/>
                <use id="zoomminus" xlink:href="#zoomMin" x="42" y="9" onmousedown="handleZoom(evt,'out')"/>
                <use id="reset" xlink:href="#resetDef" x="30" y="36" onmousedown="handleReset()"/>
                <g id="arrowUp" xlink:href="#dirArrow" transform="translate(30 24)" onmousedown="handlePan(0,-1)">
                  <use xlink:href="#rim" fill="#404040">
                        <set attributeName="fill" to="#808080" begin="arrowUp.mouseover" end="arrowUp.mouseout"/>
                  </use>
                  <path fill="none" stroke="white" stroke-width="1.5" d="M0,-3.0v7 M-2.5,-0.5L0,-3.0L2.5,-0.5"/>
                </g>
                <g id="arrowRight" xlink:href="#dirArrow" transform="rotate(90) translate(36 -43)" onmousedown="handlePan(1,0)">
                  <use xlink:href="#rim" fill="#404040">
                        <set attributeName="fill" to="#808080" begin="arrowRight.mouseover" end="arrowRight.mouseout"/>
                  </use>
                  <path fill="none" stroke="white" stroke-width="1.5" d="M0,-3.0v7 M-2.5,-0.5L0,-3.0L2.5,-0.5"/>
                </g>
                <g id="arrowDown" xlink:href="#dirArrow" transform="rotate(180) translate(-30 -48)" onmousedown="handlePan(0,1)">
                  <use xlink:href="#rim" fill="#404040">
                        <set attributeName="fill" to="#808080" begin="arrowDown.mouseover" end="arrowDown.mouseout"/>
                  </use>
                  <path fill="none" stroke="white" stroke-width="1.5" d="M0,-3.0v7 M-2.5,-0.5L0,-3.0L2.5,-0.5"/>
                </g>
                <g id="arrowLeft" xlink:href="#dirArrow" transform="rotate(270) translate(-36 17)" onmousedown="handlePan(-1,0)">
                  <use xlink:href="#rim" fill="#404040">
                        <set attributeName="fill" to="#808080" begin="arrowLeft.mouseover" end="arrowLeft.mouseout"/>
                  </use>
                  <path fill="none" stroke="white" stroke-width="1.5" d="M0,-3.0v7 M-2.5,-0.5L0,-3.0L2.5,-0.5"/>
                </g>
        </g>
        <svg viewBox="0 0 15 15" width="100%" height="30px" preserveAspectRatio="xMaxYMin meet">
         <g id="arrow_out" transform="scale(0.3 0.3)">
          <a xlink:href="namespacemom__internal__tides_a6cae26da43d0539e8ac959105cf125c2_cgraph_org.svg" target="_base">
           <rect id="button" ry="5" rx="5" y="6" x="6" height="38" width="38"
                fill="#f2f5e9" fill-opacity="0.5" stroke="#606060" stroke-width="1.0"/>
           <path id="arrow"
             d="M 11.500037,31.436501 C 11.940474,20.09759 22.043105,11.32322 32.158766,21.979434 L 37.068811,17.246167 C 37.068811,17.246167 37.088388,32 37.088388,32 L 22.160133,31.978069 C 22.160133,31.978069 26.997745,27.140456 26.997745,27.140456 C 18.528582,18.264221 13.291696,25.230495 11.500037,31.436501 z"
             style="fill:#404040;"/>
          </a>
         </g>
        </svg>
</svg>
