<?xml version="1.0" encoding="UTF-8" standalone="no"?>
<!DOCTYPE svg PUBLIC "-//W3C//DTD SVG 1.1//EN"
 "http://www.w3.org/Graphics/SVG/1.1/DTD/svg11.dtd">
<!-- Generated by graphviz version 2.38.0 (20140413.2041)
 -->
<!-- Title: ocean_model_mod::ocean_public_type Pages: 1 -->
<svg width="467pt" height="263pt"
 viewBox="0.00 0.00 467.00 263.00" xmlns="http://www.w3.org/2000/svg" xmlns:xlink="http://www.w3.org/1999/xlink">
<g id="graph0" class="graph" transform="scale(1 1) rotate(0) translate(4 259)">
<title>ocean_model_mod::ocean_public_type</title>
<polygon fill="white" stroke="none" points="-4,4 -4,-259 463,-259 463,4 -4,4"/>
<!-- Node1 -->
<g id="node1" class="node"><title>Node1</title>
<polygon fill="#bfbfbf" stroke="black" points="192.5,-0.5 192.5,-30.5 303.5,-30.5 303.5,-0.5 192.5,-0.5"/>
<text text-anchor="start" x="200.5" y="-18.5" font-family="Helvetica,sans-Serif" font-size="10.00">ocean_model_mod::ocean</text>
<text text-anchor="middle" x="248" y="-7.5" font-family="Helvetica,sans-Serif" font-size="10.00">_public_type</text>
</g>
<!-- Node2 -->
<g id="node2" class="node"><title>Node2</title>
<polygon fill="white" stroke="#bfbfbf" points="0,-156.5 0,-175.5 38,-175.5 38,-156.5 0,-156.5"/>
<text text-anchor="middle" x="19" y="-163.5" font-family="Helvetica,sans-Serif" font-size="10.00">logical</text>
</g>
<!-- Node2&#45;&gt;Node1 -->
<g id="edge1" class="edge"><title>Node2&#45;&gt;Node1</title>
<path fill="none" stroke="#9a32cd" stroke-dasharray="5,2" d="M12.6092,-146.642C5.10094,-121.368 -3.56931,-75.9318 20,-49 41.9871,-23.8762 132.314,-17.7006 192.462,-16.4433"/>
<polygon fill="#9a32cd" stroke="#9a32cd" points="9.35922,-147.969 15.7579,-156.413 16.0218,-145.821 9.35922,-147.969"/>
<text text-anchor="middle" x="43" y="-90.5" font-family="Helvetica,sans-Serif" font-size="10.00"> maskmap</text>
<text text-anchor="middle" x="43" y="-79.5" font-family="Helvetica,sans-Serif" font-size="10.00">is_ocean_pe</text>
</g>
<!-- Node3 -->
<g id="node3" class="node"><title>Node3</title>
<g id="a_node3"><a xlink:href="../../de/d6a/structcoupler__types__mod_1_1coupler__2d__bc__type.html" target="_top" xlink:title="coupler_types_mod::\lcoupler_2d_bc_type">
<polygon fill="white" stroke="black" points="135.5,-151 135.5,-181 226.5,-181 226.5,-151 135.5,-151"/>
<text text-anchor="start" x="143.5" y="-169" font-family="Helvetica,sans-Serif" font-size="10.00">coupler_types_mod::</text>
<text text-anchor="middle" x="181" y="-158" font-family="Helvetica,sans-Serif" font-size="10.00">coupler_2d_bc_type</text>
</a>
</g>
</g>
<!-- Node3&#45;&gt;Node1 -->
<g id="edge2" class="edge"><title>Node3&#45;&gt;Node1</title>
<path fill="none" stroke="#9a32cd" stroke-dasharray="5,2" d="M189.747,-141.212C198.733,-117.463 213.554,-80.1213 229,-49 232.08,-42.7943 235.867,-36.1556 239.247,-30.5065"/>
<polygon fill="#9a32cd" stroke="#9a32cd" points="186.386,-140.205 186.158,-150.797 192.942,-142.659 186.386,-140.205"/>
<text text-anchor="middle" x="239.5" y="-85" font-family="Helvetica,sans-Serif" font-size="10.00"> fields</text>
</g>
<!-- Node4 -->
<g id="node4" class="node"><title>Node4</title>
<polygon fill="white" stroke="#bfbfbf" points="92.5,-235.5 92.5,-254.5 133.5,-254.5 133.5,-235.5 92.5,-235.5"/>
<text text-anchor="middle" x="113" y="-242.5" font-family="Helvetica,sans-Serif" font-size="10.00">integer</text>
</g>
<!-- Node4&#45;&gt;Node1 -->
<g id="edge7" class="edge"><title>Node4&#45;&gt;Node1</title>
<path fill="none" stroke="#9a32cd" stroke-dasharray="5,2" d="M102.262,-226.574C91.135,-206.135 76.933,-171.546 89,-144 113.491,-88.0932 177.17,-49.6389 216.104,-30.5013"/>
<polygon fill="#9a32cd" stroke="#9a32cd" points="99.3156,-228.47 107.349,-235.378 105.377,-224.968 99.3156,-228.47"/>
<text text-anchor="middle" x="107.5" y="-180" font-family="Helvetica,sans-Serif" font-size="10.00"> axes</text>
<text text-anchor="middle" x="107.5" y="-169" font-family="Helvetica,sans-Serif" font-size="10.00">pelist</text>
<text text-anchor="middle" x="107.5" y="-158" font-family="Helvetica,sans-Serif" font-size="10.00">avg_kount</text>
<text text-anchor="middle" x="107.5" y="-147" font-family="Helvetica,sans-Serif" font-size="10.00">stagger</text>
</g>
<!-- Node4&#45;&gt;Node3 -->
<g id="edge3" class="edge"><title>Node4&#45;&gt;Node3</title>
<path fill="none" stroke="#9a32cd" stroke-dasharray="5,2" d="M127.387,-227.709C139.611,-213.867 156.976,-194.204 168.597,-181.045"/>
<polygon fill="#9a32cd" stroke="#9a32cd" points="124.533,-225.653 120.537,-235.465 129.78,-230.287 124.533,-225.653"/>
<text text-anchor="middle" x="162.5" y="-209" font-family="Helvetica,sans-Serif" font-size="10.00"> num_bcs</text>
</g>
<!-- Node5 -->
<g id="node5" class="node"><title>Node5</title>
<polygon fill="white" stroke="#bfbfbf" points="245,-156.5 245,-175.5 297,-175.5 297,-156.5 245,-156.5"/>
<text text-anchor="middle" x="271" y="-163.5" font-family="Helvetica,sans-Serif" font-size="10.00">domain2d</text>
</g>
<!-- Node5&#45;&gt;Node1 -->
<g id="edge4" class="edge"><title>Node5&#45;&gt;Node1</title>
<path fill="none" stroke="#9a32cd" stroke-dasharray="5,2" d="M268.078,-146.132C263.422,-116.073 254.421,-57.9583 250.238,-30.9499"/>
<polygon fill="#9a32cd" stroke="#9a32cd" points="264.641,-146.809 269.63,-156.155 271.558,-145.737 264.641,-146.809"/>
<text text-anchor="middle" x="279.5" y="-85" font-family="Helvetica,sans-Serif" font-size="10.00"> domain</text>
</g>
<!-- Node6 -->
<g id="node6" class="node"><title>Node6</title>
<polygon fill="white" stroke="#bfbfbf" points="315,-156.5 315,-175.5 395,-175.5 395,-156.5 315,-156.5"/>
<text text-anchor="middle" x="355" y="-163.5" font-family="Helvetica,sans-Serif" font-size="10.00">character(len=32)</text>
</g>
<!-- Node6&#45;&gt;Node1 -->
<g id="edge5" class="edge"><title>Node6&#45;&gt;Node1</title>
<path fill="none" stroke="#9a32cd" stroke-dasharray="5,2" d="M349.342,-146.405C341.159,-121.882 324.082,-78.406 298,-49 291.68,-41.8742 283.444,-35.6727 275.487,-30.6515"/>
<polygon fill="#9a32cd" stroke="#9a32cd" points="346.1,-147.758 352.476,-156.22 352.768,-145.629 346.1,-147.758"/>
<text text-anchor="middle" x="370.5" y="-85" font-family="Helvetica,sans-Serif" font-size="10.00"> instance_name</text>
</g>
<!-- Node7 -->
<g id="node7" class="node"><title>Node7</title>
<polygon fill="white" stroke="#bfbfbf" points="416,-156.5 416,-175.5 446,-175.5 446,-156.5 416,-156.5"/>
<text text-anchor="middle" x="431" y="-163.5" font-family="Helvetica,sans-Serif" font-size="10.00">real</text>
</g>
<!-- Node7&#45;&gt;Node1 -->
<g id="edge6" class="edge"><title>Node7&#45;&gt;Node1</title>
<path fill="none" stroke="#9a32cd" stroke-dasharray="5,2" d="M432.166,-145.932C432.624,-120.165 429.303,-74.5218 403,-49 388.891,-35.3103 342.18,-26.7737 303.692,-21.9048"/>
<polygon fill="#9a32cd" stroke="#9a32cd" points="428.657,-146.098 431.758,-156.229 435.651,-146.375 428.657,-146.098"/>
<text text-anchor="middle" x="445" y="-118" font-family="Helvetica,sans-Serif" font-size="10.00"> v_surf</text>
<text text-anchor="middle" x="445" y="-107" font-family="Helvetica,sans-Serif" font-size="10.00">u_surf</text>
<text text-anchor="middle" x="445" y="-96" font-family="Helvetica,sans-Serif" font-size="10.00">t_surf</text>
<text text-anchor="middle" x="445" y="-85" font-family="Helvetica,sans-Serif" font-size="10.00">s_surf</text>
<text text-anchor="middle" x="445" y="-74" font-family="Helvetica,sans-Serif" font-size="10.00">frazil</text>
<text text-anchor="middle" x="445" y="-63" font-family="Helvetica,sans-Serif" font-size="10.00">area</text>
<text text-anchor="middle" x="445" y="-52" font-family="Helvetica,sans-Serif" font-size="10.00">sea_lev</text>
</g>
</g>
</svg>
