<?xml version="1.0" encoding="UTF-8" standalone="no"?>
<!DOCTYPE svg PUBLIC "-//W3C//DTD SVG 1.1//EN"
 "http://www.w3.org/Graphics/SVG/1.1/DTD/svg11.dtd">
<!-- Generated by graphviz version 2.38.0 (20140413.2041)
 -->
<!-- Title: mom_dynamics_unsplit_rk2::initialize_dyn_unsplit_rk2 Pages: 1 -->
<svg width="946pt" height="1174pt"
 viewBox="0.00 0.00 946.00 1173.64" xmlns="http://www.w3.org/2000/svg" xmlns:xlink="http://www.w3.org/1999/xlink">
<g id="graph0" class="graph" transform="scale(1 1) rotate(0) translate(4 1169.64)">
<title>mom_dynamics_unsplit_rk2::initialize_dyn_unsplit_rk2</title>
<polygon fill="white" stroke="none" points="-4,4 -4,-1169.64 942,-1169.64 942,4 -4,4"/>
<!-- Node2 -->
<g id="node1" class="node"><title>Node2</title>
<polygon fill="#bfbfbf" stroke="black" points="0,-322 0,-363 99,-363 99,-322 0,-322"/>
<text text-anchor="start" x="8" y="-351" font-family="Helvetica,sans-Serif" font-size="10.00">mom_dynamics_unsplit</text>
<text text-anchor="start" x="8" y="-340" font-family="Helvetica,sans-Serif" font-size="10.00">_rk2::initialize_dyn</text>
<text text-anchor="middle" x="49.5" y="-329" font-family="Helvetica,sans-Serif" font-size="10.00">_unsplit_rk2</text>
</g>
<!-- Node3 -->
<g id="node2" class="node"><title>Node3</title>
<g id="a_node2"><a xlink:href="../../dd/da4/namespacemom__continuity.html#aa08c4a80c95080ec4649e366f5bd3ae8" target="_top" xlink:title="mom_continuity::continuity_init">
<polygon fill="white" stroke="black" points="138.5,-717 138.5,-736 262.5,-736 262.5,-717 138.5,-717"/>
<text text-anchor="middle" x="200.5" y="-724" font-family="Helvetica,sans-Serif" font-size="10.00">mom_continuity::continuity_init</text>
</a>
</g>
</g>
<!-- Node2&#45;&gt;Node3 -->
<g id="edge1" class="edge"><title>Node2&#45;&gt;Node3</title>
<path fill="none" stroke="midnightblue" d="M57.3582,-363.29C71.1576,-404.753 103.644,-500.534 135,-579.5 153.514,-626.125 177.881,-679.86 190.717,-707.654"/>
<polygon fill="midnightblue" stroke="midnightblue" points="187.654,-709.368 195.036,-716.968 194.004,-706.423 187.654,-709.368"/>
</g>
<!-- Node9 -->
<g id="node8" class="node"><title>Node9</title>
<g id="a_node8"><a xlink:href="../../d8/dd2/namespacemom__coriolisadv.html#ad3ce07f23ce7b484a5a9e0c0abe8b1cd" target="_top" xlink:title="mom_coriolisadv::coriolisadv_init">
<polygon fill="white" stroke="black" points="135,-551 135,-570 266,-570 266,-551 135,-551"/>
<text text-anchor="middle" x="200.5" y="-558" font-family="Helvetica,sans-Serif" font-size="10.00">mom_coriolisadv::coriolisadv_init</text>
</a>
</g>
</g>
<!-- Node2&#45;&gt;Node9 -->
<g id="edge9" class="edge"><title>Node2&#45;&gt;Node9</title>
<path fill="none" stroke="midnightblue" d="M64.5176,-363.009C93.5519,-405.489 159.84,-502.474 187.269,-542.605"/>
<polygon fill="midnightblue" stroke="midnightblue" points="184.403,-544.615 192.936,-550.896 190.182,-540.665 184.403,-544.615"/>
</g>
<!-- Node25 -->
<g id="node24" class="node"><title>Node25</title>
<g id="a_node24"><a xlink:href="../../d6/dad/namespacemom__verticalgrid.html#af027c312e660a932b3f430f4c7a9675d" target="_top" xlink:title="Returns the model&#39;s thickness flux units, usually m^3/s or kg/s. ">
<polygon fill="white" stroke="black" points="154,-371.5 154,-401.5 247,-401.5 247,-371.5 154,-371.5"/>
<text text-anchor="start" x="162" y="-389.5" font-family="Helvetica,sans-Serif" font-size="10.00">mom_verticalgrid::get</text>
<text text-anchor="middle" x="200.5" y="-378.5" font-family="Helvetica,sans-Serif" font-size="10.00">_flux_units</text>
</a>
</g>
</g>
<!-- Node2&#45;&gt;Node25 -->
<g id="edge34" class="edge"><title>Node2&#45;&gt;Node25</title>
<path fill="none" stroke="midnightblue" d="M99.2882,-356.907C113.563,-361.123 129.273,-365.762 143.935,-370.091"/>
<polygon fill="midnightblue" stroke="midnightblue" points="143.305,-373.555 153.887,-373.03 145.288,-366.842 143.305,-373.555"/>
</g>
<!-- Node26 -->
<g id="node25" class="node"><title>Node26</title>
<g id="a_node25"><a xlink:href="../../df/d8e/namespacemom__hor__visc.html#a15121289da182e9ecb4561f10de335a5" target="_top" xlink:title="mom_hor_visc::hor_visc_init">
<polygon fill="white" stroke="black" points="433,-50 433,-69 549,-69 549,-50 433,-50"/>
<text text-anchor="middle" x="491" y="-57" font-family="Helvetica,sans-Serif" font-size="10.00">mom_hor_visc::hor_visc_init</text>
</a>
</g>
</g>
<!-- Node2&#45;&gt;Node26 -->
<g id="edge35" class="edge"><title>Node2&#45;&gt;Node26</title>
<path fill="none" stroke="midnightblue" d="M63.2585,-321.859C95.8329,-271.192 187.632,-140.667 302,-83.5 339.125,-64.9427 385.309,-58.8462 422.611,-57.4362"/>
<polygon fill="midnightblue" stroke="midnightblue" points="422.98,-60.9275 432.881,-57.1563 422.79,-53.9301 422.98,-60.9275"/>
</g>
<!-- Node27 -->
<g id="node26" class="node"><title>Node27</title>
<g id="a_node26"><a xlink:href="../../d6/d5c/namespacemom__pressureforce.html#ab0d856d60f21ad22c3c99f65af8daa92" target="_top" xlink:title="mom_pressureforce::\lpressureforce_init">
<polygon fill="white" stroke="black" points="303,-251.5 303,-281.5 396,-281.5 396,-251.5 303,-251.5"/>
<text text-anchor="start" x="311" y="-269.5" font-family="Helvetica,sans-Serif" font-size="10.00">mom_pressureforce::</text>
<text text-anchor="middle" x="349.5" y="-258.5" font-family="Helvetica,sans-Serif" font-size="10.00">pressureforce_init</text>
</a>
</g>
</g>
<!-- Node2&#45;&gt;Node27 -->
<g id="edge38" class="edge"><title>Node2&#45;&gt;Node27</title>
<path fill="none" stroke="midnightblue" d="M99.0421,-330.12C152.252,-316.55 237.455,-294.82 293.204,-280.602"/>
<polygon fill="midnightblue" stroke="midnightblue" points="294.088,-283.989 302.913,-278.126 292.358,-277.206 294.088,-283.989"/>
</g>
<!-- Node30 -->
<g id="node29" class="node"><title>Node30</title>
<g id="a_node29"><a xlink:href="../../d5/daa/namespacemom__tidal__forcing.html#aee336a2affeebc78b75845bc6f78a320" target="_top" xlink:title="mom_tidal_forcing::\ltidal_forcing_init">
<polygon fill="white" stroke="black" points="448,-339.5 448,-369.5 534,-369.5 534,-339.5 448,-339.5"/>
<text text-anchor="start" x="456" y="-357.5" font-family="Helvetica,sans-Serif" font-size="10.00">mom_tidal_forcing::</text>
<text text-anchor="middle" x="491" y="-346.5" font-family="Helvetica,sans-Serif" font-size="10.00">tidal_forcing_init</text>
</a>
</g>
</g>
<!-- Node2&#45;&gt;Node30 -->
<g id="edge47" class="edge"><title>Node2&#45;&gt;Node30</title>
<path fill="none" stroke="midnightblue" d="M99.2134,-343.83C182.649,-346.108 352.176,-350.737 437.888,-353.077"/>
<polygon fill="midnightblue" stroke="midnightblue" points="437.822,-356.577 447.913,-353.351 438.013,-349.579 437.822,-356.577"/>
</g>
<!-- Node32 -->
<g id="node31" class="node"><title>Node32</title>
<g id="a_node31"><a xlink:href="../../d9/dcb/namespacemom__vert__friction.html#a02be81324ab60dcbcf3c1ecf3aa0da17" target="_top" xlink:title="Initialise the vertical friction module. ">
<polygon fill="white" stroke="black" points="158,-0.5 158,-30.5 243,-30.5 243,-0.5 158,-0.5"/>
<text text-anchor="start" x="166" y="-18.5" font-family="Helvetica,sans-Serif" font-size="10.00">mom_vert_friction::</text>
<text text-anchor="middle" x="200.5" y="-7.5" font-family="Helvetica,sans-Serif" font-size="10.00">vertvisc_init</text>
</a>
</g>
</g>
<!-- Node2&#45;&gt;Node32 -->
<g id="edge52" class="edge"><title>Node2&#45;&gt;Node32</title>
<path fill="none" stroke="midnightblue" d="M50.7321,-321.789C52.3947,-269.263 63.6723,-129.106 135,-45.5 138.903,-40.9257 143.654,-37.0062 148.789,-33.6579"/>
<polygon fill="midnightblue" stroke="midnightblue" points="150.775,-36.554 157.714,-28.5474 147.297,-30.4795 150.775,-36.554"/>
</g>
<!-- Node4 -->
<g id="node3" class="node"><title>Node4</title>
<g id="a_node3"><a xlink:href="../../d9/def/namespacemom__file__parser.html#a17c0ef1bb1912f02faa0aaa1e0f64210" target="_top" xlink:title="mom_file_parser::log\l_version">
<polygon fill="white" stroke="black" points="586.5,-158.5 586.5,-188.5 678.5,-188.5 678.5,-158.5 586.5,-158.5"/>
<text text-anchor="start" x="594.5" y="-176.5" font-family="Helvetica,sans-Serif" font-size="10.00">mom_file_parser::log</text>
<text text-anchor="middle" x="632.5" y="-165.5" font-family="Helvetica,sans-Serif" font-size="10.00">_version</text>
</a>
</g>
</g>
<!-- Node3&#45;&gt;Node4 -->
<g id="edge2" class="edge"><title>Node3&#45;&gt;Node4</title>
<path fill="none" stroke="midnightblue" d="M206.969,-716.9C219.74,-693.978 251.538,-633.907 266,-579.5 285.404,-506.499 260.701,-304.746 302,-241.5 359.306,-153.74 498.168,-155.6 576.097,-164.561"/>
<polygon fill="midnightblue" stroke="midnightblue" points="575.86,-168.058 586.212,-165.804 576.713,-161.111 575.86,-168.058"/>
</g>
<!-- Node6 -->
<g id="node5" class="node"><title>Node6</title>
<g id="a_node5"><a xlink:href="../../d0/de6/namespacemom__error__handler.html#a460cfb79a06c29fc249952c2a3710d67" target="_top" xlink:title="mom_error_handler::\lmom_error">
<polygon fill="white" stroke="black" points="716,-382.5 716,-412.5 809,-412.5 809,-382.5 716,-382.5"/>
<text text-anchor="start" x="724" y="-400.5" font-family="Helvetica,sans-Serif" font-size="10.00">mom_error_handler::</text>
<text text-anchor="middle" x="762.5" y="-389.5" font-family="Helvetica,sans-Serif" font-size="10.00">mom_error</text>
</a>
</g>
</g>
<!-- Node3&#45;&gt;Node6 -->
<g id="edge4" class="edge"><title>Node3&#45;&gt;Node6</title>
<path fill="none" stroke="midnightblue" d="M204.623,-736.307C220.069,-782.935 293.219,-982.939 433,-1055.5 531.579,-1106.67 607.636,-1101.76 680,-1017.5 758.397,-926.214 762.133,-528.143 761.726,-423.03"/>
<polygon fill="midnightblue" stroke="midnightblue" points="765.224,-422.716 761.668,-412.735 758.224,-422.755 765.224,-422.716"/>
</g>
<!-- Node7 -->
<g id="node6" class="node"><title>Node7</title>
<g id="a_node6"><a xlink:href="../../d0/de6/namespacemom__error__handler.html#a1c462df7b61f1296407b4af51dfeceab" target="_top" xlink:title="mom_error_handler::\lmom_mesg">
<polygon fill="white" stroke="black" points="303,-760.5 303,-790.5 396,-790.5 396,-760.5 303,-760.5"/>
<text text-anchor="start" x="311" y="-778.5" font-family="Helvetica,sans-Serif" font-size="10.00">mom_error_handler::</text>
<text text-anchor="middle" x="349.5" y="-767.5" font-family="Helvetica,sans-Serif" font-size="10.00">mom_mesg</text>
</a>
</g>
</g>
<!-- Node3&#45;&gt;Node7 -->
<g id="edge6" class="edge"><title>Node3&#45;&gt;Node7</title>
<path fill="none" stroke="midnightblue" d="M230.192,-736.064C248.234,-742.078 272.1,-750.033 293.67,-757.223"/>
<polygon fill="midnightblue" stroke="midnightblue" points="292.795,-760.621 303.389,-760.463 295.009,-753.98 292.795,-760.621"/>
</g>
<!-- Node8 -->
<g id="node7" class="node"><title>Node8</title>
<g id="a_node7"><a xlink:href="../../df/d46/namespacemom__string__functions.html#aca148baf726de2f028b7e7baad3c85d4" target="_top" xlink:title="mom_string_functions\l::uppercase">
<polygon fill="white" stroke="black" points="302,-711.5 302,-741.5 397,-741.5 397,-711.5 302,-711.5"/>
<text text-anchor="start" x="310" y="-729.5" font-family="Helvetica,sans-Serif" font-size="10.00">mom_string_functions</text>
<text text-anchor="middle" x="349.5" y="-718.5" font-family="Helvetica,sans-Serif" font-size="10.00">::uppercase</text>
</a>
</g>
</g>
<!-- Node3&#45;&gt;Node8 -->
<g id="edge8" class="edge"><title>Node3&#45;&gt;Node8</title>
<path fill="none" stroke="midnightblue" d="M262.564,-726.5C272.18,-726.5 282.089,-726.5 291.606,-726.5"/>
<polygon fill="midnightblue" stroke="midnightblue" points="291.747,-730 301.747,-726.5 291.747,-723 291.747,-730"/>
</g>
<!-- Node5 -->
<g id="node4" class="node"><title>Node5</title>
<g id="a_node4"><a xlink:href="../../d0/de6/namespacemom__error__handler.html#ad5f00a53059c72fe2332d1436c80ca71" target="_top" xlink:title="mom_error_handler::\lis_root_pe">
<polygon fill="white" stroke="black" points="845,-731.5 845,-761.5 938,-761.5 938,-731.5 845,-731.5"/>
<text text-anchor="start" x="853" y="-749.5" font-family="Helvetica,sans-Serif" font-size="10.00">mom_error_handler::</text>
<text text-anchor="middle" x="891.5" y="-738.5" font-family="Helvetica,sans-Serif" font-size="10.00">is_root_pe</text>
</a>
</g>
</g>
<!-- Node4&#45;&gt;Node5 -->
<g id="edge3" class="edge"><title>Node4&#45;&gt;Node5</title>
<path fill="none" stroke="midnightblue" d="M652.232,-188.584C688.86,-219.207 769.8,-292.653 809,-373.5 867.927,-495.033 884.681,-659.41 889.065,-721.429"/>
<polygon fill="midnightblue" stroke="midnightblue" points="885.576,-721.715 889.728,-731.462 892.561,-721.253 885.576,-721.715"/>
</g>
<!-- Node6&#45;&gt;Node5 -->
<g id="edge5" class="edge"><title>Node6&#45;&gt;Node5</title>
<path fill="none" stroke="midnightblue" d="M769.121,-412.946C789.12,-467.905 856.938,-654.272 881.514,-721.805"/>
<polygon fill="midnightblue" stroke="midnightblue" points="878.235,-723.032 884.944,-731.232 884.813,-720.638 878.235,-723.032"/>
</g>
<!-- Node7&#45;&gt;Node5 -->
<g id="edge7" class="edge"><title>Node7&#45;&gt;Node5</title>
<path fill="none" stroke="midnightblue" d="M352.117,-790.871C358.535,-848.581 384.258,-1050.94 433,-1088.5 565.37,-1190.5 677.852,-1192.07 809,-1088.5 859.347,-1048.74 881.963,-843.682 888.443,-771.596"/>
<polygon fill="midnightblue" stroke="midnightblue" points="891.934,-771.852 889.315,-761.586 884.96,-771.245 891.934,-771.852"/>
</g>
<!-- Node9&#45;&gt;Node4 -->
<g id="edge10" class="edge"><title>Node9&#45;&gt;Node4</title>
<path fill="none" stroke="midnightblue" d="M206.901,-550.741C219.526,-527.447 251.031,-466.436 266,-411.5 283.072,-348.845 253.335,-164.498 302,-121.5 343.134,-85.1569 496.267,-106.268 549,-121.5 569.861,-127.526 590.526,-140.565 605.955,-152.078"/>
<polygon fill="midnightblue" stroke="midnightblue" points="603.904,-154.916 613.957,-158.263 608.185,-149.378 603.904,-154.916"/>
</g>
<!-- Node9&#45;&gt;Node6 -->
<g id="edge11" class="edge"><title>Node9&#45;&gt;Node6</title>
<path fill="none" stroke="midnightblue" d="M216.507,-550.919C252.363,-528.515 346.48,-472.555 433,-445.5 525.945,-416.435 639.298,-404.827 705.633,-400.294"/>
<polygon fill="midnightblue" stroke="midnightblue" points="706.115,-403.77 715.866,-399.625 705.659,-396.785 706.115,-403.77"/>
</g>
<!-- Node9&#45;&gt;Node7 -->
<g id="edge12" class="edge"><title>Node9&#45;&gt;Node7</title>
<path fill="none" stroke="midnightblue" d="M204.258,-570.098C213.393,-600.392 245.343,-695.289 302,-751.5 302.943,-752.436 303.93,-753.343 304.953,-754.222"/>
<polygon fill="midnightblue" stroke="midnightblue" points="303.235,-757.303 313.365,-760.407 307.382,-751.663 303.235,-757.303"/>
</g>
<!-- Node9&#45;&gt;Node8 -->
<g id="edge33" class="edge"><title>Node9&#45;&gt;Node8</title>
<path fill="none" stroke="midnightblue" d="M206.314,-570.325C218.938,-595.256 255.276,-661.876 302,-702.5 303.157,-703.506 304.363,-704.483 305.608,-705.432"/>
<polygon fill="midnightblue" stroke="midnightblue" points="304.003,-708.571 314.249,-711.265 307.919,-702.769 304.003,-708.571"/>
</g>
<!-- Node10 -->
<g id="node9" class="node"><title>Node10</title>
<g id="a_node9"><a xlink:href="../../d9/d06/namespacemom__diag__mediator.html#aab2007573b14ed73053282770d1b19a4" target="_top" xlink:title="mom_diag_mediator::\lregister_diag_field">
<polygon fill="white" stroke="black" points="302,-662.5 302,-692.5 397,-692.5 397,-662.5 302,-662.5"/>
<text text-anchor="start" x="310" y="-680.5" font-family="Helvetica,sans-Serif" font-size="10.00">mom_diag_mediator::</text>
<text text-anchor="middle" x="349.5" y="-669.5" font-family="Helvetica,sans-Serif" font-size="10.00">register_diag_field</text>
</a>
</g>
</g>
<!-- Node9&#45;&gt;Node10 -->
<g id="edge13" class="edge"><title>Node9&#45;&gt;Node10</title>
<path fill="none" stroke="midnightblue" d="M213.53,-570.075C236.945,-588.712 289.166,-630.275 321.352,-655.893"/>
<polygon fill="midnightblue" stroke="midnightblue" points="319.462,-658.861 329.466,-662.35 323.821,-653.384 319.462,-658.861"/>
</g>
<!-- Node10&#45;&gt;Node5 -->
<g id="edge24" class="edge"><title>Node10&#45;&gt;Node5</title>
<path fill="none" stroke="midnightblue" d="M387.422,-692.612C391.125,-695.416 394.452,-698.691 397,-702.5 440.841,-768.04 374.484,-1002.65 433,-1055.5 474.213,-1092.72 634.051,-1048.69 680,-1017.5 778.142,-950.88 850.956,-823.957 878.473,-770.833"/>
<polygon fill="midnightblue" stroke="midnightblue" points="881.653,-772.302 883.08,-761.804 875.418,-769.121 881.653,-772.302"/>
</g>
<!-- Node10&#45;&gt;Node6 -->
<g id="edge29" class="edge"><title>Node10&#45;&gt;Node6</title>
<path fill="none" stroke="midnightblue" d="M356.73,-662.405C367.906,-637.451 393.908,-588.112 433,-565.5 528.635,-510.183 587.481,-597.884 680,-537.5 721.228,-510.592 744.181,-455.021 754.574,-422.569"/>
<polygon fill="midnightblue" stroke="midnightblue" points="757.95,-423.496 757.514,-412.91 751.254,-421.457 757.95,-423.496"/>
</g>
<!-- Node11 -->
<g id="node10" class="node"><title>Node11</title>
<g id="a_node10"><a xlink:href="../../d9/d06/namespacemom__diag__mediator.html#a1b0bed2113a0c268eafd1bafbb48bd4f" target="_top" xlink:title="mom_diag_mediator::\lalloc_diag_with_id">
<polygon fill="white" stroke="black" points="443.5,-574.5 443.5,-604.5 538.5,-604.5 538.5,-574.5 443.5,-574.5"/>
<text text-anchor="start" x="451.5" y="-592.5" font-family="Helvetica,sans-Serif" font-size="10.00">mom_diag_mediator::</text>
<text text-anchor="middle" x="491" y="-581.5" font-family="Helvetica,sans-Serif" font-size="10.00">alloc_diag_with_id</text>
</a>
</g>
</g>
<!-- Node10&#45;&gt;Node11 -->
<g id="edge14" class="edge"><title>Node10&#45;&gt;Node11</title>
<path fill="none" stroke="midnightblue" d="M370.356,-662.457C386.771,-650.287 410.89,-633.013 433,-619.5 438.573,-616.094 444.57,-612.68 450.507,-609.44"/>
<polygon fill="midnightblue" stroke="midnightblue" points="452.549,-612.317 459.719,-604.517 449.25,-606.144 452.549,-612.317"/>
</g>
<!-- Node12 -->
<g id="node11" class="node"><title>Node12</title>
<g id="a_node11"><a xlink:href="../../d9/d06/namespacemom__diag__mediator.html#a6e11afe7a97bf8e3333d33b0aebd6f6e" target="_top" xlink:title="mom_diag_mediator::\lassert">
<polygon fill="white" stroke="black" points="585,-448.5 585,-478.5 680,-478.5 680,-448.5 585,-448.5"/>
<text text-anchor="start" x="593" y="-466.5" font-family="Helvetica,sans-Serif" font-size="10.00">mom_diag_mediator::</text>
<text text-anchor="middle" x="632.5" y="-455.5" font-family="Helvetica,sans-Serif" font-size="10.00">assert</text>
</a>
</g>
</g>
<!-- Node10&#45;&gt;Node12 -->
<g id="edge15" class="edge"><title>Node10&#45;&gt;Node12</title>
<path fill="none" stroke="midnightblue" d="M351.557,-662.494C355.142,-624.194 370.404,-522.661 433,-477.5 473.592,-448.214 531.818,-447.593 574.717,-452.571"/>
<polygon fill="midnightblue" stroke="midnightblue" points="574.355,-456.053 584.721,-453.864 575.253,-449.111 574.355,-456.053"/>
</g>
<!-- Node13 -->
<g id="node12" class="node"><title>Node13</title>
<g id="a_node12"><a xlink:href="../../d9/d06/namespacemom__diag__mediator.html#a93abbf0b9659019bed9a2129ab292752" target="_top" xlink:title="Attaches &quot;cell_methods&quot; attribute to a variable based on defaults for axes_grp or optional arguments...">
<polygon fill="white" stroke="black" points="585,-602.5 585,-632.5 680,-632.5 680,-602.5 585,-602.5"/>
<text text-anchor="start" x="593" y="-620.5" font-family="Helvetica,sans-Serif" font-size="10.00">mom_diag_mediator::</text>
<text text-anchor="middle" x="632.5" y="-609.5" font-family="Helvetica,sans-Serif" font-size="10.00">attach_cell_methods</text>
</a>
</g>
</g>
<!-- Node10&#45;&gt;Node13 -->
<g id="edge17" class="edge"><title>Node10&#45;&gt;Node13</title>
<path fill="none" stroke="midnightblue" d="M397.395,-662.945C408.972,-659.604 421.384,-656.235 433,-653.5 480.356,-642.349 534.764,-632.7 574.628,-626.206"/>
<polygon fill="midnightblue" stroke="midnightblue" points="575.378,-629.631 584.693,-624.583 574.264,-622.72 575.378,-629.631"/>
</g>
<!-- Node14 -->
<g id="node13" class="node"><title>Node14</title>
<g id="a_node13"><a xlink:href="../../d9/d06/namespacemom__diag__mediator.html#a3f7442639213320f7429e2288a79fda2" target="_top" xlink:title="Returns a new diagnostic id, it may be necessary to expand the diagnostics array. ...">
<polygon fill="white" stroke="black" points="443.5,-486.5 443.5,-516.5 538.5,-516.5 538.5,-486.5 443.5,-486.5"/>
<text text-anchor="start" x="451.5" y="-504.5" font-family="Helvetica,sans-Serif" font-size="10.00">mom_diag_mediator::</text>
<text text-anchor="middle" x="491" y="-493.5" font-family="Helvetica,sans-Serif" font-size="10.00">get_new_diag_id</text>
</a>
</g>
</g>
<!-- Node10&#45;&gt;Node14 -->
<g id="edge19" class="edge"><title>Node10&#45;&gt;Node14</title>
<path fill="none" stroke="midnightblue" d="M355.704,-662.436C366.264,-633.744 392.679,-570.635 433,-531.5 436.667,-527.94 440.842,-524.696 445.226,-521.767"/>
<polygon fill="midnightblue" stroke="midnightblue" points="447.115,-524.714 453.836,-516.524 443.475,-518.735 447.115,-524.714"/>
</g>
<!-- Node16 -->
<g id="node15" class="node"><title>Node16</title>
<g id="a_node15"><a xlink:href="../../d9/d06/namespacemom__diag__mediator.html#a4b739f107cebe1ece8d29056c1144bff" target="_top" xlink:title="mom_diag_mediator::\lis_b_axes">
<polygon fill="white" stroke="black" points="443.5,-966.5 443.5,-996.5 538.5,-996.5 538.5,-966.5 443.5,-966.5"/>
<text text-anchor="start" x="451.5" y="-984.5" font-family="Helvetica,sans-Serif" font-size="10.00">mom_diag_mediator::</text>
<text text-anchor="middle" x="491" y="-973.5" font-family="Helvetica,sans-Serif" font-size="10.00">is_b_axes</text>
</a>
</g>
</g>
<!-- Node10&#45;&gt;Node16 -->
<g id="edge22" class="edge"><title>Node10&#45;&gt;Node16</title>
<path fill="none" stroke="midnightblue" d="M387.28,-692.709C391.008,-695.496 394.379,-698.741 397,-702.5 462.463,-796.388 363.163,-866.818 433,-957.5 433.811,-958.553 434.676,-959.56 435.589,-960.523"/>
<polygon fill="midnightblue" stroke="midnightblue" points="433.494,-963.334 443.403,-967.084 437.996,-957.973 433.494,-963.334"/>
</g>
<!-- Node17 -->
<g id="node16" class="node"><title>Node17</title>
<g id="a_node16"><a xlink:href="../../d9/d06/namespacemom__diag__mediator.html#a84370fa96e03622edbfd5e343bcd9718" target="_top" xlink:title="mom_diag_mediator::\lis_layer_axes">
<polygon fill="white" stroke="black" points="443.5,-917.5 443.5,-947.5 538.5,-947.5 538.5,-917.5 443.5,-917.5"/>
<text text-anchor="start" x="451.5" y="-935.5" font-family="Helvetica,sans-Serif" font-size="10.00">mom_diag_mediator::</text>
<text text-anchor="middle" x="491" y="-924.5" font-family="Helvetica,sans-Serif" font-size="10.00">is_layer_axes</text>
</a>
</g>
</g>
<!-- Node10&#45;&gt;Node17 -->
<g id="edge23" class="edge"><title>Node10&#45;&gt;Node17</title>
<path fill="none" stroke="midnightblue" d="M387.161,-692.793C390.909,-695.566 394.318,-698.784 397,-702.5 451.4,-777.86 375.091,-835.802 433,-908.5 433.719,-909.403 434.478,-910.272 435.273,-911.109"/>
<polygon fill="midnightblue" stroke="midnightblue" points="433.347,-914.061 443.259,-917.804 437.844,-908.697 433.347,-914.061"/>
</g>
<!-- Node18 -->
<g id="node17" class="node"><title>Node18</title>
<g id="a_node17"><a xlink:href="../../d9/d06/namespacemom__diag__mediator.html#a27fa63c9ff62b660bf457adbb8645bdf" target="_top" xlink:title="mom_diag_mediator::\lis_u_axes">
<polygon fill="white" stroke="black" points="443.5,-868.5 443.5,-898.5 538.5,-898.5 538.5,-868.5 443.5,-868.5"/>
<text text-anchor="start" x="451.5" y="-886.5" font-family="Helvetica,sans-Serif" font-size="10.00">mom_diag_mediator::</text>
<text text-anchor="middle" x="491" y="-875.5" font-family="Helvetica,sans-Serif" font-size="10.00">is_u_axes</text>
</a>
</g>
</g>
<!-- Node10&#45;&gt;Node18 -->
<g id="edge25" class="edge"><title>Node10&#45;&gt;Node18</title>
<path fill="none" stroke="midnightblue" d="M386.518,-692.604C390.476,-695.428 394.11,-698.71 397,-702.5 440.407,-759.428 386.945,-804.692 433,-859.5 433.835,-860.494 434.719,-861.448 435.645,-862.363"/>
<polygon fill="midnightblue" stroke="midnightblue" points="433.468,-865.104 443.453,-868.645 437.855,-859.649 433.468,-865.104"/>
</g>
<!-- Node19 -->
<g id="node18" class="node"><title>Node19</title>
<g id="a_node18"><a xlink:href="../../d9/d06/namespacemom__diag__mediator.html#a9a30d653d812713d6fcff94f6f1fc3e6" target="_top" xlink:title="mom_diag_mediator::\lis_v_axes">
<polygon fill="white" stroke="black" points="443.5,-819.5 443.5,-849.5 538.5,-849.5 538.5,-819.5 443.5,-819.5"/>
<text text-anchor="start" x="451.5" y="-837.5" font-family="Helvetica,sans-Serif" font-size="10.00">mom_diag_mediator::</text>
<text text-anchor="middle" x="491" y="-826.5" font-family="Helvetica,sans-Serif" font-size="10.00">is_v_axes</text>
</a>
</g>
</g>
<!-- Node10&#45;&gt;Node19 -->
<g id="edge26" class="edge"><title>Node10&#45;&gt;Node19</title>
<path fill="none" stroke="midnightblue" d="M385.713,-692.559C389.901,-695.412 393.813,-698.713 397,-702.5 429.581,-741.211 398.622,-773.376 433,-810.5 433.882,-811.453 434.808,-812.369 435.772,-813.25"/>
<polygon fill="midnightblue" stroke="midnightblue" points="433.717,-816.084 443.799,-819.339 437.948,-810.507 433.717,-816.084"/>
</g>
<!-- Node20 -->
<g id="node19" class="node"><title>Node20</title>
<g id="a_node19"><a xlink:href="../../d9/d06/namespacemom__diag__mediator.html#a65fe8d329cf5dbfd08c98874a7a64407" target="_top" xlink:title="Log a diagnostic to the available diagnostics file. ">
<polygon fill="white" stroke="black" points="443.5,-1015.5 443.5,-1045.5 538.5,-1045.5 538.5,-1015.5 443.5,-1015.5"/>
<text text-anchor="start" x="451.5" y="-1033.5" font-family="Helvetica,sans-Serif" font-size="10.00">mom_diag_mediator::</text>
<text text-anchor="middle" x="491" y="-1022.5" font-family="Helvetica,sans-Serif" font-size="10.00">log_available_diag</text>
</a>
</g>
</g>
<!-- Node10&#45;&gt;Node20 -->
<g id="edge27" class="edge"><title>Node10&#45;&gt;Node20</title>
<path fill="none" stroke="midnightblue" d="M387.362,-692.652C391.076,-695.449 394.421,-698.712 397,-702.5 473.562,-814.969 351.196,-897.784 433,-1006.5 433.799,-1007.56 434.654,-1008.58 435.557,-1009.55"/>
<polygon fill="midnightblue" stroke="midnightblue" points="433.433,-1012.34 443.317,-1016.15 437.969,-1007 433.433,-1012.34"/>
</g>
<!-- Node22 -->
<g id="node21" class="node"><title>Node22</title>
<g id="a_node21"><a xlink:href="../../d9/d06/namespacemom__diag__mediator.html#aca4a32fea8dade9f51e076a56b9bad2b" target="_top" xlink:title="Returns ID from register_diag_field_fms (the diag_manager routine) after expanding axes (axes&#45;group) ...">
<polygon fill="white" stroke="black" points="443.5,-760 443.5,-801 538.5,-801 538.5,-760 443.5,-760"/>
<text text-anchor="start" x="451.5" y="-789" font-family="Helvetica,sans-Serif" font-size="10.00">mom_diag_mediator::</text>
<text text-anchor="start" x="451.5" y="-778" font-family="Helvetica,sans-Serif" font-size="10.00">register_diag_field</text>
<text text-anchor="middle" x="491" y="-767" font-family="Helvetica,sans-Serif" font-size="10.00">_expand_axes</text>
</a>
</g>
</g>
<!-- Node10&#45;&gt;Node22 -->
<g id="edge30" class="edge"><title>Node10&#45;&gt;Node22</title>
<path fill="none" stroke="midnightblue" d="M383.233,-692.682C388.088,-695.604 392.848,-698.894 397,-702.5 417.401,-720.222 412.399,-734.01 433,-751.5 434,-752.349 435.029,-753.181 436.082,-753.996"/>
<polygon fill="midnightblue" stroke="midnightblue" points="434.349,-757.056 444.552,-759.913 438.358,-751.317 434.349,-757.056"/>
</g>
<!-- Node23 -->
<g id="node22" class="node"><title>Node23</title>
<g id="a_node22"><a xlink:href="../../d9/d06/namespacemom__diag__mediator.html#a085f313357879a914af6450f2ab8ec79" target="_top" xlink:title="mom_diag_mediator::\lset_diag_mask">
<polygon fill="white" stroke="black" points="443.5,-711.5 443.5,-741.5 538.5,-741.5 538.5,-711.5 443.5,-711.5"/>
<text text-anchor="start" x="451.5" y="-729.5" font-family="Helvetica,sans-Serif" font-size="10.00">mom_diag_mediator::</text>
<text text-anchor="middle" x="491" y="-718.5" font-family="Helvetica,sans-Serif" font-size="10.00">set_diag_mask</text>
</a>
</g>
</g>
<!-- Node10&#45;&gt;Node23 -->
<g id="edge31" class="edge"><title>Node10&#45;&gt;Node23</title>
<path fill="none" stroke="midnightblue" d="M393.493,-692.601C407.282,-697.445 422.717,-702.866 437.128,-707.928"/>
<polygon fill="midnightblue" stroke="midnightblue" points="436.314,-711.352 446.909,-711.364 438.634,-704.748 436.314,-711.352"/>
</g>
<!-- Node24 -->
<g id="node23" class="node"><title>Node24</title>
<g id="a_node23"><a xlink:href="../../d9/d06/namespacemom__diag__mediator.html#a5d1e1aa53cdd6bb335a6f841eded4f46" target="_top" xlink:title="mom_diag_mediator::\lset_diag_remap_axes">
<polygon fill="white" stroke="black" points="443.5,-662.5 443.5,-692.5 538.5,-692.5 538.5,-662.5 443.5,-662.5"/>
<text text-anchor="start" x="451.5" y="-680.5" font-family="Helvetica,sans-Serif" font-size="10.00">mom_diag_mediator::</text>
<text text-anchor="middle" x="491" y="-669.5" font-family="Helvetica,sans-Serif" font-size="10.00">set_diag_remap_axes</text>
</a>
</g>
</g>
<!-- Node10&#45;&gt;Node24 -->
<g id="edge32" class="edge"><title>Node10&#45;&gt;Node24</title>
<path fill="none" stroke="midnightblue" d="M397.34,-677.5C408.726,-677.5 421.03,-677.5 432.835,-677.5"/>
<polygon fill="midnightblue" stroke="midnightblue" points="433.047,-681 443.047,-677.5 433.047,-674 433.047,-681"/>
</g>
<!-- Node12&#45;&gt;Node6 -->
<g id="edge16" class="edge"><title>Node12&#45;&gt;Node6</title>
<path fill="none" stroke="midnightblue" d="M662.866,-448.358C680.753,-439.135 703.805,-427.249 723.125,-417.287"/>
<polygon fill="midnightblue" stroke="midnightblue" points="724.987,-420.265 732.271,-412.571 721.779,-414.043 724.987,-420.265"/>
</g>
<!-- Node13&#45;&gt;Node6 -->
<g id="edge18" class="edge"><title>Node13&#45;&gt;Node6</title>
<path fill="none" stroke="midnightblue" d="M651.335,-602.203C660.68,-593.557 671.844,-582.165 680,-570.5 713.791,-522.168 739.927,-457.62 752.762,-422.627"/>
<polygon fill="midnightblue" stroke="midnightblue" points="756.218,-423.361 756.312,-412.766 749.632,-420.989 756.218,-423.361"/>
</g>
<!-- Node14&#45;&gt;Node12 -->
<g id="edge20" class="edge"><title>Node14&#45;&gt;Node12</title>
<path fill="none" stroke="midnightblue" d="M538.84,-488.741C550.341,-485.608 562.778,-482.22 574.693,-478.974"/>
<polygon fill="midnightblue" stroke="midnightblue" points="575.818,-482.295 584.547,-476.29 573.978,-475.542 575.818,-482.295"/>
</g>
<!-- Node15 -->
<g id="node14" class="node"><title>Node15</title>
<g id="a_node14"><a xlink:href="../../d9/d06/namespacemom__diag__mediator.html#a883862f004e30bbc5211f38635511ba0" target="_top" xlink:title="Initializes a diag_type (used after allocating new memory) ">
<polygon fill="white" stroke="black" points="585,-497.5 585,-527.5 680,-527.5 680,-497.5 585,-497.5"/>
<text text-anchor="start" x="593" y="-515.5" font-family="Helvetica,sans-Serif" font-size="10.00">mom_diag_mediator::</text>
<text text-anchor="middle" x="632.5" y="-504.5" font-family="Helvetica,sans-Serif" font-size="10.00">initialize_diag_type</text>
</a>
</g>
</g>
<!-- Node14&#45;&gt;Node15 -->
<g id="edge21" class="edge"><title>Node14&#45;&gt;Node15</title>
<path fill="none" stroke="midnightblue" d="M538.84,-505.193C550.226,-506.091 562.53,-507.061 574.335,-507.992"/>
<polygon fill="midnightblue" stroke="midnightblue" points="574.302,-511.501 584.547,-508.798 574.853,-504.522 574.302,-511.501"/>
</g>
<!-- Node21 -->
<g id="node20" class="node"><title>Node21</title>
<g id="a_node20"><a xlink:href="../../d9/d06/namespacemom__diag__mediator.html#ae002ca447acba252bf7bdc042e75a01e" target="_top" xlink:title="mom_diag_mediator::\ldescribe_option">
<polygon fill="white" stroke="black" points="585,-977.5 585,-1007.5 680,-1007.5 680,-977.5 585,-977.5"/>
<text text-anchor="start" x="593" y="-995.5" font-family="Helvetica,sans-Serif" font-size="10.00">mom_diag_mediator::</text>
<text text-anchor="middle" x="632.5" y="-984.5" font-family="Helvetica,sans-Serif" font-size="10.00">describe_option</text>
</a>
</g>
</g>
<!-- Node20&#45;&gt;Node21 -->
<g id="edge28" class="edge"><title>Node20&#45;&gt;Node21</title>
<path fill="none" stroke="midnightblue" d="M538.84,-1017.74C550.341,-1014.61 562.778,-1011.22 574.693,-1007.97"/>
<polygon fill="midnightblue" stroke="midnightblue" points="575.818,-1011.3 584.547,-1005.29 573.978,-1004.54 575.818,-1011.3"/>
</g>
<!-- Node26&#45;&gt;Node4 -->
<g id="edge37" class="edge"><title>Node26&#45;&gt;Node4</title>
<path fill="none" stroke="midnightblue" d="M521.382,-69.0676C530.661,-72.8062 540.661,-77.6258 549,-83.5 575.265,-102.002 599.349,-130.144 614.627,-150.026"/>
<polygon fill="midnightblue" stroke="midnightblue" points="612.004,-152.36 620.81,-158.251 617.599,-148.154 612.004,-152.36"/>
</g>
<!-- Node26&#45;&gt;Node6 -->
<g id="edge36" class="edge"><title>Node26&#45;&gt;Node6</title>
<path fill="none" stroke="midnightblue" d="M534.738,-69.0082C577.408,-80.6667 641.959,-104.533 680,-148.5 737.69,-215.177 754.742,-323.64 759.622,-372.381"/>
<polygon fill="midnightblue" stroke="midnightblue" points="756.139,-372.73 760.533,-382.371 763.11,-372.095 756.139,-372.73"/>
</g>
<!-- Node27&#45;&gt;Node4 -->
<g id="edge40" class="edge"><title>Node27&#45;&gt;Node4</title>
<path fill="none" stroke="midnightblue" d="M362.291,-251.194C376.806,-233.626 403.221,-205.559 433,-192.5 478.303,-172.633 534.875,-169.025 576.023,-169.715"/>
<polygon fill="midnightblue" stroke="midnightblue" points="576.048,-173.216 586.135,-169.975 576.229,-166.219 576.048,-173.216"/>
</g>
<!-- Node27&#45;&gt;Node6 -->
<g id="edge39" class="edge"><title>Node27&#45;&gt;Node6</title>
<path fill="none" stroke="midnightblue" d="M396.121,-280.576C408.064,-284.04 420.967,-287.587 433,-290.5 541.692,-316.813 577.405,-293.998 680,-338.5 701.093,-347.649 722.041,-362.988 737.417,-375.732"/>
<polygon fill="midnightblue" stroke="midnightblue" points="735.469,-378.67 745.352,-382.489 740.008,-373.341 735.469,-378.67"/>
</g>
<!-- Node28 -->
<g id="node27" class="node"><title>Node28</title>
<g id="a_node27"><a xlink:href="../../d3/d77/namespacemom__pressureforce__afv.html#a443f95a60b35b33a872264f6bacf4554" target="_top" xlink:title="mom_pressureforce_afv\l::pressureforce_afv_init">
<polygon fill="white" stroke="black" points="439,-251.5 439,-281.5 543,-281.5 543,-251.5 439,-251.5"/>
<text text-anchor="start" x="447" y="-269.5" font-family="Helvetica,sans-Serif" font-size="10.00">mom_pressureforce_afv</text>
<text text-anchor="middle" x="491" y="-258.5" font-family="Helvetica,sans-Serif" font-size="10.00">::pressureforce_afv_init</text>
</a>
</g>
</g>
<!-- Node27&#45;&gt;Node28 -->
<g id="edge41" class="edge"><title>Node27&#45;&gt;Node28</title>
<path fill="none" stroke="midnightblue" d="M396.178,-266.5C406.535,-266.5 417.699,-266.5 428.589,-266.5"/>
<polygon fill="midnightblue" stroke="midnightblue" points="428.909,-270 438.909,-266.5 428.909,-263 428.909,-270"/>
</g>
<!-- Node29 -->
<g id="node28" class="node"><title>Node29</title>
<g id="a_node28"><a xlink:href="../../d9/dc4/namespacemom__pressureforce__mont.html#a560267f015d03452d92aca82f6a46b14" target="_top" xlink:title="mom_pressureforce_mont\l::pressureforce_mont_init">
<polygon fill="white" stroke="black" points="435.5,-202.5 435.5,-232.5 546.5,-232.5 546.5,-202.5 435.5,-202.5"/>
<text text-anchor="start" x="443.5" y="-220.5" font-family="Helvetica,sans-Serif" font-size="10.00">mom_pressureforce_mont</text>
<text text-anchor="middle" x="491" y="-209.5" font-family="Helvetica,sans-Serif" font-size="10.00">::pressureforce_mont_init</text>
</a>
</g>
</g>
<!-- Node27&#45;&gt;Node29 -->
<g id="edge44" class="edge"><title>Node27&#45;&gt;Node29</title>
<path fill="none" stroke="midnightblue" d="M393.493,-251.399C407.282,-246.555 422.717,-241.134 437.128,-236.072"/>
<polygon fill="midnightblue" stroke="midnightblue" points="438.634,-239.252 446.909,-232.636 436.314,-232.648 438.634,-239.252"/>
</g>
<!-- Node28&#45;&gt;Node4 -->
<g id="edge43" class="edge"><title>Node28&#45;&gt;Node4</title>
<path fill="none" stroke="midnightblue" d="M530.455,-251.378C536.804,-248.391 543.201,-245.066 549,-241.5 570.408,-228.335 592.248,-210.074 608.076,-195.79"/>
<polygon fill="midnightblue" stroke="midnightblue" points="610.767,-198.071 615.77,-188.731 606.035,-192.913 610.767,-198.071"/>
</g>
<!-- Node28&#45;&gt;Node6 -->
<g id="edge42" class="edge"><title>Node28&#45;&gt;Node6</title>
<path fill="none" stroke="midnightblue" d="M543.312,-258.545C583.181,-254.957 638.493,-255.861 680,-279.5 716.418,-300.24 740.18,-344.723 752.185,-372.758"/>
<polygon fill="midnightblue" stroke="midnightblue" points="749.05,-374.339 756.077,-382.268 755.528,-371.688 749.05,-374.339"/>
</g>
<!-- Node29&#45;&gt;Node4 -->
<g id="edge46" class="edge"><title>Node29&#45;&gt;Node4</title>
<path fill="none" stroke="midnightblue" d="M539.618,-202.481C551.576,-198.709 564.502,-194.632 576.776,-190.761"/>
<polygon fill="midnightblue" stroke="midnightblue" points="577.965,-194.056 586.449,-187.71 575.859,-187.38 577.965,-194.056"/>
</g>
<!-- Node29&#45;&gt;Node6 -->
<g id="edge45" class="edge"><title>Node29&#45;&gt;Node6</title>
<path fill="none" stroke="midnightblue" d="M546.563,-216.138C586.876,-217.751 641.257,-225.695 680,-253.5 721.065,-282.971 744.182,-339.959 754.624,-372.714"/>
<polygon fill="midnightblue" stroke="midnightblue" points="751.32,-373.88 757.575,-382.432 758.018,-371.846 751.32,-373.88"/>
</g>
<!-- Node30&#45;&gt;Node4 -->
<g id="edge49" class="edge"><title>Node30&#45;&gt;Node4</title>
<path fill="none" stroke="midnightblue" d="M506.326,-339.405C518.169,-326.697 535.218,-307.865 549,-290.5 573.799,-259.255 599.93,-221.2 615.975,-197.155"/>
<polygon fill="midnightblue" stroke="midnightblue" points="618.994,-198.937 621.607,-188.669 613.161,-195.066 618.994,-198.937"/>
</g>
<!-- Node30&#45;&gt;Node6 -->
<g id="edge48" class="edge"><title>Node30&#45;&gt;Node6</title>
<path fill="none" stroke="midnightblue" d="M534.222,-347.415C572.845,-342.43 631.222,-338.685 680,-351.5 699.047,-356.504 718.329,-367.082 733.352,-376.834"/>
<polygon fill="midnightblue" stroke="midnightblue" points="731.421,-379.753 741.672,-382.431 735.329,-373.945 731.421,-379.753"/>
</g>
<!-- Node31 -->
<g id="node30" class="node"><title>Node31</title>
<g id="a_node30"><a xlink:href="../../d5/daa/namespacemom__tidal__forcing.html#aba9bdb9c6510bac9f65e674bd5583f39" target="_top" xlink:title="mom_tidal_forcing::\lfind_in_files">
<polygon fill="white" stroke="black" points="589.5,-360.5 589.5,-390.5 675.5,-390.5 675.5,-360.5 589.5,-360.5"/>
<text text-anchor="start" x="597.5" y="-378.5" font-family="Helvetica,sans-Serif" font-size="10.00">mom_tidal_forcing::</text>
<text text-anchor="middle" x="632.5" y="-367.5" font-family="Helvetica,sans-Serif" font-size="10.00">find_in_files</text>
</a>
</g>
</g>
<!-- Node30&#45;&gt;Node31 -->
<g id="edge50" class="edge"><title>Node30&#45;&gt;Node31</title>
<path fill="none" stroke="midnightblue" d="M534.233,-360.858C548.437,-362.996 564.454,-365.407 579.33,-367.647"/>
<polygon fill="midnightblue" stroke="midnightblue" points="579.001,-371.136 589.41,-369.164 580.043,-364.214 579.001,-371.136"/>
</g>
<!-- Node31&#45;&gt;Node6 -->
<g id="edge51" class="edge"><title>Node31&#45;&gt;Node6</title>
<path fill="none" stroke="midnightblue" d="M675.767,-382.765C685.379,-384.417 695.733,-386.196 705.808,-387.928"/>
<polygon fill="midnightblue" stroke="midnightblue" points="705.304,-391.393 715.752,-389.637 706.49,-384.494 705.304,-391.393"/>
</g>
</g>
</svg>
