<?xml version="1.0" encoding="UTF-8" standalone="no"?>
<!DOCTYPE svg PUBLIC "-//W3C//DTD SVG 1.1//EN"
 "http://www.w3.org/Graphics/SVG/1.1/DTD/svg11.dtd">
<!-- Generated by graphviz version 2.38.0 (20140413.2041)
 -->
<!-- Title: user_initialization::user_initialize_topography Pages: 1 -->
<svg width="474pt" height="39pt"
 viewBox="0.00 0.00 474.00 39.00" xmlns="http://www.w3.org/2000/svg" xmlns:xlink="http://www.w3.org/1999/xlink">
<g id="graph0" class="graph" transform="scale(1 1) rotate(0) translate(4 35)">
<title>user_initialization::user_initialize_topography</title>
<polygon fill="white" stroke="none" points="-4,4 -4,-35 470,-35 470,4 -4,4"/>
<!-- Node25 -->
<g id="node1" class="node"><title>Node25</title>
<polygon fill="#bfbfbf" stroke="black" points="0,-0.5 0,-30.5 135,-30.5 135,-0.5 0,-0.5"/>
<text text-anchor="start" x="8" y="-18.5" font-family="Helvetica,sans-Serif" font-size="10.00">user_initialization</text>
<text text-anchor="middle" x="67.5" y="-7.5" font-family="Helvetica,sans-Serif" font-size="10.00">::user_initialize_topography</text>
</g>
<!-- Node26 -->
<g id="node2" class="node"><title>Node26</title>
<g id="a_node2"><a xlink:href="../../d3/da8/namespacemom__fixed__initialization.html#a4f19c092d796f0cbb036c96575299b11" target="_top" xlink:title="MOM_initialize_topography makes the appropriate call to set up the bathymetry. ">
<polygon fill="white" stroke="black" points="171,-0.5 171,-30.5 309,-30.5 309,-0.5 171,-0.5"/>
<text text-anchor="start" x="179" y="-18.5" font-family="Helvetica,sans-Serif" font-size="10.00">mom_fixed_initialization</text>
<text text-anchor="middle" x="240" y="-7.5" font-family="Helvetica,sans-Serif" font-size="10.00">::mom_initialize_topography</text>
</a>
</g>
</g>
<!-- Node25&#45;&gt;Node26 -->
<g id="edge1" class="edge"><title>Node25&#45;&gt;Node26</title>
<path fill="none" stroke="midnightblue" d="M145.608,-15.5C154.041,-15.5 162.582,-15.5 170.895,-15.5"/>
<polygon fill="midnightblue" stroke="midnightblue" points="145.397,-12.0001 135.397,-15.5 145.397,-19.0001 145.397,-12.0001"/>
</g>
<!-- Node27 -->
<g id="node3" class="node"><title>Node27</title>
<g id="a_node3"><a xlink:href="../../d3/da8/namespacemom__fixed__initialization.html#a6c1c054d9cda9f1bd11abba748614c92" target="_top" xlink:title="MOM_initialize_fixed sets up time&#45;invariant quantities related to MOM6&#39;s horizontal grid...">
<polygon fill="white" stroke="black" points="345,-0.5 345,-30.5 466,-30.5 466,-0.5 345,-0.5"/>
<text text-anchor="start" x="353" y="-18.5" font-family="Helvetica,sans-Serif" font-size="10.00">mom_fixed_initialization</text>
<text text-anchor="middle" x="405.5" y="-7.5" font-family="Helvetica,sans-Serif" font-size="10.00">::mom_initialize_fixed</text>
</a>
</g>
</g>
<!-- Node26&#45;&gt;Node27 -->
<g id="edge2" class="edge"><title>Node26&#45;&gt;Node27</title>
<path fill="none" stroke="midnightblue" d="M319.427,-15.5C328.014,-15.5 336.651,-15.5 344.956,-15.5"/>
<polygon fill="midnightblue" stroke="midnightblue" points="319.391,-12.0001 309.391,-15.5 319.391,-19.0001 319.391,-12.0001"/>
</g>
</g>
</svg>
