<?xml version="1.0" encoding="UTF-8" standalone="no"?>
<!DOCTYPE svg PUBLIC "-//W3C//DTD SVG 1.1//EN"
 "http://www.w3.org/Graphics/SVG/1.1/DTD/svg11.dtd">
<!-- Generated by graphviz version 2.38.0 (20140413.2041)
 -->
<!-- Title: user_initialization::user_init_mixed_layer_density Pages: 1 -->
<svg width="409pt" height="88pt"
 viewBox="0.00 0.00 409.00 88.00" xmlns="http://www.w3.org/2000/svg" xmlns:xlink="http://www.w3.org/1999/xlink">
<g id="graph0" class="graph" transform="scale(1 1) rotate(0) translate(4 84)">
<title>user_initialization::user_init_mixed_layer_density</title>
<polygon fill="white" stroke="none" points="-4,4 -4,-84 405,-84 405,4 -4,4"/>
<!-- Node0 -->
<g id="node1" class="node"><title>Node0</title>
<polygon fill="#bfbfbf" stroke="black" points="0,-19 0,-60 117,-60 117,-19 0,-19"/>
<text text-anchor="start" x="8" y="-48" font-family="Helvetica,sans-Serif" font-size="10.00">user_initialization</text>
<text text-anchor="start" x="8" y="-37" font-family="Helvetica,sans-Serif" font-size="10.00">::user_init_mixed_layer</text>
<text text-anchor="middle" x="58.5" y="-26" font-family="Helvetica,sans-Serif" font-size="10.00">_density</text>
</g>
<!-- Node1 -->
<g id="node2" class="node"><title>Node1</title>
<g id="a_node2"><a xlink:href="../../d0/de6/namespacemom__error__handler.html#a460cfb79a06c29fc249952c2a3710d67" target="_top" xlink:title="mom_error_handler::\lmom_error">
<polygon fill="white" stroke="black" points="153,-49.5 153,-79.5 259,-79.5 259,-49.5 153,-49.5"/>
<text text-anchor="start" x="161" y="-67.5" font-family="Helvetica,sans-Serif" font-size="10.00">mom_error_handler::</text>
<text text-anchor="middle" x="206" y="-56.5" font-family="Helvetica,sans-Serif" font-size="10.00">mom_error</text>
</a>
</g>
</g>
<!-- Node0&#45;&gt;Node1 -->
<g id="edge1" class="edge"><title>Node0&#45;&gt;Node1</title>
<path fill="none" stroke="midnightblue" d="M117.005,-49.3807C125.455,-50.8325 134.192,-52.3337 142.732,-53.8011"/>
<polygon fill="midnightblue" stroke="midnightblue" points="142.19,-57.2591 152.638,-55.5031 143.375,-50.3602 142.19,-57.2591"/>
</g>
<!-- Node3 -->
<g id="node4" class="node"><title>Node3</title>
<g id="a_node4"><a xlink:href="../../d9/dfa/namespaceuser__initialization.html#aebfc0db710e83bae83f08e1a774256dd" target="_top" xlink:title="Write output about the parameter values being used. ">
<polygon fill="white" stroke="black" points="160,-0.5 160,-30.5 252,-30.5 252,-0.5 160,-0.5"/>
<text text-anchor="start" x="168" y="-18.5" font-family="Helvetica,sans-Serif" font-size="10.00">user_initialization</text>
<text text-anchor="middle" x="206" y="-7.5" font-family="Helvetica,sans-Serif" font-size="10.00">::write_user_log</text>
</a>
</g>
</g>
<!-- Node0&#45;&gt;Node3 -->
<g id="edge3" class="edge"><title>Node0&#45;&gt;Node3</title>
<path fill="none" stroke="midnightblue" d="M117.005,-30.0146C127.72,-28.2472 138.897,-26.4036 149.548,-24.6466"/>
<polygon fill="midnightblue" stroke="midnightblue" points="150.271,-28.0749 159.568,-22.994 149.131,-21.1682 150.271,-28.0749"/>
</g>
<!-- Node2 -->
<g id="node3" class="node"><title>Node2</title>
<g id="a_node3"><a xlink:href="../../d0/de6/namespacemom__error__handler.html#ad5f00a53059c72fe2332d1436c80ca71" target="_top" xlink:title="mom_error_handler::\lis_root_pe">
<polygon fill="white" stroke="black" points="295,-49.5 295,-79.5 401,-79.5 401,-49.5 295,-49.5"/>
<text text-anchor="start" x="303" y="-67.5" font-family="Helvetica,sans-Serif" font-size="10.00">mom_error_handler::</text>
<text text-anchor="middle" x="348" y="-56.5" font-family="Helvetica,sans-Serif" font-size="10.00">is_root_pe</text>
</a>
</g>
</g>
<!-- Node1&#45;&gt;Node2 -->
<g id="edge2" class="edge"><title>Node1&#45;&gt;Node2</title>
<path fill="none" stroke="midnightblue" d="M259.131,-64.5C267.421,-64.5 276.07,-64.5 284.568,-64.5"/>
<polygon fill="midnightblue" stroke="midnightblue" points="284.826,-68.0001 294.826,-64.5 284.826,-61.0001 284.826,-68.0001"/>
</g>
</g>
</svg>
