<?xml version="1.0" encoding="UTF-8" standalone="no"?>
<!DOCTYPE svg PUBLIC "-//W3C//DTD SVG 1.1//EN"
 "http://www.w3.org/Graphics/SVG/1.1/DTD/svg11.dtd">
<!-- Generated by graphviz version 2.38.0 (20140413.2041)
 -->
<!-- Title: mom_regridding::regridding_cs Pages: 1 -->
<svg width="390pt" height="216pt"
 viewBox="0.00 0.00 390.00 216.00" xmlns="http://www.w3.org/2000/svg" xmlns:xlink="http://www.w3.org/1999/xlink">
<g id="graph0" class="graph" transform="scale(1 1) rotate(0) translate(4 212)">
<title>mom_regridding::regridding_cs</title>
<polygon fill="white" stroke="none" points="-4,4 -4,-212 386,-212 386,4 -4,4"/>
<!-- Node1 -->
<g id="node1" class="node"><title>Node1</title>
<polygon fill="#bfbfbf" stroke="black" points="85.5,-0.5 85.5,-19.5 234.5,-19.5 234.5,-0.5 85.5,-0.5"/>
<text text-anchor="middle" x="160" y="-7.5" font-family="Helvetica,sans-Serif" font-size="10.00">mom_regridding::regridding_cs</text>
</g>
<!-- Node2 -->
<g id="node2" class="node"><title>Node2</title>
<polygon fill="white" stroke="#bfbfbf" points="0,-188.5 0,-207.5 44,-207.5 44,-188.5 0,-188.5"/>
<text text-anchor="middle" x="22" y="-195.5" font-family="Helvetica,sans-Serif" font-size="10.00">logical</text>
</g>
<!-- Node2&#45;&gt;Node1 -->
<g id="edge1" class="edge"><title>Node2&#45;&gt;Node1</title>
<path fill="none" stroke="#9a32cd" stroke-dasharray="5,2" d="M18.0548,-178.384C12.2792,-145.56 5.7121,-77.1699 41,-38 48.4089,-29.7761 69.598,-23.7672 92.0826,-19.5354"/>
<polygon fill="#9a32cd" stroke="#9a32cd" points="14.6578,-179.252 19.9949,-188.404 21.5302,-177.921 14.6578,-179.252"/>
<text text-anchor="middle" x="98.5" y="-123.5" font-family="Helvetica,sans-Serif" font-size="10.00"> fix_haloclines</text>
<text text-anchor="middle" x="98.5" y="-112.5" font-family="Helvetica,sans-Serif" font-size="10.00">target_density_set</text>
<text text-anchor="middle" x="98.5" y="-101.5" font-family="Helvetica,sans-Serif" font-size="10.00">set_maximum_depths</text>
<text text-anchor="middle" x="98.5" y="-90.5" font-family="Helvetica,sans-Serif" font-size="10.00">boundary_extrapolation</text>
<text text-anchor="middle" x="98.5" y="-79.5" font-family="Helvetica,sans-Serif" font-size="10.00">integrate_downward_for_e</text>
</g>
<!-- Node3 -->
<g id="node3" class="node"><title>Node3</title>
<polygon fill="white" stroke="#bfbfbf" points="137,-188.5 137,-207.5 183,-207.5 183,-188.5 137,-188.5"/>
<text text-anchor="middle" x="160" y="-195.5" font-family="Helvetica,sans-Serif" font-size="10.00">integer</text>
</g>
<!-- Node3&#45;&gt;Node1 -->
<g id="edge2" class="edge"><title>Node3&#45;&gt;Node1</title>
<path fill="none" stroke="#9a32cd" stroke-dasharray="5,2" d="M160,-177.86C160,-138.211 160,-48.4172 160,-19.8812"/>
<polygon fill="#9a32cd" stroke="#9a32cd" points="156.5,-178.029 160,-188.029 163.5,-178.029 156.5,-178.029"/>
<text text-anchor="middle" x="208" y="-123.5" font-family="Helvetica,sans-Serif" font-size="10.00"> interpolation_scheme</text>
<text text-anchor="middle" x="208" y="-112.5" font-family="Helvetica,sans-Serif" font-size="10.00">degree_i</text>
<text text-anchor="middle" x="208" y="-101.5" font-family="Helvetica,sans-Serif" font-size="10.00">nz_fixed_surface</text>
<text text-anchor="middle" x="208" y="-90.5" font-family="Helvetica,sans-Serif" font-size="10.00">regridding_scheme</text>
<text text-anchor="middle" x="208" y="-79.5" font-family="Helvetica,sans-Serif" font-size="10.00">nk</text>
</g>
<!-- Node4 -->
<g id="node4" class="node"><title>Node4</title>
<polygon fill="white" stroke="#bfbfbf" points="263,-188.5 263,-207.5 295,-207.5 295,-188.5 263,-188.5"/>
<text text-anchor="middle" x="279" y="-195.5" font-family="Helvetica,sans-Serif" font-size="10.00">real</text>
</g>
<!-- Node4&#45;&gt;Node1 -->
<g id="edge3" class="edge"><title>Node4&#45;&gt;Node1</title>
<path fill="none" stroke="#9a32cd" stroke-dasharray="5,2" d="M282.343,-178.508C287.106,-145.88 291.783,-77.7865 257,-38 249.637,-29.5774 239.892,-23.6786 229.418,-19.5681"/>
<polygon fill="#9a32cd" stroke="#9a32cd" points="278.875,-178.032 280.72,-188.465 285.783,-179.159 278.875,-178.032"/>
<text text-anchor="middle" x="333.5" y="-162" font-family="Helvetica,sans-Serif" font-size="10.00"> halocline_strat_tol</text>
<text text-anchor="middle" x="333.5" y="-151" font-family="Helvetica,sans-Serif" font-size="10.00">target_density</text>
<text text-anchor="middle" x="333.5" y="-140" font-family="Helvetica,sans-Serif" font-size="10.00">max_interface_depths</text>
<text text-anchor="middle" x="333.5" y="-129" font-family="Helvetica,sans-Serif" font-size="10.00">ref_pressure</text>
<text text-anchor="middle" x="333.5" y="-118" font-family="Helvetica,sans-Serif" font-size="10.00">coordinateresolution</text>
<text text-anchor="start" x="285" y="-107" font-family="Helvetica,sans-Serif" font-size="10.00">depth_of_time_filter</text>
<text text-anchor="middle" x="333.5" y="-96" font-family="Helvetica,sans-Serif" font-size="10.00">_deep</text>
<text text-anchor="middle" x="333.5" y="-85" font-family="Helvetica,sans-Serif" font-size="10.00">rho_ml_avg_depth</text>
<text text-anchor="middle" x="333.5" y="-74" font-family="Helvetica,sans-Serif" font-size="10.00">max_layer_thickness</text>
<text text-anchor="middle" x="333.5" y="-63" font-family="Helvetica,sans-Serif" font-size="10.00">nlay_ml_offset</text>
<text text-anchor="middle" x="333.5" y="-52" font-family="Helvetica,sans-Serif" font-size="10.00">min_thickness</text>
<text text-anchor="middle" x="333.5" y="-41" font-family="Helvetica,sans-Serif" font-size="10.00">...</text>
</g>
</g>
</svg>
