<?xml version="1.0" encoding="UTF-8" standalone="no"?>
<!DOCTYPE svg PUBLIC "-//W3C//DTD SVG 1.1//EN"
 "http://www.w3.org/Graphics/SVG/1.1/DTD/svg11.dtd">
<!-- Generated by graphviz version 2.38.0 (20140413.2041)
 -->
<!-- Title: mom_diag_vkernels::diag_vkernels_unit_tests Pages: 1 -->
<svg width="349pt" height="88pt"
 viewBox="0.00 0.00 349.00 88.00" xmlns="http://www.w3.org/2000/svg" xmlns:xlink="http://www.w3.org/1999/xlink">
<g id="graph0" class="graph" transform="scale(1 1) rotate(0) translate(4 84)">
<title>mom_diag_vkernels::diag_vkernels_unit_tests</title>
<polygon fill="white" stroke="none" points="-4,4 -4,-84 345,-84 345,4 -4,4"/>
<!-- Node0 -->
<g id="node1" class="node"><title>Node0</title>
<polygon fill="#bfbfbf" stroke="black" points="0,-25.5 0,-55.5 104,-55.5 104,-25.5 0,-25.5"/>
<text text-anchor="start" x="8" y="-43.5" font-family="Helvetica,sans-Serif" font-size="10.00">mom_diag_vkernels::</text>
<text text-anchor="middle" x="52" y="-32.5" font-family="Helvetica,sans-Serif" font-size="10.00">diag_vkernels_unit_tests</text>
</g>
<!-- Node1 -->
<g id="node2" class="node"><title>Node1</title>
<g id="a_node2"><a xlink:href="../../d3/de8/MOM__diag__vkernels_8F90.html#a1bfb1facd41f8ad56f189b7c69569d50" target="_top" xlink:title="Returns true if a test of interpolate_column() produces the wrong answer. ">
<polygon fill="white" stroke="black" points="149.5,-52 149.5,-71 203.5,-71 203.5,-52 149.5,-52"/>
<text text-anchor="middle" x="176.5" y="-59" font-family="Helvetica,sans-Serif" font-size="10.00">test_interp</text>
</a>
</g>
</g>
<!-- Node0&#45;&gt;Node1 -->
<g id="edge1" class="edge"><title>Node0&#45;&gt;Node1</title>
<path fill="none" stroke="midnightblue" d="M104.241,-49.2842C115.967,-51.2943 128.195,-53.3906 139.145,-55.2677"/>
<polygon fill="midnightblue" stroke="midnightblue" points="138.745,-58.7501 149.192,-56.9901 139.928,-51.8507 138.745,-58.7501"/>
</g>
<!-- Node3 -->
<g id="node4" class="node"><title>Node3</title>
<g id="a_node4"><a xlink:href="../../d3/de8/MOM__diag__vkernels_8F90.html#ad40d8068b3cc78571f4c0c405212f7d8" target="_top" xlink:title="Returns true if a test of reintegrate_column() produces the wrong answer. ">
<polygon fill="white" stroke="black" points="140,-11 140,-30 213,-30 213,-11 140,-11"/>
<text text-anchor="middle" x="176.5" y="-18" font-family="Helvetica,sans-Serif" font-size="10.00">test_reintegrate</text>
</a>
</g>
</g>
<!-- Node0&#45;&gt;Node3 -->
<g id="edge3" class="edge"><title>Node0&#45;&gt;Node3</title>
<path fill="none" stroke="midnightblue" d="M104.241,-32.1341C112.724,-30.7491 121.471,-29.3211 129.806,-27.9603"/>
<polygon fill="midnightblue" stroke="midnightblue" points="130.418,-31.4068 139.723,-26.3411 129.29,-24.4983 130.418,-31.4068"/>
</g>
<!-- Node2 -->
<g id="node3" class="node"><title>Node2</title>
<g id="a_node3"><a xlink:href="../../dc/d2b/namespacemom__diag__vkernels.html#a4f42f472a725a147f8d97a68b2028c5b" target="_top" xlink:title="Linearly interpolate interface data, u_src, from grid h_src to a grid h_dest. ">
<polygon fill="white" stroke="black" points="249,-49.5 249,-79.5 341,-79.5 341,-49.5 249,-49.5"/>
<text text-anchor="start" x="257" y="-67.5" font-family="Helvetica,sans-Serif" font-size="10.00">mom_diag_vkernels::</text>
<text text-anchor="middle" x="295" y="-56.5" font-family="Helvetica,sans-Serif" font-size="10.00">interpolate_column</text>
</a>
</g>
</g>
<!-- Node1&#45;&gt;Node2 -->
<g id="edge2" class="edge"><title>Node1&#45;&gt;Node2</title>
<path fill="none" stroke="midnightblue" d="M203.645,-62.1733C214.022,-62.4405 226.377,-62.7586 238.566,-63.0725"/>
<polygon fill="midnightblue" stroke="midnightblue" points="238.633,-66.5753 248.72,-63.334 238.813,-59.5776 238.633,-66.5753"/>
</g>
<!-- Node4 -->
<g id="node5" class="node"><title>Node4</title>
<g id="a_node5"><a xlink:href="../../dc/d2b/namespacemom__diag__vkernels.html#a89369e4bf4b7795f6e384762d11f0d23" target="_top" xlink:title="Conservatively calculate integrated data, uh_dest, on grid h_dest, from layer&#45;integrated data...">
<polygon fill="white" stroke="black" points="249,-0.5 249,-30.5 341,-30.5 341,-0.5 249,-0.5"/>
<text text-anchor="start" x="257" y="-18.5" font-family="Helvetica,sans-Serif" font-size="10.00">mom_diag_vkernels::</text>
<text text-anchor="middle" x="295" y="-7.5" font-family="Helvetica,sans-Serif" font-size="10.00">reintegrate_column</text>
</a>
</g>
</g>
<!-- Node3&#45;&gt;Node4 -->
<g id="edge4" class="edge"><title>Node3&#45;&gt;Node4</title>
<path fill="none" stroke="midnightblue" d="M213.087,-18.9727C221.167,-18.6259 229.936,-18.2495 238.62,-17.8768"/>
<polygon fill="midnightblue" stroke="midnightblue" points="238.888,-21.3686 248.729,-17.443 238.588,-14.3751 238.888,-21.3686"/>
</g>
</g>
</svg>
