<?xml version="1.0" encoding="UTF-8" standalone="no"?>
<!DOCTYPE svg PUBLIC "-//W3C//DTD SVG 1.1//EN"
 "http://www.w3.org/Graphics/SVG/1.1/DTD/svg11.dtd">
<!-- Generated by graphviz version 2.38.0 (20140413.2041)
 -->
<!-- Title: mom_diag_vkernels::diag_vkernels_unit_tests Pages: 1 -->
<svg width="399pt" height="88pt"
 viewBox="0.00 0.00 399.00 88.00" xmlns="http://www.w3.org/2000/svg" xmlns:xlink="http://www.w3.org/1999/xlink">
<g id="graph0" class="graph" transform="scale(1 1) rotate(0) translate(4 84)">
<title>mom_diag_vkernels::diag_vkernels_unit_tests</title>
<polygon fill="white" stroke="none" points="-4,4 -4,-84 395,-84 395,4 -4,4"/>
<!-- Node0 -->
<g id="node1" class="node"><title>Node0</title>
<polygon fill="#bfbfbf" stroke="black" points="0,-25.5 0,-55.5 125,-55.5 125,-25.5 0,-25.5"/>
<text text-anchor="start" x="8" y="-43.5" font-family="Helvetica,sans-Serif" font-size="10.00">mom_diag_vkernels::</text>
<text text-anchor="middle" x="62.5" y="-32.5" font-family="Helvetica,sans-Serif" font-size="10.00">diag_vkernels_unit_tests</text>
</g>
<!-- Node1 -->
<g id="node2" class="node"><title>Node1</title>
<g id="a_node2"><a xlink:href="../../d3/de8/MOM__diag__vkernels_8F90.html#a1bfb1facd41f8ad56f189b7c69569d50" target="_top" xlink:title="Returns true if a test of interpolate_column() produces the wrong answer. ">
<polygon fill="white" stroke="black" points="172,-52 172,-71 234,-71 234,-52 172,-52"/>
<text text-anchor="middle" x="203" y="-59" font-family="Helvetica,sans-Serif" font-size="10.00">test_interp</text>
</a>
</g>
</g>
<!-- Node0&#45;&gt;Node1 -->
<g id="edge1" class="edge"><title>Node0&#45;&gt;Node1</title>
<path fill="none" stroke="midnightblue" d="M125.055,-49.8332C137.445,-51.7119 150.168,-53.641 161.61,-55.3759"/>
<polygon fill="midnightblue" stroke="midnightblue" points="161.301,-58.8689 171.713,-56.9077 162.35,-51.948 161.301,-58.8689"/>
</g>
<!-- Node3 -->
<g id="node4" class="node"><title>Node3</title>
<g id="a_node4"><a xlink:href="../../d3/de8/MOM__diag__vkernels_8F90.html#ad40d8068b3cc78571f4c0c405212f7d8" target="_top" xlink:title="Returns true if a test of reintegrate_column() produces the wrong answer. ">
<polygon fill="white" stroke="black" points="161,-11 161,-30 245,-30 245,-11 161,-11"/>
<text text-anchor="middle" x="203" y="-18" font-family="Helvetica,sans-Serif" font-size="10.00">test_reintegrate</text>
</a>
</g>
</g>
<!-- Node0&#45;&gt;Node3 -->
<g id="edge3" class="edge"><title>Node0&#45;&gt;Node3</title>
<path fill="none" stroke="midnightblue" d="M125.055,-31.6112C133.684,-30.3652 142.474,-29.0958 150.881,-27.8819"/>
<polygon fill="midnightblue" stroke="midnightblue" points="151.511,-31.3272 160.908,-26.4338 150.511,-24.3991 151.511,-31.3272"/>
</g>
<!-- Node2 -->
<g id="node3" class="node"><title>Node2</title>
<g id="a_node3"><a xlink:href="../../dc/d2b/namespacemom__diag__vkernels.html#a4f42f472a725a147f8d97a68b2028c5b" target="_top" xlink:title="Linearly interpolate interface data, u_src, from grid h_src to a grid h_dest. ">
<polygon fill="white" stroke="black" points="281,-49.5 281,-79.5 391,-79.5 391,-49.5 281,-49.5"/>
<text text-anchor="start" x="289" y="-67.5" font-family="Helvetica,sans-Serif" font-size="10.00">mom_diag_vkernels::</text>
<text text-anchor="middle" x="336" y="-56.5" font-family="Helvetica,sans-Serif" font-size="10.00">interpolate_column</text>
</a>
</g>
</g>
<!-- Node1&#45;&gt;Node2 -->
<g id="edge2" class="edge"><title>Node1&#45;&gt;Node2</title>
<path fill="none" stroke="midnightblue" d="M234.054,-62.1883C245.021,-62.4394 257.886,-62.734 270.69,-63.0272"/>
<polygon fill="midnightblue" stroke="midnightblue" points="270.83,-66.5313 280.908,-63.2612 270.991,-59.5331 270.83,-66.5313"/>
</g>
<!-- Node4 -->
<g id="node5" class="node"><title>Node4</title>
<g id="a_node5"><a xlink:href="../../dc/d2b/namespacemom__diag__vkernels.html#a89369e4bf4b7795f6e384762d11f0d23" target="_top" xlink:title="Conservatively calculate integrated data, uh_dest, on grid h_dest, from layer&#45;integrated data...">
<polygon fill="white" stroke="black" points="281,-0.5 281,-30.5 391,-30.5 391,-0.5 281,-0.5"/>
<text text-anchor="start" x="289" y="-18.5" font-family="Helvetica,sans-Serif" font-size="10.00">mom_diag_vkernels::</text>
<text text-anchor="middle" x="336" y="-7.5" font-family="Helvetica,sans-Serif" font-size="10.00">reintegrate_column</text>
</a>
</g>
</g>
<!-- Node3&#45;&gt;Node4 -->
<g id="edge4" class="edge"><title>Node3&#45;&gt;Node4</title>
<path fill="none" stroke="midnightblue" d="M245.09,-18.9317C253.18,-18.6229 261.849,-18.292 270.495,-17.962"/>
<polygon fill="midnightblue" stroke="midnightblue" points="270.739,-21.4553 280.599,-17.5764 270.472,-14.4604 270.739,-21.4553"/>
</g>
</g>
</svg>
