<?xml version="1.0" encoding="UTF-8" standalone="no"?>
<!DOCTYPE svg PUBLIC "-//W3C//DTD SVG 1.1//EN"
 "http://www.w3.org/Graphics/SVG/1.1/DTD/svg11.dtd">
<!-- Generated by graphviz version 2.38.0 (20140413.2041)
 -->
<!-- Title: mom_eos::calculate_2_densities Pages: 1 -->
<svg width="431pt" height="186pt"
 viewBox="0.00 0.00 431.00 186.00" xmlns="http://www.w3.org/2000/svg" xmlns:xlink="http://www.w3.org/1999/xlink">
<g id="graph0" class="graph" transform="scale(1 1) rotate(0) translate(4 182)">
<title>mom_eos::calculate_2_densities</title>
<polygon fill="white" stroke="none" points="-4,4 -4,-182 427,-182 427,4 -4,4"/>
<!-- Node0 -->
<g id="node1" class="node"><title>Node0</title>
<polygon fill="#bfbfbf" stroke="black" points="0,-73.5 0,-103.5 104,-103.5 104,-73.5 0,-73.5"/>
<text text-anchor="start" x="8" y="-91.5" font-family="Helvetica,sans-Serif" font-size="10.00">mom_eos::calculate</text>
<text text-anchor="middle" x="52" y="-80.5" font-family="Helvetica,sans-Serif" font-size="10.00">_2_densities</text>
</g>
<!-- Node1 -->
<g id="node2" class="node"><title>Node1</title>
<g id="a_node2"><a xlink:href="../../d5/de6/namespacemom__eos__linear.html#abb27cdcd61fd08c1fa98d97ad786e940" target="_top" xlink:title="mom_eos_linear::calculate\l_2_densities_linear">
<polygon fill="white" stroke="black" points="144,-147.5 144,-177.5 277,-177.5 277,-147.5 144,-147.5"/>
<text text-anchor="start" x="152" y="-165.5" font-family="Helvetica,sans-Serif" font-size="10.00">mom_eos_linear::calculate</text>
<text text-anchor="middle" x="210.5" y="-154.5" font-family="Helvetica,sans-Serif" font-size="10.00">_2_densities_linear</text>
</a>
</g>
</g>
<!-- Node0&#45;&gt;Node1 -->
<g id="edge1" class="edge"><title>Node0&#45;&gt;Node1</title>
<path fill="none" stroke="midnightblue" d="M76.3609,-103.545C93.521,-114.191 117.643,-128.326 140,-138.5 144.03,-140.334 148.244,-142.112 152.518,-143.815"/>
<polygon fill="midnightblue" stroke="midnightblue" points="151.332,-147.108 161.923,-147.416 153.836,-140.571 151.332,-147.108"/>
</g>
<!-- Node2 -->
<g id="node3" class="node"><title>Node2</title>
<g id="a_node3"><a xlink:href="../../dd/d6b/namespacemom__eos__unesco.html#aa254e66b5fdb6916a5a8b5989602517e" target="_top" xlink:title="mom_eos_unesco::calculate\l_2_densities_unesco">
<polygon fill="white" stroke="black" points="140,-98.5 140,-128.5 281,-128.5 281,-98.5 140,-98.5"/>
<text text-anchor="start" x="148" y="-116.5" font-family="Helvetica,sans-Serif" font-size="10.00">mom_eos_unesco::calculate</text>
<text text-anchor="middle" x="210.5" y="-105.5" font-family="Helvetica,sans-Serif" font-size="10.00">_2_densities_unesco</text>
</a>
</g>
</g>
<!-- Node0&#45;&gt;Node2 -->
<g id="edge2" class="edge"><title>Node0&#45;&gt;Node2</title>
<path fill="none" stroke="midnightblue" d="M104.244,-96.6859C112.534,-98.0103 121.286,-99.4083 130.057,-100.809"/>
<polygon fill="midnightblue" stroke="midnightblue" points="129.518,-104.268 139.945,-102.389 130.623,-97.3553 129.518,-104.268"/>
</g>
<!-- Node3 -->
<g id="node4" class="node"><title>Node3</title>
<g id="a_node4"><a xlink:href="../../de/d76/namespacemom__eos__wright.html#a744d8769f5c273fc8f369581f5842538" target="_top" xlink:title="mom_eos_wright::calculate\l_2_densities_wright">
<polygon fill="white" stroke="black" points="142.5,-49.5 142.5,-79.5 278.5,-79.5 278.5,-49.5 142.5,-49.5"/>
<text text-anchor="start" x="150.5" y="-67.5" font-family="Helvetica,sans-Serif" font-size="10.00">mom_eos_wright::calculate</text>
<text text-anchor="middle" x="210.5" y="-56.5" font-family="Helvetica,sans-Serif" font-size="10.00">_2_densities_wright</text>
</a>
</g>
</g>
<!-- Node0&#45;&gt;Node3 -->
<g id="edge3" class="edge"><title>Node0&#45;&gt;Node3</title>
<path fill="none" stroke="midnightblue" d="M104.244,-80.6415C113.308,-79.2515 122.923,-77.7769 132.513,-76.3063"/>
<polygon fill="midnightblue" stroke="midnightblue" points="133.12,-79.7543 142.474,-74.7788 132.059,-72.8351 133.12,-79.7543"/>
</g>
<!-- Node4 -->
<g id="node5" class="node"><title>Node4</title>
<g id="a_node5"><a xlink:href="../../d0/de6/namespacemom__error__handler.html#a460cfb79a06c29fc249952c2a3710d67" target="_top" xlink:title="mom_error_handler::\lmom_error">
<polygon fill="white" stroke="black" points="157.5,-0.5 157.5,-30.5 263.5,-30.5 263.5,-0.5 157.5,-0.5"/>
<text text-anchor="start" x="165.5" y="-18.5" font-family="Helvetica,sans-Serif" font-size="10.00">mom_error_handler::</text>
<text text-anchor="middle" x="210.5" y="-7.5" font-family="Helvetica,sans-Serif" font-size="10.00">mom_error</text>
</a>
</g>
</g>
<!-- Node0&#45;&gt;Node4 -->
<g id="edge4" class="edge"><title>Node0&#45;&gt;Node4</title>
<path fill="none" stroke="midnightblue" d="M77.9609,-73.3401C95.0646,-63.3008 118.467,-50.2387 140,-40.5 144.699,-38.3748 149.637,-36.3004 154.623,-34.3131"/>
<polygon fill="midnightblue" stroke="midnightblue" points="156.151,-37.4751 164.219,-30.6087 153.63,-30.9447 156.151,-37.4751"/>
</g>
<!-- Node5 -->
<g id="node6" class="node"><title>Node5</title>
<g id="a_node6"><a xlink:href="../../d0/de6/namespacemom__error__handler.html#ad5f00a53059c72fe2332d1436c80ca71" target="_top" xlink:title="mom_error_handler::\lis_root_pe">
<polygon fill="white" stroke="black" points="317,-0.5 317,-30.5 423,-30.5 423,-0.5 317,-0.5"/>
<text text-anchor="start" x="325" y="-18.5" font-family="Helvetica,sans-Serif" font-size="10.00">mom_error_handler::</text>
<text text-anchor="middle" x="370" y="-7.5" font-family="Helvetica,sans-Serif" font-size="10.00">is_root_pe</text>
</a>
</g>
</g>
<!-- Node4&#45;&gt;Node5 -->
<g id="edge5" class="edge"><title>Node4&#45;&gt;Node5</title>
<path fill="none" stroke="midnightblue" d="M263.508,-15.5C277.279,-15.5 292.289,-15.5 306.552,-15.5"/>
<polygon fill="midnightblue" stroke="midnightblue" points="306.778,-19.0001 316.778,-15.5 306.778,-12.0001 306.778,-19.0001"/>
</g>
</g>
</svg>
