<?xml version="1.0" encoding="UTF-8" standalone="no"?>
<!DOCTYPE svg PUBLIC "-//W3C//DTD SVG 1.1//EN"
 "http://www.w3.org/Graphics/SVG/1.1/DTD/svg11.dtd">
<!-- Generated by graphviz version 2.38.0 (20140413.2041)
 -->
<!-- Title: mom_eos::int_density_dz Pages: 1 -->
<svg width="427pt" height="186pt"
 viewBox="0.00 0.00 427.00 186.00" xmlns="http://www.w3.org/2000/svg" xmlns:xlink="http://www.w3.org/1999/xlink">
<g id="graph0" class="graph" transform="scale(1 1) rotate(0) translate(4 182)">
<title>mom_eos::int_density_dz</title>
<polygon fill="white" stroke="none" points="-4,4 -4,-182 423,-182 423,4 -4,4"/>
<!-- Node152 -->
<g id="node1" class="node"><title>Node152</title>
<polygon fill="#bfbfbf" stroke="black" points="0,-79 0,-98 128,-98 128,-79 0,-79"/>
<text text-anchor="middle" x="64" y="-86" font-family="Helvetica,sans-Serif" font-size="10.00">mom_eos::int_density_dz</text>
</g>
<!-- Node153 -->
<g id="node2" class="node"><title>Node153</title>
<g id="a_node2"><a xlink:href="../../d1/d01/namespacemom__eos.html#a9a8d9a5df8f211fbb4c22dcccc2f7916" target="_top" xlink:title="mom_eos::int_density\l_dz_generic">
<polygon fill="white" stroke="black" points="164,-147.5 164,-177.5 277,-177.5 277,-147.5 164,-147.5"/>
<text text-anchor="start" x="172" y="-165.5" font-family="Helvetica,sans-Serif" font-size="10.00">mom_eos::int_density</text>
<text text-anchor="middle" x="220.5" y="-154.5" font-family="Helvetica,sans-Serif" font-size="10.00">_dz_generic</text>
</a>
</g>
</g>
<!-- Node152&#45;&gt;Node153 -->
<g id="edge1" class="edge"><title>Node152&#45;&gt;Node153</title>
<path fill="none" stroke="midnightblue" d="M83.0872,-98.0429C102.815,-108.355 135.401,-125.109 164,-138.5 167.384,-140.084 170.9,-141.692 174.445,-143.286"/>
<polygon fill="midnightblue" stroke="midnightblue" points="173.27,-146.594 183.831,-147.448 176.108,-140.195 173.27,-146.594"/>
</g>
<!-- Node154 -->
<g id="node3" class="node"><title>Node154</title>
<g id="a_node3"><a xlink:href="../../d5/de6/namespacemom__eos__linear.html#aba00b479ec037448437b55295f0a6c01" target="_top" xlink:title="mom_eos_linear::int\l_density_dz_linear">
<polygon fill="white" stroke="black" points="168.5,-98.5 168.5,-128.5 272.5,-128.5 272.5,-98.5 168.5,-98.5"/>
<text text-anchor="start" x="176.5" y="-116.5" font-family="Helvetica,sans-Serif" font-size="10.00">mom_eos_linear::int</text>
<text text-anchor="middle" x="220.5" y="-105.5" font-family="Helvetica,sans-Serif" font-size="10.00">_density_dz_linear</text>
</a>
</g>
</g>
<!-- Node152&#45;&gt;Node154 -->
<g id="edge2" class="edge"><title>Node152&#45;&gt;Node154</title>
<path fill="none" stroke="midnightblue" d="M123.851,-98.0227C135.195,-99.8584 147.102,-101.785 158.512,-103.631"/>
<polygon fill="midnightblue" stroke="midnightblue" points="157.955,-107.087 168.386,-105.229 159.073,-100.177 157.955,-107.087"/>
</g>
<!-- Node155 -->
<g id="node4" class="node"><title>Node155</title>
<g id="a_node4"><a xlink:href="../../de/d76/namespacemom__eos__wright.html#adde51def9a4b771d7165d4d187e5dea8" target="_top" xlink:title="mom_eos_wright::int\l_density_dz_wright">
<polygon fill="white" stroke="black" points="167,-49.5 167,-79.5 274,-79.5 274,-49.5 167,-49.5"/>
<text text-anchor="start" x="175" y="-67.5" font-family="Helvetica,sans-Serif" font-size="10.00">mom_eos_wright::int</text>
<text text-anchor="middle" x="220.5" y="-56.5" font-family="Helvetica,sans-Serif" font-size="10.00">_density_dz_wright</text>
</a>
</g>
</g>
<!-- Node152&#45;&gt;Node155 -->
<g id="edge3" class="edge"><title>Node152&#45;&gt;Node155</title>
<path fill="none" stroke="midnightblue" d="M126.506,-78.9456C136.374,-77.4127 146.6,-75.8242 156.503,-74.286"/>
<polygon fill="midnightblue" stroke="midnightblue" points="157.332,-77.6993 166.676,-72.7057 156.257,-70.7822 157.332,-77.6993"/>
</g>
<!-- Node156 -->
<g id="node5" class="node"><title>Node156</title>
<g id="a_node5"><a xlink:href="../../d0/de6/namespacemom__error__handler.html#a460cfb79a06c29fc249952c2a3710d67" target="_top" xlink:title="mom_error_handler::\lmom_error">
<polygon fill="white" stroke="black" points="167.5,-0.5 167.5,-30.5 273.5,-30.5 273.5,-0.5 167.5,-0.5"/>
<text text-anchor="start" x="175.5" y="-18.5" font-family="Helvetica,sans-Serif" font-size="10.00">mom_error_handler::</text>
<text text-anchor="middle" x="220.5" y="-7.5" font-family="Helvetica,sans-Serif" font-size="10.00">mom_error</text>
</a>
</g>
</g>
<!-- Node152&#45;&gt;Node156 -->
<g id="edge4" class="edge"><title>Node152&#45;&gt;Node156</title>
<path fill="none" stroke="midnightblue" d="M84.2723,-78.9566C104.167,-69.152 136.142,-53.5248 164,-40.5 168.04,-38.6111 172.257,-36.6655 176.481,-34.7333"/>
<polygon fill="midnightblue" stroke="midnightblue" points="178.024,-37.877 185.678,-30.5519 175.126,-31.5046 178.024,-37.877"/>
</g>
<!-- Node157 -->
<g id="node6" class="node"><title>Node157</title>
<g id="a_node6"><a xlink:href="../../d0/de6/namespacemom__error__handler.html#ad5f00a53059c72fe2332d1436c80ca71" target="_top" xlink:title="mom_error_handler::\lis_root_pe">
<polygon fill="white" stroke="black" points="313,-0.5 313,-30.5 419,-30.5 419,-0.5 313,-0.5"/>
<text text-anchor="start" x="321" y="-18.5" font-family="Helvetica,sans-Serif" font-size="10.00">mom_error_handler::</text>
<text text-anchor="middle" x="366" y="-7.5" font-family="Helvetica,sans-Serif" font-size="10.00">is_root_pe</text>
</a>
</g>
</g>
<!-- Node156&#45;&gt;Node157 -->
<g id="edge5" class="edge"><title>Node156&#45;&gt;Node157</title>
<path fill="none" stroke="midnightblue" d="M273.713,-15.5C283.011,-15.5 292.783,-15.5 302.337,-15.5"/>
<polygon fill="midnightblue" stroke="midnightblue" points="302.586,-19.0001 312.586,-15.5 302.586,-12.0001 302.586,-19.0001"/>
</g>
</g>
</svg>
