<?xml version="1.0" encoding="UTF-8" standalone="no"?>
<!DOCTYPE svg PUBLIC "-//W3C//DTD SVG 1.1//EN"
 "http://www.w3.org/Graphics/SVG/1.1/DTD/svg11.dtd">
<!-- Generated by graphviz version 2.38.0 (20140413.2041)
 -->
<!-- Title: mom_eos::eos_allocate Pages: 1 -->
<svg width="524pt" height="66pt"
 viewBox="0.00 0.00 524.00 66.00" xmlns="http://www.w3.org/2000/svg" xmlns:xlink="http://www.w3.org/1999/xlink">
<g id="graph0" class="graph" transform="scale(1 1) rotate(0) translate(4 62)">
<title>mom_eos::eos_allocate</title>
<polygon fill="white" stroke="none" points="-4,4 -4,-62 520,-62 520,4 -4,4"/>
<!-- Node103 -->
<g id="node1" class="node"><title>Node103</title>
<polygon fill="#bfbfbf" stroke="black" points="0,-19.5 0,-38.5 120,-38.5 120,-19.5 0,-19.5"/>
<text text-anchor="middle" x="60" y="-26.5" font-family="Helvetica,sans-Serif" font-size="10.00">mom_eos::eos_allocate</text>
</g>
<!-- Node104 -->
<g id="node2" class="node"><title>Node104</title>
<g id="a_node2"><a xlink:href="../../d1/d01/namespacemom__eos.html#a6686ef94d0db1f1dcfb4284ebfc2be88" target="_top" xlink:title="Initializes EOS_type by allocating and reading parameters. ">
<polygon fill="white" stroke="black" points="156,-19.5 156,-38.5 255,-38.5 255,-19.5 156,-19.5"/>
<text text-anchor="middle" x="205.5" y="-26.5" font-family="Helvetica,sans-Serif" font-size="10.00">mom_eos::eos_init</text>
</a>
</g>
</g>
<!-- Node103&#45;&gt;Node104 -->
<g id="edge1" class="edge"><title>Node103&#45;&gt;Node104</title>
<path fill="none" stroke="midnightblue" d="M130.31,-29C138.97,-29 147.677,-29 155.927,-29"/>
<polygon fill="midnightblue" stroke="midnightblue" points="130.195,-25.5001 120.195,-29 130.195,-32.5001 130.195,-25.5001"/>
</g>
<!-- Node105 -->
<g id="node3" class="node"><title>Node105</title>
<g id="a_node3"><a xlink:href="../../df/da2/namespacemom__ice__shelf.html#ae315e8464ef8a20062e3bccb61886755" target="_top" xlink:title="mom_ice_shelf::initialize\l_ice_shelf">
<polygon fill="white" stroke="black" points="291,-14 291,-44 415,-44 415,-14 291,-14"/>
<text text-anchor="start" x="299" y="-32" font-family="Helvetica,sans-Serif" font-size="10.00">mom_ice_shelf::initialize</text>
<text text-anchor="middle" x="353" y="-21" font-family="Helvetica,sans-Serif" font-size="10.00">_ice_shelf</text>
</a>
</g>
</g>
<!-- Node104&#45;&gt;Node105 -->
<g id="edge2" class="edge"><title>Node104&#45;&gt;Node105</title>
<path fill="none" stroke="midnightblue" d="M265.423,-29C273.807,-29 282.445,-29 290.87,-29"/>
<polygon fill="midnightblue" stroke="midnightblue" points="265.354,-25.5001 255.354,-29 265.354,-32.5001 265.354,-25.5001"/>
</g>
<!-- Node106 -->
<g id="node4" class="node"><title>Node106</title>
<g id="a_node4"><a xlink:href="../../d5/d6d/ice__shelf__driver_8F90.html#aec5bef92f0dad343f545cd8d62e378d8" target="_top" xlink:title="shelf_main">
<polygon fill="white" stroke="black" points="451.5,-38.5 451.5,-57.5 515.5,-57.5 515.5,-38.5 451.5,-38.5"/>
<text text-anchor="middle" x="483.5" y="-45.5" font-family="Helvetica,sans-Serif" font-size="10.00">shelf_main</text>
</a>
</g>
</g>
<!-- Node105&#45;&gt;Node106 -->
<g id="edge3" class="edge"><title>Node105&#45;&gt;Node106</title>
<path fill="none" stroke="midnightblue" d="M425.229,-39.5319C434.399,-40.8878 443.377,-42.2153 451.404,-43.4021"/>
<polygon fill="midnightblue" stroke="midnightblue" points="425.644,-36.0553 415.239,-38.0548 424.62,-42.98 425.644,-36.0553"/>
</g>
<!-- Node107 -->
<g id="node5" class="node"><title>Node107</title>
<g id="a_node5"><a xlink:href="../../de/dbc/MOM__driver_8F90.html#a08fffeb2d8e8acbf9ed4609be6d258c6" target="_top" xlink:title="mom_main">
<polygon fill="white" stroke="black" points="451,-0.5 451,-19.5 516,-19.5 516,-0.5 451,-0.5"/>
<text text-anchor="middle" x="483.5" y="-7.5" font-family="Helvetica,sans-Serif" font-size="10.00">mom_main</text>
</a>
</g>
</g>
<!-- Node105&#45;&gt;Node107 -->
<g id="edge4" class="edge"><title>Node105&#45;&gt;Node107</title>
<path fill="none" stroke="midnightblue" d="M425.31,-18.456C434.195,-17.1424 442.897,-15.8558 450.726,-14.6982"/>
<polygon fill="midnightblue" stroke="midnightblue" points="424.62,-15.02 415.239,-19.9452 425.644,-21.9447 424.62,-15.02"/>
</g>
</g>
</svg>
