<?xml version="1.0" encoding="UTF-8" standalone="no"?>
<!DOCTYPE svg PUBLIC "-//W3C//DTD SVG 1.1//EN"
 "http://www.w3.org/Graphics/SVG/1.1/DTD/svg11.dtd">
<!-- Generated by graphviz version 2.38.0 (20140413.2041)
 -->
<!-- Title: mom_eos::find_depth_of_pressure_in_cell Pages: 1 -->
<svg width="745pt" height="186pt"
 viewBox="0.00 0.00 745.00 186.00" xmlns="http://www.w3.org/2000/svg" xmlns:xlink="http://www.w3.org/1999/xlink">
<g id="graph0" class="graph" transform="scale(1 1) rotate(0) translate(4 182)">
<title>mom_eos::find_depth_of_pressure_in_cell</title>
<polygon fill="white" stroke="none" points="-4,4 -4,-182 741,-182 741,4 -4,4"/>
<!-- Node134 -->
<g id="node1" class="node"><title>Node134</title>
<polygon fill="#bfbfbf" stroke="black" points="0,-73.5 0,-103.5 110,-103.5 110,-73.5 0,-73.5"/>
<text text-anchor="start" x="8" y="-91.5" font-family="Helvetica,sans-Serif" font-size="10.00">mom_eos::find_depth</text>
<text text-anchor="middle" x="55" y="-80.5" font-family="Helvetica,sans-Serif" font-size="10.00">_of_pressure_in_cell</text>
</g>
<!-- Node135 -->
<g id="node2" class="node"><title>Node135</title>
<g id="a_node2"><a xlink:href="../../d1/d01/namespacemom__eos.html#a82d46c07f4f9c7ad5930fa2508c3e280" target="_top" xlink:title="Returns change in anomalous pressure change from top to non&#45;dimensional position pos between z_t and ...">
<polygon fill="white" stroke="black" points="146,-79 146,-98 278,-98 278,-79 146,-79"/>
<text text-anchor="middle" x="212" y="-86" font-family="Helvetica,sans-Serif" font-size="10.00">mom_eos::frac_dp_at_pos</text>
</a>
</g>
</g>
<!-- Node134&#45;&gt;Node135 -->
<g id="edge1" class="edge"><title>Node134&#45;&gt;Node135</title>
<path fill="none" stroke="midnightblue" d="M110.211,-88.5C118.494,-88.5 127.168,-88.5 135.803,-88.5"/>
<polygon fill="midnightblue" stroke="midnightblue" points="135.898,-92.0001 145.898,-88.5 135.898,-85.0001 135.898,-92.0001"/>
</g>
<!-- Node136 -->
<g id="node3" class="node"><title>Node136</title>
<g id="a_node3"><a xlink:href="../../d1/d01/namespacemom__eos.html#a4fe43b1b2cd799d87411aa66e1d10ab5" target="_top" xlink:title="Calls the appropriate subroutine to calculate the density of sea water for 1&#45;D array inputs...">
<polygon fill="white" stroke="black" points="314,-73.5 314,-103.5 418,-103.5 418,-73.5 314,-73.5"/>
<text text-anchor="start" x="322" y="-91.5" font-family="Helvetica,sans-Serif" font-size="10.00">mom_eos::calculate</text>
<text text-anchor="middle" x="366" y="-80.5" font-family="Helvetica,sans-Serif" font-size="10.00">_density_array</text>
</a>
</g>
</g>
<!-- Node135&#45;&gt;Node136 -->
<g id="edge2" class="edge"><title>Node135&#45;&gt;Node136</title>
<path fill="none" stroke="midnightblue" d="M278.344,-88.5C286.81,-88.5 295.456,-88.5 303.851,-88.5"/>
<polygon fill="midnightblue" stroke="midnightblue" points="303.937,-92.0001 313.937,-88.5 303.937,-85.0001 303.937,-92.0001"/>
</g>
<!-- Node137 -->
<g id="node4" class="node"><title>Node137</title>
<g id="a_node4"><a xlink:href="../../d5/de6/namespacemom__eos__linear.html#acbc446c55f65ed258e00bfa733a4c4d1" target="_top" xlink:title="mom_eos_linear::calculate\l_density_array_linear">
<polygon fill="white" stroke="black" points="458,-147.5 458,-177.5 591,-177.5 591,-147.5 458,-147.5"/>
<text text-anchor="start" x="466" y="-165.5" font-family="Helvetica,sans-Serif" font-size="10.00">mom_eos_linear::calculate</text>
<text text-anchor="middle" x="524.5" y="-154.5" font-family="Helvetica,sans-Serif" font-size="10.00">_density_array_linear</text>
</a>
</g>
</g>
<!-- Node136&#45;&gt;Node137 -->
<g id="edge3" class="edge"><title>Node136&#45;&gt;Node137</title>
<path fill="none" stroke="midnightblue" d="M390.361,-103.545C407.521,-114.191 431.643,-128.326 454,-138.5 458.03,-140.334 462.244,-142.112 466.518,-143.815"/>
<polygon fill="midnightblue" stroke="midnightblue" points="465.332,-147.108 475.923,-147.416 467.836,-140.571 465.332,-147.108"/>
</g>
<!-- Node138 -->
<g id="node5" class="node"><title>Node138</title>
<g id="a_node5"><a xlink:href="../../dd/d6b/namespacemom__eos__unesco.html#a2cc5b64d7214e8cd2701f4e952f6d1c1" target="_top" xlink:title="mom_eos_unesco::calculate\l_density_array_unesco">
<polygon fill="white" stroke="black" points="454,-98.5 454,-128.5 595,-128.5 595,-98.5 454,-98.5"/>
<text text-anchor="start" x="462" y="-116.5" font-family="Helvetica,sans-Serif" font-size="10.00">mom_eos_unesco::calculate</text>
<text text-anchor="middle" x="524.5" y="-105.5" font-family="Helvetica,sans-Serif" font-size="10.00">_density_array_unesco</text>
</a>
</g>
</g>
<!-- Node136&#45;&gt;Node138 -->
<g id="edge4" class="edge"><title>Node136&#45;&gt;Node138</title>
<path fill="none" stroke="midnightblue" d="M418.244,-96.6859C426.534,-98.0103 435.286,-99.4083 444.057,-100.809"/>
<polygon fill="midnightblue" stroke="midnightblue" points="443.518,-104.268 453.945,-102.389 444.623,-97.3553 443.518,-104.268"/>
</g>
<!-- Node139 -->
<g id="node6" class="node"><title>Node139</title>
<g id="a_node6"><a xlink:href="../../de/d76/namespacemom__eos__wright.html#a61a76e245f361e0b3583f866d00df40a" target="_top" xlink:title="mom_eos_wright::calculate\l_density_array_wright">
<polygon fill="white" stroke="black" points="456.5,-49.5 456.5,-79.5 592.5,-79.5 592.5,-49.5 456.5,-49.5"/>
<text text-anchor="start" x="464.5" y="-67.5" font-family="Helvetica,sans-Serif" font-size="10.00">mom_eos_wright::calculate</text>
<text text-anchor="middle" x="524.5" y="-56.5" font-family="Helvetica,sans-Serif" font-size="10.00">_density_array_wright</text>
</a>
</g>
</g>
<!-- Node136&#45;&gt;Node139 -->
<g id="edge5" class="edge"><title>Node136&#45;&gt;Node139</title>
<path fill="none" stroke="midnightblue" d="M418.244,-80.6415C427.308,-79.2515 436.923,-77.7769 446.513,-76.3063"/>
<polygon fill="midnightblue" stroke="midnightblue" points="447.12,-79.7543 456.474,-74.7788 446.059,-72.8351 447.12,-79.7543"/>
</g>
<!-- Node140 -->
<g id="node7" class="node"><title>Node140</title>
<g id="a_node7"><a xlink:href="../../d0/de6/namespacemom__error__handler.html#a460cfb79a06c29fc249952c2a3710d67" target="_top" xlink:title="mom_error_handler::\lmom_error">
<polygon fill="white" stroke="black" points="471.5,-0.5 471.5,-30.5 577.5,-30.5 577.5,-0.5 471.5,-0.5"/>
<text text-anchor="start" x="479.5" y="-18.5" font-family="Helvetica,sans-Serif" font-size="10.00">mom_error_handler::</text>
<text text-anchor="middle" x="524.5" y="-7.5" font-family="Helvetica,sans-Serif" font-size="10.00">mom_error</text>
</a>
</g>
</g>
<!-- Node136&#45;&gt;Node140 -->
<g id="edge6" class="edge"><title>Node136&#45;&gt;Node140</title>
<path fill="none" stroke="midnightblue" d="M391.961,-73.3401C409.065,-63.3008 432.467,-50.2387 454,-40.5 458.699,-38.3748 463.637,-36.3004 468.623,-34.3131"/>
<polygon fill="midnightblue" stroke="midnightblue" points="470.151,-37.4751 478.219,-30.6087 467.63,-30.9447 470.151,-37.4751"/>
</g>
<!-- Node141 -->
<g id="node8" class="node"><title>Node141</title>
<g id="a_node8"><a xlink:href="../../d0/de6/namespacemom__error__handler.html#ad5f00a53059c72fe2332d1436c80ca71" target="_top" xlink:title="mom_error_handler::\lis_root_pe">
<polygon fill="white" stroke="black" points="631,-0.5 631,-30.5 737,-30.5 737,-0.5 631,-0.5"/>
<text text-anchor="start" x="639" y="-18.5" font-family="Helvetica,sans-Serif" font-size="10.00">mom_error_handler::</text>
<text text-anchor="middle" x="684" y="-7.5" font-family="Helvetica,sans-Serif" font-size="10.00">is_root_pe</text>
</a>
</g>
</g>
<!-- Node140&#45;&gt;Node141 -->
<g id="edge7" class="edge"><title>Node140&#45;&gt;Node141</title>
<path fill="none" stroke="midnightblue" d="M577.508,-15.5C591.279,-15.5 606.289,-15.5 620.552,-15.5"/>
<polygon fill="midnightblue" stroke="midnightblue" points="620.778,-19.0001 630.778,-15.5 620.778,-12.0001 620.778,-19.0001"/>
</g>
</g>
</svg>
