<?xml version="1.0" encoding="UTF-8" standalone="no"?>
<!DOCTYPE svg PUBLIC "-//W3C//DTD SVG 1.1//EN"
 "http://www.w3.org/Graphics/SVG/1.1/DTD/svg11.dtd">
<!-- Generated by graphviz version 2.38.0 (20140413.2041)
 -->
<!-- Title: mom_eos::frac_dp_at_pos Pages: 1 -->
<svg width="599pt" height="186pt"
 viewBox="0.00 0.00 599.00 186.00" xmlns="http://www.w3.org/2000/svg" xmlns:xlink="http://www.w3.org/1999/xlink">
<g id="graph0" class="graph" transform="scale(1 1) rotate(0) translate(4 182)">
<title>mom_eos::frac_dp_at_pos</title>
<polygon fill="white" stroke="none" points="-4,4 -4,-182 595,-182 595,4 -4,4"/>
<!-- Node143 -->
<g id="node1" class="node"><title>Node143</title>
<polygon fill="#bfbfbf" stroke="black" points="0,-79 0,-98 132,-98 132,-79 0,-79"/>
<text text-anchor="middle" x="66" y="-86" font-family="Helvetica,sans-Serif" font-size="10.00">mom_eos::frac_dp_at_pos</text>
</g>
<!-- Node144 -->
<g id="node2" class="node"><title>Node144</title>
<g id="a_node2"><a xlink:href="../../d1/d01/namespacemom__eos.html#a4fe43b1b2cd799d87411aa66e1d10ab5" target="_top" xlink:title="Calls the appropriate subroutine to calculate the density of sea water for 1&#45;D array inputs...">
<polygon fill="white" stroke="black" points="168,-73.5 168,-103.5 272,-103.5 272,-73.5 168,-73.5"/>
<text text-anchor="start" x="176" y="-91.5" font-family="Helvetica,sans-Serif" font-size="10.00">mom_eos::calculate</text>
<text text-anchor="middle" x="220" y="-80.5" font-family="Helvetica,sans-Serif" font-size="10.00">_density_array</text>
</a>
</g>
</g>
<!-- Node143&#45;&gt;Node144 -->
<g id="edge1" class="edge"><title>Node143&#45;&gt;Node144</title>
<path fill="none" stroke="midnightblue" d="M132.344,-88.5C140.81,-88.5 149.456,-88.5 157.851,-88.5"/>
<polygon fill="midnightblue" stroke="midnightblue" points="157.937,-92.0001 167.937,-88.5 157.937,-85.0001 157.937,-92.0001"/>
</g>
<!-- Node145 -->
<g id="node3" class="node"><title>Node145</title>
<g id="a_node3"><a xlink:href="../../d5/de6/namespacemom__eos__linear.html#acbc446c55f65ed258e00bfa733a4c4d1" target="_top" xlink:title="mom_eos_linear::calculate\l_density_array_linear">
<polygon fill="white" stroke="black" points="312,-147.5 312,-177.5 445,-177.5 445,-147.5 312,-147.5"/>
<text text-anchor="start" x="320" y="-165.5" font-family="Helvetica,sans-Serif" font-size="10.00">mom_eos_linear::calculate</text>
<text text-anchor="middle" x="378.5" y="-154.5" font-family="Helvetica,sans-Serif" font-size="10.00">_density_array_linear</text>
</a>
</g>
</g>
<!-- Node144&#45;&gt;Node145 -->
<g id="edge2" class="edge"><title>Node144&#45;&gt;Node145</title>
<path fill="none" stroke="midnightblue" d="M244.361,-103.545C261.521,-114.191 285.643,-128.326 308,-138.5 312.03,-140.334 316.244,-142.112 320.518,-143.815"/>
<polygon fill="midnightblue" stroke="midnightblue" points="319.332,-147.108 329.923,-147.416 321.836,-140.571 319.332,-147.108"/>
</g>
<!-- Node146 -->
<g id="node4" class="node"><title>Node146</title>
<g id="a_node4"><a xlink:href="../../dd/d6b/namespacemom__eos__unesco.html#a2cc5b64d7214e8cd2701f4e952f6d1c1" target="_top" xlink:title="mom_eos_unesco::calculate\l_density_array_unesco">
<polygon fill="white" stroke="black" points="308,-98.5 308,-128.5 449,-128.5 449,-98.5 308,-98.5"/>
<text text-anchor="start" x="316" y="-116.5" font-family="Helvetica,sans-Serif" font-size="10.00">mom_eos_unesco::calculate</text>
<text text-anchor="middle" x="378.5" y="-105.5" font-family="Helvetica,sans-Serif" font-size="10.00">_density_array_unesco</text>
</a>
</g>
</g>
<!-- Node144&#45;&gt;Node146 -->
<g id="edge3" class="edge"><title>Node144&#45;&gt;Node146</title>
<path fill="none" stroke="midnightblue" d="M272.244,-96.6859C280.534,-98.0103 289.286,-99.4083 298.057,-100.809"/>
<polygon fill="midnightblue" stroke="midnightblue" points="297.518,-104.268 307.945,-102.389 298.623,-97.3553 297.518,-104.268"/>
</g>
<!-- Node147 -->
<g id="node5" class="node"><title>Node147</title>
<g id="a_node5"><a xlink:href="../../de/d76/namespacemom__eos__wright.html#a61a76e245f361e0b3583f866d00df40a" target="_top" xlink:title="mom_eos_wright::calculate\l_density_array_wright">
<polygon fill="white" stroke="black" points="310.5,-49.5 310.5,-79.5 446.5,-79.5 446.5,-49.5 310.5,-49.5"/>
<text text-anchor="start" x="318.5" y="-67.5" font-family="Helvetica,sans-Serif" font-size="10.00">mom_eos_wright::calculate</text>
<text text-anchor="middle" x="378.5" y="-56.5" font-family="Helvetica,sans-Serif" font-size="10.00">_density_array_wright</text>
</a>
</g>
</g>
<!-- Node144&#45;&gt;Node147 -->
<g id="edge4" class="edge"><title>Node144&#45;&gt;Node147</title>
<path fill="none" stroke="midnightblue" d="M272.244,-80.6415C281.308,-79.2515 290.923,-77.7769 300.513,-76.3063"/>
<polygon fill="midnightblue" stroke="midnightblue" points="301.12,-79.7543 310.474,-74.7788 300.059,-72.8351 301.12,-79.7543"/>
</g>
<!-- Node148 -->
<g id="node6" class="node"><title>Node148</title>
<g id="a_node6"><a xlink:href="../../d0/de6/namespacemom__error__handler.html#a460cfb79a06c29fc249952c2a3710d67" target="_top" xlink:title="mom_error_handler::\lmom_error">
<polygon fill="white" stroke="black" points="325.5,-0.5 325.5,-30.5 431.5,-30.5 431.5,-0.5 325.5,-0.5"/>
<text text-anchor="start" x="333.5" y="-18.5" font-family="Helvetica,sans-Serif" font-size="10.00">mom_error_handler::</text>
<text text-anchor="middle" x="378.5" y="-7.5" font-family="Helvetica,sans-Serif" font-size="10.00">mom_error</text>
</a>
</g>
</g>
<!-- Node144&#45;&gt;Node148 -->
<g id="edge5" class="edge"><title>Node144&#45;&gt;Node148</title>
<path fill="none" stroke="midnightblue" d="M245.961,-73.3401C263.065,-63.3008 286.467,-50.2387 308,-40.5 312.699,-38.3748 317.637,-36.3004 322.623,-34.3131"/>
<polygon fill="midnightblue" stroke="midnightblue" points="324.151,-37.4751 332.219,-30.6087 321.63,-30.9447 324.151,-37.4751"/>
</g>
<!-- Node149 -->
<g id="node7" class="node"><title>Node149</title>
<g id="a_node7"><a xlink:href="../../d0/de6/namespacemom__error__handler.html#ad5f00a53059c72fe2332d1436c80ca71" target="_top" xlink:title="mom_error_handler::\lis_root_pe">
<polygon fill="white" stroke="black" points="485,-0.5 485,-30.5 591,-30.5 591,-0.5 485,-0.5"/>
<text text-anchor="start" x="493" y="-18.5" font-family="Helvetica,sans-Serif" font-size="10.00">mom_error_handler::</text>
<text text-anchor="middle" x="538" y="-7.5" font-family="Helvetica,sans-Serif" font-size="10.00">is_root_pe</text>
</a>
</g>
</g>
<!-- Node148&#45;&gt;Node149 -->
<g id="edge6" class="edge"><title>Node148&#45;&gt;Node149</title>
<path fill="none" stroke="midnightblue" d="M431.508,-15.5C445.279,-15.5 460.289,-15.5 474.552,-15.5"/>
<polygon fill="midnightblue" stroke="midnightblue" points="474.778,-19.0001 484.778,-15.5 474.778,-12.0001 474.778,-19.0001"/>
</g>
</g>
</svg>
