<?xml version="1.0" encoding="UTF-8" standalone="no"?>
<!DOCTYPE svg PUBLIC "-//W3C//DTD SVG 1.1//EN"
 "http://www.w3.org/Graphics/SVG/1.1/DTD/svg11.dtd">
<!-- Generated by graphviz version 2.38.0 (20140413.2041)
 -->
<!-- Title: mom_diag_mediator::axes_grp Pages: 1 -->
<svg width="667pt" height="738pt"
 viewBox="0.00 0.00 667.00 738.00" xmlns="http://www.w3.org/2000/svg" xmlns:xlink="http://www.w3.org/1999/xlink">
<g id="graph0" class="graph" transform="scale(1 1) rotate(0) translate(4 734)">
<title>mom_diag_mediator::axes_grp</title>
<polygon fill="white" stroke="none" points="-4,4 -4,-734 663,-734 663,4 -4,4"/>
<!-- Node1 -->
<g id="node1" class="node"><title>Node1</title>
<polygon fill="#bfbfbf" stroke="black" points="170,-526 170,-556 265,-556 265,-526 170,-526"/>
<text text-anchor="start" x="178" y="-544" font-family="Helvetica,sans-Serif" font-size="10.00">mom_diag_mediator::</text>
<text text-anchor="middle" x="217.5" y="-533" font-family="Helvetica,sans-Serif" font-size="10.00">axes_grp</text>
</g>
<!-- Node3 -->
<g id="node3" class="node"><title>Node3</title>
<g id="a_node3"><a xlink:href="../../de/d92/structmom__diag__mediator_1_1diag__ctrl.html" target="_top" xlink:title="The following data type a list of diagnostic fields an their variants, as well as variables that cont...">
<polygon fill="white" stroke="black" points="564,-193 564,-223 659,-223 659,-193 564,-193"/>
<text text-anchor="start" x="572" y="-211" font-family="Helvetica,sans-Serif" font-size="10.00">mom_diag_mediator::</text>
<text text-anchor="middle" x="611.5" y="-200" font-family="Helvetica,sans-Serif" font-size="10.00">diag_ctrl</text>
</a>
</g>
</g>
<!-- Node1&#45;&gt;Node3 -->
<g id="edge15" class="edge"><title>Node1&#45;&gt;Node3</title>
<path fill="none" stroke="#9a32cd" stroke-dasharray="5,2" d="M245.071,-562.054C256.168,-569.698 269.586,-577.545 283,-582 396.16,-619.585 483.963,-630.83 546,-529 609.141,-425.359 611.826,-271.323 610.978,-223.034"/>
<polygon fill="#9a32cd" stroke="#9a32cd" points="246.874,-559.039 236.714,-556.036 242.783,-564.72 246.874,-559.039"/>
<text text-anchor="middle" x="423.5" y="-722" font-family="Helvetica,sans-Serif" font-size="10.00"> axescvzl</text>
<text text-anchor="middle" x="423.5" y="-711" font-family="Helvetica,sans-Serif" font-size="10.00">axeszi</text>
<text text-anchor="middle" x="423.5" y="-700" font-family="Helvetica,sans-Serif" font-size="10.00">axescui</text>
<text text-anchor="middle" x="423.5" y="-689" font-family="Helvetica,sans-Serif" font-size="10.00">axest1</text>
<text text-anchor="middle" x="423.5" y="-678" font-family="Helvetica,sans-Serif" font-size="10.00">axesb1</text>
<text text-anchor="middle" x="423.5" y="-667" font-family="Helvetica,sans-Serif" font-size="10.00">axeszl</text>
<text text-anchor="middle" x="423.5" y="-656" font-family="Helvetica,sans-Serif" font-size="10.00">axescvi</text>
<text text-anchor="middle" x="423.5" y="-645" font-family="Helvetica,sans-Serif" font-size="10.00">axescul</text>
<text text-anchor="middle" x="423.5" y="-634" font-family="Helvetica,sans-Serif" font-size="10.00">axesti</text>
<text text-anchor="middle" x="423.5" y="-623" font-family="Helvetica,sans-Serif" font-size="10.00">axescvl</text>
<text text-anchor="middle" x="423.5" y="-612" font-family="Helvetica,sans-Serif" font-size="10.00">...</text>
</g>
<!-- Node5 -->
<g id="node5" class="node"><title>Node5</title>
<g id="a_node5"><a xlink:href="../../d9/d4e/structmom__diag__mediator_1_1diag__type.html" target="_top" xlink:title="This type is used to represent a diagnostic at the diag_mediator level. There can be both &#39;primary&#39; a...">
<polygon fill="white" stroke="black" points="376,-348 376,-378 471,-378 471,-348 376,-348"/>
<text text-anchor="start" x="384" y="-366" font-family="Helvetica,sans-Serif" font-size="10.00">mom_diag_mediator::</text>
<text text-anchor="middle" x="423.5" y="-355" font-family="Helvetica,sans-Serif" font-size="10.00">diag_type</text>
</a>
</g>
</g>
<!-- Node1&#45;&gt;Node5 -->
<g id="edge9" class="edge"><title>Node1&#45;&gt;Node5</title>
<path fill="none" stroke="#9a32cd" stroke-dasharray="5,2" d="M228.413,-516.394C238.783,-493.663 257.169,-460.546 283,-441 310.803,-419.962 327.433,-434.771 358,-418 377.353,-407.382 396.171,-390.324 408.437,-378.019"/>
<polygon fill="#9a32cd" stroke="#9a32cd" points="225.133,-515.16 224.338,-525.725 231.548,-517.962 225.133,-515.16"/>
<text text-anchor="middle" x="320.5" y="-444" font-family="Helvetica,sans-Serif" font-size="10.00"> remap_axes</text>
</g>
<!-- Node2 -->
<g id="node2" class="node"><title>Node2</title>
<polygon fill="white" stroke="#bfbfbf" points="21,-464.5 21,-483.5 59,-483.5 59,-464.5 21,-464.5"/>
<text text-anchor="middle" x="40" y="-471.5" font-family="Helvetica,sans-Serif" font-size="10.00">logical</text>
</g>
<!-- Node2&#45;&gt;Node1 -->
<g id="edge1" class="edge"><title>Node2&#45;&gt;Node1</title>
<path fill="none" stroke="#9a32cd" stroke-dasharray="5,2" d="M68.6879,-484.57C97.888,-495.718 144.147,-513.378 177.135,-525.972"/>
<polygon fill="#9a32cd" stroke="#9a32cd" points="69.7112,-481.215 59.1206,-480.918 67.2146,-487.754 69.7112,-481.215"/>
<text text-anchor="middle" x="125" y="-519" font-family="Helvetica,sans-Serif" font-size="10.00"> is_h_point</text>
</g>
<!-- Node2&#45;&gt;Node3 -->
<g id="edge3" class="edge"><title>Node2&#45;&gt;Node3</title>
<path fill="none" stroke="#9a32cd" stroke-dasharray="5,2" d="M69.323,-473.475C158.915,-471.715 432.513,-465.53 471,-455 507.439,-445.031 521.911,-444.101 546,-415 594.845,-355.993 606.792,-259.994 609.637,-223.102"/>
<polygon fill="#9a32cd" stroke="#9a32cd" points="69.034,-469.98 59.1034,-473.673 69.1691,-476.979 69.034,-469.98"/>
<text text-anchor="middle" x="320.5" y="-548" font-family="Helvetica,sans-Serif" font-size="10.00"> ave_enabled</text>
<text text-anchor="start" x="283" y="-537" font-family="Helvetica,sans-Serif" font-size="10.00">do_z_remapping_on</text>
<text text-anchor="middle" x="320.5" y="-526" font-family="Helvetica,sans-Serif" font-size="10.00">_t</text>
<text text-anchor="start" x="283" y="-515" font-family="Helvetica,sans-Serif" font-size="10.00">do_z_remapping</text>
<text text-anchor="middle" x="320.5" y="-504" font-family="Helvetica,sans-Serif" font-size="10.00">_on_u</text>
<text text-anchor="start" x="283" y="-493" font-family="Helvetica,sans-Serif" font-size="10.00">do_z_remapping</text>
<text text-anchor="middle" x="320.5" y="-482" font-family="Helvetica,sans-Serif" font-size="10.00">_on_v</text>
<text text-anchor="middle" x="320.5" y="-471" font-family="Helvetica,sans-Serif" font-size="10.00">remapping_initialized</text>
</g>
<!-- Node2&#45;&gt;Node5 -->
<g id="edge6" class="edge"><title>Node2&#45;&gt;Node5</title>
<path fill="none" stroke="#9a32cd" stroke-dasharray="5,2" d="M69.074,-465.832C134.083,-446.917 295.513,-399.948 375.726,-376.609"/>
<polygon fill="#9a32cd" stroke="#9a32cd" points="67.7679,-462.566 59.1439,-468.721 69.7235,-469.288 67.7679,-462.566"/>
<text text-anchor="middle" x="217.5" y="-438" font-family="Helvetica,sans-Serif" font-size="10.00"> in_use</text>
</g>
<!-- Node3&#45;&gt;Node1 -->
<g id="edge2" class="edge"><title>Node3&#45;&gt;Node1</title>
<path fill="none" stroke="#9a32cd" stroke-dasharray="5,2" d="M607.722,-232.97C600.463,-294.145 579.159,-449.329 546,-488 466.88,-580.272 402.911,-582.887 283,-563 274.013,-561.509 264.596,-558.925 255.822,-556.04"/>
<polygon fill="#9a32cd" stroke="#9a32cd" points="611.202,-233.35 608.878,-223.013 604.248,-232.543 611.202,-233.35"/>
<text text-anchor="middle" x="423.5" y="-577" font-family="Helvetica,sans-Serif" font-size="10.00"> diag_cs</text>
</g>
<!-- Node4 -->
<g id="node4" class="node"><title>Node4</title>
<polygon fill="white" stroke="#bfbfbf" points="390,-426.5 390,-445.5 457,-445.5 457,-426.5 390,-426.5"/>
<text text-anchor="middle" x="423.5" y="-433.5" font-family="Helvetica,sans-Serif" font-size="10.00">remapping_cs</text>
</g>
<!-- Node4&#45;&gt;Node3 -->
<g id="edge4" class="edge"><title>Node4&#45;&gt;Node3</title>
<path fill="none" stroke="#9a32cd" stroke-dasharray="5,2" d="M461.243,-422.006C464.652,-420.176 467.963,-418.173 471,-416 543.666,-364.004 589.56,-261.454 604.839,-223.019"/>
<polygon fill="#9a32cd" stroke="#9a32cd" points="459.576,-418.924 452.108,-426.44 462.633,-425.222 459.576,-418.924"/>
<text text-anchor="middle" x="517.5" y="-403" font-family="Helvetica,sans-Serif" font-size="10.00"> remap_cs</text>
</g>
<!-- Node5&#45;&gt;Node3 -->
<g id="edge5" class="edge"><title>Node5&#45;&gt;Node3</title>
<path fill="none" stroke="#9a32cd" stroke-dasharray="5,2" d="M458.055,-342.257C462.484,-339.258 466.904,-336.125 471,-333 518.827,-296.506 570.381,-247.478 595.298,-223.09"/>
<polygon fill="#9a32cd" stroke="#9a32cd" points="456.033,-339.398 449.61,-347.824 459.886,-345.242 456.033,-339.398"/>
<text text-anchor="middle" x="517.5" y="-321" font-family="Helvetica,sans-Serif" font-size="10.00"> diags</text>
</g>
<!-- Node5&#45;&gt;Node5 -->
<g id="edge8" class="edge"><title>Node5&#45;&gt;Node5</title>
<path fill="none" stroke="#9a32cd" stroke-dasharray="5,2" d="M406.797,-388.458C408.87,-393.179 414.438,-396.5 423.5,-396.5 438.371,-396.5 443.832,-387.557 439.881,-378.159"/>
<polygon fill="#9a32cd" stroke="#9a32cd" points="410.305,-388.263 407.119,-378.159 403.308,-388.045 410.305,-388.263"/>
<text text-anchor="middle" x="423.5" y="-399.5" font-family="Helvetica,sans-Serif" font-size="10.00"> next</text>
</g>
<!-- Node6 -->
<g id="node6" class="node"><title>Node6</title>
<polygon fill="white" stroke="#bfbfbf" points="185,-353.5 185,-372.5 250,-372.5 250,-353.5 185,-353.5"/>
<text text-anchor="middle" x="217.5" y="-360.5" font-family="Helvetica,sans-Serif" font-size="10.00">character(16)</text>
</g>
<!-- Node6&#45;&gt;Node5 -->
<g id="edge7" class="edge"><title>Node6&#45;&gt;Node5</title>
<path fill="none" stroke="#9a32cd" stroke-dasharray="5,2" d="M260.755,-363C294.264,-363 341.058,-363 375.698,-363"/>
<polygon fill="#9a32cd" stroke="#9a32cd" points="260.375,-359.5 250.375,-363 260.375,-366.5 260.375,-359.5"/>
<text text-anchor="middle" x="320.5" y="-366" font-family="Helvetica,sans-Serif" font-size="10.00"> debug_str</text>
</g>
<!-- Node7 -->
<g id="node7" class="node"><title>Node7</title>
<polygon fill="white" stroke="#bfbfbf" points="202.5,-247.5 202.5,-266.5 232.5,-266.5 232.5,-247.5 202.5,-247.5"/>
<text text-anchor="middle" x="217.5" y="-254.5" font-family="Helvetica,sans-Serif" font-size="10.00">real</text>
</g>
<!-- Node7&#45;&gt;Node3 -->
<g id="edge17" class="edge"><title>Node7&#45;&gt;Node3</title>
<path fill="none" stroke="#9a32cd" stroke-dasharray="5,2" d="M242.829,-253.451C271.07,-248.909 318.784,-239.923 358,-226 366.429,-223.007 367.336,-219.222 376,-217 439.539,-200.708 515.908,-201.349 563.838,-204.068"/>
<polygon fill="#9a32cd" stroke="#9a32cd" points="242.023,-250.034 232.678,-255.026 243.096,-256.951 242.023,-250.034"/>
<text text-anchor="middle" x="423.5" y="-330" font-family="Helvetica,sans-Serif" font-size="10.00"> h</text>
<text text-anchor="middle" x="423.5" y="-319" font-family="Helvetica,sans-Serif" font-size="10.00">mask3dtl</text>
<text text-anchor="middle" x="423.5" y="-308" font-family="Helvetica,sans-Serif" font-size="10.00">time_int</text>
<text text-anchor="middle" x="423.5" y="-297" font-family="Helvetica,sans-Serif" font-size="10.00">mask3dcvi</text>
<text text-anchor="middle" x="423.5" y="-286" font-family="Helvetica,sans-Serif" font-size="10.00">mask3dcui</text>
<text text-anchor="middle" x="423.5" y="-275" font-family="Helvetica,sans-Serif" font-size="10.00">mask3dbui</text>
<text text-anchor="middle" x="423.5" y="-264" font-family="Helvetica,sans-Serif" font-size="10.00">mask2dt</text>
<text text-anchor="middle" x="423.5" y="-253" font-family="Helvetica,sans-Serif" font-size="10.00">zi_remap</text>
<text text-anchor="middle" x="423.5" y="-242" font-family="Helvetica,sans-Serif" font-size="10.00">mask3dcvl</text>
<text text-anchor="middle" x="423.5" y="-231" font-family="Helvetica,sans-Serif" font-size="10.00">mask3dcul</text>
<text text-anchor="middle" x="423.5" y="-220" font-family="Helvetica,sans-Serif" font-size="10.00">...</text>
</g>
<!-- Node7&#45;&gt;Node5 -->
<g id="edge10" class="edge"><title>Node7&#45;&gt;Node5</title>
<path fill="none" stroke="#9a32cd" stroke-dasharray="5,2" d="M243.36,-256.871C278.721,-257.203 341.133,-259.851 358,-274 379.004,-291.619 359.475,-311.125 376,-333 380.285,-338.673 385.979,-343.572 391.908,-347.672"/>
<polygon fill="#9a32cd" stroke="#9a32cd" points="242.935,-253.37 232.922,-256.834 242.909,-260.37 242.935,-253.37"/>
<text text-anchor="middle" x="320.5" y="-299" font-family="Helvetica,sans-Serif" font-size="10.00"> mask3d</text>
<text text-anchor="middle" x="320.5" y="-288" font-family="Helvetica,sans-Serif" font-size="10.00">mask2d</text>
<text text-anchor="middle" x="320.5" y="-277" font-family="Helvetica,sans-Serif" font-size="10.00">conversion_factor</text>
</g>
<!-- Node8 -->
<g id="node8" class="node"><title>Node8</title>
<polygon fill="white" stroke="#bfbfbf" points="19.5,-311.5 19.5,-330.5 60.5,-330.5 60.5,-311.5 19.5,-311.5"/>
<text text-anchor="middle" x="40" y="-318.5" font-family="Helvetica,sans-Serif" font-size="10.00">integer</text>
</g>
<!-- Node8&#45;&gt;Node1 -->
<g id="edge20" class="edge"><title>Node8&#45;&gt;Node1</title>
<path fill="none" stroke="#9a32cd" stroke-dasharray="5,2" d="M56.9415,-338.454C79.0034,-362.845 119.768,-408.774 152,-450 172.276,-475.934 194.066,-507.554 206.418,-525.871"/>
<polygon fill="#9a32cd" stroke="#9a32cd" points="59.2762,-335.818 49.9627,-330.768 54.0937,-340.524 59.2762,-335.818"/>
<text text-anchor="middle" x="125" y="-486" font-family="Helvetica,sans-Serif" font-size="10.00"> handles</text>
<text text-anchor="middle" x="125" y="-475" font-family="Helvetica,sans-Serif" font-size="10.00">id_volume</text>
<text text-anchor="middle" x="125" y="-464" font-family="Helvetica,sans-Serif" font-size="10.00">rank</text>
<text text-anchor="middle" x="125" y="-453" font-family="Helvetica,sans-Serif" font-size="10.00">id_area</text>
</g>
<!-- Node8&#45;&gt;Node3 -->
<g id="edge18" class="edge"><title>Node8&#45;&gt;Node3</title>
<path fill="none" stroke="#9a32cd" stroke-dasharray="5,2" d="M53.3117,-302.927C85.0359,-258.186 174.719,-142.862 283,-101 314.091,-88.9801 330.172,-82.6503 358,-101 374.955,-112.18 360.707,-129.637 376,-143 403.916,-167.393 503.765,-188.889 563.801,-199.996"/>
<polygon fill="#9a32cd" stroke="#9a32cd" points="50.2861,-301.147 47.436,-311.352 56.0275,-305.152 50.2861,-301.147"/>
<text text-anchor="middle" x="320.5" y="-214" font-family="Helvetica,sans-Serif" font-size="10.00"> ied</text>
<text text-anchor="middle" x="320.5" y="-203" font-family="Helvetica,sans-Serif" font-size="10.00">jed</text>
<text text-anchor="middle" x="320.5" y="-192" font-family="Helvetica,sans-Serif" font-size="10.00">doc_unit</text>
<text text-anchor="middle" x="320.5" y="-181" font-family="Helvetica,sans-Serif" font-size="10.00">isd</text>
<text text-anchor="middle" x="320.5" y="-170" font-family="Helvetica,sans-Serif" font-size="10.00">jsd</text>
<text text-anchor="middle" x="320.5" y="-159" font-family="Helvetica,sans-Serif" font-size="10.00">js</text>
<text text-anchor="middle" x="320.5" y="-148" font-family="Helvetica,sans-Serif" font-size="10.00">is</text>
<text text-anchor="middle" x="320.5" y="-137" font-family="Helvetica,sans-Serif" font-size="10.00">je</text>
<text text-anchor="middle" x="320.5" y="-126" font-family="Helvetica,sans-Serif" font-size="10.00">ie</text>
<text text-anchor="middle" x="320.5" y="-115" font-family="Helvetica,sans-Serif" font-size="10.00">nz_remap</text>
<text text-anchor="middle" x="320.5" y="-104" font-family="Helvetica,sans-Serif" font-size="10.00">...</text>
</g>
<!-- Node8&#45;&gt;Node5 -->
<g id="edge11" class="edge"><title>Node8&#45;&gt;Node5</title>
<path fill="none" stroke="#9a32cd" stroke-dasharray="5,2" d="M70.6032,-321.319C113.576,-322.068 195.68,-324.58 265,-333 302.58,-337.565 344.682,-345.746 375.895,-352.413"/>
<polygon fill="#9a32cd" stroke="#9a32cd" points="70.6053,-317.818 60.5525,-321.164 70.4973,-324.818 70.6053,-317.818"/>
<text text-anchor="middle" x="217.5" y="-336" font-family="Helvetica,sans-Serif" font-size="10.00"> fms_diag_id</text>
</g>
<!-- Node9 -->
<g id="node9" class="node"><title>Node9</title>
<polygon fill="white" stroke="#bfbfbf" points="398,-114.5 398,-133.5 449,-133.5 449,-114.5 398,-114.5"/>
<text text-anchor="middle" x="423.5" y="-121.5" font-family="Helvetica,sans-Serif" font-size="10.00">time_type</text>
</g>
<!-- Node9&#45;&gt;Node3 -->
<g id="edge12" class="edge"><title>Node9&#45;&gt;Node3</title>
<path fill="none" stroke="#9a32cd" stroke-dasharray="5,2" d="M459.479,-121.32C484.818,-120.859 519.189,-123.382 546,-137 570.796,-149.594 590.689,-175.971 601.524,-192.789"/>
<polygon fill="#9a32cd" stroke="#9a32cd" points="459.093,-117.831 449.221,-121.676 459.336,-124.827 459.093,-117.831"/>
<text text-anchor="middle" x="517.5" y="-140" font-family="Helvetica,sans-Serif" font-size="10.00"> time_end</text>
</g>
<!-- Node10 -->
<g id="node10" class="node"><title>Node10</title>
<polygon fill="white" stroke="#bfbfbf" points="380.5,-76.5 380.5,-95.5 466.5,-95.5 466.5,-76.5 380.5,-76.5"/>
<text text-anchor="middle" x="423.5" y="-83.5" font-family="Helvetica,sans-Serif" font-size="10.00">type(regridding_cs)</text>
</g>
<!-- Node10&#45;&gt;Node3 -->
<g id="edge13" class="edge"><title>Node10&#45;&gt;Node3</title>
<path fill="none" stroke="#9a32cd" stroke-dasharray="5,2" d="M476.918,-86.3263C499.74,-88.6727 525.822,-94.5325 546,-108 577.274,-128.873 596.68,-170.611 605.287,-192.996"/>
<polygon fill="#9a32cd" stroke="#9a32cd" points="476.949,-82.8169 466.694,-85.4807 476.372,-89.7931 476.949,-82.8169"/>
<text text-anchor="middle" x="517.5" y="-111" font-family="Helvetica,sans-Serif" font-size="10.00"> regrid_cs</text>
</g>
<!-- Node11 -->
<g id="node11" class="node"><title>Node11</title>
<polygon fill="white" stroke="#bfbfbf" points="385.5,-38.5 385.5,-57.5 461.5,-57.5 461.5,-38.5 385.5,-38.5"/>
<text text-anchor="middle" x="423.5" y="-45.5" font-family="Helvetica,sans-Serif" font-size="10.00">character(len=6)</text>
</g>
<!-- Node11&#45;&gt;Node3 -->
<g id="edge14" class="edge"><title>Node11&#45;&gt;Node3</title>
<path fill="none" stroke="#9a32cd" stroke-dasharray="5,2" d="M471.698,-48.4563C496.107,-50.9132 525.082,-57.5465 546,-74 584.963,-104.647 601.763,-164.699 607.727,-192.809"/>
<polygon fill="#9a32cd" stroke="#9a32cd" points="471.802,-44.9534 461.554,-47.6425 471.242,-51.931 471.802,-44.9534"/>
<text text-anchor="middle" x="517.5" y="-77" font-family="Helvetica,sans-Serif" font-size="10.00"> z_remap_suffix</text>
</g>
<!-- Node12 -->
<g id="node12" class="node"><title>Node12</title>
<polygon fill="white" stroke="#bfbfbf" points="385.5,-0.5 385.5,-19.5 461.5,-19.5 461.5,-0.5 385.5,-0.5"/>
<text text-anchor="middle" x="423.5" y="-7.5" font-family="Helvetica,sans-Serif" font-size="10.00">ocean_grid_type</text>
</g>
<!-- Node12&#45;&gt;Node3 -->
<g id="edge16" class="edge"><title>Node12&#45;&gt;Node3</title>
<path fill="none" stroke="#9a32cd" stroke-dasharray="5,2" d="M471.802,-10.1164C496.501,-12.5346 525.716,-19.4102 546,-37 593.823,-78.4711 606.28,-159.155 609.45,-192.749"/>
<polygon fill="#9a32cd" stroke="#9a32cd" points="471.769,-6.60391 461.532,-9.33475 471.238,-13.5837 471.769,-6.60391"/>
<text text-anchor="middle" x="517.5" y="-40" font-family="Helvetica,sans-Serif" font-size="10.00"> g</text>
</g>
<!-- Node13 -->
<g id="node13" class="node"><title>Node13</title>
<polygon fill="white" stroke="#bfbfbf" points="2,-531.5 2,-550.5 78,-550.5 78,-531.5 2,-531.5"/>
<text text-anchor="middle" x="40" y="-538.5" font-family="Helvetica,sans-Serif" font-size="10.00">character(len=9)</text>
</g>
<!-- Node13&#45;&gt;Node1 -->
<g id="edge19" class="edge"><title>Node13&#45;&gt;Node1</title>
<path fill="none" stroke="#9a32cd" stroke-dasharray="5,2" d="M88.3302,-541C113.658,-541 144.735,-541 169.944,-541"/>
<polygon fill="#9a32cd" stroke="#9a32cd" points="88.2191,-537.5 78.219,-541 88.219,-544.5 88.2191,-537.5"/>
<text text-anchor="middle" x="125" y="-566" font-family="Helvetica,sans-Serif" font-size="10.00"> v_cell_method</text>
<text text-anchor="middle" x="125" y="-555" font-family="Helvetica,sans-Serif" font-size="10.00">y_cell_method</text>
<text text-anchor="middle" x="125" y="-544" font-family="Helvetica,sans-Serif" font-size="10.00">x_cell_method</text>
</g>
<!-- Node14 -->
<g id="node14" class="node"><title>Node14</title>
<polygon fill="white" stroke="#bfbfbf" points="0,-587.5 0,-606.5 80,-606.5 80,-587.5 0,-587.5"/>
<text text-anchor="middle" x="40" y="-594.5" font-family="Helvetica,sans-Serif" font-size="10.00">character(len=15)</text>
</g>
<!-- Node14&#45;&gt;Node1 -->
<g id="edge21" class="edge"><title>Node14&#45;&gt;Node1</title>
<path fill="none" stroke="#9a32cd" stroke-dasharray="5,2" d="M89.9693,-590.437C109.597,-587.001 132.209,-582.009 152,-575 165.722,-570.14 180.132,-562.785 191.842,-556.158"/>
<polygon fill="#9a32cd" stroke="#9a32cd" points="89.2975,-587.001 80.0077,-592.095 90.4466,-593.906 89.2975,-587.001"/>
<text text-anchor="middle" x="125" y="-592" font-family="Helvetica,sans-Serif" font-size="10.00"> id</text>
</g>
</g>
</svg>
