<?xml version="1.0" encoding="UTF-8" standalone="no"?>
<!DOCTYPE svg PUBLIC "-//W3C//DTD SVG 1.1//EN"
 "http://www.w3.org/Graphics/SVG/1.1/DTD/svg11.dtd">
<!-- Generated by graphviz version 2.38.0 (20140413.2041)
 -->
<!-- Title: mom_diag_mediator::axes_grp Pages: 1 -->
<svg width="766pt" height="745pt"
 viewBox="0.00 0.00 766.00 745.00" xmlns="http://www.w3.org/2000/svg" xmlns:xlink="http://www.w3.org/1999/xlink">
<g id="graph0" class="graph" transform="scale(1 1) rotate(0) translate(4 741)">
<title>mom_diag_mediator::axes_grp</title>
<polygon fill="white" stroke="none" points="-4,4 -4,-741 762,-741 762,4 -4,4"/>
<!-- Node1 -->
<g id="node1" class="node"><title>Node1</title>
<polygon fill="#bfbfbf" stroke="black" points="195,-526 195,-556 305,-556 305,-526 195,-526"/>
<text text-anchor="start" x="203" y="-544" font-family="Helvetica,sans-Serif" font-size="10.00">mom_diag_mediator::</text>
<text text-anchor="middle" x="250" y="-533" font-family="Helvetica,sans-Serif" font-size="10.00">axes_grp</text>
</g>
<!-- Node3 -->
<g id="node3" class="node"><title>Node3</title>
<g id="a_node3"><a xlink:href="../../de/d92/structmom__diag__mediator_1_1diag__ctrl.html" target="_top" xlink:title="The following data type a list of diagnostic fields an their variants, as well as variables that cont...">
<polygon fill="white" stroke="black" points="648,-193 648,-223 758,-223 758,-193 648,-193"/>
<text text-anchor="start" x="656" y="-211" font-family="Helvetica,sans-Serif" font-size="10.00">mom_diag_mediator::</text>
<text text-anchor="middle" x="703" y="-200" font-family="Helvetica,sans-Serif" font-size="10.00">diag_ctrl</text>
</a>
</g>
</g>
<!-- Node1&#45;&gt;Node3 -->
<g id="edge15" class="edge"><title>Node1&#45;&gt;Node3</title>
<path fill="none" stroke="#9a32cd" stroke-dasharray="5,2" d="M279.902,-561.924C292.522,-569.954 307.873,-578.31 323,-583 455.18,-623.985 552.335,-645.54 630,-531 699,-429.239 702.954,-271.9 702.394,-223.012"/>
<polygon fill="#9a32cd" stroke="#9a32cd" points="281.509,-558.791 271.238,-556.192 277.647,-564.629 281.509,-558.791"/>
<text text-anchor="middle" x="487" y="-729" font-family="Helvetica,sans-Serif" font-size="10.00"> axescvzl</text>
<text text-anchor="middle" x="487" y="-718" font-family="Helvetica,sans-Serif" font-size="10.00">axeszi</text>
<text text-anchor="middle" x="487" y="-707" font-family="Helvetica,sans-Serif" font-size="10.00">axescui</text>
<text text-anchor="middle" x="487" y="-696" font-family="Helvetica,sans-Serif" font-size="10.00">axest1</text>
<text text-anchor="middle" x="487" y="-685" font-family="Helvetica,sans-Serif" font-size="10.00">axesb1</text>
<text text-anchor="middle" x="487" y="-674" font-family="Helvetica,sans-Serif" font-size="10.00">axeszl</text>
<text text-anchor="middle" x="487" y="-663" font-family="Helvetica,sans-Serif" font-size="10.00">axescvi</text>
<text text-anchor="middle" x="487" y="-652" font-family="Helvetica,sans-Serif" font-size="10.00">axescul</text>
<text text-anchor="middle" x="487" y="-641" font-family="Helvetica,sans-Serif" font-size="10.00">axesti</text>
<text text-anchor="middle" x="487" y="-630" font-family="Helvetica,sans-Serif" font-size="10.00">axescvl</text>
<text text-anchor="middle" x="487" y="-619" font-family="Helvetica,sans-Serif" font-size="10.00">...</text>
</g>
<!-- Node5 -->
<g id="node5" class="node"><title>Node5</title>
<g id="a_node5"><a xlink:href="../../d9/d4e/structmom__diag__mediator_1_1diag__type.html" target="_top" xlink:title="This type is used to represent a diagnostic at the diag_mediator level. There can be both &#39;primary&#39; a...">
<polygon fill="white" stroke="black" points="432,-348 432,-378 542,-378 542,-348 432,-348"/>
<text text-anchor="start" x="440" y="-366" font-family="Helvetica,sans-Serif" font-size="10.00">mom_diag_mediator::</text>
<text text-anchor="middle" x="487" y="-355" font-family="Helvetica,sans-Serif" font-size="10.00">diag_type</text>
</a>
</g>
</g>
<!-- Node1&#45;&gt;Node5 -->
<g id="edge9" class="edge"><title>Node1&#45;&gt;Node5</title>
<path fill="none" stroke="#9a32cd" stroke-dasharray="5,2" d="M262.203,-516.775C274.075,-493.804 294.983,-460.051 323,-441 357.496,-417.543 376.436,-436.143 414,-418 435.246,-407.738 456.314,-390.619 470.118,-378.202"/>
<polygon fill="#9a32cd" stroke="#9a32cd" points="258.991,-515.374 257.674,-525.886 265.259,-518.49 258.991,-515.374"/>
<text text-anchor="middle" x="368.5" y="-444" font-family="Helvetica,sans-Serif" font-size="10.00"> remap_axes</text>
</g>
<!-- Node2 -->
<g id="node2" class="node"><title>Node2</title>
<polygon fill="white" stroke="#bfbfbf" points="24,-464.5 24,-483.5 68,-483.5 68,-464.5 24,-464.5"/>
<text text-anchor="middle" x="46" y="-471.5" font-family="Helvetica,sans-Serif" font-size="10.00">logical</text>
</g>
<!-- Node2&#45;&gt;Node1 -->
<g id="edge1" class="edge"><title>Node2&#45;&gt;Node1</title>
<path fill="none" stroke="#9a32cd" stroke-dasharray="5,2" d="M77.9392,-484.262C111.429,-495.37 165.174,-513.196 203.481,-525.902"/>
<polygon fill="#9a32cd" stroke="#9a32cd" points="78.8292,-480.87 68.2357,-481.044 76.6254,-487.514 78.8292,-480.87"/>
<text text-anchor="middle" x="143.5" y="-519" font-family="Helvetica,sans-Serif" font-size="10.00"> is_h_point</text>
</g>
<!-- Node2&#45;&gt;Node3 -->
<g id="edge3" class="edge"><title>Node2&#45;&gt;Node3</title>
<path fill="none" stroke="#9a32cd" stroke-dasharray="5,2" d="M78.3443,-473.432C180.054,-471.501 496.941,-464.762 542,-455 583.299,-446.053 601.021,-449.756 630,-419 684.281,-361.39 697.785,-261.177 701.021,-223.188"/>
<polygon fill="#9a32cd" stroke="#9a32cd" points="78.0394,-469.937 68.1068,-473.624 78.1706,-476.936 78.0394,-469.937"/>
<text text-anchor="middle" x="368.5" y="-548" font-family="Helvetica,sans-Serif" font-size="10.00"> ave_enabled</text>
<text text-anchor="start" x="323" y="-537" font-family="Helvetica,sans-Serif" font-size="10.00">do_z_remapping_on</text>
<text text-anchor="middle" x="368.5" y="-526" font-family="Helvetica,sans-Serif" font-size="10.00">_t</text>
<text text-anchor="start" x="323" y="-515" font-family="Helvetica,sans-Serif" font-size="10.00">do_z_remapping</text>
<text text-anchor="middle" x="368.5" y="-504" font-family="Helvetica,sans-Serif" font-size="10.00">_on_u</text>
<text text-anchor="start" x="323" y="-493" font-family="Helvetica,sans-Serif" font-size="10.00">do_z_remapping</text>
<text text-anchor="middle" x="368.5" y="-482" font-family="Helvetica,sans-Serif" font-size="10.00">_on_v</text>
<text text-anchor="middle" x="368.5" y="-471" font-family="Helvetica,sans-Serif" font-size="10.00">remapping_initialized</text>
</g>
<!-- Node2&#45;&gt;Node5 -->
<g id="edge6" class="edge"><title>Node2&#45;&gt;Node5</title>
<path fill="none" stroke="#9a32cd" stroke-dasharray="5,2" d="M78.2539,-466.098C152.286,-447.379 339.074,-400.15 431.905,-376.678"/>
<polygon fill="#9a32cd" stroke="#9a32cd" points="77.0108,-462.802 68.1739,-468.646 78.7268,-469.588 77.0108,-462.802"/>
<text text-anchor="middle" x="250" y="-438" font-family="Helvetica,sans-Serif" font-size="10.00"> in_use</text>
</g>
<!-- Node3&#45;&gt;Node1 -->
<g id="edge2" class="edge"><title>Node3&#45;&gt;Node1</title>
<path fill="none" stroke="#9a32cd" stroke-dasharray="5,2" d="M702.95,-233.072C703.594,-286.941 697.429,-414.764 630,-488 534.862,-591.33 461.916,-583.75 323,-563 313.046,-561.513 302.566,-558.93 292.778,-556.046"/>
<polygon fill="#9a32cd" stroke="#9a32cd" points="706.448,-232.957 702.738,-223.034 699.45,-233.105 706.448,-232.957"/>
<text text-anchor="middle" x="487" y="-579" font-family="Helvetica,sans-Serif" font-size="10.00"> diag_cs</text>
</g>
<!-- Node4 -->
<g id="node4" class="node"><title>Node4</title>
<polygon fill="white" stroke="#bfbfbf" points="448.5,-426.5 448.5,-445.5 525.5,-445.5 525.5,-426.5 448.5,-426.5"/>
<text text-anchor="middle" x="487" y="-433.5" font-family="Helvetica,sans-Serif" font-size="10.00">remapping_cs</text>
</g>
<!-- Node4&#45;&gt;Node3 -->
<g id="edge4" class="edge"><title>Node4&#45;&gt;Node3</title>
<path fill="none" stroke="#9a32cd" stroke-dasharray="5,2" d="M529.556,-422.486C533.87,-420.534 538.098,-418.372 542,-416 587.165,-388.541 597.065,-377.342 630,-336 659.549,-298.907 684.168,-248.145 695.422,-223.157"/>
<polygon fill="#9a32cd" stroke="#9a32cd" points="527.964,-419.357 520.068,-426.422 530.646,-425.823 527.964,-419.357"/>
<text text-anchor="middle" x="595" y="-407" font-family="Helvetica,sans-Serif" font-size="10.00"> remap_cs</text>
</g>
<!-- Node5&#45;&gt;Node3 -->
<g id="edge5" class="edge"><title>Node5&#45;&gt;Node3</title>
<path fill="none" stroke="#9a32cd" stroke-dasharray="5,2" d="M526.103,-342.815C531.521,-339.663 536.96,-336.339 542,-333 596.363,-296.982 655.712,-247.742 684.45,-223.2"/>
<polygon fill="#9a32cd" stroke="#9a32cd" points="524.052,-339.955 517.08,-347.932 527.505,-346.044 524.052,-339.955"/>
<text text-anchor="middle" x="595" y="-324" font-family="Helvetica,sans-Serif" font-size="10.00"> diags</text>
</g>
<!-- Node5&#45;&gt;Node5 -->
<g id="edge8" class="edge"><title>Node5&#45;&gt;Node5</title>
<path fill="none" stroke="#9a32cd" stroke-dasharray="5,2" d="M467.81,-388.458C470.191,-393.179 476.588,-396.5 487,-396.5 504.086,-396.5 510.36,-387.557 505.821,-378.159"/>
<polygon fill="#9a32cd" stroke="#9a32cd" points="471.318,-388.278 468.179,-378.159 464.323,-388.027 471.318,-388.278"/>
<text text-anchor="middle" x="487" y="-399.5" font-family="Helvetica,sans-Serif" font-size="10.00"> next</text>
</g>
<!-- Node6 -->
<g id="node6" class="node"><title>Node6</title>
<polygon fill="white" stroke="#bfbfbf" points="213,-353.5 213,-372.5 287,-372.5 287,-353.5 213,-353.5"/>
<text text-anchor="middle" x="250" y="-360.5" font-family="Helvetica,sans-Serif" font-size="10.00">character(16)</text>
</g>
<!-- Node6&#45;&gt;Node5 -->
<g id="edge7" class="edge"><title>Node6&#45;&gt;Node5</title>
<path fill="none" stroke="#9a32cd" stroke-dasharray="5,2" d="M297.645,-363C336.291,-363 391.257,-363 431.842,-363"/>
<polygon fill="#9a32cd" stroke="#9a32cd" points="297.204,-359.5 287.204,-363 297.204,-366.5 297.204,-359.5"/>
<text text-anchor="middle" x="368.5" y="-366" font-family="Helvetica,sans-Serif" font-size="10.00"> debug_str</text>
</g>
<!-- Node7 -->
<g id="node7" class="node"><title>Node7</title>
<polygon fill="white" stroke="#bfbfbf" points="234,-247.5 234,-266.5 266,-266.5 266,-247.5 234,-247.5"/>
<text text-anchor="middle" x="250" y="-254.5" font-family="Helvetica,sans-Serif" font-size="10.00">real</text>
</g>
<!-- Node7&#45;&gt;Node3 -->
<g id="edge17" class="edge"><title>Node7&#45;&gt;Node3</title>
<path fill="none" stroke="#9a32cd" stroke-dasharray="5,2" d="M276.179,-254.394C308.68,-250.539 366.679,-241.987 414,-226 422.474,-223.137 423.33,-219.2 432,-217 504.964,-198.487 592.567,-199.65 647.773,-203.094"/>
<polygon fill="#9a32cd" stroke="#9a32cd" points="275.729,-250.922 266.187,-255.525 276.517,-257.878 275.729,-250.922"/>
<text text-anchor="middle" x="487" y="-330" font-family="Helvetica,sans-Serif" font-size="10.00"> h</text>
<text text-anchor="middle" x="487" y="-319" font-family="Helvetica,sans-Serif" font-size="10.00">mask3dtl</text>
<text text-anchor="middle" x="487" y="-308" font-family="Helvetica,sans-Serif" font-size="10.00">time_int</text>
<text text-anchor="middle" x="487" y="-297" font-family="Helvetica,sans-Serif" font-size="10.00">mask3dcvi</text>
<text text-anchor="middle" x="487" y="-286" font-family="Helvetica,sans-Serif" font-size="10.00">mask3dcui</text>
<text text-anchor="middle" x="487" y="-275" font-family="Helvetica,sans-Serif" font-size="10.00">mask3dbui</text>
<text text-anchor="middle" x="487" y="-264" font-family="Helvetica,sans-Serif" font-size="10.00">mask2dt</text>
<text text-anchor="middle" x="487" y="-253" font-family="Helvetica,sans-Serif" font-size="10.00">zi_remap</text>
<text text-anchor="middle" x="487" y="-242" font-family="Helvetica,sans-Serif" font-size="10.00">mask3dcvl</text>
<text text-anchor="middle" x="487" y="-231" font-family="Helvetica,sans-Serif" font-size="10.00">mask3dcul</text>
<text text-anchor="middle" x="487" y="-220" font-family="Helvetica,sans-Serif" font-size="10.00">...</text>
</g>
<!-- Node7&#45;&gt;Node5 -->
<g id="edge10" class="edge"><title>Node7&#45;&gt;Node5</title>
<path fill="none" stroke="#9a32cd" stroke-dasharray="5,2" d="M276.348,-256.343C316.827,-255.823 393.586,-257.176 414,-274 435.156,-291.436 414.763,-311.681 432,-333 436.787,-338.921 443.073,-343.866 449.657,-347.92"/>
<polygon fill="#9a32cd" stroke="#9a32cd" points="276.137,-252.846 266.201,-256.523 276.261,-259.845 276.137,-252.846"/>
<text text-anchor="middle" x="368.5" y="-299" font-family="Helvetica,sans-Serif" font-size="10.00"> mask3d</text>
<text text-anchor="middle" x="368.5" y="-288" font-family="Helvetica,sans-Serif" font-size="10.00">mask2d</text>
<text text-anchor="middle" x="368.5" y="-277" font-family="Helvetica,sans-Serif" font-size="10.00">conversion_factor</text>
</g>
<!-- Node8 -->
<g id="node8" class="node"><title>Node8</title>
<polygon fill="white" stroke="#bfbfbf" points="23,-311.5 23,-330.5 69,-330.5 69,-311.5 23,-311.5"/>
<text text-anchor="middle" x="46" y="-318.5" font-family="Helvetica,sans-Serif" font-size="10.00">integer</text>
</g>
<!-- Node8&#45;&gt;Node1 -->
<g id="edge20" class="edge"><title>Node8&#45;&gt;Node1</title>
<path fill="none" stroke="#9a32cd" stroke-dasharray="5,2" d="M65.5488,-337.603C91.5092,-361.171 139.683,-406.128 177,-448 200.231,-474.067 224.552,-506.805 238.142,-525.671"/>
<polygon fill="#9a32cd" stroke="#9a32cd" points="67.7098,-334.839 57.9425,-330.734 63.018,-340.034 67.7098,-334.839"/>
<text text-anchor="middle" x="143.5" y="-484" font-family="Helvetica,sans-Serif" font-size="10.00"> handles</text>
<text text-anchor="middle" x="143.5" y="-473" font-family="Helvetica,sans-Serif" font-size="10.00">id_volume</text>
<text text-anchor="middle" x="143.5" y="-462" font-family="Helvetica,sans-Serif" font-size="10.00">rank</text>
<text text-anchor="middle" x="143.5" y="-451" font-family="Helvetica,sans-Serif" font-size="10.00">id_area</text>
</g>
<!-- Node8&#45;&gt;Node3 -->
<g id="edge18" class="edge"><title>Node8&#45;&gt;Node3</title>
<path fill="none" stroke="#9a32cd" stroke-dasharray="5,2" d="M61.209,-303.427C98.449,-258.955 204.247,-142.538 323,-101 361.176,-87.6464 380.235,-78.7357 414,-101 430.955,-112.18 416.481,-129.9 432,-143 448.487,-156.917 573.923,-183.151 647.889,-197.673"/>
<polygon fill="#9a32cd" stroke="#9a32cd" points="58.3608,-301.379 54.6916,-311.318 63.7581,-305.836 58.3608,-301.379"/>
<text text-anchor="middle" x="368.5" y="-214" font-family="Helvetica,sans-Serif" font-size="10.00"> ied</text>
<text text-anchor="middle" x="368.5" y="-203" font-family="Helvetica,sans-Serif" font-size="10.00">jed</text>
<text text-anchor="middle" x="368.5" y="-192" font-family="Helvetica,sans-Serif" font-size="10.00">doc_unit</text>
<text text-anchor="middle" x="368.5" y="-181" font-family="Helvetica,sans-Serif" font-size="10.00">isd</text>
<text text-anchor="middle" x="368.5" y="-170" font-family="Helvetica,sans-Serif" font-size="10.00">jsd</text>
<text text-anchor="middle" x="368.5" y="-159" font-family="Helvetica,sans-Serif" font-size="10.00">js</text>
<text text-anchor="middle" x="368.5" y="-148" font-family="Helvetica,sans-Serif" font-size="10.00">is</text>
<text text-anchor="middle" x="368.5" y="-137" font-family="Helvetica,sans-Serif" font-size="10.00">je</text>
<text text-anchor="middle" x="368.5" y="-126" font-family="Helvetica,sans-Serif" font-size="10.00">ie</text>
<text text-anchor="middle" x="368.5" y="-115" font-family="Helvetica,sans-Serif" font-size="10.00">nz_remap</text>
<text text-anchor="middle" x="368.5" y="-104" font-family="Helvetica,sans-Serif" font-size="10.00">...</text>
</g>
<!-- Node8&#45;&gt;Node5 -->
<g id="edge11" class="edge"><title>Node8&#45;&gt;Node5</title>
<path fill="none" stroke="#9a32cd" stroke-dasharray="5,2" d="M79.4408,-321.285C128.431,-321.992 224.161,-324.451 305,-333 347.921,-337.539 396.114,-345.678 431.974,-352.334"/>
<polygon fill="#9a32cd" stroke="#9a32cd" points="79.1982,-317.782 69.154,-321.153 79.1082,-324.781 79.1982,-317.782"/>
<text text-anchor="middle" x="250" y="-336" font-family="Helvetica,sans-Serif" font-size="10.00"> fms_diag_id</text>
</g>
<!-- Node9 -->
<g id="node9" class="node"><title>Node9</title>
<polygon fill="white" stroke="#bfbfbf" points="457.5,-114.5 457.5,-133.5 516.5,-133.5 516.5,-114.5 457.5,-114.5"/>
<text text-anchor="middle" x="487" y="-121.5" font-family="Helvetica,sans-Serif" font-size="10.00">time_type</text>
</g>
<!-- Node9&#45;&gt;Node3 -->
<g id="edge12" class="edge"><title>Node9&#45;&gt;Node3</title>
<path fill="none" stroke="#9a32cd" stroke-dasharray="5,2" d="M527.019,-120.67C556.621,-119.737 597.606,-121.953 630,-137 656.589,-149.351 679.127,-175.802 691.585,-192.701"/>
<polygon fill="#9a32cd" stroke="#9a32cd" points="526.496,-117.189 516.664,-121.137 526.812,-124.182 526.496,-117.189"/>
<text text-anchor="middle" x="595" y="-140" font-family="Helvetica,sans-Serif" font-size="10.00"> time_end</text>
</g>
<!-- Node10 -->
<g id="node10" class="node"><title>Node10</title>
<polygon fill="white" stroke="#bfbfbf" points="437.5,-76.5 437.5,-95.5 536.5,-95.5 536.5,-76.5 437.5,-76.5"/>
<text text-anchor="middle" x="487" y="-83.5" font-family="Helvetica,sans-Serif" font-size="10.00">type(regridding_cs)</text>
</g>
<!-- Node10&#45;&gt;Node3 -->
<g id="edge13" class="edge"><title>Node10&#45;&gt;Node3</title>
<path fill="none" stroke="#9a32cd" stroke-dasharray="5,2" d="M546.72,-84.4268C573.788,-86.1687 605.308,-91.8901 630,-107 663.429,-127.457 685.718,-169.875 695.81,-192.689"/>
<polygon fill="#9a32cd" stroke="#9a32cd" points="546.743,-80.924 536.587,-83.9428 546.409,-87.916 546.743,-80.924"/>
<text text-anchor="middle" x="595" y="-110" font-family="Helvetica,sans-Serif" font-size="10.00"> regrid_cs</text>
</g>
<!-- Node11 -->
<g id="node11" class="node"><title>Node11</title>
<polygon fill="white" stroke="#bfbfbf" points="443.5,-38.5 443.5,-57.5 530.5,-57.5 530.5,-38.5 443.5,-38.5"/>
<text text-anchor="middle" x="487" y="-45.5" font-family="Helvetica,sans-Serif" font-size="10.00">character(len=6)</text>
</g>
<!-- Node11&#45;&gt;Node3 -->
<g id="edge14" class="edge"><title>Node11&#45;&gt;Node3</title>
<path fill="none" stroke="#9a32cd" stroke-dasharray="5,2" d="M540.888,-45.5501C569.647,-46.7594 604.453,-52.6171 630,-71 672.093,-101.289 691.641,-163.775 698.712,-192.696"/>
<polygon fill="#9a32cd" stroke="#9a32cd" points="540.677,-42.044 530.595,-45.3002 540.507,-49.0419 540.677,-42.044"/>
<text text-anchor="middle" x="595" y="-74" font-family="Helvetica,sans-Serif" font-size="10.00"> z_remap_suffix</text>
</g>
<!-- Node12 -->
<g id="node12" class="node"><title>Node12</title>
<polygon fill="white" stroke="#bfbfbf" points="443,-0.5 443,-19.5 531,-19.5 531,-0.5 443,-0.5"/>
<text text-anchor="middle" x="487" y="-7.5" font-family="Helvetica,sans-Serif" font-size="10.00">ocean_grid_type</text>
</g>
<!-- Node12&#45;&gt;Node3 -->
<g id="edge16" class="edge"><title>Node12&#45;&gt;Node3</title>
<path fill="none" stroke="#9a32cd" stroke-dasharray="5,2" d="M541.194,-6.62991C570.243,-7.51553 605.233,-13.3568 630,-33 681.738,-74.0337 696.617,-158.514 700.622,-192.92"/>
<polygon fill="#9a32cd" stroke="#9a32cd" points="541.235,-3.13025 531.193,-6.50883 541.15,-10.1297 541.235,-3.13025"/>
<text text-anchor="middle" x="595" y="-36" font-family="Helvetica,sans-Serif" font-size="10.00"> g</text>
</g>
<!-- Node13 -->
<g id="node13" class="node"><title>Node13</title>
<polygon fill="white" stroke="#bfbfbf" points="2.5,-531.5 2.5,-550.5 89.5,-550.5 89.5,-531.5 2.5,-531.5"/>
<text text-anchor="middle" x="46" y="-538.5" font-family="Helvetica,sans-Serif" font-size="10.00">character(len=9)</text>
</g>
<!-- Node13&#45;&gt;Node1 -->
<g id="edge19" class="edge"><title>Node13&#45;&gt;Node1</title>
<path fill="none" stroke="#9a32cd" stroke-dasharray="5,2" d="M99.8502,-541C129.043,-541 165.243,-541 194.668,-541"/>
<polygon fill="#9a32cd" stroke="#9a32cd" points="99.839,-537.5 89.839,-541 99.839,-544.5 99.839,-537.5"/>
<text text-anchor="middle" x="143.5" y="-566" font-family="Helvetica,sans-Serif" font-size="10.00"> v_cell_method</text>
<text text-anchor="middle" x="143.5" y="-555" font-family="Helvetica,sans-Serif" font-size="10.00">y_cell_method</text>
<text text-anchor="middle" x="143.5" y="-544" font-family="Helvetica,sans-Serif" font-size="10.00">x_cell_method</text>
</g>
<!-- Node14 -->
<g id="node14" class="node"><title>Node14</title>
<polygon fill="white" stroke="#bfbfbf" points="0,-587.5 0,-606.5 92,-606.5 92,-587.5 0,-587.5"/>
<text text-anchor="middle" x="46" y="-594.5" font-family="Helvetica,sans-Serif" font-size="10.00">character(len=15)</text>
</g>
<!-- Node14&#45;&gt;Node1 -->
<g id="edge21" class="edge"><title>Node14&#45;&gt;Node1</title>
<path fill="none" stroke="#9a32cd" stroke-dasharray="5,2" d="M102.336,-591.037C125.719,-587.648 153.031,-582.53 177,-575 192.298,-570.194 208.516,-562.762 221.678,-556.071"/>
<polygon fill="#9a32cd" stroke="#9a32cd" points="101.664,-587.596 92.2365,-592.43 102.621,-594.53 101.664,-587.596"/>
<text text-anchor="middle" x="143.5" y="-593" font-family="Helvetica,sans-Serif" font-size="10.00"> id</text>
</g>
</g>
</svg>
