<?xml version="1.0" encoding="UTF-8" standalone="no"?>
<!DOCTYPE svg PUBLIC "-//W3C//DTD SVG 1.1//EN"
 "http://www.w3.org/Graphics/SVG/1.1/DTD/svg11.dtd">
<!-- Generated by graphviz version 2.38.0 (20140413.2041)
 -->
<!-- Title: mom_error_handler::calltree_waypoint Pages: 1 -->
<!--zoomable 425 -->
<svg id="main" version="1.1" xmlns="http://www.w3.org/2000/svg" xmlns:xlink="http://www.w3.org/1999/xlink" xml:space="preserve" onload="init(evt)">
<style type="text/css"><![CDATA[
.edge:hover path { stroke: red; }
.edge:hover polygon { stroke: red; fill: red; }
]]></style>
<script type="text/javascript"><![CDATA[
var edges = document.getElementsByTagName('g');
if (edges && edges.length) {
  for (var i=0;i<edges.length;i++) {
    if (edges[i].id.substr(0,4)=='edge') {
      edges[i].setAttribute('class','edge');
    }
  }
}
]]></script>
        <defs>
                <circle id="rim" cx="0" cy="0" r="7"/>
                <circle id="rim2" cx="0" cy="0" r="3.5"/>
                <g id="zoomPlus">
                        <use xlink:href="#rim" fill="#404040">
                                <set attributeName="fill" to="#808080" begin="zoomplus.mouseover" end="zoomplus.mouseout"/>
                        </use>
                        <path d="M-4,0h8M0,-4v8" fill="none" stroke="white" stroke-width="1.5" pointer-events="none"/>
                </g>
                <g id="zoomMin">
                        <use xlink:href="#rim" fill="#404040">
                                <set attributeName="fill" to="#808080" begin="zoomminus.mouseover" end="zoomminus.mouseout"/>
                        </use>
                        <path d="M-4,0h8" fill="none" stroke="white" stroke-width="1.5" pointer-events="none"/>
                </g>
                <g id="dirArrow">
                        <path fill="none" stroke="white" stroke-width="1.5" d="M0,-3.0v7 M-2.5,-0.5L0,-3.0L2.5,-0.5"/>
                </g>
               <g id="resetDef">
                       <use xlink:href="#rim2" fill="#404040">
                               <set attributeName="fill" to="#808080" begin="reset.mouseover" end="reset.mouseout"/>
                       </use>
               </g>
        </defs>

<script type="text/javascript">
var viewWidth = 704;
var viewHeight = 425;
var sectionId = 'dynsection-5';
</script>
<script xlink:href="../../svgpan.js"/>
<svg id="graph" class="graph">
<g id="viewport">
<title>mom_error_handler::calltree_waypoint</title>
<polygon fill="white" stroke="none" points="-4,4 -4,-420.597 700,-420.597 700,4 -4,4"/>
<!-- Node117 -->
<g id="node1" class="node"><title>Node117</title>
<polygon fill="#bfbfbf" stroke="black" points="0,-210.5 0,-240.5 106,-240.5 106,-210.5 0,-210.5"/>
<text text-anchor="start" x="8" y="-228.5" font-family="Helvetica,sans-Serif" font-size="10.00">mom_error_handler::</text>
<text text-anchor="middle" x="53" y="-217.5" font-family="Helvetica,sans-Serif" font-size="10.00">calltree_waypoint</text>
</g>
<!-- Node118 -->
<g id="node2" class="node"><title>Node118</title>
<g id="a_node2"><a xlink:href="../../d7/d73/namespacemom__ale.html#a85ced017378248ea6db867aa03220a1d" target="_top" xlink:title="Takes care of (1) building a new grid and (2) remapping all variables between the old grid and the ne...">
<polygon fill="white" stroke="black" points="344,-350 344,-369 445,-369 445,-350 344,-350"/>
<text text-anchor="middle" x="394.5" y="-357" font-family="Helvetica,sans-Serif" font-size="10.00">mom_ale::ale_main</text>
</a>
</g>
</g>
<!-- Node117&#45;&gt;Node118 -->
<g id="edge1" class="edge"><title>Node117&#45;&gt;Node118</title>
<path fill="none" stroke="midnightblue" d="M63.0627,-249.973C75.644,-279.989 101.53,-329.577 142,-351.5 208.067,-387.29 298.888,-378.599 351.376,-369.041"/>
<polygon fill="midnightblue" stroke="midnightblue" points="66.2782,-248.588 59.3042,-240.612 59.7823,-251.196 66.2782,-248.588"/>
</g>
<!-- Node119 -->
<g id="node3" class="node"><title>Node119</title>
<g id="a_node3"><a xlink:href="../../d7/d73/namespacemom__ale.html#a5a39781fe9a087c4ab8b4b2ea86ef05c" target="_top" xlink:title="Takes care of (1) building a new grid and (2) remapping all variables between the old grid and the ne...">
<polygon fill="white" stroke="black" points="328,-301 328,-320 461,-320 461,-301 328,-301"/>
<text text-anchor="middle" x="394.5" y="-308" font-family="Helvetica,sans-Serif" font-size="10.00">mom_ale::ale_main_offline</text>
</a>
</g>
</g>
<!-- Node117&#45;&gt;Node119 -->
<g id="edge2" class="edge"><title>Node117&#45;&gt;Node119</title>
<path fill="none" stroke="midnightblue" d="M106.323,-243.688C117.999,-247.482 130.368,-251.297 142,-254.5 211.435,-273.621 293.008,-290.84 343.988,-300.988"/>
<polygon fill="midnightblue" stroke="midnightblue" points="107.302,-240.325 96.709,-240.52 105.111,-246.974 107.302,-240.325"/>
</g>
<!-- Node121 -->
<g id="node5" class="node"><title>Node121</title>
<g id="a_node5"><a xlink:href="../../de/dbc/MOM__driver_8F90.html#a08fffeb2d8e8acbf9ed4609be6d258c6" target="_top" xlink:title="mom_main">
<polygon fill="white" stroke="black" points="631,-301 631,-320 696,-320 696,-301 631,-301"/>
<text text-anchor="middle" x="663.5" y="-308" font-family="Helvetica,sans-Serif" font-size="10.00">mom_main</text>
</a>
</g>
</g>
<!-- Node117&#45;&gt;Node121 -->
<g id="edge7" class="edge"><title>Node117&#45;&gt;Node121</title>
<path fill="none" stroke="midnightblue" d="M60.2058,-250.787C70.4572,-286.4 94.6729,-350.044 142,-377.5 315.378,-478.084 575.165,-356.308 644.802,-320.069"/>
<polygon fill="midnightblue" stroke="midnightblue" points="63.4655,-249.436 57.4626,-240.706 56.7111,-251.274 63.4655,-249.436"/>
</g>
<!-- Node122 -->
<g id="node6" class="node"><title>Node122</title>
<g id="a_node6"><a xlink:href="../../d7/d73/namespacemom__ale.html#adb107f7111d155d1c5a2715d8190bfb1" target="_top" xlink:title="Remaps all tracers from h onto h_target. This is intended to be called when tracers are done offline...">
<polygon fill="white" stroke="black" points="341,-243.5 341,-273.5 448,-273.5 448,-243.5 341,-243.5"/>
<text text-anchor="start" x="349" y="-261.5" font-family="Helvetica,sans-Serif" font-size="10.00">mom_ale::ale_offline</text>
<text text-anchor="middle" x="394.5" y="-250.5" font-family="Helvetica,sans-Serif" font-size="10.00">_tracer_final</text>
</a>
</g>
</g>
<!-- Node117&#45;&gt;Node122 -->
<g id="edge5" class="edge"><title>Node117&#45;&gt;Node122</title>
<path fill="none" stroke="midnightblue" d="M116.332,-231.559C180.763,-237.822 280.243,-247.491 340.858,-253.383"/>
<polygon fill="midnightblue" stroke="midnightblue" points="116.595,-228.068 106.303,-230.584 115.917,-235.035 116.595,-228.068"/>
</g>
<!-- Node123 -->
<g id="node7" class="node"><title>Node123</title>
<g id="a_node7"><a xlink:href="../../d8/df3/namespacemom__diabatic__driver.html#a61e57d3902367aa46aa3c2d949ee900f" target="_top" xlink:title="This subroutine imposes the diapycnal mass fluxes and the accompanying diapycnal advection of momentu...">
<polygon fill="white" stroke="black" points="163.5,-147.5 163.5,-177.5 270.5,-177.5 270.5,-147.5 163.5,-147.5"/>
<text text-anchor="start" x="171.5" y="-165.5" font-family="Helvetica,sans-Serif" font-size="10.00">mom_diabatic_driver</text>
<text text-anchor="middle" x="217" y="-154.5" font-family="Helvetica,sans-Serif" font-size="10.00">::diabatic</text>
</a>
</g>
</g>
<!-- Node117&#45;&gt;Node123 -->
<g id="edge6" class="edge"><title>Node117&#45;&gt;Node123</title>
<path fill="none" stroke="midnightblue" d="M102.401,-206.677C126.315,-197.377 154.78,-186.308 177.233,-177.576"/>
<polygon fill="midnightblue" stroke="midnightblue" points="100.855,-203.523 92.803,-210.41 103.392,-210.047 100.855,-203.523"/>
</g>
<!-- Node124 -->
<g id="node8" class="node"><title>Node124</title>
<g id="a_node8"><a xlink:href="../../d7/d73/namespacemom__ale.html#afa44870e6fe590c2e2bc5265998dc19f" target="_top" xlink:title="This routine takes care of remapping all variable between the old and the new grids. When velocity components need to be remapped, thicknesses at velocity points are taken to be arithmetic averages of tracer thicknesses. This routine is called during initialization of the model at time=0, to remap initiali conditions to the model grid. It is also called during a time step to update the state. ">
<polygon fill="white" stroke="black" points="165,-311.5 165,-341.5 269,-341.5 269,-311.5 165,-311.5"/>
<text text-anchor="start" x="173" y="-329.5" font-family="Helvetica,sans-Serif" font-size="10.00">mom_ale::remap_all</text>
<text text-anchor="middle" x="217" y="-318.5" font-family="Helvetica,sans-Serif" font-size="10.00">_state_vars</text>
</a>
</g>
</g>
<!-- Node117&#45;&gt;Node124 -->
<g id="edge8" class="edge"><title>Node117&#45;&gt;Node124</title>
<path fill="none" stroke="midnightblue" d="M77.527,-247.69C94.487,-262.854 118.448,-282.637 142,-296.5 151.557,-302.126 162.368,-307.165 172.715,-311.435"/>
<polygon fill="midnightblue" stroke="midnightblue" points="79.5502,-244.799 69.796,-240.663 74.8419,-249.979 79.5502,-244.799"/>
</g>
<!-- Node125 -->
<g id="node9" class="node"><title>Node125</title>
<g id="a_node9"><a xlink:href="../../d3/d4b/namespacemom__set__diffusivity.html#a8b1f646393f0ec717ca690e4f04d96e8" target="_top" xlink:title="mom_set_diffusivity\l::set_diffusivity">
<polygon fill="white" stroke="black" points="165,-98.5 165,-128.5 269,-128.5 269,-98.5 165,-98.5"/>
<text text-anchor="start" x="173" y="-116.5" font-family="Helvetica,sans-Serif" font-size="10.00">mom_set_diffusivity</text>
<text text-anchor="middle" x="217" y="-105.5" font-family="Helvetica,sans-Serif" font-size="10.00">::set_diffusivity</text>
</a>
</g>
</g>
<!-- Node117&#45;&gt;Node125 -->
<g id="edge12" class="edge"><title>Node117&#45;&gt;Node125</title>
<path fill="none" stroke="midnightblue" d="M71.9288,-202.676C88.3103,-183.191 114.162,-155.673 142,-138.5 149.04,-134.157 156.927,-130.464 164.857,-127.359"/>
<polygon fill="midnightblue" stroke="midnightblue" points="69.1585,-200.534 65.5097,-210.481 74.565,-204.98 69.1585,-200.534"/>
</g>
<!-- Node126 -->
<g id="node10" class="node"><title>Node126</title>
<g id="a_node10"><a xlink:href="../../da/d01/namespacemom.html#a4c8332b095c6d295084089aa6b3b678a" target="_top" xlink:title="This subroutine orchestrates the time stepping of MOM. The adiabatic dynamics are stepped by calls to...">
<polygon fill="white" stroke="black" points="501,-230 501,-249 591,-249 591,-230 501,-230"/>
<text text-anchor="middle" x="546" y="-237" font-family="Helvetica,sans-Serif" font-size="10.00">mom::step_mom</text>
</a>
</g>
</g>
<!-- Node117&#45;&gt;Node126 -->
<g id="edge13" class="edge"><title>Node117&#45;&gt;Node126</title>
<path fill="none" stroke="midnightblue" d="M116.441,-226.013C196.347,-226.868 339.031,-229.067 461,-234.5 473.989,-235.079 488.1,-235.859 500.982,-236.631"/>
<polygon fill="midnightblue" stroke="midnightblue" points="116.101,-222.509 106.065,-225.905 116.029,-229.509 116.101,-222.509"/>
</g>
<!-- Node127 -->
<g id="node11" class="node"><title>Node127</title>
<g id="a_node11"><a xlink:href="../../d1/dc3/namespacemom__dynamics__split__rk2.html#a81cce65643a8cf94979d68354a9a1979" target="_top" xlink:title="RK2 splitting for time stepping MOM adiabatic dynamics. ">
<polygon fill="white" stroke="black" points="142,-49.5 142,-79.5 292,-79.5 292,-49.5 142,-49.5"/>
<text text-anchor="start" x="150" y="-67.5" font-family="Helvetica,sans-Serif" font-size="10.00">mom_dynamics_split</text>
<text text-anchor="middle" x="217" y="-56.5" font-family="Helvetica,sans-Serif" font-size="10.00">_rk2::step_mom_dyn_split_rk2</text>
</a>
</g>
</g>
<!-- Node117&#45;&gt;Node127 -->
<g id="edge15" class="edge"><title>Node117&#45;&gt;Node127</title>
<path fill="none" stroke="midnightblue" d="M63.7583,-201.039C77.0659,-170.682 103.71,-119.287 142,-89.5 146.923,-85.6698 152.467,-82.4089 158.248,-79.6364"/>
<polygon fill="midnightblue" stroke="midnightblue" points="60.4425,-199.894 59.7591,-210.466 66.8866,-202.628 60.4425,-199.894"/>
</g>
<!-- Node128 -->
<g id="node12" class="node"><title>Node128</title>
<g id="a_node12"><a xlink:href="../../da/db2/namespacemom__tracer__hor__diff.html#a069e22612062290389c2630c7f90ede2" target="_top" xlink:title="Compute along&#45;coordinate diffusion of all tracers using the diffusivity in CSKhTr, or using space&#45;dependent diffusivity. Multiple iterations are used (if necessary) so that there is no limit on the acceptable time increment. ">
<polygon fill="white" stroke="black" points="164,-0.5 164,-30.5 270,-30.5 270,-0.5 164,-0.5"/>
<text text-anchor="start" x="172" y="-18.5" font-family="Helvetica,sans-Serif" font-size="10.00">mom_tracer_hor_diff</text>
<text text-anchor="middle" x="217" y="-7.5" font-family="Helvetica,sans-Serif" font-size="10.00">::tracer_hordiff</text>
</a>
</g>
</g>
<!-- Node117&#45;&gt;Node128 -->
<g id="edge16" class="edge"><title>Node117&#45;&gt;Node128</title>
<path fill="none" stroke="midnightblue" d="M59.2661,-200.515C68.8668,-160.999 92.9193,-84.0971 142,-40.5 148.286,-34.9165 155.867,-30.5711 163.748,-27.1917"/>
<polygon fill="midnightblue" stroke="midnightblue" points="55.8264,-199.856 56.9817,-210.387 62.6462,-201.434 55.8264,-199.856"/>
</g>
<!-- Node120 -->
<g id="node4" class="node"><title>Node120</title>
<g id="a_node4"><a xlink:href="../../da/d01/namespacemom.html#ada859fe9e7e841ea281dae323cc4f6ac" target="_top" xlink:title="step_tracers is the main driver for running tracers offline in MOM6. This has been primarily develope...">
<polygon fill="white" stroke="black" points="497,-301 497,-320 595,-320 595,-301 497,-301"/>
<text text-anchor="middle" x="546" y="-308" font-family="Helvetica,sans-Serif" font-size="10.00">mom::step_tracers</text>
</a>
</g>
</g>
<!-- Node119&#45;&gt;Node120 -->
<g id="edge3" class="edge"><title>Node119&#45;&gt;Node120</title>
<path fill="none" stroke="midnightblue" d="M471.182,-310.5C479.811,-310.5 488.423,-310.5 496.558,-310.5"/>
<polygon fill="midnightblue" stroke="midnightblue" points="471.073,-307 461.073,-310.5 471.073,-314 471.073,-307"/>
</g>
<!-- Node120&#45;&gt;Node121 -->
<g id="edge4" class="edge"><title>Node120&#45;&gt;Node121</title>
<path fill="none" stroke="midnightblue" d="M605.516,-310.5C614.24,-310.5 622.94,-310.5 630.82,-310.5"/>
<polygon fill="midnightblue" stroke="midnightblue" points="605.313,-307 595.313,-310.5 605.313,-314 605.313,-307"/>
</g>
<!-- Node124&#45;&gt;Node118 -->
<g id="edge9" class="edge"><title>Node124&#45;&gt;Node118</title>
<path fill="none" stroke="midnightblue" d="M279.077,-337.985C300.202,-341.957 323.606,-346.358 343.715,-350.139"/>
<polygon fill="midnightblue" stroke="midnightblue" points="279.708,-334.542 269.234,-336.134 278.415,-341.421 279.708,-334.542"/>
</g>
<!-- Node124&#45;&gt;Node119 -->
<g id="edge10" class="edge"><title>Node124&#45;&gt;Node119</title>
<path fill="none" stroke="midnightblue" d="M279.332,-320.909C295.006,-319.48 311.92,-317.937 327.804,-316.489"/>
<polygon fill="midnightblue" stroke="midnightblue" points="278.875,-317.436 269.234,-321.829 279.51,-324.407 278.875,-317.436"/>
</g>
<!-- Node124&#45;&gt;Node122 -->
<g id="edge11" class="edge"><title>Node124&#45;&gt;Node122</title>
<path fill="none" stroke="midnightblue" d="M266.477,-307.717C294.262,-296.951 328.667,-283.62 354.66,-273.549"/>
<polygon fill="midnightblue" stroke="midnightblue" points="265.009,-304.532 256.949,-311.409 267.538,-311.059 265.009,-304.532"/>
</g>
<!-- Node126&#45;&gt;Node121 -->
<g id="edge14" class="edge"><title>Node126&#45;&gt;Node121</title>
<path fill="none" stroke="midnightblue" d="M571.314,-254.446C594.062,-268.43 627.368,-288.904 646.801,-300.85"/>
<polygon fill="midnightblue" stroke="midnightblue" points="572.929,-251.331 562.577,-249.075 569.263,-257.294 572.929,-251.331"/>
</g>
</g>
</svg>
        <g id="navigator" transform="translate(0 0)" fill="#404254">
                <rect fill="#f2f5e9" fill-opacity="0.5" stroke="#606060" stroke-width=".5" x="0" y="0" width="60" height="60"/>
                <use id="zoomplus" xlink:href="#zoomPlus" x="17" y="9" onmousedown="handleZoom(evt,'in')"/>
                <use id="zoomminus" xlink:href="#zoomMin" x="42" y="9" onmousedown="handleZoom(evt,'out')"/>
                <use id="reset" xlink:href="#resetDef" x="30" y="36" onmousedown="handleReset()"/>
                <g id="arrowUp" xlink:href="#dirArrow" transform="translate(30 24)" onmousedown="handlePan(0,-1)">
                  <use xlink:href="#rim" fill="#404040">
                        <set attributeName="fill" to="#808080" begin="arrowUp.mouseover" end="arrowUp.mouseout"/>
                  </use>
                  <path fill="none" stroke="white" stroke-width="1.5" d="M0,-3.0v7 M-2.5,-0.5L0,-3.0L2.5,-0.5"/>
                </g>
                <g id="arrowRight" xlink:href="#dirArrow" transform="rotate(90) translate(36 -43)" onmousedown="handlePan(1,0)">
                  <use xlink:href="#rim" fill="#404040">
                        <set attributeName="fill" to="#808080" begin="arrowRight.mouseover" end="arrowRight.mouseout"/>
                  </use>
                  <path fill="none" stroke="white" stroke-width="1.5" d="M0,-3.0v7 M-2.5,-0.5L0,-3.0L2.5,-0.5"/>
                </g>
                <g id="arrowDown" xlink:href="#dirArrow" transform="rotate(180) translate(-30 -48)" onmousedown="handlePan(0,1)">
                  <use xlink:href="#rim" fill="#404040">
                        <set attributeName="fill" to="#808080" begin="arrowDown.mouseover" end="arrowDown.mouseout"/>
                  </use>
                  <path fill="none" stroke="white" stroke-width="1.5" d="M0,-3.0v7 M-2.5,-0.5L0,-3.0L2.5,-0.5"/>
                </g>
                <g id="arrowLeft" xlink:href="#dirArrow" transform="rotate(270) translate(-36 17)" onmousedown="handlePan(-1,0)">
                  <use xlink:href="#rim" fill="#404040">
                        <set attributeName="fill" to="#808080" begin="arrowLeft.mouseover" end="arrowLeft.mouseout"/>
                  </use>
                  <path fill="none" stroke="white" stroke-width="1.5" d="M0,-3.0v7 M-2.5,-0.5L0,-3.0L2.5,-0.5"/>
                </g>
        </g>
        <svg viewBox="0 0 15 15" width="100%" height="30px" preserveAspectRatio="xMaxYMin meet">
         <g id="arrow_out" transform="scale(0.3 0.3)">
          <a xlink:href="namespacemom__error__handler_a34a02e601a60f03cb97a72fe25a32853_icgraph_org.svg" target="_base">
           <rect id="button" ry="5" rx="5" y="6" x="6" height="38" width="38"
                fill="#f2f5e9" fill-opacity="0.5" stroke="#606060" stroke-width="1.0"/>
           <path id="arrow"
             d="M 11.500037,31.436501 C 11.940474,20.09759 22.043105,11.32322 32.158766,21.979434 L 37.068811,17.246167 C 37.068811,17.246167 37.088388,32 37.088388,32 L 22.160133,31.978069 C 22.160133,31.978069 26.997745,27.140456 26.997745,27.140456 C 18.528582,18.264221 13.291696,25.230495 11.500037,31.436501 z"
             style="fill:#404040;"/>
          </a>
         </g>
        </svg>
</svg>
