<?xml version="1.0" encoding="UTF-8" standalone="no"?>
<!DOCTYPE svg PUBLIC "-//W3C//DTD SVG 1.1//EN"
 "http://www.w3.org/Graphics/SVG/1.1/DTD/svg11.dtd">
<!-- Generated by graphviz version 2.38.0 (20140413.2041)
 -->
<!-- Title: mom_diabatic_aux::applyboundaryfluxesinout Pages: 1 -->
<svg width="748pt" height="239pt"
 viewBox="0.00 0.00 748.00 238.50" xmlns="http://www.w3.org/2000/svg" xmlns:xlink="http://www.w3.org/1999/xlink">
<g id="graph0" class="graph" transform="scale(1 1) rotate(0) translate(4 234.5)">
<title>mom_diabatic_aux::applyboundaryfluxesinout</title>
<polygon fill="white" stroke="none" points="-4,4 -4,-234.5 744,-234.5 744,4 -4,4"/>
<!-- Node2 -->
<g id="node1" class="node"><title>Node2</title>
<polygon fill="#bfbfbf" stroke="black" points="0,-139.5 0,-158.5 215,-158.5 215,-139.5 0,-139.5"/>
<text text-anchor="middle" x="107.5" y="-146.5" font-family="Helvetica,sans-Serif" font-size="10.00">mom_diabatic_aux::applyboundaryfluxesinout</text>
</g>
<!-- Node3 -->
<g id="node2" class="node"><title>Node3</title>
<g id="a_node2"><a xlink:href="../../d8/daf/namespacemom__shortwave__abs.html#a977474b56b68f4db0d6b0dc604755e6c" target="_top" xlink:title="Apply shortwave heating below surface boundary layer. ">
<polygon fill="white" stroke="black" points="278,-200 278,-230 394,-230 394,-200 278,-200"/>
<text text-anchor="start" x="286" y="-218" font-family="Helvetica,sans-Serif" font-size="10.00">mom_shortwave_abs::</text>
<text text-anchor="middle" x="336" y="-207" font-family="Helvetica,sans-Serif" font-size="10.00">absorbremainingsw</text>
</a>
</g>
</g>
<!-- Node2&#45;&gt;Node3 -->
<g id="edge1" class="edge"><title>Node2&#45;&gt;Node3</title>
<path fill="none" stroke="midnightblue" d="M141.435,-158.597C175.925,-168.647 230.89,-184.663 273.451,-197.065"/>
<polygon fill="midnightblue" stroke="midnightblue" points="272.575,-200.455 283.155,-199.893 274.534,-193.735 272.575,-200.455"/>
</g>
<!-- Node4 -->
<g id="node3" class="node"><title>Node4</title>
<g id="a_node3"><a xlink:href="../../d1/d01/namespacemom__eos.html#ab6ed65d2df376be9bbea2050f50fe46e" target="_top" xlink:title="Calls the appropriate subroutine to calculate specific volume derivatives for an array. ">
<polygon fill="white" stroke="black" points="283.5,-112 283.5,-142 388.5,-142 388.5,-112 283.5,-112"/>
<text text-anchor="start" x="291.5" y="-130" font-family="Helvetica,sans-Serif" font-size="10.00">mom_eos::calculate</text>
<text text-anchor="middle" x="336" y="-119" font-family="Helvetica,sans-Serif" font-size="10.00">_specific_vol_derivs</text>
</a>
</g>
</g>
<!-- Node2&#45;&gt;Node4 -->
<g id="edge2" class="edge"><title>Node2&#45;&gt;Node4</title>
<path fill="none" stroke="midnightblue" d="M206.529,-139.478C229.133,-137.283 252.56,-135.007 273.121,-133.01"/>
<polygon fill="midnightblue" stroke="midnightblue" points="273.664,-136.474 283.279,-132.024 272.988,-129.507 273.664,-136.474"/>
</g>
<!-- Node10 -->
<g id="node9" class="node"><title>Node10</title>
<g id="a_node9"><a xlink:href="../../dd/dc3/namespacemom__forcing__type.html#ab67e7c2e99099bcf22d12885f349e1e4" target="_top" xlink:title="This subroutine extracts fluxes from the surface fluxes type. It works on a j&#45;row for optimization pu...">
<polygon fill="white" stroke="black" points="251,-161.5 251,-180.5 421,-180.5 421,-161.5 251,-161.5"/>
<text text-anchor="middle" x="336" y="-168.5" font-family="Helvetica,sans-Serif" font-size="10.00">mom_forcing_type::extractfluxes1d</text>
</a>
</g>
</g>
<!-- Node2&#45;&gt;Node10 -->
<g id="edge8" class="edge"><title>Node2&#45;&gt;Node10</title>
<path fill="none" stroke="midnightblue" d="M206.529,-158.522C217.788,-159.615 229.251,-160.729 240.463,-161.818"/>
<polygon fill="midnightblue" stroke="midnightblue" points="240.385,-165.326 250.676,-162.81 241.061,-158.359 240.385,-165.326"/>
</g>
<!-- Node11 -->
<g id="node10" class="node"><title>Node11</title>
<g id="a_node10"><a xlink:href="../../dd/dc3/namespacemom__forcing__type.html#a1048a8e80ebd47f83b91772c02aedba2" target="_top" xlink:title="Write out values of the fluxes arrays at the i,j location. This is a debugging tool. ">
<polygon fill="white" stroke="black" points="270,-41 270,-71 402,-71 402,-41 270,-41"/>
<text text-anchor="start" x="278" y="-59" font-family="Helvetica,sans-Serif" font-size="10.00">mom_forcing_type::forcing</text>
<text text-anchor="middle" x="336" y="-48" font-family="Helvetica,sans-Serif" font-size="10.00">_singlepointprint</text>
</a>
</g>
</g>
<!-- Node2&#45;&gt;Node11 -->
<g id="edge10" class="edge"><title>Node2&#45;&gt;Node11</title>
<path fill="none" stroke="midnightblue" d="M131.886,-139.398C168.791,-124.245 241.227,-94.5028 288.869,-74.9411"/>
<polygon fill="midnightblue" stroke="midnightblue" points="290.422,-78.0871 298.343,-71.0511 287.763,-71.6117 290.422,-78.0871"/>
</g>
<!-- Node5 -->
<g id="node4" class="node"><title>Node5</title>
<g id="a_node4"><a xlink:href="../../d0/de6/namespacemom__error__handler.html#a460cfb79a06c29fc249952c2a3710d67" target="_top" xlink:title="mom_error_handler::\lmom_error">
<polygon fill="white" stroke="black" points="474.5,-186 474.5,-216 580.5,-216 580.5,-186 474.5,-186"/>
<text text-anchor="start" x="482.5" y="-204" font-family="Helvetica,sans-Serif" font-size="10.00">mom_error_handler::</text>
<text text-anchor="middle" x="527.5" y="-193" font-family="Helvetica,sans-Serif" font-size="10.00">mom_error</text>
</a>
</g>
</g>
<!-- Node4&#45;&gt;Node5 -->
<g id="edge3" class="edge"><title>Node4&#45;&gt;Node5</title>
<path fill="none" stroke="midnightblue" d="M388.545,-139.69C399.487,-143.112 410.806,-147.218 421,-152 438.409,-160.167 439.826,-167.349 457,-176 461.284,-178.158 465.799,-180.219 470.388,-182.166"/>
<polygon fill="midnightblue" stroke="midnightblue" points="469.275,-185.491 479.857,-185.994 471.898,-179.001 469.275,-185.491"/>
</g>
<!-- Node7 -->
<g id="node6" class="node"><title>Node7</title>
<g id="a_node6"><a xlink:href="../../d5/de6/namespacemom__eos__linear.html#ac104dedf6f20ab794c2c430462ace217" target="_top" xlink:title="mom_eos_linear::calculate\l_specvol_derivs_linear">
<polygon fill="white" stroke="black" points="461,-137 461,-167 594,-167 594,-137 461,-137"/>
<text text-anchor="start" x="469" y="-155" font-family="Helvetica,sans-Serif" font-size="10.00">mom_eos_linear::calculate</text>
<text text-anchor="middle" x="527.5" y="-144" font-family="Helvetica,sans-Serif" font-size="10.00">_specvol_derivs_linear</text>
</a>
</g>
</g>
<!-- Node4&#45;&gt;Node7 -->
<g id="edge5" class="edge"><title>Node4&#45;&gt;Node7</title>
<path fill="none" stroke="midnightblue" d="M388.782,-133.831C407.899,-136.353 429.977,-139.266 450.779,-142.01"/>
<polygon fill="midnightblue" stroke="midnightblue" points="450.498,-145.504 460.87,-143.342 451.414,-138.564 450.498,-145.504"/>
</g>
<!-- Node8 -->
<g id="node7" class="node"><title>Node8</title>
<g id="a_node7"><a xlink:href="../../dd/d6b/namespacemom__eos__unesco.html#af8666837abadea54c016bf59838f96cc" target="_top" xlink:title="mom_eos_unesco::calculate\l_density_derivs_unesco">
<polygon fill="white" stroke="black" points="457,-88 457,-118 598,-118 598,-88 457,-88"/>
<text text-anchor="start" x="465" y="-106" font-family="Helvetica,sans-Serif" font-size="10.00">mom_eos_unesco::calculate</text>
<text text-anchor="middle" x="527.5" y="-95" font-family="Helvetica,sans-Serif" font-size="10.00">_density_derivs_unesco</text>
</a>
</g>
</g>
<!-- Node4&#45;&gt;Node8 -->
<g id="edge6" class="edge"><title>Node4&#45;&gt;Node8</title>
<path fill="none" stroke="midnightblue" d="M388.782,-120.442C406.606,-118.185 427.003,-115.601 446.54,-113.127"/>
<polygon fill="midnightblue" stroke="midnightblue" points="447.18,-116.574 456.66,-111.845 446.3,-109.629 447.18,-116.574"/>
</g>
<!-- Node9 -->
<g id="node8" class="node"><title>Node9</title>
<g id="a_node8"><a xlink:href="../../de/d76/namespacemom__eos__wright.html#a890d098ddbdc76f6cfbf1b7cf19b6388" target="_top" xlink:title="mom_eos_wright::calculate\l_specvol_derivs_wright">
<polygon fill="white" stroke="black" points="459.5,-39 459.5,-69 595.5,-69 595.5,-39 459.5,-39"/>
<text text-anchor="start" x="467.5" y="-57" font-family="Helvetica,sans-Serif" font-size="10.00">mom_eos_wright::calculate</text>
<text text-anchor="middle" x="527.5" y="-46" font-family="Helvetica,sans-Serif" font-size="10.00">_specvol_derivs_wright</text>
</a>
</g>
</g>
<!-- Node4&#45;&gt;Node9 -->
<g id="edge7" class="edge"><title>Node4&#45;&gt;Node9</title>
<path fill="none" stroke="midnightblue" d="M372.502,-111.902C396.281,-101.939 428.358,-88.7836 457,-78 461.878,-76.1636 466.967,-74.3025 472.077,-72.4713"/>
<polygon fill="midnightblue" stroke="midnightblue" points="473.62,-75.6381 481.878,-69.001 471.283,-69.0395 473.62,-75.6381"/>
</g>
<!-- Node6 -->
<g id="node5" class="node"><title>Node6</title>
<g id="a_node5"><a xlink:href="../../d0/de6/namespacemom__error__handler.html#ad5f00a53059c72fe2332d1436c80ca71" target="_top" xlink:title="mom_error_handler::\lis_root_pe">
<polygon fill="white" stroke="black" points="634,-186 634,-216 740,-216 740,-186 634,-186"/>
<text text-anchor="start" x="642" y="-204" font-family="Helvetica,sans-Serif" font-size="10.00">mom_error_handler::</text>
<text text-anchor="middle" x="687" y="-193" font-family="Helvetica,sans-Serif" font-size="10.00">is_root_pe</text>
</a>
</g>
</g>
<!-- Node5&#45;&gt;Node6 -->
<g id="edge4" class="edge"><title>Node5&#45;&gt;Node6</title>
<path fill="none" stroke="midnightblue" d="M580.508,-201C594.279,-201 609.289,-201 623.552,-201"/>
<polygon fill="midnightblue" stroke="midnightblue" points="623.778,-204.5 633.778,-201 623.778,-197.5 623.778,-204.5"/>
</g>
<!-- Node10&#45;&gt;Node5 -->
<g id="edge9" class="edge"><title>Node10&#45;&gt;Node5</title>
<path fill="none" stroke="midnightblue" d="M397.219,-180.533C418.644,-183.925 442.798,-187.749 464.379,-191.166"/>
<polygon fill="midnightblue" stroke="midnightblue" points="463.994,-194.648 474.418,-192.755 465.088,-187.734 463.994,-194.648"/>
</g>
<!-- Node12 -->
<g id="node11" class="node"><title>Node12</title>
<g id="a_node11"><a xlink:href="../../d5/ded/MOM__forcing__type_8F90.html#a17e3300314324a127a3ae8c284cf4195" target="_top" xlink:title="Format and write a message depending on associated state of array. ">
<polygon fill="white" stroke="black" points="503.5,-0.5 503.5,-19.5 551.5,-19.5 551.5,-0.5 503.5,-0.5"/>
<text text-anchor="middle" x="527.5" y="-7.5" font-family="Helvetica,sans-Serif" font-size="10.00">locmsg</text>
</a>
</g>
</g>
<!-- Node11&#45;&gt;Node12 -->
<g id="edge11" class="edge"><title>Node11&#45;&gt;Node12</title>
<path fill="none" stroke="midnightblue" d="M399.049,-40.9379C430.496,-33.3044 467.42,-24.3414 493.407,-18.0332"/>
<polygon fill="midnightblue" stroke="midnightblue" points="494.247,-21.431 503.139,-15.6708 492.595,-14.6285 494.247,-21.431"/>
</g>
</g>
</svg>
