<?xml version="1.0" encoding="UTF-8" standalone="no"?>
<!DOCTYPE svg PUBLIC "-//W3C//DTD SVG 1.1//EN"
 "http://www.w3.org/Graphics/SVG/1.1/DTD/svg11.dtd">
<!-- Generated by graphviz version 2.38.0 (20140413.2041)
 -->
<!-- Title: src/parameterizations/vertical/MOM_diapyc_energy_req.F90 Pages: 1 -->
<svg width="120pt" height="106pt"
 viewBox="0.00 0.00 120.00 106.00" xmlns="http://www.w3.org/2000/svg" xmlns:xlink="http://www.w3.org/1999/xlink">
<g id="graph0" class="graph" transform="scale(1 1) rotate(0) translate(4 102)">
<title>src/parameterizations/vertical/MOM_diapyc_energy_req.F90</title>
<polygon fill="white" stroke="none" points="-4,4 -4,-102 116,-102 116,4 -4,4"/>
<!-- Node0 -->
<g id="node1" class="node"><title>Node0</title>
<polygon fill="#bfbfbf" stroke="black" points="-7.10543e-15,-56.5 -7.10543e-15,-97.5 112,-97.5 112,-56.5 -7.10543e-15,-56.5"/>
<text text-anchor="start" x="8" y="-85.5" font-family="Helvetica,sans-Serif" font-size="10.00">src/parameterizations</text>
<text text-anchor="start" x="8" y="-74.5" font-family="Helvetica,sans-Serif" font-size="10.00">/vertical/MOM_diapyc</text>
<text text-anchor="middle" x="56" y="-63.5" font-family="Helvetica,sans-Serif" font-size="10.00">_energy_req.F90</text>
</g>
<!-- Node1 -->
<g id="node2" class="node"><title>Node1</title>
<g id="a_node2"><a xlink:href="../../dd/d60/version__variable_8h.html" target="_top" xlink:title="version_variable.h">
<polygon fill="white" stroke="black" points="8.5,-0.5 8.5,-19.5 103.5,-19.5 103.5,-0.5 8.5,-0.5"/>
<text text-anchor="middle" x="56" y="-7.5" font-family="Helvetica,sans-Serif" font-size="10.00">version_variable.h</text>
</a>
</g>
</g>
<!-- Node0&#45;&gt;Node1 -->
<g id="edge1" class="edge"><title>Node0&#45;&gt;Node1</title>
<path fill="none" stroke="midnightblue" d="M56,-56.4979C56,-48.0653 56,-38.2351 56,-29.874"/>
<polygon fill="midnightblue" stroke="midnightblue" points="59.5001,-29.6525 56,-19.6525 52.5001,-29.6525 59.5001,-29.6525"/>
</g>
</g>
</svg>
