<?xml version="1.0" encoding="UTF-8" standalone="no"?>
<!DOCTYPE svg PUBLIC "-//W3C//DTD SVG 1.1//EN"
 "http://www.w3.org/Graphics/SVG/1.1/DTD/svg11.dtd">
<!-- Generated by graphviz version 2.38.0 (20140413.2041)
 -->
<!-- Title: mom_tracer_registry::register_tracer Pages: 1 -->
<svg width="641pt" height="140pt"
 viewBox="0.00 0.00 641.00 140.01" xmlns="http://www.w3.org/2000/svg" xmlns:xlink="http://www.w3.org/1999/xlink">
<g id="graph0" class="graph" transform="scale(1 1) rotate(0) translate(4 136.012)">
<title>mom_tracer_registry::register_tracer</title>
<polygon fill="white" stroke="none" points="-4,4 -4,-136.012 637,-136.012 637,4 -4,4"/>
<!-- Node28 -->
<g id="node1" class="node"><title>Node28</title>
<polygon fill="#bfbfbf" stroke="black" points="0,-88.5 0,-118.5 91,-118.5 91,-88.5 0,-88.5"/>
<text text-anchor="start" x="8" y="-106.5" font-family="Helvetica,sans-Serif" font-size="10.00">mom_tracer_registry</text>
<text text-anchor="middle" x="45.5" y="-95.5" font-family="Helvetica,sans-Serif" font-size="10.00">::register_tracer</text>
</g>
<!-- Node29 -->
<g id="node2" class="node"><title>Node29</title>
<g id="a_node2"><a xlink:href="../../d0/de6/namespacemom__error__handler.html#a460cfb79a06c29fc249952c2a3710d67" target="_top" xlink:title="mom_error_handler::\lmom_error">
<polygon fill="white" stroke="black" points="411,-88.5 411,-118.5 504,-118.5 504,-88.5 411,-88.5"/>
<text text-anchor="start" x="419" y="-106.5" font-family="Helvetica,sans-Serif" font-size="10.00">mom_error_handler::</text>
<text text-anchor="middle" x="457.5" y="-95.5" font-family="Helvetica,sans-Serif" font-size="10.00">mom_error</text>
</a>
</g>
</g>
<!-- Node28&#45;&gt;Node29 -->
<g id="edge1" class="edge"><title>Node28&#45;&gt;Node29</title>
<path fill="none" stroke="midnightblue" d="M91.3035,-116.014C102.841,-118.7 115.304,-121.138 127,-122.5 236.483,-135.245 265.5,-135.095 375,-122.5 383.403,-121.533 392.199,-120.024 400.775,-118.268"/>
<polygon fill="midnightblue" stroke="midnightblue" points="401.675,-121.655 410.704,-116.112 400.189,-114.814 401.675,-121.655"/>
</g>
<!-- Node31 -->
<g id="node4" class="node"><title>Node31</title>
<g id="a_node4"><a xlink:href="../../d5/d89/namespacemom__io.html#a23e82d1d89d9bb1c9bdf802ce80d4508" target="_top" xlink:title="This routine queries vardesc. ">
<polygon fill="white" stroke="black" points="127,-94 127,-113 229,-113 229,-94 127,-94"/>
<text text-anchor="middle" x="178" y="-101" font-family="Helvetica,sans-Serif" font-size="10.00">mom_io::query_vardesc</text>
</a>
</g>
</g>
<!-- Node28&#45;&gt;Node31 -->
<g id="edge3" class="edge"><title>Node28&#45;&gt;Node31</title>
<path fill="none" stroke="midnightblue" d="M91.0457,-103.5C99.3247,-103.5 108.1,-103.5 116.757,-103.5"/>
<polygon fill="midnightblue" stroke="midnightblue" points="116.828,-107 126.828,-103.5 116.828,-100 116.828,-107"/>
</g>
<!-- Node33 -->
<g id="node6" class="node"><title>Node33</title>
<g id="a_node6"><a xlink:href="../../d1/d35/namespacemom__tracer__registry.html#a452937bf1f9d01a47d1a80793e317b33" target="_top" xlink:title="This routine include declares and sets the variable &quot;version&quot;. ">
<polygon fill="white" stroke="black" points="274.5,-44.5 274.5,-74.5 365.5,-74.5 365.5,-44.5 274.5,-44.5"/>
<text text-anchor="start" x="282.5" y="-62.5" font-family="Helvetica,sans-Serif" font-size="10.00">mom_tracer_registry</text>
<text text-anchor="middle" x="320" y="-51.5" font-family="Helvetica,sans-Serif" font-size="10.00">::tracer_registry_init</text>
</a>
</g>
</g>
<!-- Node28&#45;&gt;Node33 -->
<g id="edge6" class="edge"><title>Node28&#45;&gt;Node33</title>
<path fill="none" stroke="midnightblue" d="M91.0379,-92.1301C102.691,-89.3912 115.275,-86.6412 127,-84.5 172.988,-76.1016 225.673,-69.45 264.207,-65.1259"/>
<polygon fill="midnightblue" stroke="midnightblue" points="264.629,-68.6007 274.184,-64.0228 263.86,-61.6431 264.629,-68.6007"/>
</g>
<!-- Node30 -->
<g id="node3" class="node"><title>Node30</title>
<g id="a_node3"><a xlink:href="../../d0/de6/namespacemom__error__handler.html#ad5f00a53059c72fe2332d1436c80ca71" target="_top" xlink:title="mom_error_handler::\lis_root_pe">
<polygon fill="white" stroke="black" points="540,-44.5 540,-74.5 633,-74.5 633,-44.5 540,-44.5"/>
<text text-anchor="start" x="548" y="-62.5" font-family="Helvetica,sans-Serif" font-size="10.00">mom_error_handler::</text>
<text text-anchor="middle" x="586.5" y="-51.5" font-family="Helvetica,sans-Serif" font-size="10.00">is_root_pe</text>
</a>
</g>
</g>
<!-- Node29&#45;&gt;Node30 -->
<g id="edge2" class="edge"><title>Node29&#45;&gt;Node30</title>
<path fill="none" stroke="midnightblue" d="M501.851,-88.4808C511.653,-85.0849 522.169,-81.4414 532.324,-77.9233"/>
<polygon fill="midnightblue" stroke="midnightblue" points="533.61,-81.1818 541.913,-74.6009 531.318,-74.5675 533.61,-81.1818"/>
</g>
<!-- Node32 -->
<g id="node5" class="node"><title>Node32</title>
<g id="a_node5"><a xlink:href="../../d5/d89/namespacemom__io.html#ac4bc408e8b38dbd669842753f26ebf88" target="_top" xlink:title="Copies a string. ">
<polygon fill="white" stroke="black" points="265,-94 265,-113 375,-113 375,-94 265,-94"/>
<text text-anchor="middle" x="320" y="-101" font-family="Helvetica,sans-Serif" font-size="10.00">mom_io::safe_string_copy</text>
</a>
</g>
</g>
<!-- Node31&#45;&gt;Node32 -->
<g id="edge4" class="edge"><title>Node31&#45;&gt;Node32</title>
<path fill="none" stroke="midnightblue" d="M229.148,-103.5C237.494,-103.5 246.251,-103.5 254.887,-103.5"/>
<polygon fill="midnightblue" stroke="midnightblue" points="254.938,-107 264.938,-103.5 254.938,-100 254.938,-107"/>
</g>
<!-- Node32&#45;&gt;Node29 -->
<g id="edge5" class="edge"><title>Node32&#45;&gt;Node29</title>
<path fill="none" stroke="midnightblue" d="M375.332,-103.5C383.707,-103.5 392.367,-103.5 400.772,-103.5"/>
<polygon fill="midnightblue" stroke="midnightblue" points="400.862,-107 410.862,-103.5 400.862,-100 400.862,-107"/>
</g>
<!-- Node33&#45;&gt;Node29 -->
<g id="edge10" class="edge"><title>Node33&#45;&gt;Node29</title>
<path fill="none" stroke="midnightblue" d="M365.743,-74.0292C377.065,-77.7057 389.36,-81.6981 401.138,-85.5226"/>
<polygon fill="midnightblue" stroke="midnightblue" points="400.285,-88.9254 410.877,-88.6851 402.447,-82.2676 400.285,-88.9254"/>
</g>
<!-- Node33&#45;&gt;Node30 -->
<g id="edge9" class="edge"><title>Node33&#45;&gt;Node30</title>
<path fill="none" stroke="midnightblue" d="M365.57,-59.5C410.791,-59.5 480.905,-59.5 529.771,-59.5"/>
<polygon fill="midnightblue" stroke="midnightblue" points="529.86,-63.0001 539.86,-59.5 529.86,-56.0001 529.86,-63.0001"/>
</g>
<!-- Node34 -->
<g id="node7" class="node"><title>Node34</title>
<g id="a_node7"><a xlink:href="../../d9/def/namespacemom__file__parser.html#a17c0ef1bb1912f02faa0aaa1e0f64210" target="_top" xlink:title="mom_file_parser::log\l_version">
<polygon fill="white" stroke="black" points="411.5,-0.5 411.5,-30.5 503.5,-30.5 503.5,-0.5 411.5,-0.5"/>
<text text-anchor="start" x="419.5" y="-18.5" font-family="Helvetica,sans-Serif" font-size="10.00">mom_file_parser::log</text>
<text text-anchor="middle" x="457.5" y="-7.5" font-family="Helvetica,sans-Serif" font-size="10.00">_version</text>
</a>
</g>
</g>
<!-- Node33&#45;&gt;Node34 -->
<g id="edge7" class="edge"><title>Node33&#45;&gt;Node34</title>
<path fill="none" stroke="midnightblue" d="M365.743,-44.9708C377.186,-41.2552 389.622,-37.2169 401.513,-33.3554"/>
<polygon fill="midnightblue" stroke="midnightblue" points="402.911,-36.5817 411.341,-30.1643 400.749,-29.9239 402.911,-36.5817"/>
</g>
<!-- Node34&#45;&gt;Node30 -->
<g id="edge8" class="edge"><title>Node34&#45;&gt;Node30</title>
<path fill="none" stroke="midnightblue" d="M501.851,-30.5192C511.653,-33.9151 522.169,-37.5586 532.324,-41.0767"/>
<polygon fill="midnightblue" stroke="midnightblue" points="531.318,-44.4325 541.913,-44.3991 533.61,-37.8182 531.318,-44.4325"/>
</g>
</g>
</svg>
