<?xml version="1.0" encoding="UTF-8" standalone="no"?>
<!DOCTYPE svg PUBLIC "-//W3C//DTD SVG 1.1//EN"
 "http://www.w3.org/Graphics/SVG/1.1/DTD/svg11.dtd">
<!-- Generated by graphviz version 2.38.0 (20140413.2041)
 -->
<!-- Title: mom_tracer_registry::tracer_vertdiff Pages: 1 -->
<svg width="244pt" height="148pt"
 viewBox="0.00 0.00 244.00 147.50" xmlns="http://www.w3.org/2000/svg" xmlns:xlink="http://www.w3.org/1999/xlink">
<g id="graph0" class="graph" transform="scale(1 1) rotate(0) translate(4 143.5)">
<title>mom_tracer_registry::tracer_vertdiff</title>
<polygon fill="white" stroke="none" points="-4,4 -4,-143.5 240,-143.5 240,4 -4,4"/>
<!-- Node32 -->
<g id="node1" class="node"><title>Node32</title>
<polygon fill="#bfbfbf" stroke="black" points="0,-49.5 0,-79.5 91,-79.5 91,-49.5 0,-49.5"/>
<text text-anchor="start" x="8" y="-67.5" font-family="Helvetica,sans-Serif" font-size="10.00">mom_tracer_registry</text>
<text text-anchor="middle" x="45.5" y="-56.5" font-family="Helvetica,sans-Serif" font-size="10.00">::tracer_vertdiff</text>
</g>
<!-- Node33 -->
<g id="node2" class="node"><title>Node33</title>
<g id="a_node2"><a xlink:href="../../d6/dcd/namespaceideal__age__example.html#ae85ef917cae6288bd0841661194ed9e6" target="_top" xlink:title="ideal_age_example::\lideal_age_tracer_column\l_physics">
<polygon fill="white" stroke="black" points="128,-98 128,-139 235,-139 235,-98 128,-98"/>
<text text-anchor="start" x="136" y="-127" font-family="Helvetica,sans-Serif" font-size="10.00">ideal_age_example::</text>
<text text-anchor="start" x="136" y="-116" font-family="Helvetica,sans-Serif" font-size="10.00">ideal_age_tracer_column</text>
<text text-anchor="middle" x="181.5" y="-105" font-family="Helvetica,sans-Serif" font-size="10.00">_physics</text>
</a>
</g>
</g>
<!-- Node32&#45;&gt;Node33 -->
<g id="edge1" class="edge"><title>Node32&#45;&gt;Node33</title>
<path fill="none" stroke="midnightblue" d="M93.3559,-83.3822C104.992,-88.0716 117.523,-93.1211 129.353,-97.8887"/>
<polygon fill="midnightblue" stroke="midnightblue" points="94.4099,-80.0335 83.8265,-79.542 91.7934,-86.5262 94.4099,-80.0335"/>
</g>
<!-- Node34 -->
<g id="node3" class="node"><title>Node34</title>
<g id="a_node3"><a xlink:href="../../d7/da0/namespaceisomip__tracer.html#a73a96f3137a674f4d6880910958ff6d1" target="_top" xlink:title="This subroutine applies diapycnal diffusion and any other column. ">
<polygon fill="white" stroke="black" points="130.5,-49.5 130.5,-79.5 232.5,-79.5 232.5,-49.5 130.5,-49.5"/>
<text text-anchor="start" x="138.5" y="-67.5" font-family="Helvetica,sans-Serif" font-size="10.00">isomip_tracer::isomip</text>
<text text-anchor="middle" x="181.5" y="-56.5" font-family="Helvetica,sans-Serif" font-size="10.00">_tracer_column_physics</text>
</a>
</g>
</g>
<!-- Node32&#45;&gt;Node34 -->
<g id="edge2" class="edge"><title>Node32&#45;&gt;Node34</title>
<path fill="none" stroke="midnightblue" d="M101.28,-64.5C110.801,-64.5 120.663,-64.5 130.061,-64.5"/>
<polygon fill="midnightblue" stroke="midnightblue" points="101.12,-61.0001 91.1201,-64.5 101.12,-68.0001 101.12,-61.0001"/>
</g>
<!-- Node35 -->
<g id="node4" class="node"><title>Node35</title>
<g id="a_node4"><a xlink:href="../../d6/dd2/namespacemom__ocmip2__cfc.html#a736cde8b4a90ef59df1944118262291a" target="_top" xlink:title="mom_ocmip2_cfc::ocmip2\l_cfc_column_physics">
<polygon fill="white" stroke="black" points="127,-0.5 127,-30.5 236,-30.5 236,-0.5 127,-0.5"/>
<text text-anchor="start" x="135" y="-18.5" font-family="Helvetica,sans-Serif" font-size="10.00">mom_ocmip2_cfc::ocmip2</text>
<text text-anchor="middle" x="181.5" y="-7.5" font-family="Helvetica,sans-Serif" font-size="10.00">_cfc_column_physics</text>
</a>
</g>
</g>
<!-- Node32&#45;&gt;Node35 -->
<g id="edge3" class="edge"><title>Node32&#45;&gt;Node35</title>
<path fill="none" stroke="midnightblue" d="M97.5884,-45.8184C111.312,-40.7999 125.982,-35.4357 139.108,-30.6359"/>
<polygon fill="midnightblue" stroke="midnightblue" points="95.9876,-42.6771 87.7978,-49.3986 98.3916,-49.2513 95.9876,-42.6771"/>
</g>
</g>
</svg>
