<?xml version="1.0" encoding="UTF-8" standalone="no"?>
<!DOCTYPE svg PUBLIC "-//W3C//DTD SVG 1.1//EN"
 "http://www.w3.org/Graphics/SVG/1.1/DTD/svg11.dtd">
<!-- Generated by graphviz version 2.38.0 (20140413.2041)
 -->
<!-- Title: mom_tracer_registry::tracer_registry_init Pages: 1 -->
<svg width="357pt" height="102pt"
 viewBox="0.00 0.00 357.00 102.13" xmlns="http://www.w3.org/2000/svg" xmlns:xlink="http://www.w3.org/1999/xlink">
<g id="graph0" class="graph" transform="scale(1 1) rotate(0) translate(4 98.1319)">
<title>mom_tracer_registry::tracer_registry_init</title>
<polygon fill="white" stroke="none" points="-4,4 -4,-98.1319 353,-98.1319 353,4 -4,4"/>
<!-- Node38 -->
<g id="node1" class="node"><title>Node38</title>
<polygon fill="#bfbfbf" stroke="black" points="0,-49.5 0,-79.5 91,-79.5 91,-49.5 0,-49.5"/>
<text text-anchor="start" x="8" y="-67.5" font-family="Helvetica,sans-Serif" font-size="10.00">mom_tracer_registry</text>
<text text-anchor="middle" x="45.5" y="-56.5" font-family="Helvetica,sans-Serif" font-size="10.00">::tracer_registry_init</text>
</g>
<!-- Node39 -->
<g id="node2" class="node"><title>Node39</title>
<g id="a_node2"><a xlink:href="../../d0/de6/namespacemom__error__handler.html#ad5f00a53059c72fe2332d1436c80ca71" target="_top" xlink:title="mom_error_handler::\lis_root_pe">
<polygon fill="white" stroke="black" points="256,-49.5 256,-79.5 349,-79.5 349,-49.5 256,-49.5"/>
<text text-anchor="start" x="264" y="-67.5" font-family="Helvetica,sans-Serif" font-size="10.00">mom_error_handler::</text>
<text text-anchor="middle" x="302.5" y="-56.5" font-family="Helvetica,sans-Serif" font-size="10.00">is_root_pe</text>
</a>
</g>
</g>
<!-- Node38&#45;&gt;Node39 -->
<g id="edge1" class="edge"><title>Node38&#45;&gt;Node39</title>
<path fill="none" stroke="midnightblue" d="M86.482,-79.5165C99.241,-83.6012 113.544,-87.4587 127,-89.5 167.866,-95.6996 179.124,-95.6285 220,-89.5 230.315,-87.9535 241.128,-85.3637 251.382,-82.4223"/>
<polygon fill="midnightblue" stroke="midnightblue" points="252.446,-85.7573 261.008,-79.5171 250.423,-79.0559 252.446,-85.7573"/>
</g>
<!-- Node40 -->
<g id="node3" class="node"><title>Node40</title>
<g id="a_node3"><a xlink:href="../../d9/def/namespacemom__file__parser.html#a17c0ef1bb1912f02faa0aaa1e0f64210" target="_top" xlink:title="mom_file_parser::log\l_version">
<polygon fill="white" stroke="black" points="127.5,-49.5 127.5,-79.5 219.5,-79.5 219.5,-49.5 127.5,-49.5"/>
<text text-anchor="start" x="135.5" y="-67.5" font-family="Helvetica,sans-Serif" font-size="10.00">mom_file_parser::log</text>
<text text-anchor="middle" x="173.5" y="-56.5" font-family="Helvetica,sans-Serif" font-size="10.00">_version</text>
</a>
</g>
</g>
<!-- Node38&#45;&gt;Node40 -->
<g id="edge2" class="edge"><title>Node38&#45;&gt;Node40</title>
<path fill="none" stroke="midnightblue" d="M91.2777,-64.5C99.7172,-64.5 108.634,-64.5 117.347,-64.5"/>
<polygon fill="midnightblue" stroke="midnightblue" points="117.442,-68.0001 127.442,-64.5 117.442,-61.0001 117.442,-68.0001"/>
</g>
<!-- Node41 -->
<g id="node4" class="node"><title>Node41</title>
<g id="a_node4"><a xlink:href="../../d0/de6/namespacemom__error__handler.html#a460cfb79a06c29fc249952c2a3710d67" target="_top" xlink:title="mom_error_handler::\lmom_error">
<polygon fill="white" stroke="black" points="127,-0.5 127,-30.5 220,-30.5 220,-0.5 127,-0.5"/>
<text text-anchor="start" x="135" y="-18.5" font-family="Helvetica,sans-Serif" font-size="10.00">mom_error_handler::</text>
<text text-anchor="middle" x="173.5" y="-7.5" font-family="Helvetica,sans-Serif" font-size="10.00">mom_error</text>
</a>
</g>
</g>
<!-- Node38&#45;&gt;Node41 -->
<g id="edge4" class="edge"><title>Node38&#45;&gt;Node41</title>
<path fill="none" stroke="midnightblue" d="M85.3323,-49.3986C97.5478,-44.6481 111.192,-39.3419 123.993,-34.364"/>
<polygon fill="midnightblue" stroke="midnightblue" points="125.528,-37.5225 133.579,-30.6359 122.99,-30.9984 125.528,-37.5225"/>
</g>
<!-- Node40&#45;&gt;Node39 -->
<g id="edge3" class="edge"><title>Node40&#45;&gt;Node39</title>
<path fill="none" stroke="midnightblue" d="M219.633,-64.5C228.037,-64.5 236.911,-64.5 245.592,-64.5"/>
<polygon fill="midnightblue" stroke="midnightblue" points="245.656,-68.0001 255.656,-64.5 245.656,-61.0001 245.656,-68.0001"/>
</g>
<!-- Node41&#45;&gt;Node39 -->
<g id="edge5" class="edge"><title>Node41&#45;&gt;Node39</title>
<path fill="none" stroke="midnightblue" d="M213.64,-30.6014C225.953,-35.3519 239.706,-40.6581 252.608,-45.636"/>
<polygon fill="midnightblue" stroke="midnightblue" points="251.681,-49.0298 262.27,-49.3641 254.2,-42.499 251.681,-49.0298"/>
</g>
</g>
</svg>
