<?xml version="1.0" encoding="UTF-8" standalone="no"?>
<!DOCTYPE svg PUBLIC "-//W3C//DTD SVG 1.1//EN"
 "http://www.w3.org/Graphics/SVG/1.1/DTD/svg11.dtd">
<!-- Generated by graphviz version 2.38.0 (20140413.2041)
 -->
<!-- Title: mom_surface_forcing::surface_forcing_cs Pages: 1 -->
<svg width="420pt" height="1257pt"
 viewBox="0.00 0.00 420.00 1256.65" xmlns="http://www.w3.org/2000/svg" xmlns:xlink="http://www.w3.org/1999/xlink">
<g id="graph0" class="graph" transform="scale(1 1) rotate(0) translate(4 1252.65)">
<title>mom_surface_forcing::surface_forcing_cs</title>
<polygon fill="white" stroke="none" points="-4,4 -4,-1252.65 416,-1252.65 416,4 -4,4"/>
<!-- Node1 -->
<g id="node1" class="node"><title>Node1</title>
<polygon fill="#bfbfbf" stroke="black" points="302,-543.645 302,-573.645 412,-573.645 412,-543.645 302,-543.645"/>
<text text-anchor="start" x="310" y="-561.645" font-family="Helvetica,sans-Serif" font-size="10.00">mom_surface_forcing</text>
<text text-anchor="middle" x="357" y="-550.645" font-family="Helvetica,sans-Serif" font-size="10.00">::surface_forcing_cs</text>
</g>
<!-- Node2 -->
<g id="node2" class="node"><title>Node2</title>
<polygon fill="white" stroke="#bfbfbf" points="9,-1210.65 9,-1240.65 125,-1240.65 125,-1210.65 9,-1210.65"/>
<text text-anchor="start" x="17" y="-1228.65" font-family="Helvetica,sans-Serif" font-size="10.00">type(scm_cvmix_tests</text>
<text text-anchor="middle" x="67" y="-1217.65" font-family="Helvetica,sans-Serif" font-size="10.00">_cs), pointer</text>
</g>
<!-- Node2&#45;&gt;Node1 -->
<g id="edge1" class="edge"><title>Node2&#45;&gt;Node1</title>
<path fill="none" stroke="#9a32cd" stroke-dasharray="5,2" d="M135.102,-1236.64C183.271,-1240.41 246.127,-1236.16 284,-1197.65 329.304,-1151.58 351.55,-666.284 355.393,-573.817"/>
<polygon fill="#9a32cd" stroke="#9a32cd" points="135.337,-1233.15 125.061,-1235.73 134.702,-1240.12 135.337,-1233.15"/>
<text text-anchor="middle" x="218" y="-1240.65" font-family="Helvetica,sans-Serif" font-size="10.00"> scm_cvmix_tests_csp</text>
</g>
<!-- Node3 -->
<g id="node3" class="node"><title>Node3</title>
<polygon fill="white" stroke="#bfbfbf" points="30,-1172.15 30,-1191.15 104,-1191.15 104,-1172.15 30,-1172.15"/>
<text text-anchor="middle" x="67" y="-1179.15" font-family="Helvetica,sans-Serif" font-size="10.00">forcing_diags</text>
</g>
<!-- Node3&#45;&gt;Node1 -->
<g id="edge2" class="edge"><title>Node3&#45;&gt;Node1</title>
<path fill="none" stroke="#9a32cd" stroke-dasharray="5,2" d="M114.304,-1183.42C170.538,-1184.5 260.775,-1182.46 284,-1159.65 327.244,-1117.16 351.028,-662.975 355.299,-573.792"/>
<polygon fill="#9a32cd" stroke="#9a32cd" points="114.303,-1179.92 104.224,-1183.18 114.139,-1186.92 114.303,-1179.92"/>
<text text-anchor="middle" x="218" y="-1185.65" font-family="Helvetica,sans-Serif" font-size="10.00"> handles</text>
</g>
<!-- Node4 -->
<g id="node4" class="node"><title>Node4</title>
<polygon fill="white" stroke="#bfbfbf" points="45,-994.145 45,-1013.15 89,-1013.15 89,-994.145 45,-994.145"/>
<text text-anchor="middle" x="67" y="-1001.15" font-family="Helvetica,sans-Serif" font-size="10.00">logical</text>
</g>
<!-- Node4&#45;&gt;Node1 -->
<g id="edge3" class="edge"><title>Node4&#45;&gt;Node1</title>
<path fill="none" stroke="#9a32cd" stroke-dasharray="5,2" d="M99.2003,-999.995C157.439,-993.047 277.436,-978.044 284,-971.645 342.372,-914.745 353.718,-641.217 355.642,-573.724"/>
<polygon fill="#9a32cd" stroke="#9a32cd" points="98.604,-996.541 89.0859,-1001.19 99.4286,-1003.49 98.604,-996.541"/>
<text text-anchor="middle" x="218" y="-1149.65" font-family="Helvetica,sans-Serif" font-size="10.00"> first_call_set_forcing</text>
<text text-anchor="start" x="164.5" y="-1138.65" font-family="Helvetica,sans-Serif" font-size="10.00">adjust_net_srestore</text>
<text text-anchor="middle" x="218" y="-1127.65" font-family="Helvetica,sans-Serif" font-size="10.00">_by_scaling</text>
<text text-anchor="middle" x="218" y="-1116.65" font-family="Helvetica,sans-Serif" font-size="10.00">rigid_sea_ice</text>
<text text-anchor="middle" x="218" y="-1105.65" font-family="Helvetica,sans-Serif" font-size="10.00">variable_winds</text>
<text text-anchor="middle" x="218" y="-1094.65" font-family="Helvetica,sans-Serif" font-size="10.00">bulkmixedlayer</text>
<text text-anchor="start" x="164.5" y="-1083.65" font-family="Helvetica,sans-Serif" font-size="10.00">adjust_net_fresh</text>
<text text-anchor="middle" x="218" y="-1072.65" font-family="Helvetica,sans-Serif" font-size="10.00">_water_to_zero</text>
<text text-anchor="middle" x="218" y="-1061.65" font-family="Helvetica,sans-Serif" font-size="10.00">restorebuoy</text>
<text text-anchor="start" x="164.5" y="-1050.65" font-family="Helvetica,sans-Serif" font-size="10.00">mask_srestore_marginal</text>
<text text-anchor="middle" x="218" y="-1039.65" font-family="Helvetica,sans-Serif" font-size="10.00">_seas</text>
<text text-anchor="middle" x="218" y="-1028.65" font-family="Helvetica,sans-Serif" font-size="10.00">use_limited_p_ssh</text>
<text text-anchor="start" x="164.5" y="-1017.65" font-family="Helvetica,sans-Serif" font-size="10.00">mask_srestore_under</text>
<text text-anchor="middle" x="218" y="-1006.65" font-family="Helvetica,sans-Serif" font-size="10.00">_ice</text>
<text text-anchor="middle" x="218" y="-995.645" font-family="Helvetica,sans-Serif" font-size="10.00">...</text>
</g>
<!-- Node5 -->
<g id="node5" class="node"><title>Node5</title>
<polygon fill="white" stroke="#bfbfbf" points="2.5,-944.645 2.5,-974.645 131.5,-974.645 131.5,-944.645 2.5,-944.645"/>
<text text-anchor="start" x="10.5" y="-962.645" font-family="Helvetica,sans-Serif" font-size="10.00">type(user_surface_forcing</text>
<text text-anchor="middle" x="67" y="-951.645" font-family="Helvetica,sans-Serif" font-size="10.00">_cs), pointer</text>
</g>
<!-- Node5&#45;&gt;Node1 -->
<g id="edge4" class="edge"><title>Node5&#45;&gt;Node1</title>
<path fill="none" stroke="#9a32cd" stroke-dasharray="5,2" d="M141.843,-959.795C196.119,-958.287 263.79,-952.49 284,-933.645 337.94,-883.349 352.506,-637.205 355.395,-573.646"/>
<polygon fill="#9a32cd" stroke="#9a32cd" points="141.448,-956.303 131.532,-960.035 141.611,-963.301 141.448,-956.303"/>
<text text-anchor="middle" x="218" y="-961.645" font-family="Helvetica,sans-Serif" font-size="10.00"> user_forcing_csp</text>
</g>
<!-- Node6 -->
<g id="node6" class="node"><title>Node6</title>
<polygon fill="white" stroke="#bfbfbf" points="6.5,-895.645 6.5,-925.645 127.5,-925.645 127.5,-895.645 6.5,-895.645"/>
<text text-anchor="start" x="14.5" y="-913.645" font-family="Helvetica,sans-Serif" font-size="10.00">type(tracer_flow_control</text>
<text text-anchor="middle" x="67" y="-902.645" font-family="Helvetica,sans-Serif" font-size="10.00">_cs), pointer</text>
</g>
<!-- Node6&#45;&gt;Node1 -->
<g id="edge5" class="edge"><title>Node6&#45;&gt;Node1</title>
<path fill="none" stroke="#9a32cd" stroke-dasharray="5,2" d="M137.695,-917.372C192.297,-921.041 262.5,-921.708 284,-903.645 335.767,-860.155 351.813,-634.641 355.233,-573.79"/>
<polygon fill="#9a32cd" stroke="#9a32cd" points="137.921,-913.879 127.696,-916.656 137.42,-920.862 137.921,-913.879"/>
<text text-anchor="middle" x="218" y="-921.645" font-family="Helvetica,sans-Serif" font-size="10.00"> tracer_flow_csp</text>
</g>
<!-- Node7 -->
<g id="node7" class="node"><title>Node7</title>
<polygon fill="white" stroke="#bfbfbf" points="18,-777.145 18,-796.145 116,-796.145 116,-777.145 18,-777.145"/>
<text text-anchor="middle" x="67" y="-784.145" font-family="Helvetica,sans-Serif" font-size="10.00">character(len=200)</text>
</g>
<!-- Node7&#45;&gt;Node1 -->
<g id="edge6" class="edge"><title>Node7&#45;&gt;Node1</title>
<path fill="none" stroke="#9a32cd" stroke-dasharray="5,2" d="M126.168,-782.507C185.912,-777.764 271.856,-769.378 284,-759.645 343.296,-712.126 353.796,-611.82 355.626,-573.741"/>
<polygon fill="#9a32cd" stroke="#9a32cd" points="125.78,-779.027 116.082,-783.293 126.324,-786.006 125.78,-779.027"/>
<text text-anchor="middle" x="218" y="-892.645" font-family="Helvetica,sans-Serif" font-size="10.00"> freshdischarge_file</text>
<text text-anchor="middle" x="218" y="-881.645" font-family="Helvetica,sans-Serif" font-size="10.00">shortwaveup_file</text>
<text text-anchor="middle" x="218" y="-870.645" font-family="Helvetica,sans-Serif" font-size="10.00">runoff_file</text>
<text text-anchor="middle" x="218" y="-859.645" font-family="Helvetica,sans-Serif" font-size="10.00">latentheat_file</text>
<text text-anchor="middle" x="218" y="-848.645" font-family="Helvetica,sans-Serif" font-size="10.00">shortwave_file</text>
<text text-anchor="middle" x="218" y="-837.645" font-family="Helvetica,sans-Serif" font-size="10.00">salinityrestore_file</text>
<text text-anchor="middle" x="218" y="-826.645" font-family="Helvetica,sans-Serif" font-size="10.00">evaporation_file</text>
<text text-anchor="middle" x="218" y="-815.645" font-family="Helvetica,sans-Serif" font-size="10.00">temp_restore_file</text>
<text text-anchor="middle" x="218" y="-804.645" font-family="Helvetica,sans-Serif" font-size="10.00">snow_file</text>
<text text-anchor="middle" x="218" y="-793.645" font-family="Helvetica,sans-Serif" font-size="10.00">sensibleheat_file</text>
<text text-anchor="middle" x="218" y="-782.645" font-family="Helvetica,sans-Serif" font-size="10.00">...</text>
</g>
<!-- Node8 -->
<g id="node8" class="node"><title>Node8</title>
<polygon fill="white" stroke="#bfbfbf" points="5,-727.645 5,-757.645 129,-757.645 129,-727.645 5,-727.645"/>
<text text-anchor="start" x="13" y="-745.645" font-family="Helvetica,sans-Serif" font-size="10.00">type(bfb_surface_forcing</text>
<text text-anchor="middle" x="67" y="-734.645" font-family="Helvetica,sans-Serif" font-size="10.00">_cs), pointer</text>
</g>
<!-- Node8&#45;&gt;Node1 -->
<g id="edge7" class="edge"><title>Node8&#45;&gt;Node1</title>
<path fill="none" stroke="#9a32cd" stroke-dasharray="5,2" d="M139.36,-744.773C193.176,-744.974 261.441,-741.789 284,-725.645 335.351,-688.897 350.411,-607.639 354.543,-573.847"/>
<polygon fill="#9a32cd" stroke="#9a32cd" points="139.178,-741.272 129.151,-744.695 139.124,-748.271 139.178,-741.272"/>
<text text-anchor="middle" x="218" y="-747.645" font-family="Helvetica,sans-Serif" font-size="10.00"> bfb_forcing_csp</text>
</g>
<!-- Node9 -->
<g id="node9" class="node"><title>Node9</title>
<polygon fill="white" stroke="#bfbfbf" points="21,-596.145 21,-615.145 113,-615.145 113,-596.145 21,-596.145"/>
<text text-anchor="middle" x="67" y="-603.145" font-family="Helvetica,sans-Serif" font-size="10.00">character(len=80)</text>
</g>
<!-- Node9&#45;&gt;Node1 -->
<g id="edge8" class="edge"><title>Node9&#45;&gt;Node1</title>
<path fill="none" stroke="#9a32cd" stroke-dasharray="5,2" d="M123.224,-596.767C166.873,-589.733 229.341,-579.629 284,-570.645 289.752,-569.7 295.762,-568.707 301.751,-567.714"/>
<polygon fill="#9a32cd" stroke="#9a32cd" points="122.419,-593.352 113.103,-598.398 123.532,-600.263 122.419,-593.352"/>
<text text-anchor="middle" x="218" y="-715.645" font-family="Helvetica,sans-Serif" font-size="10.00"> snow_var</text>
<text text-anchor="middle" x="218" y="-704.645" font-family="Helvetica,sans-Serif" font-size="10.00">lw_var</text>
<text text-anchor="middle" x="218" y="-693.645" font-family="Helvetica,sans-Serif" font-size="10.00">rain_var</text>
<text text-anchor="middle" x="218" y="-682.645" font-family="Helvetica,sans-Serif" font-size="10.00">sens_var</text>
<text text-anchor="middle" x="218" y="-671.645" font-family="Helvetica,sans-Serif" font-size="10.00">latent_var</text>
<text text-anchor="middle" x="218" y="-660.645" font-family="Helvetica,sans-Serif" font-size="10.00">ustar_var</text>
<text text-anchor="start" x="193.5" y="-649.645" font-family="Helvetica,sans-Serif" font-size="10.00">sst_restore</text>
<text text-anchor="middle" x="218" y="-638.645" font-family="Helvetica,sans-Serif" font-size="10.00">_var</text>
<text text-anchor="middle" x="218" y="-627.645" font-family="Helvetica,sans-Serif" font-size="10.00">frunoff_var</text>
<text text-anchor="middle" x="218" y="-616.645" font-family="Helvetica,sans-Serif" font-size="10.00">sw_var</text>
<text text-anchor="middle" x="218" y="-605.645" font-family="Helvetica,sans-Serif" font-size="10.00">lrunoff_var</text>
<text text-anchor="middle" x="218" y="-594.645" font-family="Helvetica,sans-Serif" font-size="10.00">...</text>
</g>
<!-- Node10 -->
<g id="node10" class="node"><title>Node10</title>
<polygon fill="white" stroke="#bfbfbf" points="11,-546.645 11,-576.645 123,-576.645 123,-546.645 11,-546.645"/>
<text text-anchor="start" x="19" y="-564.645" font-family="Helvetica,sans-Serif" font-size="10.00">type(mom_restart_cs)</text>
<text text-anchor="middle" x="67" y="-553.645" font-family="Helvetica,sans-Serif" font-size="10.00">, pointer</text>
</g>
<!-- Node10&#45;&gt;Node1 -->
<g id="edge9" class="edge"><title>Node10&#45;&gt;Node1</title>
<path fill="none" stroke="#9a32cd" stroke-dasharray="5,2" d="M133.572,-559.964C139.8,-559.841 146.02,-559.731 152,-559.645 202.818,-558.916 260.764,-558.69 301.879,-558.632"/>
<polygon fill="#9a32cd" stroke="#9a32cd" points="133.046,-556.475 123.122,-560.184 133.193,-563.473 133.046,-556.475"/>
<text text-anchor="middle" x="218" y="-562.645" font-family="Helvetica,sans-Serif" font-size="10.00"> restart_csp</text>
</g>
<!-- Node11 -->
<g id="node11" class="node"><title>Node11</title>
<polygon fill="white" stroke="#bfbfbf" points="21,-508.145 21,-527.145 113,-527.145 113,-508.145 21,-508.145"/>
<text text-anchor="middle" x="67" y="-515.145" font-family="Helvetica,sans-Serif" font-size="10.00">character(len=30)</text>
</g>
<!-- Node11&#45;&gt;Node1 -->
<g id="edge10" class="edge"><title>Node11&#45;&gt;Node1</title>
<path fill="none" stroke="#9a32cd" stroke-dasharray="5,2" d="M123.344,-517.8C167.309,-518.866 230.138,-522.499 284,-533.645 295.403,-536.005 307.474,-539.697 318.406,-543.526"/>
<polygon fill="#9a32cd" stroke="#9a32cd" points="123.218,-514.297 113.149,-517.591 123.075,-521.296 123.218,-514.297"/>
<text text-anchor="middle" x="218" y="-547.645" font-family="Helvetica,sans-Serif" font-size="10.00"> temp_restore_var_name</text>
<text text-anchor="middle" x="218" y="-536.645" font-family="Helvetica,sans-Serif" font-size="10.00">salt_restore_var_name</text>
</g>
<!-- Node12 -->
<g id="node12" class="node"><title>Node12</title>
<polygon fill="white" stroke="#bfbfbf" points="40.5,-470.145 40.5,-489.145 93.5,-489.145 93.5,-470.145 40.5,-470.145"/>
<text text-anchor="middle" x="67" y="-477.145" font-family="Helvetica,sans-Serif" font-size="10.00">diag_ctrl</text>
</g>
<!-- Node12&#45;&gt;Node1 -->
<g id="edge11" class="edge"><title>Node12&#45;&gt;Node1</title>
<path fill="none" stroke="#9a32cd" stroke-dasharray="5,2" d="M103.864,-478.176C147.887,-477.619 224.069,-480.752 284,-504.645 306.061,-513.441 327.308,-530.829 340.929,-543.505"/>
<polygon fill="#9a32cd" stroke="#9a32cd" points="103.586,-474.681 93.658,-478.38 103.726,-481.679 103.586,-474.681"/>
<text text-anchor="middle" x="218" y="-507.645" font-family="Helvetica,sans-Serif" font-size="10.00"> diag</text>
</g>
<!-- Node13 -->
<g id="node13" class="node"><title>Node13</title>
<polygon fill="white" stroke="#bfbfbf" points="23.5,-432.145 23.5,-451.145 110.5,-451.145 110.5,-432.145 23.5,-432.145"/>
<text text-anchor="middle" x="67" y="-439.145" font-family="Helvetica,sans-Serif" font-size="10.00">character(len=8)</text>
</g>
<!-- Node13&#45;&gt;Node1 -->
<g id="edge12" class="edge"><title>Node13&#45;&gt;Node1</title>
<path fill="none" stroke="#9a32cd" stroke-dasharray="5,2" d="M120.809,-436.075C166.829,-433.717 233.864,-436.494 284,-464.645 316.264,-482.761 338.752,-521.874 349.261,-543.5"/>
<polygon fill="#9a32cd" stroke="#9a32cd" points="120.512,-432.587 110.744,-436.69 120.939,-439.574 120.512,-432.587"/>
<text text-anchor="middle" x="218" y="-467.645" font-family="Helvetica,sans-Serif" font-size="10.00"> wind_stagger</text>
</g>
<!-- Node14 -->
<g id="node14" class="node"><title>Node14</title>
<polygon fill="white" stroke="#bfbfbf" points="9,-382.645 9,-412.645 125,-412.645 125,-382.645 9,-382.645"/>
<text text-anchor="start" x="17" y="-400.645" font-family="Helvetica,sans-Serif" font-size="10.00">type(scm_idealized</text>
<text text-anchor="middle" x="67" y="-389.645" font-family="Helvetica,sans-Serif" font-size="10.00">_hurricane_cs), pointer</text>
</g>
<!-- Node14&#45;&gt;Node1 -->
<g id="edge13" class="edge"><title>Node14&#45;&gt;Node1</title>
<path fill="none" stroke="#9a32cd" stroke-dasharray="5,2" d="M135.436,-389.15C181.131,-386.919 240.825,-391.235 284,-420.645 327.327,-450.16 346.335,-514.192 353,-543.477"/>
<polygon fill="#9a32cd" stroke="#9a32cd" points="135.092,-385.665 125.322,-389.761 135.514,-392.652 135.092,-385.665"/>
<text text-anchor="middle" x="218" y="-423.645" font-family="Helvetica,sans-Serif" font-size="10.00"> scm_idealized_hurricane_csp</text>
</g>
<!-- Node15 -->
<g id="node15" class="node"><title>Node15</title>
<polygon fill="white" stroke="#bfbfbf" points="0,-333.645 0,-363.645 134,-363.645 134,-333.645 0,-333.645"/>
<text text-anchor="start" x="8" y="-351.645" font-family="Helvetica,sans-Serif" font-size="10.00">type(meso_surface_forcing</text>
<text text-anchor="middle" x="67" y="-340.645" font-family="Helvetica,sans-Serif" font-size="10.00">_cs), pointer</text>
</g>
<!-- Node15&#45;&gt;Node1 -->
<g id="edge14" class="edge"><title>Node15&#45;&gt;Node1</title>
<path fill="none" stroke="#9a32cd" stroke-dasharray="5,2" d="M144.131,-339.526C189.158,-338.249 244.849,-344.336 284,-374.645 338.927,-417.169 352.008,-507.549 355.077,-543.467"/>
<polygon fill="#9a32cd" stroke="#9a32cd" points="143.959,-336.03 134.109,-339.935 144.244,-343.024 143.959,-336.03"/>
<text text-anchor="middle" x="218" y="-377.645" font-family="Helvetica,sans-Serif" font-size="10.00"> meso_forcing_csp</text>
</g>
<!-- Node16 -->
<g id="node16" class="node"><title>Node16</title>
<polygon fill="white" stroke="#bfbfbf" points="5.5,-284.645 5.5,-314.645 128.5,-314.645 128.5,-284.645 5.5,-284.645"/>
<text text-anchor="start" x="13.5" y="-302.645" font-family="Helvetica,sans-Serif" font-size="10.00">type(user_revise_forcing</text>
<text text-anchor="middle" x="67" y="-291.645" font-family="Helvetica,sans-Serif" font-size="10.00">_cs), pointer</text>
</g>
<!-- Node16&#45;&gt;Node1 -->
<g id="edge15" class="edge"><title>Node16&#45;&gt;Node1</title>
<path fill="none" stroke="#9a32cd" stroke-dasharray="5,2" d="M138.667,-303.995C197.311,-308.229 272.854,-315.375 284,-324.645 352.3,-381.449 357.068,-501.469 356.517,-543.623"/>
<polygon fill="#9a32cd" stroke="#9a32cd" points="138.896,-300.503 128.675,-303.29 138.403,-307.485 138.896,-300.503"/>
<text text-anchor="middle" x="218" y="-327.645" font-family="Helvetica,sans-Serif" font-size="10.00"> urf_cs</text>
</g>
<!-- Node17 -->
<g id="node17" class="node"><title>Node17</title>
<polygon fill="white" stroke="#bfbfbf" points="51,-158.145 51,-177.145 83,-177.145 83,-158.145 51,-158.145"/>
<text text-anchor="middle" x="67" y="-165.145" font-family="Helvetica,sans-Serif" font-size="10.00">real</text>
</g>
<!-- Node17&#45;&gt;Node1 -->
<g id="edge16" class="edge"><title>Node17&#45;&gt;Node1</title>
<path fill="none" stroke="#9a32cd" stroke-dasharray="5,2" d="M93.3101,-164.04C144.066,-157.407 255.84,-145.998 284,-169.645 342.645,-218.893 353.753,-477.517 355.643,-543.375"/>
<polygon fill="#9a32cd" stroke="#9a32cd" points="92.622,-160.601 83.18,-165.407 93.5583,-167.538 92.622,-160.601"/>
<text text-anchor="middle" x="218" y="-293.645" font-family="Helvetica,sans-Serif" font-size="10.00"> wind_scale</text>
<text text-anchor="middle" x="218" y="-282.645" font-family="Helvetica,sans-Serif" font-size="10.00">gyres_taux_const</text>
<text text-anchor="middle" x="218" y="-271.645" font-family="Helvetica,sans-Serif" font-size="10.00">flux_const</text>
<text text-anchor="middle" x="218" y="-260.645" font-family="Helvetica,sans-Serif" font-size="10.00">kv_sea_ice</text>
<text text-anchor="middle" x="218" y="-249.645" font-family="Helvetica,sans-Serif" font-size="10.00">latent_heat_fusion</text>
<text text-anchor="middle" x="218" y="-238.645" font-family="Helvetica,sans-Serif" font-size="10.00">gyres_taux_n_pis</text>
<text text-anchor="middle" x="218" y="-227.645" font-family="Helvetica,sans-Serif" font-size="10.00">gyres_taux_sin_amp</text>
<text text-anchor="middle" x="218" y="-216.645" font-family="Helvetica,sans-Serif" font-size="10.00">dens_restore</text>
<text text-anchor="middle" x="218" y="-205.645" font-family="Helvetica,sans-Serif" font-size="10.00">tau_y0</text>
<text text-anchor="start" x="172.5" y="-194.645" font-family="Helvetica,sans-Serif" font-size="10.00">gyres_taux_cos</text>
<text text-anchor="middle" x="218" y="-183.645" font-family="Helvetica,sans-Serif" font-size="10.00">_amp</text>
<text text-anchor="middle" x="218" y="-172.645" font-family="Helvetica,sans-Serif" font-size="10.00">...</text>
</g>
<!-- Node18 -->
<g id="node18" class="node"><title>Node18</title>
<polygon fill="white" stroke="#bfbfbf" points="44,-14.1454 44,-33.1454 90,-33.1454 90,-14.1454 44,-14.1454"/>
<text text-anchor="middle" x="67" y="-21.1454" font-family="Helvetica,sans-Serif" font-size="10.00">integer</text>
</g>
<!-- Node18&#45;&gt;Node1 -->
<g id="edge17" class="edge"><title>Node18&#45;&gt;Node1</title>
<path fill="none" stroke="#9a32cd" stroke-dasharray="5,2" d="M99.9059,-13.3472C146.643,-0.467292 233.618,14.7916 284,-30.6454 323.332,-66.117 349.91,-460.626 355.079,-543.448"/>
<polygon fill="#9a32cd" stroke="#9a32cd" points="98.6612,-10.0635 90.0254,-16.2014 100.604,-16.7886 98.6612,-10.0635"/>
<text text-anchor="middle" x="218" y="-143.645" font-family="Helvetica,sans-Serif" font-size="10.00"> sss_last_lev</text>
<text text-anchor="middle" x="218" y="-132.645" font-family="Helvetica,sans-Serif" font-size="10.00">wind_nlev</text>
<text text-anchor="middle" x="218" y="-121.645" font-family="Helvetica,sans-Serif" font-size="10.00">sw_last_lev</text>
<text text-anchor="middle" x="218" y="-110.645" font-family="Helvetica,sans-Serif" font-size="10.00">id_trestore</text>
<text text-anchor="middle" x="218" y="-99.6454" font-family="Helvetica,sans-Serif" font-size="10.00">lw_nlev</text>
<text text-anchor="middle" x="218" y="-88.6454" font-family="Helvetica,sans-Serif" font-size="10.00">id_srestore</text>
<text text-anchor="middle" x="218" y="-77.6454" font-family="Helvetica,sans-Serif" font-size="10.00">sst_nlev</text>
<text text-anchor="middle" x="218" y="-66.6454" font-family="Helvetica,sans-Serif" font-size="10.00">wind_stagger</text>
<text text-anchor="middle" x="218" y="-55.6454" font-family="Helvetica,sans-Serif" font-size="10.00">precip_last_lev</text>
<text text-anchor="middle" x="218" y="-44.6454" font-family="Helvetica,sans-Serif" font-size="10.00">sss_nlev</text>
<text text-anchor="middle" x="218" y="-33.6454" font-family="Helvetica,sans-Serif" font-size="10.00">...</text>
</g>
</g>
</svg>
