<?xml version="1.0" encoding="UTF-8" standalone="no"?>
<!DOCTYPE svg PUBLIC "-//W3C//DTD SVG 1.1//EN"
 "http://www.w3.org/Graphics/SVG/1.1/DTD/svg11.dtd">
<!-- Generated by graphviz version 2.38.0 (20140413.2041)
 -->
<!-- Title: mom_cvmix_shear::cvmix_shear_is_used Pages: 1 -->
<svg width="298pt" height="88pt"
 viewBox="0.00 0.00 298.00 88.00" xmlns="http://www.w3.org/2000/svg" xmlns:xlink="http://www.w3.org/1999/xlink">
<g id="graph0" class="graph" transform="scale(1 1) rotate(0) translate(4 84)">
<title>mom_cvmix_shear::cvmix_shear_is_used</title>
<polygon fill="white" stroke="none" points="-4,4 -4,-84 294,-84 294,4 -4,4"/>
<!-- Node9 -->
<g id="node1" class="node"><title>Node9</title>
<polygon fill="#bfbfbf" stroke="black" points="0,-24.5 0,-54.5 131,-54.5 131,-24.5 0,-24.5"/>
<text text-anchor="start" x="8" y="-42.5" font-family="Helvetica,sans-Serif" font-size="10.00">mom_cvmix_shear::cvmix</text>
<text text-anchor="middle" x="65.5" y="-31.5" font-family="Helvetica,sans-Serif" font-size="10.00">_shear_is_used</text>
</g>
<!-- Node10 -->
<g id="node2" class="node"><title>Node10</title>
<g id="a_node2"><a xlink:href="../../d8/df3/namespacemom__diabatic__driver.html#afa0b30bd6f0e080bcacbd6dcb15ff990" target="_top" xlink:title="This routine initializes the diabatic driver module. ">
<polygon fill="white" stroke="black" points="175,-49.5 175,-79.5 282,-79.5 282,-49.5 175,-49.5"/>
<text text-anchor="start" x="183" y="-67.5" font-family="Helvetica,sans-Serif" font-size="10.00">mom_diabatic_driver</text>
<text text-anchor="middle" x="228.5" y="-56.5" font-family="Helvetica,sans-Serif" font-size="10.00">::diabatic_driver_init</text>
</a>
</g>
</g>
<!-- Node9&#45;&gt;Node10 -->
<g id="edge1" class="edge"><title>Node9&#45;&gt;Node10</title>
<path fill="none" stroke="midnightblue" d="M141.016,-51.0707C152.421,-52.8418 163.988,-54.6379 174.793,-56.3157"/>
<polygon fill="midnightblue" stroke="midnightblue" points="141.476,-47.6003 131.057,-49.5244 140.402,-54.5175 141.476,-47.6003"/>
</g>
<!-- Node11 -->
<g id="node3" class="node"><title>Node11</title>
<g id="a_node3"><a xlink:href="../../d6/d5d/namespacemom__set__visc.html#ae2d9d9f74c1e9aec56257cfad372b0fd" target="_top" xlink:title="mom_set_visc::set_visc\l_register_restarts">
<polygon fill="white" stroke="black" points="167,-0.5 167,-30.5 290,-30.5 290,-0.5 167,-0.5"/>
<text text-anchor="start" x="175" y="-18.5" font-family="Helvetica,sans-Serif" font-size="10.00">mom_set_visc::set_visc</text>
<text text-anchor="middle" x="228.5" y="-7.5" font-family="Helvetica,sans-Serif" font-size="10.00">_register_restarts</text>
</a>
</g>
</g>
<!-- Node9&#45;&gt;Node11 -->
<g id="edge2" class="edge"><title>Node9&#45;&gt;Node11</title>
<path fill="none" stroke="midnightblue" d="M141.111,-28.3778C149.732,-27.0928 158.443,-25.7942 166.846,-24.5416"/>
<polygon fill="midnightblue" stroke="midnightblue" points="140.432,-24.9403 131.057,-29.8766 141.464,-31.8638 140.432,-24.9403"/>
</g>
</g>
</svg>
