<?xml version="1.0" encoding="UTF-8" standalone="no"?>
<!DOCTYPE svg PUBLIC "-//W3C//DTD SVG 1.1//EN"
 "http://www.w3.org/Graphics/SVG/1.1/DTD/svg11.dtd">
<!-- Generated by graphviz version 2.38.0 (20140413.2041)
 -->
<!-- Title: mom_cvmix_shear::cvmix_shear_is_used Pages: 1 -->
<svg width="467pt" height="88pt"
 viewBox="0.00 0.00 467.00 88.00" xmlns="http://www.w3.org/2000/svg" xmlns:xlink="http://www.w3.org/1999/xlink">
<g id="graph0" class="graph" transform="scale(1 1) rotate(0) translate(4 84)">
<title>mom_cvmix_shear::cvmix_shear_is_used</title>
<polygon fill="white" stroke="none" points="-4,4 -4,-84 463,-84 463,4 -4,4"/>
<!-- Node10 -->
<g id="node1" class="node"><title>Node10</title>
<polygon fill="#bfbfbf" stroke="black" points="0,-24.5 0,-54.5 107,-54.5 107,-24.5 0,-24.5"/>
<text text-anchor="start" x="8" y="-42.5" font-family="Helvetica,sans-Serif" font-size="10.00">mom_cvmix_shear::cvmix</text>
<text text-anchor="middle" x="53.5" y="-31.5" font-family="Helvetica,sans-Serif" font-size="10.00">_shear_is_used</text>
</g>
<!-- Node11 -->
<g id="node2" class="node"><title>Node11</title>
<g id="a_node2"><a xlink:href="../../d8/df3/namespacemom__diabatic__driver.html#afa0b30bd6f0e080bcacbd6dcb15ff990" target="_top" xlink:title="This routine initializes the diabatic driver module. ">
<polygon fill="white" stroke="black" points="147,-49.5 147,-79.5 238,-79.5 238,-49.5 147,-49.5"/>
<text text-anchor="start" x="155" y="-67.5" font-family="Helvetica,sans-Serif" font-size="10.00">mom_diabatic_driver</text>
<text text-anchor="middle" x="192.5" y="-56.5" font-family="Helvetica,sans-Serif" font-size="10.00">::diabatic_driver_init</text>
</a>
</g>
</g>
<!-- Node10&#45;&gt;Node11 -->
<g id="edge1" class="edge"><title>Node10&#45;&gt;Node11</title>
<path fill="none" stroke="midnightblue" d="M117.046,-50.9135C127.106,-52.7492 137.338,-54.6164 146.866,-56.3551"/>
<polygon fill="midnightblue" stroke="midnightblue" points="117.542,-47.4463 107.076,-49.0942 116.285,-54.3326 117.542,-47.4463"/>
</g>
<!-- Node12 -->
<g id="node3" class="node"><title>Node12</title>
<g id="a_node3"><a xlink:href="../../d6/d5d/namespacemom__set__visc.html#ae2d9d9f74c1e9aec56257cfad372b0fd" target="_top" xlink:title="mom_set_visc::set_visc\l_register_restarts">
<polygon fill="white" stroke="black" points="143,-0.5 143,-30.5 242,-30.5 242,-0.5 143,-0.5"/>
<text text-anchor="start" x="151" y="-18.5" font-family="Helvetica,sans-Serif" font-size="10.00">mom_set_visc::set_visc</text>
<text text-anchor="middle" x="192.5" y="-7.5" font-family="Helvetica,sans-Serif" font-size="10.00">_register_restarts</text>
</a>
</g>
</g>
<!-- Node10&#45;&gt;Node12 -->
<g id="edge2" class="edge"><title>Node10&#45;&gt;Node12</title>
<path fill="none" stroke="midnightblue" d="M117.132,-28.5279C125.777,-27.0136 134.546,-25.4773 142.886,-24.0164"/>
<polygon fill="midnightblue" stroke="midnightblue" points="116.322,-25.1165 107.076,-30.2896 117.53,-32.0115 116.322,-25.1165"/>
</g>
<!-- Node13 -->
<g id="node4" class="node"><title>Node13</title>
<g id="a_node4"><a xlink:href="../../da/d01/namespacemom.html#afebdc0103ad9cbe0ed4a54e522dc4104" target="_top" xlink:title="This subroutine initializes MOM. ">
<polygon fill="white" stroke="black" points="278,-6 278,-25 367,-25 367,-6 278,-6"/>
<text text-anchor="middle" x="322.5" y="-13" font-family="Helvetica,sans-Serif" font-size="10.00">mom::initialize_mom</text>
</a>
</g>
</g>
<!-- Node12&#45;&gt;Node13 -->
<g id="edge3" class="edge"><title>Node12&#45;&gt;Node13</title>
<path fill="none" stroke="midnightblue" d="M252.286,-15.5C260.912,-15.5 269.665,-15.5 277.912,-15.5"/>
<polygon fill="midnightblue" stroke="midnightblue" points="252.256,-12.0001 242.256,-15.5 252.256,-19.0001 252.256,-12.0001"/>
</g>
<!-- Node14 -->
<g id="node5" class="node"><title>Node14</title>
<g id="a_node5"><a xlink:href="../../de/dbc/MOM__driver_8F90.html#a08fffeb2d8e8acbf9ed4609be6d258c6" target="_top" xlink:title="mom_main">
<polygon fill="white" stroke="black" points="403,-6 403,-25 459,-25 459,-6 403,-6"/>
<text text-anchor="middle" x="431" y="-13" font-family="Helvetica,sans-Serif" font-size="10.00">mom_main</text>
</a>
</g>
</g>
<!-- Node13&#45;&gt;Node14 -->
<g id="edge4" class="edge"><title>Node13&#45;&gt;Node14</title>
<path fill="none" stroke="midnightblue" d="M377.407,-15.5C386.206,-15.5 394.981,-15.5 402.771,-15.5"/>
<polygon fill="midnightblue" stroke="midnightblue" points="377.125,-12.0001 367.125,-15.5 377.125,-19.0001 377.125,-12.0001"/>
</g>
</g>
</svg>
