<?xml version="1.0" encoding="UTF-8" standalone="no"?>
<!DOCTYPE svg PUBLIC "-//W3C//DTD SVG 1.1//EN"
 "http://www.w3.org/Graphics/SVG/1.1/DTD/svg11.dtd">
<!-- Generated by graphviz version 2.38.0 (20140413.2041)
 -->
<!-- Title: mom_io::var_desc Pages: 1 -->
<!--zoomable 942 -->
<svg id="main" version="1.1" xmlns="http://www.w3.org/2000/svg" xmlns:xlink="http://www.w3.org/1999/xlink" xml:space="preserve" onload="init(evt)">
<style type="text/css"><![CDATA[
.edge:hover path { stroke: red; }
.edge:hover polygon { stroke: red; fill: red; }
]]></style>
<script type="text/javascript"><![CDATA[
var edges = document.getElementsByTagName('g');
if (edges && edges.length) {
  for (var i=0;i<edges.length;i++) {
    if (edges[i].id.substr(0,4)=='edge') {
      edges[i].setAttribute('class','edge');
    }
  }
}
]]></script>
        <defs>
                <circle id="rim" cx="0" cy="0" r="7"/>
                <circle id="rim2" cx="0" cy="0" r="3.5"/>
                <g id="zoomPlus">
                        <use xlink:href="#rim" fill="#404040">
                                <set attributeName="fill" to="#808080" begin="zoomplus.mouseover" end="zoomplus.mouseout"/>
                        </use>
                        <path d="M-4,0h8M0,-4v8" fill="none" stroke="white" stroke-width="1.5" pointer-events="none"/>
                </g>
                <g id="zoomMin">
                        <use xlink:href="#rim" fill="#404040">
                                <set attributeName="fill" to="#808080" begin="zoomminus.mouseover" end="zoomminus.mouseout"/>
                        </use>
                        <path d="M-4,0h8" fill="none" stroke="white" stroke-width="1.5" pointer-events="none"/>
                </g>
                <g id="dirArrow">
                        <path fill="none" stroke="white" stroke-width="1.5" d="M0,-3.0v7 M-2.5,-0.5L0,-3.0L2.5,-0.5"/>
                </g>
               <g id="resetDef">
                       <use xlink:href="#rim2" fill="#404040">
                               <set attributeName="fill" to="#808080" begin="reset.mouseover" end="reset.mouseout"/>
                       </use>
               </g>
        </defs>

<script type="text/javascript">
var viewWidth = 441;
var viewHeight = 942;
var sectionId = 'dynsection-14';
</script>
<script xlink:href="../../svgpan.js"/>
<svg id="graph" class="graph">
<g id="viewport">
<title>mom_io::var_desc</title>
<polygon fill="white" stroke="none" points="-4,4 -4,-938 437,-938 437,4 -4,4"/>
<!-- Node153 -->
<g id="node1" class="node"><title>Node153</title>
<polygon fill="#bfbfbf" stroke="black" points="0,-446 0,-465 97,-465 97,-446 0,-446"/>
<text text-anchor="middle" x="48.5" y="-453" font-family="Helvetica,sans-Serif" font-size="10.00">mom_io::var_desc</text>
</g>
<!-- Node154 -->
<g id="node2" class="node"><title>Node154</title>
<g id="a_node2"><a xlink:href="../../d8/df3/namespacemom__diabatic__driver.html#afa0b30bd6f0e080bcacbd6dcb15ff990" target="_top" xlink:title="This routine initializes the diabatic driver module. ">
<polygon fill="white" stroke="black" points="149.5,-903.5 149.5,-933.5 256.5,-933.5 256.5,-903.5 149.5,-903.5"/>
<text text-anchor="start" x="157.5" y="-921.5" font-family="Helvetica,sans-Serif" font-size="10.00">mom_diabatic_driver</text>
<text text-anchor="middle" x="203" y="-910.5" font-family="Helvetica,sans-Serif" font-size="10.00">::diabatic_driver_init</text>
</a>
</g>
</g>
<!-- Node153&#45;&gt;Node154 -->
<g id="edge1" class="edge"><title>Node153&#45;&gt;Node154</title>
<path fill="none" stroke="midnightblue" d="M50.7005,-475.563C55.7063,-552.822 77.3134,-829.975 133,-894.5 137.475,-899.685 143.132,-903.75 149.273,-906.938"/>
<polygon fill="midnightblue" stroke="midnightblue" points="54.1761,-475.063 50.0584,-465.301 47.1898,-475.5 54.1761,-475.063"/>
</g>
<!-- Node155 -->
<g id="node3" class="node"><title>Node155</title>
<g id="a_node3"><a xlink:href="../../df/d46/namespacemom__meke.html#a1900316331157e48f1a6029bac63fbd0" target="_top" xlink:title="Allocates memory and register restart fields for the MOM_MEKE module. ">
<polygon fill="white" stroke="black" points="141.5,-854.5 141.5,-884.5 264.5,-884.5 264.5,-854.5 141.5,-854.5"/>
<text text-anchor="start" x="149.5" y="-872.5" font-family="Helvetica,sans-Serif" font-size="10.00">mom_meke::meke_alloc</text>
<text text-anchor="middle" x="203" y="-861.5" font-family="Helvetica,sans-Serif" font-size="10.00">_register_restart</text>
</a>
</g>
</g>
<!-- Node153&#45;&gt;Node155 -->
<g id="edge2" class="edge"><title>Node153&#45;&gt;Node155</title>
<path fill="none" stroke="midnightblue" d="M51.2565,-475.508C57.8986,-546.907 83.644,-787.921 133,-844.5 136.35,-848.341 140.338,-851.591 144.683,-854.343"/>
<polygon fill="midnightblue" stroke="midnightblue" points="54.7126,-474.865 50.324,-465.222 47.7412,-475.497 54.7126,-474.865"/>
</g>
<!-- Node156 -->
<g id="node4" class="node"><title>Node156</title>
<g id="a_node4"><a xlink:href="../../d4/de7/namespacemom__mixed__layer__restrat.html#aea597553dfa98cc7c972784f476ad3fc" target="_top" xlink:title="Allocate and regsiter fields in the mixedlayer restratification structure for restarts. ">
<polygon fill="white" stroke="black" points="133,-794 133,-835 273,-835 273,-794 133,-794"/>
<text text-anchor="start" x="141" y="-823" font-family="Helvetica,sans-Serif" font-size="10.00">mom_mixed_layer_restrat</text>
<text text-anchor="start" x="141" y="-812" font-family="Helvetica,sans-Serif" font-size="10.00">::mixedlayer_restrat_register</text>
<text text-anchor="middle" x="203" y="-801" font-family="Helvetica,sans-Serif" font-size="10.00">_restarts</text>
</a>
</g>
</g>
<!-- Node153&#45;&gt;Node156 -->
<g id="edge3" class="edge"><title>Node153&#45;&gt;Node156</title>
<path fill="none" stroke="midnightblue" d="M48.8393,-475.482C48.0699,-531.284 53.3542,-690.821 133,-784.5 135.961,-787.983 139.403,-791.075 143.137,-793.816"/>
<polygon fill="midnightblue" stroke="midnightblue" points="52.3445,-475.286 49.0707,-465.21 45.3462,-475.128 52.3445,-475.286"/>
</g>
<!-- Node157 -->
<g id="node5" class="node"><title>Node157</title>
<g id="a_node5"><a xlink:href="../../d8/dc2/namespaceadvection__test__tracer.html#a6cc3e00a5d5cb9e31339c784eb966c91" target="_top" xlink:title="advection_test_tracer\l::register_advection\l_test_tracer">
<polygon fill="white" stroke="black" points="148,-734 148,-775 258,-775 258,-734 148,-734"/>
<text text-anchor="start" x="156" y="-763" font-family="Helvetica,sans-Serif" font-size="10.00">advection_test_tracer</text>
<text text-anchor="start" x="156" y="-752" font-family="Helvetica,sans-Serif" font-size="10.00">::register_advection</text>
<text text-anchor="middle" x="203" y="-741" font-family="Helvetica,sans-Serif" font-size="10.00">_test_tracer</text>
</a>
</g>
</g>
<!-- Node153&#45;&gt;Node157 -->
<g id="edge4" class="edge"><title>Node153&#45;&gt;Node157</title>
<path fill="none" stroke="midnightblue" d="M50.2074,-475.328C52.9701,-523.914 66.5222,-650.339 133,-724.5 137.272,-729.266 142.437,-733.307 147.996,-736.725"/>
<polygon fill="midnightblue" stroke="midnightblue" points="53.6975,-475.034 49.7293,-465.21 46.7053,-475.364 53.6975,-475.034"/>
</g>
<!-- Node158 -->
<g id="node6" class="node"><title>Node158</title>
<g id="a_node6"><a xlink:href="../../d5/d7c/namespacemom__barotropic.html#a28fa2e7600a471735c3b827ac08ed94b" target="_top" xlink:title="mom_barotropic::register\l_barotropic_restarts">
<polygon fill="white" stroke="black" points="140.5,-684.5 140.5,-714.5 265.5,-714.5 265.5,-684.5 140.5,-684.5"/>
<text text-anchor="start" x="148.5" y="-702.5" font-family="Helvetica,sans-Serif" font-size="10.00">mom_barotropic::register</text>
<text text-anchor="middle" x="203" y="-691.5" font-family="Helvetica,sans-Serif" font-size="10.00">_barotropic_restarts</text>
</a>
</g>
</g>
<!-- Node153&#45;&gt;Node158 -->
<g id="edge5" class="edge"><title>Node153&#45;&gt;Node158</title>
<path fill="none" stroke="midnightblue" d="M51.5822,-475.521C57.0476,-518.037 75.5984,-618.047 133,-674.5 136.906,-678.342 141.447,-681.598 146.299,-684.357"/>
<polygon fill="midnightblue" stroke="midnightblue" points="55.0309,-474.879 50.389,-465.355 48.0786,-475.695 55.0309,-474.879"/>
</g>
<!-- Node159 -->
<g id="node7" class="node"><title>Node159</title>
<g id="a_node7"><a xlink:href="../../d5/dbc/namespaceboundary__impulse__tracer.html#a8c333281de8a3f7a255a0da4187427ad" target="_top" xlink:title="Read in runtime options and add boundary impulse tracer to tracer registry. ">
<polygon fill="white" stroke="black" points="133.5,-624 133.5,-665 272.5,-665 272.5,-624 133.5,-624"/>
<text text-anchor="start" x="141.5" y="-653" font-family="Helvetica,sans-Serif" font-size="10.00">boundary_impulse_tracer</text>
<text text-anchor="start" x="141.5" y="-642" font-family="Helvetica,sans-Serif" font-size="10.00">::register_boundary_impulse</text>
<text text-anchor="middle" x="203" y="-631" font-family="Helvetica,sans-Serif" font-size="10.00">_tracer</text>
</a>
</g>
</g>
<!-- Node153&#45;&gt;Node159 -->
<g id="edge6" class="edge"><title>Node153&#45;&gt;Node159</title>
<path fill="none" stroke="midnightblue" d="M54.992,-474.869C65.215,-507.716 90.1097,-574.649 133,-614.5 136.732,-617.968 140.928,-621.075 145.361,-623.851"/>
<polygon fill="midnightblue" stroke="midnightblue" points="58.2974,-473.706 52.0827,-465.125 51.5899,-475.708 58.2974,-473.706"/>
</g>
<!-- Node160 -->
<g id="node8" class="node"><title>Node160</title>
<g id="a_node8"><a xlink:href="../../dd/dd1/namespacemom__controlled__forcing.html#a8bfffde62f6a555439eba94884a1fc2e" target="_top" xlink:title="This subroutine is used to allocate and register any fields in this module that should be written to ...">
<polygon fill="white" stroke="black" points="143,-564 143,-605 263,-605 263,-564 143,-564"/>
<text text-anchor="start" x="151" y="-593" font-family="Helvetica,sans-Serif" font-size="10.00">mom_controlled_forcing</text>
<text text-anchor="start" x="151" y="-582" font-family="Helvetica,sans-Serif" font-size="10.00">::register_ctrl_forcing</text>
<text text-anchor="middle" x="203" y="-571" font-family="Helvetica,sans-Serif" font-size="10.00">_restarts</text>
</a>
</g>
</g>
<!-- Node153&#45;&gt;Node160 -->
<g id="edge7" class="edge"><title>Node153&#45;&gt;Node160</title>
<path fill="none" stroke="midnightblue" d="M61.0946,-473.834C75.6241,-495.562 102.368,-531.687 133,-554.5 137.61,-557.933 142.673,-561.072 147.898,-563.917"/>
<polygon fill="midnightblue" stroke="midnightblue" points="63.871,-471.684 55.4738,-465.223 58.0094,-475.51 63.871,-471.684"/>
</g>
<!-- Node161 -->
<g id="node9" class="node"><title>Node161</title>
<g id="a_node9"><a xlink:href="../../d2/d4c/namespacedome__tracer.html#a2a6918ef09b8674c6ad56f80dfc370ff" target="_top" xlink:title="dome_tracer::register\l_dome_tracer">
<polygon fill="white" stroke="black" points="148.5,-514.5 148.5,-544.5 257.5,-544.5 257.5,-514.5 148.5,-514.5"/>
<text text-anchor="start" x="156.5" y="-532.5" font-family="Helvetica,sans-Serif" font-size="10.00">dome_tracer::register</text>
<text text-anchor="middle" x="203" y="-521.5" font-family="Helvetica,sans-Serif" font-size="10.00">_dome_tracer</text>
</a>
</g>
</g>
<!-- Node153&#45;&gt;Node161 -->
<g id="edge8" class="edge"><title>Node153&#45;&gt;Node161</title>
<path fill="none" stroke="midnightblue" d="M71.8774,-470.62C88.3082,-481.289 111.43,-495.421 133,-505.5 139.779,-508.668 147.099,-511.65 154.349,-514.365"/>
<polygon fill="midnightblue" stroke="midnightblue" points="73.7666,-467.673 63.4899,-465.096 69.9166,-473.519 73.7666,-467.673"/>
</g>
<!-- Node162 -->
<g id="node10" class="node"><title>Node162</title>
<g id="a_node10"><a xlink:href="../../de/def/namespaceregional__dyes.html#af9da6e5dbe58dedce4ede6f0533fe702" target="_top" xlink:title="regional_dyes::register\l_dye_tracer">
<polygon fill="white" stroke="black" points="145.5,-465.5 145.5,-495.5 260.5,-495.5 260.5,-465.5 145.5,-465.5"/>
<text text-anchor="start" x="153.5" y="-483.5" font-family="Helvetica,sans-Serif" font-size="10.00">regional_dyes::register</text>
<text text-anchor="middle" x="203" y="-472.5" font-family="Helvetica,sans-Serif" font-size="10.00">_dye_tracer</text>
</a>
</g>
</g>
<!-- Node153&#45;&gt;Node162 -->
<g id="edge9" class="edge"><title>Node153&#45;&gt;Node162</title>
<path fill="none" stroke="midnightblue" d="M107.529,-465.013C119.894,-467.04 132.938,-469.178 145.254,-471.197"/>
<polygon fill="midnightblue" stroke="midnightblue" points="107.768,-461.505 97.3335,-463.342 106.636,-468.413 107.768,-461.505"/>
</g>
<!-- Node163 -->
<g id="node11" class="node"><title>Node163</title>
<g id="a_node11"><a xlink:href="../../d6/dcd/namespaceideal__age__example.html#a58d550a02148b87b1d1ce979fcaf6c00" target="_top" xlink:title="ideal_age_example::\lregister_ideal_age_tracer">
<polygon fill="white" stroke="black" points="140.5,-416.5 140.5,-446.5 265.5,-446.5 265.5,-416.5 140.5,-416.5"/>
<text text-anchor="start" x="148.5" y="-434.5" font-family="Helvetica,sans-Serif" font-size="10.00">ideal_age_example::</text>
<text text-anchor="middle" x="203" y="-423.5" font-family="Helvetica,sans-Serif" font-size="10.00">register_ideal_age_tracer</text>
</a>
</g>
</g>
<!-- Node153&#45;&gt;Node163 -->
<g id="edge10" class="edge"><title>Node153&#45;&gt;Node163</title>
<path fill="none" stroke="midnightblue" d="M107.453,-446.38C118.203,-444.688 129.469,-442.915 140.326,-441.206"/>
<polygon fill="midnightblue" stroke="midnightblue" points="106.668,-442.96 97.3335,-447.972 107.756,-449.875 106.668,-442.96"/>
</g>
<!-- Node164 -->
<g id="node12" class="node"><title>Node164</title>
<g id="a_node12"><a xlink:href="../../d7/da0/namespaceisomip__tracer.html#a7d66fe5ba12076654324a7e7d8ab2e4f" target="_top" xlink:title="This subroutine is used to register tracer fields. ">
<polygon fill="white" stroke="black" points="146.5,-367.5 146.5,-397.5 259.5,-397.5 259.5,-367.5 146.5,-367.5"/>
<text text-anchor="start" x="154.5" y="-385.5" font-family="Helvetica,sans-Serif" font-size="10.00">isomip_tracer::register</text>
<text text-anchor="middle" x="203" y="-374.5" font-family="Helvetica,sans-Serif" font-size="10.00">_isomip_tracer</text>
</a>
</g>
</g>
<!-- Node153&#45;&gt;Node164 -->
<g id="edge11" class="edge"><title>Node153&#45;&gt;Node164</title>
<path fill="none" stroke="midnightblue" d="M73.3514,-440.301C89.7388,-430.233 112.208,-417.153 133,-407.5 140.627,-403.959 148.908,-400.582 156.998,-397.52"/>
<polygon fill="midnightblue" stroke="midnightblue" points="71.1048,-437.577 64.4642,-445.832 74.8036,-443.52 71.1048,-437.577"/>
</g>
<!-- Node165 -->
<g id="node13" class="node"><title>Node165</title>
<g id="a_node13"><a xlink:href="../../d6/dd2/namespacemom__ocmip2__cfc.html#ac04494ce35222c8583a7ee7589e1cf13" target="_top" xlink:title="mom_ocmip2_cfc::register\l_ocmip2_cfc">
<polygon fill="white" stroke="black" points="137,-318.5 137,-348.5 269,-348.5 269,-318.5 137,-318.5"/>
<text text-anchor="start" x="145" y="-336.5" font-family="Helvetica,sans-Serif" font-size="10.00">mom_ocmip2_cfc::register</text>
<text text-anchor="middle" x="203" y="-325.5" font-family="Helvetica,sans-Serif" font-size="10.00">_ocmip2_cfc</text>
</a>
</g>
</g>
<!-- Node153&#45;&gt;Node165 -->
<g id="edge12" class="edge"><title>Node153&#45;&gt;Node165</title>
<path fill="none" stroke="midnightblue" d="M60.9458,-437.224C75.3292,-415.628 101.93,-379.931 133,-358.5 138.454,-354.738 144.539,-351.473 150.774,-348.658"/>
<polygon fill="midnightblue" stroke="midnightblue" points="57.8932,-435.498 55.3881,-445.793 63.7661,-439.308 57.8932,-435.498"/>
</g>
<!-- Node166 -->
<g id="node14" class="node"><title>Node166</title>
<g id="a_node14"><a xlink:href="../../de/d98/namespaceoil__tracer.html#ae9bef348e3fea3af157e841a0c9f6aeb" target="_top" xlink:title="oil_tracer::register\l_oil_tracer">
<polygon fill="white" stroke="black" points="155.5,-269.5 155.5,-299.5 250.5,-299.5 250.5,-269.5 155.5,-269.5"/>
<text text-anchor="start" x="163.5" y="-287.5" font-family="Helvetica,sans-Serif" font-size="10.00">oil_tracer::register</text>
<text text-anchor="middle" x="203" y="-276.5" font-family="Helvetica,sans-Serif" font-size="10.00">_oil_tracer</text>
</a>
</g>
</g>
<!-- Node153&#45;&gt;Node166 -->
<g id="edge13" class="edge"><title>Node153&#45;&gt;Node166</title>
<path fill="none" stroke="midnightblue" d="M55.6377,-436.148C66.4194,-405.147 91.6266,-344.309 133,-309.5 139.532,-304.004 147.371,-299.673 155.386,-296.272"/>
<polygon fill="midnightblue" stroke="midnightblue" points="52.2697,-435.184 52.4229,-445.778 58.9095,-437.401 52.2697,-435.184"/>
</g>
<!-- Node167 -->
<g id="node15" class="node"><title>Node167</title>
<g id="a_node15"><a xlink:href="../../df/d4e/namespacepseudo__salt__tracer.html#a147eabcabc9a787c01310dd67a5bab08" target="_top" xlink:title="pseudo_salt_tracer\l::register_pseudo_salt\l_tracer">
<polygon fill="white" stroke="black" points="146.5,-209 146.5,-250 259.5,-250 259.5,-209 146.5,-209"/>
<text text-anchor="start" x="154.5" y="-238" font-family="Helvetica,sans-Serif" font-size="10.00">pseudo_salt_tracer</text>
<text text-anchor="start" x="154.5" y="-227" font-family="Helvetica,sans-Serif" font-size="10.00">::register_pseudo_salt</text>
<text text-anchor="middle" x="203" y="-216" font-family="Helvetica,sans-Serif" font-size="10.00">_tracer</text>
</a>
</g>
</g>
<!-- Node153&#45;&gt;Node167 -->
<g id="edge14" class="edge"><title>Node153&#45;&gt;Node167</title>
<path fill="none" stroke="midnightblue" d="M53.0265,-435.613C60.8257,-397.049 82.9643,-311.428 133,-260.5 136.958,-256.472 141.532,-252.922 146.406,-249.804"/>
<polygon fill="midnightblue" stroke="midnightblue" points="49.5613,-435.1 51.123,-445.579 56.437,-436.414 49.5613,-435.1"/>
</g>
<!-- Node168 -->
<g id="node16" class="node"><title>Node168</title>
<g id="a_node16"><a xlink:href="../../d6/d5d/namespacemom__set__visc.html#ae2d9d9f74c1e9aec56257cfad372b0fd" target="_top" xlink:title="mom_set_visc::set_visc\l_register_restarts">
<polygon fill="white" stroke="black" points="141.5,-159.5 141.5,-189.5 264.5,-189.5 264.5,-159.5 141.5,-159.5"/>
<text text-anchor="start" x="149.5" y="-177.5" font-family="Helvetica,sans-Serif" font-size="10.00">mom_set_visc::set_visc</text>
<text text-anchor="middle" x="203" y="-166.5" font-family="Helvetica,sans-Serif" font-size="10.00">_register_restarts</text>
</a>
</g>
</g>
<!-- Node153&#45;&gt;Node168 -->
<g id="edge15" class="edge"><title>Node153&#45;&gt;Node168</title>
<path fill="none" stroke="midnightblue" d="M50.2763,-435.739C53.1923,-388.442 67.0598,-267.606 133,-199.5 136.722,-195.655 141.08,-192.399 145.766,-189.642"/>
<polygon fill="midnightblue" stroke="midnightblue" points="46.7737,-435.701 49.7553,-445.868 53.7645,-436.061 46.7737,-435.701"/>
</g>
<!-- Node169 -->
<g id="node17" class="node"><title>Node169</title>
<g id="a_node17"><a xlink:href="../../df/db5/namespaceuser__tracer__example.html#a71efc349b3fbeb6f4cb2155de1f8bbe5" target="_top" xlink:title="user_tracer_example\l::user_register_tracer\l_example">
<polygon fill="white" stroke="black" points="148.5,-99 148.5,-140 257.5,-140 257.5,-99 148.5,-99"/>
<text text-anchor="start" x="156.5" y="-128" font-family="Helvetica,sans-Serif" font-size="10.00">user_tracer_example</text>
<text text-anchor="start" x="156.5" y="-117" font-family="Helvetica,sans-Serif" font-size="10.00">::user_register_tracer</text>
<text text-anchor="middle" x="203" y="-106" font-family="Helvetica,sans-Serif" font-size="10.00">_example</text>
</a>
</g>
</g>
<!-- Node153&#45;&gt;Node169 -->
<g id="edge16" class="edge"><title>Node153&#45;&gt;Node169</title>
<path fill="none" stroke="midnightblue" d="M49.3863,-435.634C50.1309,-382.764 59.1579,-236.779 133,-150.5 137.27,-145.511 142.504,-141.289 148.162,-137.723"/>
<polygon fill="midnightblue" stroke="midnightblue" points="45.8848,-435.949 49.335,-445.966 52.8847,-435.983 45.8848,-435.949"/>
</g>
<!-- Node170 -->
<g id="node18" class="node"><title>Node170</title>
<g id="a_node18"><a xlink:href="../../d7/dc9/namespacemom__shared__initialization.html#abef3d6e722e67f47ebdd3f989b9e90b8" target="_top" xlink:title="Write out a file describing the topography, Coriolis parameter, grid locations and various other fixe...">
<polygon fill="white" stroke="black" points="133.5,-49.5 133.5,-79.5 272.5,-79.5 272.5,-49.5 133.5,-49.5"/>
<text text-anchor="start" x="141.5" y="-67.5" font-family="Helvetica,sans-Serif" font-size="10.00">mom_shared_initialization</text>
<text text-anchor="middle" x="203" y="-56.5" font-family="Helvetica,sans-Serif" font-size="10.00">::write_ocean_geometry_file</text>
</a>
</g>
</g>
<!-- Node153&#45;&gt;Node170 -->
<g id="edge17" class="edge"><title>Node153&#45;&gt;Node170</title>
<path fill="none" stroke="midnightblue" d="M51.5644,-435.353C58.9883,-366.551 86.3883,-142.245 133,-89.5 136.375,-85.6811 140.38,-82.4452 144.735,-79.7034"/>
<polygon fill="midnightblue" stroke="midnightblue" points="48.0446,-435.357 50.4767,-445.669 55.006,-436.091 48.0446,-435.357"/>
</g>
<!-- Node172 -->
<g id="node20" class="node"><title>Node172</title>
<g id="a_node20"><a xlink:href="../../de/d88/namespacemom__coord__initialization.html#a45fb62504679264febbaa0617332ecc1" target="_top" xlink:title="mom_coord_initialization\l::write_vertgrid_file">
<polygon fill="white" stroke="black" points="141,-0.5 141,-30.5 265,-30.5 265,-0.5 141,-0.5"/>
<text text-anchor="start" x="149" y="-18.5" font-family="Helvetica,sans-Serif" font-size="10.00">mom_coord_initialization</text>
<text text-anchor="middle" x="203" y="-7.5" font-family="Helvetica,sans-Serif" font-size="10.00">::write_vertgrid_file</text>
</a>
</g>
</g>
<!-- Node153&#45;&gt;Node172 -->
<g id="edge19" class="edge"><title>Node153&#45;&gt;Node172</title>
<path fill="none" stroke="midnightblue" d="M50.9226,-435.543C56.6135,-361.025 80.0409,-100.24 133,-39.5 136.001,-36.0585 139.522,-33.1103 143.358,-30.5848"/>
<polygon fill="midnightblue" stroke="midnightblue" points="47.4079,-435.613 50.1597,-445.844 54.3888,-436.13 47.4079,-435.613"/>
</g>
<!-- Node171 -->
<g id="node19" class="node"><title>Node171</title>
<g id="a_node19"><a xlink:href="../../d3/da8/namespacemom__fixed__initialization.html#a6c1c054d9cda9f1bd11abba748614c92" target="_top" xlink:title="MOM_initialize_fixed sets up time&#45;invariant quantities related to MOM6&#39;s horizontal grid...">
<polygon fill="white" stroke="black" points="310.5,-49.5 310.5,-79.5 431.5,-79.5 431.5,-49.5 310.5,-49.5"/>
<text text-anchor="start" x="318.5" y="-67.5" font-family="Helvetica,sans-Serif" font-size="10.00">mom_fixed_initialization</text>
<text text-anchor="middle" x="371" y="-56.5" font-family="Helvetica,sans-Serif" font-size="10.00">::mom_initialize_fixed</text>
</a>
</g>
</g>
<!-- Node170&#45;&gt;Node171 -->
<g id="edge18" class="edge"><title>Node170&#45;&gt;Node171</title>
<path fill="none" stroke="midnightblue" d="M283.187,-64.5C292.291,-64.5 301.457,-64.5 310.245,-64.5"/>
<polygon fill="midnightblue" stroke="midnightblue" points="282.957,-61.0001 272.957,-64.5 282.957,-68.0001 282.957,-61.0001"/>
</g>
<!-- Node173 -->
<g id="node21" class="node"><title>Node173</title>
<g id="a_node21"><a xlink:href="../../de/d88/namespacemom__coord__initialization.html#a6e2f4c11bc99476ea9c64a9aceac3b81" target="_top" xlink:title="MOM_initialize_coord sets up time&#45;invariant quantities related to MOM6&#39;s vertical coordinate...">
<polygon fill="white" stroke="black" points="309,-0.5 309,-30.5 433,-30.5 433,-0.5 309,-0.5"/>
<text text-anchor="start" x="317" y="-18.5" font-family="Helvetica,sans-Serif" font-size="10.00">mom_coord_initialization</text>
<text text-anchor="middle" x="371" y="-7.5" font-family="Helvetica,sans-Serif" font-size="10.00">::mom_initialize_coord</text>
</a>
</g>
</g>
<!-- Node172&#45;&gt;Node173 -->
<g id="edge20" class="edge"><title>Node172&#45;&gt;Node173</title>
<path fill="none" stroke="midnightblue" d="M275.468,-15.5C286.608,-15.5 298.03,-15.5 308.911,-15.5"/>
<polygon fill="midnightblue" stroke="midnightblue" points="275.341,-12.0001 265.341,-15.5 275.341,-19.0001 275.341,-12.0001"/>
</g>
</g>
</svg>
        <g id="navigator" transform="translate(0 0)" fill="#404254">
                <rect fill="#f2f5e9" fill-opacity="0.5" stroke="#606060" stroke-width=".5" x="0" y="0" width="60" height="60"/>
                <use id="zoomplus" xlink:href="#zoomPlus" x="17" y="9" onmousedown="handleZoom(evt,'in')"/>
                <use id="zoomminus" xlink:href="#zoomMin" x="42" y="9" onmousedown="handleZoom(evt,'out')"/>
                <use id="reset" xlink:href="#resetDef" x="30" y="36" onmousedown="handleReset()"/>
                <g id="arrowUp" xlink:href="#dirArrow" transform="translate(30 24)" onmousedown="handlePan(0,-1)">
                  <use xlink:href="#rim" fill="#404040">
                        <set attributeName="fill" to="#808080" begin="arrowUp.mouseover" end="arrowUp.mouseout"/>
                  </use>
                  <path fill="none" stroke="white" stroke-width="1.5" d="M0,-3.0v7 M-2.5,-0.5L0,-3.0L2.5,-0.5"/>
                </g>
                <g id="arrowRight" xlink:href="#dirArrow" transform="rotate(90) translate(36 -43)" onmousedown="handlePan(1,0)">
                  <use xlink:href="#rim" fill="#404040">
                        <set attributeName="fill" to="#808080" begin="arrowRight.mouseover" end="arrowRight.mouseout"/>
                  </use>
                  <path fill="none" stroke="white" stroke-width="1.5" d="M0,-3.0v7 M-2.5,-0.5L0,-3.0L2.5,-0.5"/>
                </g>
                <g id="arrowDown" xlink:href="#dirArrow" transform="rotate(180) translate(-30 -48)" onmousedown="handlePan(0,1)">
                  <use xlink:href="#rim" fill="#404040">
                        <set attributeName="fill" to="#808080" begin="arrowDown.mouseover" end="arrowDown.mouseout"/>
                  </use>
                  <path fill="none" stroke="white" stroke-width="1.5" d="M0,-3.0v7 M-2.5,-0.5L0,-3.0L2.5,-0.5"/>
                </g>
                <g id="arrowLeft" xlink:href="#dirArrow" transform="rotate(270) translate(-36 17)" onmousedown="handlePan(-1,0)">
                  <use xlink:href="#rim" fill="#404040">
                        <set attributeName="fill" to="#808080" begin="arrowLeft.mouseover" end="arrowLeft.mouseout"/>
                  </use>
                  <path fill="none" stroke="white" stroke-width="1.5" d="M0,-3.0v7 M-2.5,-0.5L0,-3.0L2.5,-0.5"/>
                </g>
        </g>
        <svg viewBox="0 0 15 15" width="100%" height="30px" preserveAspectRatio="xMaxYMin meet">
         <g id="arrow_out" transform="scale(0.3 0.3)">
          <a xlink:href="namespacemom__io_a39c3ccc06bb1a6e446af2ee9010eba16_icgraph_org.svg" target="_base">
           <rect id="button" ry="5" rx="5" y="6" x="6" height="38" width="38"
                fill="#f2f5e9" fill-opacity="0.5" stroke="#606060" stroke-width="1.0"/>
           <path id="arrow"
             d="M 11.500037,31.436501 C 11.940474,20.09759 22.043105,11.32322 32.158766,21.979434 L 37.068811,17.246167 C 37.068811,17.246167 37.088388,32 37.088388,32 L 22.160133,31.978069 C 22.160133,31.978069 26.997745,27.140456 26.997745,27.140456 C 18.528582,18.264221 13.291696,25.230495 11.500037,31.436501 z"
             style="fill:#404040;"/>
          </a>
         </g>
        </svg>
</svg>
