<?xml version="1.0" encoding="UTF-8" standalone="no"?>
<!DOCTYPE svg PUBLIC "-//W3C//DTD SVG 1.1//EN"
 "http://www.w3.org/Graphics/SVG/1.1/DTD/svg11.dtd">
<!-- Generated by graphviz version 2.38.0 (20140413.2041)
 -->
<!-- Title: mom_lateral_mixing_coeffs::calc_slope_functions Pages: 1 -->
<svg width="752pt" height="322pt"
 viewBox="0.00 0.00 752.00 322.41" xmlns="http://www.w3.org/2000/svg" xmlns:xlink="http://www.w3.org/1999/xlink">
<g id="graph0" class="graph" transform="scale(1 1) rotate(0) translate(4 318.411)">
<title>mom_lateral_mixing_coeffs::calc_slope_functions</title>
<polygon fill="white" stroke="none" points="-4,4 -4,-318.411 748,-318.411 748,4 -4,4"/>
<!-- Node38 -->
<g id="node1" class="node"><title>Node38</title>
<polygon fill="#bfbfbf" stroke="black" points="0,-87.4105 0,-128.411 104,-128.411 104,-87.4105 0,-87.4105"/>
<text text-anchor="start" x="8" y="-116.411" font-family="Helvetica,sans-Serif" font-size="10.00">mom_lateral_mixing</text>
<text text-anchor="start" x="8" y="-105.411" font-family="Helvetica,sans-Serif" font-size="10.00">_coeffs::calc_slope</text>
<text text-anchor="middle" x="52" y="-94.4105" font-family="Helvetica,sans-Serif" font-size="10.00">_functions</text>
</g>
<!-- Node39 -->
<g id="node2" class="node"><title>Node39</title>
<g id="a_node2"><a xlink:href="../../d6/d4c/namespacemom__isopycnal__slopes.html#ad8b145434d470eceaf9a151a65a74dd5" target="_top" xlink:title="mom_isopycnal_slopes\l::calc_isoneutral_slopes">
<polygon fill="white" stroke="black" points="140,-185.911 140,-215.911 262,-215.911 262,-185.911 140,-185.911"/>
<text text-anchor="start" x="148" y="-203.911" font-family="Helvetica,sans-Serif" font-size="10.00">mom_isopycnal_slopes</text>
<text text-anchor="middle" x="201" y="-192.911" font-family="Helvetica,sans-Serif" font-size="10.00">::calc_isoneutral_slopes</text>
</a>
</g>
</g>
<!-- Node38&#45;&gt;Node39 -->
<g id="edge1" class="edge"><title>Node38&#45;&gt;Node39</title>
<path fill="none" stroke="midnightblue" d="M79.2657,-128.658C96.1392,-141.546 118.793,-158.048 140,-170.911 145.821,-174.441 152.111,-177.923 158.354,-181.195"/>
<polygon fill="midnightblue" stroke="midnightblue" points="156.908,-184.387 167.405,-185.82 160.093,-178.153 156.908,-184.387"/>
</g>
<!-- Node44 -->
<g id="node7" class="node"><title>Node44</title>
<g id="a_node7"><a xlink:href="../../d0/de6/namespacemom__error__handler.html#a460cfb79a06c29fc249952c2a3710d67" target="_top" xlink:title="mom_error_handler::\lmom_error">
<polygon fill="white" stroke="black" points="478.5,-117.911 478.5,-147.911 584.5,-147.911 584.5,-117.911 478.5,-117.911"/>
<text text-anchor="start" x="486.5" y="-135.911" font-family="Helvetica,sans-Serif" font-size="10.00">mom_error_handler::</text>
<text text-anchor="middle" x="531.5" y="-124.911" font-family="Helvetica,sans-Serif" font-size="10.00">mom_error</text>
</a>
</g>
</g>
<!-- Node38&#45;&gt;Node44 -->
<g id="edge14" class="edge"><title>Node38&#45;&gt;Node44</title>
<path fill="none" stroke="midnightblue" d="M103.326,-128.419C115.162,-132.353 127.867,-135.877 140,-137.911 254.551,-157.106 390.657,-148.372 468.174,-140.493"/>
<polygon fill="midnightblue" stroke="midnightblue" points="468.671,-143.96 478.253,-139.439 467.944,-136.998 468.671,-143.96"/>
</g>
<!-- Node47 -->
<g id="node10" class="node"><title>Node47</title>
<g id="a_node10"><a xlink:href="../../d0/d86/namespacemom__lateral__mixing__coeffs.html#a99c2bbbd90d46bebeb2e8bd4c29817dd" target="_top" xlink:title="The original calc_slope_function() that calculated slopes using interface positions only...">
<polygon fill="white" stroke="black" points="140,-87.4105 140,-128.411 262,-128.411 262,-87.4105 140,-87.4105"/>
<text text-anchor="start" x="148" y="-116.411" font-family="Helvetica,sans-Serif" font-size="10.00">mom_lateral_mixing</text>
<text text-anchor="start" x="148" y="-105.411" font-family="Helvetica,sans-Serif" font-size="10.00">_coeffs::calc_slope</text>
<text text-anchor="middle" x="201" y="-94.4105" font-family="Helvetica,sans-Serif" font-size="10.00">_functions_using_just_e</text>
</a>
</g>
</g>
<!-- Node38&#45;&gt;Node47 -->
<g id="edge9" class="edge"><title>Node38&#45;&gt;Node47</title>
<path fill="none" stroke="midnightblue" d="M104.001,-107.911C112.345,-107.911 121.118,-107.911 129.827,-107.911"/>
<polygon fill="midnightblue" stroke="midnightblue" points="129.994,-111.411 139.994,-107.911 129.994,-104.411 129.994,-111.411"/>
</g>
<!-- Node48 -->
<g id="node11" class="node"><title>Node48</title>
<g id="a_node11"><a xlink:href="../../d0/d86/namespacemom__lateral__mixing__coeffs.html#ae625fee7e36d68e290b3af57697d0afe" target="_top" xlink:title="Calculates factors used when setting diffusivity coefficients similar to Visbeck et al...">
<polygon fill="white" stroke="black" points="145,-27.4105 145,-68.4105 257,-68.4105 257,-27.4105 145,-27.4105"/>
<text text-anchor="start" x="153" y="-56.4105" font-family="Helvetica,sans-Serif" font-size="10.00">mom_lateral_mixing</text>
<text text-anchor="start" x="153" y="-45.4105" font-family="Helvetica,sans-Serif" font-size="10.00">_coeffs::calc_visbeck</text>
<text text-anchor="middle" x="201" y="-34.4105" font-family="Helvetica,sans-Serif" font-size="10.00">_coeffs</text>
</a>
</g>
</g>
<!-- Node38&#45;&gt;Node48 -->
<g id="edge11" class="edge"><title>Node38&#45;&gt;Node48</title>
<path fill="none" stroke="midnightblue" d="M103.589,-87.262C115.254,-82.5008 127.774,-77.3906 139.802,-72.481"/>
<polygon fill="midnightblue" stroke="midnightblue" points="141.382,-75.6167 149.318,-68.5972 138.737,-69.1358 141.382,-75.6167"/>
</g>
<!-- Node49 -->
<g id="node12" class="node"><title>Node49</title>
<g id="a_node12"><a xlink:href="../../d9/d06/namespacemom__diag__mediator.html#a0be5d1cbc6c6f8f63950ce7d9bc6455a" target="_top" xlink:title="mom_diag_mediator::\lquery_averaging_enabled">
<polygon fill="white" stroke="black" points="298,-0.910547 298,-30.9105 425,-30.9105 425,-0.910547 298,-0.910547"/>
<text text-anchor="start" x="306" y="-18.9105" font-family="Helvetica,sans-Serif" font-size="10.00">mom_diag_mediator::</text>
<text text-anchor="middle" x="361.5" y="-7.91055" font-family="Helvetica,sans-Serif" font-size="10.00">query_averaging_enabled</text>
</a>
</g>
</g>
<!-- Node38&#45;&gt;Node49 -->
<g id="edge15" class="edge"><title>Node38&#45;&gt;Node49</title>
<path fill="none" stroke="midnightblue" d="M65.6747,-87.2434C80.4353,-65.3595 107.053,-32.0625 140,-17.9105 186.339,1.99386 243.378,1.94218 287.832,-2.79768"/>
<polygon fill="midnightblue" stroke="midnightblue" points="287.642,-6.29917 297.981,-3.98344 288.455,0.65353 287.642,-6.29917"/>
</g>
<!-- Node40 -->
<g id="node3" class="node"><title>Node40</title>
<g id="a_node3"><a xlink:href="../../d1/d01/namespacemom__eos.html#a204529f8434a0322314e6ce2a9762436" target="_top" xlink:title="Calls the appropriate subroutine to calculate density derivatives for 1&#45;D array inputs. ">
<polygon fill="white" stroke="black" points="309.5,-234.911 309.5,-264.911 413.5,-264.911 413.5,-234.911 309.5,-234.911"/>
<text text-anchor="start" x="317.5" y="-252.911" font-family="Helvetica,sans-Serif" font-size="10.00">mom_eos::calculate</text>
<text text-anchor="middle" x="361.5" y="-241.911" font-family="Helvetica,sans-Serif" font-size="10.00">_density_derivs</text>
</a>
</g>
</g>
<!-- Node39&#45;&gt;Node40 -->
<g id="edge2" class="edge"><title>Node39&#45;&gt;Node40</title>
<path fill="none" stroke="midnightblue" d="M250.849,-216.012C267.044,-221.019 285.237,-226.643 302.078,-231.85"/>
<polygon fill="midnightblue" stroke="midnightblue" points="301.225,-235.249 311.813,-234.859 303.293,-228.561 301.225,-235.249"/>
</g>
<!-- Node46 -->
<g id="node9" class="node"><title>Node46</title>
<g id="a_node9"><a xlink:href="../../d6/d4c/namespacemom__isopycnal__slopes.html#a4a5a4ea71140c8e115264614305840c9" target="_top" xlink:title="mom_isopycnal_slopes\l::vert_fill_ts">
<polygon fill="white" stroke="black" points="302,-185.911 302,-215.911 421,-215.911 421,-185.911 302,-185.911"/>
<text text-anchor="start" x="310" y="-203.911" font-family="Helvetica,sans-Serif" font-size="10.00">mom_isopycnal_slopes</text>
<text text-anchor="middle" x="361.5" y="-192.911" font-family="Helvetica,sans-Serif" font-size="10.00">::vert_fill_ts</text>
</a>
</g>
</g>
<!-- Node39&#45;&gt;Node46 -->
<g id="edge8" class="edge"><title>Node39&#45;&gt;Node46</title>
<path fill="none" stroke="midnightblue" d="M262.374,-200.911C271.984,-200.911 281.987,-200.911 291.772,-200.911"/>
<polygon fill="midnightblue" stroke="midnightblue" points="291.864,-204.411 301.864,-200.911 291.864,-197.411 291.864,-204.411"/>
</g>
<!-- Node41 -->
<g id="node4" class="node"><title>Node41</title>
<g id="a_node4"><a xlink:href="../../d5/de6/namespacemom__eos__linear.html#a73d8a625582247379092adf1aeeb55e0" target="_top" xlink:title="mom_eos_linear::calculate\l_density_derivs_linear">
<polygon fill="white" stroke="black" points="465,-283.911 465,-313.911 598,-313.911 598,-283.911 465,-283.911"/>
<text text-anchor="start" x="473" y="-301.911" font-family="Helvetica,sans-Serif" font-size="10.00">mom_eos_linear::calculate</text>
<text text-anchor="middle" x="531.5" y="-290.911" font-family="Helvetica,sans-Serif" font-size="10.00">_density_derivs_linear</text>
</a>
</g>
</g>
<!-- Node40&#45;&gt;Node41 -->
<g id="edge3" class="edge"><title>Node40&#45;&gt;Node41</title>
<path fill="none" stroke="midnightblue" d="M413.818,-264.878C431.323,-269.984 451.07,-275.743 469.274,-281.053"/>
<polygon fill="midnightblue" stroke="midnightblue" points="468.337,-284.425 478.917,-283.865 470.297,-277.705 468.337,-284.425"/>
</g>
<!-- Node42 -->
<g id="node5" class="node"><title>Node42</title>
<g id="a_node5"><a xlink:href="../../dd/d6b/namespacemom__eos__unesco.html#af8666837abadea54c016bf59838f96cc" target="_top" xlink:title="mom_eos_unesco::calculate\l_density_derivs_unesco">
<polygon fill="white" stroke="black" points="461,-234.911 461,-264.911 602,-264.911 602,-234.911 461,-234.911"/>
<text text-anchor="start" x="469" y="-252.911" font-family="Helvetica,sans-Serif" font-size="10.00">mom_eos_unesco::calculate</text>
<text text-anchor="middle" x="531.5" y="-241.911" font-family="Helvetica,sans-Serif" font-size="10.00">_density_derivs_unesco</text>
</a>
</g>
</g>
<!-- Node40&#45;&gt;Node42 -->
<g id="edge4" class="edge"><title>Node40&#45;&gt;Node42</title>
<path fill="none" stroke="midnightblue" d="M413.818,-249.911C425.544,-249.911 438.276,-249.911 450.877,-249.911"/>
<polygon fill="midnightblue" stroke="midnightblue" points="450.933,-253.411 460.932,-249.911 450.932,-246.411 450.933,-253.411"/>
</g>
<!-- Node43 -->
<g id="node6" class="node"><title>Node43</title>
<g id="a_node6"><a xlink:href="../../de/d76/namespacemom__eos__wright.html#ad7748e85ddacb33ad90ec3a9017e6e72" target="_top" xlink:title="mom_eos_wright::calculate\l_density_derivs_wright">
<polygon fill="white" stroke="black" points="463.5,-185.911 463.5,-215.911 599.5,-215.911 599.5,-185.911 463.5,-185.911"/>
<text text-anchor="start" x="471.5" y="-203.911" font-family="Helvetica,sans-Serif" font-size="10.00">mom_eos_wright::calculate</text>
<text text-anchor="middle" x="531.5" y="-192.911" font-family="Helvetica,sans-Serif" font-size="10.00">_density_derivs_wright</text>
</a>
</g>
</g>
<!-- Node40&#45;&gt;Node43 -->
<g id="edge5" class="edge"><title>Node40&#45;&gt;Node43</title>
<path fill="none" stroke="midnightblue" d="M413.818,-234.943C431.323,-229.837 451.07,-224.078 469.274,-218.768"/>
<polygon fill="midnightblue" stroke="midnightblue" points="470.297,-222.116 478.917,-215.956 468.337,-215.396 470.297,-222.116"/>
</g>
<!-- Node40&#45;&gt;Node44 -->
<g id="edge6" class="edge"><title>Node40&#45;&gt;Node44</title>
<path fill="none" stroke="midnightblue" d="M410.481,-234.871C415.622,-232.289 420.581,-229.317 425,-225.911 446.688,-209.193 440.972,-194.584 461,-175.911 470.162,-167.369 481.269,-159.604 491.892,-153.097"/>
<polygon fill="midnightblue" stroke="midnightblue" points="493.809,-156.03 500.647,-147.938 490.254,-150 493.809,-156.03"/>
</g>
<!-- Node45 -->
<g id="node8" class="node"><title>Node45</title>
<g id="a_node8"><a xlink:href="../../d0/de6/namespacemom__error__handler.html#ad5f00a53059c72fe2332d1436c80ca71" target="_top" xlink:title="mom_error_handler::\lis_root_pe">
<polygon fill="white" stroke="black" points="638,-117.911 638,-147.911 744,-147.911 744,-117.911 638,-117.911"/>
<text text-anchor="start" x="646" y="-135.911" font-family="Helvetica,sans-Serif" font-size="10.00">mom_error_handler::</text>
<text text-anchor="middle" x="691" y="-124.911" font-family="Helvetica,sans-Serif" font-size="10.00">is_root_pe</text>
</a>
</g>
</g>
<!-- Node44&#45;&gt;Node45 -->
<g id="edge7" class="edge"><title>Node44&#45;&gt;Node45</title>
<path fill="none" stroke="midnightblue" d="M584.508,-132.911C598.279,-132.911 613.289,-132.911 627.552,-132.911"/>
<polygon fill="midnightblue" stroke="midnightblue" points="627.778,-136.411 637.778,-132.911 627.778,-129.411 627.778,-136.411"/>
</g>
<!-- Node47&#45;&gt;Node44 -->
<g id="edge10" class="edge"><title>Node47&#45;&gt;Node44</title>
<path fill="none" stroke="midnightblue" d="M262.252,-112.496C320.7,-116.944 408.996,-123.664 468.147,-128.165"/>
<polygon fill="midnightblue" stroke="midnightblue" points="468.237,-131.682 478.474,-128.951 468.768,-124.702 468.237,-131.682"/>
</g>
<!-- Node48&#45;&gt;Node44 -->
<g id="edge12" class="edge"><title>Node48&#45;&gt;Node44</title>
<path fill="none" stroke="midnightblue" d="M257.354,-62.2335C315.812,-77.3596 407.765,-101.153 468.59,-116.891"/>
<polygon fill="midnightblue" stroke="midnightblue" points="467.89,-120.325 478.448,-119.442 469.643,-113.548 467.89,-120.325"/>
</g>
<!-- Node48&#45;&gt;Node49 -->
<g id="edge13" class="edge"><title>Node48&#45;&gt;Node49</title>
<path fill="none" stroke="midnightblue" d="M257.436,-36.7185C267.211,-34.745 277.519,-32.6638 287.685,-30.6114"/>
<polygon fill="midnightblue" stroke="midnightblue" points="288.669,-33.9834 297.778,-28.5736 287.283,-27.1219 288.669,-33.9834"/>
</g>
</g>
</svg>
