<?xml version="1.0" encoding="UTF-8" standalone="no"?>
<!DOCTYPE svg PUBLIC "-//W3C//DTD SVG 1.1//EN"
 "http://www.w3.org/Graphics/SVG/1.1/DTD/svg11.dtd">
<!-- Generated by graphviz version 2.38.0 (20140413.2041)
 -->
<!-- Title: mom_lateral_mixing_coeffs::calc_resoln_function Pages: 1 -->
<svg width="1260pt" height="1183pt"
 viewBox="0.00 0.00 1260.00 1183.00" xmlns="http://www.w3.org/2000/svg" xmlns:xlink="http://www.w3.org/1999/xlink">
<g id="graph0" class="graph" transform="scale(1 1) rotate(0) translate(4 1179)">
<title>mom_lateral_mixing_coeffs::calc_resoln_function</title>
<polygon fill="white" stroke="none" points="-4,4 -4,-1179 1256,-1179 1256,4 -4,4"/>
<!-- Node0 -->
<g id="node1" class="node"><title>Node0</title>
<polygon fill="#bfbfbf" stroke="black" points="0,-977 0,-1018 104,-1018 104,-977 0,-977"/>
<text text-anchor="start" x="8" y="-1006" font-family="Helvetica,sans-Serif" font-size="10.00">mom_lateral_mixing</text>
<text text-anchor="start" x="8" y="-995" font-family="Helvetica,sans-Serif" font-size="10.00">_coeffs::calc_resoln</text>
<text text-anchor="middle" x="52" y="-984" font-family="Helvetica,sans-Serif" font-size="10.00">_function</text>
</g>
<!-- Node1 -->
<g id="node2" class="node"><title>Node1</title>
<g id="a_node2"><a xlink:href="../../d0/de6/namespacemom__error__handler.html#a460cfb79a06c29fc249952c2a3710d67" target="_top" xlink:title="mom_error_handler::\lmom_error">
<polygon fill="white" stroke="black" points="1000,-399.5 1000,-429.5 1106,-429.5 1106,-399.5 1000,-399.5"/>
<text text-anchor="start" x="1008" y="-417.5" font-family="Helvetica,sans-Serif" font-size="10.00">mom_error_handler::</text>
<text text-anchor="middle" x="1053" y="-406.5" font-family="Helvetica,sans-Serif" font-size="10.00">mom_error</text>
</a>
</g>
</g>
<!-- Node0&#45;&gt;Node1 -->
<g id="edge1" class="edge"><title>Node0&#45;&gt;Node1</title>
<path fill="none" stroke="midnightblue" d="M104.152,-1014.75C166.774,-1034.31 276.426,-1063.5 373,-1063.5 373,-1063.5 373,-1063.5 727,-1063.5 1011.41,-1063.5 1046.95,-559.021 1051.37,-439.617"/>
<polygon fill="midnightblue" stroke="midnightblue" points="1054.87,-439.697 1051.7,-429.587 1047.88,-439.467 1054.87,-439.697"/>
</g>
<!-- Node3 -->
<g id="node4" class="node"><title>Node3</title>
<g id="a_node4"><a xlink:href="../../d9/d06/namespacemom__diag__mediator.html#a0be5d1cbc6c6f8f63950ce7d9bc6455a" target="_top" xlink:title="mom_diag_mediator::\lquery_averaging_enabled">
<polygon fill="white" stroke="black" points="140.5,-982.5 140.5,-1012.5 267.5,-1012.5 267.5,-982.5 140.5,-982.5"/>
<text text-anchor="start" x="148.5" y="-1000.5" font-family="Helvetica,sans-Serif" font-size="10.00">mom_diag_mediator::</text>
<text text-anchor="middle" x="204" y="-989.5" font-family="Helvetica,sans-Serif" font-size="10.00">query_averaging_enabled</text>
</a>
</g>
</g>
<!-- Node0&#45;&gt;Node3 -->
<g id="edge3" class="edge"><title>Node0&#45;&gt;Node3</title>
<path fill="none" stroke="midnightblue" d="M104.202,-997.5C112.559,-997.5 121.356,-997.5 130.114,-997.5"/>
<polygon fill="midnightblue" stroke="midnightblue" points="130.35,-1001 140.35,-997.5 130.35,-994 130.35,-1001"/>
</g>
<!-- Node4 -->
<g id="node5" class="node"><title>Node4</title>
<g id="a_node5"><a xlink:href="../../dd/d33/namespacemom__wave__speed.html#a72302e356c47c5055ba0b1a8714c772a" target="_top" xlink:title="Calculates the wave speed of the first baroclinic mode. ">
<polygon fill="white" stroke="black" points="140,-911.5 140,-941.5 268,-941.5 268,-911.5 140,-911.5"/>
<text text-anchor="start" x="148" y="-929.5" font-family="Helvetica,sans-Serif" font-size="10.00">mom_wave_speed::wave</text>
<text text-anchor="middle" x="204" y="-918.5" font-family="Helvetica,sans-Serif" font-size="10.00">_speed</text>
</a>
</g>
</g>
<!-- Node0&#45;&gt;Node4 -->
<g id="edge4" class="edge"><title>Node0&#45;&gt;Node4</title>
<path fill="none" stroke="midnightblue" d="M96.3862,-976.964C117.002,-967.206 141.519,-955.601 161.841,-945.982"/>
<polygon fill="midnightblue" stroke="midnightblue" points="163.608,-949.018 171.149,-941.576 160.613,-942.691 163.608,-949.018"/>
</g>
<!-- Node2 -->
<g id="node3" class="node"><title>Node2</title>
<g id="a_node3"><a xlink:href="../../d0/de6/namespacemom__error__handler.html#ad5f00a53059c72fe2332d1436c80ca71" target="_top" xlink:title="mom_error_handler::\lis_root_pe">
<polygon fill="white" stroke="black" points="1146,-399.5 1146,-429.5 1252,-429.5 1252,-399.5 1146,-399.5"/>
<text text-anchor="start" x="1154" y="-417.5" font-family="Helvetica,sans-Serif" font-size="10.00">mom_error_handler::</text>
<text text-anchor="middle" x="1199" y="-406.5" font-family="Helvetica,sans-Serif" font-size="10.00">is_root_pe</text>
</a>
</g>
</g>
<!-- Node1&#45;&gt;Node2 -->
<g id="edge2" class="edge"><title>Node1&#45;&gt;Node2</title>
<path fill="none" stroke="midnightblue" d="M1106.39,-414.5C1115.94,-414.5 1125.99,-414.5 1135.79,-414.5"/>
<polygon fill="midnightblue" stroke="midnightblue" points="1135.89,-418 1145.89,-414.5 1135.89,-411 1135.89,-418"/>
</g>
<!-- Node4&#45;&gt;Node1 -->
<g id="edge5" class="edge"><title>Node4&#45;&gt;Node1</title>
<path fill="none" stroke="midnightblue" d="M268.178,-926.5C337.27,-926.5 451.264,-926.5 549.5,-926.5 549.5,-926.5 549.5,-926.5 727,-926.5 854.408,-926.5 893.392,-868.109 960,-759.5 1025.44,-652.794 1044.89,-499.768 1050.18,-439.888"/>
<polygon fill="midnightblue" stroke="midnightblue" points="1053.68,-440.078 1051.01,-429.824 1046.7,-439.501 1053.68,-440.078"/>
</g>
<!-- Node5 -->
<g id="node6" class="node"><title>Node5</title>
<g id="a_node6"><a xlink:href="../../d1/d01/namespacemom__eos.html#a204529f8434a0322314e6ce2a9762436" target="_top" xlink:title="Calls the appropriate subroutine to calculate density derivatives for 1&#45;D array inputs. ">
<polygon fill="white" stroke="black" points="322,-98.5 322,-128.5 426,-128.5 426,-98.5 322,-98.5"/>
<text text-anchor="start" x="330" y="-116.5" font-family="Helvetica,sans-Serif" font-size="10.00">mom_eos::calculate</text>
<text text-anchor="middle" x="374" y="-105.5" font-family="Helvetica,sans-Serif" font-size="10.00">_density_derivs</text>
</a>
</g>
</g>
<!-- Node4&#45;&gt;Node5 -->
<g id="edge6" class="edge"><title>Node4&#45;&gt;Node5</title>
<path fill="none" stroke="midnightblue" d="M206.381,-911.443C212.98,-841.795 243.516,-544.221 304,-307.5 319.935,-245.133 347.592,-174.518 362.596,-138.116"/>
<polygon fill="midnightblue" stroke="midnightblue" points="365.866,-139.369 366.472,-128.791 359.402,-136.682 365.866,-139.369"/>
</g>
<!-- Node9 -->
<g id="node10" class="node"><title>Node9</title>
<g id="a_node10"><a xlink:href="../../dd/d33/namespacemom__wave__speed.html#a57673d33027f1ef38330443123102301" target="_top" xlink:title="Solve a non&#45;symmetric tridiagonal problem with a scalar contribution to the leading diagonal...">
<polygon fill="white" stroke="black" points="308.5,-955 308.5,-974 439.5,-974 439.5,-955 308.5,-955"/>
<text text-anchor="middle" x="374" y="-962" font-family="Helvetica,sans-Serif" font-size="10.00">mom_wave_speed::tdma6</text>
</a>
</g>
</g>
<!-- Node4&#45;&gt;Node9 -->
<g id="edge11" class="edge"><title>Node4&#45;&gt;Node9</title>
<path fill="none" stroke="midnightblue" d="M268.035,-940.758C285.383,-944.682 304.006,-948.894 320.679,-952.665"/>
<polygon fill="midnightblue" stroke="midnightblue" points="320.253,-956.157 330.778,-954.95 321.797,-949.33 320.253,-956.157"/>
</g>
<!-- Node10 -->
<g id="node11" class="node"><title>Node10</title>
<g id="a_node11"><a xlink:href="../../d6/d75/namespacemom__remapping.html#a6d1533ffa647f3305aba055e2685b095" target="_top" xlink:title="Remaps column of values u0 on grid h0 to grid h1 assuming the top edge is aligned. ">
<polygon fill="white" stroke="black" points="304,-317.5 304,-347.5 444,-347.5 444,-317.5 304,-317.5"/>
<text text-anchor="start" x="312" y="-335.5" font-family="Helvetica,sans-Serif" font-size="10.00">mom_remapping::remapping</text>
<text text-anchor="middle" x="374" y="-324.5" font-family="Helvetica,sans-Serif" font-size="10.00">_core_h</text>
</a>
</g>
</g>
<!-- Node4&#45;&gt;Node10 -->
<g id="edge12" class="edge"><title>Node4&#45;&gt;Node10</title>
<path fill="none" stroke="midnightblue" d="M209.322,-911.22C232.017,-830.975 337.462,-458.151 365.912,-357.563"/>
<polygon fill="midnightblue" stroke="midnightblue" points="369.353,-358.254 368.707,-347.679 362.617,-356.349 369.353,-358.254"/>
</g>
<!-- Node5&#45;&gt;Node1 -->
<g id="edge10" class="edge"><title>Node5&#45;&gt;Node1</title>
<path fill="none" stroke="midnightblue" d="M426.155,-125.752C443.237,-129.694 462.402,-133.955 480,-137.5 692.31,-180.269 787.585,-90.4354 960,-221.5 1015.32,-263.552 1038.93,-347.308 1047.62,-389.288"/>
<polygon fill="midnightblue" stroke="midnightblue" points="1044.22,-390.101 1049.57,-399.246 1051.09,-388.761 1044.22,-390.101"/>
</g>
<!-- Node6 -->
<g id="node7" class="node"><title>Node6</title>
<g id="a_node7"><a xlink:href="../../d5/de6/namespacemom__eos__linear.html#a73d8a625582247379092adf1aeeb55e0" target="_top" xlink:title="mom_eos_linear::calculate\l_density_derivs_linear">
<polygon fill="white" stroke="black" points="484,-0.5 484,-30.5 617,-30.5 617,-0.5 484,-0.5"/>
<text text-anchor="start" x="492" y="-18.5" font-family="Helvetica,sans-Serif" font-size="10.00">mom_eos_linear::calculate</text>
<text text-anchor="middle" x="550.5" y="-7.5" font-family="Helvetica,sans-Serif" font-size="10.00">_density_derivs_linear</text>
</a>
</g>
</g>
<!-- Node5&#45;&gt;Node6 -->
<g id="edge7" class="edge"><title>Node5&#45;&gt;Node6</title>
<path fill="none" stroke="midnightblue" d="M392.954,-98.4533C413.095,-82.1637 447.246,-56.2702 480,-39.5 483.48,-37.7183 487.122,-36.0195 490.837,-34.4091"/>
<polygon fill="midnightblue" stroke="midnightblue" points="492.241,-37.6162 500.173,-30.5918 489.592,-31.1369 492.241,-37.6162"/>
</g>
<!-- Node7 -->
<g id="node8" class="node"><title>Node7</title>
<g id="a_node8"><a xlink:href="../../dd/d6b/namespacemom__eos__unesco.html#af8666837abadea54c016bf59838f96cc" target="_top" xlink:title="mom_eos_unesco::calculate\l_density_derivs_unesco">
<polygon fill="white" stroke="black" points="480,-98.5 480,-128.5 621,-128.5 621,-98.5 480,-98.5"/>
<text text-anchor="start" x="488" y="-116.5" font-family="Helvetica,sans-Serif" font-size="10.00">mom_eos_unesco::calculate</text>
<text text-anchor="middle" x="550.5" y="-105.5" font-family="Helvetica,sans-Serif" font-size="10.00">_density_derivs_unesco</text>
</a>
</g>
</g>
<!-- Node5&#45;&gt;Node7 -->
<g id="edge8" class="edge"><title>Node5&#45;&gt;Node7</title>
<path fill="none" stroke="midnightblue" d="M426.412,-113.5C439.971,-113.5 454.929,-113.5 469.606,-113.5"/>
<polygon fill="midnightblue" stroke="midnightblue" points="469.702,-117 479.702,-113.5 469.702,-110 469.702,-117"/>
</g>
<!-- Node8 -->
<g id="node9" class="node"><title>Node8</title>
<g id="a_node9"><a xlink:href="../../de/d76/namespacemom__eos__wright.html#ad7748e85ddacb33ad90ec3a9017e6e72" target="_top" xlink:title="mom_eos_wright::calculate\l_density_derivs_wright">
<polygon fill="white" stroke="black" points="482.5,-49.5 482.5,-79.5 618.5,-79.5 618.5,-49.5 482.5,-49.5"/>
<text text-anchor="start" x="490.5" y="-67.5" font-family="Helvetica,sans-Serif" font-size="10.00">mom_eos_wright::calculate</text>
<text text-anchor="middle" x="550.5" y="-56.5" font-family="Helvetica,sans-Serif" font-size="10.00">_density_derivs_wright</text>
</a>
</g>
</g>
<!-- Node5&#45;&gt;Node8 -->
<g id="edge9" class="edge"><title>Node5&#45;&gt;Node8</title>
<path fill="none" stroke="midnightblue" d="M426.412,-99.0634C445.161,-93.7987 466.582,-87.7837 486.241,-82.2633"/>
<polygon fill="midnightblue" stroke="midnightblue" points="487.351,-85.587 496.033,-79.5137 485.459,-78.8476 487.351,-85.587"/>
</g>
<!-- Node10&#45;&gt;Node1 -->
<g id="edge55" class="edge"><title>Node10&#45;&gt;Node1</title>
<path fill="none" stroke="midnightblue" d="M390.658,-317.228C410.023,-299.222 444.764,-269.7 480,-253.5 608.171,-194.571 658.062,-180.61 795,-214.5 875.475,-234.417 895.87,-248.963 960,-301.5 991.895,-327.629 1020.47,-366.29 1037.02,-390.935"/>
<polygon fill="midnightblue" stroke="midnightblue" points="1034.13,-392.911 1042.56,-399.332 1039.98,-389.057 1034.13,-392.911"/>
</g>
<!-- Node11 -->
<g id="node12" class="node"><title>Node11</title>
<g id="a_node12"><a xlink:href="../../d6/d75/namespacemom__remapping.html#a07d7276310f329f56560a1290bcb8b0a" target="_top" xlink:title="Creates polynomial reconstructions of u0 on the source grid h0. ">
<polygon fill="white" stroke="black" points="493,-671.5 493,-701.5 608,-701.5 608,-671.5 493,-671.5"/>
<text text-anchor="start" x="501" y="-689.5" font-family="Helvetica,sans-Serif" font-size="10.00">mom_remapping::build</text>
<text text-anchor="middle" x="550.5" y="-678.5" font-family="Helvetica,sans-Serif" font-size="10.00">_reconstructions_1d</text>
</a>
</g>
</g>
<!-- Node10&#45;&gt;Node11 -->
<g id="edge13" class="edge"><title>Node10&#45;&gt;Node11</title>
<path fill="none" stroke="midnightblue" d="M382.498,-347.711C409.794,-403.085 504.011,-594.218 537.539,-662.235"/>
<polygon fill="midnightblue" stroke="midnightblue" points="534.469,-663.924 542.03,-671.346 540.748,-660.829 534.469,-663.924"/>
</g>
<!-- Node30 -->
<g id="node31" class="node"><title>Node30</title>
<g id="a_node31"><a xlink:href="../../d6/d75/namespacemom__remapping.html#a62666b08a892ba9e9ab5a4731a07b942" target="_top" xlink:title="Checks that edge values and reconstructions satisfy bounds. ">
<polygon fill="white" stroke="black" points="835,-399.5 835,-429.5 956,-429.5 956,-399.5 835,-399.5"/>
<text text-anchor="start" x="843" y="-417.5" font-family="Helvetica,sans-Serif" font-size="10.00">mom_remapping::check</text>
<text text-anchor="middle" x="895.5" y="-406.5" font-family="Helvetica,sans-Serif" font-size="10.00">_reconstructions_1d</text>
</a>
</g>
</g>
<!-- Node10&#45;&gt;Node30 -->
<g id="edge45" class="edge"><title>Node10&#45;&gt;Node30</title>
<path fill="none" stroke="midnightblue" d="M437.593,-347.539C451.516,-350.679 466.23,-353.84 480,-356.5 600.367,-379.749 742.111,-397.545 824.776,-406.978"/>
<polygon fill="midnightblue" stroke="midnightblue" points="824.475,-410.466 834.806,-408.115 825.264,-403.511 824.475,-410.466"/>
</g>
<!-- Node31 -->
<g id="node32" class="node"><title>Node31</title>
<g id="a_node32"><a xlink:href="../../d6/d75/namespacemom__remapping.html#aac27eb299cd36293b458a51b60ac771f" target="_top" xlink:title="Remaps column of n0 values u0 on grid h0 to grid h1 with n1 cells by calculating the n0+n1+1 sub&#45;inte...">
<polygon fill="white" stroke="black" points="489.5,-317.5 489.5,-347.5 611.5,-347.5 611.5,-317.5 489.5,-317.5"/>
<text text-anchor="start" x="497.5" y="-335.5" font-family="Helvetica,sans-Serif" font-size="10.00">mom_remapping::remap</text>
<text text-anchor="middle" x="550.5" y="-324.5" font-family="Helvetica,sans-Serif" font-size="10.00">_via_sub_cells</text>
</a>
</g>
</g>
<!-- Node10&#45;&gt;Node31 -->
<g id="edge47" class="edge"><title>Node10&#45;&gt;Node31</title>
<path fill="none" stroke="midnightblue" d="M444.218,-332.5C455.772,-332.5 467.768,-332.5 479.346,-332.5"/>
<polygon fill="midnightblue" stroke="midnightblue" points="479.391,-336 489.391,-332.5 479.391,-329 479.391,-336"/>
</g>
<!-- Node33 -->
<g id="node34" class="node"><title>Node33</title>
<g id="a_node34"><a xlink:href="../../d6/d75/namespacemom__remapping.html#afe0efe65edb680f96fc5efe3d29a9217" target="_top" xlink:title="Measure totals and bounds on source grid. ">
<polygon fill="white" stroke="black" points="660,-273.5 660,-303.5 792,-303.5 792,-273.5 660,-273.5"/>
<text text-anchor="start" x="668" y="-291.5" font-family="Helvetica,sans-Serif" font-size="10.00">mom_remapping::measure</text>
<text text-anchor="middle" x="726" y="-280.5" font-family="Helvetica,sans-Serif" font-size="10.00">_input_bounds</text>
</a>
</g>
</g>
<!-- Node10&#45;&gt;Node33 -->
<g id="edge53" class="edge"><title>Node10&#45;&gt;Node33</title>
<path fill="none" stroke="midnightblue" d="M431.077,-317.437C446.807,-313.68 463.987,-310.011 480,-307.5 536.563,-298.629 601.153,-293.837 649.809,-291.286"/>
<polygon fill="midnightblue" stroke="midnightblue" points="650.13,-294.774 659.941,-290.775 649.778,-287.783 650.13,-294.774"/>
</g>
<!-- Node34 -->
<g id="node35" class="node"><title>Node34</title>
<g id="a_node35"><a xlink:href="../../d6/d75/namespacemom__remapping.html#a5453aeefe69feaff159b67f3a4bd2366" target="_top" xlink:title="Measure totals and bounds on destination grid. ">
<polygon fill="white" stroke="black" points="660,-224.5 660,-254.5 792,-254.5 792,-224.5 660,-224.5"/>
<text text-anchor="start" x="668" y="-242.5" font-family="Helvetica,sans-Serif" font-size="10.00">mom_remapping::measure</text>
<text text-anchor="middle" x="726" y="-231.5" font-family="Helvetica,sans-Serif" font-size="10.00">_output_bounds</text>
</a>
</g>
</g>
<!-- Node10&#45;&gt;Node34 -->
<g id="edge54" class="edge"><title>Node10&#45;&gt;Node34</title>
<path fill="none" stroke="midnightblue" d="M407.529,-317.329C427.982,-308.256 455.121,-297.06 480,-289.5 536.054,-272.467 601.094,-259.497 650.069,-251.04"/>
<polygon fill="midnightblue" stroke="midnightblue" points="650.683,-254.486 659.954,-249.357 649.508,-247.585 650.683,-254.486"/>
</g>
<!-- Node11&#45;&gt;Node1 -->
<g id="edge44" class="edge"><title>Node11&#45;&gt;Node1</title>
<path fill="none" stroke="midnightblue" d="M553.576,-671.426C560.118,-630.314 584.372,-515.953 657,-465.5 712.519,-426.933 893.398,-450.072 960,-438.5 969.88,-436.783 980.251,-434.53 990.325,-432.091"/>
<polygon fill="midnightblue" stroke="midnightblue" points="991.418,-435.426 1000.27,-429.604 989.72,-428.635 991.418,-435.426"/>
</g>
<!-- Node12 -->
<g id="node13" class="node"><title>Node12</title>
<g id="a_node13"><a xlink:href="../../d5/d6c/namespacepcm__functions.html#a273c33619766b17e1bea2f9bbc1d5e1b" target="_top" xlink:title="pcm_functions::pcm\l_reconstruction">
<polygon fill="white" stroke="black" points="673.5,-622.5 673.5,-652.5 778.5,-652.5 778.5,-622.5 673.5,-622.5"/>
<text text-anchor="start" x="681.5" y="-640.5" font-family="Helvetica,sans-Serif" font-size="10.00">pcm_functions::pcm</text>
<text text-anchor="middle" x="726" y="-629.5" font-family="Helvetica,sans-Serif" font-size="10.00">_reconstruction</text>
</a>
</g>
</g>
<!-- Node11&#45;&gt;Node12 -->
<g id="edge14" class="edge"><title>Node11&#45;&gt;Node12</title>
<path fill="none" stroke="midnightblue" d="M604.971,-671.399C623.54,-666.154 644.506,-660.233 663.66,-654.824"/>
<polygon fill="midnightblue" stroke="midnightblue" points="664.816,-658.134 673.488,-652.048 662.913,-651.398 664.816,-658.134"/>
</g>
<!-- Node13 -->
<g id="node14" class="node"><title>Node13</title>
<g id="a_node14"><a xlink:href="../../d5/dc0/namespaceplm__functions.html#abf6acfcb1bef51f0c1f8682de53782c4" target="_top" xlink:title="plm_functions::plm\l_reconstruction">
<polygon fill="white" stroke="black" points="676.5,-573.5 676.5,-603.5 775.5,-603.5 775.5,-573.5 676.5,-573.5"/>
<text text-anchor="start" x="684.5" y="-591.5" font-family="Helvetica,sans-Serif" font-size="10.00">plm_functions::plm</text>
<text text-anchor="middle" x="726" y="-580.5" font-family="Helvetica,sans-Serif" font-size="10.00">_reconstruction</text>
</a>
</g>
</g>
<!-- Node11&#45;&gt;Node13 -->
<g id="edge15" class="edge"><title>Node11&#45;&gt;Node13</title>
<path fill="none" stroke="midnightblue" d="M569.944,-671.205C590.257,-654.942 624.379,-629.296 657,-612.5 660.47,-610.714 664.102,-609.006 667.807,-607.385"/>
<polygon fill="midnightblue" stroke="midnightblue" points="669.209,-610.593 677.113,-603.539 666.535,-604.124 669.209,-610.593"/>
</g>
<!-- Node14 -->
<g id="node15" class="node"><title>Node14</title>
<g id="a_node15"><a xlink:href="../../d5/dc0/namespaceplm__functions.html#a66dd52e70d72fb5830f9c4fb16efb2e8" target="_top" xlink:title="plm_functions::plm\l_boundary_extrapolation">
<polygon fill="white" stroke="black" points="665,-475.5 665,-505.5 787,-505.5 787,-475.5 665,-475.5"/>
<text text-anchor="start" x="673" y="-493.5" font-family="Helvetica,sans-Serif" font-size="10.00">plm_functions::plm</text>
<text text-anchor="middle" x="726" y="-482.5" font-family="Helvetica,sans-Serif" font-size="10.00">_boundary_extrapolation</text>
</a>
</g>
</g>
<!-- Node11&#45;&gt;Node14 -->
<g id="edge16" class="edge"><title>Node11&#45;&gt;Node14</title>
<path fill="none" stroke="midnightblue" d="M556.707,-671.485C568.942,-638.352 602.656,-558.441 657,-514.5 658.57,-513.231 660.212,-512.026 661.91,-510.883"/>
<polygon fill="midnightblue" stroke="midnightblue" points="663.949,-513.745 670.805,-505.667 660.408,-507.706 663.949,-513.745"/>
</g>
<!-- Node15 -->
<g id="node16" class="node"><title>Node15</title>
<g id="a_node16"><a xlink:href="../../d1/de6/namespaceppm__functions.html#a97e2144c7499aacd90858788f1312432" target="_top" xlink:title="Builds quadratic polynomials coefficients from cell mean and edge values. ">
<polygon fill="white" stroke="black" points="673.5,-1004.5 673.5,-1034.5 778.5,-1034.5 778.5,-1004.5 673.5,-1004.5"/>
<text text-anchor="start" x="681.5" y="-1022.5" font-family="Helvetica,sans-Serif" font-size="10.00">ppm_functions::ppm</text>
<text text-anchor="middle" x="726" y="-1011.5" font-family="Helvetica,sans-Serif" font-size="10.00">_reconstruction</text>
</a>
</g>
</g>
<!-- Node11&#45;&gt;Node15 -->
<g id="edge17" class="edge"><title>Node11&#45;&gt;Node15</title>
<path fill="none" stroke="midnightblue" d="M552.196,-701.76C555.276,-751.283 571.664,-909.282 657,-995.5 659.334,-997.858 661.913,-999.985 664.662,-1001.9"/>
<polygon fill="midnightblue" stroke="midnightblue" points="662.956,-1004.96 673.342,-1007.06 666.53,-998.942 662.956,-1004.96"/>
</g>
<!-- Node19 -->
<g id="node20" class="node"><title>Node19</title>
<g id="a_node20"><a xlink:href="../../d1/de6/namespaceppm__functions.html#aaf88d77ece3a30843c730fd2d57c517f" target="_top" xlink:title="ppm_functions::ppm\l_boundary_extrapolation">
<polygon fill="white" stroke="black" points="665,-867.5 665,-897.5 787,-897.5 787,-867.5 665,-867.5"/>
<text text-anchor="start" x="673" y="-885.5" font-family="Helvetica,sans-Serif" font-size="10.00">ppm_functions::ppm</text>
<text text-anchor="middle" x="726" y="-874.5" font-family="Helvetica,sans-Serif" font-size="10.00">_boundary_extrapolation</text>
</a>
</g>
</g>
<!-- Node11&#45;&gt;Node19 -->
<g id="edge21" class="edge"><title>Node11&#45;&gt;Node19</title>
<path fill="none" stroke="midnightblue" d="M556.707,-701.515C568.942,-734.648 602.656,-814.559 657,-858.5 658.57,-859.769 660.212,-860.974 661.91,-862.117"/>
<polygon fill="midnightblue" stroke="midnightblue" points="660.408,-865.294 670.805,-867.333 663.949,-859.255 660.408,-865.294"/>
</g>
<!-- Node20 -->
<g id="node21" class="node"><title>Node20</title>
<g id="a_node21"><a xlink:href="../../df/d50/namespaceregrid__edge__values.html#a2c2460b31b6de501eed3cb7db07a4be5" target="_top" xlink:title="regrid_edge_values\l::edge_values_implicit_h4">
<polygon fill="white" stroke="black" points="661.5,-671.5 661.5,-701.5 790.5,-701.5 790.5,-671.5 661.5,-671.5"/>
<text text-anchor="start" x="669.5" y="-689.5" font-family="Helvetica,sans-Serif" font-size="10.00">regrid_edge_values</text>
<text text-anchor="middle" x="726" y="-678.5" font-family="Helvetica,sans-Serif" font-size="10.00">::edge_values_implicit_h4</text>
</a>
</g>
</g>
<!-- Node11&#45;&gt;Node20 -->
<g id="edge22" class="edge"><title>Node11&#45;&gt;Node20</title>
<path fill="none" stroke="midnightblue" d="M608.31,-686.5C621.989,-686.5 636.799,-686.5 651.13,-686.5"/>
<polygon fill="midnightblue" stroke="midnightblue" points="651.457,-690 661.457,-686.5 651.457,-683 651.457,-690"/>
</g>
<!-- Node24 -->
<g id="node25" class="node"><title>Node24</title>
<g id="a_node25"><a xlink:href="../../da/d9a/namespaceregrid__edge__slopes.html#a378dcb603968664e58d65e8ed892ec69" target="_top" xlink:title="regrid_edge_slopes\l::edge_slopes_implicit_h3">
<polygon fill="white" stroke="black" points="661.5,-524.5 661.5,-554.5 790.5,-554.5 790.5,-524.5 661.5,-524.5"/>
<text text-anchor="start" x="669.5" y="-542.5" font-family="Helvetica,sans-Serif" font-size="10.00">regrid_edge_slopes</text>
<text text-anchor="middle" x="726" y="-531.5" font-family="Helvetica,sans-Serif" font-size="10.00">::edge_slopes_implicit_h3</text>
</a>
</g>
</g>
<!-- Node11&#45;&gt;Node24 -->
<g id="edge27" class="edge"><title>Node11&#45;&gt;Node24</title>
<path fill="none" stroke="midnightblue" d="M560.64,-671.402C576.922,-645.713 613.365,-593.389 657,-563.5 659.246,-561.961 661.602,-560.511 664.032,-559.145"/>
<polygon fill="midnightblue" stroke="midnightblue" points="665.751,-562.197 673.094,-554.56 662.591,-555.951 665.751,-562.197"/>
</g>
<!-- Node25 -->
<g id="node26" class="node"><title>Node25</title>
<g id="a_node26"><a xlink:href="../../dc/d94/namespacepqm__functions.html#ada7e1a8d9d70b5b78b5e2dfddb5ffa43" target="_top" xlink:title="pqm_functions::pqm\l_reconstruction">
<polygon fill="white" stroke="black" points="673.5,-955.5 673.5,-985.5 778.5,-985.5 778.5,-955.5 673.5,-955.5"/>
<text text-anchor="start" x="681.5" y="-973.5" font-family="Helvetica,sans-Serif" font-size="10.00">pqm_functions::pqm</text>
<text text-anchor="middle" x="726" y="-962.5" font-family="Helvetica,sans-Serif" font-size="10.00">_reconstruction</text>
</a>
</g>
</g>
<!-- Node11&#45;&gt;Node25 -->
<g id="edge31" class="edge"><title>Node11&#45;&gt;Node25</title>
<path fill="none" stroke="midnightblue" d="M556.427,-701.505C569.121,-738.785 605.59,-837.647 657,-907.5 668.297,-922.849 683.693,-937.479 696.979,-948.77"/>
<polygon fill="midnightblue" stroke="midnightblue" points="694.988,-951.666 704.923,-955.346 699.451,-946.273 694.988,-951.666"/>
</g>
<!-- Node27 -->
<g id="node28" class="node"><title>Node27</title>
<g id="a_node28"><a xlink:href="../../dc/d94/namespacepqm__functions.html#ae2c3bd1b82cddbe1bbb0e93e83d93e48" target="_top" xlink:title="pqm_functions::pqm\l_boundary_extrapolation_v1">
<polygon fill="white" stroke="black" points="657,-818.5 657,-848.5 795,-848.5 795,-818.5 657,-818.5"/>
<text text-anchor="start" x="665" y="-836.5" font-family="Helvetica,sans-Serif" font-size="10.00">pqm_functions::pqm</text>
<text text-anchor="middle" x="726" y="-825.5" font-family="Helvetica,sans-Serif" font-size="10.00">_boundary_extrapolation_v1</text>
</a>
</g>
</g>
<!-- Node11&#45;&gt;Node27 -->
<g id="edge35" class="edge"><title>Node11&#45;&gt;Node27</title>
<path fill="none" stroke="midnightblue" d="M560.975,-701.82C577.491,-727.347 613.933,-778.716 657,-808.5 659.741,-810.396 662.644,-812.167 665.645,-813.819"/>
<polygon fill="midnightblue" stroke="midnightblue" points="664.369,-817.094 674.88,-818.424 667.492,-810.83 664.369,-817.094"/>
</g>
<!-- Node28 -->
<g id="node29" class="node"><title>Node28</title>
<g id="a_node29"><a xlink:href="../../df/d50/namespaceregrid__edge__values.html#a6c14843c556353d86f2efb4c7c74c9f5" target="_top" xlink:title="regrid_edge_values\l::edge_values_implicit_h6">
<polygon fill="white" stroke="black" points="661.5,-769.5 661.5,-799.5 790.5,-799.5 790.5,-769.5 661.5,-769.5"/>
<text text-anchor="start" x="669.5" y="-787.5" font-family="Helvetica,sans-Serif" font-size="10.00">regrid_edge_values</text>
<text text-anchor="middle" x="726" y="-776.5" font-family="Helvetica,sans-Serif" font-size="10.00">::edge_values_implicit_h6</text>
</a>
</g>
</g>
<!-- Node11&#45;&gt;Node28 -->
<g id="edge36" class="edge"><title>Node11&#45;&gt;Node28</title>
<path fill="none" stroke="midnightblue" d="M570.396,-701.78C590.817,-717.752 624.777,-742.774 657,-759.5 661.001,-761.577 665.216,-763.563 669.504,-765.442"/>
<polygon fill="midnightblue" stroke="midnightblue" points="668.381,-768.765 678.958,-769.379 671.072,-762.303 668.381,-768.765"/>
</g>
<!-- Node29 -->
<g id="node30" class="node"><title>Node29</title>
<g id="a_node30"><a xlink:href="../../da/d9a/namespaceregrid__edge__slopes.html#a32fc906bf14cfb859703b4a1a7c46a9c" target="_top" xlink:title="regrid_edge_slopes\l::edge_slopes_implicit_h5">
<polygon fill="white" stroke="black" points="661.5,-720.5 661.5,-750.5 790.5,-750.5 790.5,-720.5 661.5,-720.5"/>
<text text-anchor="start" x="669.5" y="-738.5" font-family="Helvetica,sans-Serif" font-size="10.00">regrid_edge_slopes</text>
<text text-anchor="middle" x="726" y="-727.5" font-family="Helvetica,sans-Serif" font-size="10.00">::edge_slopes_implicit_h5</text>
</a>
</g>
</g>
<!-- Node11&#45;&gt;Node29 -->
<g id="edge40" class="edge"><title>Node11&#45;&gt;Node29</title>
<path fill="none" stroke="midnightblue" d="M604.971,-701.601C623.031,-706.702 643.359,-712.443 662.081,-717.73"/>
<polygon fill="midnightblue" stroke="midnightblue" points="661.13,-721.099 671.705,-720.448 663.033,-714.362 661.13,-721.099"/>
</g>
<!-- Node16 -->
<g id="node17" class="node"><title>Node16</title>
<g id="a_node17"><a xlink:href="../../d1/de6/namespaceppm__functions.html#a89920c90b84f0b241c5a6d65fe2870b9" target="_top" xlink:title="Adjusts edge values using the standard PPM limiter (Colella &amp; Woodward, JCP 1984) after first checkin...">
<polygon fill="white" stroke="black" points="843,-1141.5 843,-1171.5 948,-1171.5 948,-1141.5 843,-1141.5"/>
<text text-anchor="start" x="851" y="-1159.5" font-family="Helvetica,sans-Serif" font-size="10.00">ppm_functions::ppm</text>
<text text-anchor="middle" x="895.5" y="-1148.5" font-family="Helvetica,sans-Serif" font-size="10.00">_limiter_standard</text>
</a>
</g>
</g>
<!-- Node15&#45;&gt;Node16 -->
<g id="edge18" class="edge"><title>Node15&#45;&gt;Node16</title>
<path fill="none" stroke="midnightblue" d="M737.405,-1034.77C754.407,-1058.68 790.348,-1105.04 831,-1132.5 833.257,-1134.02 835.624,-1135.47 838.062,-1136.84"/>
<polygon fill="midnightblue" stroke="midnightblue" points="836.638,-1140.04 847.138,-1141.45 839.81,-1133.8 836.638,-1140.04"/>
</g>
<!-- Node17 -->
<g id="node18" class="node"><title>Node17</title>
<g id="a_node18"><a xlink:href="../../df/d50/namespaceregrid__edge__values.html#aa204fe78ee22cae62f2b7f1bc76151a9" target="_top" xlink:title="regrid_edge_values\l::bound_edge_values">
<polygon fill="white" stroke="black" points="998.5,-1144.5 998.5,-1174.5 1107.5,-1174.5 1107.5,-1144.5 998.5,-1144.5"/>
<text text-anchor="start" x="1006.5" y="-1162.5" font-family="Helvetica,sans-Serif" font-size="10.00">regrid_edge_values</text>
<text text-anchor="middle" x="1053" y="-1151.5" font-family="Helvetica,sans-Serif" font-size="10.00">::bound_edge_values</text>
</a>
</g>
</g>
<!-- Node16&#45;&gt;Node17 -->
<g id="edge19" class="edge"><title>Node16&#45;&gt;Node17</title>
<path fill="none" stroke="midnightblue" d="M948.279,-1157.5C961.093,-1157.75 974.969,-1158.01 988.279,-1158.27"/>
<polygon fill="midnightblue" stroke="midnightblue" points="988.253,-1161.77 998.319,-1158.46 988.388,-1154.77 988.253,-1161.77"/>
</g>
<!-- Node18 -->
<g id="node19" class="node"><title>Node18</title>
<g id="a_node19"><a xlink:href="../../df/d50/namespaceregrid__edge__values.html#acbdacbbf7212e538bb52a9729fc949a7" target="_top" xlink:title="regrid_edge_values\l::check_discontinuous\l_edge_values">
<polygon fill="white" stroke="black" points="996,-1084 996,-1125 1110,-1125 1110,-1084 996,-1084"/>
<text text-anchor="start" x="1004" y="-1113" font-family="Helvetica,sans-Serif" font-size="10.00">regrid_edge_values</text>
<text text-anchor="start" x="1004" y="-1102" font-family="Helvetica,sans-Serif" font-size="10.00">::check_discontinuous</text>
<text text-anchor="middle" x="1053" y="-1091" font-family="Helvetica,sans-Serif" font-size="10.00">_edge_values</text>
</a>
</g>
</g>
<!-- Node16&#45;&gt;Node18 -->
<g id="edge20" class="edge"><title>Node16&#45;&gt;Node18</title>
<path fill="none" stroke="midnightblue" d="M941.477,-1141.46C955.384,-1136.81 971.002,-1131.59 986.021,-1126.56"/>
<polygon fill="midnightblue" stroke="midnightblue" points="987.406,-1129.79 995.78,-1123.3 985.186,-1123.15 987.406,-1129.79"/>
</g>
<!-- Node21 -->
<g id="node22" class="node"><title>Node21</title>
<g id="a_node22"><a xlink:href="../../de/db3/namespaceregrid__solvers.html#a8130a338b59de62b00f68da4204568ad" target="_top" xlink:title="regrid_solvers::solve\l_linear_system">
<polygon fill="white" stroke="black" points="842,-720.5 842,-750.5 949,-750.5 949,-720.5 842,-720.5"/>
<text text-anchor="start" x="850" y="-738.5" font-family="Helvetica,sans-Serif" font-size="10.00">regrid_solvers::solve</text>
<text text-anchor="middle" x="895.5" y="-727.5" font-family="Helvetica,sans-Serif" font-size="10.00">_linear_system</text>
</a>
</g>
</g>
<!-- Node20&#45;&gt;Node21 -->
<g id="edge23" class="edge"><title>Node20&#45;&gt;Node21</title>
<path fill="none" stroke="midnightblue" d="M778.622,-701.601C795.898,-706.655 815.322,-712.338 833.259,-717.585"/>
<polygon fill="midnightblue" stroke="midnightblue" points="832.468,-721 843.048,-720.448 834.433,-714.281 832.468,-721"/>
</g>
<!-- Node22 -->
<g id="node23" class="node"><title>Node22</title>
<g id="a_node23"><a xlink:href="../../d8/d08/namespacepolynomial__functions.html#aed77465c5ca9937dab06fdb5f94eba39" target="_top" xlink:title="polynomial_functions\l::evaluation_polynomial">
<polygon fill="white" stroke="black" points="836,-622.5 836,-652.5 955,-652.5 955,-622.5 836,-622.5"/>
<text text-anchor="start" x="844" y="-640.5" font-family="Helvetica,sans-Serif" font-size="10.00">polynomial_functions</text>
<text text-anchor="middle" x="895.5" y="-629.5" font-family="Helvetica,sans-Serif" font-size="10.00">::evaluation_polynomial</text>
</a>
</g>
</g>
<!-- Node20&#45;&gt;Node22 -->
<g id="edge25" class="edge"><title>Node20&#45;&gt;Node22</title>
<path fill="none" stroke="midnightblue" d="M778.622,-671.399C795.898,-666.345 815.322,-660.662 833.259,-655.415"/>
<polygon fill="midnightblue" stroke="midnightblue" points="834.433,-658.719 843.048,-652.552 832.468,-652 834.433,-658.719"/>
</g>
<!-- Node23 -->
<g id="node24" class="node"><title>Node23</title>
<g id="a_node24"><a xlink:href="../../de/db3/namespaceregrid__solvers.html#a0d5c3cff8f31429b0a2c6d267e8b345d" target="_top" xlink:title="regrid_solvers::solve\l_tridiagonal_system">
<polygon fill="white" stroke="black" points="842,-671.5 842,-701.5 949,-701.5 949,-671.5 842,-671.5"/>
<text text-anchor="start" x="850" y="-689.5" font-family="Helvetica,sans-Serif" font-size="10.00">regrid_solvers::solve</text>
<text text-anchor="middle" x="895.5" y="-678.5" font-family="Helvetica,sans-Serif" font-size="10.00">_tridiagonal_system</text>
</a>
</g>
</g>
<!-- Node20&#45;&gt;Node23 -->
<g id="edge26" class="edge"><title>Node20&#45;&gt;Node23</title>
<path fill="none" stroke="midnightblue" d="M790.802,-686.5C804.211,-686.5 818.344,-686.5 831.714,-686.5"/>
<polygon fill="midnightblue" stroke="midnightblue" points="831.766,-690 841.766,-686.5 831.766,-683 831.766,-690"/>
</g>
<!-- Node21&#45;&gt;Node1 -->
<g id="edge24" class="edge"><title>Node21&#45;&gt;Node1</title>
<path fill="none" stroke="midnightblue" d="M947.718,-720.32C952.248,-717.565 956.452,-714.32 960,-710.5 1033.13,-631.766 1048.15,-495.762 1051.22,-439.738"/>
<polygon fill="midnightblue" stroke="midnightblue" points="1054.72,-439.791 1051.69,-429.64 1047.73,-439.467 1054.72,-439.791"/>
</g>
<!-- Node24&#45;&gt;Node21 -->
<g id="edge28" class="edge"><title>Node24&#45;&gt;Node21</title>
<path fill="none" stroke="midnightblue" d="M784.323,-554.602C788.26,-557.124 791.891,-560.066 795,-563.5 840.148,-613.361 786.751,-659.84 831,-710.5 832.152,-711.819 833.383,-713.069 834.679,-714.254"/>
<polygon fill="midnightblue" stroke="midnightblue" points="832.647,-717.105 842.733,-720.348 836.871,-711.523 832.647,-717.105"/>
</g>
<!-- Node24&#45;&gt;Node22 -->
<g id="edge29" class="edge"><title>Node24&#45;&gt;Node22</title>
<path fill="none" stroke="midnightblue" d="M775.331,-554.523C782.078,-557.202 788.812,-560.204 795,-563.5 822.433,-578.111 850.57,-599.778 869.892,-615.895"/>
<polygon fill="midnightblue" stroke="midnightblue" points="867.712,-618.635 877.605,-622.426 872.235,-613.293 867.712,-618.635"/>
</g>
<!-- Node24&#45;&gt;Node23 -->
<g id="edge30" class="edge"><title>Node24&#45;&gt;Node23</title>
<path fill="none" stroke="midnightblue" d="M783.257,-554.604C787.532,-557.127 791.526,-560.07 795,-563.5 828.019,-596.101 798.569,-628.314 831,-661.5 832.397,-662.93 833.886,-664.28 835.449,-665.554"/>
<polygon fill="midnightblue" stroke="midnightblue" points="833.574,-668.513 843.791,-671.317 837.552,-662.754 833.574,-668.513"/>
</g>
<!-- Node26 -->
<g id="node27" class="node"><title>Node26</title>
<g id="a_node27"><a xlink:href="../../dc/d94/namespacepqm__functions.html#a0ce0d64922453de1312adec7b8746544" target="_top" xlink:title="pqm_functions::pqm\l_limiter">
<polygon fill="white" stroke="black" points="843,-1092.5 843,-1122.5 948,-1122.5 948,-1092.5 843,-1092.5"/>
<text text-anchor="start" x="851" y="-1110.5" font-family="Helvetica,sans-Serif" font-size="10.00">pqm_functions::pqm</text>
<text text-anchor="middle" x="895.5" y="-1099.5" font-family="Helvetica,sans-Serif" font-size="10.00">_limiter</text>
</a>
</g>
</g>
<!-- Node25&#45;&gt;Node26 -->
<g id="edge32" class="edge"><title>Node25&#45;&gt;Node26</title>
<path fill="none" stroke="midnightblue" d="M777.072,-985.645C783.35,-988.473 789.492,-991.745 795,-995.5 830.217,-1019.51 861.119,-1058.67 878.8,-1083.75"/>
<polygon fill="midnightblue" stroke="midnightblue" points="876.138,-1086.06 884.699,-1092.3 881.9,-1082.08 876.138,-1086.06"/>
</g>
<!-- Node26&#45;&gt;Node17 -->
<g id="edge33" class="edge"><title>Node26&#45;&gt;Node17</title>
<path fill="none" stroke="midnightblue" d="M941.477,-1122.54C958.965,-1128.39 979.159,-1135.14 997.464,-1141.26"/>
<polygon fill="midnightblue" stroke="midnightblue" points="996.53,-1144.64 1007.12,-1144.49 998.75,-1138 996.53,-1144.64"/>
</g>
<!-- Node26&#45;&gt;Node18 -->
<g id="edge34" class="edge"><title>Node26&#45;&gt;Node18</title>
<path fill="none" stroke="midnightblue" d="M948.279,-1106.5C960.22,-1106.27 973.085,-1106.02 985.553,-1105.78"/>
<polygon fill="midnightblue" stroke="midnightblue" points="985.973,-1109.27 995.904,-1105.58 985.838,-1102.28 985.973,-1109.27"/>
</g>
<!-- Node28&#45;&gt;Node21 -->
<g id="edge37" class="edge"><title>Node28&#45;&gt;Node21</title>
<path fill="none" stroke="midnightblue" d="M778.622,-769.399C795.898,-764.345 815.322,-758.662 833.259,-753.415"/>
<polygon fill="midnightblue" stroke="midnightblue" points="834.433,-756.719 843.048,-750.552 832.468,-750 834.433,-756.719"/>
</g>
<!-- Node28&#45;&gt;Node22 -->
<g id="edge38" class="edge"><title>Node28&#45;&gt;Node22</title>
<path fill="none" stroke="midnightblue" d="M781.947,-769.323C786.718,-766.57 791.176,-763.325 795,-759.5 827.806,-726.685 798.342,-694.463 831,-661.5 832.063,-660.427 833.178,-659.402 834.338,-658.422"/>
<polygon fill="midnightblue" stroke="midnightblue" points="836.431,-661.228 842.561,-652.587 832.38,-655.52 836.431,-661.228"/>
</g>
<!-- Node28&#45;&gt;Node23 -->
<g id="edge39" class="edge"><title>Node28&#45;&gt;Node23</title>
<path fill="none" stroke="midnightblue" d="M778.116,-769.498C784.09,-766.667 789.873,-763.355 795,-759.5 816.599,-743.259 809.475,-726.838 831,-710.5 832.831,-709.111 834.751,-707.794 836.736,-706.546"/>
<polygon fill="midnightblue" stroke="midnightblue" points="838.747,-709.432 845.784,-701.512 835.344,-703.315 838.747,-709.432"/>
</g>
<!-- Node29&#45;&gt;Node21 -->
<g id="edge41" class="edge"><title>Node29&#45;&gt;Node21</title>
<path fill="none" stroke="midnightblue" d="M790.802,-735.5C804.211,-735.5 818.344,-735.5 831.714,-735.5"/>
<polygon fill="midnightblue" stroke="midnightblue" points="831.766,-739 841.766,-735.5 831.766,-732 831.766,-739"/>
</g>
<!-- Node29&#45;&gt;Node22 -->
<g id="edge42" class="edge"><title>Node29&#45;&gt;Node22</title>
<path fill="none" stroke="midnightblue" d="M778.116,-720.498C784.09,-717.667 789.873,-714.355 795,-710.5 816.599,-694.259 809.475,-677.838 831,-661.5 832.831,-660.111 834.751,-658.794 836.736,-657.546"/>
<polygon fill="midnightblue" stroke="midnightblue" points="838.747,-660.432 845.784,-652.512 835.344,-654.315 838.747,-660.432"/>
</g>
<!-- Node29&#45;&gt;Node23 -->
<g id="edge43" class="edge"><title>Node29&#45;&gt;Node23</title>
<path fill="none" stroke="midnightblue" d="M778.622,-720.399C795.898,-715.345 815.322,-709.662 833.259,-704.415"/>
<polygon fill="midnightblue" stroke="midnightblue" points="834.433,-707.719 843.048,-701.552 832.468,-701 834.433,-707.719"/>
</g>
<!-- Node30&#45;&gt;Node1 -->
<g id="edge46" class="edge"><title>Node30&#45;&gt;Node1</title>
<path fill="none" stroke="midnightblue" d="M956.176,-414.5C967.192,-414.5 978.721,-414.5 989.81,-414.5"/>
<polygon fill="midnightblue" stroke="midnightblue" points="989.842,-418 999.842,-414.5 989.842,-411 989.842,-418"/>
</g>
<!-- Node31&#45;&gt;Node1 -->
<g id="edge50" class="edge"><title>Node31&#45;&gt;Node1</title>
<path fill="none" stroke="midnightblue" d="M611.781,-338.494C691.837,-347.005 837.41,-364.396 960,-389.5 970.199,-391.589 980.94,-394.16 991.341,-396.851"/>
<polygon fill="midnightblue" stroke="midnightblue" points="990.617,-400.28 1001.18,-399.456 992.409,-393.513 990.617,-400.28"/>
</g>
<!-- Node32 -->
<g id="node33" class="node"><title>Node32</title>
<g id="a_node33"><a xlink:href="../../d6/d75/namespacemom__remapping.html#ac97371127053406c84be732a19eb6f9d" target="_top" xlink:title="Returns the average value of a reconstruction within a single source cell, i0, between the non&#45;dimens...">
<polygon fill="white" stroke="black" points="831,-311.5 831,-341.5 960,-341.5 960,-311.5 831,-311.5"/>
<text text-anchor="start" x="839" y="-329.5" font-family="Helvetica,sans-Serif" font-size="10.00">mom_remapping::average</text>
<text text-anchor="middle" x="895.5" y="-318.5" font-family="Helvetica,sans-Serif" font-size="10.00">_value_ppoly</text>
</a>
</g>
</g>
<!-- Node31&#45;&gt;Node32 -->
<g id="edge48" class="edge"><title>Node31&#45;&gt;Node32</title>
<path fill="none" stroke="midnightblue" d="M611.639,-331.448C669.878,-330.429 758.304,-328.882 820.759,-327.79"/>
<polygon fill="midnightblue" stroke="midnightblue" points="821.001,-331.286 830.939,-327.612 820.879,-324.287 821.001,-331.286"/>
</g>
<!-- Node31&#45;&gt;Node33 -->
<g id="edge51" class="edge"><title>Node31&#45;&gt;Node33</title>
<path fill="none" stroke="midnightblue" d="M610.724,-317.481C625.299,-313.784 641.031,-309.795 656.023,-305.993"/>
<polygon fill="midnightblue" stroke="midnightblue" points="656.916,-309.377 665.749,-303.526 655.195,-302.592 656.916,-309.377"/>
</g>
<!-- Node31&#45;&gt;Node34 -->
<g id="edge52" class="edge"><title>Node31&#45;&gt;Node34</title>
<path fill="none" stroke="midnightblue" d="M571.254,-317.499C591.83,-302.383 625.415,-279.119 657,-263.5 660.56,-261.74 664.281,-260.047 668.069,-258.433"/>
<polygon fill="midnightblue" stroke="midnightblue" points="669.615,-261.583 677.571,-254.586 666.988,-255.095 669.615,-261.583"/>
</g>
<!-- Node32&#45;&gt;Node1 -->
<g id="edge49" class="edge"><title>Node32&#45;&gt;Node1</title>
<path fill="none" stroke="midnightblue" d="M930.496,-341.633C940.151,-346.18 950.594,-351.338 960,-356.5 980.861,-367.949 1003.48,-382.182 1021.07,-393.684"/>
<polygon fill="midnightblue" stroke="midnightblue" points="1019.5,-396.84 1029.77,-399.42 1023.35,-390.995 1019.5,-396.84"/>
</g>
</g>
</svg>
