<?xml version="1.0" encoding="UTF-8" standalone="no"?>
<!DOCTYPE svg PUBLIC "-//W3C//DTD SVG 1.1//EN"
 "http://www.w3.org/Graphics/SVG/1.1/DTD/svg11.dtd">
<!-- Generated by graphviz version 2.38.0 (20140413.2041)
 -->
<!-- Title: src Pages: 1 -->
<!--zoomable 148 -->
<svg id="main" version="1.1" xmlns="http://www.w3.org/2000/svg" xmlns:xlink="http://www.w3.org/1999/xlink" xml:space="preserve" onload="init(evt)">
<style type="text/css"><![CDATA[
.edge:hover path { stroke: red; }
.edge:hover polygon { stroke: red; fill: red; }
]]></style>
<script type="text/javascript"><![CDATA[
var edges = document.getElementsByTagName('g');
if (edges && edges.length) {
  for (var i=0;i<edges.length;i++) {
    if (edges[i].id.substr(0,4)=='edge') {
      edges[i].setAttribute('class','edge');
    }
  }
}
]]></script>
        <defs>
                <circle id="rim" cx="0" cy="0" r="7"/>
                <circle id="rim2" cx="0" cy="0" r="3.5"/>
                <g id="zoomPlus">
                        <use xlink:href="#rim" fill="#404040">
                                <set attributeName="fill" to="#808080" begin="zoomplus.mouseover" end="zoomplus.mouseout"/>
                        </use>
                        <path d="M-4,0h8M0,-4v8" fill="none" stroke="white" stroke-width="1.5" pointer-events="none"/>
                </g>
                <g id="zoomMin">
                        <use xlink:href="#rim" fill="#404040">
                                <set attributeName="fill" to="#808080" begin="zoomminus.mouseover" end="zoomminus.mouseout"/>
                        </use>
                        <path d="M-4,0h8" fill="none" stroke="white" stroke-width="1.5" pointer-events="none"/>
                </g>
                <g id="dirArrow">
                        <path fill="none" stroke="white" stroke-width="1.5" d="M0,-3.0v7 M-2.5,-0.5L0,-3.0L2.5,-0.5"/>
                </g>
               <g id="resetDef">
                       <use xlink:href="#rim2" fill="#404040">
                               <set attributeName="fill" to="#808080" begin="reset.mouseover" end="reset.mouseout"/>
                       </use>
               </g>
        </defs>

<script type="text/javascript">
var viewWidth = 798;
var viewHeight = 148;
var sectionId = 'dynsection-0';
</script>
<script xlink:href="svgpan.js"/>
<svg id="graph" class="graph">
<g id="viewport">
<title>src</title>
<polygon fill="white" stroke="none" points="-4,4 -4,-144 794,-144 794,4 -4,4"/>
<g id="clust1" class="cluster"><title>clusterdir_68267d1309a1af8e8297ef4c3efbcdba</title>
<g id="a_clust1"><a xlink:href="dir_68267d1309a1af8e8297ef4c3efbcdba.html" target="_top">
<polygon fill="#eeeeff" stroke="black" points="8,-8 8,-132 782,-132 782,-8 8,-8"/>
</a>
</g>
</g>
<!-- dir_68267d1309a1af8e8297ef4c3efbcdba -->
<g id="node1" class="node"><title>dir_68267d1309a1af8e8297ef4c3efbcdba</title>
<text text-anchor="middle" x="747" y="-103.5" font-family="Helvetica,sans-Serif" font-size="10.00">src</text>
</g>
<!-- dir_46c4efbc2fdd36aaff2d92f0d53bbc5f -->
<g id="node2" class="node"><title>dir_46c4efbc2fdd36aaff2d92f0d53bbc5f</title>
<g id="a_node2"><a xlink:href="dir_46c4efbc2fdd36aaff2d92f0d53bbc5f.html" target="_top" xlink:title="ALE">
<polygon fill="white" stroke="black" points="702,-124 648,-124 648,-88 702,-88 702,-124"/>
<text text-anchor="middle" x="675" y="-103.5" font-family="Helvetica,sans-Serif" font-size="10.00">ALE</text>
</a>
</g>
</g>
<!-- dir_aebb8dcc11953d78e620bbef0b9e2183 -->
<g id="node3" class="node"><title>dir_aebb8dcc11953d78e620bbef0b9e2183</title>
<g id="a_node3"><a xlink:href="dir_aebb8dcc11953d78e620bbef0b9e2183.html" target="_top" xlink:title="core">
<polygon fill="white" stroke="black" points="630,-124 576,-124 576,-88 630,-88 630,-124"/>
<text text-anchor="middle" x="603" y="-103.5" font-family="Helvetica,sans-Serif" font-size="10.00">core</text>
</a>
</g>
</g>
<!-- dir_5752cadd8276ecfd63d9b924f2a4d4b5 -->
<g id="node6" class="node"><title>dir_5752cadd8276ecfd63d9b924f2a4d4b5</title>
<g id="a_node6"><a xlink:href="dir_5752cadd8276ecfd63d9b924f2a4d4b5.html" target="_top" xlink:title="framework">
<polygon fill="white" stroke="black" points="313.5,-52 258.5,-52 258.5,-16 313.5,-16 313.5,-52"/>
<text text-anchor="middle" x="286" y="-31.5" font-family="Helvetica,sans-Serif" font-size="10.00">framework</text>
</a>
</g>
</g>
<!-- dir_aebb8dcc11953d78e620bbef0b9e2183&#45;&gt;dir_5752cadd8276ecfd63d9b924f2a4d4b5 -->
<g id="edge5" class="edge"><title>dir_aebb8dcc11953d78e620bbef0b9e2183&#45;&gt;dir_5752cadd8276ecfd63d9b924f2a4d4b5</title>
<path fill="none" stroke="black" d="M575.776,-91.2653C572.854,-90.057 569.893,-88.9387 567,-88 482.446,-60.5601 378.698,-45.5764 323.975,-39.0486"/>
<polygon fill="black" stroke="black" points="324.041,-35.5328 313.704,-37.8546 323.233,-42.486 324.041,-35.5328"/>
<g id="a_edge5&#45;headlabel"><a xlink:href="dir_000009_000012.html" target="_top" xlink:title="8">
<text text-anchor="middle" x="327.94" y="-30.6275" font-family="Helvetica,sans-Serif" font-size="10.00">8</text>
</a>
</g>
</g>
<!-- dir_941f38c4e38886800e591b0dff3cead0 -->
<g id="node4" class="node"><title>dir_941f38c4e38886800e591b0dff3cead0</title>
<g id="a_node4"><a xlink:href="dir_941f38c4e38886800e591b0dff3cead0.html" target="_top" xlink:title="diagnostics">
<polygon fill="white" stroke="black" points="558,-124 502,-124 502,-88 558,-88 558,-124"/>
<text text-anchor="middle" x="530" y="-103.5" font-family="Helvetica,sans-Serif" font-size="10.00">diagnostics</text>
</a>
</g>
</g>
<!-- dir_941f38c4e38886800e591b0dff3cead0&#45;&gt;dir_5752cadd8276ecfd63d9b924f2a4d4b5 -->
<g id="edge3" class="edge"><title>dir_941f38c4e38886800e591b0dff3cead0&#45;&gt;dir_5752cadd8276ecfd63d9b924f2a4d4b5</title>
<path fill="none" stroke="black" d="M501.935,-91.4721C498.949,-90.2235 495.932,-89.0393 493,-88 435.141,-67.4895 365.592,-51.35 323.64,-42.5005"/>
<polygon fill="black" stroke="black" points="324.097,-39.0206 313.593,-40.4095 322.67,-45.8737 324.097,-39.0206"/>
<g id="a_edge3&#45;headlabel"><a xlink:href="dir_000010_000012.html" target="_top" xlink:title="5">
<text text-anchor="middle" x="328.194" y="-34.4732" font-family="Helvetica,sans-Serif" font-size="10.00">5</text>
</a>
</g>
</g>
<!-- dir_2e79efa5a200c32482668df7b7b77ba8 -->
<g id="node5" class="node"><title>dir_2e79efa5a200c32482668df7b7b77ba8</title>
<g id="a_node5"><a xlink:href="dir_2e79efa5a200c32482668df7b7b77ba8.html" target="_top" xlink:title="equation_of_state">
<polygon fill="white" stroke="black" points="484,-124 404,-124 404,-88 484,-88 484,-124"/>
<text text-anchor="middle" x="444" y="-103.5" font-family="Helvetica,sans-Serif" font-size="10.00">equation_of_state</text>
</a>
</g>
</g>
<!-- dir_2e79efa5a200c32482668df7b7b77ba8&#45;&gt;dir_5752cadd8276ecfd63d9b924f2a4d4b5 -->
<g id="edge7" class="edge"><title>dir_2e79efa5a200c32482668df7b7b77ba8&#45;&gt;dir_5752cadd8276ecfd63d9b924f2a4d4b5</title>
<path fill="none" stroke="black" d="M405.349,-87.8761C380.347,-76.7991 347.974,-62.4567 323.253,-51.5045"/>
<polygon fill="black" stroke="black" points="324.409,-48.1885 313.848,-47.3378 321.573,-54.5885 324.409,-48.1885"/>
<g id="a_edge7&#45;headlabel"><a xlink:href="dir_000011_000012.html" target="_top" xlink:title="1">
<text text-anchor="middle" x="328.845" y="-44.5485" font-family="Helvetica,sans-Serif" font-size="10.00">1</text>
</a>
</g>
</g>
<!-- dir_5c29a9e3bc5455fc61f46142ad02d86f -->
<g id="node7" class="node"><title>dir_5c29a9e3bc5455fc61f46142ad02d86f</title>
<g id="a_node7"><a xlink:href="dir_5c29a9e3bc5455fc61f46142ad02d86f.html" target="_top" xlink:title="ice_shelf">
<polygon fill="white" stroke="black" points="386,-124 332,-124 332,-88 386,-88 386,-124"/>
<text text-anchor="middle" x="359" y="-103.5" font-family="Helvetica,sans-Serif" font-size="10.00">ice_shelf</text>
</a>
</g>
</g>
<!-- dir_80d9a72a764e34362c8238d6d43b55a0 -->
<g id="node8" class="node"><title>dir_80d9a72a764e34362c8238d6d43b55a0</title>
<g id="a_node8"><a xlink:href="dir_80d9a72a764e34362c8238d6d43b55a0.html" target="_top" xlink:title="initialization">
<polygon fill="white" stroke="black" points="314,-124 258,-124 258,-88 314,-88 314,-124"/>
<text text-anchor="middle" x="286" y="-103.5" font-family="Helvetica,sans-Serif" font-size="10.00">initialization</text>
</a>
</g>
</g>
<!-- dir_80d9a72a764e34362c8238d6d43b55a0&#45;&gt;dir_5752cadd8276ecfd63d9b924f2a4d4b5 -->
<g id="edge4" class="edge"><title>dir_80d9a72a764e34362c8238d6d43b55a0&#45;&gt;dir_5752cadd8276ecfd63d9b924f2a4d4b5</title>
<path fill="none" stroke="black" d="M286,-87.6966C286,-79.9827 286,-70.7125 286,-62.1124"/>
<polygon fill="black" stroke="black" points="289.5,-62.1043 286,-52.1043 282.5,-62.1044 289.5,-62.1043"/>
<g id="a_edge4&#45;headlabel"><a xlink:href="dir_000014_000012.html" target="_top" xlink:title="1">
<text text-anchor="middle" x="292.339" y="-63.199" font-family="Helvetica,sans-Serif" font-size="10.00">1</text>
</a>
</g>
</g>
<!-- dir_8224c134a2c31ae723fb95b3c4123a27 -->
<g id="node9" class="node"><title>dir_8224c134a2c31ae723fb95b3c4123a27</title>
<g id="a_node9"><a xlink:href="dir_8224c134a2c31ae723fb95b3c4123a27.html" target="_top" xlink:title="parameterizations">
<polygon fill="white" stroke="red" points="240,-124 160,-124 160,-88 240,-88 240,-124"/>
<text text-anchor="middle" x="200" y="-103.5" font-family="Helvetica,sans-Serif" font-size="10.00">parameterizations</text>
</a>
</g>
</g>
<!-- dir_8224c134a2c31ae723fb95b3c4123a27&#45;&gt;dir_5752cadd8276ecfd63d9b924f2a4d4b5 -->
<g id="edge6" class="edge"><title>dir_8224c134a2c31ae723fb95b3c4123a27&#45;&gt;dir_5752cadd8276ecfd63d9b924f2a4d4b5</title>
<path fill="none" stroke="black" d="M221.258,-87.6966C232.089,-78.8807 245.418,-68.0321 257.16,-58.4742"/>
<polygon fill="black" stroke="black" points="259.44,-61.1316 264.986,-52.1043 255.021,-55.7026 259.44,-61.1316"/>
<g id="a_edge6&#45;headlabel"><a xlink:href="dir_000015_000012.html" target="_top" xlink:title="9">
<text text-anchor="middle" x="258.444" y="-63.1027" font-family="Helvetica,sans-Serif" font-size="10.00">9</text>
</a>
</g>
</g>
<!-- dir_419569bb6464a79f27b27102966d14b7 -->
<g id="node10" class="node"><title>dir_419569bb6464a79f27b27102966d14b7</title>
<g id="a_node10"><a xlink:href="dir_419569bb6464a79f27b27102966d14b7.html" target="_top" xlink:title="tracer">
<polygon fill="white" stroke="black" points="142,-124 88,-124 88,-88 142,-88 142,-124"/>
<text text-anchor="middle" x="115" y="-103.5" font-family="Helvetica,sans-Serif" font-size="10.00">tracer</text>
</a>
</g>
</g>
<!-- dir_419569bb6464a79f27b27102966d14b7&#45;&gt;dir_5752cadd8276ecfd63d9b924f2a4d4b5 -->
<g id="edge2" class="edge"><title>dir_419569bb6464a79f27b27102966d14b7&#45;&gt;dir_5752cadd8276ecfd63d9b924f2a4d4b5</title>
<path fill="none" stroke="black" d="M142.038,-91.994C145.049,-90.6169 148.081,-89.2605 151,-88 183.734,-73.8644 221.562,-59.15 248.832,-48.8224"/>
<polygon fill="black" stroke="black" points="250.25,-52.0283 258.372,-45.2252 247.781,-45.4785 250.25,-52.0283"/>
<g id="a_edge2&#45;headlabel"><a xlink:href="dir_000018_000012.html" target="_top" xlink:title="10">
<text text-anchor="middle" x="247.889" y="-53.4532" font-family="Helvetica,sans-Serif" font-size="10.00">10</text>
</a>
</g>
</g>
<!-- dir_8b0164eb0fb74115683f9812cb2f78f0 -->
<g id="node11" class="node"><title>dir_8b0164eb0fb74115683f9812cb2f78f0</title>
<g id="a_node11"><a xlink:href="dir_8b0164eb0fb74115683f9812cb2f78f0.html" target="_top" xlink:title="user">
<polygon fill="white" stroke="black" points="70,-124 16,-124 16,-88 70,-88 70,-124"/>
<text text-anchor="middle" x="43" y="-103.5" font-family="Helvetica,sans-Serif" font-size="10.00">user</text>
</a>
</g>
</g>
<!-- dir_8b0164eb0fb74115683f9812cb2f78f0&#45;&gt;dir_5752cadd8276ecfd63d9b924f2a4d4b5 -->
<g id="edge1" class="edge"><title>dir_8b0164eb0fb74115683f9812cb2f78f0&#45;&gt;dir_5752cadd8276ecfd63d9b924f2a4d4b5</title>
<path fill="none" stroke="black" d="M70.2889,-91.4554C73.1979,-90.21 76.1389,-89.0311 79,-88 136.75,-67.1864 206.331,-51.1356 248.319,-42.3868"/>
<polygon fill="black" stroke="black" points="249.284,-45.7618 258.375,-40.3214 247.876,-38.9049 249.284,-45.7618"/>
<g id="a_edge1&#45;headlabel"><a xlink:href="dir_000019_000012.html" target="_top" xlink:title="10">
<text text-anchor="middle" x="246.334" y="-46.7661" font-family="Helvetica,sans-Serif" font-size="10.00">10</text>
</a>
</g>
</g>
</g>
</svg>
        <g id="navigator" transform="translate(0 0)" fill="#404254">
                <rect fill="#f2f5e9" fill-opacity="0.5" stroke="#606060" stroke-width=".5" x="0" y="0" width="60" height="60"/>
                <use id="zoomplus" xlink:href="#zoomPlus" x="17" y="9" onmousedown="handleZoom(evt,'in')"/>
                <use id="zoomminus" xlink:href="#zoomMin" x="42" y="9" onmousedown="handleZoom(evt,'out')"/>
                <use id="reset" xlink:href="#resetDef" x="30" y="36" onmousedown="handleReset()"/>
                <g id="arrowUp" xlink:href="#dirArrow" transform="translate(30 24)" onmousedown="handlePan(0,-1)">
                  <use xlink:href="#rim" fill="#404040">
                        <set attributeName="fill" to="#808080" begin="arrowUp.mouseover" end="arrowUp.mouseout"/>
                  </use>
                  <path fill="none" stroke="white" stroke-width="1.5" d="M0,-3.0v7 M-2.5,-0.5L0,-3.0L2.5,-0.5"/>
                </g>
                <g id="arrowRight" xlink:href="#dirArrow" transform="rotate(90) translate(36 -43)" onmousedown="handlePan(1,0)">
                  <use xlink:href="#rim" fill="#404040">
                        <set attributeName="fill" to="#808080" begin="arrowRight.mouseover" end="arrowRight.mouseout"/>
                  </use>
                  <path fill="none" stroke="white" stroke-width="1.5" d="M0,-3.0v7 M-2.5,-0.5L0,-3.0L2.5,-0.5"/>
                </g>
                <g id="arrowDown" xlink:href="#dirArrow" transform="rotate(180) translate(-30 -48)" onmousedown="handlePan(0,1)">
                  <use xlink:href="#rim" fill="#404040">
                        <set attributeName="fill" to="#808080" begin="arrowDown.mouseover" end="arrowDown.mouseout"/>
                  </use>
                  <path fill="none" stroke="white" stroke-width="1.5" d="M0,-3.0v7 M-2.5,-0.5L0,-3.0L2.5,-0.5"/>
                </g>
                <g id="arrowLeft" xlink:href="#dirArrow" transform="rotate(270) translate(-36 17)" onmousedown="handlePan(-1,0)">
                  <use xlink:href="#rim" fill="#404040">
                        <set attributeName="fill" to="#808080" begin="arrowLeft.mouseover" end="arrowLeft.mouseout"/>
                  </use>
                  <path fill="none" stroke="white" stroke-width="1.5" d="M0,-3.0v7 M-2.5,-0.5L0,-3.0L2.5,-0.5"/>
                </g>
        </g>
        <svg viewBox="0 0 15 15" width="100%" height="30px" preserveAspectRatio="xMaxYMin meet">
         <g id="arrow_out" transform="scale(0.3 0.3)">
          <a xlink:href="dir_68267d1309a1af8e8297ef4c3efbcdba_dep_org.svg" target="_base">
           <rect id="button" ry="5" rx="5" y="6" x="6" height="38" width="38"
                fill="#f2f5e9" fill-opacity="0.5" stroke="#606060" stroke-width="1.0"/>
           <path id="arrow"
             d="M 11.500037,31.436501 C 11.940474,20.09759 22.043105,11.32322 32.158766,21.979434 L 37.068811,17.246167 C 37.068811,17.246167 37.088388,32 37.088388,32 L 22.160133,31.978069 C 22.160133,31.978069 26.997745,27.140456 26.997745,27.140456 C 18.528582,18.264221 13.291696,25.230495 11.500037,31.436501 z"
             style="fill:#404040;"/>
          </a>
         </g>
        </svg>
</svg>
