<?xml version="1.0" encoding="UTF-8" standalone="no"?>
<!DOCTYPE svg PUBLIC "-//W3C//DTD SVG 1.1//EN"
 "http://www.w3.org/Graphics/SVG/1.1/DTD/svg11.dtd">
<!-- Generated by graphviz version 2.38.0 (20140413.2041)
 -->
<!-- Title: config_src Pages: 1 -->
<svg width="662pt" height="132pt"
 viewBox="0.00 0.00 662.00 132.00" xmlns="http://www.w3.org/2000/svg" xmlns:xlink="http://www.w3.org/1999/xlink">
<g id="graph0" class="graph" transform="scale(1 1) rotate(0) translate(4 128)">
<title>config_src</title>
<polygon fill="white" stroke="none" points="-4,4 -4,-128 658,-128 658,4 -4,4"/>
<g id="clust1" class="cluster"><title>clusterdir_bbbeac63f53ec5ea699fa4cbaa8c4afb</title>
<g id="a_clust1"><a xlink:href="dir_bbbeac63f53ec5ea699fa4cbaa8c4afb.html" target="_top">
<polygon fill="#eeeeff" stroke="black" points="8,-64 8,-116 646,-116 646,-64 8,-64"/>
</a>
</g>
</g>
<!-- dir_bbbeac63f53ec5ea699fa4cbaa8c4afb -->
<g id="node1" class="node"><title>dir_bbbeac63f53ec5ea699fa4cbaa8c4afb</title>
<text text-anchor="middle" x="607" y="-87.5" font-family="Helvetica,sans-Serif" font-size="10.00">config_src</text>
</g>
<!-- dir_a19e664d9f2d0f5526bad3c5f3c3e9c4 -->
<g id="node2" class="node"><title>dir_a19e664d9f2d0f5526bad3c5f3c3e9c4</title>
<g id="a_node2"><a xlink:href="dir_a19e664d9f2d0f5526bad3c5f3c3e9c4.html" target="_top" xlink:title="coupled_driver">
<polygon fill="white" stroke="black" points="558,-108 478,-108 478,-72 558,-72 558,-108"/>
<text text-anchor="middle" x="518" y="-87.5" font-family="Helvetica,sans-Serif" font-size="10.00">coupled_driver</text>
</a>
</g>
</g>
<!-- dir_ace7d7e60715266d6e5872450ebbdac1 -->
<g id="node3" class="node"><title>dir_ace7d7e60715266d6e5872450ebbdac1</title>
<g id="a_node3"><a xlink:href="dir_ace7d7e60715266d6e5872450ebbdac1.html" target="_top" xlink:title="dynamic">
<polygon fill="white" stroke="black" points="460,-108 406,-108 406,-72 460,-72 460,-108"/>
<text text-anchor="middle" x="433" y="-87.5" font-family="Helvetica,sans-Serif" font-size="10.00">dynamic</text>
</a>
</g>
</g>
<!-- dir_68267d1309a1af8e8297ef4c3efbcdba -->
<g id="node8" class="node"><title>dir_68267d1309a1af8e8297ef4c3efbcdba</title>
<g id="a_node8"><a xlink:href="dir_68267d1309a1af8e8297ef4c3efbcdba.html" target="_top" xlink:title="src">
<polygon fill="white" stroke="red" points="252,-36 198,-36 198,-0 252,-0 252,-36"/>
<text text-anchor="middle" x="225" y="-15.5" font-family="Helvetica,sans-Serif" font-size="10.00">src</text>
</a>
</g>
</g>
<!-- dir_ace7d7e60715266d6e5872450ebbdac1&#45;&gt;dir_68267d1309a1af8e8297ef4c3efbcdba -->
<g id="edge2" class="edge"><title>dir_ace7d7e60715266d6e5872450ebbdac1&#45;&gt;dir_68267d1309a1af8e8297ef4c3efbcdba</title>
<path fill="none" stroke="black" d="M410.875,-71.8555C406.443,-68.942 401.7,-66.1638 397,-64 352.853,-43.6761 297.944,-31.3295 262.212,-24.8357"/>
<polygon fill="black" stroke="black" points="262.675,-21.3635 252.221,-23.0817 261.465,-28.2581 262.675,-21.3635"/>
<g id="a_edge2&#45;headlabel"><a xlink:href="dir_000004_000007.html" target="_top" xlink:title="1">
<text text-anchor="middle" x="266.706" y="-16.6884" font-family="Helvetica,sans-Serif" font-size="10.00">1</text>
</a>
</g>
</g>
<!-- dir_67fed18fa7f74247fef50848ceb46cee -->
<g id="node4" class="node"><title>dir_67fed18fa7f74247fef50848ceb46cee</title>
<g id="a_node4"><a xlink:href="dir_67fed18fa7f74247fef50848ceb46cee.html" target="_top" xlink:title="dynamic_symmetric">
<polygon fill="white" stroke="black" points="388,-108 284,-108 284,-72 388,-72 388,-108"/>
<text text-anchor="middle" x="336" y="-87.5" font-family="Helvetica,sans-Serif" font-size="10.00">dynamic_symmetric</text>
</a>
</g>
</g>
<!-- dir_67fed18fa7f74247fef50848ceb46cee&#45;&gt;dir_68267d1309a1af8e8297ef4c3efbcdba -->
<g id="edge4" class="edge"><title>dir_67fed18fa7f74247fef50848ceb46cee&#45;&gt;dir_68267d1309a1af8e8297ef4c3efbcdba</title>
<path fill="none" stroke="black" d="M308.846,-71.8761C294.467,-62.8083 276.619,-51.5523 261.09,-41.7592"/>
<polygon fill="black" stroke="black" points="262.584,-38.5635 252.258,-36.1898 258.85,-44.4845 262.584,-38.5635"/>
<g id="a_edge4&#45;headlabel"><a xlink:href="dir_000005_000007.html" target="_top" xlink:title="1">
<text text-anchor="middle" x="267.139" y="-35.5793" font-family="Helvetica,sans-Serif" font-size="10.00">1</text>
</a>
</g>
</g>
<!-- dir_cc1172264cc124e8fb521e3735251027 -->
<g id="node5" class="node"><title>dir_cc1172264cc124e8fb521e3735251027</title>
<g id="a_node5"><a xlink:href="dir_cc1172264cc124e8fb521e3735251027.html" target="_top" xlink:title="ice_solo_driver">
<polygon fill="white" stroke="black" points="266,-108 184,-108 184,-72 266,-72 266,-108"/>
<text text-anchor="middle" x="225" y="-87.5" font-family="Helvetica,sans-Serif" font-size="10.00">ice_solo_driver</text>
</a>
</g>
</g>
<!-- dir_cc1172264cc124e8fb521e3735251027&#45;&gt;dir_68267d1309a1af8e8297ef4c3efbcdba -->
<g id="edge3" class="edge"><title>dir_cc1172264cc124e8fb521e3735251027&#45;&gt;dir_68267d1309a1af8e8297ef4c3efbcdba</title>
<path fill="none" stroke="black" d="M225,-71.6966C225,-63.9827 225,-54.7125 225,-46.1124"/>
<polygon fill="black" stroke="black" points="228.5,-46.1043 225,-36.1043 221.5,-46.1044 228.5,-46.1043"/>
<g id="a_edge3&#45;headlabel"><a xlink:href="dir_000002_000007.html" target="_top" xlink:title="2">
<text text-anchor="middle" x="231.339" y="-47.199" font-family="Helvetica,sans-Serif" font-size="10.00">2</text>
</a>
</g>
</g>
<!-- dir_ccbaa27a715db0631841e4cd1db1cd75 -->
<g id="node6" class="node"><title>dir_ccbaa27a715db0631841e4cd1db1cd75</title>
<g id="a_node6"><a xlink:href="dir_ccbaa27a715db0631841e4cd1db1cd75.html" target="_top" xlink:title="solo_driver">
<polygon fill="white" stroke="black" points="166,-108 102,-108 102,-72 166,-72 166,-108"/>
<text text-anchor="middle" x="134" y="-87.5" font-family="Helvetica,sans-Serif" font-size="10.00">solo_driver</text>
</a>
</g>
</g>
<!-- dir_ccbaa27a715db0631841e4cd1db1cd75&#45;&gt;dir_68267d1309a1af8e8297ef4c3efbcdba -->
<g id="edge1" class="edge"><title>dir_ccbaa27a715db0631841e4cd1db1cd75&#45;&gt;dir_68267d1309a1af8e8297ef4c3efbcdba</title>
<path fill="none" stroke="black" d="M156.494,-71.6966C167.955,-62.8807 182.058,-52.0321 194.484,-42.4742"/>
<polygon fill="black" stroke="black" points="196.972,-44.9757 202.764,-36.1043 192.704,-39.4273 196.972,-44.9757"/>
<g id="a_edge1&#45;headlabel"><a xlink:href="dir_000003_000007.html" target="_top" xlink:title="2">
<text text-anchor="middle" x="195.854" y="-46.9178" font-family="Helvetica,sans-Serif" font-size="10.00">2</text>
</a>
</g>
</g>
<!-- dir_6c6e2340d51f66750cad17382fc63a45 -->
<g id="node7" class="node"><title>dir_6c6e2340d51f66750cad17382fc63a45</title>
<g id="a_node7"><a xlink:href="dir_6c6e2340d51f66750cad17382fc63a45.html" target="_top" xlink:title="unit_drivers">
<polygon fill="white" stroke="black" points="83.5,-108 16.5,-108 16.5,-72 83.5,-72 83.5,-108"/>
<text text-anchor="middle" x="50" y="-87.5" font-family="Helvetica,sans-Serif" font-size="10.00">unit_drivers</text>
</a>
</g>
</g>
<!-- dir_6c6e2340d51f66750cad17382fc63a45&#45;&gt;dir_68267d1309a1af8e8297ef4c3efbcdba -->
<g id="edge5" class="edge"><title>dir_6c6e2340d51f66750cad17382fc63a45&#45;&gt;dir_68267d1309a1af8e8297ef4c3efbcdba</title>
<path fill="none" stroke="black" d="M77.7948,-71.7736C82.769,-69.0001 87.971,-66.2918 93,-64 124.16,-49.8001 161.179,-37.5553 188.073,-29.4394"/>
<polygon fill="black" stroke="black" points="189.262,-32.7376 197.851,-26.5356 187.269,-26.0272 189.262,-32.7376"/>
<g id="a_edge5&#45;headlabel"><a xlink:href="dir_000006_000007.html" target="_top" xlink:title="1">
<text text-anchor="middle" x="186.624" y="-33.9826" font-family="Helvetica,sans-Serif" font-size="10.00">1</text>
</a>
</g>
</g>
</g>
</svg>
