<?xml version="1.0" encoding="UTF-8" standalone="no"?>
<!DOCTYPE svg PUBLIC "-//W3C//DTD SVG 1.1//EN"
 "http://www.w3.org/Graphics/SVG/1.1/DTD/svg11.dtd">
<!-- Generated by graphviz version 2.38.0 (20140413.2041)
 -->
<!-- Title: mom_get_input::get_mom_input Pages: 1 -->
<svg width="379pt" height="173pt"
 viewBox="0.00 0.00 379.00 172.50" xmlns="http://www.w3.org/2000/svg" xmlns:xlink="http://www.w3.org/1999/xlink">
<g id="graph0" class="graph" transform="scale(1 1) rotate(0) translate(4 168.5)">
<title>mom_get_input::get_mom_input</title>
<polygon fill="white" stroke="none" points="-4,4 -4,-168.5 375,-168.5 375,4 -4,4"/>
<!-- Node13 -->
<g id="node1" class="node"><title>Node13</title>
<polygon fill="#bfbfbf" stroke="black" points="0,-73.5 0,-103.5 103,-103.5 103,-73.5 0,-73.5"/>
<text text-anchor="start" x="8" y="-91.5" font-family="Helvetica,sans-Serif" font-size="10.00">mom_get_input::get</text>
<text text-anchor="middle" x="51.5" y="-80.5" font-family="Helvetica,sans-Serif" font-size="10.00">_mom_input</text>
</g>
<!-- Node14 -->
<g id="node2" class="node"><title>Node14</title>
<g id="a_node2"><a xlink:href="../../df/da2/namespacemom__ice__shelf.html#ae315e8464ef8a20062e3bccb61886755" target="_top" xlink:title="mom_ice_shelf::initialize\l_ice_shelf">
<polygon fill="white" stroke="black" points="142.5,-98.5 142.5,-128.5 266.5,-128.5 266.5,-98.5 142.5,-98.5"/>
<text text-anchor="start" x="150.5" y="-116.5" font-family="Helvetica,sans-Serif" font-size="10.00">mom_ice_shelf::initialize</text>
<text text-anchor="middle" x="204.5" y="-105.5" font-family="Helvetica,sans-Serif" font-size="10.00">_ice_shelf</text>
</a>
</g>
</g>
<!-- Node13&#45;&gt;Node14 -->
<g id="edge1" class="edge"><title>Node13&#45;&gt;Node14</title>
<path fill="none" stroke="midnightblue" d="M113.121,-98.5365C122.784,-100.136 132.786,-101.792 142.459,-103.394"/>
<polygon fill="midnightblue" stroke="midnightblue" points="113.638,-95.0747 103.201,-96.8942 112.495,-101.981 113.638,-95.0747"/>
</g>
<!-- Node15 -->
<g id="node3" class="node"><title>Node15</title>
<g id="a_node3"><a xlink:href="../../d5/d6d/ice__shelf__driver_8F90.html#aec5bef92f0dad343f545cd8d62e378d8" target="_top" xlink:title="shelf_main">
<polygon fill="white" stroke="black" points="306.5,-145 306.5,-164 370.5,-164 370.5,-145 306.5,-145"/>
<text text-anchor="middle" x="338.5" y="-152" font-family="Helvetica,sans-Serif" font-size="10.00">shelf_main</text>
</a>
</g>
</g>
<!-- Node13&#45;&gt;Node15 -->
<g id="edge5" class="edge"><title>Node13&#45;&gt;Node15</title>
<path fill="none" stroke="midnightblue" d="M81.0582,-109.34C97.2348,-119.997 118.322,-132.052 139,-138.5 196.101,-156.305 266.677,-157.353 306.439,-156.16"/>
<polygon fill="midnightblue" stroke="midnightblue" points="82.8503,-106.327 72.6102,-103.608 78.9199,-112.119 82.8503,-106.327"/>
</g>
<!-- Node17 -->
<g id="node5" class="node"><title>Node17</title>
<g id="a_node5"><a xlink:href="../../d5/dd4/namespaceocean__model__mod.html#a6b00b9a33be391bb23668abbfa4d99c6" target="_top" xlink:title="ocean_model_mod::ocean\l_model_flux_init">
<polygon fill="white" stroke="black" points="139,-49.5 139,-79.5 270,-79.5 270,-49.5 139,-49.5"/>
<text text-anchor="start" x="147" y="-67.5" font-family="Helvetica,sans-Serif" font-size="10.00">ocean_model_mod::ocean</text>
<text text-anchor="middle" x="204.5" y="-56.5" font-family="Helvetica,sans-Serif" font-size="10.00">_model_flux_init</text>
</a>
</g>
</g>
<!-- Node13&#45;&gt;Node17 -->
<g id="edge4" class="edge"><title>Node13&#45;&gt;Node17</title>
<path fill="none" stroke="midnightblue" d="M113.343,-78.8296C121.785,-77.4878 130.482,-76.1055 138.988,-74.7535"/>
<polygon fill="midnightblue" stroke="midnightblue" points="112.527,-75.4152 103.201,-80.4416 113.626,-82.3284 112.527,-75.4152"/>
</g>
<!-- Node18 -->
<g id="node6" class="node"><title>Node18</title>
<g id="a_node6"><a xlink:href="../../dc/ded/namespacemom__surface__forcing.html#ad01961191fdfc928f233901e285f4beb" target="_top" xlink:title="mom_surface_forcing\l::surface_forcing_init">
<polygon fill="white" stroke="black" points="149.5,-0.5 149.5,-30.5 259.5,-30.5 259.5,-0.5 149.5,-0.5"/>
<text text-anchor="start" x="157.5" y="-18.5" font-family="Helvetica,sans-Serif" font-size="10.00">mom_surface_forcing</text>
<text text-anchor="middle" x="204.5" y="-7.5" font-family="Helvetica,sans-Serif" font-size="10.00">::surface_forcing_init</text>
</a>
</g>
</g>
<!-- Node13&#45;&gt;Node18 -->
<g id="edge6" class="edge"><title>Node13&#45;&gt;Node18</title>
<path fill="none" stroke="midnightblue" d="M86.2363,-68.3702C102.003,-59.3303 121.189,-48.8455 139,-40.5 146.395,-37.0349 154.412,-33.6468 162.2,-30.5391"/>
<polygon fill="midnightblue" stroke="midnightblue" points="84.2826,-65.4571 77.3845,-73.4987 87.7918,-71.514 84.2826,-65.4571"/>
</g>
<!-- Node14&#45;&gt;Node15 -->
<g id="edge2" class="edge"><title>Node14&#45;&gt;Node15</title>
<path fill="none" stroke="midnightblue" d="M263.565,-131.535C278.438,-136.155 293.856,-140.944 306.739,-144.946"/>
<polygon fill="midnightblue" stroke="midnightblue" points="264.491,-128.158 253.902,-128.534 262.414,-134.843 264.491,-128.158"/>
</g>
<!-- Node16 -->
<g id="node4" class="node"><title>Node16</title>
<g id="a_node4"><a xlink:href="../../de/dbc/MOM__driver_8F90.html#a08fffeb2d8e8acbf9ed4609be6d258c6" target="_top" xlink:title="mom_main">
<polygon fill="white" stroke="black" points="306,-104 306,-123 371,-123 371,-104 306,-104"/>
<text text-anchor="middle" x="338.5" y="-111" font-family="Helvetica,sans-Serif" font-size="10.00">mom_main</text>
</a>
</g>
</g>
<!-- Node14&#45;&gt;Node16 -->
<g id="edge3" class="edge"><title>Node14&#45;&gt;Node16</title>
<path fill="none" stroke="midnightblue" d="M276.975,-113.5C287.065,-113.5 296.983,-113.5 305.778,-113.5"/>
<polygon fill="midnightblue" stroke="midnightblue" points="276.863,-110 266.863,-113.5 276.863,-117 276.863,-110"/>
</g>
</g>
</svg>
