<?xml version="1.0" encoding="UTF-8" standalone="no"?>
<!DOCTYPE svg PUBLIC "-//W3C//DTD SVG 1.1//EN"
 "http://www.w3.org/Graphics/SVG/1.1/DTD/svg11.dtd">
<!-- Generated by graphviz version 2.38.0 (20140413.2041)
 -->
<!-- Title: mom_coms::real_to_ints Pages: 1 -->
<svg width="551pt" height="149pt"
 viewBox="0.00 0.00 551.00 148.50" xmlns="http://www.w3.org/2000/svg" xmlns:xlink="http://www.w3.org/1999/xlink">
<g id="graph0" class="graph" transform="scale(1 1) rotate(0) translate(4 144.5)">
<title>mom_coms::real_to_ints</title>
<polygon fill="white" stroke="none" points="-4,4 -4,-144.5 547,-144.5 547,4 -4,4"/>
<!-- Node74 -->
<g id="node1" class="node"><title>Node74</title>
<polygon fill="#bfbfbf" stroke="black" points="0,-55 0,-74 124,-74 124,-55 0,-55"/>
<text text-anchor="middle" x="62" y="-62" font-family="Helvetica,sans-Serif" font-size="10.00">mom_coms::real_to_ints</text>
</g>
<!-- Node75 -->
<g id="node2" class="node"><title>Node75</title>
<g id="a_node2"><a xlink:href="../../d7/d0a/namespacemom__coms.html#ac8f1b5be23b128cd8bb956ebda917edb" target="_top" xlink:title="mom_coms::real_to_efp">
<polygon fill="white" stroke="black" points="161,-99 161,-118 283,-118 283,-99 161,-99"/>
<text text-anchor="middle" x="222" y="-106" font-family="Helvetica,sans-Serif" font-size="10.00">mom_coms::real_to_efp</text>
</a>
</g>
</g>
<!-- Node74&#45;&gt;Node75 -->
<g id="edge1" class="edge"><title>Node74&#45;&gt;Node75</title>
<path fill="none" stroke="midnightblue" d="M106.981,-76.7478C132.205,-83.7724 163.402,-92.46 186.783,-98.9713"/>
<polygon fill="midnightblue" stroke="midnightblue" points="107.856,-73.3584 97.2836,-74.0473 105.978,-80.1018 107.856,-73.3584"/>
</g>
<!-- Node79 -->
<g id="node6" class="node"><title>Node79</title>
<g id="a_node6"><a xlink:href="../../d7/d0a/namespacemom__coms.html#a99e145acc9227dad1bddc6cf211e4daf" target="_top" xlink:title="mom_coms::reproducing\l_sum_2d">
<polygon fill="white" stroke="black" points="160,-49.5 160,-79.5 284,-79.5 284,-49.5 160,-49.5"/>
<text text-anchor="start" x="168" y="-67.5" font-family="Helvetica,sans-Serif" font-size="10.00">mom_coms::reproducing</text>
<text text-anchor="middle" x="222" y="-56.5" font-family="Helvetica,sans-Serif" font-size="10.00">_sum_2d</text>
</a>
</g>
</g>
<!-- Node74&#45;&gt;Node79 -->
<g id="edge5" class="edge"><title>Node74&#45;&gt;Node79</title>
<path fill="none" stroke="midnightblue" d="M134.366,-64.5C142.863,-64.5 151.478,-64.5 159.815,-64.5"/>
<polygon fill="midnightblue" stroke="midnightblue" points="134.087,-61.0001 124.087,-64.5 134.087,-68.0001 134.087,-61.0001"/>
</g>
<!-- Node80 -->
<g id="node7" class="node"><title>Node80</title>
<g id="a_node7"><a xlink:href="../../d7/d0a/namespacemom__coms.html#aa21533e0badf43b331b5f7a9730c005f" target="_top" xlink:title="mom_coms::reproducing\l_sum_3d">
<polygon fill="white" stroke="black" points="160,-0.5 160,-30.5 284,-30.5 284,-0.5 160,-0.5"/>
<text text-anchor="start" x="168" y="-18.5" font-family="Helvetica,sans-Serif" font-size="10.00">mom_coms::reproducing</text>
<text text-anchor="middle" x="222" y="-7.5" font-family="Helvetica,sans-Serif" font-size="10.00">_sum_3d</text>
</a>
</g>
</g>
<!-- Node74&#45;&gt;Node80 -->
<g id="edge6" class="edge"><title>Node74&#45;&gt;Node80</title>
<path fill="none" stroke="midnightblue" d="M103.444,-51.9574C124.497,-45.4281 150.391,-37.3976 172.513,-30.537"/>
<polygon fill="midnightblue" stroke="midnightblue" points="102.354,-48.6309 93.8391,-54.936 104.427,-55.3168 102.354,-48.6309"/>
</g>
<!-- Node76 -->
<g id="node3" class="node"><title>Node76</title>
<g id="a_node3"><a xlink:href="../../d6/d48/MOM__sum__driver_8F90.html#a08fffeb2d8e8acbf9ed4609be6d258c6" target="_top" xlink:title="mom_main">
<polygon fill="white" stroke="black" points="348.5,-121 348.5,-140 413.5,-140 413.5,-121 348.5,-121"/>
<text text-anchor="middle" x="381" y="-128" font-family="Helvetica,sans-Serif" font-size="10.00">mom_main</text>
</a>
</g>
</g>
<!-- Node75&#45;&gt;Node76 -->
<g id="edge2" class="edge"><title>Node75&#45;&gt;Node76</title>
<path fill="none" stroke="midnightblue" d="M293.22,-118.34C312.447,-121.034 332.345,-123.822 348.229,-126.048"/>
<polygon fill="midnightblue" stroke="midnightblue" points="293.64,-114.865 283.251,-116.943 292.669,-121.797 293.64,-114.865"/>
</g>
<!-- Node77 -->
<g id="node4" class="node"><title>Node77</title>
<g id="a_node4"><a xlink:href="../../d6/d28/namespacemom__sum__output.html#aef94e597f85f3ee439b2ddc2b46a043a" target="_top" xlink:title="mom_sum_output::write\l_energy">
<polygon fill="white" stroke="black" points="320,-71.5 320,-101.5 442,-101.5 442,-71.5 320,-71.5"/>
<text text-anchor="start" x="328" y="-89.5" font-family="Helvetica,sans-Serif" font-size="10.00">mom_sum_output::write</text>
<text text-anchor="middle" x="381" y="-78.5" font-family="Helvetica,sans-Serif" font-size="10.00">_energy</text>
</a>
</g>
</g>
<!-- Node75&#45;&gt;Node77 -->
<g id="edge3" class="edge"><title>Node75&#45;&gt;Node77</title>
<path fill="none" stroke="midnightblue" d="M293.222,-98.66C302.13,-97.4118 311.181,-96.1435 319.91,-94.9203"/>
<polygon fill="midnightblue" stroke="midnightblue" points="292.669,-95.2032 283.251,-100.057 293.64,-102.135 292.669,-95.2032"/>
</g>
<!-- Node78 -->
<g id="node5" class="node"><title>Node78</title>
<g id="a_node5"><a xlink:href="../../de/dbc/MOM__driver_8F90.html#a08fffeb2d8e8acbf9ed4609be6d258c6" target="_top" xlink:title="mom_main">
<polygon fill="white" stroke="black" points="478,-77 478,-96 543,-96 543,-77 478,-77"/>
<text text-anchor="middle" x="510.5" y="-84" font-family="Helvetica,sans-Serif" font-size="10.00">mom_main</text>
</a>
</g>
</g>
<!-- Node77&#45;&gt;Node78 -->
<g id="edge4" class="edge"><title>Node77&#45;&gt;Node78</title>
<path fill="none" stroke="midnightblue" d="M452.193,-86.5C461.176,-86.5 469.986,-86.5 477.901,-86.5"/>
<polygon fill="midnightblue" stroke="midnightblue" points="452.017,-83.0001 442.017,-86.5 452.017,-90.0001 452.017,-83.0001"/>
</g>
</g>
</svg>
