<?xml version="1.0" encoding="UTF-8" standalone="no"?>
<!DOCTYPE svg PUBLIC "-//W3C//DTD SVG 1.1//EN"
 "http://www.w3.org/Graphics/SVG/1.1/DTD/svg11.dtd">
<!-- Generated by graphviz version 2.38.0 (20140413.2041)
 -->
<!-- Title: mom_bulk_mixed_layer::bulkmixedlayer Pages: 1 -->
<svg width="805pt" height="585pt"
 viewBox="0.00 0.00 805.00 585.00" xmlns="http://www.w3.org/2000/svg" xmlns:xlink="http://www.w3.org/1999/xlink">
<g id="graph0" class="graph" transform="scale(1 1) rotate(0) translate(4 581)">
<title>mom_bulk_mixed_layer::bulkmixedlayer</title>
<polygon fill="white" stroke="none" points="-4,4 -4,-581 801,-581 801,4 -4,4"/>
<!-- Node0 -->
<g id="node1" class="node"><title>Node0</title>
<polygon fill="#bfbfbf" stroke="black" points="0,-284.5 0,-314.5 119,-314.5 119,-284.5 0,-284.5"/>
<text text-anchor="start" x="8" y="-302.5" font-family="Helvetica,sans-Serif" font-size="10.00">mom_bulk_mixed_layer</text>
<text text-anchor="middle" x="59.5" y="-291.5" font-family="Helvetica,sans-Serif" font-size="10.00">::bulkmixedlayer</text>
</g>
<!-- Node1 -->
<g id="node2" class="node"><title>Node1</title>
<g id="a_node2"><a xlink:href="../../d8/daf/namespacemom__shortwave__abs.html#a977474b56b68f4db0d6b0dc604755e6c" target="_top" xlink:title="Apply shortwave heating below surface boundary layer. ">
<polygon fill="white" stroke="black" points="173,-546.5 173,-576.5 289,-576.5 289,-546.5 173,-546.5"/>
<text text-anchor="start" x="181" y="-564.5" font-family="Helvetica,sans-Serif" font-size="10.00">mom_shortwave_abs::</text>
<text text-anchor="middle" x="231" y="-553.5" font-family="Helvetica,sans-Serif" font-size="10.00">absorbremainingsw</text>
</a>
</g>
</g>
<!-- Node0&#45;&gt;Node1 -->
<g id="edge1" class="edge"><title>Node0&#45;&gt;Node1</title>
<path fill="none" stroke="midnightblue" d="M62.0562,-314.506C67.176,-356.148 87.2571,-474.231 155,-537.5 157.76,-540.078 160.798,-542.379 164.021,-544.433"/>
<polygon fill="midnightblue" stroke="midnightblue" points="162.472,-547.575 172.924,-549.312 165.837,-541.437 162.472,-547.575"/>
</g>
<!-- Node2 -->
<g id="node3" class="node"><title>Node2</title>
<g id="a_node3"><a xlink:href="../../d1/da1/namespacemom__bulk__mixed__layer.html#ac898a46c7996492a4cd3ee45ebfd1b2e" target="_top" xlink:title="mom_bulk_mixed_layer\l::convective_adjustment">
<polygon fill="white" stroke="black" points="169.5,-497.5 169.5,-527.5 292.5,-527.5 292.5,-497.5 169.5,-497.5"/>
<text text-anchor="start" x="177.5" y="-515.5" font-family="Helvetica,sans-Serif" font-size="10.00">mom_bulk_mixed_layer</text>
<text text-anchor="middle" x="231" y="-504.5" font-family="Helvetica,sans-Serif" font-size="10.00">::convective_adjustment</text>
</a>
</g>
</g>
<!-- Node0&#45;&gt;Node2 -->
<g id="edge2" class="edge"><title>Node0&#45;&gt;Node2</title>
<path fill="none" stroke="midnightblue" d="M63.8287,-314.745C72.4218,-350.484 98.7259,-440.285 155,-488.5 156.729,-489.982 158.551,-491.372 160.446,-492.677"/>
<polygon fill="midnightblue" stroke="midnightblue" points="158.779,-495.758 169.162,-497.867 162.36,-489.743 158.779,-495.758"/>
</g>
<!-- Node3 -->
<g id="node4" class="node"><title>Node3</title>
<g id="a_node4"><a xlink:href="../../d9/d06/namespacemom__diag__mediator.html#a67a9077037d7bf86f7415ca1ad672295" target="_top" xlink:title="Build/update target vertical grids for diagnostic remapping. ">
<polygon fill="white" stroke="black" points="168.5,-448.5 168.5,-478.5 293.5,-478.5 293.5,-448.5 168.5,-448.5"/>
<text text-anchor="start" x="176.5" y="-466.5" font-family="Helvetica,sans-Serif" font-size="10.00">mom_diag_mediator::</text>
<text text-anchor="middle" x="231" y="-455.5" font-family="Helvetica,sans-Serif" font-size="10.00">diag_update_target_grids</text>
</a>
</g>
</g>
<!-- Node0&#45;&gt;Node3 -->
<g id="edge3" class="edge"><title>Node0&#45;&gt;Node3</title>
<path fill="none" stroke="midnightblue" d="M67.431,-314.511C80.729,-341.794 112.333,-399.798 155,-433.5 159.983,-437.436 165.55,-440.918 171.338,-443.984"/>
<polygon fill="midnightblue" stroke="midnightblue" points="170.039,-447.244 180.564,-448.465 173.097,-440.948 170.039,-447.244"/>
</g>
<!-- Node5 -->
<g id="node6" class="node"><title>Node5</title>
<g id="a_node6"><a xlink:href="../../d0/de6/namespacemom__error__handler.html#a460cfb79a06c29fc249952c2a3710d67" target="_top" xlink:title="mom_error_handler::\lmom_error">
<polygon fill="white" stroke="black" points="549,-375.5 549,-405.5 655,-405.5 655,-375.5 549,-375.5"/>
<text text-anchor="start" x="557" y="-393.5" font-family="Helvetica,sans-Serif" font-size="10.00">mom_error_handler::</text>
<text text-anchor="middle" x="602" y="-382.5" font-family="Helvetica,sans-Serif" font-size="10.00">mom_error</text>
</a>
</g>
</g>
<!-- Node0&#45;&gt;Node5 -->
<g id="edge19" class="edge"><title>Node0&#45;&gt;Node5</title>
<path fill="none" stroke="midnightblue" d="M69.1016,-314.801C83.3806,-338.432 114.466,-382.915 155,-400.5 282.253,-455.705 449.744,-428.773 538.889,-407.61"/>
<polygon fill="midnightblue" stroke="midnightblue" points="539.948,-410.955 548.84,-405.194 538.297,-404.152 539.948,-410.955"/>
</g>
<!-- Node9 -->
<g id="node10" class="node"><title>Node9</title>
<g id="a_node10"><a xlink:href="../../d1/d95/namespacemom__domains.html#ac90ecdd1f8397352dfa996ae7198b0ef" target="_top" xlink:title="mom_domains::do_group_pass">
<polygon fill="white" stroke="black" points="155,-372 155,-391 307,-391 307,-372 155,-372"/>
<text text-anchor="middle" x="231" y="-379" font-family="Helvetica,sans-Serif" font-size="10.00">mom_domains::do_group_pass</text>
</a>
</g>
</g>
<!-- Node0&#45;&gt;Node9 -->
<g id="edge9" class="edge"><title>Node0&#45;&gt;Node9</title>
<path fill="none" stroke="midnightblue" d="M81.8179,-314.651C100.449,-327.379 128.58,-345.38 155,-357.5 164.32,-361.775 174.616,-365.605 184.517,-368.884"/>
<polygon fill="midnightblue" stroke="midnightblue" points="183.644,-372.279 194.235,-371.975 185.766,-365.609 183.644,-372.279"/>
</g>
<!-- Node10 -->
<g id="node11" class="node"><title>Node10</title>
<g id="a_node11"><a xlink:href="../../dd/dc3/namespacemom__forcing__type.html#ab67e7c2e99099bcf22d12885f349e1e4" target="_top" xlink:title="This subroutine extracts fluxes from the surface fluxes type. It works on a j&#45;row for optimization pu...">
<polygon fill="white" stroke="black" points="343,-353 343,-372 513,-372 513,-353 343,-353"/>
<text text-anchor="middle" x="428" y="-360" font-family="Helvetica,sans-Serif" font-size="10.00">mom_forcing_type::extractfluxes1d</text>
</a>
</g>
</g>
<!-- Node0&#45;&gt;Node10 -->
<g id="edge10" class="edge"><title>Node0&#45;&gt;Node10</title>
<path fill="none" stroke="midnightblue" d="M112.722,-314.511C126.403,-318.114 141.192,-321.719 155,-324.5 213.733,-336.327 280.338,-345.699 332.939,-352.176"/>
<polygon fill="midnightblue" stroke="midnightblue" points="332.579,-355.658 342.928,-353.392 333.425,-348.709 332.579,-355.658"/>
</g>
<!-- Node11 -->
<g id="node12" class="node"><title>Node11</title>
<g id="a_node12"><a xlink:href="../../d1/da1/namespacemom__bulk__mixed__layer.html#a665aff6a1571290883752364eb5aa129" target="_top" xlink:title="mom_bulk_mixed_layer\l::find_starting_tke">
<polygon fill="white" stroke="black" points="171.5,-284.5 171.5,-314.5 290.5,-314.5 290.5,-284.5 171.5,-284.5"/>
<text text-anchor="start" x="179.5" y="-302.5" font-family="Helvetica,sans-Serif" font-size="10.00">mom_bulk_mixed_layer</text>
<text text-anchor="middle" x="231" y="-291.5" font-family="Helvetica,sans-Serif" font-size="10.00">::find_starting_tke</text>
</a>
</g>
</g>
<!-- Node0&#45;&gt;Node11 -->
<g id="edge12" class="edge"><title>Node0&#45;&gt;Node11</title>
<path fill="none" stroke="midnightblue" d="M119.307,-299.5C132.849,-299.5 147.369,-299.5 161.289,-299.5"/>
<polygon fill="midnightblue" stroke="midnightblue" points="161.297,-303 171.297,-299.5 161.297,-296 161.297,-303"/>
</g>
<!-- Node12 -->
<g id="node13" class="node"><title>Node12</title>
<g id="a_node13"><a xlink:href="../../d1/da1/namespacemom__bulk__mixed__layer.html#a18320524267554e0417f02af24ede6c3" target="_top" xlink:title="mom_bulk_mixed_layer\l::mechanical_entrainment">
<polygon fill="white" stroke="black" points="167,-235.5 167,-265.5 295,-265.5 295,-235.5 167,-235.5"/>
<text text-anchor="start" x="175" y="-253.5" font-family="Helvetica,sans-Serif" font-size="10.00">mom_bulk_mixed_layer</text>
<text text-anchor="middle" x="231" y="-242.5" font-family="Helvetica,sans-Serif" font-size="10.00">::mechanical_entrainment</text>
</a>
</g>
</g>
<!-- Node0&#45;&gt;Node12 -->
<g id="edge13" class="edge"><title>Node0&#45;&gt;Node12</title>
<path fill="none" stroke="midnightblue" d="M112.739,-284.399C130.301,-279.321 150.059,-273.61 168.28,-268.342"/>
<polygon fill="midnightblue" stroke="midnightblue" points="169.299,-271.691 177.934,-265.552 167.355,-264.966 169.299,-271.691"/>
</g>
<!-- Node14 -->
<g id="node15" class="node"><title>Node14</title>
<g id="a_node15"><a xlink:href="../../d1/da1/namespacemom__bulk__mixed__layer.html#a071010a461d5ae9440b063aadf4e2f88" target="_top" xlink:title="mom_bulk_mixed_layer\l::mixedlayer_convection">
<polygon fill="white" stroke="black" points="170,-186.5 170,-216.5 292,-216.5 292,-186.5 170,-186.5"/>
<text text-anchor="start" x="178" y="-204.5" font-family="Helvetica,sans-Serif" font-size="10.00">mom_bulk_mixed_layer</text>
<text text-anchor="middle" x="231" y="-193.5" font-family="Helvetica,sans-Serif" font-size="10.00">::mixedlayer_convection</text>
</a>
</g>
</g>
<!-- Node0&#45;&gt;Node14 -->
<g id="edge15" class="edge"><title>Node0&#45;&gt;Node14</title>
<path fill="none" stroke="midnightblue" d="M76.3907,-284.485C94.2826,-268.265 124.814,-242.591 155,-226.5 159.171,-224.277 163.577,-222.199 168.079,-220.268"/>
<polygon fill="midnightblue" stroke="midnightblue" points="169.442,-223.493 177.412,-216.511 166.828,-216.999 169.442,-223.493"/>
</g>
<!-- Node15 -->
<g id="node16" class="node"><title>Node15</title>
<g id="a_node16"><a xlink:href="../../d1/da1/namespacemom__bulk__mixed__layer.html#ad9e6f68b38815279808b9fa52cfc6e65" target="_top" xlink:title="mom_bulk_mixed_layer\l::mixedlayer_detrain_1">
<polygon fill="white" stroke="black" points="171.5,-137.5 171.5,-167.5 290.5,-167.5 290.5,-137.5 171.5,-137.5"/>
<text text-anchor="start" x="179.5" y="-155.5" font-family="Helvetica,sans-Serif" font-size="10.00">mom_bulk_mixed_layer</text>
<text text-anchor="middle" x="231" y="-144.5" font-family="Helvetica,sans-Serif" font-size="10.00">::mixedlayer_detrain_1</text>
</a>
</g>
</g>
<!-- Node0&#45;&gt;Node15 -->
<g id="edge16" class="edge"><title>Node0&#45;&gt;Node15</title>
<path fill="none" stroke="midnightblue" d="M68.2635,-284.416C82.2073,-258.772 113.912,-206.632 155,-177.5 157.687,-175.595 160.53,-173.827 163.475,-172.188"/>
<polygon fill="midnightblue" stroke="midnightblue" points="165.184,-175.247 172.565,-167.646 162.055,-168.985 165.184,-175.247"/>
</g>
<!-- Node16 -->
<g id="node17" class="node"><title>Node16</title>
<g id="a_node17"><a xlink:href="../../d1/da1/namespacemom__bulk__mixed__layer.html#a46fd0f8d6109e0d4f7e4da971f2ab663" target="_top" xlink:title="mom_bulk_mixed_layer\l::mixedlayer_detrain_2">
<polygon fill="white" stroke="black" points="368.5,-142.5 368.5,-172.5 487.5,-172.5 487.5,-142.5 368.5,-142.5"/>
<text text-anchor="start" x="376.5" y="-160.5" font-family="Helvetica,sans-Serif" font-size="10.00">mom_bulk_mixed_layer</text>
<text text-anchor="middle" x="428" y="-149.5" font-family="Helvetica,sans-Serif" font-size="10.00">::mixedlayer_detrain_2</text>
</a>
</g>
</g>
<!-- Node0&#45;&gt;Node16 -->
<g id="edge17" class="edge"><title>Node0&#45;&gt;Node16</title>
<path fill="none" stroke="midnightblue" d="M63.5212,-284.271C71.3886,-249.227 96.1323,-163.227 155,-128.5 227.306,-85.846 329.449,-115.927 385.746,-138.631"/>
<polygon fill="midnightblue" stroke="midnightblue" points="384.464,-141.888 395.042,-142.482 387.143,-135.421 384.464,-141.888"/>
</g>
<!-- Node17 -->
<g id="node18" class="node"><title>Node17</title>
<g id="a_node18"><a xlink:href="../../d1/da1/namespacemom__bulk__mixed__layer.html#a1378659bc97b52e065a7cfe44166504d" target="_top" xlink:title="mom_bulk_mixed_layer\l::resort_ml">
<polygon fill="white" stroke="black" points="171.5,-49.5 171.5,-79.5 290.5,-79.5 290.5,-49.5 171.5,-49.5"/>
<text text-anchor="start" x="179.5" y="-67.5" font-family="Helvetica,sans-Serif" font-size="10.00">mom_bulk_mixed_layer</text>
<text text-anchor="middle" x="231" y="-56.5" font-family="Helvetica,sans-Serif" font-size="10.00">::resort_ml</text>
</a>
</g>
</g>
<!-- Node0&#45;&gt;Node17 -->
<g id="edge20" class="edge"><title>Node0&#45;&gt;Node17</title>
<path fill="none" stroke="midnightblue" d="M63.4382,-284.377C71.4428,-247.045 97.0339,-149.559 155,-94.5 159.004,-90.6971 163.55,-87.3544 168.377,-84.4202"/>
<polygon fill="midnightblue" stroke="midnightblue" points="170.195,-87.4158 177.314,-79.5687 166.855,-81.264 170.195,-87.4158"/>
</g>
<!-- Node18 -->
<g id="node19" class="node"><title>Node18</title>
<g id="a_node19"><a xlink:href="../../d1/da1/namespacemom__bulk__mixed__layer.html#ae4325155d260533b923ba910557945f3" target="_top" xlink:title="mom_bulk_mixed_layer\l::sort_ml">
<polygon fill="white" stroke="black" points="171.5,-0.5 171.5,-30.5 290.5,-30.5 290.5,-0.5 171.5,-0.5"/>
<text text-anchor="start" x="179.5" y="-18.5" font-family="Helvetica,sans-Serif" font-size="10.00">mom_bulk_mixed_layer</text>
<text text-anchor="middle" x="231" y="-7.5" font-family="Helvetica,sans-Serif" font-size="10.00">::sort_ml</text>
</a>
</g>
</g>
<!-- Node0&#45;&gt;Node18 -->
<g id="edge21" class="edge"><title>Node0&#45;&gt;Node18</title>
<path fill="none" stroke="midnightblue" d="M61.4892,-284.421C65.2054,-240.204 82.135,-109.583 155,-39.5 157.291,-37.2966 159.784,-35.2954 162.425,-33.478"/>
<polygon fill="midnightblue" stroke="midnightblue" points="164.435,-36.3561 171.288,-28.276 160.892,-30.319 164.435,-36.3561"/>
</g>
<!-- Node4 -->
<g id="node5" class="node"><title>Node4</title>
<g id="a_node5"><a xlink:href="../../d9/d06/namespacemom__diag__mediator.html#a6e11afe7a97bf8e3333d33b0aebd6f6e" target="_top" xlink:title="mom_diag_mediator::\lassert">
<polygon fill="white" stroke="black" points="373,-546.5 373,-576.5 483,-576.5 483,-546.5 373,-546.5"/>
<text text-anchor="start" x="381" y="-564.5" font-family="Helvetica,sans-Serif" font-size="10.00">mom_diag_mediator::</text>
<text text-anchor="middle" x="428" y="-553.5" font-family="Helvetica,sans-Serif" font-size="10.00">assert</text>
</a>
</g>
</g>
<!-- Node3&#45;&gt;Node4 -->
<g id="edge4" class="edge"><title>Node3&#45;&gt;Node4</title>
<path fill="none" stroke="midnightblue" d="M289.532,-478.512C295.709,-481.319 301.675,-484.622 307,-488.5 328.844,-504.409 320.815,-522.069 343,-537.5 349.078,-541.727 355.892,-545.215 362.94,-548.092"/>
<polygon fill="midnightblue" stroke="midnightblue" points="362.056,-551.495 372.65,-551.648 364.463,-544.922 362.056,-551.495"/>
</g>
<!-- Node7 -->
<g id="node8" class="node"><title>Node7</title>
<g id="a_node8"><a xlink:href="../../d7/d1b/namespacemom__regridding.html#a950bab51bc349d22e473a2b631a8a895" target="_top" xlink:title="This subroutine can be used to set many of the parameters for MOM_regridding. ">
<polygon fill="white" stroke="black" points="375.5,-497.5 375.5,-527.5 480.5,-527.5 480.5,-497.5 375.5,-497.5"/>
<text text-anchor="start" x="383.5" y="-515.5" font-family="Helvetica,sans-Serif" font-size="10.00">mom_regridding::set</text>
<text text-anchor="middle" x="428" y="-504.5" font-family="Helvetica,sans-Serif" font-size="10.00">_regrid_params</text>
</a>
</g>
</g>
<!-- Node3&#45;&gt;Node7 -->
<g id="edge7" class="edge"><title>Node3&#45;&gt;Node7</title>
<path fill="none" stroke="midnightblue" d="M291.832,-478.535C315.146,-484.393 341.857,-491.105 365.344,-497.007"/>
<polygon fill="midnightblue" stroke="midnightblue" points="364.641,-500.439 375.193,-499.482 366.347,-493.65 364.641,-500.439"/>
</g>
<!-- Node8 -->
<g id="node9" class="node"><title>Node8</title>
<g id="a_node9"><a xlink:href="../../d7/d1b/namespacemom__regridding.html#a1fe77f09d8e5ea5eae1a0cff087d5464" target="_top" xlink:title="Builds a z* coordinate with a minimum thickness. ">
<polygon fill="white" stroke="black" points="372,-448.5 372,-478.5 484,-478.5 484,-448.5 372,-448.5"/>
<text text-anchor="start" x="380" y="-466.5" font-family="Helvetica,sans-Serif" font-size="10.00">mom_regridding::build</text>
<text text-anchor="middle" x="428" y="-455.5" font-family="Helvetica,sans-Serif" font-size="10.00">_zstar_column</text>
</a>
</g>
</g>
<!-- Node3&#45;&gt;Node8 -->
<g id="edge8" class="edge"><title>Node3&#45;&gt;Node8</title>
<path fill="none" stroke="midnightblue" d="M293.699,-463.5C315.372,-463.5 339.786,-463.5 361.742,-463.5"/>
<polygon fill="midnightblue" stroke="midnightblue" points="361.968,-467 371.968,-463.5 361.968,-460 361.968,-467"/>
</g>
<!-- Node4&#45;&gt;Node5 -->
<g id="edge5" class="edge"><title>Node4&#45;&gt;Node5</title>
<path fill="none" stroke="midnightblue" d="M483.381,-552.435C493.905,-548.959 504.339,-544.151 513,-537.5 554.511,-505.625 580.532,-448.121 592.745,-415.278"/>
<polygon fill="midnightblue" stroke="midnightblue" points="596.154,-416.139 596.228,-405.545 589.563,-413.781 596.154,-416.139"/>
</g>
<!-- Node6 -->
<g id="node7" class="node"><title>Node6</title>
<g id="a_node7"><a xlink:href="../../d0/de6/namespacemom__error__handler.html#ad5f00a53059c72fe2332d1436c80ca71" target="_top" xlink:title="mom_error_handler::\lis_root_pe">
<polygon fill="white" stroke="black" points="691,-375.5 691,-405.5 797,-405.5 797,-375.5 691,-375.5"/>
<text text-anchor="start" x="699" y="-393.5" font-family="Helvetica,sans-Serif" font-size="10.00">mom_error_handler::</text>
<text text-anchor="middle" x="744" y="-382.5" font-family="Helvetica,sans-Serif" font-size="10.00">is_root_pe</text>
</a>
</g>
</g>
<!-- Node5&#45;&gt;Node6 -->
<g id="edge6" class="edge"><title>Node5&#45;&gt;Node6</title>
<path fill="none" stroke="midnightblue" d="M655.131,-390.5C663.421,-390.5 672.07,-390.5 680.568,-390.5"/>
<polygon fill="midnightblue" stroke="midnightblue" points="680.826,-394 690.826,-390.5 680.826,-387 680.826,-394"/>
</g>
<!-- Node10&#45;&gt;Node5 -->
<g id="edge11" class="edge"><title>Node10&#45;&gt;Node5</title>
<path fill="none" stroke="midnightblue" d="M487.712,-372.058C504.152,-374.734 522.077,-377.652 538.717,-380.361"/>
<polygon fill="midnightblue" stroke="midnightblue" points="538.455,-383.864 548.887,-382.017 539.58,-376.955 538.455,-383.864"/>
</g>
<!-- Node13 -->
<g id="node14" class="node"><title>Node13</title>
<g id="a_node14"><a xlink:href="../../d1/da1/namespacemom__bulk__mixed__layer.html#a98199335f3bf2b2153c35957d753b867" target="_top" xlink:title="mom_bulk_mixed_layer::ef4">
<polygon fill="white" stroke="black" points="358.5,-241 358.5,-260 497.5,-260 497.5,-241 358.5,-241"/>
<text text-anchor="middle" x="428" y="-248" font-family="Helvetica,sans-Serif" font-size="10.00">mom_bulk_mixed_layer::ef4</text>
</a>
</g>
</g>
<!-- Node12&#45;&gt;Node13 -->
<g id="edge14" class="edge"><title>Node12&#45;&gt;Node13</title>
<path fill="none" stroke="midnightblue" d="M295.042,-250.5C311.971,-250.5 330.491,-250.5 348.161,-250.5"/>
<polygon fill="midnightblue" stroke="midnightblue" points="348.449,-254 358.448,-250.5 348.448,-247 348.449,-254"/>
</g>
<!-- Node16&#45;&gt;Node5 -->
<g id="edge18" class="edge"><title>Node16&#45;&gt;Node5</title>
<path fill="none" stroke="midnightblue" d="M449.805,-172.542C468.005,-186.418 494.371,-208.323 513,-231.5 547.751,-274.734 576.275,-333.577 590.735,-366.198"/>
<polygon fill="midnightblue" stroke="midnightblue" points="587.557,-367.666 594.763,-375.434 593.974,-364.868 587.557,-367.666"/>
</g>
</g>
</svg>
