<?xml version="1.0" encoding="UTF-8" standalone="no"?>
<!DOCTYPE svg PUBLIC "-//W3C//DTD SVG 1.1//EN"
 "http://www.w3.org/Graphics/SVG/1.1/DTD/svg11.dtd">
<!-- Generated by graphviz version 2.38.0 (20140413.2041)
 -->
<!-- Title: mom_grid_initialize::set_grid_metrics_spherical Pages: 1 -->
<!--zoomable 140 -->
<svg id="main" version="1.1" xmlns="http://www.w3.org/2000/svg" xmlns:xlink="http://www.w3.org/1999/xlink" xml:space="preserve" onload="init(evt)">
<style type="text/css"><![CDATA[
.edge:hover path { stroke: red; }
.edge:hover polygon { stroke: red; fill: red; }
]]></style>
<script type="text/javascript"><![CDATA[
var edges = document.getElementsByTagName('g');
if (edges && edges.length) {
  for (var i=0;i<edges.length;i++) {
    if (edges[i].id.substr(0,4)=='edge') {
      edges[i].setAttribute('class','edge');
    }
  }
}
]]></script>
        <defs>
                <circle id="rim" cx="0" cy="0" r="7"/>
                <circle id="rim2" cx="0" cy="0" r="3.5"/>
                <g id="zoomPlus">
                        <use xlink:href="#rim" fill="#404040">
                                <set attributeName="fill" to="#808080" begin="zoomplus.mouseover" end="zoomplus.mouseout"/>
                        </use>
                        <path d="M-4,0h8M0,-4v8" fill="none" stroke="white" stroke-width="1.5" pointer-events="none"/>
                </g>
                <g id="zoomMin">
                        <use xlink:href="#rim" fill="#404040">
                                <set attributeName="fill" to="#808080" begin="zoomminus.mouseover" end="zoomminus.mouseout"/>
                        </use>
                        <path d="M-4,0h8" fill="none" stroke="white" stroke-width="1.5" pointer-events="none"/>
                </g>
                <g id="dirArrow">
                        <path fill="none" stroke="white" stroke-width="1.5" d="M0,-3.0v7 M-2.5,-0.5L0,-3.0L2.5,-0.5"/>
                </g>
               <g id="resetDef">
                       <use xlink:href="#rim2" fill="#404040">
                               <set attributeName="fill" to="#808080" begin="reset.mouseover" end="reset.mouseout"/>
                       </use>
               </g>
        </defs>

<script type="text/javascript">
var viewWidth = 544;
var viewHeight = 140;
var sectionId = 'dynsection-25';
</script>
<script xlink:href="../../svgpan.js"/>
<svg id="graph" class="graph">
<g id="viewport">
<title>mom_grid_initialize::set_grid_metrics_spherical</title>
<polygon fill="white" stroke="none" points="-4,4 -4,-136 540,-136 540,4 -4,4"/>
<!-- Node174 -->
<g id="node1" class="node"><title>Node174</title>
<polygon fill="#bfbfbf" stroke="black" points="0,-39 0,-69 139,-69 139,-39 0,-39"/>
<text text-anchor="start" x="8" y="-57" font-family="Helvetica,sans-Serif" font-size="10.00">mom_grid_initialize</text>
<text text-anchor="middle" x="69.5" y="-46" font-family="Helvetica,sans-Serif" font-size="10.00">::set_grid_metrics_spherical</text>
</g>
<!-- Node175 -->
<g id="node2" class="node"><title>Node175</title>
<g id="a_node2"><a xlink:href="../../d5/daa/namespacemom__grid__initialize.html#a235a9712823e2f78e4958e8d681b6ba4" target="_top" xlink:title="set_grid_metrics is used to set the primary values in the model&#39;s horizontal grid. The bathymetry, land&#45;sea mask and any restricted channel widths are not known yet, so these are set later. ">
<polygon fill="white" stroke="black" points="175,-39 175,-69 275,-69 275,-39 175,-39"/>
<text text-anchor="start" x="183" y="-57" font-family="Helvetica,sans-Serif" font-size="10.00">mom_grid_initialize</text>
<text text-anchor="middle" x="225" y="-46" font-family="Helvetica,sans-Serif" font-size="10.00">::set_grid_metrics</text>
</a>
</g>
</g>
<!-- Node174&#45;&gt;Node175 -->
<g id="edge1" class="edge"><title>Node174&#45;&gt;Node175</title>
<path fill="none" stroke="midnightblue" d="M149.308,-54C157.954,-54 166.565,-54 174.702,-54"/>
<polygon fill="midnightblue" stroke="midnightblue" points="149.169,-50.5001 139.169,-54 149.169,-57.5001 149.169,-50.5001"/>
</g>
<!-- Node176 -->
<g id="node3" class="node"><title>Node176</title>
<g id="a_node3"><a xlink:href="../../df/da2/namespacemom__ice__shelf.html#ae315e8464ef8a20062e3bccb61886755" target="_top" xlink:title="mom_ice_shelf::initialize\l_ice_shelf">
<polygon fill="white" stroke="black" points="311,-88 311,-118 435,-118 435,-88 311,-88"/>
<text text-anchor="start" x="319" y="-106" font-family="Helvetica,sans-Serif" font-size="10.00">mom_ice_shelf::initialize</text>
<text text-anchor="middle" x="373" y="-95" font-family="Helvetica,sans-Serif" font-size="10.00">_ice_shelf</text>
</a>
</g>
</g>
<!-- Node175&#45;&gt;Node176 -->
<g id="edge2" class="edge"><title>Node175&#45;&gt;Node176</title>
<path fill="none" stroke="midnightblue" d="M280.841,-72.4055C296.116,-77.5322 312.525,-83.0392 327.152,-87.9484"/>
<polygon fill="midnightblue" stroke="midnightblue" points="281.59,-68.9651 270.996,-69.1014 279.363,-75.6014 281.59,-68.9651"/>
</g>
<!-- Node179 -->
<g id="node6" class="node"><title>Node179</title>
<g id="a_node6"><a xlink:href="../../d3/da8/namespacemom__fixed__initialization.html#a6c1c054d9cda9f1bd11abba748614c92" target="_top" xlink:title="MOM_initialize_fixed sets up time&#45;invariant quantities related to MOM6&#39;s horizontal grid...">
<polygon fill="white" stroke="black" points="312.5,-39 312.5,-69 433.5,-69 433.5,-39 312.5,-39"/>
<text text-anchor="start" x="320.5" y="-57" font-family="Helvetica,sans-Serif" font-size="10.00">mom_fixed_initialization</text>
<text text-anchor="middle" x="373" y="-46" font-family="Helvetica,sans-Serif" font-size="10.00">::mom_initialize_fixed</text>
</a>
</g>
</g>
<!-- Node175&#45;&gt;Node179 -->
<g id="edge5" class="edge"><title>Node175&#45;&gt;Node179</title>
<path fill="none" stroke="midnightblue" d="M285.063,-54C294.095,-54 303.423,-54 312.466,-54"/>
<polygon fill="midnightblue" stroke="midnightblue" points="285.022,-50.5001 275.022,-54 285.022,-57.5001 285.022,-50.5001"/>
</g>
<!-- Node180 -->
<g id="node7" class="node"><title>Node180</title>
<g id="a_node7"><a xlink:href="../../d6/d48/MOM__sum__driver_8F90.html#a08fffeb2d8e8acbf9ed4609be6d258c6" target="_top" xlink:title="mom_main">
<polygon fill="white" stroke="black" points="340.5,-0.5 340.5,-19.5 405.5,-19.5 405.5,-0.5 340.5,-0.5"/>
<text text-anchor="middle" x="373" y="-7.5" font-family="Helvetica,sans-Serif" font-size="10.00">mom_main</text>
</a>
</g>
</g>
<!-- Node175&#45;&gt;Node180 -->
<g id="edge6" class="edge"><title>Node175&#45;&gt;Node180</title>
<path fill="none" stroke="midnightblue" d="M284.792,-36.2819C303.762,-30.565 324.063,-24.4469 340.3,-19.5533"/>
<polygon fill="midnightblue" stroke="midnightblue" points="283.587,-32.9895 275.022,-39.2262 285.607,-39.6918 283.587,-32.9895"/>
</g>
<!-- Node177 -->
<g id="node4" class="node"><title>Node177</title>
<g id="a_node4"><a xlink:href="../../d5/d6d/ice__shelf__driver_8F90.html#aec5bef92f0dad343f545cd8d62e378d8" target="_top" xlink:title="shelf_main">
<polygon fill="white" stroke="black" points="471.5,-112.5 471.5,-131.5 535.5,-131.5 535.5,-112.5 471.5,-112.5"/>
<text text-anchor="middle" x="503.5" y="-119.5" font-family="Helvetica,sans-Serif" font-size="10.00">shelf_main</text>
</a>
</g>
</g>
<!-- Node176&#45;&gt;Node177 -->
<g id="edge3" class="edge"><title>Node176&#45;&gt;Node177</title>
<path fill="none" stroke="midnightblue" d="M445.229,-113.532C454.399,-114.888 463.377,-116.215 471.404,-117.402"/>
<polygon fill="midnightblue" stroke="midnightblue" points="445.644,-110.055 435.239,-112.055 444.62,-116.98 445.644,-110.055"/>
</g>
<!-- Node178 -->
<g id="node5" class="node"><title>Node178</title>
<g id="a_node5"><a xlink:href="../../de/dbc/MOM__driver_8F90.html#a08fffeb2d8e8acbf9ed4609be6d258c6" target="_top" xlink:title="mom_main">
<polygon fill="white" stroke="black" points="471,-74.5 471,-93.5 536,-93.5 536,-74.5 471,-74.5"/>
<text text-anchor="middle" x="503.5" y="-81.5" font-family="Helvetica,sans-Serif" font-size="10.00">mom_main</text>
</a>
</g>
</g>
<!-- Node176&#45;&gt;Node178 -->
<g id="edge4" class="edge"><title>Node176&#45;&gt;Node178</title>
<path fill="none" stroke="midnightblue" d="M445.31,-92.456C454.195,-91.1424 462.897,-89.8558 470.726,-88.6982"/>
<polygon fill="midnightblue" stroke="midnightblue" points="444.62,-89.02 435.239,-93.9452 445.644,-95.9447 444.62,-89.02"/>
</g>
</g>
</svg>
        <g id="navigator" transform="translate(0 0)" fill="#404254">
                <rect fill="#f2f5e9" fill-opacity="0.5" stroke="#606060" stroke-width=".5" x="0" y="0" width="60" height="60"/>
                <use id="zoomplus" xlink:href="#zoomPlus" x="17" y="9" onmousedown="handleZoom(evt,'in')"/>
                <use id="zoomminus" xlink:href="#zoomMin" x="42" y="9" onmousedown="handleZoom(evt,'out')"/>
                <use id="reset" xlink:href="#resetDef" x="30" y="36" onmousedown="handleReset()"/>
                <g id="arrowUp" xlink:href="#dirArrow" transform="translate(30 24)" onmousedown="handlePan(0,-1)">
                  <use xlink:href="#rim" fill="#404040">
                        <set attributeName="fill" to="#808080" begin="arrowUp.mouseover" end="arrowUp.mouseout"/>
                  </use>
                  <path fill="none" stroke="white" stroke-width="1.5" d="M0,-3.0v7 M-2.5,-0.5L0,-3.0L2.5,-0.5"/>
                </g>
                <g id="arrowRight" xlink:href="#dirArrow" transform="rotate(90) translate(36 -43)" onmousedown="handlePan(1,0)">
                  <use xlink:href="#rim" fill="#404040">
                        <set attributeName="fill" to="#808080" begin="arrowRight.mouseover" end="arrowRight.mouseout"/>
                  </use>
                  <path fill="none" stroke="white" stroke-width="1.5" d="M0,-3.0v7 M-2.5,-0.5L0,-3.0L2.5,-0.5"/>
                </g>
                <g id="arrowDown" xlink:href="#dirArrow" transform="rotate(180) translate(-30 -48)" onmousedown="handlePan(0,1)">
                  <use xlink:href="#rim" fill="#404040">
                        <set attributeName="fill" to="#808080" begin="arrowDown.mouseover" end="arrowDown.mouseout"/>
                  </use>
                  <path fill="none" stroke="white" stroke-width="1.5" d="M0,-3.0v7 M-2.5,-0.5L0,-3.0L2.5,-0.5"/>
                </g>
                <g id="arrowLeft" xlink:href="#dirArrow" transform="rotate(270) translate(-36 17)" onmousedown="handlePan(-1,0)">
                  <use xlink:href="#rim" fill="#404040">
                        <set attributeName="fill" to="#808080" begin="arrowLeft.mouseover" end="arrowLeft.mouseout"/>
                  </use>
                  <path fill="none" stroke="white" stroke-width="1.5" d="M0,-3.0v7 M-2.5,-0.5L0,-3.0L2.5,-0.5"/>
                </g>
        </g>
        <svg viewBox="0 0 15 15" width="100%" height="30px" preserveAspectRatio="xMaxYMin meet">
         <g id="arrow_out" transform="scale(0.3 0.3)">
          <a xlink:href="namespacemom__grid__initialize_a3ede1d607f09115204c0ea0fbde5e9f8_icgraph_org.svg" target="_base">
           <rect id="button" ry="5" rx="5" y="6" x="6" height="38" width="38"
                fill="#f2f5e9" fill-opacity="0.5" stroke="#606060" stroke-width="1.0"/>
           <path id="arrow"
             d="M 11.500037,31.436501 C 11.940474,20.09759 22.043105,11.32322 32.158766,21.979434 L 37.068811,17.246167 C 37.068811,17.246167 37.088388,32 37.088388,32 L 22.160133,31.978069 C 22.160133,31.978069 26.997745,27.140456 26.997745,27.140456 C 18.528582,18.264221 13.291696,25.230495 11.500037,31.436501 z"
             style="fill:#404040;"/>
          </a>
         </g>
        </svg>
</svg>
