<?xml version="1.0" encoding="UTF-8" standalone="no"?>
<!DOCTYPE svg PUBLIC "-//W3C//DTD SVG 1.1//EN"
 "http://www.w3.org/Graphics/SVG/1.1/DTD/svg11.dtd">
<!-- Generated by graphviz version 2.38.0 (20140413.2041)
 -->
<!-- Title: mom_grid_initialize::set_grid_metrics_spherical Pages: 1 -->
<svg width="544pt" height="140pt"
 viewBox="0.00 0.00 544.00 140.00" xmlns="http://www.w3.org/2000/svg" xmlns:xlink="http://www.w3.org/1999/xlink">
<g id="graph0" class="graph" transform="scale(1 1) rotate(0) translate(4 136)">
<title>mom_grid_initialize::set_grid_metrics_spherical</title>
<polygon fill="white" stroke="none" points="-4,4 -4,-136 540,-136 540,4 -4,4"/>
<!-- Node174 -->
<g id="node1" class="node"><title>Node174</title>
<polygon fill="#bfbfbf" stroke="black" points="0,-39 0,-69 139,-69 139,-39 0,-39"/>
<text text-anchor="start" x="8" y="-57" font-family="Helvetica,sans-Serif" font-size="10.00">mom_grid_initialize</text>
<text text-anchor="middle" x="69.5" y="-46" font-family="Helvetica,sans-Serif" font-size="10.00">::set_grid_metrics_spherical</text>
</g>
<!-- Node175 -->
<g id="node2" class="node"><title>Node175</title>
<g id="a_node2"><a xlink:href="../../d5/daa/namespacemom__grid__initialize.html#a235a9712823e2f78e4958e8d681b6ba4" target="_top" xlink:title="set_grid_metrics is used to set the primary values in the model&#39;s horizontal grid. The bathymetry, land&#45;sea mask and any restricted channel widths are not known yet, so these are set later. ">
<polygon fill="white" stroke="black" points="175,-39 175,-69 275,-69 275,-39 175,-39"/>
<text text-anchor="start" x="183" y="-57" font-family="Helvetica,sans-Serif" font-size="10.00">mom_grid_initialize</text>
<text text-anchor="middle" x="225" y="-46" font-family="Helvetica,sans-Serif" font-size="10.00">::set_grid_metrics</text>
</a>
</g>
</g>
<!-- Node174&#45;&gt;Node175 -->
<g id="edge1" class="edge"><title>Node174&#45;&gt;Node175</title>
<path fill="none" stroke="midnightblue" d="M149.308,-54C157.954,-54 166.565,-54 174.702,-54"/>
<polygon fill="midnightblue" stroke="midnightblue" points="149.169,-50.5001 139.169,-54 149.169,-57.5001 149.169,-50.5001"/>
</g>
<!-- Node176 -->
<g id="node3" class="node"><title>Node176</title>
<g id="a_node3"><a xlink:href="../../df/da2/namespacemom__ice__shelf.html#ae315e8464ef8a20062e3bccb61886755" target="_top" xlink:title="mom_ice_shelf::initialize\l_ice_shelf">
<polygon fill="white" stroke="black" points="311,-88 311,-118 435,-118 435,-88 311,-88"/>
<text text-anchor="start" x="319" y="-106" font-family="Helvetica,sans-Serif" font-size="10.00">mom_ice_shelf::initialize</text>
<text text-anchor="middle" x="373" y="-95" font-family="Helvetica,sans-Serif" font-size="10.00">_ice_shelf</text>
</a>
</g>
</g>
<!-- Node175&#45;&gt;Node176 -->
<g id="edge2" class="edge"><title>Node175&#45;&gt;Node176</title>
<path fill="none" stroke="midnightblue" d="M280.841,-72.4055C296.116,-77.5322 312.525,-83.0392 327.152,-87.9484"/>
<polygon fill="midnightblue" stroke="midnightblue" points="281.59,-68.9651 270.996,-69.1014 279.363,-75.6014 281.59,-68.9651"/>
</g>
<!-- Node179 -->
<g id="node6" class="node"><title>Node179</title>
<g id="a_node6"><a xlink:href="../../d3/da8/namespacemom__fixed__initialization.html#a6c1c054d9cda9f1bd11abba748614c92" target="_top" xlink:title="MOM_initialize_fixed sets up time&#45;invariant quantities related to MOM6&#39;s horizontal grid...">
<polygon fill="white" stroke="black" points="312.5,-39 312.5,-69 433.5,-69 433.5,-39 312.5,-39"/>
<text text-anchor="start" x="320.5" y="-57" font-family="Helvetica,sans-Serif" font-size="10.00">mom_fixed_initialization</text>
<text text-anchor="middle" x="373" y="-46" font-family="Helvetica,sans-Serif" font-size="10.00">::mom_initialize_fixed</text>
</a>
</g>
</g>
<!-- Node175&#45;&gt;Node179 -->
<g id="edge5" class="edge"><title>Node175&#45;&gt;Node179</title>
<path fill="none" stroke="midnightblue" d="M285.063,-54C294.095,-54 303.423,-54 312.466,-54"/>
<polygon fill="midnightblue" stroke="midnightblue" points="285.022,-50.5001 275.022,-54 285.022,-57.5001 285.022,-50.5001"/>
</g>
<!-- Node180 -->
<g id="node7" class="node"><title>Node180</title>
<g id="a_node7"><a xlink:href="../../d6/d48/MOM__sum__driver_8F90.html#a08fffeb2d8e8acbf9ed4609be6d258c6" target="_top" xlink:title="mom_main">
<polygon fill="white" stroke="black" points="340.5,-0.5 340.5,-19.5 405.5,-19.5 405.5,-0.5 340.5,-0.5"/>
<text text-anchor="middle" x="373" y="-7.5" font-family="Helvetica,sans-Serif" font-size="10.00">mom_main</text>
</a>
</g>
</g>
<!-- Node175&#45;&gt;Node180 -->
<g id="edge6" class="edge"><title>Node175&#45;&gt;Node180</title>
<path fill="none" stroke="midnightblue" d="M284.792,-36.2819C303.762,-30.565 324.063,-24.4469 340.3,-19.5533"/>
<polygon fill="midnightblue" stroke="midnightblue" points="283.587,-32.9895 275.022,-39.2262 285.607,-39.6918 283.587,-32.9895"/>
</g>
<!-- Node177 -->
<g id="node4" class="node"><title>Node177</title>
<g id="a_node4"><a xlink:href="../../d5/d6d/ice__shelf__driver_8F90.html#aec5bef92f0dad343f545cd8d62e378d8" target="_top" xlink:title="shelf_main">
<polygon fill="white" stroke="black" points="471.5,-112.5 471.5,-131.5 535.5,-131.5 535.5,-112.5 471.5,-112.5"/>
<text text-anchor="middle" x="503.5" y="-119.5" font-family="Helvetica,sans-Serif" font-size="10.00">shelf_main</text>
</a>
</g>
</g>
<!-- Node176&#45;&gt;Node177 -->
<g id="edge3" class="edge"><title>Node176&#45;&gt;Node177</title>
<path fill="none" stroke="midnightblue" d="M445.229,-113.532C454.399,-114.888 463.377,-116.215 471.404,-117.402"/>
<polygon fill="midnightblue" stroke="midnightblue" points="445.644,-110.055 435.239,-112.055 444.62,-116.98 445.644,-110.055"/>
</g>
<!-- Node178 -->
<g id="node5" class="node"><title>Node178</title>
<g id="a_node5"><a xlink:href="../../de/dbc/MOM__driver_8F90.html#a08fffeb2d8e8acbf9ed4609be6d258c6" target="_top" xlink:title="mom_main">
<polygon fill="white" stroke="black" points="471,-74.5 471,-93.5 536,-93.5 536,-74.5 471,-74.5"/>
<text text-anchor="middle" x="503.5" y="-81.5" font-family="Helvetica,sans-Serif" font-size="10.00">mom_main</text>
</a>
</g>
</g>
<!-- Node176&#45;&gt;Node178 -->
<g id="edge4" class="edge"><title>Node176&#45;&gt;Node178</title>
<path fill="none" stroke="midnightblue" d="M445.31,-92.456C454.195,-91.1424 462.897,-89.8558 470.726,-88.6982"/>
<polygon fill="midnightblue" stroke="midnightblue" points="444.62,-89.02 435.239,-93.9452 445.644,-95.9447 444.62,-89.02"/>
</g>
</g>
</svg>
