<?xml version="1.0" encoding="UTF-8" standalone="no"?>
<!DOCTYPE svg PUBLIC "-//W3C//DTD SVG 1.1//EN"
 "http://www.w3.org/Graphics/SVG/1.1/DTD/svg11.dtd">
<!-- Generated by graphviz version 2.38.0 (20140413.2041)
 -->
<!-- Title: mom_grid_initialize::set_grid_metrics_mercator Pages: 1 -->
<!--zoomable 352 -->
<svg id="main" version="1.1" xmlns="http://www.w3.org/2000/svg" xmlns:xlink="http://www.w3.org/1999/xlink" xml:space="preserve" onload="init(evt)">
<style type="text/css"><![CDATA[
.edge:hover path { stroke: red; }
.edge:hover polygon { stroke: red; fill: red; }
]]></style>
<script type="text/javascript"><![CDATA[
var edges = document.getElementsByTagName('g');
if (edges && edges.length) {
  for (var i=0;i<edges.length;i++) {
    if (edges[i].id.substr(0,4)=='edge') {
      edges[i].setAttribute('class','edge');
    }
  }
}
]]></script>
        <defs>
                <circle id="rim" cx="0" cy="0" r="7"/>
                <circle id="rim2" cx="0" cy="0" r="3.5"/>
                <g id="zoomPlus">
                        <use xlink:href="#rim" fill="#404040">
                                <set attributeName="fill" to="#808080" begin="zoomplus.mouseover" end="zoomplus.mouseout"/>
                        </use>
                        <path d="M-4,0h8M0,-4v8" fill="none" stroke="white" stroke-width="1.5" pointer-events="none"/>
                </g>
                <g id="zoomMin">
                        <use xlink:href="#rim" fill="#404040">
                                <set attributeName="fill" to="#808080" begin="zoomminus.mouseover" end="zoomminus.mouseout"/>
                        </use>
                        <path d="M-4,0h8" fill="none" stroke="white" stroke-width="1.5" pointer-events="none"/>
                </g>
                <g id="dirArrow">
                        <path fill="none" stroke="white" stroke-width="1.5" d="M0,-3.0v7 M-2.5,-0.5L0,-3.0L2.5,-0.5"/>
                </g>
               <g id="resetDef">
                       <use xlink:href="#rim2" fill="#404040">
                               <set attributeName="fill" to="#808080" begin="reset.mouseover" end="reset.mouseout"/>
                       </use>
               </g>
        </defs>

<script type="text/javascript">
var viewWidth = 579;
var viewHeight = 352;
var sectionId = 'dynsection-22';
</script>
<script xlink:href="../../svgpan.js"/>
<svg id="graph" class="graph">
<g id="viewport">
<title>mom_grid_initialize::set_grid_metrics_mercator</title>
<polygon fill="white" stroke="none" points="-4,4 -4,-347.5 575,-347.5 575,4 -4,4"/>
<!-- Node153 -->
<g id="node1" class="node"><title>Node153</title>
<polygon fill="#bfbfbf" stroke="black" points="0,-164.5 0,-194.5 138,-194.5 138,-164.5 0,-164.5"/>
<text text-anchor="start" x="8" y="-182.5" font-family="Helvetica,sans-Serif" font-size="10.00">mom_grid_initialize</text>
<text text-anchor="middle" x="69" y="-171.5" font-family="Helvetica,sans-Serif" font-size="10.00">::set_grid_metrics_mercator</text>
</g>
<!-- Node154 -->
<g id="node2" class="node"><title>Node154</title>
<g id="a_node2"><a xlink:href="../../d5/daa/namespacemom__grid__initialize.html#aac9e8e21e95ba01e853569e3060ee8d3" target="_top" xlink:title="mom_grid_initialize::dl">
<polygon fill="white" stroke="black" points="174,-324 174,-343 287,-343 287,-324 174,-324"/>
<text text-anchor="middle" x="230.5" y="-331" font-family="Helvetica,sans-Serif" font-size="10.00">mom_grid_initialize::dl</text>
</a>
</g>
</g>
<!-- Node153&#45;&gt;Node154 -->
<g id="edge1" class="edge"><title>Node153&#45;&gt;Node154</title>
<path fill="none" stroke="midnightblue" d="M77.8279,-194.821C92.788,-222.629 128.078,-281.569 174,-314.5 176.69,-316.429 179.591,-318.174 182.607,-319.752"/>
<polygon fill="midnightblue" stroke="midnightblue" points="181.35,-323.025 191.901,-323.995 184.258,-316.658 181.35,-323.025"/>
</g>
<!-- Node155 -->
<g id="node3" class="node"><title>Node155</title>
<g id="a_node3"><a xlink:href="../../d5/daa/namespacemom__grid__initialize.html#a5a50815c6d1d0948dfbae076da654b94" target="_top" xlink:title="mom_grid_initialize\l::ds_di">
<polygon fill="white" stroke="black" points="180.5,-274.5 180.5,-304.5 280.5,-304.5 280.5,-274.5 180.5,-274.5"/>
<text text-anchor="start" x="188.5" y="-292.5" font-family="Helvetica,sans-Serif" font-size="10.00">mom_grid_initialize</text>
<text text-anchor="middle" x="230.5" y="-281.5" font-family="Helvetica,sans-Serif" font-size="10.00">::ds_di</text>
</a>
</g>
</g>
<!-- Node153&#45;&gt;Node155 -->
<g id="edge2" class="edge"><title>Node153&#45;&gt;Node155</title>
<path fill="none" stroke="midnightblue" d="M87.7625,-194.578C107.968,-211.389 142.28,-238.916 174,-259.5 179.306,-262.943 185.042,-266.36 190.745,-269.586"/>
<polygon fill="midnightblue" stroke="midnightblue" points="189.165,-272.712 199.612,-274.477 192.546,-266.582 189.165,-272.712"/>
</g>
<!-- Node156 -->
<g id="node4" class="node"><title>Node156</title>
<g id="a_node4"><a xlink:href="../../d5/daa/namespacemom__grid__initialize.html#afa76ec84052508b78fde53cd6ed70161" target="_top" xlink:title="mom_grid_initialize\l::dx_di">
<polygon fill="white" stroke="black" points="326,-241.5 326,-271.5 426,-271.5 426,-241.5 326,-241.5"/>
<text text-anchor="start" x="334" y="-259.5" font-family="Helvetica,sans-Serif" font-size="10.00">mom_grid_initialize</text>
<text text-anchor="middle" x="376" y="-248.5" font-family="Helvetica,sans-Serif" font-size="10.00">::dx_di</text>
</a>
</g>
</g>
<!-- Node153&#45;&gt;Node156 -->
<g id="edge6" class="edge"><title>Node153&#45;&gt;Node156</title>
<path fill="none" stroke="midnightblue" d="M97.8808,-194.656C118.372,-205.154 147.2,-218.61 174,-226.5 220.647,-240.233 275.324,-247.874 315.866,-252.003"/>
<polygon fill="midnightblue" stroke="midnightblue" points="315.562,-255.489 325.855,-252.978 316.243,-248.523 315.562,-255.489"/>
</g>
<!-- Node157 -->
<g id="node5" class="node"><title>Node157</title>
<g id="a_node5"><a xlink:href="../../d5/daa/namespacemom__grid__initialize.html#aaa3a376606d5067107c3a43beb6f8032" target="_top" xlink:title="mom_grid_initialize\l::ds_dj">
<polygon fill="white" stroke="black" points="180.5,-186.5 180.5,-216.5 280.5,-216.5 280.5,-186.5 180.5,-186.5"/>
<text text-anchor="start" x="188.5" y="-204.5" font-family="Helvetica,sans-Serif" font-size="10.00">mom_grid_initialize</text>
<text text-anchor="middle" x="230.5" y="-193.5" font-family="Helvetica,sans-Serif" font-size="10.00">::ds_dj</text>
</a>
</g>
</g>
<!-- Node153&#45;&gt;Node157 -->
<g id="edge4" class="edge"><title>Node153&#45;&gt;Node157</title>
<path fill="none" stroke="midnightblue" d="M138.105,-188.894C148.885,-190.381 159.954,-191.908 170.504,-193.363"/>
<polygon fill="midnightblue" stroke="midnightblue" points="170.047,-196.833 180.432,-194.732 171.004,-189.898 170.047,-196.833"/>
</g>
<!-- Node158 -->
<g id="node6" class="node"><title>Node158</title>
<g id="a_node6"><a xlink:href="../../d5/daa/namespacemom__grid__initialize.html#aff493c70cca560bfefcdbfabdf778656" target="_top" xlink:title="mom_grid_initialize\l::dy_dj">
<polygon fill="white" stroke="black" points="326,-175.5 326,-205.5 426,-205.5 426,-175.5 326,-175.5"/>
<text text-anchor="start" x="334" y="-193.5" font-family="Helvetica,sans-Serif" font-size="10.00">mom_grid_initialize</text>
<text text-anchor="middle" x="376" y="-182.5" font-family="Helvetica,sans-Serif" font-size="10.00">::dy_dj</text>
</a>
</g>
</g>
<!-- Node153&#45;&gt;Node158 -->
<g id="edge7" class="edge"><title>Node153&#45;&gt;Node158</title>
<path fill="none" stroke="midnightblue" d="M138.021,-175.999C180.833,-174.507 237.215,-173.843 287,-177.5 296.374,-178.189 306.264,-179.285 315.895,-180.555"/>
<polygon fill="midnightblue" stroke="midnightblue" points="315.419,-184.023 325.806,-181.933 316.383,-177.089 315.419,-184.023"/>
</g>
<!-- Node159 -->
<g id="node7" class="node"><title>Node159</title>
<g id="a_node7"><a xlink:href="../../d5/daa/namespacemom__grid__initialize.html#a25cb0001f061ef10b90e637f98ed9fcc" target="_top" xlink:title="mom_grid_initialize\l::find_root">
<polygon fill="white" stroke="black" points="180.5,-98.5 180.5,-128.5 280.5,-128.5 280.5,-98.5 180.5,-98.5"/>
<text text-anchor="start" x="188.5" y="-116.5" font-family="Helvetica,sans-Serif" font-size="10.00">mom_grid_initialize</text>
<text text-anchor="middle" x="230.5" y="-105.5" font-family="Helvetica,sans-Serif" font-size="10.00">::find_root</text>
</a>
</g>
</g>
<!-- Node153&#45;&gt;Node159 -->
<g id="edge8" class="edge"><title>Node153&#45;&gt;Node159</title>
<path fill="none" stroke="midnightblue" d="M106.593,-164.358C129.489,-154.884 159.178,-142.599 183.64,-132.476"/>
<polygon fill="midnightblue" stroke="midnightblue" points="185.176,-135.629 193.078,-128.571 182.499,-129.161 185.176,-135.629"/>
</g>
<!-- Node162 -->
<g id="node10" class="node"><title>Node162</title>
<g id="a_node10"><a xlink:href="../../d5/daa/namespacemom__grid__initialize.html#aee53e3cf4937fa86949aa376d5f3d82a" target="_top" xlink:title="mom_grid_initialize\l::int_di_dx">
<polygon fill="white" stroke="black" points="180.5,-49.5 180.5,-79.5 280.5,-79.5 280.5,-49.5 180.5,-49.5"/>
<text text-anchor="start" x="188.5" y="-67.5" font-family="Helvetica,sans-Serif" font-size="10.00">mom_grid_initialize</text>
<text text-anchor="middle" x="230.5" y="-56.5" font-family="Helvetica,sans-Serif" font-size="10.00">::int_di_dx</text>
</a>
</g>
</g>
<!-- Node153&#45;&gt;Node162 -->
<g id="edge11" class="edge"><title>Node153&#45;&gt;Node162</title>
<path fill="none" stroke="midnightblue" d="M84.7287,-164.264C103.93,-145.017 139.184,-111.732 174,-89.5 176.893,-87.6524 179.946,-85.8712 183.071,-84.1692"/>
<polygon fill="midnightblue" stroke="midnightblue" points="184.695,-87.2699 191.997,-79.5933 181.502,-81.0407 184.695,-87.2699"/>
</g>
<!-- Node163 -->
<g id="node11" class="node"><title>Node163</title>
<g id="a_node11"><a xlink:href="../../d5/daa/namespacemom__grid__initialize.html#a8ed056787130f21f4b9c1bc81bd60c50" target="_top" xlink:title="mom_grid_initialize\l::int_dj_dy">
<polygon fill="white" stroke="black" points="180.5,-0.5 180.5,-30.5 280.5,-30.5 280.5,-0.5 180.5,-0.5"/>
<text text-anchor="start" x="188.5" y="-18.5" font-family="Helvetica,sans-Serif" font-size="10.00">mom_grid_initialize</text>
<text text-anchor="middle" x="230.5" y="-7.5" font-family="Helvetica,sans-Serif" font-size="10.00">::int_dj_dy</text>
</a>
</g>
</g>
<!-- Node153&#45;&gt;Node163 -->
<g id="edge12" class="edge"><title>Node153&#45;&gt;Node163</title>
<path fill="none" stroke="midnightblue" d="M78.0233,-164.132C93.3012,-136.162 129.089,-76.5101 174,-40.5 176.056,-38.8515 178.238,-37.2868 180.502,-35.8055"/>
<polygon fill="midnightblue" stroke="midnightblue" points="182.691,-38.5794 189.548,-30.5029 179.151,-32.5404 182.691,-38.5794"/>
</g>
<!-- Node155&#45;&gt;Node156 -->
<g id="edge3" class="edge"><title>Node155&#45;&gt;Node156</title>
<path fill="none" stroke="midnightblue" d="M280.885,-278.143C292.046,-275.577 304.01,-272.825 315.537,-270.174"/>
<polygon fill="midnightblue" stroke="midnightblue" points="316.563,-273.53 325.524,-267.878 314.994,-266.708 316.563,-273.53"/>
</g>
<!-- Node157&#45;&gt;Node158 -->
<g id="edge5" class="edge"><title>Node157&#45;&gt;Node158</title>
<path fill="none" stroke="midnightblue" d="M280.885,-197.714C292.046,-196.859 304.01,-195.942 315.537,-195.058"/>
<polygon fill="midnightblue" stroke="midnightblue" points="315.821,-198.547 325.524,-194.293 315.286,-191.567 315.821,-198.547"/>
</g>
<!-- Node160 -->
<g id="node8" class="node"><title>Node160</title>
<g id="a_node8"><a xlink:href="../../d0/de6/namespacemom__error__handler.html#a460cfb79a06c29fc249952c2a3710d67" target="_top" xlink:title="mom_error_handler::\lmom_error">
<polygon fill="white" stroke="black" points="323,-98.5 323,-128.5 429,-128.5 429,-98.5 323,-98.5"/>
<text text-anchor="start" x="331" y="-116.5" font-family="Helvetica,sans-Serif" font-size="10.00">mom_error_handler::</text>
<text text-anchor="middle" x="376" y="-105.5" font-family="Helvetica,sans-Serif" font-size="10.00">mom_error</text>
</a>
</g>
</g>
<!-- Node159&#45;&gt;Node160 -->
<g id="edge9" class="edge"><title>Node159&#45;&gt;Node160</title>
<path fill="none" stroke="midnightblue" d="M280.885,-113.5C291.083,-113.5 301.952,-113.5 312.546,-113.5"/>
<polygon fill="midnightblue" stroke="midnightblue" points="312.587,-117 322.587,-113.5 312.587,-110 312.587,-117"/>
</g>
<!-- Node161 -->
<g id="node9" class="node"><title>Node161</title>
<g id="a_node9"><a xlink:href="../../d0/de6/namespacemom__error__handler.html#ad5f00a53059c72fe2332d1436c80ca71" target="_top" xlink:title="mom_error_handler::\lis_root_pe">
<polygon fill="white" stroke="black" points="465,-98.5 465,-128.5 571,-128.5 571,-98.5 465,-98.5"/>
<text text-anchor="start" x="473" y="-116.5" font-family="Helvetica,sans-Serif" font-size="10.00">mom_error_handler::</text>
<text text-anchor="middle" x="518" y="-105.5" font-family="Helvetica,sans-Serif" font-size="10.00">is_root_pe</text>
</a>
</g>
</g>
<!-- Node160&#45;&gt;Node161 -->
<g id="edge10" class="edge"><title>Node160&#45;&gt;Node161</title>
<path fill="none" stroke="midnightblue" d="M429.131,-113.5C437.421,-113.5 446.07,-113.5 454.568,-113.5"/>
<polygon fill="midnightblue" stroke="midnightblue" points="454.826,-117 464.826,-113.5 454.826,-110 454.826,-117"/>
</g>
</g>
</svg>
        <g id="navigator" transform="translate(0 0)" fill="#404254">
                <rect fill="#f2f5e9" fill-opacity="0.5" stroke="#606060" stroke-width=".5" x="0" y="0" width="60" height="60"/>
                <use id="zoomplus" xlink:href="#zoomPlus" x="17" y="9" onmousedown="handleZoom(evt,'in')"/>
                <use id="zoomminus" xlink:href="#zoomMin" x="42" y="9" onmousedown="handleZoom(evt,'out')"/>
                <use id="reset" xlink:href="#resetDef" x="30" y="36" onmousedown="handleReset()"/>
                <g id="arrowUp" xlink:href="#dirArrow" transform="translate(30 24)" onmousedown="handlePan(0,-1)">
                  <use xlink:href="#rim" fill="#404040">
                        <set attributeName="fill" to="#808080" begin="arrowUp.mouseover" end="arrowUp.mouseout"/>
                  </use>
                  <path fill="none" stroke="white" stroke-width="1.5" d="M0,-3.0v7 M-2.5,-0.5L0,-3.0L2.5,-0.5"/>
                </g>
                <g id="arrowRight" xlink:href="#dirArrow" transform="rotate(90) translate(36 -43)" onmousedown="handlePan(1,0)">
                  <use xlink:href="#rim" fill="#404040">
                        <set attributeName="fill" to="#808080" begin="arrowRight.mouseover" end="arrowRight.mouseout"/>
                  </use>
                  <path fill="none" stroke="white" stroke-width="1.5" d="M0,-3.0v7 M-2.5,-0.5L0,-3.0L2.5,-0.5"/>
                </g>
                <g id="arrowDown" xlink:href="#dirArrow" transform="rotate(180) translate(-30 -48)" onmousedown="handlePan(0,1)">
                  <use xlink:href="#rim" fill="#404040">
                        <set attributeName="fill" to="#808080" begin="arrowDown.mouseover" end="arrowDown.mouseout"/>
                  </use>
                  <path fill="none" stroke="white" stroke-width="1.5" d="M0,-3.0v7 M-2.5,-0.5L0,-3.0L2.5,-0.5"/>
                </g>
                <g id="arrowLeft" xlink:href="#dirArrow" transform="rotate(270) translate(-36 17)" onmousedown="handlePan(-1,0)">
                  <use xlink:href="#rim" fill="#404040">
                        <set attributeName="fill" to="#808080" begin="arrowLeft.mouseover" end="arrowLeft.mouseout"/>
                  </use>
                  <path fill="none" stroke="white" stroke-width="1.5" d="M0,-3.0v7 M-2.5,-0.5L0,-3.0L2.5,-0.5"/>
                </g>
        </g>
        <svg viewBox="0 0 15 15" width="100%" height="30px" preserveAspectRatio="xMaxYMin meet">
         <g id="arrow_out" transform="scale(0.3 0.3)">
          <a xlink:href="namespacemom__grid__initialize_ac37d98379b33a9e95d0bbffc1d7a730f_cgraph_org.svg" target="_base">
           <rect id="button" ry="5" rx="5" y="6" x="6" height="38" width="38"
                fill="#f2f5e9" fill-opacity="0.5" stroke="#606060" stroke-width="1.0"/>
           <path id="arrow"
             d="M 11.500037,31.436501 C 11.940474,20.09759 22.043105,11.32322 32.158766,21.979434 L 37.068811,17.246167 C 37.068811,17.246167 37.088388,32 37.088388,32 L 22.160133,31.978069 C 22.160133,31.978069 26.997745,27.140456 26.997745,27.140456 C 18.528582,18.264221 13.291696,25.230495 11.500037,31.436501 z"
             style="fill:#404040;"/>
          </a>
         </g>
        </svg>
</svg>
