<?xml version="1.0" encoding="UTF-8" standalone="no"?>
<!DOCTYPE svg PUBLIC "-//W3C//DTD SVG 1.1//EN"
 "http://www.w3.org/Graphics/SVG/1.1/DTD/svg11.dtd">
<!-- Generated by graphviz version 2.38.0 (20140413.2041)
 -->
<!-- Title: mom_grid_initialize::dx_di Pages: 1 -->
<!--zoomable 127 -->
<svg id="main" version="1.1" xmlns="http://www.w3.org/2000/svg" xmlns:xlink="http://www.w3.org/1999/xlink" xml:space="preserve" onload="init(evt)">
<style type="text/css"><![CDATA[
.edge:hover path { stroke: red; }
.edge:hover polygon { stroke: red; fill: red; }
]]></style>
<script type="text/javascript"><![CDATA[
var edges = document.getElementsByTagName('g');
if (edges && edges.length) {
  for (var i=0;i<edges.length;i++) {
    if (edges[i].id.substr(0,4)=='edge') {
      edges[i].setAttribute('class','edge');
    }
  }
}
]]></script>
        <defs>
                <circle id="rim" cx="0" cy="0" r="7"/>
                <circle id="rim2" cx="0" cy="0" r="3.5"/>
                <g id="zoomPlus">
                        <use xlink:href="#rim" fill="#404040">
                                <set attributeName="fill" to="#808080" begin="zoomplus.mouseover" end="zoomplus.mouseout"/>
                        </use>
                        <path d="M-4,0h8M0,-4v8" fill="none" stroke="white" stroke-width="1.5" pointer-events="none"/>
                </g>
                <g id="zoomMin">
                        <use xlink:href="#rim" fill="#404040">
                                <set attributeName="fill" to="#808080" begin="zoomminus.mouseover" end="zoomminus.mouseout"/>
                        </use>
                        <path d="M-4,0h8" fill="none" stroke="white" stroke-width="1.5" pointer-events="none"/>
                </g>
                <g id="dirArrow">
                        <path fill="none" stroke="white" stroke-width="1.5" d="M0,-3.0v7 M-2.5,-0.5L0,-3.0L2.5,-0.5"/>
                </g>
               <g id="resetDef">
                       <use xlink:href="#rim2" fill="#404040">
                               <set attributeName="fill" to="#808080" begin="reset.mouseover" end="reset.mouseout"/>
                       </use>
               </g>
        </defs>

<script type="text/javascript">
var viewWidth = 815;
var viewHeight = 127;
var sectionId = 'dynsection-6';
</script>
<script xlink:href="../../svgpan.js"/>
<svg id="graph" class="graph">
<g id="viewport">
<title>mom_grid_initialize::dx_di</title>
<polygon fill="white" stroke="none" points="-4,4 -4,-122.5 811,-122.5 811,4 -4,4"/>
<!-- Node34 -->
<g id="node1" class="node"><title>Node34</title>
<polygon fill="#bfbfbf" stroke="black" points="0,-49.5 0,-79.5 100,-79.5 100,-49.5 0,-49.5"/>
<text text-anchor="start" x="8" y="-67.5" font-family="Helvetica,sans-Serif" font-size="10.00">mom_grid_initialize</text>
<text text-anchor="middle" x="50" y="-56.5" font-family="Helvetica,sans-Serif" font-size="10.00">::dx_di</text>
</g>
<!-- Node35 -->
<g id="node2" class="node"><title>Node35</title>
<g id="a_node2"><a xlink:href="../../d5/daa/namespacemom__grid__initialize.html#a5a50815c6d1d0948dfbae076da654b94" target="_top" xlink:title="mom_grid_initialize\l::ds_di">
<polygon fill="white" stroke="black" points="136,-71.5 136,-101.5 236,-101.5 236,-71.5 136,-71.5"/>
<text text-anchor="start" x="144" y="-89.5" font-family="Helvetica,sans-Serif" font-size="10.00">mom_grid_initialize</text>
<text text-anchor="middle" x="186" y="-78.5" font-family="Helvetica,sans-Serif" font-size="10.00">::ds_di</text>
</a>
</g>
</g>
<!-- Node34&#45;&gt;Node35 -->
<g id="edge1" class="edge"><title>Node34&#45;&gt;Node35</title>
<path fill="none" stroke="midnightblue" d="M110.117,-74.2058C118.718,-75.618 127.495,-77.0589 135.87,-78.4339"/>
<polygon fill="midnightblue" stroke="midnightblue" points="110.571,-70.7335 100.136,-72.5671 109.437,-77.641 110.571,-70.7335"/>
</g>
<!-- Node36 -->
<g id="node3" class="node"><title>Node36</title>
<g id="a_node3"><a xlink:href="../../d5/daa/namespacemom__grid__initialize.html#ac37d98379b33a9e95d0bbffc1d7a730f" target="_top" xlink:title="mom_grid_initialize\l::set_grid_metrics_mercator">
<polygon fill="white" stroke="black" points="272,-49.5 272,-79.5 410,-79.5 410,-49.5 272,-49.5"/>
<text text-anchor="start" x="280" y="-67.5" font-family="Helvetica,sans-Serif" font-size="10.00">mom_grid_initialize</text>
<text text-anchor="middle" x="341" y="-56.5" font-family="Helvetica,sans-Serif" font-size="10.00">::set_grid_metrics_mercator</text>
</a>
</g>
</g>
<!-- Node34&#45;&gt;Node36 -->
<g id="edge9" class="edge"><title>Node34&#45;&gt;Node36</title>
<path fill="none" stroke="midnightblue" d="M110.69,-62.1272C119.184,-61.8671 127.813,-61.6444 136,-61.5 180.438,-60.7161 191.56,-60.8592 236,-61.5 247.559,-61.6667 259.839,-61.9375 271.756,-62.25"/>
<polygon fill="midnightblue" stroke="midnightblue" points="110.315,-58.6375 100.433,-62.4605 110.542,-65.6338 110.315,-58.6375"/>
</g>
<!-- Node35&#45;&gt;Node36 -->
<g id="edge2" class="edge"><title>Node35&#45;&gt;Node36</title>
<path fill="none" stroke="midnightblue" d="M246.302,-77.9728C254.684,-76.7677 263.355,-75.5208 271.886,-74.2942"/>
<polygon fill="midnightblue" stroke="midnightblue" points="245.652,-74.5302 236.252,-79.418 246.649,-81.459 245.652,-74.5302"/>
</g>
<!-- Node37 -->
<g id="node4" class="node"><title>Node37</title>
<g id="a_node4"><a xlink:href="../../d5/daa/namespacemom__grid__initialize.html#a235a9712823e2f78e4958e8d681b6ba4" target="_top" xlink:title="set_grid_metrics is used to set the primary values in the model&#39;s horizontal grid. The bathymetry, land&#45;sea mask and any restricted channel widths are not known yet, so these are set later. ">
<polygon fill="white" stroke="black" points="446,-49.5 446,-79.5 546,-79.5 546,-49.5 446,-49.5"/>
<text text-anchor="start" x="454" y="-67.5" font-family="Helvetica,sans-Serif" font-size="10.00">mom_grid_initialize</text>
<text text-anchor="middle" x="496" y="-56.5" font-family="Helvetica,sans-Serif" font-size="10.00">::set_grid_metrics</text>
</a>
</g>
</g>
<!-- Node36&#45;&gt;Node37 -->
<g id="edge3" class="edge"><title>Node36&#45;&gt;Node37</title>
<path fill="none" stroke="midnightblue" d="M420.551,-64.5C429.169,-64.5 437.752,-64.5 445.863,-64.5"/>
<polygon fill="midnightblue" stroke="midnightblue" points="420.445,-61.0001 410.445,-64.5 420.445,-68.0001 420.445,-61.0001"/>
</g>
<!-- Node38 -->
<g id="node5" class="node"><title>Node38</title>
<g id="a_node5"><a xlink:href="../../d6/d48/MOM__sum__driver_8F90.html#a08fffeb2d8e8acbf9ed4609be6d258c6" target="_top" xlink:title="mom_main">
<polygon fill="white" stroke="black" points="611.5,-99 611.5,-118 676.5,-118 676.5,-99 611.5,-99"/>
<text text-anchor="middle" x="644" y="-106" font-family="Helvetica,sans-Serif" font-size="10.00">mom_main</text>
</a>
</g>
</g>
<!-- Node37&#45;&gt;Node38 -->
<g id="edge4" class="edge"><title>Node37&#45;&gt;Node38</title>
<path fill="none" stroke="midnightblue" d="M555.792,-82.2181C574.762,-87.935 595.063,-94.0531 611.3,-98.9467"/>
<polygon fill="midnightblue" stroke="midnightblue" points="556.607,-78.8082 546.022,-79.2738 554.587,-85.5105 556.607,-78.8082"/>
</g>
<!-- Node39 -->
<g id="node6" class="node"><title>Node39</title>
<g id="a_node6"><a xlink:href="../../df/da2/namespacemom__ice__shelf.html#ae315e8464ef8a20062e3bccb61886755" target="_top" xlink:title="mom_ice_shelf::initialize\l_ice_shelf">
<polygon fill="white" stroke="black" points="582,-49.5 582,-79.5 706,-79.5 706,-49.5 582,-49.5"/>
<text text-anchor="start" x="590" y="-67.5" font-family="Helvetica,sans-Serif" font-size="10.00">mom_ice_shelf::initialize</text>
<text text-anchor="middle" x="644" y="-56.5" font-family="Helvetica,sans-Serif" font-size="10.00">_ice_shelf</text>
</a>
</g>
</g>
<!-- Node37&#45;&gt;Node39 -->
<g id="edge5" class="edge"><title>Node37&#45;&gt;Node39</title>
<path fill="none" stroke="midnightblue" d="M556.2,-64.5C564.675,-64.5 573.408,-64.5 581.918,-64.5"/>
<polygon fill="midnightblue" stroke="midnightblue" points="556.022,-61.0001 546.022,-64.5 556.022,-68.0001 556.022,-61.0001"/>
</g>
<!-- Node42 -->
<g id="node9" class="node"><title>Node42</title>
<g id="a_node9"><a xlink:href="../../d3/da8/namespacemom__fixed__initialization.html#a6c1c054d9cda9f1bd11abba748614c92" target="_top" xlink:title="MOM_initialize_fixed sets up time&#45;invariant quantities related to MOM6&#39;s horizontal grid...">
<polygon fill="white" stroke="black" points="583.5,-0.5 583.5,-30.5 704.5,-30.5 704.5,-0.5 583.5,-0.5"/>
<text text-anchor="start" x="591.5" y="-18.5" font-family="Helvetica,sans-Serif" font-size="10.00">mom_fixed_initialization</text>
<text text-anchor="middle" x="644" y="-7.5" font-family="Helvetica,sans-Serif" font-size="10.00">::mom_initialize_fixed</text>
</a>
</g>
</g>
<!-- Node37&#45;&gt;Node42 -->
<g id="edge8" class="edge"><title>Node37&#45;&gt;Node42</title>
<path fill="none" stroke="midnightblue" d="M551.841,-46.0945C567.116,-40.9678 583.525,-35.4608 598.152,-30.5516"/>
<polygon fill="midnightblue" stroke="midnightblue" points="550.363,-42.8986 541.996,-49.3986 552.59,-49.5349 550.363,-42.8986"/>
</g>
<!-- Node40 -->
<g id="node7" class="node"><title>Node40</title>
<g id="a_node7"><a xlink:href="../../d5/d6d/ice__shelf__driver_8F90.html#aec5bef92f0dad343f545cd8d62e378d8" target="_top" xlink:title="shelf_main">
<polygon fill="white" stroke="black" points="742.5,-74 742.5,-93 806.5,-93 806.5,-74 742.5,-74"/>
<text text-anchor="middle" x="774.5" y="-81" font-family="Helvetica,sans-Serif" font-size="10.00">shelf_main</text>
</a>
</g>
</g>
<!-- Node39&#45;&gt;Node40 -->
<g id="edge6" class="edge"><title>Node39&#45;&gt;Node40</title>
<path fill="none" stroke="midnightblue" d="M716.229,-75.0319C725.399,-76.3878 734.377,-77.7153 742.404,-78.9021"/>
<polygon fill="midnightblue" stroke="midnightblue" points="716.644,-71.5553 706.239,-73.5548 715.62,-78.48 716.644,-71.5553"/>
</g>
<!-- Node41 -->
<g id="node8" class="node"><title>Node41</title>
<g id="a_node8"><a xlink:href="../../de/dbc/MOM__driver_8F90.html#a08fffeb2d8e8acbf9ed4609be6d258c6" target="_top" xlink:title="mom_main">
<polygon fill="white" stroke="black" points="742,-36 742,-55 807,-55 807,-36 742,-36"/>
<text text-anchor="middle" x="774.5" y="-43" font-family="Helvetica,sans-Serif" font-size="10.00">mom_main</text>
</a>
</g>
</g>
<!-- Node39&#45;&gt;Node41 -->
<g id="edge7" class="edge"><title>Node39&#45;&gt;Node41</title>
<path fill="none" stroke="midnightblue" d="M716.31,-53.956C725.195,-52.6424 733.897,-51.3558 741.726,-50.1982"/>
<polygon fill="midnightblue" stroke="midnightblue" points="715.62,-50.52 706.239,-55.4452 716.644,-57.4447 715.62,-50.52"/>
</g>
</g>
</svg>
        <g id="navigator" transform="translate(0 0)" fill="#404254">
                <rect fill="#f2f5e9" fill-opacity="0.5" stroke="#606060" stroke-width=".5" x="0" y="0" width="60" height="60"/>
                <use id="zoomplus" xlink:href="#zoomPlus" x="17" y="9" onmousedown="handleZoom(evt,'in')"/>
                <use id="zoomminus" xlink:href="#zoomMin" x="42" y="9" onmousedown="handleZoom(evt,'out')"/>
                <use id="reset" xlink:href="#resetDef" x="30" y="36" onmousedown="handleReset()"/>
                <g id="arrowUp" xlink:href="#dirArrow" transform="translate(30 24)" onmousedown="handlePan(0,-1)">
                  <use xlink:href="#rim" fill="#404040">
                        <set attributeName="fill" to="#808080" begin="arrowUp.mouseover" end="arrowUp.mouseout"/>
                  </use>
                  <path fill="none" stroke="white" stroke-width="1.5" d="M0,-3.0v7 M-2.5,-0.5L0,-3.0L2.5,-0.5"/>
                </g>
                <g id="arrowRight" xlink:href="#dirArrow" transform="rotate(90) translate(36 -43)" onmousedown="handlePan(1,0)">
                  <use xlink:href="#rim" fill="#404040">
                        <set attributeName="fill" to="#808080" begin="arrowRight.mouseover" end="arrowRight.mouseout"/>
                  </use>
                  <path fill="none" stroke="white" stroke-width="1.5" d="M0,-3.0v7 M-2.5,-0.5L0,-3.0L2.5,-0.5"/>
                </g>
                <g id="arrowDown" xlink:href="#dirArrow" transform="rotate(180) translate(-30 -48)" onmousedown="handlePan(0,1)">
                  <use xlink:href="#rim" fill="#404040">
                        <set attributeName="fill" to="#808080" begin="arrowDown.mouseover" end="arrowDown.mouseout"/>
                  </use>
                  <path fill="none" stroke="white" stroke-width="1.5" d="M0,-3.0v7 M-2.5,-0.5L0,-3.0L2.5,-0.5"/>
                </g>
                <g id="arrowLeft" xlink:href="#dirArrow" transform="rotate(270) translate(-36 17)" onmousedown="handlePan(-1,0)">
                  <use xlink:href="#rim" fill="#404040">
                        <set attributeName="fill" to="#808080" begin="arrowLeft.mouseover" end="arrowLeft.mouseout"/>
                  </use>
                  <path fill="none" stroke="white" stroke-width="1.5" d="M0,-3.0v7 M-2.5,-0.5L0,-3.0L2.5,-0.5"/>
                </g>
        </g>
        <svg viewBox="0 0 15 15" width="100%" height="30px" preserveAspectRatio="xMaxYMin meet">
         <g id="arrow_out" transform="scale(0.3 0.3)">
          <a xlink:href="namespacemom__grid__initialize_afa76ec84052508b78fde53cd6ed70161_icgraph_org.svg" target="_base">
           <rect id="button" ry="5" rx="5" y="6" x="6" height="38" width="38"
                fill="#f2f5e9" fill-opacity="0.5" stroke="#606060" stroke-width="1.0"/>
           <path id="arrow"
             d="M 11.500037,31.436501 C 11.940474,20.09759 22.043105,11.32322 32.158766,21.979434 L 37.068811,17.246167 C 37.068811,17.246167 37.088388,32 37.088388,32 L 22.160133,31.978069 C 22.160133,31.978069 26.997745,27.140456 26.997745,27.140456 C 18.528582,18.264221 13.291696,25.230495 11.500037,31.436501 z"
             style="fill:#404040;"/>
          </a>
         </g>
        </svg>
</svg>
