<?xml version="1.0" encoding="UTF-8" standalone="no"?>
<!DOCTYPE svg PUBLIC "-//W3C//DTD SVG 1.1//EN"
 "http://www.w3.org/Graphics/SVG/1.1/DTD/svg11.dtd">
<!-- Generated by graphviz version 2.38.0 (20140413.2041)
 -->
<!-- Title: mom_grid_initialize::extrapolate_metric Pages: 1 -->
<svg width="663pt" height="127pt"
 viewBox="0.00 0.00 663.00 126.50" xmlns="http://www.w3.org/2000/svg" xmlns:xlink="http://www.w3.org/1999/xlink">
<g id="graph0" class="graph" transform="scale(1 1) rotate(0) translate(4 122.5)">
<title>mom_grid_initialize::extrapolate_metric</title>
<polygon fill="white" stroke="none" points="-4,4 -4,-122.5 659,-122.5 659,4 -4,4"/>
<!-- Node54 -->
<g id="node1" class="node"><title>Node54</title>
<polygon fill="#bfbfbf" stroke="black" points="0,-49.5 0,-79.5 103,-79.5 103,-49.5 0,-49.5"/>
<text text-anchor="start" x="8" y="-67.5" font-family="Helvetica,sans-Serif" font-size="10.00">mom_grid_initialize</text>
<text text-anchor="middle" x="51.5" y="-56.5" font-family="Helvetica,sans-Serif" font-size="10.00">::extrapolate_metric</text>
</g>
<!-- Node55 -->
<g id="node2" class="node"><title>Node55</title>
<g id="a_node2"><a xlink:href="../../d5/daa/namespacemom__grid__initialize.html#a59e71c4235b01cf3ad4fb6252ef74248" target="_top" xlink:title="set_grid_metrics_from_mosaic sets the grid metrics from a mosaic file. ">
<polygon fill="white" stroke="black" points="139,-44 139,-85 258,-85 258,-44 139,-44"/>
<text text-anchor="start" x="147" y="-73" font-family="Helvetica,sans-Serif" font-size="10.00">mom_grid_initialize</text>
<text text-anchor="start" x="147" y="-62" font-family="Helvetica,sans-Serif" font-size="10.00">::set_grid_metrics_from</text>
<text text-anchor="middle" x="198.5" y="-51" font-family="Helvetica,sans-Serif" font-size="10.00">_mosaic</text>
</a>
</g>
</g>
<!-- Node54&#45;&gt;Node55 -->
<g id="edge1" class="edge"><title>Node54&#45;&gt;Node55</title>
<path fill="none" stroke="midnightblue" d="M113.371,-64.5C121.811,-64.5 130.467,-64.5 138.866,-64.5"/>
<polygon fill="midnightblue" stroke="midnightblue" points="113.214,-61.0001 103.214,-64.5 113.214,-68.0001 113.214,-61.0001"/>
</g>
<!-- Node56 -->
<g id="node3" class="node"><title>Node56</title>
<g id="a_node3"><a xlink:href="../../d5/daa/namespacemom__grid__initialize.html#a235a9712823e2f78e4958e8d681b6ba4" target="_top" xlink:title="set_grid_metrics is used to set the primary values in the model&#39;s horizontal grid. The bathymetry, land&#45;sea mask and any restricted channel widths are not known yet, so these are set later. ">
<polygon fill="white" stroke="black" points="294,-49.5 294,-79.5 394,-79.5 394,-49.5 294,-49.5"/>
<text text-anchor="start" x="302" y="-67.5" font-family="Helvetica,sans-Serif" font-size="10.00">mom_grid_initialize</text>
<text text-anchor="middle" x="344" y="-56.5" font-family="Helvetica,sans-Serif" font-size="10.00">::set_grid_metrics</text>
</a>
</g>
</g>
<!-- Node55&#45;&gt;Node56 -->
<g id="edge2" class="edge"><title>Node55&#45;&gt;Node56</title>
<path fill="none" stroke="midnightblue" d="M268.292,-64.5C276.868,-64.5 285.5,-64.5 293.697,-64.5"/>
<polygon fill="midnightblue" stroke="midnightblue" points="268.281,-61.0001 258.281,-64.5 268.281,-68.0001 268.281,-61.0001"/>
</g>
<!-- Node57 -->
<g id="node4" class="node"><title>Node57</title>
<g id="a_node4"><a xlink:href="../../d6/d48/MOM__sum__driver_8F90.html#a08fffeb2d8e8acbf9ed4609be6d258c6" target="_top" xlink:title="mom_main">
<polygon fill="white" stroke="black" points="459.5,-99 459.5,-118 524.5,-118 524.5,-99 459.5,-99"/>
<text text-anchor="middle" x="492" y="-106" font-family="Helvetica,sans-Serif" font-size="10.00">mom_main</text>
</a>
</g>
</g>
<!-- Node56&#45;&gt;Node57 -->
<g id="edge3" class="edge"><title>Node56&#45;&gt;Node57</title>
<path fill="none" stroke="midnightblue" d="M403.792,-82.2181C422.762,-87.935 443.063,-94.0531 459.3,-98.9467"/>
<polygon fill="midnightblue" stroke="midnightblue" points="404.607,-78.8082 394.022,-79.2738 402.587,-85.5105 404.607,-78.8082"/>
</g>
<!-- Node58 -->
<g id="node5" class="node"><title>Node58</title>
<g id="a_node5"><a xlink:href="../../df/da2/namespacemom__ice__shelf.html#ae315e8464ef8a20062e3bccb61886755" target="_top" xlink:title="mom_ice_shelf::initialize\l_ice_shelf">
<polygon fill="white" stroke="black" points="430,-49.5 430,-79.5 554,-79.5 554,-49.5 430,-49.5"/>
<text text-anchor="start" x="438" y="-67.5" font-family="Helvetica,sans-Serif" font-size="10.00">mom_ice_shelf::initialize</text>
<text text-anchor="middle" x="492" y="-56.5" font-family="Helvetica,sans-Serif" font-size="10.00">_ice_shelf</text>
</a>
</g>
</g>
<!-- Node56&#45;&gt;Node58 -->
<g id="edge4" class="edge"><title>Node56&#45;&gt;Node58</title>
<path fill="none" stroke="midnightblue" d="M404.2,-64.5C412.675,-64.5 421.408,-64.5 429.918,-64.5"/>
<polygon fill="midnightblue" stroke="midnightblue" points="404.022,-61.0001 394.022,-64.5 404.022,-68.0001 404.022,-61.0001"/>
</g>
<!-- Node61 -->
<g id="node8" class="node"><title>Node61</title>
<g id="a_node8"><a xlink:href="../../d3/da8/namespacemom__fixed__initialization.html#a6c1c054d9cda9f1bd11abba748614c92" target="_top" xlink:title="MOM_initialize_fixed sets up time&#45;invariant quantities related to MOM6&#39;s horizontal grid...">
<polygon fill="white" stroke="black" points="431.5,-0.5 431.5,-30.5 552.5,-30.5 552.5,-0.5 431.5,-0.5"/>
<text text-anchor="start" x="439.5" y="-18.5" font-family="Helvetica,sans-Serif" font-size="10.00">mom_fixed_initialization</text>
<text text-anchor="middle" x="492" y="-7.5" font-family="Helvetica,sans-Serif" font-size="10.00">::mom_initialize_fixed</text>
</a>
</g>
</g>
<!-- Node56&#45;&gt;Node61 -->
<g id="edge7" class="edge"><title>Node56&#45;&gt;Node61</title>
<path fill="none" stroke="midnightblue" d="M399.841,-46.0945C415.116,-40.9678 431.525,-35.4608 446.152,-30.5516"/>
<polygon fill="midnightblue" stroke="midnightblue" points="398.363,-42.8986 389.996,-49.3986 400.59,-49.5349 398.363,-42.8986"/>
</g>
<!-- Node59 -->
<g id="node6" class="node"><title>Node59</title>
<g id="a_node6"><a xlink:href="../../d5/d6d/ice__shelf__driver_8F90.html#aec5bef92f0dad343f545cd8d62e378d8" target="_top" xlink:title="shelf_main">
<polygon fill="white" stroke="black" points="590.5,-74 590.5,-93 654.5,-93 654.5,-74 590.5,-74"/>
<text text-anchor="middle" x="622.5" y="-81" font-family="Helvetica,sans-Serif" font-size="10.00">shelf_main</text>
</a>
</g>
</g>
<!-- Node58&#45;&gt;Node59 -->
<g id="edge5" class="edge"><title>Node58&#45;&gt;Node59</title>
<path fill="none" stroke="midnightblue" d="M564.229,-75.0319C573.399,-76.3878 582.377,-77.7153 590.404,-78.9021"/>
<polygon fill="midnightblue" stroke="midnightblue" points="564.644,-71.5553 554.239,-73.5548 563.62,-78.48 564.644,-71.5553"/>
</g>
<!-- Node60 -->
<g id="node7" class="node"><title>Node60</title>
<g id="a_node7"><a xlink:href="../../de/dbc/MOM__driver_8F90.html#a08fffeb2d8e8acbf9ed4609be6d258c6" target="_top" xlink:title="mom_main">
<polygon fill="white" stroke="black" points="590,-36 590,-55 655,-55 655,-36 590,-36"/>
<text text-anchor="middle" x="622.5" y="-43" font-family="Helvetica,sans-Serif" font-size="10.00">mom_main</text>
</a>
</g>
</g>
<!-- Node58&#45;&gt;Node60 -->
<g id="edge6" class="edge"><title>Node58&#45;&gt;Node60</title>
<path fill="none" stroke="midnightblue" d="M564.31,-53.956C573.195,-52.6424 581.897,-51.3558 589.726,-50.1982"/>
<polygon fill="midnightblue" stroke="midnightblue" points="563.62,-50.52 554.239,-55.4452 564.644,-57.4447 563.62,-50.52"/>
</g>
</g>
</svg>
