<?xml version="1.0" encoding="UTF-8" standalone="no"?>
<!DOCTYPE svg PUBLIC "-//W3C//DTD SVG 1.1//EN"
 "http://www.w3.org/Graphics/SVG/1.1/DTD/svg11.dtd">
<!-- Generated by graphviz version 2.38.0 (20140413.2041)
 -->
<!-- Title: mom_grid_initialize::set_grid_metrics Pages: 1 -->
<svg width="369pt" height="140pt"
 viewBox="0.00 0.00 369.00 140.00" xmlns="http://www.w3.org/2000/svg" xmlns:xlink="http://www.w3.org/1999/xlink">
<g id="graph0" class="graph" transform="scale(1 1) rotate(0) translate(4 136)">
<title>mom_grid_initialize::set_grid_metrics</title>
<polygon fill="white" stroke="none" points="-4,4 -4,-136 365,-136 365,4 -4,4"/>
<!-- Node124 -->
<g id="node1" class="node"><title>Node124</title>
<polygon fill="#bfbfbf" stroke="black" points="0,-39 0,-69 100,-69 100,-39 0,-39"/>
<text text-anchor="start" x="8" y="-57" font-family="Helvetica,sans-Serif" font-size="10.00">mom_grid_initialize</text>
<text text-anchor="middle" x="50" y="-46" font-family="Helvetica,sans-Serif" font-size="10.00">::set_grid_metrics</text>
</g>
<!-- Node125 -->
<g id="node2" class="node"><title>Node125</title>
<g id="a_node2"><a xlink:href="../../df/da2/namespacemom__ice__shelf.html#ae315e8464ef8a20062e3bccb61886755" target="_top" xlink:title="mom_ice_shelf::initialize\l_ice_shelf">
<polygon fill="white" stroke="black" points="136,-88 136,-118 260,-118 260,-88 136,-88"/>
<text text-anchor="start" x="144" y="-106" font-family="Helvetica,sans-Serif" font-size="10.00">mom_ice_shelf::initialize</text>
<text text-anchor="middle" x="198" y="-95" font-family="Helvetica,sans-Serif" font-size="10.00">_ice_shelf</text>
</a>
</g>
</g>
<!-- Node124&#45;&gt;Node125 -->
<g id="edge1" class="edge"><title>Node124&#45;&gt;Node125</title>
<path fill="none" stroke="midnightblue" d="M105.841,-72.4055C121.116,-77.5322 137.525,-83.0392 152.152,-87.9484"/>
<polygon fill="midnightblue" stroke="midnightblue" points="106.59,-68.9651 95.9961,-69.1014 104.363,-75.6014 106.59,-68.9651"/>
</g>
<!-- Node128 -->
<g id="node5" class="node"><title>Node128</title>
<g id="a_node5"><a xlink:href="../../d3/da8/namespacemom__fixed__initialization.html#a6c1c054d9cda9f1bd11abba748614c92" target="_top" xlink:title="MOM_initialize_fixed sets up time&#45;invariant quantities related to MOM6&#39;s horizontal grid...">
<polygon fill="white" stroke="black" points="137.5,-39 137.5,-69 258.5,-69 258.5,-39 137.5,-39"/>
<text text-anchor="start" x="145.5" y="-57" font-family="Helvetica,sans-Serif" font-size="10.00">mom_fixed_initialization</text>
<text text-anchor="middle" x="198" y="-46" font-family="Helvetica,sans-Serif" font-size="10.00">::mom_initialize_fixed</text>
</a>
</g>
</g>
<!-- Node124&#45;&gt;Node128 -->
<g id="edge4" class="edge"><title>Node124&#45;&gt;Node128</title>
<path fill="none" stroke="midnightblue" d="M110.063,-54C119.095,-54 128.423,-54 137.466,-54"/>
<polygon fill="midnightblue" stroke="midnightblue" points="110.022,-50.5001 100.022,-54 110.022,-57.5001 110.022,-50.5001"/>
</g>
<!-- Node129 -->
<g id="node6" class="node"><title>Node129</title>
<g id="a_node6"><a xlink:href="../../d6/d48/MOM__sum__driver_8F90.html#a08fffeb2d8e8acbf9ed4609be6d258c6" target="_top" xlink:title="mom_main">
<polygon fill="white" stroke="black" points="165.5,-0.5 165.5,-19.5 230.5,-19.5 230.5,-0.5 165.5,-0.5"/>
<text text-anchor="middle" x="198" y="-7.5" font-family="Helvetica,sans-Serif" font-size="10.00">mom_main</text>
</a>
</g>
</g>
<!-- Node124&#45;&gt;Node129 -->
<g id="edge5" class="edge"><title>Node124&#45;&gt;Node129</title>
<path fill="none" stroke="midnightblue" d="M109.792,-36.2819C128.762,-30.565 149.063,-24.4469 165.3,-19.5533"/>
<polygon fill="midnightblue" stroke="midnightblue" points="108.587,-32.9895 100.022,-39.2262 110.607,-39.6918 108.587,-32.9895"/>
</g>
<!-- Node126 -->
<g id="node3" class="node"><title>Node126</title>
<g id="a_node3"><a xlink:href="../../d5/d6d/ice__shelf__driver_8F90.html#aec5bef92f0dad343f545cd8d62e378d8" target="_top" xlink:title="shelf_main">
<polygon fill="white" stroke="black" points="296.5,-112.5 296.5,-131.5 360.5,-131.5 360.5,-112.5 296.5,-112.5"/>
<text text-anchor="middle" x="328.5" y="-119.5" font-family="Helvetica,sans-Serif" font-size="10.00">shelf_main</text>
</a>
</g>
</g>
<!-- Node125&#45;&gt;Node126 -->
<g id="edge2" class="edge"><title>Node125&#45;&gt;Node126</title>
<path fill="none" stroke="midnightblue" d="M270.229,-113.532C279.399,-114.888 288.377,-116.215 296.404,-117.402"/>
<polygon fill="midnightblue" stroke="midnightblue" points="270.644,-110.055 260.239,-112.055 269.62,-116.98 270.644,-110.055"/>
</g>
<!-- Node127 -->
<g id="node4" class="node"><title>Node127</title>
<g id="a_node4"><a xlink:href="../../de/dbc/MOM__driver_8F90.html#a08fffeb2d8e8acbf9ed4609be6d258c6" target="_top" xlink:title="mom_main">
<polygon fill="white" stroke="black" points="296,-74.5 296,-93.5 361,-93.5 361,-74.5 296,-74.5"/>
<text text-anchor="middle" x="328.5" y="-81.5" font-family="Helvetica,sans-Serif" font-size="10.00">mom_main</text>
</a>
</g>
</g>
<!-- Node125&#45;&gt;Node127 -->
<g id="edge3" class="edge"><title>Node125&#45;&gt;Node127</title>
<path fill="none" stroke="midnightblue" d="M270.31,-92.456C279.195,-91.1424 287.897,-89.8558 295.726,-88.6982"/>
<polygon fill="midnightblue" stroke="midnightblue" points="269.62,-89.02 260.239,-93.9452 270.644,-95.9447 269.62,-89.02"/>
</g>
</g>
</svg>
