<?xml version="1.0" encoding="UTF-8" standalone="no"?>
<!DOCTYPE svg PUBLIC "-//W3C//DTD SVG 1.1//EN"
 "http://www.w3.org/Graphics/SVG/1.1/DTD/svg11.dtd">
<!-- Generated by graphviz version 2.38.0 (20140413.2041)
 -->
<!-- Title: mom_diag_mediator::assert Pages: 1 -->
<svg width="791pt" height="817pt"
 viewBox="0.00 0.00 791.00 816.51" xmlns="http://www.w3.org/2000/svg" xmlns:xlink="http://www.w3.org/1999/xlink">
<g id="graph0" class="graph" transform="scale(1 1) rotate(0) translate(4 812.51)">
<title>mom_diag_mediator::assert</title>
<polygon fill="white" stroke="none" points="-4,4 -4,-812.51 787,-812.51 787,4 -4,4"/>
<!-- Node21 -->
<g id="node1" class="node"><title>Node21</title>
<polygon fill="#bfbfbf" stroke="black" points="0,-216.01 0,-246.01 95,-246.01 95,-216.01 0,-216.01"/>
<text text-anchor="start" x="8" y="-234.01" font-family="Helvetica,sans-Serif" font-size="10.00">mom_diag_mediator::</text>
<text text-anchor="middle" x="47.5" y="-223.01" font-family="Helvetica,sans-Serif" font-size="10.00">assert</text>
</g>
<!-- Node22 -->
<g id="node2" class="node"><title>Node22</title>
<g id="a_node2"><a xlink:href="../../d9/d06/namespacemom__diag__mediator.html#a67a9077037d7bf86f7415ca1ad672295" target="_top" xlink:title="Build/update target vertical grids for diagnostic remapping. ">
<polygon fill="white" stroke="black" points="262,-680.01 262,-710.01 370,-710.01 370,-680.01 262,-680.01"/>
<text text-anchor="start" x="270" y="-698.01" font-family="Helvetica,sans-Serif" font-size="10.00">mom_diag_mediator::</text>
<text text-anchor="middle" x="316" y="-687.01" font-family="Helvetica,sans-Serif" font-size="10.00">diag_update_target_grids</text>
</a>
</g>
</g>
<!-- Node21&#45;&gt;Node22 -->
<g id="edge1" class="edge"><title>Node21&#45;&gt;Node22</title>
<path fill="none" stroke="midnightblue" d="M53.4584,-256.239C63.3174,-302.753 88.2028,-404.194 131,-480.01 178.819,-564.721 262.738,-647.009 298.309,-679.947"/>
<polygon fill="midnightblue" stroke="midnightblue" points="56.8257,-255.238 51.3755,-246.153 49.9704,-256.654 56.8257,-255.238"/>
</g>
<!-- Node31 -->
<g id="node11" class="node"><title>Node31</title>
<g id="a_node11"><a xlink:href="../../d9/d06/namespacemom__diag__mediator.html#a3f7442639213320f7429e2288a79fda2" target="_top" xlink:title="Returns a new diagnostic id, it may be necessary to expand the diagnostics array. ...">
<polygon fill="white" stroke="black" points="131,-265.01 131,-295.01 226,-295.01 226,-265.01 131,-265.01"/>
<text text-anchor="start" x="139" y="-283.01" font-family="Helvetica,sans-Serif" font-size="10.00">mom_diag_mediator::</text>
<text text-anchor="middle" x="178.5" y="-272.01" font-family="Helvetica,sans-Serif" font-size="10.00">get_new_diag_id</text>
</a>
</g>
</g>
<!-- Node21&#45;&gt;Node31 -->
<g id="edge11" class="edge"><title>Node21&#45;&gt;Node31</title>
<path fill="none" stroke="midnightblue" d="M97.6821,-249.691C110.894,-254.71 125.016,-260.074 137.652,-264.874"/>
<polygon fill="midnightblue" stroke="midnightblue" points="98.848,-246.39 88.2569,-246.111 96.3623,-252.934 98.848,-246.39"/>
</g>
<!-- Node32 -->
<g id="node12" class="node"><title>Node32</title>
<g id="a_node12"><a xlink:href="../../d9/d06/namespacemom__diag__mediator.html#aab2007573b14ed73053282770d1b19a4" target="_top" xlink:title="mom_diag_mediator::\lregister_diag_field">
<polygon fill="white" stroke="black" points="268.5,-347.01 268.5,-377.01 363.5,-377.01 363.5,-347.01 268.5,-347.01"/>
<text text-anchor="start" x="276.5" y="-365.01" font-family="Helvetica,sans-Serif" font-size="10.00">mom_diag_mediator::</text>
<text text-anchor="middle" x="316" y="-354.01" font-family="Helvetica,sans-Serif" font-size="10.00">register_diag_field</text>
</a>
</g>
</g>
<!-- Node21&#45;&gt;Node32 -->
<g id="edge36" class="edge"><title>Node21&#45;&gt;Node32</title>
<path fill="none" stroke="midnightblue" d="M63.2386,-254.589C77.8084,-275.855 102.075,-306.282 131,-323.01 173.401,-347.531 229.285,-356.706 268.294,-360.1"/>
<polygon fill="midnightblue" stroke="midnightblue" points="66.0508,-252.497 57.6028,-246.103 60.2196,-256.37 66.0508,-252.497"/>
</g>
<!-- Node43 -->
<g id="node23" class="node"><title>Node43</title>
<g id="a_node23"><a xlink:href="../../d9/d06/namespacemom__diag__mediator.html#a60caf99cd0670e8ae1d7d0c1230b72a5" target="_top" xlink:title="mom_diag_mediator::\lregister_scalar_field">
<polygon fill="white" stroke="black" points="268.5,-281.01 268.5,-311.01 363.5,-311.01 363.5,-281.01 268.5,-281.01"/>
<text text-anchor="start" x="276.5" y="-299.01" font-family="Helvetica,sans-Serif" font-size="10.00">mom_diag_mediator::</text>
<text text-anchor="middle" x="316" y="-288.01" font-family="Helvetica,sans-Serif" font-size="10.00">register_scalar_field</text>
</a>
</g>
</g>
<!-- Node21&#45;&gt;Node43 -->
<g id="edge37" class="edge"><title>Node21&#45;&gt;Node43</title>
<path fill="none" stroke="midnightblue" d="M66.6144,-254.348C81.6975,-271.735 104.872,-294.11 131,-304.01 175.402,-320.834 230.205,-315.448 268.401,-307.957"/>
<polygon fill="midnightblue" stroke="midnightblue" points="68.9798,-251.72 59.8825,-246.29 63.6077,-256.208 68.9798,-251.72"/>
</g>
<!-- Node44 -->
<g id="node24" class="node"><title>Node44</title>
<g id="a_node24"><a xlink:href="../../d9/d06/namespacemom__diag__mediator.html#abe591ed2565e9f026c5be055bc2fc0b7" target="_top" xlink:title="Registers a static diagnostic, returning an integer handle. ">
<polygon fill="white" stroke="black" points="268.5,-122.01 268.5,-152.01 363.5,-152.01 363.5,-122.01 268.5,-122.01"/>
<text text-anchor="start" x="276.5" y="-140.01" font-family="Helvetica,sans-Serif" font-size="10.00">mom_diag_mediator::</text>
<text text-anchor="middle" x="316" y="-129.01" font-family="Helvetica,sans-Serif" font-size="10.00">register_static_field</text>
</a>
</g>
</g>
<!-- Node21&#45;&gt;Node44 -->
<g id="edge38" class="edge"><title>Node21&#45;&gt;Node44</title>
<path fill="none" stroke="midnightblue" d="M101,-212.492C151.119,-194.814 225.707,-168.505 272.288,-152.075"/>
<polygon fill="midnightblue" stroke="midnightblue" points="99.5842,-209.28 91.3178,-215.907 101.913,-215.881 99.5842,-209.28"/>
</g>
<!-- Node47 -->
<g id="node27" class="node"><title>Node47</title>
<g id="a_node27"><a xlink:href="../../d9/d06/namespacemom__diag__mediator.html#ae9c5ccc56095fb87b2c6512c82922705" target="_top" xlink:title="mom_diag_mediator::\lpost_data_0d">
<polygon fill="white" stroke="black" points="131,-128.01 131,-158.01 226,-158.01 226,-128.01 131,-128.01"/>
<text text-anchor="start" x="139" y="-146.01" font-family="Helvetica,sans-Serif" font-size="10.00">mom_diag_mediator::</text>
<text text-anchor="middle" x="178.5" y="-135.01" font-family="Helvetica,sans-Serif" font-size="10.00">post_data_0d</text>
</a>
</g>
</g>
<!-- Node21&#45;&gt;Node47 -->
<g id="edge29" class="edge"><title>Node21&#45;&gt;Node47</title>
<path fill="none" stroke="midnightblue" d="M77.632,-210.106C93.3369,-198.944 113.113,-185.061 131,-173.01 138.33,-168.071 146.397,-162.808 153.725,-158.091"/>
<polygon fill="midnightblue" stroke="midnightblue" points="75.4764,-207.344 69.3637,-215.998 79.5387,-213.045 75.4764,-207.344"/>
</g>
<!-- Node48 -->
<g id="node28" class="node"><title>Node48</title>
<g id="a_node28"><a xlink:href="../../d9/d06/namespacemom__diag__mediator.html#ab5b75b68fa1742ce312c371f4b2c6ac1" target="_top" xlink:title="mom_diag_mediator::\lpost_data_1d_k">
<polygon fill="white" stroke="black" points="131,-440.01 131,-470.01 226,-470.01 226,-440.01 131,-440.01"/>
<text text-anchor="start" x="139" y="-458.01" font-family="Helvetica,sans-Serif" font-size="10.00">mom_diag_mediator::</text>
<text text-anchor="middle" x="178.5" y="-447.01" font-family="Helvetica,sans-Serif" font-size="10.00">post_data_1d_k</text>
</a>
</g>
</g>
<!-- Node21&#45;&gt;Node48 -->
<g id="edge30" class="edge"><title>Node21&#45;&gt;Node48</title>
<path fill="none" stroke="midnightblue" d="M62.1405,-255.237C78.4125,-284.079 106.496,-333.669 131,-376.01 143.914,-398.324 159.105,-424.033 168.519,-439.904"/>
<polygon fill="midnightblue" stroke="midnightblue" points="65.0573,-253.284 57.0972,-246.292 58.9596,-256.721 65.0573,-253.284"/>
</g>
<!-- Node51 -->
<g id="node31" class="node"><title>Node51</title>
<g id="a_node31"><a xlink:href="../../d9/d06/namespacemom__diag__mediator.html#a2b87038d2cfd2f6709ecb9f4481e0e75" target="_top" xlink:title="mom_diag_mediator::\lpost_data_2d">
<polygon fill="white" stroke="black" points="131,-79.0099 131,-109.01 226,-109.01 226,-79.0099 131,-79.0099"/>
<text text-anchor="start" x="139" y="-97.0099" font-family="Helvetica,sans-Serif" font-size="10.00">mom_diag_mediator::</text>
<text text-anchor="middle" x="178.5" y="-86.0099" font-family="Helvetica,sans-Serif" font-size="10.00">post_data_2d</text>
</a>
</g>
</g>
<!-- Node21&#45;&gt;Node51 -->
<g id="edge34" class="edge"><title>Node21&#45;&gt;Node51</title>
<path fill="none" stroke="midnightblue" d="M61.5414,-206.97C75.9326,-182.188 101.065,-143.652 131,-118.01 134.726,-114.818 138.949,-111.905 143.293,-109.296"/>
<polygon fill="midnightblue" stroke="midnightblue" points="58.4567,-205.315 56.5641,-215.739 64.5444,-208.77 58.4567,-205.315"/>
</g>
<!-- Node52 -->
<g id="node32" class="node"><title>Node52</title>
<g id="a_node32"><a xlink:href="../../d9/d06/namespacemom__diag__mediator.html#adb1030a0216c52dd0d25bd67a5b31868" target="_top" xlink:title="mom_diag_mediator::\lpost_data_3d">
<polygon fill="white" stroke="black" points="268.5,-8.00989 268.5,-38.0099 363.5,-38.0099 363.5,-8.00989 268.5,-8.00989"/>
<text text-anchor="start" x="276.5" y="-26.0099" font-family="Helvetica,sans-Serif" font-size="10.00">mom_diag_mediator::</text>
<text text-anchor="middle" x="316" y="-15.0099" font-family="Helvetica,sans-Serif" font-size="10.00">post_data_3d</text>
</a>
</g>
</g>
<!-- Node21&#45;&gt;Node52 -->
<g id="edge35" class="edge"><title>Node21&#45;&gt;Node52</title>
<path fill="none" stroke="midnightblue" d="M49.7176,-205.763C53.467,-159.619 68.749,-62.5103 131,-20.0099 171.106,7.37173 228.454,1.18006 268.429,-8.36971"/>
<polygon fill="midnightblue" stroke="midnightblue" points="46.2202,-205.606 49.02,-215.824 53.2035,-206.09 46.2202,-205.606"/>
</g>
<!-- Node53 -->
<g id="node33" class="node"><title>Node53</title>
<g id="a_node33"><a xlink:href="../../d9/d06/namespacemom__diag__mediator.html#ab5e628e0b8acd96234fab33d0fae2161" target="_top" xlink:title="Remap diagnostic field to z&#45;star vertical grid. ">
<polygon fill="white" stroke="black" points="131,-30.0099 131,-60.0099 226,-60.0099 226,-30.0099 131,-30.0099"/>
<text text-anchor="start" x="139" y="-48.0099" font-family="Helvetica,sans-Serif" font-size="10.00">mom_diag_mediator::</text>
<text text-anchor="middle" x="178.5" y="-37.0099" font-family="Helvetica,sans-Serif" font-size="10.00">remap_diag_to_z</text>
</a>
</g>
</g>
<!-- Node21&#45;&gt;Node53 -->
<g id="edge39" class="edge"><title>Node21&#45;&gt;Node53</title>
<path fill="none" stroke="midnightblue" d="M55.8468,-205.932C67.0757,-171.339 91.4661,-108.759 131,-69.0099 134.331,-65.6604 138.228,-62.6814 142.323,-60.0606"/>
<polygon fill="midnightblue" stroke="midnightblue" points="52.4323,-205.124 52.7823,-215.713 59.1121,-207.217 52.4323,-205.124"/>
</g>
<!-- Node54 -->
<g id="node34" class="node"><title>Node54</title>
<g id="a_node34"><a xlink:href="../../d9/d06/namespacemom__diag__mediator.html#a4d8d23e602166167b393e19453ded5bf" target="_top" xlink:title="Sets up diagnostics axes. ">
<polygon fill="white" stroke="black" points="131,-216.01 131,-246.01 226,-246.01 226,-216.01 131,-216.01"/>
<text text-anchor="start" x="139" y="-234.01" font-family="Helvetica,sans-Serif" font-size="10.00">mom_diag_mediator::</text>
<text text-anchor="middle" x="178.5" y="-223.01" font-family="Helvetica,sans-Serif" font-size="10.00">set_axes_info</text>
</a>
</g>
</g>
<!-- Node21&#45;&gt;Node54 -->
<g id="edge41" class="edge"><title>Node21&#45;&gt;Node54</title>
<path fill="none" stroke="midnightblue" d="M105.101,-231.01C113.752,-231.01 122.596,-231.01 130.996,-231.01"/>
<polygon fill="midnightblue" stroke="midnightblue" points="105.072,-227.51 95.072,-231.01 105.072,-234.51 105.072,-227.51"/>
</g>
<!-- Node23 -->
<g id="node3" class="node"><title>Node23</title>
<g id="a_node3"><a xlink:href="../../d4/de7/namespacemom__mixed__layer__restrat.html#a8c3660ca67ff94ff55449ce75e362e32" target="_top" xlink:title="This subroutine does interface depth diffusion. The fluxes are limited to give positive definiteness...">
<polygon fill="white" stroke="black" points="416,-729.01 416,-759.01 535,-759.01 535,-729.01 416,-729.01"/>
<text text-anchor="start" x="424" y="-747.01" font-family="Helvetica,sans-Serif" font-size="10.00">mom_mixed_layer_restrat</text>
<text text-anchor="middle" x="475.5" y="-736.01" font-family="Helvetica,sans-Serif" font-size="10.00">::mixedlayer_restrat_general</text>
</a>
</g>
</g>
<!-- Node22&#45;&gt;Node23 -->
<g id="edge2" class="edge"><title>Node22&#45;&gt;Node23</title>
<path fill="none" stroke="midnightblue" d="M375.22,-713.123C391.964,-718.332 410.04,-723.956 426.12,-728.958"/>
<polygon fill="midnightblue" stroke="midnightblue" points="376.129,-709.74 365.54,-710.111 374.049,-716.424 376.129,-709.74"/>
</g>
<!-- Node25 -->
<g id="node5" class="node"><title>Node25</title>
<g id="a_node5"><a xlink:href="../../d4/de7/namespacemom__mixed__layer__restrat.html#aa7bc0bffcb1f179da48339460555c343" target="_top" xlink:title="This subroutine does interface depth diffusion. The fluxes are limited to give positive definiteness...">
<polygon fill="white" stroke="black" points="420.5,-680.01 420.5,-710.01 530.5,-710.01 530.5,-680.01 420.5,-680.01"/>
<text text-anchor="start" x="428.5" y="-698.01" font-family="Helvetica,sans-Serif" font-size="10.00">mom_mixed_layer_restrat</text>
<text text-anchor="middle" x="475.5" y="-687.01" font-family="Helvetica,sans-Serif" font-size="10.00">::mixedlayer_restrat_bml</text>
</a>
</g>
</g>
<!-- Node22&#45;&gt;Node25 -->
<g id="edge4" class="edge"><title>Node22&#45;&gt;Node25</title>
<path fill="none" stroke="midnightblue" d="M380.337,-695.01C393.623,-695.01 407.518,-695.01 420.428,-695.01"/>
<polygon fill="midnightblue" stroke="midnightblue" points="380.322,-691.51 370.322,-695.01 380.322,-698.51 380.322,-691.51"/>
</g>
<!-- Node26 -->
<g id="node6" class="node"><title>Node26</title>
<g id="a_node6"><a xlink:href="../../d1/d75/namespacemom__thickness__diffuse.html#a9506f374762ce6d5d12424a9314fad2f" target="_top" xlink:title="mom_thickness_diffuse\l::thickness_diffuse">
<polygon fill="white" stroke="black" points="426,-778.01 426,-808.01 525,-808.01 525,-778.01 426,-778.01"/>
<text text-anchor="start" x="434" y="-796.01" font-family="Helvetica,sans-Serif" font-size="10.00">mom_thickness_diffuse</text>
<text text-anchor="middle" x="475.5" y="-785.01" font-family="Helvetica,sans-Serif" font-size="10.00">::thickness_diffuse</text>
</a>
</g>
</g>
<!-- Node22&#45;&gt;Node26 -->
<g id="edge6" class="edge"><title>Node22&#45;&gt;Node26</title>
<path fill="none" stroke="midnightblue" d="M339.068,-717.229C356.126,-733.393 380.981,-754.84 406,-769.01 412.14,-772.487 418.872,-775.592 425.643,-778.32"/>
<polygon fill="midnightblue" stroke="midnightblue" points="341.432,-714.647 331.806,-710.22 336.57,-719.683 341.432,-714.647"/>
</g>
<!-- Node29 -->
<g id="node9" class="node"><title>Node29</title>
<g id="a_node9"><a xlink:href="../../d1/da1/namespacemom__bulk__mixed__layer.html#a9c3a37aae75b52453efad11d8c8abbe6" target="_top" xlink:title="mom_bulk_mixed_layer\l::bulkmixedlayer">
<polygon fill="white" stroke="black" points="425,-631.01 425,-661.01 526,-661.01 526,-631.01 425,-631.01"/>
<text text-anchor="start" x="433" y="-649.01" font-family="Helvetica,sans-Serif" font-size="10.00">mom_bulk_mixed_layer</text>
<text text-anchor="middle" x="475.5" y="-638.01" font-family="Helvetica,sans-Serif" font-size="10.00">::bulkmixedlayer</text>
</a>
</g>
</g>
<!-- Node22&#45;&gt;Node29 -->
<g id="edge9" class="edge"><title>Node22&#45;&gt;Node29</title>
<path fill="none" stroke="midnightblue" d="M375.22,-676.897C391.964,-671.688 410.04,-666.064 426.12,-661.061"/>
<polygon fill="midnightblue" stroke="midnightblue" points="374.049,-673.596 365.54,-679.908 376.129,-680.28 374.049,-673.596"/>
</g>
<!-- Node24 -->
<g id="node4" class="node"><title>Node24</title>
<g id="a_node4"><a xlink:href="../../d4/de7/namespacemom__mixed__layer__restrat.html#a27efc1d26cdf8b66108c3dad047bbb91" target="_top" xlink:title="This subroutine does interface depth diffusion. The fluxes are limited to give positive definiteness...">
<polygon fill="white" stroke="black" points="581,-692.01 581,-722.01 691,-722.01 691,-692.01 581,-692.01"/>
<text text-anchor="start" x="589" y="-710.01" font-family="Helvetica,sans-Serif" font-size="10.00">mom_mixed_layer_restrat</text>
<text text-anchor="middle" x="636" y="-699.01" font-family="Helvetica,sans-Serif" font-size="10.00">::mixedlayer_restrat</text>
</a>
</g>
</g>
<!-- Node23&#45;&gt;Node24 -->
<g id="edge3" class="edge"><title>Node23&#45;&gt;Node24</title>
<path fill="none" stroke="midnightblue" d="M545.035,-728.011C557.022,-725.213 569.342,-722.337 580.871,-719.646"/>
<polygon fill="midnightblue" stroke="midnightblue" points="544.012,-724.656 535.069,-730.338 545.603,-731.473 544.012,-724.656"/>
</g>
<!-- Node25&#45;&gt;Node24 -->
<g id="edge5" class="edge"><title>Node25&#45;&gt;Node24</title>
<path fill="none" stroke="midnightblue" d="M540.663,-699.868C554.003,-700.878 567.935,-701.932 580.872,-702.912"/>
<polygon fill="midnightblue" stroke="midnightblue" points="540.839,-696.371 530.603,-699.106 540.311,-703.351 540.839,-696.371"/>
</g>
<!-- Node27 -->
<g id="node7" class="node"><title>Node27</title>
<g id="a_node7"><a xlink:href="../../da/d01/namespacemom.html#a4c8332b095c6d295084089aa6b3b678a" target="_top" xlink:title="This subroutine orchestrates the time stepping of MOM. The adiabatic dynamics are stepped by calls to...">
<polygon fill="white" stroke="black" points="597.5,-768.51 597.5,-787.51 674.5,-787.51 674.5,-768.51 597.5,-768.51"/>
<text text-anchor="middle" x="636" y="-775.51" font-family="Helvetica,sans-Serif" font-size="10.00">mom::step_mom</text>
</a>
</g>
</g>
<!-- Node26&#45;&gt;Node27 -->
<g id="edge7" class="edge"><title>Node26&#45;&gt;Node27</title>
<path fill="none" stroke="midnightblue" d="M535.349,-787.441C556.105,-785.476 578.864,-783.322 597.385,-781.57"/>
<polygon fill="midnightblue" stroke="midnightblue" points="534.974,-783.96 525.349,-788.387 535.634,-790.929 534.974,-783.96"/>
</g>
<!-- Node28 -->
<g id="node8" class="node"><title>Node28</title>
<g id="a_node8"><a xlink:href="../../de/dbc/MOM__driver_8F90.html#a08fffeb2d8e8acbf9ed4609be6d258c6" target="_top" xlink:title="mom_main">
<polygon fill="white" stroke="black" points="727,-515.51 727,-534.51 783,-534.51 783,-515.51 727,-515.51"/>
<text text-anchor="middle" x="755" y="-522.51" font-family="Helvetica,sans-Serif" font-size="10.00">mom_main</text>
</a>
</g>
</g>
<!-- Node27&#45;&gt;Node28 -->
<g id="edge8" class="edge"><title>Node27&#45;&gt;Node28</title>
<path fill="none" stroke="midnightblue" d="M660.544,-762.665C671.186,-754.664 683.114,-744.037 691,-732.01 734.872,-665.096 749.352,-566.23 752.978,-534.905"/>
<polygon fill="midnightblue" stroke="midnightblue" points="658.487,-759.833 652.387,-768.495 662.558,-765.528 658.487,-759.833"/>
</g>
<!-- Node30 -->
<g id="node10" class="node"><title>Node30</title>
<g id="a_node10"><a xlink:href="../../d8/df3/namespacemom__diabatic__driver.html#a61e57d3902367aa46aa3c2d949ee900f" target="_top" xlink:title="This subroutine imposes the diapycnal mass fluxes and the accompanying diapycnal advection of momentu...">
<polygon fill="white" stroke="black" points="590.5,-619.01 590.5,-649.01 681.5,-649.01 681.5,-619.01 590.5,-619.01"/>
<text text-anchor="start" x="598.5" y="-637.01" font-family="Helvetica,sans-Serif" font-size="10.00">mom_diabatic_driver</text>
<text text-anchor="middle" x="636" y="-626.01" font-family="Helvetica,sans-Serif" font-size="10.00">::diabatic</text>
</a>
</g>
</g>
<!-- Node29&#45;&gt;Node30 -->
<g id="edge10" class="edge"><title>Node29&#45;&gt;Node30</title>
<path fill="none" stroke="midnightblue" d="M536.283,-641.484C554.199,-640.127 573.531,-638.664 590.297,-637.394"/>
<polygon fill="midnightblue" stroke="midnightblue" points="535.923,-638.001 526.216,-642.246 536.451,-644.981 535.923,-638.001"/>
</g>
<!-- Node31&#45;&gt;Node32 -->
<g id="edge12" class="edge"><title>Node31&#45;&gt;Node32</title>
<path fill="none" stroke="midnightblue" d="M213.055,-300.316C236.827,-314.702 268.211,-333.695 289.846,-346.787"/>
<polygon fill="midnightblue" stroke="midnightblue" points="214.72,-297.233 204.353,-295.05 211.096,-303.222 214.72,-297.233"/>
</g>
<!-- Node31&#45;&gt;Node43 -->
<g id="edge25" class="edge"><title>Node31&#45;&gt;Node43</title>
<path fill="none" stroke="midnightblue" d="M236.219,-286.707C246.898,-287.968 257.952,-289.274 268.283,-290.493"/>
<polygon fill="midnightblue" stroke="midnightblue" points="236.473,-283.213 226.131,-285.516 235.652,-290.165 236.473,-283.213"/>
</g>
<!-- Node31&#45;&gt;Node44 -->
<g id="edge26" class="edge"><title>Node31&#45;&gt;Node44</title>
<path fill="none" stroke="midnightblue" d="M220.651,-259.219C222.51,-257.869 224.304,-256.464 226,-255.01 262.033,-224.105 292.465,-176.244 306.575,-152.073"/>
<polygon fill="midnightblue" stroke="midnightblue" points="218.625,-256.362 212.194,-264.782 222.472,-262.21 218.625,-256.362"/>
</g>
<!-- Node33 -->
<g id="node13" class="node"><title>Node33</title>
<g id="a_node13"><a xlink:href="../../d7/d73/namespacemom__ale.html#a994efb3c62fc5f63da2617f29cbd6be1" target="_top" xlink:title="Initialize diagnostics for the ALE module. ">
<polygon fill="white" stroke="black" points="427.5,-259.01 427.5,-289.01 523.5,-289.01 523.5,-259.01 427.5,-259.01"/>
<text text-anchor="start" x="435.5" y="-277.01" font-family="Helvetica,sans-Serif" font-size="10.00">mom_ale::ale_register</text>
<text text-anchor="middle" x="475.5" y="-266.01" font-family="Helvetica,sans-Serif" font-size="10.00">_diags</text>
</a>
</g>
</g>
<!-- Node32&#45;&gt;Node33 -->
<g id="edge13" class="edge"><title>Node32&#45;&gt;Node33</title>
<path fill="none" stroke="midnightblue" d="M343.043,-340.768C360.181,-327.515 383.524,-310.796 406,-299.01 412.951,-295.365 420.553,-292.019 428.083,-289.041"/>
<polygon fill="midnightblue" stroke="midnightblue" points="340.862,-338.03 335.159,-346.959 345.185,-343.536 340.862,-338.03"/>
</g>
<!-- Node35 -->
<g id="node15" class="node"><title>Node35</title>
<g id="a_node15"><a xlink:href="../../d8/dd2/namespacemom__coriolisadv.html#ad3ce07f23ce7b484a5a9e0c0abe8b1cd" target="_top" xlink:title="Initializes the control structure for coriolisadv_cs. ">
<polygon fill="white" stroke="black" points="410,-494.51 410,-513.51 541,-513.51 541,-494.51 410,-494.51"/>
<text text-anchor="middle" x="475.5" y="-501.51" font-family="Helvetica,sans-Serif" font-size="10.00">mom_coriolisadv::coriolisadv_init</text>
</a>
</g>
</g>
<!-- Node32&#45;&gt;Node35 -->
<g id="edge16" class="edge"><title>Node32&#45;&gt;Node35</title>
<path fill="none" stroke="midnightblue" d="M328.161,-386.129C342.332,-414.088 369.411,-459.573 406,-485.01 411.573,-488.884 417.914,-491.971 424.434,-494.43"/>
<polygon fill="midnightblue" stroke="midnightblue" points="331.243,-384.464 323.692,-377.032 324.96,-387.551 331.243,-384.464"/>
</g>
<!-- Node36 -->
<g id="node16" class="node"><title>Node36</title>
<g id="a_node16"><a xlink:href="../../d9/d06/namespacemom__diag__mediator.html#a21267e25d12fa3e5d2540d2a299d2d2c" target="_top" xlink:title="Registers a diagnostic using the information encapsulated in the vardesc type argument and returns an...">
<polygon fill="white" stroke="black" points="428,-533.01 428,-563.01 523,-563.01 523,-533.01 428,-533.01"/>
<text text-anchor="start" x="436" y="-551.01" font-family="Helvetica,sans-Serif" font-size="10.00">mom_diag_mediator::</text>
<text text-anchor="middle" x="475.5" y="-540.01" font-family="Helvetica,sans-Serif" font-size="10.00">ocean_register_diag</text>
</a>
</g>
</g>
<!-- Node32&#45;&gt;Node36 -->
<g id="edge17" class="edge"><title>Node32&#45;&gt;Node36</title>
<path fill="none" stroke="midnightblue" d="M327.926,-386.471C346.225,-426.52 383.296,-503.578 406,-523.01 412.348,-528.443 419.976,-532.736 427.802,-536.116"/>
<polygon fill="midnightblue" stroke="midnightblue" points="331.014,-384.807 323.698,-377.145 324.639,-387.697 331.014,-384.807"/>
</g>
<!-- Node38 -->
<g id="node18" class="node"><title>Node38</title>
<g id="a_node18"><a xlink:href="../../d7/daa/namespacemom__diapyc__energy__req.html#aa0ce122f4dc6d9a6ec9e17996484bb76" target="_top" xlink:title="mom_diapyc_energy_req\l::diapyc_energy_req_init">
<polygon fill="white" stroke="black" points="422,-445.01 422,-475.01 529,-475.01 529,-445.01 422,-445.01"/>
<text text-anchor="start" x="430" y="-463.01" font-family="Helvetica,sans-Serif" font-size="10.00">mom_diapyc_energy_req</text>
<text text-anchor="middle" x="475.5" y="-452.01" font-family="Helvetica,sans-Serif" font-size="10.00">::diapyc_energy_req_init</text>
</a>
</g>
</g>
<!-- Node32&#45;&gt;Node38 -->
<g id="edge19" class="edge"><title>Node32&#45;&gt;Node38</title>
<path fill="none" stroke="midnightblue" d="M339.068,-384.229C356.126,-400.393 380.981,-421.84 406,-436.01 411.811,-439.301 418.152,-442.258 424.555,-444.879"/>
<polygon fill="midnightblue" stroke="midnightblue" points="341.432,-381.647 331.806,-377.22 336.57,-386.683 341.432,-381.647"/>
</g>
<!-- Node39 -->
<g id="node19" class="node"><title>Node39</title>
<g id="a_node19"><a xlink:href="../../d6/d07/namespacemom__diffconvection.html#ac36d9d7fd69e4422e7de01242094ff34" target="_top" xlink:title="mom_diffconvection\l::diffconvection_init">
<polygon fill="white" stroke="black" points="432,-396.01 432,-426.01 519,-426.01 519,-396.01 432,-396.01"/>
<text text-anchor="start" x="440" y="-414.01" font-family="Helvetica,sans-Serif" font-size="10.00">mom_diffconvection</text>
<text text-anchor="middle" x="475.5" y="-403.01" font-family="Helvetica,sans-Serif" font-size="10.00">::diffconvection_init</text>
</a>
</g>
</g>
<!-- Node32&#45;&gt;Node39 -->
<g id="edge20" class="edge"><title>Node32&#45;&gt;Node39</title>
<path fill="none" stroke="midnightblue" d="M373.403,-379.557C392.669,-385.551 413.882,-392.151 431.88,-397.75"/>
<polygon fill="midnightblue" stroke="midnightblue" points="374.417,-376.208 363.829,-376.579 372.338,-382.892 374.417,-376.208"/>
</g>
<!-- Node40 -->
<g id="node20" class="node"><title>Node40</title>
<g id="a_node20"><a xlink:href="../../d0/d77/namespacemom__int__tide__input.html#a29a707637da633ccee155b53557b5f17" target="_top" xlink:title="mom_int_tide_input\l::int_tide_input_init">
<polygon fill="white" stroke="black" points="432.5,-347.01 432.5,-377.01 518.5,-377.01 518.5,-347.01 432.5,-347.01"/>
<text text-anchor="start" x="440.5" y="-365.01" font-family="Helvetica,sans-Serif" font-size="10.00">mom_int_tide_input</text>
<text text-anchor="middle" x="475.5" y="-354.01" font-family="Helvetica,sans-Serif" font-size="10.00">::int_tide_input_init</text>
</a>
</g>
</g>
<!-- Node32&#45;&gt;Node40 -->
<g id="edge21" class="edge"><title>Node32&#45;&gt;Node40</title>
<path fill="none" stroke="midnightblue" d="M374.018,-362.01C393.31,-362.01 414.489,-362.01 432.409,-362.01"/>
<polygon fill="midnightblue" stroke="midnightblue" points="373.829,-358.51 363.829,-362.01 373.829,-365.51 373.829,-358.51"/>
</g>
<!-- Node41 -->
<g id="node21" class="node"><title>Node41</title>
<g id="a_node21"><a xlink:href="../../d5/d08/namespacemom__kpp.html#a9c834424b6e067e280928db3700ec77e" target="_top" xlink:title="Initialize the CVmix KPP module and set up diagnostics Returns True if KPP is to be used...">
<polygon fill="white" stroke="black" points="434,-308.51 434,-327.51 517,-327.51 517,-308.51 434,-308.51"/>
<text text-anchor="middle" x="475.5" y="-315.51" font-family="Helvetica,sans-Serif" font-size="10.00">mom_kpp::kpp_init</text>
</a>
</g>
</g>
<!-- Node32&#45;&gt;Node41 -->
<g id="edge22" class="edge"><title>Node32&#45;&gt;Node41</title>
<path fill="none" stroke="midnightblue" d="M373.518,-346.221C395.783,-340.001 420.632,-333.059 440.108,-327.618"/>
<polygon fill="midnightblue" stroke="midnightblue" points="372.518,-342.866 363.829,-348.928 374.402,-349.608 372.518,-342.866"/>
</g>
<!-- Node42 -->
<g id="node22" class="node"><title>Node42</title>
<g id="a_node22"><a xlink:href="../../d8/da4/namespacemom__neutral__diffusion.html#a87cf821c52ac1111493d4168f0a91d17" target="_top" xlink:title="Diagnostic handles for neutral diffusion tendencies. ">
<polygon fill="white" stroke="black" points="419,-210.01 419,-240.01 532,-240.01 532,-210.01 419,-210.01"/>
<text text-anchor="start" x="427" y="-228.01" font-family="Helvetica,sans-Serif" font-size="10.00">mom_neutral_diffusion</text>
<text text-anchor="middle" x="475.5" y="-217.01" font-family="Helvetica,sans-Serif" font-size="10.00">::neutral_diffusion_diag_init</text>
</a>
</g>
</g>
<!-- Node32&#45;&gt;Node42 -->
<g id="edge23" class="edge"><title>Node32&#45;&gt;Node42</title>
<path fill="none" stroke="midnightblue" d="M348.457,-340.727C356.1,-334.622 363.836,-327.555 370,-320.01 392.383,-292.61 379.384,-272.319 406,-249.01 409.887,-245.606 414.285,-242.677 418.933,-240.158"/>
<polygon fill="midnightblue" stroke="midnightblue" points="346.117,-338.11 340.28,-346.953 350.357,-343.68 346.117,-338.11"/>
</g>
<!-- Node34 -->
<g id="node14" class="node"><title>Node34</title>
<g id="a_node14"><a xlink:href="../../da/d01/namespacemom.html#afebdc0103ad9cbe0ed4a54e522dc4104" target="_top" xlink:title="This subroutine initializes MOM. ">
<polygon fill="white" stroke="black" points="591.5,-239.51 591.5,-258.51 680.5,-258.51 680.5,-239.51 591.5,-239.51"/>
<text text-anchor="middle" x="636" y="-246.51" font-family="Helvetica,sans-Serif" font-size="10.00">mom::initialize_mom</text>
</a>
</g>
</g>
<!-- Node33&#45;&gt;Node34 -->
<g id="edge14" class="edge"><title>Node33&#45;&gt;Node34</title>
<path fill="none" stroke="midnightblue" d="M533.662,-264.994C552.658,-261.998 573.494,-258.711 591.307,-255.902"/>
<polygon fill="midnightblue" stroke="midnightblue" points="532.959,-261.561 523.626,-266.577 534.049,-268.476 532.959,-261.561"/>
</g>
<!-- Node34&#45;&gt;Node28 -->
<g id="edge15" class="edge"><title>Node34&#45;&gt;Node28</title>
<path fill="none" stroke="midnightblue" d="M645.01,-267.905C667.864,-321.818 732.833,-475.077 749.868,-515.264"/>
<polygon fill="midnightblue" stroke="midnightblue" points="648.153,-266.351 641.027,-258.51 641.708,-269.083 648.153,-266.351"/>
</g>
<!-- Node37 -->
<g id="node17" class="node"><title>Node37</title>
<g id="a_node17"><a xlink:href="../../d0/dbf/namespacemom__diag__to__z.html#a90526b2f59f94c6af2f525a221029772" target="_top" xlink:title="mom_diag_to_z::ocean\l_register_diag_with_z">
<polygon fill="white" stroke="black" points="586,-533.01 586,-563.01 686,-563.01 686,-533.01 586,-533.01"/>
<text text-anchor="start" x="594" y="-551.01" font-family="Helvetica,sans-Serif" font-size="10.00">mom_diag_to_z::ocean</text>
<text text-anchor="middle" x="636" y="-540.01" font-family="Helvetica,sans-Serif" font-size="10.00">_register_diag_with_z</text>
</a>
</g>
</g>
<!-- Node36&#45;&gt;Node37 -->
<g id="edge18" class="edge"><title>Node36&#45;&gt;Node37</title>
<path fill="none" stroke="midnightblue" d="M533.625,-548.01C550.733,-548.01 569.336,-548.01 585.881,-548.01"/>
<polygon fill="midnightblue" stroke="midnightblue" points="533.198,-544.51 523.198,-548.01 533.198,-551.51 533.198,-544.51"/>
</g>
<!-- Node42&#45;&gt;Node34 -->
<g id="edge24" class="edge"><title>Node42&#45;&gt;Node34</title>
<path fill="none" stroke="midnightblue" d="M542.508,-235.005C558.978,-237.499 576.233,-240.111 591.318,-242.396"/>
<polygon fill="midnightblue" stroke="midnightblue" points="542.792,-231.508 532.381,-233.471 541.744,-238.429 542.792,-231.508"/>
</g>
<!-- Node45 -->
<g id="node25" class="node"><title>Node45</title>
<g id="a_node25"><a xlink:href="../../de/d5f/namespacemom__geothermal.html#a0abbb7953860e3357bbd3d35f46fd851" target="_top" xlink:title="mom_geothermal::geothermal_init">
<polygon fill="white" stroke="black" points="406,-127.51 406,-146.51 545,-146.51 545,-127.51 406,-127.51"/>
<text text-anchor="middle" x="475.5" y="-134.51" font-family="Helvetica,sans-Serif" font-size="10.00">mom_geothermal::geothermal_init</text>
</a>
</g>
</g>
<!-- Node44&#45;&gt;Node45 -->
<g id="edge27" class="edge"><title>Node44&#45;&gt;Node45</title>
<path fill="none" stroke="midnightblue" d="M374,-137.01C384.383,-137.01 395.314,-137.01 405.989,-137.01"/>
<polygon fill="midnightblue" stroke="midnightblue" points="373.829,-133.51 363.829,-137.01 373.829,-140.51 373.829,-133.51"/>
</g>
<!-- Node46 -->
<g id="node26" class="node"><title>Node46</title>
<g id="a_node26"><a xlink:href="../../d8/df3/namespacemom__diabatic__driver.html#afa0b30bd6f0e080bcacbd6dcb15ff990" target="_top" xlink:title="This routine initializes the diabatic driver module. ">
<polygon fill="white" stroke="black" points="590.5,-122.01 590.5,-152.01 681.5,-152.01 681.5,-122.01 590.5,-122.01"/>
<text text-anchor="start" x="598.5" y="-140.01" font-family="Helvetica,sans-Serif" font-size="10.00">mom_diabatic_driver</text>
<text text-anchor="middle" x="636" y="-129.01" font-family="Helvetica,sans-Serif" font-size="10.00">::diabatic_driver_init</text>
</a>
</g>
</g>
<!-- Node45&#45;&gt;Node46 -->
<g id="edge28" class="edge"><title>Node45&#45;&gt;Node46</title>
<path fill="none" stroke="midnightblue" d="M555.144,-137.01C567.136,-137.01 579.148,-137.01 590.079,-137.01"/>
<polygon fill="midnightblue" stroke="midnightblue" points="555.099,-133.51 545.099,-137.01 555.099,-140.51 555.099,-133.51"/>
</g>
<!-- Node49 -->
<g id="node29" class="node"><title>Node49</title>
<g id="a_node29"><a xlink:href="../../d7/daa/namespacemom__diapyc__energy__req.html#ae781d0079acfadcd996aaff8d63957da" target="_top" xlink:title="mom_diapyc_energy_req\l::diapyc_energy_req_calc">
<polygon fill="white" stroke="black" points="262.5,-489.01 262.5,-519.01 369.5,-519.01 369.5,-489.01 262.5,-489.01"/>
<text text-anchor="start" x="270.5" y="-507.01" font-family="Helvetica,sans-Serif" font-size="10.00">mom_diapyc_energy_req</text>
<text text-anchor="middle" x="316" y="-496.01" font-family="Helvetica,sans-Serif" font-size="10.00">::diapyc_energy_req_calc</text>
</a>
</g>
</g>
<!-- Node48&#45;&gt;Node49 -->
<g id="edge31" class="edge"><title>Node48&#45;&gt;Node49</title>
<path fill="none" stroke="midnightblue" d="M230.756,-473.545C244.75,-478.606 259.743,-484.028 273.145,-488.874"/>
<polygon fill="midnightblue" stroke="midnightblue" points="231.854,-470.221 221.26,-470.111 229.474,-476.804 231.854,-470.221"/>
</g>
<!-- Node50 -->
<g id="node30" class="node"><title>Node50</title>
<g id="a_node30"><a xlink:href="../../d7/daa/namespacemom__diapyc__energy__req.html#afe7d4fc70231c1812ffd38faef76558e" target="_top" xlink:title="mom_diapyc_energy_req\l::diapyc_energy_req_test">
<polygon fill="white" stroke="black" points="422,-582.01 422,-612.01 529,-612.01 529,-582.01 422,-582.01"/>
<text text-anchor="start" x="430" y="-600.01" font-family="Helvetica,sans-Serif" font-size="10.00">mom_diapyc_energy_req</text>
<text text-anchor="middle" x="475.5" y="-589.01" font-family="Helvetica,sans-Serif" font-size="10.00">::diapyc_energy_req_test</text>
</a>
</g>
</g>
<!-- Node49&#45;&gt;Node50 -->
<g id="edge32" class="edge"><title>Node49&#45;&gt;Node50</title>
<path fill="none" stroke="midnightblue" d="M341.056,-526.141C358.164,-540.974 382.238,-560.083 406,-573.01 412.088,-576.322 418.722,-579.319 425.386,-581.983"/>
<polygon fill="midnightblue" stroke="midnightblue" points="343.062,-523.244 333.249,-519.249 338.429,-528.491 343.062,-523.244"/>
</g>
<!-- Node50&#45;&gt;Node30 -->
<g id="edge33" class="edge"><title>Node50&#45;&gt;Node30</title>
<path fill="none" stroke="midnightblue" d="M539.205,-611.648C556.32,-615.643 574.513,-619.89 590.394,-623.597"/>
<polygon fill="midnightblue" stroke="midnightblue" points="539.812,-608.195 529.278,-609.33 538.221,-615.012 539.812,-608.195"/>
</g>
<!-- Node53&#45;&gt;Node52 -->
<g id="edge40" class="edge"><title>Node53&#45;&gt;Node52</title>
<path fill="none" stroke="midnightblue" d="M236.219,-35.8009C246.898,-34.0671 257.952,-32.2723 268.283,-30.595"/>
<polygon fill="midnightblue" stroke="midnightblue" points="235.441,-32.3813 226.131,-37.4387 236.563,-39.2908 235.441,-32.3813"/>
</g>
<!-- Node54&#45;&gt;Node34 -->
<g id="edge42" class="edge"><title>Node54&#45;&gt;Node34</title>
<path fill="none" stroke="midnightblue" d="M236.044,-214.81C308.691,-196.572 438.168,-172.813 545,-200.01 574.999,-207.647 605.796,-227.539 622.447,-239.499"/>
<polygon fill="midnightblue" stroke="midnightblue" points="234.995,-211.465 226.178,-217.341 236.734,-218.246 234.995,-211.465"/>
</g>
</g>
</svg>
