<?xml version="1.0" encoding="UTF-8" standalone="no"?>
<!DOCTYPE svg PUBLIC "-//W3C//DTD SVG 1.1//EN"
 "http://www.w3.org/Graphics/SVG/1.1/DTD/svg11.dtd">
<!-- Generated by graphviz version 2.38.0 (20140413.2041)
 -->
<!-- Title: mom_diag_mediator::initialize_diag_type Pages: 1 -->
<svg width="768pt" height="405pt"
 viewBox="0.00 0.00 768.00 405.00" xmlns="http://www.w3.org/2000/svg" xmlns:xlink="http://www.w3.org/1999/xlink">
<g id="graph0" class="graph" transform="scale(1 1) rotate(0) translate(4 401)">
<title>mom_diag_mediator::initialize_diag_type</title>
<polygon fill="white" stroke="none" points="-4,4 -4,-401 764,-401 764,4 -4,4"/>
<!-- Node204 -->
<g id="node1" class="node"><title>Node204</title>
<polygon fill="#bfbfbf" stroke="black" points="0,-135.5 0,-165.5 95,-165.5 95,-135.5 0,-135.5"/>
<text text-anchor="start" x="8" y="-153.5" font-family="Helvetica,sans-Serif" font-size="10.00">mom_diag_mediator::</text>
<text text-anchor="middle" x="47.5" y="-142.5" font-family="Helvetica,sans-Serif" font-size="10.00">initialize_diag_type</text>
</g>
<!-- Node205 -->
<g id="node2" class="node"><title>Node205</title>
<g id="a_node2"><a xlink:href="../../d9/d06/namespacemom__diag__mediator.html#a03785b401557ffdf08cd45b735e4486f" target="_top" xlink:title="diag_mediator_init initializes the MOM diag_mediator and opens the available diagnostics file...">
<polygon fill="white" stroke="black" points="131,-160.5 131,-190.5 226,-190.5 226,-160.5 131,-160.5"/>
<text text-anchor="start" x="139" y="-178.5" font-family="Helvetica,sans-Serif" font-size="10.00">mom_diag_mediator::</text>
<text text-anchor="middle" x="178.5" y="-167.5" font-family="Helvetica,sans-Serif" font-size="10.00">diag_mediator_init</text>
</a>
</g>
</g>
<!-- Node204&#45;&gt;Node205 -->
<g id="edge1" class="edge"><title>Node204&#45;&gt;Node205</title>
<path fill="none" stroke="midnightblue" d="M105.101,-161.469C113.752,-163.146 122.596,-164.86 130.996,-166.488"/>
<polygon fill="midnightblue" stroke="midnightblue" points="105.555,-157.992 95.072,-159.526 104.223,-164.864 105.555,-157.992"/>
</g>
<!-- Node206 -->
<g id="node3" class="node"><title>Node206</title>
<g id="a_node3"><a xlink:href="../../d9/d06/namespacemom__diag__mediator.html#a3f7442639213320f7429e2288a79fda2" target="_top" xlink:title="Returns a new diagnostic id, it may be necessary to expand the diagnostics array. ...">
<polygon fill="white" stroke="black" points="131,-111.5 131,-141.5 226,-141.5 226,-111.5 131,-111.5"/>
<text text-anchor="start" x="139" y="-129.5" font-family="Helvetica,sans-Serif" font-size="10.00">mom_diag_mediator::</text>
<text text-anchor="middle" x="178.5" y="-118.5" font-family="Helvetica,sans-Serif" font-size="10.00">get_new_diag_id</text>
</a>
</g>
</g>
<!-- Node204&#45;&gt;Node206 -->
<g id="edge2" class="edge"><title>Node204&#45;&gt;Node206</title>
<path fill="none" stroke="midnightblue" d="M105.101,-139.97C113.752,-138.36 122.596,-136.715 130.996,-135.152"/>
<polygon fill="midnightblue" stroke="midnightblue" points="104.263,-136.565 95.072,-141.835 105.543,-143.447 104.263,-136.565"/>
</g>
<!-- Node207 -->
<g id="node4" class="node"><title>Node207</title>
<g id="a_node4"><a xlink:href="../../d9/d06/namespacemom__diag__mediator.html#aab2007573b14ed73053282770d1b19a4" target="_top" xlink:title="mom_diag_mediator::\lregister_diag_field">
<polygon fill="white" stroke="black" points="262,-180.5 262,-210.5 357,-210.5 357,-180.5 262,-180.5"/>
<text text-anchor="start" x="270" y="-198.5" font-family="Helvetica,sans-Serif" font-size="10.00">mom_diag_mediator::</text>
<text text-anchor="middle" x="309.5" y="-187.5" font-family="Helvetica,sans-Serif" font-size="10.00">register_diag_field</text>
</a>
</g>
</g>
<!-- Node206&#45;&gt;Node207 -->
<g id="edge3" class="edge"><title>Node206&#45;&gt;Node207</title>
<path fill="none" stroke="midnightblue" d="M216.762,-146.431C236.999,-157.255 261.619,-170.424 280.256,-180.393"/>
<polygon fill="midnightblue" stroke="midnightblue" points="218.278,-143.273 207.81,-141.642 214.977,-149.445 218.278,-143.273"/>
</g>
<!-- Node219 -->
<g id="node16" class="node"><title>Node219</title>
<g id="a_node16"><a xlink:href="../../d9/d06/namespacemom__diag__mediator.html#a60caf99cd0670e8ae1d7d0c1230b72a5" target="_top" xlink:title="mom_diag_mediator::\lregister_scalar_field">
<polygon fill="white" stroke="black" points="262,-111.5 262,-141.5 357,-141.5 357,-111.5 262,-111.5"/>
<text text-anchor="start" x="270" y="-129.5" font-family="Helvetica,sans-Serif" font-size="10.00">mom_diag_mediator::</text>
<text text-anchor="middle" x="309.5" y="-118.5" font-family="Helvetica,sans-Serif" font-size="10.00">register_scalar_field</text>
</a>
</g>
</g>
<!-- Node206&#45;&gt;Node219 -->
<g id="edge16" class="edge"><title>Node206&#45;&gt;Node219</title>
<path fill="none" stroke="midnightblue" d="M236.101,-126.5C244.752,-126.5 253.596,-126.5 261.996,-126.5"/>
<polygon fill="midnightblue" stroke="midnightblue" points="236.072,-123 226.072,-126.5 236.072,-130 236.072,-123"/>
</g>
<!-- Node220 -->
<g id="node17" class="node"><title>Node220</title>
<g id="a_node17"><a xlink:href="../../d9/d06/namespacemom__diag__mediator.html#abe591ed2565e9f026c5be055bc2fc0b7" target="_top" xlink:title="Registers a static diagnostic, returning an integer handle. ">
<polygon fill="white" stroke="black" points="262,-21.5 262,-51.5 357,-51.5 357,-21.5 262,-21.5"/>
<text text-anchor="start" x="270" y="-39.5" font-family="Helvetica,sans-Serif" font-size="10.00">mom_diag_mediator::</text>
<text text-anchor="middle" x="309.5" y="-28.5" font-family="Helvetica,sans-Serif" font-size="10.00">register_static_field</text>
</a>
</g>
</g>
<!-- Node206&#45;&gt;Node220 -->
<g id="edge17" class="edge"><title>Node206&#45;&gt;Node220</title>
<path fill="none" stroke="midnightblue" d="M209.38,-105.653C233.067,-89.1279 265.605,-66.427 286.838,-51.6131"/>
<polygon fill="midnightblue" stroke="midnightblue" points="207.29,-102.844 201.092,-111.436 211.296,-108.585 207.29,-102.844"/>
</g>
<!-- Node208 -->
<g id="node5" class="node"><title>Node208</title>
<g id="a_node5"><a xlink:href="../../d7/d73/namespacemom__ale.html#a994efb3c62fc5f63da2617f29cbd6be1" target="_top" xlink:title="Initialize diagnostics for the ALE module. ">
<polygon fill="white" stroke="black" points="414.5,-317.5 414.5,-347.5 510.5,-347.5 510.5,-317.5 414.5,-317.5"/>
<text text-anchor="start" x="422.5" y="-335.5" font-family="Helvetica,sans-Serif" font-size="10.00">mom_ale::ale_register</text>
<text text-anchor="middle" x="462.5" y="-324.5" font-family="Helvetica,sans-Serif" font-size="10.00">_diags</text>
</a>
</g>
</g>
<!-- Node207&#45;&gt;Node208 -->
<g id="edge4" class="edge"><title>Node207&#45;&gt;Node208</title>
<path fill="none" stroke="midnightblue" d="M322.739,-219.687C336.615,-244.872 361.465,-283.876 393,-307.5 399.383,-312.282 406.773,-316.224 414.288,-319.45"/>
<polygon fill="midnightblue" stroke="midnightblue" points="325.772,-217.937 317.967,-210.773 319.601,-221.241 325.772,-217.937"/>
</g>
<!-- Node211 -->
<g id="node8" class="node"><title>Node211</title>
<g id="a_node8"><a xlink:href="../../d8/dd2/namespacemom__coriolisadv.html#ad3ce07f23ce7b484a5a9e0c0abe8b1cd" target="_top" xlink:title="Initializes the control structure for coriolisadv_cs. ">
<polygon fill="white" stroke="black" points="397,-279 397,-298 528,-298 528,-279 397,-279"/>
<text text-anchor="middle" x="462.5" y="-286" font-family="Helvetica,sans-Serif" font-size="10.00">mom_coriolisadv::coriolisadv_init</text>
</a>
</g>
</g>
<!-- Node207&#45;&gt;Node211 -->
<g id="edge7" class="edge"><title>Node207&#45;&gt;Node211</title>
<path fill="none" stroke="midnightblue" d="M330.258,-218.126C345.786,-234.591 368.779,-256.241 393,-269.5 400.037,-273.352 407.916,-276.473 415.757,-278.985"/>
<polygon fill="midnightblue" stroke="midnightblue" points="332.607,-215.51 323.261,-210.519 327.454,-220.248 332.607,-215.51"/>
</g>
<!-- Node212 -->
<g id="node9" class="node"><title>Node212</title>
<g id="a_node9"><a xlink:href="../../d9/d06/namespacemom__diag__mediator.html#a21267e25d12fa3e5d2540d2a299d2d2c" target="_top" xlink:title="Registers a diagnostic using the information encapsulated in the vardesc type argument and returns an...">
<polygon fill="white" stroke="black" points="415,-229.5 415,-259.5 510,-259.5 510,-229.5 415,-229.5"/>
<text text-anchor="start" x="423" y="-247.5" font-family="Helvetica,sans-Serif" font-size="10.00">mom_diag_mediator::</text>
<text text-anchor="middle" x="462.5" y="-236.5" font-family="Helvetica,sans-Serif" font-size="10.00">ocean_register_diag</text>
</a>
</g>
</g>
<!-- Node207&#45;&gt;Node212 -->
<g id="edge8" class="edge"><title>Node207&#45;&gt;Node212</title>
<path fill="none" stroke="midnightblue" d="M366.768,-213.759C382.694,-218.927 399.844,-224.492 415.117,-229.448"/>
<polygon fill="midnightblue" stroke="midnightblue" points="367.629,-210.359 357.037,-210.601 365.468,-217.017 367.629,-210.359"/>
</g>
<!-- Node214 -->
<g id="node11" class="node"><title>Node214</title>
<g id="a_node11"><a xlink:href="../../d7/daa/namespacemom__diapyc__energy__req.html#aa0ce122f4dc6d9a6ec9e17996484bb76" target="_top" xlink:title="mom_diapyc_energy_req\l::diapyc_energy_req_init">
<polygon fill="white" stroke="black" points="409,-180.5 409,-210.5 516,-210.5 516,-180.5 409,-180.5"/>
<text text-anchor="start" x="417" y="-198.5" font-family="Helvetica,sans-Serif" font-size="10.00">mom_diapyc_energy_req</text>
<text text-anchor="middle" x="462.5" y="-187.5" font-family="Helvetica,sans-Serif" font-size="10.00">::diapyc_energy_req_init</text>
</a>
</g>
</g>
<!-- Node207&#45;&gt;Node214 -->
<g id="edge10" class="edge"><title>Node207&#45;&gt;Node214</title>
<path fill="none" stroke="midnightblue" d="M367.251,-195.5C380.87,-195.5 395.359,-195.5 408.786,-195.5"/>
<polygon fill="midnightblue" stroke="midnightblue" points="367.037,-192 357.037,-195.5 367.037,-199 367.037,-192"/>
</g>
<!-- Node215 -->
<g id="node12" class="node"><title>Node215</title>
<g id="a_node12"><a xlink:href="../../d6/d07/namespacemom__diffconvection.html#ac36d9d7fd69e4422e7de01242094ff34" target="_top" xlink:title="mom_diffconvection\l::diffconvection_init">
<polygon fill="white" stroke="black" points="419,-131.5 419,-161.5 506,-161.5 506,-131.5 419,-131.5"/>
<text text-anchor="start" x="427" y="-149.5" font-family="Helvetica,sans-Serif" font-size="10.00">mom_diffconvection</text>
<text text-anchor="middle" x="462.5" y="-138.5" font-family="Helvetica,sans-Serif" font-size="10.00">::diffconvection_init</text>
</a>
</g>
</g>
<!-- Node207&#45;&gt;Node215 -->
<g id="edge11" class="edge"><title>Node207&#45;&gt;Node215</title>
<path fill="none" stroke="midnightblue" d="M366.984,-177.171C384.204,-171.583 402.837,-165.536 418.97,-160.301"/>
<polygon fill="midnightblue" stroke="midnightblue" points="365.468,-173.983 357.037,-180.399 367.629,-180.641 365.468,-173.983"/>
</g>
<!-- Node216 -->
<g id="node13" class="node"><title>Node216</title>
<g id="a_node13"><a xlink:href="../../d0/d77/namespacemom__int__tide__input.html#a29a707637da633ccee155b53557b5f17" target="_top" xlink:title="mom_int_tide_input\l::int_tide_input_init">
<polygon fill="white" stroke="black" points="419.5,-82.5 419.5,-112.5 505.5,-112.5 505.5,-82.5 419.5,-82.5"/>
<text text-anchor="start" x="427.5" y="-100.5" font-family="Helvetica,sans-Serif" font-size="10.00">mom_int_tide_input</text>
<text text-anchor="middle" x="462.5" y="-89.5" font-family="Helvetica,sans-Serif" font-size="10.00">::int_tide_input_init</text>
</a>
</g>
</g>
<!-- Node207&#45;&gt;Node216 -->
<g id="edge12" class="edge"><title>Node207&#45;&gt;Node216</title>
<path fill="none" stroke="midnightblue" d="M333.479,-173.415C353.201,-154.796 380.38,-130.016 393,-122.5 401.158,-117.642 410.415,-113.484 419.427,-110.034"/>
<polygon fill="midnightblue" stroke="midnightblue" points="330.913,-171.026 326.071,-180.449 335.733,-176.102 330.913,-171.026"/>
</g>
<!-- Node217 -->
<g id="node14" class="node"><title>Node217</title>
<g id="a_node14"><a xlink:href="../../d5/d08/namespacemom__kpp.html#a9c834424b6e067e280928db3700ec77e" target="_top" xlink:title="Initialize the CVmix KPP module and set up diagnostics Returns True if KPP is to be used...">
<polygon fill="white" stroke="black" points="421,-44 421,-63 504,-63 504,-44 421,-44"/>
<text text-anchor="middle" x="462.5" y="-51" font-family="Helvetica,sans-Serif" font-size="10.00">mom_kpp::kpp_init</text>
</a>
</g>
</g>
<!-- Node207&#45;&gt;Node217 -->
<g id="edge13" class="edge"><title>Node207&#45;&gt;Node217</title>
<path fill="none" stroke="midnightblue" d="M337.274,-173.5C344.265,-166.91 351.402,-159.337 357,-151.5 379.429,-120.103 363.661,-97.5599 393,-72.5 400.883,-65.7671 410.967,-61.407 420.961,-58.5874"/>
<polygon fill="midnightblue" stroke="midnightblue" points="334.897,-170.929 329.823,-180.23 339.59,-176.124 334.897,-170.929"/>
</g>
<!-- Node218 -->
<g id="node15" class="node"><title>Node218</title>
<g id="a_node15"><a xlink:href="../../d8/da4/namespacemom__neutral__diffusion.html#a87cf821c52ac1111493d4168f0a91d17" target="_top" xlink:title="Diagnostic handles for neutral diffusion tendencies. ">
<polygon fill="white" stroke="black" points="406,-366.5 406,-396.5 519,-396.5 519,-366.5 406,-366.5"/>
<text text-anchor="start" x="414" y="-384.5" font-family="Helvetica,sans-Serif" font-size="10.00">mom_neutral_diffusion</text>
<text text-anchor="middle" x="462.5" y="-373.5" font-family="Helvetica,sans-Serif" font-size="10.00">::neutral_diffusion_diag_init</text>
</a>
</g>
</g>
<!-- Node207&#45;&gt;Node218 -->
<g id="edge14" class="edge"><title>Node207&#45;&gt;Node218</title>
<path fill="none" stroke="midnightblue" d="M316.938,-220.838C327.201,-256.266 350.577,-320.413 393,-357.5 396.89,-360.9 401.29,-363.827 405.939,-366.345"/>
<polygon fill="midnightblue" stroke="midnightblue" points="320.208,-219.531 314.167,-210.827 313.461,-221.398 320.208,-219.531"/>
</g>
<!-- Node209 -->
<g id="node6" class="node"><title>Node209</title>
<g id="a_node6"><a xlink:href="../../da/d01/namespacemom.html#afebdc0103ad9cbe0ed4a54e522dc4104" target="_top" xlink:title="This subroutine initializes MOM. ">
<polygon fill="white" stroke="black" points="573.5,-347 573.5,-366 662.5,-366 662.5,-347 573.5,-347"/>
<text text-anchor="middle" x="618" y="-354" font-family="Helvetica,sans-Serif" font-size="10.00">mom::initialize_mom</text>
</a>
</g>
</g>
<!-- Node208&#45;&gt;Node209 -->
<g id="edge5" class="edge"><title>Node208&#45;&gt;Node209</title>
<path fill="none" stroke="midnightblue" d="M520.828,-341.463C538.176,-344.176 556.94,-347.11 573.249,-349.659"/>
<polygon fill="midnightblue" stroke="midnightblue" points="521.228,-337.983 510.808,-339.897 520.147,-344.899 521.228,-337.983"/>
</g>
<!-- Node210 -->
<g id="node7" class="node"><title>Node210</title>
<g id="a_node7"><a xlink:href="../../de/dbc/MOM__driver_8F90.html#a08fffeb2d8e8acbf9ed4609be6d258c6" target="_top" xlink:title="mom_main">
<polygon fill="white" stroke="black" points="704,-347 704,-366 760,-366 760,-347 704,-347"/>
<text text-anchor="middle" x="732" y="-354" font-family="Helvetica,sans-Serif" font-size="10.00">mom_main</text>
</a>
</g>
</g>
<!-- Node209&#45;&gt;Node210 -->
<g id="edge6" class="edge"><title>Node209&#45;&gt;Node210</title>
<path fill="none" stroke="midnightblue" d="M672.845,-356.5C683.594,-356.5 694.449,-356.5 703.823,-356.5"/>
<polygon fill="midnightblue" stroke="midnightblue" points="672.623,-353 662.623,-356.5 672.623,-360 672.623,-353"/>
</g>
<!-- Node213 -->
<g id="node10" class="node"><title>Node213</title>
<g id="a_node10"><a xlink:href="../../d0/dbf/namespacemom__diag__to__z.html#a90526b2f59f94c6af2f525a221029772" target="_top" xlink:title="mom_diag_to_z::ocean\l_register_diag_with_z">
<polygon fill="white" stroke="black" points="568,-229.5 568,-259.5 668,-259.5 668,-229.5 568,-229.5"/>
<text text-anchor="start" x="576" y="-247.5" font-family="Helvetica,sans-Serif" font-size="10.00">mom_diag_to_z::ocean</text>
<text text-anchor="middle" x="618" y="-236.5" font-family="Helvetica,sans-Serif" font-size="10.00">_register_diag_with_z</text>
</a>
</g>
</g>
<!-- Node212&#45;&gt;Node213 -->
<g id="edge9" class="edge"><title>Node212&#45;&gt;Node213</title>
<path fill="none" stroke="midnightblue" d="M520.406,-244.5C535.95,-244.5 552.66,-244.5 567.739,-244.5"/>
<polygon fill="midnightblue" stroke="midnightblue" points="520.389,-241 510.389,-244.5 520.389,-248 520.389,-241"/>
</g>
<!-- Node218&#45;&gt;Node209 -->
<g id="edge15" class="edge"><title>Node218&#45;&gt;Node209</title>
<path fill="none" stroke="midnightblue" d="M529.524,-370.747C544.386,-368.326 559.794,-365.817 573.462,-363.591"/>
<polygon fill="midnightblue" stroke="midnightblue" points="528.659,-367.342 519.351,-372.404 529.784,-374.251 528.659,-367.342"/>
</g>
<!-- Node221 -->
<g id="node18" class="node"><title>Node221</title>
<g id="a_node18"><a xlink:href="../../de/d5f/namespacemom__geothermal.html#a0abbb7953860e3357bbd3d35f46fd851" target="_top" xlink:title="mom_geothermal::geothermal_init">
<polygon fill="white" stroke="black" points="393,-6 393,-25 532,-25 532,-6 393,-6"/>
<text text-anchor="middle" x="462.5" y="-13" font-family="Helvetica,sans-Serif" font-size="10.00">mom_geothermal::geothermal_init</text>
</a>
</g>
</g>
<!-- Node220&#45;&gt;Node221 -->
<g id="edge18" class="edge"><title>Node220&#45;&gt;Node221</title>
<path fill="none" stroke="midnightblue" d="M367.187,-28.6164C375.672,-27.4364 384.495,-26.2094 393.189,-25.0002"/>
<polygon fill="midnightblue" stroke="midnightblue" points="366.46,-25.1838 357.037,-30.028 367.424,-32.117 366.46,-25.1838"/>
</g>
<!-- Node222 -->
<g id="node19" class="node"><title>Node222</title>
<g id="a_node19"><a xlink:href="../../d8/df3/namespacemom__diabatic__driver.html#afa0b30bd6f0e080bcacbd6dcb15ff990" target="_top" xlink:title="This routine initializes the diabatic driver module. ">
<polygon fill="white" stroke="black" points="572.5,-0.5 572.5,-30.5 663.5,-30.5 663.5,-0.5 572.5,-0.5"/>
<text text-anchor="start" x="580.5" y="-18.5" font-family="Helvetica,sans-Serif" font-size="10.00">mom_diabatic_driver</text>
<text text-anchor="middle" x="618" y="-7.5" font-family="Helvetica,sans-Serif" font-size="10.00">::diabatic_driver_init</text>
</a>
</g>
</g>
<!-- Node221&#45;&gt;Node222 -->
<g id="edge19" class="edge"><title>Node221&#45;&gt;Node222</title>
<path fill="none" stroke="midnightblue" d="M542.383,-15.5C552.608,-15.5 562.782,-15.5 572.179,-15.5"/>
<polygon fill="midnightblue" stroke="midnightblue" points="542.169,-12.0001 532.169,-15.5 542.169,-19.0001 542.169,-12.0001"/>
</g>
</g>
</svg>
