<?xml version="1.0" encoding="UTF-8" standalone="no"?>
<!DOCTYPE svg PUBLIC "-//W3C//DTD SVG 1.1//EN"
 "http://www.w3.org/Graphics/SVG/1.1/DTD/svg11.dtd">
<!-- Generated by graphviz version 2.38.0 (20140413.2041)
 -->
<!-- Title: mom_diag_mediator::register_diag_field Pages: 1 -->
<svg width="498pt" height="362pt"
 viewBox="0.00 0.00 498.00 362.00" xmlns="http://www.w3.org/2000/svg" xmlns:xlink="http://www.w3.org/1999/xlink">
<g id="graph0" class="graph" transform="scale(1 1) rotate(0) translate(4 358)">
<title>mom_diag_mediator::register_diag_field</title>
<polygon fill="white" stroke="none" points="-4,4 -4,-358 494,-358 494,4 -4,4"/>
<!-- Node420 -->
<g id="node1" class="node"><title>Node420</title>
<polygon fill="#bfbfbf" stroke="black" points="0,-161.5 0,-191.5 95,-191.5 95,-161.5 0,-161.5"/>
<text text-anchor="start" x="8" y="-179.5" font-family="Helvetica,sans-Serif" font-size="10.00">mom_diag_mediator::</text>
<text text-anchor="middle" x="47.5" y="-168.5" font-family="Helvetica,sans-Serif" font-size="10.00">register_diag_field</text>
</g>
<!-- Node421 -->
<g id="node2" class="node"><title>Node421</title>
<g id="a_node2"><a xlink:href="../../d7/d73/namespacemom__ale.html#a994efb3c62fc5f63da2617f29cbd6be1" target="_top" xlink:title="Initialize diagnostics for the ALE module. ">
<polygon fill="white" stroke="black" points="148.5,-323.5 148.5,-353.5 244.5,-353.5 244.5,-323.5 148.5,-323.5"/>
<text text-anchor="start" x="156.5" y="-341.5" font-family="Helvetica,sans-Serif" font-size="10.00">mom_ale::ale_register</text>
<text text-anchor="middle" x="196.5" y="-330.5" font-family="Helvetica,sans-Serif" font-size="10.00">_diags</text>
</a>
</g>
</g>
<!-- Node420&#45;&gt;Node421 -->
<g id="edge1" class="edge"><title>Node420&#45;&gt;Node421</title>
<path fill="none" stroke="midnightblue" d="M57.5989,-201.354C69.8884,-231.722 94.5374,-282.834 131,-313.5 136.147,-317.829 142.129,-321.46 148.333,-324.492"/>
<polygon fill="midnightblue" stroke="midnightblue" points="60.8075,-199.948 53.9058,-191.91 54.2882,-202.498 60.8075,-199.948"/>
</g>
<!-- Node424 -->
<g id="node5" class="node"><title>Node424</title>
<g id="a_node5"><a xlink:href="../../d8/dd2/namespacemom__coriolisadv.html#ad3ce07f23ce7b484a5a9e0c0abe8b1cd" target="_top" xlink:title="Initializes the control structure for coriolisadv_cs. ">
<polygon fill="white" stroke="black" points="131,-285 131,-304 262,-304 262,-285 131,-285"/>
<text text-anchor="middle" x="196.5" y="-292" font-family="Helvetica,sans-Serif" font-size="10.00">mom_coriolisadv::coriolisadv_init</text>
</a>
</g>
</g>
<!-- Node420&#45;&gt;Node424 -->
<g id="edge4" class="edge"><title>Node420&#45;&gt;Node424</title>
<path fill="none" stroke="midnightblue" d="M62.4694,-200.296C76.8914,-222.843 101.418,-256.065 131,-275.5 136.854,-279.346 143.507,-282.433 150.263,-284.905"/>
<polygon fill="midnightblue" stroke="midnightblue" points="65.3471,-198.296 57.0969,-191.649 59.4012,-201.99 65.3471,-198.296"/>
</g>
<!-- Node425 -->
<g id="node6" class="node"><title>Node425</title>
<g id="a_node6"><a xlink:href="../../d7/daa/namespacemom__diapyc__energy__req.html#aa0ce122f4dc6d9a6ec9e17996484bb76" target="_top" xlink:title="mom_diapyc_energy_req\l::diapyc_energy_req_init">
<polygon fill="white" stroke="black" points="143,-235.5 143,-265.5 250,-265.5 250,-235.5 143,-235.5"/>
<text text-anchor="start" x="151" y="-253.5" font-family="Helvetica,sans-Serif" font-size="10.00">mom_diapyc_energy_req</text>
<text text-anchor="middle" x="196.5" y="-242.5" font-family="Helvetica,sans-Serif" font-size="10.00">::diapyc_energy_req_init</text>
</a>
</g>
</g>
<!-- Node420&#45;&gt;Node425 -->
<g id="edge5" class="edge"><title>Node420&#45;&gt;Node425</title>
<path fill="none" stroke="midnightblue" d="M79.4407,-197.16C94.6018,-206.784 113.355,-217.965 131,-226.5 137.561,-229.674 144.657,-232.698 151.662,-235.463"/>
<polygon fill="midnightblue" stroke="midnightblue" points="81.2679,-194.174 70.9647,-191.706 77.4797,-200.06 81.2679,-194.174"/>
</g>
<!-- Node426 -->
<g id="node7" class="node"><title>Node426</title>
<g id="a_node7"><a xlink:href="../../d6/d07/namespacemom__diffconvection.html#ac36d9d7fd69e4422e7de01242094ff34" target="_top" xlink:title="mom_diffconvection\l::diffconvection_init">
<polygon fill="white" stroke="black" points="153,-186.5 153,-216.5 240,-216.5 240,-186.5 153,-186.5"/>
<text text-anchor="start" x="161" y="-204.5" font-family="Helvetica,sans-Serif" font-size="10.00">mom_diffconvection</text>
<text text-anchor="middle" x="196.5" y="-193.5" font-family="Helvetica,sans-Serif" font-size="10.00">::diffconvection_init</text>
</a>
</g>
</g>
<!-- Node420&#45;&gt;Node426 -->
<g id="edge6" class="edge"><title>Node420&#45;&gt;Node426</title>
<path fill="none" stroke="midnightblue" d="M105.211,-186.145C121.021,-188.834 137.927,-191.709 152.784,-194.235"/>
<polygon fill="midnightblue" stroke="midnightblue" points="105.457,-182.636 95.0117,-184.41 104.283,-189.537 105.457,-182.636"/>
</g>
<!-- Node427 -->
<g id="node8" class="node"><title>Node427</title>
<g id="a_node8"><a xlink:href="../../d0/d77/namespacemom__int__tide__input.html#a29a707637da633ccee155b53557b5f17" target="_top" xlink:title="mom_int_tide_input\l::int_tide_input_init">
<polygon fill="white" stroke="black" points="153.5,-137.5 153.5,-167.5 239.5,-167.5 239.5,-137.5 153.5,-137.5"/>
<text text-anchor="start" x="161.5" y="-155.5" font-family="Helvetica,sans-Serif" font-size="10.00">mom_int_tide_input</text>
<text text-anchor="middle" x="196.5" y="-144.5" font-family="Helvetica,sans-Serif" font-size="10.00">::int_tide_input_init</text>
</a>
</g>
</g>
<!-- Node420&#45;&gt;Node427 -->
<g id="edge7" class="edge"><title>Node420&#45;&gt;Node427</title>
<path fill="none" stroke="midnightblue" d="M105.305,-167.226C121.264,-164.62 138.331,-161.834 153.277,-159.394"/>
<polygon fill="midnightblue" stroke="midnightblue" points="104.317,-163.841 95.0117,-168.906 105.445,-170.749 104.317,-163.841"/>
</g>
<!-- Node428 -->
<g id="node9" class="node"><title>Node428</title>
<g id="a_node9"><a xlink:href="../../d5/d08/namespacemom__kpp.html#a9c834424b6e067e280928db3700ec77e" target="_top" xlink:title="Initialize the CVmix KPP module and set up diagnostics Returns True if KPP is to be used...">
<polygon fill="white" stroke="black" points="155,-99 155,-118 238,-118 238,-99 155,-99"/>
<text text-anchor="middle" x="196.5" y="-106" font-family="Helvetica,sans-Serif" font-size="10.00">mom_kpp::kpp_init</text>
</a>
</g>
</g>
<!-- Node420&#45;&gt;Node428 -->
<g id="edge8" class="edge"><title>Node420&#45;&gt;Node428</title>
<path fill="none" stroke="midnightblue" d="M80.0908,-155.856C95.0967,-146.647 113.535,-136.17 131,-128.5 140.017,-124.54 150.061,-121.026 159.487,-118.09"/>
<polygon fill="midnightblue" stroke="midnightblue" points="77.8581,-153.124 71.2305,-161.39 81.5663,-159.061 77.8581,-153.124"/>
</g>
<!-- Node429 -->
<g id="node10" class="node"><title>Node429</title>
<g id="a_node10"><a xlink:href="../../d8/da4/namespacemom__neutral__diffusion.html#a87cf821c52ac1111493d4168f0a91d17" target="_top" xlink:title="Diagnostic handles for neutral diffusion tendencies. ">
<polygon fill="white" stroke="black" points="140,-49.5 140,-79.5 253,-79.5 253,-49.5 140,-49.5"/>
<text text-anchor="start" x="148" y="-67.5" font-family="Helvetica,sans-Serif" font-size="10.00">mom_neutral_diffusion</text>
<text text-anchor="middle" x="196.5" y="-56.5" font-family="Helvetica,sans-Serif" font-size="10.00">::neutral_diffusion_diag_init</text>
</a>
</g>
</g>
<!-- Node420&#45;&gt;Node429 -->
<g id="edge9" class="edge"><title>Node420&#45;&gt;Node429</title>
<path fill="none" stroke="midnightblue" d="M65.6695,-153.32C80.9804,-134.024 104.949,-106.975 131,-89.5 136.585,-85.7535 142.813,-82.4498 149.136,-79.5744"/>
<polygon fill="midnightblue" stroke="midnightblue" points="62.8268,-151.274 59.4624,-161.321 68.3575,-155.565 62.8268,-151.274"/>
</g>
<!-- Node430 -->
<g id="node11" class="node"><title>Node430</title>
<g id="a_node11"><a xlink:href="../../d9/d06/namespacemom__diag__mediator.html#a21267e25d12fa3e5d2540d2a299d2d2c" target="_top" xlink:title="Registers a diagnostic using the information encapsulated in the vardesc type argument and returns an...">
<polygon fill="white" stroke="black" points="149,-0.5 149,-30.5 244,-30.5 244,-0.5 149,-0.5"/>
<text text-anchor="start" x="157" y="-18.5" font-family="Helvetica,sans-Serif" font-size="10.00">mom_diag_mediator::</text>
<text text-anchor="middle" x="196.5" y="-7.5" font-family="Helvetica,sans-Serif" font-size="10.00">ocean_register_diag</text>
</a>
</g>
</g>
<!-- Node420&#45;&gt;Node430 -->
<g id="edge11" class="edge"><title>Node420&#45;&gt;Node430</title>
<path fill="none" stroke="midnightblue" d="M57.3405,-152.042C69.495,-121.651 94.1385,-70.078 131,-39.5 136.242,-35.1519 142.347,-31.5502 148.671,-28.5781"/>
<polygon fill="midnightblue" stroke="midnightblue" points="54.0352,-150.886 53.6978,-161.475 60.5652,-153.407 54.0352,-150.886"/>
</g>
<!-- Node422 -->
<g id="node3" class="node"><title>Node422</title>
<g id="a_node3"><a xlink:href="../../da/d01/namespacemom.html#afebdc0103ad9cbe0ed4a54e522dc4104" target="_top" xlink:title="This subroutine initializes MOM. ">
<polygon fill="white" stroke="black" points="303.5,-192 303.5,-211 392.5,-211 392.5,-192 303.5,-192"/>
<text text-anchor="middle" x="348" y="-199" font-family="Helvetica,sans-Serif" font-size="10.00">mom::initialize_mom</text>
</a>
</g>
</g>
<!-- Node421&#45;&gt;Node422 -->
<g id="edge2" class="edge"><title>Node421&#45;&gt;Node422</title>
<path fill="none" stroke="midnightblue" d="M253.622,-319.053C256.547,-317.336 259.362,-315.487 262,-313.5 300.992,-284.123 330.939,-232.288 342.175,-211.016"/>
<polygon fill="midnightblue" stroke="midnightblue" points="251.803,-316.056 244.591,-323.817 255.069,-322.247 251.803,-316.056"/>
</g>
<!-- Node423 -->
<g id="node4" class="node"><title>Node423</title>
<g id="a_node4"><a xlink:href="../../de/dbc/MOM__driver_8F90.html#a08fffeb2d8e8acbf9ed4609be6d258c6" target="_top" xlink:title="mom_main">
<polygon fill="white" stroke="black" points="434,-192 434,-211 490,-211 490,-192 434,-192"/>
<text text-anchor="middle" x="462" y="-199" font-family="Helvetica,sans-Serif" font-size="10.00">mom_main</text>
</a>
</g>
</g>
<!-- Node422&#45;&gt;Node423 -->
<g id="edge3" class="edge"><title>Node422&#45;&gt;Node423</title>
<path fill="none" stroke="midnightblue" d="M402.845,-201.5C413.594,-201.5 424.449,-201.5 433.823,-201.5"/>
<polygon fill="midnightblue" stroke="midnightblue" points="402.623,-198 392.623,-201.5 402.623,-205 402.623,-198"/>
</g>
<!-- Node429&#45;&gt;Node422 -->
<g id="edge10" class="edge"><title>Node429&#45;&gt;Node422</title>
<path fill="none" stroke="midnightblue" d="M254.204,-84.2908C256.92,-85.9102 259.538,-87.6448 262,-89.5 300.992,-118.877 330.939,-170.712 342.175,-191.984"/>
<polygon fill="midnightblue" stroke="midnightblue" points="255.729,-81.1372 245.261,-79.5038 252.426,-87.3087 255.729,-81.1372"/>
</g>
<!-- Node431 -->
<g id="node12" class="node"><title>Node431</title>
<g id="a_node12"><a xlink:href="../../d0/dbf/namespacemom__diag__to__z.html#a90526b2f59f94c6af2f525a221029772" target="_top" xlink:title="mom_diag_to_z::ocean\l_register_diag_with_z">
<polygon fill="white" stroke="black" points="298,-0.5 298,-30.5 398,-30.5 398,-0.5 298,-0.5"/>
<text text-anchor="start" x="306" y="-18.5" font-family="Helvetica,sans-Serif" font-size="10.00">mom_diag_to_z::ocean</text>
<text text-anchor="middle" x="348" y="-7.5" font-family="Helvetica,sans-Serif" font-size="10.00">_register_diag_with_z</text>
</a>
</g>
</g>
<!-- Node430&#45;&gt;Node431 -->
<g id="edge12" class="edge"><title>Node430&#45;&gt;Node431</title>
<path fill="none" stroke="midnightblue" d="M254.603,-15.5C268.891,-15.5 284.092,-15.5 297.95,-15.5"/>
<polygon fill="midnightblue" stroke="midnightblue" points="254.393,-12.0001 244.393,-15.5 254.393,-19.0001 254.393,-12.0001"/>
</g>
</g>
</svg>
