<?xml version="1.0" encoding="UTF-8" standalone="no"?>
<!DOCTYPE svg PUBLIC "-//W3C//DTD SVG 1.1//EN"
 "http://www.w3.org/Graphics/SVG/1.1/DTD/svg11.dtd">
<!-- Generated by graphviz version 2.38.0 (20140413.2041)
 -->
<!-- Title: mom_diag_mediator::set_diag_remap_axes Pages: 1 -->
<svg width="629pt" height="362pt"
 viewBox="0.00 0.00 629.00 362.00" xmlns="http://www.w3.org/2000/svg" xmlns:xlink="http://www.w3.org/1999/xlink">
<g id="graph0" class="graph" transform="scale(1 1) rotate(0) translate(4 358)">
<title>mom_diag_mediator::set_diag_remap_axes</title>
<polygon fill="white" stroke="none" points="-4,4 -4,-358 625,-358 625,4 -4,4"/>
<!-- Node529 -->
<g id="node1" class="node"><title>Node529</title>
<polygon fill="#bfbfbf" stroke="black" points="0,-161.5 0,-191.5 95,-191.5 95,-161.5 0,-161.5"/>
<text text-anchor="start" x="8" y="-179.5" font-family="Helvetica,sans-Serif" font-size="10.00">mom_diag_mediator::</text>
<text text-anchor="middle" x="47.5" y="-168.5" font-family="Helvetica,sans-Serif" font-size="10.00">set_diag_remap_axes</text>
</g>
<!-- Node530 -->
<g id="node2" class="node"><title>Node530</title>
<g id="a_node2"><a xlink:href="../../d9/d06/namespacemom__diag__mediator.html#aab2007573b14ed73053282770d1b19a4" target="_top" xlink:title="mom_diag_mediator::\lregister_diag_field">
<polygon fill="white" stroke="black" points="131,-161.5 131,-191.5 226,-191.5 226,-161.5 131,-161.5"/>
<text text-anchor="start" x="139" y="-179.5" font-family="Helvetica,sans-Serif" font-size="10.00">mom_diag_mediator::</text>
<text text-anchor="middle" x="178.5" y="-168.5" font-family="Helvetica,sans-Serif" font-size="10.00">register_diag_field</text>
</a>
</g>
</g>
<!-- Node529&#45;&gt;Node530 -->
<g id="edge1" class="edge"><title>Node529&#45;&gt;Node530</title>
<path fill="none" stroke="midnightblue" d="M105.101,-176.5C113.752,-176.5 122.596,-176.5 130.996,-176.5"/>
<polygon fill="midnightblue" stroke="midnightblue" points="105.072,-173 95.072,-176.5 105.072,-180 105.072,-173"/>
</g>
<!-- Node531 -->
<g id="node3" class="node"><title>Node531</title>
<g id="a_node3"><a xlink:href="../../d7/d73/namespacemom__ale.html#a994efb3c62fc5f63da2617f29cbd6be1" target="_top" xlink:title="Initialize diagnostics for the ALE module. ">
<polygon fill="white" stroke="black" points="279.5,-323.5 279.5,-353.5 375.5,-353.5 375.5,-323.5 279.5,-323.5"/>
<text text-anchor="start" x="287.5" y="-341.5" font-family="Helvetica,sans-Serif" font-size="10.00">mom_ale::ale_register</text>
<text text-anchor="middle" x="327.5" y="-330.5" font-family="Helvetica,sans-Serif" font-size="10.00">_diags</text>
</a>
</g>
</g>
<!-- Node530&#45;&gt;Node531 -->
<g id="edge2" class="edge"><title>Node530&#45;&gt;Node531</title>
<path fill="none" stroke="midnightblue" d="M188.599,-201.354C200.888,-231.722 225.537,-282.834 262,-313.5 267.147,-317.829 273.129,-321.46 279.333,-324.492"/>
<polygon fill="midnightblue" stroke="midnightblue" points="191.807,-199.948 184.906,-191.91 185.288,-202.498 191.807,-199.948"/>
</g>
<!-- Node534 -->
<g id="node6" class="node"><title>Node534</title>
<g id="a_node6"><a xlink:href="../../d8/dd2/namespacemom__coriolisadv.html#ad3ce07f23ce7b484a5a9e0c0abe8b1cd" target="_top" xlink:title="Initializes the control structure for coriolisadv_cs. ">
<polygon fill="white" stroke="black" points="262,-285 262,-304 393,-304 393,-285 262,-285"/>
<text text-anchor="middle" x="327.5" y="-292" font-family="Helvetica,sans-Serif" font-size="10.00">mom_coriolisadv::coriolisadv_init</text>
</a>
</g>
</g>
<!-- Node530&#45;&gt;Node534 -->
<g id="edge5" class="edge"><title>Node530&#45;&gt;Node534</title>
<path fill="none" stroke="midnightblue" d="M193.469,-200.296C207.891,-222.843 232.418,-256.065 262,-275.5 267.854,-279.346 274.507,-282.433 281.263,-284.905"/>
<polygon fill="midnightblue" stroke="midnightblue" points="196.347,-198.296 188.097,-191.649 190.401,-201.99 196.347,-198.296"/>
</g>
<!-- Node535 -->
<g id="node7" class="node"><title>Node535</title>
<g id="a_node7"><a xlink:href="../../d7/daa/namespacemom__diapyc__energy__req.html#aa0ce122f4dc6d9a6ec9e17996484bb76" target="_top" xlink:title="mom_diapyc_energy_req\l::diapyc_energy_req_init">
<polygon fill="white" stroke="black" points="274,-235.5 274,-265.5 381,-265.5 381,-235.5 274,-235.5"/>
<text text-anchor="start" x="282" y="-253.5" font-family="Helvetica,sans-Serif" font-size="10.00">mom_diapyc_energy_req</text>
<text text-anchor="middle" x="327.5" y="-242.5" font-family="Helvetica,sans-Serif" font-size="10.00">::diapyc_energy_req_init</text>
</a>
</g>
</g>
<!-- Node530&#45;&gt;Node535 -->
<g id="edge6" class="edge"><title>Node530&#45;&gt;Node535</title>
<path fill="none" stroke="midnightblue" d="M210.441,-197.16C225.602,-206.784 244.355,-217.965 262,-226.5 268.561,-229.674 275.657,-232.698 282.662,-235.463"/>
<polygon fill="midnightblue" stroke="midnightblue" points="212.268,-194.174 201.965,-191.706 208.48,-200.06 212.268,-194.174"/>
</g>
<!-- Node536 -->
<g id="node8" class="node"><title>Node536</title>
<g id="a_node8"><a xlink:href="../../d6/d07/namespacemom__diffconvection.html#ac36d9d7fd69e4422e7de01242094ff34" target="_top" xlink:title="mom_diffconvection\l::diffconvection_init">
<polygon fill="white" stroke="black" points="284,-186.5 284,-216.5 371,-216.5 371,-186.5 284,-186.5"/>
<text text-anchor="start" x="292" y="-204.5" font-family="Helvetica,sans-Serif" font-size="10.00">mom_diffconvection</text>
<text text-anchor="middle" x="327.5" y="-193.5" font-family="Helvetica,sans-Serif" font-size="10.00">::diffconvection_init</text>
</a>
</g>
</g>
<!-- Node530&#45;&gt;Node536 -->
<g id="edge7" class="edge"><title>Node530&#45;&gt;Node536</title>
<path fill="none" stroke="midnightblue" d="M236.211,-186.145C252.021,-188.834 268.927,-191.709 283.784,-194.235"/>
<polygon fill="midnightblue" stroke="midnightblue" points="236.457,-182.636 226.012,-184.41 235.283,-189.537 236.457,-182.636"/>
</g>
<!-- Node537 -->
<g id="node9" class="node"><title>Node537</title>
<g id="a_node9"><a xlink:href="../../d0/d77/namespacemom__int__tide__input.html#a29a707637da633ccee155b53557b5f17" target="_top" xlink:title="mom_int_tide_input\l::int_tide_input_init">
<polygon fill="white" stroke="black" points="284.5,-137.5 284.5,-167.5 370.5,-167.5 370.5,-137.5 284.5,-137.5"/>
<text text-anchor="start" x="292.5" y="-155.5" font-family="Helvetica,sans-Serif" font-size="10.00">mom_int_tide_input</text>
<text text-anchor="middle" x="327.5" y="-144.5" font-family="Helvetica,sans-Serif" font-size="10.00">::int_tide_input_init</text>
</a>
</g>
</g>
<!-- Node530&#45;&gt;Node537 -->
<g id="edge8" class="edge"><title>Node530&#45;&gt;Node537</title>
<path fill="none" stroke="midnightblue" d="M236.305,-167.226C252.264,-164.62 269.331,-161.834 284.277,-159.394"/>
<polygon fill="midnightblue" stroke="midnightblue" points="235.317,-163.841 226.012,-168.906 236.445,-170.749 235.317,-163.841"/>
</g>
<!-- Node538 -->
<g id="node10" class="node"><title>Node538</title>
<g id="a_node10"><a xlink:href="../../d5/d08/namespacemom__kpp.html#a9c834424b6e067e280928db3700ec77e" target="_top" xlink:title="Initialize the CVmix KPP module and set up diagnostics Returns True if KPP is to be used...">
<polygon fill="white" stroke="black" points="286,-99 286,-118 369,-118 369,-99 286,-99"/>
<text text-anchor="middle" x="327.5" y="-106" font-family="Helvetica,sans-Serif" font-size="10.00">mom_kpp::kpp_init</text>
</a>
</g>
</g>
<!-- Node530&#45;&gt;Node538 -->
<g id="edge9" class="edge"><title>Node530&#45;&gt;Node538</title>
<path fill="none" stroke="midnightblue" d="M211.091,-155.856C226.097,-146.647 244.535,-136.17 262,-128.5 271.017,-124.54 281.061,-121.026 290.487,-118.09"/>
<polygon fill="midnightblue" stroke="midnightblue" points="208.858,-153.124 202.23,-161.39 212.566,-159.061 208.858,-153.124"/>
</g>
<!-- Node539 -->
<g id="node11" class="node"><title>Node539</title>
<g id="a_node11"><a xlink:href="../../d8/da4/namespacemom__neutral__diffusion.html#a87cf821c52ac1111493d4168f0a91d17" target="_top" xlink:title="Diagnostic handles for neutral diffusion tendencies. ">
<polygon fill="white" stroke="black" points="271,-49.5 271,-79.5 384,-79.5 384,-49.5 271,-49.5"/>
<text text-anchor="start" x="279" y="-67.5" font-family="Helvetica,sans-Serif" font-size="10.00">mom_neutral_diffusion</text>
<text text-anchor="middle" x="327.5" y="-56.5" font-family="Helvetica,sans-Serif" font-size="10.00">::neutral_diffusion_diag_init</text>
</a>
</g>
</g>
<!-- Node530&#45;&gt;Node539 -->
<g id="edge10" class="edge"><title>Node530&#45;&gt;Node539</title>
<path fill="none" stroke="midnightblue" d="M196.67,-153.32C211.98,-134.024 235.949,-106.975 262,-89.5 267.585,-85.7535 273.813,-82.4498 280.136,-79.5744"/>
<polygon fill="midnightblue" stroke="midnightblue" points="193.827,-151.274 190.462,-161.321 199.358,-155.565 193.827,-151.274"/>
</g>
<!-- Node540 -->
<g id="node12" class="node"><title>Node540</title>
<g id="a_node12"><a xlink:href="../../d9/d06/namespacemom__diag__mediator.html#a21267e25d12fa3e5d2540d2a299d2d2c" target="_top" xlink:title="Registers a diagnostic using the information encapsulated in the vardesc type argument and returns an...">
<polygon fill="white" stroke="black" points="280,-0.5 280,-30.5 375,-30.5 375,-0.5 280,-0.5"/>
<text text-anchor="start" x="288" y="-18.5" font-family="Helvetica,sans-Serif" font-size="10.00">mom_diag_mediator::</text>
<text text-anchor="middle" x="327.5" y="-7.5" font-family="Helvetica,sans-Serif" font-size="10.00">ocean_register_diag</text>
</a>
</g>
</g>
<!-- Node530&#45;&gt;Node540 -->
<g id="edge12" class="edge"><title>Node530&#45;&gt;Node540</title>
<path fill="none" stroke="midnightblue" d="M188.341,-152.042C200.495,-121.651 225.138,-70.078 262,-39.5 267.242,-35.1519 273.347,-31.5502 279.671,-28.5781"/>
<polygon fill="midnightblue" stroke="midnightblue" points="185.035,-150.886 184.698,-161.475 191.565,-153.407 185.035,-150.886"/>
</g>
<!-- Node532 -->
<g id="node4" class="node"><title>Node532</title>
<g id="a_node4"><a xlink:href="../../da/d01/namespacemom.html#afebdc0103ad9cbe0ed4a54e522dc4104" target="_top" xlink:title="This subroutine initializes MOM. ">
<polygon fill="white" stroke="black" points="434.5,-192 434.5,-211 523.5,-211 523.5,-192 434.5,-192"/>
<text text-anchor="middle" x="479" y="-199" font-family="Helvetica,sans-Serif" font-size="10.00">mom::initialize_mom</text>
</a>
</g>
</g>
<!-- Node531&#45;&gt;Node532 -->
<g id="edge3" class="edge"><title>Node531&#45;&gt;Node532</title>
<path fill="none" stroke="midnightblue" d="M384.622,-319.053C387.547,-317.336 390.362,-315.487 393,-313.5 431.992,-284.123 461.939,-232.288 473.175,-211.016"/>
<polygon fill="midnightblue" stroke="midnightblue" points="382.803,-316.056 375.591,-323.817 386.069,-322.247 382.803,-316.056"/>
</g>
<!-- Node533 -->
<g id="node5" class="node"><title>Node533</title>
<g id="a_node5"><a xlink:href="../../de/dbc/MOM__driver_8F90.html#a08fffeb2d8e8acbf9ed4609be6d258c6" target="_top" xlink:title="mom_main">
<polygon fill="white" stroke="black" points="565,-192 565,-211 621,-211 621,-192 565,-192"/>
<text text-anchor="middle" x="593" y="-199" font-family="Helvetica,sans-Serif" font-size="10.00">mom_main</text>
</a>
</g>
</g>
<!-- Node532&#45;&gt;Node533 -->
<g id="edge4" class="edge"><title>Node532&#45;&gt;Node533</title>
<path fill="none" stroke="midnightblue" d="M533.845,-201.5C544.594,-201.5 555.449,-201.5 564.823,-201.5"/>
<polygon fill="midnightblue" stroke="midnightblue" points="533.623,-198 523.623,-201.5 533.623,-205 533.623,-198"/>
</g>
<!-- Node539&#45;&gt;Node532 -->
<g id="edge11" class="edge"><title>Node539&#45;&gt;Node532</title>
<path fill="none" stroke="midnightblue" d="M385.204,-84.2908C387.92,-85.9102 390.538,-87.6448 393,-89.5 431.992,-118.877 461.939,-170.712 473.175,-191.984"/>
<polygon fill="midnightblue" stroke="midnightblue" points="386.729,-81.1372 376.261,-79.5038 383.426,-87.3087 386.729,-81.1372"/>
</g>
<!-- Node541 -->
<g id="node13" class="node"><title>Node541</title>
<g id="a_node13"><a xlink:href="../../d0/dbf/namespacemom__diag__to__z.html#a90526b2f59f94c6af2f525a221029772" target="_top" xlink:title="mom_diag_to_z::ocean\l_register_diag_with_z">
<polygon fill="white" stroke="black" points="429,-0.5 429,-30.5 529,-30.5 529,-0.5 429,-0.5"/>
<text text-anchor="start" x="437" y="-18.5" font-family="Helvetica,sans-Serif" font-size="10.00">mom_diag_to_z::ocean</text>
<text text-anchor="middle" x="479" y="-7.5" font-family="Helvetica,sans-Serif" font-size="10.00">_register_diag_with_z</text>
</a>
</g>
</g>
<!-- Node540&#45;&gt;Node541 -->
<g id="edge13" class="edge"><title>Node540&#45;&gt;Node541</title>
<path fill="none" stroke="midnightblue" d="M385.603,-15.5C399.891,-15.5 415.092,-15.5 428.95,-15.5"/>
<polygon fill="midnightblue" stroke="midnightblue" points="385.393,-12.0001 375.393,-15.5 385.393,-19.0001 385.393,-12.0001"/>
</g>
</g>
</svg>
