<?xml version="1.0" encoding="UTF-8" standalone="no"?>
<!DOCTYPE svg PUBLIC "-//W3C//DTD SVG 1.1//EN"
 "http://www.w3.org/Graphics/SVG/1.1/DTD/svg11.dtd">
<!-- Generated by graphviz version 2.38.0 (20140413.2041)
 -->
<!-- Title: mom_diag_mediator::register_static_field Pages: 1 -->
<svg width="623pt" height="215pt"
 viewBox="0.00 0.00 623.00 215.00" xmlns="http://www.w3.org/2000/svg" xmlns:xlink="http://www.w3.org/1999/xlink">
<g id="graph0" class="graph" transform="scale(1 1) rotate(0) translate(4 211)">
<title>mom_diag_mediator::register_static_field</title>
<polygon fill="white" stroke="none" points="-4,4 -4,-211 619,-211 619,4 -4,4"/>
<!-- Node456 -->
<g id="node1" class="node"><title>Node456</title>
<polygon fill="#bfbfbf" stroke="black" points="0,-88.5 0,-118.5 95,-118.5 95,-88.5 0,-88.5"/>
<text text-anchor="start" x="8" y="-106.5" font-family="Helvetica,sans-Serif" font-size="10.00">mom_diag_mediator::</text>
<text text-anchor="middle" x="47.5" y="-95.5" font-family="Helvetica,sans-Serif" font-size="10.00">register_static_field</text>
</g>
<!-- Node457 -->
<g id="node2" class="node"><title>Node457</title>
<g id="a_node2"><a xlink:href="../../d9/d06/namespacemom__diag__mediator.html#a1b0bed2113a0c268eafd1bafbb48bd4f" target="_top" xlink:title="mom_diag_mediator::\lalloc_diag_with_id">
<polygon fill="white" stroke="black" points="131,-176.5 131,-206.5 226,-206.5 226,-176.5 131,-176.5"/>
<text text-anchor="start" x="139" y="-194.5" font-family="Helvetica,sans-Serif" font-size="10.00">mom_diag_mediator::</text>
<text text-anchor="middle" x="178.5" y="-183.5" font-family="Helvetica,sans-Serif" font-size="10.00">alloc_diag_with_id</text>
</a>
</g>
</g>
<!-- Node456&#45;&gt;Node457 -->
<g id="edge1" class="edge"><title>Node456&#45;&gt;Node457</title>
<path fill="none" stroke="midnightblue" d="M69.3637,-118.512C85.9478,-130.361 109.8,-147.218 131,-161.5 135.581,-164.587 140.451,-167.8 145.247,-170.928"/>
<polygon fill="midnightblue" stroke="midnightblue" points="143.429,-173.92 153.725,-176.419 147.235,-168.045 143.429,-173.92"/>
</g>
<!-- Node458 -->
<g id="node3" class="node"><title>Node458</title>
<g id="a_node3"><a xlink:href="../../d9/d06/namespacemom__diag__mediator.html#a6e11afe7a97bf8e3333d33b0aebd6f6e" target="_top" xlink:title="mom_diag_mediator::\lassert">
<polygon fill="white" stroke="black" points="262,-137.5 262,-167.5 357,-167.5 357,-137.5 262,-137.5"/>
<text text-anchor="start" x="270" y="-155.5" font-family="Helvetica,sans-Serif" font-size="10.00">mom_diag_mediator::</text>
<text text-anchor="middle" x="309.5" y="-144.5" font-family="Helvetica,sans-Serif" font-size="10.00">assert</text>
</a>
</g>
</g>
<!-- Node456&#45;&gt;Node458 -->
<g id="edge2" class="edge"><title>Node456&#45;&gt;Node458</title>
<path fill="none" stroke="midnightblue" d="M95.3215,-118.381C106.901,-121.712 119.333,-124.995 131,-127.5 171.016,-136.092 216.764,-142.454 251.793,-146.61"/>
<polygon fill="midnightblue" stroke="midnightblue" points="251.5,-150.1 261.837,-147.776 252.307,-143.146 251.5,-150.1"/>
</g>
<!-- Node460 -->
<g id="node5" class="node"><title>Node460</title>
<g id="a_node5"><a xlink:href="../../d0/de6/namespacemom__error__handler.html#ad5f00a53059c72fe2332d1436c80ca71" target="_top" xlink:title="mom_error_handler::\lis_root_pe">
<polygon fill="white" stroke="black" points="522,-78.5 522,-108.5 615,-108.5 615,-78.5 522,-78.5"/>
<text text-anchor="start" x="530" y="-96.5" font-family="Helvetica,sans-Serif" font-size="10.00">mom_error_handler::</text>
<text text-anchor="middle" x="568.5" y="-85.5" font-family="Helvetica,sans-Serif" font-size="10.00">is_root_pe</text>
</a>
</g>
</g>
<!-- Node456&#45;&gt;Node460 -->
<g id="edge8" class="edge"><title>Node456&#45;&gt;Node460</title>
<path fill="none" stroke="midnightblue" d="M89.5021,-88.4823C102.579,-84.3975 117.232,-80.5403 131,-78.5 266.727,-58.3869 428.667,-74.202 511.949,-85.203"/>
<polygon fill="midnightblue" stroke="midnightblue" points="511.574,-88.684 521.952,-86.5515 512.509,-81.7468 511.574,-88.684"/>
</g>
<!-- Node461 -->
<g id="node6" class="node"><title>Node461</title>
<g id="a_node6"><a xlink:href="../../d9/d06/namespacemom__diag__mediator.html#a3f7442639213320f7429e2288a79fda2" target="_top" xlink:title="Returns a new diagnostic id, it may be necessary to expand the diagnostics array. ...">
<polygon fill="white" stroke="black" points="131,-88.5 131,-118.5 226,-118.5 226,-88.5 131,-88.5"/>
<text text-anchor="start" x="139" y="-106.5" font-family="Helvetica,sans-Serif" font-size="10.00">mom_diag_mediator::</text>
<text text-anchor="middle" x="178.5" y="-95.5" font-family="Helvetica,sans-Serif" font-size="10.00">get_new_diag_id</text>
</a>
</g>
</g>
<!-- Node456&#45;&gt;Node461 -->
<g id="edge5" class="edge"><title>Node456&#45;&gt;Node461</title>
<path fill="none" stroke="midnightblue" d="M95.072,-103.5C103.475,-103.5 112.319,-103.5 120.969,-103.5"/>
<polygon fill="midnightblue" stroke="midnightblue" points="120.996,-107 130.996,-103.5 120.996,-100 120.996,-107"/>
</g>
<!-- Node463 -->
<g id="node8" class="node"><title>Node463</title>
<g id="a_node8"><a xlink:href="../../d9/d06/namespacemom__diag__mediator.html#a65fe8d329cf5dbfd08c98874a7a64407" target="_top" xlink:title="Log a diagnostic to the available diagnostics file. ">
<polygon fill="white" stroke="black" points="131,-0.5 131,-30.5 226,-30.5 226,-0.5 131,-0.5"/>
<text text-anchor="start" x="139" y="-18.5" font-family="Helvetica,sans-Serif" font-size="10.00">mom_diag_mediator::</text>
<text text-anchor="middle" x="178.5" y="-7.5" font-family="Helvetica,sans-Serif" font-size="10.00">log_available_diag</text>
</a>
</g>
</g>
<!-- Node456&#45;&gt;Node463 -->
<g id="edge9" class="edge"><title>Node456&#45;&gt;Node463</title>
<path fill="none" stroke="midnightblue" d="M69.3637,-88.4878C85.9478,-76.6389 109.8,-59.7825 131,-45.5 135.581,-42.4135 140.451,-39.2 145.247,-36.0723"/>
<polygon fill="midnightblue" stroke="midnightblue" points="147.235,-38.9551 153.725,-30.581 143.429,-33.0799 147.235,-38.9551"/>
</g>
<!-- Node459 -->
<g id="node4" class="node"><title>Node459</title>
<g id="a_node4"><a xlink:href="../../d0/de6/namespacemom__error__handler.html#a460cfb79a06c29fc249952c2a3710d67" target="_top" xlink:title="mom_error_handler::\lmom_error">
<polygon fill="white" stroke="black" points="393,-112.5 393,-142.5 486,-142.5 486,-112.5 393,-112.5"/>
<text text-anchor="start" x="401" y="-130.5" font-family="Helvetica,sans-Serif" font-size="10.00">mom_error_handler::</text>
<text text-anchor="middle" x="439.5" y="-119.5" font-family="Helvetica,sans-Serif" font-size="10.00">mom_error</text>
</a>
</g>
</g>
<!-- Node458&#45;&gt;Node459 -->
<g id="edge3" class="edge"><title>Node458&#45;&gt;Node459</title>
<path fill="none" stroke="midnightblue" d="M357.073,-143.404C365.396,-141.778 374.145,-140.069 382.695,-138.399"/>
<polygon fill="midnightblue" stroke="midnightblue" points="383.46,-141.816 392.604,-136.464 382.119,-134.946 383.46,-141.816"/>
</g>
<!-- Node459&#45;&gt;Node460 -->
<g id="edge4" class="edge"><title>Node459&#45;&gt;Node460</title>
<path fill="none" stroke="midnightblue" d="M486.35,-115.225C494.623,-113.01 503.33,-110.679 511.846,-108.4"/>
<polygon fill="midnightblue" stroke="midnightblue" points="512.963,-111.724 521.717,-105.757 511.152,-104.962 512.963,-111.724"/>
</g>
<!-- Node461&#45;&gt;Node458 -->
<g id="edge6" class="edge"><title>Node461&#45;&gt;Node458</title>
<path fill="none" stroke="midnightblue" d="M219.257,-118.601C231.886,-123.399 246.007,-128.762 259.223,-133.782"/>
<polygon fill="midnightblue" stroke="midnightblue" points="258.061,-137.085 268.652,-137.364 260.547,-130.541 258.061,-137.085"/>
</g>
<!-- Node462 -->
<g id="node7" class="node"><title>Node462</title>
<g id="a_node7"><a xlink:href="../../d9/d06/namespacemom__diag__mediator.html#a883862f004e30bbc5211f38635511ba0" target="_top" xlink:title="Initializes a diag_type (used after allocating new memory) ">
<polygon fill="white" stroke="black" points="262,-88.5 262,-118.5 357,-118.5 357,-88.5 262,-88.5"/>
<text text-anchor="start" x="270" y="-106.5" font-family="Helvetica,sans-Serif" font-size="10.00">mom_diag_mediator::</text>
<text text-anchor="middle" x="309.5" y="-95.5" font-family="Helvetica,sans-Serif" font-size="10.00">initialize_diag_type</text>
</a>
</g>
</g>
<!-- Node461&#45;&gt;Node462 -->
<g id="edge7" class="edge"><title>Node461&#45;&gt;Node462</title>
<path fill="none" stroke="midnightblue" d="M226.072,-103.5C234.475,-103.5 243.319,-103.5 251.969,-103.5"/>
<polygon fill="midnightblue" stroke="midnightblue" points="251.996,-107 261.996,-103.5 251.996,-100 251.996,-107"/>
</g>
<!-- Node464 -->
<g id="node9" class="node"><title>Node464</title>
<g id="a_node9"><a xlink:href="../../d9/d06/namespacemom__diag__mediator.html#ae002ca447acba252bf7bdc042e75a01e" target="_top" xlink:title="mom_diag_mediator::\ldescribe_option">
<polygon fill="white" stroke="black" points="262,-0.5 262,-30.5 357,-30.5 357,-0.5 262,-0.5"/>
<text text-anchor="start" x="270" y="-18.5" font-family="Helvetica,sans-Serif" font-size="10.00">mom_diag_mediator::</text>
<text text-anchor="middle" x="309.5" y="-7.5" font-family="Helvetica,sans-Serif" font-size="10.00">describe_option</text>
</a>
</g>
</g>
<!-- Node463&#45;&gt;Node464 -->
<g id="edge10" class="edge"><title>Node463&#45;&gt;Node464</title>
<path fill="none" stroke="midnightblue" d="M226.072,-15.5C234.475,-15.5 243.319,-15.5 251.969,-15.5"/>
<polygon fill="midnightblue" stroke="midnightblue" points="251.996,-19.0001 261.996,-15.5 251.996,-12.0001 251.996,-19.0001"/>
</g>
</g>
</svg>
