<?xml version="1.0" encoding="UTF-8" standalone="no"?>
<!DOCTYPE svg PUBLIC "-//W3C//DTD SVG 1.1//EN"
 "http://www.w3.org/Graphics/SVG/1.1/DTD/svg11.dtd">
<!-- Generated by graphviz version 2.38.0 (20140413.2041)
 -->
<!-- Title: mom_diag_mediator::register_diag_field Pages: 1 -->
<svg width="623pt" height="664pt"
 viewBox="0.00 0.00 623.00 664.00" xmlns="http://www.w3.org/2000/svg" xmlns:xlink="http://www.w3.org/1999/xlink">
<g id="graph0" class="graph" transform="scale(1 1) rotate(0) translate(4 660)">
<title>mom_diag_mediator::register_diag_field</title>
<polygon fill="white" stroke="none" points="-4,4 -4,-660 619,-660 619,4 -4,4"/>
<!-- Node403 -->
<g id="node1" class="node"><title>Node403</title>
<polygon fill="#bfbfbf" stroke="black" points="0,-328.5 0,-358.5 95,-358.5 95,-328.5 0,-328.5"/>
<text text-anchor="start" x="8" y="-346.5" font-family="Helvetica,sans-Serif" font-size="10.00">mom_diag_mediator::</text>
<text text-anchor="middle" x="47.5" y="-335.5" font-family="Helvetica,sans-Serif" font-size="10.00">register_diag_field</text>
</g>
<!-- Node404 -->
<g id="node2" class="node"><title>Node404</title>
<g id="a_node2"><a xlink:href="../../d9/d06/namespacemom__diag__mediator.html#a1b0bed2113a0c268eafd1bafbb48bd4f" target="_top" xlink:title="mom_diag_mediator::\lalloc_diag_with_id">
<polygon fill="white" stroke="black" points="131,-625.5 131,-655.5 226,-655.5 226,-625.5 131,-625.5"/>
<text text-anchor="start" x="139" y="-643.5" font-family="Helvetica,sans-Serif" font-size="10.00">mom_diag_mediator::</text>
<text text-anchor="middle" x="178.5" y="-632.5" font-family="Helvetica,sans-Serif" font-size="10.00">alloc_diag_with_id</text>
</a>
</g>
</g>
<!-- Node403&#45;&gt;Node404 -->
<g id="edge1" class="edge"><title>Node403&#45;&gt;Node404</title>
<path fill="none" stroke="midnightblue" d="M49.5985,-358.711C53.439,-402.264 69.5882,-529.508 131,-610.5 133.413,-613.682 136.267,-616.621 139.357,-619.313"/>
<polygon fill="midnightblue" stroke="midnightblue" points="137.341,-622.178 147.404,-625.491 141.604,-616.625 137.341,-622.178"/>
</g>
<!-- Node405 -->
<g id="node3" class="node"><title>Node405</title>
<g id="a_node3"><a xlink:href="../../d9/d06/namespacemom__diag__mediator.html#a6e11afe7a97bf8e3333d33b0aebd6f6e" target="_top" xlink:title="mom_diag_mediator::\lassert">
<polygon fill="white" stroke="black" points="262,-488.5 262,-518.5 357,-518.5 357,-488.5 262,-488.5"/>
<text text-anchor="start" x="270" y="-506.5" font-family="Helvetica,sans-Serif" font-size="10.00">mom_diag_mediator::</text>
<text text-anchor="middle" x="309.5" y="-495.5" font-family="Helvetica,sans-Serif" font-size="10.00">assert</text>
</a>
</g>
</g>
<!-- Node403&#45;&gt;Node405 -->
<g id="edge2" class="edge"><title>Node403&#45;&gt;Node405</title>
<path fill="none" stroke="midnightblue" d="M52.6904,-358.659C61.648,-387.927 85.6344,-451.93 131,-481.5 166.429,-504.593 214.4,-509.341 251.54,-508.728"/>
<polygon fill="midnightblue" stroke="midnightblue" points="251.818,-512.221 261.709,-508.424 251.609,-505.224 251.818,-512.221"/>
</g>
<!-- Node406 -->
<g id="node4" class="node"><title>Node406</title>
<g id="a_node4"><a xlink:href="../../d0/de6/namespacemom__error__handler.html#a460cfb79a06c29fc249952c2a3710d67" target="_top" xlink:title="mom_error_handler::\lmom_error">
<polygon fill="white" stroke="black" points="393,-512.5 393,-542.5 486,-542.5 486,-512.5 393,-512.5"/>
<text text-anchor="start" x="401" y="-530.5" font-family="Helvetica,sans-Serif" font-size="10.00">mom_error_handler::</text>
<text text-anchor="middle" x="439.5" y="-519.5" font-family="Helvetica,sans-Serif" font-size="10.00">mom_error</text>
</a>
</g>
</g>
<!-- Node403&#45;&gt;Node406 -->
<g id="edge17" class="edge"><title>Node403&#45;&gt;Node406</title>
<path fill="none" stroke="midnightblue" d="M68.4001,-358.572C84.4526,-369.961 108.06,-385.033 131,-393.5 226.486,-428.742 268.528,-380.179 357,-430.5 387.415,-447.799 411.501,-481.056 425.379,-503.757"/>
<polygon fill="midnightblue" stroke="midnightblue" points="422.425,-505.638 430.524,-512.47 428.453,-502.079 422.425,-505.638"/>
</g>
<!-- Node407 -->
<g id="node5" class="node"><title>Node407</title>
<g id="a_node5"><a xlink:href="../../d0/de6/namespacemom__error__handler.html#ad5f00a53059c72fe2332d1436c80ca71" target="_top" xlink:title="mom_error_handler::\lis_root_pe">
<polygon fill="white" stroke="black" points="522,-546.5 522,-576.5 615,-576.5 615,-546.5 522,-546.5"/>
<text text-anchor="start" x="530" y="-564.5" font-family="Helvetica,sans-Serif" font-size="10.00">mom_error_handler::</text>
<text text-anchor="middle" x="568.5" y="-553.5" font-family="Helvetica,sans-Serif" font-size="10.00">is_root_pe</text>
</a>
</g>
</g>
<!-- Node403&#45;&gt;Node407 -->
<g id="edge12" class="edge"><title>Node403&#45;&gt;Node407</title>
<path fill="none" stroke="midnightblue" d="M50.3108,-358.747C55.5431,-395.839 74.1312,-491.411 131,-541.5 237.175,-635.017 420.329,-602.886 511.941,-578.552"/>
<polygon fill="midnightblue" stroke="midnightblue" points="513.119,-581.858 521.849,-575.855 511.281,-575.104 513.119,-581.858"/>
</g>
<!-- Node408 -->
<g id="node6" class="node"><title>Node408</title>
<g id="a_node6"><a xlink:href="../../d9/d06/namespacemom__diag__mediator.html#a93abbf0b9659019bed9a2129ab292752" target="_top" xlink:title="Attaches &quot;cell_methods&quot; attribute to a variable based on defaults for axes_grp or optional arguments...">
<polygon fill="white" stroke="black" points="262,-537.5 262,-567.5 357,-567.5 357,-537.5 262,-537.5"/>
<text text-anchor="start" x="270" y="-555.5" font-family="Helvetica,sans-Serif" font-size="10.00">mom_diag_mediator::</text>
<text text-anchor="middle" x="309.5" y="-544.5" font-family="Helvetica,sans-Serif" font-size="10.00">attach_cell_methods</text>
</a>
</g>
</g>
<!-- Node403&#45;&gt;Node408 -->
<g id="edge5" class="edge"><title>Node403&#45;&gt;Node408</title>
<path fill="none" stroke="midnightblue" d="M51.6621,-358.968C59.2163,-391.839 81.4954,-468.87 131,-508.5 165.096,-535.795 213.803,-546.461 251.573,-550.487"/>
<polygon fill="midnightblue" stroke="midnightblue" points="251.632,-554.008 261.915,-551.455 252.285,-547.039 251.632,-554.008"/>
</g>
<!-- Node409 -->
<g id="node7" class="node"><title>Node409</title>
<g id="a_node7"><a xlink:href="../../d9/d06/namespacemom__diag__mediator.html#a3f7442639213320f7429e2288a79fda2" target="_top" xlink:title="Returns a new diagnostic id, it may be necessary to expand the diagnostics array. ...">
<polygon fill="white" stroke="black" points="131,-441.5 131,-471.5 226,-471.5 226,-441.5 131,-441.5"/>
<text text-anchor="start" x="139" y="-459.5" font-family="Helvetica,sans-Serif" font-size="10.00">mom_diag_mediator::</text>
<text text-anchor="middle" x="178.5" y="-448.5" font-family="Helvetica,sans-Serif" font-size="10.00">get_new_diag_id</text>
</a>
</g>
</g>
<!-- Node403&#45;&gt;Node409 -->
<g id="edge7" class="edge"><title>Node403&#45;&gt;Node409</title>
<path fill="none" stroke="midnightblue" d="M61.6403,-358.565C77.2337,-375.987 104.474,-405.019 131,-426.5 134.812,-429.587 138.954,-432.637 143.142,-435.54"/>
<polygon fill="midnightblue" stroke="midnightblue" points="141.451,-438.62 151.712,-441.261 145.338,-432.798 141.451,-438.62"/>
</g>
<!-- Node411 -->
<g id="node9" class="node"><title>Node411</title>
<g id="a_node9"><a xlink:href="../../d9/d06/namespacemom__diag__mediator.html#a4b739f107cebe1ece8d29056c1144bff" target="_top" xlink:title="mom_diag_mediator::\lis_b_axes">
<polygon fill="white" stroke="black" points="131,-353.5 131,-383.5 226,-383.5 226,-353.5 131,-353.5"/>
<text text-anchor="start" x="139" y="-371.5" font-family="Helvetica,sans-Serif" font-size="10.00">mom_diag_mediator::</text>
<text text-anchor="middle" x="178.5" y="-360.5" font-family="Helvetica,sans-Serif" font-size="10.00">is_b_axes</text>
</a>
</g>
</g>
<!-- Node403&#45;&gt;Node411 -->
<g id="edge10" class="edge"><title>Node403&#45;&gt;Node411</title>
<path fill="none" stroke="midnightblue" d="M95.072,-352.526C103.475,-354.154 112.319,-355.868 120.969,-357.544"/>
<polygon fill="midnightblue" stroke="midnightblue" points="120.513,-361.021 130.996,-359.488 121.845,-354.149 120.513,-361.021"/>
</g>
<!-- Node412 -->
<g id="node10" class="node"><title>Node412</title>
<g id="a_node10"><a xlink:href="../../d9/d06/namespacemom__diag__mediator.html#a84370fa96e03622edbfd5e343bcd9718" target="_top" xlink:title="mom_diag_mediator::\lis_layer_axes">
<polygon fill="white" stroke="black" points="131,-304.5 131,-334.5 226,-334.5 226,-304.5 131,-304.5"/>
<text text-anchor="start" x="139" y="-322.5" font-family="Helvetica,sans-Serif" font-size="10.00">mom_diag_mediator::</text>
<text text-anchor="middle" x="178.5" y="-311.5" font-family="Helvetica,sans-Serif" font-size="10.00">is_layer_axes</text>
</a>
</g>
</g>
<!-- Node403&#45;&gt;Node412 -->
<g id="edge11" class="edge"><title>Node403&#45;&gt;Node412</title>
<path fill="none" stroke="midnightblue" d="M95.072,-334.835C103.475,-333.272 112.319,-331.627 120.969,-330.017"/>
<polygon fill="midnightblue" stroke="midnightblue" points="121.805,-333.422 130.996,-328.152 120.525,-326.54 121.805,-333.422"/>
</g>
<!-- Node413 -->
<g id="node11" class="node"><title>Node413</title>
<g id="a_node11"><a xlink:href="../../d9/d06/namespacemom__diag__mediator.html#a27fa63c9ff62b660bf457adbb8645bdf" target="_top" xlink:title="mom_diag_mediator::\lis_u_axes">
<polygon fill="white" stroke="black" points="131,-255.5 131,-285.5 226,-285.5 226,-255.5 131,-255.5"/>
<text text-anchor="start" x="139" y="-273.5" font-family="Helvetica,sans-Serif" font-size="10.00">mom_diag_mediator::</text>
<text text-anchor="middle" x="178.5" y="-262.5" font-family="Helvetica,sans-Serif" font-size="10.00">is_u_axes</text>
</a>
</g>
</g>
<!-- Node403&#45;&gt;Node413 -->
<g id="edge13" class="edge"><title>Node403&#45;&gt;Node413</title>
<path fill="none" stroke="midnightblue" d="M74.0143,-328.358C90.2503,-318.797 111.767,-306.261 131,-295.5 133.88,-293.889 136.869,-292.236 139.88,-290.586"/>
<polygon fill="midnightblue" stroke="midnightblue" points="141.778,-293.538 148.891,-285.686 138.434,-287.388 141.778,-293.538"/>
</g>
<!-- Node414 -->
<g id="node12" class="node"><title>Node414</title>
<g id="a_node12"><a xlink:href="../../d9/d06/namespacemom__diag__mediator.html#a9a30d653d812713d6fcff94f6f1fc3e6" target="_top" xlink:title="mom_diag_mediator::\lis_v_axes">
<polygon fill="white" stroke="black" points="131,-206.5 131,-236.5 226,-236.5 226,-206.5 131,-206.5"/>
<text text-anchor="start" x="139" y="-224.5" font-family="Helvetica,sans-Serif" font-size="10.00">mom_diag_mediator::</text>
<text text-anchor="middle" x="178.5" y="-213.5" font-family="Helvetica,sans-Serif" font-size="10.00">is_v_axes</text>
</a>
</g>
</g>
<!-- Node403&#45;&gt;Node414 -->
<g id="edge14" class="edge"><title>Node403&#45;&gt;Node414</title>
<path fill="none" stroke="midnightblue" d="M58.7683,-328.167C73.0913,-307.632 100.737,-270.955 131,-246.5 132.796,-245.049 134.688,-243.641 136.641,-242.283"/>
<polygon fill="midnightblue" stroke="midnightblue" points="138.921,-244.981 145.476,-236.658 135.161,-239.076 138.921,-244.981"/>
</g>
<!-- Node415 -->
<g id="node13" class="node"><title>Node415</title>
<g id="a_node13"><a xlink:href="../../d9/d06/namespacemom__diag__mediator.html#a65fe8d329cf5dbfd08c98874a7a64407" target="_top" xlink:title="Log a diagnostic to the available diagnostics file. ">
<polygon fill="white" stroke="black" points="131,-157.5 131,-187.5 226,-187.5 226,-157.5 131,-157.5"/>
<text text-anchor="start" x="139" y="-175.5" font-family="Helvetica,sans-Serif" font-size="10.00">mom_diag_mediator::</text>
<text text-anchor="middle" x="178.5" y="-164.5" font-family="Helvetica,sans-Serif" font-size="10.00">log_available_diag</text>
</a>
</g>
</g>
<!-- Node403&#45;&gt;Node415 -->
<g id="edge15" class="edge"><title>Node403&#45;&gt;Node415</title>
<path fill="none" stroke="midnightblue" d="M53.7356,-328.468C64.3487,-299.832 90.8518,-236.812 131,-197.5 132.424,-196.105 133.942,-194.767 135.528,-193.486"/>
<polygon fill="midnightblue" stroke="midnightblue" points="137.76,-196.194 143.896,-187.557 133.713,-190.482 137.76,-196.194"/>
</g>
<!-- Node417 -->
<g id="node15" class="node"><title>Node417</title>
<g id="a_node15"><a xlink:href="../../d9/d06/namespacemom__diag__mediator.html#aca4a32fea8dade9f51e076a56b9bad2b" target="_top" xlink:title="Returns ID from register_diag_field_fms (the diag_manager routine) after expanding axes (axes&#45;group) ...">
<polygon fill="white" stroke="black" points="131,-98 131,-139 226,-139 226,-98 131,-98"/>
<text text-anchor="start" x="139" y="-127" font-family="Helvetica,sans-Serif" font-size="10.00">mom_diag_mediator::</text>
<text text-anchor="start" x="139" y="-116" font-family="Helvetica,sans-Serif" font-size="10.00">register_diag_field</text>
<text text-anchor="middle" x="178.5" y="-105" font-family="Helvetica,sans-Serif" font-size="10.00">_expand_axes</text>
</a>
</g>
</g>
<!-- Node403&#45;&gt;Node417 -->
<g id="edge18" class="edge"><title>Node403&#45;&gt;Node417</title>
<path fill="none" stroke="midnightblue" d="M51.6447,-328.458C59.594,-293.451 83.3374,-205.198 131,-148.5 131.711,-147.654 132.452,-146.824 133.219,-146.01"/>
<polygon fill="midnightblue" stroke="midnightblue" points="135.721,-148.463 140.705,-139.113 130.979,-143.314 135.721,-148.463"/>
</g>
<!-- Node418 -->
<g id="node16" class="node"><title>Node418</title>
<g id="a_node16"><a xlink:href="../../d9/d06/namespacemom__diag__mediator.html#a085f313357879a914af6450f2ab8ec79" target="_top" xlink:title="mom_diag_mediator::\lset_diag_mask">
<polygon fill="white" stroke="black" points="131,-49.5 131,-79.5 226,-79.5 226,-49.5 131,-49.5"/>
<text text-anchor="start" x="139" y="-67.5" font-family="Helvetica,sans-Serif" font-size="10.00">mom_diag_mediator::</text>
<text text-anchor="middle" x="178.5" y="-56.5" font-family="Helvetica,sans-Serif" font-size="10.00">set_diag_mask</text>
</a>
</g>
</g>
<!-- Node403&#45;&gt;Node418 -->
<g id="edge19" class="edge"><title>Node403&#45;&gt;Node418</title>
<path fill="none" stroke="midnightblue" d="M49.4591,-328.369C52.9097,-285.69 68.0827,-162.652 131,-88.5 131.617,-87.7726 132.262,-87.0646 132.931,-86.3754"/>
<polygon fill="midnightblue" stroke="midnightblue" points="135.472,-88.8116 140.879,-79.7 130.97,-83.4515 135.472,-88.8116"/>
</g>
<!-- Node419 -->
<g id="node17" class="node"><title>Node419</title>
<g id="a_node17"><a xlink:href="../../d9/d06/namespacemom__diag__mediator.html#a5d1e1aa53cdd6bb335a6f841eded4f46" target="_top" xlink:title="mom_diag_mediator::\lset_diag_remap_axes">
<polygon fill="white" stroke="black" points="131,-0.5 131,-30.5 226,-30.5 226,-0.5 131,-0.5"/>
<text text-anchor="start" x="139" y="-18.5" font-family="Helvetica,sans-Serif" font-size="10.00">mom_diag_mediator::</text>
<text text-anchor="middle" x="178.5" y="-7.5" font-family="Helvetica,sans-Serif" font-size="10.00">set_diag_remap_axes</text>
</a>
</g>
</g>
<!-- Node403&#45;&gt;Node419 -->
<g id="edge20" class="edge"><title>Node403&#45;&gt;Node419</title>
<path fill="none" stroke="midnightblue" d="M48.5844,-328.42C49.611,-280.797 58.736,-131.402 131,-40.5 131.834,-39.4507 132.725,-38.4397 133.663,-37.466"/>
<polygon fill="midnightblue" stroke="midnightblue" points="136.26,-39.8525 141.627,-30.7171 131.735,-34.5121 136.26,-39.8525"/>
</g>
<!-- Node405&#45;&gt;Node406 -->
<g id="edge3" class="edge"><title>Node405&#45;&gt;Node406</title>
<path fill="none" stroke="midnightblue" d="M357.073,-512.232C365.396,-513.793 374.145,-515.433 382.695,-517.037"/>
<polygon fill="midnightblue" stroke="midnightblue" points="382.13,-520.492 392.604,-518.895 383.42,-513.611 382.13,-520.492"/>
</g>
<!-- Node406&#45;&gt;Node407 -->
<g id="edge4" class="edge"><title>Node406&#45;&gt;Node407</title>
<path fill="none" stroke="midnightblue" d="M486.35,-539.775C494.623,-541.99 503.33,-544.321 511.846,-546.6"/>
<polygon fill="midnightblue" stroke="midnightblue" points="511.152,-550.038 521.717,-549.243 512.963,-543.276 511.152,-550.038"/>
</g>
<!-- Node408&#45;&gt;Node406 -->
<g id="edge6" class="edge"><title>Node408&#45;&gt;Node406</title>
<path fill="none" stroke="midnightblue" d="M357.073,-543.404C365.396,-541.778 374.145,-540.069 382.695,-538.399"/>
<polygon fill="midnightblue" stroke="midnightblue" points="383.46,-541.816 392.604,-536.464 382.119,-534.946 383.46,-541.816"/>
</g>
<!-- Node409&#45;&gt;Node405 -->
<g id="edge8" class="edge"><title>Node409&#45;&gt;Node405</title>
<path fill="none" stroke="midnightblue" d="M220.671,-471.5C232.424,-475.782 245.371,-480.5 257.63,-484.966"/>
<polygon fill="midnightblue" stroke="midnightblue" points="256.684,-488.346 267.278,-488.481 259.08,-481.769 256.684,-488.346"/>
</g>
<!-- Node410 -->
<g id="node8" class="node"><title>Node410</title>
<g id="a_node8"><a xlink:href="../../d9/d06/namespacemom__diag__mediator.html#a883862f004e30bbc5211f38635511ba0" target="_top" xlink:title="Initializes a diag_type (used after allocating new memory) ">
<polygon fill="white" stroke="black" points="262,-439.5 262,-469.5 357,-469.5 357,-439.5 262,-439.5"/>
<text text-anchor="start" x="270" y="-457.5" font-family="Helvetica,sans-Serif" font-size="10.00">mom_diag_mediator::</text>
<text text-anchor="middle" x="309.5" y="-446.5" font-family="Helvetica,sans-Serif" font-size="10.00">initialize_diag_type</text>
</a>
</g>
</g>
<!-- Node409&#45;&gt;Node410 -->
<g id="edge9" class="edge"><title>Node409&#45;&gt;Node410</title>
<path fill="none" stroke="midnightblue" d="M226.072,-455.778C234.475,-455.648 243.319,-455.511 251.969,-455.376"/>
<polygon fill="midnightblue" stroke="midnightblue" points="252.052,-458.876 261.996,-455.221 251.943,-451.877 252.052,-458.876"/>
</g>
<!-- Node416 -->
<g id="node14" class="node"><title>Node416</title>
<g id="a_node14"><a xlink:href="../../d9/d06/namespacemom__diag__mediator.html#ae002ca447acba252bf7bdc042e75a01e" target="_top" xlink:title="mom_diag_mediator::\ldescribe_option">
<polygon fill="white" stroke="black" points="262,-157.5 262,-187.5 357,-187.5 357,-157.5 262,-157.5"/>
<text text-anchor="start" x="270" y="-175.5" font-family="Helvetica,sans-Serif" font-size="10.00">mom_diag_mediator::</text>
<text text-anchor="middle" x="309.5" y="-164.5" font-family="Helvetica,sans-Serif" font-size="10.00">describe_option</text>
</a>
</g>
</g>
<!-- Node415&#45;&gt;Node416 -->
<g id="edge16" class="edge"><title>Node415&#45;&gt;Node416</title>
<path fill="none" stroke="midnightblue" d="M226.072,-172.5C234.475,-172.5 243.319,-172.5 251.969,-172.5"/>
<polygon fill="midnightblue" stroke="midnightblue" points="251.996,-176 261.996,-172.5 251.996,-169 251.996,-176"/>
</g>
</g>
</svg>
