<?xml version="1.0" encoding="UTF-8" standalone="no"?>
<!DOCTYPE svg PUBLIC "-//W3C//DTD SVG 1.1//EN"
 "http://www.w3.org/Graphics/SVG/1.1/DTD/svg11.dtd">
<!-- Generated by graphviz version 2.38.0 (20140413.2041)
 -->
<!-- Title: mom_diag_mediator::i2s Pages: 1 -->
<svg width="591pt" height="39pt"
 viewBox="0.00 0.00 591.00 39.00" xmlns="http://www.w3.org/2000/svg" xmlns:xlink="http://www.w3.org/1999/xlink">
<g id="graph0" class="graph" transform="scale(1 1) rotate(0) translate(4 35)">
<title>mom_diag_mediator::i2s</title>
<polygon fill="white" stroke="none" points="-4,4 -4,-35 587,-35 587,4 -4,4"/>
<!-- Node198 -->
<g id="node1" class="node"><title>Node198</title>
<polygon fill="#bfbfbf" stroke="black" points="0,-6 0,-25 104,-25 104,-6 0,-6"/>
<text text-anchor="middle" x="52" y="-13" font-family="Helvetica,sans-Serif" font-size="10.00">mom_diag_mediator::i2s</text>
</g>
<!-- Node199 -->
<g id="node2" class="node"><title>Node199</title>
<g id="a_node2"><a xlink:href="../../d9/d06/namespacemom__diag__mediator.html#a64688af57b70ec8694126d49d4c472f1" target="_top" xlink:title="Defines a group of &quot;axes&quot; from list of handles. ">
<polygon fill="white" stroke="black" points="140,-0.5 140,-30.5 235,-30.5 235,-0.5 140,-0.5"/>
<text text-anchor="start" x="148" y="-18.5" font-family="Helvetica,sans-Serif" font-size="10.00">mom_diag_mediator::</text>
<text text-anchor="middle" x="187.5" y="-7.5" font-family="Helvetica,sans-Serif" font-size="10.00">define_axes_group</text>
</a>
</g>
</g>
<!-- Node198&#45;&gt;Node199 -->
<g id="edge1" class="edge"><title>Node198&#45;&gt;Node199</title>
<path fill="none" stroke="midnightblue" d="M114.286,-15.5C122.928,-15.5 131.692,-15.5 139.996,-15.5"/>
<polygon fill="midnightblue" stroke="midnightblue" points="114.233,-12.0001 104.233,-15.5 114.233,-19.0001 114.233,-12.0001"/>
</g>
<!-- Node200 -->
<g id="node3" class="node"><title>Node200</title>
<g id="a_node3"><a xlink:href="../../d9/d06/namespacemom__diag__mediator.html#a4d8d23e602166167b393e19453ded5bf" target="_top" xlink:title="Sets up diagnostics axes. ">
<polygon fill="white" stroke="black" points="271,-0.5 271,-30.5 366,-30.5 366,-0.5 271,-0.5"/>
<text text-anchor="start" x="279" y="-18.5" font-family="Helvetica,sans-Serif" font-size="10.00">mom_diag_mediator::</text>
<text text-anchor="middle" x="318.5" y="-7.5" font-family="Helvetica,sans-Serif" font-size="10.00">set_axes_info</text>
</a>
</g>
</g>
<!-- Node199&#45;&gt;Node200 -->
<g id="edge2" class="edge"><title>Node199&#45;&gt;Node200</title>
<path fill="none" stroke="midnightblue" d="M245.101,-15.5C253.752,-15.5 262.596,-15.5 270.996,-15.5"/>
<polygon fill="midnightblue" stroke="midnightblue" points="245.072,-12.0001 235.072,-15.5 245.072,-19.0001 245.072,-12.0001"/>
</g>
<!-- Node201 -->
<g id="node4" class="node"><title>Node201</title>
<g id="a_node4"><a xlink:href="../../da/d01/namespacemom.html#afebdc0103ad9cbe0ed4a54e522dc4104" target="_top" xlink:title="This subroutine initializes MOM. ">
<polygon fill="white" stroke="black" points="402,-6 402,-25 491,-25 491,-6 402,-6"/>
<text text-anchor="middle" x="446.5" y="-13" font-family="Helvetica,sans-Serif" font-size="10.00">mom::initialize_mom</text>
</a>
</g>
</g>
<!-- Node200&#45;&gt;Node201 -->
<g id="edge3" class="edge"><title>Node200&#45;&gt;Node201</title>
<path fill="none" stroke="midnightblue" d="M376.311,-15.5C384.811,-15.5 393.463,-15.5 401.64,-15.5"/>
<polygon fill="midnightblue" stroke="midnightblue" points="376.06,-12.0001 366.06,-15.5 376.06,-19.0001 376.06,-12.0001"/>
</g>
<!-- Node202 -->
<g id="node5" class="node"><title>Node202</title>
<g id="a_node5"><a xlink:href="../../de/dbc/MOM__driver_8F90.html#a08fffeb2d8e8acbf9ed4609be6d258c6" target="_top" xlink:title="mom_main">
<polygon fill="white" stroke="black" points="527,-6 527,-25 583,-25 583,-6 527,-6"/>
<text text-anchor="middle" x="555" y="-13" font-family="Helvetica,sans-Serif" font-size="10.00">mom_main</text>
</a>
</g>
</g>
<!-- Node201&#45;&gt;Node202 -->
<g id="edge4" class="edge"><title>Node201&#45;&gt;Node202</title>
<path fill="none" stroke="midnightblue" d="M501.407,-15.5C510.206,-15.5 518.981,-15.5 526.771,-15.5"/>
<polygon fill="midnightblue" stroke="midnightblue" points="501.125,-12.0001 491.125,-15.5 501.125,-19.0001 501.125,-12.0001"/>
</g>
</g>
</svg>
