<?xml version="1.0" encoding="UTF-8" standalone="no"?>
<!DOCTYPE svg PUBLIC "-//W3C//DTD SVG 1.1//EN"
 "http://www.w3.org/Graphics/SVG/1.1/DTD/svg11.dtd">
<!-- Generated by graphviz version 2.38.0 (20140413.2041)
 -->
<!-- Title: mom_diag_mediator::is_u_axes Pages: 1 -->
<svg width="615pt" height="411pt"
 viewBox="0.00 0.00 615.00 411.00" xmlns="http://www.w3.org/2000/svg" xmlns:xlink="http://www.w3.org/1999/xlink">
<g id="graph0" class="graph" transform="scale(1 1) rotate(0) translate(4 407)">
<title>mom_diag_mediator::is_u_axes</title>
<polygon fill="white" stroke="none" points="-4,4 -4,-407 611,-407 611,4 -4,4"/>
<!-- Node229 -->
<g id="node1" class="node"><title>Node229</title>
<polygon fill="#bfbfbf" stroke="black" points="0,-127.5 0,-157.5 110,-157.5 110,-127.5 0,-127.5"/>
<text text-anchor="start" x="8" y="-145.5" font-family="Helvetica,sans-Serif" font-size="10.00">mom_diag_mediator::</text>
<text text-anchor="middle" x="55" y="-134.5" font-family="Helvetica,sans-Serif" font-size="10.00">is_u_axes</text>
</g>
<!-- Node230 -->
<g id="node2" class="node"><title>Node230</title>
<g id="a_node2"><a xlink:href="../../d9/d06/namespacemom__diag__mediator.html#aab2007573b14ed73053282770d1b19a4" target="_top" xlink:title="mom_diag_mediator::\lregister_diag_field">
<polygon fill="white" stroke="black" points="146,-186.5 146,-216.5 256,-216.5 256,-186.5 146,-186.5"/>
<text text-anchor="start" x="154" y="-204.5" font-family="Helvetica,sans-Serif" font-size="10.00">mom_diag_mediator::</text>
<text text-anchor="middle" x="201" y="-193.5" font-family="Helvetica,sans-Serif" font-size="10.00">register_diag_field</text>
</a>
</g>
</g>
<!-- Node229&#45;&gt;Node230 -->
<g id="edge1" class="edge"><title>Node229&#45;&gt;Node230</title>
<path fill="none" stroke="midnightblue" d="M102.154,-161.41C121.949,-169.521 144.749,-178.862 163.357,-186.487"/>
<polygon fill="midnightblue" stroke="midnightblue" points="103.29,-158.094 92.7099,-157.541 100.636,-164.571 103.29,-158.094"/>
</g>
<!-- Node240 -->
<g id="node12" class="node"><title>Node240</title>
<g id="a_node12"><a xlink:href="../../d9/d06/namespacemom__diag__mediator.html#ab5e628e0b8acd96234fab33d0fae2161" target="_top" xlink:title="Remap diagnostic field to z&#45;star vertical grid. ">
<polygon fill="white" stroke="black" points="146,-69.5 146,-99.5 256,-99.5 256,-69.5 146,-69.5"/>
<text text-anchor="start" x="154" y="-87.5" font-family="Helvetica,sans-Serif" font-size="10.00">mom_diag_mediator::</text>
<text text-anchor="middle" x="201" y="-76.5" font-family="Helvetica,sans-Serif" font-size="10.00">remap_diag_to_z</text>
</a>
</g>
</g>
<!-- Node229&#45;&gt;Node240 -->
<g id="edge11" class="edge"><title>Node229&#45;&gt;Node240</title>
<path fill="none" stroke="midnightblue" d="M102.743,-123.673C122.177,-115.845 144.423,-106.885 162.729,-99.5119"/>
<polygon fill="midnightblue" stroke="midnightblue" points="101.427,-120.43 93.4584,-127.413 104.042,-126.923 101.427,-120.43"/>
</g>
<!-- Node231 -->
<g id="node3" class="node"><title>Node231</title>
<g id="a_node3"><a xlink:href="../../d7/d73/namespacemom__ale.html#a994efb3c62fc5f63da2617f29cbd6be1" target="_top" xlink:title="Initialize diagnostics for the ALE module. ">
<polygon fill="white" stroke="black" points="316,-372.5 316,-402.5 429,-402.5 429,-372.5 316,-372.5"/>
<text text-anchor="start" x="324" y="-390.5" font-family="Helvetica,sans-Serif" font-size="10.00">mom_ale::ale_register</text>
<text text-anchor="middle" x="372.5" y="-379.5" font-family="Helvetica,sans-Serif" font-size="10.00">_diags</text>
</a>
</g>
</g>
<!-- Node230&#45;&gt;Node231 -->
<g id="edge2" class="edge"><title>Node230&#45;&gt;Node231</title>
<path fill="none" stroke="midnightblue" d="M209.401,-226.44C221.161,-261.811 247.459,-326.269 292,-362.5 298.959,-368.161 307.21,-372.546 315.72,-375.941"/>
<polygon fill="midnightblue" stroke="midnightblue" points="212.72,-225.328 206.34,-216.87 206.053,-227.461 212.72,-225.328"/>
</g>
<!-- Node232 -->
<g id="node4" class="node"><title>Node232</title>
<g id="a_node4"><a xlink:href="../../d8/dd2/namespacemom__coriolisadv.html#ad3ce07f23ce7b484a5a9e0c0abe8b1cd" target="_top" xlink:title="Initializes the control structure for coriolisadv_cs. ">
<polygon fill="white" stroke="black" points="292,-334 292,-353 453,-353 453,-334 292,-334"/>
<text text-anchor="middle" x="372.5" y="-341" font-family="Helvetica,sans-Serif" font-size="10.00">mom_coriolisadv::coriolisadv_init</text>
</a>
</g>
</g>
<!-- Node230&#45;&gt;Node232 -->
<g id="edge3" class="edge"><title>Node230&#45;&gt;Node232</title>
<path fill="none" stroke="midnightblue" d="M213.2,-225.849C227.447,-254.03 254.749,-299.728 292,-324.5 297.79,-328.35 304.276,-331.423 310.98,-333.874"/>
<polygon fill="midnightblue" stroke="midnightblue" points="216.25,-224.118 208.71,-216.675 209.962,-227.195 216.25,-224.118"/>
</g>
<!-- Node233 -->
<g id="node5" class="node"><title>Node233</title>
<g id="a_node5"><a xlink:href="../../d9/d06/namespacemom__diag__mediator.html#a21267e25d12fa3e5d2540d2a299d2d2c" target="_top" xlink:title="Registers a diagnostic using the information encapsulated in the vardesc type argument and returns an...">
<polygon fill="white" stroke="black" points="317.5,-284.5 317.5,-314.5 427.5,-314.5 427.5,-284.5 317.5,-284.5"/>
<text text-anchor="start" x="325.5" y="-302.5" font-family="Helvetica,sans-Serif" font-size="10.00">mom_diag_mediator::</text>
<text text-anchor="middle" x="372.5" y="-291.5" font-family="Helvetica,sans-Serif" font-size="10.00">ocean_register_diag</text>
</a>
</g>
</g>
<!-- Node230&#45;&gt;Node233 -->
<g id="edge4" class="edge"><title>Node230&#45;&gt;Node233</title>
<path fill="none" stroke="midnightblue" d="M224.282,-223.625C241.515,-239.675 266.642,-260.874 292,-274.5 299.902,-278.746 308.639,-282.402 317.344,-285.504"/>
<polygon fill="midnightblue" stroke="midnightblue" points="226.608,-221.007 216.947,-216.658 221.788,-226.083 226.608,-221.007"/>
</g>
<!-- Node235 -->
<g id="node7" class="node"><title>Node235</title>
<g id="a_node7"><a xlink:href="../../d7/daa/namespacemom__diapyc__energy__req.html#aa0ce122f4dc6d9a6ec9e17996484bb76" target="_top" xlink:title="mom_diapyc_energy_req\l::diapyc_energy_req_init">
<polygon fill="white" stroke="black" points="310,-235.5 310,-265.5 435,-265.5 435,-235.5 310,-235.5"/>
<text text-anchor="start" x="318" y="-253.5" font-family="Helvetica,sans-Serif" font-size="10.00">mom_diapyc_energy_req</text>
<text text-anchor="middle" x="372.5" y="-242.5" font-family="Helvetica,sans-Serif" font-size="10.00">::diapyc_energy_req_init</text>
</a>
</g>
</g>
<!-- Node230&#45;&gt;Node235 -->
<g id="edge6" class="edge"><title>Node230&#45;&gt;Node235</title>
<path fill="none" stroke="midnightblue" d="M263.899,-219.394C282.13,-224.664 301.886,-230.376 319.434,-235.448"/>
<polygon fill="midnightblue" stroke="midnightblue" points="264.817,-216.016 254.239,-216.601 262.873,-222.741 264.817,-216.016"/>
</g>
<!-- Node236 -->
<g id="node8" class="node"><title>Node236</title>
<g id="a_node8"><a xlink:href="../../d6/d07/namespacemom__diffconvection.html#ac36d9d7fd69e4422e7de01242094ff34" target="_top" xlink:title="mom_diffconvection\l::diffconvection_init">
<polygon fill="white" stroke="black" points="320.5,-186.5 320.5,-216.5 424.5,-216.5 424.5,-186.5 320.5,-186.5"/>
<text text-anchor="start" x="328.5" y="-204.5" font-family="Helvetica,sans-Serif" font-size="10.00">mom_diffconvection</text>
<text text-anchor="middle" x="372.5" y="-193.5" font-family="Helvetica,sans-Serif" font-size="10.00">::diffconvection_init</text>
</a>
</g>
</g>
<!-- Node230&#45;&gt;Node236 -->
<g id="edge7" class="edge"><title>Node230&#45;&gt;Node236</title>
<path fill="none" stroke="midnightblue" d="M266.405,-201.5C284.205,-201.5 303.278,-201.5 320.224,-201.5"/>
<polygon fill="midnightblue" stroke="midnightblue" points="266.097,-198 256.097,-201.5 266.097,-205 266.097,-198"/>
</g>
<!-- Node237 -->
<g id="node9" class="node"><title>Node237</title>
<g id="a_node9"><a xlink:href="../../d0/d77/namespacemom__int__tide__input.html#a29a707637da633ccee155b53557b5f17" target="_top" xlink:title="mom_int_tide_input\l::int_tide_input_init">
<polygon fill="white" stroke="black" points="322,-137.5 322,-167.5 423,-167.5 423,-137.5 322,-137.5"/>
<text text-anchor="start" x="330" y="-155.5" font-family="Helvetica,sans-Serif" font-size="10.00">mom_int_tide_input</text>
<text text-anchor="middle" x="372.5" y="-144.5" font-family="Helvetica,sans-Serif" font-size="10.00">::int_tide_input_init</text>
</a>
</g>
</g>
<!-- Node230&#45;&gt;Node237 -->
<g id="edge8" class="edge"><title>Node230&#45;&gt;Node237</title>
<path fill="none" stroke="midnightblue" d="M264.007,-183.575C283.016,-178.079 303.674,-172.108 321.753,-166.881"/>
<polygon fill="midnightblue" stroke="midnightblue" points="262.873,-180.259 254.239,-186.399 264.817,-186.984 262.873,-180.259"/>
</g>
<!-- Node238 -->
<g id="node10" class="node"><title>Node238</title>
<g id="a_node10"><a xlink:href="../../d5/d08/namespacemom__kpp.html#a9c834424b6e067e280928db3700ec77e" target="_top" xlink:title="Initialize the CVmix KPP module and set up diagnostics Returns True if KPP is to be used...">
<polygon fill="white" stroke="black" points="323,-99 323,-118 422,-118 422,-99 323,-99"/>
<text text-anchor="middle" x="372.5" y="-106" font-family="Helvetica,sans-Serif" font-size="10.00">mom_kpp::kpp_init</text>
</a>
</g>
</g>
<!-- Node230&#45;&gt;Node238 -->
<g id="edge9" class="edge"><title>Node230&#45;&gt;Node238</title>
<path fill="none" stroke="midnightblue" d="M223.338,-179.131C240.413,-162.509 265.768,-140.541 292,-127.5 301.53,-122.762 312.3,-119.169 322.765,-116.458"/>
<polygon fill="midnightblue" stroke="midnightblue" points="220.716,-176.802 216.102,-186.34 225.656,-181.761 220.716,-176.802"/>
</g>
<!-- Node239 -->
<g id="node11" class="node"><title>Node239</title>
<g id="a_node11"><a xlink:href="../../d8/da4/namespacemom__neutral__diffusion.html#a87cf821c52ac1111493d4168f0a91d17" target="_top" xlink:title="Diagnostic handles for neutral diffusion tendencies. ">
<polygon fill="white" stroke="black" points="305,-49.5 305,-79.5 440,-79.5 440,-49.5 305,-49.5"/>
<text text-anchor="start" x="313" y="-67.5" font-family="Helvetica,sans-Serif" font-size="10.00">mom_neutral_diffusion</text>
<text text-anchor="middle" x="372.5" y="-56.5" font-family="Helvetica,sans-Serif" font-size="10.00">::neutral_diffusion_diag_init</text>
</a>
</g>
</g>
<!-- Node230&#45;&gt;Node239 -->
<g id="edge10" class="edge"><title>Node230&#45;&gt;Node239</title>
<path fill="none" stroke="midnightblue" d="M215.214,-177.797C230.528,-152.419 258.062,-112.682 292,-89.5 297.615,-85.6644 303.848,-82.3945 310.283,-79.6119"/>
<polygon fill="midnightblue" stroke="midnightblue" points="212.184,-176.045 210.135,-186.44 218.219,-179.592 212.184,-176.045"/>
</g>
<!-- Node234 -->
<g id="node6" class="node"><title>Node234</title>
<g id="a_node6"><a xlink:href="../../d0/dbf/namespacemom__diag__to__z.html#a90526b2f59f94c6af2f525a221029772" target="_top" xlink:title="mom_diag_to_z::ocean\l_register_diag_with_z">
<polygon fill="white" stroke="black" points="489,-284.5 489,-314.5 607,-314.5 607,-284.5 489,-284.5"/>
<text text-anchor="start" x="497" y="-302.5" font-family="Helvetica,sans-Serif" font-size="10.00">mom_diag_to_z::ocean</text>
<text text-anchor="middle" x="548" y="-291.5" font-family="Helvetica,sans-Serif" font-size="10.00">_register_diag_with_z</text>
</a>
</g>
</g>
<!-- Node233&#45;&gt;Node234 -->
<g id="edge5" class="edge"><title>Node233&#45;&gt;Node234</title>
<path fill="none" stroke="midnightblue" d="M438.111,-299.5C454.759,-299.5 472.572,-299.5 488.868,-299.5"/>
<polygon fill="midnightblue" stroke="midnightblue" points="437.92,-296 427.92,-299.5 437.92,-303 437.92,-296"/>
</g>
<!-- Node241 -->
<g id="node13" class="node"><title>Node241</title>
<g id="a_node13"><a xlink:href="../../d9/d06/namespacemom__diag__mediator.html#adb1030a0216c52dd0d25bd67a5b31868" target="_top" xlink:title="mom_diag_mediator::\lpost_data_3d">
<polygon fill="white" stroke="black" points="317.5,-0.5 317.5,-30.5 427.5,-30.5 427.5,-0.5 317.5,-0.5"/>
<text text-anchor="start" x="325.5" y="-18.5" font-family="Helvetica,sans-Serif" font-size="10.00">mom_diag_mediator::</text>
<text text-anchor="middle" x="372.5" y="-7.5" font-family="Helvetica,sans-Serif" font-size="10.00">post_data_3d</text>
</a>
</g>
</g>
<!-- Node240&#45;&gt;Node241 -->
<g id="edge12" class="edge"><title>Node240&#45;&gt;Node241</title>
<path fill="none" stroke="midnightblue" d="M238.129,-64.6682C254.314,-56.248 273.816,-46.7295 292,-39.5 300.038,-36.3041 308.676,-33.2879 317.19,-30.5428"/>
<polygon fill="midnightblue" stroke="midnightblue" points="236.23,-61.7126 229.017,-69.4733 239.495,-67.9043 236.23,-61.7126"/>
</g>
</g>
</svg>
