<?xml version="1.0" encoding="UTF-8" standalone="no"?>
<!DOCTYPE svg PUBLIC "-//W3C//DTD SVG 1.1//EN"
 "http://www.w3.org/Graphics/SVG/1.1/DTD/svg11.dtd">
<!-- Generated by graphviz version 2.38.0 (20140413.2041)
 -->
<!-- Title: mom_diag_mediator::post_data_1d_k Pages: 1 -->
<!--zoomable 39 -->
<svg id="main" version="1.1" xmlns="http://www.w3.org/2000/svg" xmlns:xlink="http://www.w3.org/1999/xlink" xml:space="preserve" onload="init(evt)">
<style type="text/css"><![CDATA[
.edge:hover path { stroke: red; }
.edge:hover polygon { stroke: red; fill: red; }
]]></style>
<script type="text/javascript"><![CDATA[
var edges = document.getElementsByTagName('g');
if (edges && edges.length) {
  for (var i=0;i<edges.length;i++) {
    if (edges[i].id.substr(0,4)=='edge') {
      edges[i].setAttribute('class','edge');
    }
  }
}
]]></script>
        <defs>
                <circle id="rim" cx="0" cy="0" r="7"/>
                <circle id="rim2" cx="0" cy="0" r="3.5"/>
                <g id="zoomPlus">
                        <use xlink:href="#rim" fill="#404040">
                                <set attributeName="fill" to="#808080" begin="zoomplus.mouseover" end="zoomplus.mouseout"/>
                        </use>
                        <path d="M-4,0h8M0,-4v8" fill="none" stroke="white" stroke-width="1.5" pointer-events="none"/>
                </g>
                <g id="zoomMin">
                        <use xlink:href="#rim" fill="#404040">
                                <set attributeName="fill" to="#808080" begin="zoomminus.mouseover" end="zoomminus.mouseout"/>
                        </use>
                        <path d="M-4,0h8" fill="none" stroke="white" stroke-width="1.5" pointer-events="none"/>
                </g>
                <g id="dirArrow">
                        <path fill="none" stroke="white" stroke-width="1.5" d="M0,-3.0v7 M-2.5,-0.5L0,-3.0L2.5,-0.5"/>
                </g>
               <g id="resetDef">
                       <use xlink:href="#rim2" fill="#404040">
                               <set attributeName="fill" to="#808080" begin="reset.mouseover" end="reset.mouseout"/>
                       </use>
               </g>
        </defs>

<script type="text/javascript">
var viewWidth = 516;
var viewHeight = 39;
var sectionId = 'dynsection-36';
</script>
<script xlink:href="../../svgpan.js"/>
<svg id="graph" class="graph">
<g id="viewport">
<title>mom_diag_mediator::post_data_1d_k</title>
<polygon fill="white" stroke="none" points="-4,4 -4,-35 512,-35 512,4 -4,4"/>
<!-- Node333 -->
<g id="node1" class="node"><title>Node333</title>
<polygon fill="#bfbfbf" stroke="black" points="0,-0.5 0,-30.5 95,-30.5 95,-0.5 0,-0.5"/>
<text text-anchor="start" x="8" y="-18.5" font-family="Helvetica,sans-Serif" font-size="10.00">mom_diag_mediator::</text>
<text text-anchor="middle" x="47.5" y="-7.5" font-family="Helvetica,sans-Serif" font-size="10.00">post_data_1d_k</text>
</g>
<!-- Node334 -->
<g id="node2" class="node"><title>Node334</title>
<g id="a_node2"><a xlink:href="../../d7/daa/namespacemom__diapyc__energy__req.html#ae781d0079acfadcd996aaff8d63957da" target="_top" xlink:title="mom_diapyc_energy_req\l::diapyc_energy_req_calc">
<polygon fill="white" stroke="black" points="131,-0.5 131,-30.5 238,-30.5 238,-0.5 131,-0.5"/>
<text text-anchor="start" x="139" y="-18.5" font-family="Helvetica,sans-Serif" font-size="10.00">mom_diapyc_energy_req</text>
<text text-anchor="middle" x="184.5" y="-7.5" font-family="Helvetica,sans-Serif" font-size="10.00">::diapyc_energy_req_calc</text>
</a>
</g>
</g>
<!-- Node333&#45;&gt;Node334 -->
<g id="edge1" class="edge"><title>Node333&#45;&gt;Node334</title>
<path fill="none" stroke="midnightblue" d="M105.427,-15.5C113.818,-15.5 122.434,-15.5 130.736,-15.5"/>
<polygon fill="midnightblue" stroke="midnightblue" points="105.338,-12.0001 95.3376,-15.5 105.338,-19.0001 105.338,-12.0001"/>
</g>
<!-- Node335 -->
<g id="node3" class="node"><title>Node335</title>
<g id="a_node3"><a xlink:href="../../d7/daa/namespacemom__diapyc__energy__req.html#afe7d4fc70231c1812ffd38faef76558e" target="_top" xlink:title="mom_diapyc_energy_req\l::diapyc_energy_req_test">
<polygon fill="white" stroke="black" points="274,-0.5 274,-30.5 381,-30.5 381,-0.5 274,-0.5"/>
<text text-anchor="start" x="282" y="-18.5" font-family="Helvetica,sans-Serif" font-size="10.00">mom_diapyc_energy_req</text>
<text text-anchor="middle" x="327.5" y="-7.5" font-family="Helvetica,sans-Serif" font-size="10.00">::diapyc_energy_req_test</text>
</a>
</g>
</g>
<!-- Node334&#45;&gt;Node335 -->
<g id="edge2" class="edge"><title>Node334&#45;&gt;Node335</title>
<path fill="none" stroke="midnightblue" d="M248.05,-15.5C256.7,-15.5 265.51,-15.5 273.953,-15.5"/>
<polygon fill="midnightblue" stroke="midnightblue" points="248.003,-12.0001 238.003,-15.5 248.003,-19.0001 248.003,-12.0001"/>
</g>
<!-- Node336 -->
<g id="node4" class="node"><title>Node336</title>
<g id="a_node4"><a xlink:href="../../d8/df3/namespacemom__diabatic__driver.html#a61e57d3902367aa46aa3c2d949ee900f" target="_top" xlink:title="This subroutine imposes the diapycnal mass fluxes and the accompanying diapycnal advection of momentu...">
<polygon fill="white" stroke="black" points="417,-0.5 417,-30.5 508,-30.5 508,-0.5 417,-0.5"/>
<text text-anchor="start" x="425" y="-18.5" font-family="Helvetica,sans-Serif" font-size="10.00">mom_diabatic_driver</text>
<text text-anchor="middle" x="462.5" y="-7.5" font-family="Helvetica,sans-Serif" font-size="10.00">::diabatic</text>
</a>
</g>
</g>
<!-- Node335&#45;&gt;Node336 -->
<g id="edge3" class="edge"><title>Node335&#45;&gt;Node336</title>
<path fill="none" stroke="midnightblue" d="M391.1,-15.5C399.711,-15.5 408.411,-15.5 416.617,-15.5"/>
<polygon fill="midnightblue" stroke="midnightblue" points="391.065,-12.0001 381.065,-15.5 391.065,-19.0001 391.065,-12.0001"/>
</g>
</g>
</svg>
        <g id="navigator" transform="translate(0 0)" fill="#404254">
                <rect fill="#f2f5e9" fill-opacity="0.5" stroke="#606060" stroke-width=".5" x="0" y="0" width="60" height="60"/>
                <use id="zoomplus" xlink:href="#zoomPlus" x="17" y="9" onmousedown="handleZoom(evt,'in')"/>
                <use id="zoomminus" xlink:href="#zoomMin" x="42" y="9" onmousedown="handleZoom(evt,'out')"/>
                <use id="reset" xlink:href="#resetDef" x="30" y="36" onmousedown="handleReset()"/>
                <g id="arrowUp" xlink:href="#dirArrow" transform="translate(30 24)" onmousedown="handlePan(0,-1)">
                  <use xlink:href="#rim" fill="#404040">
                        <set attributeName="fill" to="#808080" begin="arrowUp.mouseover" end="arrowUp.mouseout"/>
                  </use>
                  <path fill="none" stroke="white" stroke-width="1.5" d="M0,-3.0v7 M-2.5,-0.5L0,-3.0L2.5,-0.5"/>
                </g>
                <g id="arrowRight" xlink:href="#dirArrow" transform="rotate(90) translate(36 -43)" onmousedown="handlePan(1,0)">
                  <use xlink:href="#rim" fill="#404040">
                        <set attributeName="fill" to="#808080" begin="arrowRight.mouseover" end="arrowRight.mouseout"/>
                  </use>
                  <path fill="none" stroke="white" stroke-width="1.5" d="M0,-3.0v7 M-2.5,-0.5L0,-3.0L2.5,-0.5"/>
                </g>
                <g id="arrowDown" xlink:href="#dirArrow" transform="rotate(180) translate(-30 -48)" onmousedown="handlePan(0,1)">
                  <use xlink:href="#rim" fill="#404040">
                        <set attributeName="fill" to="#808080" begin="arrowDown.mouseover" end="arrowDown.mouseout"/>
                  </use>
                  <path fill="none" stroke="white" stroke-width="1.5" d="M0,-3.0v7 M-2.5,-0.5L0,-3.0L2.5,-0.5"/>
                </g>
                <g id="arrowLeft" xlink:href="#dirArrow" transform="rotate(270) translate(-36 17)" onmousedown="handlePan(-1,0)">
                  <use xlink:href="#rim" fill="#404040">
                        <set attributeName="fill" to="#808080" begin="arrowLeft.mouseover" end="arrowLeft.mouseout"/>
                  </use>
                  <path fill="none" stroke="white" stroke-width="1.5" d="M0,-3.0v7 M-2.5,-0.5L0,-3.0L2.5,-0.5"/>
                </g>
        </g>
        <svg viewBox="0 0 15 15" width="100%" height="30px" preserveAspectRatio="xMaxYMin meet">
         <g id="arrow_out" transform="scale(0.3 0.3)">
          <a xlink:href="namespacemom__diag__mediator_ab5b75b68fa1742ce312c371f4b2c6ac1_icgraph_org.svg" target="_base">
           <rect id="button" ry="5" rx="5" y="6" x="6" height="38" width="38"
                fill="#f2f5e9" fill-opacity="0.5" stroke="#606060" stroke-width="1.0"/>
           <path id="arrow"
             d="M 11.500037,31.436501 C 11.940474,20.09759 22.043105,11.32322 32.158766,21.979434 L 37.068811,17.246167 C 37.068811,17.246167 37.088388,32 37.088388,32 L 22.160133,31.978069 C 22.160133,31.978069 26.997745,27.140456 26.997745,27.140456 C 18.528582,18.264221 13.291696,25.230495 11.500037,31.436501 z"
             style="fill:#404040;"/>
          </a>
         </g>
        </svg>
</svg>
