<?xml version="1.0" encoding="UTF-8" standalone="no"?>
<!DOCTYPE svg PUBLIC "-//W3C//DTD SVG 1.1//EN"
 "http://www.w3.org/Graphics/SVG/1.1/DTD/svg11.dtd">
<!-- Generated by graphviz version 2.38.0 (20140413.2041)
 -->
<!-- Title: mom_diag_mediator::post_data_3d Pages: 1 -->
<!--zoomable 1078 -->
<svg id="main" version="1.1" xmlns="http://www.w3.org/2000/svg" xmlns:xlink="http://www.w3.org/1999/xlink" xml:space="preserve" onload="init(evt)">
<style type="text/css"><![CDATA[
.edge:hover path { stroke: red; }
.edge:hover polygon { stroke: red; fill: red; }
]]></style>
<script type="text/javascript"><![CDATA[
var edges = document.getElementsByTagName('g');
if (edges && edges.length) {
  for (var i=0;i<edges.length;i++) {
    if (edges[i].id.substr(0,4)=='edge') {
      edges[i].setAttribute('class','edge');
    }
  }
}
]]></script>
        <defs>
                <circle id="rim" cx="0" cy="0" r="7"/>
                <circle id="rim2" cx="0" cy="0" r="3.5"/>
                <g id="zoomPlus">
                        <use xlink:href="#rim" fill="#404040">
                                <set attributeName="fill" to="#808080" begin="zoomplus.mouseover" end="zoomplus.mouseout"/>
                        </use>
                        <path d="M-4,0h8M0,-4v8" fill="none" stroke="white" stroke-width="1.5" pointer-events="none"/>
                </g>
                <g id="zoomMin">
                        <use xlink:href="#rim" fill="#404040">
                                <set attributeName="fill" to="#808080" begin="zoomminus.mouseover" end="zoomminus.mouseout"/>
                        </use>
                        <path d="M-4,0h8" fill="none" stroke="white" stroke-width="1.5" pointer-events="none"/>
                </g>
                <g id="dirArrow">
                        <path fill="none" stroke="white" stroke-width="1.5" d="M0,-3.0v7 M-2.5,-0.5L0,-3.0L2.5,-0.5"/>
                </g>
               <g id="resetDef">
                       <use xlink:href="#rim2" fill="#404040">
                               <set attributeName="fill" to="#808080" begin="reset.mouseover" end="reset.mouseout"/>
                       </use>
               </g>
        </defs>

<script type="text/javascript">
var viewWidth = 1091;
var viewHeight = 1078;
var sectionId = 'dynsection-40';
</script>
<script xlink:href="../../svgpan.js"/>
<svg id="graph" class="graph">
<g id="viewport">
<title>mom_diag_mediator::post_data_3d</title>
<polygon fill="white" stroke="none" points="-4,4 -4,-1074.07 1087,-1074.07 1087,4 -4,4"/>
<!-- Node350 -->
<g id="node1" class="node"><title>Node350</title>
<polygon fill="#bfbfbf" stroke="black" points="0,-102.072 0,-132.072 95,-132.072 95,-102.072 0,-102.072"/>
<text text-anchor="start" x="8" y="-120.072" font-family="Helvetica,sans-Serif" font-size="10.00">mom_diag_mediator::</text>
<text text-anchor="middle" x="47.5" y="-109.072" font-family="Helvetica,sans-Serif" font-size="10.00">post_data_3d</text>
</g>
<!-- Node351 -->
<g id="node2" class="node"><title>Node351</title>
<g id="a_node2"><a xlink:href="../../d9/d06/namespacemom__diag__mediator.html#a6e11afe7a97bf8e3333d33b0aebd6f6e" target="_top" xlink:title="mom_diag_mediator::\lassert">
<polygon fill="white" stroke="black" points="274.5,-126.072 274.5,-156.072 369.5,-156.072 369.5,-126.072 274.5,-126.072"/>
<text text-anchor="start" x="282.5" y="-144.072" font-family="Helvetica,sans-Serif" font-size="10.00">mom_diag_mediator::</text>
<text text-anchor="middle" x="322" y="-133.072" font-family="Helvetica,sans-Serif" font-size="10.00">assert</text>
</a>
</g>
</g>
<!-- Node350&#45;&gt;Node351 -->
<g id="edge1" class="edge"><title>Node350&#45;&gt;Node351</title>
<path fill="none" stroke="midnightblue" d="M95.0348,-121.17C141.823,-125.291 214.019,-131.65 264.166,-136.066"/>
<polygon fill="midnightblue" stroke="midnightblue" points="263.932,-139.559 274.201,-136.95 264.547,-132.586 263.932,-139.559"/>
</g>
<!-- Node352 -->
<g id="node3" class="node"><title>Node352</title>
<g id="a_node3"><a xlink:href="../../d0/de6/namespacemom__error__handler.html#a460cfb79a06c29fc249952c2a3710d67" target="_top" xlink:title="mom_error_handler::\lmom_error">
<polygon fill="white" stroke="black" points="860.5,-240.072 860.5,-270.072 953.5,-270.072 953.5,-240.072 860.5,-240.072"/>
<text text-anchor="start" x="868.5" y="-258.072" font-family="Helvetica,sans-Serif" font-size="10.00">mom_error_handler::</text>
<text text-anchor="middle" x="907" y="-247.072" font-family="Helvetica,sans-Serif" font-size="10.00">mom_error</text>
</a>
</g>
</g>
<!-- Node350&#45;&gt;Node352 -->
<g id="edge4" class="edge"><title>Node350&#45;&gt;Node352</title>
<path fill="none" stroke="midnightblue" d="M95.1957,-111.554C149.405,-105.634 241.544,-97.0717 321,-97.0717 321,-97.0717 321,-97.0717 619,-97.0717 714.187,-97.0717 744.317,-107.003 824,-159.072 852.739,-177.851 877.006,-209.586 891.516,-231.394"/>
<polygon fill="midnightblue" stroke="midnightblue" points="888.753,-233.568 897.122,-240.066 894.632,-229.768 888.753,-233.568"/>
</g>
<!-- Node354 -->
<g id="node5" class="node"><title>Node354</title>
<g id="a_node5"><a xlink:href="../../d9/d06/namespacemom__diag__mediator.html#ae11cae949c3f8cf68d2c70f656aa9c54" target="_top" xlink:title="mom_diag_mediator::\lpost_data_3d_low">
<polygon fill="white" stroke="black" points="570.5,-33.0717 570.5,-63.0717 665.5,-63.0717 665.5,-33.0717 570.5,-33.0717"/>
<text text-anchor="start" x="578.5" y="-51.0717" font-family="Helvetica,sans-Serif" font-size="10.00">mom_diag_mediator::</text>
<text text-anchor="middle" x="618" y="-40.0717" font-family="Helvetica,sans-Serif" font-size="10.00">post_data_3d_low</text>
</a>
</g>
</g>
<!-- Node350&#45;&gt;Node354 -->
<g id="edge5" class="edge"><title>Node350&#45;&gt;Node354</title>
<path fill="none" stroke="midnightblue" d="M78.6767,-101.914C93.9682,-94.9436 113.056,-87.2997 131,-83.0717 283.026,-47.2511 468.563,-44.8942 560.194,-46.3639"/>
<polygon fill="midnightblue" stroke="midnightblue" points="560.301,-49.8663 570.363,-46.5492 560.428,-42.8675 560.301,-49.8663"/>
</g>
<!-- Node356 -->
<g id="node7" class="node"><title>Node356</title>
<g id="a_node7"><a xlink:href="../../d9/d06/namespacemom__diag__mediator.html#ab5e628e0b8acd96234fab33d0fae2161" target="_top" xlink:title="Remap diagnostic field to z&#45;star vertical grid. ">
<polygon fill="white" stroke="black" points="131,-298.072 131,-328.072 226,-328.072 226,-298.072 131,-298.072"/>
<text text-anchor="start" x="139" y="-316.072" font-family="Helvetica,sans-Serif" font-size="10.00">mom_diag_mediator::</text>
<text text-anchor="middle" x="178.5" y="-305.072" font-family="Helvetica,sans-Serif" font-size="10.00">remap_diag_to_z</text>
</a>
</g>
</g>
<!-- Node350&#45;&gt;Node356 -->
<g id="edge9" class="edge"><title>Node350&#45;&gt;Node356</title>
<path fill="none" stroke="midnightblue" d="M58.4082,-132.126C80.732,-166.044 135.104,-248.655 161.962,-289.464"/>
<polygon fill="midnightblue" stroke="midnightblue" points="159.137,-291.537 167.558,-297.966 164.984,-287.689 159.137,-291.537"/>
</g>
<!-- Node351&#45;&gt;Node352 -->
<g id="edge2" class="edge"><title>Node351&#45;&gt;Node352</title>
<path fill="none" stroke="midnightblue" d="M369.545,-137.938C460.484,-133.544 666.61,-132.159 824,-195.072 846.039,-203.881 867.562,-220.004 883.024,-233.32"/>
<polygon fill="midnightblue" stroke="midnightblue" points="880.724,-235.958 890.528,-239.974 885.368,-230.72 880.724,-235.958"/>
</g>
<!-- Node353 -->
<g id="node4" class="node"><title>Node353</title>
<g id="a_node4"><a xlink:href="../../d0/de6/namespacemom__error__handler.html#ad5f00a53059c72fe2332d1436c80ca71" target="_top" xlink:title="mom_error_handler::\lis_root_pe">
<polygon fill="white" stroke="black" points="990,-240.072 990,-270.072 1083,-270.072 1083,-240.072 990,-240.072"/>
<text text-anchor="start" x="998" y="-258.072" font-family="Helvetica,sans-Serif" font-size="10.00">mom_error_handler::</text>
<text text-anchor="middle" x="1036.5" y="-247.072" font-family="Helvetica,sans-Serif" font-size="10.00">is_root_pe</text>
</a>
</g>
</g>
<!-- Node352&#45;&gt;Node353 -->
<g id="edge3" class="edge"><title>Node352&#45;&gt;Node353</title>
<path fill="none" stroke="midnightblue" d="M953.67,-255.072C962.093,-255.072 970.975,-255.072 979.658,-255.072"/>
<polygon fill="midnightblue" stroke="midnightblue" points="979.72,-258.572 989.72,-255.072 979.72,-251.572 979.72,-258.572"/>
</g>
<!-- Node354&#45;&gt;Node352 -->
<g id="edge6" class="edge"><title>Node354&#45;&gt;Node352</title>
<path fill="none" stroke="midnightblue" d="M646.077,-33.0035C688.22,-11.7988 770.237,20.2169 824,-18.0717 893.385,-67.4854 904.609,-179.793 906.046,-230.003"/>
<polygon fill="midnightblue" stroke="midnightblue" points="902.546,-230.066 906.223,-240.003 909.545,-229.942 902.546,-230.066"/>
</g>
<!-- Node355 -->
<g id="node6" class="node"><title>Node355</title>
<g id="a_node6"><a xlink:href="../../d9/d06/namespacemom__diag__mediator.html#ad29232eeab5146b795e7b6a491651964" target="_top" xlink:title="mom_diag_mediator::\lcheck_field_and_mask\l_shape_3d">
<polygon fill="white" stroke="black" points="720,-27.5717 720,-68.5717 817,-68.5717 817,-27.5717 720,-27.5717"/>
<text text-anchor="start" x="728" y="-56.5717" font-family="Helvetica,sans-Serif" font-size="10.00">mom_diag_mediator::</text>
<text text-anchor="start" x="728" y="-45.5717" font-family="Helvetica,sans-Serif" font-size="10.00">check_field_and_mask</text>
<text text-anchor="middle" x="768.5" y="-34.5717" font-family="Helvetica,sans-Serif" font-size="10.00">_shape_3d</text>
</a>
</g>
</g>
<!-- Node354&#45;&gt;Node355 -->
<g id="edge7" class="edge"><title>Node354&#45;&gt;Node355</title>
<path fill="none" stroke="midnightblue" d="M665.579,-48.0717C679.473,-48.0717 694.877,-48.0717 709.411,-48.0717"/>
<polygon fill="midnightblue" stroke="midnightblue" points="709.807,-51.5718 719.807,-48.0717 709.807,-44.5718 709.807,-51.5718"/>
</g>
<!-- Node355&#45;&gt;Node352 -->
<g id="edge8" class="edge"><title>Node355&#45;&gt;Node352</title>
<path fill="none" stroke="midnightblue" d="M807.736,-68.6936C813.637,-72.9383 819.316,-77.7569 824,-83.0717 863.218,-127.571 887.725,-194.111 898.89,-229.988"/>
<polygon fill="midnightblue" stroke="midnightblue" points="895.57,-231.102 901.807,-239.666 902.272,-229.081 895.57,-231.102"/>
</g>
<!-- Node356&#45;&gt;Node351 -->
<g id="edge10" class="edge"><title>Node356&#45;&gt;Node351</title>
<path fill="none" stroke="midnightblue" d="M192.057,-297.808C216.854,-267.667 272.249,-200.33 301.711,-164.518"/>
<polygon fill="midnightblue" stroke="midnightblue" points="304.617,-166.495 308.268,-156.549 299.211,-162.048 304.617,-166.495"/>
</g>
<!-- Node356&#45;&gt;Node352 -->
<g id="edge12" class="edge"><title>Node356&#45;&gt;Node352</title>
<path fill="none" stroke="midnightblue" d="M179.203,-328.285C178.161,-425.354 185.515,-954.072 469.5,-954.072 469.5,-954.072 469.5,-954.072 619,-954.072 785.664,-954.072 769.037,-797.412 824,-640.072 869.923,-508.609 894.691,-342.507 902.887,-280.197"/>
<polygon fill="midnightblue" stroke="midnightblue" points="906.378,-280.491 904.185,-270.126 899.436,-279.597 906.378,-280.491"/>
</g>
<!-- Node357 -->
<g id="node8" class="node"><title>Node357</title>
<g id="a_node8"><a xlink:href="../../d9/d06/namespacemom__diag__mediator.html#a27fa63c9ff62b660bf457adbb8645bdf" target="_top" xlink:title="mom_diag_mediator::\lis_u_axes">
<polygon fill="white" stroke="black" points="274.5,-372.072 274.5,-402.072 369.5,-402.072 369.5,-372.072 274.5,-372.072"/>
<text text-anchor="start" x="282.5" y="-390.072" font-family="Helvetica,sans-Serif" font-size="10.00">mom_diag_mediator::</text>
<text text-anchor="middle" x="322" y="-379.072" font-family="Helvetica,sans-Serif" font-size="10.00">is_u_axes</text>
</a>
</g>
</g>
<!-- Node356&#45;&gt;Node357 -->
<g id="edge11" class="edge"><title>Node356&#45;&gt;Node357</title>
<path fill="none" stroke="midnightblue" d="M202.851,-328.092C219.116,-338.266 241.487,-351.694 262,-362.072 265.797,-363.993 269.776,-365.898 273.799,-367.749"/>
<polygon fill="midnightblue" stroke="midnightblue" points="272.64,-371.065 283.198,-371.952 275.498,-364.674 272.64,-371.065"/>
</g>
<!-- Node358 -->
<g id="node9" class="node"><title>Node358</title>
<g id="a_node9"><a xlink:href="../../d6/d75/namespacemom__remapping.html#a6d1533ffa647f3305aba055e2685b095" target="_top" xlink:title="Remaps column of values u0 on grid h0 to grid h1 assuming the top edge is aligned. ">
<polygon fill="white" stroke="black" points="262,-274.072 262,-304.072 382,-304.072 382,-274.072 262,-274.072"/>
<text text-anchor="start" x="270" y="-292.072" font-family="Helvetica,sans-Serif" font-size="10.00">mom_remapping::remapping</text>
<text text-anchor="middle" x="322" y="-281.072" font-family="Helvetica,sans-Serif" font-size="10.00">_core_h</text>
</a>
</g>
</g>
<!-- Node356&#45;&gt;Node358 -->
<g id="edge13" class="edge"><title>Node356&#45;&gt;Node358</title>
<path fill="none" stroke="midnightblue" d="M226.225,-305.147C234.441,-303.753 243.147,-302.276 251.822,-300.805"/>
<polygon fill="midnightblue" stroke="midnightblue" points="252.686,-304.209 261.96,-299.086 251.515,-297.307 252.686,-304.209"/>
</g>
<!-- Node383 -->
<g id="node34" class="node"><title>Node383</title>
<g id="a_node34"><a xlink:href="../../d9/d06/namespacemom__diag__mediator.html#a9a30d653d812713d6fcff94f6f1fc3e6" target="_top" xlink:title="mom_diag_mediator::\lis_v_axes">
<polygon fill="white" stroke="black" points="274.5,-323.072 274.5,-353.072 369.5,-353.072 369.5,-323.072 274.5,-323.072"/>
<text text-anchor="start" x="282.5" y="-341.072" font-family="Helvetica,sans-Serif" font-size="10.00">mom_diag_mediator::</text>
<text text-anchor="middle" x="322" y="-330.072" font-family="Helvetica,sans-Serif" font-size="10.00">is_v_axes</text>
</a>
</g>
</g>
<!-- Node356&#45;&gt;Node383 -->
<g id="edge57" class="edge"><title>Node356&#45;&gt;Node383</title>
<path fill="none" stroke="midnightblue" d="M226.225,-321.327C238.42,-323.482 251.697,-325.827 264.347,-328.062"/>
<polygon fill="midnightblue" stroke="midnightblue" points="263.868,-331.532 274.325,-329.825 265.086,-324.639 263.868,-331.532"/>
</g>
<!-- Node358&#45;&gt;Node352 -->
<g id="edge56" class="edge"><title>Node358&#45;&gt;Node352</title>
<path fill="none" stroke="midnightblue" d="M362.803,-304.103C369.31,-306.889 375.911,-309.921 382,-313.072 398.864,-321.796 400.457,-328.81 418,-336.072 525.118,-380.413 563.777,-391.991 677,-367.072 753.468,-350.242 833.613,-303.184 875.833,-275.715"/>
<polygon fill="midnightblue" stroke="midnightblue" points="877.826,-278.593 884.251,-270.169 873.975,-272.748 877.826,-278.593"/>
</g>
<!-- Node359 -->
<g id="node10" class="node"><title>Node359</title>
<g id="a_node10"><a xlink:href="../../d6/d75/namespacemom__remapping.html#a07d7276310f329f56560a1290bcb8b0a" target="_top" xlink:title="Creates polynomial reconstructions of u0 on the source grid h0. ">
<polygon fill="white" stroke="black" points="421.5,-650.072 421.5,-680.072 519.5,-680.072 519.5,-650.072 421.5,-650.072"/>
<text text-anchor="start" x="429.5" y="-668.072" font-family="Helvetica,sans-Serif" font-size="10.00">mom_remapping::build</text>
<text text-anchor="middle" x="470.5" y="-657.072" font-family="Helvetica,sans-Serif" font-size="10.00">_reconstructions_1d</text>
</a>
</g>
</g>
<!-- Node358&#45;&gt;Node359 -->
<g id="edge14" class="edge"><title>Node358&#45;&gt;Node359</title>
<path fill="none" stroke="midnightblue" d="M371.662,-304.172C375.499,-306.701 379.031,-309.645 382,-313.072 403.864,-338.302 449.55,-563.289 464.586,-639.762"/>
<polygon fill="midnightblue" stroke="midnightblue" points="461.22,-640.785 466.576,-649.926 468.089,-639.44 461.22,-640.785"/>
</g>
<!-- Node378 -->
<g id="node29" class="node"><title>Node378</title>
<g id="a_node29"><a xlink:href="../../d6/d75/namespacemom__remapping.html#a62666b08a892ba9e9ab5a4731a07b942" target="_top" xlink:title="Checks that edge values and reconstructions satisfy bounds. ">
<polygon fill="white" stroke="black" points="419.5,-166.072 419.5,-196.072 521.5,-196.072 521.5,-166.072 419.5,-166.072"/>
<text text-anchor="start" x="427.5" y="-184.072" font-family="Helvetica,sans-Serif" font-size="10.00">mom_remapping::check</text>
<text text-anchor="middle" x="470.5" y="-173.072" font-family="Helvetica,sans-Serif" font-size="10.00">_reconstructions_1d</text>
</a>
</g>
</g>
<!-- Node358&#45;&gt;Node378 -->
<g id="edge46" class="edge"><title>Node358&#45;&gt;Node378</title>
<path fill="none" stroke="midnightblue" d="M341.595,-273.887C360.511,-258.609 390.827,-234.579 418,-215.072 424.163,-210.647 430.857,-206.069 437.316,-201.761"/>
<polygon fill="midnightblue" stroke="midnightblue" points="439.488,-204.521 445.908,-196.093 435.633,-198.678 439.488,-204.521"/>
</g>
<!-- Node379 -->
<g id="node30" class="node"><title>Node379</title>
<g id="a_node30"><a xlink:href="../../d6/d75/namespacemom__remapping.html#aac27eb299cd36293b458a51b60ac771f" target="_top" xlink:title="Remaps column of n0 values u0 on grid h0 to grid h1 with n1 cells by calculating the n0+n1+1 sub&#45;inte...">
<polygon fill="white" stroke="black" points="418,-274.072 418,-304.072 523,-304.072 523,-274.072 418,-274.072"/>
<text text-anchor="start" x="426" y="-292.072" font-family="Helvetica,sans-Serif" font-size="10.00">mom_remapping::remap</text>
<text text-anchor="middle" x="470.5" y="-281.072" font-family="Helvetica,sans-Serif" font-size="10.00">_via_sub_cells</text>
</a>
</g>
</g>
<!-- Node358&#45;&gt;Node379 -->
<g id="edge48" class="edge"><title>Node358&#45;&gt;Node379</title>
<path fill="none" stroke="midnightblue" d="M382.165,-289.072C390.521,-289.072 399.13,-289.072 407.537,-289.072"/>
<polygon fill="midnightblue" stroke="midnightblue" points="407.66,-292.572 417.66,-289.072 407.659,-285.572 407.66,-292.572"/>
</g>
<!-- Node381 -->
<g id="node32" class="node"><title>Node381</title>
<g id="a_node32"><a xlink:href="../../d6/d75/namespacemom__remapping.html#afe0efe65edb680f96fc5efe3d29a9217" target="_top" xlink:title="Measure totals and bounds on source grid. ">
<polygon fill="white" stroke="black" points="561.5,-328.072 561.5,-358.072 674.5,-358.072 674.5,-328.072 561.5,-328.072"/>
<text text-anchor="start" x="569.5" y="-346.072" font-family="Helvetica,sans-Serif" font-size="10.00">mom_remapping::measure</text>
<text text-anchor="middle" x="618" y="-335.072" font-family="Helvetica,sans-Serif" font-size="10.00">_input_bounds</text>
</a>
</g>
</g>
<!-- Node358&#45;&gt;Node381 -->
<g id="edge54" class="edge"><title>Node358&#45;&gt;Node381</title>
<path fill="none" stroke="midnightblue" d="M378.552,-304.075C391.448,-307.288 405.159,-310.488 418,-313.072 462.177,-321.96 512.351,-329.507 551.267,-334.808"/>
<polygon fill="midnightblue" stroke="midnightblue" points="551.04,-338.309 561.417,-336.175 551.974,-331.372 551.04,-338.309"/>
</g>
<!-- Node382 -->
<g id="node33" class="node"><title>Node382</title>
<g id="a_node33"><a xlink:href="../../d6/d75/namespacemom__remapping.html#a5453aeefe69feaff159b67f3a4bd2366" target="_top" xlink:title="Measure totals and bounds on destination grid. ">
<polygon fill="white" stroke="black" points="561.5,-202.072 561.5,-232.072 674.5,-232.072 674.5,-202.072 561.5,-202.072"/>
<text text-anchor="start" x="569.5" y="-220.072" font-family="Helvetica,sans-Serif" font-size="10.00">mom_remapping::measure</text>
<text text-anchor="middle" x="618" y="-209.072" font-family="Helvetica,sans-Serif" font-size="10.00">_output_bounds</text>
</a>
</g>
</g>
<!-- Node358&#45;&gt;Node382 -->
<g id="edge55" class="edge"><title>Node358&#45;&gt;Node382</title>
<path fill="none" stroke="midnightblue" d="M379.201,-274.03C391.943,-270.69 405.424,-267.211 418,-264.072 462.264,-253.022 512.237,-241.222 551.032,-232.209"/>
<polygon fill="midnightblue" stroke="midnightblue" points="552.202,-235.531 561.153,-229.862 550.62,-228.712 552.202,-235.531"/>
</g>
<!-- Node359&#45;&gt;Node352 -->
<g id="edge45" class="edge"><title>Node359&#45;&gt;Node352</title>
<path fill="none" stroke="midnightblue" d="M472.547,-650.059C476.231,-609.599 492.276,-497.736 559,-444.072 651.978,-369.293 726.198,-469.421 824,-401.072 865.929,-371.769 888.958,-313.774 899.261,-280.372"/>
<polygon fill="midnightblue" stroke="midnightblue" points="902.712,-281.039 902.166,-270.459 895.995,-279.07 902.712,-281.039"/>
</g>
<!-- Node360 -->
<g id="node11" class="node"><title>Node360</title>
<g id="a_node11"><a xlink:href="../../d5/d6c/namespacepcm__functions.html#a273c33619766b17e1bea2f9bbc1d5e1b" target="_top" xlink:title="pcm_functions::pcm\l_reconstruction">
<polygon fill="white" stroke="black" points="574.5,-846.072 574.5,-876.072 661.5,-876.072 661.5,-846.072 574.5,-846.072"/>
<text text-anchor="start" x="582.5" y="-864.072" font-family="Helvetica,sans-Serif" font-size="10.00">pcm_functions::pcm</text>
<text text-anchor="middle" x="618" y="-853.072" font-family="Helvetica,sans-Serif" font-size="10.00">_reconstruction</text>
</a>
</g>
</g>
<!-- Node359&#45;&gt;Node360 -->
<g id="edge15" class="edge"><title>Node359&#45;&gt;Node360</title>
<path fill="none" stroke="midnightblue" d="M475.301,-680.124C484.328,-712.982 510.048,-791.809 559,-837.072 560.96,-838.884 563.077,-840.57 565.301,-842.136"/>
<polygon fill="midnightblue" stroke="midnightblue" points="563.95,-845.41 574.316,-847.601 567.579,-839.424 563.95,-845.41"/>
</g>
<!-- Node361 -->
<g id="node12" class="node"><title>Node361</title>
<g id="a_node12"><a xlink:href="../../d5/dc0/namespaceplm__functions.html#abf6acfcb1bef51f0c1f8682de53782c4" target="_top" xlink:title="plm_functions::plm\l_reconstruction">
<polygon fill="white" stroke="black" points="576.5,-797.072 576.5,-827.072 659.5,-827.072 659.5,-797.072 576.5,-797.072"/>
<text text-anchor="start" x="584.5" y="-815.072" font-family="Helvetica,sans-Serif" font-size="10.00">plm_functions::plm</text>
<text text-anchor="middle" x="618" y="-804.072" font-family="Helvetica,sans-Serif" font-size="10.00">_reconstruction</text>
</a>
</g>
</g>
<!-- Node359&#45;&gt;Node361 -->
<g id="edge16" class="edge"><title>Node359&#45;&gt;Node361</title>
<path fill="none" stroke="midnightblue" d="M478.788,-680.409C491.645,-705.986 520.662,-757.548 559,-788.072 561.6,-790.142 564.404,-792.06 567.326,-793.832"/>
<polygon fill="midnightblue" stroke="midnightblue" points="565.901,-797.04 576.362,-798.718 569.231,-790.882 565.901,-797.04"/>
</g>
<!-- Node362 -->
<g id="node13" class="node"><title>Node362</title>
<g id="a_node13"><a xlink:href="../../d5/dc0/namespaceplm__functions.html#a66dd52e70d72fb5830f9c4fb16efb2e8" target="_top" xlink:title="plm_functions::plm\l_boundary_extrapolation">
<polygon fill="white" stroke="black" points="565.5,-748.072 565.5,-778.072 670.5,-778.072 670.5,-748.072 565.5,-748.072"/>
<text text-anchor="start" x="573.5" y="-766.072" font-family="Helvetica,sans-Serif" font-size="10.00">plm_functions::plm</text>
<text text-anchor="middle" x="618" y="-755.072" font-family="Helvetica,sans-Serif" font-size="10.00">_boundary_extrapolation</text>
</a>
</g>
</g>
<!-- Node359&#45;&gt;Node362 -->
<g id="edge17" class="edge"><title>Node359&#45;&gt;Node362</title>
<path fill="none" stroke="midnightblue" d="M486.484,-680.297C503.062,-696.501 531.136,-722.096 559,-739.072 561.487,-740.587 564.086,-742.047 566.747,-743.447"/>
<polygon fill="midnightblue" stroke="midnightblue" points="565.443,-746.705 575.962,-747.97 568.527,-740.422 565.443,-746.705"/>
</g>
<!-- Node363 -->
<g id="node14" class="node"><title>Node363</title>
<g id="a_node14"><a xlink:href="../../d1/de6/namespaceppm__functions.html#a97e2144c7499aacd90858788f1312432" target="_top" xlink:title="Builds quadratic polynomials coefficients from cell mean and edge values. ">
<polygon fill="white" stroke="black" points="573.5,-895.072 573.5,-925.072 662.5,-925.072 662.5,-895.072 573.5,-895.072"/>
<text text-anchor="start" x="581.5" y="-913.072" font-family="Helvetica,sans-Serif" font-size="10.00">ppm_functions::ppm</text>
<text text-anchor="middle" x="618" y="-902.072" font-family="Helvetica,sans-Serif" font-size="10.00">_reconstruction</text>
</a>
</g>
</g>
<!-- Node359&#45;&gt;Node363 -->
<g id="edge18" class="edge"><title>Node359&#45;&gt;Node363</title>
<path fill="none" stroke="midnightblue" d="M473.384,-680.138C479.042,-719.31 499.354,-825.503 559,-886.072 560.806,-887.906 562.773,-889.606 564.856,-891.182"/>
<polygon fill="midnightblue" stroke="midnightblue" points="563.062,-894.189 573.366,-896.657 566.85,-888.302 563.062,-894.189"/>
</g>
<!-- Node367 -->
<g id="node18" class="node"><title>Node367</title>
<g id="a_node18"><a xlink:href="../../d1/de6/namespaceppm__functions.html#aaf88d77ece3a30843c730fd2d57c517f" target="_top" xlink:title="ppm_functions::ppm\l_boundary_extrapolation">
<polygon fill="white" stroke="black" points="565.5,-699.072 565.5,-729.072 670.5,-729.072 670.5,-699.072 565.5,-699.072"/>
<text text-anchor="start" x="573.5" y="-717.072" font-family="Helvetica,sans-Serif" font-size="10.00">ppm_functions::ppm</text>
<text text-anchor="middle" x="618" y="-706.072" font-family="Helvetica,sans-Serif" font-size="10.00">_boundary_extrapolation</text>
</a>
</g>
</g>
<!-- Node359&#45;&gt;Node367 -->
<g id="edge22" class="edge"><title>Node359&#45;&gt;Node367</title>
<path fill="none" stroke="midnightblue" d="M516.342,-680.173C530.931,-685.086 547.286,-690.594 562.502,-695.718"/>
<polygon fill="midnightblue" stroke="midnightblue" points="561.712,-699.145 572.306,-699.02 563.946,-692.512 561.712,-699.145"/>
</g>
<!-- Node368 -->
<g id="node19" class="node"><title>Node368</title>
<g id="a_node19"><a xlink:href="../../df/d50/namespaceregrid__edge__values.html#a2c2460b31b6de501eed3cb7db07a4be5" target="_top" xlink:title="regrid_edge_values\l::edge_values_implicit_h4">
<polygon fill="white" stroke="black" points="564.5,-601.072 564.5,-631.072 671.5,-631.072 671.5,-601.072 564.5,-601.072"/>
<text text-anchor="start" x="572.5" y="-619.072" font-family="Helvetica,sans-Serif" font-size="10.00">regrid_edge_values</text>
<text text-anchor="middle" x="618" y="-608.072" font-family="Helvetica,sans-Serif" font-size="10.00">::edge_values_implicit_h4</text>
</a>
</g>
</g>
<!-- Node359&#45;&gt;Node368 -->
<g id="edge23" class="edge"><title>Node359&#45;&gt;Node368</title>
<path fill="none" stroke="midnightblue" d="M516.342,-649.97C530.931,-645.057 547.286,-639.549 562.502,-634.425"/>
<polygon fill="midnightblue" stroke="midnightblue" points="563.946,-637.632 572.306,-631.123 561.712,-630.998 563.946,-637.632"/>
</g>
<!-- Node372 -->
<g id="node23" class="node"><title>Node372</title>
<g id="a_node23"><a xlink:href="../../da/d9a/namespaceregrid__edge__slopes.html#a378dcb603968664e58d65e8ed892ec69" target="_top" xlink:title="regrid_edge_slopes\l::edge_slopes_implicit_h3">
<polygon fill="white" stroke="black" points="564.5,-650.072 564.5,-680.072 671.5,-680.072 671.5,-650.072 564.5,-650.072"/>
<text text-anchor="start" x="572.5" y="-668.072" font-family="Helvetica,sans-Serif" font-size="10.00">regrid_edge_slopes</text>
<text text-anchor="middle" x="618" y="-657.072" font-family="Helvetica,sans-Serif" font-size="10.00">::edge_slopes_implicit_h3</text>
</a>
</g>
</g>
<!-- Node359&#45;&gt;Node372 -->
<g id="edge28" class="edge"><title>Node359&#45;&gt;Node372</title>
<path fill="none" stroke="midnightblue" d="M519.545,-665.072C530.685,-665.072 542.702,-665.072 554.365,-665.072"/>
<polygon fill="midnightblue" stroke="midnightblue" points="554.492,-668.572 564.492,-665.072 554.492,-661.572 554.492,-668.572"/>
</g>
<!-- Node373 -->
<g id="node24" class="node"><title>Node373</title>
<g id="a_node24"><a xlink:href="../../dc/d94/namespacepqm__functions.html#ada7e1a8d9d70b5b78b5e2dfddb5ffa43" target="_top" xlink:title="pqm_functions::pqm\l_reconstruction">
<polygon fill="white" stroke="black" points="573.5,-1008.07 573.5,-1038.07 662.5,-1038.07 662.5,-1008.07 573.5,-1008.07"/>
<text text-anchor="start" x="581.5" y="-1026.07" font-family="Helvetica,sans-Serif" font-size="10.00">pqm_functions::pqm</text>
<text text-anchor="middle" x="618" y="-1015.07" font-family="Helvetica,sans-Serif" font-size="10.00">_reconstruction</text>
</a>
</g>
</g>
<!-- Node359&#45;&gt;Node373 -->
<g id="edge32" class="edge"><title>Node359&#45;&gt;Node373</title>
<path fill="none" stroke="midnightblue" d="M474.892,-680.246C484.586,-722.189 514.598,-842.697 559,-935.072 570.138,-958.243 586.522,-982.489 599.038,-999.649"/>
<polygon fill="midnightblue" stroke="midnightblue" points="596.414,-1001.99 605.182,-1007.93 602.036,-997.816 596.414,-1001.99"/>
</g>
<!-- Node375 -->
<g id="node26" class="node"><title>Node375</title>
<g id="a_node26"><a xlink:href="../../dc/d94/namespacepqm__functions.html#ae2c3bd1b82cddbe1bbb0e93e83d93e48" target="_top" xlink:title="pqm_functions::pqm\l_boundary_extrapolation_v1">
<polygon fill="white" stroke="black" points="559,-503.072 559,-533.072 677,-533.072 677,-503.072 559,-503.072"/>
<text text-anchor="start" x="567" y="-521.072" font-family="Helvetica,sans-Serif" font-size="10.00">pqm_functions::pqm</text>
<text text-anchor="middle" x="618" y="-510.072" font-family="Helvetica,sans-Serif" font-size="10.00">_boundary_extrapolation_v1</text>
</a>
</g>
</g>
<!-- Node359&#45;&gt;Node375 -->
<g id="edge36" class="edge"><title>Node359&#45;&gt;Node375</title>
<path fill="none" stroke="midnightblue" d="M478.788,-649.734C491.645,-624.157 520.662,-572.596 559,-542.072 560.599,-540.799 562.274,-539.584 564.007,-538.425"/>
<polygon fill="midnightblue" stroke="midnightblue" points="566.218,-541.184 573.054,-533.09 562.662,-535.155 566.218,-541.184"/>
</g>
<!-- Node376 -->
<g id="node27" class="node"><title>Node376</title>
<g id="a_node27"><a xlink:href="../../df/d50/namespaceregrid__edge__values.html#a6c14843c556353d86f2efb4c7c74c9f5" target="_top" xlink:title="regrid_edge_values\l::edge_values_implicit_h6">
<polygon fill="white" stroke="black" points="564.5,-552.072 564.5,-582.072 671.5,-582.072 671.5,-552.072 564.5,-552.072"/>
<text text-anchor="start" x="572.5" y="-570.072" font-family="Helvetica,sans-Serif" font-size="10.00">regrid_edge_values</text>
<text text-anchor="middle" x="618" y="-559.072" font-family="Helvetica,sans-Serif" font-size="10.00">::edge_values_implicit_h6</text>
</a>
</g>
</g>
<!-- Node359&#45;&gt;Node376 -->
<g id="edge37" class="edge"><title>Node359&#45;&gt;Node376</title>
<path fill="none" stroke="midnightblue" d="M486.484,-649.847C503.062,-633.642 531.136,-608.047 559,-591.072 561.487,-589.557 564.086,-588.097 566.747,-586.697"/>
<polygon fill="midnightblue" stroke="midnightblue" points="568.527,-589.722 575.962,-582.174 565.443,-583.438 568.527,-589.722"/>
</g>
<!-- Node377 -->
<g id="node28" class="node"><title>Node377</title>
<g id="a_node28"><a xlink:href="../../da/d9a/namespaceregrid__edge__slopes.html#a32fc906bf14cfb859703b4a1a7c46a9c" target="_top" xlink:title="regrid_edge_slopes\l::edge_slopes_implicit_h5">
<polygon fill="white" stroke="black" points="564.5,-454.072 564.5,-484.072 671.5,-484.072 671.5,-454.072 564.5,-454.072"/>
<text text-anchor="start" x="572.5" y="-472.072" font-family="Helvetica,sans-Serif" font-size="10.00">regrid_edge_slopes</text>
<text text-anchor="middle" x="618" y="-461.072" font-family="Helvetica,sans-Serif" font-size="10.00">::edge_slopes_implicit_h5</text>
</a>
</g>
</g>
<!-- Node359&#45;&gt;Node377 -->
<g id="edge41" class="edge"><title>Node359&#45;&gt;Node377</title>
<path fill="none" stroke="midnightblue" d="M475.301,-650.02C484.328,-617.161 510.048,-538.335 559,-493.072 560.265,-491.902 561.595,-490.785 562.978,-489.719"/>
<polygon fill="midnightblue" stroke="midnightblue" points="564.972,-492.596 571.375,-484.155 561.106,-486.761 564.972,-492.596"/>
</g>
<!-- Node364 -->
<g id="node15" class="node"><title>Node364</title>
<g id="a_node15"><a xlink:href="../../d1/de6/namespaceppm__functions.html#a89920c90b84f0b241c5a6d65fe2870b9" target="_top" xlink:title="Adjusts edge values using the standard PPM limiter (Colella &amp; Woodward, JCP 1984) after first checkin...">
<polygon fill="white" stroke="black" points="724,-983.072 724,-1013.07 813,-1013.07 813,-983.072 724,-983.072"/>
<text text-anchor="start" x="732" y="-1001.07" font-family="Helvetica,sans-Serif" font-size="10.00">ppm_functions::ppm</text>
<text text-anchor="middle" x="768.5" y="-990.072" font-family="Helvetica,sans-Serif" font-size="10.00">_limiter_standard</text>
</a>
</g>
</g>
<!-- Node363&#45;&gt;Node364 -->
<g id="edge19" class="edge"><title>Node363&#45;&gt;Node364</title>
<path fill="none" stroke="midnightblue" d="M644.528,-925.199C668.965,-939.681 706.009,-961.633 733.053,-977.659"/>
<polygon fill="midnightblue" stroke="midnightblue" points="731.421,-980.76 741.808,-982.847 734.989,-974.738 731.421,-980.76"/>
</g>
<!-- Node365 -->
<g id="node16" class="node"><title>Node365</title>
<g id="a_node16"><a xlink:href="../../df/d50/namespaceregrid__edge__values.html#aa204fe78ee22cae62f2b7f1bc76151a9" target="_top" xlink:title="regrid_edge_values\l::bound_edge_values">
<polygon fill="white" stroke="black" points="860.5,-980.072 860.5,-1010.07 953.5,-1010.07 953.5,-980.072 860.5,-980.072"/>
<text text-anchor="start" x="868.5" y="-998.072" font-family="Helvetica,sans-Serif" font-size="10.00">regrid_edge_values</text>
<text text-anchor="middle" x="907" y="-987.072" font-family="Helvetica,sans-Serif" font-size="10.00">::bound_edge_values</text>
</a>
</g>
</g>
<!-- Node364&#45;&gt;Node365 -->
<g id="edge20" class="edge"><title>Node364&#45;&gt;Node365</title>
<path fill="none" stroke="midnightblue" d="M813.065,-997.114C824.89,-996.854 837.858,-996.569 850.256,-996.297"/>
<polygon fill="midnightblue" stroke="midnightblue" points="850.578,-999.791 860.499,-996.072 850.424,-992.792 850.578,-999.791"/>
</g>
<!-- Node366 -->
<g id="node17" class="node"><title>Node366</title>
<g id="a_node17"><a xlink:href="../../df/d50/namespaceregrid__edge__values.html#acbdacbbf7212e538bb52a9729fc949a7" target="_top" xlink:title="regrid_edge_values\l::check_discontinuous\l_edge_values">
<polygon fill="white" stroke="black" points="860,-1028.57 860,-1069.57 954,-1069.57 954,-1028.57 860,-1028.57"/>
<text text-anchor="start" x="868" y="-1057.57" font-family="Helvetica,sans-Serif" font-size="10.00">regrid_edge_values</text>
<text text-anchor="start" x="868" y="-1046.57" font-family="Helvetica,sans-Serif" font-size="10.00">::check_discontinuous</text>
<text text-anchor="middle" x="907" y="-1035.57" font-family="Helvetica,sans-Serif" font-size="10.00">_edge_values</text>
</a>
</g>
</g>
<!-- Node364&#45;&gt;Node366 -->
<g id="edge21" class="edge"><title>Node364&#45;&gt;Node366</title>
<path fill="none" stroke="midnightblue" d="M809.716,-1013.1C822.372,-1017.83 836.585,-1023.14 850.126,-1028.2"/>
<polygon fill="midnightblue" stroke="midnightblue" points="849.242,-1031.6 859.835,-1031.82 851.692,-1025.04 849.242,-1031.6"/>
</g>
<!-- Node369 -->
<g id="node20" class="node"><title>Node369</title>
<g id="a_node20"><a xlink:href="../../de/db3/namespaceregrid__solvers.html#a8130a338b59de62b00f68da4204568ad" target="_top" xlink:title="regrid_solvers::solve\l_linear_system">
<polygon fill="white" stroke="black" points="724,-552.072 724,-582.072 813,-582.072 813,-552.072 724,-552.072"/>
<text text-anchor="start" x="732" y="-570.072" font-family="Helvetica,sans-Serif" font-size="10.00">regrid_solvers::solve</text>
<text text-anchor="middle" x="768.5" y="-559.072" font-family="Helvetica,sans-Serif" font-size="10.00">_linear_system</text>
</a>
</g>
</g>
<!-- Node368&#45;&gt;Node369 -->
<g id="edge24" class="edge"><title>Node368&#45;&gt;Node369</title>
<path fill="none" stroke="midnightblue" d="M664.767,-600.97C680.363,-595.824 697.936,-590.025 714.08,-584.699"/>
<polygon fill="midnightblue" stroke="midnightblue" points="715.517,-587.91 723.916,-581.453 713.323,-581.263 715.517,-587.91"/>
</g>
<!-- Node370 -->
<g id="node21" class="node"><title>Node370</title>
<g id="a_node21"><a xlink:href="../../d8/d08/namespacepolynomial__functions.html#aed77465c5ca9937dab06fdb5f94eba39" target="_top" xlink:title="polynomial_functions\l::evaluation_polynomial">
<polygon fill="white" stroke="black" points="719,-601.072 719,-631.072 818,-631.072 818,-601.072 719,-601.072"/>
<text text-anchor="start" x="727" y="-619.072" font-family="Helvetica,sans-Serif" font-size="10.00">polynomial_functions</text>
<text text-anchor="middle" x="768.5" y="-608.072" font-family="Helvetica,sans-Serif" font-size="10.00">::evaluation_polynomial</text>
</a>
</g>
</g>
<!-- Node368&#45;&gt;Node370 -->
<g id="edge26" class="edge"><title>Node368&#45;&gt;Node370</title>
<path fill="none" stroke="midnightblue" d="M671.774,-616.072C683.757,-616.072 696.558,-616.072 708.772,-616.072"/>
<polygon fill="midnightblue" stroke="midnightblue" points="708.863,-619.572 718.863,-616.072 708.863,-612.572 708.863,-619.572"/>
</g>
<!-- Node371 -->
<g id="node22" class="node"><title>Node371</title>
<g id="a_node22"><a xlink:href="../../de/db3/namespaceregrid__solvers.html#a0d5c3cff8f31429b0a2c6d267e8b345d" target="_top" xlink:title="regrid_solvers::solve\l_tridiagonal_system">
<polygon fill="white" stroke="black" points="724,-503.072 724,-533.072 813,-533.072 813,-503.072 724,-503.072"/>
<text text-anchor="start" x="732" y="-521.072" font-family="Helvetica,sans-Serif" font-size="10.00">regrid_solvers::solve</text>
<text text-anchor="middle" x="768.5" y="-510.072" font-family="Helvetica,sans-Serif" font-size="10.00">_tridiagonal_system</text>
</a>
</g>
</g>
<!-- Node368&#45;&gt;Node371 -->
<g id="edge27" class="edge"><title>Node368&#45;&gt;Node371</title>
<path fill="none" stroke="midnightblue" d="M661.391,-600.982C666.912,-598.122 672.281,-594.827 677,-591.072 698.147,-574.247 691.919,-558.98 713,-542.072 714.573,-540.81 716.222,-539.602 717.927,-538.446"/>
<polygon fill="midnightblue" stroke="midnightblue" points="720.057,-541.249 726.822,-533.095 716.448,-535.251 720.057,-541.249"/>
</g>
<!-- Node369&#45;&gt;Node352 -->
<g id="edge25" class="edge"><title>Node369&#45;&gt;Node352</title>
<path fill="none" stroke="midnightblue" d="M812.256,-552.06C816.629,-549.246 820.677,-545.942 824,-542.072 890.956,-464.096 903.383,-334.675 905.584,-280.328"/>
<polygon fill="midnightblue" stroke="midnightblue" points="909.087,-280.312 905.908,-270.206 902.09,-280.089 909.087,-280.312"/>
</g>
<!-- Node372&#45;&gt;Node369 -->
<g id="edge29" class="edge"><title>Node372&#45;&gt;Node369</title>
<path fill="none" stroke="midnightblue" d="M661.391,-649.982C666.912,-647.122 672.281,-643.827 677,-640.072 698.147,-623.247 691.919,-607.98 713,-591.072 714.573,-589.81 716.222,-588.602 717.927,-587.446"/>
<polygon fill="midnightblue" stroke="midnightblue" points="720.057,-590.249 726.822,-582.095 716.448,-584.251 720.057,-590.249"/>
</g>
<!-- Node372&#45;&gt;Node370 -->
<g id="edge30" class="edge"><title>Node372&#45;&gt;Node370</title>
<path fill="none" stroke="midnightblue" d="M664.767,-649.97C679.799,-645.01 696.667,-639.444 712.321,-634.279"/>
<polygon fill="midnightblue" stroke="midnightblue" points="713.485,-637.581 721.885,-631.123 711.291,-630.933 713.485,-637.581"/>
</g>
<!-- Node372&#45;&gt;Node371 -->
<g id="edge31" class="edge"><title>Node372&#45;&gt;Node371</title>
<path fill="none" stroke="midnightblue" d="M664.482,-649.949C669.082,-647.162 673.382,-643.894 677,-640.072 708.897,-606.372 681.235,-575.896 713,-542.072 713.896,-541.118 714.836,-540.2 715.815,-539.316"/>
<polygon fill="midnightblue" stroke="midnightblue" points="718.063,-542.004 723.951,-533.196 713.855,-536.41 718.063,-542.004"/>
</g>
<!-- Node374 -->
<g id="node25" class="node"><title>Node374</title>
<g id="a_node25"><a xlink:href="../../dc/d94/namespacepqm__functions.html#a0ce0d64922453de1312adec7b8746544" target="_top" xlink:title="pqm_functions::pqm\l_limiter">
<polygon fill="white" stroke="black" points="724,-1032.07 724,-1062.07 813,-1062.07 813,-1032.07 724,-1032.07"/>
<text text-anchor="start" x="732" y="-1050.07" font-family="Helvetica,sans-Serif" font-size="10.00">pqm_functions::pqm</text>
<text text-anchor="middle" x="768.5" y="-1039.07" font-family="Helvetica,sans-Serif" font-size="10.00">_limiter</text>
</a>
</g>
</g>
<!-- Node373&#45;&gt;Node374 -->
<g id="edge33" class="edge"><title>Node373&#45;&gt;Node374</title>
<path fill="none" stroke="midnightblue" d="M662.752,-1030.14C678.693,-1032.72 696.904,-1035.66 713.622,-1038.36"/>
<polygon fill="midnightblue" stroke="midnightblue" points="713.374,-1041.87 723.805,-1040.01 714.491,-1034.96 713.374,-1041.87"/>
</g>
<!-- Node374&#45;&gt;Node365 -->
<g id="edge34" class="edge"><title>Node374&#45;&gt;Node365</title>
<path fill="none" stroke="midnightblue" d="M808.981,-1032.03C823.979,-1026.32 841.244,-1019.74 857.015,-1013.73"/>
<polygon fill="midnightblue" stroke="midnightblue" points="858.508,-1016.91 866.607,-1010.08 856.016,-1010.37 858.508,-1016.91"/>
</g>
<!-- Node374&#45;&gt;Node366 -->
<g id="edge35" class="edge"><title>Node374&#45;&gt;Node366</title>
<path fill="none" stroke="midnightblue" d="M813.065,-1047.71C824.646,-1047.88 837.324,-1048.07 849.488,-1048.24"/>
<polygon fill="midnightblue" stroke="midnightblue" points="849.5,-1051.74 859.551,-1048.39 849.603,-1044.74 849.5,-1051.74"/>
</g>
<!-- Node376&#45;&gt;Node369 -->
<g id="edge38" class="edge"><title>Node376&#45;&gt;Node369</title>
<path fill="none" stroke="midnightblue" d="M671.774,-567.072C685.326,-567.072 699.922,-567.072 713.534,-567.072"/>
<polygon fill="midnightblue" stroke="midnightblue" points="713.717,-570.572 723.717,-567.072 713.717,-563.572 713.717,-570.572"/>
</g>
<!-- Node376&#45;&gt;Node370 -->
<g id="edge39" class="edge"><title>Node376&#45;&gt;Node370</title>
<path fill="none" stroke="midnightblue" d="M664.767,-582.173C679.799,-587.133 696.667,-592.699 712.321,-597.865"/>
<polygon fill="midnightblue" stroke="midnightblue" points="711.291,-601.21 721.885,-601.02 713.485,-594.563 711.291,-601.21"/>
</g>
<!-- Node376&#45;&gt;Node371 -->
<g id="edge40" class="edge"><title>Node376&#45;&gt;Node371</title>
<path fill="none" stroke="midnightblue" d="M664.767,-551.97C680.363,-546.824 697.936,-541.025 714.08,-535.699"/>
<polygon fill="midnightblue" stroke="midnightblue" points="715.517,-538.91 723.916,-532.453 713.323,-532.263 715.517,-538.91"/>
</g>
<!-- Node377&#45;&gt;Node369 -->
<g id="edge42" class="edge"><title>Node377&#45;&gt;Node369</title>
<path fill="none" stroke="midnightblue" d="M662.896,-484.154C667.886,-486.747 672.711,-489.711 677,-493.072 698.269,-509.742 692.049,-525.004 713,-542.072 715.013,-543.711 717.15,-545.269 719.37,-546.744"/>
<polygon fill="midnightblue" stroke="midnightblue" points="717.86,-549.919 728.242,-552.032 721.443,-543.906 717.86,-549.919"/>
</g>
<!-- Node377&#45;&gt;Node370 -->
<g id="edge43" class="edge"><title>Node377&#45;&gt;Node370</title>
<path fill="none" stroke="midnightblue" d="M665.615,-484.074C669.785,-486.635 673.678,-489.614 677,-493.072 709.143,-526.537 681.494,-557.006 713,-591.072 714.215,-592.385 715.512,-593.635 716.876,-594.824"/>
<polygon fill="midnightblue" stroke="midnightblue" points="715.153,-597.901 725.29,-600.983 719.288,-592.252 715.153,-597.901"/>
</g>
<!-- Node377&#45;&gt;Node371 -->
<g id="edge44" class="edge"><title>Node377&#45;&gt;Node371</title>
<path fill="none" stroke="midnightblue" d="M664.767,-484.173C680.363,-489.32 697.936,-495.118 714.08,-500.445"/>
<polygon fill="midnightblue" stroke="midnightblue" points="713.323,-503.881 723.916,-503.691 715.517,-497.233 713.323,-503.881"/>
</g>
<!-- Node378&#45;&gt;Node352 -->
<g id="edge47" class="edge"><title>Node378&#45;&gt;Node352</title>
<path fill="none" stroke="midnightblue" d="M521.617,-180.972C563.405,-181.554 624.389,-183.947 677,-192.072 743.69,-202.371 759.044,-211.783 824,-230.072 832.535,-232.475 841.539,-235.113 850.331,-237.748"/>
<polygon fill="midnightblue" stroke="midnightblue" points="849.546,-241.167 860.131,-240.707 851.57,-234.466 849.546,-241.167"/>
</g>
<!-- Node379&#45;&gt;Node352 -->
<g id="edge51" class="edge"><title>Node379&#45;&gt;Node352</title>
<path fill="none" stroke="midnightblue" d="M523.285,-291.916C592.373,-294.731 718.277,-296.433 824,-279.072 833.137,-277.571 842.693,-275.376 851.922,-272.913"/>
<polygon fill="midnightblue" stroke="midnightblue" points="853.084,-276.222 861.771,-270.156 851.198,-269.481 853.084,-276.222"/>
</g>
<!-- Node380 -->
<g id="node31" class="node"><title>Node380</title>
<g id="a_node31"><a xlink:href="../../d6/d75/namespacemom__remapping.html#ac97371127053406c84be732a19eb6f9d" target="_top" xlink:title="Returns the average value of a reconstruction within a single source cell, i0, between the non&#45;dimens...">
<polygon fill="white" stroke="black" points="713,-240.072 713,-270.072 824,-270.072 824,-240.072 713,-240.072"/>
<text text-anchor="start" x="721" y="-258.072" font-family="Helvetica,sans-Serif" font-size="10.00">mom_remapping::average</text>
<text text-anchor="middle" x="768.5" y="-247.072" font-family="Helvetica,sans-Serif" font-size="10.00">_value_ppoly</text>
</a>
</g>
</g>
<!-- Node379&#45;&gt;Node380 -->
<g id="edge49" class="edge"><title>Node379&#45;&gt;Node380</title>
<path fill="none" stroke="midnightblue" d="M523.059,-283.149C572.932,-277.421 648.682,-268.72 702.627,-262.523"/>
<polygon fill="midnightblue" stroke="midnightblue" points="703.237,-265.976 712.772,-261.358 702.438,-259.022 703.237,-265.976"/>
</g>
<!-- Node379&#45;&gt;Node381 -->
<g id="edge52" class="edge"><title>Node379&#45;&gt;Node381</title>
<path fill="none" stroke="midnightblue" d="M512.03,-304.114C528.986,-310.407 548.87,-317.786 566.743,-324.42"/>
<polygon fill="midnightblue" stroke="midnightblue" points="565.842,-327.819 576.435,-328.017 568.278,-321.256 565.842,-327.819"/>
</g>
<!-- Node379&#45;&gt;Node382 -->
<g id="edge53" class="edge"><title>Node379&#45;&gt;Node382</title>
<path fill="none" stroke="midnightblue" d="M502.002,-273.978C523.924,-263.13 553.679,-248.406 577.43,-236.653"/>
<polygon fill="midnightblue" stroke="midnightblue" points="579.128,-239.718 586.539,-232.145 576.024,-233.444 579.128,-239.718"/>
</g>
<!-- Node380&#45;&gt;Node352 -->
<g id="edge50" class="edge"><title>Node380&#45;&gt;Node352</title>
<path fill="none" stroke="midnightblue" d="M824.233,-255.072C832.776,-255.072 841.612,-255.072 850.179,-255.072"/>
<polygon fill="midnightblue" stroke="midnightblue" points="850.456,-258.572 860.456,-255.072 850.456,-251.572 850.456,-258.572"/>
</g>
</g>
</svg>
        <g id="navigator" transform="translate(0 0)" fill="#404254">
                <rect fill="#f2f5e9" fill-opacity="0.5" stroke="#606060" stroke-width=".5" x="0" y="0" width="60" height="60"/>
                <use id="zoomplus" xlink:href="#zoomPlus" x="17" y="9" onmousedown="handleZoom(evt,'in')"/>
                <use id="zoomminus" xlink:href="#zoomMin" x="42" y="9" onmousedown="handleZoom(evt,'out')"/>
                <use id="reset" xlink:href="#resetDef" x="30" y="36" onmousedown="handleReset()"/>
                <g id="arrowUp" xlink:href="#dirArrow" transform="translate(30 24)" onmousedown="handlePan(0,-1)">
                  <use xlink:href="#rim" fill="#404040">
                        <set attributeName="fill" to="#808080" begin="arrowUp.mouseover" end="arrowUp.mouseout"/>
                  </use>
                  <path fill="none" stroke="white" stroke-width="1.5" d="M0,-3.0v7 M-2.5,-0.5L0,-3.0L2.5,-0.5"/>
                </g>
                <g id="arrowRight" xlink:href="#dirArrow" transform="rotate(90) translate(36 -43)" onmousedown="handlePan(1,0)">
                  <use xlink:href="#rim" fill="#404040">
                        <set attributeName="fill" to="#808080" begin="arrowRight.mouseover" end="arrowRight.mouseout"/>
                  </use>
                  <path fill="none" stroke="white" stroke-width="1.5" d="M0,-3.0v7 M-2.5,-0.5L0,-3.0L2.5,-0.5"/>
                </g>
                <g id="arrowDown" xlink:href="#dirArrow" transform="rotate(180) translate(-30 -48)" onmousedown="handlePan(0,1)">
                  <use xlink:href="#rim" fill="#404040">
                        <set attributeName="fill" to="#808080" begin="arrowDown.mouseover" end="arrowDown.mouseout"/>
                  </use>
                  <path fill="none" stroke="white" stroke-width="1.5" d="M0,-3.0v7 M-2.5,-0.5L0,-3.0L2.5,-0.5"/>
                </g>
                <g id="arrowLeft" xlink:href="#dirArrow" transform="rotate(270) translate(-36 17)" onmousedown="handlePan(-1,0)">
                  <use xlink:href="#rim" fill="#404040">
                        <set attributeName="fill" to="#808080" begin="arrowLeft.mouseover" end="arrowLeft.mouseout"/>
                  </use>
                  <path fill="none" stroke="white" stroke-width="1.5" d="M0,-3.0v7 M-2.5,-0.5L0,-3.0L2.5,-0.5"/>
                </g>
        </g>
        <svg viewBox="0 0 15 15" width="100%" height="30px" preserveAspectRatio="xMaxYMin meet">
         <g id="arrow_out" transform="scale(0.3 0.3)">
          <a xlink:href="namespacemom__diag__mediator_adb1030a0216c52dd0d25bd67a5b31868_cgraph_org.svg" target="_base">
           <rect id="button" ry="5" rx="5" y="6" x="6" height="38" width="38"
                fill="#f2f5e9" fill-opacity="0.5" stroke="#606060" stroke-width="1.0"/>
           <path id="arrow"
             d="M 11.500037,31.436501 C 11.940474,20.09759 22.043105,11.32322 32.158766,21.979434 L 37.068811,17.246167 C 37.068811,17.246167 37.088388,32 37.088388,32 L 22.160133,31.978069 C 22.160133,31.978069 26.997745,27.140456 26.997745,27.140456 C 18.528582,18.264221 13.291696,25.230495 11.500037,31.436501 z"
             style="fill:#404040;"/>
          </a>
         </g>
        </svg>
</svg>
