<?xml version="1.0" encoding="UTF-8" standalone="no"?>
<!DOCTYPE svg PUBLIC "-//W3C//DTD SVG 1.1//EN"
 "http://www.w3.org/Graphics/SVG/1.1/DTD/svg11.dtd">
<!-- Generated by graphviz version 2.38.0 (20140413.2041)
 -->
<!-- Title: mom_diag_mediator::initialize_diag_type Pages: 1 -->
<!--zoomable 406 -->
<svg id="main" version="1.1" xmlns="http://www.w3.org/2000/svg" xmlns:xlink="http://www.w3.org/1999/xlink" xml:space="preserve" onload="init(evt)">
<style type="text/css"><![CDATA[
.edge:hover path { stroke: red; }
.edge:hover polygon { stroke: red; fill: red; }
]]></style>
<script type="text/javascript"><![CDATA[
var edges = document.getElementsByTagName('g');
if (edges && edges.length) {
  for (var i=0;i<edges.length;i++) {
    if (edges[i].id.substr(0,4)=='edge') {
      edges[i].setAttribute('class','edge');
    }
  }
}
]]></script>
        <defs>
                <circle id="rim" cx="0" cy="0" r="7"/>
                <circle id="rim2" cx="0" cy="0" r="3.5"/>
                <g id="zoomPlus">
                        <use xlink:href="#rim" fill="#404040">
                                <set attributeName="fill" to="#808080" begin="zoomplus.mouseover" end="zoomplus.mouseout"/>
                        </use>
                        <path d="M-4,0h8M0,-4v8" fill="none" stroke="white" stroke-width="1.5" pointer-events="none"/>
                </g>
                <g id="zoomMin">
                        <use xlink:href="#rim" fill="#404040">
                                <set attributeName="fill" to="#808080" begin="zoomminus.mouseover" end="zoomminus.mouseout"/>
                        </use>
                        <path d="M-4,0h8" fill="none" stroke="white" stroke-width="1.5" pointer-events="none"/>
                </g>
                <g id="dirArrow">
                        <path fill="none" stroke="white" stroke-width="1.5" d="M0,-3.0v7 M-2.5,-0.5L0,-3.0L2.5,-0.5"/>
                </g>
               <g id="resetDef">
                       <use xlink:href="#rim2" fill="#404040">
                               <set attributeName="fill" to="#808080" begin="reset.mouseover" end="reset.mouseout"/>
                       </use>
               </g>
        </defs>

<script type="text/javascript">
var viewWidth = 764;
var viewHeight = 406;
var sectionId = 'dynsection-24';
</script>
<script xlink:href="../../svgpan.js"/>
<svg id="graph" class="graph">
<g id="viewport">
<title>mom_diag_mediator::initialize_diag_type</title>
<polygon fill="white" stroke="none" points="-4,4 -4,-402 760,-402 760,4 -4,4"/>
<!-- Node187 -->
<g id="node1" class="node"><title>Node187</title>
<polygon fill="#bfbfbf" stroke="black" points="0,-135.5 0,-165.5 110,-165.5 110,-135.5 0,-135.5"/>
<text text-anchor="start" x="8" y="-153.5" font-family="Helvetica,sans-Serif" font-size="10.00">mom_diag_mediator::</text>
<text text-anchor="middle" x="55" y="-142.5" font-family="Helvetica,sans-Serif" font-size="10.00">initialize_diag_type</text>
</g>
<!-- Node188 -->
<g id="node2" class="node"><title>Node188</title>
<g id="a_node2"><a xlink:href="../../d9/d06/namespacemom__diag__mediator.html#a03785b401557ffdf08cd45b735e4486f" target="_top" xlink:title="diag_mediator_init initializes the MOM diag_mediator and opens the available diagnostics file...">
<polygon fill="white" stroke="black" points="146,-160.5 146,-190.5 256,-190.5 256,-160.5 146,-160.5"/>
<text text-anchor="start" x="154" y="-178.5" font-family="Helvetica,sans-Serif" font-size="10.00">mom_diag_mediator::</text>
<text text-anchor="middle" x="201" y="-167.5" font-family="Helvetica,sans-Serif" font-size="10.00">diag_mediator_init</text>
</a>
</g>
</g>
<!-- Node187&#45;&gt;Node188 -->
<g id="edge1" class="edge"><title>Node187&#45;&gt;Node188</title>
<path fill="none" stroke="midnightblue" d="M119.991,-161.609C128.561,-163.097 137.284,-164.612 145.667,-166.067"/>
<polygon fill="midnightblue" stroke="midnightblue" points="120.481,-158.142 110.03,-159.88 119.284,-165.039 120.481,-158.142"/>
</g>
<!-- Node189 -->
<g id="node3" class="node"><title>Node189</title>
<g id="a_node3"><a xlink:href="../../d9/d06/namespacemom__diag__mediator.html#a3f7442639213320f7429e2288a79fda2" target="_top" xlink:title="Returns a new diagnostic id, it may be necessary to expand the diagnostics array. ...">
<polygon fill="white" stroke="black" points="146,-111.5 146,-141.5 256,-141.5 256,-111.5 146,-111.5"/>
<text text-anchor="start" x="154" y="-129.5" font-family="Helvetica,sans-Serif" font-size="10.00">mom_diag_mediator::</text>
<text text-anchor="middle" x="201" y="-118.5" font-family="Helvetica,sans-Serif" font-size="10.00">get_new_diag_id</text>
</a>
</g>
</g>
<!-- Node187&#45;&gt;Node189 -->
<g id="edge2" class="edge"><title>Node187&#45;&gt;Node189</title>
<path fill="none" stroke="midnightblue" d="M119.991,-139.835C128.561,-138.407 137.284,-136.953 145.667,-135.555"/>
<polygon fill="midnightblue" stroke="midnightblue" points="119.318,-136.399 110.03,-141.495 120.469,-143.303 119.318,-136.399"/>
</g>
<!-- Node190 -->
<g id="node4" class="node"><title>Node190</title>
<g id="a_node4"><a xlink:href="../../d9/d06/namespacemom__diag__mediator.html#aab2007573b14ed73053282770d1b19a4" target="_top" xlink:title="mom_diag_mediator::\lregister_diag_field">
<polygon fill="white" stroke="black" points="292,-181.5 292,-211.5 402,-211.5 402,-181.5 292,-181.5"/>
<text text-anchor="start" x="300" y="-199.5" font-family="Helvetica,sans-Serif" font-size="10.00">mom_diag_mediator::</text>
<text text-anchor="middle" x="347" y="-188.5" font-family="Helvetica,sans-Serif" font-size="10.00">register_diag_field</text>
</a>
</g>
</g>
<!-- Node189&#45;&gt;Node190 -->
<g id="edge3" class="edge"><title>Node189&#45;&gt;Node190</title>
<path fill="none" stroke="midnightblue" d="M244.194,-145.886C248.192,-147.767 252.178,-149.66 256,-151.5 276.305,-161.274 299,-172.624 316.519,-181.48"/>
<polygon fill="midnightblue" stroke="midnightblue" points="245.455,-142.612 234.914,-141.546 242.49,-148.953 245.455,-142.612"/>
</g>
<!-- Node200 -->
<g id="node14" class="node"><title>Node200</title>
<g id="a_node14"><a xlink:href="../../d9/d06/namespacemom__diag__mediator.html#a60caf99cd0670e8ae1d7d0c1230b72a5" target="_top" xlink:title="mom_diag_mediator::\lregister_scalar_field">
<polygon fill="white" stroke="black" points="292,-111.5 292,-141.5 402,-141.5 402,-111.5 292,-111.5"/>
<text text-anchor="start" x="300" y="-129.5" font-family="Helvetica,sans-Serif" font-size="10.00">mom_diag_mediator::</text>
<text text-anchor="middle" x="347" y="-118.5" font-family="Helvetica,sans-Serif" font-size="10.00">register_scalar_field</text>
</a>
</g>
</g>
<!-- Node189&#45;&gt;Node200 -->
<g id="edge13" class="edge"><title>Node189&#45;&gt;Node200</title>
<path fill="none" stroke="midnightblue" d="M266.27,-126.5C274.75,-126.5 283.375,-126.5 291.667,-126.5"/>
<polygon fill="midnightblue" stroke="midnightblue" points="266.03,-123 256.03,-126.5 266.03,-130 266.03,-123"/>
</g>
<!-- Node201 -->
<g id="node15" class="node"><title>Node201</title>
<g id="a_node15"><a xlink:href="../../d9/d06/namespacemom__diag__mediator.html#abe591ed2565e9f026c5be055bc2fc0b7" target="_top" xlink:title="Registers a static diagnostic, returning an integer handle. ">
<polygon fill="white" stroke="black" points="292,-21.5 292,-51.5 402,-51.5 402,-21.5 292,-21.5"/>
<text text-anchor="start" x="300" y="-39.5" font-family="Helvetica,sans-Serif" font-size="10.00">mom_diag_mediator::</text>
<text text-anchor="middle" x="347" y="-28.5" font-family="Helvetica,sans-Serif" font-size="10.00">register_static_field</text>
</a>
</g>
</g>
<!-- Node189&#45;&gt;Node201 -->
<g id="edge14" class="edge"><title>Node189&#45;&gt;Node201</title>
<path fill="none" stroke="midnightblue" d="M234.661,-106.087C261.157,-89.5268 297.909,-66.5569 321.819,-51.6131"/>
<polygon fill="midnightblue" stroke="midnightblue" points="232.727,-103.168 226.102,-111.436 236.437,-109.104 232.727,-103.168"/>
</g>
<!-- Node191 -->
<g id="node5" class="node"><title>Node191</title>
<g id="a_node5"><a xlink:href="../../d7/d73/namespacemom__ale.html#a994efb3c62fc5f63da2617f29cbd6be1" target="_top" xlink:title="Initialize diagnostics for the ALE module. ">
<polygon fill="white" stroke="black" points="463.5,-367.5 463.5,-397.5 576.5,-397.5 576.5,-367.5 463.5,-367.5"/>
<text text-anchor="start" x="471.5" y="-385.5" font-family="Helvetica,sans-Serif" font-size="10.00">mom_ale::ale_register</text>
<text text-anchor="middle" x="520" y="-374.5" font-family="Helvetica,sans-Serif" font-size="10.00">_diags</text>
</a>
</g>
</g>
<!-- Node190&#45;&gt;Node191 -->
<g id="edge4" class="edge"><title>Node190&#45;&gt;Node191</title>
<path fill="none" stroke="midnightblue" d="M355.375,-221.471C367.103,-256.882 393.363,-321.388 438,-357.5 445.437,-363.517 454.319,-368.09 463.434,-371.564"/>
<polygon fill="midnightblue" stroke="midnightblue" points="358.693,-220.357 352.323,-211.891 352.023,-222.481 358.693,-220.357"/>
</g>
<!-- Node192 -->
<g id="node6" class="node"><title>Node192</title>
<g id="a_node6"><a xlink:href="../../d8/dd2/namespacemom__coriolisadv.html#ad3ce07f23ce7b484a5a9e0c0abe8b1cd" target="_top" xlink:title="Initializes the control structure for coriolisadv_cs. ">
<polygon fill="white" stroke="black" points="439.5,-329 439.5,-348 600.5,-348 600.5,-329 439.5,-329"/>
<text text-anchor="middle" x="520" y="-336" font-family="Helvetica,sans-Serif" font-size="10.00">mom_coriolisadv::coriolisadv_init</text>
</a>
</g>
</g>
<!-- Node190&#45;&gt;Node192 -->
<g id="edge5" class="edge"><title>Node190&#45;&gt;Node192</title>
<path fill="none" stroke="midnightblue" d="M359.182,-220.876C373.412,-249.083 400.698,-294.806 438,-319.5 443.902,-323.407 450.512,-326.514 457.343,-328.985"/>
<polygon fill="midnightblue" stroke="midnightblue" points="362.231,-219.143 354.698,-211.693 355.941,-222.214 362.231,-219.143"/>
</g>
<!-- Node193 -->
<g id="node7" class="node"><title>Node193</title>
<g id="a_node7"><a xlink:href="../../d9/d06/namespacemom__diag__mediator.html#a21267e25d12fa3e5d2540d2a299d2d2c" target="_top" xlink:title="Registers a diagnostic using the information encapsulated in the vardesc type argument and returns an...">
<polygon fill="white" stroke="black" points="465,-279.5 465,-309.5 575,-309.5 575,-279.5 465,-279.5"/>
<text text-anchor="start" x="473" y="-297.5" font-family="Helvetica,sans-Serif" font-size="10.00">mom_diag_mediator::</text>
<text text-anchor="middle" x="520" y="-286.5" font-family="Helvetica,sans-Serif" font-size="10.00">ocean_register_diag</text>
</a>
</g>
</g>
<!-- Node190&#45;&gt;Node193 -->
<g id="edge6" class="edge"><title>Node190&#45;&gt;Node193</title>
<path fill="none" stroke="midnightblue" d="M369.85,-218.771C387.028,-235.148 412.281,-256.844 438,-270.5 446.291,-274.902 455.498,-278.603 464.647,-281.678"/>
<polygon fill="midnightblue" stroke="midnightblue" points="372.16,-216.135 362.553,-211.669 367.278,-221.152 372.16,-216.135"/>
</g>
<!-- Node195 -->
<g id="node9" class="node"><title>Node195</title>
<g id="a_node9"><a xlink:href="../../d7/daa/namespacemom__diapyc__energy__req.html#aa0ce122f4dc6d9a6ec9e17996484bb76" target="_top" xlink:title="mom_diapyc_energy_req\l::diapyc_energy_req_init">
<polygon fill="white" stroke="black" points="457.5,-230.5 457.5,-260.5 582.5,-260.5 582.5,-230.5 457.5,-230.5"/>
<text text-anchor="start" x="465.5" y="-248.5" font-family="Helvetica,sans-Serif" font-size="10.00">mom_diapyc_energy_req</text>
<text text-anchor="middle" x="520" y="-237.5" font-family="Helvetica,sans-Serif" font-size="10.00">::diapyc_energy_req_init</text>
</a>
</g>
</g>
<!-- Node190&#45;&gt;Node195 -->
<g id="edge8" class="edge"><title>Node190&#45;&gt;Node195</title>
<path fill="none" stroke="midnightblue" d="M410.447,-214.394C428.839,-219.664 448.77,-225.376 466.473,-230.448"/>
<polygon fill="midnightblue" stroke="midnightblue" points="411.278,-210.992 400.701,-211.601 409.35,-217.721 411.278,-210.992"/>
</g>
<!-- Node196 -->
<g id="node10" class="node"><title>Node196</title>
<g id="a_node10"><a xlink:href="../../d6/d07/namespacemom__diffconvection.html#ac36d9d7fd69e4422e7de01242094ff34" target="_top" xlink:title="mom_diffconvection\l::diffconvection_init">
<polygon fill="white" stroke="black" points="468,-181.5 468,-211.5 572,-211.5 572,-181.5 468,-181.5"/>
<text text-anchor="start" x="476" y="-199.5" font-family="Helvetica,sans-Serif" font-size="10.00">mom_diffconvection</text>
<text text-anchor="middle" x="520" y="-188.5" font-family="Helvetica,sans-Serif" font-size="10.00">::diffconvection_init</text>
</a>
</g>
</g>
<!-- Node190&#45;&gt;Node196 -->
<g id="edge9" class="edge"><title>Node190&#45;&gt;Node196</title>
<path fill="none" stroke="midnightblue" d="M412.159,-196.5C430.558,-196.5 450.366,-196.5 467.868,-196.5"/>
<polygon fill="midnightblue" stroke="midnightblue" points="412.106,-193 402.105,-196.5 412.105,-200 412.106,-193"/>
</g>
<!-- Node197 -->
<g id="node11" class="node"><title>Node197</title>
<g id="a_node11"><a xlink:href="../../d0/d77/namespacemom__int__tide__input.html#a29a707637da633ccee155b53557b5f17" target="_top" xlink:title="mom_int_tide_input\l::int_tide_input_init">
<polygon fill="white" stroke="black" points="469.5,-132.5 469.5,-162.5 570.5,-162.5 570.5,-132.5 469.5,-132.5"/>
<text text-anchor="start" x="477.5" y="-150.5" font-family="Helvetica,sans-Serif" font-size="10.00">mom_int_tide_input</text>
<text text-anchor="middle" x="520" y="-139.5" font-family="Helvetica,sans-Serif" font-size="10.00">::int_tide_input_init</text>
</a>
</g>
</g>
<!-- Node190&#45;&gt;Node197 -->
<g id="edge10" class="edge"><title>Node190&#45;&gt;Node197</title>
<path fill="none" stroke="midnightblue" d="M410.38,-178.625C429.809,-173.058 450.961,-166.997 469.393,-161.715"/>
<polygon fill="midnightblue" stroke="midnightblue" points="409.35,-175.279 400.701,-181.399 411.278,-182.008 409.35,-175.279"/>
</g>
<!-- Node198 -->
<g id="node12" class="node"><title>Node198</title>
<g id="a_node12"><a xlink:href="../../d5/d08/namespacemom__kpp.html#a9c834424b6e067e280928db3700ec77e" target="_top" xlink:title="Initialize the CVmix KPP module and set up diagnostics Returns True if KPP is to be used...">
<polygon fill="white" stroke="black" points="470.5,-94 470.5,-113 569.5,-113 569.5,-94 470.5,-94"/>
<text text-anchor="middle" x="520" y="-101" font-family="Helvetica,sans-Serif" font-size="10.00">mom_kpp::kpp_init</text>
</a>
</g>
</g>
<!-- Node190&#45;&gt;Node198 -->
<g id="edge11" class="edge"><title>Node190&#45;&gt;Node198</title>
<path fill="none" stroke="midnightblue" d="M374.242,-174.749C399.489,-153.896 434.363,-125.31 438,-123.5 447.985,-118.531 459.292,-114.741 470.221,-111.872"/>
<polygon fill="midnightblue" stroke="midnightblue" points="371.911,-172.135 366.435,-181.204 376.372,-177.529 371.911,-172.135"/>
</g>
<!-- Node199 -->
<g id="node13" class="node"><title>Node199</title>
<g id="a_node13"><a xlink:href="../../d8/da4/namespacemom__neutral__diffusion.html#a87cf821c52ac1111493d4168f0a91d17" target="_top" xlink:title="Diagnostic handles for neutral diffusion tendencies. ">
<polygon fill="white" stroke="black" points="452.5,-44.5 452.5,-74.5 587.5,-74.5 587.5,-44.5 452.5,-44.5"/>
<text text-anchor="start" x="460.5" y="-62.5" font-family="Helvetica,sans-Serif" font-size="10.00">mom_neutral_diffusion</text>
<text text-anchor="middle" x="520" y="-51.5" font-family="Helvetica,sans-Serif" font-size="10.00">::neutral_diffusion_diag_init</text>
</a>
</g>
</g>
<!-- Node190&#45;&gt;Node199 -->
<g id="edge12" class="edge"><title>Node190&#45;&gt;Node199</title>
<path fill="none" stroke="midnightblue" d="M377.647,-175.223C386.137,-168.265 394.983,-160.097 402,-151.5 423.375,-125.312 411.898,-105.98 438,-84.5 442.659,-80.6659 447.904,-77.4186 453.426,-74.6686"/>
<polygon fill="midnightblue" stroke="midnightblue" points="375.373,-172.559 369.688,-181.499 379.708,-178.056 375.373,-172.559"/>
</g>
<!-- Node194 -->
<g id="node8" class="node"><title>Node194</title>
<g id="a_node8"><a xlink:href="../../d0/dbf/namespacemom__diag__to__z.html#a90526b2f59f94c6af2f525a221029772" target="_top" xlink:title="mom_diag_to_z::ocean\l_register_diag_with_z">
<polygon fill="white" stroke="black" points="638,-279.5 638,-309.5 756,-309.5 756,-279.5 638,-279.5"/>
<text text-anchor="start" x="646" y="-297.5" font-family="Helvetica,sans-Serif" font-size="10.00">mom_diag_to_z::ocean</text>
<text text-anchor="middle" x="697" y="-286.5" font-family="Helvetica,sans-Serif" font-size="10.00">_register_diag_with_z</text>
</a>
</g>
</g>
<!-- Node193&#45;&gt;Node194 -->
<g id="edge7" class="edge"><title>Node193&#45;&gt;Node194</title>
<path fill="none" stroke="midnightblue" d="M585.866,-294.5C602.955,-294.5 621.28,-294.5 637.982,-294.5"/>
<polygon fill="midnightblue" stroke="midnightblue" points="585.412,-291 575.412,-294.5 585.412,-298 585.412,-291"/>
</g>
<!-- Node202 -->
<g id="node16" class="node"><title>Node202</title>
<g id="a_node16"><a xlink:href="../../de/d5f/namespacemom__geothermal.html#a0abbb7953860e3357bbd3d35f46fd851" target="_top" xlink:title="mom_geothermal::geothermal_init">
<polygon fill="white" stroke="black" points="438,-6 438,-25 602,-25 602,-6 438,-6"/>
<text text-anchor="middle" x="520" y="-13" font-family="Helvetica,sans-Serif" font-size="10.00">mom_geothermal::geothermal_init</text>
</a>
</g>
</g>
<!-- Node201&#45;&gt;Node202 -->
<g id="edge15" class="edge"><title>Node201&#45;&gt;Node202</title>
<path fill="none" stroke="midnightblue" d="M412.282,-28.6057C421.82,-27.4344 431.733,-26.217 441.505,-25.0169"/>
<polygon fill="midnightblue" stroke="midnightblue" points="411.604,-25.1626 402.105,-29.8555 412.458,-32.1104 411.604,-25.1626"/>
</g>
<!-- Node203 -->
<g id="node17" class="node"><title>Node203</title>
<g id="a_node17"><a xlink:href="../../d8/df3/namespacemom__diabatic__driver.html#afa0b30bd6f0e080bcacbd6dcb15ff990" target="_top" xlink:title="This routine initializes the diabatic driver module. ">
<polygon fill="white" stroke="black" points="643.5,-0.5 643.5,-30.5 750.5,-30.5 750.5,-0.5 643.5,-0.5"/>
<text text-anchor="start" x="651.5" y="-18.5" font-family="Helvetica,sans-Serif" font-size="10.00">mom_diabatic_driver</text>
<text text-anchor="middle" x="697" y="-7.5" font-family="Helvetica,sans-Serif" font-size="10.00">::diabatic_driver_init</text>
</a>
</g>
</g>
<!-- Node202&#45;&gt;Node203 -->
<g id="edge16" class="edge"><title>Node202&#45;&gt;Node203</title>
<path fill="none" stroke="midnightblue" d="M612.248,-15.5C622.835,-15.5 633.348,-15.5 643.166,-15.5"/>
<polygon fill="midnightblue" stroke="midnightblue" points="612.096,-12.0001 602.096,-15.5 612.096,-19.0001 612.096,-12.0001"/>
</g>
</g>
</svg>
        <g id="navigator" transform="translate(0 0)" fill="#404254">
                <rect fill="#f2f5e9" fill-opacity="0.5" stroke="#606060" stroke-width=".5" x="0" y="0" width="60" height="60"/>
                <use id="zoomplus" xlink:href="#zoomPlus" x="17" y="9" onmousedown="handleZoom(evt,'in')"/>
                <use id="zoomminus" xlink:href="#zoomMin" x="42" y="9" onmousedown="handleZoom(evt,'out')"/>
                <use id="reset" xlink:href="#resetDef" x="30" y="36" onmousedown="handleReset()"/>
                <g id="arrowUp" xlink:href="#dirArrow" transform="translate(30 24)" onmousedown="handlePan(0,-1)">
                  <use xlink:href="#rim" fill="#404040">
                        <set attributeName="fill" to="#808080" begin="arrowUp.mouseover" end="arrowUp.mouseout"/>
                  </use>
                  <path fill="none" stroke="white" stroke-width="1.5" d="M0,-3.0v7 M-2.5,-0.5L0,-3.0L2.5,-0.5"/>
                </g>
                <g id="arrowRight" xlink:href="#dirArrow" transform="rotate(90) translate(36 -43)" onmousedown="handlePan(1,0)">
                  <use xlink:href="#rim" fill="#404040">
                        <set attributeName="fill" to="#808080" begin="arrowRight.mouseover" end="arrowRight.mouseout"/>
                  </use>
                  <path fill="none" stroke="white" stroke-width="1.5" d="M0,-3.0v7 M-2.5,-0.5L0,-3.0L2.5,-0.5"/>
                </g>
                <g id="arrowDown" xlink:href="#dirArrow" transform="rotate(180) translate(-30 -48)" onmousedown="handlePan(0,1)">
                  <use xlink:href="#rim" fill="#404040">
                        <set attributeName="fill" to="#808080" begin="arrowDown.mouseover" end="arrowDown.mouseout"/>
                  </use>
                  <path fill="none" stroke="white" stroke-width="1.5" d="M0,-3.0v7 M-2.5,-0.5L0,-3.0L2.5,-0.5"/>
                </g>
                <g id="arrowLeft" xlink:href="#dirArrow" transform="rotate(270) translate(-36 17)" onmousedown="handlePan(-1,0)">
                  <use xlink:href="#rim" fill="#404040">
                        <set attributeName="fill" to="#808080" begin="arrowLeft.mouseover" end="arrowLeft.mouseout"/>
                  </use>
                  <path fill="none" stroke="white" stroke-width="1.5" d="M0,-3.0v7 M-2.5,-0.5L0,-3.0L2.5,-0.5"/>
                </g>
        </g>
        <svg viewBox="0 0 15 15" width="100%" height="30px" preserveAspectRatio="xMaxYMin meet">
         <g id="arrow_out" transform="scale(0.3 0.3)">
          <a xlink:href="namespacemom__diag__mediator_a883862f004e30bbc5211f38635511ba0_icgraph_org.svg" target="_base">
           <rect id="button" ry="5" rx="5" y="6" x="6" height="38" width="38"
                fill="#f2f5e9" fill-opacity="0.5" stroke="#606060" stroke-width="1.0"/>
           <path id="arrow"
             d="M 11.500037,31.436501 C 11.940474,20.09759 22.043105,11.32322 32.158766,21.979434 L 37.068811,17.246167 C 37.068811,17.246167 37.088388,32 37.088388,32 L 22.160133,31.978069 C 22.160133,31.978069 26.997745,27.140456 26.997745,27.140456 C 18.528582,18.264221 13.291696,25.230495 11.500037,31.436501 z"
             style="fill:#404040;"/>
          </a>
         </g>
        </svg>
</svg>
