<?xml version="1.0" encoding="UTF-8" standalone="no"?>
<!DOCTYPE svg PUBLIC "-//W3C//DTD SVG 1.1//EN"
 "http://www.w3.org/Graphics/SVG/1.1/DTD/svg11.dtd">
<!-- Generated by graphviz version 2.38.0 (20140413.2041)
 -->
<!-- Title: mom_diag_mediator::set_axes_info Pages: 1 -->
<svg width="565pt" height="176pt"
 viewBox="0.00 0.00 565.00 176.00" xmlns="http://www.w3.org/2000/svg" xmlns:xlink="http://www.w3.org/1999/xlink">
<g id="graph0" class="graph" transform="scale(1 1) rotate(0) translate(4 172)">
<title>mom_diag_mediator::set_axes_info</title>
<polygon fill="white" stroke="none" points="-4,4 -4,-172 561,-172 561,4 -4,4"/>
<!-- Node467 -->
<g id="node1" class="node"><title>Node467</title>
<polygon fill="#bfbfbf" stroke="black" points="0,-71.5 0,-101.5 110,-101.5 110,-71.5 0,-71.5"/>
<text text-anchor="start" x="8" y="-89.5" font-family="Helvetica,sans-Serif" font-size="10.00">mom_diag_mediator::</text>
<text text-anchor="middle" x="55" y="-78.5" font-family="Helvetica,sans-Serif" font-size="10.00">set_axes_info</text>
</g>
<!-- Node468 -->
<g id="node2" class="node"><title>Node468</title>
<g id="a_node2"><a xlink:href="../../d9/d06/namespacemom__diag__mediator.html#a6e11afe7a97bf8e3333d33b0aebd6f6e" target="_top" xlink:title="mom_diag_mediator::\lassert">
<polygon fill="white" stroke="black" points="146,-137.5 146,-167.5 256,-167.5 256,-137.5 146,-137.5"/>
<text text-anchor="start" x="154" y="-155.5" font-family="Helvetica,sans-Serif" font-size="10.00">mom_diag_mediator::</text>
<text text-anchor="middle" x="201" y="-144.5" font-family="Helvetica,sans-Serif" font-size="10.00">assert</text>
</a>
</g>
</g>
<!-- Node467&#45;&gt;Node468 -->
<g id="edge1" class="edge"><title>Node467&#45;&gt;Node468</title>
<path fill="none" stroke="midnightblue" d="M89.0365,-101.642C109.525,-111.032 136.038,-123.184 158.01,-133.254"/>
<polygon fill="midnightblue" stroke="midnightblue" points="156.568,-136.444 167.117,-137.429 159.485,-130.08 156.568,-136.444"/>
</g>
<!-- Node469 -->
<g id="node3" class="node"><title>Node469</title>
<g id="a_node3"><a xlink:href="../../d0/de6/namespacemom__error__handler.html#a460cfb79a06c29fc249952c2a3710d67" target="_top" xlink:title="mom_error_handler::\lmom_error">
<polygon fill="white" stroke="black" points="300.5,-93.5 300.5,-123.5 406.5,-123.5 406.5,-93.5 300.5,-93.5"/>
<text text-anchor="start" x="308.5" y="-111.5" font-family="Helvetica,sans-Serif" font-size="10.00">mom_error_handler::</text>
<text text-anchor="middle" x="353.5" y="-100.5" font-family="Helvetica,sans-Serif" font-size="10.00">mom_error</text>
</a>
</g>
</g>
<!-- Node467&#45;&gt;Node469 -->
<g id="edge8" class="edge"><title>Node467&#45;&gt;Node469</title>
<path fill="none" stroke="midnightblue" d="M110.038,-90.5096C160.88,-94.282 236.964,-99.9273 290.308,-103.885"/>
<polygon fill="midnightblue" stroke="midnightblue" points="290.094,-107.379 300.326,-104.629 290.612,-100.398 290.094,-107.379"/>
</g>
<!-- Node471 -->
<g id="node5" class="node"><title>Node471</title>
<g id="a_node5"><a xlink:href="../../d9/d06/namespacemom__diag__mediator.html#ac9ba00691295073078313411a71cda40" target="_top" xlink:title="mom_diag_mediator::\lcheck_grid_def">
<polygon fill="white" stroke="black" points="146,-49.5 146,-79.5 256,-79.5 256,-49.5 146,-49.5"/>
<text text-anchor="start" x="154" y="-67.5" font-family="Helvetica,sans-Serif" font-size="10.00">mom_diag_mediator::</text>
<text text-anchor="middle" x="201" y="-56.5" font-family="Helvetica,sans-Serif" font-size="10.00">check_grid_def</text>
</a>
</g>
</g>
<!-- Node467&#45;&gt;Node471 -->
<g id="edge4" class="edge"><title>Node467&#45;&gt;Node471</title>
<path fill="none" stroke="midnightblue" d="M110.03,-78.2454C118.405,-76.966 127.126,-75.6336 135.7,-74.3237"/>
<polygon fill="midnightblue" stroke="midnightblue" points="136.311,-77.771 145.667,-72.8008 135.253,-70.8513 136.311,-77.771"/>
</g>
<!-- Node472 -->
<g id="node6" class="node"><title>Node472</title>
<g id="a_node6"><a xlink:href="../../d9/d06/namespacemom__diag__mediator.html#a64688af57b70ec8694126d49d4c472f1" target="_top" xlink:title="Defines a group of &quot;axes&quot; from list of handles. ">
<polygon fill="white" stroke="black" points="146,-0.5 146,-30.5 256,-30.5 256,-0.5 146,-0.5"/>
<text text-anchor="start" x="154" y="-18.5" font-family="Helvetica,sans-Serif" font-size="10.00">mom_diag_mediator::</text>
<text text-anchor="middle" x="201" y="-7.5" font-family="Helvetica,sans-Serif" font-size="10.00">define_axes_group</text>
</a>
</g>
</g>
<!-- Node467&#45;&gt;Node472 -->
<g id="edge5" class="edge"><title>Node467&#45;&gt;Node472</title>
<path fill="none" stroke="midnightblue" d="M83.7428,-71.4348C101.42,-61.9799 124.887,-49.6921 146,-39.5 149.289,-37.9125 152.706,-36.3025 156.154,-34.7069"/>
<polygon fill="midnightblue" stroke="midnightblue" points="157.637,-37.8775 165.282,-30.5424 154.732,-31.5089 157.637,-37.8775"/>
</g>
<!-- Node468&#45;&gt;Node469 -->
<g id="edge2" class="edge"><title>Node468&#45;&gt;Node469</title>
<path fill="none" stroke="midnightblue" d="M253.373,-137.481C265.534,-133.925 278.624,-130.098 291.178,-126.428"/>
<polygon fill="midnightblue" stroke="midnightblue" points="292.488,-129.692 301.104,-123.526 290.523,-122.973 292.488,-129.692"/>
</g>
<!-- Node470 -->
<g id="node4" class="node"><title>Node470</title>
<g id="a_node4"><a xlink:href="../../d0/de6/namespacemom__error__handler.html#ad5f00a53059c72fe2332d1436c80ca71" target="_top" xlink:title="mom_error_handler::\lis_root_pe">
<polygon fill="white" stroke="black" points="451,-93.5 451,-123.5 557,-123.5 557,-93.5 451,-93.5"/>
<text text-anchor="start" x="459" y="-111.5" font-family="Helvetica,sans-Serif" font-size="10.00">mom_error_handler::</text>
<text text-anchor="middle" x="504" y="-100.5" font-family="Helvetica,sans-Serif" font-size="10.00">is_root_pe</text>
</a>
</g>
</g>
<!-- Node469&#45;&gt;Node470 -->
<g id="edge3" class="edge"><title>Node469&#45;&gt;Node470</title>
<path fill="none" stroke="midnightblue" d="M406.856,-108.5C417.788,-108.5 429.416,-108.5 440.669,-108.5"/>
<polygon fill="midnightblue" stroke="midnightblue" points="440.867,-112 450.867,-108.5 440.867,-105 440.867,-112"/>
</g>
<!-- Node472&#45;&gt;Node469 -->
<g id="edge7" class="edge"><title>Node472&#45;&gt;Node469</title>
<path fill="none" stroke="midnightblue" d="M238.519,-30.5186C244.464,-33.3065 250.478,-36.3423 256,-39.5 280.651,-53.5975 306.742,-72.5256 325.571,-86.9911"/>
<polygon fill="midnightblue" stroke="midnightblue" points="323.635,-89.9194 333.679,-93.29 327.929,-84.3913 323.635,-89.9194"/>
</g>
<!-- Node473 -->
<g id="node7" class="node"><title>Node473</title>
<g id="a_node7"><a xlink:href="../../d9/d06/namespacemom__diag__mediator.html#a82d9bb70db16b1113304936c82d40e82" target="_top" xlink:title="mom_diag_mediator::i2s">
<polygon fill="white" stroke="black" points="292,-6 292,-25 415,-25 415,-6 292,-6"/>
<text text-anchor="middle" x="353.5" y="-13" font-family="Helvetica,sans-Serif" font-size="10.00">mom_diag_mediator::i2s</text>
</a>
</g>
</g>
<!-- Node472&#45;&gt;Node473 -->
<g id="edge6" class="edge"><title>Node472&#45;&gt;Node473</title>
<path fill="none" stroke="midnightblue" d="M256.334,-15.5C264.625,-15.5 273.283,-15.5 281.862,-15.5"/>
<polygon fill="midnightblue" stroke="midnightblue" points="281.869,-19.0001 291.869,-15.5 281.869,-12.0001 281.869,-19.0001"/>
</g>
</g>
</svg>
