<?xml version="1.0" encoding="UTF-8" standalone="no"?>
<!DOCTYPE svg PUBLIC "-//W3C//DTD SVG 1.1//EN"
 "http://www.w3.org/Graphics/SVG/1.1/DTD/svg11.dtd">
<!-- Generated by graphviz version 2.38.0 (20140413.2041)
 -->
<!-- Title: mom_diag_mediator::post_data_2d_low Pages: 1 -->
<svg width="554pt" height="70pt"
 viewBox="0.00 0.00 554.00 69.50" xmlns="http://www.w3.org/2000/svg" xmlns:xlink="http://www.w3.org/1999/xlink">
<g id="graph0" class="graph" transform="scale(1 1) rotate(0) translate(4 65.5)">
<title>mom_diag_mediator::post_data_2d_low</title>
<polygon fill="white" stroke="none" points="-4,4 -4,-65.5 550,-65.5 550,4 -4,4"/>
<!-- Node315 -->
<g id="node1" class="node"><title>Node315</title>
<polygon fill="#bfbfbf" stroke="black" points="0,-0.5 0,-30.5 110,-30.5 110,-0.5 0,-0.5"/>
<text text-anchor="start" x="8" y="-18.5" font-family="Helvetica,sans-Serif" font-size="10.00">mom_diag_mediator::</text>
<text text-anchor="middle" x="55" y="-7.5" font-family="Helvetica,sans-Serif" font-size="10.00">post_data_2d_low</text>
</g>
<!-- Node316 -->
<g id="node2" class="node"><title>Node316</title>
<g id="a_node2"><a xlink:href="../../d9/d06/namespacemom__diag__mediator.html#ad7a5552983f5c6ae7adc4ef87b42235b" target="_top" xlink:title="mom_diag_mediator::\lcheck_field_and_mask\l_shape_2d">
<polygon fill="white" stroke="black" points="146,-20 146,-61 262,-61 262,-20 146,-20"/>
<text text-anchor="start" x="154" y="-49" font-family="Helvetica,sans-Serif" font-size="10.00">mom_diag_mediator::</text>
<text text-anchor="start" x="154" y="-38" font-family="Helvetica,sans-Serif" font-size="10.00">check_field_and_mask</text>
<text text-anchor="middle" x="204" y="-27" font-family="Helvetica,sans-Serif" font-size="10.00">_shape_2d</text>
</a>
</g>
</g>
<!-- Node315&#45;&gt;Node316 -->
<g id="edge1" class="edge"><title>Node315&#45;&gt;Node316</title>
<path fill="none" stroke="midnightblue" d="M110.32,-24.738C118.667,-26.1577 127.369,-27.6376 135.953,-29.0975"/>
<polygon fill="midnightblue" stroke="midnightblue" points="135.502,-32.5709 145.947,-30.7972 136.676,-25.67 135.502,-32.5709"/>
</g>
<!-- Node317 -->
<g id="node3" class="node"><title>Node317</title>
<g id="a_node3"><a xlink:href="../../d0/de6/namespacemom__error__handler.html#a460cfb79a06c29fc249952c2a3710d67" target="_top" xlink:title="mom_error_handler::\lmom_error">
<polygon fill="white" stroke="black" points="298,-0.5 298,-30.5 404,-30.5 404,-0.5 298,-0.5"/>
<text text-anchor="start" x="306" y="-18.5" font-family="Helvetica,sans-Serif" font-size="10.00">mom_error_handler::</text>
<text text-anchor="middle" x="351" y="-7.5" font-family="Helvetica,sans-Serif" font-size="10.00">mom_error</text>
</a>
</g>
</g>
<!-- Node315&#45;&gt;Node317 -->
<g id="edge4" class="edge"><title>Node315&#45;&gt;Node317</title>
<path fill="none" stroke="midnightblue" d="M110.235,-11.999C122.02,-11.3746 134.424,-10.8213 146,-10.5 197.536,-9.06956 210.465,-9.03712 262,-10.5 270.356,-10.7372 279.152,-11.1008 287.821,-11.5261"/>
<polygon fill="midnightblue" stroke="midnightblue" points="287.736,-15.0263 297.904,-12.0498 288.099,-8.03575 287.736,-15.0263"/>
</g>
<!-- Node316&#45;&gt;Node317 -->
<g id="edge2" class="edge"><title>Node316&#45;&gt;Node317</title>
<path fill="none" stroke="midnightblue" d="M262.308,-30.6193C270.728,-29.1675 279.435,-27.6663 287.946,-26.1989"/>
<polygon fill="midnightblue" stroke="midnightblue" points="288.558,-29.6451 297.818,-24.4969 287.369,-22.7469 288.558,-29.6451"/>
</g>
<!-- Node318 -->
<g id="node4" class="node"><title>Node318</title>
<g id="a_node4"><a xlink:href="../../d0/de6/namespacemom__error__handler.html#ad5f00a53059c72fe2332d1436c80ca71" target="_top" xlink:title="mom_error_handler::\lis_root_pe">
<polygon fill="white" stroke="black" points="440,-0.5 440,-30.5 546,-30.5 546,-0.5 440,-0.5"/>
<text text-anchor="start" x="448" y="-18.5" font-family="Helvetica,sans-Serif" font-size="10.00">mom_error_handler::</text>
<text text-anchor="middle" x="493" y="-7.5" font-family="Helvetica,sans-Serif" font-size="10.00">is_root_pe</text>
</a>
</g>
</g>
<!-- Node317&#45;&gt;Node318 -->
<g id="edge3" class="edge"><title>Node317&#45;&gt;Node318</title>
<path fill="none" stroke="midnightblue" d="M404.131,-15.5C412.421,-15.5 421.07,-15.5 429.568,-15.5"/>
<polygon fill="midnightblue" stroke="midnightblue" points="429.826,-19.0001 439.826,-15.5 429.826,-12.0001 429.826,-19.0001"/>
</g>
</g>
</svg>
