<?xml version="1.0" encoding="UTF-8" standalone="no"?>
<!DOCTYPE svg PUBLIC "-//W3C//DTD SVG 1.1//EN"
 "http://www.w3.org/Graphics/SVG/1.1/DTD/svg11.dtd">
<!-- Generated by graphviz version 2.38.0 (20140413.2041)
 -->
<!-- Title: mom_tracer_initialization_from_z::mom_initialize_tracer_from_z Pages: 1 -->
<svg width="480pt" height="241pt"
 viewBox="0.00 0.00 480.00 241.00" xmlns="http://www.w3.org/2000/svg" xmlns:xlink="http://www.w3.org/1999/xlink">
<g id="graph0" class="graph" transform="scale(1 1) rotate(0) translate(4 237)">
<title>mom_tracer_initialization_from_z::mom_initialize_tracer_from_z</title>
<polygon fill="white" stroke="none" points="-4,4 -4,-237 476,-237 476,4 -4,4"/>
<!-- Node40 -->
<g id="node1" class="node"><title>Node40</title>
<polygon fill="#bfbfbf" stroke="black" points="0,-99 0,-140 125,-140 125,-99 0,-99"/>
<text text-anchor="start" x="8" y="-128" font-family="Helvetica,sans-Serif" font-size="10.00">mom_tracer_initialization</text>
<text text-anchor="start" x="8" y="-117" font-family="Helvetica,sans-Serif" font-size="10.00">_from_z::mom_initialize</text>
<text text-anchor="middle" x="62.5" y="-106" font-family="Helvetica,sans-Serif" font-size="10.00">_tracer_from_z</text>
</g>
<!-- Node41 -->
<g id="node2" class="node"><title>Node41</title>
<g id="a_node2"><a xlink:href="../../d7/d73/namespacemom__ale.html#aab30651699eb2cd8dc5a67c8e03474ee" target="_top" xlink:title="Remaps a single scalar between grids described by thicknesses h_src and h_dst. h_dst must be dimensio...">
<polygon fill="white" stroke="black" points="172,-202.5 172,-232.5 279,-232.5 279,-202.5 172,-202.5"/>
<text text-anchor="start" x="180" y="-220.5" font-family="Helvetica,sans-Serif" font-size="10.00">mom_ale::ale_remap</text>
<text text-anchor="middle" x="225.5" y="-209.5" font-family="Helvetica,sans-Serif" font-size="10.00">_scalar</text>
</a>
</g>
</g>
<!-- Node40&#45;&gt;Node41 -->
<g id="edge1" class="edge"><title>Node40&#45;&gt;Node41</title>
<path fill="none" stroke="midnightblue" d="M87.101,-140.02C106.118,-155.83 134.039,-177.459 161,-192.5 164.667,-194.546 168.535,-196.504 172.479,-198.36"/>
<polygon fill="midnightblue" stroke="midnightblue" points="171.2,-201.622 181.759,-202.498 174.051,-195.229 171.2,-201.622"/>
</g>
<!-- Node43 -->
<g id="node4" class="node"><title>Node43</title>
<g id="a_node4"><a xlink:href="../../d0/de6/namespacemom__error__handler.html#a9cda07a87815f0e5594066162b4345c3" target="_top" xlink:title="Writes a message about entering a subroutine if call tree reporting is active. ">
<polygon fill="white" stroke="black" points="172.5,-153.5 172.5,-183.5 278.5,-183.5 278.5,-153.5 172.5,-153.5"/>
<text text-anchor="start" x="180.5" y="-171.5" font-family="Helvetica,sans-Serif" font-size="10.00">mom_error_handler::</text>
<text text-anchor="middle" x="225.5" y="-160.5" font-family="Helvetica,sans-Serif" font-size="10.00">calltree_enter</text>
</a>
</g>
</g>
<!-- Node40&#45;&gt;Node43 -->
<g id="edge3" class="edge"><title>Node40&#45;&gt;Node43</title>
<path fill="none" stroke="midnightblue" d="M125.286,-138.305C138.43,-142.305 152.278,-146.519 165.322,-150.489"/>
<polygon fill="midnightblue" stroke="midnightblue" points="164.528,-153.906 175.114,-153.47 166.567,-147.21 164.528,-153.906"/>
</g>
<!-- Node45 -->
<g id="node6" class="node"><title>Node45</title>
<g id="a_node6"><a xlink:href="../../d0/de6/namespacemom__error__handler.html#a88ea67781e2ed9b73ab7eac8ea5e8578" target="_top" xlink:title="Writes a message about leaving a subroutine if call tree reporting is active. ">
<polygon fill="white" stroke="black" points="172.5,-104.5 172.5,-134.5 278.5,-134.5 278.5,-104.5 172.5,-104.5"/>
<text text-anchor="start" x="180.5" y="-122.5" font-family="Helvetica,sans-Serif" font-size="10.00">mom_error_handler::</text>
<text text-anchor="middle" x="225.5" y="-111.5" font-family="Helvetica,sans-Serif" font-size="10.00">calltree_leave</text>
</a>
</g>
</g>
<!-- Node40&#45;&gt;Node45 -->
<g id="edge5" class="edge"><title>Node40&#45;&gt;Node45</title>
<path fill="none" stroke="midnightblue" d="M125.286,-119.5C137.41,-119.5 150.134,-119.5 162.272,-119.5"/>
<polygon fill="midnightblue" stroke="midnightblue" points="162.304,-123 172.304,-119.5 162.304,-116 162.304,-123"/>
</g>
<!-- Node46 -->
<g id="node7" class="node"><title>Node46</title>
<g id="a_node7"><a xlink:href="../../d8/d8a/namespacemom__tracer__initialization__from__z.html#a5f3dc84eae5f78304c8e366bf80e3afd" target="_top" xlink:title="mom_tracer_initialization\l_from_z::horiz_interp_and\l_extrap_tracer">
<polygon fill="white" stroke="black" points="161,-44 161,-85 290,-85 290,-44 161,-44"/>
<text text-anchor="start" x="169" y="-73" font-family="Helvetica,sans-Serif" font-size="10.00">mom_tracer_initialization</text>
<text text-anchor="start" x="169" y="-62" font-family="Helvetica,sans-Serif" font-size="10.00">_from_z::horiz_interp_and</text>
<text text-anchor="middle" x="225.5" y="-51" font-family="Helvetica,sans-Serif" font-size="10.00">_extrap_tracer</text>
</a>
</g>
</g>
<!-- Node40&#45;&gt;Node46 -->
<g id="edge7" class="edge"><title>Node40&#45;&gt;Node46</title>
<path fill="none" stroke="midnightblue" d="M123.909,-98.8635C133.916,-95.4449 144.366,-91.875 154.584,-88.3842"/>
<polygon fill="midnightblue" stroke="midnightblue" points="155.957,-91.614 164.288,-85.0692 153.694,-84.9899 155.957,-91.614"/>
</g>
<!-- Node49 -->
<g id="node10" class="node"><title>Node49</title>
<g id="a_node10"><a xlink:href="../../d8/d8a/namespacemom__tracer__initialization__from__z.html#adcb9907744147d5e873af4b5912044ea" target="_top" xlink:title="mom_tracer_initialization\l_from_z::mystats">
<polygon fill="white" stroke="black" points="336.5,-0.5 336.5,-30.5 461.5,-30.5 461.5,-0.5 336.5,-0.5"/>
<text text-anchor="start" x="344.5" y="-18.5" font-family="Helvetica,sans-Serif" font-size="10.00">mom_tracer_initialization</text>
<text text-anchor="middle" x="399" y="-7.5" font-family="Helvetica,sans-Serif" font-size="10.00">_from_z::mystats</text>
</a>
</g>
</g>
<!-- Node40&#45;&gt;Node49 -->
<g id="edge11" class="edge"><title>Node40&#45;&gt;Node49</title>
<path fill="none" stroke="midnightblue" d="M80.0488,-98.8675C97.7054,-78.532 127.678,-48.5296 161,-34.5 213.299,-12.4805 277.772,-8.6309 326.263,-9.78649"/>
<polygon fill="midnightblue" stroke="midnightblue" points="326.253,-13.2878 336.358,-10.1043 326.473,-6.29126 326.253,-13.2878"/>
</g>
<!-- Node42 -->
<g id="node3" class="node"><title>Node42</title>
<g id="a_node3"><a xlink:href="../../d6/d75/namespacemom__remapping.html#a494289c324db2496816f2687f4ceea76" target="_top" xlink:title="Calculates the change in interface positions based on h1 and h2. ">
<polygon fill="white" stroke="black" points="326,-208 326,-227 472,-227 472,-208 326,-208"/>
<text text-anchor="middle" x="399" y="-215" font-family="Helvetica,sans-Serif" font-size="10.00">mom_remapping::dzfromh1h2</text>
</a>
</g>
</g>
<!-- Node41&#45;&gt;Node42 -->
<g id="edge2" class="edge"><title>Node41&#45;&gt;Node42</title>
<path fill="none" stroke="midnightblue" d="M279.355,-217.5C290.812,-217.5 303.192,-217.5 315.483,-217.5"/>
<polygon fill="midnightblue" stroke="midnightblue" points="315.765,-221 325.765,-217.5 315.765,-214 315.765,-221"/>
</g>
<!-- Node44 -->
<g id="node5" class="node"><title>Node44</title>
<g id="a_node5"><a xlink:href="../../d0/de6/namespacemom__error__handler.html#ad5f00a53059c72fe2332d1436c80ca71" target="_top" xlink:title="mom_error_handler::\lis_root_pe">
<polygon fill="white" stroke="black" points="346,-150.5 346,-180.5 452,-180.5 452,-150.5 346,-150.5"/>
<text text-anchor="start" x="354" y="-168.5" font-family="Helvetica,sans-Serif" font-size="10.00">mom_error_handler::</text>
<text text-anchor="middle" x="399" y="-157.5" font-family="Helvetica,sans-Serif" font-size="10.00">is_root_pe</text>
</a>
</g>
</g>
<!-- Node43&#45;&gt;Node44 -->
<g id="edge4" class="edge"><title>Node43&#45;&gt;Node44</title>
<path fill="none" stroke="midnightblue" d="M278.888,-167.584C296.84,-167.27 317.104,-166.915 335.76,-166.589"/>
<polygon fill="midnightblue" stroke="midnightblue" points="335.996,-170.085 345.933,-166.411 335.874,-163.086 335.996,-170.085"/>
</g>
<!-- Node45&#45;&gt;Node44 -->
<g id="edge6" class="edge"><title>Node45&#45;&gt;Node44</title>
<path fill="none" stroke="midnightblue" d="M278.888,-133.551C296.923,-138.389 317.292,-143.852 336.019,-148.875"/>
<polygon fill="midnightblue" stroke="midnightblue" points="335.368,-152.324 345.933,-151.535 337.181,-145.563 335.368,-152.324"/>
</g>
<!-- Node47 -->
<g id="node8" class="node"><title>Node47</title>
<g id="a_node8"><a xlink:href="../../d8/d8a/namespacemom__tracer__initialization__from__z.html#a3e944fc452963865258b02181f817283" target="_top" xlink:title="mom_tracer_initialization\l_from_z::fill_miss_2d">
<polygon fill="white" stroke="black" points="336.5,-98.5 336.5,-128.5 461.5,-128.5 461.5,-98.5 336.5,-98.5"/>
<text text-anchor="start" x="344.5" y="-116.5" font-family="Helvetica,sans-Serif" font-size="10.00">mom_tracer_initialization</text>
<text text-anchor="middle" x="399" y="-105.5" font-family="Helvetica,sans-Serif" font-size="10.00">_from_z::fill_miss_2d</text>
</a>
</g>
</g>
<!-- Node46&#45;&gt;Node47 -->
<g id="edge8" class="edge"><title>Node46&#45;&gt;Node47</title>
<path fill="none" stroke="midnightblue" d="M290.36,-82.7458C305.062,-86.9463 320.684,-91.4097 335.334,-95.5955"/>
<polygon fill="midnightblue" stroke="midnightblue" points="334.722,-99.0605 345.298,-98.4424 336.645,-92.3298 334.722,-99.0605"/>
</g>
<!-- Node48 -->
<g id="node9" class="node"><title>Node48</title>
<g id="a_node9"><a xlink:href="../../d8/d8a/namespacemom__tracer__initialization__from__z.html#ac3910d4783aaa36b1e2c21ff4ee08453" target="_top" xlink:title="mom_tracer_initialization\l_from_z::meshgrid">
<polygon fill="white" stroke="black" points="336.5,-49.5 336.5,-79.5 461.5,-79.5 461.5,-49.5 336.5,-49.5"/>
<text text-anchor="start" x="344.5" y="-67.5" font-family="Helvetica,sans-Serif" font-size="10.00">mom_tracer_initialization</text>
<text text-anchor="middle" x="399" y="-56.5" font-family="Helvetica,sans-Serif" font-size="10.00">_from_z::meshgrid</text>
</a>
</g>
</g>
<!-- Node46&#45;&gt;Node48 -->
<g id="edge9" class="edge"><title>Node46&#45;&gt;Node48</title>
<path fill="none" stroke="midnightblue" d="M290.36,-64.5C301.998,-64.5 314.213,-64.5 326.065,-64.5"/>
<polygon fill="midnightblue" stroke="midnightblue" points="326.365,-68.0001 336.365,-64.5 326.365,-61.0001 326.365,-68.0001"/>
</g>
<!-- Node46&#45;&gt;Node49 -->
<g id="edge10" class="edge"><title>Node46&#45;&gt;Node49</title>
<path fill="none" stroke="midnightblue" d="M290.36,-46.2542C305.062,-42.0537 320.684,-37.5903 335.334,-33.4045"/>
<polygon fill="midnightblue" stroke="midnightblue" points="336.645,-36.6702 345.298,-30.5576 334.722,-29.9395 336.645,-36.6702"/>
</g>
</g>
</svg>
