<?xml version="1.0" encoding="UTF-8" standalone="no"?>
<!DOCTYPE svg PUBLIC "-//W3C//DTD SVG 1.1//EN"
 "http://www.w3.org/Graphics/SVG/1.1/DTD/svg11.dtd">
<!-- Generated by graphviz version 2.38.0 (20140413.2041)
 -->
<!-- Title: mom_tracer_initialization_from_z::fill_miss_2d Pages: 1 -->
<svg width="660pt" height="100pt"
 viewBox="0.00 0.00 660.00 99.50" xmlns="http://www.w3.org/2000/svg" xmlns:xlink="http://www.w3.org/1999/xlink">
<g id="graph0" class="graph" transform="scale(1 1) rotate(0) translate(4 95.5)">
<title>mom_tracer_initialization_from_z::fill_miss_2d</title>
<polygon fill="white" stroke="none" points="-4,4 -4,-95.5 656,-95.5 656,4 -4,4"/>
<!-- Node12 -->
<g id="node1" class="node"><title>Node12</title>
<polygon fill="#bfbfbf" stroke="black" points="0,-33 0,-63 125,-63 125,-33 0,-33"/>
<text text-anchor="start" x="8" y="-51" font-family="Helvetica,sans-Serif" font-size="10.00">mom_tracer_initialization</text>
<text text-anchor="middle" x="62.5" y="-40" font-family="Helvetica,sans-Serif" font-size="10.00">_from_z::fill_miss_2d</text>
</g>
<!-- Node13 -->
<g id="node2" class="node"><title>Node13</title>
<g id="a_node2"><a xlink:href="../../d8/d8a/namespacemom__tracer__initialization__from__z.html#a5f3dc84eae5f78304c8e366bf80e3afd" target="_top" xlink:title="mom_tracer_initialization\l_from_z::horiz_interp_and\l_extrap_tracer">
<polygon fill="white" stroke="black" points="161,-27.5 161,-68.5 290,-68.5 290,-27.5 161,-27.5"/>
<text text-anchor="start" x="169" y="-56.5" font-family="Helvetica,sans-Serif" font-size="10.00">mom_tracer_initialization</text>
<text text-anchor="start" x="169" y="-45.5" font-family="Helvetica,sans-Serif" font-size="10.00">_from_z::horiz_interp_and</text>
<text text-anchor="middle" x="225.5" y="-34.5" font-family="Helvetica,sans-Serif" font-size="10.00">_extrap_tracer</text>
</a>
</g>
</g>
<!-- Node12&#45;&gt;Node13 -->
<g id="edge1" class="edge"><title>Node12&#45;&gt;Node13</title>
<path fill="none" stroke="midnightblue" d="M135.473,-48C143.896,-48 152.445,-48 160.746,-48"/>
<polygon fill="midnightblue" stroke="midnightblue" points="135.286,-44.5001 125.286,-48 135.286,-51.5001 135.286,-44.5001"/>
</g>
<!-- Node14 -->
<g id="node3" class="node"><title>Node14</title>
<g id="a_node3"><a xlink:href="../../d6/d62/namespacemom__state__initialization.html#ae33403313da1b783a1ad980e10012f8e" target="_top" xlink:title="mom_state_initialization\l::mom_temp_salt_initialize_from_z">
<polygon fill="white" stroke="black" points="326,-61 326,-91 494,-91 494,-61 326,-61"/>
<text text-anchor="start" x="334" y="-79" font-family="Helvetica,sans-Serif" font-size="10.00">mom_state_initialization</text>
<text text-anchor="middle" x="410" y="-68" font-family="Helvetica,sans-Serif" font-size="10.00">::mom_temp_salt_initialize_from_z</text>
</a>
</g>
</g>
<!-- Node13&#45;&gt;Node14 -->
<g id="edge2" class="edge"><title>Node13&#45;&gt;Node14</title>
<path fill="none" stroke="midnightblue" d="M300.207,-59.3085C308.616,-60.5986 317.231,-61.9204 325.753,-63.2278"/>
<polygon fill="midnightblue" stroke="midnightblue" points="300.489,-55.8108 290.073,-57.7537 299.427,-62.7298 300.489,-55.8108"/>
</g>
<!-- Node16 -->
<g id="node5" class="node"><title>Node16</title>
<g id="a_node5"><a xlink:href="../../d8/d8a/namespacemom__tracer__initialization__from__z.html#a5281cd3eaf835f799cff81a50c273c5e" target="_top" xlink:title="mom_tracer_initialization\l_from_z::mom_initialize\l_tracer_from_z">
<polygon fill="white" stroke="black" points="347.5,-0.5 347.5,-41.5 472.5,-41.5 472.5,-0.5 347.5,-0.5"/>
<text text-anchor="start" x="355.5" y="-29.5" font-family="Helvetica,sans-Serif" font-size="10.00">mom_tracer_initialization</text>
<text text-anchor="start" x="355.5" y="-18.5" font-family="Helvetica,sans-Serif" font-size="10.00">_from_z::mom_initialize</text>
<text text-anchor="middle" x="410" y="-7.5" font-family="Helvetica,sans-Serif" font-size="10.00">_tracer_from_z</text>
</a>
</g>
</g>
<!-- Node13&#45;&gt;Node16 -->
<g id="edge4" class="edge"><title>Node13&#45;&gt;Node16</title>
<path fill="none" stroke="midnightblue" d="M300.255,-37.0884C315.935,-34.7685 332.333,-32.3426 347.499,-30.0988"/>
<polygon fill="midnightblue" stroke="midnightblue" points="299.454,-33.6687 290.073,-38.5946 300.478,-40.5933 299.454,-33.6687"/>
</g>
<!-- Node15 -->
<g id="node4" class="node"><title>Node15</title>
<g id="a_node4"><a xlink:href="../../d6/d62/namespacemom__state__initialization.html#af4e854627c6572332ba3fd895f169321" target="_top" xlink:title="mom_state_initialization\l::mom_initialize_state">
<polygon fill="white" stroke="black" points="530,-61 530,-91 652,-91 652,-61 530,-61"/>
<text text-anchor="start" x="538" y="-79" font-family="Helvetica,sans-Serif" font-size="10.00">mom_state_initialization</text>
<text text-anchor="middle" x="591" y="-68" font-family="Helvetica,sans-Serif" font-size="10.00">::mom_initialize_state</text>
</a>
</g>
</g>
<!-- Node14&#45;&gt;Node15 -->
<g id="edge3" class="edge"><title>Node14&#45;&gt;Node15</title>
<path fill="none" stroke="midnightblue" d="M504.397,-76C513.07,-76 521.695,-76 529.944,-76"/>
<polygon fill="midnightblue" stroke="midnightblue" points="504.212,-72.5001 494.212,-76 504.212,-79.5001 504.212,-72.5001"/>
</g>
</g>
</svg>
