<?xml version="1.0" encoding="UTF-8" standalone="no"?>
<!DOCTYPE svg PUBLIC "-//W3C//DTD SVG 1.1//EN"
 "http://www.w3.org/Graphics/SVG/1.1/DTD/svg11.dtd">
<!-- Generated by graphviz version 2.38.0 (20140413.2041)
 -->
<!-- Title: mom_tracer_initialization_from_z::tracer_z_init Pages: 1 -->
<svg width="305pt" height="88pt"
 viewBox="0.00 0.00 305.00 88.00" xmlns="http://www.w3.org/2000/svg" xmlns:xlink="http://www.w3.org/1999/xlink">
<g id="graph0" class="graph" transform="scale(1 1) rotate(0) translate(4 84)">
<title>mom_tracer_initialization_from_z::tracer_z_init</title>
<polygon fill="white" stroke="none" points="-4,4 -4,-84 301,-84 301,4 -4,4"/>
<!-- Node59 -->
<g id="node1" class="node"><title>Node59</title>
<polygon fill="#bfbfbf" stroke="black" points="0,-24.5 0,-54.5 125,-54.5 125,-24.5 0,-24.5"/>
<text text-anchor="start" x="8" y="-42.5" font-family="Helvetica,sans-Serif" font-size="10.00">mom_tracer_initialization</text>
<text text-anchor="middle" x="62.5" y="-31.5" font-family="Helvetica,sans-Serif" font-size="10.00">_from_z::tracer_z_init</text>
</g>
<!-- Node60 -->
<g id="node2" class="node"><title>Node60</title>
<g id="a_node2"><a xlink:href="../../d8/d8a/namespacemom__tracer__initialization__from__z.html#adceea06bf114896a35b4de9b31e71974" target="_top" xlink:title="mom_tracer_initialization\l_from_z::find_limited_slope">
<polygon fill="white" stroke="black" points="161,-49.5 161,-79.5 297,-79.5 297,-49.5 161,-49.5"/>
<text text-anchor="start" x="169" y="-67.5" font-family="Helvetica,sans-Serif" font-size="10.00">mom_tracer_initialization</text>
<text text-anchor="middle" x="229" y="-56.5" font-family="Helvetica,sans-Serif" font-size="10.00">_from_z::find_limited_slope</text>
</a>
</g>
</g>
<!-- Node59&#45;&gt;Node60 -->
<g id="edge1" class="edge"><title>Node59&#45;&gt;Node60</title>
<path fill="none" stroke="midnightblue" d="M125.222,-48.8802C133.609,-50.1549 142.301,-51.4758 150.916,-52.7852"/>
<polygon fill="midnightblue" stroke="midnightblue" points="150.561,-56.2712 160.973,-54.3135 151.612,-49.3507 150.561,-56.2712"/>
</g>
<!-- Node61 -->
<g id="node3" class="node"><title>Node61</title>
<g id="a_node3"><a xlink:href="../../d8/d8a/namespacemom__tracer__initialization__from__z.html#acf01c1f25ee61c15914c59c1b5ce3d58" target="_top" xlink:title="mom_tracer_initialization\l_from_z::find_overlap">
<polygon fill="white" stroke="black" points="166.5,-0.5 166.5,-30.5 291.5,-30.5 291.5,-0.5 166.5,-0.5"/>
<text text-anchor="start" x="174.5" y="-18.5" font-family="Helvetica,sans-Serif" font-size="10.00">mom_tracer_initialization</text>
<text text-anchor="middle" x="229" y="-7.5" font-family="Helvetica,sans-Serif" font-size="10.00">_from_z::find_overlap</text>
</a>
</g>
</g>
<!-- Node59&#45;&gt;Node61 -->
<g id="edge2" class="edge"><title>Node59&#45;&gt;Node61</title>
<path fill="none" stroke="midnightblue" d="M125.222,-30.495C135.447,-29.0032 146.124,-27.4455 156.564,-25.9222"/>
<polygon fill="midnightblue" stroke="midnightblue" points="157.09,-29.3827 166.479,-24.4756 156.079,-22.4561 157.09,-29.3827"/>
</g>
</g>
</svg>
