<?xml version="1.0" encoding="UTF-8" standalone="no"?>
<!DOCTYPE svg PUBLIC "-//W3C//DTD SVG 1.1//EN"
 "http://www.w3.org/Graphics/SVG/1.1/DTD/svg11.dtd">
<!-- Generated by graphviz version 2.38.0 (20140413.2041)
 -->
<!-- Title: mom_dynamics_legacy_split::step_mom_dyn_legacy_split Pages: 1 -->
<svg width="809pt" height="483pt"
 viewBox="0.00 0.00 809.00 482.50" xmlns="http://www.w3.org/2000/svg" xmlns:xlink="http://www.w3.org/1999/xlink">
<g id="graph0" class="graph" transform="scale(1 1) rotate(0) translate(4 478.5)">
<title>mom_dynamics_legacy_split::step_mom_dyn_legacy_split</title>
<polygon fill="white" stroke="none" points="-4,4 -4,-478.5 805,-478.5 805,4 -4,4"/>
<!-- Node10 -->
<g id="node1" class="node"><title>Node10</title>
<polygon fill="#bfbfbf" stroke="black" points="0,-191 0,-232 119,-232 119,-191 0,-191"/>
<text text-anchor="start" x="8" y="-220" font-family="Helvetica,sans-Serif" font-size="10.00">mom_dynamics_legacy</text>
<text text-anchor="start" x="8" y="-209" font-family="Helvetica,sans-Serif" font-size="10.00">_split::step_mom_dyn</text>
<text text-anchor="middle" x="59.5" y="-198" font-family="Helvetica,sans-Serif" font-size="10.00">_legacy_split</text>
</g>
<!-- Node11 -->
<g id="node2" class="node"><title>Node11</title>
<g id="a_node2"><a xlink:href="../../dd/da4/namespacemom__continuity.html#a483dba08c6a9574d7fe814cadccd870e" target="_top" xlink:title="Time steps the layer thicknesses, using a monotonically limited, directionally split PPM scheme...">
<polygon fill="white" stroke="black" points="348,-455 348,-474 482,-474 482,-455 348,-455"/>
<text text-anchor="middle" x="415" y="-462" font-family="Helvetica,sans-Serif" font-size="10.00">mom_continuity::continuity</text>
</a>
</g>
</g>
<!-- Node10&#45;&gt;Node11 -->
<g id="edge1" class="edge"><title>Node10&#45;&gt;Node11</title>
<path fill="none" stroke="midnightblue" d="M64.2626,-232.11C72.7595,-272.463 97.3667,-361.926 155,-407.5 206.763,-448.432 281.751,-461.397 337.732,-464.881"/>
<polygon fill="midnightblue" stroke="midnightblue" points="337.782,-468.389 347.954,-465.426 338.154,-461.399 337.782,-468.389"/>
</g>
<!-- Node14 -->
<g id="node5" class="node"><title>Node14</title>
<g id="a_node5"><a xlink:href="../../d8/dd2/namespacemom__coriolisadv.html#a48e46860dad5118d78c8cd7de964e71f" target="_top" xlink:title="Calculates the Coriolis and momentum advection contributions to the acceleration. ...">
<polygon fill="white" stroke="black" points="164.5,-379 164.5,-398 302.5,-398 302.5,-379 164.5,-379"/>
<text text-anchor="middle" x="233.5" y="-386" font-family="Helvetica,sans-Serif" font-size="10.00">mom_coriolisadv::coradcalc</text>
</a>
</g>
</g>
<!-- Node10&#45;&gt;Node14 -->
<g id="edge4" class="edge"><title>Node10&#45;&gt;Node14</title>
<path fill="none" stroke="midnightblue" d="M79.4295,-232.249C98.3279,-252.84 128.321,-285.187 155,-312.5 175.184,-333.163 198.982,-356.329 214.83,-371.592"/>
<polygon fill="midnightblue" stroke="midnightblue" points="212.695,-374.394 222.331,-378.798 217.544,-369.346 212.695,-374.394"/>
</g>
<!-- Node16 -->
<g id="node7" class="node"><title>Node16</title>
<g id="a_node7"><a xlink:href="../../d5/d65/namespacemom__legacy__barotropic.html#aaa2063f7d7fbe940bc5bd80117befaed" target="_top" xlink:title="mom_legacy_barotropic\l::legacy_set_dtbt">
<polygon fill="white" stroke="black" points="173.5,-196.5 173.5,-226.5 293.5,-226.5 293.5,-196.5 173.5,-196.5"/>
<text text-anchor="start" x="181.5" y="-214.5" font-family="Helvetica,sans-Serif" font-size="10.00">mom_legacy_barotropic</text>
<text text-anchor="middle" x="233.5" y="-203.5" font-family="Helvetica,sans-Serif" font-size="10.00">::legacy_set_dtbt</text>
</a>
</g>
</g>
<!-- Node10&#45;&gt;Node16 -->
<g id="edge7" class="edge"><title>Node10&#45;&gt;Node16</title>
<path fill="none" stroke="midnightblue" d="M119.212,-211.5C133.444,-211.5 148.79,-211.5 163.451,-211.5"/>
<polygon fill="midnightblue" stroke="midnightblue" points="163.469,-215 173.469,-211.5 163.469,-208 163.469,-215"/>
</g>
<!-- Node19 -->
<g id="node10" class="node"><title>Node19</title>
<g id="a_node10"><a xlink:href="../../d5/dd7/namespacemom__checksum__packages.html#aa747a7aaa0315492d180b4514f5c70e0" target="_top" xlink:title="mom_checksum_packages\l::mom_accel_chksum">
<polygon fill="white" stroke="black" points="165.5,-147.5 165.5,-177.5 301.5,-177.5 301.5,-147.5 165.5,-147.5"/>
<text text-anchor="start" x="173.5" y="-165.5" font-family="Helvetica,sans-Serif" font-size="10.00">mom_checksum_packages</text>
<text text-anchor="middle" x="233.5" y="-154.5" font-family="Helvetica,sans-Serif" font-size="10.00">::mom_accel_chksum</text>
</a>
</g>
</g>
<!-- Node10&#45;&gt;Node19 -->
<g id="edge10" class="edge"><title>Node10&#45;&gt;Node19</title>
<path fill="none" stroke="midnightblue" d="M119.212,-194.774C135.645,-190.092 153.561,-184.988 170.194,-180.25"/>
<polygon fill="midnightblue" stroke="midnightblue" points="171.16,-183.614 179.819,-177.508 169.243,-176.882 171.16,-183.614"/>
</g>
<!-- Node20 -->
<g id="node11" class="node"><title>Node20</title>
<g id="a_node11"><a xlink:href="../../d6/d5c/namespacemom__pressureforce.html#a9f010455182eeaa61c9f01caff250bf8" target="_top" xlink:title="mom_pressureforce::\lpressureforce">
<polygon fill="white" stroke="black" points="179,-98.5 179,-128.5 288,-128.5 288,-98.5 179,-98.5"/>
<text text-anchor="start" x="187" y="-116.5" font-family="Helvetica,sans-Serif" font-size="10.00">mom_pressureforce::</text>
<text text-anchor="middle" x="233.5" y="-105.5" font-family="Helvetica,sans-Serif" font-size="10.00">pressureforce</text>
</a>
</g>
</g>
<!-- Node10&#45;&gt;Node20 -->
<g id="edge11" class="edge"><title>Node10&#45;&gt;Node20</title>
<path fill="none" stroke="midnightblue" d="M82.1778,-190.739C100.363,-174.303 127.678,-151.805 155,-137.5 159.562,-135.111 164.402,-132.915 169.348,-130.906"/>
<polygon fill="midnightblue" stroke="midnightblue" points="170.832,-134.086 178.942,-127.269 168.351,-127.541 170.832,-134.086"/>
</g>
<!-- Node21 -->
<g id="node12" class="node"><title>Node21</title>
<g id="a_node12"><a xlink:href="../../de/ddd/namespacemom__open__boundary.html#a9f7df34215db2d41027191be30ba90d1" target="_top" xlink:title="Apply radiation conditions to 3D u,v (,h) at open boundaries. ">
<polygon fill="white" stroke="black" points="166,-49.5 166,-79.5 301,-79.5 301,-49.5 166,-49.5"/>
<text text-anchor="start" x="174" y="-67.5" font-family="Helvetica,sans-Serif" font-size="10.00">mom_open_boundary::</text>
<text text-anchor="middle" x="233.5" y="-56.5" font-family="Helvetica,sans-Serif" font-size="10.00">radiation_open_bdry_conds</text>
</a>
</g>
</g>
<!-- Node10&#45;&gt;Node21 -->
<g id="edge12" class="edge"><title>Node10&#45;&gt;Node21</title>
<path fill="none" stroke="midnightblue" d="M71.0209,-190.904C86.0207,-163.558 116.099,-115.573 155,-88.5 157.253,-86.9323 159.611,-85.4642 162.047,-84.0897"/>
<polygon fill="midnightblue" stroke="midnightblue" points="163.789,-87.1313 171.15,-79.5108 160.643,-80.8778 163.789,-87.1313"/>
</g>
<!-- Node22 -->
<g id="node13" class="node"><title>Node22</title>
<g id="a_node13"><a xlink:href="../../d6/d5d/namespacemom__set__visc.html#a9e73d0338646bb91d14b78e86f6e3886" target="_top" xlink:title="mom_set_visc::set_viscous_bbl">
<polygon fill="white" stroke="black" points="155,-284 155,-303 312,-303 312,-284 155,-284"/>
<text text-anchor="middle" x="233.5" y="-291" font-family="Helvetica,sans-Serif" font-size="10.00">mom_set_visc::set_viscous_bbl</text>
</a>
</g>
</g>
<!-- Node10&#45;&gt;Node22 -->
<g id="edge13" class="edge"><title>Node10&#45;&gt;Node22</title>
<path fill="none" stroke="midnightblue" d="M85.9519,-232.037C104.206,-245.844 129.91,-263.469 155,-274.5 160.659,-276.988 166.7,-279.186 172.818,-281.119"/>
<polygon fill="midnightblue" stroke="midnightblue" points="171.871,-284.489 182.452,-283.944 173.84,-277.772 171.871,-284.489"/>
</g>
<!-- Node29 -->
<g id="node20" class="node"><title>Node29</title>
<g id="a_node20"><a xlink:href="../../d6/d5d/namespacemom__set__visc.html#afa97c345f1c4caaaf53b039d0b3fc9d8" target="_top" xlink:title="mom_set_visc::set_viscous_ml">
<polygon fill="white" stroke="black" points="156,-246 156,-265 311,-265 311,-246 156,-246"/>
<text text-anchor="middle" x="233.5" y="-253" font-family="Helvetica,sans-Serif" font-size="10.00">mom_set_visc::set_viscous_ml</text>
</a>
</g>
</g>
<!-- Node10&#45;&gt;Node29 -->
<g id="edge22" class="edge"><title>Node10&#45;&gt;Node29</title>
<path fill="none" stroke="midnightblue" d="M119.212,-226.519C140.873,-232.06 165.11,-238.261 185.591,-243.5"/>
<polygon fill="midnightblue" stroke="midnightblue" points="184.76,-246.9 195.315,-245.988 186.495,-240.118 184.76,-246.9"/>
</g>
<!-- Node30 -->
<g id="node21" class="node"><title>Node30</title>
<g id="a_node21"><a xlink:href="../../da/d9f/namespacemom__boundary__update.html#a6090ba327f68ee8e217f2773cdd2e8f7" target="_top" xlink:title="Calls appropriate routine to update the open boundary conditions. ">
<polygon fill="white" stroke="black" points="174.5,-0.5 174.5,-30.5 292.5,-30.5 292.5,-0.5 174.5,-0.5"/>
<text text-anchor="start" x="182.5" y="-18.5" font-family="Helvetica,sans-Serif" font-size="10.00">mom_boundary_update</text>
<text text-anchor="middle" x="233.5" y="-7.5" font-family="Helvetica,sans-Serif" font-size="10.00">::update_obc_data</text>
</a>
</g>
</g>
<!-- Node10&#45;&gt;Node30 -->
<g id="edge27" class="edge"><title>Node10&#45;&gt;Node30</title>
<path fill="none" stroke="midnightblue" d="M66.19,-190.974C77.2286,-154.952 104.973,-80.3163 155,-39.5 158.104,-36.9678 161.474,-34.7021 165.014,-32.6748"/>
<polygon fill="midnightblue" stroke="midnightblue" points="166.738,-35.7253 174.105,-28.1108 163.598,-29.4693 166.738,-35.7253"/>
</g>
<!-- Node12 -->
<g id="node3" class="node"><title>Node12</title>
<g id="a_node3"><a xlink:href="../../d0/de6/namespacemom__error__handler.html#a460cfb79a06c29fc249952c2a3710d67" target="_top" xlink:title="mom_error_handler::\lmom_error">
<polygon fill="white" stroke="black" points="535.5,-335.5 535.5,-365.5 641.5,-365.5 641.5,-335.5 535.5,-335.5"/>
<text text-anchor="start" x="543.5" y="-353.5" font-family="Helvetica,sans-Serif" font-size="10.00">mom_error_handler::</text>
<text text-anchor="middle" x="588.5" y="-342.5" font-family="Helvetica,sans-Serif" font-size="10.00">mom_error</text>
</a>
</g>
</g>
<!-- Node11&#45;&gt;Node12 -->
<g id="edge2" class="edge"><title>Node11&#45;&gt;Node12</title>
<path fill="none" stroke="midnightblue" d="M459.731,-454.948C467.399,-452.432 475.119,-449.319 482,-445.5 516.015,-426.621 548.19,-394.909 567.864,-373.365"/>
<polygon fill="midnightblue" stroke="midnightblue" points="570.705,-375.438 574.77,-365.654 565.491,-370.768 570.705,-375.438"/>
</g>
<!-- Node13 -->
<g id="node4" class="node"><title>Node13</title>
<g id="a_node4"><a xlink:href="../../d0/de6/namespacemom__error__handler.html#ad5f00a53059c72fe2332d1436c80ca71" target="_top" xlink:title="mom_error_handler::\lis_root_pe">
<polygon fill="white" stroke="black" points="695,-335.5 695,-365.5 801,-365.5 801,-335.5 695,-335.5"/>
<text text-anchor="start" x="703" y="-353.5" font-family="Helvetica,sans-Serif" font-size="10.00">mom_error_handler::</text>
<text text-anchor="middle" x="748" y="-342.5" font-family="Helvetica,sans-Serif" font-size="10.00">is_root_pe</text>
</a>
</g>
</g>
<!-- Node12&#45;&gt;Node13 -->
<g id="edge3" class="edge"><title>Node12&#45;&gt;Node13</title>
<path fill="none" stroke="midnightblue" d="M641.508,-350.5C655.279,-350.5 670.289,-350.5 684.552,-350.5"/>
<polygon fill="midnightblue" stroke="midnightblue" points="684.778,-354 694.778,-350.5 684.778,-347 684.778,-354"/>
</g>
<!-- Node14&#45;&gt;Node12 -->
<g id="edge6" class="edge"><title>Node14&#45;&gt;Node12</title>
<path fill="none" stroke="midnightblue" d="M302.588,-382.549C352.343,-378.041 421.42,-371.455 482,-364.5 496.032,-362.889 511.092,-360.992 525.313,-359.123"/>
<polygon fill="midnightblue" stroke="midnightblue" points="526.042,-362.557 535.494,-357.772 525.121,-355.618 526.042,-362.557"/>
</g>
<!-- Node15 -->
<g id="node6" class="node"><title>Node15</title>
<g id="a_node6"><a xlink:href="../../d8/dd2/namespacemom__coriolisadv.html#a9f9fa1eb1086659158a0dd85bfdea182" target="_top" xlink:title="Calculates the acceleration due to the gradient of kinetic energy. ">
<polygon fill="white" stroke="black" points="352.5,-417 352.5,-436 477.5,-436 477.5,-417 352.5,-417"/>
<text text-anchor="middle" x="415" y="-424" font-family="Helvetica,sans-Serif" font-size="10.00">mom_coriolisadv::gradke</text>
</a>
</g>
</g>
<!-- Node14&#45;&gt;Node15 -->
<g id="edge5" class="edge"><title>Node14&#45;&gt;Node15</title>
<path fill="none" stroke="midnightblue" d="M279.795,-398.089C303.909,-403.194 333.751,-409.511 359.167,-414.892"/>
<polygon fill="midnightblue" stroke="midnightblue" points="358.522,-418.333 369.03,-416.98 359.972,-411.485 358.522,-418.333"/>
</g>
<!-- Node17 -->
<g id="node8" class="node"><title>Node17</title>
<g id="a_node8"><a xlink:href="../../d5/d65/namespacemom__legacy__barotropic.html#aa06249abf57a70498ab07eee534e5e52" target="_top" xlink:title="mom_legacy_barotropic\l::bt_cont_to_face_areas">
<polygon fill="white" stroke="black" points="354,-79.5 354,-109.5 476,-109.5 476,-79.5 354,-79.5"/>
<text text-anchor="start" x="362" y="-97.5" font-family="Helvetica,sans-Serif" font-size="10.00">mom_legacy_barotropic</text>
<text text-anchor="middle" x="415" y="-86.5" font-family="Helvetica,sans-Serif" font-size="10.00">::bt_cont_to_face_areas</text>
</a>
</g>
</g>
<!-- Node16&#45;&gt;Node17 -->
<g id="edge8" class="edge"><title>Node16&#45;&gt;Node17</title>
<path fill="none" stroke="midnightblue" d="M293.765,-197.813C300.328,-194.765 306.584,-191.043 312,-186.5 338.199,-164.523 322.209,-140.954 348,-118.5 349.483,-117.209 351.041,-115.986 352.658,-114.826"/>
<polygon fill="midnightblue" stroke="midnightblue" points="354.518,-117.791 361.173,-109.547 350.83,-111.842 354.518,-117.791"/>
</g>
<!-- Node18 -->
<g id="node9" class="node"><title>Node18</title>
<g id="a_node9"><a xlink:href="../../d5/d65/namespacemom__legacy__barotropic.html#ab334a4e8ef23ec6d784b24b6336d22f7" target="_top" xlink:title="mom_legacy_barotropic\l::find_face_areas">
<polygon fill="white" stroke="black" points="355,-128.5 355,-158.5 475,-158.5 475,-128.5 355,-128.5"/>
<text text-anchor="start" x="363" y="-146.5" font-family="Helvetica,sans-Serif" font-size="10.00">mom_legacy_barotropic</text>
<text text-anchor="middle" x="415" y="-135.5" font-family="Helvetica,sans-Serif" font-size="10.00">::find_face_areas</text>
</a>
</g>
</g>
<!-- Node16&#45;&gt;Node18 -->
<g id="edge9" class="edge"><title>Node16&#45;&gt;Node18</title>
<path fill="none" stroke="midnightblue" d="M285.407,-196.476C294.368,-193.437 303.532,-190.069 312,-186.5 328.672,-179.474 331.46,-174.831 348,-167.5 352.06,-165.701 356.3,-163.927 360.588,-162.209"/>
<polygon fill="midnightblue" stroke="midnightblue" points="361.948,-165.436 369.998,-158.548 359.409,-158.913 361.948,-165.436"/>
</g>
<!-- Node22&#45;&gt;Node12 -->
<g id="edge14" class="edge"><title>Node22&#45;&gt;Node12</title>
<path fill="none" stroke="midnightblue" d="M257.521,-303.059C280.135,-312.003 315.83,-324.941 348,-331.5 407.332,-343.596 476.391,-348.084 525.065,-349.702"/>
<polygon fill="midnightblue" stroke="midnightblue" points="525.03,-353.202 535.131,-350.005 525.241,-346.205 525.03,-353.202"/>
</g>
<!-- Node23 -->
<g id="node14" class="node"><title>Node23</title>
<g id="a_node14"><a xlink:href="../../d6/d5d/namespacemom__set__visc.html#a992756b5043feccdafd9580774373375" target="_top" xlink:title="mom_set_visc::set_v_at_u">
<polygon fill="white" stroke="black" points="348,-303 348,-322 482,-322 482,-303 348,-303"/>
<text text-anchor="middle" x="415" y="-310" font-family="Helvetica,sans-Serif" font-size="10.00">mom_set_visc::set_v_at_u</text>
</a>
</g>
</g>
<!-- Node22&#45;&gt;Node23 -->
<g id="edge15" class="edge"><title>Node22&#45;&gt;Node23</title>
<path fill="none" stroke="midnightblue" d="M312.187,-301.723C320.607,-302.614 329.172,-303.521 337.577,-304.411"/>
<polygon fill="midnightblue" stroke="midnightblue" points="337.417,-307.913 347.73,-305.485 338.154,-300.952 337.417,-307.913"/>
</g>
<!-- Node24 -->
<g id="node15" class="node"><title>Node24</title>
<g id="a_node15"><a xlink:href="../../d6/d5d/namespacemom__set__visc.html#a08eb74fc6d027dd5ac6701f90e009370" target="_top" xlink:title="mom_set_visc::set_u_at_v">
<polygon fill="white" stroke="black" points="348,-265 348,-284 482,-284 482,-265 348,-265"/>
<text text-anchor="middle" x="415" y="-272" font-family="Helvetica,sans-Serif" font-size="10.00">mom_set_visc::set_u_at_v</text>
</a>
</g>
</g>
<!-- Node22&#45;&gt;Node24 -->
<g id="edge16" class="edge"><title>Node22&#45;&gt;Node24</title>
<path fill="none" stroke="midnightblue" d="M312.187,-285.277C320.607,-284.386 329.172,-283.479 337.577,-282.589"/>
<polygon fill="midnightblue" stroke="midnightblue" points="338.154,-286.048 347.73,-281.515 337.417,-279.087 338.154,-286.048"/>
</g>
<!-- Node25 -->
<g id="node16" class="node"><title>Node25</title>
<g id="a_node16"><a xlink:href="../../d1/d01/namespacemom__eos.html#a204529f8434a0322314e6ce2a9762436" target="_top" xlink:title="Calls the appropriate subroutine to calculate density derivatives for 1&#45;D array inputs. ">
<polygon fill="white" stroke="black" points="363,-177.5 363,-207.5 467,-207.5 467,-177.5 363,-177.5"/>
<text text-anchor="start" x="371" y="-195.5" font-family="Helvetica,sans-Serif" font-size="10.00">mom_eos::calculate</text>
<text text-anchor="middle" x="415" y="-184.5" font-family="Helvetica,sans-Serif" font-size="10.00">_density_derivs</text>
</a>
</g>
</g>
<!-- Node22&#45;&gt;Node25 -->
<g id="edge17" class="edge"><title>Node22&#45;&gt;Node25</title>
<path fill="none" stroke="midnightblue" d="M286.887,-283.976C295.508,-281.478 304.175,-278.365 312,-274.5 342.796,-259.289 372.789,-233.449 392.189,-214.837"/>
<polygon fill="midnightblue" stroke="midnightblue" points="394.882,-217.099 399.579,-207.602 389.985,-212.097 394.882,-217.099"/>
</g>
<!-- Node25&#45;&gt;Node12 -->
<g id="edge18" class="edge"><title>Node25&#45;&gt;Node12</title>
<path fill="none" stroke="midnightblue" d="M456.743,-207.506C465.507,-211.672 474.408,-216.68 482,-222.5 483.329,-223.519 538.468,-290.686 568.487,-327.3"/>
<polygon fill="midnightblue" stroke="midnightblue" points="566.136,-329.952 575.182,-335.466 571.549,-325.514 566.136,-329.952"/>
</g>
<!-- Node26 -->
<g id="node17" class="node"><title>Node26</title>
<g id="a_node17"><a xlink:href="../../d5/de6/namespacemom__eos__linear.html#a73d8a625582247379092adf1aeeb55e0" target="_top" xlink:title="mom_eos_linear::calculate\l_density_derivs_linear">
<polygon fill="white" stroke="black" points="522,-226.5 522,-256.5 655,-256.5 655,-226.5 522,-226.5"/>
<text text-anchor="start" x="530" y="-244.5" font-family="Helvetica,sans-Serif" font-size="10.00">mom_eos_linear::calculate</text>
<text text-anchor="middle" x="588.5" y="-233.5" font-family="Helvetica,sans-Serif" font-size="10.00">_density_derivs_linear</text>
</a>
</g>
</g>
<!-- Node25&#45;&gt;Node26 -->
<g id="edge19" class="edge"><title>Node25&#45;&gt;Node26</title>
<path fill="none" stroke="midnightblue" d="M467.456,-207.202C485.604,-212.387 506.206,-218.273 525.156,-223.687"/>
<polygon fill="midnightblue" stroke="midnightblue" points="524.317,-227.088 534.893,-226.47 526.24,-220.357 524.317,-227.088"/>
</g>
<!-- Node27 -->
<g id="node18" class="node"><title>Node27</title>
<g id="a_node18"><a xlink:href="../../dd/d6b/namespacemom__eos__unesco.html#af8666837abadea54c016bf59838f96cc" target="_top" xlink:title="mom_eos_unesco::calculate\l_density_derivs_unesco">
<polygon fill="white" stroke="black" points="518,-177.5 518,-207.5 659,-207.5 659,-177.5 518,-177.5"/>
<text text-anchor="start" x="526" y="-195.5" font-family="Helvetica,sans-Serif" font-size="10.00">mom_eos_unesco::calculate</text>
<text text-anchor="middle" x="588.5" y="-184.5" font-family="Helvetica,sans-Serif" font-size="10.00">_density_derivs_unesco</text>
</a>
</g>
</g>
<!-- Node25&#45;&gt;Node27 -->
<g id="edge20" class="edge"><title>Node25&#45;&gt;Node27</title>
<path fill="none" stroke="midnightblue" d="M467.456,-192.5C480.114,-192.5 493.966,-192.5 507.619,-192.5"/>
<polygon fill="midnightblue" stroke="midnightblue" points="507.997,-196 517.997,-192.5 507.997,-189 507.997,-196"/>
</g>
<!-- Node28 -->
<g id="node19" class="node"><title>Node28</title>
<g id="a_node19"><a xlink:href="../../de/d76/namespacemom__eos__wright.html#ad7748e85ddacb33ad90ec3a9017e6e72" target="_top" xlink:title="mom_eos_wright::calculate\l_density_derivs_wright">
<polygon fill="white" stroke="black" points="520.5,-128.5 520.5,-158.5 656.5,-158.5 656.5,-128.5 520.5,-128.5"/>
<text text-anchor="start" x="528.5" y="-146.5" font-family="Helvetica,sans-Serif" font-size="10.00">mom_eos_wright::calculate</text>
<text text-anchor="middle" x="588.5" y="-135.5" font-family="Helvetica,sans-Serif" font-size="10.00">_density_derivs_wright</text>
</a>
</g>
</g>
<!-- Node25&#45;&gt;Node28 -->
<g id="edge21" class="edge"><title>Node25&#45;&gt;Node28</title>
<path fill="none" stroke="midnightblue" d="M467.456,-177.798C485.604,-172.613 506.206,-166.727 525.156,-161.313"/>
<polygon fill="midnightblue" stroke="midnightblue" points="526.24,-164.643 534.893,-158.53 524.317,-157.912 526.24,-164.643"/>
</g>
<!-- Node29&#45;&gt;Node12 -->
<g id="edge23" class="edge"><title>Node29&#45;&gt;Node12</title>
<path fill="none" stroke="midnightblue" d="M280.533,-245.945C331.62,-237.481 415.611,-230.014 482,-255.5 519.298,-269.818 551.66,-304.091 570.383,-327.309"/>
<polygon fill="midnightblue" stroke="midnightblue" points="567.726,-329.592 576.648,-335.305 573.236,-325.275 567.726,-329.592"/>
</g>
<!-- Node29&#45;&gt;Node23 -->
<g id="edge25" class="edge"><title>Node29&#45;&gt;Node23</title>
<path fill="none" stroke="midnightblue" d="M281.376,-265.03C291.614,-267.652 302.287,-270.811 312,-274.5 328.913,-280.924 331.219,-286.74 348,-293.5 353.806,-295.839 360.007,-298.018 366.196,-300.004"/>
<polygon fill="midnightblue" stroke="midnightblue" points="365.267,-303.38 375.854,-302.961 367.317,-296.686 365.267,-303.38"/>
</g>
<!-- Node29&#45;&gt;Node24 -->
<g id="edge26" class="edge"><title>Node29&#45;&gt;Node24</title>
<path fill="none" stroke="midnightblue" d="M311.145,-263.613C319.911,-264.541 328.848,-265.487 337.611,-266.414"/>
<polygon fill="midnightblue" stroke="midnightblue" points="337.485,-269.92 347.798,-267.493 338.222,-262.959 337.485,-269.92"/>
</g>
<!-- Node29&#45;&gt;Node25 -->
<g id="edge24" class="edge"><title>Node29&#45;&gt;Node25</title>
<path fill="none" stroke="midnightblue" d="M276.257,-245.918C287.927,-242.918 300.547,-239.369 312,-235.5 332.156,-228.692 353.953,-219.731 372.204,-211.752"/>
<polygon fill="midnightblue" stroke="midnightblue" points="373.667,-214.932 381.397,-207.686 370.835,-208.53 373.667,-214.932"/>
</g>
<!-- Node31 -->
<g id="node22" class="node"><title>Node31</title>
<g id="a_node22"><a xlink:href="../../df/d67/namespacetidal__bay__initialization.html#a6626f241b69cf1d39b0cdf9a30f03032" target="_top" xlink:title="This subroutine sets the properties of flow at open boundary conditions. ">
<polygon fill="white" stroke="black" points="352.5,-0.5 352.5,-30.5 477.5,-30.5 477.5,-0.5 352.5,-0.5"/>
<text text-anchor="start" x="360.5" y="-18.5" font-family="Helvetica,sans-Serif" font-size="10.00">tidal_bay_initialization</text>
<text text-anchor="middle" x="415" y="-7.5" font-family="Helvetica,sans-Serif" font-size="10.00">::tidal_bay_set_obc_data</text>
</a>
</g>
</g>
<!-- Node30&#45;&gt;Node31 -->
<g id="edge28" class="edge"><title>Node30&#45;&gt;Node31</title>
<path fill="none" stroke="midnightblue" d="M292.779,-15.5C308.547,-15.5 325.798,-15.5 342.214,-15.5"/>
<polygon fill="midnightblue" stroke="midnightblue" points="342.307,-19.0001 352.307,-15.5 342.307,-12.0001 342.307,-19.0001"/>
</g>
</g>
</svg>
