<?xml version="1.0" encoding="UTF-8" standalone="no"?>
<!DOCTYPE svg PUBLIC "-//W3C//DTD SVG 1.1//EN"
 "http://www.w3.org/Graphics/SVG/1.1/DTD/svg11.dtd">
<!-- Generated by graphviz version 2.38.0 (20140413.2041)
 -->
<!-- Title: mom_string_functions::uppercase Pages: 1 -->
<svg width="1310pt" height="465pt"
 viewBox="0.00 0.00 1310.00 464.78" xmlns="http://www.w3.org/2000/svg" xmlns:xlink="http://www.w3.org/1999/xlink">
<g id="graph0" class="graph" transform="scale(1 1) rotate(0) translate(4 460.785)">
<title>mom_string_functions::uppercase</title>
<polygon fill="white" stroke="none" points="-4,4 -4,-460.785 1306,-460.785 1306,4 -4,4"/>
<!-- Node112 -->
<g id="node1" class="node"><title>Node112</title>
<polygon fill="#bfbfbf" stroke="black" points="0,-224.785 0,-254.785 113,-254.785 113,-224.785 0,-224.785"/>
<text text-anchor="start" x="8" y="-242.785" font-family="Helvetica,sans-Serif" font-size="10.00">mom_string_functions</text>
<text text-anchor="middle" x="56.5" y="-231.785" font-family="Helvetica,sans-Serif" font-size="10.00">::uppercase</text>
</g>
<!-- Node113 -->
<g id="node2" class="node"><title>Node113</title>
<g id="a_node2"><a xlink:href="../../dd/da4/namespacemom__continuity.html#aa08c4a80c95080ec4649e366f5bd3ae8" target="_top" xlink:title="Initializes continuity_cs. ">
<polygon fill="white" stroke="black" points="167,-437.285 167,-456.285 319,-456.285 319,-437.285 167,-437.285"/>
<text text-anchor="middle" x="243" y="-444.285" font-family="Helvetica,sans-Serif" font-size="10.00">mom_continuity::continuity_init</text>
</a>
</g>
</g>
<!-- Node112&#45;&gt;Node113 -->
<g id="edge1" class="edge"><title>Node112&#45;&gt;Node113</title>
<path fill="none" stroke="midnightblue" d="M62.2642,-264.756C71.4315,-305.611 95.5495,-386.329 149,-427.785 154.339,-431.926 160.353,-435.228 166.689,-437.853"/>
<polygon fill="midnightblue" stroke="midnightblue" points="65.6544,-263.871 60.1545,-254.815 58.8069,-265.324 65.6544,-263.871"/>
</g>
<!-- Node114 -->
<g id="node3" class="node"><title>Node114</title>
<g id="a_node3"><a xlink:href="../../d3/db5/namespaceregrid__consts.html#a06ccba5b7b038bed853606a315df306a" target="_top" xlink:title="Parse a string parameter specifying the coordinate mode and return the appropriate enumerated integer...">
<polygon fill="white" stroke="black" points="168,-399.285 168,-418.285 318,-418.285 318,-399.285 168,-399.285"/>
<text text-anchor="middle" x="243" y="-406.285" font-family="Helvetica,sans-Serif" font-size="10.00">regrid_consts::coordinatemode</text>
</a>
</g>
</g>
<!-- Node112&#45;&gt;Node114 -->
<g id="edge2" class="edge"><title>Node112&#45;&gt;Node114</title>
<path fill="none" stroke="midnightblue" d="M65.5096,-264.598C77.8001,-298.503 104.66,-358.643 149,-389.785 154.664,-393.763 160.973,-396.947 167.562,-399.491"/>
<polygon fill="midnightblue" stroke="midnightblue" points="68.7539,-263.272 62.1598,-254.979 62.1433,-265.574 68.7539,-263.272"/>
</g>
<!-- Node116 -->
<g id="node5" class="node"><title>Node116</title>
<g id="a_node5"><a xlink:href="../../d8/dd2/namespacemom__coriolisadv.html#ad3ce07f23ce7b484a5a9e0c0abe8b1cd" target="_top" xlink:title="Initializes the control structure for coriolisadv_cs. ">
<polygon fill="white" stroke="black" points="162.5,-361.285 162.5,-380.285 323.5,-380.285 323.5,-361.285 162.5,-361.285"/>
<text text-anchor="middle" x="243" y="-368.285" font-family="Helvetica,sans-Serif" font-size="10.00">mom_coriolisadv::coriolisadv_init</text>
</a>
</g>
</g>
<!-- Node112&#45;&gt;Node116 -->
<g id="edge4" class="edge"><title>Node112&#45;&gt;Node116</title>
<path fill="none" stroke="midnightblue" d="M70.3438,-263.747C85.5615,-289.701 113.403,-330.27 149,-351.785 155.347,-355.621 162.335,-358.695 169.545,-361.157"/>
<polygon fill="midnightblue" stroke="midnightblue" points="73.3034,-261.871 65.3175,-254.909 67.2185,-265.332 73.3034,-261.871"/>
</g>
<!-- Node117 -->
<g id="node6" class="node"><title>Node117</title>
<g id="a_node6"><a xlink:href="../../d1/d01/namespacemom__eos.html#a6686ef94d0db1f1dcfb4284ebfc2be88" target="_top" xlink:title="Initializes EOS_type by allocating and reading parameters. ">
<polygon fill="white" stroke="black" points="193.5,-323.285 193.5,-342.285 292.5,-342.285 292.5,-323.285 193.5,-323.285"/>
<text text-anchor="middle" x="243" y="-330.285" font-family="Helvetica,sans-Serif" font-size="10.00">mom_eos::eos_init</text>
</a>
</g>
</g>
<!-- Node112&#45;&gt;Node117 -->
<g id="edge5" class="edge"><title>Node112&#45;&gt;Node117</title>
<path fill="none" stroke="midnightblue" d="M78.8322,-262.091C96.1667,-278.875 122.081,-301.086 149,-313.785 162.712,-320.253 178.579,-324.526 193.282,-327.347"/>
<polygon fill="midnightblue" stroke="midnightblue" points="81.0626,-259.373 71.4986,-254.815 76.1324,-264.342 81.0626,-259.373"/>
</g>
<!-- Node121 -->
<g id="node10" class="node"><title>Node121</title>
<g id="a_node10"><a xlink:href="../../d7/d1b/namespacemom__regridding.html#a44ba264b71ed6239e0016708a0f58fe9" target="_top" xlink:title="Initialization of regridding. ">
<polygon fill="white" stroke="black" points="179.5,-273.785 179.5,-303.785 306.5,-303.785 306.5,-273.785 179.5,-273.785"/>
<text text-anchor="start" x="187.5" y="-291.785" font-family="Helvetica,sans-Serif" font-size="10.00">mom_regridding::initialize</text>
<text text-anchor="middle" x="243" y="-280.785" font-family="Helvetica,sans-Serif" font-size="10.00">_regridding</text>
</a>
</g>
</g>
<!-- Node112&#45;&gt;Node121 -->
<g id="edge9" class="edge"><title>Node112&#45;&gt;Node121</title>
<path fill="none" stroke="midnightblue" d="M121.917,-257.508C131.004,-259.973 140.234,-262.456 149,-264.785 159.959,-267.696 171.658,-270.754 182.93,-273.675"/>
<polygon fill="midnightblue" stroke="midnightblue" points="122.708,-254.096 112.14,-254.85 120.871,-260.851 122.708,-254.096"/>
</g>
<!-- Node122 -->
<g id="node11" class="node"><title>Node122</title>
<g id="a_node11"><a xlink:href="../../d5/dd4/namespaceocean__model__mod.html#aced9c77abd80a4a509c7cc317af707a7" target="_top" xlink:title="ocean_model_mod::ocean\l_model_init">
<polygon fill="white" stroke="black" points="177.5,-224.785 177.5,-254.785 308.5,-254.785 308.5,-224.785 177.5,-224.785"/>
<text text-anchor="start" x="185.5" y="-242.785" font-family="Helvetica,sans-Serif" font-size="10.00">ocean_model_mod::ocean</text>
<text text-anchor="middle" x="243" y="-231.785" font-family="Helvetica,sans-Serif" font-size="10.00">_model_init</text>
</a>
</g>
</g>
<!-- Node112&#45;&gt;Node122 -->
<g id="edge10" class="edge"><title>Node112&#45;&gt;Node122</title>
<path fill="none" stroke="midnightblue" d="M123.287,-239.785C140.889,-239.785 159.897,-239.785 177.433,-239.785"/>
<polygon fill="midnightblue" stroke="midnightblue" points="123.106,-236.285 113.106,-239.785 123.106,-243.285 123.106,-236.285"/>
</g>
<!-- Node123 -->
<g id="node12" class="node"><title>Node123</title>
<g id="a_node12"><a xlink:href="../../d7/dc9/namespacemom__shared__initialization.html#a49c0443c10514a0d5ce5d8df4d68bce8" target="_top" xlink:title="mom_shared_initialization\l::read_face_length_list">
<polygon fill="white" stroke="black" points="178.5,-175.785 178.5,-205.785 307.5,-205.785 307.5,-175.785 178.5,-175.785"/>
<text text-anchor="start" x="186.5" y="-193.785" font-family="Helvetica,sans-Serif" font-size="10.00">mom_shared_initialization</text>
<text text-anchor="middle" x="243" y="-182.785" font-family="Helvetica,sans-Serif" font-size="10.00">::read_face_length_list</text>
</a>
</g>
</g>
<!-- Node112&#45;&gt;Node123 -->
<g id="edge11" class="edge"><title>Node112&#45;&gt;Node123</title>
<path fill="none" stroke="midnightblue" d="M121.917,-222.062C131.004,-219.597 140.234,-217.113 149,-214.785 159.959,-211.874 171.658,-208.816 182.93,-205.895"/>
<polygon fill="midnightblue" stroke="midnightblue" points="120.871,-218.719 112.14,-224.72 122.708,-225.474 120.871,-218.719"/>
</g>
<!-- Node124 -->
<g id="node13" class="node"><title>Node124</title>
<g id="a_node13"><a xlink:href="../../d7/dc9/namespacemom__shared__initialization.html#a6e8080f56f3d751c7eac51a942f4fa9a" target="_top" xlink:title="mom_shared_initialization\l::reset_face_lengths_list">
<polygon fill="white" stroke="black" points="384.5,-166.785 384.5,-196.785 513.5,-196.785 513.5,-166.785 384.5,-166.785"/>
<text text-anchor="start" x="392.5" y="-184.785" font-family="Helvetica,sans-Serif" font-size="10.00">mom_shared_initialization</text>
<text text-anchor="middle" x="449" y="-173.785" font-family="Helvetica,sans-Serif" font-size="10.00">::reset_face_lengths_list</text>
</a>
</g>
</g>
<!-- Node112&#45;&gt;Node124 -->
<g id="edge13" class="edge"><title>Node112&#45;&gt;Node124</title>
<path fill="none" stroke="midnightblue" d="M77.2951,-216.874C94.2644,-199.117 120.439,-175.889 149,-165.785 230.72,-136.875 332.84,-152.416 394.112,-166.765"/>
<polygon fill="midnightblue" stroke="midnightblue" points="74.3885,-214.863 70.1706,-224.582 79.5288,-219.614 74.3885,-214.863"/>
</g>
<!-- Node125 -->
<g id="node14" class="node"><title>Node125</title>
<g id="a_node14"><a xlink:href="../../d6/d75/namespacemom__remapping.html#a41a89ac62578250500b7a450d5fdfae7" target="_top" xlink:title="Changes the method of reconstruction Use this routine to parse a string parameter specifying the reco...">
<polygon fill="white" stroke="black" points="149,-99.2849 149,-118.285 337,-118.285 337,-99.2849 149,-99.2849"/>
<text text-anchor="middle" x="243" y="-106.285" font-family="Helvetica,sans-Serif" font-size="10.00">mom_remapping::setreconstructiontype</text>
</a>
</g>
</g>
<!-- Node112&#45;&gt;Node125 -->
<g id="edge14" class="edge"><title>Node112&#45;&gt;Node125</title>
<path fill="none" stroke="midnightblue" d="M71.7841,-215.702C87.5976,-191.153 115.352,-153.784 149,-132.785 159.185,-126.428 170.998,-121.749 182.716,-118.306"/>
<polygon fill="midnightblue" stroke="midnightblue" points="68.6641,-214.09 66.3208,-224.422 74.596,-217.806 68.6641,-214.09"/>
</g>
<!-- Node137 -->
<g id="node26" class="node"><title>Node137</title>
<g id="a_node26"><a xlink:href="../../dc/ded/namespacemom__surface__forcing.html#a20f66a7798d7d28348dac1d2c690ce99" target="_top" xlink:title="mom_surface_forcing\l::wind_forcing_const">
<polygon fill="white" stroke="black" points="188,-49.7849 188,-79.7849 298,-79.7849 298,-49.7849 188,-49.7849"/>
<text text-anchor="start" x="196" y="-67.7849" font-family="Helvetica,sans-Serif" font-size="10.00">mom_surface_forcing</text>
<text text-anchor="middle" x="243" y="-56.7849" font-family="Helvetica,sans-Serif" font-size="10.00">::wind_forcing_const</text>
</a>
</g>
</g>
<!-- Node112&#45;&gt;Node137 -->
<g id="edge27" class="edge"><title>Node112&#45;&gt;Node137</title>
<path fill="none" stroke="midnightblue" d="M65.9769,-214.834C78.6733,-181.279 105.853,-122.1 149,-89.7849 160.241,-81.366 174.118,-75.7804 187.691,-72.0751"/>
<polygon fill="midnightblue" stroke="midnightblue" points="62.6384,-213.773 62.5,-224.367 69.2147,-216.172 62.6384,-213.773"/>
</g>
<!-- Node138 -->
<g id="node27" class="node"><title>Node138</title>
<g id="a_node27"><a xlink:href="../../dc/ded/namespacemom__surface__forcing.html#a3c2efab8f262459aa7de2c592d1a3b1e" target="_top" xlink:title="mom_surface_forcing\l::wind_forcing_from_file">
<polygon fill="white" stroke="black" points="389,-5.78487 389,-35.7849 509,-35.7849 509,-5.78487 389,-5.78487"/>
<text text-anchor="start" x="397" y="-23.7849" font-family="Helvetica,sans-Serif" font-size="10.00">mom_surface_forcing</text>
<text text-anchor="middle" x="449" y="-12.7849" font-family="Helvetica,sans-Serif" font-size="10.00">::wind_forcing_from_file</text>
</a>
</g>
</g>
<!-- Node112&#45;&gt;Node138 -->
<g id="edge28" class="edge"><title>Node112&#45;&gt;Node138</title>
<path fill="none" stroke="midnightblue" d="M60.7534,-214.573C67.9043,-170.629 89.4039,-80.7839 149,-39.7849 219.922,9.00568 324.109,2.65248 388.909,-7.93696"/>
<polygon fill="midnightblue" stroke="midnightblue" points="57.2568,-214.29 59.2301,-224.699 64.1789,-215.331 57.2568,-214.29"/>
</g>
<!-- Node115 -->
<g id="node4" class="node"><title>Node115</title>
<g id="a_node4"><a xlink:href="../../d3/db5/namespaceregrid__consts.html#abb7bad7b33524d0373426750c48cb1c6" target="_top" xlink:title="Returns a string with the coordinate units associated with the string defining the coordinate mode...">
<polygon fill="white" stroke="black" points="373,-399.285 373,-418.285 525,-418.285 525,-399.285 373,-399.285"/>
<text text-anchor="middle" x="449" y="-406.285" font-family="Helvetica,sans-Serif" font-size="10.00">regrid_consts::coordinateunitss</text>
</a>
</g>
</g>
<!-- Node114&#45;&gt;Node115 -->
<g id="edge3" class="edge"><title>Node114&#45;&gt;Node115</title>
<path fill="none" stroke="midnightblue" d="M328.335,-408.785C343.078,-408.785 358.328,-408.785 372.803,-408.785"/>
<polygon fill="midnightblue" stroke="midnightblue" points="328.226,-405.285 318.226,-408.785 328.226,-412.285 328.226,-405.285"/>
</g>
<!-- Node118 -->
<g id="node7" class="node"><title>Node118</title>
<g id="a_node7"><a xlink:href="../../df/da2/namespacemom__ice__shelf.html#ae315e8464ef8a20062e3bccb61886755" target="_top" xlink:title="mom_ice_shelf::initialize\l_ice_shelf">
<polygon fill="white" stroke="black" points="387,-274.785 387,-304.785 511,-304.785 511,-274.785 387,-274.785"/>
<text text-anchor="start" x="395" y="-292.785" font-family="Helvetica,sans-Serif" font-size="10.00">mom_ice_shelf::initialize</text>
<text text-anchor="middle" x="449" y="-281.785" font-family="Helvetica,sans-Serif" font-size="10.00">_ice_shelf</text>
</a>
</g>
</g>
<!-- Node117&#45;&gt;Node118 -->
<g id="edge6" class="edge"><title>Node117&#45;&gt;Node118</title>
<path fill="none" stroke="midnightblue" d="M301.135,-321.219C312.996,-318.788 325.409,-316.222 337,-313.785 353.207,-310.377 370.729,-306.622 386.959,-303.114"/>
<polygon fill="midnightblue" stroke="midnightblue" points="300.429,-317.791 291.333,-323.223 301.832,-324.649 300.429,-317.791"/>
</g>
<!-- Node119 -->
<g id="node8" class="node"><title>Node119</title>
<g id="a_node8"><a xlink:href="../../de/dbc/MOM__driver_8F90.html#a08fffeb2d8e8acbf9ed4609be6d258c6" target="_top" xlink:title="mom_main">
<polygon fill="white" stroke="black" points="1237,-148.285 1237,-167.285 1302,-167.285 1302,-148.285 1237,-148.285"/>
<text text-anchor="middle" x="1269.5" y="-155.285" font-family="Helvetica,sans-Serif" font-size="10.00">mom_main</text>
</a>
</g>
</g>
<!-- Node118&#45;&gt;Node119 -->
<g id="edge7" class="edge"><title>Node118&#45;&gt;Node119</title>
<path fill="none" stroke="midnightblue" d="M521.277,-289.785C591.233,-289.785 700.959,-289.785 796,-289.785 796,-289.785 796,-289.785 974,-289.785 1078.58,-289.785 1111.03,-281.115 1201,-227.785 1227.72,-211.945 1250.9,-182.713 1261.83,-167.523"/>
<polygon fill="midnightblue" stroke="midnightblue" points="521.251,-286.285 511.251,-289.785 521.251,-293.285 521.251,-286.285"/>
</g>
<!-- Node120 -->
<g id="node9" class="node"><title>Node120</title>
<g id="a_node9"><a xlink:href="../../d5/d6d/ice__shelf__driver_8F90.html#aec5bef92f0dad343f545cd8d62e378d8" target="_top" xlink:title="shelf_main">
<polygon fill="white" stroke="black" points="594,-242.285 594,-261.285 658,-261.285 658,-242.285 594,-242.285"/>
<text text-anchor="middle" x="626" y="-249.285" font-family="Helvetica,sans-Serif" font-size="10.00">shelf_main</text>
</a>
</g>
</g>
<!-- Node118&#45;&gt;Node120 -->
<g id="edge8" class="edge"><title>Node118&#45;&gt;Node120</title>
<path fill="none" stroke="midnightblue" d="M521.119,-274.342C546.31,-268.872 573.379,-262.994 593.568,-258.61"/>
<polygon fill="midnightblue" stroke="midnightblue" points="520.236,-270.952 511.207,-276.494 521.721,-277.793 520.236,-270.952"/>
</g>
<!-- Node123&#45;&gt;Node124 -->
<g id="edge12" class="edge"><title>Node123&#45;&gt;Node124</title>
<path fill="none" stroke="midnightblue" d="M317.904,-187.524C339.695,-186.563 363.343,-185.52 384.425,-184.59"/>
<polygon fill="midnightblue" stroke="midnightblue" points="317.544,-184.037 307.708,-187.974 317.852,-191.03 317.544,-184.037"/>
</g>
<!-- Node126 -->
<g id="node15" class="node"><title>Node126</title>
<g id="a_node15"><a xlink:href="../../d6/d75/namespacemom__remapping.html#a9e811f89c505a4416ea0eec315769801" target="_top" xlink:title="Set parameters within remapping object. ">
<polygon fill="white" stroke="black" points="379,-101.785 379,-131.785 519,-131.785 519,-101.785 379,-101.785"/>
<text text-anchor="start" x="387" y="-119.785" font-family="Helvetica,sans-Serif" font-size="10.00">mom_remapping::remapping</text>
<text text-anchor="middle" x="449" y="-108.785" font-family="Helvetica,sans-Serif" font-size="10.00">_set_param</text>
</a>
</g>
</g>
<!-- Node125&#45;&gt;Node126 -->
<g id="edge15" class="edge"><title>Node125&#45;&gt;Node126</title>
<path fill="none" stroke="midnightblue" d="M347.301,-112.836C358.008,-113.256 368.696,-113.675 378.893,-114.075"/>
<polygon fill="midnightblue" stroke="midnightblue" points="347.175,-109.328 337.045,-112.434 346.901,-116.323 347.175,-109.328"/>
</g>
<!-- Node127 -->
<g id="node16" class="node"><title>Node127</title>
<g id="a_node16"><a xlink:href="../../d6/d75/namespacemom__remapping.html#a6847e0c44ccb54fb72587677f90d95b6" target="_top" xlink:title="Constructor for remapping control structure. ">
<polygon fill="white" stroke="black" points="561,-123.785 561,-153.785 691,-153.785 691,-123.785 561,-123.785"/>
<text text-anchor="start" x="569" y="-141.785" font-family="Helvetica,sans-Serif" font-size="10.00">mom_remapping::initialize</text>
<text text-anchor="middle" x="626" y="-130.785" font-family="Helvetica,sans-Serif" font-size="10.00">_remapping</text>
</a>
</g>
</g>
<!-- Node126&#45;&gt;Node127 -->
<g id="edge16" class="edge"><title>Node126&#45;&gt;Node127</title>
<path fill="none" stroke="midnightblue" d="M529.251,-126.748C539.845,-128.08 550.602,-129.432 560.892,-130.726"/>
<polygon fill="midnightblue" stroke="midnightblue" points="529.523,-123.255 519.165,-125.48 528.65,-130.2 529.523,-123.255"/>
</g>
<!-- Node128 -->
<g id="node17" class="node"><title>Node128</title>
<g id="a_node17"><a xlink:href="../../de/dd7/namespacemom__ale__sponge.html#a135d5ca4d0dff789bc6db5ac789b4142" target="_top" xlink:title="This subroutine determines the number of points which are within. ">
<polygon fill="white" stroke="black" points="730,-188.785 730,-218.785 864,-218.785 864,-188.785 730,-188.785"/>
<text text-anchor="start" x="738" y="-206.785" font-family="Helvetica,sans-Serif" font-size="10.00">mom_ale_sponge::initialize</text>
<text text-anchor="middle" x="797" y="-195.785" font-family="Helvetica,sans-Serif" font-size="10.00">_ale_sponge</text>
</a>
</g>
</g>
<!-- Node127&#45;&gt;Node128 -->
<g id="edge17" class="edge"><title>Node127&#45;&gt;Node128</title>
<path fill="none" stroke="midnightblue" d="M673.522,-157.762C690.327,-164.52 709.472,-172.106 727,-178.785 735.572,-182.051 744.781,-185.458 753.589,-188.667"/>
<polygon fill="midnightblue" stroke="midnightblue" points="674.512,-154.388 663.929,-153.893 671.893,-160.88 674.512,-154.388"/>
</g>
<!-- Node131 -->
<g id="node20" class="node"><title>Node131</title>
<g id="a_node20"><a xlink:href="../../d6/d75/namespacemom__remapping.html#a8a79c37c89f8b800f79198aceca5f090" target="_top" xlink:title="Runs unit tests on remapping functions. Should only be called from a single/root thread Returns True ...">
<polygon fill="white" stroke="black" points="727,-139.785 727,-169.785 867,-169.785 867,-139.785 727,-139.785"/>
<text text-anchor="start" x="735" y="-157.785" font-family="Helvetica,sans-Serif" font-size="10.00">mom_remapping::remapping</text>
<text text-anchor="middle" x="797" y="-146.785" font-family="Helvetica,sans-Serif" font-size="10.00">_unit_tests</text>
</a>
</g>
</g>
<!-- Node127&#45;&gt;Node131 -->
<g id="edge20" class="edge"><title>Node127&#45;&gt;Node131</title>
<path fill="none" stroke="midnightblue" d="M701.516,-145.84C709.903,-146.634 718.423,-147.44 726.739,-148.228"/>
<polygon fill="midnightblue" stroke="midnightblue" points="701.659,-142.338 691.374,-144.879 700.999,-149.306 701.659,-142.338"/>
</g>
<!-- Node134 -->
<g id="node23" class="node"><title>Node134</title>
<g id="a_node23"><a xlink:href="../../dd/d33/namespacemom__wave__speed.html#a46e21529ec8098b0b19053afa133b971" target="_top" xlink:title="Initialize control structure for MOM_wave_speed. ">
<polygon fill="white" stroke="black" points="733,-90.7849 733,-120.785 861,-120.785 861,-90.7849 733,-90.7849"/>
<text text-anchor="start" x="741" y="-108.785" font-family="Helvetica,sans-Serif" font-size="10.00">mom_wave_speed::wave</text>
<text text-anchor="middle" x="797" y="-97.7849" font-family="Helvetica,sans-Serif" font-size="10.00">_speed_init</text>
</a>
</g>
</g>
<!-- Node127&#45;&gt;Node134 -->
<g id="edge24" class="edge"><title>Node127&#45;&gt;Node134</title>
<path fill="none" stroke="midnightblue" d="M701.377,-124.261C711.902,-122.206 722.639,-120.11 732.922,-118.102"/>
<polygon fill="midnightblue" stroke="midnightblue" points="700.518,-120.863 691.374,-126.215 701.859,-127.733 700.518,-120.863"/>
</g>
<!-- Node129 -->
<g id="node18" class="node"><title>Node129</title>
<g id="a_node18"><a xlink:href="../../da/d77/namespacedome2d__initialization.html#ab0df2b602fe1c83baa66ba03cc2c6dd4" target="_top" xlink:title="Set up sponges in 2d DOME configuration. ">
<polygon fill="white" stroke="black" points="903,-188.785 903,-218.785 1043,-218.785 1043,-188.785 903,-188.785"/>
<text text-anchor="start" x="911" y="-206.785" font-family="Helvetica,sans-Serif" font-size="10.00">dome2d_initialization</text>
<text text-anchor="middle" x="973" y="-195.785" font-family="Helvetica,sans-Serif" font-size="10.00">::dome2d_initialize_sponges</text>
</a>
</g>
</g>
<!-- Node128&#45;&gt;Node129 -->
<g id="edge18" class="edge"><title>Node128&#45;&gt;Node129</title>
<path fill="none" stroke="midnightblue" d="M874.413,-203.785C883.832,-203.785 893.42,-203.785 902.726,-203.785"/>
<polygon fill="midnightblue" stroke="midnightblue" points="874.278,-200.285 864.278,-203.785 874.278,-207.285 874.278,-200.285"/>
</g>
<!-- Node130 -->
<g id="node19" class="node"><title>Node130</title>
<g id="a_node19"><a xlink:href="../../d6/d62/namespacemom__state__initialization.html#af4e854627c6572332ba3fd895f169321" target="_top" xlink:title="mom_state_initialization\l::mom_initialize_state">
<polygon fill="white" stroke="black" points="1079,-188.785 1079,-218.785 1201,-218.785 1201,-188.785 1079,-188.785"/>
<text text-anchor="start" x="1087" y="-206.785" font-family="Helvetica,sans-Serif" font-size="10.00">mom_state_initialization</text>
<text text-anchor="middle" x="1140" y="-195.785" font-family="Helvetica,sans-Serif" font-size="10.00">::mom_initialize_state</text>
</a>
</g>
</g>
<!-- Node129&#45;&gt;Node130 -->
<g id="edge19" class="edge"><title>Node129&#45;&gt;Node130</title>
<path fill="none" stroke="midnightblue" d="M1053.15,-203.785C1061.81,-203.785 1070.53,-203.785 1078.91,-203.785"/>
<polygon fill="midnightblue" stroke="midnightblue" points="1053.02,-200.285 1043.02,-203.785 1053.02,-207.285 1053.02,-200.285"/>
</g>
<!-- Node132 -->
<g id="node21" class="node"><title>Node132</title>
<g id="a_node21"><a xlink:href="../../da/d01/namespacemom.html#ae77cfd2e790f1266b31d93c58659d46c" target="_top" xlink:title="Calls unit tests for other modules. These are NOT normally invoked and so we provide the module use s...">
<polygon fill="white" stroke="black" points="929.5,-148.285 929.5,-167.285 1016.5,-167.285 1016.5,-148.285 929.5,-148.285"/>
<text text-anchor="middle" x="973" y="-155.285" font-family="Helvetica,sans-Serif" font-size="10.00">mom::unit_tests</text>
</a>
</g>
</g>
<!-- Node131&#45;&gt;Node132 -->
<g id="edge21" class="edge"><title>Node131&#45;&gt;Node132</title>
<path fill="none" stroke="midnightblue" d="M877.231,-156.151C895.205,-156.461 913.624,-156.778 929.387,-157.05"/>
<polygon fill="midnightblue" stroke="midnightblue" points="877.078,-152.648 867.019,-155.975 876.957,-159.647 877.078,-152.648"/>
</g>
<!-- Node133 -->
<g id="node22" class="node"><title>Node133</title>
<g id="a_node22"><a xlink:href="../../da/d01/namespacemom.html#a0be2869fef30e1e0604facfe1b41555d" target="_top" xlink:title="This subroutine initializes MOM. ">
<polygon fill="white" stroke="black" points="1086.5,-148.285 1086.5,-167.285 1193.5,-167.285 1193.5,-148.285 1086.5,-148.285"/>
<text text-anchor="middle" x="1140" y="-155.285" font-family="Helvetica,sans-Serif" font-size="10.00">mom::initialize_mom</text>
</a>
</g>
</g>
<!-- Node132&#45;&gt;Node133 -->
<g id="edge22" class="edge"><title>Node132&#45;&gt;Node133</title>
<path fill="none" stroke="midnightblue" d="M1027.16,-157.785C1046.09,-157.785 1067.38,-157.785 1086.27,-157.785"/>
<polygon fill="midnightblue" stroke="midnightblue" points="1026.92,-154.285 1016.92,-157.785 1026.92,-161.285 1026.92,-154.285"/>
</g>
<!-- Node133&#45;&gt;Node119 -->
<g id="edge23" class="edge"><title>Node133&#45;&gt;Node119</title>
<path fill="none" stroke="midnightblue" d="M1203.66,-157.785C1215.17,-157.785 1226.73,-157.785 1236.83,-157.785"/>
<polygon fill="midnightblue" stroke="midnightblue" points="1203.6,-154.285 1193.6,-157.785 1203.6,-161.285 1203.6,-154.285"/>
</g>
<!-- Node135 -->
<g id="node24" class="node"><title>Node135</title>
<g id="a_node24"><a xlink:href="../../d9/d8b/namespacemom__diagnostics.html#ab2108574e351f6deb812da3faf437278" target="_top" xlink:title="mom_diagnostics::mom\l_diagnostics_init">
<polygon fill="white" stroke="black" points="912.5,-98.7849 912.5,-128.785 1033.5,-128.785 1033.5,-98.7849 912.5,-98.7849"/>
<text text-anchor="start" x="920.5" y="-116.785" font-family="Helvetica,sans-Serif" font-size="10.00">mom_diagnostics::mom</text>
<text text-anchor="middle" x="973" y="-105.785" font-family="Helvetica,sans-Serif" font-size="10.00">_diagnostics_init</text>
</a>
</g>
</g>
<!-- Node134&#45;&gt;Node135 -->
<g id="edge25" class="edge"><title>Node134&#45;&gt;Node135</title>
<path fill="none" stroke="midnightblue" d="M871.568,-109.167C885.124,-109.791 899.127,-110.434 912.215,-111.036"/>
<polygon fill="midnightblue" stroke="midnightblue" points="871.46,-105.659 861.31,-108.696 871.139,-112.651 871.46,-105.659"/>
</g>
<!-- Node136 -->
<g id="node25" class="node"><title>Node136</title>
<g id="a_node25"><a xlink:href="../../d0/d86/namespacemom__lateral__mixing__coeffs.html#aeb658054e8d4d723dff397f8ae186e4a" target="_top" xlink:title="Initializes the variables mixing coefficients container. ">
<polygon fill="white" stroke="black" points="921,-49.7849 921,-79.7849 1025,-79.7849 1025,-49.7849 921,-49.7849"/>
<text text-anchor="start" x="929" y="-67.7849" font-family="Helvetica,sans-Serif" font-size="10.00">mom_lateral_mixing</text>
<text text-anchor="middle" x="973" y="-56.7849" font-family="Helvetica,sans-Serif" font-size="10.00">_coeffs::varmix_init</text>
</a>
</g>
</g>
<!-- Node134&#45;&gt;Node136 -->
<g id="edge26" class="edge"><title>Node134&#45;&gt;Node136</title>
<path fill="none" stroke="midnightblue" d="M871.092,-88.562C887.878,-84.6067 905.373,-80.4843 920.99,-76.8044"/>
<polygon fill="midnightblue" stroke="midnightblue" points="870.241,-85.1667 861.31,-90.8669 871.846,-91.9801 870.241,-85.1667"/>
</g>
<!-- Node139 -->
<g id="node28" class="node"><title>Node139</title>
<g id="a_node28"><a xlink:href="../../dc/ded/namespacemom__surface__forcing.html#ad4eeb543c0b616e42ddb7c0a37f03bf0" target="_top" xlink:title="mom_surface_forcing\l::set_forcing">
<polygon fill="white" stroke="black" points="571,-5.78487 571,-35.7849 681,-35.7849 681,-5.78487 571,-5.78487"/>
<text text-anchor="start" x="579" y="-23.7849" font-family="Helvetica,sans-Serif" font-size="10.00">mom_surface_forcing</text>
<text text-anchor="middle" x="626" y="-12.7849" font-family="Helvetica,sans-Serif" font-size="10.00">::set_forcing</text>
</a>
</g>
</g>
<!-- Node138&#45;&gt;Node139 -->
<g id="edge29" class="edge"><title>Node138&#45;&gt;Node139</title>
<path fill="none" stroke="midnightblue" d="M519.694,-20.7849C536.705,-20.7849 554.654,-20.7849 570.82,-20.7849"/>
<polygon fill="midnightblue" stroke="midnightblue" points="519.247,-17.285 509.247,-20.7849 519.247,-24.285 519.247,-17.285"/>
</g>
<!-- Node139&#45;&gt;Node119 -->
<g id="edge30" class="edge"><title>Node139&#45;&gt;Node119</title>
<path fill="none" stroke="midnightblue" d="M691.018,-15.2408C773.85,-9.9716 921.896,-7.06633 1043,-39.7849 1130.02,-63.2946 1221.55,-124.267 1255.14,-148.067"/>
<polygon fill="midnightblue" stroke="midnightblue" points="690.745,-11.7511 681,-15.91 691.211,-18.7355 690.745,-11.7511"/>
</g>
</g>
</svg>
