<?xml version="1.0" encoding="UTF-8" standalone="no"?>
<!DOCTYPE svg PUBLIC "-//W3C//DTD SVG 1.1//EN"
 "http://www.w3.org/Graphics/SVG/1.1/DTD/svg11.dtd">
<!-- Generated by graphviz version 2.38.0 (20140413.2041)
 -->
<!-- Title: mom_string_functions::uppercase Pages: 1 -->
<!--zoomable 457 -->
<svg id="main" version="1.1" xmlns="http://www.w3.org/2000/svg" xmlns:xlink="http://www.w3.org/1999/xlink" xml:space="preserve" onload="init(evt)">
<style type="text/css"><![CDATA[
.edge:hover path { stroke: red; }
.edge:hover polygon { stroke: red; fill: red; }
]]></style>
<script type="text/javascript"><![CDATA[
var edges = document.getElementsByTagName('g');
if (edges && edges.length) {
  for (var i=0;i<edges.length;i++) {
    if (edges[i].id.substr(0,4)=='edge') {
      edges[i].setAttribute('class','edge');
    }
  }
}
]]></script>
        <defs>
                <circle id="rim" cx="0" cy="0" r="7"/>
                <circle id="rim2" cx="0" cy="0" r="3.5"/>
                <g id="zoomPlus">
                        <use xlink:href="#rim" fill="#404040">
                                <set attributeName="fill" to="#808080" begin="zoomplus.mouseover" end="zoomplus.mouseout"/>
                        </use>
                        <path d="M-4,0h8M0,-4v8" fill="none" stroke="white" stroke-width="1.5" pointer-events="none"/>
                </g>
                <g id="zoomMin">
                        <use xlink:href="#rim" fill="#404040">
                                <set attributeName="fill" to="#808080" begin="zoomminus.mouseover" end="zoomminus.mouseout"/>
                        </use>
                        <path d="M-4,0h8" fill="none" stroke="white" stroke-width="1.5" pointer-events="none"/>
                </g>
                <g id="dirArrow">
                        <path fill="none" stroke="white" stroke-width="1.5" d="M0,-3.0v7 M-2.5,-0.5L0,-3.0L2.5,-0.5"/>
                </g>
               <g id="resetDef">
                       <use xlink:href="#rim2" fill="#404040">
                               <set attributeName="fill" to="#808080" begin="reset.mouseover" end="reset.mouseout"/>
                       </use>
               </g>
        </defs>

<script type="text/javascript">
var viewWidth = 1279;
var viewHeight = 457;
var sectionId = 'dynsection-16';
</script>
<script xlink:href="../../svgpan.js"/>
<svg id="graph" class="graph">
<g id="viewport">
<title>mom_string_functions::uppercase</title>
<polygon fill="white" stroke="none" points="-4,4 -4,-452.97 1275,-452.97 1275,4 -4,4"/>
<!-- Node113 -->
<g id="node1" class="node"><title>Node113</title>
<polygon fill="#bfbfbf" stroke="black" points="0,-216.97 0,-246.97 95,-246.97 95,-216.97 0,-216.97"/>
<text text-anchor="start" x="8" y="-234.97" font-family="Helvetica,sans-Serif" font-size="10.00">mom_string_functions</text>
<text text-anchor="middle" x="47.5" y="-223.97" font-family="Helvetica,sans-Serif" font-size="10.00">::uppercase</text>
</g>
<!-- Node114 -->
<g id="node2" class="node"><title>Node114</title>
<g id="a_node2"><a xlink:href="../../dd/da4/namespacemom__continuity.html#aa08c4a80c95080ec4649e366f5bd3ae8" target="_top" xlink:title="Initializes continuity_cs. ">
<polygon fill="white" stroke="black" points="148,-429.47 148,-448.47 272,-448.47 272,-429.47 148,-429.47"/>
<text text-anchor="middle" x="210" y="-436.47" font-family="Helvetica,sans-Serif" font-size="10.00">mom_continuity::continuity_init</text>
</a>
</g>
</g>
<!-- Node113&#45;&gt;Node114 -->
<g id="edge1" class="edge"><title>Node113&#45;&gt;Node114</title>
<path fill="none" stroke="midnightblue" d="M52.2533,-256.966C59.6991,-297.518 80.2431,-377.382 131,-419.97 136.018,-424.18 141.823,-427.485 147.956,-430.075"/>
<polygon fill="midnightblue" stroke="midnightblue" points="55.6998,-256.356 50.5588,-247.092 48.8006,-257.54 55.6998,-256.356"/>
</g>
<!-- Node115 -->
<g id="node3" class="node"><title>Node115</title>
<g id="a_node3"><a xlink:href="../../d3/db5/namespaceregrid__consts.html#a06ccba5b7b038bed853606a315df306a" target="_top" xlink:title="Parse a string parameter specifying the coordinate mode and return the appropriate enumerated integer...">
<polygon fill="white" stroke="black" points="146.5,-391.47 146.5,-410.47 273.5,-410.47 273.5,-391.47 146.5,-391.47"/>
<text text-anchor="middle" x="210" y="-398.47" font-family="Helvetica,sans-Serif" font-size="10.00">regrid_consts::coordinatemode</text>
</a>
</g>
</g>
<!-- Node113&#45;&gt;Node115 -->
<g id="edge2" class="edge"><title>Node113&#45;&gt;Node115</title>
<path fill="none" stroke="midnightblue" d="M55.3127,-256.951C65.8198,-290.62 89.2647,-350.015 131,-381.97 136.091,-385.867 141.87,-388.978 147.927,-391.458"/>
<polygon fill="midnightblue" stroke="midnightblue" points="58.5557,-255.577 52.3492,-246.991 51.8464,-257.574 58.5557,-255.577"/>
</g>
<!-- Node117 -->
<g id="node5" class="node"><title>Node117</title>
<g id="a_node5"><a xlink:href="../../d8/dd2/namespacemom__coriolisadv.html#ad3ce07f23ce7b484a5a9e0c0abe8b1cd" target="_top" xlink:title="Initializes the control structure for coriolisadv_cs. ">
<polygon fill="white" stroke="black" points="144.5,-353.47 144.5,-372.47 275.5,-372.47 275.5,-353.47 144.5,-353.47"/>
<text text-anchor="middle" x="210" y="-360.47" font-family="Helvetica,sans-Serif" font-size="10.00">mom_coriolisadv::coriolisadv_init</text>
</a>
</g>
</g>
<!-- Node113&#45;&gt;Node117 -->
<g id="edge4" class="edge"><title>Node113&#45;&gt;Node117</title>
<path fill="none" stroke="midnightblue" d="M61.185,-256.098C75.1653,-280.425 99.8573,-317.378 131,-338.97 140.082,-345.267 150.871,-349.954 161.483,-353.429"/>
<polygon fill="midnightblue" stroke="midnightblue" points="64.1197,-254.174 56.1939,-247.143 58.0053,-257.582 64.1197,-254.174"/>
</g>
<!-- Node118 -->
<g id="node6" class="node"><title>Node118</title>
<g id="a_node6"><a xlink:href="../../d1/d01/namespacemom__eos.html#a6686ef94d0db1f1dcfb4284ebfc2be88" target="_top" xlink:title="Initializes EOS_type by allocating and reading parameters. ">
<polygon fill="white" stroke="black" points="950,-179.47 950,-198.47 1033,-198.47 1033,-179.47 950,-179.47"/>
<text text-anchor="middle" x="991.5" y="-186.47" font-family="Helvetica,sans-Serif" font-size="10.00">mom_eos::eos_init</text>
</a>
</g>
</g>
<!-- Node113&#45;&gt;Node118 -->
<g id="edge5" class="edge"><title>Node113&#45;&gt;Node118</title>
<path fill="none" stroke="midnightblue" d="M66.7611,-255.088C81.9253,-272.415 105.138,-294.958 131,-305.97 236.175,-350.752 273.188,-324.97 387.5,-324.97 387.5,-324.97 387.5,-324.97 694,-324.97 815.477,-324.97 941.546,-229.49 979.228,-198.533"/>
<polygon fill="midnightblue" stroke="midnightblue" points="69.1158,-252.452 59.9871,-247.074 63.7699,-256.971 69.1158,-252.452"/>
</g>
<!-- Node123 -->
<g id="node11" class="node"><title>Node123</title>
<g id="a_node11"><a xlink:href="../../d7/d1b/namespacemom__regridding.html#a44ba264b71ed6239e0016708a0f58fe9" target="_top" xlink:title="Initialization of regridding. ">
<polygon fill="white" stroke="black" points="156.5,-265.97 156.5,-295.97 263.5,-295.97 263.5,-265.97 156.5,-265.97"/>
<text text-anchor="start" x="164.5" y="-283.97" font-family="Helvetica,sans-Serif" font-size="10.00">mom_regridding::initialize</text>
<text text-anchor="middle" x="210" y="-272.97" font-family="Helvetica,sans-Serif" font-size="10.00">_regridding</text>
</a>
</g>
</g>
<!-- Node113&#45;&gt;Node123 -->
<g id="edge11" class="edge"><title>Node113&#45;&gt;Node123</title>
<path fill="none" stroke="midnightblue" d="M105.081,-249.244C122.953,-254.7 142.544,-260.681 159.852,-265.965"/>
<polygon fill="midnightblue" stroke="midnightblue" points="105.941,-245.847 95.3547,-246.274 103.897,-252.542 105.941,-245.847"/>
</g>
<!-- Node124 -->
<g id="node12" class="node"><title>Node124</title>
<g id="a_node12"><a xlink:href="../../d5/dd4/namespaceocean__model__mod.html#aced9c77abd80a4a509c7cc317af707a7" target="_top" xlink:title="ocean_model_mod::ocean\l_model_init">
<polygon fill="white" stroke="black" points="154.5,-216.97 154.5,-246.97 265.5,-246.97 265.5,-216.97 154.5,-216.97"/>
<text text-anchor="start" x="162.5" y="-234.97" font-family="Helvetica,sans-Serif" font-size="10.00">ocean_model_mod::ocean</text>
<text text-anchor="middle" x="210" y="-223.97" font-family="Helvetica,sans-Serif" font-size="10.00">_model_init</text>
</a>
</g>
</g>
<!-- Node113&#45;&gt;Node124 -->
<g id="edge12" class="edge"><title>Node113&#45;&gt;Node124</title>
<path fill="none" stroke="midnightblue" d="M105.58,-231.97C121.476,-231.97 138.698,-231.97 154.445,-231.97"/>
<polygon fill="midnightblue" stroke="midnightblue" points="105.355,-228.47 95.3547,-231.97 105.355,-235.47 105.355,-228.47"/>
</g>
<!-- Node125 -->
<g id="node13" class="node"><title>Node125</title>
<g id="a_node13"><a xlink:href="../../d7/dc9/namespacemom__shared__initialization.html#a49c0443c10514a0d5ce5d8df4d68bce8" target="_top" xlink:title="mom_shared_initialization\l::read_face_length_list">
<polygon fill="white" stroke="black" points="156,-167.97 156,-197.97 264,-197.97 264,-167.97 156,-167.97"/>
<text text-anchor="start" x="164" y="-185.97" font-family="Helvetica,sans-Serif" font-size="10.00">mom_shared_initialization</text>
<text text-anchor="middle" x="210" y="-174.97" font-family="Helvetica,sans-Serif" font-size="10.00">::read_face_length_list</text>
</a>
</g>
</g>
<!-- Node113&#45;&gt;Node125 -->
<g id="edge13" class="edge"><title>Node113&#45;&gt;Node125</title>
<path fill="none" stroke="midnightblue" d="M105.081,-214.696C122.953,-209.24 142.544,-203.259 159.852,-197.974"/>
<polygon fill="midnightblue" stroke="midnightblue" points="103.897,-211.398 95.3547,-217.665 105.941,-218.093 103.897,-211.398"/>
</g>
<!-- Node126 -->
<g id="node14" class="node"><title>Node126</title>
<g id="a_node14"><a xlink:href="../../d7/dc9/namespacemom__shared__initialization.html#a6e8080f56f3d751c7eac51a942f4fa9a" target="_top" xlink:title="mom_shared_initialization\l::reset_face_lengths_list">
<polygon fill="white" stroke="black" points="334.5,-150.97 334.5,-180.97 442.5,-180.97 442.5,-150.97 334.5,-150.97"/>
<text text-anchor="start" x="342.5" y="-168.97" font-family="Helvetica,sans-Serif" font-size="10.00">mom_shared_initialization</text>
<text text-anchor="middle" x="388.5" y="-157.97" font-family="Helvetica,sans-Serif" font-size="10.00">::reset_face_lengths_list</text>
</a>
</g>
</g>
<!-- Node113&#45;&gt;Node126 -->
<g id="edge15" class="edge"><title>Node113&#45;&gt;Node126</title>
<path fill="none" stroke="midnightblue" d="M66.2812,-208.63C81.3187,-190.965 104.594,-168.077 131,-157.97 197.574,-132.487 281.126,-141.983 334.428,-152.688"/>
<polygon fill="midnightblue" stroke="midnightblue" points="63.2146,-206.85 59.5833,-216.803 68.6289,-211.287 63.2146,-206.85"/>
</g>
<!-- Node127 -->
<g id="node15" class="node"><title>Node127</title>
<g id="a_node15"><a xlink:href="../../d6/d75/namespacemom__remapping.html#a41a89ac62578250500b7a450d5fdfae7" target="_top" xlink:title="Changes the method of reconstruction Use this routine to parse a string parameter specifying the reco...">
<polygon fill="white" stroke="black" points="131,-91.4699 131,-110.47 289,-110.47 289,-91.4699 131,-91.4699"/>
<text text-anchor="middle" x="210" y="-98.4699" font-family="Helvetica,sans-Serif" font-size="10.00">mom_remapping::setreconstructiontype</text>
</a>
</g>
</g>
<!-- Node113&#45;&gt;Node127 -->
<g id="edge16" class="edge"><title>Node113&#45;&gt;Node127</title>
<path fill="none" stroke="midnightblue" d="M61.185,-207.842C75.1653,-183.515 99.8573,-146.562 131,-124.97 140.082,-118.673 150.871,-113.985 161.483,-110.511"/>
<polygon fill="midnightblue" stroke="midnightblue" points="58.0053,-206.358 56.1939,-216.797 64.1197,-209.766 58.0053,-206.358"/>
</g>
<!-- Node135 -->
<g id="node23" class="node"><title>Node135</title>
<g id="a_node23"><a xlink:href="../../dc/ded/namespacemom__surface__forcing.html#a20f66a7798d7d28348dac1d2c690ce99" target="_top" xlink:title="mom_surface_forcing\l::wind_forcing_const">
<polygon fill="white" stroke="black" points="163,-41.9699 163,-71.9699 257,-71.9699 257,-41.9699 163,-41.9699"/>
<text text-anchor="start" x="171" y="-59.9699" font-family="Helvetica,sans-Serif" font-size="10.00">mom_surface_forcing</text>
<text text-anchor="middle" x="210" y="-48.9699" font-family="Helvetica,sans-Serif" font-size="10.00">::wind_forcing_const</text>
</a>
</g>
</g>
<!-- Node113&#45;&gt;Node135 -->
<g id="edge26" class="edge"><title>Node113&#45;&gt;Node135</title>
<path fill="none" stroke="midnightblue" d="M55.8143,-206.899C66.7839,-173.626 90.6361,-115.22 131,-81.9699 140.11,-74.4655 151.512,-69.1993 162.762,-65.5088"/>
<polygon fill="midnightblue" stroke="midnightblue" points="52.3757,-206.165 52.7008,-216.755 59.0506,-208.274 52.3757,-206.165"/>
</g>
<!-- Node136 -->
<g id="node24" class="node"><title>Node136</title>
<g id="a_node24"><a xlink:href="../../dc/ded/namespacemom__surface__forcing.html#a3c2efab8f262459aa7de2c592d1a3b1e" target="_top" xlink:title="mom_surface_forcing\l::wind_forcing_from_file">
<polygon fill="white" stroke="black" points="338,-7.96987 338,-37.9699 439,-37.9699 439,-7.96987 338,-7.96987"/>
<text text-anchor="start" x="346" y="-25.9699" font-family="Helvetica,sans-Serif" font-size="10.00">mom_surface_forcing</text>
<text text-anchor="middle" x="388.5" y="-14.9699" font-family="Helvetica,sans-Serif" font-size="10.00">::wind_forcing_from_file</text>
</a>
</g>
</g>
<!-- Node113&#45;&gt;Node136 -->
<g id="edge27" class="edge"><title>Node113&#45;&gt;Node136</title>
<path fill="none" stroke="midnightblue" d="M50.4808,-206.679C55.4381,-162.61 72.5677,-72.5764 131,-31.9699 192.015,10.4315 282.371,1.41368 337.958,-10.0278"/>
<polygon fill="midnightblue" stroke="midnightblue" points="46.9777,-206.536 49.465,-216.834 53.943,-207.232 46.9777,-206.536"/>
</g>
<!-- Node116 -->
<g id="node4" class="node"><title>Node116</title>
<g id="a_node4"><a xlink:href="../../d3/db5/namespaceregrid__consts.html#abb7bad7b33524d0373426750c48cb1c6" target="_top" xlink:title="Returns a string with the coordinate units associated with the string defining the coordinate mode...">
<polygon fill="white" stroke="black" points="325,-391.47 325,-410.47 452,-410.47 452,-391.47 325,-391.47"/>
<text text-anchor="middle" x="388.5" y="-398.47" font-family="Helvetica,sans-Serif" font-size="10.00">regrid_consts::coordinateunitss</text>
</a>
</g>
</g>
<!-- Node115&#45;&gt;Node116 -->
<g id="edge3" class="edge"><title>Node115&#45;&gt;Node116</title>
<path fill="none" stroke="midnightblue" d="M284.01,-400.97C297.616,-400.97 311.721,-400.97 324.978,-400.97"/>
<polygon fill="midnightblue" stroke="midnightblue" points="283.724,-397.47 273.724,-400.97 283.724,-404.47 283.724,-397.47"/>
</g>
<!-- Node119 -->
<g id="node7" class="node"><title>Node119</title>
<g id="a_node7"><a xlink:href="../../df/da2/namespacemom__ice__shelf.html#ae315e8464ef8a20062e3bccb61886755" target="_top" xlink:title="mom_ice_shelf::initialize\l_ice_shelf">
<polygon fill="white" stroke="black" points="1078,-173.97 1078,-203.97 1179,-203.97 1179,-173.97 1078,-173.97"/>
<text text-anchor="start" x="1086" y="-191.97" font-family="Helvetica,sans-Serif" font-size="10.00">mom_ice_shelf::initialize</text>
<text text-anchor="middle" x="1128.5" y="-180.97" font-family="Helvetica,sans-Serif" font-size="10.00">_ice_shelf</text>
</a>
</g>
</g>
<!-- Node118&#45;&gt;Node119 -->
<g id="edge6" class="edge"><title>Node118&#45;&gt;Node119</title>
<path fill="none" stroke="midnightblue" d="M1043.21,-188.97C1054.58,-188.97 1066.63,-188.97 1077.95,-188.97"/>
<polygon fill="midnightblue" stroke="midnightblue" points="1043,-185.47 1033,-188.97 1043,-192.47 1043,-185.47"/>
</g>
<!-- Node122 -->
<g id="node10" class="node"><title>Node122</title>
<g id="a_node10"><a xlink:href="../../da/d01/namespacemom.html#afebdc0103ad9cbe0ed4a54e522dc4104" target="_top" xlink:title="This subroutine initializes MOM. ">
<polygon fill="white" stroke="black" points="1084,-135.47 1084,-154.47 1173,-154.47 1173,-135.47 1084,-135.47"/>
<text text-anchor="middle" x="1128.5" y="-142.47" font-family="Helvetica,sans-Serif" font-size="10.00">mom::initialize_mom</text>
</a>
</g>
</g>
<!-- Node118&#45;&gt;Node122 -->
<g id="edge9" class="edge"><title>Node118&#45;&gt;Node122</title>
<path fill="none" stroke="midnightblue" d="M1031.52,-176.253C1052.81,-169.314 1078.73,-160.866 1098.26,-154.499"/>
<polygon fill="midnightblue" stroke="midnightblue" points="1030.22,-172.996 1021.79,-179.423 1032.39,-179.651 1030.22,-172.996"/>
</g>
<!-- Node120 -->
<g id="node8" class="node"><title>Node120</title>
<g id="a_node8"><a xlink:href="../../de/dbc/MOM__driver_8F90.html#a08fffeb2d8e8acbf9ed4609be6d258c6" target="_top" xlink:title="mom_main">
<polygon fill="white" stroke="black" points="1215,-135.47 1215,-154.47 1271,-154.47 1271,-135.47 1215,-135.47"/>
<text text-anchor="middle" x="1243" y="-142.47" font-family="Helvetica,sans-Serif" font-size="10.00">mom_main</text>
</a>
</g>
</g>
<!-- Node119&#45;&gt;Node120 -->
<g id="edge7" class="edge"><title>Node119&#45;&gt;Node120</title>
<path fill="none" stroke="midnightblue" d="M1177.34,-170.261C1191.18,-164.844 1205.73,-159.156 1217.51,-154.548"/>
<polygon fill="midnightblue" stroke="midnightblue" points="1175.94,-167.049 1167.9,-173.951 1178.49,-173.568 1175.94,-167.049"/>
</g>
<!-- Node121 -->
<g id="node9" class="node"><title>Node121</title>
<g id="a_node9"><a xlink:href="../../d5/d6d/ice__shelf__driver_8F90.html#aec5bef92f0dad343f545cd8d62e378d8" target="_top" xlink:title="shelf_main">
<polygon fill="white" stroke="black" points="1215.5,-179.47 1215.5,-198.47 1270.5,-198.47 1270.5,-179.47 1215.5,-179.47"/>
<text text-anchor="middle" x="1243" y="-186.47" font-family="Helvetica,sans-Serif" font-size="10.00">shelf_main</text>
</a>
</g>
</g>
<!-- Node119&#45;&gt;Node121 -->
<g id="edge8" class="edge"><title>Node119&#45;&gt;Node121</title>
<path fill="none" stroke="midnightblue" d="M1189.46,-188.97C1198.56,-188.97 1207.53,-188.97 1215.42,-188.97"/>
<polygon fill="midnightblue" stroke="midnightblue" points="1189.17,-185.47 1179.17,-188.97 1189.17,-192.47 1189.17,-185.47"/>
</g>
<!-- Node122&#45;&gt;Node120 -->
<g id="edge10" class="edge"><title>Node122&#45;&gt;Node120</title>
<path fill="none" stroke="midnightblue" d="M1183.58,-144.97C1194.38,-144.97 1205.29,-144.97 1214.7,-144.97"/>
<polygon fill="midnightblue" stroke="midnightblue" points="1183.32,-141.47 1173.32,-144.97 1183.32,-148.47 1183.32,-141.47"/>
</g>
<!-- Node125&#45;&gt;Node126 -->
<g id="edge14" class="edge"><title>Node125&#45;&gt;Node126</title>
<path fill="none" stroke="midnightblue" d="M274.491,-176.855C294.075,-174.968 315.428,-172.912 334.247,-171.099"/>
<polygon fill="midnightblue" stroke="midnightblue" points="274.053,-173.38 264.435,-177.823 274.724,-180.348 274.053,-173.38"/>
</g>
<!-- Node128 -->
<g id="node16" class="node"><title>Node128</title>
<g id="a_node16"><a xlink:href="../../d6/d75/namespacemom__remapping.html#a9e811f89c505a4416ea0eec315769801" target="_top" xlink:title="Set parameters within remapping object. ">
<polygon fill="white" stroke="black" points="328.5,-85.9699 328.5,-115.97 448.5,-115.97 448.5,-85.9699 328.5,-85.9699"/>
<text text-anchor="start" x="336.5" y="-103.97" font-family="Helvetica,sans-Serif" font-size="10.00">mom_remapping::remapping</text>
<text text-anchor="middle" x="388.5" y="-92.9699" font-family="Helvetica,sans-Serif" font-size="10.00">_set_param</text>
</a>
</g>
</g>
<!-- Node127&#45;&gt;Node128 -->
<g id="edge17" class="edge"><title>Node127&#45;&gt;Node128</title>
<path fill="none" stroke="midnightblue" d="M299.425,-100.97C309.268,-100.97 319.109,-100.97 328.456,-100.97"/>
<polygon fill="midnightblue" stroke="midnightblue" points="299.186,-97.47 289.186,-100.97 299.186,-104.47 299.186,-97.47"/>
</g>
<!-- Node129 -->
<g id="node17" class="node"><title>Node129</title>
<g id="a_node17"><a xlink:href="../../d6/d75/namespacemom__remapping.html#a6847e0c44ccb54fb72587677f90d95b6" target="_top" xlink:title="Constructor for remapping control structure. ">
<polygon fill="white" stroke="black" points="488,-85.9699 488,-115.97 597,-115.97 597,-85.9699 488,-85.9699"/>
<text text-anchor="start" x="496" y="-103.97" font-family="Helvetica,sans-Serif" font-size="10.00">mom_remapping::initialize</text>
<text text-anchor="middle" x="542.5" y="-92.9699" font-family="Helvetica,sans-Serif" font-size="10.00">_remapping</text>
</a>
</g>
</g>
<!-- Node128&#45;&gt;Node129 -->
<g id="edge18" class="edge"><title>Node128&#45;&gt;Node129</title>
<path fill="none" stroke="midnightblue" d="M458.738,-100.97C468.446,-100.97 478.302,-100.97 487.666,-100.97"/>
<polygon fill="midnightblue" stroke="midnightblue" points="458.702,-97.47 448.702,-100.97 458.702,-104.47 458.702,-97.47"/>
</g>
<!-- Node130 -->
<g id="node18" class="node"><title>Node130</title>
<g id="a_node18"><a xlink:href="../../de/dd7/namespacemom__ale__sponge.html#a135d5ca4d0dff789bc6db5ac789b4142" target="_top" xlink:title="This subroutine determines the number of points which are within. ">
<polygon fill="white" stroke="black" points="637,-132.97 637,-162.97 749,-162.97 749,-132.97 637,-132.97"/>
<text text-anchor="start" x="645" y="-150.97" font-family="Helvetica,sans-Serif" font-size="10.00">mom_ale_sponge::initialize</text>
<text text-anchor="middle" x="693" y="-139.97" font-family="Helvetica,sans-Serif" font-size="10.00">_ale_sponge</text>
</a>
</g>
</g>
<!-- Node129&#45;&gt;Node130 -->
<g id="edge19" class="edge"><title>Node129&#45;&gt;Node130</title>
<path fill="none" stroke="midnightblue" d="M600.743,-119.087C615.221,-123.67 630.611,-128.54 644.546,-132.951"/>
<polygon fill="midnightblue" stroke="midnightblue" points="601.485,-115.651 590.895,-115.97 599.372,-122.325 601.485,-115.651"/>
</g>
<!-- Node133 -->
<g id="node21" class="node"><title>Node133</title>
<g id="a_node21"><a xlink:href="../../d6/d75/namespacemom__remapping.html#a8a79c37c89f8b800f79198aceca5f090" target="_top" xlink:title="Runs unit tests on remapping functions. Should only be called from a single/root thread Returns True ...">
<polygon fill="white" stroke="black" points="633,-83.9699 633,-113.97 753,-113.97 753,-83.9699 633,-83.9699"/>
<text text-anchor="start" x="641" y="-101.97" font-family="Helvetica,sans-Serif" font-size="10.00">mom_remapping::remapping</text>
<text text-anchor="middle" x="693" y="-90.9699" font-family="Helvetica,sans-Serif" font-size="10.00">_unit_tests</text>
</a>
</g>
</g>
<!-- Node129&#45;&gt;Node133 -->
<g id="edge23" class="edge"><title>Node129&#45;&gt;Node133</title>
<path fill="none" stroke="midnightblue" d="M607.351,-100.11C615.846,-99.9955 624.527,-99.8786 632.936,-99.7654"/>
<polygon fill="midnightblue" stroke="midnightblue" points="607.064,-96.6134 597.112,-100.248 607.158,-103.613 607.064,-96.6134"/>
</g>
<!-- Node131 -->
<g id="node19" class="node"><title>Node131</title>
<g id="a_node19"><a xlink:href="../../da/d77/namespacedome2d__initialization.html#ab0df2b602fe1c83baa66ba03cc2c6dd4" target="_top" xlink:title="Set up sponges in 2d DOME configuration. ">
<polygon fill="white" stroke="black" points="789,-130.97 789,-160.97 905,-160.97 905,-130.97 789,-130.97"/>
<text text-anchor="start" x="797" y="-148.97" font-family="Helvetica,sans-Serif" font-size="10.00">dome2d_initialization</text>
<text text-anchor="middle" x="847" y="-137.97" font-family="Helvetica,sans-Serif" font-size="10.00">::dome2d_initialize_sponges</text>
</a>
</g>
</g>
<!-- Node130&#45;&gt;Node131 -->
<g id="edge20" class="edge"><title>Node130&#45;&gt;Node131</title>
<path fill="none" stroke="midnightblue" d="M759.428,-147.109C769.252,-146.98 779.317,-146.847 788.948,-146.721"/>
<polygon fill="midnightblue" stroke="midnightblue" points="759.259,-143.611 749.305,-147.242 759.351,-150.61 759.259,-143.611"/>
</g>
<!-- Node132 -->
<g id="node20" class="node"><title>Node132</title>
<g id="a_node20"><a xlink:href="../../d6/d62/namespacemom__state__initialization.html#af4e854627c6572332ba3fd895f169321" target="_top" xlink:title="mom_state_initialization\l::mom_initialize_state">
<polygon fill="white" stroke="black" points="941,-129.97 941,-159.97 1042,-159.97 1042,-129.97 941,-129.97"/>
<text text-anchor="start" x="949" y="-147.97" font-family="Helvetica,sans-Serif" font-size="10.00">mom_state_initialization</text>
<text text-anchor="middle" x="991.5" y="-136.97" font-family="Helvetica,sans-Serif" font-size="10.00">::mom_initialize_state</text>
</a>
</g>
</g>
<!-- Node131&#45;&gt;Node132 -->
<g id="edge21" class="edge"><title>Node131&#45;&gt;Node132</title>
<path fill="none" stroke="midnightblue" d="M915.166,-145.499C923.765,-145.438 932.443,-145.377 940.698,-145.319"/>
<polygon fill="midnightblue" stroke="midnightblue" points="915.114,-141.999 905.139,-145.569 915.163,-148.999 915.114,-141.999"/>
</g>
<!-- Node132&#45;&gt;Node122 -->
<g id="edge22" class="edge"><title>Node132&#45;&gt;Node122</title>
<path fill="none" stroke="midnightblue" d="M1052.11,-144.97C1062.77,-144.97 1073.69,-144.97 1083.8,-144.97"/>
<polygon fill="midnightblue" stroke="midnightblue" points="1052,-141.47 1042,-144.97 1052,-148.47 1052,-141.47"/>
</g>
<!-- Node134 -->
<g id="node22" class="node"><title>Node134</title>
<g id="a_node22"><a xlink:href="../../da/d01/namespacemom.html#ae77cfd2e790f1266b31d93c58659d46c" target="_top" xlink:title="Calls unit tests for other modules. These are NOT normally invoked and so we provide the module use s...">
<polygon fill="white" stroke="black" points="810.5,-89.4699 810.5,-108.47 883.5,-108.47 883.5,-89.4699 810.5,-89.4699"/>
<text text-anchor="middle" x="847" y="-96.4699" font-family="Helvetica,sans-Serif" font-size="10.00">mom::unit_tests</text>
</a>
</g>
</g>
<!-- Node133&#45;&gt;Node134 -->
<g id="edge24" class="edge"><title>Node133&#45;&gt;Node134</title>
<path fill="none" stroke="midnightblue" d="M763.282,-98.9699C779.601,-98.9699 796.336,-98.9699 810.447,-98.9699"/>
<polygon fill="midnightblue" stroke="midnightblue" points="763.202,-95.47 753.202,-98.9699 763.202,-102.47 763.202,-95.47"/>
</g>
<!-- Node134&#45;&gt;Node122 -->
<g id="edge25" class="edge"><title>Node134&#45;&gt;Node122</title>
<path fill="none" stroke="midnightblue" d="M893.81,-101.638C933.342,-104.485 991.824,-110 1042,-119.97 1061.42,-123.828 1082.79,-130.078 1099.31,-135.363"/>
<polygon fill="midnightblue" stroke="midnightblue" points="893.904,-98.1366 883.686,-100.938 893.421,-105.12 893.904,-98.1366"/>
</g>
<!-- Node137 -->
<g id="node25" class="node"><title>Node137</title>
<g id="a_node25"><a xlink:href="../../dc/ded/namespacemom__surface__forcing.html#ad4eeb543c0b616e42ddb7c0a37f03bf0" target="_top" xlink:title="mom_surface_forcing\l::set_forcing">
<polygon fill="white" stroke="black" points="495.5,-17.9699 495.5,-47.9699 589.5,-47.9699 589.5,-17.9699 495.5,-17.9699"/>
<text text-anchor="start" x="503.5" y="-35.9699" font-family="Helvetica,sans-Serif" font-size="10.00">mom_surface_forcing</text>
<text text-anchor="middle" x="542.5" y="-24.9699" font-family="Helvetica,sans-Serif" font-size="10.00">::set_forcing</text>
</a>
</g>
</g>
<!-- Node136&#45;&gt;Node137 -->
<g id="edge28" class="edge"><title>Node136&#45;&gt;Node137</title>
<path fill="none" stroke="midnightblue" d="M449.656,-26.9275C464.908,-27.9309 481.052,-28.993 495.479,-29.9422"/>
<polygon fill="midnightblue" stroke="midnightblue" points="449.479,-23.4084 439.27,-26.2442 449.019,-30.3933 449.479,-23.4084"/>
</g>
<!-- Node137&#45;&gt;Node120 -->
<g id="edge29" class="edge"><title>Node137&#45;&gt;Node120</title>
<path fill="none" stroke="midnightblue" d="M599.744,-36.2381C660.47,-39.4808 760.057,-43.9699 846,-43.9699 846,-43.9699 846,-43.9699 992.5,-43.9699 1089.47,-43.9699 1193.16,-110.325 1228.97,-135.468"/>
<polygon fill="midnightblue" stroke="midnightblue" points="599.78,-32.735 589.605,-35.689 599.401,-39.7248 599.78,-32.735"/>
</g>
</g>
</svg>
        <g id="navigator" transform="translate(0 0)" fill="#404254">
                <rect fill="#f2f5e9" fill-opacity="0.5" stroke="#606060" stroke-width=".5" x="0" y="0" width="60" height="60"/>
                <use id="zoomplus" xlink:href="#zoomPlus" x="17" y="9" onmousedown="handleZoom(evt,'in')"/>
                <use id="zoomminus" xlink:href="#zoomMin" x="42" y="9" onmousedown="handleZoom(evt,'out')"/>
                <use id="reset" xlink:href="#resetDef" x="30" y="36" onmousedown="handleReset()"/>
                <g id="arrowUp" xlink:href="#dirArrow" transform="translate(30 24)" onmousedown="handlePan(0,-1)">
                  <use xlink:href="#rim" fill="#404040">
                        <set attributeName="fill" to="#808080" begin="arrowUp.mouseover" end="arrowUp.mouseout"/>
                  </use>
                  <path fill="none" stroke="white" stroke-width="1.5" d="M0,-3.0v7 M-2.5,-0.5L0,-3.0L2.5,-0.5"/>
                </g>
                <g id="arrowRight" xlink:href="#dirArrow" transform="rotate(90) translate(36 -43)" onmousedown="handlePan(1,0)">
                  <use xlink:href="#rim" fill="#404040">
                        <set attributeName="fill" to="#808080" begin="arrowRight.mouseover" end="arrowRight.mouseout"/>
                  </use>
                  <path fill="none" stroke="white" stroke-width="1.5" d="M0,-3.0v7 M-2.5,-0.5L0,-3.0L2.5,-0.5"/>
                </g>
                <g id="arrowDown" xlink:href="#dirArrow" transform="rotate(180) translate(-30 -48)" onmousedown="handlePan(0,1)">
                  <use xlink:href="#rim" fill="#404040">
                        <set attributeName="fill" to="#808080" begin="arrowDown.mouseover" end="arrowDown.mouseout"/>
                  </use>
                  <path fill="none" stroke="white" stroke-width="1.5" d="M0,-3.0v7 M-2.5,-0.5L0,-3.0L2.5,-0.5"/>
                </g>
                <g id="arrowLeft" xlink:href="#dirArrow" transform="rotate(270) translate(-36 17)" onmousedown="handlePan(-1,0)">
                  <use xlink:href="#rim" fill="#404040">
                        <set attributeName="fill" to="#808080" begin="arrowLeft.mouseover" end="arrowLeft.mouseout"/>
                  </use>
                  <path fill="none" stroke="white" stroke-width="1.5" d="M0,-3.0v7 M-2.5,-0.5L0,-3.0L2.5,-0.5"/>
                </g>
        </g>
        <svg viewBox="0 0 15 15" width="100%" height="30px" preserveAspectRatio="xMaxYMin meet">
         <g id="arrow_out" transform="scale(0.3 0.3)">
          <a xlink:href="namespacemom__string__functions_aca148baf726de2f028b7e7baad3c85d4_icgraph_org.svg" target="_base">
           <rect id="button" ry="5" rx="5" y="6" x="6" height="38" width="38"
                fill="#f2f5e9" fill-opacity="0.5" stroke="#606060" stroke-width="1.0"/>
           <path id="arrow"
             d="M 11.500037,31.436501 C 11.940474,20.09759 22.043105,11.32322 32.158766,21.979434 L 37.068811,17.246167 C 37.068811,17.246167 37.088388,32 37.088388,32 L 22.160133,31.978069 C 22.160133,31.978069 26.997745,27.140456 26.997745,27.140456 C 18.528582,18.264221 13.291696,25.230495 11.500037,31.436501 z"
             style="fill:#404040;"/>
          </a>
         </g>
        </svg>
</svg>
