<?xml version="1.0" encoding="UTF-8" standalone="no"?>
<!DOCTYPE svg PUBLIC "-//W3C//DTD SVG 1.1//EN"
 "http://www.w3.org/Graphics/SVG/1.1/DTD/svg11.dtd">
<!-- Generated by graphviz version 2.38.0 (20140413.2041)
 -->
<!-- Title: mom_string_functions::extract_word Pages: 1 -->
<!--zoomable 198 -->
<svg id="main" version="1.1" xmlns="http://www.w3.org/2000/svg" xmlns:xlink="http://www.w3.org/1999/xlink" xml:space="preserve" onload="init(evt)">
<style type="text/css"><![CDATA[
.edge:hover path { stroke: red; }
.edge:hover polygon { stroke: red; fill: red; }
]]></style>
<script type="text/javascript"><![CDATA[
var edges = document.getElementsByTagName('g');
if (edges && edges.length) {
  for (var i=0;i<edges.length;i++) {
    if (edges[i].id.substr(0,4)=='edge') {
      edges[i].setAttribute('class','edge');
    }
  }
}
]]></script>
        <defs>
                <circle id="rim" cx="0" cy="0" r="7"/>
                <circle id="rim2" cx="0" cy="0" r="3.5"/>
                <g id="zoomPlus">
                        <use xlink:href="#rim" fill="#404040">
                                <set attributeName="fill" to="#808080" begin="zoomplus.mouseover" end="zoomplus.mouseout"/>
                        </use>
                        <path d="M-4,0h8M0,-4v8" fill="none" stroke="white" stroke-width="1.5" pointer-events="none"/>
                </g>
                <g id="zoomMin">
                        <use xlink:href="#rim" fill="#404040">
                                <set attributeName="fill" to="#808080" begin="zoomminus.mouseover" end="zoomminus.mouseout"/>
                        </use>
                        <path d="M-4,0h8" fill="none" stroke="white" stroke-width="1.5" pointer-events="none"/>
                </g>
                <g id="dirArrow">
                        <path fill="none" stroke="white" stroke-width="1.5" d="M0,-3.0v7 M-2.5,-0.5L0,-3.0L2.5,-0.5"/>
                </g>
               <g id="resetDef">
                       <use xlink:href="#rim2" fill="#404040">
                               <set attributeName="fill" to="#808080" begin="reset.mouseover" end="reset.mouseout"/>
                       </use>
               </g>
        </defs>

<script type="text/javascript">
var viewWidth = 743;
var viewHeight = 198;
var sectionId = 'dynsection-0';
</script>
<script xlink:href="../../svgpan.js"/>
<svg id="graph" class="graph">
<g id="viewport">
<title>mom_string_functions::extract_word</title>
<polygon fill="white" stroke="none" points="-4,4 -4,-193.5 739,-193.5 739,4 -4,4"/>
<!-- Node1 -->
<g id="node1" class="node"><title>Node1</title>
<polygon fill="#bfbfbf" stroke="black" points="0,-95.5 0,-125.5 95,-125.5 95,-95.5 0,-95.5"/>
<text text-anchor="start" x="8" y="-113.5" font-family="Helvetica,sans-Serif" font-size="10.00">mom_string_functions</text>
<text text-anchor="middle" x="47.5" y="-102.5" font-family="Helvetica,sans-Serif" font-size="10.00">::extract_word</text>
</g>
<!-- Node2 -->
<g id="node2" class="node"><title>Node2</title>
<g id="a_node2"><a xlink:href="../../df/d46/namespacemom__string__functions.html#a7bfdab6bba33230cc94ed625e95022c9" target="_top" xlink:title="Returns the string corresponding to the nth word in the argument or &quot;&quot; if the string is not long enou...">
<polygon fill="white" stroke="black" points="133.5,-139.5 133.5,-169.5 228.5,-169.5 228.5,-139.5 133.5,-139.5"/>
<text text-anchor="start" x="141.5" y="-157.5" font-family="Helvetica,sans-Serif" font-size="10.00">mom_string_functions</text>
<text text-anchor="middle" x="181" y="-146.5" font-family="Helvetica,sans-Serif" font-size="10.00">::extractword</text>
</a>
</g>
</g>
<!-- Node1&#45;&gt;Node2 -->
<g id="edge1" class="edge"><title>Node1&#45;&gt;Node2</title>
<path fill="none" stroke="midnightblue" d="M102.983,-128.73C113.591,-132.28 124.603,-135.964 134.869,-139.399"/>
<polygon fill="midnightblue" stroke="midnightblue" points="103.981,-125.373 93.387,-125.519 101.76,-132.012 103.981,-125.373"/>
</g>
<!-- Node5 -->
<g id="node5" class="node"><title>Node5</title>
<g id="a_node5"><a xlink:href="../../df/d46/namespacemom__string__functions.html#a82a6737657a9ae78a53b30ab2a761d23" target="_top" xlink:title="mom_string_functions\l::string_functions_unit_tests">
<polygon fill="white" stroke="black" points="267,-98.5 267,-128.5 382,-128.5 382,-98.5 267,-98.5"/>
<text text-anchor="start" x="275" y="-116.5" font-family="Helvetica,sans-Serif" font-size="10.00">mom_string_functions</text>
<text text-anchor="middle" x="324.5" y="-105.5" font-family="Helvetica,sans-Serif" font-size="10.00">::string_functions_unit_tests</text>
</a>
</g>
</g>
<!-- Node1&#45;&gt;Node5 -->
<g id="edge15" class="edge"><title>Node1&#45;&gt;Node5</title>
<path fill="none" stroke="midnightblue" d="M105.21,-111.119C152.426,-111.634 219.338,-112.364 266.606,-112.879"/>
<polygon fill="midnightblue" stroke="midnightblue" points="105.188,-107.618 95.15,-111.009 105.111,-114.618 105.188,-107.618"/>
</g>
<!-- Node10 -->
<g id="node10" class="node"><title>Node10</title>
<g id="a_node10"><a xlink:href="../../de/ddd/namespacemom__open__boundary.html#ad40be6b6ce4c94040b7de59bde9be77f" target="_top" xlink:title="Parse an OBC_SEGMENT_%%% string. ">
<polygon fill="white" stroke="black" points="131,-49.5 131,-79.5 231,-79.5 231,-49.5 131,-49.5"/>
<text text-anchor="start" x="139" y="-67.5" font-family="Helvetica,sans-Serif" font-size="10.00">mom_open_boundary::</text>
<text text-anchor="middle" x="181" y="-56.5" font-family="Helvetica,sans-Serif" font-size="10.00">parse_segment_str</text>
</a>
</g>
</g>
<!-- Node1&#45;&gt;Node10 -->
<g id="edge10" class="edge"><title>Node1&#45;&gt;Node10</title>
<path fill="none" stroke="midnightblue" d="M101.301,-92.0297C113.104,-87.9009 125.487,-83.5693 136.845,-79.596"/>
<polygon fill="midnightblue" stroke="midnightblue" points="99.8415,-88.8322 91.558,-95.4379 102.153,-95.4396 99.8415,-88.8322"/>
</g>
<!-- Node3 -->
<g id="node3" class="node"><title>Node3</title>
<g id="a_node3"><a xlink:href="../../d7/d73/namespacemom__ale.html#acb67ef912ee001b72fa9ed5d6c79cabe" target="_top" xlink:title="Initialize regridding module. ">
<polygon fill="white" stroke="black" points="267,-161 267,-180 382,-180 382,-161 267,-161"/>
<text text-anchor="middle" x="324.5" y="-168" font-family="Helvetica,sans-Serif" font-size="10.00">mom_ale::ale_initregridding</text>
</a>
</g>
</g>
<!-- Node2&#45;&gt;Node3 -->
<g id="edge2" class="edge"><title>Node2&#45;&gt;Node3</title>
<path fill="none" stroke="midnightblue" d="M238.673,-160.908C247.994,-161.962 257.654,-163.055 266.972,-164.108"/>
<polygon fill="midnightblue" stroke="midnightblue" points="239.055,-157.429 228.725,-159.783 238.268,-164.385 239.055,-157.429"/>
</g>
<!-- Node2&#45;&gt;Node5 -->
<g id="edge4" class="edge"><title>Node2&#45;&gt;Node5</title>
<path fill="none" stroke="midnightblue" d="M238.54,-138.117C249.404,-134.969 260.735,-131.686 271.45,-128.582"/>
<polygon fill="midnightblue" stroke="midnightblue" points="237.355,-134.817 228.725,-140.961 239.304,-141.54 237.355,-134.817"/>
</g>
<!-- Node4 -->
<g id="node4" class="node"><title>Node4</title>
<g id="a_node4"><a xlink:href="../../d7/d73/namespacemom__ale.html#a58d4b7c32f779beec0086caeb802d492" target="_top" xlink:title="This routine is typically called (from initialize_MOM in file MOM.F90) before the main time integrati...">
<polygon fill="white" stroke="black" points="428.5,-170 428.5,-189 507.5,-189 507.5,-170 428.5,-170"/>
<text text-anchor="middle" x="468" y="-177" font-family="Helvetica,sans-Serif" font-size="10.00">mom_ale::ale_init</text>
</a>
</g>
</g>
<!-- Node3&#45;&gt;Node4 -->
<g id="edge3" class="edge"><title>Node3&#45;&gt;Node4</title>
<path fill="none" stroke="midnightblue" d="M392.532,-174.764C404.869,-175.548 417.356,-176.342 428.489,-177.051"/>
<polygon fill="midnightblue" stroke="midnightblue" points="392.44,-171.251 382.238,-174.109 391.996,-178.237 392.44,-171.251"/>
</g>
<!-- Node6 -->
<g id="node6" class="node"><title>Node6</title>
<g id="a_node6"><a xlink:href="../../da/d01/namespacemom.html#ae77cfd2e790f1266b31d93c58659d46c" target="_top" xlink:title="Calls unit tests for other modules. These are NOT normally invoked and so we provide the module use s...">
<polygon fill="white" stroke="black" points="431.5,-132 431.5,-151 504.5,-151 504.5,-132 431.5,-132"/>
<text text-anchor="middle" x="468" y="-139" font-family="Helvetica,sans-Serif" font-size="10.00">mom::unit_tests</text>
</a>
</g>
</g>
<!-- Node5&#45;&gt;Node6 -->
<g id="edge5" class="edge"><title>Node5&#45;&gt;Node6</title>
<path fill="none" stroke="midnightblue" d="M392.063,-126.672C405.646,-129.359 419.435,-132.088 431.419,-134.459"/>
<polygon fill="midnightblue" stroke="midnightblue" points="392.727,-123.235 382.238,-124.727 391.369,-130.102 392.727,-123.235"/>
</g>
<!-- Node9 -->
<g id="node9" class="node"><title>Node9</title>
<g id="a_node9"><a xlink:href="../../df/ddf/MOM__string__functions_8F90.html#a420ee768ae38c8bb528f4ae573e310ab" target="_top" xlink:title="localtest">
<polygon fill="white" stroke="black" points="445.5,-94 445.5,-113 490.5,-113 490.5,-94 445.5,-94"/>
<text text-anchor="middle" x="468" y="-101" font-family="Helvetica,sans-Serif" font-size="10.00">localtest</text>
</a>
</g>
</g>
<!-- Node5&#45;&gt;Node9 -->
<g id="edge8" class="edge"><title>Node5&#45;&gt;Node9</title>
<path fill="none" stroke="midnightblue" d="M392.459,-102.027C411.542,-100.591 430.993,-99.786 445.239,-100.005"/>
<polygon fill="midnightblue" stroke="midnightblue" points="391.921,-98.5587 382.238,-102.859 392.489,-105.536 391.921,-98.5587"/>
</g>
<!-- Node7 -->
<g id="node7" class="node"><title>Node7</title>
<g id="a_node7"><a xlink:href="../../da/d01/namespacemom.html#afebdc0103ad9cbe0ed4a54e522dc4104" target="_top" xlink:title="This subroutine initializes MOM. ">
<polygon fill="white" stroke="black" points="554,-132 554,-151 643,-151 643,-132 554,-132"/>
<text text-anchor="middle" x="598.5" y="-139" font-family="Helvetica,sans-Serif" font-size="10.00">mom::initialize_mom</text>
</a>
</g>
</g>
<!-- Node6&#45;&gt;Node7 -->
<g id="edge6" class="edge"><title>Node6&#45;&gt;Node7</title>
<path fill="none" stroke="midnightblue" d="M515.069,-141.5C527.64,-141.5 541.222,-141.5 553.665,-141.5"/>
<polygon fill="midnightblue" stroke="midnightblue" points="514.794,-138 504.794,-141.5 514.794,-145 514.794,-138"/>
</g>
<!-- Node8 -->
<g id="node8" class="node"><title>Node8</title>
<g id="a_node8"><a xlink:href="../../de/dbc/MOM__driver_8F90.html#a08fffeb2d8e8acbf9ed4609be6d258c6" target="_top" xlink:title="mom_main">
<polygon fill="white" stroke="black" points="679,-132 679,-151 735,-151 735,-132 679,-132"/>
<text text-anchor="middle" x="707" y="-139" font-family="Helvetica,sans-Serif" font-size="10.00">mom_main</text>
</a>
</g>
</g>
<!-- Node7&#45;&gt;Node8 -->
<g id="edge7" class="edge"><title>Node7&#45;&gt;Node8</title>
<path fill="none" stroke="midnightblue" d="M653.407,-141.5C662.206,-141.5 670.981,-141.5 678.771,-141.5"/>
<polygon fill="midnightblue" stroke="midnightblue" points="653.125,-138 643.125,-141.5 653.125,-145 653.125,-138"/>
</g>
<!-- Node9&#45;&gt;Node5 -->
<g id="edge9" class="edge"><title>Node9&#45;&gt;Node5</title>
<path fill="none" stroke="midnightblue" d="M435.082,-111.506C419.481,-113.505 400.23,-115.159 382.238,-116.121"/>
<polygon fill="midnightblue" stroke="midnightblue" points="435.827,-114.935 445.239,-110.071 434.848,-108.004 435.827,-114.935"/>
</g>
<!-- Node11 -->
<g id="node11" class="node"><title>Node11</title>
<g id="a_node11"><a xlink:href="../../de/ddd/namespacemom__open__boundary.html#ab7c14cc1f67490ff9326c35471fb7ef7" target="_top" xlink:title="Parse an OBC_SEGMENT_%%% string starting with &quot;I=&quot; and configure placement and type of OBC accordingl...">
<polygon fill="white" stroke="black" points="274.5,-49.5 274.5,-79.5 374.5,-79.5 374.5,-49.5 274.5,-49.5"/>
<text text-anchor="start" x="282.5" y="-67.5" font-family="Helvetica,sans-Serif" font-size="10.00">mom_open_boundary::</text>
<text text-anchor="middle" x="324.5" y="-56.5" font-family="Helvetica,sans-Serif" font-size="10.00">setup_u_point_obc</text>
</a>
</g>
</g>
<!-- Node10&#45;&gt;Node11 -->
<g id="edge11" class="edge"><title>Node10&#45;&gt;Node11</title>
<path fill="none" stroke="midnightblue" d="M241.146,-64.5C252.248,-64.5 263.742,-64.5 274.494,-64.5"/>
<polygon fill="midnightblue" stroke="midnightblue" points="241.093,-61.0001 231.093,-64.5 241.093,-68.0001 241.093,-61.0001"/>
</g>
<!-- Node13 -->
<g id="node13" class="node"><title>Node13</title>
<g id="a_node13"><a xlink:href="../../de/ddd/namespacemom__open__boundary.html#ae298511b7acc78ed5cd780ad967318cc" target="_top" xlink:title="Parse an OBC_SEGMENT_%%% string starting with &quot;J=&quot; and configure placement and type of OBC accordingl...">
<polygon fill="white" stroke="black" points="274.5,-0.5 274.5,-30.5 374.5,-30.5 374.5,-0.5 274.5,-0.5"/>
<text text-anchor="start" x="282.5" y="-18.5" font-family="Helvetica,sans-Serif" font-size="10.00">mom_open_boundary::</text>
<text text-anchor="middle" x="324.5" y="-7.5" font-family="Helvetica,sans-Serif" font-size="10.00">setup_v_point_obc</text>
</a>
</g>
</g>
<!-- Node10&#45;&gt;Node13 -->
<g id="edge13" class="edge"><title>Node10&#45;&gt;Node13</title>
<path fill="none" stroke="midnightblue" d="M235.105,-46.1104C249.838,-41.0084 265.661,-35.5289 279.791,-30.6359"/>
<polygon fill="midnightblue" stroke="midnightblue" points="233.913,-42.8189 225.609,-49.3986 236.204,-49.4336 233.913,-42.8189"/>
</g>
<!-- Node12 -->
<g id="node12" class="node"><title>Node12</title>
<g id="a_node12"><a xlink:href="../../de/ddd/namespacemom__open__boundary.html#a0d3f0ce359b2852f00092f7fef88cd5f" target="_top" xlink:title="Enables OBC module and reads configuration parameters. ">
<polygon fill="white" stroke="black" points="418,-27.5 418,-57.5 518,-57.5 518,-27.5 418,-27.5"/>
<text text-anchor="start" x="426" y="-45.5" font-family="Helvetica,sans-Serif" font-size="10.00">mom_open_boundary::</text>
<text text-anchor="middle" x="468" y="-34.5" font-family="Helvetica,sans-Serif" font-size="10.00">open_boundary_config</text>
</a>
</g>
</g>
<!-- Node11&#45;&gt;Node12 -->
<g id="edge12" class="edge"><title>Node11&#45;&gt;Node12</title>
<path fill="none" stroke="midnightblue" d="M384.646,-55.3042C395.748,-53.578 407.242,-51.791 417.994,-50.1193"/>
<polygon fill="midnightblue" stroke="midnightblue" points="383.936,-51.8724 374.593,-56.8672 385.012,-58.7893 383.936,-51.8724"/>
</g>
<!-- Node13&#45;&gt;Node12 -->
<g id="edge14" class="edge"><title>Node13&#45;&gt;Node12</title>
<path fill="none" stroke="midnightblue" d="M384.646,-26.7858C395.748,-28.9042 407.242,-31.0974 417.994,-33.149"/>
<polygon fill="midnightblue" stroke="midnightblue" points="385.072,-23.3039 374.593,-24.8675 383.759,-30.1799 385.072,-23.3039"/>
</g>
</g>
</svg>
        <g id="navigator" transform="translate(0 0)" fill="#404254">
                <rect fill="#f2f5e9" fill-opacity="0.5" stroke="#606060" stroke-width=".5" x="0" y="0" width="60" height="60"/>
                <use id="zoomplus" xlink:href="#zoomPlus" x="17" y="9" onmousedown="handleZoom(evt,'in')"/>
                <use id="zoomminus" xlink:href="#zoomMin" x="42" y="9" onmousedown="handleZoom(evt,'out')"/>
                <use id="reset" xlink:href="#resetDef" x="30" y="36" onmousedown="handleReset()"/>
                <g id="arrowUp" xlink:href="#dirArrow" transform="translate(30 24)" onmousedown="handlePan(0,-1)">
                  <use xlink:href="#rim" fill="#404040">
                        <set attributeName="fill" to="#808080" begin="arrowUp.mouseover" end="arrowUp.mouseout"/>
                  </use>
                  <path fill="none" stroke="white" stroke-width="1.5" d="M0,-3.0v7 M-2.5,-0.5L0,-3.0L2.5,-0.5"/>
                </g>
                <g id="arrowRight" xlink:href="#dirArrow" transform="rotate(90) translate(36 -43)" onmousedown="handlePan(1,0)">
                  <use xlink:href="#rim" fill="#404040">
                        <set attributeName="fill" to="#808080" begin="arrowRight.mouseover" end="arrowRight.mouseout"/>
                  </use>
                  <path fill="none" stroke="white" stroke-width="1.5" d="M0,-3.0v7 M-2.5,-0.5L0,-3.0L2.5,-0.5"/>
                </g>
                <g id="arrowDown" xlink:href="#dirArrow" transform="rotate(180) translate(-30 -48)" onmousedown="handlePan(0,1)">
                  <use xlink:href="#rim" fill="#404040">
                        <set attributeName="fill" to="#808080" begin="arrowDown.mouseover" end="arrowDown.mouseout"/>
                  </use>
                  <path fill="none" stroke="white" stroke-width="1.5" d="M0,-3.0v7 M-2.5,-0.5L0,-3.0L2.5,-0.5"/>
                </g>
                <g id="arrowLeft" xlink:href="#dirArrow" transform="rotate(270) translate(-36 17)" onmousedown="handlePan(-1,0)">
                  <use xlink:href="#rim" fill="#404040">
                        <set attributeName="fill" to="#808080" begin="arrowLeft.mouseover" end="arrowLeft.mouseout"/>
                  </use>
                  <path fill="none" stroke="white" stroke-width="1.5" d="M0,-3.0v7 M-2.5,-0.5L0,-3.0L2.5,-0.5"/>
                </g>
        </g>
        <svg viewBox="0 0 15 15" width="100%" height="30px" preserveAspectRatio="xMaxYMin meet">
         <g id="arrow_out" transform="scale(0.3 0.3)">
          <a xlink:href="namespacemom__string__functions_aad76dee92b69dab4488da049fe11cdb8_icgraph_org.svg" target="_base">
           <rect id="button" ry="5" rx="5" y="6" x="6" height="38" width="38"
                fill="#f2f5e9" fill-opacity="0.5" stroke="#606060" stroke-width="1.0"/>
           <path id="arrow"
             d="M 11.500037,31.436501 C 11.940474,20.09759 22.043105,11.32322 32.158766,21.979434 L 37.068811,17.246167 C 37.068811,17.246167 37.088388,32 37.088388,32 L 22.160133,31.978069 C 22.160133,31.978069 26.997745,27.140456 26.997745,27.140456 C 18.528582,18.264221 13.291696,25.230495 11.500037,31.436501 z"
             style="fill:#404040;"/>
          </a>
         </g>
        </svg>
</svg>
