<?xml version="1.0" encoding="UTF-8" standalone="no"?>
<!DOCTYPE svg PUBLIC "-//W3C//DTD SVG 1.1//EN"
 "http://www.w3.org/Graphics/SVG/1.1/DTD/svg11.dtd">
<!-- Generated by graphviz version 2.38.0 (20140413.2041)
 -->
<!-- Title: mom_string_functions::string_functions_unit_tests Pages: 1 -->
<svg width="449pt" height="72pt"
 viewBox="0.00 0.00 449.00 71.50" xmlns="http://www.w3.org/2000/svg" xmlns:xlink="http://www.w3.org/1999/xlink">
<g id="graph0" class="graph" transform="scale(1 1) rotate(0) translate(4 67.5)">
<title>mom_string_functions::string_functions_unit_tests</title>
<polygon fill="white" stroke="none" points="-4,4 -4,-67.5 445,-67.5 445,4 -4,4"/>
<!-- Node107 -->
<g id="node1" class="node"><title>Node107</title>
<polygon fill="#bfbfbf" stroke="black" points="0,-33 0,-63 115,-63 115,-33 0,-33"/>
<text text-anchor="start" x="8" y="-51" font-family="Helvetica,sans-Serif" font-size="10.00">mom_string_functions</text>
<text text-anchor="middle" x="57.5" y="-40" font-family="Helvetica,sans-Serif" font-size="10.00">::string_functions_unit_tests</text>
</g>
<!-- Node108 -->
<g id="node2" class="node"><title>Node108</title>
<g id="a_node2"><a xlink:href="../../df/ddf/MOM__string__functions_8F90.html#a420ee768ae38c8bb528f4ae573e310ab" target="_top" xlink:title="localtest">
<polygon fill="white" stroke="black" points="165,-38.5 165,-57.5 210,-57.5 210,-38.5 165,-38.5"/>
<text text-anchor="middle" x="187.5" y="-45.5" font-family="Helvetica,sans-Serif" font-size="10.00">localtest</text>
</a>
</g>
</g>
<!-- Node107&#45;&gt;Node108 -->
<g id="edge1" class="edge"><title>Node107&#45;&gt;Node108</title>
<path fill="none" stroke="midnightblue" d="M125.422,-41.2563C139.724,-41.3176 153.83,-41.8291 164.877,-42.7909"/>
<polygon fill="midnightblue" stroke="midnightblue" points="125.003,-37.7575 115.015,-41.2912 125.027,-44.7575 125.003,-37.7575"/>
</g>
<!-- Node109 -->
<g id="node3" class="node"><title>Node109</title>
<g id="a_node3"><a xlink:href="../../da/d01/namespacemom.html#ae77cfd2e790f1266b31d93c58659d46c" target="_top" xlink:title="Calls unit tests for other modules. These are NOT normally invoked and so we provide the module use s...">
<polygon fill="white" stroke="black" points="151,-0.5 151,-19.5 224,-19.5 224,-0.5 151,-0.5"/>
<text text-anchor="middle" x="187.5" y="-7.5" font-family="Helvetica,sans-Serif" font-size="10.00">mom::unit_tests</text>
</a>
</g>
</g>
<!-- Node107&#45;&gt;Node109 -->
<g id="edge3" class="edge"><title>Node107&#45;&gt;Node109</title>
<path fill="none" stroke="midnightblue" d="M118.836,-30.0877C131.081,-26.4524 143.506,-22.7639 154.309,-19.5568"/>
<polygon fill="midnightblue" stroke="midnightblue" points="117.679,-26.7801 109.089,-32.9814 119.672,-33.4906 117.679,-26.7801"/>
</g>
<!-- Node108&#45;&gt;Node107 -->
<g id="edge2" class="edge"><title>Node108&#45;&gt;Node107</title>
<path fill="none" stroke="midnightblue" d="M154.882,-53.9144C142.827,-54.5952 128.69,-54.86 115.015,-54.7088"/>
<polygon fill="midnightblue" stroke="midnightblue" points="155.148,-57.4045 164.877,-53.2091 154.655,-50.4218 155.148,-57.4045"/>
</g>
<!-- Node110 -->
<g id="node4" class="node"><title>Node110</title>
<g id="a_node4"><a xlink:href="../../da/d01/namespacemom.html#afebdc0103ad9cbe0ed4a54e522dc4104" target="_top" xlink:title="This subroutine initializes MOM. ">
<polygon fill="white" stroke="black" points="260,-0.5 260,-19.5 349,-19.5 349,-0.5 260,-0.5"/>
<text text-anchor="middle" x="304.5" y="-7.5" font-family="Helvetica,sans-Serif" font-size="10.00">mom::initialize_mom</text>
</a>
</g>
</g>
<!-- Node109&#45;&gt;Node110 -->
<g id="edge4" class="edge"><title>Node109&#45;&gt;Node110</title>
<path fill="none" stroke="midnightblue" d="M234.526,-10C242.817,-10 251.44,-10 259.667,-10"/>
<polygon fill="midnightblue" stroke="midnightblue" points="234.256,-6.5001 224.256,-10 234.256,-13.5001 234.256,-6.5001"/>
</g>
<!-- Node111 -->
<g id="node5" class="node"><title>Node111</title>
<g id="a_node5"><a xlink:href="../../de/dbc/MOM__driver_8F90.html#a08fffeb2d8e8acbf9ed4609be6d258c6" target="_top" xlink:title="mom_main">
<polygon fill="white" stroke="black" points="385,-0.5 385,-19.5 441,-19.5 441,-0.5 385,-0.5"/>
<text text-anchor="middle" x="413" y="-7.5" font-family="Helvetica,sans-Serif" font-size="10.00">mom_main</text>
</a>
</g>
</g>
<!-- Node110&#45;&gt;Node111 -->
<g id="edge5" class="edge"><title>Node110&#45;&gt;Node111</title>
<path fill="none" stroke="midnightblue" d="M359.407,-10C368.206,-10 376.981,-10 384.771,-10"/>
<polygon fill="midnightblue" stroke="midnightblue" points="359.125,-6.5001 349.125,-10 359.125,-13.5001 359.125,-6.5001"/>
</g>
</g>
</svg>
