<?xml version="1.0" encoding="UTF-8" standalone="no"?>
<!DOCTYPE svg PUBLIC "-//W3C//DTD SVG 1.1//EN"
 "http://www.w3.org/Graphics/SVG/1.1/DTD/svg11.dtd">
<!-- Generated by graphviz version 2.38.0 (20140413.2041)
 -->
<!-- Title: mom_string_functions::string_functions_unit_tests Pages: 1 -->
<!--zoomable 279 -->
<svg id="main" version="1.1" xmlns="http://www.w3.org/2000/svg" xmlns:xlink="http://www.w3.org/1999/xlink" xml:space="preserve" onload="init(evt)">
<style type="text/css"><![CDATA[
.edge:hover path { stroke: red; }
.edge:hover polygon { stroke: red; fill: red; }
]]></style>
<script type="text/javascript"><![CDATA[
var edges = document.getElementsByTagName('g');
if (edges && edges.length) {
  for (var i=0;i<edges.length;i++) {
    if (edges[i].id.substr(0,4)=='edge') {
      edges[i].setAttribute('class','edge');
    }
  }
}
]]></script>
        <defs>
                <circle id="rim" cx="0" cy="0" r="7"/>
                <circle id="rim2" cx="0" cy="0" r="3.5"/>
                <g id="zoomPlus">
                        <use xlink:href="#rim" fill="#404040">
                                <set attributeName="fill" to="#808080" begin="zoomplus.mouseover" end="zoomplus.mouseout"/>
                        </use>
                        <path d="M-4,0h8M0,-4v8" fill="none" stroke="white" stroke-width="1.5" pointer-events="none"/>
                </g>
                <g id="zoomMin">
                        <use xlink:href="#rim" fill="#404040">
                                <set attributeName="fill" to="#808080" begin="zoomminus.mouseover" end="zoomminus.mouseout"/>
                        </use>
                        <path d="M-4,0h8" fill="none" stroke="white" stroke-width="1.5" pointer-events="none"/>
                </g>
                <g id="dirArrow">
                        <path fill="none" stroke="white" stroke-width="1.5" d="M0,-3.0v7 M-2.5,-0.5L0,-3.0L2.5,-0.5"/>
                </g>
               <g id="resetDef">
                       <use xlink:href="#rim2" fill="#404040">
                               <set attributeName="fill" to="#808080" begin="reset.mouseover" end="reset.mouseout"/>
                       </use>
               </g>
        </defs>

<script type="text/javascript">
var viewWidth = 604;
var viewHeight = 279;
var sectionId = 'dynsection-14';
</script>
<script xlink:href="../../svgpan.js"/>
<svg id="graph" class="graph">
<g id="viewport">
<title>mom_string_functions::string_functions_unit_tests</title>
<polygon fill="white" stroke="none" points="-4,4 -4,-275.458 600,-275.458 600,4 -4,4"/>
<!-- Node97 -->
<g id="node1" class="node"><title>Node97</title>
<polygon fill="#bfbfbf" stroke="black" points="0,-101 0,-131 140,-131 140,-101 0,-101"/>
<text text-anchor="start" x="8" y="-119" font-family="Helvetica,sans-Serif" font-size="10.00">mom_string_functions</text>
<text text-anchor="middle" x="70" y="-108" font-family="Helvetica,sans-Serif" font-size="10.00">::string_functions_unit_tests</text>
</g>
<!-- Node98 -->
<g id="node2" class="node"><title>Node98</title>
<g id="a_node2"><a xlink:href="../../df/d46/namespacemom__string__functions.html#aad76dee92b69dab4488da049fe11cdb8" target="_top" xlink:title="Returns the string corresponding to the nth word in the argument or &quot;&quot; if the string is not long enou...">
<polygon fill="white" stroke="black" points="325,-236 325,-266 438,-266 438,-236 325,-236"/>
<text text-anchor="start" x="333" y="-254" font-family="Helvetica,sans-Serif" font-size="10.00">mom_string_functions</text>
<text text-anchor="middle" x="381.5" y="-243" font-family="Helvetica,sans-Serif" font-size="10.00">::extract_word</text>
</a>
</g>
</g>
<!-- Node97&#45;&gt;Node98 -->
<g id="edge1" class="edge"><title>Node97&#45;&gt;Node98</title>
<path fill="none" stroke="midnightblue" d="M77.0848,-131.331C90.0114,-161.506 123.403,-227.928 176,-254 218.763,-275.197 272.998,-273.307 314.87,-266.731"/>
<polygon fill="midnightblue" stroke="midnightblue" points="315.687,-270.142 324.961,-265.019 314.517,-263.241 315.687,-270.142"/>
</g>
<!-- Node99 -->
<g id="node3" class="node"><title>Node99</title>
<g id="a_node3"><a xlink:href="../../df/d46/namespacemom__string__functions.html#a7bfdab6bba33230cc94ed625e95022c9" target="_top" xlink:title="Returns the string corresponding to the nth word in the argument or &quot;&quot; if the string is not long enou...">
<polygon fill="white" stroke="black" points="176,-214 176,-244 289,-244 289,-214 176,-214"/>
<text text-anchor="start" x="184" y="-232" font-family="Helvetica,sans-Serif" font-size="10.00">mom_string_functions</text>
<text text-anchor="middle" x="232.5" y="-221" font-family="Helvetica,sans-Serif" font-size="10.00">::extractword</text>
</a>
</g>
</g>
<!-- Node97&#45;&gt;Node99 -->
<g id="edge2" class="edge"><title>Node97&#45;&gt;Node99</title>
<path fill="none" stroke="midnightblue" d="M88.1332,-131.07C108.364,-148.497 143.394,-177.534 176,-199 181.223,-202.439 186.877,-205.836 192.51,-209.039"/>
<polygon fill="midnightblue" stroke="midnightblue" points="190.834,-212.112 201.279,-213.89 194.223,-205.987 190.834,-212.112"/>
</g>
<!-- Node100 -->
<g id="node4" class="node"><title>Node100</title>
<g id="a_node4"><a xlink:href="../../df/d46/namespacemom__string__functions.html#ae6b4260129cce257d834cc9b32e847f3" target="_top" xlink:title="mom_string_functions\l::left_int">
<polygon fill="white" stroke="black" points="325,-126 325,-156 438,-156 438,-126 325,-126"/>
<text text-anchor="start" x="333" y="-144" font-family="Helvetica,sans-Serif" font-size="10.00">mom_string_functions</text>
<text text-anchor="middle" x="381.5" y="-133" font-family="Helvetica,sans-Serif" font-size="10.00">::left_int</text>
</a>
</g>
</g>
<!-- Node97&#45;&gt;Node100 -->
<g id="edge4" class="edge"><title>Node97&#45;&gt;Node100</title>
<path fill="none" stroke="midnightblue" d="M94.9039,-131.185C115.487,-143.307 146.459,-159.325 176,-166 224.987,-177.068 239.224,-172.678 289,-166 300.859,-164.409 313.356,-161.708 325.175,-158.654"/>
<polygon fill="midnightblue" stroke="midnightblue" points="326.173,-162.01 334.914,-156.023 324.347,-155.252 326.173,-162.01"/>
</g>
<!-- Node101 -->
<g id="node5" class="node"><title>Node101</title>
<g id="a_node5"><a xlink:href="../../df/d46/namespacemom__string__functions.html#a0db6538cb622d0f20a577b07cb545f2e" target="_top" xlink:title="mom_string_functions\l::left_ints">
<polygon fill="white" stroke="black" points="176,-126 176,-156 289,-156 289,-126 176,-126"/>
<text text-anchor="start" x="184" y="-144" font-family="Helvetica,sans-Serif" font-size="10.00">mom_string_functions</text>
<text text-anchor="middle" x="232.5" y="-133" font-family="Helvetica,sans-Serif" font-size="10.00">::left_ints</text>
</a>
</g>
</g>
<!-- Node97&#45;&gt;Node101 -->
<g id="edge5" class="edge"><title>Node97&#45;&gt;Node101</title>
<path fill="none" stroke="midnightblue" d="M140.464,-126.82C148.897,-128.133 157.491,-129.472 165.865,-130.776"/>
<polygon fill="midnightblue" stroke="midnightblue" points="165.526,-134.266 175.945,-132.347 166.603,-127.349 165.526,-134.266"/>
</g>
<!-- Node102 -->
<g id="node6" class="node"><title>Node102</title>
<g id="a_node6"><a xlink:href="../../df/d46/namespacemom__string__functions.html#ab56b89fb51a387279afc68c85d30dca2" target="_top" xlink:title="mom_string_functions\l::left_real">
<polygon fill="white" stroke="black" points="325,-55 325,-85 438,-85 438,-55 325,-55"/>
<text text-anchor="start" x="333" y="-73" font-family="Helvetica,sans-Serif" font-size="10.00">mom_string_functions</text>
<text text-anchor="middle" x="381.5" y="-62" font-family="Helvetica,sans-Serif" font-size="10.00">::left_real</text>
</a>
</g>
</g>
<!-- Node97&#45;&gt;Node102 -->
<g id="edge7" class="edge"><title>Node97&#45;&gt;Node102</title>
<path fill="none" stroke="midnightblue" d="M95.36,-100.877C115.969,-89.026 146.738,-73.4918 176,-67 221.538,-56.8975 274.19,-57.9532 314.664,-61.3757"/>
<polygon fill="midnightblue" stroke="midnightblue" points="314.403,-64.8663 324.68,-62.2914 315.04,-57.8954 314.403,-64.8663"/>
</g>
<!-- Node104 -->
<g id="node8" class="node"><title>Node104</title>
<g id="a_node8"><a xlink:href="../../df/d46/namespacemom__string__functions.html#a07fa1b92ce5c4c4336bb45c5a89fa548" target="_top" xlink:title="mom_string_functions\l::left_reals">
<polygon fill="white" stroke="black" points="176,-77 176,-107 289,-107 289,-77 176,-77"/>
<text text-anchor="start" x="184" y="-95" font-family="Helvetica,sans-Serif" font-size="10.00">mom_string_functions</text>
<text text-anchor="middle" x="232.5" y="-84" font-family="Helvetica,sans-Serif" font-size="10.00">::left_reals</text>
</a>
</g>
</g>
<!-- Node97&#45;&gt;Node104 -->
<g id="edge9" class="edge"><title>Node97&#45;&gt;Node104</title>
<path fill="none" stroke="midnightblue" d="M140.464,-105.613C148.897,-104.352 157.491,-103.067 165.865,-101.815"/>
<polygon fill="midnightblue" stroke="midnightblue" points="166.573,-105.248 175.945,-100.307 165.538,-98.3247 166.573,-105.248"/>
</g>
<!-- Node105 -->
<g id="node9" class="node"><title>Node105</title>
<g id="a_node9"><a xlink:href="../../df/ddf/MOM__string__functions_8F90.html#a420ee768ae38c8bb528f4ae573e310ab" target="_top" xlink:title="localtest">
<polygon fill="white" stroke="black" points="206,-0.5 206,-19.5 259,-19.5 259,-0.5 206,-0.5"/>
<text text-anchor="middle" x="232.5" y="-7.5" font-family="Helvetica,sans-Serif" font-size="10.00">localtest</text>
</a>
</g>
</g>
<!-- Node97&#45;&gt;Node105 -->
<g id="edge12" class="edge"><title>Node97&#45;&gt;Node105</title>
<path fill="none" stroke="midnightblue" d="M81.3743,-100.978C99.5071,-81.0123 138.606,-47.1914 176,-25 182.455,-21.1694 189.633,-17.6064 196.628,-14.6564"/>
<polygon fill="midnightblue" stroke="midnightblue" points="197.901,-17.9166 205.967,-11.0461 195.377,-11.3875 197.901,-17.9166"/>
</g>
<!-- Node99&#45;&gt;Node98 -->
<g id="edge3" class="edge"><title>Node99&#45;&gt;Node98</title>
<path fill="none" stroke="midnightblue" d="M289.074,-237.317C297.489,-238.577 306.238,-239.886 314.842,-241.174"/>
<polygon fill="midnightblue" stroke="midnightblue" points="314.439,-244.652 324.847,-242.671 315.475,-237.729 314.439,-244.652"/>
</g>
<!-- Node101&#45;&gt;Node100 -->
<g id="edge6" class="edge"><title>Node101&#45;&gt;Node100</title>
<path fill="none" stroke="midnightblue" d="M289.074,-141C297.489,-141 306.238,-141 314.842,-141"/>
<polygon fill="midnightblue" stroke="midnightblue" points="314.847,-144.5 324.847,-141 314.847,-137.5 314.847,-144.5"/>
</g>
<!-- Node103 -->
<g id="node7" class="node"><title>Node103</title>
<g id="a_node7"><a xlink:href="../../df/d46/namespacemom__string__functions.html#aec369a6ac0badc1dbd782a1668d2c7c3" target="_top" xlink:title="mom_string_functions\l::isformattedfloatequalto">
<polygon fill="white" stroke="black" points="474,-55 474,-85 596,-85 596,-55 474,-55"/>
<text text-anchor="start" x="482" y="-73" font-family="Helvetica,sans-Serif" font-size="10.00">mom_string_functions</text>
<text text-anchor="middle" x="535" y="-62" font-family="Helvetica,sans-Serif" font-size="10.00">::isformattedfloatequalto</text>
</a>
</g>
</g>
<!-- Node102&#45;&gt;Node103 -->
<g id="edge8" class="edge"><title>Node102&#45;&gt;Node103</title>
<path fill="none" stroke="midnightblue" d="M438.053,-70C446.429,-70 455.161,-70 463.796,-70"/>
<polygon fill="midnightblue" stroke="midnightblue" points="463.861,-73.5001 473.861,-70 463.861,-66.5001 463.861,-73.5001"/>
</g>
<!-- Node104&#45;&gt;Node100 -->
<g id="edge10" class="edge"><title>Node104&#45;&gt;Node100</title>
<path fill="none" stroke="midnightblue" d="M278.804,-107.101C293.544,-112.015 310.067,-117.522 325.44,-122.647"/>
<polygon fill="midnightblue" stroke="midnightblue" points="324.752,-126.106 335.345,-125.948 326.965,-119.466 324.752,-126.106"/>
</g>
<!-- Node104&#45;&gt;Node102 -->
<g id="edge11" class="edge"><title>Node104&#45;&gt;Node102</title>
<path fill="none" stroke="midnightblue" d="M289.074,-83.6827C297.489,-82.4234 306.238,-81.114 314.842,-79.8263"/>
<polygon fill="midnightblue" stroke="midnightblue" points="315.475,-83.2707 324.847,-78.329 314.439,-76.3478 315.475,-83.2707"/>
</g>
<!-- Node105&#45;&gt;Node97 -->
<g id="edge13" class="edge"><title>Node105&#45;&gt;Node97</title>
<path fill="none" stroke="midnightblue" d="M222.114,-19.5867C210.786,-26.2973 191.347,-33.8923 176,-43 150.416,-58.1828 124.034,-78.8094 104.114,-94.4349"/>
<polygon fill="midnightblue" stroke="midnightblue" points="101.709,-91.8733 95.9941,-100.795 106.025,-97.3841 101.709,-91.8733"/>
</g>
</g>
</svg>
        <g id="navigator" transform="translate(0 0)" fill="#404254">
                <rect fill="#f2f5e9" fill-opacity="0.5" stroke="#606060" stroke-width=".5" x="0" y="0" width="60" height="60"/>
                <use id="zoomplus" xlink:href="#zoomPlus" x="17" y="9" onmousedown="handleZoom(evt,'in')"/>
                <use id="zoomminus" xlink:href="#zoomMin" x="42" y="9" onmousedown="handleZoom(evt,'out')"/>
                <use id="reset" xlink:href="#resetDef" x="30" y="36" onmousedown="handleReset()"/>
                <g id="arrowUp" xlink:href="#dirArrow" transform="translate(30 24)" onmousedown="handlePan(0,-1)">
                  <use xlink:href="#rim" fill="#404040">
                        <set attributeName="fill" to="#808080" begin="arrowUp.mouseover" end="arrowUp.mouseout"/>
                  </use>
                  <path fill="none" stroke="white" stroke-width="1.5" d="M0,-3.0v7 M-2.5,-0.5L0,-3.0L2.5,-0.5"/>
                </g>
                <g id="arrowRight" xlink:href="#dirArrow" transform="rotate(90) translate(36 -43)" onmousedown="handlePan(1,0)">
                  <use xlink:href="#rim" fill="#404040">
                        <set attributeName="fill" to="#808080" begin="arrowRight.mouseover" end="arrowRight.mouseout"/>
                  </use>
                  <path fill="none" stroke="white" stroke-width="1.5" d="M0,-3.0v7 M-2.5,-0.5L0,-3.0L2.5,-0.5"/>
                </g>
                <g id="arrowDown" xlink:href="#dirArrow" transform="rotate(180) translate(-30 -48)" onmousedown="handlePan(0,1)">
                  <use xlink:href="#rim" fill="#404040">
                        <set attributeName="fill" to="#808080" begin="arrowDown.mouseover" end="arrowDown.mouseout"/>
                  </use>
                  <path fill="none" stroke="white" stroke-width="1.5" d="M0,-3.0v7 M-2.5,-0.5L0,-3.0L2.5,-0.5"/>
                </g>
                <g id="arrowLeft" xlink:href="#dirArrow" transform="rotate(270) translate(-36 17)" onmousedown="handlePan(-1,0)">
                  <use xlink:href="#rim" fill="#404040">
                        <set attributeName="fill" to="#808080" begin="arrowLeft.mouseover" end="arrowLeft.mouseout"/>
                  </use>
                  <path fill="none" stroke="white" stroke-width="1.5" d="M0,-3.0v7 M-2.5,-0.5L0,-3.0L2.5,-0.5"/>
                </g>
        </g>
        <svg viewBox="0 0 15 15" width="100%" height="30px" preserveAspectRatio="xMaxYMin meet">
         <g id="arrow_out" transform="scale(0.3 0.3)">
          <a xlink:href="namespacemom__string__functions_a82a6737657a9ae78a53b30ab2a761d23_cgraph_org.svg" target="_base">
           <rect id="button" ry="5" rx="5" y="6" x="6" height="38" width="38"
                fill="#f2f5e9" fill-opacity="0.5" stroke="#606060" stroke-width="1.0"/>
           <path id="arrow"
             d="M 11.500037,31.436501 C 11.940474,20.09759 22.043105,11.32322 32.158766,21.979434 L 37.068811,17.246167 C 37.068811,17.246167 37.088388,32 37.088388,32 L 22.160133,31.978069 C 22.160133,31.978069 26.997745,27.140456 26.997745,27.140456 C 18.528582,18.264221 13.291696,25.230495 11.500037,31.436501 z"
             style="fill:#404040;"/>
          </a>
         </g>
        </svg>
</svg>
