<?xml version="1.0" encoding="UTF-8" standalone="no"?>
<!DOCTYPE svg PUBLIC "-//W3C//DTD SVG 1.1//EN"
 "http://www.w3.org/Graphics/SVG/1.1/DTD/svg11.dtd">
<!-- Generated by graphviz version 2.38.0 (20140413.2041)
 -->
<!-- Title: mom_string_functions::string_functions_unit_tests Pages: 1 -->
<!--zoomable 278 -->
<svg id="main" version="1.1" xmlns="http://www.w3.org/2000/svg" xmlns:xlink="http://www.w3.org/1999/xlink" xml:space="preserve" onload="init(evt)">
<style type="text/css"><![CDATA[
.edge:hover path { stroke: red; }
.edge:hover polygon { stroke: red; fill: red; }
]]></style>
<script type="text/javascript"><![CDATA[
var edges = document.getElementsByTagName('g');
if (edges && edges.length) {
  for (var i=0;i<edges.length;i++) {
    if (edges[i].id.substr(0,4)=='edge') {
      edges[i].setAttribute('class','edge');
    }
  }
}
]]></script>
        <defs>
                <circle id="rim" cx="0" cy="0" r="7"/>
                <circle id="rim2" cx="0" cy="0" r="3.5"/>
                <g id="zoomPlus">
                        <use xlink:href="#rim" fill="#404040">
                                <set attributeName="fill" to="#808080" begin="zoomplus.mouseover" end="zoomplus.mouseout"/>
                        </use>
                        <path d="M-4,0h8M0,-4v8" fill="none" stroke="white" stroke-width="1.5" pointer-events="none"/>
                </g>
                <g id="zoomMin">
                        <use xlink:href="#rim" fill="#404040">
                                <set attributeName="fill" to="#808080" begin="zoomminus.mouseover" end="zoomminus.mouseout"/>
                        </use>
                        <path d="M-4,0h8" fill="none" stroke="white" stroke-width="1.5" pointer-events="none"/>
                </g>
                <g id="dirArrow">
                        <path fill="none" stroke="white" stroke-width="1.5" d="M0,-3.0v7 M-2.5,-0.5L0,-3.0L2.5,-0.5"/>
                </g>
               <g id="resetDef">
                       <use xlink:href="#rim2" fill="#404040">
                               <set attributeName="fill" to="#808080" begin="reset.mouseover" end="reset.mouseout"/>
                       </use>
               </g>
        </defs>

<script type="text/javascript">
var viewWidth = 523;
var viewHeight = 278;
var sectionId = 'dynsection-14';
</script>
<script xlink:href="../../svgpan.js"/>
<svg id="graph" class="graph">
<g id="viewport">
<title>mom_string_functions::string_functions_unit_tests</title>
<polygon fill="white" stroke="none" points="-4,4 -4,-274.016 519,-274.016 519,4 -4,4"/>
<!-- Node98 -->
<g id="node1" class="node"><title>Node98</title>
<polygon fill="#bfbfbf" stroke="black" points="0,-101 0,-131 115,-131 115,-101 0,-101"/>
<text text-anchor="start" x="8" y="-119" font-family="Helvetica,sans-Serif" font-size="10.00">mom_string_functions</text>
<text text-anchor="middle" x="57.5" y="-108" font-family="Helvetica,sans-Serif" font-size="10.00">::string_functions_unit_tests</text>
</g>
<!-- Node99 -->
<g id="node2" class="node"><title>Node99</title>
<g id="a_node2"><a xlink:href="../../df/d46/namespacemom__string__functions.html#aad76dee92b69dab4488da049fe11cdb8" target="_top" xlink:title="Returns the string corresponding to the nth word in the argument or &quot;&quot; if the string is not long enou...">
<polygon fill="white" stroke="black" points="282,-236 282,-266 377,-266 377,-236 282,-236"/>
<text text-anchor="start" x="290" y="-254" font-family="Helvetica,sans-Serif" font-size="10.00">mom_string_functions</text>
<text text-anchor="middle" x="329.5" y="-243" font-family="Helvetica,sans-Serif" font-size="10.00">::extract_word</text>
</a>
</g>
</g>
<!-- Node98&#45;&gt;Node99 -->
<g id="edge1" class="edge"><title>Node98&#45;&gt;Node99</title>
<path fill="none" stroke="midnightblue" d="M63.3008,-131.262C73.6825,-161.313 101.379,-227.523 151,-254 187.785,-273.628 235.26,-271.673 271.854,-265.466"/>
<polygon fill="midnightblue" stroke="midnightblue" points="272.671,-268.874 281.869,-263.617 271.4,-261.991 272.671,-268.874"/>
</g>
<!-- Node100 -->
<g id="node3" class="node"><title>Node100</title>
<g id="a_node3"><a xlink:href="../../df/d46/namespacemom__string__functions.html#a7bfdab6bba33230cc94ed625e95022c9" target="_top" xlink:title="Returns the string corresponding to the nth word in the argument or &quot;&quot; if the string is not long enou...">
<polygon fill="white" stroke="black" points="151,-214 151,-244 246,-244 246,-214 151,-214"/>
<text text-anchor="start" x="159" y="-232" font-family="Helvetica,sans-Serif" font-size="10.00">mom_string_functions</text>
<text text-anchor="middle" x="198.5" y="-221" font-family="Helvetica,sans-Serif" font-size="10.00">::extractword</text>
</a>
</g>
</g>
<!-- Node98&#45;&gt;Node100 -->
<g id="edge2" class="edge"><title>Node98&#45;&gt;Node100</title>
<path fill="none" stroke="midnightblue" d="M73.8825,-131.191C91.7241,-148.474 122.362,-177.132 151,-199 155.095,-202.127 159.514,-205.26 163.943,-208.259"/>
<polygon fill="midnightblue" stroke="midnightblue" points="162.112,-211.245 172.388,-213.827 165.965,-205.4 162.112,-211.245"/>
</g>
<!-- Node101 -->
<g id="node4" class="node"><title>Node101</title>
<g id="a_node4"><a xlink:href="../../df/d46/namespacemom__string__functions.html#ae6b4260129cce257d834cc9b32e847f3" target="_top" xlink:title="mom_string_functions\l::left_int">
<polygon fill="white" stroke="black" points="282,-126 282,-156 377,-156 377,-126 282,-126"/>
<text text-anchor="start" x="290" y="-144" font-family="Helvetica,sans-Serif" font-size="10.00">mom_string_functions</text>
<text text-anchor="middle" x="329.5" y="-133" font-family="Helvetica,sans-Serif" font-size="10.00">::left_int</text>
</a>
</g>
</g>
<!-- Node98&#45;&gt;Node101 -->
<g id="edge4" class="edge"><title>Node98&#45;&gt;Node101</title>
<path fill="none" stroke="midnightblue" d="M79.2897,-131.164C97.2591,-143.273 124.454,-159.284 151,-166 191.933,-176.355 204.234,-172.189 246,-166 256.434,-164.454 267.375,-161.864 277.754,-158.923"/>
<polygon fill="midnightblue" stroke="midnightblue" points="278.915,-162.229 287.498,-156.018 276.915,-155.521 278.915,-162.229"/>
</g>
<!-- Node102 -->
<g id="node5" class="node"><title>Node102</title>
<g id="a_node5"><a xlink:href="../../df/d46/namespacemom__string__functions.html#a0db6538cb622d0f20a577b07cb545f2e" target="_top" xlink:title="mom_string_functions\l::left_ints">
<polygon fill="white" stroke="black" points="151,-126 151,-156 246,-156 246,-126 151,-126"/>
<text text-anchor="start" x="159" y="-144" font-family="Helvetica,sans-Serif" font-size="10.00">mom_string_functions</text>
<text text-anchor="middle" x="198.5" y="-133" font-family="Helvetica,sans-Serif" font-size="10.00">::left_ints</text>
</a>
</g>
</g>
<!-- Node98&#45;&gt;Node102 -->
<g id="edge5" class="edge"><title>Node98&#45;&gt;Node102</title>
<path fill="none" stroke="midnightblue" d="M115.037,-126.168C123.572,-127.704 132.378,-129.287 140.915,-130.823"/>
<polygon fill="midnightblue" stroke="midnightblue" points="140.318,-134.272 150.78,-132.597 141.557,-127.382 140.318,-134.272"/>
</g>
<!-- Node103 -->
<g id="node6" class="node"><title>Node103</title>
<g id="a_node6"><a xlink:href="../../df/d46/namespacemom__string__functions.html#ab56b89fb51a387279afc68c85d30dca2" target="_top" xlink:title="mom_string_functions\l::left_real">
<polygon fill="white" stroke="black" points="282,-55 282,-85 377,-85 377,-55 282,-55"/>
<text text-anchor="start" x="290" y="-73" font-family="Helvetica,sans-Serif" font-size="10.00">mom_string_functions</text>
<text text-anchor="middle" x="329.5" y="-62" font-family="Helvetica,sans-Serif" font-size="10.00">::left_real</text>
</a>
</g>
</g>
<!-- Node98&#45;&gt;Node103 -->
<g id="edge7" class="edge"><title>Node98&#45;&gt;Node103</title>
<path fill="none" stroke="midnightblue" d="M79.6978,-100.898C97.6974,-89.0583 124.721,-73.5304 151,-67 190.474,-57.1904 236.421,-58.2922 271.677,-61.6622"/>
<polygon fill="midnightblue" stroke="midnightblue" points="271.479,-65.1605 281.788,-62.7182 272.206,-58.1984 271.479,-65.1605"/>
</g>
<!-- Node105 -->
<g id="node8" class="node"><title>Node105</title>
<g id="a_node8"><a xlink:href="../../df/d46/namespacemom__string__functions.html#a07fa1b92ce5c4c4336bb45c5a89fa548" target="_top" xlink:title="mom_string_functions\l::left_reals">
<polygon fill="white" stroke="black" points="151,-77 151,-107 246,-107 246,-77 151,-77"/>
<text text-anchor="start" x="159" y="-95" font-family="Helvetica,sans-Serif" font-size="10.00">mom_string_functions</text>
<text text-anchor="middle" x="198.5" y="-84" font-family="Helvetica,sans-Serif" font-size="10.00">::left_reals</text>
</a>
</g>
</g>
<!-- Node98&#45;&gt;Node105 -->
<g id="edge9" class="edge"><title>Node98&#45;&gt;Node105</title>
<path fill="none" stroke="midnightblue" d="M115.037,-106.238C123.572,-104.765 132.378,-103.244 140.915,-101.77"/>
<polygon fill="midnightblue" stroke="midnightblue" points="141.521,-105.217 150.78,-100.067 140.33,-98.3193 141.521,-105.217"/>
</g>
<!-- Node106 -->
<g id="node9" class="node"><title>Node106</title>
<g id="a_node9"><a xlink:href="../../df/ddf/MOM__string__functions_8F90.html#a420ee768ae38c8bb528f4ae573e310ab" target="_top" xlink:title="localtest">
<polygon fill="white" stroke="black" points="176,-0.5 176,-19.5 221,-19.5 221,-0.5 176,-0.5"/>
<text text-anchor="middle" x="198.5" y="-7.5" font-family="Helvetica,sans-Serif" font-size="10.00">localtest</text>
</a>
</g>
</g>
<!-- Node98&#45;&gt;Node106 -->
<g id="edge12" class="edge"><title>Node98&#45;&gt;Node106</title>
<path fill="none" stroke="midnightblue" d="M67.8229,-100.793C83.7995,-80.9848 117.898,-47.6891 151,-25 155.777,-21.7256 161.059,-18.5937 166.297,-15.8754"/>
<polygon fill="midnightblue" stroke="midnightblue" points="168.022,-18.9312 175.561,-11.4876 165.026,-12.6049 168.022,-18.9312"/>
</g>
<!-- Node100&#45;&gt;Node99 -->
<g id="edge3" class="edge"><title>Node100&#45;&gt;Node99</title>
<path fill="none" stroke="midnightblue" d="M246.072,-236.943C254.475,-238.376 263.319,-239.884 271.969,-241.359"/>
<polygon fill="midnightblue" stroke="midnightblue" points="271.55,-244.838 281.996,-243.069 272.727,-237.938 271.55,-244.838"/>
</g>
<!-- Node102&#45;&gt;Node101 -->
<g id="edge6" class="edge"><title>Node102&#45;&gt;Node101</title>
<path fill="none" stroke="midnightblue" d="M246.072,-141C254.475,-141 263.319,-141 271.969,-141"/>
<polygon fill="midnightblue" stroke="midnightblue" points="271.996,-144.5 281.996,-141 271.996,-137.5 271.996,-144.5"/>
</g>
<!-- Node104 -->
<g id="node7" class="node"><title>Node104</title>
<g id="a_node7"><a xlink:href="../../df/d46/namespacemom__string__functions.html#aec369a6ac0badc1dbd782a1668d2c7c3" target="_top" xlink:title="mom_string_functions\l::isformattedfloatequalto">
<polygon fill="white" stroke="black" points="413,-55 413,-85 515,-85 515,-55 413,-55"/>
<text text-anchor="start" x="421" y="-73" font-family="Helvetica,sans-Serif" font-size="10.00">mom_string_functions</text>
<text text-anchor="middle" x="464" y="-62" font-family="Helvetica,sans-Serif" font-size="10.00">::isformattedfloatequalto</text>
</a>
</g>
</g>
<!-- Node103&#45;&gt;Node104 -->
<g id="edge8" class="edge"><title>Node103&#45;&gt;Node104</title>
<path fill="none" stroke="midnightblue" d="M377.215,-70C385.372,-70 393.963,-70 402.43,-70"/>
<polygon fill="midnightblue" stroke="midnightblue" points="402.658,-73.5001 412.658,-70 402.658,-66.5001 402.658,-73.5001"/>
</g>
<!-- Node105&#45;&gt;Node101 -->
<g id="edge10" class="edge"><title>Node105&#45;&gt;Node101</title>
<path fill="none" stroke="midnightblue" d="M239.257,-107.101C251.886,-111.899 266.007,-117.262 279.223,-122.282"/>
<polygon fill="midnightblue" stroke="midnightblue" points="278.061,-125.585 288.652,-125.864 280.547,-119.041 278.061,-125.585"/>
</g>
<!-- Node105&#45;&gt;Node103 -->
<g id="edge11" class="edge"><title>Node105&#45;&gt;Node103</title>
<path fill="none" stroke="midnightblue" d="M246.072,-84.0575C254.475,-82.6244 263.319,-81.1161 271.969,-79.6409"/>
<polygon fill="midnightblue" stroke="midnightblue" points="272.727,-83.0623 281.996,-77.9308 271.55,-76.1619 272.727,-83.0623"/>
</g>
<!-- Node106&#45;&gt;Node98 -->
<g id="edge13" class="edge"><title>Node106&#45;&gt;Node98</title>
<path fill="none" stroke="midnightblue" d="M189.596,-19.714C180.064,-26.5499 163.739,-34.2683 151,-43 128.588,-58.3618 105.719,-78.5857 88.3276,-94.0162"/>
<polygon fill="midnightblue" stroke="midnightblue" points="85.9085,-91.4833 80.7435,-100.734 90.5499,-96.7233 85.9085,-91.4833"/>
</g>
</g>
</svg>
        <g id="navigator" transform="translate(0 0)" fill="#404254">
                <rect fill="#f2f5e9" fill-opacity="0.5" stroke="#606060" stroke-width=".5" x="0" y="0" width="60" height="60"/>
                <use id="zoomplus" xlink:href="#zoomPlus" x="17" y="9" onmousedown="handleZoom(evt,'in')"/>
                <use id="zoomminus" xlink:href="#zoomMin" x="42" y="9" onmousedown="handleZoom(evt,'out')"/>
                <use id="reset" xlink:href="#resetDef" x="30" y="36" onmousedown="handleReset()"/>
                <g id="arrowUp" xlink:href="#dirArrow" transform="translate(30 24)" onmousedown="handlePan(0,-1)">
                  <use xlink:href="#rim" fill="#404040">
                        <set attributeName="fill" to="#808080" begin="arrowUp.mouseover" end="arrowUp.mouseout"/>
                  </use>
                  <path fill="none" stroke="white" stroke-width="1.5" d="M0,-3.0v7 M-2.5,-0.5L0,-3.0L2.5,-0.5"/>
                </g>
                <g id="arrowRight" xlink:href="#dirArrow" transform="rotate(90) translate(36 -43)" onmousedown="handlePan(1,0)">
                  <use xlink:href="#rim" fill="#404040">
                        <set attributeName="fill" to="#808080" begin="arrowRight.mouseover" end="arrowRight.mouseout"/>
                  </use>
                  <path fill="none" stroke="white" stroke-width="1.5" d="M0,-3.0v7 M-2.5,-0.5L0,-3.0L2.5,-0.5"/>
                </g>
                <g id="arrowDown" xlink:href="#dirArrow" transform="rotate(180) translate(-30 -48)" onmousedown="handlePan(0,1)">
                  <use xlink:href="#rim" fill="#404040">
                        <set attributeName="fill" to="#808080" begin="arrowDown.mouseover" end="arrowDown.mouseout"/>
                  </use>
                  <path fill="none" stroke="white" stroke-width="1.5" d="M0,-3.0v7 M-2.5,-0.5L0,-3.0L2.5,-0.5"/>
                </g>
                <g id="arrowLeft" xlink:href="#dirArrow" transform="rotate(270) translate(-36 17)" onmousedown="handlePan(-1,0)">
                  <use xlink:href="#rim" fill="#404040">
                        <set attributeName="fill" to="#808080" begin="arrowLeft.mouseover" end="arrowLeft.mouseout"/>
                  </use>
                  <path fill="none" stroke="white" stroke-width="1.5" d="M0,-3.0v7 M-2.5,-0.5L0,-3.0L2.5,-0.5"/>
                </g>
        </g>
        <svg viewBox="0 0 15 15" width="100%" height="30px" preserveAspectRatio="xMaxYMin meet">
         <g id="arrow_out" transform="scale(0.3 0.3)">
          <a xlink:href="namespacemom__string__functions_a82a6737657a9ae78a53b30ab2a761d23_cgraph_org.svg" target="_base">
           <rect id="button" ry="5" rx="5" y="6" x="6" height="38" width="38"
                fill="#f2f5e9" fill-opacity="0.5" stroke="#606060" stroke-width="1.0"/>
           <path id="arrow"
             d="M 11.500037,31.436501 C 11.940474,20.09759 22.043105,11.32322 32.158766,21.979434 L 37.068811,17.246167 C 37.068811,17.246167 37.088388,32 37.088388,32 L 22.160133,31.978069 C 22.160133,31.978069 26.997745,27.140456 26.997745,27.140456 C 18.528582,18.264221 13.291696,25.230495 11.500037,31.436501 z"
             style="fill:#404040;"/>
          </a>
         </g>
        </svg>
</svg>
