<?xml version="1.0" encoding="UTF-8" standalone="no"?>
<!DOCTYPE svg PUBLIC "-//W3C//DTD SVG 1.1//EN"
 "http://www.w3.org/Graphics/SVG/1.1/DTD/svg11.dtd">
<!-- Generated by graphviz version 2.38.0 (20140413.2041)
 -->
<!-- Title: mom_string_functions::extractword Pages: 1 -->
<svg width="670pt" height="104pt"
 viewBox="0.00 0.00 670.00 104.00" xmlns="http://www.w3.org/2000/svg" xmlns:xlink="http://www.w3.org/1999/xlink">
<g id="graph0" class="graph" transform="scale(1 1) rotate(0) translate(4 100)">
<title>mom_string_functions::extractword</title>
<polygon fill="white" stroke="none" points="-4,4 -4,-100 666,-100 666,4 -4,4"/>
<!-- Node16 -->
<g id="node1" class="node"><title>Node16</title>
<polygon fill="#bfbfbf" stroke="black" points="0,-37 0,-67 113,-67 113,-37 0,-37"/>
<text text-anchor="start" x="8" y="-55" font-family="Helvetica,sans-Serif" font-size="10.00">mom_string_functions</text>
<text text-anchor="middle" x="56.5" y="-44" font-family="Helvetica,sans-Serif" font-size="10.00">::extractword</text>
</g>
<!-- Node17 -->
<g id="node2" class="node"><title>Node17</title>
<g id="a_node2"><a xlink:href="../../d7/d73/namespacemom__ale.html#acb67ef912ee001b72fa9ed5d6c79cabe" target="_top" xlink:title="Initialize regridding module. ">
<polygon fill="white" stroke="black" points="151.5,-68.5 151.5,-87.5 286.5,-87.5 286.5,-68.5 151.5,-68.5"/>
<text text-anchor="middle" x="219" y="-75.5" font-family="Helvetica,sans-Serif" font-size="10.00">mom_ale::ale_initregridding</text>
</a>
</g>
</g>
<!-- Node16&#45;&gt;Node17 -->
<g id="edge1" class="edge"><title>Node16&#45;&gt;Node17</title>
<path fill="none" stroke="midnightblue" d="M123.083,-62.624C135.021,-64.5579 147.407,-66.5645 159.136,-68.4645"/>
<polygon fill="midnightblue" stroke="midnightblue" points="123.616,-59.1648 113.185,-61.0206 122.496,-66.0747 123.616,-59.1648"/>
</g>
<!-- Node19 -->
<g id="node4" class="node"><title>Node19</title>
<g id="a_node4"><a xlink:href="../../df/d46/namespacemom__string__functions.html#a82a6737657a9ae78a53b30ab2a761d23" target="_top" xlink:title="mom_string_functions\l::string_functions_unit_tests">
<polygon fill="white" stroke="black" points="149,-11 149,-41 289,-41 289,-11 149,-11"/>
<text text-anchor="start" x="157" y="-29" font-family="Helvetica,sans-Serif" font-size="10.00">mom_string_functions</text>
<text text-anchor="middle" x="219" y="-18" font-family="Helvetica,sans-Serif" font-size="10.00">::string_functions_unit_tests</text>
</a>
</g>
</g>
<!-- Node16&#45;&gt;Node19 -->
<g id="edge3" class="edge"><title>Node16&#45;&gt;Node19</title>
<path fill="none" stroke="midnightblue" d="M123.317,-41.3381C131.734,-39.9746 140.369,-38.5757 148.837,-37.2039"/>
<polygon fill="midnightblue" stroke="midnightblue" points="122.496,-37.9253 113.185,-42.9794 123.616,-44.8352 122.496,-37.9253"/>
</g>
<!-- Node18 -->
<g id="node3" class="node"><title>Node18</title>
<g id="a_node3"><a xlink:href="../../d7/d73/namespacemom__ale.html#a58d4b7c32f779beec0086caeb802d492" target="_top" xlink:title="This routine is typically called (from initialize_MOM in file MOM.F90) before the main time integrati...">
<polygon fill="white" stroke="black" points="325,-76.5 325,-95.5 418,-95.5 418,-76.5 325,-76.5"/>
<text text-anchor="middle" x="371.5" y="-83.5" font-family="Helvetica,sans-Serif" font-size="10.00">mom_ale::ale_init</text>
</a>
</g>
</g>
<!-- Node17&#45;&gt;Node18 -->
<g id="edge2" class="edge"><title>Node17&#45;&gt;Node18</title>
<path fill="none" stroke="midnightblue" d="M296.886,-82.0869C306.492,-82.5976 316.063,-83.1063 324.972,-83.5799"/>
<polygon fill="midnightblue" stroke="midnightblue" points="297.06,-78.5913 286.888,-81.5555 296.688,-85.5815 297.06,-78.5913"/>
</g>
<!-- Node20 -->
<g id="node5" class="node"><title>Node20</title>
<g id="a_node5"><a xlink:href="../../da/d01/namespacemom.html#ae77cfd2e790f1266b31d93c58659d46c" target="_top" xlink:title="Calls unit tests for other modules. These are NOT normally invoked and so we provide the module use s...">
<polygon fill="white" stroke="black" points="328,-38.5 328,-57.5 415,-57.5 415,-38.5 328,-38.5"/>
<text text-anchor="middle" x="371.5" y="-45.5" font-family="Helvetica,sans-Serif" font-size="10.00">mom::unit_tests</text>
</a>
</g>
</g>
<!-- Node19&#45;&gt;Node20 -->
<g id="edge4" class="edge"><title>Node19&#45;&gt;Node20</title>
<path fill="none" stroke="midnightblue" d="M299.266,-37.5871C309.033,-39.0148 318.709,-40.4292 327.634,-41.7339"/>
<polygon fill="midnightblue" stroke="midnightblue" points="299.484,-34.0819 289.083,-36.0986 298.472,-41.0083 299.484,-34.0819"/>
</g>
<!-- Node23 -->
<g id="node8" class="node"><title>Node23</title>
<g id="a_node8"><a xlink:href="../../df/ddf/MOM__string__functions_8F90.html#a420ee768ae38c8bb528f4ae573e310ab" target="_top" xlink:title="localtest">
<polygon fill="white" stroke="black" points="345,-0.5 345,-19.5 398,-19.5 398,-0.5 345,-0.5"/>
<text text-anchor="middle" x="371.5" y="-7.5" font-family="Helvetica,sans-Serif" font-size="10.00">localtest</text>
</a>
</g>
</g>
<!-- Node19&#45;&gt;Node23 -->
<g id="edge7" class="edge"><title>Node19&#45;&gt;Node23</title>
<path fill="none" stroke="midnightblue" d="M299.386,-10.8194C315.923,-9.13387 332.193,-7.9126 344.988,-7.49658"/>
<polygon fill="midnightblue" stroke="midnightblue" points="298.652,-7.37793 289.083,-11.9258 299.4,-14.3379 298.652,-7.37793"/>
</g>
<!-- Node21 -->
<g id="node6" class="node"><title>Node21</title>
<g id="a_node6"><a xlink:href="../../da/d01/namespacemom.html#a0be2869fef30e1e0604facfe1b41555d" target="_top" xlink:title="This subroutine initializes MOM. ">
<polygon fill="white" stroke="black" points="454,-38.5 454,-57.5 561,-57.5 561,-38.5 454,-38.5"/>
<text text-anchor="middle" x="507.5" y="-45.5" font-family="Helvetica,sans-Serif" font-size="10.00">mom::initialize_mom</text>
</a>
</g>
</g>
<!-- Node20&#45;&gt;Node21 -->
<g id="edge5" class="edge"><title>Node20&#45;&gt;Node21</title>
<path fill="none" stroke="midnightblue" d="M425.56,-48C434.853,-48 444.521,-48 453.804,-48"/>
<polygon fill="midnightblue" stroke="midnightblue" points="425.267,-44.5001 415.267,-48 425.267,-51.5001 425.267,-44.5001"/>
</g>
<!-- Node22 -->
<g id="node7" class="node"><title>Node22</title>
<g id="a_node7"><a xlink:href="../../de/dbc/MOM__driver_8F90.html#a08fffeb2d8e8acbf9ed4609be6d258c6" target="_top" xlink:title="mom_main">
<polygon fill="white" stroke="black" points="597,-38.5 597,-57.5 662,-57.5 662,-38.5 597,-38.5"/>
<text text-anchor="middle" x="629.5" y="-45.5" font-family="Helvetica,sans-Serif" font-size="10.00">mom_main</text>
</a>
</g>
</g>
<!-- Node21&#45;&gt;Node22 -->
<g id="edge6" class="edge"><title>Node21&#45;&gt;Node22</title>
<path fill="none" stroke="midnightblue" d="M571.206,-48C580.134,-48 588.983,-48 596.958,-48"/>
<polygon fill="midnightblue" stroke="midnightblue" points="571.134,-44.5001 561.134,-48 571.134,-51.5001 571.134,-44.5001"/>
</g>
<!-- Node23&#45;&gt;Node19 -->
<g id="edge8" class="edge"><title>Node23&#45;&gt;Node19</title>
<path fill="none" stroke="midnightblue" d="M334.993,-19.6066C321.226,-21.7731 304.97,-23.8007 289.083,-25.3854"/>
<polygon fill="midnightblue" stroke="midnightblue" points="335.706,-23.036 344.988,-17.9278 334.547,-16.1326 335.706,-23.036"/>
</g>
</g>
</svg>
