<?xml version="1.0" encoding="UTF-8" standalone="no"?>
<!DOCTYPE svg PUBLIC "-//W3C//DTD SVG 1.1//EN"
 "http://www.w3.org/Graphics/SVG/1.1/DTD/svg11.dtd">
<!-- Generated by graphviz version 2.38.0 (20140413.2041)
 -->
<!-- Title: mom_string_functions::left_reals Pages: 1 -->
<svg width="685pt" height="116pt"
 viewBox="0.00 0.00 685.00 115.50" xmlns="http://www.w3.org/2000/svg" xmlns:xlink="http://www.w3.org/1999/xlink">
<g id="graph0" class="graph" transform="scale(1 1) rotate(0) translate(4 111.5)">
<title>mom_string_functions::left_reals</title>
<polygon fill="white" stroke="none" points="-4,4 -4,-111.5 681,-111.5 681,4 -4,4"/>
<!-- Node73 -->
<g id="node1" class="node"><title>Node73</title>
<polygon fill="#bfbfbf" stroke="black" points="0,-39 0,-69 113,-69 113,-39 0,-39"/>
<text text-anchor="start" x="8" y="-57" font-family="Helvetica,sans-Serif" font-size="10.00">mom_string_functions</text>
<text text-anchor="middle" x="56.5" y="-46" font-family="Helvetica,sans-Serif" font-size="10.00">::left_reals</text>
</g>
<!-- Node74 -->
<g id="node2" class="node"><title>Node74</title>
<g id="a_node2"><a xlink:href="../../d9/def/namespacemom__file__parser.html#aa368e3cc6595a4f7b84560e1ffbb3ac6" target="_top" xlink:title="mom_file_parser::log\l_param_real_array">
<polygon fill="white" stroke="black" points="165.5,-68 165.5,-98 272.5,-98 272.5,-68 165.5,-68"/>
<text text-anchor="start" x="173.5" y="-86" font-family="Helvetica,sans-Serif" font-size="10.00">mom_file_parser::log</text>
<text text-anchor="middle" x="219" y="-75" font-family="Helvetica,sans-Serif" font-size="10.00">_param_real_array</text>
</a>
</g>
</g>
<!-- Node73&#45;&gt;Node74 -->
<g id="edge1" class="edge"><title>Node73&#45;&gt;Node74</title>
<path fill="none" stroke="midnightblue" d="M123.264,-65.8826C137.29,-68.4169 151.927,-71.0616 165.383,-73.4929"/>
<polygon fill="midnightblue" stroke="midnightblue" points="123.648,-62.3953 113.185,-64.0614 122.403,-69.2838 123.648,-62.3953"/>
</g>
<!-- Node76 -->
<g id="node4" class="node"><title>Node76</title>
<g id="a_node4"><a xlink:href="../../df/d46/namespacemom__string__functions.html#a82a6737657a9ae78a53b30ab2a761d23" target="_top" xlink:title="mom_string_functions\l::string_functions_unit_tests">
<polygon fill="white" stroke="black" points="149,-11 149,-41 289,-41 289,-11 149,-11"/>
<text text-anchor="start" x="157" y="-29" font-family="Helvetica,sans-Serif" font-size="10.00">mom_string_functions</text>
<text text-anchor="middle" x="219" y="-18" font-family="Helvetica,sans-Serif" font-size="10.00">::string_functions_unit_tests</text>
</a>
</g>
</g>
<!-- Node73&#45;&gt;Node76 -->
<g id="edge3" class="edge"><title>Node73&#45;&gt;Node76</title>
<path fill="none" stroke="midnightblue" d="M123.039,-42.5664C131.544,-41.0827 140.276,-39.5593 148.837,-38.0658"/>
<polygon fill="midnightblue" stroke="midnightblue" points="122.434,-39.1189 113.185,-44.2855 123.637,-46.0148 122.434,-39.1189"/>
</g>
<!-- Node75 -->
<g id="node3" class="node"><title>Node75</title>
<g id="a_node3"><a xlink:href="../../d9/def/namespacemom__file__parser.html#af43ea79dcb7ced6a6bf49d438d105f76" target="_top" xlink:title="mom_file_parser::get\l_param_real_array">
<polygon fill="white" stroke="black" points="325,-77 325,-107 433,-107 433,-77 325,-77"/>
<text text-anchor="start" x="333" y="-95" font-family="Helvetica,sans-Serif" font-size="10.00">mom_file_parser::get</text>
<text text-anchor="middle" x="379" y="-84" font-family="Helvetica,sans-Serif" font-size="10.00">_param_real_array</text>
</a>
</g>
</g>
<!-- Node74&#45;&gt;Node75 -->
<g id="edge2" class="edge"><title>Node74&#45;&gt;Node75</title>
<path fill="none" stroke="midnightblue" d="M282.627,-86.5674C296.591,-87.3628 311.268,-88.1988 324.81,-88.9702"/>
<polygon fill="midnightblue" stroke="midnightblue" points="282.795,-83.0713 272.612,-85.9969 282.396,-90.06 282.795,-83.0713"/>
</g>
<!-- Node77 -->
<g id="node5" class="node"><title>Node77</title>
<g id="a_node5"><a xlink:href="../../da/d01/namespacemom.html#ae77cfd2e790f1266b31d93c58659d46c" target="_top" xlink:title="Calls unit tests for other modules. These are NOT normally invoked and so we provide the module use s...">
<polygon fill="white" stroke="black" points="335.5,-38.5 335.5,-57.5 422.5,-57.5 422.5,-38.5 335.5,-38.5"/>
<text text-anchor="middle" x="379" y="-45.5" font-family="Helvetica,sans-Serif" font-size="10.00">mom::unit_tests</text>
</a>
</g>
</g>
<!-- Node76&#45;&gt;Node77 -->
<g id="edge4" class="edge"><title>Node76&#45;&gt;Node77</title>
<path fill="none" stroke="midnightblue" d="M299.21,-37.0293C311.594,-38.7536 323.97,-40.4768 335.122,-42.0297"/>
<polygon fill="midnightblue" stroke="midnightblue" points="299.688,-33.5621 289.301,-35.6495 298.723,-40.4953 299.688,-33.5621"/>
</g>
<!-- Node80 -->
<g id="node8" class="node"><title>Node80</title>
<g id="a_node8"><a xlink:href="../../df/ddf/MOM__string__functions_8F90.html#a420ee768ae38c8bb528f4ae573e310ab" target="_top" xlink:title="localtest">
<polygon fill="white" stroke="black" points="352.5,-0.5 352.5,-19.5 405.5,-19.5 405.5,-0.5 352.5,-0.5"/>
<text text-anchor="middle" x="379" y="-7.5" font-family="Helvetica,sans-Serif" font-size="10.00">localtest</text>
</a>
</g>
</g>
<!-- Node76&#45;&gt;Node80 -->
<g id="edge7" class="edge"><title>Node76&#45;&gt;Node80</title>
<path fill="none" stroke="midnightblue" d="M299.316,-11.218C318.509,-9.28027 337.677,-7.87625 352.289,-7.46487"/>
<polygon fill="midnightblue" stroke="midnightblue" points="298.877,-7.74483 289.301,-12.2776 299.614,-14.706 298.877,-7.74483"/>
</g>
<!-- Node78 -->
<g id="node6" class="node"><title>Node78</title>
<g id="a_node6"><a xlink:href="../../da/d01/namespacemom.html#a0be2869fef30e1e0604facfe1b41555d" target="_top" xlink:title="This subroutine initializes MOM. ">
<polygon fill="white" stroke="black" points="469,-38.5 469,-57.5 576,-57.5 576,-38.5 469,-38.5"/>
<text text-anchor="middle" x="522.5" y="-45.5" font-family="Helvetica,sans-Serif" font-size="10.00">mom::initialize_mom</text>
</a>
</g>
</g>
<!-- Node77&#45;&gt;Node78 -->
<g id="edge5" class="edge"><title>Node77&#45;&gt;Node78</title>
<path fill="none" stroke="midnightblue" d="M432.93,-48C444.659,-48 457.087,-48 468.806,-48"/>
<polygon fill="midnightblue" stroke="midnightblue" points="432.839,-44.5001 422.839,-48 432.839,-51.5001 432.839,-44.5001"/>
</g>
<!-- Node79 -->
<g id="node7" class="node"><title>Node79</title>
<g id="a_node7"><a xlink:href="../../de/dbc/MOM__driver_8F90.html#a08fffeb2d8e8acbf9ed4609be6d258c6" target="_top" xlink:title="mom_main">
<polygon fill="white" stroke="black" points="612,-38.5 612,-57.5 677,-57.5 677,-38.5 612,-38.5"/>
<text text-anchor="middle" x="644.5" y="-45.5" font-family="Helvetica,sans-Serif" font-size="10.00">mom_main</text>
</a>
</g>
</g>
<!-- Node78&#45;&gt;Node79 -->
<g id="edge6" class="edge"><title>Node78&#45;&gt;Node79</title>
<path fill="none" stroke="midnightblue" d="M586.206,-48C595.134,-48 603.983,-48 611.958,-48"/>
<polygon fill="midnightblue" stroke="midnightblue" points="586.134,-44.5001 576.134,-48 586.134,-51.5001 586.134,-44.5001"/>
</g>
<!-- Node80&#45;&gt;Node76 -->
<g id="edge8" class="edge"><title>Node80&#45;&gt;Node76</title>
<path fill="none" stroke="midnightblue" d="M342.023,-19.4104C326.377,-21.7909 307.491,-24.0159 289.301,-25.6867"/>
<polygon fill="midnightblue" stroke="midnightblue" points="342.98,-22.8009 352.289,-17.7424 341.857,-15.8915 342.98,-22.8009"/>
</g>
</g>
</svg>
