<?xml version="1.0" encoding="UTF-8" standalone="no"?>
<!DOCTYPE svg PUBLIC "-//W3C//DTD SVG 1.1//EN"
 "http://www.w3.org/Graphics/SVG/1.1/DTD/svg11.dtd">
<!-- Generated by graphviz version 2.38.0 (20140413.2041)
 -->
<!-- Title: mom_dyn_horgrid::set_derived_dyn_horgrid Pages: 1 -->
<svg width="560pt" height="137pt"
 viewBox="0.00 0.00 560.00 137.00" xmlns="http://www.w3.org/2000/svg" xmlns:xlink="http://www.w3.org/1999/xlink">
<g id="graph0" class="graph" transform="scale(1 1) rotate(0) translate(4 133)">
<title>mom_dyn_horgrid::set_derived_dyn_horgrid</title>
<polygon fill="white" stroke="none" points="-4,4 -4,-133 556,-133 556,4 -4,4"/>
<!-- Node26 -->
<g id="node1" class="node"><title>Node26</title>
<polygon fill="#bfbfbf" stroke="black" points="0,-73.5 0,-103.5 113,-103.5 113,-73.5 0,-73.5"/>
<text text-anchor="start" x="8" y="-91.5" font-family="Helvetica,sans-Serif" font-size="10.00">mom_dyn_horgrid::set</text>
<text text-anchor="middle" x="56.5" y="-80.5" font-family="Helvetica,sans-Serif" font-size="10.00">_derived_dyn_horgrid</text>
</g>
<!-- Node27 -->
<g id="node2" class="node"><title>Node27</title>
<g id="a_node2"><a xlink:href="../../df/db8/namespacemom__transcribe__grid.html#a426ae345ad289eabaf68aeff02019753" target="_top" xlink:title="Copies information from an ocean_grid_type into a dynamic (shared) horizontal grid type...">
<polygon fill="white" stroke="black" points="149,-98.5 149,-128.5 291,-128.5 291,-98.5 149,-98.5"/>
<text text-anchor="start" x="157" y="-116.5" font-family="Helvetica,sans-Serif" font-size="10.00">mom_transcribe_grid</text>
<text text-anchor="middle" x="220" y="-105.5" font-family="Helvetica,sans-Serif" font-size="10.00">::copy_mom_grid_to_dyngrid</text>
</a>
</g>
</g>
<!-- Node26&#45;&gt;Node27 -->
<g id="edge1" class="edge"><title>Node26&#45;&gt;Node27</title>
<path fill="none" stroke="midnightblue" d="M123.213,-98.6722C131.633,-99.9757 140.28,-101.314 148.769,-102.628"/>
<polygon fill="midnightblue" stroke="midnightblue" points="123.497,-95.1746 113.079,-97.1036 122.426,-102.092 123.497,-95.1746"/>
</g>
<!-- Node28 -->
<g id="node3" class="node"><title>Node28</title>
<g id="a_node3"><a xlink:href="../../d5/daa/namespacemom__grid__initialize.html#a235a9712823e2f78e4958e8d681b6ba4" target="_top" xlink:title="set_grid_metrics is used to set the primary values in the model&#39;s horizontal grid. The bathymetry, land&#45;sea mask and any restricted channel widths are not known yet, so these are set later. ">
<polygon fill="white" stroke="black" points="170,-49.5 170,-79.5 270,-79.5 270,-49.5 170,-49.5"/>
<text text-anchor="start" x="178" y="-67.5" font-family="Helvetica,sans-Serif" font-size="10.00">mom_grid_initialize</text>
<text text-anchor="middle" x="220" y="-56.5" font-family="Helvetica,sans-Serif" font-size="10.00">::set_grid_metrics</text>
</a>
</g>
</g>
<!-- Node26&#45;&gt;Node28 -->
<g id="edge2" class="edge"><title>Node26&#45;&gt;Node28</title>
<path fill="none" stroke="midnightblue" d="M123.177,-78.7399C138.753,-76.4253 155.104,-73.9953 169.801,-71.8113"/>
<polygon fill="midnightblue" stroke="midnightblue" points="122.456,-75.3086 113.079,-80.2406 123.485,-82.2325 122.456,-75.3086"/>
</g>
<!-- Node29 -->
<g id="node4" class="node"><title>Node29</title>
<g id="a_node4"><a xlink:href="../../d6/d48/MOM__sum__driver_8F90.html#a08fffeb2d8e8acbf9ed4609be6d258c6" target="_top" xlink:title="mom_main">
<polygon fill="white" stroke="black" points="356.5,-99 356.5,-118 421.5,-118 421.5,-99 356.5,-99"/>
<text text-anchor="middle" x="389" y="-106" font-family="Helvetica,sans-Serif" font-size="10.00">mom_main</text>
</a>
</g>
</g>
<!-- Node28&#45;&gt;Node29 -->
<g id="edge3" class="edge"><title>Node28&#45;&gt;Node29</title>
<path fill="none" stroke="midnightblue" d="M280.205,-80.099C305.831,-86.8508 334.802,-94.4837 356.251,-100.135"/>
<polygon fill="midnightblue" stroke="midnightblue" points="280.764,-76.6268 270.202,-77.4635 278.981,-83.3958 280.764,-76.6268"/>
</g>
<!-- Node30 -->
<g id="node5" class="node"><title>Node30</title>
<g id="a_node5"><a xlink:href="../../df/da2/namespacemom__ice__shelf.html#ae315e8464ef8a20062e3bccb61886755" target="_top" xlink:title="mom_ice_shelf::initialize\l_ice_shelf">
<polygon fill="white" stroke="black" points="327,-49.5 327,-79.5 451,-79.5 451,-49.5 327,-49.5"/>
<text text-anchor="start" x="335" y="-67.5" font-family="Helvetica,sans-Serif" font-size="10.00">mom_ice_shelf::initialize</text>
<text text-anchor="middle" x="389" y="-56.5" font-family="Helvetica,sans-Serif" font-size="10.00">_ice_shelf</text>
</a>
</g>
</g>
<!-- Node28&#45;&gt;Node30 -->
<g id="edge4" class="edge"><title>Node28&#45;&gt;Node30</title>
<path fill="none" stroke="midnightblue" d="M280.396,-64.5C295.422,-64.5 311.587,-64.5 326.704,-64.5"/>
<polygon fill="midnightblue" stroke="midnightblue" points="280.202,-61.0001 270.202,-64.5 280.202,-68.0001 280.202,-61.0001"/>
</g>
<!-- Node33 -->
<g id="node8" class="node"><title>Node33</title>
<g id="a_node8"><a xlink:href="../../d3/da8/namespacemom__fixed__initialization.html#a6c1c054d9cda9f1bd11abba748614c92" target="_top" xlink:title="MOM_initialize_fixed sets up time&#45;invariant quantities related to MOM6&#39;s horizontal grid...">
<polygon fill="white" stroke="black" points="328.5,-0.5 328.5,-30.5 449.5,-30.5 449.5,-0.5 328.5,-0.5"/>
<text text-anchor="start" x="336.5" y="-18.5" font-family="Helvetica,sans-Serif" font-size="10.00">mom_fixed_initialization</text>
<text text-anchor="middle" x="389" y="-7.5" font-family="Helvetica,sans-Serif" font-size="10.00">::mom_initialize_fixed</text>
</a>
</g>
</g>
<!-- Node28&#45;&gt;Node33 -->
<g id="edge7" class="edge"><title>Node28&#45;&gt;Node33</title>
<path fill="none" stroke="midnightblue" d="M280.008,-47.1864C298.556,-41.7441 318.873,-35.7828 336.831,-30.5137"/>
<polygon fill="midnightblue" stroke="midnightblue" points="278.812,-43.8895 270.202,-50.0634 280.783,-50.6063 278.812,-43.8895"/>
</g>
<!-- Node31 -->
<g id="node6" class="node"><title>Node31</title>
<g id="a_node6"><a xlink:href="../../d5/d6d/ice__shelf__driver_8F90.html#aec5bef92f0dad343f545cd8d62e378d8" target="_top" xlink:title="shelf_main">
<polygon fill="white" stroke="black" points="487.5,-74 487.5,-93 551.5,-93 551.5,-74 487.5,-74"/>
<text text-anchor="middle" x="519.5" y="-81" font-family="Helvetica,sans-Serif" font-size="10.00">shelf_main</text>
</a>
</g>
</g>
<!-- Node30&#45;&gt;Node31 -->
<g id="edge5" class="edge"><title>Node30&#45;&gt;Node31</title>
<path fill="none" stroke="midnightblue" d="M461.229,-75.0319C470.399,-76.3878 479.377,-77.7153 487.404,-78.9021"/>
<polygon fill="midnightblue" stroke="midnightblue" points="461.644,-71.5553 451.239,-73.5548 460.62,-78.48 461.644,-71.5553"/>
</g>
<!-- Node32 -->
<g id="node7" class="node"><title>Node32</title>
<g id="a_node7"><a xlink:href="../../de/dbc/MOM__driver_8F90.html#a08fffeb2d8e8acbf9ed4609be6d258c6" target="_top" xlink:title="mom_main">
<polygon fill="white" stroke="black" points="487,-36 487,-55 552,-55 552,-36 487,-36"/>
<text text-anchor="middle" x="519.5" y="-43" font-family="Helvetica,sans-Serif" font-size="10.00">mom_main</text>
</a>
</g>
</g>
<!-- Node30&#45;&gt;Node32 -->
<g id="edge6" class="edge"><title>Node30&#45;&gt;Node32</title>
<path fill="none" stroke="midnightblue" d="M461.31,-53.956C470.195,-52.6424 478.897,-51.3558 486.726,-50.1982"/>
<polygon fill="midnightblue" stroke="midnightblue" points="460.62,-50.52 451.239,-55.4452 461.644,-57.4447 460.62,-50.52"/>
</g>
</g>
</svg>
