<?xml version="1.0" encoding="UTF-8" standalone="no"?>
<!DOCTYPE svg PUBLIC "-//W3C//DTD SVG 1.1//EN"
 "http://www.w3.org/Graphics/SVG/1.1/DTD/svg11.dtd">
<!-- Generated by graphviz version 2.38.0 (20140413.2041)
 -->
<!-- Title: mom_dyn_horgrid::create_dyn_horgrid Pages: 1 -->
<svg width="346pt" height="78pt"
 viewBox="0.00 0.00 346.00 77.50" xmlns="http://www.w3.org/2000/svg" xmlns:xlink="http://www.w3.org/1999/xlink">
<g id="graph0" class="graph" transform="scale(1 1) rotate(0) translate(4 73.5)">
<title>mom_dyn_horgrid::create_dyn_horgrid</title>
<polygon fill="white" stroke="none" points="-4,4 -4,-73.5 342,-73.5 342,4 -4,4"/>
<!-- Node14 -->
<g id="node1" class="node"><title>Node14</title>
<polygon fill="#bfbfbf" stroke="black" points="0,-17 0,-47 109,-47 109,-17 0,-17"/>
<text text-anchor="start" x="8" y="-35" font-family="Helvetica,sans-Serif" font-size="10.00">mom_dyn_horgrid::create</text>
<text text-anchor="middle" x="54.5" y="-24" font-family="Helvetica,sans-Serif" font-size="10.00">_dyn_horgrid</text>
</g>
<!-- Node15 -->
<g id="node2" class="node"><title>Node15</title>
<g id="a_node2"><a xlink:href="../../df/da2/namespacemom__ice__shelf.html#ae315e8464ef8a20062e3bccb61886755" target="_top" xlink:title="mom_ice_shelf::initialize\l_ice_shelf">
<polygon fill="white" stroke="black" points="145,-39 145,-69 246,-69 246,-39 145,-39"/>
<text text-anchor="start" x="153" y="-57" font-family="Helvetica,sans-Serif" font-size="10.00">mom_ice_shelf::initialize</text>
<text text-anchor="middle" x="195.5" y="-46" font-family="Helvetica,sans-Serif" font-size="10.00">_ice_shelf</text>
</a>
</g>
</g>
<!-- Node14&#45;&gt;Node15 -->
<g id="edge1" class="edge"><title>Node14&#45;&gt;Node15</title>
<path fill="none" stroke="midnightblue" d="M119.286,-42.0957C127.917,-43.4617 136.667,-44.8465 144.997,-46.165"/>
<polygon fill="midnightblue" stroke="midnightblue" points="119.665,-38.6122 109.241,-40.5058 118.571,-45.5261 119.665,-38.6122"/>
</g>
<!-- Node18 -->
<g id="node5" class="node"><title>Node18</title>
<g id="a_node5"><a xlink:href="../../da/d01/namespacemom.html#afebdc0103ad9cbe0ed4a54e522dc4104" target="_top" xlink:title="This subroutine initializes MOM. ">
<polygon fill="white" stroke="black" points="151,-0.5 151,-19.5 240,-19.5 240,-0.5 151,-0.5"/>
<text text-anchor="middle" x="195.5" y="-7.5" font-family="Helvetica,sans-Serif" font-size="10.00">mom::initialize_mom</text>
</a>
</g>
</g>
<!-- Node14&#45;&gt;Node18 -->
<g id="edge4" class="edge"><title>Node14&#45;&gt;Node18</title>
<path fill="none" stroke="midnightblue" d="M119.352,-21.8939C129.989,-20.2103 140.804,-18.4987 150.791,-16.918"/>
<polygon fill="midnightblue" stroke="midnightblue" points="118.571,-18.4739 109.241,-23.4942 119.665,-25.3878 118.571,-18.4739"/>
</g>
<!-- Node16 -->
<g id="node3" class="node"><title>Node16</title>
<g id="a_node3"><a xlink:href="../../d5/d6d/ice__shelf__driver_8F90.html#aec5bef92f0dad343f545cd8d62e378d8" target="_top" xlink:title="shelf_main">
<polygon fill="white" stroke="black" points="282.5,-44.5 282.5,-63.5 337.5,-63.5 337.5,-44.5 282.5,-44.5"/>
<text text-anchor="middle" x="310" y="-51.5" font-family="Helvetica,sans-Serif" font-size="10.00">shelf_main</text>
</a>
</g>
</g>
<!-- Node15&#45;&gt;Node16 -->
<g id="edge2" class="edge"><title>Node15&#45;&gt;Node16</title>
<path fill="none" stroke="midnightblue" d="M256.455,-54C265.56,-54 274.534,-54 282.419,-54"/>
<polygon fill="midnightblue" stroke="midnightblue" points="256.172,-50.5001 246.172,-54 256.172,-57.5001 256.172,-50.5001"/>
</g>
<!-- Node17 -->
<g id="node4" class="node"><title>Node17</title>
<g id="a_node4"><a xlink:href="../../de/dbc/MOM__driver_8F90.html#a08fffeb2d8e8acbf9ed4609be6d258c6" target="_top" xlink:title="mom_main">
<polygon fill="white" stroke="black" points="282,-3.5 282,-22.5 338,-22.5 338,-3.5 282,-3.5"/>
<text text-anchor="middle" x="310" y="-10.5" font-family="Helvetica,sans-Serif" font-size="10.00">mom_main</text>
</a>
</g>
</g>
<!-- Node15&#45;&gt;Node17 -->
<g id="edge3" class="edge"><title>Node15&#45;&gt;Node17</title>
<path fill="none" stroke="midnightblue" d="M247.438,-35.436C259.661,-30.9814 272.222,-26.4037 282.783,-22.5545"/>
<polygon fill="midnightblue" stroke="midnightblue" points="245.949,-32.2533 237.752,-38.9659 248.346,-38.8301 245.949,-32.2533"/>
</g>
<!-- Node18&#45;&gt;Node17 -->
<g id="edge5" class="edge"><title>Node18&#45;&gt;Node17</title>
<path fill="none" stroke="midnightblue" d="M250.585,-11.4423C261.382,-11.7302 272.286,-12.021 281.702,-12.272"/>
<polygon fill="midnightblue" stroke="midnightblue" points="250.407,-7.93638 240.318,-11.1685 250.221,-14.9339 250.407,-7.93638"/>
</g>
</g>
</svg>
