<?xml version="1.0" encoding="UTF-8" standalone="no"?>
<!DOCTYPE svg PUBLIC "-//W3C//DTD SVG 1.1//EN"
 "http://www.w3.org/Graphics/SVG/1.1/DTD/svg11.dtd">
<!-- Generated by graphviz version 2.38.0 (20140413.2041)
 -->
<!-- Title: mom_wave_speed::wave_speed_set_param Pages: 1 -->
<svg width="420pt" height="39pt"
 viewBox="0.00 0.00 420.00 39.00" xmlns="http://www.w3.org/2000/svg" xmlns:xlink="http://www.w3.org/1999/xlink">
<g id="graph0" class="graph" transform="scale(1 1) rotate(0) translate(4 35)">
<title>mom_wave_speed::wave_speed_set_param</title>
<polygon fill="white" stroke="none" points="-4,4 -4,-35 416,-35 416,4 -4,4"/>
<!-- Node62 -->
<g id="node1" class="node"><title>Node62</title>
<polygon fill="#bfbfbf" stroke="black" points="0,-0.5 0,-30.5 128,-30.5 128,-0.5 0,-0.5"/>
<text text-anchor="start" x="8" y="-18.5" font-family="Helvetica,sans-Serif" font-size="10.00">mom_wave_speed::wave</text>
<text text-anchor="middle" x="64" y="-7.5" font-family="Helvetica,sans-Serif" font-size="10.00">_speed_set_param</text>
</g>
<!-- Node63 -->
<g id="node2" class="node"><title>Node63</title>
<g id="a_node2"><a xlink:href="../../d0/de6/namespacemom__error__handler.html#a460cfb79a06c29fc249952c2a3710d67" target="_top" xlink:title="mom_error_handler::\lmom_error">
<polygon fill="white" stroke="black" points="164,-0.5 164,-30.5 270,-30.5 270,-0.5 164,-0.5"/>
<text text-anchor="start" x="172" y="-18.5" font-family="Helvetica,sans-Serif" font-size="10.00">mom_error_handler::</text>
<text text-anchor="middle" x="217" y="-7.5" font-family="Helvetica,sans-Serif" font-size="10.00">mom_error</text>
</a>
</g>
</g>
<!-- Node62&#45;&gt;Node63 -->
<g id="edge1" class="edge"><title>Node62&#45;&gt;Node63</title>
<path fill="none" stroke="midnightblue" d="M128.163,-15.5C136.551,-15.5 145.148,-15.5 153.525,-15.5"/>
<polygon fill="midnightblue" stroke="midnightblue" points="153.605,-19.0001 163.605,-15.5 153.605,-12.0001 153.605,-19.0001"/>
</g>
<!-- Node64 -->
<g id="node3" class="node"><title>Node64</title>
<g id="a_node3"><a xlink:href="../../d0/de6/namespacemom__error__handler.html#ad5f00a53059c72fe2332d1436c80ca71" target="_top" xlink:title="mom_error_handler::\lis_root_pe">
<polygon fill="white" stroke="black" points="306,-0.5 306,-30.5 412,-30.5 412,-0.5 306,-0.5"/>
<text text-anchor="start" x="314" y="-18.5" font-family="Helvetica,sans-Serif" font-size="10.00">mom_error_handler::</text>
<text text-anchor="middle" x="359" y="-7.5" font-family="Helvetica,sans-Serif" font-size="10.00">is_root_pe</text>
</a>
</g>
</g>
<!-- Node63&#45;&gt;Node64 -->
<g id="edge2" class="edge"><title>Node63&#45;&gt;Node64</title>
<path fill="none" stroke="midnightblue" d="M270.131,-15.5C278.421,-15.5 287.07,-15.5 295.568,-15.5"/>
<polygon fill="midnightblue" stroke="midnightblue" points="295.826,-19.0001 305.826,-15.5 295.826,-12.0001 295.826,-19.0001"/>
</g>
</g>
</svg>
