<?xml version="1.0" encoding="UTF-8" standalone="no"?>
<!DOCTYPE svg PUBLIC "-//W3C//DTD SVG 1.1//EN"
 "http://www.w3.org/Graphics/SVG/1.1/DTD/svg11.dtd">
<!-- Generated by graphviz version 2.38.0 (20140413.2041)
 -->
<!-- Title: mom_wave_speed::wave_speed_init Pages: 1 -->
<svg width="993pt" height="129pt"
 viewBox="0.00 0.00 993.00 129.00" xmlns="http://www.w3.org/2000/svg" xmlns:xlink="http://www.w3.org/1999/xlink">
<g id="graph0" class="graph" transform="scale(1 1) rotate(0) translate(4 125)">
<title>mom_wave_speed::wave_speed_init</title>
<polygon fill="white" stroke="none" points="-4,4 -4,-125 989,-125 989,4 -4,4"/>
<!-- Node51 -->
<g id="node1" class="node"><title>Node51</title>
<polygon fill="#bfbfbf" stroke="black" points="0,-44.5 0,-74.5 128,-74.5 128,-44.5 0,-44.5"/>
<text text-anchor="start" x="8" y="-62.5" font-family="Helvetica,sans-Serif" font-size="10.00">mom_wave_speed::wave</text>
<text text-anchor="middle" x="64" y="-51.5" font-family="Helvetica,sans-Serif" font-size="10.00">_speed_init</text>
</g>
<!-- Node52 -->
<g id="node2" class="node"><title>Node52</title>
<g id="a_node2"><a xlink:href="../../d6/d75/namespacemom__remapping.html#a6847e0c44ccb54fb72587677f90d95b6" target="_top" xlink:title="Constructor for remapping control structure. ">
<polygon fill="white" stroke="black" points="164,-88.5 164,-118.5 294,-118.5 294,-88.5 164,-88.5"/>
<text text-anchor="start" x="172" y="-106.5" font-family="Helvetica,sans-Serif" font-size="10.00">mom_remapping::initialize</text>
<text text-anchor="middle" x="229" y="-95.5" font-family="Helvetica,sans-Serif" font-size="10.00">_remapping</text>
</a>
</g>
</g>
<!-- Node51&#45;&gt;Node52 -->
<g id="edge1" class="edge"><title>Node51&#45;&gt;Node52</title>
<path fill="none" stroke="midnightblue" d="M120.639,-74.5192C134.072,-78.1452 148.55,-82.0534 162.392,-85.7899"/>
<polygon fill="midnightblue" stroke="midnightblue" points="161.768,-89.2467 172.335,-88.4738 163.592,-82.4886 161.768,-89.2467"/>
</g>
<!-- Node55 -->
<g id="node5" class="node"><title>Node55</title>
<g id="a_node5"><a xlink:href="../../d0/de6/namespacemom__error__handler.html#a460cfb79a06c29fc249952c2a3710d67" target="_top" xlink:title="mom_error_handler::\lmom_error">
<polygon fill="white" stroke="black" points="733.5,-41.5 733.5,-71.5 839.5,-71.5 839.5,-41.5 733.5,-41.5"/>
<text text-anchor="start" x="741.5" y="-59.5" font-family="Helvetica,sans-Serif" font-size="10.00">mom_error_handler::</text>
<text text-anchor="middle" x="786.5" y="-48.5" font-family="Helvetica,sans-Serif" font-size="10.00">mom_error</text>
</a>
</g>
</g>
<!-- Node51&#45;&gt;Node55 -->
<g id="edge7" class="edge"><title>Node51&#45;&gt;Node55</title>
<path fill="none" stroke="midnightblue" d="M128.308,-59.2364C265.188,-58.6665 587.279,-57.3253 723.223,-56.7593"/>
<polygon fill="midnightblue" stroke="midnightblue" points="723.477,-60.2584 733.463,-56.7167 723.448,-53.2584 723.477,-60.2584"/>
</g>
<!-- Node58 -->
<g id="node8" class="node"><title>Node58</title>
<g id="a_node8"><a xlink:href="../../dd/d33/namespacemom__wave__speed.html#a035c9e3306d6b21809e240a5b24a2db0" target="_top" xlink:title="Sets internal parameters for MOM_wave_speed. ">
<polygon fill="white" stroke="black" points="336,-0.5 336,-30.5 464,-30.5 464,-0.5 336,-0.5"/>
<text text-anchor="start" x="344" y="-18.5" font-family="Helvetica,sans-Serif" font-size="10.00">mom_wave_speed::wave</text>
<text text-anchor="middle" x="400" y="-7.5" font-family="Helvetica,sans-Serif" font-size="10.00">_speed_set_param</text>
</a>
</g>
</g>
<!-- Node51&#45;&gt;Node58 -->
<g id="edge8" class="edge"><title>Node51&#45;&gt;Node58</title>
<path fill="none" stroke="midnightblue" d="M128.093,-50.4477C140.016,-48.7739 152.388,-47.0622 164,-45.5 218.116,-38.2198 279.304,-30.4224 325.675,-24.6022"/>
<polygon fill="midnightblue" stroke="midnightblue" points="326.147,-28.0704 335.634,-23.3539 325.277,-21.1248 326.147,-28.0704"/>
</g>
<!-- Node53 -->
<g id="node3" class="node"><title>Node53</title>
<g id="a_node3"><a xlink:href="../../d6/d75/namespacemom__remapping.html#a9e811f89c505a4416ea0eec315769801" target="_top" xlink:title="Set parameters within remapping object. ">
<polygon fill="white" stroke="black" points="330,-88.5 330,-118.5 470,-118.5 470,-88.5 330,-88.5"/>
<text text-anchor="start" x="338" y="-106.5" font-family="Helvetica,sans-Serif" font-size="10.00">mom_remapping::remapping</text>
<text text-anchor="middle" x="400" y="-95.5" font-family="Helvetica,sans-Serif" font-size="10.00">_set_param</text>
</a>
</g>
</g>
<!-- Node52&#45;&gt;Node53 -->
<g id="edge2" class="edge"><title>Node52&#45;&gt;Node53</title>
<path fill="none" stroke="midnightblue" d="M294.374,-103.5C302.597,-103.5 311.09,-103.5 319.517,-103.5"/>
<polygon fill="midnightblue" stroke="midnightblue" points="319.739,-107 329.739,-103.5 319.739,-100 319.739,-107"/>
</g>
<!-- Node54 -->
<g id="node4" class="node"><title>Node54</title>
<g id="a_node4"><a xlink:href="../../d6/d75/namespacemom__remapping.html#a41a89ac62578250500b7a450d5fdfae7" target="_top" xlink:title="Changes the method of reconstruction Use this routine to parse a string parameter specifying the reco...">
<polygon fill="white" stroke="black" points="506,-94 506,-113 694,-113 694,-94 506,-94"/>
<text text-anchor="middle" x="600" y="-101" font-family="Helvetica,sans-Serif" font-size="10.00">mom_remapping::setreconstructiontype</text>
</a>
</g>
</g>
<!-- Node53&#45;&gt;Node54 -->
<g id="edge3" class="edge"><title>Node53&#45;&gt;Node54</title>
<path fill="none" stroke="midnightblue" d="M470.251,-103.5C478.507,-103.5 487.067,-103.5 495.671,-103.5"/>
<polygon fill="midnightblue" stroke="midnightblue" points="495.775,-107 505.775,-103.5 495.775,-100 495.775,-107"/>
</g>
<!-- Node54&#45;&gt;Node55 -->
<g id="edge4" class="edge"><title>Node54&#45;&gt;Node55</title>
<path fill="none" stroke="midnightblue" d="M638.336,-93.9888C662.732,-87.7743 695.182,-79.5077 723.403,-72.3187"/>
<polygon fill="midnightblue" stroke="midnightblue" points="724.362,-75.6863 733.189,-69.8259 722.634,-68.9029 724.362,-75.6863"/>
</g>
<!-- Node57 -->
<g id="node7" class="node"><title>Node57</title>
<g id="a_node7"><a xlink:href="../../df/d46/namespacemom__string__functions.html#aca148baf726de2f028b7e7baad3c85d4" target="_top" xlink:title="mom_string_functions\l::uppercase">
<polygon fill="white" stroke="black" points="730,-90.5 730,-120.5 843,-120.5 843,-90.5 730,-90.5"/>
<text text-anchor="start" x="738" y="-108.5" font-family="Helvetica,sans-Serif" font-size="10.00">mom_string_functions</text>
<text text-anchor="middle" x="786.5" y="-97.5" font-family="Helvetica,sans-Serif" font-size="10.00">::uppercase</text>
</a>
</g>
</g>
<!-- Node54&#45;&gt;Node57 -->
<g id="edge6" class="edge"><title>Node54&#45;&gt;Node57</title>
<path fill="none" stroke="midnightblue" d="M694.061,-104.509C702.625,-104.602 711.179,-104.694 719.429,-104.784"/>
<polygon fill="midnightblue" stroke="midnightblue" points="719.657,-108.286 729.694,-104.895 719.733,-101.287 719.657,-108.286"/>
</g>
<!-- Node56 -->
<g id="node6" class="node"><title>Node56</title>
<g id="a_node6"><a xlink:href="../../d0/de6/namespacemom__error__handler.html#ad5f00a53059c72fe2332d1436c80ca71" target="_top" xlink:title="mom_error_handler::\lis_root_pe">
<polygon fill="white" stroke="black" points="879,-41.5 879,-71.5 985,-71.5 985,-41.5 879,-41.5"/>
<text text-anchor="start" x="887" y="-59.5" font-family="Helvetica,sans-Serif" font-size="10.00">mom_error_handler::</text>
<text text-anchor="middle" x="932" y="-48.5" font-family="Helvetica,sans-Serif" font-size="10.00">is_root_pe</text>
</a>
</g>
</g>
<!-- Node55&#45;&gt;Node56 -->
<g id="edge5" class="edge"><title>Node55&#45;&gt;Node56</title>
<path fill="none" stroke="midnightblue" d="M839.713,-56.5C849.011,-56.5 858.783,-56.5 868.337,-56.5"/>
<polygon fill="midnightblue" stroke="midnightblue" points="868.586,-60.0001 878.586,-56.5 868.586,-53.0001 868.586,-60.0001"/>
</g>
<!-- Node58&#45;&gt;Node55 -->
<g id="edge9" class="edge"><title>Node58&#45;&gt;Node55</title>
<path fill="none" stroke="midnightblue" d="M464.191,-21.6457C523.554,-27.4961 614.848,-36.6907 694,-45.5 703.442,-46.5508 713.426,-47.7059 723.193,-48.8604"/>
<polygon fill="midnightblue" stroke="midnightblue" points="722.917,-52.3522 733.26,-50.0589 723.744,-45.4012 722.917,-52.3522"/>
</g>
</g>
</svg>
