<?xml version="1.0" encoding="UTF-8" standalone="no"?>
<!DOCTYPE svg PUBLIC "-//W3C//DTD SVG 1.1//EN"
 "http://www.w3.org/Graphics/SVG/1.1/DTD/svg11.dtd">
<!-- Generated by graphviz version 2.38.0 (20140413.2041)
 -->
<!-- Title: mom_bulk_mixed_layer::bulkmixedlayer_cs Pages: 1 -->
<svg width="507pt" height="260pt"
 viewBox="0.00 0.00 507.20 260.00" xmlns="http://www.w3.org/2000/svg" xmlns:xlink="http://www.w3.org/1999/xlink">
<g id="graph0" class="graph" transform="scale(1 1) rotate(0) translate(4 256)">
<title>mom_bulk_mixed_layer::bulkmixedlayer_cs</title>
<polygon fill="white" stroke="none" points="-4,4 -4,-256 503.204,-256 503.204,4 -4,4"/>
<!-- Node1 -->
<g id="node1" class="node"><title>Node1</title>
<polygon fill="#bfbfbf" stroke="black" points="169.704,-0.5 169.704,-30.5 270.704,-30.5 270.704,-0.5 169.704,-0.5"/>
<text text-anchor="start" x="177.704" y="-18.5" font-family="Helvetica,sans-Serif" font-size="10.00">mom_bulk_mixed_layer</text>
<text text-anchor="middle" x="220.204" y="-7.5" font-family="Helvetica,sans-Serif" font-size="10.00">::bulkmixedlayer_cs</text>
</g>
<!-- Node2 -->
<g id="node2" class="node"><title>Node2</title>
<polygon fill="white" stroke="#bfbfbf" points="7.20409,-232.5 7.20409,-251.5 45.2041,-251.5 45.2041,-232.5 7.20409,-232.5"/>
<text text-anchor="middle" x="26.2041" y="-239.5" font-family="Helvetica,sans-Serif" font-size="10.00">logical</text>
</g>
<!-- Node2&#45;&gt;Node1 -->
<g id="edge1" class="edge"><title>Node2&#45;&gt;Node1</title>
<path fill="none" stroke="#9a32cd" stroke-dasharray="5,2" d="M19.0844,-222.856C5.71419,-185.429 -18.1766,-98.9868 24.2041,-49 42.4949,-27.4265 117.789,-20.156 169.545,-17.7166"/>
<polygon fill="#9a32cd" stroke="#9a32cd" points="15.8815,-224.284 22.6624,-232.425 22.4381,-221.832 15.8815,-224.284"/>
<text text-anchor="middle" x="57.7041" y="-206" font-family="Helvetica,sans-Serif" font-size="10.00"> absorb_all_sw</text>
<text text-anchor="middle" x="57.7041" y="-195" font-family="Helvetica,sans-Serif" font-size="10.00">correct_absorption</text>
<text text-anchor="middle" x="57.7041" y="-184" font-family="Helvetica,sans-Serif" font-size="10.00">do_rivermix</text>
<text text-anchor="start" x="24.2041" y="-173" font-family="Helvetica,sans-Serif" font-size="10.00">salt_reject_below</text>
<text text-anchor="middle" x="57.7041" y="-162" font-family="Helvetica,sans-Serif" font-size="10.00">_ml</text>
<text text-anchor="middle" x="57.7041" y="-151" font-family="Helvetica,sans-Serif" font-size="10.00">resolve_ekman</text>
<text text-anchor="middle" x="57.7041" y="-140" font-family="Helvetica,sans-Serif" font-size="10.00">ml_resort</text>
<text text-anchor="start" x="24.2041" y="-129" font-family="Helvetica,sans-Serif" font-size="10.00">allow_clocks_in</text>
<text text-anchor="middle" x="57.7041" y="-118" font-family="Helvetica,sans-Serif" font-size="10.00">_omp_loops</text>
<text text-anchor="start" x="24.2041" y="-107" font-family="Helvetica,sans-Serif" font-size="10.00">use_river_heat</text>
<text text-anchor="middle" x="57.7041" y="-96" font-family="Helvetica,sans-Serif" font-size="10.00">_content</text>
<text text-anchor="middle" x="57.7041" y="-85" font-family="Helvetica,sans-Serif" font-size="10.00">limit_det</text>
<text text-anchor="start" x="24.2041" y="-74" font-family="Helvetica,sans-Serif" font-size="10.00">use_calving_heat</text>
<text text-anchor="middle" x="57.7041" y="-63" font-family="Helvetica,sans-Serif" font-size="10.00">_content</text>
<text text-anchor="middle" x="57.7041" y="-52" font-family="Helvetica,sans-Serif" font-size="10.00">...</text>
</g>
<!-- Node3 -->
<g id="node3" class="node"><title>Node3</title>
<polygon fill="white" stroke="#bfbfbf" points="63.7041,-232.5 63.7041,-251.5 114.704,-251.5 114.704,-232.5 63.7041,-232.5"/>
<text text-anchor="middle" x="89.2041" y="-239.5" font-family="Helvetica,sans-Serif" font-size="10.00">time_type</text>
</g>
<!-- Node3&#45;&gt;Node1 -->
<g id="edge2" class="edge"><title>Node3&#45;&gt;Node1</title>
<path fill="none" stroke="#9a32cd" stroke-dasharray="5,2" d="M92.6648,-222.391C101.586,-174.508 124.77,-50.6549 126.204,-49 137.288,-36.2129 153.66,-28.4531 169.649,-23.7456"/>
<polygon fill="#9a32cd" stroke="#9a32cd" points="89.202,-221.869 90.8128,-232.34 96.0838,-223.15 89.202,-221.869"/>
<text text-anchor="middle" x="135.204" y="-129" font-family="Helvetica,sans-Serif" font-size="10.00"> time</text>
</g>
<!-- Node4 -->
<g id="node4" class="node"><title>Node4</title>
<polygon fill="white" stroke="#bfbfbf" points="133.204,-232.5 133.204,-251.5 211.204,-251.5 211.204,-232.5 133.204,-232.5"/>
<text text-anchor="middle" x="172.204" y="-239.5" font-family="Helvetica,sans-Serif" font-size="10.00">group_pass_type</text>
</g>
<!-- Node4&#45;&gt;Node1 -->
<g id="edge3" class="edge"><title>Node4&#45;&gt;Node1</title>
<path fill="none" stroke="#9a32cd" stroke-dasharray="5,2" d="M165.516,-222.525C153.676,-186.433 133.143,-105.185 165.204,-49 169.602,-41.2935 176.622,-35.2298 184.196,-30.5346"/>
<polygon fill="#9a32cd" stroke="#9a32cd" points="162.281,-223.88 168.844,-232.198 168.901,-221.603 162.281,-223.88"/>
<text text-anchor="middle" x="210.204" y="-129" font-family="Helvetica,sans-Serif" font-size="10.00"> pass_h_sum_hmbl_prev</text>
</g>
<!-- Node5 -->
<g id="node5" class="node"><title>Node5</title>
<polygon fill="white" stroke="#bfbfbf" points="249.704,-232.5 249.704,-251.5 296.704,-251.5 296.704,-232.5 249.704,-232.5"/>
<text text-anchor="middle" x="273.204" y="-239.5" font-family="Helvetica,sans-Serif" font-size="10.00">diag_ctrl</text>
</g>
<!-- Node5&#45;&gt;Node1 -->
<g id="edge4" class="edge"><title>Node5&#45;&gt;Node1</title>
<path fill="none" stroke="#9a32cd" stroke-dasharray="5,2" d="M275.654,-222.426C279.491,-186.738 283.786,-106.988 255.204,-49 251.758,-42.0086 246.124,-35.7696 240.373,-30.6731"/>
<polygon fill="#9a32cd" stroke="#9a32cd" points="272.176,-222.037 274.467,-232.381 279.127,-222.866 272.176,-222.037"/>
<text text-anchor="middle" x="288.204" y="-129" font-family="Helvetica,sans-Serif" font-size="10.00"> diag</text>
</g>
<!-- Node6 -->
<g id="node6" class="node"><title>Node6</title>
<polygon fill="white" stroke="#bfbfbf" points="315.204,-232.5 315.204,-251.5 345.204,-251.5 345.204,-232.5 315.204,-232.5"/>
<text text-anchor="middle" x="330.204" y="-239.5" font-family="Helvetica,sans-Serif" font-size="10.00">real</text>
</g>
<!-- Node6&#45;&gt;Node1 -->
<g id="edge5" class="edge"><title>Node6&#45;&gt;Node1</title>
<path fill="none" stroke="#9a32cd" stroke-dasharray="5,2" d="M327.856,-222.044C321.95,-174.923 306.568,-55.7764 301.204,-49 293.493,-39.2578 282.411,-32.4222 270.909,-27.6307"/>
<polygon fill="#9a32cd" stroke="#9a32cd" points="324.403,-222.637 329.113,-232.128 331.349,-221.771 324.403,-222.637"/>
<text text-anchor="middle" x="359.204" y="-184" font-family="Helvetica,sans-Serif" font-size="10.00"> diag_tke_mixing</text>
<text text-anchor="middle" x="359.204" y="-173" font-family="Helvetica,sans-Serif" font-size="10.00">diag_pe_detrain2</text>
<text text-anchor="middle" x="359.204" y="-162" font-family="Helvetica,sans-Serif" font-size="10.00">diag_tke_conv</text>
<text text-anchor="middle" x="359.204" y="-151" font-family="Helvetica,sans-Serif" font-size="10.00">diag_tke_conv_s2</text>
<text text-anchor="middle" x="359.204" y="-140" font-family="Helvetica,sans-Serif" font-size="10.00">ml_depth</text>
<text text-anchor="middle" x="359.204" y="-129" font-family="Helvetica,sans-Serif" font-size="10.00">bl_extrap_lim</text>
<text text-anchor="middle" x="359.204" y="-118" font-family="Helvetica,sans-Serif" font-size="10.00">dt_ds_wt</text>
<text text-anchor="middle" x="359.204" y="-107" font-family="Helvetica,sans-Serif" font-size="10.00">h_limit_fluxes</text>
<text text-anchor="middle" x="359.204" y="-96" font-family="Helvetica,sans-Serif" font-size="10.00">bulk_ri_ml</text>
<text text-anchor="middle" x="359.204" y="-85" font-family="Helvetica,sans-Serif" font-size="10.00">tke_decay</text>
<text text-anchor="middle" x="359.204" y="-74" font-family="Helvetica,sans-Serif" font-size="10.00">...</text>
</g>
<!-- Node7 -->
<g id="node7" class="node"><title>Node7</title>
<polygon fill="white" stroke="#bfbfbf" points="392.704,-232.5 392.704,-251.5 433.704,-251.5 433.704,-232.5 392.704,-232.5"/>
<text text-anchor="middle" x="413.204" y="-239.5" font-family="Helvetica,sans-Serif" font-size="10.00">integer</text>
</g>
<!-- Node7&#45;&gt;Node1 -->
<g id="edge6" class="edge"><title>Node7&#45;&gt;Node1</title>
<path fill="none" stroke="#9a32cd" stroke-dasharray="5,2" d="M417.549,-222.097C425.106,-183.911 435.901,-97.1208 391.204,-49 375.163,-31.73 315.173,-23.4393 270.754,-19.5974"/>
<polygon fill="#9a32cd" stroke="#9a32cd" points="414.038,-221.781 415.373,-232.291 420.884,-223.243 414.038,-221.781"/>
<text text-anchor="start" x="424.204" y="-189.5" font-family="Helvetica,sans-Serif" font-size="10.00"> ml_presort_nz_conv</text>
<text text-anchor="middle" x="461.704" y="-178.5" font-family="Helvetica,sans-Serif" font-size="10.00">_adj</text>
<text text-anchor="middle" x="461.704" y="-167.5" font-family="Helvetica,sans-Serif" font-size="10.00">id_tke_conv_s2</text>
<text text-anchor="middle" x="461.704" y="-156.5" font-family="Helvetica,sans-Serif" font-size="10.00">id_tke_conv_decay</text>
<text text-anchor="middle" x="461.704" y="-145.5" font-family="Helvetica,sans-Serif" font-size="10.00">id_tke_ribulk</text>
<text text-anchor="middle" x="461.704" y="-134.5" font-family="Helvetica,sans-Serif" font-size="10.00">id_pe_detrain2</text>
<text text-anchor="middle" x="461.704" y="-123.5" font-family="Helvetica,sans-Serif" font-size="10.00">id_tke_wind</text>
<text text-anchor="middle" x="461.704" y="-112.5" font-family="Helvetica,sans-Serif" font-size="10.00">id_tke_mech_decay</text>
<text text-anchor="middle" x="461.704" y="-101.5" font-family="Helvetica,sans-Serif" font-size="10.00">id_tke_conv</text>
<text text-anchor="middle" x="461.704" y="-90.5" font-family="Helvetica,sans-Serif" font-size="10.00">nkbl</text>
<text text-anchor="middle" x="461.704" y="-79.5" font-family="Helvetica,sans-Serif" font-size="10.00">id_tke_pen_sw</text>
<text text-anchor="middle" x="461.704" y="-68.5" font-family="Helvetica,sans-Serif" font-size="10.00">...</text>
</g>
</g>
</svg>
