<?xml version="1.0" encoding="UTF-8" standalone="no"?>
<!DOCTYPE svg PUBLIC "-//W3C//DTD SVG 1.1//EN"
 "http://www.w3.org/Graphics/SVG/1.1/DTD/svg11.dtd">
<!-- Generated by graphviz version 2.38.0 (20140413.2041)
 -->
<!-- Title: midas_vertmap::determine_temperature Pages: 1 -->
<svg width="502pt" height="39pt"
 viewBox="0.00 0.00 502.00 39.00" xmlns="http://www.w3.org/2000/svg" xmlns:xlink="http://www.w3.org/1999/xlink">
<g id="graph0" class="graph" transform="scale(1 1) rotate(0) translate(4 35)">
<title>midas_vertmap::determine_temperature</title>
<polygon fill="white" stroke="none" points="-4,4 -4,-35 498,-35 498,4 -4,4"/>
<!-- Node10 -->
<g id="node1" class="node"><title>Node10</title>
<polygon fill="#bfbfbf" stroke="black" points="0,-0.5 0,-30.5 132,-30.5 132,-0.5 0,-0.5"/>
<text text-anchor="start" x="8" y="-18.5" font-family="Helvetica,sans-Serif" font-size="10.00">midas_vertmap::determine</text>
<text text-anchor="middle" x="66" y="-7.5" font-family="Helvetica,sans-Serif" font-size="10.00">_temperature</text>
</g>
<!-- Node11 -->
<g id="node2" class="node"><title>Node11</title>
<g id="a_node2"><a xlink:href="../../d6/d62/namespacemom__state__initialization.html#ae33403313da1b783a1ad980e10012f8e" target="_top" xlink:title="mom_state_initialization\l::mom_temp_salt_initialize_from_z">
<polygon fill="white" stroke="black" points="168,-0.5 168,-30.5 336,-30.5 336,-0.5 168,-0.5"/>
<text text-anchor="start" x="176" y="-18.5" font-family="Helvetica,sans-Serif" font-size="10.00">mom_state_initialization</text>
<text text-anchor="middle" x="252" y="-7.5" font-family="Helvetica,sans-Serif" font-size="10.00">::mom_temp_salt_initialize_from_z</text>
</a>
</g>
</g>
<!-- Node10&#45;&gt;Node11 -->
<g id="edge1" class="edge"><title>Node10&#45;&gt;Node11</title>
<path fill="none" stroke="midnightblue" d="M142.307,-15.5C150.746,-15.5 159.378,-15.5 167.907,-15.5"/>
<polygon fill="midnightblue" stroke="midnightblue" points="142.13,-12.0001 132.13,-15.5 142.13,-19.0001 142.13,-12.0001"/>
</g>
<!-- Node12 -->
<g id="node3" class="node"><title>Node12</title>
<g id="a_node3"><a xlink:href="../../d6/d62/namespacemom__state__initialization.html#af4e854627c6572332ba3fd895f169321" target="_top" xlink:title="mom_state_initialization\l::mom_initialize_state">
<polygon fill="white" stroke="black" points="372,-0.5 372,-30.5 494,-30.5 494,-0.5 372,-0.5"/>
<text text-anchor="start" x="380" y="-18.5" font-family="Helvetica,sans-Serif" font-size="10.00">mom_state_initialization</text>
<text text-anchor="middle" x="433" y="-7.5" font-family="Helvetica,sans-Serif" font-size="10.00">::mom_initialize_state</text>
</a>
</g>
</g>
<!-- Node11&#45;&gt;Node12 -->
<g id="edge2" class="edge"><title>Node11&#45;&gt;Node12</title>
<path fill="none" stroke="midnightblue" d="M346.397,-15.5C355.07,-15.5 363.695,-15.5 371.944,-15.5"/>
<polygon fill="midnightblue" stroke="midnightblue" points="346.212,-12.0001 336.212,-15.5 346.212,-19.0001 346.212,-12.0001"/>
</g>
</g>
</svg>
