<?xml version="1.0" encoding="UTF-8" standalone="no"?>
<!DOCTYPE svg PUBLIC "-//W3C//DTD SVG 1.1//EN"
 "http://www.w3.org/Graphics/SVG/1.1/DTD/svg11.dtd">
<!-- Generated by graphviz version 2.38.0 (20140413.2041)
 -->
<!-- Title: p3m_functions::monotonize_cubic Pages: 1 -->
<svg width="444pt" height="88pt"
 viewBox="0.00 0.00 444.00 88.00" xmlns="http://www.w3.org/2000/svg" xmlns:xlink="http://www.w3.org/1999/xlink">
<g id="graph0" class="graph" transform="scale(1 1) rotate(0) translate(4 84)">
<title>p3m_functions::monotonize_cubic</title>
<polygon fill="white" stroke="none" points="-4,4 -4,-84 440,-84 440,4 -4,4"/>
<!-- Node11 -->
<g id="node1" class="node"><title>Node11</title>
<polygon fill="#bfbfbf" stroke="black" points="0,-24.5 0,-54.5 137,-54.5 137,-24.5 0,-24.5"/>
<text text-anchor="start" x="8" y="-42.5" font-family="Helvetica,sans-Serif" font-size="10.00">p3m_functions::monotonize</text>
<text text-anchor="middle" x="68.5" y="-31.5" font-family="Helvetica,sans-Serif" font-size="10.00">_cubic</text>
</g>
<!-- Node12 -->
<g id="node2" class="node"><title>Node12</title>
<g id="a_node2"><a xlink:href="../../d6/d65/namespacep3m__functions.html#a1c48a9ed2f3ee6a192f99cbded1298ce" target="_top" xlink:title="p3m_functions::p3m\l_boundary_extrapolation">
<polygon fill="white" stroke="black" points="173,-49.5 173,-79.5 295,-79.5 295,-49.5 173,-49.5"/>
<text text-anchor="start" x="181" y="-67.5" font-family="Helvetica,sans-Serif" font-size="10.00">p3m_functions::p3m</text>
<text text-anchor="middle" x="234" y="-56.5" font-family="Helvetica,sans-Serif" font-size="10.00">_boundary_extrapolation</text>
</a>
</g>
</g>
<!-- Node11&#45;&gt;Node12 -->
<g id="edge1" class="edge"><title>Node11&#45;&gt;Node12</title>
<path fill="none" stroke="midnightblue" d="M147.409,-51.4127C155.961,-52.7203 164.568,-54.0364 172.857,-55.3038"/>
<polygon fill="midnightblue" stroke="midnightblue" points="147.832,-47.9368 137.418,-49.8851 146.774,-54.8564 147.832,-47.9368"/>
</g>
<!-- Node13 -->
<g id="node3" class="node"><title>Node13</title>
<g id="a_node3"><a xlink:href="../../d6/d65/namespacep3m__functions.html#a377fa3f7b5caf101d47fa0d4c9b84f64" target="_top" xlink:title="p3m_functions::p3m\l_limiter">
<polygon fill="white" stroke="black" points="181.5,-0.5 181.5,-30.5 286.5,-30.5 286.5,-0.5 181.5,-0.5"/>
<text text-anchor="start" x="189.5" y="-18.5" font-family="Helvetica,sans-Serif" font-size="10.00">p3m_functions::p3m</text>
<text text-anchor="middle" x="234" y="-7.5" font-family="Helvetica,sans-Serif" font-size="10.00">_limiter</text>
</a>
</g>
</g>
<!-- Node11&#45;&gt;Node13 -->
<g id="edge2" class="edge"><title>Node11&#45;&gt;Node13</title>
<path fill="none" stroke="midnightblue" d="M147.509,-28.0492C159.047,-26.3556 170.684,-24.6473 181.499,-23.0598"/>
<polygon fill="midnightblue" stroke="midnightblue" points="146.804,-24.615 137.418,-29.5303 147.821,-31.5408 146.804,-24.615"/>
</g>
<!-- Node14 -->
<g id="node4" class="node"><title>Node14</title>
<g id="a_node4"><a xlink:href="../../d6/d65/namespacep3m__functions.html#a1769b4b4ced88bbd9f28e348a7bdeabc" target="_top" xlink:title="p3m_functions::p3m\l_interpolation">
<polygon fill="white" stroke="black" points="331,-0.5 331,-30.5 436,-30.5 436,-0.5 331,-0.5"/>
<text text-anchor="start" x="339" y="-18.5" font-family="Helvetica,sans-Serif" font-size="10.00">p3m_functions::p3m</text>
<text text-anchor="middle" x="383.5" y="-7.5" font-family="Helvetica,sans-Serif" font-size="10.00">_interpolation</text>
</a>
</g>
</g>
<!-- Node13&#45;&gt;Node14 -->
<g id="edge3" class="edge"><title>Node13&#45;&gt;Node14</title>
<path fill="none" stroke="midnightblue" d="M296.806,-15.5C308.082,-15.5 319.742,-15.5 330.691,-15.5"/>
<polygon fill="midnightblue" stroke="midnightblue" points="296.588,-12.0001 286.588,-15.5 296.588,-19.0001 296.588,-12.0001"/>
</g>
</g>
</svg>
