<?xml version="1.0" encoding="UTF-8" standalone="no"?>
<!DOCTYPE svg PUBLIC "-//W3C//DTD SVG 1.1//EN"
 "http://www.w3.org/Graphics/SVG/1.1/DTD/svg11.dtd">
<!-- Generated by graphviz version 2.38.0 (20140413.2041)
 -->
<!-- Title: mom_int_tide_input::int_tide_input_init Pages: 1 -->
<!--zoomable 667 -->
<svg id="main" version="1.1" xmlns="http://www.w3.org/2000/svg" xmlns:xlink="http://www.w3.org/1999/xlink" xml:space="preserve" onload="init(evt)">
<style type="text/css"><![CDATA[
.edge:hover path { stroke: red; }
.edge:hover polygon { stroke: red; fill: red; }
]]></style>
<script type="text/javascript"><![CDATA[
var edges = document.getElementsByTagName('g');
if (edges && edges.length) {
  for (var i=0;i<edges.length;i++) {
    if (edges[i].id.substr(0,4)=='edge') {
      edges[i].setAttribute('class','edge');
    }
  }
}
]]></script>
        <defs>
                <circle id="rim" cx="0" cy="0" r="7"/>
                <circle id="rim2" cx="0" cy="0" r="3.5"/>
                <g id="zoomPlus">
                        <use xlink:href="#rim" fill="#404040">
                                <set attributeName="fill" to="#808080" begin="zoomplus.mouseover" end="zoomplus.mouseout"/>
                        </use>
                        <path d="M-4,0h8M0,-4v8" fill="none" stroke="white" stroke-width="1.5" pointer-events="none"/>
                </g>
                <g id="zoomMin">
                        <use xlink:href="#rim" fill="#404040">
                                <set attributeName="fill" to="#808080" begin="zoomminus.mouseover" end="zoomminus.mouseout"/>
                        </use>
                        <path d="M-4,0h8" fill="none" stroke="white" stroke-width="1.5" pointer-events="none"/>
                </g>
                <g id="dirArrow">
                        <path fill="none" stroke="white" stroke-width="1.5" d="M0,-3.0v7 M-2.5,-0.5L0,-3.0L2.5,-0.5"/>
                </g>
               <g id="resetDef">
                       <use xlink:href="#rim2" fill="#404040">
                               <set attributeName="fill" to="#808080" begin="reset.mouseover" end="reset.mouseout"/>
                       </use>
               </g>
        </defs>

<script type="text/javascript">
var viewWidth = 833;
var viewHeight = 667;
var sectionId = 'dynsection-2';
</script>
<script xlink:href="../../svgpan.js"/>
<svg id="graph" class="graph">
<g id="viewport">
<title>mom_int_tide_input::int_tide_input_init</title>
<polygon fill="white" stroke="none" points="-4,4 -4,-663.252 829,-663.252 829,4 -4,4"/>
<!-- Node11 -->
<g id="node1" class="node"><title>Node11</title>
<polygon fill="#bfbfbf" stroke="black" points="0,-500.5 0,-530.5 101,-530.5 101,-500.5 0,-500.5"/>
<text text-anchor="start" x="8" y="-518.5" font-family="Helvetica,sans-Serif" font-size="10.00">mom_int_tide_input</text>
<text text-anchor="middle" x="50.5" y="-507.5" font-family="Helvetica,sans-Serif" font-size="10.00">::int_tide_input_init</text>
</g>
<!-- Node12 -->
<g id="node2" class="node"><title>Node12</title>
<g id="a_node2"><a xlink:href="../../d0/de6/namespacemom__error__handler.html#a460cfb79a06c29fc249952c2a3710d67" target="_top" xlink:title="mom_error_handler::\lmom_error">
<polygon fill="white" stroke="black" points="577,-530.5 577,-560.5 683,-560.5 683,-530.5 577,-530.5"/>
<text text-anchor="start" x="585" y="-548.5" font-family="Helvetica,sans-Serif" font-size="10.00">mom_error_handler::</text>
<text text-anchor="middle" x="630" y="-537.5" font-family="Helvetica,sans-Serif" font-size="10.00">mom_error</text>
</a>
</g>
</g>
<!-- Node11&#45;&gt;Node12 -->
<g id="edge1" class="edge"><title>Node11&#45;&gt;Node12</title>
<path fill="none" stroke="midnightblue" d="M71.817,-530.513C110.502,-558.055 198.441,-615.734 283,-636.5 394.426,-663.864 435.584,-672.797 541,-627.5 570.379,-614.876 596.096,-588.016 612.022,-568.467"/>
<polygon fill="midnightblue" stroke="midnightblue" points="614.783,-570.618 618.229,-560.6 609.287,-566.282 614.783,-570.618"/>
</g>
<!-- Node14 -->
<g id="node4" class="node"><title>Node14</title>
<g id="a_node4"><a xlink:href="../../d9/d06/namespacemom__diag__mediator.html#aab2007573b14ed73053282770d1b19a4" target="_top" xlink:title="mom_diag_mediator::\lregister_diag_field">
<polygon fill="white" stroke="black" points="137,-350.5 137,-380.5 247,-380.5 247,-350.5 137,-350.5"/>
<text text-anchor="start" x="145" y="-368.5" font-family="Helvetica,sans-Serif" font-size="10.00">mom_diag_mediator::</text>
<text text-anchor="middle" x="192" y="-357.5" font-family="Helvetica,sans-Serif" font-size="10.00">register_diag_field</text>
</a>
</g>
</g>
<!-- Node11&#45;&gt;Node14 -->
<g id="edge3" class="edge"><title>Node11&#45;&gt;Node14</title>
<path fill="none" stroke="midnightblue" d="M65.6437,-500.292C90.1877,-473.9 140.799,-419.479 169.642,-388.465"/>
<polygon fill="midnightblue" stroke="midnightblue" points="172.572,-390.455 176.819,-380.749 167.446,-385.688 172.572,-390.455"/>
</g>
<!-- Node13 -->
<g id="node3" class="node"><title>Node13</title>
<g id="a_node3"><a xlink:href="../../d0/de6/namespacemom__error__handler.html#ad5f00a53059c72fe2332d1436c80ca71" target="_top" xlink:title="mom_error_handler::\lis_root_pe">
<polygon fill="white" stroke="black" points="719,-440.5 719,-470.5 825,-470.5 825,-440.5 719,-440.5"/>
<text text-anchor="start" x="727" y="-458.5" font-family="Helvetica,sans-Serif" font-size="10.00">mom_error_handler::</text>
<text text-anchor="middle" x="772" y="-447.5" font-family="Helvetica,sans-Serif" font-size="10.00">is_root_pe</text>
</a>
</g>
</g>
<!-- Node12&#45;&gt;Node13 -->
<g id="edge2" class="edge"><title>Node12&#45;&gt;Node13</title>
<path fill="none" stroke="midnightblue" d="M654.433,-530.436C677.55,-515.575 713.069,-492.741 738.824,-476.184"/>
<polygon fill="midnightblue" stroke="midnightblue" points="740.972,-478.965 747.491,-470.613 737.186,-473.077 740.972,-478.965"/>
</g>
<!-- Node14&#45;&gt;Node12 -->
<g id="edge19" class="edge"><title>Node14&#45;&gt;Node12</title>
<path fill="none" stroke="midnightblue" d="M193.129,-380.733C194.433,-425.208 205.028,-555.153 283,-609.5 381.123,-677.892 531.542,-604.235 596.869,-565.805"/>
<polygon fill="midnightblue" stroke="midnightblue" points="598.724,-568.773 605.508,-560.634 595.129,-562.766 598.724,-568.773"/>
</g>
<!-- Node14&#45;&gt;Node13 -->
<g id="edge14" class="edge"><title>Node14&#45;&gt;Node13</title>
<path fill="none" stroke="midnightblue" d="M247.117,-364.648C315.951,-364.467 438.23,-367.178 541,-385.5 605.065,-396.921 676.405,-420.395 722.397,-437.004"/>
<polygon fill="midnightblue" stroke="midnightblue" points="721.22,-440.3 731.814,-440.437 723.618,-433.724 721.22,-440.3"/>
</g>
<!-- Node15 -->
<g id="node5" class="node"><title>Node15</title>
<g id="a_node5"><a xlink:href="../../d9/d06/namespacemom__diag__mediator.html#a1b0bed2113a0c268eafd1bafbb48bd4f" target="_top" xlink:title="mom_diag_mediator::\lalloc_diag_with_id">
<polygon fill="white" stroke="black" points="284,-443.5 284,-473.5 394,-473.5 394,-443.5 284,-443.5"/>
<text text-anchor="start" x="292" y="-461.5" font-family="Helvetica,sans-Serif" font-size="10.00">mom_diag_mediator::</text>
<text text-anchor="middle" x="339" y="-450.5" font-family="Helvetica,sans-Serif" font-size="10.00">alloc_diag_with_id</text>
</a>
</g>
</g>
<!-- Node14&#45;&gt;Node15 -->
<g id="edge4" class="edge"><title>Node14&#45;&gt;Node15</title>
<path fill="none" stroke="midnightblue" d="M210.029,-380.582C227.492,-395.547 255.864,-418.5 283,-434.5 285.608,-436.038 288.333,-437.536 291.114,-438.983"/>
<polygon fill="midnightblue" stroke="midnightblue" points="289.599,-442.139 300.116,-443.42 292.694,-435.86 289.599,-442.139"/>
</g>
<!-- Node16 -->
<g id="node6" class="node"><title>Node16</title>
<g id="a_node6"><a xlink:href="../../d9/d06/namespacemom__diag__mediator.html#a6e11afe7a97bf8e3333d33b0aebd6f6e" target="_top" xlink:title="mom_diag_mediator::\lassert">
<polygon fill="white" stroke="black" points="431,-481.5 431,-511.5 541,-511.5 541,-481.5 431,-481.5"/>
<text text-anchor="start" x="439" y="-499.5" font-family="Helvetica,sans-Serif" font-size="10.00">mom_diag_mediator::</text>
<text text-anchor="middle" x="486" y="-488.5" font-family="Helvetica,sans-Serif" font-size="10.00">assert</text>
</a>
</g>
</g>
<!-- Node14&#45;&gt;Node16 -->
<g id="edge5" class="edge"><title>Node14&#45;&gt;Node16</title>
<path fill="none" stroke="midnightblue" d="M199.446,-380.792C211.476,-407.148 240.074,-460.508 283,-483.5 324.926,-505.957 378.98,-508.302 420.62,-505.525"/>
<polygon fill="midnightblue" stroke="midnightblue" points="420.956,-509.009 430.653,-504.741 420.411,-502.03 420.956,-509.009"/>
</g>
<!-- Node17 -->
<g id="node7" class="node"><title>Node17</title>
<g id="a_node7"><a xlink:href="../../d9/d06/namespacemom__diag__mediator.html#a93abbf0b9659019bed9a2129ab292752" target="_top" xlink:title="Attaches &quot;cell_methods&quot; attribute to a variable based on defaults for axes_grp or optional arguments...">
<polygon fill="white" stroke="black" points="431,-530.5 431,-560.5 541,-560.5 541,-530.5 431,-530.5"/>
<text text-anchor="start" x="439" y="-548.5" font-family="Helvetica,sans-Serif" font-size="10.00">mom_diag_mediator::</text>
<text text-anchor="middle" x="486" y="-537.5" font-family="Helvetica,sans-Serif" font-size="10.00">attach_cell_methods</text>
</a>
</g>
</g>
<!-- Node14&#45;&gt;Node17 -->
<g id="edge7" class="edge"><title>Node14&#45;&gt;Node17</title>
<path fill="none" stroke="midnightblue" d="M197.826,-380.526C208.207,-410.247 235.632,-476.433 283,-508.5 323.367,-535.828 378.235,-544.519 420.6,-546.685"/>
<polygon fill="midnightblue" stroke="midnightblue" points="420.677,-550.191 430.81,-547.095 420.958,-543.197 420.677,-550.191"/>
</g>
<!-- Node18 -->
<g id="node8" class="node"><title>Node18</title>
<g id="a_node8"><a xlink:href="../../d9/d06/namespacemom__diag__mediator.html#a3f7442639213320f7429e2288a79fda2" target="_top" xlink:title="Returns a new diagnostic id, it may be necessary to expand the diagnostics array. ...">
<polygon fill="white" stroke="black" points="284,-394.5 284,-424.5 394,-424.5 394,-394.5 284,-394.5"/>
<text text-anchor="start" x="292" y="-412.5" font-family="Helvetica,sans-Serif" font-size="10.00">mom_diag_mediator::</text>
<text text-anchor="middle" x="339" y="-401.5" font-family="Helvetica,sans-Serif" font-size="10.00">get_new_diag_id</text>
</a>
</g>
</g>
<!-- Node14&#45;&gt;Node18 -->
<g id="edge9" class="edge"><title>Node14&#45;&gt;Node18</title>
<path fill="none" stroke="midnightblue" d="M242.495,-380.519C254.032,-384.02 266.437,-387.784 278.361,-391.403"/>
<polygon fill="midnightblue" stroke="midnightblue" points="277.65,-394.844 288.236,-394.399 279.683,-388.146 277.65,-394.844"/>
</g>
<!-- Node20 -->
<g id="node10" class="node"><title>Node20</title>
<g id="a_node10"><a xlink:href="../../d9/d06/namespacemom__diag__mediator.html#a4b739f107cebe1ece8d29056c1144bff" target="_top" xlink:title="mom_diag_mediator::\lis_b_axes">
<polygon fill="white" stroke="black" points="284,-306.5 284,-336.5 394,-336.5 394,-306.5 284,-306.5"/>
<text text-anchor="start" x="292" y="-324.5" font-family="Helvetica,sans-Serif" font-size="10.00">mom_diag_mediator::</text>
<text text-anchor="middle" x="339" y="-313.5" font-family="Helvetica,sans-Serif" font-size="10.00">is_b_axes</text>
</a>
</g>
</g>
<!-- Node14&#45;&gt;Node20 -->
<g id="edge12" class="edge"><title>Node14&#45;&gt;Node20</title>
<path fill="none" stroke="midnightblue" d="M242.495,-350.481C254.032,-346.98 266.437,-343.216 278.361,-339.597"/>
<polygon fill="midnightblue" stroke="midnightblue" points="279.683,-342.854 288.236,-336.601 277.65,-336.156 279.683,-342.854"/>
</g>
<!-- Node21 -->
<g id="node11" class="node"><title>Node21</title>
<g id="a_node11"><a xlink:href="../../d9/d06/namespacemom__diag__mediator.html#a84370fa96e03622edbfd5e343bcd9718" target="_top" xlink:title="mom_diag_mediator::\lis_layer_axes">
<polygon fill="white" stroke="black" points="284,-257.5 284,-287.5 394,-287.5 394,-257.5 284,-257.5"/>
<text text-anchor="start" x="292" y="-275.5" font-family="Helvetica,sans-Serif" font-size="10.00">mom_diag_mediator::</text>
<text text-anchor="middle" x="339" y="-264.5" font-family="Helvetica,sans-Serif" font-size="10.00">is_layer_axes</text>
</a>
</g>
</g>
<!-- Node14&#45;&gt;Node21 -->
<g id="edge13" class="edge"><title>Node14&#45;&gt;Node21</title>
<path fill="none" stroke="midnightblue" d="M210.447,-350.469C228.005,-335.799 256.242,-313.424 283,-297.5 286.16,-295.619 289.487,-293.785 292.874,-292.019"/>
<polygon fill="midnightblue" stroke="midnightblue" points="294.519,-295.11 301.913,-287.521 291.401,-288.843 294.519,-295.11"/>
</g>
<!-- Node22 -->
<g id="node12" class="node"><title>Node22</title>
<g id="a_node12"><a xlink:href="../../d9/d06/namespacemom__diag__mediator.html#a27fa63c9ff62b660bf457adbb8645bdf" target="_top" xlink:title="mom_diag_mediator::\lis_u_axes">
<polygon fill="white" stroke="black" points="284,-208.5 284,-238.5 394,-238.5 394,-208.5 284,-208.5"/>
<text text-anchor="start" x="292" y="-226.5" font-family="Helvetica,sans-Serif" font-size="10.00">mom_diag_mediator::</text>
<text text-anchor="middle" x="339" y="-215.5" font-family="Helvetica,sans-Serif" font-size="10.00">is_u_axes</text>
</a>
</g>
</g>
<!-- Node14&#45;&gt;Node22 -->
<g id="edge15" class="edge"><title>Node14&#45;&gt;Node22</title>
<path fill="none" stroke="midnightblue" d="M201.359,-350.294C215.401,-325.949 245.865,-277.973 283,-248.5 285.049,-246.874 287.22,-245.327 289.471,-243.86"/>
<polygon fill="midnightblue" stroke="midnightblue" points="291.597,-246.672 298.455,-238.596 288.058,-240.632 291.597,-246.672"/>
</g>
<!-- Node23 -->
<g id="node13" class="node"><title>Node23</title>
<g id="a_node13"><a xlink:href="../../d9/d06/namespacemom__diag__mediator.html#a9a30d653d812713d6fcff94f6f1fc3e6" target="_top" xlink:title="mom_diag_mediator::\lis_v_axes">
<polygon fill="white" stroke="black" points="284,-159.5 284,-189.5 394,-189.5 394,-159.5 284,-159.5"/>
<text text-anchor="start" x="292" y="-177.5" font-family="Helvetica,sans-Serif" font-size="10.00">mom_diag_mediator::</text>
<text text-anchor="middle" x="339" y="-166.5" font-family="Helvetica,sans-Serif" font-size="10.00">is_v_axes</text>
</a>
</g>
</g>
<!-- Node14&#45;&gt;Node23 -->
<g id="edge16" class="edge"><title>Node14&#45;&gt;Node23</title>
<path fill="none" stroke="midnightblue" d="M197.61,-350.13C207.929,-318.099 235.76,-243.536 283,-199.5 284.652,-197.96 286.415,-196.502 288.259,-195.124"/>
<polygon fill="midnightblue" stroke="midnightblue" points="290.3,-197.971 296.767,-189.579 286.478,-192.107 290.3,-197.971"/>
</g>
<!-- Node24 -->
<g id="node14" class="node"><title>Node24</title>
<g id="a_node14"><a xlink:href="../../d9/d06/namespacemom__diag__mediator.html#a65fe8d329cf5dbfd08c98874a7a64407" target="_top" xlink:title="Log a diagnostic to the available diagnostics file. ">
<polygon fill="white" stroke="black" points="284,-110.5 284,-140.5 394,-140.5 394,-110.5 284,-110.5"/>
<text text-anchor="start" x="292" y="-128.5" font-family="Helvetica,sans-Serif" font-size="10.00">mom_diag_mediator::</text>
<text text-anchor="middle" x="339" y="-117.5" font-family="Helvetica,sans-Serif" font-size="10.00">log_available_diag</text>
</a>
</g>
</g>
<!-- Node14&#45;&gt;Node24 -->
<g id="edge17" class="edge"><title>Node14&#45;&gt;Node24</title>
<path fill="none" stroke="midnightblue" d="M195.415,-350.39C202.272,-312.09 225.235,-210.035 283,-150.5 284.397,-149.06 285.892,-147.696 287.463,-146.404"/>
<polygon fill="midnightblue" stroke="midnightblue" points="289.662,-149.137 295.845,-140.533 285.646,-143.404 289.662,-149.137"/>
</g>
<!-- Node26 -->
<g id="node16" class="node"><title>Node26</title>
<g id="a_node16"><a xlink:href="../../d9/d06/namespacemom__diag__mediator.html#aca4a32fea8dade9f51e076a56b9bad2b" target="_top" xlink:title="Returns ID from register_diag_field_fms (the diag_manager routine) after expanding axes (axes&#45;group) ...">
<polygon fill="white" stroke="black" points="284,-50 284,-91 394,-91 394,-50 284,-50"/>
<text text-anchor="start" x="292" y="-79" font-family="Helvetica,sans-Serif" font-size="10.00">mom_diag_mediator::</text>
<text text-anchor="start" x="292" y="-68" font-family="Helvetica,sans-Serif" font-size="10.00">register_diag_field</text>
<text text-anchor="middle" x="339" y="-57" font-family="Helvetica,sans-Serif" font-size="10.00">_expand_axes</text>
</a>
</g>
</g>
<!-- Node14&#45;&gt;Node26 -->
<g id="edge20" class="edge"><title>Node14&#45;&gt;Node26</title>
<path fill="none" stroke="midnightblue" d="M194.414,-350.258C199.181,-306.656 218.187,-179.544 283,-101.5 284.107,-100.167 285.288,-98.8797 286.528,-97.6386"/>
<polygon fill="midnightblue" stroke="midnightblue" points="288.907,-100.209 294.192,-91.0266 284.334,-94.9087 288.907,-100.209"/>
</g>
<!-- Node27 -->
<g id="node17" class="node"><title>Node27</title>
<g id="a_node17"><a xlink:href="../../d9/d06/namespacemom__diag__mediator.html#a085f313357879a914af6450f2ab8ec79" target="_top" xlink:title="mom_diag_mediator::\lset_diag_mask">
<polygon fill="white" stroke="black" points="284,-0.5 284,-30.5 394,-30.5 394,-0.5 284,-0.5"/>
<text text-anchor="start" x="292" y="-18.5" font-family="Helvetica,sans-Serif" font-size="10.00">mom_diag_mediator::</text>
<text text-anchor="middle" x="339" y="-7.5" font-family="Helvetica,sans-Serif" font-size="10.00">set_diag_mask</text>
</a>
</g>
</g>
<!-- Node14&#45;&gt;Node27 -->
<g id="edge21" class="edge"><title>Node14&#45;&gt;Node27</title>
<path fill="none" stroke="midnightblue" d="M192.896,-350.173C193.362,-299.623 201.411,-135.97 283,-40.5 284.124,-39.1843 285.332,-37.9344 286.608,-36.7473"/>
<polygon fill="midnightblue" stroke="midnightblue" points="288.777,-39.4946 294.554,-30.6129 284.499,-33.9538 288.777,-39.4946"/>
</g>
<!-- Node28 -->
<g id="node18" class="node"><title>Node28</title>
<g id="a_node18"><a xlink:href="../../d9/d06/namespacemom__diag__mediator.html#a5d1e1aa53cdd6bb335a6f841eded4f46" target="_top" xlink:title="mom_diag_mediator::\lset_diag_remap_axes">
<polygon fill="white" stroke="black" points="283,-569.5 283,-599.5 395,-599.5 395,-569.5 283,-569.5"/>
<text text-anchor="start" x="291" y="-587.5" font-family="Helvetica,sans-Serif" font-size="10.00">mom_diag_mediator::</text>
<text text-anchor="middle" x="339" y="-576.5" font-family="Helvetica,sans-Serif" font-size="10.00">set_diag_remap_axes</text>
</a>
</g>
</g>
<!-- Node14&#45;&gt;Node28 -->
<g id="edge22" class="edge"><title>Node14&#45;&gt;Node28</title>
<path fill="none" stroke="midnightblue" d="M196.724,-380.577C205.941,-415.191 232.784,-501.448 283,-554.5 286.285,-557.971 290.063,-561.134 294.067,-563.993"/>
<polygon fill="midnightblue" stroke="midnightblue" points="292.217,-566.964 302.52,-569.434 296.006,-561.078 292.217,-566.964"/>
</g>
<!-- Node16&#45;&gt;Node12 -->
<g id="edge6" class="edge"><title>Node16&#45;&gt;Node12</title>
<path fill="none" stroke="midnightblue" d="M530.763,-511.601C544.935,-516.492 560.813,-521.971 575.603,-527.074"/>
<polygon fill="midnightblue" stroke="midnightblue" points="574.542,-530.411 585.137,-530.364 576.825,-523.793 574.542,-530.411"/>
</g>
<!-- Node17&#45;&gt;Node12 -->
<g id="edge8" class="edge"><title>Node17&#45;&gt;Node12</title>
<path fill="none" stroke="midnightblue" d="M541.089,-545.5C549.447,-545.5 558.138,-545.5 566.659,-545.5"/>
<polygon fill="midnightblue" stroke="midnightblue" points="566.936,-549 576.935,-545.5 566.935,-542 566.936,-549"/>
</g>
<!-- Node18&#45;&gt;Node16 -->
<g id="edge10" class="edge"><title>Node18&#45;&gt;Node16</title>
<path fill="none" stroke="midnightblue" d="M375.669,-424.6C382.202,-427.677 388.884,-431.039 395,-434.5 416.515,-446.674 439.442,-462.516 456.771,-475.139"/>
<polygon fill="midnightblue" stroke="midnightblue" points="455.158,-478.297 465.286,-481.409 459.31,-472.661 455.158,-478.297"/>
</g>
<!-- Node19 -->
<g id="node9" class="node"><title>Node19</title>
<g id="a_node9"><a xlink:href="../../d9/d06/namespacemom__diag__mediator.html#a883862f004e30bbc5211f38635511ba0" target="_top" xlink:title="Initializes a diag_type (used after allocating new memory) ">
<polygon fill="white" stroke="black" points="431,-394.5 431,-424.5 541,-424.5 541,-394.5 431,-394.5"/>
<text text-anchor="start" x="439" y="-412.5" font-family="Helvetica,sans-Serif" font-size="10.00">mom_diag_mediator::</text>
<text text-anchor="middle" x="486" y="-401.5" font-family="Helvetica,sans-Serif" font-size="10.00">initialize_diag_type</text>
</a>
</g>
</g>
<!-- Node18&#45;&gt;Node19 -->
<g id="edge11" class="edge"><title>Node18&#45;&gt;Node19</title>
<path fill="none" stroke="midnightblue" d="M394.405,-409.5C402.953,-409.5 411.86,-409.5 420.608,-409.5"/>
<polygon fill="midnightblue" stroke="midnightblue" points="420.772,-413 430.772,-409.5 420.772,-406 420.772,-413"/>
</g>
<!-- Node25 -->
<g id="node15" class="node"><title>Node25</title>
<g id="a_node15"><a xlink:href="../../d9/d06/namespacemom__diag__mediator.html#ae002ca447acba252bf7bdc042e75a01e" target="_top" xlink:title="mom_diag_mediator::\ldescribe_option">
<polygon fill="white" stroke="black" points="431,-110.5 431,-140.5 541,-140.5 541,-110.5 431,-110.5"/>
<text text-anchor="start" x="439" y="-128.5" font-family="Helvetica,sans-Serif" font-size="10.00">mom_diag_mediator::</text>
<text text-anchor="middle" x="486" y="-117.5" font-family="Helvetica,sans-Serif" font-size="10.00">describe_option</text>
</a>
</g>
</g>
<!-- Node24&#45;&gt;Node25 -->
<g id="edge18" class="edge"><title>Node24&#45;&gt;Node25</title>
<path fill="none" stroke="midnightblue" d="M394.405,-125.5C402.953,-125.5 411.86,-125.5 420.608,-125.5"/>
<polygon fill="midnightblue" stroke="midnightblue" points="420.772,-129 430.772,-125.5 420.772,-122 420.772,-129"/>
</g>
</g>
</svg>
        <g id="navigator" transform="translate(0 0)" fill="#404254">
                <rect fill="#f2f5e9" fill-opacity="0.5" stroke="#606060" stroke-width=".5" x="0" y="0" width="60" height="60"/>
                <use id="zoomplus" xlink:href="#zoomPlus" x="17" y="9" onmousedown="handleZoom(evt,'in')"/>
                <use id="zoomminus" xlink:href="#zoomMin" x="42" y="9" onmousedown="handleZoom(evt,'out')"/>
                <use id="reset" xlink:href="#resetDef" x="30" y="36" onmousedown="handleReset()"/>
                <g id="arrowUp" xlink:href="#dirArrow" transform="translate(30 24)" onmousedown="handlePan(0,-1)">
                  <use xlink:href="#rim" fill="#404040">
                        <set attributeName="fill" to="#808080" begin="arrowUp.mouseover" end="arrowUp.mouseout"/>
                  </use>
                  <path fill="none" stroke="white" stroke-width="1.5" d="M0,-3.0v7 M-2.5,-0.5L0,-3.0L2.5,-0.5"/>
                </g>
                <g id="arrowRight" xlink:href="#dirArrow" transform="rotate(90) translate(36 -43)" onmousedown="handlePan(1,0)">
                  <use xlink:href="#rim" fill="#404040">
                        <set attributeName="fill" to="#808080" begin="arrowRight.mouseover" end="arrowRight.mouseout"/>
                  </use>
                  <path fill="none" stroke="white" stroke-width="1.5" d="M0,-3.0v7 M-2.5,-0.5L0,-3.0L2.5,-0.5"/>
                </g>
                <g id="arrowDown" xlink:href="#dirArrow" transform="rotate(180) translate(-30 -48)" onmousedown="handlePan(0,1)">
                  <use xlink:href="#rim" fill="#404040">
                        <set attributeName="fill" to="#808080" begin="arrowDown.mouseover" end="arrowDown.mouseout"/>
                  </use>
                  <path fill="none" stroke="white" stroke-width="1.5" d="M0,-3.0v7 M-2.5,-0.5L0,-3.0L2.5,-0.5"/>
                </g>
                <g id="arrowLeft" xlink:href="#dirArrow" transform="rotate(270) translate(-36 17)" onmousedown="handlePan(-1,0)">
                  <use xlink:href="#rim" fill="#404040">
                        <set attributeName="fill" to="#808080" begin="arrowLeft.mouseover" end="arrowLeft.mouseout"/>
                  </use>
                  <path fill="none" stroke="white" stroke-width="1.5" d="M0,-3.0v7 M-2.5,-0.5L0,-3.0L2.5,-0.5"/>
                </g>
        </g>
        <svg viewBox="0 0 15 15" width="100%" height="30px" preserveAspectRatio="xMaxYMin meet">
         <g id="arrow_out" transform="scale(0.3 0.3)">
          <a xlink:href="namespacemom__int__tide__input_a29a707637da633ccee155b53557b5f17_cgraph_org.svg" target="_base">
           <rect id="button" ry="5" rx="5" y="6" x="6" height="38" width="38"
                fill="#f2f5e9" fill-opacity="0.5" stroke="#606060" stroke-width="1.0"/>
           <path id="arrow"
             d="M 11.500037,31.436501 C 11.940474,20.09759 22.043105,11.32322 32.158766,21.979434 L 37.068811,17.246167 C 37.068811,17.246167 37.088388,32 37.088388,32 L 22.160133,31.978069 C 22.160133,31.978069 26.997745,27.140456 26.997745,27.140456 C 18.528582,18.264221 13.291696,25.230495 11.500037,31.436501 z"
             style="fill:#404040;"/>
          </a>
         </g>
        </svg>
</svg>
