<?xml version="1.0" encoding="UTF-8" standalone="no"?>
<!DOCTYPE svg PUBLIC "-//W3C//DTD SVG 1.1//EN"
 "http://www.w3.org/Graphics/SVG/1.1/DTD/svg11.dtd">
<!-- Generated by graphviz version 2.38.0 (20140413.2041)
 -->
<!-- Title: mom_int_tide_input::set_int_tide_input Pages: 1 -->
<svg width="724pt" height="229pt"
 viewBox="0.00 0.00 724.00 229.00" xmlns="http://www.w3.org/2000/svg" xmlns:xlink="http://www.w3.org/1999/xlink">
<g id="graph0" class="graph" transform="scale(1 1) rotate(0) translate(4 225)">
<title>mom_int_tide_input::set_int_tide_input</title>
<polygon fill="white" stroke="none" points="-4,4 -4,-225 720,-225 720,4 -4,4"/>
<!-- Node30 -->
<g id="node1" class="node"><title>Node30</title>
<polygon fill="#bfbfbf" stroke="black" points="0,-44.5 0,-74.5 101,-74.5 101,-44.5 0,-44.5"/>
<text text-anchor="start" x="8" y="-62.5" font-family="Helvetica,sans-Serif" font-size="10.00">mom_int_tide_input</text>
<text text-anchor="middle" x="50.5" y="-51.5" font-family="Helvetica,sans-Serif" font-size="10.00">::set_int_tide_input</text>
</g>
<!-- Node31 -->
<g id="node2" class="node"><title>Node31</title>
<g id="a_node2"><a xlink:href="../../d0/d77/namespacemom__int__tide__input.html#a66b16dd9f27c4131d8bd37886b947721" target="_top" xlink:title="mom_int_tide_input\l::find_n2_bottom">
<polygon fill="white" stroke="black" points="146.5,-90.5 146.5,-120.5 247.5,-120.5 247.5,-90.5 146.5,-90.5"/>
<text text-anchor="start" x="154.5" y="-108.5" font-family="Helvetica,sans-Serif" font-size="10.00">mom_int_tide_input</text>
<text text-anchor="middle" x="197" y="-97.5" font-family="Helvetica,sans-Serif" font-size="10.00">::find_n2_bottom</text>
</a>
</g>
</g>
<!-- Node30&#45;&gt;Node31 -->
<g id="edge1" class="edge"><title>Node30&#45;&gt;Node31</title>
<path fill="none" stroke="midnightblue" d="M98.8147,-74.5621C111.664,-78.6525 125.712,-83.1247 139.034,-87.3656"/>
<polygon fill="midnightblue" stroke="midnightblue" points="137.988,-90.7057 148.579,-90.404 140.112,-84.0355 137.988,-90.7057"/>
</g>
<!-- Node36 -->
<g id="node7" class="node"><title>Node36</title>
<g id="a_node7"><a xlink:href="../../d0/de6/namespacemom__error__handler.html#a460cfb79a06c29fc249952c2a3710d67" target="_top" xlink:title="mom_error_handler::\lmom_error">
<polygon fill="white" stroke="black" points="450.5,-43.5 450.5,-73.5 556.5,-73.5 556.5,-43.5 450.5,-43.5"/>
<text text-anchor="start" x="458.5" y="-61.5" font-family="Helvetica,sans-Serif" font-size="10.00">mom_error_handler::</text>
<text text-anchor="middle" x="503.5" y="-50.5" font-family="Helvetica,sans-Serif" font-size="10.00">mom_error</text>
</a>
</g>
</g>
<!-- Node30&#45;&gt;Node36 -->
<g id="edge8" class="edge"><title>Node30&#45;&gt;Node36</title>
<path fill="none" stroke="midnightblue" d="M101.055,-59.3901C183.79,-59.2067 349.871,-58.8384 440.324,-58.6379"/>
<polygon fill="midnightblue" stroke="midnightblue" points="440.443,-62.1377 450.436,-58.6154 440.428,-55.1377 440.443,-62.1377"/>
</g>
<!-- Node38 -->
<g id="node9" class="node"><title>Node38</title>
<g id="a_node9"><a xlink:href="../../d1/d75/namespacemom__thickness__diffuse.html#aff6aa879773518e476ed0a603a1a301e" target="_top" xlink:title="Fills tracer values in massless layers with sensible values by diffusing vertically with a (small) co...">
<polygon fill="white" stroke="black" points="137,-0.5 137,-30.5 257,-30.5 257,-0.5 137,-0.5"/>
<text text-anchor="start" x="145" y="-18.5" font-family="Helvetica,sans-Serif" font-size="10.00">mom_thickness_diffuse</text>
<text text-anchor="middle" x="197" y="-7.5" font-family="Helvetica,sans-Serif" font-size="10.00">::vert_fill_ts</text>
</a>
</g>
</g>
<!-- Node30&#45;&gt;Node38 -->
<g id="edge9" class="edge"><title>Node30&#45;&gt;Node38</title>
<path fill="none" stroke="midnightblue" d="M100.825,-44.4808C112.322,-40.9798 124.683,-37.2158 136.567,-33.5973"/>
<polygon fill="midnightblue" stroke="midnightblue" points="137.86,-36.8622 146.407,-30.6009 135.821,-30.1657 137.86,-36.8622"/>
</g>
<!-- Node32 -->
<g id="node3" class="node"><title>Node32</title>
<g id="a_node3"><a xlink:href="../../d1/d01/namespacemom__eos.html#a204529f8434a0322314e6ce2a9762436" target="_top" xlink:title="Calls the appropriate subroutine to calculate density derivatives for 1&#45;D array inputs. ">
<polygon fill="white" stroke="black" points="293,-92.5 293,-122.5 397,-122.5 397,-92.5 293,-92.5"/>
<text text-anchor="start" x="301" y="-110.5" font-family="Helvetica,sans-Serif" font-size="10.00">mom_eos::calculate</text>
<text text-anchor="middle" x="345" y="-99.5" font-family="Helvetica,sans-Serif" font-size="10.00">_density_derivs</text>
</a>
</g>
</g>
<!-- Node31&#45;&gt;Node32 -->
<g id="edge2" class="edge"><title>Node31&#45;&gt;Node32</title>
<path fill="none" stroke="midnightblue" d="M247.837,-106.183C259.082,-106.337 271.145,-106.502 282.796,-106.662"/>
<polygon fill="midnightblue" stroke="midnightblue" points="282.851,-110.163 292.898,-106.8 282.947,-103.163 282.851,-110.163"/>
</g>
<!-- Node33 -->
<g id="node4" class="node"><title>Node33</title>
<g id="a_node4"><a xlink:href="../../d5/de6/namespacemom__eos__linear.html#a73d8a625582247379092adf1aeeb55e0" target="_top" xlink:title="mom_eos_linear::calculate\l_density_derivs_linear">
<polygon fill="white" stroke="black" points="437,-190.5 437,-220.5 570,-220.5 570,-190.5 437,-190.5"/>
<text text-anchor="start" x="445" y="-208.5" font-family="Helvetica,sans-Serif" font-size="10.00">mom_eos_linear::calculate</text>
<text text-anchor="middle" x="503.5" y="-197.5" font-family="Helvetica,sans-Serif" font-size="10.00">_density_derivs_linear</text>
</a>
</g>
</g>
<!-- Node32&#45;&gt;Node33 -->
<g id="edge3" class="edge"><title>Node32&#45;&gt;Node33</title>
<path fill="none" stroke="midnightblue" d="M360.393,-122.756C376.657,-139.228 404.585,-165.281 433,-181.5 436.03,-183.229 439.205,-184.863 442.459,-186.402"/>
<polygon fill="midnightblue" stroke="midnightblue" points="441.223,-189.681 451.787,-190.487 444.031,-183.269 441.223,-189.681"/>
</g>
<!-- Node34 -->
<g id="node5" class="node"><title>Node34</title>
<g id="a_node5"><a xlink:href="../../dd/d6b/namespacemom__eos__unesco.html#af8666837abadea54c016bf59838f96cc" target="_top" xlink:title="mom_eos_unesco::calculate\l_density_derivs_unesco">
<polygon fill="white" stroke="black" points="433,-141.5 433,-171.5 574,-171.5 574,-141.5 433,-141.5"/>
<text text-anchor="start" x="441" y="-159.5" font-family="Helvetica,sans-Serif" font-size="10.00">mom_eos_unesco::calculate</text>
<text text-anchor="middle" x="503.5" y="-148.5" font-family="Helvetica,sans-Serif" font-size="10.00">_density_derivs_unesco</text>
</a>
</g>
</g>
<!-- Node32&#45;&gt;Node34 -->
<g id="edge4" class="edge"><title>Node32&#45;&gt;Node34</title>
<path fill="none" stroke="midnightblue" d="M394.232,-122.601C410.223,-127.608 428.186,-133.232 444.815,-138.439"/>
<polygon fill="midnightblue" stroke="midnightblue" points="443.838,-141.801 454.427,-141.448 445.93,-135.12 443.838,-141.801"/>
</g>
<!-- Node35 -->
<g id="node6" class="node"><title>Node35</title>
<g id="a_node6"><a xlink:href="../../de/d76/namespacemom__eos__wright.html#ad7748e85ddacb33ad90ec3a9017e6e72" target="_top" xlink:title="mom_eos_wright::calculate\l_density_derivs_wright">
<polygon fill="white" stroke="black" points="435.5,-92.5 435.5,-122.5 571.5,-122.5 571.5,-92.5 435.5,-92.5"/>
<text text-anchor="start" x="443.5" y="-110.5" font-family="Helvetica,sans-Serif" font-size="10.00">mom_eos_wright::calculate</text>
<text text-anchor="middle" x="503.5" y="-99.5" font-family="Helvetica,sans-Serif" font-size="10.00">_density_derivs_wright</text>
</a>
</g>
</g>
<!-- Node32&#45;&gt;Node35 -->
<g id="edge5" class="edge"><title>Node32&#45;&gt;Node35</title>
<path fill="none" stroke="midnightblue" d="M397.244,-107.5C406.213,-107.5 415.721,-107.5 425.21,-107.5"/>
<polygon fill="midnightblue" stroke="midnightblue" points="425.474,-111 435.474,-107.5 425.474,-104 425.474,-111"/>
</g>
<!-- Node32&#45;&gt;Node36 -->
<g id="edge6" class="edge"><title>Node32&#45;&gt;Node36</title>
<path fill="none" stroke="midnightblue" d="M394.232,-92.3986C410.223,-87.3917 428.186,-81.7676 444.815,-76.561"/>
<polygon fill="midnightblue" stroke="midnightblue" points="445.93,-79.8797 454.427,-73.5516 443.838,-73.1995 445.93,-79.8797"/>
</g>
<!-- Node37 -->
<g id="node8" class="node"><title>Node37</title>
<g id="a_node8"><a xlink:href="../../d0/de6/namespacemom__error__handler.html#ad5f00a53059c72fe2332d1436c80ca71" target="_top" xlink:title="mom_error_handler::\lis_root_pe">
<polygon fill="white" stroke="black" points="610,-43.5 610,-73.5 716,-73.5 716,-43.5 610,-43.5"/>
<text text-anchor="start" x="618" y="-61.5" font-family="Helvetica,sans-Serif" font-size="10.00">mom_error_handler::</text>
<text text-anchor="middle" x="663" y="-50.5" font-family="Helvetica,sans-Serif" font-size="10.00">is_root_pe</text>
</a>
</g>
</g>
<!-- Node36&#45;&gt;Node37 -->
<g id="edge7" class="edge"><title>Node36&#45;&gt;Node37</title>
<path fill="none" stroke="midnightblue" d="M556.508,-58.5C570.279,-58.5 585.289,-58.5 599.552,-58.5"/>
<polygon fill="midnightblue" stroke="midnightblue" points="599.778,-62.0001 609.778,-58.5 599.778,-55.0001 599.778,-62.0001"/>
</g>
</g>
</svg>
