<?xml version="1.0" encoding="UTF-8" standalone="no"?>
<!DOCTYPE svg PUBLIC "-//W3C//DTD SVG 1.1//EN"
 "http://www.w3.org/Graphics/SVG/1.1/DTD/svg11.dtd">
<!-- Generated by graphviz version 2.38.0 (20140413.2041)
 -->
<!-- Title: mom_int_tide_input::int_tide_input_init Pages: 1 -->
<svg width="745pt" height="715pt"
 viewBox="0.00 0.00 745.00 715.40" xmlns="http://www.w3.org/2000/svg" xmlns:xlink="http://www.w3.org/1999/xlink">
<g id="graph0" class="graph" transform="scale(1 1) rotate(0) translate(4 711.399)">
<title>mom_int_tide_input::int_tide_input_init</title>
<polygon fill="white" stroke="none" points="-4,4 -4,-711.399 741,-711.399 741,4 -4,4"/>
<!-- Node11 -->
<g id="node1" class="node"><title>Node11</title>
<polygon fill="#bfbfbf" stroke="black" points="0,-347.899 0,-377.899 86,-377.899 86,-347.899 0,-347.899"/>
<text text-anchor="start" x="8" y="-365.899" font-family="Helvetica,sans-Serif" font-size="10.00">mom_int_tide_input</text>
<text text-anchor="middle" x="43" y="-354.899" font-family="Helvetica,sans-Serif" font-size="10.00">::int_tide_input_init</text>
</g>
<!-- Node12 -->
<g id="node2" class="node"><title>Node12</title>
<g id="a_node2"><a xlink:href="../../d9/def/namespacemom__file__parser.html#a17c0ef1bb1912f02faa0aaa1e0f64210" target="_top" xlink:title="mom_file_parser::log\l_version">
<polygon fill="white" stroke="black" points="515.5,-676.899 515.5,-706.899 607.5,-706.899 607.5,-676.899 515.5,-676.899"/>
<text text-anchor="start" x="523.5" y="-694.899" font-family="Helvetica,sans-Serif" font-size="10.00">mom_file_parser::log</text>
<text text-anchor="middle" x="561.5" y="-683.899" font-family="Helvetica,sans-Serif" font-size="10.00">_version</text>
</a>
</g>
</g>
<!-- Node11&#45;&gt;Node12 -->
<g id="edge1" class="edge"><title>Node11&#45;&gt;Node12</title>
<path fill="none" stroke="midnightblue" d="M49.6547,-378.035C69.0853,-427.71 138.312,-586.547 253,-655.899 330.822,-702.958 440.099,-703.538 505.257,-698.52"/>
<polygon fill="midnightblue" stroke="midnightblue" points="505.653,-701.999 515.324,-697.673 505.066,-695.024 505.653,-701.999"/>
</g>
<!-- Node14 -->
<g id="node4" class="node"><title>Node14</title>
<g id="a_node4"><a xlink:href="../../d0/de6/namespacemom__error__handler.html#a460cfb79a06c29fc249952c2a3710d67" target="_top" xlink:title="mom_error_handler::\lmom_error">
<polygon fill="white" stroke="black" points="515,-457.899 515,-487.899 608,-487.899 608,-457.899 515,-457.899"/>
<text text-anchor="start" x="523" y="-475.899" font-family="Helvetica,sans-Serif" font-size="10.00">mom_error_handler::</text>
<text text-anchor="middle" x="561.5" y="-464.899" font-family="Helvetica,sans-Serif" font-size="10.00">mom_error</text>
</a>
</g>
</g>
<!-- Node11&#45;&gt;Node14 -->
<g id="edge3" class="edge"><title>Node11&#45;&gt;Node14</title>
<path fill="none" stroke="midnightblue" d="M47.3735,-347.832C61.016,-290.957 117.97,-88.6519 253,-11.8992 289.707,8.96531 306.719,-3.03209 348,-11.8992 410.431,-25.3094 439.156,-21.0005 479,-70.8992 526.319,-130.159 551.314,-369.064 558.378,-447.681"/>
<polygon fill="midnightblue" stroke="midnightblue" points="554.894,-448.019 559.256,-457.675 561.867,-447.407 554.894,-448.019"/>
</g>
<!-- Node15 -->
<g id="node5" class="node"><title>Node15</title>
<g id="a_node5"><a xlink:href="../../d9/d06/namespacemom__diag__mediator.html#aab2007573b14ed73053282770d1b19a4" target="_top" xlink:title="mom_diag_mediator::\lregister_diag_field">
<polygon fill="white" stroke="black" points="122,-347.899 122,-377.899 217,-377.899 217,-347.899 122,-347.899"/>
<text text-anchor="start" x="130" y="-365.899" font-family="Helvetica,sans-Serif" font-size="10.00">mom_diag_mediator::</text>
<text text-anchor="middle" x="169.5" y="-354.899" font-family="Helvetica,sans-Serif" font-size="10.00">register_diag_field</text>
</a>
</g>
</g>
<!-- Node11&#45;&gt;Node15 -->
<g id="edge5" class="edge"><title>Node11&#45;&gt;Node15</title>
<path fill="none" stroke="midnightblue" d="M86.15,-362.899C94.2747,-362.899 102.911,-362.899 111.418,-362.899"/>
<polygon fill="midnightblue" stroke="midnightblue" points="111.687,-366.399 121.687,-362.899 111.687,-359.399 111.687,-366.399"/>
</g>
<!-- Node13 -->
<g id="node3" class="node"><title>Node13</title>
<g id="a_node3"><a xlink:href="../../d0/de6/namespacemom__error__handler.html#ad5f00a53059c72fe2332d1436c80ca71" target="_top" xlink:title="mom_error_handler::\lis_root_pe">
<polygon fill="white" stroke="black" points="644,-632.899 644,-662.899 737,-662.899 737,-632.899 644,-632.899"/>
<text text-anchor="start" x="652" y="-650.899" font-family="Helvetica,sans-Serif" font-size="10.00">mom_error_handler::</text>
<text text-anchor="middle" x="690.5" y="-639.899" font-family="Helvetica,sans-Serif" font-size="10.00">is_root_pe</text>
</a>
</g>
</g>
<!-- Node12&#45;&gt;Node13 -->
<g id="edge2" class="edge"><title>Node12&#45;&gt;Node13</title>
<path fill="none" stroke="midnightblue" d="M605.851,-676.88C615.653,-673.484 626.169,-669.841 636.324,-666.323"/>
<polygon fill="midnightblue" stroke="midnightblue" points="637.61,-669.581 645.913,-663 635.318,-662.967 637.61,-669.581"/>
</g>
<!-- Node14&#45;&gt;Node13 -->
<g id="edge4" class="edge"><title>Node14&#45;&gt;Node13</title>
<path fill="none" stroke="midnightblue" d="M573.548,-488.123C595.746,-518.711 645.894,-587.813 672.376,-624.304"/>
<polygon fill="midnightblue" stroke="midnightblue" points="669.862,-626.797 678.568,-632.835 675.527,-622.686 669.862,-626.797"/>
</g>
<!-- Node15&#45;&gt;Node13 -->
<g id="edge16" class="edge"><title>Node15&#45;&gt;Node13</title>
<path fill="none" stroke="midnightblue" d="M169.779,-378.225C168.517,-424.965 171.821,-566.314 253,-628.899 310.992,-673.608 529.788,-661.687 633.852,-653.124"/>
<polygon fill="midnightblue" stroke="midnightblue" points="634.185,-656.609 643.856,-652.282 633.598,-649.633 634.185,-656.609"/>
</g>
<!-- Node15&#45;&gt;Node14 -->
<g id="edge21" class="edge"><title>Node15&#45;&gt;Node14</title>
<path fill="none" stroke="midnightblue" d="M179.064,-378.157C191.969,-399.462 218.596,-437.364 253,-453.899 333.715,-492.693 440.382,-488.87 504.53,-481.581"/>
<polygon fill="midnightblue" stroke="midnightblue" points="505.327,-485.01 514.836,-480.338 504.489,-478.061 505.327,-485.01"/>
</g>
<!-- Node16 -->
<g id="node6" class="node"><title>Node16</title>
<g id="a_node6"><a xlink:href="../../d9/d06/namespacemom__diag__mediator.html#a1b0bed2113a0c268eafd1bafbb48bd4f" target="_top" xlink:title="mom_diag_mediator::\lalloc_diag_with_id">
<polygon fill="white" stroke="black" points="253,-413.899 253,-443.899 348,-443.899 348,-413.899 253,-413.899"/>
<text text-anchor="start" x="261" y="-431.899" font-family="Helvetica,sans-Serif" font-size="10.00">mom_diag_mediator::</text>
<text text-anchor="middle" x="300.5" y="-420.899" font-family="Helvetica,sans-Serif" font-size="10.00">alloc_diag_with_id</text>
</a>
</g>
</g>
<!-- Node15&#45;&gt;Node16 -->
<g id="edge6" class="edge"><title>Node15&#45;&gt;Node16</title>
<path fill="none" stroke="midnightblue" d="M200.095,-378.041C218.204,-387.306 241.565,-399.258 261.091,-409.248"/>
<polygon fill="midnightblue" stroke="midnightblue" points="259.546,-412.389 270.043,-413.828 262.734,-406.157 259.546,-412.389"/>
</g>
<!-- Node17 -->
<g id="node7" class="node"><title>Node17</title>
<g id="a_node7"><a xlink:href="../../d9/d06/namespacemom__diag__mediator.html#a6e11afe7a97bf8e3333d33b0aebd6f6e" target="_top" xlink:title="mom_diag_mediator::\lassert">
<polygon fill="white" stroke="black" points="384,-372.899 384,-402.899 479,-402.899 479,-372.899 384,-372.899"/>
<text text-anchor="start" x="392" y="-390.899" font-family="Helvetica,sans-Serif" font-size="10.00">mom_diag_mediator::</text>
<text text-anchor="middle" x="431.5" y="-379.899" font-family="Helvetica,sans-Serif" font-size="10.00">assert</text>
</a>
</g>
</g>
<!-- Node15&#45;&gt;Node17 -->
<g id="edge7" class="edge"><title>Node15&#45;&gt;Node17</title>
<path fill="none" stroke="midnightblue" d="M217.283,-367.398C261.142,-371.615 326.802,-377.928 373.66,-382.434"/>
<polygon fill="midnightblue" stroke="midnightblue" points="373.366,-385.922 383.655,-383.395 374.036,-378.954 373.366,-385.922"/>
</g>
<!-- Node18 -->
<g id="node8" class="node"><title>Node18</title>
<g id="a_node8"><a xlink:href="../../d9/d06/namespacemom__diag__mediator.html#a93abbf0b9659019bed9a2129ab292752" target="_top" xlink:title="Attaches &quot;cell_methods&quot; attribute to a variable based on defaults for axes_grp or optional arguments...">
<polygon fill="white" stroke="black" points="384,-501.899 384,-531.899 479,-531.899 479,-501.899 384,-501.899"/>
<text text-anchor="start" x="392" y="-519.899" font-family="Helvetica,sans-Serif" font-size="10.00">mom_diag_mediator::</text>
<text text-anchor="middle" x="431.5" y="-508.899" font-family="Helvetica,sans-Serif" font-size="10.00">attach_cell_methods</text>
</a>
</g>
</g>
<!-- Node15&#45;&gt;Node18 -->
<g id="edge9" class="edge"><title>Node15&#45;&gt;Node18</title>
<path fill="none" stroke="midnightblue" d="M175.905,-378.043C186.305,-404.806 211.787,-460.158 253,-486.899 288.707,-510.068 336.66,-517.076 373.723,-518.561"/>
<polygon fill="midnightblue" stroke="midnightblue" points="373.775,-522.063 383.868,-518.842 373.969,-515.066 373.775,-522.063"/>
</g>
<!-- Node19 -->
<g id="node9" class="node"><title>Node19</title>
<g id="a_node9"><a xlink:href="../../d9/d06/namespacemom__diag__mediator.html#a3f7442639213320f7429e2288a79fda2" target="_top" xlink:title="Returns a new diagnostic id, it may be necessary to expand the diagnostics array. ...">
<polygon fill="white" stroke="black" points="253,-325.899 253,-355.899 348,-355.899 348,-325.899 253,-325.899"/>
<text text-anchor="start" x="261" y="-343.899" font-family="Helvetica,sans-Serif" font-size="10.00">mom_diag_mediator::</text>
<text text-anchor="middle" x="300.5" y="-332.899" font-family="Helvetica,sans-Serif" font-size="10.00">get_new_diag_id</text>
</a>
</g>
</g>
<!-- Node15&#45;&gt;Node19 -->
<g id="edge11" class="edge"><title>Node15&#45;&gt;Node19</title>
<path fill="none" stroke="midnightblue" d="M217.072,-354.957C225.475,-353.524 234.319,-352.015 242.969,-350.54"/>
<polygon fill="midnightblue" stroke="midnightblue" points="243.727,-353.961 252.996,-348.83 242.55,-347.061 243.727,-353.961"/>
</g>
<!-- Node21 -->
<g id="node11" class="node"><title>Node21</title>
<g id="a_node11"><a xlink:href="../../d9/d06/namespacemom__diag__mediator.html#a4b739f107cebe1ece8d29056c1144bff" target="_top" xlink:title="mom_diag_mediator::\lis_b_axes">
<polygon fill="white" stroke="black" points="253,-276.899 253,-306.899 348,-306.899 348,-276.899 253,-276.899"/>
<text text-anchor="start" x="261" y="-294.899" font-family="Helvetica,sans-Serif" font-size="10.00">mom_diag_mediator::</text>
<text text-anchor="middle" x="300.5" y="-283.899" font-family="Helvetica,sans-Serif" font-size="10.00">is_b_axes</text>
</a>
</g>
</g>
<!-- Node15&#45;&gt;Node21 -->
<g id="edge14" class="edge"><title>Node15&#45;&gt;Node21</title>
<path fill="none" stroke="midnightblue" d="M196.356,-347.805C212.538,-338.448 233.875,-326.277 253,-315.899 255.545,-314.518 258.178,-313.109 260.836,-311.7"/>
<polygon fill="midnightblue" stroke="midnightblue" points="262.656,-314.698 269.885,-306.952 259.403,-308.499 262.656,-314.698"/>
</g>
<!-- Node22 -->
<g id="node12" class="node"><title>Node22</title>
<g id="a_node12"><a xlink:href="../../d9/d06/namespacemom__diag__mediator.html#a84370fa96e03622edbfd5e343bcd9718" target="_top" xlink:title="mom_diag_mediator::\lis_layer_axes">
<polygon fill="white" stroke="black" points="253,-227.899 253,-257.899 348,-257.899 348,-227.899 253,-227.899"/>
<text text-anchor="start" x="261" y="-245.899" font-family="Helvetica,sans-Serif" font-size="10.00">mom_diag_mediator::</text>
<text text-anchor="middle" x="300.5" y="-234.899" font-family="Helvetica,sans-Serif" font-size="10.00">is_layer_axes</text>
</a>
</g>
</g>
<!-- Node15&#45;&gt;Node22 -->
<g id="edge15" class="edge"><title>Node15&#45;&gt;Node22</title>
<path fill="none" stroke="midnightblue" d="M180.744,-347.658C195.039,-327.26 222.652,-290.877 253,-266.899 254.55,-265.674 256.173,-264.484 257.844,-263.332"/>
<polygon fill="midnightblue" stroke="midnightblue" points="259.89,-266.18 266.499,-257.899 256.168,-260.252 259.89,-266.18"/>
</g>
<!-- Node23 -->
<g id="node13" class="node"><title>Node23</title>
<g id="a_node13"><a xlink:href="../../d9/d06/namespacemom__diag__mediator.html#a27fa63c9ff62b660bf457adbb8645bdf" target="_top" xlink:title="mom_diag_mediator::\lis_u_axes">
<polygon fill="white" stroke="black" points="253,-178.899 253,-208.899 348,-208.899 348,-178.899 253,-178.899"/>
<text text-anchor="start" x="261" y="-196.899" font-family="Helvetica,sans-Serif" font-size="10.00">mom_diag_mediator::</text>
<text text-anchor="middle" x="300.5" y="-185.899" font-family="Helvetica,sans-Serif" font-size="10.00">is_u_axes</text>
</a>
</g>
</g>
<!-- Node15&#45;&gt;Node23 -->
<g id="edge17" class="edge"><title>Node15&#45;&gt;Node23</title>
<path fill="none" stroke="midnightblue" d="M175.869,-347.464C186.536,-318.717 212.884,-256.41 253,-217.899 254.065,-216.877 255.182,-215.888 256.34,-214.931"/>
<polygon fill="midnightblue" stroke="midnightblue" points="258.385,-217.772 264.468,-209.098 254.303,-212.085 258.385,-217.772"/>
</g>
<!-- Node24 -->
<g id="node14" class="node"><title>Node24</title>
<g id="a_node14"><a xlink:href="../../d9/d06/namespacemom__diag__mediator.html#a9a30d653d812713d6fcff94f6f1fc3e6" target="_top" xlink:title="mom_diag_mediator::\lis_v_axes">
<polygon fill="white" stroke="black" points="253,-129.899 253,-159.899 348,-159.899 348,-129.899 253,-129.899"/>
<text text-anchor="start" x="261" y="-147.899" font-family="Helvetica,sans-Serif" font-size="10.00">mom_diag_mediator::</text>
<text text-anchor="middle" x="300.5" y="-136.899" font-family="Helvetica,sans-Serif" font-size="10.00">is_v_axes</text>
</a>
</g>
</g>
<!-- Node15&#45;&gt;Node24 -->
<g id="edge18" class="edge"><title>Node15&#45;&gt;Node24</title>
<path fill="none" stroke="midnightblue" d="M173.25,-347.878C180.415,-312.547 202.703,-223.084 253,-168.899 253.869,-167.963 254.783,-167.057 255.734,-166.181"/>
<polygon fill="midnightblue" stroke="midnightblue" points="257.884,-168.943 263.632,-160.043 253.588,-163.416 257.884,-168.943"/>
</g>
<!-- Node25 -->
<g id="node15" class="node"><title>Node25</title>
<g id="a_node15"><a xlink:href="../../d9/d06/namespacemom__diag__mediator.html#a65fe8d329cf5dbfd08c98874a7a64407" target="_top" xlink:title="Log a diagnostic to the available diagnostics file. ">
<polygon fill="white" stroke="black" points="253,-80.8992 253,-110.899 348,-110.899 348,-80.8992 253,-80.8992"/>
<text text-anchor="start" x="261" y="-98.8992" font-family="Helvetica,sans-Serif" font-size="10.00">mom_diag_mediator::</text>
<text text-anchor="middle" x="300.5" y="-87.8992" font-family="Helvetica,sans-Serif" font-size="10.00">log_available_diag</text>
</a>
</g>
</g>
<!-- Node15&#45;&gt;Node25 -->
<g id="edge19" class="edge"><title>Node15&#45;&gt;Node25</title>
<path fill="none" stroke="midnightblue" d="M171.737,-347.881C175.864,-306.653 192.538,-190.127 253,-119.899 253.622,-119.176 254.272,-118.472 254.945,-117.787"/>
<polygon fill="midnightblue" stroke="midnightblue" points="257.482,-120.229 262.926,-111.14 253.002,-114.85 257.482,-120.229"/>
</g>
<!-- Node27 -->
<g id="node17" class="node"><title>Node27</title>
<g id="a_node17"><a xlink:href="../../d9/d06/namespacemom__diag__mediator.html#aca4a32fea8dade9f51e076a56b9bad2b" target="_top" xlink:title="Returns ID from register_diag_field_fms (the diag_manager routine) after expanding axes (axes&#45;group) ...">
<polygon fill="white" stroke="black" points="253,-21.3992 253,-62.3992 348,-62.3992 348,-21.3992 253,-21.3992"/>
<text text-anchor="start" x="261" y="-50.3992" font-family="Helvetica,sans-Serif" font-size="10.00">mom_diag_mediator::</text>
<text text-anchor="start" x="261" y="-39.3992" font-family="Helvetica,sans-Serif" font-size="10.00">register_diag_field</text>
<text text-anchor="middle" x="300.5" y="-28.3992" font-family="Helvetica,sans-Serif" font-size="10.00">_expand_axes</text>
</a>
</g>
</g>
<!-- Node15&#45;&gt;Node27 -->
<g id="edge22" class="edge"><title>Node15&#45;&gt;Node27</title>
<path fill="none" stroke="midnightblue" d="M171.046,-347.572C173.425,-301.177 186.083,-159.981 253,-70.8992 253.286,-70.5188 253.578,-70.1423 253.877,-69.7695"/>
<polygon fill="midnightblue" stroke="midnightblue" points="256.481,-72.1118 260.933,-62.4978 251.457,-67.237 256.481,-72.1118"/>
</g>
<!-- Node28 -->
<g id="node18" class="node"><title>Node28</title>
<g id="a_node18"><a xlink:href="../../d9/d06/namespacemom__diag__mediator.html#a085f313357879a914af6450f2ab8ec79" target="_top" xlink:title="mom_diag_mediator::\lset_diag_mask">
<polygon fill="white" stroke="black" points="253,-588.899 253,-618.899 348,-618.899 348,-588.899 253,-588.899"/>
<text text-anchor="start" x="261" y="-606.899" font-family="Helvetica,sans-Serif" font-size="10.00">mom_diag_mediator::</text>
<text text-anchor="middle" x="300.5" y="-595.899" font-family="Helvetica,sans-Serif" font-size="10.00">set_diag_mask</text>
</a>
</g>
</g>
<!-- Node15&#45;&gt;Node28 -->
<g id="edge23" class="edge"><title>Node15&#45;&gt;Node28</title>
<path fill="none" stroke="midnightblue" d="M172.466,-377.966C178.172,-416.19 197.973,-518.265 253,-579.899 253.756,-580.746 254.55,-581.568 255.374,-582.364"/>
<polygon fill="midnightblue" stroke="midnightblue" points="253.51,-585.355 263.505,-588.87 257.884,-579.89 253.51,-585.355"/>
</g>
<!-- Node29 -->
<g id="node19" class="node"><title>Node29</title>
<g id="a_node19"><a xlink:href="../../d9/d06/namespacemom__diag__mediator.html#a5d1e1aa53cdd6bb335a6f841eded4f46" target="_top" xlink:title="mom_diag_mediator::\lset_diag_remap_axes">
<polygon fill="white" stroke="black" points="253,-539.899 253,-569.899 348,-569.899 348,-539.899 253,-539.899"/>
<text text-anchor="start" x="261" y="-557.899" font-family="Helvetica,sans-Serif" font-size="10.00">mom_diag_mediator::</text>
<text text-anchor="middle" x="300.5" y="-546.899" font-family="Helvetica,sans-Serif" font-size="10.00">set_diag_remap_axes</text>
</a>
</g>
</g>
<!-- Node15&#45;&gt;Node29 -->
<g id="edge24" class="edge"><title>Node15&#45;&gt;Node29</title>
<path fill="none" stroke="midnightblue" d="M175.295,-378.329C185.476,-409.135 211.754,-479.219 253,-524.899 255.825,-528.028 259.047,-530.965 262.448,-533.685"/>
<polygon fill="midnightblue" stroke="midnightblue" points="260.459,-536.567 270.604,-539.624 264.58,-530.908 260.459,-536.567"/>
</g>
<!-- Node17&#45;&gt;Node14 -->
<g id="edge8" class="edge"><title>Node17&#45;&gt;Node14</title>
<path fill="none" stroke="midnightblue" d="M455.089,-402.9C475.708,-416.592 506.378,-436.959 529.326,-452.198"/>
<polygon fill="midnightblue" stroke="midnightblue" points="527.439,-455.146 537.706,-457.763 531.312,-449.315 527.439,-455.146"/>
</g>
<!-- Node18&#45;&gt;Node14 -->
<g id="edge10" class="edge"><title>Node18&#45;&gt;Node14</title>
<path fill="none" stroke="midnightblue" d="M476.192,-501.88C486.071,-498.484 496.67,-494.841 506.905,-491.323"/>
<polygon fill="midnightblue" stroke="midnightblue" points="508.251,-494.561 516.57,-488 505.975,-487.941 508.251,-494.561"/>
</g>
<!-- Node19&#45;&gt;Node17 -->
<g id="edge12" class="edge"><title>Node19&#45;&gt;Node17</title>
<path fill="none" stroke="midnightblue" d="M342.671,-355.9C354.424,-360.182 367.371,-364.899 379.63,-369.365"/>
<polygon fill="midnightblue" stroke="midnightblue" points="378.684,-372.745 389.278,-372.88 381.08,-366.168 378.684,-372.745"/>
</g>
<!-- Node20 -->
<g id="node10" class="node"><title>Node20</title>
<g id="a_node10"><a xlink:href="../../d9/d06/namespacemom__diag__mediator.html#a883862f004e30bbc5211f38635511ba0" target="_top" xlink:title="Initializes a diag_type (used after allocating new memory) ">
<polygon fill="white" stroke="black" points="384,-323.899 384,-353.899 479,-353.899 479,-323.899 384,-323.899"/>
<text text-anchor="start" x="392" y="-341.899" font-family="Helvetica,sans-Serif" font-size="10.00">mom_diag_mediator::</text>
<text text-anchor="middle" x="431.5" y="-330.899" font-family="Helvetica,sans-Serif" font-size="10.00">initialize_diag_type</text>
</a>
</g>
</g>
<!-- Node19&#45;&gt;Node20 -->
<g id="edge13" class="edge"><title>Node19&#45;&gt;Node20</title>
<path fill="none" stroke="midnightblue" d="M348.072,-340.177C356.475,-340.047 365.319,-339.91 373.969,-339.776"/>
<polygon fill="midnightblue" stroke="midnightblue" points="374.052,-343.275 383.996,-339.62 373.943,-336.276 374.052,-343.275"/>
</g>
<!-- Node26 -->
<g id="node16" class="node"><title>Node26</title>
<g id="a_node16"><a xlink:href="../../d9/d06/namespacemom__diag__mediator.html#ae002ca447acba252bf7bdc042e75a01e" target="_top" xlink:title="mom_diag_mediator::\ldescribe_option">
<polygon fill="white" stroke="black" points="384,-80.8992 384,-110.899 479,-110.899 479,-80.8992 384,-80.8992"/>
<text text-anchor="start" x="392" y="-98.8992" font-family="Helvetica,sans-Serif" font-size="10.00">mom_diag_mediator::</text>
<text text-anchor="middle" x="431.5" y="-87.8992" font-family="Helvetica,sans-Serif" font-size="10.00">describe_option</text>
</a>
</g>
</g>
<!-- Node25&#45;&gt;Node26 -->
<g id="edge20" class="edge"><title>Node25&#45;&gt;Node26</title>
<path fill="none" stroke="midnightblue" d="M348.072,-95.8992C356.475,-95.8992 365.319,-95.8992 373.969,-95.8992"/>
<polygon fill="midnightblue" stroke="midnightblue" points="373.996,-99.3993 383.996,-95.8992 373.996,-92.3993 373.996,-99.3993"/>
</g>
</g>
</svg>
