<?xml version="1.0" encoding="UTF-8" standalone="no"?>
<!DOCTYPE svg PUBLIC "-//W3C//DTD SVG 1.1//EN"
 "http://www.w3.org/Graphics/SVG/1.1/DTD/svg11.dtd">
<!-- Generated by graphviz version 2.38.0 (20140413.2041)
 -->
<!-- Title: mom_int_tide_input::find_n2_bottom Pages: 1 -->
<svg width="568pt" height="186pt"
 viewBox="0.00 0.00 568.00 186.00" xmlns="http://www.w3.org/2000/svg" xmlns:xlink="http://www.w3.org/1999/xlink">
<g id="graph0" class="graph" transform="scale(1 1) rotate(0) translate(4 182)">
<title>mom_int_tide_input::find_n2_bottom</title>
<polygon fill="white" stroke="none" points="-4,4 -4,-182 564,-182 564,4 -4,4"/>
<!-- Node0 -->
<g id="node1" class="node"><title>Node0</title>
<polygon fill="#bfbfbf" stroke="black" points="0,-73.5 0,-103.5 101,-103.5 101,-73.5 0,-73.5"/>
<text text-anchor="start" x="8" y="-91.5" font-family="Helvetica,sans-Serif" font-size="10.00">mom_int_tide_input</text>
<text text-anchor="middle" x="50.5" y="-80.5" font-family="Helvetica,sans-Serif" font-size="10.00">::find_n2_bottom</text>
</g>
<!-- Node1 -->
<g id="node2" class="node"><title>Node1</title>
<g id="a_node2"><a xlink:href="../../d1/d01/namespacemom__eos.html#a204529f8434a0322314e6ce2a9762436" target="_top" xlink:title="Calls the appropriate subroutine to calculate density derivatives for 1&#45;D array inputs. ">
<polygon fill="white" stroke="black" points="137,-73.5 137,-103.5 241,-103.5 241,-73.5 137,-73.5"/>
<text text-anchor="start" x="145" y="-91.5" font-family="Helvetica,sans-Serif" font-size="10.00">mom_eos::calculate</text>
<text text-anchor="middle" x="189" y="-80.5" font-family="Helvetica,sans-Serif" font-size="10.00">_density_derivs</text>
</a>
</g>
</g>
<!-- Node0&#45;&gt;Node1 -->
<g id="edge1" class="edge"><title>Node0&#45;&gt;Node1</title>
<path fill="none" stroke="midnightblue" d="M101.166,-88.5C109.403,-88.5 118.032,-88.5 126.519,-88.5"/>
<polygon fill="midnightblue" stroke="midnightblue" points="126.766,-92.0001 136.766,-88.5 126.766,-85.0001 126.766,-92.0001"/>
</g>
<!-- Node2 -->
<g id="node3" class="node"><title>Node2</title>
<g id="a_node3"><a xlink:href="../../d5/de6/namespacemom__eos__linear.html#a73d8a625582247379092adf1aeeb55e0" target="_top" xlink:title="mom_eos_linear::calculate\l_density_derivs_linear">
<polygon fill="white" stroke="black" points="281,-147.5 281,-177.5 414,-177.5 414,-147.5 281,-147.5"/>
<text text-anchor="start" x="289" y="-165.5" font-family="Helvetica,sans-Serif" font-size="10.00">mom_eos_linear::calculate</text>
<text text-anchor="middle" x="347.5" y="-154.5" font-family="Helvetica,sans-Serif" font-size="10.00">_density_derivs_linear</text>
</a>
</g>
</g>
<!-- Node1&#45;&gt;Node2 -->
<g id="edge2" class="edge"><title>Node1&#45;&gt;Node2</title>
<path fill="none" stroke="midnightblue" d="M213.361,-103.545C230.521,-114.191 254.643,-128.326 277,-138.5 281.03,-140.334 285.244,-142.112 289.518,-143.815"/>
<polygon fill="midnightblue" stroke="midnightblue" points="288.332,-147.108 298.923,-147.416 290.836,-140.571 288.332,-147.108"/>
</g>
<!-- Node3 -->
<g id="node4" class="node"><title>Node3</title>
<g id="a_node4"><a xlink:href="../../dd/d6b/namespacemom__eos__unesco.html#af8666837abadea54c016bf59838f96cc" target="_top" xlink:title="mom_eos_unesco::calculate\l_density_derivs_unesco">
<polygon fill="white" stroke="black" points="277,-98.5 277,-128.5 418,-128.5 418,-98.5 277,-98.5"/>
<text text-anchor="start" x="285" y="-116.5" font-family="Helvetica,sans-Serif" font-size="10.00">mom_eos_unesco::calculate</text>
<text text-anchor="middle" x="347.5" y="-105.5" font-family="Helvetica,sans-Serif" font-size="10.00">_density_derivs_unesco</text>
</a>
</g>
</g>
<!-- Node1&#45;&gt;Node3 -->
<g id="edge3" class="edge"><title>Node1&#45;&gt;Node3</title>
<path fill="none" stroke="midnightblue" d="M241.244,-96.6859C249.534,-98.0103 258.286,-99.4083 267.057,-100.809"/>
<polygon fill="midnightblue" stroke="midnightblue" points="266.518,-104.268 276.945,-102.389 267.623,-97.3553 266.518,-104.268"/>
</g>
<!-- Node4 -->
<g id="node5" class="node"><title>Node4</title>
<g id="a_node5"><a xlink:href="../../de/d76/namespacemom__eos__wright.html#ad7748e85ddacb33ad90ec3a9017e6e72" target="_top" xlink:title="mom_eos_wright::calculate\l_density_derivs_wright">
<polygon fill="white" stroke="black" points="279.5,-49.5 279.5,-79.5 415.5,-79.5 415.5,-49.5 279.5,-49.5"/>
<text text-anchor="start" x="287.5" y="-67.5" font-family="Helvetica,sans-Serif" font-size="10.00">mom_eos_wright::calculate</text>
<text text-anchor="middle" x="347.5" y="-56.5" font-family="Helvetica,sans-Serif" font-size="10.00">_density_derivs_wright</text>
</a>
</g>
</g>
<!-- Node1&#45;&gt;Node4 -->
<g id="edge4" class="edge"><title>Node1&#45;&gt;Node4</title>
<path fill="none" stroke="midnightblue" d="M241.244,-80.6415C250.308,-79.2515 259.923,-77.7769 269.513,-76.3063"/>
<polygon fill="midnightblue" stroke="midnightblue" points="270.12,-79.7543 279.474,-74.7788 269.059,-72.8351 270.12,-79.7543"/>
</g>
<!-- Node5 -->
<g id="node6" class="node"><title>Node5</title>
<g id="a_node6"><a xlink:href="../../d0/de6/namespacemom__error__handler.html#a460cfb79a06c29fc249952c2a3710d67" target="_top" xlink:title="mom_error_handler::\lmom_error">
<polygon fill="white" stroke="black" points="294.5,-0.5 294.5,-30.5 400.5,-30.5 400.5,-0.5 294.5,-0.5"/>
<text text-anchor="start" x="302.5" y="-18.5" font-family="Helvetica,sans-Serif" font-size="10.00">mom_error_handler::</text>
<text text-anchor="middle" x="347.5" y="-7.5" font-family="Helvetica,sans-Serif" font-size="10.00">mom_error</text>
</a>
</g>
</g>
<!-- Node1&#45;&gt;Node5 -->
<g id="edge5" class="edge"><title>Node1&#45;&gt;Node5</title>
<path fill="none" stroke="midnightblue" d="M214.961,-73.3401C232.065,-63.3008 255.467,-50.2387 277,-40.5 281.699,-38.3748 286.637,-36.3004 291.623,-34.3131"/>
<polygon fill="midnightblue" stroke="midnightblue" points="293.151,-37.4751 301.219,-30.6087 290.63,-30.9447 293.151,-37.4751"/>
</g>
<!-- Node6 -->
<g id="node7" class="node"><title>Node6</title>
<g id="a_node7"><a xlink:href="../../d0/de6/namespacemom__error__handler.html#ad5f00a53059c72fe2332d1436c80ca71" target="_top" xlink:title="mom_error_handler::\lis_root_pe">
<polygon fill="white" stroke="black" points="454,-0.5 454,-30.5 560,-30.5 560,-0.5 454,-0.5"/>
<text text-anchor="start" x="462" y="-18.5" font-family="Helvetica,sans-Serif" font-size="10.00">mom_error_handler::</text>
<text text-anchor="middle" x="507" y="-7.5" font-family="Helvetica,sans-Serif" font-size="10.00">is_root_pe</text>
</a>
</g>
</g>
<!-- Node5&#45;&gt;Node6 -->
<g id="edge6" class="edge"><title>Node5&#45;&gt;Node6</title>
<path fill="none" stroke="midnightblue" d="M400.508,-15.5C414.279,-15.5 429.289,-15.5 443.552,-15.5"/>
<polygon fill="midnightblue" stroke="midnightblue" points="443.778,-19.0001 453.778,-15.5 443.778,-12.0001 443.778,-19.0001"/>
</g>
</g>
</svg>
