<?xml version="1.0" encoding="UTF-8" standalone="no"?>
<!DOCTYPE svg PUBLIC "-//W3C//DTD SVG 1.1//EN"
 "http://www.w3.org/Graphics/SVG/1.1/DTD/svg11.dtd">
<!-- Generated by graphviz version 2.38.0 (20140413.2041)
 -->
<!-- Title: mom_geothermal::geothermal_init Pages: 1 -->
<!--zoomable 257 -->
<svg id="main" version="1.1" xmlns="http://www.w3.org/2000/svg" xmlns:xlink="http://www.w3.org/1999/xlink" xml:space="preserve" onload="init(evt)">
<style type="text/css"><![CDATA[
.edge:hover path { stroke: red; }
.edge:hover polygon { stroke: red; fill: red; }
]]></style>
<script type="text/javascript"><![CDATA[
var edges = document.getElementsByTagName('g');
if (edges && edges.length) {
  for (var i=0;i<edges.length;i++) {
    if (edges[i].id.substr(0,4)=='edge') {
      edges[i].setAttribute('class','edge');
    }
  }
}
]]></script>
        <defs>
                <circle id="rim" cx="0" cy="0" r="7"/>
                <circle id="rim2" cx="0" cy="0" r="3.5"/>
                <g id="zoomPlus">
                        <use xlink:href="#rim" fill="#404040">
                                <set attributeName="fill" to="#808080" begin="zoomplus.mouseover" end="zoomplus.mouseout"/>
                        </use>
                        <path d="M-4,0h8M0,-4v8" fill="none" stroke="white" stroke-width="1.5" pointer-events="none"/>
                </g>
                <g id="zoomMin">
                        <use xlink:href="#rim" fill="#404040">
                                <set attributeName="fill" to="#808080" begin="zoomminus.mouseover" end="zoomminus.mouseout"/>
                        </use>
                        <path d="M-4,0h8" fill="none" stroke="white" stroke-width="1.5" pointer-events="none"/>
                </g>
                <g id="dirArrow">
                        <path fill="none" stroke="white" stroke-width="1.5" d="M0,-3.0v7 M-2.5,-0.5L0,-3.0L2.5,-0.5"/>
                </g>
               <g id="resetDef">
                       <use xlink:href="#rim2" fill="#404040">
                               <set attributeName="fill" to="#808080" begin="reset.mouseover" end="reset.mouseout"/>
                       </use>
               </g>
        </defs>

<script type="text/javascript">
var viewWidth = 798;
var viewHeight = 257;
var sectionId = 'dynsection-2';
</script>
<script xlink:href="../../svgpan.js"/>
<svg id="graph" class="graph">
<g id="viewport">
<title>mom_geothermal::geothermal_init</title>
<polygon fill="white" stroke="none" points="-4,4 -4,-252.607 794,-252.607 794,4 -4,4"/>
<!-- Node7 -->
<g id="node1" class="node"><title>Node7</title>
<polygon fill="#bfbfbf" stroke="black" points="0,-217.763 0,-236.763 139,-236.763 139,-217.763 0,-217.763"/>
<text text-anchor="middle" x="69.5" y="-224.763" font-family="Helvetica,sans-Serif" font-size="10.00">mom_geothermal::geothermal_init</text>
</g>
<!-- Node8 -->
<g id="node2" class="node"><title>Node8</title>
<g id="a_node2"><a xlink:href="../../d9/def/namespacemom__file__parser.html#a17c0ef1bb1912f02faa0aaa1e0f64210" target="_top" xlink:title="mom_file_parser::log\l_version">
<polygon fill="white" stroke="black" points="568.5,-217.263 568.5,-247.263 660.5,-247.263 660.5,-217.263 568.5,-217.263"/>
<text text-anchor="start" x="576.5" y="-235.263" font-family="Helvetica,sans-Serif" font-size="10.00">mom_file_parser::log</text>
<text text-anchor="middle" x="614.5" y="-224.263" font-family="Helvetica,sans-Serif" font-size="10.00">_version</text>
</a>
</g>
</g>
<!-- Node7&#45;&gt;Node8 -->
<g id="edge1" class="edge"><title>Node7&#45;&gt;Node8</title>
<path fill="none" stroke="midnightblue" d="M131.146,-236.778C145.488,-238.642 160.754,-240.313 175,-241.263 333.315,-251.821 373.573,-249.984 532,-241.263 540.479,-240.796 549.433,-240.058 558.178,-239.201"/>
<polygon fill="midnightblue" stroke="midnightblue" points="558.724,-242.663 568.309,-238.149 558.001,-235.701 558.724,-242.663"/>
</g>
<!-- Node10 -->
<g id="node4" class="node"><title>Node10</title>
<g id="a_node4"><a xlink:href="../../d0/de6/namespacemom__error__handler.html#a460cfb79a06c29fc249952c2a3710d67" target="_top" xlink:title="mom_error_handler::\lmom_error">
<polygon fill="white" stroke="black" points="568,-103.263 568,-133.263 661,-133.263 661,-103.263 568,-103.263"/>
<text text-anchor="start" x="576" y="-121.263" font-family="Helvetica,sans-Serif" font-size="10.00">mom_error_handler::</text>
<text text-anchor="middle" x="614.5" y="-110.263" font-family="Helvetica,sans-Serif" font-size="10.00">mom_error</text>
</a>
</g>
</g>
<!-- Node7&#45;&gt;Node10 -->
<g id="edge3" class="edge"><title>Node7&#45;&gt;Node10</title>
<path fill="none" stroke="midnightblue" d="M139.088,-230.629C250.265,-235.038 464.223,-238.868 532,-207.263 561.74,-193.395 585.596,-163.182 599.636,-141.815"/>
<polygon fill="midnightblue" stroke="midnightblue" points="602.652,-143.595 605.041,-133.273 596.736,-139.852 602.652,-143.595"/>
</g>
<!-- Node11 -->
<g id="node5" class="node"><title>Node11</title>
<g id="a_node5"><a xlink:href="../../d9/d06/namespacemom__diag__mediator.html#abe591ed2565e9f026c5be055bc2fc0b7" target="_top" xlink:title="Registers a static diagnostic, returning an integer handle. ">
<polygon fill="white" stroke="black" points="175,-97.2631 175,-127.263 270,-127.263 270,-97.2631 175,-97.2631"/>
<text text-anchor="start" x="183" y="-115.263" font-family="Helvetica,sans-Serif" font-size="10.00">mom_diag_mediator::</text>
<text text-anchor="middle" x="222.5" y="-104.263" font-family="Helvetica,sans-Serif" font-size="10.00">register_static_field</text>
</a>
</g>
</g>
<!-- Node7&#45;&gt;Node11 -->
<g id="edge5" class="edge"><title>Node7&#45;&gt;Node11</title>
<path fill="none" stroke="midnightblue" d="M83.1145,-217.656C107.254,-199.271 160.509,-158.714 193.465,-133.615"/>
<polygon fill="midnightblue" stroke="midnightblue" points="195.943,-136.126 201.778,-127.283 191.702,-130.558 195.943,-136.126"/>
</g>
<!-- Node9 -->
<g id="node3" class="node"><title>Node9</title>
<g id="a_node3"><a xlink:href="../../d0/de6/namespacemom__error__handler.html#ad5f00a53059c72fe2332d1436c80ca71" target="_top" xlink:title="mom_error_handler::\lis_root_pe">
<polygon fill="white" stroke="black" points="697,-103.263 697,-133.263 790,-133.263 790,-103.263 697,-103.263"/>
<text text-anchor="start" x="705" y="-121.263" font-family="Helvetica,sans-Serif" font-size="10.00">mom_error_handler::</text>
<text text-anchor="middle" x="743.5" y="-110.263" font-family="Helvetica,sans-Serif" font-size="10.00">is_root_pe</text>
</a>
</g>
</g>
<!-- Node8&#45;&gt;Node9 -->
<g id="edge2" class="edge"><title>Node8&#45;&gt;Node9</title>
<path fill="none" stroke="midnightblue" d="M632.365,-217.125C654.283,-197.45 692.723,-162.945 717.896,-140.348"/>
<polygon fill="midnightblue" stroke="midnightblue" points="720.462,-142.749 725.566,-133.464 715.786,-137.539 720.462,-142.749"/>
</g>
<!-- Node10&#45;&gt;Node9 -->
<g id="edge4" class="edge"><title>Node10&#45;&gt;Node9</title>
<path fill="none" stroke="midnightblue" d="M661.35,-118.263C669.533,-118.263 678.141,-118.263 686.568,-118.263"/>
<polygon fill="midnightblue" stroke="midnightblue" points="686.717,-121.763 696.717,-118.263 686.717,-114.763 686.717,-121.763"/>
</g>
<!-- Node11&#45;&gt;Node9 -->
<g id="edge12" class="edge"><title>Node11&#45;&gt;Node9</title>
<path fill="none" stroke="midnightblue" d="M231.718,-97.0765C244.377,-75.4865 270.908,-36.8157 306,-21.2631 448.248,41.7795 635.317,-53.3503 709.832,-97.6224"/>
<polygon fill="midnightblue" stroke="midnightblue" points="708.392,-100.841 718.763,-103.008 712.006,-94.8465 708.392,-100.841"/>
</g>
<!-- Node12 -->
<g id="node6" class="node"><title>Node12</title>
<g id="a_node6"><a xlink:href="../../d9/d06/namespacemom__diag__mediator.html#a1b0bed2113a0c268eafd1bafbb48bd4f" target="_top" xlink:title="mom_diag_mediator::\lalloc_diag_with_id">
<polygon fill="white" stroke="black" points="306,-31.2631 306,-61.2631 401,-61.2631 401,-31.2631 306,-31.2631"/>
<text text-anchor="start" x="314" y="-49.2631" font-family="Helvetica,sans-Serif" font-size="10.00">mom_diag_mediator::</text>
<text text-anchor="middle" x="353.5" y="-38.2631" font-family="Helvetica,sans-Serif" font-size="10.00">alloc_diag_with_id</text>
</a>
</g>
</g>
<!-- Node11&#45;&gt;Node12 -->
<g id="edge6" class="edge"><title>Node11&#45;&gt;Node12</title>
<path fill="none" stroke="midnightblue" d="M253.095,-97.1214C271.204,-87.8565 294.565,-75.904 314.091,-65.9144"/>
<polygon fill="midnightblue" stroke="midnightblue" points="315.734,-69.0051 323.043,-61.3344 312.546,-62.7733 315.734,-69.0051"/>
</g>
<!-- Node13 -->
<g id="node7" class="node"><title>Node13</title>
<g id="a_node7"><a xlink:href="../../d9/d06/namespacemom__diag__mediator.html#a6e11afe7a97bf8e3333d33b0aebd6f6e" target="_top" xlink:title="mom_diag_mediator::\lassert">
<polygon fill="white" stroke="black" points="437,-70.2631 437,-100.263 532,-100.263 532,-70.2631 437,-70.2631"/>
<text text-anchor="start" x="445" y="-88.2631" font-family="Helvetica,sans-Serif" font-size="10.00">mom_diag_mediator::</text>
<text text-anchor="middle" x="484.5" y="-77.2631" font-family="Helvetica,sans-Serif" font-size="10.00">assert</text>
</a>
</g>
</g>
<!-- Node11&#45;&gt;Node13 -->
<g id="edge7" class="edge"><title>Node11&#45;&gt;Node13</title>
<path fill="none" stroke="midnightblue" d="M270.283,-107.405C314.142,-102.85 379.802,-96.0317 426.66,-91.1658"/>
<polygon fill="midnightblue" stroke="midnightblue" points="427.07,-94.6421 436.655,-90.1278 426.347,-87.6795 427.07,-94.6421"/>
</g>
<!-- Node14 -->
<g id="node8" class="node"><title>Node14</title>
<g id="a_node8"><a xlink:href="../../d9/d06/namespacemom__diag__mediator.html#a3f7442639213320f7429e2288a79fda2" target="_top" xlink:title="Returns a new diagnostic id, it may be necessary to expand the diagnostics array. ...">
<polygon fill="white" stroke="black" points="306,-119.263 306,-149.263 401,-149.263 401,-119.263 306,-119.263"/>
<text text-anchor="start" x="314" y="-137.263" font-family="Helvetica,sans-Serif" font-size="10.00">mom_diag_mediator::</text>
<text text-anchor="middle" x="353.5" y="-126.263" font-family="Helvetica,sans-Serif" font-size="10.00">get_new_diag_id</text>
</a>
</g>
</g>
<!-- Node11&#45;&gt;Node14 -->
<g id="edge9" class="edge"><title>Node11&#45;&gt;Node14</title>
<path fill="none" stroke="midnightblue" d="M270.072,-120.206C278.475,-121.639 287.319,-123.147 295.969,-124.622"/>
<polygon fill="midnightblue" stroke="midnightblue" points="295.55,-128.101 305.996,-126.332 296.727,-121.201 295.55,-128.101"/>
</g>
<!-- Node16 -->
<g id="node10" class="node"><title>Node16</title>
<g id="a_node10"><a xlink:href="../../d9/d06/namespacemom__diag__mediator.html#a65fe8d329cf5dbfd08c98874a7a64407" target="_top" xlink:title="Log a diagnostic to the available diagnostics file. ">
<polygon fill="white" stroke="black" points="306,-168.263 306,-198.263 401,-198.263 401,-168.263 306,-168.263"/>
<text text-anchor="start" x="314" y="-186.263" font-family="Helvetica,sans-Serif" font-size="10.00">mom_diag_mediator::</text>
<text text-anchor="middle" x="353.5" y="-175.263" font-family="Helvetica,sans-Serif" font-size="10.00">log_available_diag</text>
</a>
</g>
</g>
<!-- Node11&#45;&gt;Node16 -->
<g id="edge13" class="edge"><title>Node11&#45;&gt;Node16</title>
<path fill="none" stroke="midnightblue" d="M250.194,-127.283C266.319,-136.322 287.301,-148.024 306,-158.263 309.068,-159.943 312.254,-161.677 315.455,-163.413"/>
<polygon fill="midnightblue" stroke="midnightblue" points="313.969,-166.588 324.431,-168.262 317.296,-160.429 313.969,-166.588"/>
</g>
<!-- Node13&#45;&gt;Node10 -->
<g id="edge8" class="edge"><title>Node13&#45;&gt;Node10</title>
<path fill="none" stroke="midnightblue" d="M532.073,-97.2702C540.396,-99.416 549.145,-101.672 557.695,-103.876"/>
<polygon fill="midnightblue" stroke="midnightblue" points="557.047,-107.323 567.604,-106.431 558.794,-100.545 557.047,-107.323"/>
</g>
<!-- Node14&#45;&gt;Node13 -->
<g id="edge10" class="edge"><title>Node14&#45;&gt;Node13</title>
<path fill="none" stroke="midnightblue" d="M394.257,-119.162C406.886,-114.365 421.007,-109.001 434.223,-103.981"/>
<polygon fill="midnightblue" stroke="midnightblue" points="435.547,-107.222 443.652,-100.399 433.061,-100.678 435.547,-107.222"/>
</g>
<!-- Node15 -->
<g id="node9" class="node"><title>Node15</title>
<g id="a_node9"><a xlink:href="../../d9/d06/namespacemom__diag__mediator.html#a883862f004e30bbc5211f38635511ba0" target="_top" xlink:title="Initializes a diag_type (used after allocating new memory) ">
<polygon fill="white" stroke="black" points="437,-119.263 437,-149.263 532,-149.263 532,-119.263 437,-119.263"/>
<text text-anchor="start" x="445" y="-137.263" font-family="Helvetica,sans-Serif" font-size="10.00">mom_diag_mediator::</text>
<text text-anchor="middle" x="484.5" y="-126.263" font-family="Helvetica,sans-Serif" font-size="10.00">initialize_diag_type</text>
</a>
</g>
</g>
<!-- Node14&#45;&gt;Node15 -->
<g id="edge11" class="edge"><title>Node14&#45;&gt;Node15</title>
<path fill="none" stroke="midnightblue" d="M401.072,-134.263C409.475,-134.263 418.319,-134.263 426.969,-134.263"/>
<polygon fill="midnightblue" stroke="midnightblue" points="426.996,-137.763 436.996,-134.263 426.996,-130.763 426.996,-137.763"/>
</g>
<!-- Node17 -->
<g id="node11" class="node"><title>Node17</title>
<g id="a_node11"><a xlink:href="../../d9/d06/namespacemom__diag__mediator.html#ae002ca447acba252bf7bdc042e75a01e" target="_top" xlink:title="mom_diag_mediator::\ldescribe_option">
<polygon fill="white" stroke="black" points="437,-168.263 437,-198.263 532,-198.263 532,-168.263 437,-168.263"/>
<text text-anchor="start" x="445" y="-186.263" font-family="Helvetica,sans-Serif" font-size="10.00">mom_diag_mediator::</text>
<text text-anchor="middle" x="484.5" y="-175.263" font-family="Helvetica,sans-Serif" font-size="10.00">describe_option</text>
</a>
</g>
</g>
<!-- Node16&#45;&gt;Node17 -->
<g id="edge14" class="edge"><title>Node16&#45;&gt;Node17</title>
<path fill="none" stroke="midnightblue" d="M401.072,-183.263C409.475,-183.263 418.319,-183.263 426.969,-183.263"/>
<polygon fill="midnightblue" stroke="midnightblue" points="426.996,-186.763 436.996,-183.263 426.996,-179.763 426.996,-186.763"/>
</g>
</g>
</svg>
        <g id="navigator" transform="translate(0 0)" fill="#404254">
                <rect fill="#f2f5e9" fill-opacity="0.5" stroke="#606060" stroke-width=".5" x="0" y="0" width="60" height="60"/>
                <use id="zoomplus" xlink:href="#zoomPlus" x="17" y="9" onmousedown="handleZoom(evt,'in')"/>
                <use id="zoomminus" xlink:href="#zoomMin" x="42" y="9" onmousedown="handleZoom(evt,'out')"/>
                <use id="reset" xlink:href="#resetDef" x="30" y="36" onmousedown="handleReset()"/>
                <g id="arrowUp" xlink:href="#dirArrow" transform="translate(30 24)" onmousedown="handlePan(0,-1)">
                  <use xlink:href="#rim" fill="#404040">
                        <set attributeName="fill" to="#808080" begin="arrowUp.mouseover" end="arrowUp.mouseout"/>
                  </use>
                  <path fill="none" stroke="white" stroke-width="1.5" d="M0,-3.0v7 M-2.5,-0.5L0,-3.0L2.5,-0.5"/>
                </g>
                <g id="arrowRight" xlink:href="#dirArrow" transform="rotate(90) translate(36 -43)" onmousedown="handlePan(1,0)">
                  <use xlink:href="#rim" fill="#404040">
                        <set attributeName="fill" to="#808080" begin="arrowRight.mouseover" end="arrowRight.mouseout"/>
                  </use>
                  <path fill="none" stroke="white" stroke-width="1.5" d="M0,-3.0v7 M-2.5,-0.5L0,-3.0L2.5,-0.5"/>
                </g>
                <g id="arrowDown" xlink:href="#dirArrow" transform="rotate(180) translate(-30 -48)" onmousedown="handlePan(0,1)">
                  <use xlink:href="#rim" fill="#404040">
                        <set attributeName="fill" to="#808080" begin="arrowDown.mouseover" end="arrowDown.mouseout"/>
                  </use>
                  <path fill="none" stroke="white" stroke-width="1.5" d="M0,-3.0v7 M-2.5,-0.5L0,-3.0L2.5,-0.5"/>
                </g>
                <g id="arrowLeft" xlink:href="#dirArrow" transform="rotate(270) translate(-36 17)" onmousedown="handlePan(-1,0)">
                  <use xlink:href="#rim" fill="#404040">
                        <set attributeName="fill" to="#808080" begin="arrowLeft.mouseover" end="arrowLeft.mouseout"/>
                  </use>
                  <path fill="none" stroke="white" stroke-width="1.5" d="M0,-3.0v7 M-2.5,-0.5L0,-3.0L2.5,-0.5"/>
                </g>
        </g>
        <svg viewBox="0 0 15 15" width="100%" height="30px" preserveAspectRatio="xMaxYMin meet">
         <g id="arrow_out" transform="scale(0.3 0.3)">
          <a xlink:href="namespacemom__geothermal_a0abbb7953860e3357bbd3d35f46fd851_cgraph_org.svg" target="_base">
           <rect id="button" ry="5" rx="5" y="6" x="6" height="38" width="38"
                fill="#f2f5e9" fill-opacity="0.5" stroke="#606060" stroke-width="1.0"/>
           <path id="arrow"
             d="M 11.500037,31.436501 C 11.940474,20.09759 22.043105,11.32322 32.158766,21.979434 L 37.068811,17.246167 C 37.068811,17.246167 37.088388,32 37.088388,32 L 22.160133,31.978069 C 22.160133,31.978069 26.997745,27.140456 26.997745,27.140456 C 18.528582,18.264221 13.291696,25.230495 11.500037,31.436501 z"
             style="fill:#404040;"/>
          </a>
         </g>
        </svg>
</svg>
