<?xml version="1.0" encoding="UTF-8" standalone="no"?>
<!DOCTYPE svg PUBLIC "-//W3C//DTD SVG 1.1//EN"
 "http://www.w3.org/Graphics/SVG/1.1/DTD/svg11.dtd">
<!-- Generated by graphviz version 2.38.0 (20140413.2041)
 -->
<!-- Title: pqm_functions::pqm_reconstruction Pages: 1 -->
<!--zoomable 230 -->
<svg id="main" version="1.1" xmlns="http://www.w3.org/2000/svg" xmlns:xlink="http://www.w3.org/1999/xlink" xml:space="preserve" onload="init(evt)">
<style type="text/css"><![CDATA[
.edge:hover path { stroke: red; }
.edge:hover polygon { stroke: red; fill: red; }
]]></style>
<script type="text/javascript"><![CDATA[
var edges = document.getElementsByTagName('g');
if (edges && edges.length) {
  for (var i=0;i<edges.length;i++) {
    if (edges[i].id.substr(0,4)=='edge') {
      edges[i].setAttribute('class','edge');
    }
  }
}
]]></script>
        <defs>
                <circle id="rim" cx="0" cy="0" r="7"/>
                <circle id="rim2" cx="0" cy="0" r="3.5"/>
                <g id="zoomPlus">
                        <use xlink:href="#rim" fill="#404040">
                                <set attributeName="fill" to="#808080" begin="zoomplus.mouseover" end="zoomplus.mouseout"/>
                        </use>
                        <path d="M-4,0h8M0,-4v8" fill="none" stroke="white" stroke-width="1.5" pointer-events="none"/>
                </g>
                <g id="zoomMin">
                        <use xlink:href="#rim" fill="#404040">
                                <set attributeName="fill" to="#808080" begin="zoomminus.mouseover" end="zoomminus.mouseout"/>
                        </use>
                        <path d="M-4,0h8" fill="none" stroke="white" stroke-width="1.5" pointer-events="none"/>
                </g>
                <g id="dirArrow">
                        <path fill="none" stroke="white" stroke-width="1.5" d="M0,-3.0v7 M-2.5,-0.5L0,-3.0L2.5,-0.5"/>
                </g>
               <g id="resetDef">
                       <use xlink:href="#rim2" fill="#404040">
                               <set attributeName="fill" to="#808080" begin="reset.mouseover" end="reset.mouseout"/>
                       </use>
               </g>
        </defs>

<script type="text/javascript">
var viewWidth = 1034;
var viewHeight = 230;
var sectionId = 'dynsection-4';
</script>
<script xlink:href="../../svgpan.js"/>
<svg id="graph" class="graph">
<g id="viewport">
<title>pqm_functions::pqm_reconstruction</title>
<polygon fill="white" stroke="none" points="-4,4 -4,-226 1030,-226 1030,4 -4,4"/>
<!-- Node43 -->
<g id="node1" class="node"><title>Node43</title>
<polygon fill="#bfbfbf" stroke="black" points="0,-48.5 0,-78.5 89,-78.5 89,-48.5 0,-48.5"/>
<text text-anchor="start" x="8" y="-66.5" font-family="Helvetica,sans-Serif" font-size="10.00">pqm_functions::pqm</text>
<text text-anchor="middle" x="44.5" y="-55.5" font-family="Helvetica,sans-Serif" font-size="10.00">_reconstruction</text>
</g>
<!-- Node44 -->
<g id="node2" class="node"><title>Node44</title>
<g id="a_node2"><a xlink:href="../../d6/d75/namespacemom__remapping.html#a07d7276310f329f56560a1290bcb8b0a" target="_top" xlink:title="Creates polynomial reconstructions of u0 on the source grid h0. ">
<polygon fill="white" stroke="black" points="125,-48.5 125,-78.5 223,-78.5 223,-48.5 125,-48.5"/>
<text text-anchor="start" x="133" y="-66.5" font-family="Helvetica,sans-Serif" font-size="10.00">mom_remapping::build</text>
<text text-anchor="middle" x="174" y="-55.5" font-family="Helvetica,sans-Serif" font-size="10.00">_reconstructions_1d</text>
</a>
</g>
</g>
<!-- Node43&#45;&gt;Node44 -->
<g id="edge1" class="edge"><title>Node43&#45;&gt;Node44</title>
<path fill="none" stroke="midnightblue" d="M99.2364,-63.5C107.744,-63.5 116.496,-63.5 124.866,-63.5"/>
<polygon fill="midnightblue" stroke="midnightblue" points="99.0217,-60.0001 89.0217,-63.5 99.0216,-67.0001 99.0217,-60.0001"/>
</g>
<!-- Node45 -->
<g id="node3" class="node"><title>Node45</title>
<g id="a_node3"><a xlink:href="../../d6/d75/namespacemom__remapping.html#a6d1533ffa647f3305aba055e2685b095" target="_top" xlink:title="Remaps column of values u0 on grid h0 to grid h1 assuming the top edge is aligned. ">
<polygon fill="white" stroke="black" points="259,-85.5 259,-115.5 379,-115.5 379,-85.5 259,-85.5"/>
<text text-anchor="start" x="267" y="-103.5" font-family="Helvetica,sans-Serif" font-size="10.00">mom_remapping::remapping</text>
<text text-anchor="middle" x="319" y="-92.5" font-family="Helvetica,sans-Serif" font-size="10.00">_core_h</text>
</a>
</g>
</g>
<!-- Node44&#45;&gt;Node45 -->
<g id="edge2" class="edge"><title>Node44&#45;&gt;Node45</title>
<path fill="none" stroke="midnightblue" d="M232.918,-78.4859C241.828,-80.7911 251.029,-83.1718 259.941,-85.4778"/>
<polygon fill="midnightblue" stroke="midnightblue" points="233.573,-75.04 223.015,-75.9234 231.819,-81.8168 233.573,-75.04"/>
</g>
<!-- Node56 -->
<g id="node14" class="node"><title>Node56</title>
<g id="a_node14"><a xlink:href="../../d6/d75/namespacemom__remapping.html#a8b967872b8db2ac7d538991f7f255e56" target="_top" xlink:title="Remaps column of values u0 on grid h0 to implied grid h1 where the interfaces of h1 differ from those...">
<polygon fill="white" stroke="black" points="259,-12.5 259,-42.5 379,-42.5 379,-12.5 259,-12.5"/>
<text text-anchor="start" x="267" y="-30.5" font-family="Helvetica,sans-Serif" font-size="10.00">mom_remapping::remapping</text>
<text text-anchor="middle" x="319" y="-19.5" font-family="Helvetica,sans-Serif" font-size="10.00">_core_w</text>
</a>
</g>
</g>
<!-- Node44&#45;&gt;Node56 -->
<g id="edge13" class="edge"><title>Node44&#45;&gt;Node56</title>
<path fill="none" stroke="midnightblue" d="M232.922,-48.9181C241.494,-46.7602 250.337,-44.5341 258.932,-42.3703"/>
<polygon fill="midnightblue" stroke="midnightblue" points="231.858,-45.5769 223.015,-51.4124 233.567,-52.3651 231.858,-45.5769"/>
</g>
<!-- Node46 -->
<g id="node4" class="node"><title>Node46</title>
<g id="a_node4"><a xlink:href="../../de/dd7/namespacemom__ale__sponge.html#a8f6e6db99f860b048a58e97e58c101a6" target="_top" xlink:title="This subroutine applies damping to the layers thicknesses, temp, salt and a variety of tracers for ev...">
<polygon fill="white" stroke="black" points="423,-169.5 423,-199.5 527,-199.5 527,-169.5 423,-169.5"/>
<text text-anchor="start" x="431" y="-187.5" font-family="Helvetica,sans-Serif" font-size="10.00">mom_ale_sponge::apply</text>
<text text-anchor="middle" x="475" y="-176.5" font-family="Helvetica,sans-Serif" font-size="10.00">_ale_sponge</text>
</a>
</g>
</g>
<!-- Node45&#45;&gt;Node46 -->
<g id="edge3" class="edge"><title>Node45&#45;&gt;Node46</title>
<path fill="none" stroke="midnightblue" d="M356.481,-120.399C384.059,-135.441 421.334,-155.773 446.447,-169.471"/>
<polygon fill="midnightblue" stroke="midnightblue" points="357.987,-117.233 347.532,-115.518 354.635,-123.379 357.987,-117.233"/>
</g>
<!-- Node48 -->
<g id="node6" class="node"><title>Node48</title>
<g id="a_node6"><a xlink:href="../../d6/d62/namespacemom__state__initialization.html#a71ee3c056ca59c1c3529a4ec22e09fe3" target="_top" xlink:title="Adjust the layer thicknesses by cutting away the top at the depth where the hydrostatic pressure matc...">
<polygon fill="white" stroke="black" points="424.5,-98.5 424.5,-128.5 525.5,-128.5 525.5,-98.5 424.5,-98.5"/>
<text text-anchor="start" x="432.5" y="-116.5" font-family="Helvetica,sans-Serif" font-size="10.00">mom_state_initialization</text>
<text text-anchor="middle" x="475" y="-105.5" font-family="Helvetica,sans-Serif" font-size="10.00">::cut_off_column_top</text>
</a>
</g>
</g>
<!-- Node45&#45;&gt;Node48 -->
<g id="edge5" class="edge"><title>Node45&#45;&gt;Node48</title>
<path fill="none" stroke="midnightblue" d="M389.365,-106.355C401.149,-107.35 413.173,-108.365 424.32,-109.306"/>
<polygon fill="midnightblue" stroke="midnightblue" points="389.359,-102.843 379.1,-105.489 388.77,-109.818 389.359,-102.843"/>
</g>
<!-- Node54 -->
<g id="node12" class="node"><title>Node54</title>
<g id="a_node12"><a xlink:href="../../d9/d06/namespacemom__diag__mediator.html#ab5e628e0b8acd96234fab33d0fae2161" target="_top" xlink:title="Remap diagnostic field to z&#45;star vertical grid. ">
<polygon fill="white" stroke="black" points="427.5,-49.5 427.5,-79.5 522.5,-79.5 522.5,-49.5 427.5,-49.5"/>
<text text-anchor="start" x="435.5" y="-67.5" font-family="Helvetica,sans-Serif" font-size="10.00">mom_diag_mediator::</text>
<text text-anchor="middle" x="475" y="-56.5" font-family="Helvetica,sans-Serif" font-size="10.00">remap_diag_to_z</text>
</a>
</g>
</g>
<!-- Node45&#45;&gt;Node54 -->
<g id="edge11" class="edge"><title>Node45&#45;&gt;Node54</title>
<path fill="none" stroke="midnightblue" d="M388.927,-84.3872C401.888,-81.3572 415.159,-78.2551 427.246,-75.4295"/>
<polygon fill="midnightblue" stroke="midnightblue" points="388.041,-80.9999 379.1,-86.6844 389.634,-87.8162 388.041,-80.9999"/>
</g>
<!-- Node47 -->
<g id="node5" class="node"><title>Node47</title>
<g id="a_node5"><a xlink:href="../../d8/df3/namespacemom__diabatic__driver.html#a61e57d3902367aa46aa3c2d949ee900f" target="_top" xlink:title="This subroutine imposes the diapycnal mass fluxes and the accompanying diapycnal advection of momentu...">
<polygon fill="white" stroke="black" points="576,-191.5 576,-221.5 667,-221.5 667,-191.5 576,-191.5"/>
<text text-anchor="start" x="584" y="-209.5" font-family="Helvetica,sans-Serif" font-size="10.00">mom_diabatic_driver</text>
<text text-anchor="middle" x="621.5" y="-198.5" font-family="Helvetica,sans-Serif" font-size="10.00">::diabatic</text>
</a>
</g>
</g>
<!-- Node46&#45;&gt;Node47 -->
<g id="edge4" class="edge"><title>Node46&#45;&gt;Node47</title>
<path fill="none" stroke="midnightblue" d="M537.473,-193.859C550.254,-195.805 563.496,-197.821 575.55,-199.656"/>
<polygon fill="midnightblue" stroke="midnightblue" points="537.765,-190.363 527.352,-192.318 536.711,-197.284 537.765,-190.363"/>
</g>
<!-- Node49 -->
<g id="node7" class="node"><title>Node49</title>
<g id="a_node7"><a xlink:href="../../d6/d62/namespacemom__state__initialization.html#a5c77bf2b0ea9d28e28b661a2a42d3f88" target="_top" xlink:title="Run simple unit tests. ">
<polygon fill="white" stroke="black" points="571,-142.5 571,-172.5 672,-172.5 672,-142.5 571,-142.5"/>
<text text-anchor="start" x="579" y="-160.5" font-family="Helvetica,sans-Serif" font-size="10.00">mom_state_initialization</text>
<text text-anchor="middle" x="621.5" y="-149.5" font-family="Helvetica,sans-Serif" font-size="10.00">::mom_state_init_tests</text>
</a>
</g>
</g>
<!-- Node48&#45;&gt;Node49 -->
<g id="edge6" class="edge"><title>Node48&#45;&gt;Node49</title>
<path fill="none" stroke="midnightblue" d="M535.156,-131.513C547.032,-135.129 559.396,-138.894 570.907,-142.399"/>
<polygon fill="midnightblue" stroke="midnightblue" points="535.91,-128.084 525.325,-128.519 533.871,-134.78 535.91,-128.084"/>
</g>
<!-- Node50 -->
<g id="node8" class="node"><title>Node50</title>
<g id="a_node8"><a xlink:href="../../d6/d62/namespacemom__state__initialization.html#acc1029776c1bdda2862ed0f95c8dc640" target="_top" xlink:title="Adjust the layer thicknesses by cutting away the top of each model column at the depth where the hydr...">
<polygon fill="white" stroke="black" points="571,-93.5 571,-123.5 672,-123.5 672,-93.5 571,-93.5"/>
<text text-anchor="start" x="579" y="-111.5" font-family="Helvetica,sans-Serif" font-size="10.00">mom_state_initialization</text>
<text text-anchor="middle" x="621.5" y="-100.5" font-family="Helvetica,sans-Serif" font-size="10.00">::trim_for_ice</text>
</a>
</g>
</g>
<!-- Node48&#45;&gt;Node50 -->
<g id="edge7" class="edge"><title>Node48&#45;&gt;Node50</title>
<path fill="none" stroke="midnightblue" d="M535.782,-111.431C547.388,-111.03 559.436,-110.613 570.68,-110.224"/>
<polygon fill="midnightblue" stroke="midnightblue" points="535.602,-107.935 525.729,-111.779 535.844,-114.931 535.602,-107.935"/>
</g>
<!-- Node51 -->
<g id="node9" class="node"><title>Node51</title>
<g id="a_node9"><a xlink:href="../../d6/d62/namespacemom__state__initialization.html#af4e854627c6572332ba3fd895f169321" target="_top" xlink:title="mom_state_initialization\l::mom_initialize_state">
<polygon fill="white" stroke="black" points="708,-80.5 708,-110.5 809,-110.5 809,-80.5 708,-80.5"/>
<text text-anchor="start" x="716" y="-98.5" font-family="Helvetica,sans-Serif" font-size="10.00">mom_state_initialization</text>
<text text-anchor="middle" x="758.5" y="-87.5" font-family="Helvetica,sans-Serif" font-size="10.00">::mom_initialize_state</text>
</a>
</g>
</g>
<!-- Node50&#45;&gt;Node51 -->
<g id="edge8" class="edge"><title>Node50&#45;&gt;Node51</title>
<path fill="none" stroke="midnightblue" d="M682.207,-102.75C690.67,-101.935 699.299,-101.105 707.552,-100.31"/>
<polygon fill="midnightblue" stroke="midnightblue" points="681.621,-99.2906 672.002,-103.733 682.292,-106.258 681.621,-99.2906"/>
</g>
<!-- Node52 -->
<g id="node10" class="node"><title>Node52</title>
<g id="a_node10"><a xlink:href="../../da/d01/namespacemom.html#afebdc0103ad9cbe0ed4a54e522dc4104" target="_top" xlink:title="This subroutine initializes MOM. ">
<polygon fill="white" stroke="black" points="845,-58 845,-77 934,-77 934,-58 845,-58"/>
<text text-anchor="middle" x="889.5" y="-65" font-family="Helvetica,sans-Serif" font-size="10.00">mom::initialize_mom</text>
</a>
</g>
</g>
<!-- Node51&#45;&gt;Node52 -->
<g id="edge9" class="edge"><title>Node51&#45;&gt;Node52</title>
<path fill="none" stroke="midnightblue" d="M818.805,-82.6275C827.564,-80.7264 836.451,-78.7974 844.815,-76.982"/>
<polygon fill="midnightblue" stroke="midnightblue" points="818.036,-79.213 809.006,-84.7545 819.521,-86.0537 818.036,-79.213"/>
</g>
<!-- Node53 -->
<g id="node11" class="node"><title>Node53</title>
<g id="a_node11"><a xlink:href="../../de/dbc/MOM__driver_8F90.html#a08fffeb2d8e8acbf9ed4609be6d258c6" target="_top" xlink:title="mom_main">
<polygon fill="white" stroke="black" points="970,-58 970,-77 1026,-77 1026,-58 970,-58"/>
<text text-anchor="middle" x="998" y="-65" font-family="Helvetica,sans-Serif" font-size="10.00">mom_main</text>
</a>
</g>
</g>
<!-- Node52&#45;&gt;Node53 -->
<g id="edge10" class="edge"><title>Node52&#45;&gt;Node53</title>
<path fill="none" stroke="midnightblue" d="M944.407,-67.5C953.206,-67.5 961.981,-67.5 969.771,-67.5"/>
<polygon fill="midnightblue" stroke="midnightblue" points="944.125,-64.0001 934.125,-67.5 944.125,-71.0001 944.125,-64.0001"/>
</g>
<!-- Node55 -->
<g id="node13" class="node"><title>Node55</title>
<g id="a_node13"><a xlink:href="../../d9/d06/namespacemom__diag__mediator.html#adb1030a0216c52dd0d25bd67a5b31868" target="_top" xlink:title="mom_diag_mediator::\lpost_data_3d">
<polygon fill="white" stroke="black" points="574,-44.5 574,-74.5 669,-74.5 669,-44.5 574,-44.5"/>
<text text-anchor="start" x="582" y="-62.5" font-family="Helvetica,sans-Serif" font-size="10.00">mom_diag_mediator::</text>
<text text-anchor="middle" x="621.5" y="-51.5" font-family="Helvetica,sans-Serif" font-size="10.00">post_data_3d</text>
</a>
</g>
</g>
<!-- Node54&#45;&gt;Node55 -->
<g id="edge12" class="edge"><title>Node54&#45;&gt;Node55</title>
<path fill="none" stroke="midnightblue" d="M532.687,-62.5385C546.227,-62.07 560.532,-61.575 573.576,-61.1237"/>
<polygon fill="midnightblue" stroke="midnightblue" points="532.389,-59.0466 522.516,-62.8904 532.631,-66.0424 532.389,-59.0466"/>
</g>
<!-- Node57 -->
<g id="node15" class="node"><title>Node57</title>
<g id="a_node15"><a xlink:href="../../d6/d75/namespacemom__remapping.html#a8a79c37c89f8b800f79198aceca5f090" target="_top" xlink:title="Runs unit tests on remapping functions. Should only be called from a single/root thread Returns True ...">
<polygon fill="white" stroke="black" points="415,-0.5 415,-30.5 535,-30.5 535,-0.5 415,-0.5"/>
<text text-anchor="start" x="423" y="-18.5" font-family="Helvetica,sans-Serif" font-size="10.00">mom_remapping::remapping</text>
<text text-anchor="middle" x="475" y="-7.5" font-family="Helvetica,sans-Serif" font-size="10.00">_unit_tests</text>
</a>
</g>
</g>
<!-- Node56&#45;&gt;Node57 -->
<g id="edge14" class="edge"><title>Node56&#45;&gt;Node57</title>
<path fill="none" stroke="midnightblue" d="M389.089,-22.1164C397.672,-21.4476 406.388,-20.7685 414.804,-20.1127"/>
<polygon fill="midnightblue" stroke="midnightblue" points="388.798,-18.6284 379.1,-22.8948 389.342,-25.6073 388.798,-18.6284"/>
</g>
<!-- Node58 -->
<g id="node16" class="node"><title>Node58</title>
<g id="a_node16"><a xlink:href="../../da/d01/namespacemom.html#ae77cfd2e790f1266b31d93c58659d46c" target="_top" xlink:title="Calls unit tests for other modules. These are NOT normally invoked and so we provide the module use s...">
<polygon fill="white" stroke="black" points="722,-30 722,-49 795,-49 795,-30 722,-30"/>
<text text-anchor="middle" x="758.5" y="-37" font-family="Helvetica,sans-Serif" font-size="10.00">mom::unit_tests</text>
</a>
</g>
</g>
<!-- Node57&#45;&gt;Node58 -->
<g id="edge15" class="edge"><title>Node57&#45;&gt;Node58</title>
<path fill="none" stroke="midnightblue" d="M545.194,-21.3993C601.07,-26.1632 677.444,-32.6746 721.721,-36.4495"/>
<polygon fill="midnightblue" stroke="midnightblue" points="545.273,-17.8934 535.012,-20.5312 544.678,-24.8681 545.273,-17.8934"/>
</g>
<!-- Node58&#45;&gt;Node52 -->
<g id="edge16" class="edge"><title>Node58&#45;&gt;Node52</title>
<path fill="none" stroke="midnightblue" d="M805.137,-49.4057C818.012,-52.2004 831.987,-55.2337 844.749,-58.0037"/>
<polygon fill="midnightblue" stroke="midnightblue" points="805.606,-45.9261 795.091,-47.2252 804.121,-52.7668 805.606,-45.9261"/>
</g>
</g>
</svg>
        <g id="navigator" transform="translate(0 0)" fill="#404254">
                <rect fill="#f2f5e9" fill-opacity="0.5" stroke="#606060" stroke-width=".5" x="0" y="0" width="60" height="60"/>
                <use id="zoomplus" xlink:href="#zoomPlus" x="17" y="9" onmousedown="handleZoom(evt,'in')"/>
                <use id="zoomminus" xlink:href="#zoomMin" x="42" y="9" onmousedown="handleZoom(evt,'out')"/>
                <use id="reset" xlink:href="#resetDef" x="30" y="36" onmousedown="handleReset()"/>
                <g id="arrowUp" xlink:href="#dirArrow" transform="translate(30 24)" onmousedown="handlePan(0,-1)">
                  <use xlink:href="#rim" fill="#404040">
                        <set attributeName="fill" to="#808080" begin="arrowUp.mouseover" end="arrowUp.mouseout"/>
                  </use>
                  <path fill="none" stroke="white" stroke-width="1.5" d="M0,-3.0v7 M-2.5,-0.5L0,-3.0L2.5,-0.5"/>
                </g>
                <g id="arrowRight" xlink:href="#dirArrow" transform="rotate(90) translate(36 -43)" onmousedown="handlePan(1,0)">
                  <use xlink:href="#rim" fill="#404040">
                        <set attributeName="fill" to="#808080" begin="arrowRight.mouseover" end="arrowRight.mouseout"/>
                  </use>
                  <path fill="none" stroke="white" stroke-width="1.5" d="M0,-3.0v7 M-2.5,-0.5L0,-3.0L2.5,-0.5"/>
                </g>
                <g id="arrowDown" xlink:href="#dirArrow" transform="rotate(180) translate(-30 -48)" onmousedown="handlePan(0,1)">
                  <use xlink:href="#rim" fill="#404040">
                        <set attributeName="fill" to="#808080" begin="arrowDown.mouseover" end="arrowDown.mouseout"/>
                  </use>
                  <path fill="none" stroke="white" stroke-width="1.5" d="M0,-3.0v7 M-2.5,-0.5L0,-3.0L2.5,-0.5"/>
                </g>
                <g id="arrowLeft" xlink:href="#dirArrow" transform="rotate(270) translate(-36 17)" onmousedown="handlePan(-1,0)">
                  <use xlink:href="#rim" fill="#404040">
                        <set attributeName="fill" to="#808080" begin="arrowLeft.mouseover" end="arrowLeft.mouseout"/>
                  </use>
                  <path fill="none" stroke="white" stroke-width="1.5" d="M0,-3.0v7 M-2.5,-0.5L0,-3.0L2.5,-0.5"/>
                </g>
        </g>
        <svg viewBox="0 0 15 15" width="100%" height="30px" preserveAspectRatio="xMaxYMin meet">
         <g id="arrow_out" transform="scale(0.3 0.3)">
          <a xlink:href="namespacepqm__functions_ada7e1a8d9d70b5b78b5e2dfddb5ffa43_icgraph_org.svg" target="_base">
           <rect id="button" ry="5" rx="5" y="6" x="6" height="38" width="38"
                fill="#f2f5e9" fill-opacity="0.5" stroke="#606060" stroke-width="1.0"/>
           <path id="arrow"
             d="M 11.500037,31.436501 C 11.940474,20.09759 22.043105,11.32322 32.158766,21.979434 L 37.068811,17.246167 C 37.068811,17.246167 37.088388,32 37.088388,32 L 22.160133,31.978069 C 22.160133,31.978069 26.997745,27.140456 26.997745,27.140456 C 18.528582,18.264221 13.291696,25.230495 11.500037,31.436501 z"
             style="fill:#404040;"/>
          </a>
         </g>
        </svg>
</svg>
