<?xml version="1.0" encoding="UTF-8" standalone="no"?>
<!DOCTYPE svg PUBLIC "-//W3C//DTD SVG 1.1//EN"
 "http://www.w3.org/Graphics/SVG/1.1/DTD/svg11.dtd">
<!-- Generated by graphviz version 2.38.0 (20140413.2041)
 -->
<!-- Title: pqm_functions::pqm_reconstruction Pages: 1 -->
<svg width="1049pt" height="335pt"
 viewBox="0.00 0.00 1049.00 334.50" xmlns="http://www.w3.org/2000/svg" xmlns:xlink="http://www.w3.org/1999/xlink">
<g id="graph0" class="graph" transform="scale(1 1) rotate(0) translate(4 330.5)">
<title>pqm_functions::pqm_reconstruction</title>
<polygon fill="white" stroke="none" points="-4,4 -4,-330.5 1045,-330.5 1045,4 -4,4"/>
<!-- Node51 -->
<g id="node1" class="node"><title>Node51</title>
<polygon fill="#bfbfbf" stroke="black" points="0,-98 0,-128 105,-128 105,-98 0,-98"/>
<text text-anchor="start" x="8" y="-116" font-family="Helvetica,sans-Serif" font-size="10.00">pqm_functions::pqm</text>
<text text-anchor="middle" x="52.5" y="-105" font-family="Helvetica,sans-Serif" font-size="10.00">_reconstruction</text>
</g>
<!-- Node52 -->
<g id="node2" class="node"><title>Node52</title>
<g id="a_node2"><a xlink:href="../../d6/d75/namespacemom__remapping.html#a07d7276310f329f56560a1290bcb8b0a" target="_top" xlink:title="Creates polynomial reconstructions of u0 on the source grid h0. ">
<polygon fill="white" stroke="black" points="141,-98 141,-128 256,-128 256,-98 141,-98"/>
<text text-anchor="start" x="149" y="-116" font-family="Helvetica,sans-Serif" font-size="10.00">mom_remapping::build</text>
<text text-anchor="middle" x="198.5" y="-105" font-family="Helvetica,sans-Serif" font-size="10.00">_reconstructions_1d</text>
</a>
</g>
</g>
<!-- Node51&#45;&gt;Node52 -->
<g id="edge1" class="edge"><title>Node51&#45;&gt;Node52</title>
<path fill="none" stroke="midnightblue" d="M115.319,-113C123.819,-113 132.511,-113 140.91,-113"/>
<polygon fill="midnightblue" stroke="midnightblue" points="115.081,-109.5 105.081,-113 115.081,-116.5 115.081,-109.5"/>
</g>
<!-- Node53 -->
<g id="node3" class="node"><title>Node53</title>
<g id="a_node3"><a xlink:href="../../d6/d75/namespacemom__remapping.html#a6d1533ffa647f3305aba055e2685b095" target="_top" xlink:title="Remaps column of values u0 on grid h0 to grid h1 assuming the top edge is aligned. ">
<polygon fill="white" stroke="black" points="292,-149 292,-179 432,-179 432,-149 292,-149"/>
<text text-anchor="start" x="300" y="-167" font-family="Helvetica,sans-Serif" font-size="10.00">mom_remapping::remapping</text>
<text text-anchor="middle" x="362" y="-156" font-family="Helvetica,sans-Serif" font-size="10.00">_core_h</text>
</a>
</g>
</g>
<!-- Node52&#45;&gt;Node53 -->
<g id="edge2" class="edge"><title>Node52&#45;&gt;Node53</title>
<path fill="none" stroke="midnightblue" d="M256.619,-131.038C275.221,-136.912 295.658,-143.366 313.479,-148.994"/>
<polygon fill="midnightblue" stroke="midnightblue" points="257.672,-127.7 247.082,-128.026 255.564,-134.375 257.672,-127.7"/>
</g>
<!-- Node67 -->
<g id="node17" class="node"><title>Node67</title>
<g id="a_node17"><a xlink:href="../../d6/d75/namespacemom__remapping.html#a8b967872b8db2ac7d538991f7f255e56" target="_top" xlink:title="Remaps column of values u0 on grid h0 to implied grid h1 where the interfaces of h1 differ from those...">
<polygon fill="white" stroke="black" points="292,-48 292,-78 432,-78 432,-48 292,-48"/>
<text text-anchor="start" x="300" y="-66" font-family="Helvetica,sans-Serif" font-size="10.00">mom_remapping::remapping</text>
<text text-anchor="middle" x="362" y="-55" font-family="Helvetica,sans-Serif" font-size="10.00">_core_w</text>
</a>
</g>
</g>
<!-- Node52&#45;&gt;Node67 -->
<g id="edge16" class="edge"><title>Node52&#45;&gt;Node67</title>
<path fill="none" stroke="midnightblue" d="M257.708,-94.9789C275.606,-89.4378 295.11,-83.3995 312.3,-78.0774"/>
<polygon fill="midnightblue" stroke="midnightblue" points="256.473,-91.6974 247.955,-97.9984 258.543,-98.3842 256.473,-91.6974"/>
</g>
<!-- Node54 -->
<g id="node4" class="node"><title>Node54</title>
<g id="a_node4"><a xlink:href="../../de/dd7/namespacemom__ale__sponge.html#a8f6e6db99f860b048a58e97e58c101a6" target="_top" xlink:title="This subroutine applies damping to the layers thicknesses, temp, salt and a variety of tracers for ev...">
<polygon fill="white" stroke="black" points="477,-271 477,-301 599,-301 599,-271 477,-271"/>
<text text-anchor="start" x="485" y="-289" font-family="Helvetica,sans-Serif" font-size="10.00">mom_ale_sponge::apply</text>
<text text-anchor="middle" x="538" y="-278" font-family="Helvetica,sans-Serif" font-size="10.00">_ale_sponge</text>
</a>
</g>
</g>
<!-- Node53&#45;&gt;Node54 -->
<g id="edge3" class="edge"><title>Node53&#45;&gt;Node54</title>
<path fill="none" stroke="midnightblue" d="M393.072,-185.085C428.026,-209.593 484.835,-249.425 515.588,-270.987"/>
<polygon fill="midnightblue" stroke="midnightblue" points="394.883,-182.08 384.685,-179.205 390.864,-187.811 394.883,-182.08"/>
</g>
<!-- Node56 -->
<g id="node6" class="node"><title>Node56</title>
<g id="a_node6"><a xlink:href="../../d6/d62/namespacemom__state__initialization.html#a71ee3c056ca59c1c3529a4ec22e09fe3" target="_top" xlink:title="Adjust the layer thicknesses by cutting away the top at the depth where the hydrostatic pressure matc...">
<polygon fill="white" stroke="black" points="477,-198 477,-228 599,-228 599,-198 477,-198"/>
<text text-anchor="start" x="485" y="-216" font-family="Helvetica,sans-Serif" font-size="10.00">mom_state_initialization</text>
<text text-anchor="middle" x="538" y="-205" font-family="Helvetica,sans-Serif" font-size="10.00">::cut_off_column_top</text>
</a>
</g>
</g>
<!-- Node53&#45;&gt;Node56 -->
<g id="edge5" class="edge"><title>Node53&#45;&gt;Node56</title>
<path fill="none" stroke="midnightblue" d="M426.284,-181.821C445.07,-187.112 465.455,-192.852 483.552,-197.948"/>
<polygon fill="midnightblue" stroke="midnightblue" points="427.2,-178.443 416.626,-179.101 425.302,-185.181 427.2,-178.443"/>
</g>
<!-- Node60 -->
<g id="node10" class="node"><title>Node60</title>
<g id="a_node10"><a xlink:href="../../d9/d06/namespacemom__diag__mediator.html#ab5e628e0b8acd96234fab33d0fae2161" target="_top" xlink:title="Remap diagnostic field to z&#45;star vertical grid. ">
<polygon fill="white" stroke="black" points="483,-149 483,-179 593,-179 593,-149 483,-149"/>
<text text-anchor="start" x="491" y="-167" font-family="Helvetica,sans-Serif" font-size="10.00">mom_diag_mediator::</text>
<text text-anchor="middle" x="538" y="-156" font-family="Helvetica,sans-Serif" font-size="10.00">remap_diag_to_z</text>
</a>
</g>
</g>
<!-- Node53&#45;&gt;Node60 -->
<g id="edge9" class="edge"><title>Node53&#45;&gt;Node60</title>
<path fill="none" stroke="midnightblue" d="M442.405,-164C456.081,-164 470.009,-164 482.824,-164"/>
<polygon fill="midnightblue" stroke="midnightblue" points="442.019,-160.5 432.019,-164 442.019,-167.5 442.019,-160.5"/>
</g>
<!-- Node62 -->
<g id="node12" class="node"><title>Node62</title>
<g id="a_node12"><a xlink:href="../../dd/d33/namespacemom__wave__speed.html#a72302e356c47c5055ba0b1a8714c772a" target="_top" xlink:title="Calculates the wave speed of the first baroclinic mode. ">
<polygon fill="white" stroke="black" points="474,-94 474,-124 602,-124 602,-94 474,-94"/>
<text text-anchor="start" x="482" y="-112" font-family="Helvetica,sans-Serif" font-size="10.00">mom_wave_speed::wave</text>
<text text-anchor="middle" x="538" y="-101" font-family="Helvetica,sans-Serif" font-size="10.00">_speed</text>
</a>
</g>
</g>
<!-- Node53&#45;&gt;Node62 -->
<g id="edge11" class="edge"><title>Node53&#45;&gt;Node62</title>
<path fill="none" stroke="midnightblue" d="M420.283,-145.893C442.71,-138.804 468.132,-130.769 489.511,-124.011"/>
<polygon fill="midnightblue" stroke="midnightblue" points="419.026,-142.62 410.546,-148.971 421.136,-149.294 419.026,-142.62"/>
</g>
<!-- Node55 -->
<g id="node5" class="node"><title>Node55</title>
<g id="a_node5"><a xlink:href="../../d8/df3/namespacemom__diabatic__driver.html#a61e57d3902367aa46aa3c2d949ee900f" target="_top" xlink:title="This subroutine imposes the diapycnal mass fluxes and the accompanying diapycnal advection of momentu...">
<polygon fill="white" stroke="black" points="659.5,-296 659.5,-326 766.5,-326 766.5,-296 659.5,-296"/>
<text text-anchor="start" x="667.5" y="-314" font-family="Helvetica,sans-Serif" font-size="10.00">mom_diabatic_driver</text>
<text text-anchor="middle" x="713" y="-303" font-family="Helvetica,sans-Serif" font-size="10.00">::diabatic</text>
</a>
</g>
</g>
<!-- Node54&#45;&gt;Node55 -->
<g id="edge4" class="edge"><title>Node54&#45;&gt;Node55</title>
<path fill="none" stroke="midnightblue" d="M609.291,-296.158C625.995,-298.571 643.535,-301.106 659.299,-303.384"/>
<polygon fill="midnightblue" stroke="midnightblue" points="609.419,-292.64 599.021,-294.674 608.418,-299.568 609.419,-292.64"/>
</g>
<!-- Node57 -->
<g id="node7" class="node"><title>Node57</title>
<g id="a_node7"><a xlink:href="../../d6/d62/namespacemom__state__initialization.html#a5c77bf2b0ea9d28e28b661a2a42d3f88" target="_top" xlink:title="Run simple unit tests. ">
<polygon fill="white" stroke="black" points="652,-247 652,-277 774,-277 774,-247 652,-247"/>
<text text-anchor="start" x="660" y="-265" font-family="Helvetica,sans-Serif" font-size="10.00">mom_state_initialization</text>
<text text-anchor="middle" x="713" y="-254" font-family="Helvetica,sans-Serif" font-size="10.00">::mom_state_init_tests</text>
</a>
</g>
</g>
<!-- Node56&#45;&gt;Node57 -->
<g id="edge6" class="edge"><title>Node56&#45;&gt;Node57</title>
<path fill="none" stroke="midnightblue" d="M602.177,-230.894C620.785,-236.164 640.948,-241.876 658.859,-246.948"/>
<polygon fill="midnightblue" stroke="midnightblue" points="602.893,-227.459 592.317,-228.101 600.985,-234.194 602.893,-227.459"/>
</g>
<!-- Node58 -->
<g id="node8" class="node"><title>Node58</title>
<g id="a_node8"><a xlink:href="../../d6/d62/namespacemom__state__initialization.html#acc1029776c1bdda2862ed0f95c8dc640" target="_top" xlink:title="Adjust the layer thicknesses by cutting away the top of each model column at the depth where the hydr...">
<polygon fill="white" stroke="black" points="652,-198 652,-228 774,-228 774,-198 652,-198"/>
<text text-anchor="start" x="660" y="-216" font-family="Helvetica,sans-Serif" font-size="10.00">mom_state_initialization</text>
<text text-anchor="middle" x="713" y="-205" font-family="Helvetica,sans-Serif" font-size="10.00">::trim_for_ice</text>
</a>
</g>
</g>
<!-- Node56&#45;&gt;Node58 -->
<g id="edge7" class="edge"><title>Node56&#45;&gt;Node58</title>
<path fill="none" stroke="midnightblue" d="M609.18,-213C623.309,-213 638.04,-213 651.792,-213"/>
<polygon fill="midnightblue" stroke="midnightblue" points="609.022,-209.5 599.021,-213 609.021,-216.5 609.022,-209.5"/>
</g>
<!-- Node59 -->
<g id="node9" class="node"><title>Node59</title>
<g id="a_node9"><a xlink:href="../../d6/d62/namespacemom__state__initialization.html#af4e854627c6572332ba3fd895f169321" target="_top" xlink:title="mom_state_initialization\l::mom_initialize_state">
<polygon fill="white" stroke="black" points="818,-198 818,-228 940,-228 940,-198 818,-198"/>
<text text-anchor="start" x="826" y="-216" font-family="Helvetica,sans-Serif" font-size="10.00">mom_state_initialization</text>
<text text-anchor="middle" x="879" y="-205" font-family="Helvetica,sans-Serif" font-size="10.00">::mom_initialize_state</text>
</a>
</g>
</g>
<!-- Node58&#45;&gt;Node59 -->
<g id="edge8" class="edge"><title>Node58&#45;&gt;Node59</title>
<path fill="none" stroke="midnightblue" d="M784.296,-213C795.476,-213 806.953,-213 817.871,-213"/>
<polygon fill="midnightblue" stroke="midnightblue" points="784.136,-209.5 774.136,-213 784.136,-216.5 784.136,-209.5"/>
</g>
<!-- Node61 -->
<g id="node11" class="node"><title>Node61</title>
<g id="a_node11"><a xlink:href="../../d9/d06/namespacemom__diag__mediator.html#adb1030a0216c52dd0d25bd67a5b31868" target="_top" xlink:title="mom_diag_mediator::\lpost_data_3d">
<polygon fill="white" stroke="black" points="658,-149 658,-179 768,-179 768,-149 658,-149"/>
<text text-anchor="start" x="666" y="-167" font-family="Helvetica,sans-Serif" font-size="10.00">mom_diag_mediator::</text>
<text text-anchor="middle" x="713" y="-156" font-family="Helvetica,sans-Serif" font-size="10.00">post_data_3d</text>
</a>
</g>
</g>
<!-- Node60&#45;&gt;Node61 -->
<g id="edge10" class="edge"><title>Node60&#45;&gt;Node61</title>
<path fill="none" stroke="midnightblue" d="M603.362,-164C621.316,-164 640.634,-164 657.929,-164"/>
<polygon fill="midnightblue" stroke="midnightblue" points="603.264,-160.5 593.264,-164 603.264,-167.5 603.264,-160.5"/>
</g>
<!-- Node63 -->
<g id="node13" class="node"><title>Node63</title>
<g id="a_node13"><a xlink:href="../../d0/d86/namespacemom__lateral__mixing__coeffs.html#af206bc656869b4fc27d4d7e8a15d438e" target="_top" xlink:title="Calculates and stores the non&#45;dimensional resolution functions. ">
<polygon fill="white" stroke="black" points="661,-88.5 661,-129.5 765,-129.5 765,-88.5 661,-88.5"/>
<text text-anchor="start" x="669" y="-117.5" font-family="Helvetica,sans-Serif" font-size="10.00">mom_lateral_mixing</text>
<text text-anchor="start" x="669" y="-106.5" font-family="Helvetica,sans-Serif" font-size="10.00">_coeffs::calc_resoln</text>
<text text-anchor="middle" x="713" y="-95.5" font-family="Helvetica,sans-Serif" font-size="10.00">_function</text>
</a>
</g>
</g>
<!-- Node62&#45;&gt;Node63 -->
<g id="edge12" class="edge"><title>Node62&#45;&gt;Node63</title>
<path fill="none" stroke="midnightblue" d="M612.455,-109C628.71,-109 645.594,-109 660.74,-109"/>
<polygon fill="midnightblue" stroke="midnightblue" points="612.437,-105.5 602.436,-109 612.436,-112.5 612.437,-105.5"/>
</g>
<!-- Node66 -->
<g id="node16" class="node"><title>Node66</title>
<g id="a_node16"><a xlink:href="../../d9/d8b/namespacemom__diagnostics.html#abb6644248c28ab2e952361bfec436063" target="_top" xlink:title="mom_diagnostics::calculate\l_diagnostic_fields">
<polygon fill="white" stroke="black" points="644,-39 644,-69 782,-69 782,-39 644,-39"/>
<text text-anchor="start" x="652" y="-57" font-family="Helvetica,sans-Serif" font-size="10.00">mom_diagnostics::calculate</text>
<text text-anchor="middle" x="713" y="-46" font-family="Helvetica,sans-Serif" font-size="10.00">_diagnostic_fields</text>
</a>
</g>
</g>
<!-- Node62&#45;&gt;Node66 -->
<g id="edge15" class="edge"><title>Node62&#45;&gt;Node66</title>
<path fill="none" stroke="midnightblue" d="M595.954,-90.8933C618.252,-83.8042 643.527,-75.7687 664.784,-69.0108"/>
<polygon fill="midnightblue" stroke="midnightblue" points="594.743,-87.6057 586.273,-93.971 596.863,-94.2767 594.743,-87.6057"/>
</g>
<!-- Node64 -->
<g id="node14" class="node"><title>Node64</title>
<g id="a_node14"><a xlink:href="../../da/d01/namespacemom.html#a4c8332b095c6d295084089aa6b3b678a" target="_top" xlink:title="This subroutine orchestrates the time stepping of MOM. The adiabatic dynamics are stepped by calls to...">
<polygon fill="white" stroke="black" points="834,-69.5 834,-88.5 924,-88.5 924,-69.5 834,-69.5"/>
<text text-anchor="middle" x="879" y="-76.5" font-family="Helvetica,sans-Serif" font-size="10.00">mom::step_mom</text>
</a>
</g>
</g>
<!-- Node63&#45;&gt;Node64 -->
<g id="edge13" class="edge"><title>Node63&#45;&gt;Node64</title>
<path fill="none" stroke="midnightblue" d="M775.43,-97.7628C794.868,-94.2071 815.955,-90.3498 833.925,-87.0626"/>
<polygon fill="midnightblue" stroke="midnightblue" points="774.648,-94.3478 765.441,-99.5901 775.907,-101.234 774.648,-94.3478"/>
</g>
<!-- Node65 -->
<g id="node15" class="node"><title>Node65</title>
<g id="a_node15"><a xlink:href="../../de/dbc/MOM__driver_8F90.html#a08fffeb2d8e8acbf9ed4609be6d258c6" target="_top" xlink:title="mom_main">
<polygon fill="white" stroke="black" points="976,-42.5 976,-61.5 1041,-61.5 1041,-42.5 976,-42.5"/>
<text text-anchor="middle" x="1008.5" y="-49.5" font-family="Helvetica,sans-Serif" font-size="10.00">mom_main</text>
</a>
</g>
</g>
<!-- Node64&#45;&gt;Node65 -->
<g id="edge14" class="edge"><title>Node64&#45;&gt;Node65</title>
<path fill="none" stroke="midnightblue" d="M934.374,-67.4855C948.506,-64.4927 963.267,-61.3669 975.796,-58.7137"/>
<polygon fill="midnightblue" stroke="midnightblue" points="933.293,-64.1366 924.235,-69.6325 934.744,-70.9848 933.293,-64.1366"/>
</g>
<!-- Node68 -->
<g id="node18" class="node"><title>Node68</title>
<g id="a_node18"><a xlink:href="../../d6/d75/namespacemom__remapping.html#a8a79c37c89f8b800f79198aceca5f090" target="_top" xlink:title="Runs unit tests on remapping functions. Should only be called from a single/root thread Returns True ...">
<polygon fill="white" stroke="black" points="468,-20 468,-50 608,-50 608,-20 468,-20"/>
<text text-anchor="start" x="476" y="-38" font-family="Helvetica,sans-Serif" font-size="10.00">mom_remapping::remapping</text>
<text text-anchor="middle" x="538" y="-27" font-family="Helvetica,sans-Serif" font-size="10.00">_unit_tests</text>
</a>
</g>
</g>
<!-- Node67&#45;&gt;Node68 -->
<g id="edge17" class="edge"><title>Node67&#45;&gt;Node68</title>
<path fill="none" stroke="midnightblue" d="M442.035,-50.2817C450.625,-48.8994 459.319,-47.5003 467.779,-46.1389"/>
<polygon fill="midnightblue" stroke="midnightblue" points="441.336,-46.8491 432.019,-51.8934 442.448,-53.7601 441.336,-46.8491"/>
</g>
<!-- Node69 -->
<g id="node19" class="node"><title>Node69</title>
<g id="a_node19"><a xlink:href="../../da/d01/namespacemom.html#ae77cfd2e790f1266b31d93c58659d46c" target="_top" xlink:title="Calls unit tests for other modules. These are NOT normally invoked and so we provide the module use s...">
<polygon fill="white" stroke="black" points="669.5,-0.5 669.5,-19.5 756.5,-19.5 756.5,-0.5 669.5,-0.5"/>
<text text-anchor="middle" x="713" y="-7.5" font-family="Helvetica,sans-Serif" font-size="10.00">mom::unit_tests</text>
</a>
</g>
</g>
<!-- Node68&#45;&gt;Node69 -->
<g id="edge18" class="edge"><title>Node68&#45;&gt;Node69</title>
<path fill="none" stroke="midnightblue" d="M618.589,-23.4988C636.057,-20.9744 653.904,-18.3954 669.255,-16.177"/>
<polygon fill="midnightblue" stroke="midnightblue" points="617.765,-20.0813 608.369,-24.9756 618.767,-27.0093 617.765,-20.0813"/>
</g>
<!-- Node70 -->
<g id="node20" class="node"><title>Node70</title>
<g id="a_node20"><a xlink:href="../../da/d01/namespacemom.html#a0be2869fef30e1e0604facfe1b41555d" target="_top" xlink:title="This subroutine initializes MOM. ">
<polygon fill="white" stroke="black" points="825.5,-16.5 825.5,-35.5 932.5,-35.5 932.5,-16.5 825.5,-16.5"/>
<text text-anchor="middle" x="879" y="-23.5" font-family="Helvetica,sans-Serif" font-size="10.00">mom::initialize_mom</text>
</a>
</g>
</g>
<!-- Node69&#45;&gt;Node70 -->
<g id="edge19" class="edge"><title>Node69&#45;&gt;Node70</title>
<path fill="none" stroke="midnightblue" d="M766.793,-15.1505C785.516,-16.9772 806.576,-19.0318 825.292,-20.8578"/>
<polygon fill="midnightblue" stroke="midnightblue" points="766.954,-11.6497 756.661,-14.162 766.274,-18.6166 766.954,-11.6497"/>
</g>
<!-- Node70&#45;&gt;Node65 -->
<g id="edge20" class="edge"><title>Node70&#45;&gt;Node65</title>
<path fill="none" stroke="midnightblue" d="M936.873,-37.5976C950.263,-40.3282 964.064,-43.1424 975.873,-45.5506"/>
<polygon fill="midnightblue" stroke="midnightblue" points="937.25,-34.1026 926.752,-35.5338 935.851,-40.9614 937.25,-34.1026"/>
</g>
</g>
</svg>
