<?xml version="1.0" encoding="UTF-8" standalone="no"?>
<!DOCTYPE svg PUBLIC "-//W3C//DTD SVG 1.1//EN"
 "http://www.w3.org/Graphics/SVG/1.1/DTD/svg11.dtd">
<!-- Generated by graphviz version 2.38.0 (20140413.2041)
 -->
<!-- Title: mom_dynamics_unsplit::mom_dyn_unsplit_cs Pages: 1 -->
<svg width="359pt" height="747pt"
 viewBox="0.00 0.00 359.00 746.56" xmlns="http://www.w3.org/2000/svg" xmlns:xlink="http://www.w3.org/1999/xlink">
<g id="graph0" class="graph" transform="scale(1 1) rotate(0) translate(4 742.564)">
<title>mom_dynamics_unsplit::mom_dyn_unsplit_cs</title>
<polygon fill="white" stroke="none" points="-4,4 -4,-742.564 355,-742.564 355,4 -4,4"/>
<!-- Node1 -->
<g id="node1" class="node"><title>Node1</title>
<polygon fill="#bfbfbf" stroke="black" points="232,-395.564 232,-425.564 351,-425.564 351,-395.564 232,-395.564"/>
<text text-anchor="start" x="240" y="-413.564" font-family="Helvetica,sans-Serif" font-size="10.00">mom_dynamics_unsplit</text>
<text text-anchor="middle" x="291.5" y="-402.564" font-family="Helvetica,sans-Serif" font-size="10.00">::mom_dyn_unsplit_cs</text>
</g>
<!-- Node2 -->
<g id="node2" class="node"><title>Node2</title>
<polygon fill="white" stroke="#bfbfbf" points="0,-712.064 0,-731.064 105,-731.064 105,-712.064 0,-712.064"/>
<text text-anchor="middle" x="52.5" y="-719.064" font-family="Helvetica,sans-Serif" font-size="10.00">type(ale_cs), pointer</text>
</g>
<!-- Node2&#45;&gt;Node1 -->
<g id="edge1" class="edge"><title>Node2&#45;&gt;Node1</title>
<path fill="none" stroke="#9a32cd" stroke-dasharray="5,2" d="M115.119,-728.469C148.178,-728.734 187.461,-723.035 214,-699.564 256.28,-662.172 281.938,-479.707 288.699,-425.67"/>
<polygon fill="#9a32cd" stroke="#9a32cd" points="115.168,-724.969 105.08,-728.208 114.986,-731.967 115.168,-724.969"/>
<text text-anchor="middle" x="168.5" y="-730.564" font-family="Helvetica,sans-Serif" font-size="10.00"> ale_csp</text>
</g>
<!-- Node3 -->
<g id="node3" class="node"><title>Node3</title>
<polygon fill="white" stroke="#bfbfbf" points="30.5,-669.064 30.5,-688.064 74.5,-688.064 74.5,-669.064 30.5,-669.064"/>
<text text-anchor="middle" x="52.5" y="-676.064" font-family="Helvetica,sans-Serif" font-size="10.00">logical</text>
</g>
<!-- Node3&#45;&gt;Node1 -->
<g id="edge2" class="edge"><title>Node3&#45;&gt;Node1</title>
<path fill="none" stroke="#9a32cd" stroke-dasharray="5,2" d="M84.775,-677.527C125.889,-675.533 195.116,-669.801 214,-653.564 284.259,-593.154 290.757,-468.878 290.799,-425.724"/>
<polygon fill="#9a32cd" stroke="#9a32cd" points="84.5663,-674.033 74.7291,-677.967 84.8728,-681.026 84.5663,-674.033"/>
<text text-anchor="middle" x="168.5" y="-688.564" font-family="Helvetica,sans-Serif" font-size="10.00"> debug</text>
<text text-anchor="middle" x="168.5" y="-677.564" font-family="Helvetica,sans-Serif" font-size="10.00">module_is_initialized</text>
</g>
<!-- Node4 -->
<g id="node4" class="node"><title>Node4</title>
<polygon fill="white" stroke="#bfbfbf" points="8.5,-631.064 8.5,-650.064 96.5,-650.064 96.5,-631.064 8.5,-631.064"/>
<text text-anchor="middle" x="52.5" y="-638.064" font-family="Helvetica,sans-Serif" font-size="10.00">ocean_obc_type</text>
</g>
<!-- Node4&#45;&gt;Node1 -->
<g id="edge3" class="edge"><title>Node4&#45;&gt;Node1</title>
<path fill="none" stroke="#9a32cd" stroke-dasharray="5,2" d="M106.825,-641.284C141.068,-639.021 184.494,-630.712 214,-605.564 270.324,-557.56 285.442,-462.654 289.274,-425.747"/>
<polygon fill="#9a32cd" stroke="#9a32cd" points="106.329,-637.805 96.5182,-641.804 106.682,-644.796 106.329,-637.805"/>
<text text-anchor="middle" x="168.5" y="-641.564" font-family="Helvetica,sans-Serif" font-size="10.00"> obc</text>
</g>
<!-- Node5 -->
<g id="node5" class="node"><title>Node5</title>
<polygon fill="white" stroke="#bfbfbf" points="4,-581.564 4,-611.564 101,-611.564 101,-581.564 4,-581.564"/>
<text text-anchor="start" x="12" y="-599.564" font-family="Helvetica,sans-Serif" font-size="10.00">type(set_visc_cs),</text>
<text text-anchor="middle" x="52.5" y="-588.564" font-family="Helvetica,sans-Serif" font-size="10.00"> pointer</text>
</g>
<!-- Node5&#45;&gt;Node1 -->
<g id="edge4" class="edge"><title>Node5&#45;&gt;Node1</title>
<path fill="none" stroke="#9a32cd" stroke-dasharray="5,2" d="M111.177,-592.409C144.232,-587.454 184.815,-576.718 214,-553.564 256.791,-519.616 278.659,-454.999 286.742,-425.691"/>
<polygon fill="#9a32cd" stroke="#9a32cd" points="110.619,-588.952 101.181,-593.768 111.562,-595.888 110.619,-588.952"/>
<text text-anchor="middle" x="168.5" y="-593.564" font-family="Helvetica,sans-Serif" font-size="10.00"> set_visc_csp</text>
</g>
<!-- Node6 -->
<g id="node6" class="node"><title>Node6</title>
<polygon fill="white" stroke="#bfbfbf" points="5,-532.564 5,-562.564 100,-562.564 100,-532.564 5,-532.564"/>
<text text-anchor="start" x="13" y="-550.564" font-family="Helvetica,sans-Serif" font-size="10.00">type(vertvisc_cs),</text>
<text text-anchor="middle" x="52.5" y="-539.564" font-family="Helvetica,sans-Serif" font-size="10.00"> pointer</text>
</g>
<!-- Node6&#45;&gt;Node1 -->
<g id="edge5" class="edge"><title>Node6&#45;&gt;Node1</title>
<path fill="none" stroke="#9a32cd" stroke-dasharray="5,2" d="M110.436,-541.605C142.841,-536.117 183.017,-525.616 214,-505.564 245.822,-484.97 270.544,-446.729 282.537,-425.588"/>
<polygon fill="#9a32cd" stroke="#9a32cd" points="109.543,-538.202 100.209,-543.216 110.632,-545.117 109.543,-538.202"/>
<text text-anchor="middle" x="168.5" y="-541.564" font-family="Helvetica,sans-Serif" font-size="10.00"> vertvisc_csp</text>
</g>
<!-- Node7 -->
<g id="node7" class="node"><title>Node7</title>
<polygon fill="white" stroke="#bfbfbf" points="12.5,-494.064 12.5,-513.064 92.5,-513.064 92.5,-494.064 12.5,-494.064"/>
<text text-anchor="middle" x="52.5" y="-501.064" font-family="Helvetica,sans-Serif" font-size="10.00">cont_diag_ptrs</text>
</g>
<!-- Node7&#45;&gt;Node1 -->
<g id="edge6" class="edge"><title>Node7&#45;&gt;Node1</title>
<path fill="none" stroke="#9a32cd" stroke-dasharray="5,2" d="M102.768,-494.6C135.249,-487.676 178.235,-476.55 214,-460.564 234.714,-451.306 256.157,-436.789 271.051,-425.778"/>
<polygon fill="#9a32cd" stroke="#9a32cd" points="101.697,-491.247 92.6136,-496.701 103.115,-498.102 101.697,-491.247"/>
<text text-anchor="middle" x="168.5" y="-493.564" font-family="Helvetica,sans-Serif" font-size="10.00"> cdp</text>
</g>
<!-- Node8 -->
<g id="node8" class="node"><title>Node8</title>
<polygon fill="white" stroke="#bfbfbf" points="4,-444.564 4,-474.564 101,-474.564 101,-444.564 4,-444.564"/>
<text text-anchor="start" x="12" y="-462.564" font-family="Helvetica,sans-Serif" font-size="10.00">type(hor_visc_cs),</text>
<text text-anchor="middle" x="52.5" y="-451.564" font-family="Helvetica,sans-Serif" font-size="10.00"> pointer</text>
</g>
<!-- Node8&#45;&gt;Node1 -->
<g id="edge7" class="edge"><title>Node8&#45;&gt;Node1</title>
<path fill="none" stroke="#9a32cd" stroke-dasharray="5,2" d="M111.216,-447.631C147.876,-440.052 195.179,-430.272 231.991,-422.661"/>
<polygon fill="#9a32cd" stroke="#9a32cd" points="110.26,-444.255 101.175,-449.707 111.677,-451.11 110.26,-444.255"/>
<text text-anchor="middle" x="168.5" y="-448.564" font-family="Helvetica,sans-Serif" font-size="10.00"> hor_visc_csp</text>
</g>
<!-- Node9 -->
<g id="node9" class="node"><title>Node9</title>
<polygon fill="white" stroke="#bfbfbf" points="3,-395.564 3,-425.564 102,-425.564 102,-395.564 3,-395.564"/>
<text text-anchor="start" x="11" y="-413.564" font-family="Helvetica,sans-Serif" font-size="10.00">type(continuity_cs)</text>
<text text-anchor="middle" x="52.5" y="-402.564" font-family="Helvetica,sans-Serif" font-size="10.00">, pointer</text>
</g>
<!-- Node9&#45;&gt;Node1 -->
<g id="edge8" class="edge"><title>Node9&#45;&gt;Node1</title>
<path fill="none" stroke="#9a32cd" stroke-dasharray="5,2" d="M112.047,-410.564C148.583,-410.564 195.443,-410.564 231.975,-410.564"/>
<polygon fill="#9a32cd" stroke="#9a32cd" points="112.032,-407.064 102.032,-410.564 112.032,-414.064 112.032,-407.064"/>
<text text-anchor="middle" x="168.5" y="-413.564" font-family="Helvetica,sans-Serif" font-size="10.00"> continuity_csp</text>
</g>
<!-- Node10 -->
<g id="node10" class="node"><title>Node10</title>
<polygon fill="white" stroke="#bfbfbf" points="0.5,-346.564 0.5,-376.564 104.5,-376.564 104.5,-346.564 0.5,-346.564"/>
<text text-anchor="start" x="8.5" y="-364.564" font-family="Helvetica,sans-Serif" font-size="10.00">type(coriolisadv_cs)</text>
<text text-anchor="middle" x="52.5" y="-353.564" font-family="Helvetica,sans-Serif" font-size="10.00">, pointer</text>
</g>
<!-- Node10&#45;&gt;Node1 -->
<g id="edge9" class="edge"><title>Node10&#45;&gt;Node1</title>
<path fill="none" stroke="#9a32cd" stroke-dasharray="5,2" d="M114.563,-374.189C150.706,-381.662 196.253,-391.079 231.948,-398.459"/>
<polygon fill="#9a32cd" stroke="#9a32cd" points="115.135,-370.733 104.634,-372.136 113.718,-377.588 115.135,-370.733"/>
<text text-anchor="middle" x="168.5" y="-398.564" font-family="Helvetica,sans-Serif" font-size="10.00"> coriolisadv_csp</text>
</g>
<!-- Node11 -->
<g id="node11" class="node"><title>Node11</title>
<polygon fill="white" stroke="#bfbfbf" points="26,-308.064 26,-327.064 79,-327.064 79,-308.064 26,-308.064"/>
<text text-anchor="middle" x="52.5" y="-315.064" font-family="Helvetica,sans-Serif" font-size="10.00">diag_ctrl</text>
</g>
<!-- Node11&#45;&gt;Node1 -->
<g id="edge10" class="edge"><title>Node11&#45;&gt;Node1</title>
<path fill="none" stroke="#9a32cd" stroke-dasharray="5,2" d="M89.2083,-324.119C122.452,-330.966 172.911,-343.283 214,-361.564 234.462,-370.669 255.762,-384.749 270.674,-395.484"/>
<polygon fill="#9a32cd" stroke="#9a32cd" points="89.5457,-320.617 79.0534,-322.087 88.1725,-327.481 89.5457,-320.617"/>
<text text-anchor="middle" x="168.5" y="-364.564" font-family="Helvetica,sans-Serif" font-size="10.00"> diag</text>
</g>
<!-- Node12 -->
<g id="node12" class="node"><title>Node12</title>
<polygon fill="white" stroke="#bfbfbf" points="7,-258.564 7,-288.564 98,-288.564 98,-258.564 7,-258.564"/>
<text text-anchor="start" x="15" y="-276.564" font-family="Helvetica,sans-Serif" font-size="10.00">type(tidal_forcing</text>
<text text-anchor="middle" x="52.5" y="-265.564" font-family="Helvetica,sans-Serif" font-size="10.00">_cs), pointer</text>
</g>
<!-- Node12&#45;&gt;Node1 -->
<g id="edge11" class="edge"><title>Node12&#45;&gt;Node1</title>
<path fill="none" stroke="#9a32cd" stroke-dasharray="5,2" d="M107.906,-280.014C140.698,-285.873 182.139,-296.916 214,-317.564 245.229,-337.802 270.015,-374.859 282.22,-395.561"/>
<polygon fill="#9a32cd" stroke="#9a32cd" points="108.469,-276.559 98.0276,-278.357 107.311,-283.463 108.469,-276.559"/>
<text text-anchor="middle" x="168.5" y="-320.564" font-family="Helvetica,sans-Serif" font-size="10.00"> tides_csp</text>
</g>
<!-- Node13 -->
<g id="node13" class="node"><title>Node13</title>
<polygon fill="white" stroke="#bfbfbf" points="3.5,-209.564 3.5,-239.564 101.5,-239.564 101.5,-209.564 3.5,-209.564"/>
<text text-anchor="start" x="11.5" y="-227.564" font-family="Helvetica,sans-Serif" font-size="10.00">type(pressureforce</text>
<text text-anchor="middle" x="52.5" y="-216.564" font-family="Helvetica,sans-Serif" font-size="10.00">_cs), pointer</text>
</g>
<!-- Node13&#45;&gt;Node1 -->
<g id="edge12" class="edge"><title>Node13&#45;&gt;Node1</title>
<path fill="none" stroke="#9a32cd" stroke-dasharray="5,2" d="M111.989,-235.961C151.045,-244.496 198.064,-256.847 214,-269.564 256.013,-303.091 278.159,-366.206 286.514,-395.241"/>
<polygon fill="#9a32cd" stroke="#9a32cd" points="112.248,-232.437 101.737,-233.767 110.783,-239.282 112.248,-232.437"/>
<text text-anchor="middle" x="168.5" y="-272.564" font-family="Helvetica,sans-Serif" font-size="10.00"> pressureforce_csp</text>
</g>
<!-- Node14 -->
<g id="node14" class="node"><title>Node14</title>
<polygon fill="white" stroke="#bfbfbf" points="29.5,-156.064 29.5,-175.064 75.5,-175.064 75.5,-156.064 29.5,-156.064"/>
<text text-anchor="middle" x="52.5" y="-163.064" font-family="Helvetica,sans-Serif" font-size="10.00">integer</text>
</g>
<!-- Node14&#45;&gt;Node1 -->
<g id="edge13" class="edge"><title>Node14&#45;&gt;Node1</title>
<path fill="none" stroke="#9a32cd" stroke-dasharray="5,2" d="M85.2797,-156.412C120.43,-148.353 176.98,-141.76 214,-169.564 287.711,-224.925 291.968,-351.631 291.117,-395.379"/>
<polygon fill="#9a32cd" stroke="#9a32cd" points="84.4093,-153.022 75.5352,-158.81 86.0819,-159.819 84.4093,-153.022"/>
<text text-anchor="middle" x="168.5" y="-227.564" font-family="Helvetica,sans-Serif" font-size="10.00"> id_vh</text>
<text text-anchor="middle" x="168.5" y="-216.564" font-family="Helvetica,sans-Serif" font-size="10.00">id_cau</text>
<text text-anchor="middle" x="168.5" y="-205.564" font-family="Helvetica,sans-Serif" font-size="10.00">id_uh</text>
<text text-anchor="middle" x="168.5" y="-194.564" font-family="Helvetica,sans-Serif" font-size="10.00">id_cav</text>
<text text-anchor="middle" x="168.5" y="-183.564" font-family="Helvetica,sans-Serif" font-size="10.00">id_pfu</text>
<text text-anchor="middle" x="168.5" y="-172.564" font-family="Helvetica,sans-Serif" font-size="10.00">id_pfv</text>
</g>
<!-- Node15 -->
<g id="node15" class="node"><title>Node15</title>
<polygon fill="white" stroke="#bfbfbf" points="36.5,-45.0642 36.5,-64.0642 68.5,-64.0642 68.5,-45.0642 36.5,-45.0642"/>
<text text-anchor="middle" x="52.5" y="-52.0642" font-family="Helvetica,sans-Serif" font-size="10.00">real</text>
</g>
<!-- Node15&#45;&gt;Node1 -->
<g id="edge14" class="edge"><title>Node15&#45;&gt;Node1</title>
<path fill="none" stroke="#9a32cd" stroke-dasharray="5,2" d="M78.6665,-46.3964C113.316,-36.8719 175.759,-26.1287 214,-57.5642 267.648,-101.665 285.73,-333.717 289.629,-395.462"/>
<polygon fill="#9a32cd" stroke="#9a32cd" points="77.4776,-43.0974 68.863,-49.2651 79.4435,-49.8157 77.4776,-43.0974"/>
<text text-anchor="middle" x="168.5" y="-137.564" font-family="Helvetica,sans-Serif" font-size="10.00"> cau</text>
<text text-anchor="middle" x="168.5" y="-126.564" font-family="Helvetica,sans-Serif" font-size="10.00">cav</text>
<text text-anchor="middle" x="168.5" y="-115.564" font-family="Helvetica,sans-Serif" font-size="10.00">pfu</text>
<text text-anchor="middle" x="168.5" y="-104.564" font-family="Helvetica,sans-Serif" font-size="10.00">pfv</text>
<text text-anchor="middle" x="168.5" y="-93.5642" font-family="Helvetica,sans-Serif" font-size="10.00">diffu</text>
<text text-anchor="middle" x="168.5" y="-82.5642" font-family="Helvetica,sans-Serif" font-size="10.00">diffv</text>
<text text-anchor="middle" x="168.5" y="-71.5642" font-family="Helvetica,sans-Serif" font-size="10.00">taux_bot</text>
<text text-anchor="middle" x="168.5" y="-60.5642" font-family="Helvetica,sans-Serif" font-size="10.00">tauy_bot</text>
</g>
<!-- Node16 -->
<g id="node16" class="node"><title>Node16</title>
<polygon fill="white" stroke="#bfbfbf" points="10,-7.06425 10,-26.0642 95,-26.0642 95,-7.06425 10,-7.06425"/>
<text text-anchor="middle" x="52.5" y="-14.0642" font-family="Helvetica,sans-Serif" font-size="10.00">accel_diag_ptrs</text>
</g>
<!-- Node16&#45;&gt;Node1 -->
<g id="edge15" class="edge"><title>Node16&#45;&gt;Node1</title>
<path fill="none" stroke="#9a32cd" stroke-dasharray="5,2" d="M96.4551,-4.91493C132.138,1.96536 182.058,4.7103 214,-22.5642 272.217,-72.2753 287.058,-329.796 289.916,-395.363"/>
<polygon fill="#9a32cd" stroke="#9a32cd" points="95.3981,-1.56075 86.3352,-7.04843 96.8421,-8.41019 95.3981,-1.56075"/>
<text text-anchor="middle" x="168.5" y="-25.5642" font-family="Helvetica,sans-Serif" font-size="10.00"> adp</text>
</g>
</g>
</svg>
