<?xml version="1.0" encoding="UTF-8" standalone="no"?>
<!DOCTYPE svg PUBLIC "-//W3C//DTD SVG 1.1//EN"
 "http://www.w3.org/Graphics/SVG/1.1/DTD/svg11.dtd">
<!-- Generated by graphviz version 2.38.0 (20140413.2041)
 -->
<!-- Title: mom_eos_linear::calculate_specvol_derivs_linear Pages: 1 -->
<!--zoomable 78 -->
<svg id="main" version="1.1" xmlns="http://www.w3.org/2000/svg" xmlns:xlink="http://www.w3.org/1999/xlink" xml:space="preserve" onload="init(evt)">
<style type="text/css"><![CDATA[
.edge:hover path { stroke: red; }
.edge:hover polygon { stroke: red; fill: red; }
]]></style>
<script type="text/javascript"><![CDATA[
var edges = document.getElementsByTagName('g');
if (edges && edges.length) {
  for (var i=0;i<edges.length;i++) {
    if (edges[i].id.substr(0,4)=='edge') {
      edges[i].setAttribute('class','edge');
    }
  }
}
]]></script>
        <defs>
                <circle id="rim" cx="0" cy="0" r="7"/>
                <circle id="rim2" cx="0" cy="0" r="3.5"/>
                <g id="zoomPlus">
                        <use xlink:href="#rim" fill="#404040">
                                <set attributeName="fill" to="#808080" begin="zoomplus.mouseover" end="zoomplus.mouseout"/>
                        </use>
                        <path d="M-4,0h8M0,-4v8" fill="none" stroke="white" stroke-width="1.5" pointer-events="none"/>
                </g>
                <g id="zoomMin">
                        <use xlink:href="#rim" fill="#404040">
                                <set attributeName="fill" to="#808080" begin="zoomminus.mouseover" end="zoomminus.mouseout"/>
                        </use>
                        <path d="M-4,0h8" fill="none" stroke="white" stroke-width="1.5" pointer-events="none"/>
                </g>
                <g id="dirArrow">
                        <path fill="none" stroke="white" stroke-width="1.5" d="M0,-3.0v7 M-2.5,-0.5L0,-3.0L2.5,-0.5"/>
                </g>
               <g id="resetDef">
                       <use xlink:href="#rim2" fill="#404040">
                               <set attributeName="fill" to="#808080" begin="reset.mouseover" end="reset.mouseout"/>
                       </use>
               </g>
        </defs>

<script type="text/javascript">
var viewWidth = 840;
var viewHeight = 78;
var sectionId = 'dynsection-5';
</script>
<script xlink:href="../../svgpan.js"/>
<svg id="graph" class="graph">
<g id="viewport">
<title>mom_eos_linear::calculate_specvol_derivs_linear</title>
<polygon fill="white" stroke="none" points="-4,4 -4,-73.5 836,-73.5 836,4 -4,4"/>
<!-- Node53 -->
<g id="node1" class="node"><title>Node53</title>
<polygon fill="#bfbfbf" stroke="black" points="0,-22.5 0,-52.5 133,-52.5 133,-22.5 0,-22.5"/>
<text text-anchor="start" x="8" y="-40.5" font-family="Helvetica,sans-Serif" font-size="10.00">mom_eos_linear::calculate</text>
<text text-anchor="middle" x="66.5" y="-29.5" font-family="Helvetica,sans-Serif" font-size="10.00">_specvol_derivs_linear</text>
</g>
<!-- Node54 -->
<g id="node2" class="node"><title>Node54</title>
<g id="a_node2"><a xlink:href="../../d1/d01/namespacemom__eos.html#ab6ed65d2df376be9bbea2050f50fe46e" target="_top" xlink:title="Calls the appropriate subroutine to calculate specific volume derivatives for an array. ">
<polygon fill="white" stroke="black" points="169,-22.5 169,-52.5 274,-52.5 274,-22.5 169,-22.5"/>
<text text-anchor="start" x="177" y="-40.5" font-family="Helvetica,sans-Serif" font-size="10.00">mom_eos::calculate</text>
<text text-anchor="middle" x="221.5" y="-29.5" font-family="Helvetica,sans-Serif" font-size="10.00">_specific_vol_derivs</text>
</a>
</g>
</g>
<!-- Node53&#45;&gt;Node54 -->
<g id="edge1" class="edge"><title>Node53&#45;&gt;Node54</title>
<path fill="none" stroke="midnightblue" d="M143.308,-37.5C151.882,-37.5 160.468,-37.5 168.634,-37.5"/>
<polygon fill="midnightblue" stroke="midnightblue" points="143.274,-34.0001 133.274,-37.5 143.274,-41.0001 143.274,-34.0001"/>
</g>
<!-- Node55 -->
<g id="node3" class="node"><title>Node55</title>
<g id="a_node3"><a xlink:href="../../d7/d3b/namespacemom__diabatic__aux.html#a44d0243253dc728f6d1d1dced76883f3" target="_top" xlink:title="Update the thickness, temperature, and salinity due to thermodynamic boundary forcing (contained in f...">
<polygon fill="white" stroke="black" points="474,-50 474,-69 689,-69 689,-50 474,-50"/>
<text text-anchor="middle" x="581.5" y="-57" font-family="Helvetica,sans-Serif" font-size="10.00">mom_diabatic_aux::applyboundaryfluxesinout</text>
</a>
</g>
</g>
<!-- Node54&#45;&gt;Node55 -->
<g id="edge2" class="edge"><title>Node54&#45;&gt;Node55</title>
<path fill="none" stroke="midnightblue" d="M284.259,-41.2953C336.316,-44.4943 411.991,-49.1447 473.824,-52.9445"/>
<polygon fill="midnightblue" stroke="midnightblue" points="284.37,-37.7955 274.174,-40.6755 283.94,-44.7824 284.37,-37.7955"/>
</g>
<!-- Node57 -->
<g id="node5" class="node"><title>Node57</title>
<g id="a_node5"><a xlink:href="../../d7/daa/namespacemom__diapyc__energy__req.html#ae781d0079acfadcd996aaff8d63957da" target="_top" xlink:title="mom_diapyc_energy_req\l::diapyc_energy_req_calc">
<polygon fill="white" stroke="black" points="310,-0.5 310,-30.5 438,-30.5 438,-0.5 310,-0.5"/>
<text text-anchor="start" x="318" y="-18.5" font-family="Helvetica,sans-Serif" font-size="10.00">mom_diapyc_energy_req</text>
<text text-anchor="middle" x="374" y="-7.5" font-family="Helvetica,sans-Serif" font-size="10.00">::diapyc_energy_req_calc</text>
</a>
</g>
</g>
<!-- Node54&#45;&gt;Node57 -->
<g id="edge4" class="edge"><title>Node54&#45;&gt;Node57</title>
<path fill="none" stroke="midnightblue" d="M284.421,-28.4484C292.842,-27.2175 301.492,-25.953 309.932,-24.7192"/>
<polygon fill="midnightblue" stroke="midnightblue" points="283.682,-25.0191 274.294,-29.9288 284.695,-31.9455 283.682,-25.0191"/>
</g>
<!-- Node56 -->
<g id="node4" class="node"><title>Node56</title>
<g id="a_node4"><a xlink:href="../../d8/df3/namespacemom__diabatic__driver.html#a61e57d3902367aa46aa3c2d949ee900f" target="_top" xlink:title="This subroutine imposes the diapycnal mass fluxes and the accompanying diapycnal advection of momentu...">
<polygon fill="white" stroke="black" points="725,-22.5 725,-52.5 832,-52.5 832,-22.5 725,-22.5"/>
<text text-anchor="start" x="733" y="-40.5" font-family="Helvetica,sans-Serif" font-size="10.00">mom_diabatic_driver</text>
<text text-anchor="middle" x="778.5" y="-29.5" font-family="Helvetica,sans-Serif" font-size="10.00">::diabatic</text>
</a>
</g>
</g>
<!-- Node55&#45;&gt;Node56 -->
<g id="edge3" class="edge"><title>Node55&#45;&gt;Node56</title>
<path fill="none" stroke="midnightblue" d="M677.08,-48.8294C693.487,-46.9784 710.004,-45.1149 724.771,-43.4489"/>
<polygon fill="midnightblue" stroke="midnightblue" points="676.44,-45.3793 666.896,-49.9784 677.225,-52.3352 676.44,-45.3793"/>
</g>
<!-- Node58 -->
<g id="node6" class="node"><title>Node58</title>
<g id="a_node6"><a xlink:href="../../d7/daa/namespacemom__diapyc__energy__req.html#afe7d4fc70231c1812ffd38faef76558e" target="_top" xlink:title="mom_diapyc_energy_req\l::diapyc_energy_req_test">
<polygon fill="white" stroke="black" points="518.5,-0.5 518.5,-30.5 644.5,-30.5 644.5,-0.5 518.5,-0.5"/>
<text text-anchor="start" x="526.5" y="-18.5" font-family="Helvetica,sans-Serif" font-size="10.00">mom_diapyc_energy_req</text>
<text text-anchor="middle" x="581.5" y="-7.5" font-family="Helvetica,sans-Serif" font-size="10.00">::diapyc_energy_req_test</text>
</a>
</g>
</g>
<!-- Node57&#45;&gt;Node58 -->
<g id="edge5" class="edge"><title>Node57&#45;&gt;Node58</title>
<path fill="none" stroke="midnightblue" d="M448.084,-15.5C471.035,-15.5 496.146,-15.5 518.272,-15.5"/>
<polygon fill="midnightblue" stroke="midnightblue" points="448.053,-12.0001 438.053,-15.5 448.053,-19.0001 448.053,-12.0001"/>
</g>
<!-- Node58&#45;&gt;Node56 -->
<g id="edge6" class="edge"><title>Node58&#45;&gt;Node56</title>
<path fill="none" stroke="midnightblue" d="M654.863,-23.664C678.018,-26.2763 703.202,-29.1177 724.691,-31.5421"/>
<polygon fill="midnightblue" stroke="midnightblue" points="655.065,-20.1647 644.735,-22.5214 654.28,-27.1205 655.065,-20.1647"/>
</g>
</g>
</svg>
        <g id="navigator" transform="translate(0 0)" fill="#404254">
                <rect fill="#f2f5e9" fill-opacity="0.5" stroke="#606060" stroke-width=".5" x="0" y="0" width="60" height="60"/>
                <use id="zoomplus" xlink:href="#zoomPlus" x="17" y="9" onmousedown="handleZoom(evt,'in')"/>
                <use id="zoomminus" xlink:href="#zoomMin" x="42" y="9" onmousedown="handleZoom(evt,'out')"/>
                <use id="reset" xlink:href="#resetDef" x="30" y="36" onmousedown="handleReset()"/>
                <g id="arrowUp" xlink:href="#dirArrow" transform="translate(30 24)" onmousedown="handlePan(0,-1)">
                  <use xlink:href="#rim" fill="#404040">
                        <set attributeName="fill" to="#808080" begin="arrowUp.mouseover" end="arrowUp.mouseout"/>
                  </use>
                  <path fill="none" stroke="white" stroke-width="1.5" d="M0,-3.0v7 M-2.5,-0.5L0,-3.0L2.5,-0.5"/>
                </g>
                <g id="arrowRight" xlink:href="#dirArrow" transform="rotate(90) translate(36 -43)" onmousedown="handlePan(1,0)">
                  <use xlink:href="#rim" fill="#404040">
                        <set attributeName="fill" to="#808080" begin="arrowRight.mouseover" end="arrowRight.mouseout"/>
                  </use>
                  <path fill="none" stroke="white" stroke-width="1.5" d="M0,-3.0v7 M-2.5,-0.5L0,-3.0L2.5,-0.5"/>
                </g>
                <g id="arrowDown" xlink:href="#dirArrow" transform="rotate(180) translate(-30 -48)" onmousedown="handlePan(0,1)">
                  <use xlink:href="#rim" fill="#404040">
                        <set attributeName="fill" to="#808080" begin="arrowDown.mouseover" end="arrowDown.mouseout"/>
                  </use>
                  <path fill="none" stroke="white" stroke-width="1.5" d="M0,-3.0v7 M-2.5,-0.5L0,-3.0L2.5,-0.5"/>
                </g>
                <g id="arrowLeft" xlink:href="#dirArrow" transform="rotate(270) translate(-36 17)" onmousedown="handlePan(-1,0)">
                  <use xlink:href="#rim" fill="#404040">
                        <set attributeName="fill" to="#808080" begin="arrowLeft.mouseover" end="arrowLeft.mouseout"/>
                  </use>
                  <path fill="none" stroke="white" stroke-width="1.5" d="M0,-3.0v7 M-2.5,-0.5L0,-3.0L2.5,-0.5"/>
                </g>
        </g>
        <svg viewBox="0 0 15 15" width="100%" height="30px" preserveAspectRatio="xMaxYMin meet">
         <g id="arrow_out" transform="scale(0.3 0.3)">
          <a xlink:href="namespacemom__eos__linear_ac104dedf6f20ab794c2c430462ace217_icgraph_org.svg" target="_base">
           <rect id="button" ry="5" rx="5" y="6" x="6" height="38" width="38"
                fill="#f2f5e9" fill-opacity="0.5" stroke="#606060" stroke-width="1.0"/>
           <path id="arrow"
             d="M 11.500037,31.436501 C 11.940474,20.09759 22.043105,11.32322 32.158766,21.979434 L 37.068811,17.246167 C 37.068811,17.246167 37.088388,32 37.088388,32 L 22.160133,31.978069 C 22.160133,31.978069 26.997745,27.140456 26.997745,27.140456 C 18.528582,18.264221 13.291696,25.230495 11.500037,31.436501 z"
             style="fill:#404040;"/>
          </a>
         </g>
        </svg>
</svg>
