<?xml version="1.0" encoding="UTF-8" standalone="no"?>
<!DOCTYPE svg PUBLIC "-//W3C//DTD SVG 1.1//EN"
 "http://www.w3.org/Graphics/SVG/1.1/DTD/svg11.dtd">
<!-- Generated by graphviz version 2.38.0 (20140413.2041)
 -->
<!-- Title: mom_eos_linear::calculate_density_array_linear Pages: 1 -->
<svg width="595pt" height="83pt"
 viewBox="0.00 0.00 595.00 83.00" xmlns="http://www.w3.org/2000/svg" xmlns:xlink="http://www.w3.org/1999/xlink">
<g id="graph0" class="graph" transform="scale(1 1) rotate(0) translate(4 79)">
<title>mom_eos_linear::calculate_density_array_linear</title>
<polygon fill="white" stroke="none" points="-4,4 -4,-79 591,-79 591,4 -4,4"/>
<!-- Node7 -->
<g id="node1" class="node"><title>Node7</title>
<polygon fill="#bfbfbf" stroke="black" points="0,-22.5 0,-52.5 133,-52.5 133,-22.5 0,-22.5"/>
<text text-anchor="start" x="8" y="-40.5" font-family="Helvetica,sans-Serif" font-size="10.00">mom_eos_linear::calculate</text>
<text text-anchor="middle" x="66.5" y="-29.5" font-family="Helvetica,sans-Serif" font-size="10.00">_density_array_linear</text>
</g>
<!-- Node8 -->
<g id="node2" class="node"><title>Node8</title>
<g id="a_node2"><a xlink:href="../../d1/d01/namespacemom__eos.html#a4fe43b1b2cd799d87411aa66e1d10ab5" target="_top" xlink:title="Calls the appropriate subroutine to calculate the density of sea water for 1&#45;D array inputs...">
<polygon fill="white" stroke="black" points="169,-22.5 169,-52.5 273,-52.5 273,-22.5 169,-22.5"/>
<text text-anchor="start" x="177" y="-40.5" font-family="Helvetica,sans-Serif" font-size="10.00">mom_eos::calculate</text>
<text text-anchor="middle" x="221" y="-29.5" font-family="Helvetica,sans-Serif" font-size="10.00">_density_array</text>
</a>
</g>
</g>
<!-- Node7&#45;&gt;Node8 -->
<g id="edge1" class="edge"><title>Node7&#45;&gt;Node8</title>
<path fill="none" stroke="midnightblue" d="M143.198,-37.5C151.861,-37.5 160.534,-37.5 168.769,-37.5"/>
<polygon fill="midnightblue" stroke="midnightblue" points="143.059,-34.0001 133.059,-37.5 143.059,-41.0001 143.059,-34.0001"/>
</g>
<!-- Node9 -->
<g id="node3" class="node"><title>Node9</title>
<g id="a_node3"><a xlink:href="../../d1/d01/namespacemom__eos.html#a82d46c07f4f9c7ad5930fa2508c3e280" target="_top" xlink:title="Returns change in anomalous pressure change from top to non&#45;dimensional position pos between z_t and ...">
<polygon fill="white" stroke="black" points="309,-50 309,-69 441,-69 441,-50 309,-50"/>
<text text-anchor="middle" x="375" y="-57" font-family="Helvetica,sans-Serif" font-size="10.00">mom_eos::frac_dp_at_pos</text>
</a>
</g>
</g>
<!-- Node8&#45;&gt;Node9 -->
<g id="edge2" class="edge"><title>Node8&#45;&gt;Node9</title>
<path fill="none" stroke="midnightblue" d="M283.168,-46.3533C291.602,-47.5739 300.289,-48.8312 308.792,-50.0619"/>
<polygon fill="midnightblue" stroke="midnightblue" points="283.435,-42.8555 273.037,-44.8869 282.432,-49.7833 283.435,-42.8555"/>
</g>
<!-- Node11 -->
<g id="node5" class="node"><title>Node11</title>
<g id="a_node5"><a xlink:href="../../d1/d01/namespacemom__eos.html#a635b77946d77cad1ae90344832724a18" target="_top" xlink:title="mom_eos::int_density\l_dz_generic_plm">
<polygon fill="white" stroke="black" points="318.5,-0.5 318.5,-30.5 431.5,-30.5 431.5,-0.5 318.5,-0.5"/>
<text text-anchor="start" x="326.5" y="-18.5" font-family="Helvetica,sans-Serif" font-size="10.00">mom_eos::int_density</text>
<text text-anchor="middle" x="375" y="-7.5" font-family="Helvetica,sans-Serif" font-size="10.00">_dz_generic_plm</text>
</a>
</g>
</g>
<!-- Node8&#45;&gt;Node11 -->
<g id="edge4" class="edge"><title>Node8&#45;&gt;Node11</title>
<path fill="none" stroke="midnightblue" d="M283.127,-28.6527C294.784,-26.9655 306.926,-25.208 318.399,-23.5475"/>
<polygon fill="midnightblue" stroke="midnightblue" points="282.432,-25.2167 273.037,-30.1131 283.435,-32.1445 282.432,-25.2167"/>
</g>
<!-- Node10 -->
<g id="node4" class="node"><title>Node10</title>
<g id="a_node4"><a xlink:href="../../d1/d01/namespacemom__eos.html#a98a25c2517647778ccc6d46bbccc15e9" target="_top" xlink:title="Find the depth at which the reconstructed pressure matches P_tgt. ">
<polygon fill="white" stroke="black" points="477,-44.5 477,-74.5 587,-74.5 587,-44.5 477,-44.5"/>
<text text-anchor="start" x="485" y="-62.5" font-family="Helvetica,sans-Serif" font-size="10.00">mom_eos::find_depth</text>
<text text-anchor="middle" x="532" y="-51.5" font-family="Helvetica,sans-Serif" font-size="10.00">_of_pressure_in_cell</text>
</a>
</g>
</g>
<!-- Node9&#45;&gt;Node10 -->
<g id="edge3" class="edge"><title>Node9&#45;&gt;Node10</title>
<path fill="none" stroke="midnightblue" d="M451.542,-59.5C459.986,-59.5 468.461,-59.5 476.566,-59.5"/>
<polygon fill="midnightblue" stroke="midnightblue" points="451.285,-56.0001 441.285,-59.5 451.285,-63.0001 451.285,-56.0001"/>
</g>
</g>
</svg>
