<?xml version="1.0" encoding="UTF-8" standalone="no"?>
<!DOCTYPE svg PUBLIC "-//W3C//DTD SVG 1.1//EN"
 "http://www.w3.org/Graphics/SVG/1.1/DTD/svg11.dtd">
<!-- Generated by graphviz version 2.38.0 (20140413.2041)
 -->
<!-- Title: mom_eos_linear::calculate_density_derivs_linear Pages: 1 -->
<!--zoomable 913 -->
<svg id="main" version="1.1" xmlns="http://www.w3.org/2000/svg" xmlns:xlink="http://www.w3.org/1999/xlink" xml:space="preserve" onload="init(evt)">
<style type="text/css"><![CDATA[
.edge:hover path { stroke: red; }
.edge:hover polygon { stroke: red; fill: red; }
]]></style>
<script type="text/javascript"><![CDATA[
var edges = document.getElementsByTagName('g');
if (edges && edges.length) {
  for (var i=0;i<edges.length;i++) {
    if (edges[i].id.substr(0,4)=='edge') {
      edges[i].setAttribute('class','edge');
    }
  }
}
]]></script>
        <defs>
                <circle id="rim" cx="0" cy="0" r="7"/>
                <circle id="rim2" cx="0" cy="0" r="3.5"/>
                <g id="zoomPlus">
                        <use xlink:href="#rim" fill="#404040">
                                <set attributeName="fill" to="#808080" begin="zoomplus.mouseover" end="zoomplus.mouseout"/>
                        </use>
                        <path d="M-4,0h8M0,-4v8" fill="none" stroke="white" stroke-width="1.5" pointer-events="none"/>
                </g>
                <g id="zoomMin">
                        <use xlink:href="#rim" fill="#404040">
                                <set attributeName="fill" to="#808080" begin="zoomminus.mouseover" end="zoomminus.mouseout"/>
                        </use>
                        <path d="M-4,0h8" fill="none" stroke="white" stroke-width="1.5" pointer-events="none"/>
                </g>
                <g id="dirArrow">
                        <path fill="none" stroke="white" stroke-width="1.5" d="M0,-3.0v7 M-2.5,-0.5L0,-3.0L2.5,-0.5"/>
                </g>
               <g id="resetDef">
                       <use xlink:href="#rim2" fill="#404040">
                               <set attributeName="fill" to="#808080" begin="reset.mouseover" end="reset.mouseout"/>
                       </use>
               </g>
        </defs>

<script type="text/javascript">
var viewWidth = 1032;
var viewHeight = 913;
var sectionId = 'dynsection-3';
</script>
<script xlink:href="../../svgpan.js"/>
<svg id="graph" class="graph">
<g id="viewport">
<title>mom_eos_linear::calculate_density_derivs_linear</title>
<polygon fill="white" stroke="none" points="-4,4 -4,-909.45 1028,-909.45 1028,4 -4,4"/>
<!-- Node13 -->
<g id="node1" class="node"><title>Node13</title>
<polygon fill="#bfbfbf" stroke="black" points="0,-481.5 0,-511.5 133,-511.5 133,-481.5 0,-481.5"/>
<text text-anchor="start" x="8" y="-499.5" font-family="Helvetica,sans-Serif" font-size="10.00">mom_eos_linear::calculate</text>
<text text-anchor="middle" x="66.5" y="-488.5" font-family="Helvetica,sans-Serif" font-size="10.00">_density_derivs_linear</text>
</g>
<!-- Node14 -->
<g id="node2" class="node"><title>Node14</title>
<g id="a_node2"><a xlink:href="../../d1/d01/namespacemom__eos.html#a204529f8434a0322314e6ce2a9762436" target="_top" xlink:title="Calls the appropriate subroutine to calculate density derivatives for 1&#45;D array inputs. ">
<polygon fill="white" stroke="black" points="169,-481.5 169,-511.5 273,-511.5 273,-481.5 169,-481.5"/>
<text text-anchor="start" x="177" y="-499.5" font-family="Helvetica,sans-Serif" font-size="10.00">mom_eos::calculate</text>
<text text-anchor="middle" x="221" y="-488.5" font-family="Helvetica,sans-Serif" font-size="10.00">_density_derivs</text>
</a>
</g>
</g>
<!-- Node13&#45;&gt;Node14 -->
<g id="edge1" class="edge"><title>Node13&#45;&gt;Node14</title>
<path fill="none" stroke="midnightblue" d="M143.198,-496.5C151.861,-496.5 160.534,-496.5 168.769,-496.5"/>
<polygon fill="midnightblue" stroke="midnightblue" points="143.059,-493 133.059,-496.5 143.059,-500 143.059,-493"/>
</g>
<!-- Node15 -->
<g id="node3" class="node"><title>Node15</title>
<g id="a_node3"><a xlink:href="../../da/d42/namespacebenchmark__initialization.html#a90737806bc1ea923d7698ff7ecd1d8eb" target="_top" xlink:title="This function puts the initial layer temperatures and salinities into T(:,:,:) and S(:...">
<polygon fill="white" stroke="black" points="587,-854 587,-895 733,-895 733,-854 587,-854"/>
<text text-anchor="start" x="595" y="-883" font-family="Helvetica,sans-Serif" font-size="10.00">benchmark_initialization</text>
<text text-anchor="start" x="595" y="-872" font-family="Helvetica,sans-Serif" font-size="10.00">::benchmark_init_temperature</text>
<text text-anchor="middle" x="660" y="-861" font-family="Helvetica,sans-Serif" font-size="10.00">_salinity</text>
</a>
</g>
</g>
<!-- Node14&#45;&gt;Node15 -->
<g id="edge2" class="edge"><title>Node14&#45;&gt;Node15</title>
<path fill="none" stroke="midnightblue" d="M224.33,-522.204C231.684,-597.056 257.054,-812.309 309,-855.5 386.089,-919.597 508.913,-909.063 586.679,-893.41"/>
<polygon fill="midnightblue" stroke="midnightblue" points="227.774,-521.451 223.339,-511.829 220.806,-522.116 227.774,-521.451"/>
</g>
<!-- Node17 -->
<g id="node5" class="node"><title>Node17</title>
<g id="a_node5"><a xlink:href="../../da/d42/namespacebenchmark__initialization.html#aefce536aee33c71ce3b914d0cabc7c31" target="_top" xlink:title="This subroutine initializes layer thicknesses for the benchmark test case, by finding the depths of i...">
<polygon fill="white" stroke="black" points="353.5,-695 353.5,-736 474.5,-736 474.5,-695 353.5,-695"/>
<text text-anchor="start" x="361.5" y="-724" font-family="Helvetica,sans-Serif" font-size="10.00">benchmark_initialization</text>
<text text-anchor="start" x="361.5" y="-713" font-family="Helvetica,sans-Serif" font-size="10.00">::benchmark_initialize</text>
<text text-anchor="middle" x="414" y="-702" font-family="Helvetica,sans-Serif" font-size="10.00">_thickness</text>
</a>
</g>
</g>
<!-- Node14&#45;&gt;Node17 -->
<g id="edge4" class="edge"><title>Node14&#45;&gt;Node17</title>
<path fill="none" stroke="midnightblue" d="M226.694,-521.532C235.556,-561.799 258.58,-640.852 309,-684.5 321.464,-695.29 337.557,-702.326 353.343,-706.913"/>
<polygon fill="midnightblue" stroke="midnightblue" points="230.116,-520.794 224.648,-511.719 223.263,-522.223 230.116,-520.794"/>
</g>
<!-- Node18 -->
<g id="node6" class="node"><title>Node18</title>
<g id="a_node6"><a xlink:href="../../d6/d4c/namespacemom__isopycnal__slopes.html#ad8b145434d470eceaf9a151a65a74dd5" target="_top" xlink:title="mom_isopycnal_slopes\l::calc_isoneutral_slopes">
<polygon fill="white" stroke="black" points="353,-645.5 353,-675.5 475,-675.5 475,-645.5 353,-645.5"/>
<text text-anchor="start" x="361" y="-663.5" font-family="Helvetica,sans-Serif" font-size="10.00">mom_isopycnal_slopes</text>
<text text-anchor="middle" x="414" y="-652.5" font-family="Helvetica,sans-Serif" font-size="10.00">::calc_isoneutral_slopes</text>
</a>
</g>
</g>
<!-- Node14&#45;&gt;Node18 -->
<g id="edge5" class="edge"><title>Node14&#45;&gt;Node18</title>
<path fill="none" stroke="midnightblue" d="M230.652,-521.16C243.004,-552.656 268.756,-606.542 309,-635.5 321.812,-644.719 337.582,-650.572 352.932,-654.278"/>
<polygon fill="midnightblue" stroke="midnightblue" points="233.917,-519.9 227.11,-511.78 227.368,-522.372 233.917,-519.9"/>
</g>
<!-- Node20 -->
<g id="node8" class="node"><title>Node20</title>
<g id="a_node8"><a xlink:href="../../d8/d95/namespacemom__kappa__shear.html#a84a0a23b1cb6df3e8613fdd7853cb495" target="_top" xlink:title="mom_kappa_shear::calculate\l_kappa_shear">
<polygon fill="white" stroke="black" points="342,-596.5 342,-626.5 486,-626.5 486,-596.5 342,-596.5"/>
<text text-anchor="start" x="350" y="-614.5" font-family="Helvetica,sans-Serif" font-size="10.00">mom_kappa_shear::calculate</text>
<text text-anchor="middle" x="414" y="-603.5" font-family="Helvetica,sans-Serif" font-size="10.00">_kappa_shear</text>
</a>
</g>
</g>
<!-- Node14&#45;&gt;Node20 -->
<g id="edge7" class="edge"><title>Node14&#45;&gt;Node20</title>
<path fill="none" stroke="midnightblue" d="M238.589,-520.07C254.361,-540.7 279.942,-569.896 309,-586.5 319.077,-592.258 330.433,-596.695 341.842,-600.112"/>
<polygon fill="midnightblue" stroke="midnightblue" points="241.226,-517.75 232.449,-511.815 235.609,-521.927 241.226,-517.75"/>
</g>
<!-- Node22 -->
<g id="node10" class="node"><title>Node22</title>
<g id="a_node10"><a xlink:href="../../dd/dc3/namespacemom__forcing__type.html#a2bb917f3d8bcdcf4f5bf49c435992640" target="_top" xlink:title="This routine calculates surface buoyancy flux by adding up the heat, FW &amp; salt fluxes. These are actual fluxes, with units of stuff per time. Setting dt=1 in the call to extractFluxes routine allows us to get &quot;stuf per time&quot; rather than the time integrated fluxes needed in other routines that call extractFluxes. ">
<polygon fill="white" stroke="black" points="309,-509 309,-528 519,-528 519,-509 309,-509"/>
<text text-anchor="middle" x="414" y="-516" font-family="Helvetica,sans-Serif" font-size="10.00">mom_forcing_type::calculatebuoyancyflux1d</text>
</a>
</g>
</g>
<!-- Node14&#45;&gt;Node22 -->
<g id="edge9" class="edge"><title>Node14&#45;&gt;Node22</title>
<path fill="none" stroke="midnightblue" d="M283.317,-503.563C298.282,-505.286 314.537,-507.159 330.316,-508.976"/>
<polygon fill="midnightblue" stroke="midnightblue" points="283.519,-500.063 273.184,-502.396 282.718,-507.017 283.519,-500.063"/>
</g>
<!-- Node25 -->
<g id="node13" class="node"><title>Node25</title>
<g id="a_node13"><a xlink:href="../../d1/da5/namespacemidas__vertmap.html#aaa8a9e13494c4d80d09c162e0a02d6eb" target="_top" xlink:title="midas_vertmap::determine\l_temperature">
<polygon fill="white" stroke="black" points="348,-815.5 348,-845.5 480,-845.5 480,-815.5 348,-815.5"/>
<text text-anchor="start" x="356" y="-833.5" font-family="Helvetica,sans-Serif" font-size="10.00">midas_vertmap::determine</text>
<text text-anchor="middle" x="414" y="-822.5" font-family="Helvetica,sans-Serif" font-size="10.00">_temperature</text>
</a>
</g>
</g>
<!-- Node14&#45;&gt;Node25 -->
<g id="edge12" class="edge"><title>Node14&#45;&gt;Node25</title>
<path fill="none" stroke="midnightblue" d="M221.148,-521.953C220.644,-580.891 228.072,-727.632 309,-805.5 319.571,-815.672 333.522,-821.946 347.76,-825.76"/>
<polygon fill="midnightblue" stroke="midnightblue" points="224.651,-521.753 221.326,-511.694 217.652,-521.631 224.651,-521.753"/>
</g>
<!-- Node27 -->
<g id="node15" class="node"><title>Node27</title>
<g id="a_node15"><a xlink:href="../../da/d32/namespacemom__entrain__diffusive.html#acf36bae78e6175d37c3de0d61b0ac32f" target="_top" xlink:title="mom_entrain_diffusive\l::entrainment_diffusive">
<polygon fill="white" stroke="black" points="356,-459.5 356,-489.5 472,-489.5 472,-459.5 356,-459.5"/>
<text text-anchor="start" x="364" y="-477.5" font-family="Helvetica,sans-Serif" font-size="10.00">mom_entrain_diffusive</text>
<text text-anchor="middle" x="414" y="-466.5" font-family="Helvetica,sans-Serif" font-size="10.00">::entrainment_diffusive</text>
</a>
</g>
</g>
<!-- Node14&#45;&gt;Node27 -->
<g id="edge15" class="edge"><title>Node14&#45;&gt;Node27</title>
<path fill="none" stroke="midnightblue" d="M283.305,-489.439C306.613,-486.754 333.052,-483.709 355.95,-481.071"/>
<polygon fill="midnightblue" stroke="midnightblue" points="282.718,-485.983 273.184,-490.604 283.519,-492.937 282.718,-485.983"/>
</g>
<!-- Node28 -->
<g id="node16" class="node"><title>Node28</title>
<g id="a_node16"><a xlink:href="../../d0/d77/namespacemom__int__tide__input.html#a66b16dd9f27c4131d8bd37886b947721" target="_top" xlink:title="mom_int_tide_input\l::find_n2_bottom">
<polygon fill="white" stroke="black" points="363.5,-410.5 363.5,-440.5 464.5,-440.5 464.5,-410.5 363.5,-410.5"/>
<text text-anchor="start" x="371.5" y="-428.5" font-family="Helvetica,sans-Serif" font-size="10.00">mom_int_tide_input</text>
<text text-anchor="middle" x="414" y="-417.5" font-family="Helvetica,sans-Serif" font-size="10.00">::find_n2_bottom</text>
</a>
</g>
</g>
<!-- Node14&#45;&gt;Node28 -->
<g id="edge16" class="edge"><title>Node14&#45;&gt;Node28</title>
<path fill="none" stroke="midnightblue" d="M254.804,-476.063C270.694,-466.879 290.339,-456.547 309,-449.5 326.249,-442.987 345.8,-437.911 363.258,-434.139"/>
<polygon fill="midnightblue" stroke="midnightblue" points="252.753,-473.209 245.917,-481.304 256.309,-479.239 252.753,-473.209"/>
</g>
<!-- Node30 -->
<g id="node18" class="node"><title>Node30</title>
<g id="a_node18"><a xlink:href="../../d7/d55/namespaceisomip__initialization.html#ae66f2df6194791a13d91ca94ce89a8f3" target="_top" xlink:title="Initial values for temperature and salinity. ">
<polygon fill="white" stroke="black" points="339.5,-755 339.5,-796 488.5,-796 488.5,-755 339.5,-755"/>
<text text-anchor="start" x="347.5" y="-784" font-family="Helvetica,sans-Serif" font-size="10.00">isomip_initialization</text>
<text text-anchor="start" x="347.5" y="-773" font-family="Helvetica,sans-Serif" font-size="10.00">::isomip_initialize_temperature</text>
<text text-anchor="middle" x="414" y="-762" font-family="Helvetica,sans-Serif" font-size="10.00">_salinity</text>
</a>
</g>
</g>
<!-- Node14&#45;&gt;Node30 -->
<g id="edge18" class="edge"><title>Node14&#45;&gt;Node30</title>
<path fill="none" stroke="midnightblue" d="M223.432,-521.9C227.65,-572.045 244.215,-684.202 309,-745.5 317.6,-753.637 328.265,-759.585 339.459,-763.93"/>
<polygon fill="midnightblue" stroke="midnightblue" points="226.901,-521.349 222.671,-511.635 219.92,-521.867 226.901,-521.349"/>
</g>
<!-- Node31 -->
<g id="node19" class="node"><title>Node31</title>
<g id="a_node19"><a xlink:href="../../d8/da4/namespacemom__neutral__diffusion.html#a53d5e3f8d7610b60644aaa9f44fd854e" target="_top" xlink:title="Calculate remapping factors for u/v columns used to map adjoining columns to a shared coordinate spac...">
<polygon fill="white" stroke="black" points="355.5,-350 355.5,-391 472.5,-391 472.5,-350 355.5,-350"/>
<text text-anchor="start" x="363.5" y="-379" font-family="Helvetica,sans-Serif" font-size="10.00">mom_neutral_diffusion</text>
<text text-anchor="start" x="363.5" y="-368" font-family="Helvetica,sans-Serif" font-size="10.00">::neutral_diffusion_calc</text>
<text text-anchor="middle" x="414" y="-357" font-family="Helvetica,sans-Serif" font-size="10.00">_coeffs</text>
</a>
</g>
</g>
<!-- Node14&#45;&gt;Node31 -->
<g id="edge20" class="edge"><title>Node14&#45;&gt;Node31</title>
<path fill="none" stroke="midnightblue" d="M237.431,-473.053C252.997,-451.193 278.975,-419.227 309,-400.5 322.951,-391.798 339.515,-385.54 355.276,-381.072"/>
<polygon fill="midnightblue" stroke="midnightblue" points="234.429,-471.24 231.606,-481.452 240.181,-475.229 234.429,-471.24"/>
</g>
<!-- Node33 -->
<g id="node21" class="node"><title>Node33</title>
<g id="a_node21"><a xlink:href="../../d6/d5d/namespacemom__set__visc.html#a9e73d0338646bb91d14b78e86f6e3886" target="_top" xlink:title="mom_set_visc::set_viscous_bbl">
<polygon fill="white" stroke="black" points="335.5,-312 335.5,-331 492.5,-331 492.5,-312 335.5,-312"/>
<text text-anchor="middle" x="414" y="-319" font-family="Helvetica,sans-Serif" font-size="10.00">mom_set_visc::set_viscous_bbl</text>
</a>
</g>
</g>
<!-- Node14&#45;&gt;Node33 -->
<g id="edge22" class="edge"><title>Node14&#45;&gt;Node33</title>
<path fill="none" stroke="midnightblue" d="M228.713,-471.144C239.444,-435.877 263.986,-372.73 309,-340.5 316.909,-334.837 326.002,-330.704 335.448,-327.711"/>
<polygon fill="midnightblue" stroke="midnightblue" points="225.241,-470.549 225.818,-481.128 231.964,-472.498 225.241,-470.549"/>
</g>
<!-- Node38 -->
<g id="node26" class="node"><title>Node38</title>
<g id="a_node26"><a xlink:href="../../d6/d5d/namespacemom__set__visc.html#afa97c345f1c4caaaf53b039d0b3fc9d8" target="_top" xlink:title="mom_set_visc::set_viscous_ml">
<polygon fill="white" stroke="black" points="336.5,-274 336.5,-293 491.5,-293 491.5,-274 336.5,-274"/>
<text text-anchor="middle" x="414" y="-281" font-family="Helvetica,sans-Serif" font-size="10.00">mom_set_visc::set_viscous_ml</text>
</a>
</g>
</g>
<!-- Node14&#45;&gt;Node38 -->
<g id="edge27" class="edge"><title>Node14&#45;&gt;Node38</title>
<path fill="none" stroke="midnightblue" d="M225.635,-471.546C233.145,-429.571 254.488,-345.242 309,-302.5 317.016,-296.214 326.445,-291.761 336.297,-288.641"/>
<polygon fill="midnightblue" stroke="midnightblue" points="222.17,-471.05 223.976,-481.49 229.074,-472.202 222.17,-471.05"/>
</g>
<!-- Node39 -->
<g id="node27" class="node"><title>Node39</title>
<g id="a_node27"><a xlink:href="../../d1/d75/namespacemom__thickness__diffuse.html#ad461e8977f22cd7488fb1925e58cf084" target="_top" xlink:title="Calculates parameterized layer transports for use in the continuity equation. Fluxes are limited to g...">
<polygon fill="white" stroke="black" points="354,-191.5 354,-221.5 474,-221.5 474,-191.5 354,-191.5"/>
<text text-anchor="start" x="362" y="-209.5" font-family="Helvetica,sans-Serif" font-size="10.00">mom_thickness_diffuse</text>
<text text-anchor="middle" x="414" y="-198.5" font-family="Helvetica,sans-Serif" font-size="10.00">::thickness_diffuse_full</text>
</a>
</g>
</g>
<!-- Node14&#45;&gt;Node39 -->
<g id="edge32" class="edge"><title>Node14&#45;&gt;Node39</title>
<path fill="none" stroke="midnightblue" d="M225.594,-471.397C233.321,-425.453 255.369,-326.843 309,-264.5 325.583,-245.223 350.239,-231.081 371.383,-221.589"/>
<polygon fill="midnightblue" stroke="midnightblue" points="222.12,-470.959 224.003,-481.386 229.032,-472.061 222.12,-470.959"/>
</g>
<!-- Node43 -->
<g id="node31" class="node"><title>Node43</title>
<g id="a_node31"><a xlink:href="../../dd/d33/namespacemom__wave__speed.html#a72302e356c47c5055ba0b1a8714c772a" target="_top" xlink:title="Calculates the wave speed of the first baroclinic mode. ">
<polygon fill="white" stroke="black" points="350,-110.5 350,-140.5 478,-140.5 478,-110.5 350,-110.5"/>
<text text-anchor="start" x="358" y="-128.5" font-family="Helvetica,sans-Serif" font-size="10.00">mom_wave_speed::wave</text>
<text text-anchor="middle" x="414" y="-117.5" font-family="Helvetica,sans-Serif" font-size="10.00">_speed</text>
</a>
</g>
</g>
<!-- Node14&#45;&gt;Node43 -->
<g id="edge36" class="edge"><title>Node14&#45;&gt;Node43</title>
<path fill="none" stroke="midnightblue" d="M222.492,-471.107C224.873,-413.391 238.053,-270.471 309,-181.5 323.959,-162.741 346.967,-149.432 367.543,-140.509"/>
<polygon fill="midnightblue" stroke="midnightblue" points="218.991,-471.056 222.153,-481.168 225.987,-471.291 218.991,-471.056"/>
</g>
<!-- Node46 -->
<g id="node34" class="node"><title>Node46</title>
<g id="a_node34"><a xlink:href="../../dd/d33/namespacemom__wave__speed.html#a0009abd8573168b780c95db2962982d6" target="_top" xlink:title="Calculates the wave speeds for the first few barolinic modes. ">
<polygon fill="white" stroke="black" points="350,-547.5 350,-577.5 478,-577.5 478,-547.5 350,-547.5"/>
<text text-anchor="start" x="358" y="-565.5" font-family="Helvetica,sans-Serif" font-size="10.00">mom_wave_speed::wave</text>
<text text-anchor="middle" x="414" y="-554.5" font-family="Helvetica,sans-Serif" font-size="10.00">_speeds</text>
</a>
</g>
</g>
<!-- Node14&#45;&gt;Node46 -->
<g id="edge40" class="edge"><title>Node14&#45;&gt;Node46</title>
<path fill="none" stroke="midnightblue" d="M259.407,-516.186C274.517,-523.59 292.303,-531.628 309,-537.5 322.051,-542.09 336.314,-546.125 349.978,-549.54"/>
<polygon fill="midnightblue" stroke="midnightblue" points="260.889,-513.014 250.378,-511.682 257.765,-519.278 260.889,-513.014"/>
</g>
<!-- Node47 -->
<g id="node35" class="node"><title>Node47</title>
<g id="a_node35"><a xlink:href="../../d4/d7e/namespacemom__wave__structure.html#a6dab6eaab930bb622d4462d5f51f8ab4" target="_top" xlink:title="mom_wave_structure\l::wave_structure">
<polygon fill="white" stroke="black" points="359,-31.5 359,-61.5 469,-61.5 469,-31.5 359,-31.5"/>
<text text-anchor="start" x="367" y="-49.5" font-family="Helvetica,sans-Serif" font-size="10.00">mom_wave_structure</text>
<text text-anchor="middle" x="414" y="-38.5" font-family="Helvetica,sans-Serif" font-size="10.00">::wave_structure</text>
</a>
</g>
</g>
<!-- Node14&#45;&gt;Node47 -->
<g id="edge42" class="edge"><title>Node14&#45;&gt;Node47</title>
<path fill="none" stroke="midnightblue" d="M224.795,-470.752C233.711,-392.582 263.589,-159.733 309,-100.5 322.74,-82.5784 344.117,-70.046 363.925,-61.5987"/>
<polygon fill="midnightblue" stroke="midnightblue" points="221.268,-470.796 223.632,-481.124 228.224,-471.576 221.268,-470.796"/>
</g>
<!-- Node16 -->
<g id="node4" class="node"><title>Node16</title>
<g id="a_node4"><a xlink:href="../../d6/d62/namespacemom__state__initialization.html#af4e854627c6572332ba3fd895f169321" target="_top" xlink:title="mom_state_initialization\l::mom_initialize_state">
<polygon fill="white" stroke="black" points="801,-804.5 801,-834.5 923,-834.5 923,-804.5 801,-804.5"/>
<text text-anchor="start" x="809" y="-822.5" font-family="Helvetica,sans-Serif" font-size="10.00">mom_state_initialization</text>
<text text-anchor="middle" x="862" y="-811.5" font-family="Helvetica,sans-Serif" font-size="10.00">::mom_initialize_state</text>
</a>
</g>
</g>
<!-- Node15&#45;&gt;Node16 -->
<g id="edge3" class="edge"><title>Node15&#45;&gt;Node16</title>
<path fill="none" stroke="midnightblue" d="M742.898,-851.978C764.202,-846.119 786.639,-839.949 806.167,-834.579"/>
<polygon fill="midnightblue" stroke="midnightblue" points="741.919,-848.617 733.205,-854.644 743.775,-855.367 741.919,-848.617"/>
</g>
<!-- Node19 -->
<g id="node7" class="node"><title>Node19</title>
<g id="a_node7"><a xlink:href="../../d0/d86/namespacemom__lateral__mixing__coeffs.html#a8abf768b636e96aafa9544287624523e" target="_top" xlink:title="Calculates and stores functions of isopycnal slopes, e.g. Sx, Sy, S*N, mostly used in the Visbeck et ...">
<polygon fill="white" stroke="black" points="608,-643 608,-684 712,-684 712,-643 608,-643"/>
<text text-anchor="start" x="616" y="-672" font-family="Helvetica,sans-Serif" font-size="10.00">mom_lateral_mixing</text>
<text text-anchor="start" x="616" y="-661" font-family="Helvetica,sans-Serif" font-size="10.00">_coeffs::calc_slope</text>
<text text-anchor="middle" x="660" y="-650" font-family="Helvetica,sans-Serif" font-size="10.00">_functions</text>
</a>
</g>
</g>
<!-- Node18&#45;&gt;Node19 -->
<g id="edge6" class="edge"><title>Node18&#45;&gt;Node19</title>
<path fill="none" stroke="midnightblue" d="M485.026,-661.361C524.234,-661.843 572.251,-662.433 607.899,-662.872"/>
<polygon fill="midnightblue" stroke="midnightblue" points="485.044,-657.861 475.002,-661.238 484.958,-664.861 485.044,-657.861"/>
</g>
<!-- Node21 -->
<g id="node9" class="node"><title>Node21</title>
<g id="a_node9"><a xlink:href="../../d3/d4b/namespacemom__set__diffusivity.html#a8b1f646393f0ec717ca690e4f04d96e8" target="_top" xlink:title="mom_set_diffusivity\l::set_diffusivity">
<polygon fill="white" stroke="black" points="608,-593.5 608,-623.5 712,-623.5 712,-593.5 608,-593.5"/>
<text text-anchor="start" x="616" y="-611.5" font-family="Helvetica,sans-Serif" font-size="10.00">mom_set_diffusivity</text>
<text text-anchor="middle" x="660" y="-600.5" font-family="Helvetica,sans-Serif" font-size="10.00">::set_diffusivity</text>
</a>
</g>
</g>
<!-- Node20&#45;&gt;Node21 -->
<g id="edge8" class="edge"><title>Node20&#45;&gt;Node21</title>
<path fill="none" stroke="midnightblue" d="M496.45,-610.499C533.248,-610.046 575.599,-609.525 607.846,-609.129"/>
<polygon fill="midnightblue" stroke="midnightblue" points="496.187,-607.001 486.231,-610.624 496.273,-614.001 496.187,-607.001"/>
</g>
<!-- Node23 -->
<g id="node11" class="node"><title>Node23</title>
<g id="a_node11"><a xlink:href="../../dd/dc3/namespacemom__forcing__type.html#ada776515b52ca3fa34901572cfef5858" target="_top" xlink:title="Calculates surface buoyancy flux by adding up the heat, FW and salt fluxes, for 2d arrays...">
<polygon fill="white" stroke="black" points="555,-515 555,-534 765,-534 765,-515 555,-515"/>
<text text-anchor="middle" x="660" y="-522" font-family="Helvetica,sans-Serif" font-size="10.00">mom_forcing_type::calculatebuoyancyflux2d</text>
</a>
</g>
</g>
<!-- Node22&#45;&gt;Node23 -->
<g id="edge10" class="edge"><title>Node22&#45;&gt;Node23</title>
<path fill="none" stroke="midnightblue" d="M529.453,-521.314C537.899,-521.522 546.394,-521.731 554.774,-521.937"/>
<polygon fill="midnightblue" stroke="midnightblue" points="529.269,-517.809 519.186,-521.062 529.097,-524.807 529.269,-517.809"/>
</g>
<!-- Node24 -->
<g id="node12" class="node"><title>Node24</title>
<g id="a_node12"><a xlink:href="../../d8/df3/namespacemom__diabatic__driver.html#a61e57d3902367aa46aa3c2d949ee900f" target="_top" xlink:title="This subroutine imposes the diapycnal mass fluxes and the accompanying diapycnal advection of momentu...">
<polygon fill="white" stroke="black" points="808.5,-528.5 808.5,-558.5 915.5,-558.5 915.5,-528.5 808.5,-528.5"/>
<text text-anchor="start" x="816.5" y="-546.5" font-family="Helvetica,sans-Serif" font-size="10.00">mom_diabatic_driver</text>
<text text-anchor="middle" x="862" y="-535.5" font-family="Helvetica,sans-Serif" font-size="10.00">::diabatic</text>
</a>
</g>
</g>
<!-- Node23&#45;&gt;Node24 -->
<g id="edge11" class="edge"><title>Node23&#45;&gt;Node24</title>
<path fill="none" stroke="midnightblue" d="M771.575,-535.005C784.355,-536.219 796.901,-537.411 808.367,-538.5"/>
<polygon fill="midnightblue" stroke="midnightblue" points="771.579,-531.489 761.293,-534.028 770.917,-538.458 771.579,-531.489"/>
</g>
<!-- Node26 -->
<g id="node14" class="node"><title>Node26</title>
<g id="a_node14"><a xlink:href="../../d6/d62/namespacemom__state__initialization.html#ae33403313da1b783a1ad980e10012f8e" target="_top" xlink:title="mom_state_initialization\l::mom_temp_salt_initialize_from_z">
<polygon fill="white" stroke="black" points="576,-804.5 576,-834.5 744,-834.5 744,-804.5 576,-804.5"/>
<text text-anchor="start" x="584" y="-822.5" font-family="Helvetica,sans-Serif" font-size="10.00">mom_state_initialization</text>
<text text-anchor="middle" x="660" y="-811.5" font-family="Helvetica,sans-Serif" font-size="10.00">::mom_temp_salt_initialize_from_z</text>
</a>
</g>
</g>
<!-- Node25&#45;&gt;Node26 -->
<g id="edge13" class="edge"><title>Node25&#45;&gt;Node26</title>
<path fill="none" stroke="midnightblue" d="M490.251,-827.108C517.321,-825.887 548.009,-824.504 575.722,-823.254"/>
<polygon fill="midnightblue" stroke="midnightblue" points="489.899,-823.62 480.067,-827.567 490.215,-830.613 489.899,-823.62"/>
</g>
<!-- Node26&#45;&gt;Node16 -->
<g id="edge14" class="edge"><title>Node26&#45;&gt;Node16</title>
<path fill="none" stroke="midnightblue" d="M754.385,-819.5C770.14,-819.5 786.115,-819.5 800.736,-819.5"/>
<polygon fill="midnightblue" stroke="midnightblue" points="754.081,-816 744.08,-819.5 754.08,-823 754.081,-816"/>
</g>
<!-- Node29 -->
<g id="node17" class="node"><title>Node29</title>
<g id="a_node17"><a xlink:href="../../d0/d77/namespacemom__int__tide__input.html#a085f75d081e7a3091ad5bdfe91858714" target="_top" xlink:title="mom_int_tide_input\l::set_int_tide_input">
<polygon fill="white" stroke="black" points="609.5,-465.5 609.5,-495.5 710.5,-495.5 710.5,-465.5 609.5,-465.5"/>
<text text-anchor="start" x="617.5" y="-483.5" font-family="Helvetica,sans-Serif" font-size="10.00">mom_int_tide_input</text>
<text text-anchor="middle" x="660" y="-472.5" font-family="Helvetica,sans-Serif" font-size="10.00">::set_int_tide_input</text>
</a>
</g>
</g>
<!-- Node28&#45;&gt;Node29 -->
<g id="edge17" class="edge"><title>Node28&#45;&gt;Node29</title>
<path fill="none" stroke="midnightblue" d="M474.618,-438.938C515.973,-448.26 570.413,-460.532 609.398,-469.319"/>
<polygon fill="midnightblue" stroke="midnightblue" points="475.196,-435.481 464.671,-436.696 473.657,-442.31 475.196,-435.481"/>
</g>
<!-- Node30&#45;&gt;Node16 -->
<g id="edge19" class="edge"><title>Node30&#45;&gt;Node16</title>
<path fill="none" stroke="midnightblue" d="M499.077,-775.886C570.263,-777.266 674.818,-781.775 765,-795.5 779.267,-797.671 794.507,-801.002 808.545,-804.497"/>
<polygon fill="midnightblue" stroke="midnightblue" points="498.883,-772.382 488.822,-775.704 498.759,-779.381 498.883,-772.382"/>
</g>
<!-- Node32 -->
<g id="node20" class="node"><title>Node32</title>
<g id="a_node20"><a xlink:href="../../da/db2/namespacemom__tracer__hor__diff.html#a069e22612062290389c2630c7f90ede2" target="_top" xlink:title="Compute along&#45;coordinate diffusion of all tracers using the diffusivity in CSKhTr, or using space&#45;dependent diffusivity. Multiple iterations are used (if necessary) so that there is no limit on the acceptable time increment. ">
<polygon fill="white" stroke="black" points="607,-416.5 607,-446.5 713,-446.5 713,-416.5 607,-416.5"/>
<text text-anchor="start" x="615" y="-434.5" font-family="Helvetica,sans-Serif" font-size="10.00">mom_tracer_hor_diff</text>
<text text-anchor="middle" x="660" y="-423.5" font-family="Helvetica,sans-Serif" font-size="10.00">::tracer_hordiff</text>
</a>
</g>
</g>
<!-- Node31&#45;&gt;Node32 -->
<g id="edge21" class="edge"><title>Node31&#45;&gt;Node32</title>
<path fill="none" stroke="midnightblue" d="M482.195,-388.008C505.256,-393.956 531.24,-400.59 555,-406.5 571.849,-410.691 590.264,-415.156 606.853,-419.135"/>
<polygon fill="midnightblue" stroke="midnightblue" points="483.063,-384.617 472.505,-385.505 481.312,-391.395 483.063,-384.617"/>
</g>
<!-- Node34 -->
<g id="node22" class="node"><title>Node34</title>
<g id="a_node22"><a xlink:href="../../db/dd4/namespacemom__dynamics__legacy__split.html#ae34fe0561f87dc05c2fad64bf6d5a1ee" target="_top" xlink:title="mom_dynamics_legacy\l_split::step_mom_dyn\l_legacy_split">
<polygon fill="white" stroke="black" points="600.5,-307 600.5,-348 719.5,-348 719.5,-307 600.5,-307"/>
<text text-anchor="start" x="608.5" y="-336" font-family="Helvetica,sans-Serif" font-size="10.00">mom_dynamics_legacy</text>
<text text-anchor="start" x="608.5" y="-325" font-family="Helvetica,sans-Serif" font-size="10.00">_split::step_mom_dyn</text>
<text text-anchor="middle" x="660" y="-314" font-family="Helvetica,sans-Serif" font-size="10.00">_legacy_split</text>
</a>
</g>
</g>
<!-- Node33&#45;&gt;Node34 -->
<g id="edge23" class="edge"><title>Node33&#45;&gt;Node34</title>
<path fill="none" stroke="midnightblue" d="M502.907,-323.662C535.258,-324.457 571.086,-325.338 600.249,-326.055"/>
<polygon fill="midnightblue" stroke="midnightblue" points="502.621,-320.154 492.538,-323.407 502.449,-327.152 502.621,-320.154"/>
</g>
<!-- Node35 -->
<g id="node23" class="node"><title>Node35</title>
<g id="a_node23"><a xlink:href="../../d1/dc3/namespacemom__dynamics__split__rk2.html#a81cce65643a8cf94979d68354a9a1979" target="_top" xlink:title="RK2 splitting for time stepping MOM adiabatic dynamics. ">
<polygon fill="white" stroke="black" points="585,-257.5 585,-287.5 735,-287.5 735,-257.5 585,-257.5"/>
<text text-anchor="start" x="593" y="-275.5" font-family="Helvetica,sans-Serif" font-size="10.00">mom_dynamics_split</text>
<text text-anchor="middle" x="660" y="-264.5" font-family="Helvetica,sans-Serif" font-size="10.00">_rk2::step_mom_dyn_split_rk2</text>
</a>
</g>
</g>
<!-- Node33&#45;&gt;Node35 -->
<g id="edge24" class="edge"><title>Node33&#45;&gt;Node35</title>
<path fill="none" stroke="midnightblue" d="M478.794,-310.162C492.095,-307.709 506.016,-305.076 519,-302.5 542.407,-297.855 567.946,-292.475 590.727,-287.565"/>
<polygon fill="midnightblue" stroke="midnightblue" points="477.975,-306.754 468.769,-311.999 479.236,-313.639 477.975,-306.754"/>
</g>
<!-- Node36 -->
<g id="node24" class="node"><title>Node36</title>
<g id="a_node24"><a xlink:href="../../d7/d44/namespacemom__dynamics__unsplit.html#a53a72861e61f049479fdec46ea11227b" target="_top" xlink:title="mom_dynamics_unsplit\l::step_mom_dyn_unsplit">
<polygon fill="white" stroke="black" points="598.5,-208.5 598.5,-238.5 721.5,-238.5 721.5,-208.5 598.5,-208.5"/>
<text text-anchor="start" x="606.5" y="-226.5" font-family="Helvetica,sans-Serif" font-size="10.00">mom_dynamics_unsplit</text>
<text text-anchor="middle" x="660" y="-215.5" font-family="Helvetica,sans-Serif" font-size="10.00">::step_mom_dyn_unsplit</text>
</a>
</g>
</g>
<!-- Node33&#45;&gt;Node36 -->
<g id="edge25" class="edge"><title>Node33&#45;&gt;Node36</title>
<path fill="none" stroke="midnightblue" d="M502.189,-311.228C508.106,-308.842 513.781,-305.964 519,-302.5 543.342,-286.344 531.037,-264.213 555,-247.5 567.691,-238.649 583.167,-233.018 598.262,-229.449"/>
<polygon fill="midnightblue" stroke="midnightblue" points="500.975,-307.945 492.721,-314.588 503.316,-314.542 500.975,-307.945"/>
</g>
<!-- Node37 -->
<g id="node25" class="node"><title>Node37</title>
<g id="a_node25"><a xlink:href="../../d7/da4/namespacemom__dynamics__unsplit__rk2.html#ae10d75d92c1ec7783df7e5d8965b86a0" target="_top" xlink:title="mom_dynamics_unsplit\l_rk2::step_mom_dyn_unsplit_rk2">
<polygon fill="white" stroke="black" points="579.5,-367.5 579.5,-397.5 740.5,-397.5 740.5,-367.5 579.5,-367.5"/>
<text text-anchor="start" x="587.5" y="-385.5" font-family="Helvetica,sans-Serif" font-size="10.00">mom_dynamics_unsplit</text>
<text text-anchor="middle" x="660" y="-374.5" font-family="Helvetica,sans-Serif" font-size="10.00">_rk2::step_mom_dyn_unsplit_rk2</text>
</a>
</g>
</g>
<!-- Node33&#45;&gt;Node37 -->
<g id="edge26" class="edge"><title>Node33&#45;&gt;Node37</title>
<path fill="none" stroke="midnightblue" d="M491.71,-333.162C500.995,-335.263 510.274,-337.696 519,-340.5 535.846,-345.914 538.31,-351.623 555,-357.5 565.51,-361.2 576.806,-364.54 587.942,-367.483"/>
<polygon fill="midnightblue" stroke="midnightblue" points="492.171,-329.682 481.66,-331.012 490.706,-336.527 492.171,-329.682"/>
</g>
<!-- Node38&#45;&gt;Node34 -->
<g id="edge28" class="edge"><title>Node38&#45;&gt;Node34</title>
<path fill="none" stroke="midnightblue" d="M477.801,-294.825C515.515,-301.626 563.191,-310.223 600.173,-316.892"/>
<polygon fill="midnightblue" stroke="midnightblue" points="478.407,-291.378 467.944,-293.047 477.164,-298.267 478.407,-291.378"/>
</g>
<!-- Node38&#45;&gt;Node35 -->
<g id="edge29" class="edge"><title>Node38&#45;&gt;Node35</title>
<path fill="none" stroke="midnightblue" d="M501.8,-279.587C528.945,-278.363 558.632,-277.025 584.825,-275.844"/>
<polygon fill="midnightblue" stroke="midnightblue" points="501.366,-276.103 491.534,-280.05 501.681,-283.096 501.366,-276.103"/>
</g>
<!-- Node38&#45;&gt;Node36 -->
<g id="edge30" class="edge"><title>Node38&#45;&gt;Node36</title>
<path fill="none" stroke="midnightblue" d="M461.228,-271.305C488.478,-264.193 523.652,-255.146 555,-247.5 569.042,-244.075 584.182,-240.509 598.447,-237.206"/>
<polygon fill="midnightblue" stroke="midnightblue" points="459.986,-268.012 451.197,-273.928 461.757,-274.784 459.986,-268.012"/>
</g>
<!-- Node38&#45;&gt;Node37 -->
<g id="edge31" class="edge"><title>Node38&#45;&gt;Node37</title>
<path fill="none" stroke="midnightblue" d="M501.505,-293.498C507.669,-295.938 513.581,-298.903 519,-302.5 543.342,-318.656 531.114,-340.678 555,-357.5 562.364,-362.686 570.67,-366.804 579.297,-370.073"/>
<polygon fill="midnightblue" stroke="midnightblue" points="502.24,-290.049 491.645,-290.083 499.948,-296.663 502.24,-290.049"/>
</g>
<!-- Node40 -->
<g id="node28" class="node"><title>Node40</title>
<g id="a_node28"><a xlink:href="../../d1/d75/namespacemom__thickness__diffuse.html#a9506f374762ce6d5d12424a9314fad2f" target="_top" xlink:title="Calculates thickness diffusion coefficients and applies thickness diffusion to layer thicknesses...">
<polygon fill="white" stroke="black" points="600,-159.5 600,-189.5 720,-189.5 720,-159.5 600,-159.5"/>
<text text-anchor="start" x="608" y="-177.5" font-family="Helvetica,sans-Serif" font-size="10.00">mom_thickness_diffuse</text>
<text text-anchor="middle" x="660" y="-166.5" font-family="Helvetica,sans-Serif" font-size="10.00">::thickness_diffuse</text>
</a>
</g>
</g>
<!-- Node39&#45;&gt;Node40 -->
<g id="edge33" class="edge"><title>Node39&#45;&gt;Node40</title>
<path fill="none" stroke="midnightblue" d="M484.119,-197.435C520.545,-192.658 564.77,-186.858 599.633,-182.286"/>
<polygon fill="midnightblue" stroke="midnightblue" points="483.526,-193.983 474.066,-198.754 484.436,-200.924 483.526,-193.983"/>
</g>
<!-- Node41 -->
<g id="node29" class="node"><title>Node41</title>
<g id="a_node29"><a xlink:href="../../da/d01/namespacemom.html#a4c8332b095c6d295084089aa6b3b678a" target="_top" xlink:title="This subroutine orchestrates the time stepping of MOM. The adiabatic dynamics are stepped by calls to...">
<polygon fill="white" stroke="black" points="817,-113 817,-132 907,-132 907,-113 817,-113"/>
<text text-anchor="middle" x="862" y="-120" font-family="Helvetica,sans-Serif" font-size="10.00">mom::step_mom</text>
</a>
</g>
</g>
<!-- Node40&#45;&gt;Node41 -->
<g id="edge34" class="edge"><title>Node40&#45;&gt;Node41</title>
<path fill="none" stroke="midnightblue" d="M729.963,-158.315C741.674,-155.454 753.699,-152.446 765,-149.5 786.109,-143.997 809.695,-137.37 828.206,-132.059"/>
<polygon fill="midnightblue" stroke="midnightblue" points="729.114,-154.919 720.222,-160.679 730.765,-161.721 729.114,-154.919"/>
</g>
<!-- Node42 -->
<g id="node30" class="node"><title>Node42</title>
<g id="a_node30"><a xlink:href="../../de/dbc/MOM__driver_8F90.html#a08fffeb2d8e8acbf9ed4609be6d258c6" target="_top" xlink:title="mom_main">
<polygon fill="white" stroke="black" points="959,-113 959,-132 1024,-132 1024,-113 959,-113"/>
<text text-anchor="middle" x="991.5" y="-120" font-family="Helvetica,sans-Serif" font-size="10.00">mom_main</text>
</a>
</g>
</g>
<!-- Node41&#45;&gt;Node42 -->
<g id="edge35" class="edge"><title>Node41&#45;&gt;Node42</title>
<path fill="none" stroke="midnightblue" d="M917.374,-122.5C931.506,-122.5 946.267,-122.5 958.796,-122.5"/>
<polygon fill="midnightblue" stroke="midnightblue" points="917.236,-119 907.235,-122.5 917.235,-126 917.236,-119"/>
</g>
<!-- Node44 -->
<g id="node32" class="node"><title>Node44</title>
<g id="a_node32"><a xlink:href="../../d9/d8b/namespacemom__diagnostics.html#abb6644248c28ab2e952361bfec436063" target="_top" xlink:title="mom_diagnostics::calculate\l_diagnostic_fields">
<polygon fill="white" stroke="black" points="591,-110.5 591,-140.5 729,-140.5 729,-110.5 591,-110.5"/>
<text text-anchor="start" x="599" y="-128.5" font-family="Helvetica,sans-Serif" font-size="10.00">mom_diagnostics::calculate</text>
<text text-anchor="middle" x="660" y="-117.5" font-family="Helvetica,sans-Serif" font-size="10.00">_diagnostic_fields</text>
</a>
</g>
</g>
<!-- Node43&#45;&gt;Node44 -->
<g id="edge37" class="edge"><title>Node43&#45;&gt;Node44</title>
<path fill="none" stroke="midnightblue" d="M488.511,-125.5C521.054,-125.5 559.095,-125.5 590.976,-125.5"/>
<polygon fill="midnightblue" stroke="midnightblue" points="488.153,-122 478.153,-125.5 488.153,-129 488.153,-122"/>
</g>
<!-- Node45 -->
<g id="node33" class="node"><title>Node45</title>
<g id="a_node33"><a xlink:href="../../d0/d86/namespacemom__lateral__mixing__coeffs.html#af206bc656869b4fc27d4d7e8a15d438e" target="_top" xlink:title="Calculates and stores the non&#45;dimensional resolution functions. ">
<polygon fill="white" stroke="black" points="608,-50 608,-91 712,-91 712,-50 608,-50"/>
<text text-anchor="start" x="616" y="-79" font-family="Helvetica,sans-Serif" font-size="10.00">mom_lateral_mixing</text>
<text text-anchor="start" x="616" y="-68" font-family="Helvetica,sans-Serif" font-size="10.00">_coeffs::calc_resoln</text>
<text text-anchor="middle" x="660" y="-57" font-family="Helvetica,sans-Serif" font-size="10.00">_function</text>
</a>
</g>
</g>
<!-- Node43&#45;&gt;Node45 -->
<g id="edge38" class="edge"><title>Node43&#45;&gt;Node45</title>
<path fill="none" stroke="midnightblue" d="M488.27,-108.984C526.749,-100.311 572.968,-89.8924 607.607,-82.0844"/>
<polygon fill="midnightblue" stroke="midnightblue" points="487.139,-105.651 478.153,-111.265 488.678,-112.48 487.139,-105.651"/>
</g>
<!-- Node45&#45;&gt;Node41 -->
<g id="edge39" class="edge"><title>Node45&#45;&gt;Node41</title>
<path fill="none" stroke="midnightblue" d="M721.936,-86.3433C755.403,-95.0448 795.797,-105.547 824.406,-112.985"/>
<polygon fill="midnightblue" stroke="midnightblue" points="722.804,-82.9528 712.245,-83.8238 721.043,-89.7276 722.804,-82.9528"/>
</g>
<!-- Node46&#45;&gt;Node24 -->
<g id="edge41" class="edge"><title>Node46&#45;&gt;Node24</title>
<path fill="none" stroke="midnightblue" d="M488.563,-559.366C578.618,-555.53 728.905,-549.127 808.238,-545.748"/>
<polygon fill="midnightblue" stroke="midnightblue" points="488.269,-555.875 478.427,-559.798 488.567,-562.869 488.269,-555.875"/>
</g>
<!-- Node48 -->
<g id="node36" class="node"><title>Node48</title>
<g id="a_node36"><a xlink:href="../../d6/d34/namespacemom__internal__tides.html#a6cae26da43d0539e8ac959105cf125c2" target="_top" xlink:title="mom_internal_tides\l::propagate_int_tide">
<polygon fill="white" stroke="black" points="609,-0.5 609,-30.5 711,-30.5 711,-0.5 609,-0.5"/>
<text text-anchor="start" x="617" y="-18.5" font-family="Helvetica,sans-Serif" font-size="10.00">mom_internal_tides</text>
<text text-anchor="middle" x="660" y="-7.5" font-family="Helvetica,sans-Serif" font-size="10.00">::propagate_int_tide</text>
</a>
</g>
</g>
<!-- Node47&#45;&gt;Node48 -->
<g id="edge43" class="edge"><title>Node47&#45;&gt;Node48</title>
<path fill="none" stroke="midnightblue" d="M479.193,-38.3443C519.687,-33.1996 571.233,-26.6507 608.744,-21.885"/>
<polygon fill="midnightblue" stroke="midnightblue" points="478.631,-34.8876 469.152,-39.6201 479.513,-41.8317 478.631,-34.8876"/>
</g>
</g>
</svg>
        <g id="navigator" transform="translate(0 0)" fill="#404254">
                <rect fill="#f2f5e9" fill-opacity="0.5" stroke="#606060" stroke-width=".5" x="0" y="0" width="60" height="60"/>
                <use id="zoomplus" xlink:href="#zoomPlus" x="17" y="9" onmousedown="handleZoom(evt,'in')"/>
                <use id="zoomminus" xlink:href="#zoomMin" x="42" y="9" onmousedown="handleZoom(evt,'out')"/>
                <use id="reset" xlink:href="#resetDef" x="30" y="36" onmousedown="handleReset()"/>
                <g id="arrowUp" xlink:href="#dirArrow" transform="translate(30 24)" onmousedown="handlePan(0,-1)">
                  <use xlink:href="#rim" fill="#404040">
                        <set attributeName="fill" to="#808080" begin="arrowUp.mouseover" end="arrowUp.mouseout"/>
                  </use>
                  <path fill="none" stroke="white" stroke-width="1.5" d="M0,-3.0v7 M-2.5,-0.5L0,-3.0L2.5,-0.5"/>
                </g>
                <g id="arrowRight" xlink:href="#dirArrow" transform="rotate(90) translate(36 -43)" onmousedown="handlePan(1,0)">
                  <use xlink:href="#rim" fill="#404040">
                        <set attributeName="fill" to="#808080" begin="arrowRight.mouseover" end="arrowRight.mouseout"/>
                  </use>
                  <path fill="none" stroke="white" stroke-width="1.5" d="M0,-3.0v7 M-2.5,-0.5L0,-3.0L2.5,-0.5"/>
                </g>
                <g id="arrowDown" xlink:href="#dirArrow" transform="rotate(180) translate(-30 -48)" onmousedown="handlePan(0,1)">
                  <use xlink:href="#rim" fill="#404040">
                        <set attributeName="fill" to="#808080" begin="arrowDown.mouseover" end="arrowDown.mouseout"/>
                  </use>
                  <path fill="none" stroke="white" stroke-width="1.5" d="M0,-3.0v7 M-2.5,-0.5L0,-3.0L2.5,-0.5"/>
                </g>
                <g id="arrowLeft" xlink:href="#dirArrow" transform="rotate(270) translate(-36 17)" onmousedown="handlePan(-1,0)">
                  <use xlink:href="#rim" fill="#404040">
                        <set attributeName="fill" to="#808080" begin="arrowLeft.mouseover" end="arrowLeft.mouseout"/>
                  </use>
                  <path fill="none" stroke="white" stroke-width="1.5" d="M0,-3.0v7 M-2.5,-0.5L0,-3.0L2.5,-0.5"/>
                </g>
        </g>
        <svg viewBox="0 0 15 15" width="100%" height="30px" preserveAspectRatio="xMaxYMin meet">
         <g id="arrow_out" transform="scale(0.3 0.3)">
          <a xlink:href="namespacemom__eos__linear_a73d8a625582247379092adf1aeeb55e0_icgraph_org.svg" target="_base">
           <rect id="button" ry="5" rx="5" y="6" x="6" height="38" width="38"
                fill="#f2f5e9" fill-opacity="0.5" stroke="#606060" stroke-width="1.0"/>
           <path id="arrow"
             d="M 11.500037,31.436501 C 11.940474,20.09759 22.043105,11.32322 32.158766,21.979434 L 37.068811,17.246167 C 37.068811,17.246167 37.088388,32 37.088388,32 L 22.160133,31.978069 C 22.160133,31.978069 26.997745,27.140456 26.997745,27.140456 C 18.528582,18.264221 13.291696,25.230495 11.500037,31.436501 z"
             style="fill:#404040;"/>
          </a>
         </g>
        </svg>
</svg>
