<?xml version="1.0" encoding="UTF-8" standalone="no"?>
<!DOCTYPE svg PUBLIC "-//W3C//DTD SVG 1.1//EN"
 "http://www.w3.org/Graphics/SVG/1.1/DTD/svg11.dtd">
<!-- Generated by graphviz version 2.38.0 (20140413.2041)
 -->
<!-- Title: mom_dynamics_legacy_split::mom_dyn_legacy_split_cs Pages: 1 -->
<svg width="316pt" height="1016pt"
 viewBox="0.00 0.00 316.00 1015.54" xmlns="http://www.w3.org/2000/svg" xmlns:xlink="http://www.w3.org/1999/xlink">
<g id="graph0" class="graph" transform="scale(1 1) rotate(0) translate(4 1011.54)">
<title>mom_dynamics_legacy_split::mom_dyn_legacy_split_cs</title>
<polygon fill="white" stroke="none" points="-4,4 -4,-1011.54 312,-1011.54 312,4 -4,4"/>
<!-- Node1 -->
<g id="node1" class="node"><title>Node1</title>
<polygon fill="#bfbfbf" stroke="black" points="207,-547.044 207,-588.044 308,-588.044 308,-547.044 207,-547.044"/>
<text text-anchor="start" x="215" y="-576.044" font-family="Helvetica,sans-Serif" font-size="10.00">mom_dynamics_legacy</text>
<text text-anchor="start" x="215" y="-565.044" font-family="Helvetica,sans-Serif" font-size="10.00">_split::mom_dyn_legacy</text>
<text text-anchor="middle" x="257.5" y="-554.044" font-family="Helvetica,sans-Serif" font-size="10.00">_split_cs</text>
</g>
<!-- Node2 -->
<g id="node2" class="node"><title>Node2</title>
<polygon fill="white" stroke="#bfbfbf" points="4.5,-984.044 4.5,-1003.04 93.5,-1003.04 93.5,-984.044 4.5,-984.044"/>
<text text-anchor="middle" x="49" y="-991.044" font-family="Helvetica,sans-Serif" font-size="10.00">type(ale_cs), pointer</text>
</g>
<!-- Node2&#45;&gt;Node1 -->
<g id="edge1" class="edge"><title>Node2&#45;&gt;Node1</title>
<path fill="none" stroke="#9a32cd" stroke-dasharray="5,2" d="M103.585,-998.194C132.666,-997.667 167.055,-991.59 189,-969.544 243.356,-914.936 254.079,-662.38 256.07,-588.128"/>
<polygon fill="#9a32cd" stroke="#9a32cd" points="103.558,-994.694 93.5486,-998.167 103.539,-1001.69 103.558,-994.694"/>
<text text-anchor="middle" x="152.5" y="-999.544" font-family="Helvetica,sans-Serif" font-size="10.00"> ale_csp</text>
</g>
<!-- Node3 -->
<g id="node3" class="node"><title>Node3</title>
<polygon fill="white" stroke="#bfbfbf" points="30,-875.044 30,-894.044 68,-894.044 68,-875.044 30,-875.044"/>
<text text-anchor="middle" x="49" y="-882.044" font-family="Helvetica,sans-Serif" font-size="10.00">logical</text>
</g>
<!-- Node3&#45;&gt;Node1 -->
<g id="edge2" class="edge"><title>Node3&#45;&gt;Node1</title>
<path fill="none" stroke="#9a32cd" stroke-dasharray="5,2" d="M78.3549,-882.406C114.324,-879.109 173.546,-871.531 189,-856.544 227.929,-818.79 248.476,-647.725 254.55,-588.109"/>
<polygon fill="#9a32cd" stroke="#9a32cd" points="77.6762,-878.952 68.0128,-883.296 78.2759,-885.926 77.6762,-878.952"/>
<text text-anchor="middle" x="152.5" y="-957.544" font-family="Helvetica,sans-Serif" font-size="10.00"> flux_bt_coupling</text>
<text text-anchor="middle" x="152.5" y="-946.544" font-family="Helvetica,sans-Serif" font-size="10.00">calc_dtbt</text>
<text text-anchor="middle" x="152.5" y="-935.544" font-family="Helvetica,sans-Serif" font-size="10.00">bt_use_layer_fluxes</text>
<text text-anchor="middle" x="152.5" y="-924.544" font-family="Helvetica,sans-Serif" font-size="10.00">readjust_velocity</text>
<text text-anchor="middle" x="152.5" y="-913.544" font-family="Helvetica,sans-Serif" font-size="10.00">readjust_bt_trans</text>
<text text-anchor="middle" x="152.5" y="-902.544" font-family="Helvetica,sans-Serif" font-size="10.00">split_bottom_stress</text>
<text text-anchor="middle" x="152.5" y="-891.544" font-family="Helvetica,sans-Serif" font-size="10.00">debug</text>
<text text-anchor="middle" x="152.5" y="-880.544" font-family="Helvetica,sans-Serif" font-size="10.00">module_is_initialized</text>
</g>
<!-- Node4 -->
<g id="node4" class="node"><title>Node4</title>
<polygon fill="white" stroke="#bfbfbf" points="11.5,-837.044 11.5,-856.044 86.5,-856.044 86.5,-837.044 11.5,-837.044"/>
<text text-anchor="middle" x="49" y="-844.044" font-family="Helvetica,sans-Serif" font-size="10.00">ocean_obc_type</text>
</g>
<!-- Node4&#45;&gt;Node1 -->
<g id="edge3" class="edge"><title>Node4&#45;&gt;Node1</title>
<path fill="none" stroke="#9a32cd" stroke-dasharray="5,2" d="M96.824,-844.786C126.936,-841.198 164.816,-831.713 189,-807.544 250.231,-746.351 256.987,-634.287 257.013,-588.188"/>
<polygon fill="#9a32cd" stroke="#9a32cd" points="96.1307,-841.338 86.5321,-845.823 96.8328,-848.302 96.1307,-841.338"/>
<text text-anchor="middle" x="152.5" y="-844.544" font-family="Helvetica,sans-Serif" font-size="10.00"> obc</text>
</g>
<!-- Node5 -->
<g id="node5" class="node"><title>Node5</title>
<polygon fill="white" stroke="#bfbfbf" points="0,-787.544 0,-817.544 98,-817.544 98,-787.544 0,-787.544"/>
<text text-anchor="start" x="8" y="-805.544" font-family="Helvetica,sans-Serif" font-size="10.00">type(legacy_barotropic</text>
<text text-anchor="middle" x="49" y="-794.544" font-family="Helvetica,sans-Serif" font-size="10.00">_cs), pointer</text>
</g>
<!-- Node5&#45;&gt;Node1 -->
<g id="edge4" class="edge"><title>Node5&#45;&gt;Node1</title>
<path fill="none" stroke="#9a32cd" stroke-dasharray="5,2" d="M107.988,-795.336C135.623,-789.172 167.299,-777.742 189,-756.544 236.855,-709.797 250.896,-626.858 254.926,-588.31"/>
<polygon fill="#9a32cd" stroke="#9a32cd" points="107.111,-791.942 98.0157,-797.376 108.514,-798.8 107.111,-791.942"/>
<text text-anchor="middle" x="152.5" y="-795.544" font-family="Helvetica,sans-Serif" font-size="10.00"> barotropic_csp</text>
</g>
<!-- Node6 -->
<g id="node6" class="node"><title>Node6</title>
<polygon fill="white" stroke="#bfbfbf" points="9,-738.544 9,-768.544 89,-768.544 89,-738.544 9,-738.544"/>
<text text-anchor="start" x="17" y="-756.544" font-family="Helvetica,sans-Serif" font-size="10.00">type(set_visc_cs),</text>
<text text-anchor="middle" x="49" y="-745.544" font-family="Helvetica,sans-Serif" font-size="10.00"> pointer</text>
</g>
<!-- Node6&#45;&gt;Node1 -->
<g id="edge5" class="edge"><title>Node6&#45;&gt;Node1</title>
<path fill="none" stroke="#9a32cd" stroke-dasharray="5,2" d="M99.1275,-747.074C128.14,-741.054 163.969,-729.523 189,-707.544 225.7,-675.319 244.246,-618.677 251.964,-588.254"/>
<polygon fill="#9a32cd" stroke="#9a32cd" points="98.3407,-743.661 89.1787,-748.981 99.6589,-750.535 98.3407,-743.661"/>
<text text-anchor="middle" x="152.5" y="-744.544" font-family="Helvetica,sans-Serif" font-size="10.00"> set_visc_csp</text>
</g>
<!-- Node7 -->
<g id="node7" class="node"><title>Node7</title>
<polygon fill="white" stroke="#bfbfbf" points="10,-689.544 10,-719.544 88,-719.544 88,-689.544 10,-689.544"/>
<text text-anchor="start" x="18" y="-707.544" font-family="Helvetica,sans-Serif" font-size="10.00">type(vertvisc_cs),</text>
<text text-anchor="middle" x="49" y="-696.544" font-family="Helvetica,sans-Serif" font-size="10.00"> pointer</text>
</g>
<!-- Node7&#45;&gt;Node1 -->
<g id="edge6" class="edge"><title>Node7&#45;&gt;Node1</title>
<path fill="none" stroke="#9a32cd" stroke-dasharray="5,2" d="M98.1315,-696.672C126.581,-690.234 162.17,-678.92 189,-659.544 215.017,-640.755 235.137,-608.904 246.404,-588.047"/>
<polygon fill="#9a32cd" stroke="#9a32cd" points="97.0543,-693.323 88.0026,-698.829 98.5123,-700.169 97.0543,-693.323"/>
<text text-anchor="middle" x="152.5" y="-695.544" font-family="Helvetica,sans-Serif" font-size="10.00"> vertvisc_csp</text>
</g>
<!-- Node8 -->
<g id="node8" class="node"><title>Node8</title>
<polygon fill="white" stroke="#bfbfbf" points="14.5,-651.044 14.5,-670.044 83.5,-670.044 83.5,-651.044 14.5,-651.044"/>
<text text-anchor="middle" x="49" y="-658.044" font-family="Helvetica,sans-Serif" font-size="10.00">cont_diag_ptrs</text>
</g>
<!-- Node8&#45;&gt;Node1 -->
<g id="edge7" class="edge"><title>Node8&#45;&gt;Node1</title>
<path fill="none" stroke="#9a32cd" stroke-dasharray="5,2" d="M93.6801,-650.578C121.787,-643.242 158.608,-631.876 189,-616.544 204.256,-608.847 219.789,-597.835 232.103,-588.199"/>
<polygon fill="#9a32cd" stroke="#9a32cd" points="92.5793,-647.246 83.7471,-653.098 94.3007,-654.031 92.5793,-647.246"/>
<text text-anchor="middle" x="152.5" y="-647.544" font-family="Helvetica,sans-Serif" font-size="10.00"> cdp</text>
</g>
<!-- Node9 -->
<g id="node9" class="node"><title>Node9</title>
<polygon fill="white" stroke="#bfbfbf" points="8.5,-601.544 8.5,-631.544 89.5,-631.544 89.5,-601.544 8.5,-601.544"/>
<text text-anchor="start" x="16.5" y="-619.544" font-family="Helvetica,sans-Serif" font-size="10.00">type(hor_visc_cs),</text>
<text text-anchor="middle" x="49" y="-608.544" font-family="Helvetica,sans-Serif" font-size="10.00"> pointer</text>
</g>
<!-- Node9&#45;&gt;Node1 -->
<g id="edge8" class="edge"><title>Node9&#45;&gt;Node1</title>
<path fill="none" stroke="#9a32cd" stroke-dasharray="5,2" d="M99.5691,-604.781C132.086,-597.065 174.444,-587.015 206.956,-579.3"/>
<polygon fill="#9a32cd" stroke="#9a32cd" points="98.737,-601.382 89.8153,-607.096 100.353,-608.192 98.737,-601.382"/>
<text text-anchor="middle" x="152.5" y="-604.544" font-family="Helvetica,sans-Serif" font-size="10.00"> hor_visc_csp</text>
</g>
<!-- Node10 -->
<g id="node10" class="node"><title>Node10</title>
<polygon fill="white" stroke="#bfbfbf" points="7.5,-552.544 7.5,-582.544 90.5,-582.544 90.5,-552.544 7.5,-552.544"/>
<text text-anchor="start" x="15.5" y="-570.544" font-family="Helvetica,sans-Serif" font-size="10.00">type(continuity_cs)</text>
<text text-anchor="middle" x="49" y="-559.544" font-family="Helvetica,sans-Serif" font-size="10.00">, pointer</text>
</g>
<!-- Node10&#45;&gt;Node1 -->
<g id="edge9" class="edge"><title>Node10&#45;&gt;Node1</title>
<path fill="none" stroke="#9a32cd" stroke-dasharray="5,2" d="M100.916,-567.544C133.153,-567.544 174.644,-567.544 206.67,-567.544"/>
<polygon fill="#9a32cd" stroke="#9a32cd" points="100.798,-564.044 90.7978,-567.544 100.798,-571.044 100.798,-564.044"/>
<text text-anchor="middle" x="152.5" y="-570.544" font-family="Helvetica,sans-Serif" font-size="10.00"> continuity_csp</text>
</g>
<!-- Node11 -->
<g id="node11" class="node"><title>Node11</title>
<polygon fill="white" stroke="#bfbfbf" points="6,-503.544 6,-533.544 92,-533.544 92,-503.544 6,-503.544"/>
<text text-anchor="start" x="14" y="-521.544" font-family="Helvetica,sans-Serif" font-size="10.00">type(bt_cont_type),</text>
<text text-anchor="middle" x="49" y="-510.544" font-family="Helvetica,sans-Serif" font-size="10.00"> pointer</text>
</g>
<!-- Node11&#45;&gt;Node1 -->
<g id="edge10" class="edge"><title>Node11&#45;&gt;Node1</title>
<path fill="none" stroke="#9a32cd" stroke-dasharray="5,2" d="M102.136,-530.915C134.268,-538.539 175.232,-548.26 206.885,-555.771"/>
<polygon fill="#9a32cd" stroke="#9a32cd" points="102.575,-527.422 92.0373,-528.519 100.959,-534.233 102.575,-527.422"/>
<text text-anchor="middle" x="152.5" y="-553.544" font-family="Helvetica,sans-Serif" font-size="10.00"> bt_cont</text>
</g>
<!-- Node12 -->
<g id="node12" class="node"><title>Node12</title>
<polygon fill="white" stroke="#bfbfbf" points="6,-454.544 6,-484.544 92,-484.544 92,-454.544 6,-454.544"/>
<text text-anchor="start" x="14" y="-472.544" font-family="Helvetica,sans-Serif" font-size="10.00">type(coriolisadv_cs)</text>
<text text-anchor="middle" x="49" y="-461.544" font-family="Helvetica,sans-Serif" font-size="10.00">, pointer</text>
</g>
<!-- Node12&#45;&gt;Node1 -->
<g id="edge11" class="edge"><title>Node12&#45;&gt;Node1</title>
<path fill="none" stroke="#9a32cd" stroke-dasharray="5,2" d="M101.876,-484.476C128.636,-493.097 161.37,-505.099 189,-519.544 203.655,-527.205 218.764,-537.669 230.963,-546.872"/>
<polygon fill="#9a32cd" stroke="#9a32cd" points="102.898,-481.129 92.3079,-481.455 100.79,-487.804 102.898,-481.129"/>
<text text-anchor="middle" x="152.5" y="-522.544" font-family="Helvetica,sans-Serif" font-size="10.00"> coriolisadv_csp</text>
</g>
<!-- Node13 -->
<g id="node13" class="node"><title>Node13</title>
<polygon fill="white" stroke="#bfbfbf" points="25.5,-416.044 25.5,-435.044 72.5,-435.044 72.5,-416.044 25.5,-416.044"/>
<text text-anchor="middle" x="49" y="-423.044" font-family="Helvetica,sans-Serif" font-size="10.00">diag_ctrl</text>
</g>
<!-- Node13&#45;&gt;Node1 -->
<g id="edge12" class="edge"><title>Node13&#45;&gt;Node1</title>
<path fill="none" stroke="#9a32cd" stroke-dasharray="5,2" d="M82.5894,-431.557C112.544,-438.332 157.02,-451.655 189,-475.544 214.553,-494.63 234.663,-526.098 246.069,-546.824"/>
<polygon fill="#9a32cd" stroke="#9a32cd" points="83.1551,-428.099 72.6439,-429.427 81.6893,-434.944 83.1551,-428.099"/>
<text text-anchor="middle" x="152.5" y="-478.544" font-family="Helvetica,sans-Serif" font-size="10.00"> diag</text>
</g>
<!-- Node14 -->
<g id="node14" class="node"><title>Node14</title>
<polygon fill="white" stroke="#bfbfbf" points="10.5,-366.544 10.5,-396.544 87.5,-396.544 87.5,-366.544 10.5,-366.544"/>
<text text-anchor="start" x="18.5" y="-384.544" font-family="Helvetica,sans-Serif" font-size="10.00">type(tidal_forcing</text>
<text text-anchor="middle" x="49" y="-373.544" font-family="Helvetica,sans-Serif" font-size="10.00">_cs), pointer</text>
</g>
<!-- Node14&#45;&gt;Node1 -->
<g id="edge13" class="edge"><title>Node14&#45;&gt;Node1</title>
<path fill="none" stroke="#9a32cd" stroke-dasharray="5,2" d="M97.657,-387.306C126.926,-393.005 163.554,-404.284 189,-426.544 226.075,-458.976 244.508,-516.295 252.097,-546.91"/>
<polygon fill="#9a32cd" stroke="#9a32cd" points="98.1017,-383.83 87.6416,-385.515 96.8689,-390.721 98.1017,-383.83"/>
<text text-anchor="middle" x="152.5" y="-429.544" font-family="Helvetica,sans-Serif" font-size="10.00"> tides_csp</text>
</g>
<!-- Node15 -->
<g id="node15" class="node"><title>Node15</title>
<polygon fill="white" stroke="#bfbfbf" points="7,-317.544 7,-347.544 91,-347.544 91,-317.544 7,-317.544"/>
<text text-anchor="start" x="15" y="-335.544" font-family="Helvetica,sans-Serif" font-size="10.00">type(pressureforce</text>
<text text-anchor="middle" x="49" y="-324.544" font-family="Helvetica,sans-Serif" font-size="10.00">_cs), pointer</text>
</g>
<!-- Node15&#45;&gt;Node1 -->
<g id="edge14" class="edge"><title>Node15&#45;&gt;Node1</title>
<path fill="none" stroke="#9a32cd" stroke-dasharray="5,2" d="M101.188,-337.907C130.285,-343.442 165.491,-354.69 189,-377.544 237.318,-424.515 251.137,-508.278 255.02,-546.942"/>
<polygon fill="#9a32cd" stroke="#9a32cd" points="101.629,-334.431 91.1794,-336.177 100.437,-341.329 101.629,-334.431"/>
<text text-anchor="middle" x="152.5" y="-380.544" font-family="Helvetica,sans-Serif" font-size="10.00"> pressureforce_csp</text>
</g>
<!-- Node16 -->
<g id="node16" class="node"><title>Node16</title>
<polygon fill="white" stroke="#bfbfbf" points="28.5,-209.044 28.5,-228.044 69.5,-228.044 69.5,-209.044 28.5,-209.044"/>
<text text-anchor="middle" x="49" y="-216.044" font-family="Helvetica,sans-Serif" font-size="10.00">integer</text>
</g>
<!-- Node16&#45;&gt;Node1 -->
<g id="edge15" class="edge"><title>Node16&#45;&gt;Node1</title>
<path fill="none" stroke="#9a32cd" stroke-dasharray="5,2" d="M79.4035,-208.109C110.307,-199.201 158.574,-191.411 189,-216.544 240.431,-259.027 253.084,-477.725 255.818,-546.687"/>
<polygon fill="#9a32cd" stroke="#9a32cd" points="78.16,-204.83 69.6396,-211.127 80.2273,-211.517 78.16,-204.83"/>
<text text-anchor="middle" x="152.5" y="-329.544" font-family="Helvetica,sans-Serif" font-size="10.00"> id_vh</text>
<text text-anchor="middle" x="152.5" y="-318.544" font-family="Helvetica,sans-Serif" font-size="10.00">id_cau</text>
<text text-anchor="middle" x="152.5" y="-307.544" font-family="Helvetica,sans-Serif" font-size="10.00">id_uh</text>
<text text-anchor="middle" x="152.5" y="-296.544" font-family="Helvetica,sans-Serif" font-size="10.00">id_du_adj</text>
<text text-anchor="middle" x="152.5" y="-285.544" font-family="Helvetica,sans-Serif" font-size="10.00">id_cav</text>
<text text-anchor="middle" x="152.5" y="-274.544" font-family="Helvetica,sans-Serif" font-size="10.00">id_dv_adj</text>
<text text-anchor="middle" x="152.5" y="-263.544" font-family="Helvetica,sans-Serif" font-size="10.00">id_uav</text>
<text text-anchor="middle" x="152.5" y="-252.544" font-family="Helvetica,sans-Serif" font-size="10.00">id_dv_adj2</text>
<text text-anchor="middle" x="152.5" y="-241.544" font-family="Helvetica,sans-Serif" font-size="10.00">id_vav</text>
<text text-anchor="middle" x="152.5" y="-230.544" font-family="Helvetica,sans-Serif" font-size="10.00">id_du_adj2</text>
<text text-anchor="middle" x="152.5" y="-219.544" font-family="Helvetica,sans-Serif" font-size="10.00">...</text>
</g>
<!-- Node17 -->
<g id="node17" class="node"><title>Node17</title>
<polygon fill="white" stroke="#bfbfbf" points="34,-43.0436 34,-62.0436 64,-62.0436 64,-43.0436 34,-43.0436"/>
<text text-anchor="middle" x="49" y="-50.0436" font-family="Helvetica,sans-Serif" font-size="10.00">real</text>
</g>
<!-- Node17&#45;&gt;Node1 -->
<g id="edge16" class="edge"><title>Node17&#45;&gt;Node1</title>
<path fill="none" stroke="#9a32cd" stroke-dasharray="5,2" d="M74.207,-44.1561C104.908,-35.2189 157.617,-25.8124 189,-53.5436 226.769,-86.9177 250.122,-455.418 255.37,-547.022"/>
<polygon fill="#9a32cd" stroke="#9a32cd" points="72.8401,-40.9161 64.3366,-47.2361 74.9253,-47.5983 72.8401,-40.9161"/>
<text text-anchor="middle" x="152.5" y="-188.544" font-family="Helvetica,sans-Serif" font-size="10.00"> cau</text>
<text text-anchor="middle" x="152.5" y="-177.544" font-family="Helvetica,sans-Serif" font-size="10.00">cav</text>
<text text-anchor="middle" x="152.5" y="-166.544" font-family="Helvetica,sans-Serif" font-size="10.00">begw</text>
<text text-anchor="middle" x="152.5" y="-155.544" font-family="Helvetica,sans-Serif" font-size="10.00">be</text>
<text text-anchor="middle" x="152.5" y="-144.544" font-family="Helvetica,sans-Serif" font-size="10.00">eta_pf</text>
<text text-anchor="start" x="136.5" y="-133.544" font-family="Helvetica,sans-Serif" font-size="10.00">allocable</text>
<text text-anchor="middle" x="152.5" y="-122.544" font-family="Helvetica,sans-Serif" font-size="10.00">_</text>
<text text-anchor="middle" x="152.5" y="-111.544" font-family="Helvetica,sans-Serif" font-size="10.00">vhbt</text>
<text text-anchor="start" x="136.5" y="-100.544" font-family="Helvetica,sans-Serif" font-size="10.00">visc_rem</text>
<text text-anchor="middle" x="152.5" y="-89.5436" font-family="Helvetica,sans-Serif" font-size="10.00">_u</text>
<text text-anchor="middle" x="152.5" y="-78.5436" font-family="Helvetica,sans-Serif" font-size="10.00">pbce</text>
<text text-anchor="middle" x="152.5" y="-67.5436" font-family="Helvetica,sans-Serif" font-size="10.00">uhbt</text>
<text text-anchor="middle" x="152.5" y="-56.5436" font-family="Helvetica,sans-Serif" font-size="10.00">...</text>
</g>
<!-- Node18 -->
<g id="node18" class="node"><title>Node18</title>
<polygon fill="white" stroke="#bfbfbf" points="13,-5.04357 13,-24.0436 85,-24.0436 85,-5.04357 13,-5.04357"/>
<text text-anchor="middle" x="49" y="-12.0436" font-family="Helvetica,sans-Serif" font-size="10.00">accel_diag_ptrs</text>
</g>
<!-- Node18&#45;&gt;Node1 -->
<g id="edge17" class="edge"><title>Node18&#45;&gt;Node1</title>
<path fill="none" stroke="#9a32cd" stroke-dasharray="5,2" d="M93.7648,-3.10671C124.321,2.03425 163.968,2.57003 189,-20.5436 228.544,-57.057 250.719,-451.931 255.51,-547.029"/>
<polygon fill="#9a32cd" stroke="#9a32cd" points="92.9576,0.302684 83.7848,-4.99921 94.2618,-6.57476 92.9576,0.302684"/>
<text text-anchor="middle" x="152.5" y="-23.5436" font-family="Helvetica,sans-Serif" font-size="10.00"> adp</text>
</g>
</g>
</svg>
