<?xml version="1.0" encoding="UTF-8" standalone="no"?>
<!DOCTYPE svg PUBLIC "-//W3C//DTD SVG 1.1//EN"
 "http://www.w3.org/Graphics/SVG/1.1/DTD/svg11.dtd">
<!-- Generated by graphviz version 2.38.0 (20140413.2041)
 -->
<!-- Title: mom_regridding::build_sigma_column Pages: 1 -->
<svg width="409pt" height="39pt"
 viewBox="0.00 0.00 409.00 39.00" xmlns="http://www.w3.org/2000/svg" xmlns:xlink="http://www.w3.org/1999/xlink">
<g id="graph0" class="graph" transform="scale(1 1) rotate(0) translate(4 35)">
<title>mom_regridding::build_sigma_column</title>
<polygon fill="white" stroke="none" points="-4,4 -4,-35 405,-35 405,4 -4,4"/>
<!-- Node60 -->
<g id="node1" class="node"><title>Node60</title>
<polygon fill="#bfbfbf" stroke="black" points="0,-0.5 0,-30.5 96,-30.5 96,-0.5 0,-0.5"/>
<text text-anchor="start" x="8" y="-18.5" font-family="Helvetica,sans-Serif" font-size="10.00">mom_regridding::build</text>
<text text-anchor="middle" x="48" y="-7.5" font-family="Helvetica,sans-Serif" font-size="10.00">_sigma_column</text>
</g>
<!-- Node61 -->
<g id="node2" class="node"><title>Node61</title>
<g id="a_node2"><a xlink:href="../../d7/d1b/namespacemom__regridding.html#a455d807ccfbbfd109be231321bec1038" target="_top" xlink:title="mom_regridding::build\l_sigma_grid">
<polygon fill="white" stroke="black" points="132,-0.5 132,-30.5 228,-30.5 228,-0.5 132,-0.5"/>
<text text-anchor="start" x="140" y="-18.5" font-family="Helvetica,sans-Serif" font-size="10.00">mom_regridding::build</text>
<text text-anchor="middle" x="180" y="-7.5" font-family="Helvetica,sans-Serif" font-size="10.00">_sigma_grid</text>
</a>
</g>
</g>
<!-- Node60&#45;&gt;Node61 -->
<g id="edge1" class="edge"><title>Node60&#45;&gt;Node61</title>
<path fill="none" stroke="midnightblue" d="M106.539,-15.5C115.034,-15.5 123.703,-15.5 131.952,-15.5"/>
<polygon fill="midnightblue" stroke="midnightblue" points="106.301,-12.0001 96.3007,-15.5 106.301,-19.0001 106.301,-12.0001"/>
</g>
<!-- Node62 -->
<g id="node3" class="node"><title>Node62</title>
<g id="a_node3"><a xlink:href="../../d7/d1b/namespacemom__regridding.html#a1a4ef08eafeb47fe9c96d08d736b16b1" target="_top" xlink:title="mom_regridding::regridding_main">
<polygon fill="white" stroke="black" points="264,-6 264,-25 401,-25 401,-6 264,-6"/>
<text text-anchor="middle" x="332.5" y="-13" font-family="Helvetica,sans-Serif" font-size="10.00">mom_regridding::regridding_main</text>
</a>
</g>
</g>
<!-- Node61&#45;&gt;Node62 -->
<g id="edge2" class="edge"><title>Node61&#45;&gt;Node62</title>
<path fill="none" stroke="midnightblue" d="M238.216,-15.5C246.574,-15.5 255.249,-15.5 263.792,-15.5"/>
<polygon fill="midnightblue" stroke="midnightblue" points="238.206,-12.0001 228.206,-15.5 238.206,-19.0001 238.206,-12.0001"/>
</g>
</g>
</svg>
