<?xml version="1.0" encoding="UTF-8" standalone="no"?>
<!DOCTYPE svg PUBLIC "-//W3C//DTD SVG 1.1//EN"
 "http://www.w3.org/Graphics/SVG/1.1/DTD/svg11.dtd">
<!-- Generated by graphviz version 2.38.0 (20140413.2041)
 -->
<!-- Title: mom_regridding::interpolate_grid Pages: 1 -->
<svg width="658pt" height="88pt"
 viewBox="0.00 0.00 658.00 88.00" xmlns="http://www.w3.org/2000/svg" xmlns:xlink="http://www.w3.org/1999/xlink">
<g id="graph0" class="graph" transform="scale(1 1) rotate(0) translate(4 84)">
<title>mom_regridding::interpolate_grid</title>
<polygon fill="white" stroke="none" points="-4,4 -4,-84 654,-84 654,4 -4,4"/>
<!-- Node158 -->
<g id="node1" class="node"><title>Node158</title>
<polygon fill="#bfbfbf" stroke="black" points="0,-30 0,-49 158,-49 158,-30 0,-30"/>
<text text-anchor="middle" x="79" y="-37" font-family="Helvetica,sans-Serif" font-size="10.00">mom_regridding::interpolate_grid</text>
</g>
<!-- Node159 -->
<g id="node2" class="node"><title>Node159</title>
<g id="a_node2"><a xlink:href="../../d7/d1b/namespacemom__regridding.html#acbe376c457e1ea0c4514b948cbf5144b" target="_top" xlink:title="mom_regridding::build\l_hycom1_column">
<polygon fill="white" stroke="black" points="194,-49.5 194,-79.5 306,-79.5 306,-49.5 194,-49.5"/>
<text text-anchor="start" x="202" y="-67.5" font-family="Helvetica,sans-Serif" font-size="10.00">mom_regridding::build</text>
<text text-anchor="middle" x="250" y="-56.5" font-family="Helvetica,sans-Serif" font-size="10.00">_hycom1_column</text>
</a>
</g>
</g>
<!-- Node158&#45;&gt;Node159 -->
<g id="edge1" class="edge"><title>Node158&#45;&gt;Node159</title>
<path fill="none" stroke="midnightblue" d="M154.431,-50.5105C167.697,-52.4729 181.299,-54.485 193.903,-56.3496"/>
<polygon fill="midnightblue" stroke="midnightblue" points="154.778,-47.0239 144.374,-49.0227 153.754,-53.9485 154.778,-47.0239"/>
</g>
<!-- Node162 -->
<g id="node5" class="node"><title>Node162</title>
<g id="a_node5"><a xlink:href="../../d7/d1b/namespacemom__regridding.html#ab20189eff05b25a53451139c2e0fe6cf" target="_top" xlink:title="mom_regridding::build\l_rho_column">
<polygon fill="white" stroke="black" points="194,-0.5 194,-30.5 306,-30.5 306,-0.5 194,-0.5"/>
<text text-anchor="start" x="202" y="-18.5" font-family="Helvetica,sans-Serif" font-size="10.00">mom_regridding::build</text>
<text text-anchor="middle" x="250" y="-7.5" font-family="Helvetica,sans-Serif" font-size="10.00">_rho_column</text>
</a>
</g>
</g>
<!-- Node158&#45;&gt;Node162 -->
<g id="edge4" class="edge"><title>Node158&#45;&gt;Node162</title>
<path fill="none" stroke="midnightblue" d="M157.52,-28.4913C169.794,-26.7482 182.265,-24.9771 193.89,-23.3263"/>
<polygon fill="midnightblue" stroke="midnightblue" points="156.687,-25.0743 147.279,-29.9456 157.672,-32.0047 156.687,-25.0743"/>
</g>
<!-- Node160 -->
<g id="node3" class="node"><title>Node160</title>
<g id="a_node3"><a xlink:href="../../d7/d1b/namespacemom__regridding.html#a3375da62433b875eed537feeba1ae1b3" target="_top" xlink:title="Builds a simple HyCOM&#45;like grid with the deepest location of potential density interpolated from the ...">
<polygon fill="white" stroke="black" points="342,-49.5 342,-79.5 454,-79.5 454,-49.5 342,-49.5"/>
<text text-anchor="start" x="350" y="-67.5" font-family="Helvetica,sans-Serif" font-size="10.00">mom_regridding::build</text>
<text text-anchor="middle" x="398" y="-56.5" font-family="Helvetica,sans-Serif" font-size="10.00">_grid_hycom1</text>
</a>
</g>
</g>
<!-- Node159&#45;&gt;Node160 -->
<g id="edge2" class="edge"><title>Node159&#45;&gt;Node160</title>
<path fill="none" stroke="midnightblue" d="M316.41,-64.5C324.865,-64.5 333.457,-64.5 341.726,-64.5"/>
<polygon fill="midnightblue" stroke="midnightblue" points="316.196,-61.0001 306.196,-64.5 316.196,-68.0001 316.196,-61.0001"/>
</g>
<!-- Node161 -->
<g id="node4" class="node"><title>Node161</title>
<g id="a_node4"><a xlink:href="../../d7/d1b/namespacemom__regridding.html#abf6d4e0d14c8b3b69fa4ffca42122c5f" target="_top" xlink:title="mom_regridding::regridding_main">
<polygon fill="white" stroke="black" points="490,-30 490,-49 650,-49 650,-30 490,-30"/>
<text text-anchor="middle" x="570" y="-37" font-family="Helvetica,sans-Serif" font-size="10.00">mom_regridding::regridding_main</text>
</a>
</g>
</g>
<!-- Node160&#45;&gt;Node161 -->
<g id="edge3" class="edge"><title>Node160&#45;&gt;Node161</title>
<path fill="none" stroke="midnightblue" d="M464.119,-54.9236C477.3,-52.9853 491.157,-50.9476 504.322,-49.0115"/>
<polygon fill="midnightblue" stroke="midnightblue" points="463.578,-51.4654 454.194,-56.3832 464.597,-58.3909 463.578,-51.4654"/>
</g>
<!-- Node163 -->
<g id="node6" class="node"><title>Node163</title>
<g id="a_node6"><a xlink:href="../../d7/d1b/namespacemom__regridding.html#a58a19305bbdab26bfa4f336dfac8c4f8" target="_top" xlink:title="mom_regridding::build\l_rho_grid">
<polygon fill="white" stroke="black" points="342,-0.5 342,-30.5 454,-30.5 454,-0.5 342,-0.5"/>
<text text-anchor="start" x="350" y="-18.5" font-family="Helvetica,sans-Serif" font-size="10.00">mom_regridding::build</text>
<text text-anchor="middle" x="398" y="-7.5" font-family="Helvetica,sans-Serif" font-size="10.00">_rho_grid</text>
</a>
</g>
</g>
<!-- Node162&#45;&gt;Node163 -->
<g id="edge5" class="edge"><title>Node162&#45;&gt;Node163</title>
<path fill="none" stroke="midnightblue" d="M316.41,-15.5C324.865,-15.5 333.457,-15.5 341.726,-15.5"/>
<polygon fill="midnightblue" stroke="midnightblue" points="316.196,-12.0001 306.196,-15.5 316.196,-19.0001 316.196,-12.0001"/>
</g>
<!-- Node163&#45;&gt;Node161 -->
<g id="edge6" class="edge"><title>Node163&#45;&gt;Node161</title>
<path fill="none" stroke="midnightblue" d="M464.303,-24.7192C476.526,-26.4448 489.324,-28.2517 501.609,-29.986"/>
<polygon fill="midnightblue" stroke="midnightblue" points="464.585,-21.2245 454.194,-23.2921 463.607,-28.1557 464.585,-21.2245"/>
</g>
</g>
</svg>
