<?xml version="1.0" encoding="UTF-8" standalone="no"?>
<!DOCTYPE svg PUBLIC "-//W3C//DTD SVG 1.1//EN"
 "http://www.w3.org/Graphics/SVG/1.1/DTD/svg11.dtd">
<!-- Generated by graphviz version 2.38.0 (20140413.2041)
 -->
<!-- Title: mom_regridding::regridding_set_ppolys Pages: 1 -->
<!--zoomable 137 -->
<svg id="main" version="1.1" xmlns="http://www.w3.org/2000/svg" xmlns:xlink="http://www.w3.org/1999/xlink" xml:space="preserve" onload="init(evt)">
<style type="text/css"><![CDATA[
.edge:hover path { stroke: red; }
.edge:hover polygon { stroke: red; fill: red; }
]]></style>
<script type="text/javascript"><![CDATA[
var edges = document.getElementsByTagName('g');
if (edges && edges.length) {
  for (var i=0;i<edges.length;i++) {
    if (edges[i].id.substr(0,4)=='edge') {
      edges[i].setAttribute('class','edge');
    }
  }
}
]]></script>
        <defs>
                <circle id="rim" cx="0" cy="0" r="7"/>
                <circle id="rim2" cx="0" cy="0" r="3.5"/>
                <g id="zoomPlus">
                        <use xlink:href="#rim" fill="#404040">
                                <set attributeName="fill" to="#808080" begin="zoomplus.mouseover" end="zoomplus.mouseout"/>
                        </use>
                        <path d="M-4,0h8M0,-4v8" fill="none" stroke="white" stroke-width="1.5" pointer-events="none"/>
                </g>
                <g id="zoomMin">
                        <use xlink:href="#rim" fill="#404040">
                                <set attributeName="fill" to="#808080" begin="zoomminus.mouseover" end="zoomminus.mouseout"/>
                        </use>
                        <path d="M-4,0h8" fill="none" stroke="white" stroke-width="1.5" pointer-events="none"/>
                </g>
                <g id="dirArrow">
                        <path fill="none" stroke="white" stroke-width="1.5" d="M0,-3.0v7 M-2.5,-0.5L0,-3.0L2.5,-0.5"/>
                </g>
               <g id="resetDef">
                       <use xlink:href="#rim2" fill="#404040">
                               <set attributeName="fill" to="#808080" begin="reset.mouseover" end="reset.mouseout"/>
                       </use>
               </g>
        </defs>

<script type="text/javascript">
var viewWidth = 782;
var viewHeight = 137;
var sectionId = 'dynsection-39';
</script>
<script xlink:href="../../svgpan.js"/>
<svg id="graph" class="graph">
<g id="viewport">
<title>mom_regridding::regridding_set_ppolys</title>
<polygon fill="white" stroke="none" points="-4,4 -4,-133 778,-133 778,4 -4,4"/>
<!-- Node200 -->
<g id="node1" class="node"><title>Node200</title>
<polygon fill="#bfbfbf" stroke="black" points="0,-49.5 0,-79.5 134,-79.5 134,-49.5 0,-49.5"/>
<text text-anchor="start" x="8" y="-67.5" font-family="Helvetica,sans-Serif" font-size="10.00">mom_regridding::regridding</text>
<text text-anchor="middle" x="67" y="-56.5" font-family="Helvetica,sans-Serif" font-size="10.00">_set_ppolys</text>
</g>
<!-- Node201 -->
<g id="node2" class="node"><title>Node201</title>
<g id="a_node2"><a xlink:href="../../d7/d1b/namespacemom__regridding.html#acbe376c457e1ea0c4514b948cbf5144b" target="_top" xlink:title="mom_regridding::build\l_hycom1_column">
<polygon fill="white" stroke="black" points="170,-98.5 170,-128.5 282,-128.5 282,-98.5 170,-98.5"/>
<text text-anchor="start" x="178" y="-116.5" font-family="Helvetica,sans-Serif" font-size="10.00">mom_regridding::build</text>
<text text-anchor="middle" x="226" y="-105.5" font-family="Helvetica,sans-Serif" font-size="10.00">_hycom1_column</text>
</a>
</g>
</g>
<!-- Node200&#45;&gt;Node201 -->
<g id="edge1" class="edge"><title>Node200&#45;&gt;Node201</title>
<path fill="none" stroke="midnightblue" d="M126.035,-82.6129C142.726,-87.8222 160.744,-93.4457 176.774,-98.4484"/>
<polygon fill="midnightblue" stroke="midnightblue" points="126.975,-79.2397 116.386,-79.6014 124.889,-85.9219 126.975,-79.2397"/>
</g>
<!-- Node204 -->
<g id="node5" class="node"><title>Node204</title>
<g id="a_node5"><a xlink:href="../../d7/d1b/namespacemom__regridding.html#ab20189eff05b25a53451139c2e0fe6cf" target="_top" xlink:title="mom_regridding::build\l_rho_column">
<polygon fill="white" stroke="black" points="170,-49.5 170,-79.5 282,-79.5 282,-49.5 170,-49.5"/>
<text text-anchor="start" x="178" y="-67.5" font-family="Helvetica,sans-Serif" font-size="10.00">mom_regridding::build</text>
<text text-anchor="middle" x="226" y="-56.5" font-family="Helvetica,sans-Serif" font-size="10.00">_rho_column</text>
</a>
</g>
</g>
<!-- Node200&#45;&gt;Node204 -->
<g id="edge4" class="edge"><title>Node200&#45;&gt;Node204</title>
<path fill="none" stroke="midnightblue" d="M144.235,-64.5C152.881,-64.5 161.564,-64.5 169.863,-64.5"/>
<polygon fill="midnightblue" stroke="midnightblue" points="144.127,-61.0001 134.127,-64.5 144.127,-68.0001 144.127,-61.0001"/>
</g>
<!-- Node206 -->
<g id="node7" class="node"><title>Node206</title>
<g id="a_node7"><a xlink:href="../../d7/d1b/namespacemom__regridding.html#aacf680ddf88e9c41a340dd426272906d" target="_top" xlink:title="Finds the new interface locations in a column of water that match the prescribed target densities...">
<polygon fill="white" stroke="black" points="173.5,-0.5 173.5,-30.5 278.5,-30.5 278.5,-0.5 173.5,-0.5"/>
<text text-anchor="start" x="181.5" y="-18.5" font-family="Helvetica,sans-Serif" font-size="10.00">mom_regridding::rho</text>
<text text-anchor="middle" x="226" y="-7.5" font-family="Helvetica,sans-Serif" font-size="10.00">_interfaces_col</text>
</a>
</g>
</g>
<!-- Node200&#45;&gt;Node206 -->
<g id="edge7" class="edge"><title>Node200&#45;&gt;Node206</title>
<path fill="none" stroke="midnightblue" d="M126.035,-46.3871C142.726,-41.1778 160.744,-35.5543 176.774,-30.5516"/>
<polygon fill="midnightblue" stroke="midnightblue" points="124.889,-43.0781 116.386,-49.3986 126.975,-49.7603 124.889,-43.0781"/>
</g>
<!-- Node202 -->
<g id="node3" class="node"><title>Node202</title>
<g id="a_node3"><a xlink:href="../../d7/d1b/namespacemom__regridding.html#a3375da62433b875eed537feeba1ae1b3" target="_top" xlink:title="Builds a simple HyCOM&#45;like grid with the deepest location of potential density interpolated from the ...">
<polygon fill="white" stroke="black" points="466,-94.5 466,-124.5 578,-124.5 578,-94.5 466,-94.5"/>
<text text-anchor="start" x="474" y="-112.5" font-family="Helvetica,sans-Serif" font-size="10.00">mom_regridding::build</text>
<text text-anchor="middle" x="522" y="-101.5" font-family="Helvetica,sans-Serif" font-size="10.00">_grid_hycom1</text>
</a>
</g>
</g>
<!-- Node201&#45;&gt;Node202 -->
<g id="edge2" class="edge"><title>Node201&#45;&gt;Node202</title>
<path fill="none" stroke="midnightblue" d="M292.447,-112.61C344.585,-111.9 416.748,-110.918 465.949,-110.249"/>
<polygon fill="midnightblue" stroke="midnightblue" points="292.251,-109.112 282.299,-112.748 292.346,-116.111 292.251,-109.112"/>
</g>
<!-- Node203 -->
<g id="node4" class="node"><title>Node203</title>
<g id="a_node4"><a xlink:href="../../d7/d1b/namespacemom__regridding.html#abf6d4e0d14c8b3b69fa4ffca42122c5f" target="_top" xlink:title="mom_regridding::regridding_main">
<polygon fill="white" stroke="black" points="614,-55 614,-74 774,-74 774,-55 614,-55"/>
<text text-anchor="middle" x="694" y="-62" font-family="Helvetica,sans-Serif" font-size="10.00">mom_regridding::regridding_main</text>
</a>
</g>
</g>
<!-- Node202&#45;&gt;Node203 -->
<g id="edge3" class="edge"><title>Node202&#45;&gt;Node203</title>
<path fill="none" stroke="midnightblue" d="M588.077,-92.2738C611.494,-86.075 637.05,-79.3104 657.076,-74.0092"/>
<polygon fill="midnightblue" stroke="midnightblue" points="586.966,-88.9473 578.194,-94.8898 588.757,-95.7143 586.966,-88.9473"/>
</g>
<!-- Node205 -->
<g id="node6" class="node"><title>Node205</title>
<g id="a_node6"><a xlink:href="../../d7/d1b/namespacemom__regridding.html#a58a19305bbdab26bfa4f336dfac8c4f8" target="_top" xlink:title="mom_regridding::build\l_rho_grid">
<polygon fill="white" stroke="black" points="318,-49.5 318,-79.5 430,-79.5 430,-49.5 318,-49.5"/>
<text text-anchor="start" x="326" y="-67.5" font-family="Helvetica,sans-Serif" font-size="10.00">mom_regridding::build</text>
<text text-anchor="middle" x="374" y="-56.5" font-family="Helvetica,sans-Serif" font-size="10.00">_rho_grid</text>
</a>
</g>
</g>
<!-- Node204&#45;&gt;Node205 -->
<g id="edge5" class="edge"><title>Node204&#45;&gt;Node205</title>
<path fill="none" stroke="midnightblue" d="M292.41,-64.5C300.865,-64.5 309.457,-64.5 317.726,-64.5"/>
<polygon fill="midnightblue" stroke="midnightblue" points="292.196,-61.0001 282.196,-64.5 292.196,-68.0001 292.196,-61.0001"/>
</g>
<!-- Node205&#45;&gt;Node203 -->
<g id="edge6" class="edge"><title>Node205&#45;&gt;Node203</title>
<path fill="none" stroke="midnightblue" d="M440.144,-64.5C490.489,-64.5 560.389,-64.5 613.938,-64.5"/>
<polygon fill="midnightblue" stroke="midnightblue" points="440.028,-61.0001 430.028,-64.5 440.028,-68.0001 440.028,-61.0001"/>
</g>
<!-- Node207 -->
<g id="node8" class="node"><title>Node207</title>
<g id="a_node8"><a xlink:href="../../d7/d1b/namespacemom__regridding.html#a5927168e530c06163baf3693a804e15f" target="_top" xlink:title="mom_regridding::build\l_slight_column">
<polygon fill="white" stroke="black" points="318,-0.5 318,-30.5 430,-30.5 430,-0.5 318,-0.5"/>
<text text-anchor="start" x="326" y="-18.5" font-family="Helvetica,sans-Serif" font-size="10.00">mom_regridding::build</text>
<text text-anchor="middle" x="374" y="-7.5" font-family="Helvetica,sans-Serif" font-size="10.00">_slight_column</text>
</a>
</g>
</g>
<!-- Node206&#45;&gt;Node207 -->
<g id="edge8" class="edge"><title>Node206&#45;&gt;Node207</title>
<path fill="none" stroke="midnightblue" d="M289.107,-15.5C298.648,-15.5 308.443,-15.5 317.82,-15.5"/>
<polygon fill="midnightblue" stroke="midnightblue" points="288.885,-12.0001 278.885,-15.5 288.885,-19.0001 288.885,-12.0001"/>
</g>
<!-- Node208 -->
<g id="node9" class="node"><title>Node208</title>
<g id="a_node9"><a xlink:href="../../d7/d1b/namespacemom__regridding.html#adbdde4ab6606ab76f64f57b7ee5dfdeb" target="_top" xlink:title="Builds a grid that tracks density interfaces for water that is denser than the surface density plus a...">
<polygon fill="white" stroke="black" points="466,-3.5 466,-33.5 578,-33.5 578,-3.5 466,-3.5"/>
<text text-anchor="start" x="474" y="-21.5" font-family="Helvetica,sans-Serif" font-size="10.00">mom_regridding::build</text>
<text text-anchor="middle" x="522" y="-10.5" font-family="Helvetica,sans-Serif" font-size="10.00">_grid_slight</text>
</a>
</g>
</g>
<!-- Node207&#45;&gt;Node208 -->
<g id="edge9" class="edge"><title>Node207&#45;&gt;Node208</title>
<path fill="none" stroke="midnightblue" d="M440.41,-16.844C448.865,-17.0178 457.457,-17.1943 465.726,-17.3642"/>
<polygon fill="midnightblue" stroke="midnightblue" points="440.266,-13.3404 430.196,-16.6342 440.122,-20.339 440.266,-13.3404"/>
</g>
<!-- Node208&#45;&gt;Node203 -->
<g id="edge10" class="edge"><title>Node208&#45;&gt;Node203</title>
<path fill="none" stroke="midnightblue" d="M587.873,-36.0538C611.646,-42.4866 637.649,-49.5225 657.845,-54.9875"/>
<polygon fill="midnightblue" stroke="midnightblue" points="588.761,-32.6684 578.194,-33.4349 586.933,-39.4254 588.761,-32.6684"/>
</g>
</g>
</svg>
        <g id="navigator" transform="translate(0 0)" fill="#404254">
                <rect fill="#f2f5e9" fill-opacity="0.5" stroke="#606060" stroke-width=".5" x="0" y="0" width="60" height="60"/>
                <use id="zoomplus" xlink:href="#zoomPlus" x="17" y="9" onmousedown="handleZoom(evt,'in')"/>
                <use id="zoomminus" xlink:href="#zoomMin" x="42" y="9" onmousedown="handleZoom(evt,'out')"/>
                <use id="reset" xlink:href="#resetDef" x="30" y="36" onmousedown="handleReset()"/>
                <g id="arrowUp" xlink:href="#dirArrow" transform="translate(30 24)" onmousedown="handlePan(0,-1)">
                  <use xlink:href="#rim" fill="#404040">
                        <set attributeName="fill" to="#808080" begin="arrowUp.mouseover" end="arrowUp.mouseout"/>
                  </use>
                  <path fill="none" stroke="white" stroke-width="1.5" d="M0,-3.0v7 M-2.5,-0.5L0,-3.0L2.5,-0.5"/>
                </g>
                <g id="arrowRight" xlink:href="#dirArrow" transform="rotate(90) translate(36 -43)" onmousedown="handlePan(1,0)">
                  <use xlink:href="#rim" fill="#404040">
                        <set attributeName="fill" to="#808080" begin="arrowRight.mouseover" end="arrowRight.mouseout"/>
                  </use>
                  <path fill="none" stroke="white" stroke-width="1.5" d="M0,-3.0v7 M-2.5,-0.5L0,-3.0L2.5,-0.5"/>
                </g>
                <g id="arrowDown" xlink:href="#dirArrow" transform="rotate(180) translate(-30 -48)" onmousedown="handlePan(0,1)">
                  <use xlink:href="#rim" fill="#404040">
                        <set attributeName="fill" to="#808080" begin="arrowDown.mouseover" end="arrowDown.mouseout"/>
                  </use>
                  <path fill="none" stroke="white" stroke-width="1.5" d="M0,-3.0v7 M-2.5,-0.5L0,-3.0L2.5,-0.5"/>
                </g>
                <g id="arrowLeft" xlink:href="#dirArrow" transform="rotate(270) translate(-36 17)" onmousedown="handlePan(-1,0)">
                  <use xlink:href="#rim" fill="#404040">
                        <set attributeName="fill" to="#808080" begin="arrowLeft.mouseover" end="arrowLeft.mouseout"/>
                  </use>
                  <path fill="none" stroke="white" stroke-width="1.5" d="M0,-3.0v7 M-2.5,-0.5L0,-3.0L2.5,-0.5"/>
                </g>
        </g>
        <svg viewBox="0 0 15 15" width="100%" height="30px" preserveAspectRatio="xMaxYMin meet">
         <g id="arrow_out" transform="scale(0.3 0.3)">
          <a xlink:href="namespacemom__regridding_a580e775df53e4bb61f118fcab44a3f92_icgraph_org.svg" target="_base">
           <rect id="button" ry="5" rx="5" y="6" x="6" height="38" width="38"
                fill="#f2f5e9" fill-opacity="0.5" stroke="#606060" stroke-width="1.0"/>
           <path id="arrow"
             d="M 11.500037,31.436501 C 11.940474,20.09759 22.043105,11.32322 32.158766,21.979434 L 37.068811,17.246167 C 37.068811,17.246167 37.088388,32 37.088388,32 L 22.160133,31.978069 C 22.160133,31.978069 26.997745,27.140456 26.997745,27.140456 C 18.528582,18.264221 13.291696,25.230495 11.500037,31.436501 z"
             style="fill:#404040;"/>
          </a>
         </g>
        </svg>
</svg>
