<?xml version="1.0" encoding="UTF-8" standalone="no"?>
<!DOCTYPE svg PUBLIC "-//W3C//DTD SVG 1.1//EN"
 "http://www.w3.org/Graphics/SVG/1.1/DTD/svg11.dtd">
<!-- Generated by graphviz version 2.38.0 (20140413.2041)
 -->
<!-- Title: mom_regridding::build_rho_column Pages: 1 -->
<svg width="469pt" height="132pt"
 viewBox="0.00 0.00 469.00 132.00" xmlns="http://www.w3.org/2000/svg" xmlns:xlink="http://www.w3.org/1999/xlink">
<g id="graph0" class="graph" transform="scale(1 1) rotate(0) translate(4 128)">
<title>mom_regridding::build_rho_column</title>
<polygon fill="white" stroke="none" points="-4,4 -4,-128 465,-128 465,4 -4,4"/>
<!-- Node40 -->
<g id="node1" class="node"><title>Node40</title>
<polygon fill="#bfbfbf" stroke="black" points="0,-49.5 0,-79.5 112,-79.5 112,-49.5 0,-49.5"/>
<text text-anchor="start" x="8" y="-67.5" font-family="Helvetica,sans-Serif" font-size="10.00">mom_regridding::build</text>
<text text-anchor="middle" x="56" y="-56.5" font-family="Helvetica,sans-Serif" font-size="10.00">_rho_column</text>
</g>
<!-- Node41 -->
<g id="node2" class="node"><title>Node41</title>
<g id="a_node2"><a xlink:href="../../d7/d1b/namespacemom__regridding.html#a12dff5ec4c479e77db1813a8d53db7c2" target="_top" xlink:title="mom_regridding::interpolate_grid">
<polygon fill="white" stroke="black" points="148,-99 148,-118 306,-118 306,-99 148,-99"/>
<text text-anchor="middle" x="227" y="-106" font-family="Helvetica,sans-Serif" font-size="10.00">mom_regridding::interpolate_grid</text>
</a>
</g>
</g>
<!-- Node40&#45;&gt;Node41 -->
<g id="edge1" class="edge"><title>Node40&#45;&gt;Node41</title>
<path fill="none" stroke="midnightblue" d="M110.824,-79.5661C123.029,-82.9047 135.946,-86.3769 148,-89.5 157.017,-91.8362 166.641,-94.2474 175.941,-96.5353"/>
<polygon fill="midnightblue" stroke="midnightblue" points="175.317,-99.9857 185.862,-98.9602 176.979,-93.1859 175.317,-99.9857"/>
</g>
<!-- Node43 -->
<g id="node4" class="node"><title>Node43</title>
<g id="a_node4"><a xlink:href="../../d7/d1b/namespacemom__regridding.html#a392230123ef4347e6fe6c0b847be60bc" target="_top" xlink:title="mom_regridding::old\l_inflate_layers_1d">
<polygon fill="white" stroke="black" points="175,-49.5 175,-79.5 279,-79.5 279,-49.5 175,-49.5"/>
<text text-anchor="start" x="183" y="-67.5" font-family="Helvetica,sans-Serif" font-size="10.00">mom_regridding::old</text>
<text text-anchor="middle" x="227" y="-56.5" font-family="Helvetica,sans-Serif" font-size="10.00">_inflate_layers_1d</text>
</a>
</g>
</g>
<!-- Node40&#45;&gt;Node43 -->
<g id="edge3" class="edge"><title>Node40&#45;&gt;Node43</title>
<path fill="none" stroke="midnightblue" d="M112.337,-64.5C128.998,-64.5 147.384,-64.5 164.424,-64.5"/>
<polygon fill="midnightblue" stroke="midnightblue" points="164.832,-68.0001 174.832,-64.5 164.832,-61.0001 164.832,-68.0001"/>
</g>
<!-- Node44 -->
<g id="node5" class="node"><title>Node44</title>
<g id="a_node5"><a xlink:href="../../d7/d1b/namespacemom__regridding.html#a580e775df53e4bb61f118fcab44a3f92" target="_top" xlink:title="Given the set of target values and cell densities, this routine builds an interpolated profile for th...">
<polygon fill="white" stroke="black" points="160,-0.5 160,-30.5 294,-30.5 294,-0.5 160,-0.5"/>
<text text-anchor="start" x="168" y="-18.5" font-family="Helvetica,sans-Serif" font-size="10.00">mom_regridding::regridding</text>
<text text-anchor="middle" x="227" y="-7.5" font-family="Helvetica,sans-Serif" font-size="10.00">_set_ppolys</text>
</a>
</g>
</g>
<!-- Node40&#45;&gt;Node44 -->
<g id="edge4" class="edge"><title>Node40&#45;&gt;Node44</title>
<path fill="none" stroke="midnightblue" d="M109.085,-49.3986C126.595,-44.3215 146.295,-38.6098 164.462,-33.3423"/>
<polygon fill="midnightblue" stroke="midnightblue" points="165.458,-36.6979 174.087,-30.5516 163.508,-29.9748 165.458,-36.6979"/>
</g>
<!-- Node42 -->
<g id="node3" class="node"><title>Node42</title>
<g id="a_node3"><a xlink:href="../../d7/d1b/namespacemom__regridding.html#a6ec0dea34ca979892fcaf54a2c676c5e" target="_top" xlink:title="mom_regridding::get\l_polynomial_coordinate">
<polygon fill="white" stroke="black" points="342,-93.5 342,-123.5 461,-123.5 461,-93.5 342,-93.5"/>
<text text-anchor="start" x="350" y="-111.5" font-family="Helvetica,sans-Serif" font-size="10.00">mom_regridding::get</text>
<text text-anchor="middle" x="401.5" y="-100.5" font-family="Helvetica,sans-Serif" font-size="10.00">_polynomial_coordinate</text>
</a>
</g>
</g>
<!-- Node41&#45;&gt;Node42 -->
<g id="edge2" class="edge"><title>Node41&#45;&gt;Node42</title>
<path fill="none" stroke="midnightblue" d="M306.175,-108.5C314.73,-108.5 323.393,-108.5 331.822,-108.5"/>
<polygon fill="midnightblue" stroke="midnightblue" points="331.964,-112 341.964,-108.5 331.964,-105 331.964,-112"/>
</g>
</g>
</svg>
