<?xml version="1.0" encoding="UTF-8" standalone="no"?>
<!DOCTYPE svg PUBLIC "-//W3C//DTD SVG 1.1//EN"
 "http://www.w3.org/Graphics/SVG/1.1/DTD/svg11.dtd">
<!-- Generated by graphviz version 2.38.0 (20140413.2041)
 -->
<!-- Title: mom_regridding::build_rho_column Pages: 1 -->
<svg width="412pt" height="132pt"
 viewBox="0.00 0.00 412.00 132.00" xmlns="http://www.w3.org/2000/svg" xmlns:xlink="http://www.w3.org/1999/xlink">
<g id="graph0" class="graph" transform="scale(1 1) rotate(0) translate(4 128)">
<title>mom_regridding::build_rho_column</title>
<polygon fill="white" stroke="none" points="-4,4 -4,-128 408,-128 408,4 -4,4"/>
<!-- Node40 -->
<g id="node1" class="node"><title>Node40</title>
<polygon fill="#bfbfbf" stroke="black" points="0,-49.5 0,-79.5 96,-79.5 96,-49.5 0,-49.5"/>
<text text-anchor="start" x="8" y="-67.5" font-family="Helvetica,sans-Serif" font-size="10.00">mom_regridding::build</text>
<text text-anchor="middle" x="48" y="-56.5" font-family="Helvetica,sans-Serif" font-size="10.00">_rho_column</text>
</g>
<!-- Node41 -->
<g id="node2" class="node"><title>Node41</title>
<g id="a_node2"><a xlink:href="../../d7/d1b/namespacemom__regridding.html#a12dff5ec4c479e77db1813a8d53db7c2" target="_top" xlink:title="mom_regridding::interpolate_grid">
<polygon fill="white" stroke="black" points="132,-99 132,-118 267,-118 267,-99 132,-99"/>
<text text-anchor="middle" x="199.5" y="-106" font-family="Helvetica,sans-Serif" font-size="10.00">mom_regridding::interpolate_grid</text>
</a>
</g>
</g>
<!-- Node40&#45;&gt;Node41 -->
<g id="edge1" class="edge"><title>Node40&#45;&gt;Node41</title>
<path fill="none" stroke="midnightblue" d="M96.3688,-78.8948C108.01,-82.3974 120.448,-86.1101 132,-89.5 139.37,-91.6627 147.209,-93.9309 154.822,-96.1169"/>
<polygon fill="midnightblue" stroke="midnightblue" points="154.066,-99.5407 164.643,-98.9274 155.992,-92.8109 154.066,-99.5407"/>
</g>
<!-- Node43 -->
<g id="node4" class="node"><title>Node43</title>
<g id="a_node4"><a xlink:href="../../d7/d1b/namespacemom__regridding.html#a392230123ef4347e6fe6c0b847be60bc" target="_top" xlink:title="mom_regridding::old\l_inflate_layers_1d">
<polygon fill="white" stroke="black" points="154.5,-49.5 154.5,-79.5 244.5,-79.5 244.5,-49.5 154.5,-49.5"/>
<text text-anchor="start" x="162.5" y="-67.5" font-family="Helvetica,sans-Serif" font-size="10.00">mom_regridding::old</text>
<text text-anchor="middle" x="199.5" y="-56.5" font-family="Helvetica,sans-Serif" font-size="10.00">_inflate_layers_1d</text>
</a>
</g>
</g>
<!-- Node40&#45;&gt;Node43 -->
<g id="edge3" class="edge"><title>Node40&#45;&gt;Node43</title>
<path fill="none" stroke="midnightblue" d="M96.3027,-64.5C111.53,-64.5 128.523,-64.5 144.212,-64.5"/>
<polygon fill="midnightblue" stroke="midnightblue" points="144.302,-68.0001 154.302,-64.5 144.302,-61.0001 144.302,-68.0001"/>
</g>
<!-- Node44 -->
<g id="node5" class="node"><title>Node44</title>
<g id="a_node5"><a xlink:href="../../d7/d1b/namespacemom__regridding.html#a580e775df53e4bb61f118fcab44a3f92" target="_top" xlink:title="Given the set of target values and cell densities, this routine builds an interpolated profile for th...">
<polygon fill="white" stroke="black" points="141.5,-0.5 141.5,-30.5 257.5,-30.5 257.5,-0.5 141.5,-0.5"/>
<text text-anchor="start" x="149.5" y="-18.5" font-family="Helvetica,sans-Serif" font-size="10.00">mom_regridding::regridding</text>
<text text-anchor="middle" x="199.5" y="-7.5" font-family="Helvetica,sans-Serif" font-size="10.00">_set_ppolys</text>
</a>
</g>
</g>
<!-- Node40&#45;&gt;Node44 -->
<g id="edge4" class="edge"><title>Node40&#45;&gt;Node44</title>
<path fill="none" stroke="midnightblue" d="M95.0748,-49.3986C110.208,-44.4385 127.19,-38.8726 142.95,-33.7071"/>
<polygon fill="midnightblue" stroke="midnightblue" points="144.165,-36.9921 152.577,-30.5516 141.985,-30.3403 144.165,-36.9921"/>
</g>
<!-- Node42 -->
<g id="node3" class="node"><title>Node42</title>
<g id="a_node3"><a xlink:href="../../d7/d1b/namespacemom__regridding.html#a6ec0dea34ca979892fcaf54a2c676c5e" target="_top" xlink:title="mom_regridding::get\l_polynomial_coordinate">
<polygon fill="white" stroke="black" points="303,-93.5 303,-123.5 404,-123.5 404,-93.5 303,-93.5"/>
<text text-anchor="start" x="311" y="-111.5" font-family="Helvetica,sans-Serif" font-size="10.00">mom_regridding::get</text>
<text text-anchor="middle" x="353.5" y="-100.5" font-family="Helvetica,sans-Serif" font-size="10.00">_polynomial_coordinate</text>
</a>
</g>
</g>
<!-- Node41&#45;&gt;Node42 -->
<g id="edge2" class="edge"><title>Node41&#45;&gt;Node42</title>
<path fill="none" stroke="midnightblue" d="M267.169,-108.5C275.676,-108.5 284.34,-108.5 292.728,-108.5"/>
<polygon fill="midnightblue" stroke="midnightblue" points="292.794,-112 302.794,-108.5 292.794,-105 292.794,-112"/>
</g>
</g>
</svg>
