<?xml version="1.0" encoding="UTF-8" standalone="no"?>
<!DOCTYPE svg PUBLIC "-//W3C//DTD SVG 1.1//EN"
 "http://www.w3.org/Graphics/SVG/1.1/DTD/svg11.dtd">
<!-- Generated by graphviz version 2.38.0 (20140413.2041)
 -->
<!-- Title: mom_regridding::rho_interfaces_col Pages: 1 -->
<svg width="605pt" height="39pt"
 viewBox="0.00 0.00 605.00 39.00" xmlns="http://www.w3.org/2000/svg" xmlns:xlink="http://www.w3.org/1999/xlink">
<g id="graph0" class="graph" transform="scale(1 1) rotate(0) translate(4 35)">
<title>mom_regridding::rho_interfaces_col</title>
<polygon fill="white" stroke="none" points="-4,4 -4,-35 601,-35 601,4 -4,4"/>
<!-- Node211 -->
<g id="node1" class="node"><title>Node211</title>
<polygon fill="#bfbfbf" stroke="black" points="0,-0.5 0,-30.5 105,-30.5 105,-0.5 0,-0.5"/>
<text text-anchor="start" x="8" y="-18.5" font-family="Helvetica,sans-Serif" font-size="10.00">mom_regridding::rho</text>
<text text-anchor="middle" x="52.5" y="-7.5" font-family="Helvetica,sans-Serif" font-size="10.00">_interfaces_col</text>
</g>
<!-- Node212 -->
<g id="node2" class="node"><title>Node212</title>
<g id="a_node2"><a xlink:href="../../d7/d1b/namespacemom__regridding.html#a5927168e530c06163baf3693a804e15f" target="_top" xlink:title="mom_regridding::build\l_slight_column">
<polygon fill="white" stroke="black" points="141,-0.5 141,-30.5 253,-30.5 253,-0.5 141,-0.5"/>
<text text-anchor="start" x="149" y="-18.5" font-family="Helvetica,sans-Serif" font-size="10.00">mom_regridding::build</text>
<text text-anchor="middle" x="197" y="-7.5" font-family="Helvetica,sans-Serif" font-size="10.00">_slight_column</text>
</a>
</g>
</g>
<!-- Node211&#45;&gt;Node212 -->
<g id="edge1" class="edge"><title>Node211&#45;&gt;Node212</title>
<path fill="none" stroke="midnightblue" d="M115.436,-15.5C123.803,-15.5 132.344,-15.5 140.587,-15.5"/>
<polygon fill="midnightblue" stroke="midnightblue" points="115.349,-12.0001 105.349,-15.5 115.349,-19.0001 115.349,-12.0001"/>
</g>
<!-- Node213 -->
<g id="node3" class="node"><title>Node213</title>
<g id="a_node3"><a xlink:href="../../d7/d1b/namespacemom__regridding.html#adbdde4ab6606ab76f64f57b7ee5dfdeb" target="_top" xlink:title="Builds a grid that tracks density interfaces for water that is denser than the surface density plus a...">
<polygon fill="white" stroke="black" points="289,-0.5 289,-30.5 401,-30.5 401,-0.5 289,-0.5"/>
<text text-anchor="start" x="297" y="-18.5" font-family="Helvetica,sans-Serif" font-size="10.00">mom_regridding::build</text>
<text text-anchor="middle" x="345" y="-7.5" font-family="Helvetica,sans-Serif" font-size="10.00">_grid_slight</text>
</a>
</g>
</g>
<!-- Node212&#45;&gt;Node213 -->
<g id="edge2" class="edge"><title>Node212&#45;&gt;Node213</title>
<path fill="none" stroke="midnightblue" d="M263.41,-15.5C271.865,-15.5 280.457,-15.5 288.726,-15.5"/>
<polygon fill="midnightblue" stroke="midnightblue" points="263.196,-12.0001 253.196,-15.5 263.196,-19.0001 263.196,-12.0001"/>
</g>
<!-- Node214 -->
<g id="node4" class="node"><title>Node214</title>
<g id="a_node4"><a xlink:href="../../d7/d1b/namespacemom__regridding.html#abf6d4e0d14c8b3b69fa4ffca42122c5f" target="_top" xlink:title="mom_regridding::regridding_main">
<polygon fill="white" stroke="black" points="437,-6 437,-25 597,-25 597,-6 437,-6"/>
<text text-anchor="middle" x="517" y="-13" font-family="Helvetica,sans-Serif" font-size="10.00">mom_regridding::regridding_main</text>
</a>
</g>
</g>
<!-- Node213&#45;&gt;Node214 -->
<g id="edge3" class="edge"><title>Node213&#45;&gt;Node214</title>
<path fill="none" stroke="midnightblue" d="M411.211,-15.5C419.551,-15.5 428.161,-15.5 436.694,-15.5"/>
<polygon fill="midnightblue" stroke="midnightblue" points="411.194,-12.0001 401.194,-15.5 411.194,-19.0001 411.194,-12.0001"/>
</g>
</g>
</svg>
