<?xml version="1.0" encoding="UTF-8" standalone="no"?>
<!DOCTYPE svg PUBLIC "-//W3C//DTD SVG 1.1//EN"
 "http://www.w3.org/Graphics/SVG/1.1/DTD/svg11.dtd">
<!-- Generated by graphviz version 2.38.0 (20140413.2041)
 -->
<!-- Title: isomip_tracer::isomip_tracer_cs Pages: 1 -->
<svg width="355pt" height="436pt"
 viewBox="0.00 0.00 355.00 436.10" xmlns="http://www.w3.org/2000/svg" xmlns:xlink="http://www.w3.org/1999/xlink">
<g id="graph0" class="graph" transform="scale(1 1) rotate(0) translate(4 432.097)">
<title>isomip_tracer::isomip_tracer_cs</title>
<polygon fill="white" stroke="none" points="-4,4 -4,-432.097 351,-432.097 351,4 -4,4"/>
<!-- Node1 -->
<g id="node1" class="node"><title>Node1</title>
<polygon fill="#bfbfbf" stroke="black" points="255,-238.097 255,-268.097 347,-268.097 347,-238.097 255,-238.097"/>
<text text-anchor="start" x="263" y="-256.097" font-family="Helvetica,sans-Serif" font-size="10.00">isomip_tracer::isomip</text>
<text text-anchor="middle" x="301" y="-245.097" font-family="Helvetica,sans-Serif" font-size="10.00">_tracer_cs</text>
</g>
<!-- Node2 -->
<g id="node2" class="node"><title>Node2</title>
<polygon fill="white" stroke="#bfbfbf" points="98,-395.597 98,-414.597 136,-414.597 136,-395.597 98,-395.597"/>
<text text-anchor="middle" x="117" y="-402.597" font-family="Helvetica,sans-Serif" font-size="10.00">logical</text>
</g>
<!-- Node2&#45;&gt;Node1 -->
<g id="edge1" class="edge"><title>Node2&#45;&gt;Node1</title>
<path fill="none" stroke="#9a32cd" stroke-dasharray="5,2" d="M146.105,-402.384C172.18,-398.581 210.799,-389.525 237,-368.097 269.777,-341.29 288.182,-292.729 295.797,-268.177"/>
<polygon fill="#9a32cd" stroke="#9a32cd" points="145.577,-398.923 136.108,-403.675 146.474,-405.866 145.577,-398.923"/>
<text text-anchor="middle" x="208" y="-420.097" font-family="Helvetica,sans-Serif" font-size="10.00"> use_sponge</text>
<text text-anchor="middle" x="208" y="-409.097" font-family="Helvetica,sans-Serif" font-size="10.00">coupled_tracers</text>
<text text-anchor="middle" x="208" y="-398.097" font-family="Helvetica,sans-Serif" font-size="10.00">mask_tracers</text>
</g>
<!-- Node3 -->
<g id="node3" class="node"><title>Node3</title>
<polygon fill="white" stroke="#bfbfbf" points="91.5,-357.597 91.5,-376.597 142.5,-376.597 142.5,-357.597 91.5,-357.597"/>
<text text-anchor="middle" x="117" y="-364.597" font-family="Helvetica,sans-Serif" font-size="10.00">time_type</text>
</g>
<!-- Node3&#45;&gt;Node1 -->
<g id="edge2" class="edge"><title>Node3&#45;&gt;Node1</title>
<path fill="none" stroke="#9a32cd" stroke-dasharray="5,2" d="M152.391,-361.496C177.472,-356.189 211.408,-346.376 237,-329.097 260.863,-312.985 280.537,-285.29 291.244,-268.153"/>
<polygon fill="#9a32cd" stroke="#9a32cd" points="151.702,-358.065 142.573,-363.441 153.062,-364.931 151.702,-358.065"/>
<text text-anchor="middle" x="208" y="-356.097" font-family="Helvetica,sans-Serif" font-size="10.00"> time</text>
</g>
<!-- Node4 -->
<g id="node4" class="node"><title>Node4</title>
<polygon fill="white" stroke="#bfbfbf" points="73,-319.597 73,-338.597 161,-338.597 161,-319.597 73,-319.597"/>
<text text-anchor="middle" x="117" y="-326.597" font-family="Helvetica,sans-Serif" font-size="10.00">tracer_registry_type</text>
</g>
<!-- Node4&#45;&gt;Node1 -->
<g id="edge3" class="edge"><title>Node4&#45;&gt;Node1</title>
<path fill="none" stroke="#9a32cd" stroke-dasharray="5,2" d="M170.968,-317.061C192.021,-311.374 216.145,-303.699 237,-294.097 252.291,-287.056 268.169,-276.701 280.159,-268.158"/>
<polygon fill="#9a32cd" stroke="#9a32cd" points="170.009,-313.694 161.222,-319.613 171.782,-320.466 170.009,-313.694"/>
<text text-anchor="middle" x="208" y="-317.097" font-family="Helvetica,sans-Serif" font-size="10.00"> tr_reg</text>
</g>
<!-- Node5 -->
<g id="node5" class="node"><title>Node5</title>
<polygon fill="white" stroke="#bfbfbf" points="74.5,-281.597 74.5,-300.597 159.5,-300.597 159.5,-281.597 74.5,-281.597"/>
<text text-anchor="middle" x="117" y="-288.597" font-family="Helvetica,sans-Serif" font-size="10.00">character(len=200)</text>
</g>
<!-- Node5&#45;&gt;Node1 -->
<g id="edge4" class="edge"><title>Node5&#45;&gt;Node1</title>
<path fill="none" stroke="#9a32cd" stroke-dasharray="5,2" d="M169.648,-281.613C190.594,-277.637 214.992,-272.841 237,-268.097 242.825,-266.841 248.939,-265.462 254.971,-264.065"/>
<polygon fill="#9a32cd" stroke="#9a32cd" points="168.846,-278.203 159.668,-283.495 170.144,-285.081 168.846,-278.203"/>
<text text-anchor="middle" x="208" y="-282.097" font-family="Helvetica,sans-Serif" font-size="10.00"> tracer_ic_file</text>
</g>
<!-- Node6 -->
<g id="node6" class="node"><title>Node6</title>
<polygon fill="white" stroke="#bfbfbf" points="95,-243.597 95,-262.597 139,-262.597 139,-243.597 95,-243.597"/>
<text text-anchor="middle" x="117" y="-250.597" font-family="Helvetica,sans-Serif" font-size="10.00">vardesc</text>
</g>
<!-- Node6&#45;&gt;Node1 -->
<g id="edge5" class="edge"><title>Node6&#45;&gt;Node1</title>
<path fill="none" stroke="#9a32cd" stroke-dasharray="5,2" d="M149.251,-253.097C178.364,-253.097 222.098,-253.097 254.974,-253.097"/>
<polygon fill="#9a32cd" stroke="#9a32cd" points="149.234,-249.597 139.234,-253.097 149.234,-256.597 149.234,-249.597"/>
<text text-anchor="middle" x="208" y="-256.097" font-family="Helvetica,sans-Serif" font-size="10.00"> tr_desc</text>
</g>
<!-- Node7 -->
<g id="node7" class="node"><title>Node7</title>
<polygon fill="white" stroke="#bfbfbf" points="93.5,-205.597 93.5,-224.597 140.5,-224.597 140.5,-205.597 93.5,-205.597"/>
<text text-anchor="middle" x="117" y="-212.597" font-family="Helvetica,sans-Serif" font-size="10.00">diag_ctrl</text>
</g>
<!-- Node7&#45;&gt;Node1 -->
<g id="edge6" class="edge"><title>Node7&#45;&gt;Node1</title>
<path fill="none" stroke="#9a32cd" stroke-dasharray="5,2" d="M150.849,-221.055C174.788,-225.491 207.973,-231.839 237,-238.097 242.825,-239.353 248.939,-240.731 254.971,-242.128"/>
<polygon fill="#9a32cd" stroke="#9a32cd" points="151.341,-217.586 140.872,-219.217 150.073,-224.471 151.341,-217.586"/>
<text text-anchor="middle" x="208" y="-241.097" font-family="Helvetica,sans-Serif" font-size="10.00"> diag</text>
</g>
<!-- Node8 -->
<g id="node8" class="node"><title>Node8</title>
<g id="a_node8"><a xlink:href="../../d7/dba/structisomip__tracer_1_1p3d.html" target="_top" xlink:title="isomip_tracer::p3d">
<polygon fill="white" stroke="black" points="75.5,-92.5968 75.5,-111.597 158.5,-111.597 158.5,-92.5968 75.5,-92.5968"/>
<text text-anchor="middle" x="117" y="-99.5968" font-family="Helvetica,sans-Serif" font-size="10.00">isomip_tracer::p3d</text>
</a>
</g>
</g>
<!-- Node8&#45;&gt;Node1 -->
<g id="edge7" class="edge"><title>Node8&#45;&gt;Node1</title>
<path fill="none" stroke="#9a32cd" stroke-dasharray="5,2" d="M158.607,-90.4898C183.278,-85.9304 214.291,-84.8884 237,-100.097 284.259,-131.746 296.101,-205.963 299.041,-237.968"/>
<polygon fill="#9a32cd" stroke="#9a32cd" points="157.879,-87.0663 148.808,-92.5414 159.313,-93.9177 157.879,-87.0663"/>
<text text-anchor="middle" x="208" y="-136.097" font-family="Helvetica,sans-Serif" font-size="10.00"> tr_adx</text>
<text text-anchor="middle" x="208" y="-125.097" font-family="Helvetica,sans-Serif" font-size="10.00">tr_dfx</text>
<text text-anchor="middle" x="208" y="-114.097" font-family="Helvetica,sans-Serif" font-size="10.00">tr_ady</text>
<text text-anchor="middle" x="208" y="-103.097" font-family="Helvetica,sans-Serif" font-size="10.00">tr_dfy</text>
</g>
<!-- Node9 -->
<g id="node9" class="node"><title>Node9</title>
<polygon fill="white" stroke="#bfbfbf" points="0,-124.597 0,-143.597 30,-143.597 30,-124.597 0,-124.597"/>
<text text-anchor="middle" x="15" y="-131.597" font-family="Helvetica,sans-Serif" font-size="10.00">real</text>
</g>
<!-- Node9&#45;&gt;Node1 -->
<g id="edge10" class="edge"><title>Node9&#45;&gt;Node1</title>
<path fill="none" stroke="#9a32cd" stroke-dasharray="5,2" d="M40.3553,-137.83C75.7282,-143.445 139.446,-154.338 161,-163.097 207.875,-182.146 255.996,-217.542 281.494,-237.804"/>
<polygon fill="#9a32cd" stroke="#9a32cd" points="40.7868,-134.355 30.3656,-136.265 39.7035,-141.271 40.7868,-134.355"/>
<text text-anchor="middle" x="117" y="-188.097" font-family="Helvetica,sans-Serif" font-size="10.00"> tr_aux</text>
<text text-anchor="middle" x="117" y="-177.097" font-family="Helvetica,sans-Serif" font-size="10.00">land_val</text>
<text text-anchor="middle" x="117" y="-166.097" font-family="Helvetica,sans-Serif" font-size="10.00">tr</text>
</g>
<!-- Node9&#45;&gt;Node8 -->
<g id="edge8" class="edge"><title>Node9&#45;&gt;Node8</title>
<path fill="none" stroke="#9a32cd" stroke-dasharray="5,2" d="M40.0711,-126.394C53.8817,-121.975 71.3412,-116.388 86.0348,-111.686"/>
<polygon fill="#9a32cd" stroke="#9a32cd" points="38.7851,-123.131 30.3276,-129.512 40.9185,-129.798 38.7851,-123.131"/>
<text text-anchor="middle" x="51.5" y="-126.097" font-family="Helvetica,sans-Serif" font-size="10.00"> p</text>
</g>
<!-- Node10 -->
<g id="node10" class="node"><title>Node10</title>
<polygon fill="white" stroke="#bfbfbf" points="96.5,-0.596799 96.5,-19.5968 137.5,-19.5968 137.5,-0.596799 96.5,-0.596799"/>
<text text-anchor="middle" x="117" y="-7.5968" font-family="Helvetica,sans-Serif" font-size="10.00">integer</text>
</g>
<!-- Node10&#45;&gt;Node1 -->
<g id="edge9" class="edge"><title>Node10&#45;&gt;Node1</title>
<path fill="none" stroke="#9a32cd" stroke-dasharray="5,2" d="M147.607,-2.99225C174.015,1.48134 212.226,3.11528 237,-17.0968 271.994,-45.6475 292.369,-190.065 298.227,-237.775"/>
<polygon fill="#9a32cd" stroke="#9a32cd" points="146.934,0.442677 137.773,-4.87942 148.254,-6.43187 146.934,0.442677"/>
<text text-anchor="middle" x="208" y="-75.0968" font-family="Helvetica,sans-Serif" font-size="10.00"> id_tracer</text>
<text text-anchor="middle" x="208" y="-64.0968" font-family="Helvetica,sans-Serif" font-size="10.00">id_tr_dfx</text>
<text text-anchor="middle" x="208" y="-53.0968" font-family="Helvetica,sans-Serif" font-size="10.00">id_tr_dfy</text>
<text text-anchor="middle" x="208" y="-42.0968" font-family="Helvetica,sans-Serif" font-size="10.00">id_tr_adx</text>
<text text-anchor="middle" x="208" y="-31.0968" font-family="Helvetica,sans-Serif" font-size="10.00">ind_tr</text>
<text text-anchor="middle" x="208" y="-20.0968" font-family="Helvetica,sans-Serif" font-size="10.00">id_tr_ady</text>
</g>
</g>
</svg>
