<?xml version="1.0" encoding="UTF-8" standalone="no"?>
<!DOCTYPE svg PUBLIC "-//W3C//DTD SVG 1.1//EN"
 "http://www.w3.org/Graphics/SVG/1.1/DTD/svg11.dtd">
<!-- Generated by graphviz version 2.38.0 (20140413.2041)
 -->
<!-- Title: mom_file_parser::closemultilinecomment Pages: 1 -->
<svg width="928pt" height="176pt"
 viewBox="0.00 0.00 928.00 176.00" xmlns="http://www.w3.org/2000/svg" xmlns:xlink="http://www.w3.org/1999/xlink">
<g id="graph0" class="graph" transform="scale(1 1) rotate(0) translate(4 172)">
<title>mom_file_parser::closemultilinecomment</title>
<polygon fill="white" stroke="none" points="-4,4 -4,-172 924,-172 924,4 -4,4"/>
<!-- Node11 -->
<g id="node1" class="node"><title>Node11</title>
<polygon fill="#bfbfbf" stroke="black" points="0,-94 0,-113 194,-113 194,-94 0,-94"/>
<text text-anchor="middle" x="97" y="-101" font-family="Helvetica,sans-Serif" font-size="10.00">mom_file_parser::closemultilinecomment</text>
</g>
<!-- Node12 -->
<g id="node2" class="node"><title>Node12</title>
<g id="a_node2"><a xlink:href="../../d9/def/namespacemom__file__parser.html#a7abfd98d7f0831fc0d1f3747a68f1be9" target="_top" xlink:title="mom_file_parser::populate\l_param_data">
<polygon fill="white" stroke="black" points="230,-88.5 230,-118.5 361,-118.5 361,-88.5 230,-88.5"/>
<text text-anchor="start" x="238" y="-106.5" font-family="Helvetica,sans-Serif" font-size="10.00">mom_file_parser::populate</text>
<text text-anchor="middle" x="295.5" y="-95.5" font-family="Helvetica,sans-Serif" font-size="10.00">_param_data</text>
</a>
</g>
</g>
<!-- Node11&#45;&gt;Node12 -->
<g id="edge1" class="edge"><title>Node11&#45;&gt;Node12</title>
<path fill="none" stroke="midnightblue" d="M204.402,-103.5C213.044,-103.5 221.601,-103.5 229.803,-103.5"/>
<polygon fill="midnightblue" stroke="midnightblue" points="204.235,-100 194.235,-103.5 204.235,-107 204.235,-100"/>
</g>
<!-- Node13 -->
<g id="node3" class="node"><title>Node13</title>
<g id="a_node3"><a xlink:href="../../d9/def/namespacemom__file__parser.html#abecae1b9386aafa17aec927af1f8c448" target="_top" xlink:title="mom_file_parser::open\l_param_file">
<polygon fill="white" stroke="black" points="397,-88.5 397,-118.5 513,-118.5 513,-88.5 397,-88.5"/>
<text text-anchor="start" x="405" y="-106.5" font-family="Helvetica,sans-Serif" font-size="10.00">mom_file_parser::open</text>
<text text-anchor="middle" x="455" y="-95.5" font-family="Helvetica,sans-Serif" font-size="10.00">_param_file</text>
</a>
</g>
</g>
<!-- Node12&#45;&gt;Node13 -->
<g id="edge2" class="edge"><title>Node12&#45;&gt;Node13</title>
<path fill="none" stroke="midnightblue" d="M371.132,-103.5C379.797,-103.5 388.529,-103.5 396.906,-103.5"/>
<polygon fill="midnightblue" stroke="midnightblue" points="371.016,-100 361.016,-103.5 371.016,-107 371.016,-100"/>
</g>
<!-- Node14 -->
<g id="node4" class="node"><title>Node14</title>
<g id="a_node4"><a xlink:href="../../d6/d48/MOM__sum__driver_8F90.html#a08fffeb2d8e8acbf9ed4609be6d258c6" target="_top" xlink:title="mom_main">
<polygon fill="white" stroke="black" points="568,-116 568,-135 633,-135 633,-116 568,-116"/>
<text text-anchor="middle" x="600.5" y="-123" font-family="Helvetica,sans-Serif" font-size="10.00">mom_main</text>
</a>
</g>
</g>
<!-- Node13&#45;&gt;Node14 -->
<g id="edge3" class="edge"><title>Node13&#45;&gt;Node14</title>
<path fill="none" stroke="midnightblue" d="M523.257,-113.811C538.78,-116.191 554.584,-118.614 567.749,-120.632"/>
<polygon fill="midnightblue" stroke="midnightblue" points="523.542,-110.314 513.127,-112.258 522.481,-117.233 523.542,-110.314"/>
</g>
<!-- Node15 -->
<g id="node5" class="node"><title>Node15</title>
<g id="a_node5"><a xlink:href="../../d9/d7f/namespacemom__get__input.html#a299c5b9476662ef1a382e23a8d078143" target="_top" xlink:title="mom_get_input::get\l_mom_input">
<polygon fill="white" stroke="black" points="549,-66.5 549,-96.5 652,-96.5 652,-66.5 549,-66.5"/>
<text text-anchor="start" x="557" y="-84.5" font-family="Helvetica,sans-Serif" font-size="10.00">mom_get_input::get</text>
<text text-anchor="middle" x="600.5" y="-73.5" font-family="Helvetica,sans-Serif" font-size="10.00">_mom_input</text>
</a>
</g>
</g>
<!-- Node13&#45;&gt;Node15 -->
<g id="edge4" class="edge"><title>Node13&#45;&gt;Node15</title>
<path fill="none" stroke="midnightblue" d="M523.119,-93.21C531.69,-91.8959 540.35,-90.5683 548.606,-89.3026"/>
<polygon fill="midnightblue" stroke="midnightblue" points="522.481,-89.7667 513.127,-94.7418 523.542,-96.6859 522.481,-89.7667"/>
</g>
<!-- Node16 -->
<g id="node6" class="node"><title>Node16</title>
<g id="a_node6"><a xlink:href="../../dc/ded/namespacemom__surface__forcing.html#ad01961191fdfc928f233901e285f4beb" target="_top" xlink:title="mom_surface_forcing\l::surface_forcing_init">
<polygon fill="white" stroke="black" points="698.5,-137.5 698.5,-167.5 808.5,-167.5 808.5,-137.5 698.5,-137.5"/>
<text text-anchor="start" x="706.5" y="-155.5" font-family="Helvetica,sans-Serif" font-size="10.00">mom_surface_forcing</text>
<text text-anchor="middle" x="753.5" y="-144.5" font-family="Helvetica,sans-Serif" font-size="10.00">::surface_forcing_init</text>
</a>
</g>
</g>
<!-- Node15&#45;&gt;Node16 -->
<g id="edge5" class="edge"><title>Node15&#45;&gt;Node16</title>
<path fill="none" stroke="midnightblue" d="M641.987,-101.144C645.394,-102.918 648.769,-104.718 652,-106.5 668.419,-115.557 671.135,-120.304 688,-128.5 694.555,-131.686 701.649,-134.716 708.651,-137.484"/>
<polygon fill="midnightblue" stroke="midnightblue" points="643.471,-97.972 632.973,-96.5413 640.287,-104.206 643.471,-97.972"/>
</g>
<!-- Node17 -->
<g id="node7" class="node"><title>Node17</title>
<g id="a_node7"><a xlink:href="../../d5/dd4/namespaceocean__model__mod.html#a6b00b9a33be391bb23668abbfa4d99c6" target="_top" xlink:title="ocean_model_mod::ocean\l_model_flux_init">
<polygon fill="white" stroke="black" points="688,-88.5 688,-118.5 819,-118.5 819,-88.5 688,-88.5"/>
<text text-anchor="start" x="696" y="-106.5" font-family="Helvetica,sans-Serif" font-size="10.00">ocean_model_mod::ocean</text>
<text text-anchor="middle" x="753.5" y="-95.5" font-family="Helvetica,sans-Serif" font-size="10.00">_model_flux_init</text>
</a>
</g>
</g>
<!-- Node15&#45;&gt;Node17 -->
<g id="edge6" class="edge"><title>Node15&#45;&gt;Node17</title>
<path fill="none" stroke="midnightblue" d="M662.343,-90.3645C670.785,-91.5945 679.482,-92.8616 687.988,-94.101"/>
<polygon fill="midnightblue" stroke="midnightblue" points="662.601,-86.8653 652.201,-88.8869 661.592,-93.7921 662.601,-86.8653"/>
</g>
<!-- Node18 -->
<g id="node8" class="node"><title>Node18</title>
<g id="a_node8"><a xlink:href="../../d5/d6d/ice__shelf__driver_8F90.html#aec5bef92f0dad343f545cd8d62e378d8" target="_top" xlink:title="shelf_main">
<polygon fill="white" stroke="black" points="855.5,-47 855.5,-66 919.5,-66 919.5,-47 855.5,-47"/>
<text text-anchor="middle" x="887.5" y="-54" font-family="Helvetica,sans-Serif" font-size="10.00">shelf_main</text>
</a>
</g>
</g>
<!-- Node15&#45;&gt;Node18 -->
<g id="edge7" class="edge"><title>Node15&#45;&gt;Node18</title>
<path fill="none" stroke="midnightblue" d="M662.095,-76.1847C721.275,-70.9934 808.992,-63.299 855.279,-59.2387"/>
<polygon fill="midnightblue" stroke="midnightblue" points="661.78,-72.6988 652.124,-77.0593 662.392,-79.672 661.78,-72.6988"/>
</g>
<!-- Node19 -->
<g id="node9" class="node"><title>Node19</title>
<g id="a_node9"><a xlink:href="../../df/da2/namespacemom__ice__shelf.html#ae315e8464ef8a20062e3bccb61886755" target="_top" xlink:title="mom_ice_shelf::initialize\l_ice_shelf">
<polygon fill="white" stroke="black" points="691.5,-0.5 691.5,-30.5 815.5,-30.5 815.5,-0.5 691.5,-0.5"/>
<text text-anchor="start" x="699.5" y="-18.5" font-family="Helvetica,sans-Serif" font-size="10.00">mom_ice_shelf::initialize</text>
<text text-anchor="middle" x="753.5" y="-7.5" font-family="Helvetica,sans-Serif" font-size="10.00">_ice_shelf</text>
</a>
</g>
</g>
<!-- Node15&#45;&gt;Node19 -->
<g id="edge8" class="edge"><title>Node15&#45;&gt;Node19</title>
<path fill="none" stroke="midnightblue" d="M645.396,-62.3136C668.52,-52.2066 696.47,-39.99 718.019,-30.5713"/>
<polygon fill="midnightblue" stroke="midnightblue" points="643.904,-59.1462 636.142,-66.3583 646.707,-65.5602 643.904,-59.1462"/>
</g>
<!-- Node19&#45;&gt;Node18 -->
<g id="edge9" class="edge"><title>Node19&#45;&gt;Node18</title>
<path fill="none" stroke="midnightblue" d="M812.565,-33.5353C827.438,-38.1549 842.856,-42.9439 855.739,-46.9455"/>
<polygon fill="midnightblue" stroke="midnightblue" points="813.491,-30.1579 802.902,-30.5341 811.414,-36.8429 813.491,-30.1579"/>
</g>
<!-- Node20 -->
<g id="node10" class="node"><title>Node20</title>
<g id="a_node10"><a xlink:href="../../de/dbc/MOM__driver_8F90.html#a08fffeb2d8e8acbf9ed4609be6d258c6" target="_top" xlink:title="mom_main">
<polygon fill="white" stroke="black" points="855,-6 855,-25 920,-25 920,-6 855,-6"/>
<text text-anchor="middle" x="887.5" y="-13" font-family="Helvetica,sans-Serif" font-size="10.00">mom_main</text>
</a>
</g>
</g>
<!-- Node19&#45;&gt;Node20 -->
<g id="edge10" class="edge"><title>Node19&#45;&gt;Node20</title>
<path fill="none" stroke="midnightblue" d="M825.975,-15.5C836.065,-15.5 845.983,-15.5 854.778,-15.5"/>
<polygon fill="midnightblue" stroke="midnightblue" points="825.863,-12.0001 815.863,-15.5 825.863,-19.0001 825.863,-12.0001"/>
</g>
</g>
</svg>
