<?xml version="1.0" encoding="UTF-8" standalone="no"?>
<!DOCTYPE svg PUBLIC "-//W3C//DTD SVG 1.1//EN"
 "http://www.w3.org/Graphics/SVG/1.1/DTD/svg11.dtd">
<!-- Generated by graphviz version 2.38.0 (20140413.2041)
 -->
<!-- Title: mom_file_parser::close_param_file Pages: 1 -->
<svg width="293pt" height="165pt"
 viewBox="0.00 0.00 293.00 165.00" xmlns="http://www.w3.org/2000/svg" xmlns:xlink="http://www.w3.org/1999/xlink">
<g id="graph0" class="graph" transform="scale(1 1) rotate(0) translate(4 161)">
<title>mom_file_parser::close_param_file</title>
<polygon fill="white" stroke="none" points="-4,4 -4,-161 289,-161 289,4 -4,4"/>
<!-- Node5 -->
<g id="node1" class="node"><title>Node5</title>
<polygon fill="#bfbfbf" stroke="black" points="0,-63 0,-93 118,-93 118,-63 0,-63"/>
<text text-anchor="start" x="8" y="-81" font-family="Helvetica,sans-Serif" font-size="10.00">mom_file_parser::close</text>
<text text-anchor="middle" x="59" y="-70" font-family="Helvetica,sans-Serif" font-size="10.00">_param_file</text>
</g>
<!-- Node6 -->
<g id="node2" class="node"><title>Node6</title>
<g id="a_node2"><a xlink:href="../../de/dbc/MOM__driver_8F90.html#a08fffeb2d8e8acbf9ed4609be6d258c6" target="_top" xlink:title="mom_main">
<polygon fill="white" stroke="black" points="187,-137.5 187,-156.5 252,-156.5 252,-137.5 187,-137.5"/>
<text text-anchor="middle" x="219.5" y="-144.5" font-family="Helvetica,sans-Serif" font-size="10.00">mom_main</text>
</a>
</g>
</g>
<!-- Node5&#45;&gt;Node6 -->
<g id="edge1" class="edge"><title>Node5&#45;&gt;Node6</title>
<path fill="none" stroke="midnightblue" d="M93.6107,-98.0142C111.19,-107.927 133.307,-119.55 154,-128 164.483,-132.281 176.282,-136.045 186.895,-139.07"/>
<polygon fill="midnightblue" stroke="midnightblue" points="95.2817,-94.9379 84.8634,-93.0119 91.8067,-101.014 95.2817,-94.9379"/>
</g>
<!-- Node7 -->
<g id="node3" class="node"><title>Node7</title>
<g id="a_node3"><a xlink:href="../../d5/dd4/namespaceocean__model__mod.html#a6b00b9a33be391bb23668abbfa4d99c6" target="_top" xlink:title="ocean_model_mod::ocean\l_model_flux_init">
<polygon fill="white" stroke="black" points="154,-88 154,-118 285,-118 285,-88 154,-88"/>
<text text-anchor="start" x="162" y="-106" font-family="Helvetica,sans-Serif" font-size="10.00">ocean_model_mod::ocean</text>
<text text-anchor="middle" x="219.5" y="-95" font-family="Helvetica,sans-Serif" font-size="10.00">_model_flux_init</text>
</a>
</g>
</g>
<!-- Node5&#45;&gt;Node7 -->
<g id="edge2" class="edge"><title>Node5&#45;&gt;Node7</title>
<path fill="none" stroke="midnightblue" d="M128.091,-88.7399C136.676,-90.0941 145.44,-91.4763 153.968,-92.8214"/>
<polygon fill="midnightblue" stroke="midnightblue" points="128.543,-85.268 118.12,-87.1671 127.452,-92.1825 128.543,-85.268"/>
</g>
<!-- Node8 -->
<g id="node4" class="node"><title>Node8</title>
<g id="a_node4"><a xlink:href="../../d5/dd4/namespaceocean__model__mod.html#aced9c77abd80a4a509c7cc317af707a7" target="_top" xlink:title="ocean_model_mod::ocean\l_model_init">
<polygon fill="white" stroke="black" points="154,-39 154,-69 285,-69 285,-39 154,-39"/>
<text text-anchor="start" x="162" y="-57" font-family="Helvetica,sans-Serif" font-size="10.00">ocean_model_mod::ocean</text>
<text text-anchor="middle" x="219.5" y="-46" font-family="Helvetica,sans-Serif" font-size="10.00">_model_init</text>
</a>
</g>
</g>
<!-- Node5&#45;&gt;Node8 -->
<g id="edge3" class="edge"><title>Node5&#45;&gt;Node8</title>
<path fill="none" stroke="midnightblue" d="M128.091,-67.6897C136.676,-66.3897 145.44,-65.0627 153.968,-63.7715"/>
<polygon fill="midnightblue" stroke="midnightblue" points="127.483,-64.2418 118.12,-69.1996 128.531,-71.1629 127.483,-64.2418"/>
</g>
<!-- Node9 -->
<g id="node5" class="node"><title>Node9</title>
<g id="a_node5"><a xlink:href="../../d5/d6d/ice__shelf__driver_8F90.html#aec5bef92f0dad343f545cd8d62e378d8" target="_top" xlink:title="shelf_main">
<polygon fill="white" stroke="black" points="187.5,-0.5 187.5,-19.5 251.5,-19.5 251.5,-0.5 187.5,-0.5"/>
<text text-anchor="middle" x="219.5" y="-7.5" font-family="Helvetica,sans-Serif" font-size="10.00">shelf_main</text>
</a>
</g>
</g>
<!-- Node5&#45;&gt;Node9 -->
<g id="edge4" class="edge"><title>Node5&#45;&gt;Node9</title>
<path fill="none" stroke="midnightblue" d="M95.7301,-57.926C113.006,-48.6969 134.237,-38.0406 154,-30 164.642,-25.6702 176.589,-21.7244 187.281,-18.5033"/>
<polygon fill="midnightblue" stroke="midnightblue" points="93.703,-55.0433 86.574,-62.8808 97.0346,-61.1997 93.703,-55.0433"/>
</g>
</g>
</svg>
