<?xml version="1.0" encoding="UTF-8" standalone="no"?>
<!DOCTYPE svg PUBLIC "-//W3C//DTD SVG 1.1//EN"
 "http://www.w3.org/Graphics/SVG/1.1/DTD/svg11.dtd">
<!-- Generated by graphviz version 2.38.0 (20140413.2041)
 -->
<!-- Title: mom_file_parser::closeparameterblock Pages: 1 -->
<svg width="728pt" height="132pt"
 viewBox="0.00 0.00 728.00 132.00" xmlns="http://www.w3.org/2000/svg" xmlns:xlink="http://www.w3.org/1999/xlink">
<g id="graph0" class="graph" transform="scale(1 1) rotate(0) translate(4 128)">
<title>mom_file_parser::closeparameterblock</title>
<polygon fill="white" stroke="none" points="-4,4 -4,-128 724,-128 724,4 -4,4"/>
<!-- Node29 -->
<g id="node1" class="node"><title>Node29</title>
<polygon fill="#bfbfbf" stroke="black" points="0,-44.5 0,-63.5 185,-63.5 185,-44.5 0,-44.5"/>
<text text-anchor="middle" x="92.5" y="-51.5" font-family="Helvetica,sans-Serif" font-size="10.00">mom_file_parser::closeparameterblock</text>
</g>
<!-- Node30 -->
<g id="node2" class="node"><title>Node30</title>
<g id="a_node2"><a xlink:href="../../d8/d50/namespacebaroclinic__zone__initialization.html#a72863008aadad2118278f5e0978fd99b" target="_top" xlink:title="Reads the parameters unique to this module. ">
<polygon fill="white" stroke="black" points="221,-88 221,-118 361,-118 361,-88 221,-88"/>
<text text-anchor="start" x="229" y="-106" font-family="Helvetica,sans-Serif" font-size="10.00">baroclinic_zone_initialization</text>
<text text-anchor="middle" x="291" y="-95" font-family="Helvetica,sans-Serif" font-size="10.00">::bcz_params</text>
</a>
</g>
</g>
<!-- Node29&#45;&gt;Node30 -->
<g id="edge1" class="edge"><title>Node29&#45;&gt;Node30</title>
<path fill="none" stroke="midnightblue" d="M141.679,-66.0142C168.23,-72.635 201.439,-80.9161 229.699,-87.963"/>
<polygon fill="midnightblue" stroke="midnightblue" points="142.403,-62.5876 131.854,-63.564 140.71,-69.3796 142.403,-62.5876"/>
</g>
<!-- Node33 -->
<g id="node5" class="node"><title>Node33</title>
<g id="a_node5"><a xlink:href="../../d6/d07/namespacemom__diffconvection.html#ac36d9d7fd69e4422e7de01242094ff34" target="_top" xlink:title="mom_diffconvection\l::diffconvection_init">
<polygon fill="white" stroke="black" points="239,-39 239,-69 343,-69 343,-39 239,-39"/>
<text text-anchor="start" x="247" y="-57" font-family="Helvetica,sans-Serif" font-size="10.00">mom_diffconvection</text>
<text text-anchor="middle" x="291" y="-46" font-family="Helvetica,sans-Serif" font-size="10.00">::diffconvection_init</text>
</a>
</g>
</g>
<!-- Node29&#45;&gt;Node33 -->
<g id="edge4" class="edge"><title>Node29&#45;&gt;Node33</title>
<path fill="none" stroke="midnightblue" d="M195.562,-54C210.622,-54 225.562,-54 238.964,-54"/>
<polygon fill="midnightblue" stroke="midnightblue" points="195.134,-50.5001 185.134,-54 195.134,-57.5001 195.134,-50.5001"/>
</g>
<!-- Node34 -->
<g id="node6" class="node"><title>Node34</title>
<g id="a_node6"><a xlink:href="../../d5/d08/namespacemom__kpp.html#a9c834424b6e067e280928db3700ec77e" target="_top" xlink:title="Initialize the CVmix KPP module and set up diagnostics Returns True if KPP is to be used...">
<polygon fill="white" stroke="black" points="241.5,-0.5 241.5,-19.5 340.5,-19.5 340.5,-0.5 241.5,-0.5"/>
<text text-anchor="middle" x="291" y="-7.5" font-family="Helvetica,sans-Serif" font-size="10.00">mom_kpp::kpp_init</text>
</a>
</g>
</g>
<!-- Node29&#45;&gt;Node34 -->
<g id="edge5" class="edge"><title>Node29&#45;&gt;Node34</title>
<path fill="none" stroke="midnightblue" d="M146.127,-42.2159C177.847,-35.1131 217.724,-26.184 247.446,-19.5287"/>
<polygon fill="midnightblue" stroke="midnightblue" points="145.131,-38.8521 136.138,-44.4527 146.661,-45.6829 145.131,-38.8521"/>
</g>
<!-- Node31 -->
<g id="node3" class="node"><title>Node31</title>
<g id="a_node3"><a xlink:href="../../d8/d50/namespacebaroclinic__zone__initialization.html#a2f99c7b0ea7981ef7b2c342fbc8c00c1" target="_top" xlink:title="Initialization of temperature and salinity with the baroclinic zone initial conditions. ">
<polygon fill="white" stroke="black" points="397,-82.5 397,-123.5 562,-123.5 562,-82.5 397,-82.5"/>
<text text-anchor="start" x="405" y="-111.5" font-family="Helvetica,sans-Serif" font-size="10.00">baroclinic_zone_initialization</text>
<text text-anchor="start" x="405" y="-100.5" font-family="Helvetica,sans-Serif" font-size="10.00">::baroclinic_zone_init_temperature</text>
<text text-anchor="middle" x="479.5" y="-89.5" font-family="Helvetica,sans-Serif" font-size="10.00">_salinity</text>
</a>
</g>
</g>
<!-- Node30&#45;&gt;Node31 -->
<g id="edge2" class="edge"><title>Node30&#45;&gt;Node31</title>
<path fill="none" stroke="midnightblue" d="M371.364,-103C379.791,-103 388.373,-103 396.826,-103"/>
<polygon fill="midnightblue" stroke="midnightblue" points="371.181,-99.5001 361.181,-103 371.181,-106.5 371.181,-99.5001"/>
</g>
<!-- Node32 -->
<g id="node4" class="node"><title>Node32</title>
<g id="a_node4"><a xlink:href="../../d6/d62/namespacemom__state__initialization.html#af4e854627c6572332ba3fd895f169321" target="_top" xlink:title="mom_state_initialization\l::mom_initialize_state">
<polygon fill="white" stroke="black" points="598,-88 598,-118 720,-118 720,-88 598,-88"/>
<text text-anchor="start" x="606" y="-106" font-family="Helvetica,sans-Serif" font-size="10.00">mom_state_initialization</text>
<text text-anchor="middle" x="659" y="-95" font-family="Helvetica,sans-Serif" font-size="10.00">::mom_initialize_state</text>
</a>
</g>
</g>
<!-- Node31&#45;&gt;Node32 -->
<g id="edge3" class="edge"><title>Node31&#45;&gt;Node32</title>
<path fill="none" stroke="midnightblue" d="M572.391,-103C581.043,-103 589.654,-103 597.897,-103"/>
<polygon fill="midnightblue" stroke="midnightblue" points="572.236,-99.5001 562.236,-103 572.236,-106.5 572.236,-99.5001"/>
</g>
</g>
</svg>
