<?xml version="1.0" encoding="UTF-8" standalone="no"?>
<!DOCTYPE svg PUBLIC "-//W3C//DTD SVG 1.1//EN"
 "http://www.w3.org/Graphics/SVG/1.1/DTD/svg11.dtd">
<!-- Generated by graphviz version 2.38.0 (20140413.2041)
 -->
<!-- Title: mom_file_parser::simplifywhitespace Pages: 1 -->
<!--zoomable 176 -->
<svg id="main" version="1.1" xmlns="http://www.w3.org/2000/svg" xmlns:xlink="http://www.w3.org/1999/xlink" xml:space="preserve" onload="init(evt)">
<style type="text/css"><![CDATA[
.edge:hover path { stroke: red; }
.edge:hover polygon { stroke: red; fill: red; }
]]></style>
<script type="text/javascript"><![CDATA[
var edges = document.getElementsByTagName('g');
if (edges && edges.length) {
  for (var i=0;i<edges.length;i++) {
    if (edges[i].id.substr(0,4)=='edge') {
      edges[i].setAttribute('class','edge');
    }
  }
}
]]></script>
        <defs>
                <circle id="rim" cx="0" cy="0" r="7"/>
                <circle id="rim2" cx="0" cy="0" r="3.5"/>
                <g id="zoomPlus">
                        <use xlink:href="#rim" fill="#404040">
                                <set attributeName="fill" to="#808080" begin="zoomplus.mouseover" end="zoomplus.mouseout"/>
                        </use>
                        <path d="M-4,0h8M0,-4v8" fill="none" stroke="white" stroke-width="1.5" pointer-events="none"/>
                </g>
                <g id="zoomMin">
                        <use xlink:href="#rim" fill="#404040">
                                <set attributeName="fill" to="#808080" begin="zoomminus.mouseover" end="zoomminus.mouseout"/>
                        </use>
                        <path d="M-4,0h8" fill="none" stroke="white" stroke-width="1.5" pointer-events="none"/>
                </g>
                <g id="dirArrow">
                        <path fill="none" stroke="white" stroke-width="1.5" d="M0,-3.0v7 M-2.5,-0.5L0,-3.0L2.5,-0.5"/>
                </g>
               <g id="resetDef">
                       <use xlink:href="#rim2" fill="#404040">
                               <set attributeName="fill" to="#808080" begin="reset.mouseover" end="reset.mouseout"/>
                       </use>
               </g>
        </defs>

<script type="text/javascript">
var viewWidth = 912;
var viewHeight = 176;
var sectionId = 'dynsection-68';
</script>
<script xlink:href="../../svgpan.js"/>
<svg id="graph" class="graph">
<g id="viewport">
<title>mom_file_parser::simplifywhitespace</title>
<polygon fill="white" stroke="none" points="-4,4 -4,-172 908,-172 908,4 -4,4"/>
<!-- Node466 -->
<g id="node1" class="node"><title>Node466</title>
<polygon fill="#bfbfbf" stroke="black" points="0,-50 0,-69 178,-69 178,-50 0,-50"/>
<text text-anchor="middle" x="89" y="-57" font-family="Helvetica,sans-Serif" font-size="10.00">mom_file_parser::simplifywhitespace</text>
</g>
<!-- Node467 -->
<g id="node2" class="node"><title>Node467</title>
<g id="a_node2"><a xlink:href="../../d9/def/namespacemom__file__parser.html#a7abfd98d7f0831fc0d1f3747a68f1be9" target="_top" xlink:title="mom_file_parser::populate\l_param_data">
<polygon fill="white" stroke="black" points="214,-44.5 214,-74.5 345,-74.5 345,-44.5 214,-44.5"/>
<text text-anchor="start" x="222" y="-62.5" font-family="Helvetica,sans-Serif" font-size="10.00">mom_file_parser::populate</text>
<text text-anchor="middle" x="279.5" y="-51.5" font-family="Helvetica,sans-Serif" font-size="10.00">_param_data</text>
</a>
</g>
</g>
<!-- Node466&#45;&gt;Node467 -->
<g id="edge1" class="edge"><title>Node466&#45;&gt;Node467</title>
<path fill="none" stroke="midnightblue" d="M188.299,-59.5C196.916,-59.5 205.489,-59.5 213.727,-59.5"/>
<polygon fill="midnightblue" stroke="midnightblue" points="188.179,-56.0001 178.179,-59.5 188.179,-63.0001 188.179,-56.0001"/>
</g>
<!-- Node468 -->
<g id="node3" class="node"><title>Node468</title>
<g id="a_node3"><a xlink:href="../../d9/def/namespacemom__file__parser.html#abecae1b9386aafa17aec927af1f8c448" target="_top" xlink:title="mom_file_parser::open\l_param_file">
<polygon fill="white" stroke="black" points="381,-44.5 381,-74.5 497,-74.5 497,-44.5 381,-44.5"/>
<text text-anchor="start" x="389" y="-62.5" font-family="Helvetica,sans-Serif" font-size="10.00">mom_file_parser::open</text>
<text text-anchor="middle" x="439" y="-51.5" font-family="Helvetica,sans-Serif" font-size="10.00">_param_file</text>
</a>
</g>
</g>
<!-- Node467&#45;&gt;Node468 -->
<g id="edge2" class="edge"><title>Node467&#45;&gt;Node468</title>
<path fill="none" stroke="midnightblue" d="M355.132,-59.5C363.797,-59.5 372.529,-59.5 380.906,-59.5"/>
<polygon fill="midnightblue" stroke="midnightblue" points="355.016,-56.0001 345.016,-59.5 355.016,-63.0001 355.016,-56.0001"/>
</g>
<!-- Node469 -->
<g id="node4" class="node"><title>Node469</title>
<g id="a_node4"><a xlink:href="../../d9/d7f/namespacemom__get__input.html#a299c5b9476662ef1a382e23a8d078143" target="_top" xlink:title="mom_get_input::get\l_mom_input">
<polygon fill="white" stroke="black" points="533,-66.5 533,-96.5 636,-96.5 636,-66.5 533,-66.5"/>
<text text-anchor="start" x="541" y="-84.5" font-family="Helvetica,sans-Serif" font-size="10.00">mom_get_input::get</text>
<text text-anchor="middle" x="584.5" y="-73.5" font-family="Helvetica,sans-Serif" font-size="10.00">_mom_input</text>
</a>
</g>
</g>
<!-- Node468&#45;&gt;Node469 -->
<g id="edge3" class="edge"><title>Node468&#45;&gt;Node469</title>
<path fill="none" stroke="midnightblue" d="M507.119,-69.79C515.69,-71.1041 524.35,-72.4317 532.606,-73.6974"/>
<polygon fill="midnightblue" stroke="midnightblue" points="507.542,-66.3141 497.127,-68.2582 506.481,-73.2333 507.542,-66.3141"/>
</g>
<!-- Node475 -->
<g id="node10" class="node"><title>Node475</title>
<g id="a_node10"><a xlink:href="../../d6/d48/MOM__sum__driver_8F90.html#a08fffeb2d8e8acbf9ed4609be6d258c6" target="_top" xlink:title="mom_main">
<polygon fill="white" stroke="black" points="552,-28 552,-47 617,-47 617,-28 552,-28"/>
<text text-anchor="middle" x="584.5" y="-35" font-family="Helvetica,sans-Serif" font-size="10.00">mom_main</text>
</a>
</g>
</g>
<!-- Node468&#45;&gt;Node475 -->
<g id="edge10" class="edge"><title>Node468&#45;&gt;Node475</title>
<path fill="none" stroke="midnightblue" d="M507.257,-49.1888C522.78,-46.809 538.584,-44.386 551.749,-42.3678"/>
<polygon fill="midnightblue" stroke="midnightblue" points="506.481,-45.7667 497.127,-50.7418 507.542,-52.6859 506.481,-45.7667"/>
</g>
<!-- Node470 -->
<g id="node5" class="node"><title>Node470</title>
<g id="a_node5"><a xlink:href="../../dc/ded/namespacemom__surface__forcing.html#ad01961191fdfc928f233901e285f4beb" target="_top" xlink:title="mom_surface_forcing\l::surface_forcing_init">
<polygon fill="white" stroke="black" points="682.5,-137.5 682.5,-167.5 792.5,-167.5 792.5,-137.5 682.5,-137.5"/>
<text text-anchor="start" x="690.5" y="-155.5" font-family="Helvetica,sans-Serif" font-size="10.00">mom_surface_forcing</text>
<text text-anchor="middle" x="737.5" y="-144.5" font-family="Helvetica,sans-Serif" font-size="10.00">::surface_forcing_init</text>
</a>
</g>
</g>
<!-- Node469&#45;&gt;Node470 -->
<g id="edge4" class="edge"><title>Node469&#45;&gt;Node470</title>
<path fill="none" stroke="midnightblue" d="M619.924,-101.66C635.557,-110.434 654.444,-120.513 672,-128.5 678.851,-131.617 686.237,-134.654 693.479,-137.46"/>
<polygon fill="midnightblue" stroke="midnightblue" points="621.555,-98.5613 611.13,-96.6704 618.101,-104.65 621.555,-98.5613"/>
</g>
<!-- Node471 -->
<g id="node6" class="node"><title>Node471</title>
<g id="a_node6"><a xlink:href="../../d5/dd4/namespaceocean__model__mod.html#a6b00b9a33be391bb23668abbfa4d99c6" target="_top" xlink:title="ocean_model_mod::ocean\l_model_flux_init">
<polygon fill="white" stroke="black" points="672,-88.5 672,-118.5 803,-118.5 803,-88.5 672,-88.5"/>
<text text-anchor="start" x="680" y="-106.5" font-family="Helvetica,sans-Serif" font-size="10.00">ocean_model_mod::ocean</text>
<text text-anchor="middle" x="737.5" y="-95.5" font-family="Helvetica,sans-Serif" font-size="10.00">_model_flux_init</text>
</a>
</g>
</g>
<!-- Node469&#45;&gt;Node471 -->
<g id="edge5" class="edge"><title>Node469&#45;&gt;Node471</title>
<path fill="none" stroke="midnightblue" d="M646.343,-90.3645C654.785,-91.5945 663.482,-92.8616 671.988,-94.101"/>
<polygon fill="midnightblue" stroke="midnightblue" points="646.601,-86.8653 636.201,-88.8869 645.592,-93.7921 646.601,-86.8653"/>
</g>
<!-- Node472 -->
<g id="node7" class="node"><title>Node472</title>
<g id="a_node7"><a xlink:href="../../d5/d6d/ice__shelf__driver_8F90.html#aec5bef92f0dad343f545cd8d62e378d8" target="_top" xlink:title="shelf_main">
<polygon fill="white" stroke="black" points="839.5,-47 839.5,-66 903.5,-66 903.5,-47 839.5,-47"/>
<text text-anchor="middle" x="871.5" y="-54" font-family="Helvetica,sans-Serif" font-size="10.00">shelf_main</text>
</a>
</g>
</g>
<!-- Node469&#45;&gt;Node472 -->
<g id="edge6" class="edge"><title>Node469&#45;&gt;Node472</title>
<path fill="none" stroke="midnightblue" d="M646.095,-76.1847C705.275,-70.9934 792.992,-63.299 839.279,-59.2387"/>
<polygon fill="midnightblue" stroke="midnightblue" points="645.78,-72.6988 636.124,-77.0593 646.392,-79.672 645.78,-72.6988"/>
</g>
<!-- Node473 -->
<g id="node8" class="node"><title>Node473</title>
<g id="a_node8"><a xlink:href="../../df/da2/namespacemom__ice__shelf.html#ae315e8464ef8a20062e3bccb61886755" target="_top" xlink:title="mom_ice_shelf::initialize\l_ice_shelf">
<polygon fill="white" stroke="black" points="675.5,-0.5 675.5,-30.5 799.5,-30.5 799.5,-0.5 675.5,-0.5"/>
<text text-anchor="start" x="683.5" y="-18.5" font-family="Helvetica,sans-Serif" font-size="10.00">mom_ice_shelf::initialize</text>
<text text-anchor="middle" x="737.5" y="-7.5" font-family="Helvetica,sans-Serif" font-size="10.00">_ice_shelf</text>
</a>
</g>
</g>
<!-- Node469&#45;&gt;Node473 -->
<g id="edge7" class="edge"><title>Node469&#45;&gt;Node473</title>
<path fill="none" stroke="midnightblue" d="M629.396,-62.3136C652.52,-52.2066 680.47,-39.99 702.019,-30.5713"/>
<polygon fill="midnightblue" stroke="midnightblue" points="627.904,-59.1462 620.142,-66.3583 630.707,-65.5602 627.904,-59.1462"/>
</g>
<!-- Node473&#45;&gt;Node472 -->
<g id="edge8" class="edge"><title>Node473&#45;&gt;Node472</title>
<path fill="none" stroke="midnightblue" d="M796.565,-33.5353C811.438,-38.1549 826.856,-42.9439 839.739,-46.9455"/>
<polygon fill="midnightblue" stroke="midnightblue" points="797.491,-30.1579 786.902,-30.5341 795.414,-36.8429 797.491,-30.1579"/>
</g>
<!-- Node474 -->
<g id="node9" class="node"><title>Node474</title>
<g id="a_node9"><a xlink:href="../../de/dbc/MOM__driver_8F90.html#a08fffeb2d8e8acbf9ed4609be6d258c6" target="_top" xlink:title="mom_main">
<polygon fill="white" stroke="black" points="839,-6 839,-25 904,-25 904,-6 839,-6"/>
<text text-anchor="middle" x="871.5" y="-13" font-family="Helvetica,sans-Serif" font-size="10.00">mom_main</text>
</a>
</g>
</g>
<!-- Node473&#45;&gt;Node474 -->
<g id="edge9" class="edge"><title>Node473&#45;&gt;Node474</title>
<path fill="none" stroke="midnightblue" d="M809.975,-15.5C820.065,-15.5 829.983,-15.5 838.778,-15.5"/>
<polygon fill="midnightblue" stroke="midnightblue" points="809.863,-12.0001 799.863,-15.5 809.863,-19.0001 809.863,-12.0001"/>
</g>
</g>
</svg>
        <g id="navigator" transform="translate(0 0)" fill="#404254">
                <rect fill="#f2f5e9" fill-opacity="0.5" stroke="#606060" stroke-width=".5" x="0" y="0" width="60" height="60"/>
                <use id="zoomplus" xlink:href="#zoomPlus" x="17" y="9" onmousedown="handleZoom(evt,'in')"/>
                <use id="zoomminus" xlink:href="#zoomMin" x="42" y="9" onmousedown="handleZoom(evt,'out')"/>
                <use id="reset" xlink:href="#resetDef" x="30" y="36" onmousedown="handleReset()"/>
                <g id="arrowUp" xlink:href="#dirArrow" transform="translate(30 24)" onmousedown="handlePan(0,-1)">
                  <use xlink:href="#rim" fill="#404040">
                        <set attributeName="fill" to="#808080" begin="arrowUp.mouseover" end="arrowUp.mouseout"/>
                  </use>
                  <path fill="none" stroke="white" stroke-width="1.5" d="M0,-3.0v7 M-2.5,-0.5L0,-3.0L2.5,-0.5"/>
                </g>
                <g id="arrowRight" xlink:href="#dirArrow" transform="rotate(90) translate(36 -43)" onmousedown="handlePan(1,0)">
                  <use xlink:href="#rim" fill="#404040">
                        <set attributeName="fill" to="#808080" begin="arrowRight.mouseover" end="arrowRight.mouseout"/>
                  </use>
                  <path fill="none" stroke="white" stroke-width="1.5" d="M0,-3.0v7 M-2.5,-0.5L0,-3.0L2.5,-0.5"/>
                </g>
                <g id="arrowDown" xlink:href="#dirArrow" transform="rotate(180) translate(-30 -48)" onmousedown="handlePan(0,1)">
                  <use xlink:href="#rim" fill="#404040">
                        <set attributeName="fill" to="#808080" begin="arrowDown.mouseover" end="arrowDown.mouseout"/>
                  </use>
                  <path fill="none" stroke="white" stroke-width="1.5" d="M0,-3.0v7 M-2.5,-0.5L0,-3.0L2.5,-0.5"/>
                </g>
                <g id="arrowLeft" xlink:href="#dirArrow" transform="rotate(270) translate(-36 17)" onmousedown="handlePan(-1,0)">
                  <use xlink:href="#rim" fill="#404040">
                        <set attributeName="fill" to="#808080" begin="arrowLeft.mouseover" end="arrowLeft.mouseout"/>
                  </use>
                  <path fill="none" stroke="white" stroke-width="1.5" d="M0,-3.0v7 M-2.5,-0.5L0,-3.0L2.5,-0.5"/>
                </g>
        </g>
        <svg viewBox="0 0 15 15" width="100%" height="30px" preserveAspectRatio="xMaxYMin meet">
         <g id="arrow_out" transform="scale(0.3 0.3)">
          <a xlink:href="namespacemom__file__parser_a3ad322925f44e8cb48c4e652634f6f93_icgraph_org.svg" target="_base">
           <rect id="button" ry="5" rx="5" y="6" x="6" height="38" width="38"
                fill="#f2f5e9" fill-opacity="0.5" stroke="#606060" stroke-width="1.0"/>
           <path id="arrow"
             d="M 11.500037,31.436501 C 11.940474,20.09759 22.043105,11.32322 32.158766,21.979434 L 37.068811,17.246167 C 37.068811,17.246167 37.088388,32 37.088388,32 L 22.160133,31.978069 C 22.160133,31.978069 26.997745,27.140456 26.997745,27.140456 C 18.528582,18.264221 13.291696,25.230495 11.500037,31.436501 z"
             style="fill:#404040;"/>
          </a>
         </g>
        </svg>
</svg>
