<?xml version="1.0" encoding="UTF-8" standalone="no"?>
<!DOCTYPE svg PUBLIC "-//W3C//DTD SVG 1.1//EN"
 "http://www.w3.org/Graphics/SVG/1.1/DTD/svg11.dtd">
<!-- Generated by graphviz version 2.38.0 (20140413.2041)
 -->
<!-- Title: mom_file_parser::replacetabs Pages: 1 -->
<svg width="879pt" height="176pt"
 viewBox="0.00 0.00 879.00 176.00" xmlns="http://www.w3.org/2000/svg" xmlns:xlink="http://www.w3.org/1999/xlink">
<g id="graph0" class="graph" transform="scale(1 1) rotate(0) translate(4 172)">
<title>mom_file_parser::replacetabs</title>
<polygon fill="white" stroke="none" points="-4,4 -4,-172 875,-172 875,4 -4,4"/>
<!-- Node454 -->
<g id="node1" class="node"><title>Node454</title>
<polygon fill="#bfbfbf" stroke="black" points="0,-50 0,-69 145,-69 145,-50 0,-50"/>
<text text-anchor="middle" x="72.5" y="-57" font-family="Helvetica,sans-Serif" font-size="10.00">mom_file_parser::replacetabs</text>
</g>
<!-- Node455 -->
<g id="node2" class="node"><title>Node455</title>
<g id="a_node2"><a xlink:href="../../d9/def/namespacemom__file__parser.html#a7abfd98d7f0831fc0d1f3747a68f1be9" target="_top" xlink:title="mom_file_parser::populate\l_param_data">
<polygon fill="white" stroke="black" points="181,-44.5 181,-74.5 312,-74.5 312,-44.5 181,-44.5"/>
<text text-anchor="start" x="189" y="-62.5" font-family="Helvetica,sans-Serif" font-size="10.00">mom_file_parser::populate</text>
<text text-anchor="middle" x="246.5" y="-51.5" font-family="Helvetica,sans-Serif" font-size="10.00">_param_data</text>
</a>
</g>
</g>
<!-- Node454&#45;&gt;Node455 -->
<g id="edge1" class="edge"><title>Node454&#45;&gt;Node455</title>
<path fill="none" stroke="midnightblue" d="M155.454,-59.5C164.018,-59.5 172.634,-59.5 180.964,-59.5"/>
<polygon fill="midnightblue" stroke="midnightblue" points="155.447,-56.0001 145.447,-59.5 155.447,-63.0001 155.447,-56.0001"/>
</g>
<!-- Node456 -->
<g id="node3" class="node"><title>Node456</title>
<g id="a_node3"><a xlink:href="../../d9/def/namespacemom__file__parser.html#abecae1b9386aafa17aec927af1f8c448" target="_top" xlink:title="mom_file_parser::open\l_param_file">
<polygon fill="white" stroke="black" points="348,-44.5 348,-74.5 464,-74.5 464,-44.5 348,-44.5"/>
<text text-anchor="start" x="356" y="-62.5" font-family="Helvetica,sans-Serif" font-size="10.00">mom_file_parser::open</text>
<text text-anchor="middle" x="406" y="-51.5" font-family="Helvetica,sans-Serif" font-size="10.00">_param_file</text>
</a>
</g>
</g>
<!-- Node455&#45;&gt;Node456 -->
<g id="edge2" class="edge"><title>Node455&#45;&gt;Node456</title>
<path fill="none" stroke="midnightblue" d="M322.132,-59.5C330.797,-59.5 339.529,-59.5 347.906,-59.5"/>
<polygon fill="midnightblue" stroke="midnightblue" points="322.016,-56.0001 312.016,-59.5 322.016,-63.0001 322.016,-56.0001"/>
</g>
<!-- Node457 -->
<g id="node4" class="node"><title>Node457</title>
<g id="a_node4"><a xlink:href="../../d9/d7f/namespacemom__get__input.html#a299c5b9476662ef1a382e23a8d078143" target="_top" xlink:title="mom_get_input::get\l_mom_input">
<polygon fill="white" stroke="black" points="500,-66.5 500,-96.5 603,-96.5 603,-66.5 500,-66.5"/>
<text text-anchor="start" x="508" y="-84.5" font-family="Helvetica,sans-Serif" font-size="10.00">mom_get_input::get</text>
<text text-anchor="middle" x="551.5" y="-73.5" font-family="Helvetica,sans-Serif" font-size="10.00">_mom_input</text>
</a>
</g>
</g>
<!-- Node456&#45;&gt;Node457 -->
<g id="edge3" class="edge"><title>Node456&#45;&gt;Node457</title>
<path fill="none" stroke="midnightblue" d="M474.119,-69.79C482.69,-71.1041 491.35,-72.4317 499.606,-73.6974"/>
<polygon fill="midnightblue" stroke="midnightblue" points="474.542,-66.3141 464.127,-68.2582 473.481,-73.2333 474.542,-66.3141"/>
</g>
<!-- Node463 -->
<g id="node10" class="node"><title>Node463</title>
<g id="a_node10"><a xlink:href="../../d6/d48/MOM__sum__driver_8F90.html#a08fffeb2d8e8acbf9ed4609be6d258c6" target="_top" xlink:title="mom_main">
<polygon fill="white" stroke="black" points="519,-28 519,-47 584,-47 584,-28 519,-28"/>
<text text-anchor="middle" x="551.5" y="-35" font-family="Helvetica,sans-Serif" font-size="10.00">mom_main</text>
</a>
</g>
</g>
<!-- Node456&#45;&gt;Node463 -->
<g id="edge10" class="edge"><title>Node456&#45;&gt;Node463</title>
<path fill="none" stroke="midnightblue" d="M474.257,-49.1888C489.78,-46.809 505.584,-44.386 518.749,-42.3678"/>
<polygon fill="midnightblue" stroke="midnightblue" points="473.481,-45.7667 464.127,-50.7418 474.542,-52.6859 473.481,-45.7667"/>
</g>
<!-- Node458 -->
<g id="node5" class="node"><title>Node458</title>
<g id="a_node5"><a xlink:href="../../dc/ded/namespacemom__surface__forcing.html#ad01961191fdfc928f233901e285f4beb" target="_top" xlink:title="mom_surface_forcing\l::surface_forcing_init">
<polygon fill="white" stroke="black" points="649.5,-137.5 649.5,-167.5 759.5,-167.5 759.5,-137.5 649.5,-137.5"/>
<text text-anchor="start" x="657.5" y="-155.5" font-family="Helvetica,sans-Serif" font-size="10.00">mom_surface_forcing</text>
<text text-anchor="middle" x="704.5" y="-144.5" font-family="Helvetica,sans-Serif" font-size="10.00">::surface_forcing_init</text>
</a>
</g>
</g>
<!-- Node457&#45;&gt;Node458 -->
<g id="edge4" class="edge"><title>Node457&#45;&gt;Node458</title>
<path fill="none" stroke="midnightblue" d="M586.924,-101.66C602.557,-110.434 621.444,-120.513 639,-128.5 645.851,-131.617 653.237,-134.654 660.479,-137.46"/>
<polygon fill="midnightblue" stroke="midnightblue" points="588.555,-98.5613 578.13,-96.6704 585.101,-104.65 588.555,-98.5613"/>
</g>
<!-- Node459 -->
<g id="node6" class="node"><title>Node459</title>
<g id="a_node6"><a xlink:href="../../d5/dd4/namespaceocean__model__mod.html#a6b00b9a33be391bb23668abbfa4d99c6" target="_top" xlink:title="ocean_model_mod::ocean\l_model_flux_init">
<polygon fill="white" stroke="black" points="639,-88.5 639,-118.5 770,-118.5 770,-88.5 639,-88.5"/>
<text text-anchor="start" x="647" y="-106.5" font-family="Helvetica,sans-Serif" font-size="10.00">ocean_model_mod::ocean</text>
<text text-anchor="middle" x="704.5" y="-95.5" font-family="Helvetica,sans-Serif" font-size="10.00">_model_flux_init</text>
</a>
</g>
</g>
<!-- Node457&#45;&gt;Node459 -->
<g id="edge5" class="edge"><title>Node457&#45;&gt;Node459</title>
<path fill="none" stroke="midnightblue" d="M613.343,-90.3645C621.785,-91.5945 630.482,-92.8616 638.988,-94.101"/>
<polygon fill="midnightblue" stroke="midnightblue" points="613.601,-86.8653 603.201,-88.8869 612.592,-93.7921 613.601,-86.8653"/>
</g>
<!-- Node460 -->
<g id="node7" class="node"><title>Node460</title>
<g id="a_node7"><a xlink:href="../../d5/d6d/ice__shelf__driver_8F90.html#aec5bef92f0dad343f545cd8d62e378d8" target="_top" xlink:title="shelf_main">
<polygon fill="white" stroke="black" points="806.5,-47 806.5,-66 870.5,-66 870.5,-47 806.5,-47"/>
<text text-anchor="middle" x="838.5" y="-54" font-family="Helvetica,sans-Serif" font-size="10.00">shelf_main</text>
</a>
</g>
</g>
<!-- Node457&#45;&gt;Node460 -->
<g id="edge6" class="edge"><title>Node457&#45;&gt;Node460</title>
<path fill="none" stroke="midnightblue" d="M613.095,-76.1847C672.275,-70.9934 759.992,-63.299 806.279,-59.2387"/>
<polygon fill="midnightblue" stroke="midnightblue" points="612.78,-72.6988 603.124,-77.0593 613.392,-79.672 612.78,-72.6988"/>
</g>
<!-- Node461 -->
<g id="node8" class="node"><title>Node461</title>
<g id="a_node8"><a xlink:href="../../df/da2/namespacemom__ice__shelf.html#ae315e8464ef8a20062e3bccb61886755" target="_top" xlink:title="mom_ice_shelf::initialize\l_ice_shelf">
<polygon fill="white" stroke="black" points="642.5,-0.5 642.5,-30.5 766.5,-30.5 766.5,-0.5 642.5,-0.5"/>
<text text-anchor="start" x="650.5" y="-18.5" font-family="Helvetica,sans-Serif" font-size="10.00">mom_ice_shelf::initialize</text>
<text text-anchor="middle" x="704.5" y="-7.5" font-family="Helvetica,sans-Serif" font-size="10.00">_ice_shelf</text>
</a>
</g>
</g>
<!-- Node457&#45;&gt;Node461 -->
<g id="edge7" class="edge"><title>Node457&#45;&gt;Node461</title>
<path fill="none" stroke="midnightblue" d="M596.396,-62.3136C619.52,-52.2066 647.47,-39.99 669.019,-30.5713"/>
<polygon fill="midnightblue" stroke="midnightblue" points="594.904,-59.1462 587.142,-66.3583 597.707,-65.5602 594.904,-59.1462"/>
</g>
<!-- Node461&#45;&gt;Node460 -->
<g id="edge8" class="edge"><title>Node461&#45;&gt;Node460</title>
<path fill="none" stroke="midnightblue" d="M763.565,-33.5353C778.438,-38.1549 793.856,-42.9439 806.739,-46.9455"/>
<polygon fill="midnightblue" stroke="midnightblue" points="764.491,-30.1579 753.902,-30.5341 762.414,-36.8429 764.491,-30.1579"/>
</g>
<!-- Node462 -->
<g id="node9" class="node"><title>Node462</title>
<g id="a_node9"><a xlink:href="../../de/dbc/MOM__driver_8F90.html#a08fffeb2d8e8acbf9ed4609be6d258c6" target="_top" xlink:title="mom_main">
<polygon fill="white" stroke="black" points="806,-6 806,-25 871,-25 871,-6 806,-6"/>
<text text-anchor="middle" x="838.5" y="-13" font-family="Helvetica,sans-Serif" font-size="10.00">mom_main</text>
</a>
</g>
</g>
<!-- Node461&#45;&gt;Node462 -->
<g id="edge9" class="edge"><title>Node461&#45;&gt;Node462</title>
<path fill="none" stroke="midnightblue" d="M776.975,-15.5C787.065,-15.5 796.983,-15.5 805.778,-15.5"/>
<polygon fill="midnightblue" stroke="midnightblue" points="776.863,-12.0001 766.863,-15.5 776.863,-19.0001 776.863,-12.0001"/>
</g>
</g>
</svg>
