<?xml version="1.0" encoding="UTF-8" standalone="no"?>
<!DOCTYPE svg PUBLIC "-//W3C//DTD SVG 1.1//EN"
 "http://www.w3.org/Graphics/SVG/1.1/DTD/svg11.dtd">
<!-- Generated by graphviz version 2.38.0 (20140413.2041)
 -->
<!-- Title: mom_file_parser::open_param_file Pages: 1 -->
<svg width="989pt" height="267pt"
 viewBox="0.00 0.00 989.00 267.22" xmlns="http://www.w3.org/2000/svg" xmlns:xlink="http://www.w3.org/1999/xlink">
<g id="graph0" class="graph" transform="scale(1 1) rotate(0) translate(4 263.215)">
<title>mom_file_parser::open_param_file</title>
<polygon fill="white" stroke="none" points="-4,4 -4,-263.215 985,-263.215 985,4 -4,4"/>
<!-- Node233 -->
<g id="node1" class="node"><title>Node233</title>
<polygon fill="#bfbfbf" stroke="black" points="0,-210.715 0,-240.715 116,-240.715 116,-210.715 0,-210.715"/>
<text text-anchor="start" x="8" y="-228.715" font-family="Helvetica,sans-Serif" font-size="10.00">mom_file_parser::open</text>
<text text-anchor="middle" x="58" y="-217.715" font-family="Helvetica,sans-Serif" font-size="10.00">_param_file</text>
</g>
<!-- Node234 -->
<g id="node2" class="node"><title>Node234</title>
<g id="a_node2"><a xlink:href="../../d0/de6/namespacemom__error__handler.html#ad5f00a53059c72fe2332d1436c80ca71" target="_top" xlink:title="mom_error_handler::\lis_root_pe">
<polygon fill="white" stroke="black" points="599,-228.715 599,-258.715 705,-258.715 705,-228.715 599,-228.715"/>
<text text-anchor="start" x="607" y="-246.715" font-family="Helvetica,sans-Serif" font-size="10.00">mom_error_handler::</text>
<text text-anchor="middle" x="652" y="-235.715" font-family="Helvetica,sans-Serif" font-size="10.00">is_root_pe</text>
</a>
</g>
</g>
<!-- Node233&#45;&gt;Node234 -->
<g id="edge1" class="edge"><title>Node233&#45;&gt;Node234</title>
<path fill="none" stroke="midnightblue" d="M116.319,-238.862C128.067,-241.151 140.391,-243.26 152,-244.715 311.238,-264.675 352.601,-257.94 513,-252.715 537.77,-251.908 565.002,-250.289 588.682,-248.643"/>
<polygon fill="midnightblue" stroke="midnightblue" points="589.216,-252.114 598.943,-247.914 588.719,-245.132 589.216,-252.114"/>
</g>
<!-- Node235 -->
<g id="node3" class="node"><title>Node235</title>
<g id="a_node3"><a xlink:href="../../df/dfe/MOM__memory_8h.html#ae22791a326f7ecd05017238a41eea3a8" target="_top" xlink:title="number">
<polygon fill="white" stroke="black" points="193,-216.215 193,-235.215 242,-235.215 242,-216.215 193,-216.215"/>
<text text-anchor="middle" x="217.5" y="-223.215" font-family="Helvetica,sans-Serif" font-size="10.00">number</text>
</a>
</g>
</g>
<!-- Node233&#45;&gt;Node235 -->
<g id="edge2" class="edge"><title>Node233&#45;&gt;Node235</title>
<path fill="none" stroke="midnightblue" d="M116.307,-225.715C138.57,-225.715 163.309,-225.715 182.634,-225.715"/>
<polygon fill="midnightblue" stroke="midnightblue" points="182.764,-229.215 192.763,-225.715 182.763,-222.215 182.764,-229.215"/>
</g>
<!-- Node236 -->
<g id="node4" class="node"><title>Node236</title>
<g id="a_node4"><a xlink:href="../../d9/def/namespacemom__file__parser.html#a7abfd98d7f0831fc0d1f3747a68f1be9" target="_top" xlink:title="mom_file_parser::populate\l_param_data">
<polygon fill="white" stroke="black" points="152,-131.715 152,-161.715 283,-161.715 283,-131.715 152,-131.715"/>
<text text-anchor="start" x="160" y="-149.715" font-family="Helvetica,sans-Serif" font-size="10.00">mom_file_parser::populate</text>
<text text-anchor="middle" x="217.5" y="-138.715" font-family="Helvetica,sans-Serif" font-size="10.00">_param_data</text>
</a>
</g>
</g>
<!-- Node233&#45;&gt;Node236 -->
<g id="edge3" class="edge"><title>Node233&#45;&gt;Node236</title>
<path fill="none" stroke="midnightblue" d="M88.9953,-210.67C113.985,-198.136 149.773,-180.185 177.077,-166.49"/>
<polygon fill="midnightblue" stroke="midnightblue" points="178.979,-169.451 186.349,-161.839 175.841,-163.194 178.979,-169.451"/>
</g>
<!-- Node236&#45;&gt;Node234 -->
<g id="edge4" class="edge"><title>Node236&#45;&gt;Node234</title>
<path fill="none" stroke="midnightblue" d="M232.06,-161.767C249.903,-180.399 283.221,-211.306 319,-224.715 408.087,-258.104 520.051,-256.38 588.525,-250.914"/>
<polygon fill="midnightblue" stroke="midnightblue" points="589.05,-254.382 598.717,-250.046 588.456,-247.407 589.05,-254.382"/>
</g>
<!-- Node237 -->
<g id="node5" class="node"><title>Node237</title>
<g id="a_node5"><a xlink:href="../../d9/def/namespacemom__file__parser.html#a9813087789e0924f363d7f67768c7f42" target="_top" xlink:title="mom_file_parser::replacetabs">
<polygon fill="white" stroke="black" points="343.5,-196.215 343.5,-215.215 488.5,-215.215 488.5,-196.215 343.5,-196.215"/>
<text text-anchor="middle" x="416" y="-203.215" font-family="Helvetica,sans-Serif" font-size="10.00">mom_file_parser::replacetabs</text>
</a>
</g>
</g>
<!-- Node236&#45;&gt;Node237 -->
<g id="edge5" class="edge"><title>Node236&#45;&gt;Node237</title>
<path fill="none" stroke="midnightblue" d="M251.915,-161.805C271.214,-170.065 296.127,-179.962 319,-186.715 328.191,-189.429 337.993,-191.869 347.689,-194.025"/>
<polygon fill="midnightblue" stroke="midnightblue" points="347.216,-197.502 357.726,-196.168 348.678,-190.657 347.216,-197.502"/>
</g>
<!-- Node238 -->
<g id="node6" class="node"><title>Node238</title>
<g id="a_node6"><a xlink:href="../../d9/def/namespacemom__file__parser.html#a99c426fd23fc4df0c4d05e33039e0a66" target="_top" xlink:title="mom_file_parser::closemultilinecomment">
<polygon fill="white" stroke="black" points="319,-158.215 319,-177.215 513,-177.215 513,-158.215 319,-158.215"/>
<text text-anchor="middle" x="416" y="-165.215" font-family="Helvetica,sans-Serif" font-size="10.00">mom_file_parser::closemultilinecomment</text>
</a>
</g>
</g>
<!-- Node236&#45;&gt;Node238 -->
<g id="edge6" class="edge"><title>Node236&#45;&gt;Node238</title>
<path fill="none" stroke="midnightblue" d="M283.114,-153.621C293.562,-154.737 304.588,-155.915 315.632,-157.096"/>
<polygon fill="midnightblue" stroke="midnightblue" points="315.449,-160.596 325.764,-158.179 316.193,-153.636 315.449,-160.596"/>
</g>
<!-- Node239 -->
<g id="node7" class="node"><title>Node239</title>
<g id="a_node7"><a xlink:href="../../d9/def/namespacemom__file__parser.html#ab4b89d9420e174185db1c6aa3feb948b" target="_top" xlink:title="mom_file_parser::lastnoncommentnonblank">
<polygon fill="white" stroke="black" points="549,-44.2153 549,-63.2153 755,-63.2153 755,-44.2153 549,-44.2153"/>
<text text-anchor="middle" x="652" y="-51.2153" font-family="Helvetica,sans-Serif" font-size="10.00">mom_file_parser::lastnoncommentnonblank</text>
</a>
</g>
</g>
<!-- Node236&#45;&gt;Node239 -->
<g id="edge7" class="edge"><title>Node236&#45;&gt;Node239</title>
<path fill="none" stroke="midnightblue" d="M255.714,-131.636C274.454,-124.494 297.669,-116.321 319,-110.715 366.578,-98.2114 495.001,-77.5256 577.465,-64.8115"/>
<polygon fill="midnightblue" stroke="midnightblue" points="578.183,-68.2424 587.535,-63.2634 577.119,-61.3236 578.183,-68.2424"/>
</g>
<!-- Node241 -->
<g id="node9" class="node"><title>Node241</title>
<g id="a_node9"><a xlink:href="../../d9/def/namespacemom__file__parser.html#a476a2649ce161e38088588e07f7df130" target="_top" xlink:title="mom_file_parser::openmultilinecomment">
<polygon fill="white" stroke="black" points="556,-6.21526 556,-25.2153 748,-25.2153 748,-6.21526 556,-6.21526"/>
<text text-anchor="middle" x="652" y="-13.2153" font-family="Helvetica,sans-Serif" font-size="10.00">mom_file_parser::openmultilinecomment</text>
</a>
</g>
</g>
<!-- Node236&#45;&gt;Node241 -->
<g id="edge9" class="edge"><title>Node236&#45;&gt;Node241</title>
<path fill="none" stroke="midnightblue" d="M226.637,-131.713C241.286,-106.427 274.739,-56.004 319,-34.7153 402.93,5.65306 512.914,2.69032 582.791,-5.02344"/>
<polygon fill="midnightblue" stroke="midnightblue" points="582.463,-8.50888 592.801,-6.19142 583.274,-1.55604 582.463,-8.50888"/>
</g>
<!-- Node242 -->
<g id="node10" class="node"><title>Node242</title>
<g id="a_node10"><a xlink:href="../../d9/def/namespacemom__file__parser.html#ae0b982cc161173a401291757a6677373" target="_top" xlink:title="mom_file_parser::removecomments">
<polygon fill="white" stroke="black" points="329.5,-44.2153 329.5,-63.2153 502.5,-63.2153 502.5,-44.2153 329.5,-44.2153"/>
<text text-anchor="middle" x="416" y="-51.2153" font-family="Helvetica,sans-Serif" font-size="10.00">mom_file_parser::removecomments</text>
</a>
</g>
</g>
<!-- Node236&#45;&gt;Node242 -->
<g id="edge11" class="edge"><title>Node236&#45;&gt;Node242</title>
<path fill="none" stroke="midnightblue" d="M236.201,-131.624C255.404,-115.985 287.547,-91.8865 319,-77.7153 329.54,-72.9666 341.171,-69.0561 352.592,-65.8713"/>
<polygon fill="midnightblue" stroke="midnightblue" points="353.76,-69.1833 362.542,-63.2565 351.981,-62.4132 353.76,-69.1833"/>
</g>
<!-- Node243 -->
<g id="node11" class="node"><title>Node243</title>
<g id="a_node11"><a xlink:href="../../d9/def/namespacemom__file__parser.html#a3ad322925f44e8cb48c4e652634f6f93" target="_top" xlink:title="mom_file_parser::simplifywhitespace">
<polygon fill="white" stroke="black" points="327,-120.215 327,-139.215 505,-139.215 505,-120.215 327,-120.215"/>
<text text-anchor="middle" x="416" y="-127.215" font-family="Helvetica,sans-Serif" font-size="10.00">mom_file_parser::simplifywhitespace</text>
</a>
</g>
</g>
<!-- Node236&#45;&gt;Node243 -->
<g id="edge13" class="edge"><title>Node236&#45;&gt;Node243</title>
<path fill="none" stroke="midnightblue" d="M283.114,-141.125C293.928,-140.19 305.361,-139.201 316.793,-138.212"/>
<polygon fill="midnightblue" stroke="midnightblue" points="317.163,-141.693 326.824,-137.344 316.559,-134.719 317.163,-141.693"/>
</g>
<!-- Node240 -->
<g id="node8" class="node"><title>Node240</title>
<g id="a_node8"><a xlink:href="../../d9/def/namespacemom__file__parser.html#a000fd0a0681f9e73481ef2663154df78" target="_top" xlink:title="mom_file_parser::lastnoncommentindex">
<polygon fill="white" stroke="black" points="791,-25.2153 791,-44.2153 981,-44.2153 981,-25.2153 791,-25.2153"/>
<text text-anchor="middle" x="886" y="-32.2153" font-family="Helvetica,sans-Serif" font-size="10.00">mom_file_parser::lastnoncommentindex</text>
</a>
</g>
</g>
<!-- Node239&#45;&gt;Node240 -->
<g id="edge8" class="edge"><title>Node239&#45;&gt;Node240</title>
<path fill="none" stroke="midnightblue" d="M755.096,-45.3539C763.659,-44.6527 772.325,-43.943 780.902,-43.2405"/>
<polygon fill="midnightblue" stroke="midnightblue" points="781.239,-46.7247 790.92,-42.4201 780.668,-39.7481 781.239,-46.7247"/>
</g>
<!-- Node241&#45;&gt;Node240 -->
<g id="edge10" class="edge"><title>Node241&#45;&gt;Node240</title>
<path fill="none" stroke="midnightblue" d="M748.033,-23.4981C758.859,-24.3847 769.937,-25.292 780.873,-26.1876"/>
<polygon fill="midnightblue" stroke="midnightblue" points="780.613,-29.678 790.865,-27.006 781.184,-22.7013 780.613,-29.678"/>
</g>
<!-- Node242&#45;&gt;Node239 -->
<g id="edge12" class="edge"><title>Node242&#45;&gt;Node239</title>
<path fill="none" stroke="midnightblue" d="M502.804,-53.7153C514.523,-53.7153 526.693,-53.7153 538.793,-53.7153"/>
<polygon fill="midnightblue" stroke="midnightblue" points="538.931,-57.2154 548.931,-53.7153 538.931,-50.2154 538.931,-57.2154"/>
</g>
<!-- Node243&#45;&gt;Node234 -->
<g id="edge14" class="edge"><title>Node243&#45;&gt;Node234</title>
<path fill="none" stroke="midnightblue" d="M483.645,-139.232C493.686,-141.71 503.764,-144.82 513,-148.715 556.287,-166.973 599.887,-200.01 626.172,-221.908"/>
<polygon fill="midnightblue" stroke="midnightblue" points="624.181,-224.807 634.076,-228.593 628.702,-219.463 624.181,-224.807"/>
</g>
</g>
</svg>
