<?xml version="1.0" encoding="UTF-8" standalone="no"?>
<!DOCTYPE svg PUBLIC "-//W3C//DTD SVG 1.1//EN"
 "http://www.w3.org/Graphics/SVG/1.1/DTD/svg11.dtd">
<!-- Generated by graphviz version 2.38.0 (20140413.2041)
 -->
<!-- Title: mom_file_parser::removecomments Pages: 1 -->
<!--zoomable 176 -->
<svg id="main" version="1.1" xmlns="http://www.w3.org/2000/svg" xmlns:xlink="http://www.w3.org/1999/xlink" xml:space="preserve" onload="init(evt)">
<style type="text/css"><![CDATA[
.edge:hover path { stroke: red; }
.edge:hover polygon { stroke: red; fill: red; }
]]></style>
<script type="text/javascript"><![CDATA[
var edges = document.getElementsByTagName('g');
if (edges && edges.length) {
  for (var i=0;i<edges.length;i++) {
    if (edges[i].id.substr(0,4)=='edge') {
      edges[i].setAttribute('class','edge');
    }
  }
}
]]></script>
        <defs>
                <circle id="rim" cx="0" cy="0" r="7"/>
                <circle id="rim2" cx="0" cy="0" r="3.5"/>
                <g id="zoomPlus">
                        <use xlink:href="#rim" fill="#404040">
                                <set attributeName="fill" to="#808080" begin="zoomplus.mouseover" end="zoomplus.mouseout"/>
                        </use>
                        <path d="M-4,0h8M0,-4v8" fill="none" stroke="white" stroke-width="1.5" pointer-events="none"/>
                </g>
                <g id="zoomMin">
                        <use xlink:href="#rim" fill="#404040">
                                <set attributeName="fill" to="#808080" begin="zoomminus.mouseover" end="zoomminus.mouseout"/>
                        </use>
                        <path d="M-4,0h8" fill="none" stroke="white" stroke-width="1.5" pointer-events="none"/>
                </g>
                <g id="dirArrow">
                        <path fill="none" stroke="white" stroke-width="1.5" d="M0,-3.0v7 M-2.5,-0.5L0,-3.0L2.5,-0.5"/>
                </g>
               <g id="resetDef">
                       <use xlink:href="#rim2" fill="#404040">
                               <set attributeName="fill" to="#808080" begin="reset.mouseover" end="reset.mouseout"/>
                       </use>
               </g>
        </defs>

<script type="text/javascript">
var viewWidth = 907;
var viewHeight = 176;
var sectionId = 'dynsection-65';
</script>
<script xlink:href="../../svgpan.js"/>
<svg id="graph" class="graph">
<g id="viewport">
<title>mom_file_parser::removecomments</title>
<polygon fill="white" stroke="none" points="-4,4 -4,-172 903,-172 903,4 -4,4"/>
<!-- Node443 -->
<g id="node1" class="node"><title>Node443</title>
<polygon fill="#bfbfbf" stroke="black" points="0,-50 0,-69 173,-69 173,-50 0,-50"/>
<text text-anchor="middle" x="86.5" y="-57" font-family="Helvetica,sans-Serif" font-size="10.00">mom_file_parser::removecomments</text>
</g>
<!-- Node444 -->
<g id="node2" class="node"><title>Node444</title>
<g id="a_node2"><a xlink:href="../../d9/def/namespacemom__file__parser.html#a7abfd98d7f0831fc0d1f3747a68f1be9" target="_top" xlink:title="mom_file_parser::populate\l_param_data">
<polygon fill="white" stroke="black" points="209,-44.5 209,-74.5 340,-74.5 340,-44.5 209,-44.5"/>
<text text-anchor="start" x="217" y="-62.5" font-family="Helvetica,sans-Serif" font-size="10.00">mom_file_parser::populate</text>
<text text-anchor="middle" x="274.5" y="-51.5" font-family="Helvetica,sans-Serif" font-size="10.00">_param_data</text>
</a>
</g>
</g>
<!-- Node443&#45;&gt;Node444 -->
<g id="edge1" class="edge"><title>Node443&#45;&gt;Node444</title>
<path fill="none" stroke="midnightblue" d="M183.308,-59.5C191.963,-59.5 200.586,-59.5 208.876,-59.5"/>
<polygon fill="midnightblue" stroke="midnightblue" points="183.15,-56.0001 173.15,-59.5 183.15,-63.0001 183.15,-56.0001"/>
</g>
<!-- Node445 -->
<g id="node3" class="node"><title>Node445</title>
<g id="a_node3"><a xlink:href="../../d9/def/namespacemom__file__parser.html#abecae1b9386aafa17aec927af1f8c448" target="_top" xlink:title="mom_file_parser::open\l_param_file">
<polygon fill="white" stroke="black" points="376,-44.5 376,-74.5 492,-74.5 492,-44.5 376,-44.5"/>
<text text-anchor="start" x="384" y="-62.5" font-family="Helvetica,sans-Serif" font-size="10.00">mom_file_parser::open</text>
<text text-anchor="middle" x="434" y="-51.5" font-family="Helvetica,sans-Serif" font-size="10.00">_param_file</text>
</a>
</g>
</g>
<!-- Node444&#45;&gt;Node445 -->
<g id="edge2" class="edge"><title>Node444&#45;&gt;Node445</title>
<path fill="none" stroke="midnightblue" d="M350.132,-59.5C358.797,-59.5 367.529,-59.5 375.906,-59.5"/>
<polygon fill="midnightblue" stroke="midnightblue" points="350.016,-56.0001 340.016,-59.5 350.016,-63.0001 350.016,-56.0001"/>
</g>
<!-- Node446 -->
<g id="node4" class="node"><title>Node446</title>
<g id="a_node4"><a xlink:href="../../d9/d7f/namespacemom__get__input.html#a299c5b9476662ef1a382e23a8d078143" target="_top" xlink:title="mom_get_input::get\l_mom_input">
<polygon fill="white" stroke="black" points="528,-66.5 528,-96.5 631,-96.5 631,-66.5 528,-66.5"/>
<text text-anchor="start" x="536" y="-84.5" font-family="Helvetica,sans-Serif" font-size="10.00">mom_get_input::get</text>
<text text-anchor="middle" x="579.5" y="-73.5" font-family="Helvetica,sans-Serif" font-size="10.00">_mom_input</text>
</a>
</g>
</g>
<!-- Node445&#45;&gt;Node446 -->
<g id="edge3" class="edge"><title>Node445&#45;&gt;Node446</title>
<path fill="none" stroke="midnightblue" d="M502.119,-69.79C510.69,-71.1041 519.35,-72.4317 527.606,-73.6974"/>
<polygon fill="midnightblue" stroke="midnightblue" points="502.542,-66.3141 492.127,-68.2582 501.481,-73.2333 502.542,-66.3141"/>
</g>
<!-- Node452 -->
<g id="node10" class="node"><title>Node452</title>
<g id="a_node10"><a xlink:href="../../d6/d48/MOM__sum__driver_8F90.html#a08fffeb2d8e8acbf9ed4609be6d258c6" target="_top" xlink:title="mom_main">
<polygon fill="white" stroke="black" points="547,-28 547,-47 612,-47 612,-28 547,-28"/>
<text text-anchor="middle" x="579.5" y="-35" font-family="Helvetica,sans-Serif" font-size="10.00">mom_main</text>
</a>
</g>
</g>
<!-- Node445&#45;&gt;Node452 -->
<g id="edge10" class="edge"><title>Node445&#45;&gt;Node452</title>
<path fill="none" stroke="midnightblue" d="M502.257,-49.1888C517.78,-46.809 533.584,-44.386 546.749,-42.3678"/>
<polygon fill="midnightblue" stroke="midnightblue" points="501.481,-45.7667 492.127,-50.7418 502.542,-52.6859 501.481,-45.7667"/>
</g>
<!-- Node447 -->
<g id="node5" class="node"><title>Node447</title>
<g id="a_node5"><a xlink:href="../../dc/ded/namespacemom__surface__forcing.html#ad01961191fdfc928f233901e285f4beb" target="_top" xlink:title="mom_surface_forcing\l::surface_forcing_init">
<polygon fill="white" stroke="black" points="677.5,-137.5 677.5,-167.5 787.5,-167.5 787.5,-137.5 677.5,-137.5"/>
<text text-anchor="start" x="685.5" y="-155.5" font-family="Helvetica,sans-Serif" font-size="10.00">mom_surface_forcing</text>
<text text-anchor="middle" x="732.5" y="-144.5" font-family="Helvetica,sans-Serif" font-size="10.00">::surface_forcing_init</text>
</a>
</g>
</g>
<!-- Node446&#45;&gt;Node447 -->
<g id="edge4" class="edge"><title>Node446&#45;&gt;Node447</title>
<path fill="none" stroke="midnightblue" d="M614.924,-101.66C630.557,-110.434 649.444,-120.513 667,-128.5 673.851,-131.617 681.237,-134.654 688.479,-137.46"/>
<polygon fill="midnightblue" stroke="midnightblue" points="616.555,-98.5613 606.13,-96.6704 613.101,-104.65 616.555,-98.5613"/>
</g>
<!-- Node448 -->
<g id="node6" class="node"><title>Node448</title>
<g id="a_node6"><a xlink:href="../../d5/dd4/namespaceocean__model__mod.html#a6b00b9a33be391bb23668abbfa4d99c6" target="_top" xlink:title="ocean_model_mod::ocean\l_model_flux_init">
<polygon fill="white" stroke="black" points="667,-88.5 667,-118.5 798,-118.5 798,-88.5 667,-88.5"/>
<text text-anchor="start" x="675" y="-106.5" font-family="Helvetica,sans-Serif" font-size="10.00">ocean_model_mod::ocean</text>
<text text-anchor="middle" x="732.5" y="-95.5" font-family="Helvetica,sans-Serif" font-size="10.00">_model_flux_init</text>
</a>
</g>
</g>
<!-- Node446&#45;&gt;Node448 -->
<g id="edge5" class="edge"><title>Node446&#45;&gt;Node448</title>
<path fill="none" stroke="midnightblue" d="M641.343,-90.3645C649.785,-91.5945 658.482,-92.8616 666.988,-94.101"/>
<polygon fill="midnightblue" stroke="midnightblue" points="641.601,-86.8653 631.201,-88.8869 640.592,-93.7921 641.601,-86.8653"/>
</g>
<!-- Node449 -->
<g id="node7" class="node"><title>Node449</title>
<g id="a_node7"><a xlink:href="../../d5/d6d/ice__shelf__driver_8F90.html#aec5bef92f0dad343f545cd8d62e378d8" target="_top" xlink:title="shelf_main">
<polygon fill="white" stroke="black" points="834.5,-47 834.5,-66 898.5,-66 898.5,-47 834.5,-47"/>
<text text-anchor="middle" x="866.5" y="-54" font-family="Helvetica,sans-Serif" font-size="10.00">shelf_main</text>
</a>
</g>
</g>
<!-- Node446&#45;&gt;Node449 -->
<g id="edge6" class="edge"><title>Node446&#45;&gt;Node449</title>
<path fill="none" stroke="midnightblue" d="M641.095,-76.1847C700.275,-70.9934 787.992,-63.299 834.279,-59.2387"/>
<polygon fill="midnightblue" stroke="midnightblue" points="640.78,-72.6988 631.124,-77.0593 641.392,-79.672 640.78,-72.6988"/>
</g>
<!-- Node450 -->
<g id="node8" class="node"><title>Node450</title>
<g id="a_node8"><a xlink:href="../../df/da2/namespacemom__ice__shelf.html#ae315e8464ef8a20062e3bccb61886755" target="_top" xlink:title="mom_ice_shelf::initialize\l_ice_shelf">
<polygon fill="white" stroke="black" points="670.5,-0.5 670.5,-30.5 794.5,-30.5 794.5,-0.5 670.5,-0.5"/>
<text text-anchor="start" x="678.5" y="-18.5" font-family="Helvetica,sans-Serif" font-size="10.00">mom_ice_shelf::initialize</text>
<text text-anchor="middle" x="732.5" y="-7.5" font-family="Helvetica,sans-Serif" font-size="10.00">_ice_shelf</text>
</a>
</g>
</g>
<!-- Node446&#45;&gt;Node450 -->
<g id="edge7" class="edge"><title>Node446&#45;&gt;Node450</title>
<path fill="none" stroke="midnightblue" d="M624.396,-62.3136C647.52,-52.2066 675.47,-39.99 697.019,-30.5713"/>
<polygon fill="midnightblue" stroke="midnightblue" points="622.904,-59.1462 615.142,-66.3583 625.707,-65.5602 622.904,-59.1462"/>
</g>
<!-- Node450&#45;&gt;Node449 -->
<g id="edge8" class="edge"><title>Node450&#45;&gt;Node449</title>
<path fill="none" stroke="midnightblue" d="M791.565,-33.5353C806.438,-38.1549 821.856,-42.9439 834.739,-46.9455"/>
<polygon fill="midnightblue" stroke="midnightblue" points="792.491,-30.1579 781.902,-30.5341 790.414,-36.8429 792.491,-30.1579"/>
</g>
<!-- Node451 -->
<g id="node9" class="node"><title>Node451</title>
<g id="a_node9"><a xlink:href="../../de/dbc/MOM__driver_8F90.html#a08fffeb2d8e8acbf9ed4609be6d258c6" target="_top" xlink:title="mom_main">
<polygon fill="white" stroke="black" points="834,-6 834,-25 899,-25 899,-6 834,-6"/>
<text text-anchor="middle" x="866.5" y="-13" font-family="Helvetica,sans-Serif" font-size="10.00">mom_main</text>
</a>
</g>
</g>
<!-- Node450&#45;&gt;Node451 -->
<g id="edge9" class="edge"><title>Node450&#45;&gt;Node451</title>
<path fill="none" stroke="midnightblue" d="M804.975,-15.5C815.065,-15.5 824.983,-15.5 833.778,-15.5"/>
<polygon fill="midnightblue" stroke="midnightblue" points="804.863,-12.0001 794.863,-15.5 804.863,-19.0001 804.863,-12.0001"/>
</g>
</g>
</svg>
        <g id="navigator" transform="translate(0 0)" fill="#404254">
                <rect fill="#f2f5e9" fill-opacity="0.5" stroke="#606060" stroke-width=".5" x="0" y="0" width="60" height="60"/>
                <use id="zoomplus" xlink:href="#zoomPlus" x="17" y="9" onmousedown="handleZoom(evt,'in')"/>
                <use id="zoomminus" xlink:href="#zoomMin" x="42" y="9" onmousedown="handleZoom(evt,'out')"/>
                <use id="reset" xlink:href="#resetDef" x="30" y="36" onmousedown="handleReset()"/>
                <g id="arrowUp" xlink:href="#dirArrow" transform="translate(30 24)" onmousedown="handlePan(0,-1)">
                  <use xlink:href="#rim" fill="#404040">
                        <set attributeName="fill" to="#808080" begin="arrowUp.mouseover" end="arrowUp.mouseout"/>
                  </use>
                  <path fill="none" stroke="white" stroke-width="1.5" d="M0,-3.0v7 M-2.5,-0.5L0,-3.0L2.5,-0.5"/>
                </g>
                <g id="arrowRight" xlink:href="#dirArrow" transform="rotate(90) translate(36 -43)" onmousedown="handlePan(1,0)">
                  <use xlink:href="#rim" fill="#404040">
                        <set attributeName="fill" to="#808080" begin="arrowRight.mouseover" end="arrowRight.mouseout"/>
                  </use>
                  <path fill="none" stroke="white" stroke-width="1.5" d="M0,-3.0v7 M-2.5,-0.5L0,-3.0L2.5,-0.5"/>
                </g>
                <g id="arrowDown" xlink:href="#dirArrow" transform="rotate(180) translate(-30 -48)" onmousedown="handlePan(0,1)">
                  <use xlink:href="#rim" fill="#404040">
                        <set attributeName="fill" to="#808080" begin="arrowDown.mouseover" end="arrowDown.mouseout"/>
                  </use>
                  <path fill="none" stroke="white" stroke-width="1.5" d="M0,-3.0v7 M-2.5,-0.5L0,-3.0L2.5,-0.5"/>
                </g>
                <g id="arrowLeft" xlink:href="#dirArrow" transform="rotate(270) translate(-36 17)" onmousedown="handlePan(-1,0)">
                  <use xlink:href="#rim" fill="#404040">
                        <set attributeName="fill" to="#808080" begin="arrowLeft.mouseover" end="arrowLeft.mouseout"/>
                  </use>
                  <path fill="none" stroke="white" stroke-width="1.5" d="M0,-3.0v7 M-2.5,-0.5L0,-3.0L2.5,-0.5"/>
                </g>
        </g>
        <svg viewBox="0 0 15 15" width="100%" height="30px" preserveAspectRatio="xMaxYMin meet">
         <g id="arrow_out" transform="scale(0.3 0.3)">
          <a xlink:href="namespacemom__file__parser_ae0b982cc161173a401291757a6677373_icgraph_org.svg" target="_base">
           <rect id="button" ry="5" rx="5" y="6" x="6" height="38" width="38"
                fill="#f2f5e9" fill-opacity="0.5" stroke="#606060" stroke-width="1.0"/>
           <path id="arrow"
             d="M 11.500037,31.436501 C 11.940474,20.09759 22.043105,11.32322 32.158766,21.979434 L 37.068811,17.246167 C 37.068811,17.246167 37.088388,32 37.088388,32 L 22.160133,31.978069 C 22.160133,31.978069 26.997745,27.140456 26.997745,27.140456 C 18.528582,18.264221 13.291696,25.230495 11.500037,31.436501 z"
             style="fill:#404040;"/>
          </a>
         </g>
        </svg>
</svg>
