<?xml version="1.0" encoding="UTF-8" standalone="no"?>
<!DOCTYPE svg PUBLIC "-//W3C//DTD SVG 1.1//EN"
 "http://www.w3.org/Graphics/SVG/1.1/DTD/svg11.dtd">
<!-- Generated by graphviz version 2.38.0 (20140413.2041)
 -->
<!-- Title: mom_diapyc_energy_req::diapyc_energy_req_init Pages: 1 -->
<!--zoomable 666 -->
<svg id="main" version="1.1" xmlns="http://www.w3.org/2000/svg" xmlns:xlink="http://www.w3.org/1999/xlink" xml:space="preserve" onload="init(evt)">
<style type="text/css"><![CDATA[
.edge:hover path { stroke: red; }
.edge:hover polygon { stroke: red; fill: red; }
]]></style>
<script type="text/javascript"><![CDATA[
var edges = document.getElementsByTagName('g');
if (edges && edges.length) {
  for (var i=0;i<edges.length;i++) {
    if (edges[i].id.substr(0,4)=='edge') {
      edges[i].setAttribute('class','edge');
    }
  }
}
]]></script>
        <defs>
                <circle id="rim" cx="0" cy="0" r="7"/>
                <circle id="rim2" cx="0" cy="0" r="3.5"/>
                <g id="zoomPlus">
                        <use xlink:href="#rim" fill="#404040">
                                <set attributeName="fill" to="#808080" begin="zoomplus.mouseover" end="zoomplus.mouseout"/>
                        </use>
                        <path d="M-4,0h8M0,-4v8" fill="none" stroke="white" stroke-width="1.5" pointer-events="none"/>
                </g>
                <g id="zoomMin">
                        <use xlink:href="#rim" fill="#404040">
                                <set attributeName="fill" to="#808080" begin="zoomminus.mouseover" end="zoomminus.mouseout"/>
                        </use>
                        <path d="M-4,0h8" fill="none" stroke="white" stroke-width="1.5" pointer-events="none"/>
                </g>
                <g id="dirArrow">
                        <path fill="none" stroke="white" stroke-width="1.5" d="M0,-3.0v7 M-2.5,-0.5L0,-3.0L2.5,-0.5"/>
                </g>
               <g id="resetDef">
                       <use xlink:href="#rim2" fill="#404040">
                               <set attributeName="fill" to="#808080" begin="reset.mouseover" end="reset.mouseout"/>
                       </use>
               </g>
        </defs>

<script type="text/javascript">
var viewWidth = 857;
var viewHeight = 666;
var sectionId = 'dynsection-2';
</script>
<script xlink:href="../../svgpan.js"/>
<svg id="graph" class="graph">
<g id="viewport">
<title>mom_diapyc_energy_req::diapyc_energy_req_init</title>
<polygon fill="white" stroke="none" points="-4,4 -4,-662 853,-662 853,4 -4,4"/>
<!-- Node16 -->
<g id="node1" class="node"><title>Node16</title>
<polygon fill="#bfbfbf" stroke="black" points="0,-330.5 0,-360.5 125,-360.5 125,-330.5 0,-330.5"/>
<text text-anchor="start" x="8" y="-348.5" font-family="Helvetica,sans-Serif" font-size="10.00">mom_diapyc_energy_req</text>
<text text-anchor="middle" x="62.5" y="-337.5" font-family="Helvetica,sans-Serif" font-size="10.00">::diapyc_energy_req_init</text>
</g>
<!-- Node17 -->
<g id="node2" class="node"><title>Node17</title>
<g id="a_node2"><a xlink:href="../../d9/d06/namespacemom__diag__mediator.html#aab2007573b14ed73053282770d1b19a4" target="_top" xlink:title="mom_diag_mediator::\lregister_diag_field">
<polygon fill="white" stroke="black" points="161,-330.5 161,-360.5 271,-360.5 271,-330.5 161,-330.5"/>
<text text-anchor="start" x="169" y="-348.5" font-family="Helvetica,sans-Serif" font-size="10.00">mom_diag_mediator::</text>
<text text-anchor="middle" x="216" y="-337.5" font-family="Helvetica,sans-Serif" font-size="10.00">register_diag_field</text>
</a>
</g>
</g>
<!-- Node16&#45;&gt;Node17 -->
<g id="edge1" class="edge"><title>Node16&#45;&gt;Node17</title>
<path fill="none" stroke="midnightblue" d="M125.121,-345.5C133.508,-345.5 142.134,-345.5 150.568,-345.5"/>
<polygon fill="midnightblue" stroke="midnightblue" points="150.733,-349 160.733,-345.5 150.733,-342 150.733,-349"/>
</g>
<!-- Node18 -->
<g id="node3" class="node"><title>Node18</title>
<g id="a_node3"><a xlink:href="../../d9/d06/namespacemom__diag__mediator.html#a1b0bed2113a0c268eafd1bafbb48bd4f" target="_top" xlink:title="mom_diag_mediator::\lalloc_diag_with_id">
<polygon fill="white" stroke="black" points="308,-627.5 308,-657.5 418,-657.5 418,-627.5 308,-627.5"/>
<text text-anchor="start" x="316" y="-645.5" font-family="Helvetica,sans-Serif" font-size="10.00">mom_diag_mediator::</text>
<text text-anchor="middle" x="363" y="-634.5" font-family="Helvetica,sans-Serif" font-size="10.00">alloc_diag_with_id</text>
</a>
</g>
</g>
<!-- Node17&#45;&gt;Node18 -->
<g id="edge2" class="edge"><title>Node17&#45;&gt;Node18</title>
<path fill="none" stroke="midnightblue" d="M218.276,-360.643C222.704,-404.556 240.958,-533.818 307,-612.5 309.793,-615.827 313.053,-618.846 316.566,-621.573"/>
<polygon fill="midnightblue" stroke="midnightblue" points="314.89,-624.666 325.123,-627.41 318.834,-618.883 314.89,-624.666"/>
</g>
<!-- Node19 -->
<g id="node4" class="node"><title>Node19</title>
<g id="a_node4"><a xlink:href="../../d9/d06/namespacemom__diag__mediator.html#a6e11afe7a97bf8e3333d33b0aebd6f6e" target="_top" xlink:title="mom_diag_mediator::\lassert">
<polygon fill="white" stroke="black" points="455,-490.5 455,-520.5 565,-520.5 565,-490.5 455,-490.5"/>
<text text-anchor="start" x="463" y="-508.5" font-family="Helvetica,sans-Serif" font-size="10.00">mom_diag_mediator::</text>
<text text-anchor="middle" x="510" y="-497.5" font-family="Helvetica,sans-Serif" font-size="10.00">assert</text>
</a>
</g>
</g>
<!-- Node17&#45;&gt;Node19 -->
<g id="edge3" class="edge"><title>Node17&#45;&gt;Node19</title>
<path fill="none" stroke="midnightblue" d="M221.959,-360.753C232.41,-390.185 259.713,-454.463 307,-483.5 347.963,-508.654 402.55,-513.263 444.652,-512.072"/>
<polygon fill="midnightblue" stroke="midnightblue" points="444.944,-515.563 454.796,-511.667 444.665,-508.568 444.944,-515.563"/>
</g>
<!-- Node20 -->
<g id="node5" class="node"><title>Node20</title>
<g id="a_node5"><a xlink:href="../../d0/de6/namespacemom__error__handler.html#a460cfb79a06c29fc249952c2a3710d67" target="_top" xlink:title="mom_error_handler::\lmom_error">
<polygon fill="white" stroke="black" points="601,-514.5 601,-544.5 707,-544.5 707,-514.5 601,-514.5"/>
<text text-anchor="start" x="609" y="-532.5" font-family="Helvetica,sans-Serif" font-size="10.00">mom_error_handler::</text>
<text text-anchor="middle" x="654" y="-521.5" font-family="Helvetica,sans-Serif" font-size="10.00">mom_error</text>
</a>
</g>
</g>
<!-- Node17&#45;&gt;Node20 -->
<g id="edge18" class="edge"><title>Node17&#45;&gt;Node20</title>
<path fill="none" stroke="midnightblue" d="M238.871,-360.649C256.473,-372.081 282.268,-387.173 307,-395.5 416.784,-432.463 462.694,-378.164 565,-432.5 597.088,-449.542 623.403,-483.1 638.651,-505.917"/>
<polygon fill="midnightblue" stroke="midnightblue" points="635.752,-507.881 644.125,-514.372 641.628,-504.076 635.752,-507.881"/>
</g>
<!-- Node21 -->
<g id="node6" class="node"><title>Node21</title>
<g id="a_node6"><a xlink:href="../../d0/de6/namespacemom__error__handler.html#ad5f00a53059c72fe2332d1436c80ca71" target="_top" xlink:title="mom_error_handler::\lis_root_pe">
<polygon fill="white" stroke="black" points="743,-548.5 743,-578.5 849,-578.5 849,-548.5 743,-548.5"/>
<text text-anchor="start" x="751" y="-566.5" font-family="Helvetica,sans-Serif" font-size="10.00">mom_error_handler::</text>
<text text-anchor="middle" x="796" y="-555.5" font-family="Helvetica,sans-Serif" font-size="10.00">is_root_pe</text>
</a>
</g>
</g>
<!-- Node17&#45;&gt;Node21 -->
<g id="edge13" class="edge"><title>Node17&#45;&gt;Node21</title>
<path fill="none" stroke="midnightblue" d="M219.242,-360.708C225.596,-398.151 247.3,-495.314 307,-544.5 430.524,-646.271 637.216,-608.287 737.262,-581.315"/>
<polygon fill="midnightblue" stroke="midnightblue" points="738.474,-584.612 747.185,-578.582 736.614,-577.864 738.474,-584.612"/>
</g>
<!-- Node22 -->
<g id="node7" class="node"><title>Node22</title>
<g id="a_node7"><a xlink:href="../../d9/d06/namespacemom__diag__mediator.html#a93abbf0b9659019bed9a2129ab292752" target="_top" xlink:title="Attaches &quot;cell_methods&quot; attribute to a variable based on defaults for axes_grp or optional arguments...">
<polygon fill="white" stroke="black" points="455,-539.5 455,-569.5 565,-569.5 565,-539.5 455,-539.5"/>
<text text-anchor="start" x="463" y="-557.5" font-family="Helvetica,sans-Serif" font-size="10.00">mom_diag_mediator::</text>
<text text-anchor="middle" x="510" y="-546.5" font-family="Helvetica,sans-Serif" font-size="10.00">attach_cell_methods</text>
</a>
</g>
</g>
<!-- Node17&#45;&gt;Node22 -->
<g id="edge6" class="edge"><title>Node17&#45;&gt;Node22</title>
<path fill="none" stroke="midnightblue" d="M220.627,-360.715C229.347,-393.8 254.746,-472.443 307,-511.5 346.483,-541.011 401.815,-551.227 444.587,-554.361"/>
<polygon fill="midnightblue" stroke="midnightblue" points="444.419,-557.857 454.617,-554.984 444.854,-550.87 444.419,-557.857"/>
</g>
<!-- Node23 -->
<g id="node8" class="node"><title>Node23</title>
<g id="a_node8"><a xlink:href="../../d9/d06/namespacemom__diag__mediator.html#a3f7442639213320f7429e2288a79fda2" target="_top" xlink:title="Returns a new diagnostic id, it may be necessary to expand the diagnostics array. ...">
<polygon fill="white" stroke="black" points="308,-443.5 308,-473.5 418,-473.5 418,-443.5 308,-443.5"/>
<text text-anchor="start" x="316" y="-461.5" font-family="Helvetica,sans-Serif" font-size="10.00">mom_diag_mediator::</text>
<text text-anchor="middle" x="363" y="-450.5" font-family="Helvetica,sans-Serif" font-size="10.00">get_new_diag_id</text>
</a>
</g>
</g>
<!-- Node17&#45;&gt;Node23 -->
<g id="edge8" class="edge"><title>Node17&#45;&gt;Node23</title>
<path fill="none" stroke="midnightblue" d="M231.306,-360.803C248.291,-378.448 277.982,-407.69 307,-428.5 311.813,-431.952 317.067,-435.292 322.356,-438.413"/>
<polygon fill="midnightblue" stroke="midnightblue" points="320.795,-441.551 331.22,-443.438 324.247,-435.461 320.795,-441.551"/>
</g>
<!-- Node25 -->
<g id="node10" class="node"><title>Node25</title>
<g id="a_node10"><a xlink:href="../../d9/d06/namespacemom__diag__mediator.html#a4b739f107cebe1ece8d29056c1144bff" target="_top" xlink:title="mom_diag_mediator::\lis_b_axes">
<polygon fill="white" stroke="black" points="308,-355.5 308,-385.5 418,-385.5 418,-355.5 308,-355.5"/>
<text text-anchor="start" x="316" y="-373.5" font-family="Helvetica,sans-Serif" font-size="10.00">mom_diag_mediator::</text>
<text text-anchor="middle" x="363" y="-362.5" font-family="Helvetica,sans-Serif" font-size="10.00">is_b_axes</text>
</a>
</g>
</g>
<!-- Node17&#45;&gt;Node25 -->
<g id="edge11" class="edge"><title>Node17&#45;&gt;Node25</title>
<path fill="none" stroke="midnightblue" d="M271.405,-354.88C280.046,-356.37 289.054,-357.923 297.893,-359.447"/>
<polygon fill="midnightblue" stroke="midnightblue" points="297.323,-362.9 307.772,-361.15 298.512,-356.002 297.323,-362.9"/>
</g>
<!-- Node26 -->
<g id="node11" class="node"><title>Node26</title>
<g id="a_node11"><a xlink:href="../../d9/d06/namespacemom__diag__mediator.html#a84370fa96e03622edbfd5e343bcd9718" target="_top" xlink:title="mom_diag_mediator::\lis_layer_axes">
<polygon fill="white" stroke="black" points="308,-306.5 308,-336.5 418,-336.5 418,-306.5 308,-306.5"/>
<text text-anchor="start" x="316" y="-324.5" font-family="Helvetica,sans-Serif" font-size="10.00">mom_diag_mediator::</text>
<text text-anchor="middle" x="363" y="-313.5" font-family="Helvetica,sans-Serif" font-size="10.00">is_layer_axes</text>
</a>
</g>
</g>
<!-- Node17&#45;&gt;Node26 -->
<g id="edge12" class="edge"><title>Node17&#45;&gt;Node26</title>
<path fill="none" stroke="midnightblue" d="M271.405,-336.495C280.046,-335.065 289.054,-333.574 297.893,-332.111"/>
<polygon fill="midnightblue" stroke="midnightblue" points="298.478,-335.562 307.772,-330.476 297.335,-328.656 298.478,-335.562"/>
</g>
<!-- Node27 -->
<g id="node12" class="node"><title>Node27</title>
<g id="a_node12"><a xlink:href="../../d9/d06/namespacemom__diag__mediator.html#a27fa63c9ff62b660bf457adbb8645bdf" target="_top" xlink:title="mom_diag_mediator::\lis_u_axes">
<polygon fill="white" stroke="black" points="308,-257.5 308,-287.5 418,-287.5 418,-257.5 308,-257.5"/>
<text text-anchor="start" x="316" y="-275.5" font-family="Helvetica,sans-Serif" font-size="10.00">mom_diag_mediator::</text>
<text text-anchor="middle" x="363" y="-264.5" font-family="Helvetica,sans-Serif" font-size="10.00">is_u_axes</text>
</a>
</g>
</g>
<!-- Node17&#45;&gt;Node27 -->
<g id="edge14" class="edge"><title>Node17&#45;&gt;Node27</title>
<path fill="none" stroke="midnightblue" d="M244.339,-330.339C262.058,-320.657 285.719,-307.998 307,-297.5 310.81,-295.621 314.79,-293.71 318.793,-291.826"/>
<polygon fill="midnightblue" stroke="midnightblue" points="320.506,-294.889 328.101,-287.502 317.557,-288.54 320.506,-294.889"/>
</g>
<!-- Node28 -->
<g id="node13" class="node"><title>Node28</title>
<g id="a_node13"><a xlink:href="../../d9/d06/namespacemom__diag__mediator.html#a9a30d653d812713d6fcff94f6f1fc3e6" target="_top" xlink:title="mom_diag_mediator::\lis_v_axes">
<polygon fill="white" stroke="black" points="308,-208.5 308,-238.5 418,-238.5 418,-208.5 308,-208.5"/>
<text text-anchor="start" x="316" y="-226.5" font-family="Helvetica,sans-Serif" font-size="10.00">mom_diag_mediator::</text>
<text text-anchor="middle" x="363" y="-215.5" font-family="Helvetica,sans-Serif" font-size="10.00">is_v_axes</text>
</a>
</g>
</g>
<!-- Node17&#45;&gt;Node28 -->
<g id="edge15" class="edge"><title>Node17&#45;&gt;Node28</title>
<path fill="none" stroke="midnightblue" d="M228,-330.283C243.62,-309.548 274.019,-272.282 307,-248.5 309.473,-246.717 312.093,-245.017 314.795,-243.403"/>
<polygon fill="midnightblue" stroke="midnightblue" points="316.546,-246.435 323.624,-238.551 313.175,-240.3 316.546,-246.435"/>
</g>
<!-- Node29 -->
<g id="node14" class="node"><title>Node29</title>
<g id="a_node14"><a xlink:href="../../d9/d06/namespacemom__diag__mediator.html#a65fe8d329cf5dbfd08c98874a7a64407" target="_top" xlink:title="Log a diagnostic to the available diagnostics file. ">
<polygon fill="white" stroke="black" points="308,-159.5 308,-189.5 418,-189.5 418,-159.5 308,-159.5"/>
<text text-anchor="start" x="316" y="-177.5" font-family="Helvetica,sans-Serif" font-size="10.00">mom_diag_mediator::</text>
<text text-anchor="middle" x="363" y="-166.5" font-family="Helvetica,sans-Serif" font-size="10.00">log_available_diag</text>
</a>
</g>
</g>
<!-- Node17&#45;&gt;Node29 -->
<g id="edge16" class="edge"><title>Node17&#45;&gt;Node29</title>
<path fill="none" stroke="midnightblue" d="M222.837,-330.23C234.628,-301.187 263.89,-237.502 307,-199.5 308.726,-197.978 310.56,-196.534 312.471,-195.165"/>
<polygon fill="midnightblue" stroke="midnightblue" points="314.651,-197.929 321.245,-189.636 310.919,-192.006 314.651,-197.929"/>
</g>
<!-- Node31 -->
<g id="node16" class="node"><title>Node31</title>
<g id="a_node16"><a xlink:href="../../d9/d06/namespacemom__diag__mediator.html#aca4a32fea8dade9f51e076a56b9bad2b" target="_top" xlink:title="Returns ID from register_diag_field_fms (the diag_manager routine) after expanding axes (axes&#45;group) ...">
<polygon fill="white" stroke="black" points="308,-99 308,-140 418,-140 418,-99 308,-99"/>
<text text-anchor="start" x="316" y="-128" font-family="Helvetica,sans-Serif" font-size="10.00">mom_diag_mediator::</text>
<text text-anchor="start" x="316" y="-117" font-family="Helvetica,sans-Serif" font-size="10.00">register_diag_field</text>
<text text-anchor="middle" x="363" y="-106" font-family="Helvetica,sans-Serif" font-size="10.00">_expand_axes</text>
</a>
</g>
</g>
<!-- Node17&#45;&gt;Node31 -->
<g id="edge19" class="edge"><title>Node17&#45;&gt;Node31</title>
<path fill="none" stroke="midnightblue" d="M220.575,-330.259C229.554,-294.826 256.064,-205.729 307,-150.5 308.201,-149.198 309.469,-147.937 310.791,-146.717"/>
<polygon fill="midnightblue" stroke="midnightblue" points="313.297,-149.191 318.864,-140.177 308.891,-143.752 313.297,-149.191"/>
</g>
<!-- Node32 -->
<g id="node17" class="node"><title>Node32</title>
<g id="a_node17"><a xlink:href="../../d9/d06/namespacemom__diag__mediator.html#a085f313357879a914af6450f2ab8ec79" target="_top" xlink:title="mom_diag_mediator::\lset_diag_mask">
<polygon fill="white" stroke="black" points="308,-49.5 308,-79.5 418,-79.5 418,-49.5 308,-49.5"/>
<text text-anchor="start" x="316" y="-67.5" font-family="Helvetica,sans-Serif" font-size="10.00">mom_diag_mediator::</text>
<text text-anchor="middle" x="363" y="-56.5" font-family="Helvetica,sans-Serif" font-size="10.00">set_diag_mask</text>
</a>
</g>
</g>
<!-- Node17&#45;&gt;Node32 -->
<g id="edge20" class="edge"><title>Node17&#45;&gt;Node32</title>
<path fill="none" stroke="midnightblue" d="M218.234,-330.436C222.52,-287.397 240.368,-162.311 307,-89.5 308.193,-88.1967 309.467,-86.9566 310.806,-85.7772"/>
<polygon fill="midnightblue" stroke="midnightblue" points="313.115,-88.4227 319.079,-79.666 308.956,-82.7921 313.115,-88.4227"/>
</g>
<!-- Node33 -->
<g id="node18" class="node"><title>Node33</title>
<g id="a_node18"><a xlink:href="../../d9/d06/namespacemom__diag__mediator.html#a5d1e1aa53cdd6bb335a6f841eded4f46" target="_top" xlink:title="mom_diag_mediator::\lset_diag_remap_axes">
<polygon fill="white" stroke="black" points="307,-0.5 307,-30.5 419,-30.5 419,-0.5 307,-0.5"/>
<text text-anchor="start" x="315" y="-18.5" font-family="Helvetica,sans-Serif" font-size="10.00">mom_diag_mediator::</text>
<text text-anchor="middle" x="363" y="-7.5" font-family="Helvetica,sans-Serif" font-size="10.00">set_diag_remap_axes</text>
</a>
</g>
</g>
<!-- Node17&#45;&gt;Node33 -->
<g id="edge21" class="edge"><title>Node17&#45;&gt;Node33</title>
<path fill="none" stroke="midnightblue" d="M217.224,-330.428C218.727,-282.174 229.673,-129.46 307,-40.5 308.135,-39.1938 309.353,-37.9522 310.637,-36.7722"/>
<polygon fill="midnightblue" stroke="midnightblue" points="312.801,-39.5235 318.617,-30.6676 308.548,-33.9638 312.801,-39.5235"/>
</g>
<!-- Node19&#45;&gt;Node20 -->
<g id="edge4" class="edge"><title>Node19&#45;&gt;Node20</title>
<path fill="none" stroke="midnightblue" d="M565.089,-514.642C573.539,-516.07 582.329,-517.556 590.94,-519.011"/>
<polygon fill="midnightblue" stroke="midnightblue" points="590.492,-522.485 600.935,-520.7 591.659,-515.583 590.492,-522.485"/>
</g>
<!-- Node20&#45;&gt;Node21 -->
<g id="edge5" class="edge"><title>Node20&#45;&gt;Node21</title>
<path fill="none" stroke="midnightblue" d="M707.131,-542.16C715.512,-544.196 724.26,-546.32 732.849,-548.406"/>
<polygon fill="midnightblue" stroke="midnightblue" points="732.282,-551.87 742.826,-550.829 733.934,-545.068 732.282,-551.87"/>
</g>
<!-- Node22&#45;&gt;Node20 -->
<g id="edge7" class="edge"><title>Node22&#45;&gt;Node20</title>
<path fill="none" stroke="midnightblue" d="M565.089,-544.977C573.539,-543.49 582.329,-541.942 590.94,-540.426"/>
<polygon fill="midnightblue" stroke="midnightblue" points="591.694,-543.847 600.935,-538.666 590.48,-536.953 591.694,-543.847"/>
</g>
<!-- Node23&#45;&gt;Node19 -->
<g id="edge9" class="edge"><title>Node23&#45;&gt;Node19</title>
<path fill="none" stroke="midnightblue" d="M410.278,-473.5C423.88,-477.91 438.907,-482.78 453.046,-487.363"/>
<polygon fill="midnightblue" stroke="midnightblue" points="452.073,-490.727 462.665,-490.481 454.231,-484.068 452.073,-490.727"/>
</g>
<!-- Node24 -->
<g id="node9" class="node"><title>Node24</title>
<g id="a_node9"><a xlink:href="../../d9/d06/namespacemom__diag__mediator.html#a883862f004e30bbc5211f38635511ba0" target="_top" xlink:title="Initializes a diag_type (used after allocating new memory) ">
<polygon fill="white" stroke="black" points="455,-441.5 455,-471.5 565,-471.5 565,-441.5 455,-441.5"/>
<text text-anchor="start" x="463" y="-459.5" font-family="Helvetica,sans-Serif" font-size="10.00">mom_diag_mediator::</text>
<text text-anchor="middle" x="510" y="-448.5" font-family="Helvetica,sans-Serif" font-size="10.00">initialize_diag_type</text>
</a>
</g>
</g>
<!-- Node23&#45;&gt;Node24 -->
<g id="edge10" class="edge"><title>Node23&#45;&gt;Node24</title>
<path fill="none" stroke="midnightblue" d="M418.405,-457.75C426.953,-457.632 435.86,-457.509 444.608,-457.388"/>
<polygon fill="midnightblue" stroke="midnightblue" points="444.821,-460.886 454.772,-457.248 444.725,-453.886 444.821,-460.886"/>
</g>
<!-- Node30 -->
<g id="node15" class="node"><title>Node30</title>
<g id="a_node15"><a xlink:href="../../d9/d06/namespacemom__diag__mediator.html#ae002ca447acba252bf7bdc042e75a01e" target="_top" xlink:title="mom_diag_mediator::\ldescribe_option">
<polygon fill="white" stroke="black" points="455,-159.5 455,-189.5 565,-189.5 565,-159.5 455,-159.5"/>
<text text-anchor="start" x="463" y="-177.5" font-family="Helvetica,sans-Serif" font-size="10.00">mom_diag_mediator::</text>
<text text-anchor="middle" x="510" y="-166.5" font-family="Helvetica,sans-Serif" font-size="10.00">describe_option</text>
</a>
</g>
</g>
<!-- Node29&#45;&gt;Node30 -->
<g id="edge17" class="edge"><title>Node29&#45;&gt;Node30</title>
<path fill="none" stroke="midnightblue" d="M418.405,-174.5C426.953,-174.5 435.86,-174.5 444.608,-174.5"/>
<polygon fill="midnightblue" stroke="midnightblue" points="444.772,-178 454.772,-174.5 444.772,-171 444.772,-178"/>
</g>
</g>
</svg>
        <g id="navigator" transform="translate(0 0)" fill="#404254">
                <rect fill="#f2f5e9" fill-opacity="0.5" stroke="#606060" stroke-width=".5" x="0" y="0" width="60" height="60"/>
                <use id="zoomplus" xlink:href="#zoomPlus" x="17" y="9" onmousedown="handleZoom(evt,'in')"/>
                <use id="zoomminus" xlink:href="#zoomMin" x="42" y="9" onmousedown="handleZoom(evt,'out')"/>
                <use id="reset" xlink:href="#resetDef" x="30" y="36" onmousedown="handleReset()"/>
                <g id="arrowUp" xlink:href="#dirArrow" transform="translate(30 24)" onmousedown="handlePan(0,-1)">
                  <use xlink:href="#rim" fill="#404040">
                        <set attributeName="fill" to="#808080" begin="arrowUp.mouseover" end="arrowUp.mouseout"/>
                  </use>
                  <path fill="none" stroke="white" stroke-width="1.5" d="M0,-3.0v7 M-2.5,-0.5L0,-3.0L2.5,-0.5"/>
                </g>
                <g id="arrowRight" xlink:href="#dirArrow" transform="rotate(90) translate(36 -43)" onmousedown="handlePan(1,0)">
                  <use xlink:href="#rim" fill="#404040">
                        <set attributeName="fill" to="#808080" begin="arrowRight.mouseover" end="arrowRight.mouseout"/>
                  </use>
                  <path fill="none" stroke="white" stroke-width="1.5" d="M0,-3.0v7 M-2.5,-0.5L0,-3.0L2.5,-0.5"/>
                </g>
                <g id="arrowDown" xlink:href="#dirArrow" transform="rotate(180) translate(-30 -48)" onmousedown="handlePan(0,1)">
                  <use xlink:href="#rim" fill="#404040">
                        <set attributeName="fill" to="#808080" begin="arrowDown.mouseover" end="arrowDown.mouseout"/>
                  </use>
                  <path fill="none" stroke="white" stroke-width="1.5" d="M0,-3.0v7 M-2.5,-0.5L0,-3.0L2.5,-0.5"/>
                </g>
                <g id="arrowLeft" xlink:href="#dirArrow" transform="rotate(270) translate(-36 17)" onmousedown="handlePan(-1,0)">
                  <use xlink:href="#rim" fill="#404040">
                        <set attributeName="fill" to="#808080" begin="arrowLeft.mouseover" end="arrowLeft.mouseout"/>
                  </use>
                  <path fill="none" stroke="white" stroke-width="1.5" d="M0,-3.0v7 M-2.5,-0.5L0,-3.0L2.5,-0.5"/>
                </g>
        </g>
        <svg viewBox="0 0 15 15" width="100%" height="30px" preserveAspectRatio="xMaxYMin meet">
         <g id="arrow_out" transform="scale(0.3 0.3)">
          <a xlink:href="namespacemom__diapyc__energy__req_aa0ce122f4dc6d9a6ec9e17996484bb76_cgraph_org.svg" target="_base">
           <rect id="button" ry="5" rx="5" y="6" x="6" height="38" width="38"
                fill="#f2f5e9" fill-opacity="0.5" stroke="#606060" stroke-width="1.0"/>
           <path id="arrow"
             d="M 11.500037,31.436501 C 11.940474,20.09759 22.043105,11.32322 32.158766,21.979434 L 37.068811,17.246167 C 37.068811,17.246167 37.088388,32 37.088388,32 L 22.160133,31.978069 C 22.160133,31.978069 26.997745,27.140456 26.997745,27.140456 C 18.528582,18.264221 13.291696,25.230495 11.500037,31.436501 z"
             style="fill:#404040;"/>
          </a>
         </g>
        </svg>
</svg>
