<?xml version="1.0" encoding="UTF-8" standalone="no"?>
<!DOCTYPE svg PUBLIC "-//W3C//DTD SVG 1.1//EN"
 "http://www.w3.org/Graphics/SVG/1.1/DTD/svg11.dtd">
<!-- Generated by graphviz version 2.38.0 (20140413.2041)
 -->
<!-- Title: mom_diapyc_energy_req::diapyc_energy_req_test Pages: 1 -->
<svg width="920pt" height="282pt"
 viewBox="0.00 0.00 920.00 282.47" xmlns="http://www.w3.org/2000/svg" xmlns:xlink="http://www.w3.org/1999/xlink">
<g id="graph0" class="graph" transform="scale(1 1) rotate(0) translate(4 278.467)">
<title>mom_diapyc_energy_req::diapyc_energy_req_test</title>
<polygon fill="white" stroke="none" points="-4,4 -4,-278.467 916,-278.467 916,4 -4,4"/>
<!-- Node35 -->
<g id="node1" class="node"><title>Node35</title>
<polygon fill="#bfbfbf" stroke="black" points="0,-23 0,-53 126,-53 126,-23 0,-23"/>
<text text-anchor="start" x="8" y="-41" font-family="Helvetica,sans-Serif" font-size="10.00">mom_diapyc_energy_req</text>
<text text-anchor="middle" x="63" y="-30" font-family="Helvetica,sans-Serif" font-size="10.00">::diapyc_energy_req_test</text>
</g>
<!-- Node36 -->
<g id="node2" class="node"><title>Node36</title>
<g id="a_node2"><a xlink:href="../../d7/daa/namespacemom__diapyc__energy__req.html#ae781d0079acfadcd996aaff8d63957da" target="_top" xlink:title="mom_diapyc_energy_req\l::diapyc_energy_req_calc">
<polygon fill="white" stroke="black" points="162,-116 162,-146 290,-146 290,-116 162,-116"/>
<text text-anchor="start" x="170" y="-134" font-family="Helvetica,sans-Serif" font-size="10.00">mom_diapyc_energy_req</text>
<text text-anchor="middle" x="226" y="-123" font-family="Helvetica,sans-Serif" font-size="10.00">::diapyc_energy_req_calc</text>
</a>
</g>
</g>
<!-- Node35&#45;&gt;Node36 -->
<g id="edge1" class="edge"><title>Node35&#45;&gt;Node36</title>
<path fill="none" stroke="midnightblue" d="M90.2258,-53.149C117.358,-68.8217 159.887,-93.3883 189.903,-110.727"/>
<polygon fill="midnightblue" stroke="midnightblue" points="188.376,-113.886 198.785,-115.857 191.877,-107.825 188.376,-113.886"/>
</g>
<!-- Node38 -->
<g id="node4" class="node"><title>Node38</title>
<g id="a_node4"><a xlink:href="../../d0/de6/namespacemom__error__handler.html#a460cfb79a06c29fc249952c2a3710d67" target="_top" xlink:title="mom_error_handler::\lmom_error">
<polygon fill="white" stroke="black" points="664,-48 664,-78 770,-78 770,-48 664,-48"/>
<text text-anchor="start" x="672" y="-66" font-family="Helvetica,sans-Serif" font-size="10.00">mom_error_handler::</text>
<text text-anchor="middle" x="717" y="-55" font-family="Helvetica,sans-Serif" font-size="10.00">mom_error</text>
</a>
</g>
</g>
<!-- Node35&#45;&gt;Node38 -->
<g id="edge14" class="edge"><title>Node35&#45;&gt;Node38</title>
<path fill="none" stroke="midnightblue" d="M126.205,-39.3962C230.162,-41.8865 445.763,-47.7205 628,-57 636.354,-57.4254 645.15,-57.9424 653.818,-58.4926"/>
<polygon fill="midnightblue" stroke="midnightblue" points="653.695,-61.9919 663.901,-59.1502 654.15,-55.0068 653.695,-61.9919"/>
</g>
<!-- Node39 -->
<g id="node5" class="node"><title>Node39</title>
<g id="a_node5"><a xlink:href="../../d0/de6/namespacemom__error__handler.html#ad5f00a53059c72fe2332d1436c80ca71" target="_top" xlink:title="mom_error_handler::\lis_root_pe">
<polygon fill="white" stroke="black" points="806,-16 806,-46 912,-46 912,-16 806,-16"/>
<text text-anchor="start" x="814" y="-34" font-family="Helvetica,sans-Serif" font-size="10.00">mom_error_handler::</text>
<text text-anchor="middle" x="859" y="-23" font-family="Helvetica,sans-Serif" font-size="10.00">is_root_pe</text>
</a>
</g>
</g>
<!-- Node35&#45;&gt;Node39 -->
<g id="edge13" class="edge"><title>Node35&#45;&gt;Node39</title>
<path fill="none" stroke="midnightblue" d="M126.065,-26.3405C191.003,-15.1702 296.031,-0 387.5,-0 387.5,-0 387.5,-0 558.5,-0 640.9,-0 735.379,-11.7534 795.819,-20.786"/>
<polygon fill="midnightblue" stroke="midnightblue" points="795.547,-24.2846 805.959,-22.3236 796.596,-17.3637 795.547,-24.2846"/>
</g>
<!-- Node37 -->
<g id="node3" class="node"><title>Node37</title>
<g id="a_node3"><a xlink:href="../../d1/d01/namespacemom__eos.html#ab6ed65d2df376be9bbea2050f50fe46e" target="_top" xlink:title="Calls the appropriate subroutine to calculate specific volume derivatives for an array. ">
<polygon fill="white" stroke="black" points="336,-214 336,-244 441,-244 441,-214 336,-214"/>
<text text-anchor="start" x="344" y="-232" font-family="Helvetica,sans-Serif" font-size="10.00">mom_eos::calculate</text>
<text text-anchor="middle" x="388.5" y="-221" font-family="Helvetica,sans-Serif" font-size="10.00">_specific_vol_derivs</text>
</a>
</g>
</g>
<!-- Node36&#45;&gt;Node37 -->
<g id="edge2" class="edge"><title>Node36&#45;&gt;Node37</title>
<path fill="none" stroke="midnightblue" d="M244.681,-146.166C263.801,-162.043 295.634,-186.985 326,-204 329.62,-206.028 333.438,-207.98 337.326,-209.838"/>
<polygon fill="midnightblue" stroke="midnightblue" points="335.916,-213.041 346.468,-213.991 338.811,-206.668 335.916,-213.041"/>
</g>
<!-- Node43 -->
<g id="node9" class="node"><title>Node43</title>
<g id="a_node9"><a xlink:href="../../d7/daa/namespacemom__diapyc__energy__req.html#a7a3fbef0d9b211d5993f2ce89f3cf93e" target="_top" xlink:title="This subroutine calculates the change in potential energy and or derivatives for several changes in a...">
<polygon fill="white" stroke="black" points="326,-165 326,-195 451,-195 451,-165 326,-165"/>
<text text-anchor="start" x="334" y="-183" font-family="Helvetica,sans-Serif" font-size="10.00">mom_diapyc_energy_req</text>
<text text-anchor="middle" x="388.5" y="-172" font-family="Helvetica,sans-Serif" font-size="10.00">::find_pe_chg</text>
</a>
</g>
</g>
<!-- Node36&#45;&gt;Node43 -->
<g id="edge8" class="edge"><title>Node36&#45;&gt;Node43</title>
<path fill="none" stroke="midnightblue" d="M276.465,-146.101C292.865,-151.108 311.287,-156.732 328.341,-161.939"/>
<polygon fill="midnightblue" stroke="midnightblue" points="327.612,-165.376 338.198,-164.948 329.656,-158.681 327.612,-165.376"/>
</g>
<!-- Node44 -->
<g id="node10" class="node"><title>Node44</title>
<g id="a_node10"><a xlink:href="../../d7/daa/namespacemom__diapyc__energy__req.html#ab30595bc6f14a3b356519645ed7b8828" target="_top" xlink:title="This subroutine calculates the change in potential energy and or derivatives for several changes in a...">
<polygon fill="white" stroke="black" points="326,-116 326,-146 451,-146 451,-116 326,-116"/>
<text text-anchor="start" x="334" y="-134" font-family="Helvetica,sans-Serif" font-size="10.00">mom_diapyc_energy_req</text>
<text text-anchor="middle" x="388.5" y="-123" font-family="Helvetica,sans-Serif" font-size="10.00">::find_pe_chg_orig</text>
</a>
</g>
</g>
<!-- Node36&#45;&gt;Node44 -->
<g id="edge9" class="edge"><title>Node36&#45;&gt;Node44</title>
<path fill="none" stroke="midnightblue" d="M290.434,-131C298.719,-131 307.254,-131 315.665,-131"/>
<polygon fill="midnightblue" stroke="midnightblue" points="315.837,-134.5 325.837,-131 315.837,-127.5 315.837,-134.5"/>
</g>
<!-- Node45 -->
<g id="node11" class="node"><title>Node45</title>
<g id="a_node11"><a xlink:href="../../d9/d06/namespacemom__diag__mediator.html#ab5b75b68fa1742ce312c371f4b2c6ac1" target="_top" xlink:title="mom_diag_mediator::\lpost_data_1d_k">
<polygon fill="white" stroke="black" points="333.5,-67 333.5,-97 443.5,-97 443.5,-67 333.5,-67"/>
<text text-anchor="start" x="341.5" y="-85" font-family="Helvetica,sans-Serif" font-size="10.00">mom_diag_mediator::</text>
<text text-anchor="middle" x="388.5" y="-74" font-family="Helvetica,sans-Serif" font-size="10.00">post_data_1d_k</text>
</a>
</g>
</g>
<!-- Node36&#45;&gt;Node45 -->
<g id="edge10" class="edge"><title>Node36&#45;&gt;Node45</title>
<path fill="none" stroke="midnightblue" d="M276.465,-115.899C292.865,-110.892 311.287,-105.268 328.341,-100.061"/>
<polygon fill="midnightblue" stroke="midnightblue" points="329.656,-103.319 338.198,-97.0516 327.612,-96.6241 329.656,-103.319"/>
</g>
<!-- Node37&#45;&gt;Node38 -->
<g id="edge3" class="edge"><title>Node37&#45;&gt;Node38</title>
<path fill="none" stroke="midnightblue" d="M421.367,-244.131C470.048,-264.821 564.013,-294.971 628,-254 685.843,-216.963 706.195,-131.217 712.92,-88.3504"/>
<polygon fill="midnightblue" stroke="midnightblue" points="716.422,-88.588 714.383,-78.1913 709.494,-87.5905 716.422,-88.588"/>
</g>
<!-- Node40 -->
<g id="node6" class="node"><title>Node40</title>
<g id="a_node6"><a xlink:href="../../d5/de6/namespacemom__eos__linear.html#ac104dedf6f20ab794c2c430462ace217" target="_top" xlink:title="mom_eos_linear::calculate\l_specvol_derivs_linear">
<polygon fill="white" stroke="black" points="491,-214 491,-244 624,-244 624,-214 491,-214"/>
<text text-anchor="start" x="499" y="-232" font-family="Helvetica,sans-Serif" font-size="10.00">mom_eos_linear::calculate</text>
<text text-anchor="middle" x="557.5" y="-221" font-family="Helvetica,sans-Serif" font-size="10.00">_specvol_derivs_linear</text>
</a>
</g>
</g>
<!-- Node37&#45;&gt;Node40 -->
<g id="edge5" class="edge"><title>Node37&#45;&gt;Node40</title>
<path fill="none" stroke="midnightblue" d="M441.424,-229C453.861,-229 467.394,-229 480.666,-229"/>
<polygon fill="midnightblue" stroke="midnightblue" points="480.743,-232.5 490.743,-229 480.742,-225.5 480.743,-232.5"/>
</g>
<!-- Node41 -->
<g id="node7" class="node"><title>Node41</title>
<g id="a_node7"><a xlink:href="../../dd/d6b/namespacemom__eos__unesco.html#af8666837abadea54c016bf59838f96cc" target="_top" xlink:title="mom_eos_unesco::calculate\l_density_derivs_unesco">
<polygon fill="white" stroke="black" points="487,-165 487,-195 628,-195 628,-165 487,-165"/>
<text text-anchor="start" x="495" y="-183" font-family="Helvetica,sans-Serif" font-size="10.00">mom_eos_unesco::calculate</text>
<text text-anchor="middle" x="557.5" y="-172" font-family="Helvetica,sans-Serif" font-size="10.00">_density_derivs_unesco</text>
</a>
</g>
</g>
<!-- Node37&#45;&gt;Node41 -->
<g id="edge6" class="edge"><title>Node37&#45;&gt;Node41</title>
<path fill="none" stroke="midnightblue" d="M440.968,-213.899C458.192,-208.845 477.559,-203.162 495.442,-197.915"/>
<polygon fill="midnightblue" stroke="midnightblue" points="496.592,-201.226 505.202,-195.052 494.621,-194.509 496.592,-201.226"/>
</g>
<!-- Node42 -->
<g id="node8" class="node"><title>Node42</title>
<g id="a_node8"><a xlink:href="../../de/d76/namespacemom__eos__wright.html#a890d098ddbdc76f6cfbf1b7cf19b6388" target="_top" xlink:title="mom_eos_wright::calculate\l_specvol_derivs_wright">
<polygon fill="white" stroke="black" points="489.5,-116 489.5,-146 625.5,-146 625.5,-116 489.5,-116"/>
<text text-anchor="start" x="497.5" y="-134" font-family="Helvetica,sans-Serif" font-size="10.00">mom_eos_wright::calculate</text>
<text text-anchor="middle" x="557.5" y="-123" font-family="Helvetica,sans-Serif" font-size="10.00">_specvol_derivs_wright</text>
</a>
</g>
</g>
<!-- Node37&#45;&gt;Node42 -->
<g id="edge7" class="edge"><title>Node37&#45;&gt;Node42</title>
<path fill="none" stroke="midnightblue" d="M435.092,-213.851C440.72,-211.024 446.18,-207.753 451,-204 472.321,-187.397 465.241,-171.026 487,-155 488.879,-153.616 490.844,-152.307 492.873,-151.07"/>
<polygon fill="midnightblue" stroke="midnightblue" points="494.969,-153.917 502.114,-146.093 491.65,-147.754 494.969,-153.917"/>
</g>
<!-- Node38&#45;&gt;Node39 -->
<g id="edge4" class="edge"><title>Node38&#45;&gt;Node39</title>
<path fill="none" stroke="midnightblue" d="M770.131,-51.0844C778.512,-49.1686 787.26,-47.1691 795.849,-45.206"/>
<polygon fill="midnightblue" stroke="midnightblue" points="796.857,-48.5659 805.826,-42.9256 795.297,-41.7419 796.857,-48.5659"/>
</g>
<!-- Node46 -->
<g id="node12" class="node"><title>Node46</title>
<g id="a_node12"><a xlink:href="../../d9/d06/namespacemom__diag__mediator.html#a6e11afe7a97bf8e3333d33b0aebd6f6e" target="_top" xlink:title="mom_diag_mediator::\lassert">
<polygon fill="white" stroke="black" points="502.5,-67 502.5,-97 612.5,-97 612.5,-67 502.5,-67"/>
<text text-anchor="start" x="510.5" y="-85" font-family="Helvetica,sans-Serif" font-size="10.00">mom_diag_mediator::</text>
<text text-anchor="middle" x="557.5" y="-74" font-family="Helvetica,sans-Serif" font-size="10.00">assert</text>
</a>
</g>
</g>
<!-- Node45&#45;&gt;Node46 -->
<g id="edge11" class="edge"><title>Node45&#45;&gt;Node46</title>
<path fill="none" stroke="midnightblue" d="M443.72,-82C459.111,-82 476.022,-82 491.959,-82"/>
<polygon fill="midnightblue" stroke="midnightblue" points="492.266,-85.5001 502.266,-82 492.266,-78.5001 492.266,-85.5001"/>
</g>
<!-- Node46&#45;&gt;Node38 -->
<g id="edge12" class="edge"><title>Node46&#45;&gt;Node38</title>
<path fill="none" stroke="midnightblue" d="M612.703,-75.4613C625.891,-73.8702 640.101,-72.1561 653.635,-70.5234"/>
<polygon fill="midnightblue" stroke="midnightblue" points="654.316,-73.9667 663.825,-69.2942 653.478,-67.0171 654.316,-73.9667"/>
</g>
</g>
</svg>
