<?xml version="1.0" encoding="UTF-8" standalone="no"?>
<!DOCTYPE svg PUBLIC "-//W3C//DTD SVG 1.1//EN"
 "http://www.w3.org/Graphics/SVG/1.1/DTD/svg11.dtd">
<!-- Generated by graphviz version 2.38.0 (20140413.2041)
 -->
<!-- Title: mom_ice_shelf::cg_diagonal_subgrid_basal_bilinear Pages: 1 -->
<svg width="835pt" height="186pt"
 viewBox="0.00 0.00 835.00 186.00" xmlns="http://www.w3.org/2000/svg" xmlns:xlink="http://www.w3.org/1999/xlink">
<g id="graph0" class="graph" transform="scale(1 1) rotate(0) translate(4 182)">
<title>mom_ice_shelf::cg_diagonal_subgrid_basal_bilinear</title>
<polygon fill="white" stroke="none" points="-4,4 -4,-182 831,-182 831,4 -4,4"/>
<!-- Node118 -->
<g id="node1" class="node"><title>Node118</title>
<polygon fill="#bfbfbf" stroke="black" points="0,-73.5 0,-103.5 140,-103.5 140,-73.5 0,-73.5"/>
<text text-anchor="start" x="8" y="-91.5" font-family="Helvetica,sans-Serif" font-size="10.00">mom_ice_shelf::cg_diagonal</text>
<text text-anchor="middle" x="70" y="-80.5" font-family="Helvetica,sans-Serif" font-size="10.00">_subgrid_basal_bilinear</text>
</g>
<!-- Node119 -->
<g id="node2" class="node"><title>Node119</title>
<g id="a_node2"><a xlink:href="../../df/da2/namespacemom__ice__shelf.html#a0fa0e5e0225816e5e5e87994371f11f1" target="_top" xlink:title="mom_ice_shelf::matrix\l_diagonal_bilinear">
<polygon fill="white" stroke="black" points="176,-73.5 176,-103.5 292,-103.5 292,-73.5 176,-73.5"/>
<text text-anchor="start" x="184" y="-91.5" font-family="Helvetica,sans-Serif" font-size="10.00">mom_ice_shelf::matrix</text>
<text text-anchor="middle" x="234" y="-80.5" font-family="Helvetica,sans-Serif" font-size="10.00">_diagonal_bilinear</text>
</a>
</g>
</g>
<!-- Node118&#45;&gt;Node119 -->
<g id="edge1" class="edge"><title>Node118&#45;&gt;Node119</title>
<path fill="none" stroke="midnightblue" d="M150.245,-88.5C158.855,-88.5 167.492,-88.5 175.766,-88.5"/>
<polygon fill="midnightblue" stroke="midnightblue" points="150.173,-85.0001 140.172,-88.5 150.172,-92.0001 150.173,-85.0001"/>
</g>
<!-- Node120 -->
<g id="node3" class="node"><title>Node120</title>
<g id="a_node3"><a xlink:href="../../df/da2/namespacemom__ice__shelf.html#a95d21b019a635ad3a8ef060d765362e1" target="_top" xlink:title="mom_ice_shelf::ice\l_shelf_solve_inner">
<polygon fill="white" stroke="black" points="328,-73.5 328,-103.5 429,-103.5 429,-73.5 328,-73.5"/>
<text text-anchor="start" x="336" y="-91.5" font-family="Helvetica,sans-Serif" font-size="10.00">mom_ice_shelf::ice</text>
<text text-anchor="middle" x="378.5" y="-80.5" font-family="Helvetica,sans-Serif" font-size="10.00">_shelf_solve_inner</text>
</a>
</g>
</g>
<!-- Node119&#45;&gt;Node120 -->
<g id="edge2" class="edge"><title>Node119&#45;&gt;Node120</title>
<path fill="none" stroke="midnightblue" d="M302.166,-88.5C310.765,-88.5 319.443,-88.5 327.698,-88.5"/>
<polygon fill="midnightblue" stroke="midnightblue" points="302.139,-85.0001 292.139,-88.5 302.139,-92.0001 302.139,-85.0001"/>
</g>
<!-- Node121 -->
<g id="node4" class="node"><title>Node121</title>
<g id="a_node4"><a xlink:href="../../df/da2/namespacemom__ice__shelf.html#a5d64b696412c0bfd8ded2e2eacaa917c" target="_top" xlink:title="mom_ice_shelf::ice\l_shelf_solve_outer">
<polygon fill="white" stroke="black" points="465,-73.5 465,-103.5 566,-103.5 566,-73.5 465,-73.5"/>
<text text-anchor="start" x="473" y="-91.5" font-family="Helvetica,sans-Serif" font-size="10.00">mom_ice_shelf::ice</text>
<text text-anchor="middle" x="515.5" y="-80.5" font-family="Helvetica,sans-Serif" font-size="10.00">_shelf_solve_outer</text>
</a>
</g>
</g>
<!-- Node120&#45;&gt;Node121 -->
<g id="edge3" class="edge"><title>Node120&#45;&gt;Node121</title>
<path fill="none" stroke="midnightblue" d="M439.207,-88.5C447.67,-88.5 456.299,-88.5 464.552,-88.5"/>
<polygon fill="midnightblue" stroke="midnightblue" points="439.002,-85.0001 429.002,-88.5 439.002,-92.0001 439.002,-85.0001"/>
</g>
<!-- Node122 -->
<g id="node5" class="node"><title>Node122</title>
<g id="a_node5"><a xlink:href="../../df/da2/namespacemom__ice__shelf.html#a3b0e0cc9f36c5197236cc05867b780df" target="_top" xlink:title="mom_ice_shelf::shelf\l_calc_flux">
<polygon fill="white" stroke="black" points="609,-147.5 609,-177.5 719,-177.5 719,-147.5 609,-147.5"/>
<text text-anchor="start" x="617" y="-165.5" font-family="Helvetica,sans-Serif" font-size="10.00">mom_ice_shelf::shelf</text>
<text text-anchor="middle" x="664" y="-154.5" font-family="Helvetica,sans-Serif" font-size="10.00">_calc_flux</text>
</a>
</g>
</g>
<!-- Node121&#45;&gt;Node122 -->
<g id="edge4" class="edge"><title>Node121&#45;&gt;Node122</title>
<path fill="none" stroke="midnightblue" d="M548.728,-108.935C564.477,-118.508 583.897,-129.71 602,-138.5 608.45,-141.631 615.419,-144.675 622.262,-147.485"/>
<polygon fill="midnightblue" stroke="midnightblue" points="550.268,-105.774 539.916,-103.518 546.602,-111.737 550.268,-105.774"/>
</g>
<!-- Node124 -->
<g id="node7" class="node"><title>Node124</title>
<g id="a_node7"><a xlink:href="../../df/da2/namespacemom__ice__shelf.html#ae315e8464ef8a20062e3bccb61886755" target="_top" xlink:title="mom_ice_shelf::initialize\l_ice_shelf">
<polygon fill="white" stroke="black" points="602,-98.5 602,-128.5 726,-128.5 726,-98.5 602,-98.5"/>
<text text-anchor="start" x="610" y="-116.5" font-family="Helvetica,sans-Serif" font-size="10.00">mom_ice_shelf::initialize</text>
<text text-anchor="middle" x="664" y="-105.5" font-family="Helvetica,sans-Serif" font-size="10.00">_ice_shelf</text>
</a>
</g>
</g>
<!-- Node121&#45;&gt;Node124 -->
<g id="edge6" class="edge"><title>Node121&#45;&gt;Node124</title>
<path fill="none" stroke="midnightblue" d="M576.217,-98.6907C584.64,-100.128 593.309,-101.607 601.759,-103.049"/>
<polygon fill="midnightblue" stroke="midnightblue" points="576.545,-95.196 566.098,-96.9639 575.367,-102.096 576.545,-95.196"/>
</g>
<!-- Node126 -->
<g id="node9" class="node"><title>Node126</title>
<g id="a_node9"><a xlink:href="../../df/da2/namespacemom__ice__shelf.html#ae7611e3515ecf0eae0c5d6d17330fd6f" target="_top" xlink:title="mom_ice_shelf::initialize\l_diagnostic_fields">
<polygon fill="white" stroke="black" points="602,-49.5 602,-79.5 726,-79.5 726,-49.5 602,-49.5"/>
<text text-anchor="start" x="610" y="-67.5" font-family="Helvetica,sans-Serif" font-size="10.00">mom_ice_shelf::initialize</text>
<text text-anchor="middle" x="664" y="-56.5" font-family="Helvetica,sans-Serif" font-size="10.00">_diagnostic_fields</text>
</a>
</g>
</g>
<!-- Node121&#45;&gt;Node126 -->
<g id="edge9" class="edge"><title>Node121&#45;&gt;Node126</title>
<path fill="none" stroke="midnightblue" d="M576.217,-78.7169C584.64,-77.3372 593.309,-75.9169 601.759,-74.5326"/>
<polygon fill="midnightblue" stroke="midnightblue" points="575.401,-75.304 566.098,-80.3747 576.533,-82.2119 575.401,-75.304"/>
</g>
<!-- Node127 -->
<g id="node10" class="node"><title>Node127</title>
<g id="a_node10"><a xlink:href="../../df/da2/namespacemom__ice__shelf.html#ac084bdc5be4e708e3263488e9574a3c9" target="_top" xlink:title="mom_ice_shelf::solo\l_time_step">
<polygon fill="white" stroke="black" points="610.5,-0.5 610.5,-30.5 717.5,-30.5 717.5,-0.5 610.5,-0.5"/>
<text text-anchor="start" x="618.5" y="-18.5" font-family="Helvetica,sans-Serif" font-size="10.00">mom_ice_shelf::solo</text>
<text text-anchor="middle" x="664" y="-7.5" font-family="Helvetica,sans-Serif" font-size="10.00">_time_step</text>
</a>
</g>
</g>
<!-- Node121&#45;&gt;Node127 -->
<g id="edge10" class="edge"><title>Node121&#45;&gt;Node127</title>
<path fill="none" stroke="midnightblue" d="M550.236,-68.2998C565.765,-59.3305 584.576,-48.9224 602,-40.5 609.11,-37.0632 616.819,-33.6628 624.287,-30.529"/>
<polygon fill="midnightblue" stroke="midnightblue" points="548.384,-65.3283 541.508,-73.3885 551.909,-71.3757 548.384,-65.3283"/>
</g>
<!-- Node123 -->
<g id="node6" class="node"><title>Node123</title>
<g id="a_node6"><a xlink:href="../../de/dbc/MOM__driver_8F90.html#a08fffeb2d8e8acbf9ed4609be6d258c6" target="_top" xlink:title="mom_main">
<polygon fill="white" stroke="black" points="762,-128 762,-147 827,-147 827,-128 762,-128"/>
<text text-anchor="middle" x="794.5" y="-135" font-family="Helvetica,sans-Serif" font-size="10.00">mom_main</text>
</a>
</g>
</g>
<!-- Node122&#45;&gt;Node123 -->
<g id="edge5" class="edge"><title>Node122&#45;&gt;Node123</title>
<path fill="none" stroke="midnightblue" d="M729.08,-150.033C740.453,-147.82 751.833,-145.606 761.795,-143.668"/>
<polygon fill="midnightblue" stroke="midnightblue" points="728.271,-146.625 719.123,-151.97 729.608,-153.496 728.271,-146.625"/>
</g>
<!-- Node124&#45;&gt;Node123 -->
<g id="edge8" class="edge"><title>Node124&#45;&gt;Node123</title>
<path fill="none" stroke="midnightblue" d="M736.31,-126.819C745.195,-128.478 753.897,-130.103 761.726,-131.565"/>
<polygon fill="midnightblue" stroke="midnightblue" points="736.712,-123.333 726.239,-124.938 735.427,-130.214 736.712,-123.333"/>
</g>
<!-- Node125 -->
<g id="node8" class="node"><title>Node125</title>
<g id="a_node8"><a xlink:href="../../d5/d6d/ice__shelf__driver_8F90.html#aec5bef92f0dad343f545cd8d62e378d8" target="_top" xlink:title="shelf_main">
<polygon fill="white" stroke="black" points="762.5,-60 762.5,-79 826.5,-79 826.5,-60 762.5,-60"/>
<text text-anchor="middle" x="794.5" y="-67" font-family="Helvetica,sans-Serif" font-size="10.00">shelf_main</text>
</a>
</g>
</g>
<!-- Node124&#45;&gt;Node125 -->
<g id="edge7" class="edge"><title>Node124&#45;&gt;Node125</title>
<path fill="none" stroke="midnightblue" d="M718.727,-95.1032C734.817,-89.5938 751.812,-83.7744 765.527,-79.0783"/>
<polygon fill="midnightblue" stroke="midnightblue" points="717.19,-91.93 708.863,-98.4808 719.458,-98.5525 717.19,-91.93"/>
</g>
<!-- Node127&#45;&gt;Node125 -->
<g id="edge11" class="edge"><title>Node127&#45;&gt;Node125</title>
<path fill="none" stroke="midnightblue" d="M711.5,-34.4625C716.4,-36.4892 721.305,-38.5297 726,-40.5 741.171,-46.8674 758.192,-54.1813 771.347,-59.8711"/>
<polygon fill="midnightblue" stroke="midnightblue" points="712.717,-31.1787 702.138,-30.6041 710.05,-37.6506 712.717,-31.1787"/>
</g>
</g>
</svg>
