<?xml version="1.0" encoding="UTF-8" standalone="no"?>
<!DOCTYPE svg PUBLIC "-//W3C//DTD SVG 1.1//EN"
 "http://www.w3.org/Graphics/SVG/1.1/DTD/svg11.dtd">
<!-- Generated by graphviz version 2.38.0 (20140413.2041)
 -->
<!-- Title: mom_ice_shelf::update_od_ffrac_uncoupled Pages: 1 -->
<svg width="387pt" height="137pt"
 viewBox="0.00 0.00 387.00 137.00" xmlns="http://www.w3.org/2000/svg" xmlns:xlink="http://www.w3.org/1999/xlink">
<g id="graph0" class="graph" transform="scale(1 1) rotate(0) translate(4 133)">
<title>mom_ice_shelf::update_od_ffrac_uncoupled</title>
<polygon fill="white" stroke="none" points="-4,4 -4,-133 383,-133 383,4 -4,4"/>
<!-- Node508 -->
<g id="node1" class="node"><title>Node508</title>
<polygon fill="#bfbfbf" stroke="black" points="0,-49.5 0,-79.5 118,-79.5 118,-49.5 0,-49.5"/>
<text text-anchor="start" x="8" y="-67.5" font-family="Helvetica,sans-Serif" font-size="10.00">mom_ice_shelf::update</text>
<text text-anchor="middle" x="59" y="-56.5" font-family="Helvetica,sans-Serif" font-size="10.00">_od_ffrac_uncoupled</text>
</g>
<!-- Node509 -->
<g id="node2" class="node"><title>Node509</title>
<g id="a_node2"><a xlink:href="../../df/da2/namespacemom__ice__shelf.html#ae315e8464ef8a20062e3bccb61886755" target="_top" xlink:title="mom_ice_shelf::initialize\l_ice_shelf">
<polygon fill="white" stroke="black" points="154,-49.5 154,-79.5 278,-79.5 278,-49.5 154,-49.5"/>
<text text-anchor="start" x="162" y="-67.5" font-family="Helvetica,sans-Serif" font-size="10.00">mom_ice_shelf::initialize</text>
<text text-anchor="middle" x="216" y="-56.5" font-family="Helvetica,sans-Serif" font-size="10.00">_ice_shelf</text>
</a>
</g>
</g>
<!-- Node508&#45;&gt;Node509 -->
<g id="edge1" class="edge"><title>Node508&#45;&gt;Node509</title>
<path fill="none" stroke="midnightblue" d="M128.417,-64.5C136.912,-64.5 145.554,-64.5 153.928,-64.5"/>
<polygon fill="midnightblue" stroke="midnightblue" points="128.157,-61.0001 118.157,-64.5 128.157,-68.0001 128.157,-61.0001"/>
</g>
<!-- Node512 -->
<g id="node5" class="node"><title>Node512</title>
<g id="a_node5"><a xlink:href="../../df/da2/namespacemom__ice__shelf.html#a3b0e0cc9f36c5197236cc05867b780df" target="_top" xlink:title="mom_ice_shelf::shelf\l_calc_flux">
<polygon fill="white" stroke="black" points="161,-98.5 161,-128.5 271,-128.5 271,-98.5 161,-98.5"/>
<text text-anchor="start" x="169" y="-116.5" font-family="Helvetica,sans-Serif" font-size="10.00">mom_ice_shelf::shelf</text>
<text text-anchor="middle" x="216" y="-105.5" font-family="Helvetica,sans-Serif" font-size="10.00">_calc_flux</text>
</a>
</g>
</g>
<!-- Node508&#45;&gt;Node512 -->
<g id="edge4" class="edge"><title>Node508&#45;&gt;Node512</title>
<path fill="none" stroke="midnightblue" d="M117.758,-82.7591C134.107,-87.9273 151.711,-93.4924 167.388,-98.4484"/>
<polygon fill="midnightblue" stroke="midnightblue" points="118.36,-79.2785 107.77,-79.6014 116.25,-85.953 118.36,-79.2785"/>
</g>
<!-- Node513 -->
<g id="node6" class="node"><title>Node513</title>
<g id="a_node6"><a xlink:href="../../df/da2/namespacemom__ice__shelf.html#ac084bdc5be4e708e3263488e9574a3c9" target="_top" xlink:title="mom_ice_shelf::solo\l_time_step">
<polygon fill="white" stroke="black" points="162.5,-0.5 162.5,-30.5 269.5,-30.5 269.5,-0.5 162.5,-0.5"/>
<text text-anchor="start" x="170.5" y="-18.5" font-family="Helvetica,sans-Serif" font-size="10.00">mom_ice_shelf::solo</text>
<text text-anchor="middle" x="216" y="-7.5" font-family="Helvetica,sans-Serif" font-size="10.00">_time_step</text>
</a>
</g>
</g>
<!-- Node508&#45;&gt;Node513 -->
<g id="edge6" class="edge"><title>Node508&#45;&gt;Node513</title>
<path fill="none" stroke="midnightblue" d="M117.758,-46.2409C134.107,-41.0727 151.711,-35.5076 167.388,-30.5516"/>
<polygon fill="midnightblue" stroke="midnightblue" points="116.25,-43.047 107.77,-49.3986 118.36,-49.7215 116.25,-43.047"/>
</g>
<!-- Node510 -->
<g id="node3" class="node"><title>Node510</title>
<g id="a_node3"><a xlink:href="../../de/dbc/MOM__driver_8F90.html#a08fffeb2d8e8acbf9ed4609be6d258c6" target="_top" xlink:title="mom_main">
<polygon fill="white" stroke="black" points="314,-76 314,-95 379,-95 379,-76 314,-76"/>
<text text-anchor="middle" x="346.5" y="-83" font-family="Helvetica,sans-Serif" font-size="10.00">mom_main</text>
</a>
</g>
</g>
<!-- Node509&#45;&gt;Node510 -->
<g id="edge2" class="edge"><title>Node509&#45;&gt;Node510</title>
<path fill="none" stroke="midnightblue" d="M288.31,-76.1538C297.195,-77.6057 305.897,-79.0278 313.726,-80.3073"/>
<polygon fill="midnightblue" stroke="midnightblue" points="288.673,-72.6667 278.239,-74.508 287.544,-79.5751 288.673,-72.6667"/>
</g>
<!-- Node511 -->
<g id="node4" class="node"><title>Node511</title>
<g id="a_node4"><a xlink:href="../../d5/d6d/ice__shelf__driver_8F90.html#aec5bef92f0dad343f545cd8d62e378d8" target="_top" xlink:title="shelf_main">
<polygon fill="white" stroke="black" points="314.5,-33 314.5,-52 378.5,-52 378.5,-33 314.5,-33"/>
<text text-anchor="middle" x="346.5" y="-40" font-family="Helvetica,sans-Serif" font-size="10.00">shelf_main</text>
</a>
</g>
</g>
<!-- Node509&#45;&gt;Node511 -->
<g id="edge3" class="edge"><title>Node509&#45;&gt;Node511</title>
<path fill="none" stroke="midnightblue" d="M288.229,-52.3052C297.399,-50.7352 306.377,-49.1981 314.404,-47.8238"/>
<polygon fill="midnightblue" stroke="midnightblue" points="287.505,-48.8781 278.239,-54.0155 288.687,-55.7777 287.505,-48.8781"/>
</g>
<!-- Node512&#45;&gt;Node510 -->
<g id="edge5" class="edge"><title>Node512&#45;&gt;Node510</title>
<path fill="none" stroke="midnightblue" d="M281.08,-99.537C292.453,-97.0588 303.833,-94.5791 313.795,-92.4084"/>
<polygon fill="midnightblue" stroke="midnightblue" points="280.149,-96.1578 271.123,-101.707 281.639,-102.997 280.149,-96.1578"/>
</g>
<!-- Node513&#45;&gt;Node511 -->
<g id="edge7" class="edge"><title>Node513&#45;&gt;Node511</title>
<path fill="none" stroke="midnightblue" d="M279.735,-28.6817C291.822,-31.2214 303.981,-33.7762 314.499,-35.9861"/>
<polygon fill="midnightblue" stroke="midnightblue" points="280.143,-25.191 269.637,-26.5598 278.703,-32.0414 280.143,-25.191"/>
</g>
</g>
</svg>
