<?xml version="1.0" encoding="UTF-8" standalone="no"?>
<!DOCTYPE svg PUBLIC "-//W3C//DTD SVG 1.1//EN"
 "http://www.w3.org/Graphics/SVG/1.1/DTD/svg11.dtd">
<!-- Generated by graphviz version 2.38.0 (20140413.2041)
 -->
<!-- Title: mom_ice_shelf::shelf_advance_front Pages: 1 -->
<svg width="502pt" height="88pt"
 viewBox="0.00 0.00 502.00 88.00" xmlns="http://www.w3.org/2000/svg" xmlns:xlink="http://www.w3.org/1999/xlink">
<g id="graph0" class="graph" transform="scale(1 1) rotate(0) translate(4 84)">
<title>mom_ice_shelf::shelf_advance_front</title>
<polygon fill="white" stroke="none" points="-4,4 -4,-84 498,-84 498,4 -4,4"/>
<!-- Node411 -->
<g id="node1" class="node"><title>Node411</title>
<polygon fill="#bfbfbf" stroke="black" points="0,-24.5 0,-54.5 110,-54.5 110,-24.5 0,-24.5"/>
<text text-anchor="start" x="8" y="-42.5" font-family="Helvetica,sans-Serif" font-size="10.00">mom_ice_shelf::shelf</text>
<text text-anchor="middle" x="55" y="-31.5" font-family="Helvetica,sans-Serif" font-size="10.00">_advance_front</text>
</g>
<!-- Node412 -->
<g id="node2" class="node"><title>Node412</title>
<g id="a_node2"><a xlink:href="../../df/da2/namespacemom__ice__shelf.html#a6a07543d5e828b759f18def33ca4feda" target="_top" xlink:title="mom_ice_shelf::ice\l_shelf_advect">
<polygon fill="white" stroke="black" points="146,-24.5 146,-54.5 247,-54.5 247,-24.5 146,-24.5"/>
<text text-anchor="start" x="154" y="-42.5" font-family="Helvetica,sans-Serif" font-size="10.00">mom_ice_shelf::ice</text>
<text text-anchor="middle" x="196.5" y="-31.5" font-family="Helvetica,sans-Serif" font-size="10.00">_shelf_advect</text>
</a>
</g>
</g>
<!-- Node411&#45;&gt;Node412 -->
<g id="edge1" class="edge"><title>Node411&#45;&gt;Node412</title>
<path fill="none" stroke="midnightblue" d="M120.535,-39.5C128.968,-39.5 137.502,-39.5 145.642,-39.5"/>
<polygon fill="midnightblue" stroke="midnightblue" points="120.334,-36.0001 110.334,-39.5 120.334,-43.0001 120.334,-36.0001"/>
</g>
<!-- Node413 -->
<g id="node3" class="node"><title>Node413</title>
<g id="a_node3"><a xlink:href="../../df/da2/namespacemom__ice__shelf.html#a3b0e0cc9f36c5197236cc05867b780df" target="_top" xlink:title="mom_ice_shelf::shelf\l_calc_flux">
<polygon fill="white" stroke="black" points="283,-49.5 283,-79.5 393,-79.5 393,-49.5 283,-49.5"/>
<text text-anchor="start" x="291" y="-67.5" font-family="Helvetica,sans-Serif" font-size="10.00">mom_ice_shelf::shelf</text>
<text text-anchor="middle" x="338" y="-56.5" font-family="Helvetica,sans-Serif" font-size="10.00">_calc_flux</text>
</a>
</g>
</g>
<!-- Node412&#45;&gt;Node413 -->
<g id="edge2" class="edge"><title>Node412&#45;&gt;Node413</title>
<path fill="none" stroke="midnightblue" d="M257.016,-50.1659C265.593,-51.7031 274.382,-53.2781 282.847,-54.7952"/>
<polygon fill="midnightblue" stroke="midnightblue" points="257.536,-46.7034 247.075,-48.3845 256.301,-53.5937 257.536,-46.7034"/>
</g>
<!-- Node415 -->
<g id="node5" class="node"><title>Node415</title>
<g id="a_node5"><a xlink:href="../../df/da2/namespacemom__ice__shelf.html#ac084bdc5be4e708e3263488e9574a3c9" target="_top" xlink:title="mom_ice_shelf::solo\l_time_step">
<polygon fill="white" stroke="black" points="284.5,-0.5 284.5,-30.5 391.5,-30.5 391.5,-0.5 284.5,-0.5"/>
<text text-anchor="start" x="292.5" y="-18.5" font-family="Helvetica,sans-Serif" font-size="10.00">mom_ice_shelf::solo</text>
<text text-anchor="middle" x="338" y="-7.5" font-family="Helvetica,sans-Serif" font-size="10.00">_time_step</text>
</a>
</g>
</g>
<!-- Node412&#45;&gt;Node415 -->
<g id="edge4" class="edge"><title>Node412&#45;&gt;Node415</title>
<path fill="none" stroke="midnightblue" d="M257.133,-29.2406C266.157,-27.688 275.412,-26.0957 284.277,-24.5707"/>
<polygon fill="midnightblue" stroke="midnightblue" points="256.337,-25.826 247.075,-30.9709 257.524,-32.7246 256.337,-25.826"/>
</g>
<!-- Node414 -->
<g id="node4" class="node"><title>Node414</title>
<g id="a_node4"><a xlink:href="../../de/dbc/MOM__driver_8F90.html#a08fffeb2d8e8acbf9ed4609be6d258c6" target="_top" xlink:title="mom_main">
<polygon fill="white" stroke="black" points="429,-55 429,-74 494,-74 494,-55 429,-55"/>
<text text-anchor="middle" x="461.5" y="-62" font-family="Helvetica,sans-Serif" font-size="10.00">mom_main</text>
</a>
</g>
</g>
<!-- Node413&#45;&gt;Node414 -->
<g id="edge3" class="edge"><title>Node413&#45;&gt;Node414</title>
<path fill="none" stroke="midnightblue" d="M403.627,-64.5C412.374,-64.5 421.013,-64.5 428.815,-64.5"/>
<polygon fill="midnightblue" stroke="midnightblue" points="403.353,-61.0001 393.353,-64.5 403.353,-68.0001 403.353,-61.0001"/>
</g>
<!-- Node416 -->
<g id="node6" class="node"><title>Node416</title>
<g id="a_node6"><a xlink:href="../../d5/d6d/ice__shelf__driver_8F90.html#aec5bef92f0dad343f545cd8d62e378d8" target="_top" xlink:title="shelf_main">
<polygon fill="white" stroke="black" points="429.5,-6 429.5,-25 493.5,-25 493.5,-6 429.5,-6"/>
<text text-anchor="middle" x="461.5" y="-13" font-family="Helvetica,sans-Serif" font-size="10.00">shelf_main</text>
</a>
</g>
</g>
<!-- Node415&#45;&gt;Node416 -->
<g id="edge5" class="edge"><title>Node415&#45;&gt;Node416</title>
<path fill="none" stroke="midnightblue" d="M401.867,-15.5C411.358,-15.5 420.781,-15.5 429.206,-15.5"/>
<polygon fill="midnightblue" stroke="midnightblue" points="401.585,-12.0001 391.585,-15.5 401.585,-19.0001 401.585,-12.0001"/>
</g>
</g>
</svg>
