<?xml version="1.0" encoding="UTF-8" standalone="no"?>
<!DOCTYPE svg PUBLIC "-//W3C//DTD SVG 1.1//EN"
 "http://www.w3.org/Graphics/SVG/1.1/DTD/svg11.dtd">
<!-- Generated by graphviz version 2.38.0 (20140413.2041)
 -->
<!-- Title: mom_ice_shelf::apply_boundary_values_triangle Pages: 1 -->
<svg width="675pt" height="186pt"
 viewBox="0.00 0.00 675.00 186.00" xmlns="http://www.w3.org/2000/svg" xmlns:xlink="http://www.w3.org/1999/xlink">
<g id="graph0" class="graph" transform="scale(1 1) rotate(0) translate(4 182)">
<title>mom_ice_shelf::apply_boundary_values_triangle</title>
<polygon fill="white" stroke="none" points="-4,4 -4,-182 671,-182 671,4 -4,4"/>
<!-- Node18 -->
<g id="node1" class="node"><title>Node18</title>
<polygon fill="#bfbfbf" stroke="black" points="0,-73.5 0,-103.5 132,-103.5 132,-73.5 0,-73.5"/>
<text text-anchor="start" x="8" y="-91.5" font-family="Helvetica,sans-Serif" font-size="10.00">mom_ice_shelf::apply</text>
<text text-anchor="middle" x="66" y="-80.5" font-family="Helvetica,sans-Serif" font-size="10.00">_boundary_values_triangle</text>
</g>
<!-- Node19 -->
<g id="node2" class="node"><title>Node19</title>
<g id="a_node2"><a xlink:href="../../df/da2/namespacemom__ice__shelf.html#a95d21b019a635ad3a8ef060d765362e1" target="_top" xlink:title="mom_ice_shelf::ice\l_shelf_solve_inner">
<polygon fill="white" stroke="black" points="168,-95.5 168,-125.5 269,-125.5 269,-95.5 168,-95.5"/>
<text text-anchor="start" x="176" y="-113.5" font-family="Helvetica,sans-Serif" font-size="10.00">mom_ice_shelf::ice</text>
<text text-anchor="middle" x="218.5" y="-102.5" font-family="Helvetica,sans-Serif" font-size="10.00">_shelf_solve_inner</text>
</a>
</g>
</g>
<!-- Node18&#45;&gt;Node19 -->
<g id="edge1" class="edge"><title>Node18&#45;&gt;Node19</title>
<path fill="none" stroke="midnightblue" d="M142.245,-99.4993C150.88,-100.761 159.514,-102.024 167.694,-103.219"/>
<polygon fill="midnightblue" stroke="midnightblue" points="142.537,-96.0049 132.136,-98.0216 141.525,-102.931 142.537,-96.0049"/>
</g>
<!-- Node20 -->
<g id="node3" class="node"><title>Node20</title>
<g id="a_node3"><a xlink:href="../../df/da2/namespacemom__ice__shelf.html#a5d64b696412c0bfd8ded2e2eacaa917c" target="_top" xlink:title="mom_ice_shelf::ice\l_shelf_solve_outer">
<polygon fill="white" stroke="black" points="305,-73.5 305,-103.5 406,-103.5 406,-73.5 305,-73.5"/>
<text text-anchor="start" x="313" y="-91.5" font-family="Helvetica,sans-Serif" font-size="10.00">mom_ice_shelf::ice</text>
<text text-anchor="middle" x="355.5" y="-80.5" font-family="Helvetica,sans-Serif" font-size="10.00">_shelf_solve_outer</text>
</a>
</g>
</g>
<!-- Node18&#45;&gt;Node20 -->
<g id="edge11" class="edge"><title>Node18&#45;&gt;Node20</title>
<path fill="none" stroke="midnightblue" d="M142.313,-86.0169C150.974,-85.8043 159.679,-85.6235 168,-85.5 212.884,-84.8336 224.118,-84.7128 269,-85.5 280.583,-85.7032 293.046,-86.061 304.776,-86.4605"/>
<polygon fill="midnightblue" stroke="midnightblue" points="142.097,-82.5212 132.191,-86.2794 142.278,-89.5188 142.097,-82.5212"/>
</g>
<!-- Node19&#45;&gt;Node20 -->
<g id="edge2" class="edge"><title>Node19&#45;&gt;Node20</title>
<path fill="none" stroke="midnightblue" d="M278.928,-100.815C287.481,-99.4217 296.208,-97.9994 304.552,-96.6397"/>
<polygon fill="midnightblue" stroke="midnightblue" points="278.309,-97.37 269.002,-102.433 279.435,-104.279 278.309,-97.37"/>
</g>
<!-- Node21 -->
<g id="node4" class="node"><title>Node21</title>
<g id="a_node4"><a xlink:href="../../df/da2/namespacemom__ice__shelf.html#a3b0e0cc9f36c5197236cc05867b780df" target="_top" xlink:title="mom_ice_shelf::shelf\l_calc_flux">
<polygon fill="white" stroke="black" points="449,-147.5 449,-177.5 559,-177.5 559,-147.5 449,-147.5"/>
<text text-anchor="start" x="457" y="-165.5" font-family="Helvetica,sans-Serif" font-size="10.00">mom_ice_shelf::shelf</text>
<text text-anchor="middle" x="504" y="-154.5" font-family="Helvetica,sans-Serif" font-size="10.00">_calc_flux</text>
</a>
</g>
</g>
<!-- Node20&#45;&gt;Node21 -->
<g id="edge3" class="edge"><title>Node20&#45;&gt;Node21</title>
<path fill="none" stroke="midnightblue" d="M388.728,-108.935C404.477,-118.508 423.897,-129.71 442,-138.5 448.45,-141.631 455.419,-144.675 462.262,-147.485"/>
<polygon fill="midnightblue" stroke="midnightblue" points="390.268,-105.774 379.916,-103.518 386.602,-111.737 390.268,-105.774"/>
</g>
<!-- Node23 -->
<g id="node6" class="node"><title>Node23</title>
<g id="a_node6"><a xlink:href="../../df/da2/namespacemom__ice__shelf.html#ae315e8464ef8a20062e3bccb61886755" target="_top" xlink:title="mom_ice_shelf::initialize\l_ice_shelf">
<polygon fill="white" stroke="black" points="442,-98.5 442,-128.5 566,-128.5 566,-98.5 442,-98.5"/>
<text text-anchor="start" x="450" y="-116.5" font-family="Helvetica,sans-Serif" font-size="10.00">mom_ice_shelf::initialize</text>
<text text-anchor="middle" x="504" y="-105.5" font-family="Helvetica,sans-Serif" font-size="10.00">_ice_shelf</text>
</a>
</g>
</g>
<!-- Node20&#45;&gt;Node23 -->
<g id="edge5" class="edge"><title>Node20&#45;&gt;Node23</title>
<path fill="none" stroke="midnightblue" d="M416.217,-98.6907C424.64,-100.128 433.309,-101.607 441.759,-103.049"/>
<polygon fill="midnightblue" stroke="midnightblue" points="416.545,-95.196 406.098,-96.9639 415.367,-102.096 416.545,-95.196"/>
</g>
<!-- Node25 -->
<g id="node8" class="node"><title>Node25</title>
<g id="a_node8"><a xlink:href="../../df/da2/namespacemom__ice__shelf.html#ae7611e3515ecf0eae0c5d6d17330fd6f" target="_top" xlink:title="mom_ice_shelf::initialize\l_diagnostic_fields">
<polygon fill="white" stroke="black" points="442,-49.5 442,-79.5 566,-79.5 566,-49.5 442,-49.5"/>
<text text-anchor="start" x="450" y="-67.5" font-family="Helvetica,sans-Serif" font-size="10.00">mom_ice_shelf::initialize</text>
<text text-anchor="middle" x="504" y="-56.5" font-family="Helvetica,sans-Serif" font-size="10.00">_diagnostic_fields</text>
</a>
</g>
</g>
<!-- Node20&#45;&gt;Node25 -->
<g id="edge8" class="edge"><title>Node20&#45;&gt;Node25</title>
<path fill="none" stroke="midnightblue" d="M416.217,-78.7169C424.64,-77.3372 433.309,-75.9169 441.759,-74.5326"/>
<polygon fill="midnightblue" stroke="midnightblue" points="415.401,-75.304 406.098,-80.3747 416.533,-82.2119 415.401,-75.304"/>
</g>
<!-- Node26 -->
<g id="node9" class="node"><title>Node26</title>
<g id="a_node9"><a xlink:href="../../df/da2/namespacemom__ice__shelf.html#ac084bdc5be4e708e3263488e9574a3c9" target="_top" xlink:title="mom_ice_shelf::solo\l_time_step">
<polygon fill="white" stroke="black" points="450.5,-0.5 450.5,-30.5 557.5,-30.5 557.5,-0.5 450.5,-0.5"/>
<text text-anchor="start" x="458.5" y="-18.5" font-family="Helvetica,sans-Serif" font-size="10.00">mom_ice_shelf::solo</text>
<text text-anchor="middle" x="504" y="-7.5" font-family="Helvetica,sans-Serif" font-size="10.00">_time_step</text>
</a>
</g>
</g>
<!-- Node20&#45;&gt;Node26 -->
<g id="edge9" class="edge"><title>Node20&#45;&gt;Node26</title>
<path fill="none" stroke="midnightblue" d="M389.452,-68.1172C405.089,-58.836 424.208,-48.0424 442,-39.5 448.463,-36.3968 455.44,-33.3674 462.285,-30.5636"/>
<polygon fill="midnightblue" stroke="midnightblue" points="387.458,-65.2321 380.684,-73.3787 391.06,-71.2344 387.458,-65.2321"/>
</g>
<!-- Node22 -->
<g id="node5" class="node"><title>Node22</title>
<g id="a_node5"><a xlink:href="../../de/dbc/MOM__driver_8F90.html#a08fffeb2d8e8acbf9ed4609be6d258c6" target="_top" xlink:title="mom_main">
<polygon fill="white" stroke="black" points="602,-128 602,-147 667,-147 667,-128 602,-128"/>
<text text-anchor="middle" x="634.5" y="-135" font-family="Helvetica,sans-Serif" font-size="10.00">mom_main</text>
</a>
</g>
</g>
<!-- Node21&#45;&gt;Node22 -->
<g id="edge4" class="edge"><title>Node21&#45;&gt;Node22</title>
<path fill="none" stroke="midnightblue" d="M569.08,-150.033C580.453,-147.82 591.833,-145.606 601.795,-143.668"/>
<polygon fill="midnightblue" stroke="midnightblue" points="568.271,-146.625 559.123,-151.97 569.608,-153.496 568.271,-146.625"/>
</g>
<!-- Node23&#45;&gt;Node22 -->
<g id="edge7" class="edge"><title>Node23&#45;&gt;Node22</title>
<path fill="none" stroke="midnightblue" d="M576.31,-126.819C585.195,-128.478 593.897,-130.103 601.726,-131.565"/>
<polygon fill="midnightblue" stroke="midnightblue" points="576.712,-123.333 566.239,-124.938 575.427,-130.214 576.712,-123.333"/>
</g>
<!-- Node24 -->
<g id="node7" class="node"><title>Node24</title>
<g id="a_node7"><a xlink:href="../../d5/d6d/ice__shelf__driver_8F90.html#aec5bef92f0dad343f545cd8d62e378d8" target="_top" xlink:title="shelf_main">
<polygon fill="white" stroke="black" points="602.5,-60 602.5,-79 666.5,-79 666.5,-60 602.5,-60"/>
<text text-anchor="middle" x="634.5" y="-67" font-family="Helvetica,sans-Serif" font-size="10.00">shelf_main</text>
</a>
</g>
</g>
<!-- Node23&#45;&gt;Node24 -->
<g id="edge6" class="edge"><title>Node23&#45;&gt;Node24</title>
<path fill="none" stroke="midnightblue" d="M558.727,-95.1032C574.817,-89.5938 591.812,-83.7744 605.527,-79.0783"/>
<polygon fill="midnightblue" stroke="midnightblue" points="557.19,-91.93 548.863,-98.4808 559.458,-98.5525 557.19,-91.93"/>
</g>
<!-- Node26&#45;&gt;Node24 -->
<g id="edge10" class="edge"><title>Node26&#45;&gt;Node24</title>
<path fill="none" stroke="midnightblue" d="M553.447,-34.339C557.702,-36.0607 561.934,-37.7975 566,-39.5 581.733,-46.0874 599.337,-53.9275 612.622,-59.9406"/>
<polygon fill="midnightblue" stroke="midnightblue" points="554.736,-31.0851 544.152,-30.6133 552.131,-37.5826 554.736,-31.0851"/>
</g>
</g>
</svg>
