<?xml version="1.0" encoding="UTF-8" standalone="no"?>
<!DOCTYPE svg PUBLIC "-//W3C//DTD SVG 1.1//EN"
 "http://www.w3.org/Graphics/SVG/1.1/DTD/svg11.dtd">
<!-- Generated by graphviz version 2.38.0 (20140413.2041)
 -->
<!-- Title: mom_ice_shelf::ice_shelf_advect_thickness_y Pages: 1 -->
<svg width="527pt" height="88pt"
 viewBox="0.00 0.00 527.00 88.00" xmlns="http://www.w3.org/2000/svg" xmlns:xlink="http://www.w3.org/1999/xlink">
<g id="graph0" class="graph" transform="scale(1 1) rotate(0) translate(4 84)">
<title>mom_ice_shelf::ice_shelf_advect_thickness_y</title>
<polygon fill="white" stroke="none" points="-4,4 -4,-84 523,-84 523,4 -4,4"/>
<!-- Node164 -->
<g id="node1" class="node"><title>Node164</title>
<polygon fill="#bfbfbf" stroke="black" points="0,-24.5 0,-54.5 135,-54.5 135,-24.5 0,-24.5"/>
<text text-anchor="start" x="8" y="-42.5" font-family="Helvetica,sans-Serif" font-size="10.00">mom_ice_shelf::ice</text>
<text text-anchor="middle" x="67.5" y="-31.5" font-family="Helvetica,sans-Serif" font-size="10.00">_shelf_advect_thickness_y</text>
</g>
<!-- Node165 -->
<g id="node2" class="node"><title>Node165</title>
<g id="a_node2"><a xlink:href="../../df/da2/namespacemom__ice__shelf.html#a6a07543d5e828b759f18def33ca4feda" target="_top" xlink:title="mom_ice_shelf::ice\l_shelf_advect">
<polygon fill="white" stroke="black" points="171,-24.5 171,-54.5 272,-54.5 272,-24.5 171,-24.5"/>
<text text-anchor="start" x="179" y="-42.5" font-family="Helvetica,sans-Serif" font-size="10.00">mom_ice_shelf::ice</text>
<text text-anchor="middle" x="221.5" y="-31.5" font-family="Helvetica,sans-Serif" font-size="10.00">_shelf_advect</text>
</a>
</g>
</g>
<!-- Node164&#45;&gt;Node165 -->
<g id="edge1" class="edge"><title>Node164&#45;&gt;Node165</title>
<path fill="none" stroke="midnightblue" d="M145.312,-39.5C153.97,-39.5 162.614,-39.5 170.794,-39.5"/>
<polygon fill="midnightblue" stroke="midnightblue" points="145.169,-36.0001 135.169,-39.5 145.169,-43.0001 145.169,-36.0001"/>
</g>
<!-- Node166 -->
<g id="node3" class="node"><title>Node166</title>
<g id="a_node3"><a xlink:href="../../df/da2/namespacemom__ice__shelf.html#a3b0e0cc9f36c5197236cc05867b780df" target="_top" xlink:title="mom_ice_shelf::shelf\l_calc_flux">
<polygon fill="white" stroke="black" points="308,-49.5 308,-79.5 418,-79.5 418,-49.5 308,-49.5"/>
<text text-anchor="start" x="316" y="-67.5" font-family="Helvetica,sans-Serif" font-size="10.00">mom_ice_shelf::shelf</text>
<text text-anchor="middle" x="363" y="-56.5" font-family="Helvetica,sans-Serif" font-size="10.00">_calc_flux</text>
</a>
</g>
</g>
<!-- Node165&#45;&gt;Node166 -->
<g id="edge2" class="edge"><title>Node165&#45;&gt;Node166</title>
<path fill="none" stroke="midnightblue" d="M282.016,-50.1659C290.593,-51.7031 299.382,-53.2781 307.847,-54.7952"/>
<polygon fill="midnightblue" stroke="midnightblue" points="282.536,-46.7034 272.075,-48.3845 281.301,-53.5937 282.536,-46.7034"/>
</g>
<!-- Node168 -->
<g id="node5" class="node"><title>Node168</title>
<g id="a_node5"><a xlink:href="../../df/da2/namespacemom__ice__shelf.html#ac084bdc5be4e708e3263488e9574a3c9" target="_top" xlink:title="mom_ice_shelf::solo\l_time_step">
<polygon fill="white" stroke="black" points="309.5,-0.5 309.5,-30.5 416.5,-30.5 416.5,-0.5 309.5,-0.5"/>
<text text-anchor="start" x="317.5" y="-18.5" font-family="Helvetica,sans-Serif" font-size="10.00">mom_ice_shelf::solo</text>
<text text-anchor="middle" x="363" y="-7.5" font-family="Helvetica,sans-Serif" font-size="10.00">_time_step</text>
</a>
</g>
</g>
<!-- Node165&#45;&gt;Node168 -->
<g id="edge4" class="edge"><title>Node165&#45;&gt;Node168</title>
<path fill="none" stroke="midnightblue" d="M282.133,-29.2406C291.157,-27.688 300.412,-26.0957 309.277,-24.5707"/>
<polygon fill="midnightblue" stroke="midnightblue" points="281.337,-25.826 272.075,-30.9709 282.524,-32.7246 281.337,-25.826"/>
</g>
<!-- Node167 -->
<g id="node4" class="node"><title>Node167</title>
<g id="a_node4"><a xlink:href="../../de/dbc/MOM__driver_8F90.html#a08fffeb2d8e8acbf9ed4609be6d258c6" target="_top" xlink:title="mom_main">
<polygon fill="white" stroke="black" points="454,-55 454,-74 519,-74 519,-55 454,-55"/>
<text text-anchor="middle" x="486.5" y="-62" font-family="Helvetica,sans-Serif" font-size="10.00">mom_main</text>
</a>
</g>
</g>
<!-- Node166&#45;&gt;Node167 -->
<g id="edge3" class="edge"><title>Node166&#45;&gt;Node167</title>
<path fill="none" stroke="midnightblue" d="M428.627,-64.5C437.374,-64.5 446.013,-64.5 453.815,-64.5"/>
<polygon fill="midnightblue" stroke="midnightblue" points="428.353,-61.0001 418.353,-64.5 428.353,-68.0001 428.353,-61.0001"/>
</g>
<!-- Node169 -->
<g id="node6" class="node"><title>Node169</title>
<g id="a_node6"><a xlink:href="../../d5/d6d/ice__shelf__driver_8F90.html#aec5bef92f0dad343f545cd8d62e378d8" target="_top" xlink:title="shelf_main">
<polygon fill="white" stroke="black" points="454.5,-6 454.5,-25 518.5,-25 518.5,-6 454.5,-6"/>
<text text-anchor="middle" x="486.5" y="-13" font-family="Helvetica,sans-Serif" font-size="10.00">shelf_main</text>
</a>
</g>
</g>
<!-- Node168&#45;&gt;Node169 -->
<g id="edge5" class="edge"><title>Node168&#45;&gt;Node169</title>
<path fill="none" stroke="midnightblue" d="M426.867,-15.5C436.358,-15.5 445.781,-15.5 454.206,-15.5"/>
<polygon fill="midnightblue" stroke="midnightblue" points="426.585,-12.0001 416.585,-15.5 426.585,-19.0001 426.585,-12.0001"/>
</g>
</g>
</svg>
