<?xml version="1.0" encoding="UTF-8" standalone="no"?>
<!DOCTYPE svg PUBLIC "-//W3C//DTD SVG 1.1//EN"
 "http://www.w3.org/Graphics/SVG/1.1/DTD/svg11.dtd">
<!-- Generated by graphviz version 2.38.0 (20140413.2041)
 -->
<!-- Title: mom_ice_shelf::ice_shelf_end Pages: 1 -->
<svg width="276pt" height="116pt"
 viewBox="0.00 0.00 276.00 116.00" xmlns="http://www.w3.org/2000/svg" xmlns:xlink="http://www.w3.org/1999/xlink">
<g id="graph0" class="graph" transform="scale(1 1) rotate(0) translate(4 112)">
<title>mom_ice_shelf::ice_shelf_end</title>
<polygon fill="white" stroke="none" points="-4,4 -4,-112 272,-112 272,4 -4,4"/>
<!-- Node171 -->
<g id="node1" class="node"><title>Node171</title>
<polygon fill="#bfbfbf" stroke="black" points="0,-39 0,-69 101,-69 101,-39 0,-39"/>
<text text-anchor="start" x="8" y="-57" font-family="Helvetica,sans-Serif" font-size="10.00">mom_ice_shelf::ice</text>
<text text-anchor="middle" x="50.5" y="-46" font-family="Helvetica,sans-Serif" font-size="10.00">_shelf_end</text>
</g>
<!-- Node172 -->
<g id="node2" class="node"><title>Node172</title>
<g id="a_node2"><a xlink:href="../../de/dbc/MOM__driver_8F90.html#a08fffeb2d8e8acbf9ed4609be6d258c6" target="_top" xlink:title="mom_main">
<polygon fill="white" stroke="black" points="170,-88.5 170,-107.5 235,-107.5 235,-88.5 170,-88.5"/>
<text text-anchor="middle" x="202.5" y="-95.5" font-family="Helvetica,sans-Serif" font-size="10.00">mom_main</text>
</a>
</g>
</g>
<!-- Node171&#45;&gt;Node172 -->
<g id="edge1" class="edge"><title>Node171&#45;&gt;Node172</title>
<path fill="none" stroke="midnightblue" d="M110.79,-71.3917C130.984,-77.3153 152.769,-83.7057 169.928,-88.7389"/>
<polygon fill="midnightblue" stroke="midnightblue" points="111.612,-67.9855 101.031,-68.5292 109.642,-74.7025 111.612,-67.9855"/>
</g>
<!-- Node173 -->
<g id="node3" class="node"><title>Node173</title>
<g id="a_node3"><a xlink:href="../../d5/dd4/namespaceocean__model__mod.html#a276959acb69502491d4b3a5a83e596b8" target="_top" xlink:title="ocean_model_mod::ocean\l_model_end">
<polygon fill="white" stroke="black" points="137,-39 137,-69 268,-69 268,-39 137,-39"/>
<text text-anchor="start" x="145" y="-57" font-family="Helvetica,sans-Serif" font-size="10.00">ocean_model_mod::ocean</text>
<text text-anchor="middle" x="202.5" y="-46" font-family="Helvetica,sans-Serif" font-size="10.00">_model_end</text>
</a>
</g>
</g>
<!-- Node171&#45;&gt;Node173 -->
<g id="edge2" class="edge"><title>Node171&#45;&gt;Node173</title>
<path fill="none" stroke="midnightblue" d="M111.142,-54C119.565,-54 128.259,-54 136.773,-54"/>
<polygon fill="midnightblue" stroke="midnightblue" points="111.031,-50.5001 101.031,-54 111.031,-57.5001 111.031,-50.5001"/>
</g>
<!-- Node174 -->
<g id="node4" class="node"><title>Node174</title>
<g id="a_node4"><a xlink:href="../../d5/d6d/ice__shelf__driver_8F90.html#aec5bef92f0dad343f545cd8d62e378d8" target="_top" xlink:title="shelf_main">
<polygon fill="white" stroke="black" points="170.5,-0.5 170.5,-19.5 234.5,-19.5 234.5,-0.5 170.5,-0.5"/>
<text text-anchor="middle" x="202.5" y="-7.5" font-family="Helvetica,sans-Serif" font-size="10.00">shelf_main</text>
</a>
</g>
</g>
<!-- Node171&#45;&gt;Node174 -->
<g id="edge3" class="edge"><title>Node171&#45;&gt;Node174</title>
<path fill="none" stroke="midnightblue" d="M110.864,-36.5864C131.214,-30.6171 153.172,-24.1763 170.377,-19.1293"/>
<polygon fill="midnightblue" stroke="midnightblue" points="109.642,-33.2975 101.031,-39.4708 111.612,-40.0145 109.642,-33.2975"/>
</g>
</g>
</svg>
