<?xml version="1.0" encoding="UTF-8" standalone="no"?>
<!DOCTYPE svg PUBLIC "-//W3C//DTD SVG 1.1//EN"
 "http://www.w3.org/Graphics/SVG/1.1/DTD/svg11.dtd">
<!-- Generated by graphviz version 2.38.0 (20140413.2041)
 -->
<!-- Title: mom_ice_shelf::update_velocity_masks Pages: 1 -->
<!--zoomable 137 -->
<svg id="main" version="1.1" xmlns="http://www.w3.org/2000/svg" xmlns:xlink="http://www.w3.org/1999/xlink" xml:space="preserve" onload="init(evt)">
<style type="text/css"><![CDATA[
.edge:hover path { stroke: red; }
.edge:hover polygon { stroke: red; fill: red; }
]]></style>
<script type="text/javascript"><![CDATA[
var edges = document.getElementsByTagName('g');
if (edges && edges.length) {
  for (var i=0;i<edges.length;i++) {
    if (edges[i].id.substr(0,4)=='edge') {
      edges[i].setAttribute('class','edge');
    }
  }
}
]]></script>
        <defs>
                <circle id="rim" cx="0" cy="0" r="7"/>
                <circle id="rim2" cx="0" cy="0" r="3.5"/>
                <g id="zoomPlus">
                        <use xlink:href="#rim" fill="#404040">
                                <set attributeName="fill" to="#808080" begin="zoomplus.mouseover" end="zoomplus.mouseout"/>
                        </use>
                        <path d="M-4,0h8M0,-4v8" fill="none" stroke="white" stroke-width="1.5" pointer-events="none"/>
                </g>
                <g id="zoomMin">
                        <use xlink:href="#rim" fill="#404040">
                                <set attributeName="fill" to="#808080" begin="zoomminus.mouseover" end="zoomminus.mouseout"/>
                        </use>
                        <path d="M-4,0h8" fill="none" stroke="white" stroke-width="1.5" pointer-events="none"/>
                </g>
                <g id="dirArrow">
                        <path fill="none" stroke="white" stroke-width="1.5" d="M0,-3.0v7 M-2.5,-0.5L0,-3.0L2.5,-0.5"/>
                </g>
               <g id="resetDef">
                       <use xlink:href="#rim2" fill="#404040">
                               <set attributeName="fill" to="#808080" begin="reset.mouseover" end="reset.mouseout"/>
                       </use>
               </g>
        </defs>

<script type="text/javascript">
var viewWidth = 524;
var viewHeight = 137;
var sectionId = 'dynsection-57';
</script>
<script xlink:href="../../svgpan.js"/>
<svg id="graph" class="graph">
<g id="viewport">
<title>mom_ice_shelf::update_velocity_masks</title>
<polygon fill="white" stroke="none" points="-4,4 -4,-133 520,-133 520,4 -4,4"/>
<!-- Node519 -->
<g id="node1" class="node"><title>Node519</title>
<polygon fill="#bfbfbf" stroke="black" points="0,-46.5 0,-76.5 118,-76.5 118,-46.5 0,-46.5"/>
<text text-anchor="start" x="8" y="-64.5" font-family="Helvetica,sans-Serif" font-size="10.00">mom_ice_shelf::update</text>
<text text-anchor="middle" x="59" y="-53.5" font-family="Helvetica,sans-Serif" font-size="10.00">_velocity_masks</text>
</g>
<!-- Node520 -->
<g id="node2" class="node"><title>Node520</title>
<g id="a_node2"><a xlink:href="../../df/da2/namespacemom__ice__shelf.html#a6a07543d5e828b759f18def33ca4feda" target="_top" xlink:title="mom_ice_shelf::ice\l_shelf_advect">
<polygon fill="white" stroke="black" points="154,-90.5 154,-120.5 255,-120.5 255,-90.5 154,-90.5"/>
<text text-anchor="start" x="162" y="-108.5" font-family="Helvetica,sans-Serif" font-size="10.00">mom_ice_shelf::ice</text>
<text text-anchor="middle" x="204.5" y="-97.5" font-family="Helvetica,sans-Serif" font-size="10.00">_shelf_advect</text>
</a>
</g>
</g>
<!-- Node519&#45;&gt;Node520 -->
<g id="edge1" class="edge"><title>Node519&#45;&gt;Node520</title>
<path fill="none" stroke="midnightblue" d="M118.747,-79.5129C130.541,-83.1292 142.819,-86.8941 154.25,-90.3991"/>
<polygon fill="midnightblue" stroke="midnightblue" points="119.57,-76.1046 108.983,-76.5192 117.518,-82.797 119.57,-76.1046"/>
</g>
<!-- Node523 -->
<g id="node5" class="node"><title>Node523</title>
<g id="a_node5"><a xlink:href="../../df/da2/namespacemom__ice__shelf.html#ac084bdc5be4e708e3263488e9574a3c9" target="_top" xlink:title="mom_ice_shelf::solo\l_time_step">
<polygon fill="white" stroke="black" points="299.5,-0.5 299.5,-30.5 406.5,-30.5 406.5,-0.5 299.5,-0.5"/>
<text text-anchor="start" x="307.5" y="-18.5" font-family="Helvetica,sans-Serif" font-size="10.00">mom_ice_shelf::solo</text>
<text text-anchor="middle" x="353" y="-7.5" font-family="Helvetica,sans-Serif" font-size="10.00">_time_step</text>
</a>
</g>
</g>
<!-- Node519&#45;&gt;Node523 -->
<g id="edge9" class="edge"><title>Node519&#45;&gt;Node523</title>
<path fill="none" stroke="midnightblue" d="M128.231,-50.7513C180.506,-42.5161 251.565,-31.3219 299.466,-23.776"/>
<polygon fill="midnightblue" stroke="midnightblue" points="127.372,-47.3433 118.039,-52.3569 128.462,-54.258 127.372,-47.3433"/>
</g>
<!-- Node525 -->
<g id="node7" class="node"><title>Node525</title>
<g id="a_node7"><a xlink:href="../../df/da2/namespacemom__ice__shelf.html#ae315e8464ef8a20062e3bccb61886755" target="_top" xlink:title="mom_ice_shelf::initialize\l_ice_shelf">
<polygon fill="white" stroke="black" points="291,-49.5 291,-79.5 415,-79.5 415,-49.5 291,-49.5"/>
<text text-anchor="start" x="299" y="-67.5" font-family="Helvetica,sans-Serif" font-size="10.00">mom_ice_shelf::initialize</text>
<text text-anchor="middle" x="353" y="-56.5" font-family="Helvetica,sans-Serif" font-size="10.00">_ice_shelf</text>
</a>
</g>
</g>
<!-- Node519&#45;&gt;Node525 -->
<g id="edge6" class="edge"><title>Node519&#45;&gt;Node525</title>
<path fill="none" stroke="midnightblue" d="M128.273,-62.2014C177.475,-62.7069 243.301,-63.3832 290.799,-63.8712"/>
<polygon fill="midnightblue" stroke="midnightblue" points="128.074,-58.6993 118.039,-62.0963 128.002,-65.6989 128.074,-58.6993"/>
</g>
<!-- Node521 -->
<g id="node3" class="node"><title>Node521</title>
<g id="a_node3"><a xlink:href="../../df/da2/namespacemom__ice__shelf.html#a3b0e0cc9f36c5197236cc05867b780df" target="_top" xlink:title="mom_ice_shelf::shelf\l_calc_flux">
<polygon fill="white" stroke="black" points="298,-98.5 298,-128.5 408,-128.5 408,-98.5 298,-98.5"/>
<text text-anchor="start" x="306" y="-116.5" font-family="Helvetica,sans-Serif" font-size="10.00">mom_ice_shelf::shelf</text>
<text text-anchor="middle" x="353" y="-105.5" font-family="Helvetica,sans-Serif" font-size="10.00">_calc_flux</text>
</a>
</g>
</g>
<!-- Node520&#45;&gt;Node521 -->
<g id="edge2" class="edge"><title>Node520&#45;&gt;Node521</title>
<path fill="none" stroke="midnightblue" d="M265.298,-108.765C276.099,-109.355 287.304,-109.967 297.93,-110.547"/>
<polygon fill="midnightblue" stroke="midnightblue" points="265.274,-105.259 255.098,-108.208 264.892,-112.249 265.274,-105.259"/>
</g>
<!-- Node520&#45;&gt;Node523 -->
<g id="edge4" class="edge"><title>Node520&#45;&gt;Node523</title>
<path fill="none" stroke="midnightblue" d="M230.156,-83.4371C246.561,-69.5453 269.056,-51.9511 291,-39.5 296.741,-36.2425 303.012,-33.2292 309.277,-30.5165"/>
<polygon fill="midnightblue" stroke="midnightblue" points="227.46,-81.1394 222.167,-90.3173 232.028,-86.4435 227.46,-81.1394"/>
</g>
<!-- Node522 -->
<g id="node4" class="node"><title>Node522</title>
<g id="a_node4"><a xlink:href="../../de/dbc/MOM__driver_8F90.html#a08fffeb2d8e8acbf9ed4609be6d258c6" target="_top" xlink:title="mom_main">
<polygon fill="white" stroke="black" points="451,-76 451,-95 516,-95 516,-76 451,-76"/>
<text text-anchor="middle" x="483.5" y="-83" font-family="Helvetica,sans-Serif" font-size="10.00">mom_main</text>
</a>
</g>
</g>
<!-- Node521&#45;&gt;Node522 -->
<g id="edge3" class="edge"><title>Node521&#45;&gt;Node522</title>
<path fill="none" stroke="midnightblue" d="M418.08,-99.537C429.453,-97.0588 440.833,-94.5791 450.795,-92.4084"/>
<polygon fill="midnightblue" stroke="midnightblue" points="417.149,-96.1578 408.123,-101.707 418.639,-102.997 417.149,-96.1578"/>
</g>
<!-- Node524 -->
<g id="node6" class="node"><title>Node524</title>
<g id="a_node6"><a xlink:href="../../d5/d6d/ice__shelf__driver_8F90.html#aec5bef92f0dad343f545cd8d62e378d8" target="_top" xlink:title="shelf_main">
<polygon fill="white" stroke="black" points="451.5,-33 451.5,-52 515.5,-52 515.5,-33 451.5,-33"/>
<text text-anchor="middle" x="483.5" y="-40" font-family="Helvetica,sans-Serif" font-size="10.00">shelf_main</text>
</a>
</g>
</g>
<!-- Node523&#45;&gt;Node524 -->
<g id="edge5" class="edge"><title>Node523&#45;&gt;Node524</title>
<path fill="none" stroke="midnightblue" d="M416.735,-28.6817C428.822,-31.2214 440.981,-33.7762 451.499,-35.9861"/>
<polygon fill="midnightblue" stroke="midnightblue" points="417.143,-25.191 406.637,-26.5598 415.703,-32.0414 417.143,-25.191"/>
</g>
<!-- Node525&#45;&gt;Node522 -->
<g id="edge7" class="edge"><title>Node525&#45;&gt;Node522</title>
<path fill="none" stroke="midnightblue" d="M425.31,-76.1538C434.195,-77.6057 442.897,-79.0278 450.726,-80.3073"/>
<polygon fill="midnightblue" stroke="midnightblue" points="425.673,-72.6667 415.239,-74.508 424.544,-79.5751 425.673,-72.6667"/>
</g>
<!-- Node525&#45;&gt;Node524 -->
<g id="edge8" class="edge"><title>Node525&#45;&gt;Node524</title>
<path fill="none" stroke="midnightblue" d="M425.229,-52.3052C434.399,-50.7352 443.377,-49.1981 451.404,-47.8238"/>
<polygon fill="midnightblue" stroke="midnightblue" points="424.505,-48.8781 415.239,-54.0155 425.687,-55.7777 424.505,-48.8781"/>
</g>
</g>
</svg>
        <g id="navigator" transform="translate(0 0)" fill="#404254">
                <rect fill="#f2f5e9" fill-opacity="0.5" stroke="#606060" stroke-width=".5" x="0" y="0" width="60" height="60"/>
                <use id="zoomplus" xlink:href="#zoomPlus" x="17" y="9" onmousedown="handleZoom(evt,'in')"/>
                <use id="zoomminus" xlink:href="#zoomMin" x="42" y="9" onmousedown="handleZoom(evt,'out')"/>
                <use id="reset" xlink:href="#resetDef" x="30" y="36" onmousedown="handleReset()"/>
                <g id="arrowUp" xlink:href="#dirArrow" transform="translate(30 24)" onmousedown="handlePan(0,-1)">
                  <use xlink:href="#rim" fill="#404040">
                        <set attributeName="fill" to="#808080" begin="arrowUp.mouseover" end="arrowUp.mouseout"/>
                  </use>
                  <path fill="none" stroke="white" stroke-width="1.5" d="M0,-3.0v7 M-2.5,-0.5L0,-3.0L2.5,-0.5"/>
                </g>
                <g id="arrowRight" xlink:href="#dirArrow" transform="rotate(90) translate(36 -43)" onmousedown="handlePan(1,0)">
                  <use xlink:href="#rim" fill="#404040">
                        <set attributeName="fill" to="#808080" begin="arrowRight.mouseover" end="arrowRight.mouseout"/>
                  </use>
                  <path fill="none" stroke="white" stroke-width="1.5" d="M0,-3.0v7 M-2.5,-0.5L0,-3.0L2.5,-0.5"/>
                </g>
                <g id="arrowDown" xlink:href="#dirArrow" transform="rotate(180) translate(-30 -48)" onmousedown="handlePan(0,1)">
                  <use xlink:href="#rim" fill="#404040">
                        <set attributeName="fill" to="#808080" begin="arrowDown.mouseover" end="arrowDown.mouseout"/>
                  </use>
                  <path fill="none" stroke="white" stroke-width="1.5" d="M0,-3.0v7 M-2.5,-0.5L0,-3.0L2.5,-0.5"/>
                </g>
                <g id="arrowLeft" xlink:href="#dirArrow" transform="rotate(270) translate(-36 17)" onmousedown="handlePan(-1,0)">
                  <use xlink:href="#rim" fill="#404040">
                        <set attributeName="fill" to="#808080" begin="arrowLeft.mouseover" end="arrowLeft.mouseout"/>
                  </use>
                  <path fill="none" stroke="white" stroke-width="1.5" d="M0,-3.0v7 M-2.5,-0.5L0,-3.0L2.5,-0.5"/>
                </g>
        </g>
        <svg viewBox="0 0 15 15" width="100%" height="30px" preserveAspectRatio="xMaxYMin meet">
         <g id="arrow_out" transform="scale(0.3 0.3)">
          <a xlink:href="namespacemom__ice__shelf_ae71447bb7b63b4313070abc27e0a7208_icgraph_org.svg" target="_base">
           <rect id="button" ry="5" rx="5" y="6" x="6" height="38" width="38"
                fill="#f2f5e9" fill-opacity="0.5" stroke="#606060" stroke-width="1.0"/>
           <path id="arrow"
             d="M 11.500037,31.436501 C 11.940474,20.09759 22.043105,11.32322 32.158766,21.979434 L 37.068811,17.246167 C 37.068811,17.246167 37.088388,32 37.088388,32 L 22.160133,31.978069 C 22.160133,31.978069 26.997745,27.140456 26.997745,27.140456 C 18.528582,18.264221 13.291696,25.230495 11.500037,31.436501 z"
             style="fill:#404040;"/>
          </a>
         </g>
        </svg>
</svg>
