<?xml version="1.0" encoding="UTF-8" standalone="no"?>
<!DOCTYPE svg PUBLIC "-//W3C//DTD SVG 1.1//EN"
 "http://www.w3.org/Graphics/SVG/1.1/DTD/svg11.dtd">
<!-- Generated by graphviz version 2.38.0 (20140413.2041)
 -->
<!-- Title: mom_ice_shelf::solo_time_step Pages: 1 -->
<svg width="964pt" height="1120pt"
 viewBox="0.00 0.00 964.00 1120.00" xmlns="http://www.w3.org/2000/svg" xmlns:xlink="http://www.w3.org/1999/xlink">
<g id="graph0" class="graph" transform="scale(1 1) rotate(0) translate(4 1116)">
<title>mom_ice_shelf::solo_time_step</title>
<polygon fill="white" stroke="none" points="-4,4 -4,-1116 960,-1116 960,4 -4,4"/>
<!-- Node466 -->
<g id="node1" class="node"><title>Node466</title>
<polygon fill="#bfbfbf" stroke="black" points="0,-724.5 0,-754.5 107,-754.5 107,-724.5 0,-724.5"/>
<text text-anchor="start" x="8" y="-742.5" font-family="Helvetica,sans-Serif" font-size="10.00">mom_ice_shelf::solo</text>
<text text-anchor="middle" x="53.5" y="-731.5" font-family="Helvetica,sans-Serif" font-size="10.00">_time_step</text>
</g>
<!-- Node467 -->
<g id="node2" class="node"><title>Node467</title>
<g id="a_node2"><a xlink:href="../../d9/d06/namespacemom__diag__mediator.html#a1761df399ba39742e34ab989469da0f2" target="_top" xlink:title="mom_diag_mediator::\ldisable_averaging">
<polygon fill="white" stroke="black" points="147,-983.5 147,-1013.5 257,-1013.5 257,-983.5 147,-983.5"/>
<text text-anchor="start" x="155" y="-1001.5" font-family="Helvetica,sans-Serif" font-size="10.00">mom_diag_mediator::</text>
<text text-anchor="middle" x="202" y="-990.5" font-family="Helvetica,sans-Serif" font-size="10.00">disable_averaging</text>
</a>
</g>
</g>
<!-- Node466&#45;&gt;Node467 -->
<g id="edge1" class="edge"><title>Node466&#45;&gt;Node467</title>
<path fill="none" stroke="midnightblue" d="M56.0499,-754.611C61.0126,-795.484 80.0713,-909.514 143,-974.5 144.042,-975.576 145.14,-976.606 146.284,-977.592"/>
<polygon fill="midnightblue" stroke="midnightblue" points="144.259,-980.447 154.414,-983.47 148.361,-974.774 144.259,-980.447"/>
</g>
<!-- Node468 -->
<g id="node3" class="node"><title>Node468</title>
<g id="a_node3"><a xlink:href="../../d9/d06/namespacemom__diag__mediator.html#a91244f765f2964dfb11f8787f65042f1" target="_top" xlink:title="mom_diag_mediator::\lenable_averaging">
<polygon fill="white" stroke="black" points="147,-934.5 147,-964.5 257,-964.5 257,-934.5 147,-934.5"/>
<text text-anchor="start" x="155" y="-952.5" font-family="Helvetica,sans-Serif" font-size="10.00">mom_diag_mediator::</text>
<text text-anchor="middle" x="202" y="-941.5" font-family="Helvetica,sans-Serif" font-size="10.00">enable_averaging</text>
</a>
</g>
</g>
<!-- Node466&#45;&gt;Node468 -->
<g id="edge2" class="edge"><title>Node466&#45;&gt;Node468</title>
<path fill="none" stroke="midnightblue" d="M57.7818,-754.713C66.0452,-789.57 90.8756,-876.006 143,-925.5 144.111,-926.555 145.276,-927.567 146.483,-928.537"/>
<polygon fill="midnightblue" stroke="midnightblue" points="144.761,-931.599 154.994,-934.346 148.708,-925.817 144.761,-931.599"/>
</g>
<!-- Node469 -->
<g id="node4" class="node"><title>Node469</title>
<g id="a_node4"><a xlink:href="../../df/da2/namespacemom__ice__shelf.html#a6a07543d5e828b759f18def33ca4feda" target="_top" xlink:title="mom_ice_shelf::ice\l_shelf_advect">
<polygon fill="white" stroke="black" points="151.5,-885.5 151.5,-915.5 252.5,-915.5 252.5,-885.5 151.5,-885.5"/>
<text text-anchor="start" x="159.5" y="-903.5" font-family="Helvetica,sans-Serif" font-size="10.00">mom_ice_shelf::ice</text>
<text text-anchor="middle" x="202" y="-892.5" font-family="Helvetica,sans-Serif" font-size="10.00">_shelf_advect</text>
</a>
</g>
</g>
<!-- Node466&#45;&gt;Node469 -->
<g id="edge3" class="edge"><title>Node466&#45;&gt;Node469</title>
<path fill="none" stroke="midnightblue" d="M66.6973,-754.673C83.4017,-775.255 114.571,-812.957 143,-843.5 153.991,-855.308 166.726,-867.931 177.458,-878.289"/>
<polygon fill="midnightblue" stroke="midnightblue" points="175.223,-880.995 184.865,-885.387 180.066,-875.941 175.223,-880.995"/>
</g>
<!-- Node476 -->
<g id="node11" class="node"><title>Node476</title>
<g id="a_node11"><a xlink:href="../../d0/de6/namespacemom__error__handler.html#ad5f00a53059c72fe2332d1436c80ca71" target="_top" xlink:title="mom_error_handler::\lis_root_pe">
<polygon fill="white" stroke="black" points="488.5,-675.5 488.5,-705.5 594.5,-705.5 594.5,-675.5 488.5,-675.5"/>
<text text-anchor="start" x="496.5" y="-693.5" font-family="Helvetica,sans-Serif" font-size="10.00">mom_error_handler::</text>
<text text-anchor="middle" x="541.5" y="-682.5" font-family="Helvetica,sans-Serif" font-size="10.00">is_root_pe</text>
</a>
</g>
</g>
<!-- Node466&#45;&gt;Node476 -->
<g id="edge45" class="edge"><title>Node466&#45;&gt;Node476</title>
<path fill="none" stroke="midnightblue" d="M74.6796,-724.406C91.8403,-712.571 117.664,-697.046 143,-690.5 258.262,-660.721 398.679,-671.075 478.012,-680.997"/>
<polygon fill="midnightblue" stroke="midnightblue" points="477.955,-684.518 488.321,-682.327 478.851,-677.576 477.955,-684.518"/>
</g>
<!-- Node477 -->
<g id="node12" class="node"><title>Node477</title>
<g id="a_node12"><a xlink:href="../../df/da2/namespacemom__ice__shelf.html#ae71447bb7b63b4313070abc27e0a7208" target="_top" xlink:title="mom_ice_shelf::update\l_velocity_masks">
<polygon fill="white" stroke="black" points="308,-836.5 308,-866.5 426,-866.5 426,-836.5 308,-836.5"/>
<text text-anchor="start" x="316" y="-854.5" font-family="Helvetica,sans-Serif" font-size="10.00">mom_ice_shelf::update</text>
<text text-anchor="middle" x="367" y="-843.5" font-family="Helvetica,sans-Serif" font-size="10.00">_velocity_masks</text>
</a>
</g>
</g>
<!-- Node466&#45;&gt;Node477 -->
<g id="edge50" class="edge"><title>Node466&#45;&gt;Node477</title>
<path fill="none" stroke="midnightblue" d="M78.1692,-754.574C95.5795,-765.167 120.101,-779.074 143,-788.5 193.496,-809.286 253.136,-825.741 298.027,-836.614"/>
<polygon fill="midnightblue" stroke="midnightblue" points="297.41,-840.065 307.949,-838.985 299.036,-833.257 297.41,-840.065"/>
</g>
<!-- Node478 -->
<g id="node13" class="node"><title>Node478</title>
<g id="a_node13"><a xlink:href="../../df/da2/namespacemom__ice__shelf.html#a5d64b696412c0bfd8ded2e2eacaa917c" target="_top" xlink:title="mom_ice_shelf::ice\l_shelf_solve_outer">
<polygon fill="white" stroke="black" points="151.5,-355.5 151.5,-385.5 252.5,-385.5 252.5,-355.5 151.5,-355.5"/>
<text text-anchor="start" x="159.5" y="-373.5" font-family="Helvetica,sans-Serif" font-size="10.00">mom_ice_shelf::ice</text>
<text text-anchor="middle" x="202" y="-362.5" font-family="Helvetica,sans-Serif" font-size="10.00">_shelf_solve_outer</text>
</a>
</g>
</g>
<!-- Node466&#45;&gt;Node478 -->
<g id="edge13" class="edge"><title>Node466&#45;&gt;Node478</title>
<path fill="none" stroke="midnightblue" d="M60.6084,-724.114C83.3704,-666.782 163.378,-465.261 191.299,-394.935"/>
<polygon fill="midnightblue" stroke="midnightblue" points="194.59,-396.13 195.027,-385.544 188.084,-393.547 194.59,-396.13"/>
</g>
<!-- Node486 -->
<g id="node21" class="node"><title>Node486</title>
<g id="a_node21"><a xlink:href="../../df/da2/namespacemom__ice__shelf.html#a55464f46b7f452abe25f8dde166cee51" target="_top" xlink:title="mom_ice_shelf::savearray2">
<polygon fill="white" stroke="black" points="473,-493 473,-512 610,-512 610,-493 473,-493"/>
<text text-anchor="middle" x="541.5" y="-500" font-family="Helvetica,sans-Serif" font-size="10.00">mom_ice_shelf::savearray2</text>
</a>
</g>
</g>
<!-- Node466&#45;&gt;Node486 -->
<g id="edge48" class="edge"><title>Node466&#45;&gt;Node486</title>
<path fill="none" stroke="midnightblue" d="M69.8942,-724.44C86.6436,-708.784 114.816,-684.509 143,-669.5 264.084,-605.019 314.191,-636.632 437,-575.5 468.722,-559.709 501.52,-534.871 521.469,-518.634"/>
<polygon fill="midnightblue" stroke="midnightblue" points="523.959,-521.117 529.436,-512.048 519.498,-515.722 523.959,-521.117"/>
</g>
<!-- Node496 -->
<g id="node31" class="node"><title>Node496</title>
<g id="a_node31"><a xlink:href="../../df/da2/namespacemom__ice__shelf.html#a356c2cd3e4862890302bd58357d55299" target="_top" xlink:title="mom_ice_shelf::ice\l_shelf_temp">
<polygon fill="white" stroke="black" points="151.5,-749.5 151.5,-779.5 252.5,-779.5 252.5,-749.5 151.5,-749.5"/>
<text text-anchor="start" x="159.5" y="-767.5" font-family="Helvetica,sans-Serif" font-size="10.00">mom_ice_shelf::ice</text>
<text text-anchor="middle" x="202" y="-756.5" font-family="Helvetica,sans-Serif" font-size="10.00">_shelf_temp</text>
</a>
</g>
</g>
<!-- Node466&#45;&gt;Node496 -->
<g id="edge40" class="edge"><title>Node466&#45;&gt;Node496</title>
<path fill="none" stroke="midnightblue" d="M107.39,-748.526C118.308,-750.389 129.882,-752.364 141.032,-754.267"/>
<polygon fill="midnightblue" stroke="midnightblue" points="140.674,-757.756 151.121,-755.988 141.852,-750.856 140.674,-757.756"/>
</g>
<!-- Node499 -->
<g id="node34" class="node"><title>Node499</title>
<g id="a_node34"><a xlink:href="../../d0/de6/namespacemom__error__handler.html#a460cfb79a06c29fc249952c2a3710d67" target="_top" xlink:title="mom_error_handler::\lmom_error">
<polygon fill="white" stroke="black" points="149,-700.5 149,-730.5 255,-730.5 255,-700.5 149,-700.5"/>
<text text-anchor="start" x="157" y="-718.5" font-family="Helvetica,sans-Serif" font-size="10.00">mom_error_handler::</text>
<text text-anchor="middle" x="202" y="-707.5" font-family="Helvetica,sans-Serif" font-size="10.00">mom_error</text>
</a>
</g>
</g>
<!-- Node466&#45;&gt;Node499 -->
<g id="edge46" class="edge"><title>Node466&#45;&gt;Node499</title>
<path fill="none" stroke="midnightblue" d="M107.39,-730.835C117.576,-729.167 128.332,-727.405 138.782,-725.693"/>
<polygon fill="midnightblue" stroke="midnightblue" points="139.376,-729.142 148.679,-724.071 138.245,-722.234 139.376,-729.142"/>
</g>
<!-- Node500 -->
<g id="node35" class="node"><title>Node500</title>
<g id="a_node35"><a xlink:href="../../df/da2/namespacemom__ice__shelf.html#a1a323e884141c533e729dc44c6bbf91d" target="_top" xlink:title="mom_ice_shelf::update\l_od_ffrac_uncoupled">
<polygon fill="white" stroke="black" points="143,-306.5 143,-336.5 261,-336.5 261,-306.5 143,-306.5"/>
<text text-anchor="start" x="151" y="-324.5" font-family="Helvetica,sans-Serif" font-size="10.00">mom_ice_shelf::update</text>
<text text-anchor="middle" x="202" y="-313.5" font-family="Helvetica,sans-Serif" font-size="10.00">_od_ffrac_uncoupled</text>
</a>
</g>
</g>
<!-- Node466&#45;&gt;Node500 -->
<g id="edge49" class="edge"><title>Node466&#45;&gt;Node500</title>
<path fill="none" stroke="midnightblue" d="M56.0695,-724.09C63.0011,-658.746 92.7724,-405.168 143,-345.5 143.719,-344.645 144.474,-343.821 145.26,-343.025"/>
<polygon fill="midnightblue" stroke="midnightblue" points="147.561,-345.665 153.075,-336.618 143.123,-340.252 147.561,-345.665"/>
</g>
<!-- Node470 -->
<g id="node5" class="node"><title>Node470</title>
<g id="a_node5"><a xlink:href="../../df/da2/namespacemom__ice__shelf.html#ae577f1cfafb12ba9b009523fcf43cda7" target="_top" xlink:title="mom_ice_shelf::calve\l_to_mask">
<polygon fill="white" stroke="black" points="311,-1032.5 311,-1062.5 423,-1062.5 423,-1032.5 311,-1032.5"/>
<text text-anchor="start" x="319" y="-1050.5" font-family="Helvetica,sans-Serif" font-size="10.00">mom_ice_shelf::calve</text>
<text text-anchor="middle" x="367" y="-1039.5" font-family="Helvetica,sans-Serif" font-size="10.00">_to_mask</text>
</a>
</g>
</g>
<!-- Node469&#45;&gt;Node470 -->
<g id="edge4" class="edge"><title>Node469&#45;&gt;Node470</title>
<path fill="none" stroke="midnightblue" d="M248.482,-915.623C253.082,-918.41 257.382,-921.678 261,-925.5 292.897,-959.199 263.907,-990.974 297,-1023.5 298.654,-1025.13 300.423,-1026.64 302.283,-1028.05"/>
<polygon fill="midnightblue" stroke="midnightblue" points="300.637,-1031.16 310.942,-1033.62 304.421,-1025.27 300.637,-1031.16"/>
</g>
<!-- Node471 -->
<g id="node6" class="node"><title>Node471</title>
<g id="a_node6"><a xlink:href="../../df/da2/namespacemom__ice__shelf.html#a8bd6d78f530289dc90ffbdb0b80e7883" target="_top" xlink:title="mom_ice_shelf::ice\l_shelf_advect_thickness_x">
<polygon fill="white" stroke="black" points="299.5,-983.5 299.5,-1013.5 434.5,-1013.5 434.5,-983.5 299.5,-983.5"/>
<text text-anchor="start" x="307.5" y="-1001.5" font-family="Helvetica,sans-Serif" font-size="10.00">mom_ice_shelf::ice</text>
<text text-anchor="middle" x="367" y="-990.5" font-family="Helvetica,sans-Serif" font-size="10.00">_shelf_advect_thickness_x</text>
</a>
</g>
</g>
<!-- Node469&#45;&gt;Node471 -->
<g id="edge5" class="edge"><title>Node469&#45;&gt;Node471</title>
<path fill="none" stroke="midnightblue" d="M245.391,-915.59C250.912,-918.45 256.281,-921.745 261,-925.5 282.147,-942.325 275.259,-958.45 297,-974.5 298.865,-975.877 300.816,-977.18 302.831,-978.412"/>
<polygon fill="midnightblue" stroke="midnightblue" points="301.543,-981.695 312.004,-983.373 304.873,-975.537 301.543,-981.695"/>
</g>
<!-- Node473 -->
<g id="node8" class="node"><title>Node473</title>
<g id="a_node8"><a xlink:href="../../df/da2/namespacemom__ice__shelf.html#a0663fa04e4a2df8b6676a0c5364ac8ee" target="_top" xlink:title="mom_ice_shelf::ice\l_shelf_advect_thickness_y">
<polygon fill="white" stroke="black" points="299.5,-934.5 299.5,-964.5 434.5,-964.5 434.5,-934.5 299.5,-934.5"/>
<text text-anchor="start" x="307.5" y="-952.5" font-family="Helvetica,sans-Serif" font-size="10.00">mom_ice_shelf::ice</text>
<text text-anchor="middle" x="367" y="-941.5" font-family="Helvetica,sans-Serif" font-size="10.00">_shelf_advect_thickness_y</text>
</a>
</g>
</g>
<!-- Node469&#45;&gt;Node473 -->
<g id="edge7" class="edge"><title>Node469&#45;&gt;Node473</title>
<path fill="none" stroke="midnightblue" d="M252.791,-915.468C269.696,-920.55 288.757,-926.28 306.352,-931.569"/>
<polygon fill="midnightblue" stroke="midnightblue" points="305.368,-934.928 315.952,-934.455 307.383,-928.224 305.368,-934.928"/>
</g>
<!-- Node474 -->
<g id="node9" class="node"><title>Node474</title>
<g id="a_node9"><a xlink:href="../../df/da2/namespacemom__ice__shelf.html#a850dc882bb94f5b3eacdfdbf25cb19b8" target="_top" xlink:title="mom_ice_shelf::ice\l_shelf_min_thickness_calve">
<polygon fill="white" stroke="black" points="297,-1081.5 297,-1111.5 437,-1111.5 437,-1081.5 297,-1081.5"/>
<text text-anchor="start" x="305" y="-1099.5" font-family="Helvetica,sans-Serif" font-size="10.00">mom_ice_shelf::ice</text>
<text text-anchor="middle" x="367" y="-1088.5" font-family="Helvetica,sans-Serif" font-size="10.00">_shelf_min_thickness_calve</text>
</a>
</g>
</g>
<!-- Node469&#45;&gt;Node474 -->
<g id="edge9" class="edge"><title>Node469&#45;&gt;Node474</title>
<path fill="none" stroke="midnightblue" d="M249.48,-915.594C253.784,-918.374 257.743,-921.649 261,-925.5 304.435,-976.86 251.738,-1022.74 297,-1072.5 297.888,-1073.48 298.818,-1074.41 299.785,-1075.31"/>
<polygon fill="midnightblue" stroke="midnightblue" points="297.773,-1078.18 307.84,-1081.48 302.029,-1072.62 297.773,-1078.18"/>
</g>
<!-- Node475 -->
<g id="node10" class="node"><title>Node475</title>
<g id="a_node10"><a xlink:href="../../df/da2/namespacemom__ice__shelf.html#aafa24b7ba297a29d9897576939282815" target="_top" xlink:title="mom_ice_shelf::shelf\l_advance_front">
<polygon fill="white" stroke="black" points="312,-885.5 312,-915.5 422,-915.5 422,-885.5 312,-885.5"/>
<text text-anchor="start" x="320" y="-903.5" font-family="Helvetica,sans-Serif" font-size="10.00">mom_ice_shelf::shelf</text>
<text text-anchor="middle" x="367" y="-892.5" font-family="Helvetica,sans-Serif" font-size="10.00">_advance_front</text>
</a>
</g>
</g>
<!-- Node469&#45;&gt;Node475 -->
<g id="edge10" class="edge"><title>Node469&#45;&gt;Node475</title>
<path fill="none" stroke="midnightblue" d="M252.791,-900.5C268.297,-900.5 285.618,-900.5 301.957,-900.5"/>
<polygon fill="midnightblue" stroke="midnightblue" points="301.978,-904 311.978,-900.5 301.978,-897 301.978,-904"/>
</g>
<!-- Node469&#45;&gt;Node477 -->
<g id="edge12" class="edge"><title>Node469&#45;&gt;Node477</title>
<path fill="none" stroke="midnightblue" d="M252.791,-885.532C269.696,-880.45 288.757,-874.72 306.352,-869.431"/>
<polygon fill="midnightblue" stroke="midnightblue" points="307.383,-872.776 315.952,-866.545 305.368,-866.072 307.383,-872.776"/>
</g>
<!-- Node472 -->
<g id="node7" class="node"><title>Node472</title>
<g id="a_node7"><a xlink:href="../../df/da2/namespacemom__ice__shelf.html#ac30ce29228457ec8a19679f25960ef21" target="_top" xlink:title="mom_ice_shelf::slope\l_limiter">
<polygon fill="white" stroke="black" points="485.5,-860.5 485.5,-890.5 597.5,-890.5 597.5,-860.5 485.5,-860.5"/>
<text text-anchor="start" x="493.5" y="-878.5" font-family="Helvetica,sans-Serif" font-size="10.00">mom_ice_shelf::slope</text>
<text text-anchor="middle" x="541.5" y="-867.5" font-family="Helvetica,sans-Serif" font-size="10.00">_limiter</text>
</a>
</g>
</g>
<!-- Node471&#45;&gt;Node472 -->
<g id="edge6" class="edge"><title>Node471&#45;&gt;Node472</title>
<path fill="none" stroke="midnightblue" d="M419.26,-983.471C425.424,-980.858 431.482,-977.875 437,-974.5 470.816,-953.815 502.653,-920.5 521.861,-898.307"/>
<polygon fill="midnightblue" stroke="midnightblue" points="524.537,-900.564 528.347,-890.678 519.203,-896.03 524.537,-900.564"/>
</g>
<!-- Node473&#45;&gt;Node472 -->
<g id="edge8" class="edge"><title>Node473&#45;&gt;Node472</title>
<path fill="none" stroke="midnightblue" d="M413.562,-934.488C421.437,-931.656 429.5,-928.604 437,-925.5 459.026,-916.385 483.032,-904.89 502.374,-895.22"/>
<polygon fill="midnightblue" stroke="midnightblue" points="504.11,-898.265 511.465,-890.639 500.96,-892.013 504.11,-898.265"/>
</g>
<!-- Node475&#45;&gt;Node476 -->
<g id="edge11" class="edge"><title>Node475&#45;&gt;Node476</title>
<path fill="none" stroke="midnightblue" d="M421.751,-885.471C427.222,-882.673 432.436,-879.377 437,-875.5 488.883,-831.429 519.825,-754.462 533.001,-715.144"/>
<polygon fill="midnightblue" stroke="midnightblue" points="536.354,-716.148 536.109,-705.556 529.696,-713.989 536.354,-716.148"/>
</g>
<!-- Node478&#45;&gt;Node476 -->
<g id="edge38" class="edge"><title>Node478&#45;&gt;Node476</title>
<path fill="none" stroke="midnightblue" d="M206.17,-385.68C214.624,-422.722 240.979,-518.842 297,-575.5 325.667,-604.493 428.304,-647.362 490.809,-671.74"/>
<polygon fill="midnightblue" stroke="midnightblue" points="489.89,-675.137 500.479,-675.489 492.42,-668.611 489.89,-675.137"/>
</g>
<!-- Node479 -->
<g id="node14" class="node"><title>Node479</title>
<g id="a_node14"><a xlink:href="../../df/da2/namespacemom__ice__shelf.html#a5d534895698ad80a68be9a1b992c4d0b" target="_top" xlink:title="mom_ice_shelf::apply\l_boundary_values_bilinear">
<polygon fill="white" stroke="black" points="476,-284.5 476,-314.5 607,-314.5 607,-284.5 476,-284.5"/>
<text text-anchor="start" x="484" y="-302.5" font-family="Helvetica,sans-Serif" font-size="10.00">mom_ice_shelf::apply</text>
<text text-anchor="middle" x="541.5" y="-291.5" font-family="Helvetica,sans-Serif" font-size="10.00">_boundary_values_bilinear</text>
</a>
</g>
</g>
<!-- Node478&#45;&gt;Node479 -->
<g id="edge14" class="edge"><title>Node478&#45;&gt;Node479</title>
<path fill="none" stroke="midnightblue" d="M252.591,-356.584C266.873,-352.774 282.509,-348.791 297,-345.5 353.303,-332.713 417.494,-320.691 465.828,-312.146"/>
<polygon fill="midnightblue" stroke="midnightblue" points="466.65,-315.555 475.893,-310.376 465.438,-308.661 466.65,-315.555"/>
</g>
<!-- Node480 -->
<g id="node15" class="node"><title>Node480</title>
<g id="a_node15"><a xlink:href="../../df/da2/namespacemom__ice__shelf.html#a9f77faf4c64078c8bce0546bb024f34e" target="_top" xlink:title="mom_ice_shelf::bilinear\l_shape_functions">
<polygon fill="white" stroke="black" points="656.5,-210.5 656.5,-240.5 775.5,-240.5 775.5,-210.5 656.5,-210.5"/>
<text text-anchor="start" x="664.5" y="-228.5" font-family="Helvetica,sans-Serif" font-size="10.00">mom_ice_shelf::bilinear</text>
<text text-anchor="middle" x="716" y="-217.5" font-family="Helvetica,sans-Serif" font-size="10.00">_shape_functions</text>
</a>
</g>
</g>
<!-- Node478&#45;&gt;Node480 -->
<g id="edge19" class="edge"><title>Node478&#45;&gt;Node480</title>
<path fill="none" stroke="midnightblue" d="M249.958,-355.387C254.115,-352.615 257.911,-349.348 261,-345.5 314.263,-279.163 236.234,-217.04 297,-157.5 346.909,-108.597 550.663,-90.6017 610,-127.5 640.72,-146.603 619.046,-176.373 646,-200.5 647.736,-202.054 649.575,-203.513 651.495,-204.883"/>
<polygon fill="midnightblue" stroke="midnightblue" points="650.003,-208.075 660.353,-210.339 653.674,-202.115 650.003,-208.075"/>
</g>
<!-- Node483 -->
<g id="node18" class="node"><title>Node483</title>
<g id="a_node18"><a xlink:href="../../df/da2/namespacemom__ice__shelf.html#a6d1174213d77aef09d2eaae2fd138edd" target="_top" xlink:title="mom_ice_shelf::apply\l_boundary_values_triangle">
<polygon fill="white" stroke="black" points="475.5,-333.5 475.5,-363.5 607.5,-363.5 607.5,-333.5 475.5,-333.5"/>
<text text-anchor="start" x="483.5" y="-351.5" font-family="Helvetica,sans-Serif" font-size="10.00">mom_ice_shelf::apply</text>
<text text-anchor="middle" x="541.5" y="-340.5" font-family="Helvetica,sans-Serif" font-size="10.00">_boundary_values_triangle</text>
</a>
</g>
</g>
<!-- Node478&#45;&gt;Node483 -->
<g id="edge18" class="edge"><title>Node478&#45;&gt;Node483</title>
<path fill="none" stroke="midnightblue" d="M252.631,-362.018C266.913,-359.874 282.54,-357.81 297,-356.5 353.238,-351.405 417.043,-349.449 465.227,-348.743"/>
<polygon fill="midnightblue" stroke="midnightblue" points="465.311,-352.242 475.264,-348.61 465.218,-345.243 465.311,-352.242"/>
</g>
<!-- Node484 -->
<g id="node19" class="node"><title>Node484</title>
<g id="a_node19"><a xlink:href="../../df/da2/namespacemom__ice__shelf.html#a4714299e786f7e62fa2c82916dac2316" target="_top" xlink:title="mom_ice_shelf::bilinear\l_shape_functions_subgrid">
<polygon fill="white" stroke="black" points="302,-49.5 302,-79.5 432,-79.5 432,-49.5 302,-49.5"/>
<text text-anchor="start" x="310" y="-67.5" font-family="Helvetica,sans-Serif" font-size="10.00">mom_ice_shelf::bilinear</text>
<text text-anchor="middle" x="367" y="-56.5" font-family="Helvetica,sans-Serif" font-size="10.00">_shape_functions_subgrid</text>
</a>
</g>
</g>
<!-- Node478&#45;&gt;Node484 -->
<g id="edge20" class="edge"><title>Node478&#45;&gt;Node484</title>
<path fill="none" stroke="midnightblue" d="M250.417,-355.345C254.431,-352.585 258.068,-349.332 261,-345.5 329.484,-255.998 228.657,-184.11 297,-94.5 299.629,-91.053 302.736,-87.9955 306.153,-85.2846"/>
<polygon fill="midnightblue" stroke="midnightblue" points="308.285,-88.068 314.609,-79.5675 304.364,-82.2691 308.285,-88.068"/>
</g>
<!-- Node485 -->
<g id="node20" class="node"><title>Node485</title>
<g id="a_node20"><a xlink:href="../../df/da2/namespacemom__ice__shelf.html#a9ccd473e87beaec693c8d90e7d68ed8f" target="_top" xlink:title="mom_ice_shelf::calc\l_shelf_driving_stress">
<polygon fill="white" stroke="black" points="312.5,-487.5 312.5,-517.5 421.5,-517.5 421.5,-487.5 312.5,-487.5"/>
<text text-anchor="start" x="320.5" y="-505.5" font-family="Helvetica,sans-Serif" font-size="10.00">mom_ice_shelf::calc</text>
<text text-anchor="middle" x="367" y="-494.5" font-family="Helvetica,sans-Serif" font-size="10.00">_shelf_driving_stress</text>
</a>
</g>
</g>
<!-- Node478&#45;&gt;Node485 -->
<g id="edge21" class="edge"><title>Node478&#45;&gt;Node485</title>
<path fill="none" stroke="midnightblue" d="M213.862,-385.852C229.911,-407.604 261.871,-447.519 297,-472.5 302.436,-476.366 308.448,-479.883 314.591,-483.036"/>
<polygon fill="midnightblue" stroke="midnightblue" points="313.105,-486.205 323.632,-487.395 316.145,-479.9 313.105,-486.205"/>
</g>
<!-- Node478&#45;&gt;Node486 -->
<g id="edge39" class="edge"><title>Node478&#45;&gt;Node486</title>
<path fill="none" stroke="midnightblue" d="M219.782,-385.631C237.694,-401.027 267.501,-424.553 297,-438.5 314.572,-446.808 425.275,-474.467 491.211,-490.576"/>
<polygon fill="midnightblue" stroke="midnightblue" points="490.449,-493.993 500.993,-492.962 492.107,-487.192 490.449,-493.993"/>
</g>
<!-- Node487 -->
<g id="node22" class="node"><title>Node487</title>
<g id="a_node22"><a xlink:href="../../df/da2/namespacemom__ice__shelf.html#ac7bf50703bb671dbde1016061a04e3c9" target="_top" xlink:title="mom_ice_shelf::calc\l_shelf_visc_bilinear">
<polygon fill="white" stroke="black" points="313.5,-0.5 313.5,-30.5 420.5,-30.5 420.5,-0.5 313.5,-0.5"/>
<text text-anchor="start" x="321.5" y="-18.5" font-family="Helvetica,sans-Serif" font-size="10.00">mom_ice_shelf::calc</text>
<text text-anchor="middle" x="367" y="-7.5" font-family="Helvetica,sans-Serif" font-size="10.00">_shelf_visc_bilinear</text>
</a>
</g>
</g>
<!-- Node478&#45;&gt;Node487 -->
<g id="edge23" class="edge"><title>Node478&#45;&gt;Node487</title>
<path fill="none" stroke="midnightblue" d="M250.517,-355.421C254.512,-352.646 258.117,-349.368 261,-345.5 342.83,-235.701 211.259,-146.273 297,-39.5 299.252,-36.6955 301.852,-34.2178 304.695,-32.0289"/>
<polygon fill="midnightblue" stroke="midnightblue" points="306.694,-34.9056 313.264,-26.5935 302.945,-28.9945 306.694,-34.9056"/>
</g>
<!-- Node488 -->
<g id="node23" class="node"><title>Node488</title>
<g id="a_node23"><a xlink:href="../../df/da2/namespacemom__ice__shelf.html#a69286817781f164a0af096b050e3ccc4" target="_top" xlink:title="mom_ice_shelf::calc\l_shelf_visc_triangular">
<polygon fill="white" stroke="black" points="311.5,-536.5 311.5,-566.5 422.5,-566.5 422.5,-536.5 311.5,-536.5"/>
<text text-anchor="start" x="319.5" y="-554.5" font-family="Helvetica,sans-Serif" font-size="10.00">mom_ice_shelf::calc</text>
<text text-anchor="middle" x="367" y="-543.5" font-family="Helvetica,sans-Serif" font-size="10.00">_shelf_visc_triangular</text>
</a>
</g>
</g>
<!-- Node478&#45;&gt;Node488 -->
<g id="edge24" class="edge"><title>Node478&#45;&gt;Node488</title>
<path fill="none" stroke="midnightblue" d="M208.181,-385.705C219.457,-416.607 249.125,-487.144 297,-526.5 299.067,-528.199 301.259,-529.788 303.542,-531.272"/>
<polygon fill="midnightblue" stroke="midnightblue" points="302.302,-534.594 312.724,-536.499 305.765,-528.51 302.302,-534.594"/>
</g>
<!-- Node489 -->
<g id="node24" class="node"><title>Node489</title>
<g id="a_node24"><a xlink:href="../../df/da2/namespacemom__ice__shelf.html#a08bef308dd58f20b81330c5706f71e1f" target="_top" xlink:title="mom_ice_shelf::cg_action\l_bilinear">
<polygon fill="white" stroke="black" points="476,-382.5 476,-412.5 607,-412.5 607,-382.5 476,-382.5"/>
<text text-anchor="start" x="484" y="-400.5" font-family="Helvetica,sans-Serif" font-size="10.00">mom_ice_shelf::cg_action</text>
<text text-anchor="middle" x="541.5" y="-389.5" font-family="Helvetica,sans-Serif" font-size="10.00">_bilinear</text>
</a>
</g>
</g>
<!-- Node478&#45;&gt;Node489 -->
<g id="edge25" class="edge"><title>Node478&#45;&gt;Node489</title>
<path fill="none" stroke="midnightblue" d="M252.799,-374.484C308.931,-378.974 400.788,-386.323 465.584,-391.507"/>
<polygon fill="midnightblue" stroke="midnightblue" points="465.494,-395.011 475.742,-392.319 466.053,-388.033 465.494,-395.011"/>
</g>
<!-- Node490 -->
<g id="node25" class="node"><title>Node490</title>
<g id="a_node25"><a xlink:href="../../df/da2/namespacemom__ice__shelf.html#a0ad3713e3c3ee71d987d6cd82c45181e" target="_top" xlink:title="mom_ice_shelf::cg_action\l_triangular">
<polygon fill="white" stroke="black" points="476,-137.5 476,-167.5 607,-167.5 607,-137.5 476,-137.5"/>
<text text-anchor="start" x="484" y="-155.5" font-family="Helvetica,sans-Serif" font-size="10.00">mom_ice_shelf::cg_action</text>
<text text-anchor="middle" x="541.5" y="-144.5" font-family="Helvetica,sans-Serif" font-size="10.00">_triangular</text>
</a>
</g>
</g>
<!-- Node478&#45;&gt;Node490 -->
<g id="edge27" class="edge"><title>Node478&#45;&gt;Node490</title>
<path fill="none" stroke="midnightblue" d="M248.999,-355.414C253.448,-352.626 257.572,-349.348 261,-345.5 298.034,-303.92 257.623,-264.869 297,-225.5 341.493,-181.015 411.945,-163.437 465.646,-156.594"/>
<polygon fill="midnightblue" stroke="midnightblue" points="466.285,-160.043 475.809,-155.4 465.469,-153.091 466.285,-160.043"/>
</g>
<!-- Node491 -->
<g id="node26" class="node"><title>Node491</title>
<g id="a_node26"><a xlink:href="../../df/da2/namespacemom__ice__shelf.html#a95d21b019a635ad3a8ef060d765362e1" target="_top" xlink:title="mom_ice_shelf::ice\l_shelf_solve_inner">
<polygon fill="white" stroke="black" points="316.5,-235.5 316.5,-265.5 417.5,-265.5 417.5,-235.5 316.5,-235.5"/>
<text text-anchor="start" x="324.5" y="-253.5" font-family="Helvetica,sans-Serif" font-size="10.00">mom_ice_shelf::ice</text>
<text text-anchor="middle" x="367" y="-242.5" font-family="Helvetica,sans-Serif" font-size="10.00">_shelf_solve_inner</text>
</a>
</g>
</g>
<!-- Node478&#45;&gt;Node491 -->
<g id="edge28" class="edge"><title>Node478&#45;&gt;Node491</title>
<path fill="none" stroke="midnightblue" d="M246.742,-355.467C251.872,-352.632 256.774,-349.328 261,-345.5 285.476,-323.331 272.559,-302.708 297,-280.5 301.109,-276.767 305.755,-273.446 310.647,-270.504"/>
<polygon fill="midnightblue" stroke="midnightblue" points="312.539,-273.459 319.655,-265.61 309.197,-267.309 312.539,-273.459"/>
</g>
<!-- Node495 -->
<g id="node30" class="node"><title>Node495</title>
<g id="a_node30"><a xlink:href="../../df/da2/namespacemom__ice__shelf.html#a8fc399c376152f2d639b506ff8a7ee24" target="_top" xlink:title="mom_ice_shelf::interpolate\l_h_to_b">
<polygon fill="white" stroke="black" points="300,-399.5 300,-429.5 434,-429.5 434,-399.5 300,-399.5"/>
<text text-anchor="start" x="308" y="-417.5" font-family="Helvetica,sans-Serif" font-size="10.00">mom_ice_shelf::interpolate</text>
<text text-anchor="middle" x="367" y="-406.5" font-family="Helvetica,sans-Serif" font-size="10.00">_h_to_b</text>
</a>
</g>
</g>
<!-- Node478&#45;&gt;Node495 -->
<g id="edge37" class="edge"><title>Node478&#45;&gt;Node495</title>
<path fill="none" stroke="midnightblue" d="M252.791,-383.941C267.832,-388.001 284.581,-392.522 300.484,-396.815"/>
<polygon fill="midnightblue" stroke="midnightblue" points="299.687,-400.225 310.254,-399.452 301.511,-393.467 299.687,-400.225"/>
</g>
<!-- Node479&#45;&gt;Node480 -->
<g id="edge15" class="edge"><title>Node479&#45;&gt;Node480</title>
<path fill="none" stroke="midnightblue" d="M584.836,-284.425C593.224,-281.268 601.928,-277.872 610,-274.5 631.854,-265.372 655.815,-254.276 675.323,-244.953"/>
<polygon fill="midnightblue" stroke="midnightblue" points="677.017,-248.022 684.513,-240.535 673.984,-241.713 677.017,-248.022"/>
</g>
<!-- Node482 -->
<g id="node17" class="node"><title>Node482</title>
<g id="a_node17"><a xlink:href="../../df/da2/namespacemom__ice__shelf.html#a925d19b978b5368c3b0d5cae3b542bfe" target="_top" xlink:title="mom_ice_shelf::cg_action\l_subgrid_basal_bilinear">
<polygon fill="white" stroke="black" points="650.5,-333.5 650.5,-363.5 781.5,-363.5 781.5,-333.5 650.5,-333.5"/>
<text text-anchor="start" x="658.5" y="-351.5" font-family="Helvetica,sans-Serif" font-size="10.00">mom_ice_shelf::cg_action</text>
<text text-anchor="middle" x="716" y="-340.5" font-family="Helvetica,sans-Serif" font-size="10.00">_subgrid_basal_bilinear</text>
</a>
</g>
</g>
<!-- Node479&#45;&gt;Node482 -->
<g id="edge17" class="edge"><title>Node479&#45;&gt;Node482</title>
<path fill="none" stroke="midnightblue" d="M595.663,-314.601C613.537,-319.679 633.644,-325.39 652.188,-330.658"/>
<polygon fill="midnightblue" stroke="midnightblue" points="651.436,-334.083 662.012,-333.448 653.349,-327.349 651.436,-334.083"/>
</g>
<!-- Node481 -->
<g id="node16" class="node"><title>Node481</title>
<g id="a_node16"><a xlink:href="../../df/da2/namespacemom__ice__shelf.html#a43bcb4adfaabc54cd57ad8d96b71c224" target="_top" xlink:title="mom_ice_shelf::quad_area">
<polygon fill="white" stroke="black" points="822,-216 822,-235 956,-235 956,-216 822,-216"/>
<text text-anchor="middle" x="889" y="-223" font-family="Helvetica,sans-Serif" font-size="10.00">mom_ice_shelf::quad_area</text>
</a>
</g>
</g>
<!-- Node480&#45;&gt;Node481 -->
<g id="edge16" class="edge"><title>Node480&#45;&gt;Node481</title>
<path fill="none" stroke="midnightblue" d="M775.848,-225.5C787.396,-225.5 799.665,-225.5 811.688,-225.5"/>
<polygon fill="midnightblue" stroke="midnightblue" points="811.709,-229 821.709,-225.5 811.709,-222 811.709,-229"/>
</g>
<!-- Node485&#45;&gt;Node486 -->
<g id="edge22" class="edge"><title>Node485&#45;&gt;Node486</title>
<path fill="none" stroke="midnightblue" d="M421.635,-502.5C434.686,-502.5 448.907,-502.5 462.827,-502.5"/>
<polygon fill="midnightblue" stroke="midnightblue" points="462.888,-506 472.888,-502.5 462.888,-499 462.888,-506"/>
</g>
<!-- Node489&#45;&gt;Node482 -->
<g id="edge26" class="edge"><title>Node489&#45;&gt;Node482</title>
<path fill="none" stroke="midnightblue" d="M595.663,-382.399C613.537,-377.321 633.644,-371.61 652.188,-366.342"/>
<polygon fill="midnightblue" stroke="midnightblue" points="653.349,-369.651 662.012,-363.552 651.436,-362.917 653.349,-369.651"/>
</g>
<!-- Node491&#45;&gt;Node479 -->
<g id="edge29" class="edge"><title>Node491&#45;&gt;Node479</title>
<path fill="none" stroke="midnightblue" d="M417.894,-264.673C436.536,-269.968 457.951,-276.051 477.614,-281.637"/>
<polygon fill="midnightblue" stroke="midnightblue" points="476.833,-285.053 487.408,-284.419 478.745,-278.32 476.833,-285.053"/>
</g>
<!-- Node491&#45;&gt;Node483 -->
<g id="edge30" class="edge"><title>Node491&#45;&gt;Node483</title>
<path fill="none" stroke="midnightblue" d="M386.802,-265.772C407.123,-281.737 440.919,-306.753 473,-323.5 476.971,-325.573 481.153,-327.555 485.409,-329.432"/>
<polygon fill="midnightblue" stroke="midnightblue" points="484.217,-332.728 494.793,-333.366 486.924,-326.272 484.217,-332.728"/>
</g>
<!-- Node491&#45;&gt;Node489 -->
<g id="edge31" class="edge"><title>Node491&#45;&gt;Node489</title>
<path fill="none" stroke="midnightblue" d="M377.42,-265.811C393.843,-291.325 430.091,-342.674 473,-372.5 475.719,-374.39 478.599,-376.157 481.576,-377.805"/>
<polygon fill="midnightblue" stroke="midnightblue" points="480.233,-381.047 490.741,-382.402 483.371,-374.79 480.233,-381.047"/>
</g>
<!-- Node491&#45;&gt;Node490 -->
<g id="edge32" class="edge"><title>Node491&#45;&gt;Node490</title>
<path fill="none" stroke="midnightblue" d="M386.352,-235.213C406.564,-218.957 440.521,-193.317 473,-176.5 476.443,-174.717 480.048,-173.013 483.725,-171.394"/>
<polygon fill="midnightblue" stroke="midnightblue" points="485.073,-174.624 492.961,-167.551 482.384,-168.161 485.073,-174.624"/>
</g>
<!-- Node492 -->
<g id="node27" class="node"><title>Node492</title>
<g id="a_node27"><a xlink:href="../../df/da2/namespacemom__ice__shelf.html#a0fa0e5e0225816e5e5e87994371f11f1" target="_top" xlink:title="mom_ice_shelf::matrix\l_diagonal_bilinear">
<polygon fill="white" stroke="black" points="483.5,-186.5 483.5,-216.5 599.5,-216.5 599.5,-186.5 483.5,-186.5"/>
<text text-anchor="start" x="491.5" y="-204.5" font-family="Helvetica,sans-Serif" font-size="10.00">mom_ice_shelf::matrix</text>
<text text-anchor="middle" x="541.5" y="-193.5" font-family="Helvetica,sans-Serif" font-size="10.00">_diagonal_bilinear</text>
</a>
</g>
</g>
<!-- Node491&#45;&gt;Node492 -->
<g id="edge33" class="edge"><title>Node491&#45;&gt;Node492</title>
<path fill="none" stroke="midnightblue" d="M417.894,-236.327C436.536,-231.032 457.951,-224.949 477.614,-219.363"/>
<polygon fill="midnightblue" stroke="midnightblue" points="478.745,-222.68 487.408,-216.581 476.833,-215.947 478.745,-222.68"/>
</g>
<!-- Node494 -->
<g id="node29" class="node"><title>Node494</title>
<g id="a_node29"><a xlink:href="../../df/da2/namespacemom__ice__shelf.html#abc77d7c18a2919c9308c39aa26f916bf" target="_top" xlink:title="mom_ice_shelf::matrix\l_diagonal_triangle">
<polygon fill="white" stroke="black" points="483.5,-235.5 483.5,-265.5 599.5,-265.5 599.5,-235.5 483.5,-235.5"/>
<text text-anchor="start" x="491.5" y="-253.5" font-family="Helvetica,sans-Serif" font-size="10.00">mom_ice_shelf::matrix</text>
<text text-anchor="middle" x="541.5" y="-242.5" font-family="Helvetica,sans-Serif" font-size="10.00">_diagonal_triangle</text>
</a>
</g>
</g>
<!-- Node491&#45;&gt;Node494 -->
<g id="edge36" class="edge"><title>Node491&#45;&gt;Node494</title>
<path fill="none" stroke="midnightblue" d="M417.894,-250.5C435.189,-250.5 454.871,-250.5 473.327,-250.5"/>
<polygon fill="midnightblue" stroke="midnightblue" points="473.431,-254 483.431,-250.5 473.431,-247 473.431,-254"/>
</g>
<!-- Node492&#45;&gt;Node480 -->
<g id="edge34" class="edge"><title>Node492&#45;&gt;Node480</title>
<path fill="none" stroke="midnightblue" d="M599.94,-209.492C614.814,-211.561 630.979,-213.81 646.363,-215.95"/>
<polygon fill="midnightblue" stroke="midnightblue" points="645.951,-219.427 656.338,-217.338 646.916,-212.494 645.951,-219.427"/>
</g>
<!-- Node493 -->
<g id="node28" class="node"><title>Node493</title>
<g id="a_node28"><a xlink:href="../../df/da2/namespacemom__ice__shelf.html#af109d5577049ff4ded3b07d5ab25a771" target="_top" xlink:title="mom_ice_shelf::cg_diagonal\l_subgrid_basal_bilinear">
<polygon fill="white" stroke="black" points="646,-161.5 646,-191.5 786,-191.5 786,-161.5 646,-161.5"/>
<text text-anchor="start" x="654" y="-179.5" font-family="Helvetica,sans-Serif" font-size="10.00">mom_ice_shelf::cg_diagonal</text>
<text text-anchor="middle" x="716" y="-168.5" font-family="Helvetica,sans-Serif" font-size="10.00">_subgrid_basal_bilinear</text>
</a>
</g>
</g>
<!-- Node492&#45;&gt;Node493 -->
<g id="edge35" class="edge"><title>Node492&#45;&gt;Node493</title>
<path fill="none" stroke="midnightblue" d="M599.94,-193.175C611.425,-191.511 623.681,-189.735 635.752,-187.985"/>
<polygon fill="midnightblue" stroke="midnightblue" points="636.433,-191.423 645.828,-186.525 635.429,-184.496 636.433,-191.423"/>
</g>
<!-- Node497 -->
<g id="node32" class="node"><title>Node497</title>
<g id="a_node32"><a xlink:href="../../df/da2/namespacemom__ice__shelf.html#a0ffb4a930ade24b82233f6da5b525ca9" target="_top" xlink:title="mom_ice_shelf::ice\l_shelf_advect_temp_x">
<polygon fill="white" stroke="black" points="309.5,-787.5 309.5,-817.5 424.5,-817.5 424.5,-787.5 309.5,-787.5"/>
<text text-anchor="start" x="317.5" y="-805.5" font-family="Helvetica,sans-Serif" font-size="10.00">mom_ice_shelf::ice</text>
<text text-anchor="middle" x="367" y="-794.5" font-family="Helvetica,sans-Serif" font-size="10.00">_shelf_advect_temp_x</text>
</a>
</g>
</g>
<!-- Node496&#45;&gt;Node497 -->
<g id="edge41" class="edge"><title>Node496&#45;&gt;Node497</title>
<path fill="none" stroke="midnightblue" d="M252.791,-776.108C267.46,-779.527 283.753,-783.326 299.301,-786.951"/>
<polygon fill="midnightblue" stroke="midnightblue" points="298.854,-790.44 309.387,-789.302 300.443,-783.623 298.854,-790.44"/>
</g>
<!-- Node498 -->
<g id="node33" class="node"><title>Node498</title>
<g id="a_node33"><a xlink:href="../../df/da2/namespacemom__ice__shelf.html#a15c9ad8686b798642fc092a3f4ee2e07" target="_top" xlink:title="mom_ice_shelf::ice\l_shelf_advect_temp_y">
<polygon fill="white" stroke="black" points="309.5,-738.5 309.5,-768.5 424.5,-768.5 424.5,-738.5 309.5,-738.5"/>
<text text-anchor="start" x="317.5" y="-756.5" font-family="Helvetica,sans-Serif" font-size="10.00">mom_ice_shelf::ice</text>
<text text-anchor="middle" x="367" y="-745.5" font-family="Helvetica,sans-Serif" font-size="10.00">_shelf_advect_temp_y</text>
</a>
</g>
</g>
<!-- Node496&#45;&gt;Node498 -->
<g id="edge43" class="edge"><title>Node496&#45;&gt;Node498</title>
<path fill="none" stroke="midnightblue" d="M252.791,-761.14C267.46,-760.15 283.753,-759.05 299.301,-758.001"/>
<polygon fill="midnightblue" stroke="midnightblue" points="299.646,-761.486 309.387,-757.32 299.174,-754.502 299.646,-761.486"/>
</g>
<!-- Node497&#45;&gt;Node472 -->
<g id="edge42" class="edge"><title>Node497&#45;&gt;Node472</title>
<path fill="none" stroke="midnightblue" d="M413.542,-817.562C421.419,-820.388 429.488,-823.426 437,-826.5 458.821,-835.43 482.636,-846.602 501.915,-856.022"/>
<polygon fill="midnightblue" stroke="midnightblue" points="500.469,-859.211 510.986,-860.489 503.561,-852.931 500.469,-859.211"/>
</g>
<!-- Node498&#45;&gt;Node472 -->
<g id="edge44" class="edge"><title>Node498&#45;&gt;Node472</title>
<path fill="none" stroke="midnightblue" d="M419.244,-768.556C425.41,-771.164 431.473,-774.139 437,-777.5 470.558,-797.91 502.29,-830.683 521.56,-852.644"/>
<polygon fill="midnightblue" stroke="midnightblue" points="519.135,-855.191 528.313,-860.482 524.438,-850.622 519.135,-855.191"/>
</g>
<!-- Node499&#45;&gt;Node476 -->
<g id="edge47" class="edge"><title>Node499&#45;&gt;Node476</title>
<path fill="none" stroke="midnightblue" d="M255.364,-711.621C315.434,-707.172 413.868,-699.88 477.925,-695.135"/>
<polygon fill="midnightblue" stroke="midnightblue" points="478.577,-698.597 488.291,-694.367 478.06,-691.616 478.577,-698.597"/>
</g>
</g>
</svg>
